999
dxfrw 0.6.3
  0
SECTION
  2
HEADER
  9
$ACADVER
  1
AC1021
  9
$DWGCODEPAGE
  3
ANSI_1252
  9
$INSBASE
 10
0
 20
0
 30
0
  9
$EXTMIN
 10
10000000000
 20
10000000000
 30
0
  9
$EXTMAX
 10
-10000000000
 20
-10000000000
 30
0
  9
$LIMMIN
 10
0
 20
0
  9
$LIMMAX
 10
420
 20
297
  9
$ORTHOMODE
 70
    0
  9
$REGENMODE
 70
    1
  9
$FILLMODE
 70
    1
  9
$QTEXTMODE
 70
    0
  9
$MIRRTEXT
 70
    0
  9
$LTSCALE
 40
1
  9
$ATTMODE
 70
    0
  9
$TEXTSIZE
 40
2.5
  9
$TRACEWID
 40
15.68
  9
$TEXTSTYLE
  7
STANDARD
  9
$CLAYER
  8
trymach
  9
$CELTYPE
  6
BYLAYER
  9
$CECOLOR
 62
  256
  9
$CELTSCALE
 40
1
  9
$DISPSILH
 70
    0
  9
$DIMSCALE
 40
2.5
  9
$DIMASZ
 40
2.5
  9
$DIMEXO
 40
0.625
  9
$DIMDLI
 40
3.75
  9
$DIMRND
 40
0
  9
$DIMDLE
 40
0
  9
$DIMEXE
 40
1.25
  9
$DIMTP
 40
0
  9
$DIMTM
 40
0
  9
$DIMTXT
 40
2.5
  9
$DIMCEN
 40
2.5
  9
$DIMTSZ
 40
0
  9
$DIMTOL
 70
    0
  9
$DIMLIM
 70
    0
  9
$DIMTIH
 70
    0
  9
$DIMTOH
 70
    0
  9
$DIMSE1
 70
    0
  9
$DIMSE2
 70
    0
  9
$DIMTAD
 70
    1
  9
$DIMZIN
 70
    8
  9
$DIMBLK
  1

  9
$DIMASO
 70
    1
  9
$DIMSHO
 70
    1
  9
$DIMPOST
  1

  9
$DIMAPOST
  1

  9
$DIMALT
 70
    0
  9
$DIMALTD
 70
    3
  9
$DIMALTF
 40
0.03937
  9
$DIMLFAC
 40
1
  9
$DIMTOFL
 70
    1
  9
$DIMTVP
 40
0
  9
$DIMTIX
 70
    0
  9
$DIMSOXD
 70
    0
  9
$DIMSAH
 70
    0
  9
$DIMBLK1
  1

  9
$DIMBLK2
  1

  9
$DIMSTYLE
  2
STANDARD
  9
$DIMCLRD
 70
    0
  9
$DIMCLRE
 70
    0
  9
$DIMCLRT
 70
    0
  9
$DIMTFAC
 40
1
  9
$DIMGAP
 40
0.625
  9
$DIMJUST
 70
    0
  9
$DIMSD1
 70
    0
  9
$DIMSD2
 70
    0
  9
$DIMTOLJ
 70
    0
  9
$DIMTZIN
 70
    8
  9
$DIMALTZ
 70
    0
  9
$DIMALTTZ
 70
    0
  9
$DIMUPT
 70
    0
  9
$DIMDEC
 70
    1
  9
$DIMTDEC
 70
    2
  9
$DIMALTU
 70
    2
  9
$DIMALTTD
 70
    3
  9
$DIMTXSTY
  7
standard
  9
$DIMAUNIT
 70
    0
  9
$DIMADEC
 70
    1
  9
$DIMALTRND
 40
0
  9
$DIMAZIN
 70
    2
  9
$DIMDSEP
 70
   44
  9
$DIMATFIT
 70
    3
  9
$DIMFRAC
 70
    0
  9
$DIMLDRBLK
  1
STANDARD
  9
$DIMLUNIT
 70
    2
  9
$DIMLWD
 70
   -2
  9
$DIMLWE
 70
   -2
  9
$DIMTMOVE
 70
    0
  9
$DIMFXL
 40
1
  9
$DIMFXLON
 70
    0
  9
$DIMJOGANG
 40
0.7854
  9
$DIMTFILL
 70
    0
  9
$DIMTFILLCLR
 70
    0
  9
$DIMARCSYM
 70
    0
  9
$DIMLTYPE
  6

  9
$DIMLTEX1
  6

  9
$DIMLTEX2
  6

  9
$LUNITS
 70
    2
  9
$LUPREC
 70
    1
  9
$SKETCHINC
 40
1
  9
$FILLETRAD
 40
0
  9
$AUNITS
 70
    0
  9
$AUPREC
 70
    1
  9
$MENU
  1
.
  9
$ELEVATION
 40
0
  9
$PELEVATION
 40
0
  9
$THICKNESS
 40
0
  9
$LIMCHECK
 70
    0
  9
$CHAMFERA
 40
0
  9
$CHAMFERB
 40
0
  9
$CHAMFERC
 40
0
  9
$CHAMFERD
 40
0
  9
$SKPOLY
 70
    0
  9
$USRTIMER
 70
    1
  9
$ANGBASE
 50
0
  9
$ANGDIR
 70
    0
  9
$PDMODE
 70
   34
  9
$PDSIZE
 40
0
  9
$PLINEWID
 40
0
  9
$SPLFRAME
 70
    0
  9
$SPLINETYPE
 70
    2
  9
$SPLINESEGS
 70
    8
  9
$HANDSEED
  5
20000
  9
$SURFTAB1
 70
    6
  9
$SURFTAB2
 70
    6
  9
$SURFTYPE
 70
    6
  9
$SURFU
 70
    6
  9
$SURFV
 70
    6
  9
$UCSBASE
  2

  9
$UCSNAME
  2

  9
$UCSORG
 10
0
 20
0
 30
0
  9
$UCSXDIR
 10
1
 20
0
 30
0
  9
$UCSYDIR
 10
0
 20
1
 30
0
  9
$UCSORTHOREF
  2

  9
$UCSORTHOVIEW
 70
    0
  9
$UCSORGTOP
 10
0
 20
0
 30
0
  9
$UCSORGBOTTOM
 10
0
 20
0
 30
0
  9
$UCSORGLEFT
 10
0
 20
0
 30
0
  9
$UCSORGRIGHT
 10
0
 20
0
 30
0
  9
$UCSORGFRONT
 10
0
 20
0
 30
0
  9
$UCSORGBACK
 10
0
 20
0
 30
0
  9
$PUCSBASE
  2

  9
$PUCSNAME
  2

  9
$PUCSORG
 10
0
 20
0
 30
0
  9
$PUCSXDIR
 10
1
 20
0
 30
0
  9
$PUCSYDIR
 10
0
 20
1
 30
0
  9
$PUCSORTHOREF
  2

  9
$PUCSORTHOVIEW
 70
    0
  9
$PUCSORGTOP
 10
0
 20
0
 30
0
  9
$PUCSORGBOTTOM
 10
0
 20
0
 30
0
  9
$PUCSORGLEFT
 10
0
 20
0
 30
0
  9
$PUCSORGRIGHT
 10
0
 20
0
 30
0
  9
$PUCSORGFRONT
 10
0
 20
0
 30
0
  9
$PUCSORGBACK
 10
0
 20
0
 30
0
  9
$USERI1
 70
    0
  9
$USERI2
 70
    0
  9
$USERI3
 70
    0
  9
$USERI4
 70
    0
  9
$USERI5
 70
    0
  9
$USERR1
 40
0
  9
$USERR2
 40
0
  9
$USERR3
 40
0
  9
$USERR4
 40
0
  9
$USERR5
 40
0
  9
$WORLDVIEW
 70
    1
  9
$SHADEDGE
 70
    3
  9
$SHADEDIF
 70
   70
  9
$TILEMODE
 70
    1
  9
$MAXACTVP
 70
   64
  9
$PINSBASE
 10
39.62810707456982
 20
137.9302103250478
 30
0
  9
$PLIMCHECK
 70
    0
  9
$PEXTMIN
 10
0
 20
0
 30
0
  9
$PEXTMAX
 10
0
 20
0
 30
0
  9
$GRIDMODE
 70
    1
  9
$SNAPSTYLE
 70
    0
  9
$GRIDUNIT
 10
0
 20
0
  9
$PLIMMIN
 10
0
 20
0
  9
$PLIMMAX
 10
297
 20
210
  9
$UNITMODE
 70
    0
  9
$VISRETAIN
 70
    1
  9
$PLINEGEN
 70
    0
  9
$PSLTSCALE
 70
    1
  9
$TREEDEPTH
 70
 3020
  9
$CMLSTYLE
  2
Standard
  9
$CMLJUST
 70
    0
  9
$CMLSCALE
 40
20
  9
$PROXYGRAPHICS
 70
    1
  9
$MEASUREMENT
 70
    1
  9
$CELWEIGHT
370
   -1
  9
$ENDCAPS
280
    0
  9
$JOINSTYLE
280
    0
  9
$LWDISPLAY
290
    0
  9
$INSUNITS
 70
    4
  9
$HYPERLINKBASE
  1

  9
$STYLESHEET
  1

  9
$XEDIT
290
    1
  9
$CEPSNTYPE
380
    0
  9
$PSTYLEMODE
290
    1
  9
$EXTNAMES
290
    1
  9
$PSVPSCALE
 40
0.4588910133843211
  9
$OLESTARTUP
290
    0
  9
$SORTENTS
280
  127
  9
$INDEXCTL
280
    0
  9
$HIDETEXT
280
    1
  9
$XCLIPFRAME
290
    0
  9
$HALOGAP
280
    0
  9
$OBSCOLOR
 70
  257
  9
$OBSLTYPE
280
    0
  9
$INTERSECTIONDISPLAY
280
    0
  9
$INTERSECTIONCOLOR
 70
  257
  9
$DIMASSOC
280
    1
  9
$PROJECTNAME
  1

  9
$CAMERADISPLAY
290
    0
  9
$LENSLENGTH
 40
50
  9
$CAMERAHEIGHT
 40
0
  9
$STEPSPERSEC
 40
2
  9
$STEPSIZE
 40
50
  9
$3DDWFPREC
 40
2
  9
$PSOLWIDTH
 40
5
  9
$PSOLHEIGHT
 40
80
  9
$LOFTANG1
 40
1.570796326794897
  9
$LOFTANG2
 40
1.570796326794897
  9
$LOFTMAG1
 40
0
  9
$LOFTMAG2
 40
0
  9
$LOFTPARAM
 70
    7
  9
$LOFTNORMALS
280
    1
  9
$LATITUDE
 40
1
  9
$LONGITUDE
 40
1
  9
$NORTHDIRECTION
 40
0
  9
$TIMEZONE
 70
-8000
  9
$LIGHTGLYPHDISPLAY
280
    1
  9
$TILEMODELIGHTSYNCH
280
    1
  9
$SOLIDHIST
280
    1
  9
$SHOWHIST
280
    1
  9
$DWFFRAME
280
    2
  9
$DGNFRAME
280
    0
  9
$REALWORLDSCALE
290
    1
  9
$INTERFERECOLOR
 62
    1
  9
$CSHADOW
280
    0
  9
$SHADOWPLANELOCATION
 40
0
  0
ENDSEC
  0
SECTION
  2
CLASSES
  0
ENDSEC
  0
SECTION
  2
TABLES
  0
TABLE
  2
VPORT
  5
8
330
0
100
AcDbSymbolTable
 70
    1
  0
VPORT
  5
31
330
2
100
AcDbSymbolTableRecord
100
AcDbViewportTableRecord
  2
*ACTIVE
 70
    0
 10
0
 20
0
 11
1
 21
1
 12
153.8568549981277
 22
41.47258800927186
 13
0
 23
0
 14
10
 24
10
 15
10
 25
10
 16
0
 26
0
 36
1
 17
0
 27
0
 37
0
 40
159.4438357662162
 41
1.987870619946092
 42
50
 43
0
 44
0
 50
0
 51
0
 71
    0
 72
  100
 73
    1
 74
    3
 75
    0
 76
    1
 77
    0
 78
    0
281
    0
 65
    1
110
0
120
0
130
0
111
1
121
0
131
0
112
0
122
1
132
0
 79
    0
146
0
348
10020
 60
    7
 61
    5
292
1
282
    1
141
0
142
0
 63
  250
421
3358443
  0
ENDTAB
  0
TABLE
  2
LTYPE
  5
5
330
0
100
AcDbSymbolTable
 70
    4
  0
LTYPE
  5
14
330
5
100
AcDbSymbolTableRecord
100
AcDbLinetypeTableRecord
  2
ByBlock
 70
    0
  3

 72
   65
 73
    0
 40
0
  0
LTYPE
  5
15
330
5
100
AcDbSymbolTableRecord
100
AcDbLinetypeTableRecord
  2
ByLayer
 70
    0
  3

 72
   65
 73
    0
 40
0
  0
LTYPE
  5
16
330
5
100
AcDbSymbolTableRecord
100
AcDbLinetypeTableRecord
  2
Continuous
 70
    0
  3
Solid line
 72
   65
 73
    0
 40
0
  0
LTYPE
  5
32
330
5
100
AcDbSymbolTableRecord
100
AcDbLinetypeTableRecord
  2
DOT
 70
    0
  3
Dot . . . . . . . . . . . . . . . . . . . . . .
 72
   65
 73
    2
 40
6.35
 49
0
 74
    0
 49
-6.35
 74
    0
  0
LTYPE
  5
33
330
5
100
AcDbSymbolTableRecord
100
AcDbLinetypeTableRecord
  2
DOTTINY
 70
    0
  3
Dot (.15x) .....................................
 72
   65
 73
    2
 40
0.9525
 49
0
 74
    0
 49
-0.9525
 74
    0
  0
LTYPE
  5
34
330
5
100
AcDbSymbolTableRecord
100
AcDbLinetypeTableRecord
  2
DOT2
 70
    0
  3
Dot (.5x) .....................................
 72
   65
 73
    2
 40
3.175
 49
0
 74
    0
 49
-3.175
 74
    0
  0
LTYPE
  5
35
330
5
100
AcDbSymbolTableRecord
100
AcDbLinetypeTableRecord
  2
DOTX2
 70
    0
  3
Dot (2x) .  .  .  .  .  .  .  .  .  .  .  .  .
 72
   65
 73
    2
 40
12.7
 49
0
 74
    0
 49
-12.7
 74
    0
  0
LTYPE
  5
36
330
5
100
AcDbSymbolTableRecord
100
AcDbLinetypeTableRecord
  2
DASHED
 70
    0
  3
Dashed _ _ _ _ _ _ _ _ _ _ _ _ _ _ _ _ _
 72
   65
 73
    2
 40
19.05
 49
12.7
 74
    0
 49
-6.35
 74
    0
  0
LTYPE
  5
37
330
5
100
AcDbSymbolTableRecord
100
AcDbLinetypeTableRecord
  2
DASHEDTINY
 70
    0
  3
Dashed (.15x) _ _ _ _ _ _ _ _ _ _ _ _ _ _ _ _ _
 72
   65
 73
    2
 40
2.8575
 49
1.905
 74
    0
 49
-0.9525
 74
    0
  0
LTYPE
  5
38
330
5
100
AcDbSymbolTableRecord
100
AcDbLinetypeTableRecord
  2
DASHED2
 70
    0
  3
Dashed (.5x) _ _ _ _ _ _ _ _ _ _ _ _ _ _ _ _ _
 72
   65
 73
    2
 40
9.524999999999999
 49
6.35
 74
    0
 49
-3.175
 74
    0
  0
LTYPE
  5
39
330
5
100
AcDbSymbolTableRecord
100
AcDbLinetypeTableRecord
  2
DASHEDX2
 70
    0
  3
Dashed (2x) ____  ____  ____  ____  ____  ___
 72
   65
 73
    2
 40
38.09999999999999
 49
25.4
 74
    0
 49
-12.7
 74
    0
  0
LTYPE
  5
3A
330
5
100
AcDbSymbolTableRecord
100
AcDbLinetypeTableRecord
  2
DASHDOT
 70
    0
  3
Dash dot __ . __ . __ . __ . __ . __ . __ . __
 72
   65
 73
    4
 40
25.4
 49
12.7
 74
    0
 49
-6.35
 74
    0
 49
0
 74
    0
 49
-6.35
 74
    0
  0
LTYPE
  5
3B
330
5
100
AcDbSymbolTableRecord
100
AcDbLinetypeTableRecord
  2
DASHDOTTINY
 70
    0
  3
Dash dot (.15x) _._._._._._._._._._._._._._._.
 72
   65
 73
    4
 40
3.81
 49
1.905
 74
    0
 49
-0.9525
 74
    0
 49
0
 74
    0
 49
-0.9525
 74
    0
  0
LTYPE
  5
3C
330
5
100
AcDbSymbolTableRecord
100
AcDbLinetypeTableRecord
  2
DASHDOT2
 70
    0
  3
Dash dot (.5x) _._._._._._._._._._._._._._._.
 72
   65
 73
    4
 40
12.7
 49
6.35
 74
    0
 49
-3.175
 74
    0
 49
0
 74
    0
 49
-3.175
 74
    0
  0
LTYPE
  5
3D
330
5
100
AcDbSymbolTableRecord
100
AcDbLinetypeTableRecord
  2
DASHDOTX2
 70
    0
  3
Dash dot (2x) ____  .  ____  .  ____  .  ___
 72
   65
 73
    4
 40
50.8
 49
25.4
 74
    0
 49
-12.7
 74
    0
 49
0
 74
    0
 49
-12.7
 74
    0
  0
LTYPE
  5
3E
330
5
100
AcDbSymbolTableRecord
100
AcDbLinetypeTableRecord
  2
DIVIDE
 70
    0
  3
Divide ____ . . ____ . . ____ . . ____ . . ____
 72
   65
 73
    6
 40
31.75
 49
12.7
 74
    0
 49
-6.35
 74
    0
 49
0
 74
    0
 49
-6.35
 74
    0
 49
0
 74
    0
 49
-6.35
 74
    0
  0
LTYPE
  5
3F
330
5
100
AcDbSymbolTableRecord
100
AcDbLinetypeTableRecord
  2
DIVIDETINY
 70
    0
  3
Divide (.15x) __..__..__..__..__..__..__..__.._
 72
   65
 73
    6
 40
4.7625
 49
1.905
 74
    0
 49
-0.9525
 74
    0
 49
0
 74
    0
 49
-0.9525
 74
    0
 49
0
 74
    0
 49
-0.9525
 74
    0
  0
LTYPE
  5
40
330
5
100
AcDbSymbolTableRecord
100
AcDbLinetypeTableRecord
  2
DIVIDE2
 70
    0
  3
Divide (.5x) __..__..__..__..__..__..__..__.._
 72
   65
 73
    6
 40
15.875
 49
6.35
 74
    0
 49
-3.175
 74
    0
 49
0
 74
    0
 49
-3.175
 74
    0
 49
0
 74
    0
 49
-3.175
 74
    0
  0
LTYPE
  5
41
330
5
100
AcDbSymbolTableRecord
100
AcDbLinetypeTableRecord
  2
DIVIDEX2
 70
    0
  3
Divide (2x) ________  .  .  ________  .  .  _
 72
   65
 73
    6
 40
63.5
 49
25.4
 74
    0
 49
-12.7
 74
    0
 49
0
 74
    0
 49
-12.7
 74
    0
 49
0
 74
    0
 49
-12.7
 74
    0
  0
LTYPE
  5
42
330
5
100
AcDbSymbolTableRecord
100
AcDbLinetypeTableRecord
  2
BORDER
 70
    0
  3
Border __ __ . __ __ . __ __ . __ __ . __ __ .
 72
   65
 73
    6
 40
44.45
 49
12.7
 74
    0
 49
-6.35
 74
    0
 49
12.7
 74
    0
 49
-6.35
 74
    0
 49
0
 74
    0
 49
-6.35
 74
    0
  0
LTYPE
  5
43
330
5
100
AcDbSymbolTableRecord
100
AcDbLinetypeTableRecord
  2
BORDERTINY
 70
    0
  3
Border (.15x) __.__.__.__.__.__.__.__.__.__.__.
 72
   65
 73
    6
 40
6.6675
 49
1.905
 74
    0
 49
-0.9525
 74
    0
 49
1.905
 74
    0
 49
-0.9525
 74
    0
 49
0
 74
    0
 49
-0.9525
 74
    0
  0
LTYPE
  5
44
330
5
100
AcDbSymbolTableRecord
100
AcDbLinetypeTableRecord
  2
BORDER2
 70
    0
  3
Border (.5x) __.__.__.__.__.__.__.__.__.__.__.
 72
   65
 73
    6
 40
22.225
 49
6.35
 74
    0
 49
-3.175
 74
    0
 49
6.35
 74
    0
 49
-3.175
 74
    0
 49
0
 74
    0
 49
-3.175
 74
    0
  0
LTYPE
  5
45
330
5
100
AcDbSymbolTableRecord
100
AcDbLinetypeTableRecord
  2
BORDERX2
 70
    0
  3
Border (2x) ____  ____  .  ____  ____  .  ___
 72
   65
 73
    6
 40
88.89999999999999
 49
25.4
 74
    0
 49
-12.7
 74
    0
 49
25.4
 74
    0
 49
-12.7
 74
    0
 49
0
 74
    0
 49
-12.7
 74
    0
  0
LTYPE
  5
46
330
5
100
AcDbSymbolTableRecord
100
AcDbLinetypeTableRecord
  2
CENTER
 70
    0
  3
Center ____ _ ____ _ ____ _ ____ _ ____ _ ____
 72
   65
 73
    4
 40
50.8
 49
31.75
 74
    0
 49
-6.35
 74
    0
 49
6.35
 74
    0
 49
-6.35
 74
    0
  0
LTYPE
  5
47
330
5
100
AcDbSymbolTableRecord
100
AcDbLinetypeTableRecord
  2
CENTERTINY
 70
    0
  3
Center (.15x) ___ _ ___ _ ___ _ ___ _ ___ _ ___
 72
   65
 73
    4
 40
7.619999999999999
 49
4.7625
 74
    0
 49
-0.9525
 74
    0
 49
0.9525
 74
    0
 49
-0.9525
 74
    0
  0
LTYPE
  5
48
330
5
100
AcDbSymbolTableRecord
100
AcDbLinetypeTableRecord
  2
CENTER2
 70
    0
  3
Center (.5x) ___ _ ___ _ ___ _ ___ _ ___ _ ___
 72
   65
 73
    4
 40
28.575
 49
19.05
 74
    0
 49
-3.175
 74
    0
 49
3.175
 74
    0
 49
-3.175
 74
    0
  0
LTYPE
  5
49
330
5
100
AcDbSymbolTableRecord
100
AcDbLinetypeTableRecord
  2
CENTERX2
 70
    0
  3
Center (2x) ________  __  ________  __  _____
 72
   65
 73
    4
 40
101.6
 49
63.5
 74
    0
 49
-12.7
 74
    0
 49
12.7
 74
    0
 49
-12.7
 74
    0
  0
ENDTAB
  0
TABLE
  2
LAYER
  5
2
330
0
100
AcDbSymbolTable
 70
    1
  0
LAYER
  5
10
330
2
100
AcDbSymbolTableRecord
100
AcDbLayerTableRecord
  2
0
 70
    0
 62
    4
  6
CONTINUOUS
370
   18
390
F
1001
LibreCad
1070
    1
  0
LAYER
  5
4A
330
2
100
AcDbSymbolTableRecord
100
AcDbLayerTableRecord
  2
axe
 70
    0
 62
  136
420
32896
  6
CONTINUOUS
370
   18
390
F
  0
LAYER
  5
4B
330
2
100
AcDbSymbolTableRecord
100
AcDbLayerTableRecord
  2
dim
 70
    0
 62
    4
  6
CONTINUOUS
370
   18
390
F
  0
LAYER
  5
4C
330
2
100
AcDbSymbolTableRecord
100
AcDbLayerTableRecord
  2
dveri
 70
    4
 62
   16
420
8388608
  6
CONTINUOUS
370
   35
390
F
  0
LAYER
  5
4D
330
2
100
AcDbSymbolTableRecord
100
AcDbLayerTableRecord
  2
num
 70
    0
 62
   96
420
32768
  6
CONTINUOUS
370
   18
390
F
  0
LAYER
  5
4E
330
2
100
AcDbSymbolTableRecord
100
AcDbLayerTableRecord
  2
ramka
 70
    4
 62
  176
420
  128
  6
CONTINUOUS
370
   35
390
F
  0
LAYER
  5
4F
330
2
100
AcDbSymbolTableRecord
100
AcDbLayerTableRecord
  2
trymach
 70
    0
 62
    6
  6
CONTINUOUS
370
   35
390
F
  0
LAYER
  5
50
330
2
100
AcDbSymbolTableRecord
100
AcDbLayerTableRecord
  2
zasuv
 70
    0
 62
    2
  6
CONTINUOUS
370
   35
390
F
  0
ENDTAB
  0
TABLE
  2
STYLE
  5
3
330
0
100
AcDbSymbolTable
 70
    3
  0
STYLE
  5
51
330
2
100
AcDbSymbolTableRecord
100
AcDbTextStyleTableRecord
  2
cyrillic_ii
 70
    0
 40
0
 41
1
 50
0
 71
    0
 42
1
  3
cyrillic_ii
  4

  0
STYLE
  5
52
330
2
100
AcDbSymbolTableRecord
100
AcDbTextStyleTableRecord
  2
Standard
 70
    0
 40
0
 41
1
 50
0
 71
    0
 42
1
  3
txt
  4

  0
ENDTAB
  0
TABLE
  2
VIEW
  5
6
330
0
100
AcDbSymbolTable
 70
    0
  0
ENDTAB
  0
TABLE
  2
UCS
  5
7
330
0
100
AcDbSymbolTable
 70
    0
  0
ENDTAB
  0
TABLE
  2
APPID
  5
9
330
0
100
AcDbSymbolTable
 70
    1
  0
APPID
  5
12
330
9
100
AcDbSymbolTableRecord
100
AcDbRegAppTableRecord
  2
ACAD
 70
    0
  0
APPID
  5
53
330
9
100
AcDbSymbolTableRecord
100
AcDbRegAppTableRecord
  2
LibreCad
 70
    0
  0
ENDTAB
  0
TABLE
  2
DIMSTYLE
  5
A
330
0
100
AcDbSymbolTable
 70
    1
100
AcDbDimStyleTable
 71
    1
  0
DIMSTYLE
105
54
330
A
100
AcDbSymbolTableRecord
100
AcDbDimStyleTableRecord
  2
Standard
 70
    0
 40
2.5
 41
2.5
 42
0.625
 43
0.38
 44
1.25
 45
0
 46
0
 47
0
 48
0
 49
1
140
2.5
141
0.09
142
0
143
25.4
144
1
145
0
146
1
147
0.625
148
0
 71
    0
 72
    0
 73
    0
 74
    1
 75
    0
 76
    0
 77
    0
 78
    8
 79
    2
170
    0
171
    2
172
    0
173
    0
174
    0
175
    0
176
    0
177
    0
178
    0
179
    1
271
    1
272
    4
273
    2
274
    2
275
    0
276
    0
277
    2
278
   44
279
    0
280
    0
281
    0
282
    0
283
    1
284
    0
285
    0
286
    0
288
    0
289
    3
340
standard
341

371
   -2
372
   -2
  0
ENDTAB
  0
TABLE
  2
BLOCK_RECORD
  5
1
330
0
100
AcDbSymbolTable
 70
    2
  0
BLOCK_RECORD
  5
1F
330
1
100
AcDbSymbolTableRecord
100
AcDbBlockTableRecord
  2
*Model_Space
 70
    0
280
    1
281
    0
  0
BLOCK_RECORD
  5
1E
330
1
100
AcDbSymbolTableRecord
100
AcDbBlockTableRecord
  2
*Paper_Space
 70
    0
280
    1
281
    0
  0
BLOCK_RECORD
  5
55
330
1
100
AcDbSymbolTableRecord
100
AcDbBlockTableRecord
  2
*D32
 70
    0
280
    1
281
    0
  0
BLOCK_RECORD
  5
58
330
1
100
AcDbSymbolTableRecord
100
AcDbBlockTableRecord
  2
*D34
 70
    0
280
    1
281
    0
  0
BLOCK_RECORD
  5
5B
330
1
100
AcDbSymbolTableRecord
100
AcDbBlockTableRecord
  2
*D5
 70
    0
280
    1
281
    0
  0
BLOCK_RECORD
  5
5E
330
1
100
AcDbSymbolTableRecord
100
AcDbBlockTableRecord
  2
*D26
 70
    0
280
    1
281
    0
  0
BLOCK_RECORD
  5
61
330
1
100
AcDbSymbolTableRecord
100
AcDbBlockTableRecord
  2
*D11
 70
    0
280
    1
281
    0
  0
BLOCK_RECORD
  5
64
330
1
100
AcDbSymbolTableRecord
100
AcDbBlockTableRecord
  2
*D4
 70
    0
280
    1
281
    0
  0
BLOCK_RECORD
  5
67
330
1
100
AcDbSymbolTableRecord
100
AcDbBlockTableRecord
  2
*D33
 70
    0
280
    1
281
    0
  0
BLOCK_RECORD
  5
6A
330
1
100
AcDbSymbolTableRecord
100
AcDbBlockTableRecord
  2
*D28
 70
    0
280
    1
281
    0
  0
BLOCK_RECORD
  5
6D
330
1
100
AcDbSymbolTableRecord
100
AcDbBlockTableRecord
  2
*D9
 70
    0
280
    1
281
    0
  0
BLOCK_RECORD
  5
70
330
1
100
AcDbSymbolTableRecord
100
AcDbBlockTableRecord
  2
*D22
 70
    0
280
    1
281
    0
  0
BLOCK_RECORD
  5
73
330
1
100
AcDbSymbolTableRecord
100
AcDbBlockTableRecord
  2
*D29
 70
    0
280
    1
281
    0
  0
BLOCK_RECORD
  5
76
330
1
100
AcDbSymbolTableRecord
100
AcDbBlockTableRecord
  2
*D31
 70
    0
280
    1
281
    0
  0
BLOCK_RECORD
  5
79
330
1
100
AcDbSymbolTableRecord
100
AcDbBlockTableRecord
  2
*D3
 70
    0
280
    1
281
    0
  0
BLOCK_RECORD
  5
7C
330
1
100
AcDbSymbolTableRecord
100
AcDbBlockTableRecord
  2
*D18
 70
    0
280
    1
281
    0
  0
BLOCK_RECORD
  5
7F
330
1
100
AcDbSymbolTableRecord
100
AcDbBlockTableRecord
  2
*D19
 70
    0
280
    1
281
    0
  0
BLOCK_RECORD
  5
82
330
1
100
AcDbSymbolTableRecord
100
AcDbBlockTableRecord
  2
*D30
 70
    0
280
    1
281
    0
  0
BLOCK_RECORD
  5
85
330
1
100
AcDbSymbolTableRecord
100
AcDbBlockTableRecord
  2
*D8
 70
    0
280
    1
281
    0
  0
BLOCK_RECORD
  5
88
330
1
100
AcDbSymbolTableRecord
100
AcDbBlockTableRecord
  2
*D16
 70
    0
280
    1
281
    0
  0
BLOCK_RECORD
  5
8B
330
1
100
AcDbSymbolTableRecord
100
AcDbBlockTableRecord
  2
*D23
 70
    0
280
    1
281
    0
  0
BLOCK_RECORD
  5
8E
330
1
100
AcDbSymbolTableRecord
100
AcDbBlockTableRecord
  2
*D24
 70
    0
280
    1
281
    0
  0
BLOCK_RECORD
  5
91
330
1
100
AcDbSymbolTableRecord
100
AcDbBlockTableRecord
  2
*D10
 70
    0
280
    1
281
    0
  0
BLOCK_RECORD
  5
94
330
1
100
AcDbSymbolTableRecord
100
AcDbBlockTableRecord
  2
*D12
 70
    0
280
    1
281
    0
  0
BLOCK_RECORD
  5
97
330
1
100
AcDbSymbolTableRecord
100
AcDbBlockTableRecord
  2
*D21
 70
    0
280
    1
281
    0
  0
BLOCK_RECORD
  5
9A
330
1
100
AcDbSymbolTableRecord
100
AcDbBlockTableRecord
  2
*D25
 70
    0
280
    1
281
    0
  0
BLOCK_RECORD
  5
9D
330
1
100
AcDbSymbolTableRecord
100
AcDbBlockTableRecord
  2
*D20
 70
    0
280
    1
281
    0
  0
BLOCK_RECORD
  5
A0
330
1
100
AcDbSymbolTableRecord
100
AcDbBlockTableRecord
  2
*D6
 70
    0
280
    1
281
    0
  0
BLOCK_RECORD
  5
A3
330
1
100
AcDbSymbolTableRecord
100
AcDbBlockTableRecord
  2
*D13
 70
    0
280
    1
281
    0
  0
BLOCK_RECORD
  5
A6
330
1
100
AcDbSymbolTableRecord
100
AcDbBlockTableRecord
  2
*D2
 70
    0
280
    1
281
    0
  0
BLOCK_RECORD
  5
A9
330
1
100
AcDbSymbolTableRecord
100
AcDbBlockTableRecord
  2
*D14
 70
    0
280
    1
281
    0
  0
BLOCK_RECORD
  5
AC
330
1
100
AcDbSymbolTableRecord
100
AcDbBlockTableRecord
  2
*D27
 70
    0
280
    1
281
    0
  0
BLOCK_RECORD
  5
AF
330
1
100
AcDbSymbolTableRecord
100
AcDbBlockTableRecord
  2
*D1
 70
    0
280
    1
281
    0
  0
BLOCK_RECORD
  5
B2
330
1
100
AcDbSymbolTableRecord
100
AcDbBlockTableRecord
  2
*D7
 70
    0
280
    1
281
    0
  0
BLOCK_RECORD
  5
B5
330
1
100
AcDbSymbolTableRecord
100
AcDbBlockTableRecord
  2
*D15
 70
    0
280
    1
281
    0
  0
BLOCK_RECORD
  5
B8
330
1
100
AcDbSymbolTableRecord
100
AcDbBlockTableRecord
  2
*D17
 70
    0
280
    1
281
    0
  0
ENDTAB
  0
ENDSEC
  0
SECTION
  2
BLOCKS
  0
BLOCK
  5
20
330
1F
100
AcDbEntity
  8
0
100
AcDbBlockBegin
  2
*Model_Space
 70
    0
 10
0
 20
0
 30
0
  3
*Model_Space
  1

  0
ENDBLK
  5
21
330
1F
100
AcDbEntity
  8
0
100
AcDbBlockEnd
  0
BLOCK
  5
1C
330
1B
100
AcDbEntity
  8
0
100
AcDbBlockBegin
  2
*Paper_Space
 70
    0
 10
0
 20
0
 30
0
  3
*Paper_Space
  1

  0
ENDBLK
  5
1D
330
1F
100
AcDbEntity
  8
0
100
AcDbBlockEnd
  0
BLOCK
  5
56
330
55
100
AcDbEntity
  8
0
100
AcDbBlockBegin
  2
*D32
 70
    1
 10
0
 20
0
  3
*D32
  1

  0
LINE
  5
BB
100
AcDbEntity
  8
dim
  6
ByBlock
 62
    0
370
   -2
100
AcDbLine
 10
-36
 20
30
 11
104
 21
30
  0
SOLID
  5
BC
100
AcDbEntity
  8
dim
  6
ByBlock
 62
    0
370
   -2
100
AcDbTrace
 10
-36
 20
30
 30
0
 11
-29.75
 21
31.0407116444321
 31
0
 12
-29.75
 22
28.9592883555679
 32
0
 13
-29.75
 23
28.9592883555679
 33
0
  0
SOLID
  5
BD
100
AcDbEntity
  8
dim
  6
ByBlock
 62
    0
370
   -2
100
AcDbTrace
 10
104
 20
30
 30
0
 11
97.75
 21
28.9592883555679
 31
0
 12
97.75
 22
31.0407116444321
 32
0
 13
97.75
 23
31.0407116444321
 33
0
  0
MTEXT
  5
BE
100
AcDbEntity
  8
dim
  6
CONTINUOUS
 62
    0
370
   -2
100
AcDbMText
 10
34
 20
34.6875
 30
0
 40
6.25
 41
11.80555555555556
 71
    5
 72
    1
  1
140
  7
standard
210
0
220
0
230
1
 50
0
 73
    2
 44
1
  0
LINE
  5
BF
100
AcDbEntity
  8
dim
  6
ByBlock
 62
    0
370
   -2
100
AcDbLine
 10
-36
 20
1.5625
 11
-36
 21
33.125
  0
LINE
  5
C0
100
AcDbEntity
  8
dim
  6
ByBlock
 62
    0
370
   -2
100
AcDbLine
 10
104
 20
1.5625
 11
104
 21
33.125
  0
ENDBLK
  5
57
330
55
100
AcDbEntity
  8
0
100
AcDbBlockEnd
  0
BLOCK
  5
59
330
58
100
AcDbEntity
  8
0
100
AcDbBlockBegin
  2
*D34
 70
    1
 10
0
 20
0
  3
*D34
  1

  0
LINE
  5
C1
100
AcDbEntity
  8
dim
  6
ByBlock
 62
    0
370
   -2
100
AcDbLine
 10
156
 20
30
 11
296
 21
30
  0
SOLID
  5
C2
100
AcDbEntity
  8
dim
  6
ByBlock
 62
    0
370
   -2
100
AcDbTrace
 10
156
 20
30
 30
0
 11
162.25
 21
31.0407116444321
 31
0
 12
162.25
 22
28.9592883555679
 32
0
 13
162.25
 23
28.9592883555679
 33
0
  0
SOLID
  5
C3
100
AcDbEntity
  8
dim
  6
ByBlock
 62
    0
370
   -2
100
AcDbTrace
 10
296
 20
30
 30
0
 11
289.75
 21
28.9592883555679
 31
0
 12
289.75
 22
31.0407116444321
 32
0
 13
289.75
 23
31.0407116444321
 33
0
  0
MTEXT
  5
C4
100
AcDbEntity
  8
dim
  6
CONTINUOUS
 62
    0
370
   -2
100
AcDbMText
 10
226
 20
34.6875
 30
0
 40
6.25
 41
11.80555555555556
 71
    5
 72
    1
  1
140
  7
standard
210
0
220
0
230
1
 50
0
 73
    2
 44
1
  0
LINE
  5
C5
100
AcDbEntity
  8
dim
  6
ByBlock
 62
    0
370
   -2
100
AcDbLine
 10
156
 20
1.5625
 11
156
 21
33.125
  0
LINE
  5
C6
100
AcDbEntity
  8
dim
  6
ByBlock
 62
    0
370
   -2
100
AcDbLine
 10
296
 20
7.5625
 11
296
 21
33.125
  0
ENDBLK
  5
5A
330
58
100
AcDbEntity
  8
0
100
AcDbBlockEnd
  0
BLOCK
  5
5C
330
5B
100
AcDbEntity
  8
0
100
AcDbBlockBegin
  2
*D5
 70
    1
 10
0
 20
0
  3
*D5
  1

  0
LINE
  5
C7
100
AcDbEntity
  8
dim
  6
ByBlock
 62
    0
370
   -2
100
AcDbLine
 10
120
 20
-596.9999999999994
 11
120
 21
-536.9999999999992
  0
SOLID
  5
C8
100
AcDbEntity
  8
dim
  6
ByBlock
 62
    0
370
   -2
100
AcDbTrace
 10
120
 20
-596.9999999999994
 30
0
 11
118.9592883555679
 21
-590.7499999999994
 31
0
 12
121.0407116444321
 22
-590.7499999999994
 32
0
 13
121.0407116444321
 23
-590.7499999999994
 33
0
  0
SOLID
  5
C9
100
AcDbEntity
  8
dim
  6
ByBlock
 62
    0
370
   -2
100
AcDbTrace
 10
120
 20
-536.9999999999992
 30
0
 11
121.0407116444321
 21
-543.2499999999992
 31
0
 12
118.9592883555679
 22
-543.2499999999992
 32
0
 13
118.9592883555679
 23
-543.2499999999992
 33
0
  0
MTEXT
  5
CA
100
AcDbEntity
  8
dim
  6
CONTINUOUS
 62
    0
370
   -2
100
AcDbMText
 10
115.3125
 20
-566.9999999999993
 30
0
 40
6.25
 41
7.638888888889277
 71
    5
 72
    1
  1
60
  7
standard
210
0
220
0
230
1
 50
90
 73
    2
 44
1
  0
LINE
  5
CB
100
AcDbEntity
  8
dim
  6
ByBlock
 62
    0
370
   -2
100
AcDbLine
 10
86.5625
 20
-596.9999999999994
 11
123.125
 21
-596.9999999999994
  0
LINE
  5
CC
100
AcDbEntity
  8
dim
  6
ByBlock
 62
    0
370
   -2
100
AcDbLine
 10
86.5625
 20
-536.9999999999992
 11
123.125
 21
-536.9999999999992
  0
ENDBLK
  5
5D
330
5B
100
AcDbEntity
  8
0
100
AcDbBlockEnd
  0
BLOCK
  5
5F
330
5E
100
AcDbEntity
  8
0
100
AcDbBlockBegin
  2
*D26
 70
    1
 10
0
 20
0
  3
*D26
  1

  0
LINE
  5
CD
100
AcDbEntity
  8
dim
  6
ByBlock
 62
    0
370
   -2
100
AcDbLine
 10
115
 20
-420
 11
115
 21
-390
  0
SOLID
  5
CE
100
AcDbEntity
  8
dim
  6
ByBlock
 62
    0
370
   -2
100
AcDbTrace
 10
115
 20
-420
 30
0
 11
113.9592883555679
 21
-413.75
 31
0
 12
116.0407116444321
 22
-413.75
 32
0
 13
116.0407116444321
 23
-413.75
 33
0
  0
SOLID
  5
CF
100
AcDbEntity
  8
dim
  6
ByBlock
 62
    0
370
   -2
100
AcDbTrace
 10
115
 20
-390
 30
0
 11
116.0407116444321
 21
-396.25
 31
0
 12
113.9592883555679
 22
-396.25
 32
0
 13
113.9592883555679
 23
-396.25
 33
0
  0
MTEXT
  5
D0
100
AcDbEntity
  8
dim
  6
CONTINUOUS
 62
    0
370
   -2
100
AcDbMText
 10
110.3125
 20
-405
 30
0
 40
6.25
 41
7.638888888889277
 71
    5
 72
    1
  1
30
  7
standard
210
0
220
0
230
1
 50
90
 73
    2
 44
1
  0
LINE
  5
D1
100
AcDbEntity
  8
dim
  6
ByBlock
 62
    0
370
   -2
100
AcDbLine
 10
104.5625
 20
-420
 11
118.125
 21
-420
  0
LINE
  5
D2
100
AcDbEntity
  8
dim
  6
ByBlock
 62
    0
370
   -2
100
AcDbLine
 10
104.5625
 20
-390
 11
118.125
 21
-390
  0
ENDBLK
  5
60
330
5E
100
AcDbEntity
  8
0
100
AcDbBlockEnd
  0
BLOCK
  5
62
330
61
100
AcDbEntity
  8
0
100
AcDbBlockBegin
  2
*D11
 70
    1
 10
0
 20
0
  3
*D11
  1

  0
LINE
  5
D3
100
AcDbEntity
  8
dim
  6
ByBlock
 62
    0
370
   -2
100
AcDbLine
 10
65.5
 20
-345
 11
104.5
 21
-345
  0
SOLID
  5
D4
100
AcDbEntity
  8
dim
  6
ByBlock
 62
    0
370
   -2
100
AcDbTrace
 10
78
 20
-345
 30
0
 11
71.75
 21
-346.0407116444321
 31
0
 12
71.75
 22
-343.9592883555679
 32
0
 13
71.75
 23
-343.9592883555679
 33
0
  0
SOLID
  5
D5
100
AcDbEntity
  8
dim
  6
ByBlock
 62
    0
370
   -2
100
AcDbTrace
 10
92
 20
-345
 30
0
 11
98.25
 21
-343.9592883555679
 31
0
 12
98.25
 22
-346.0407116444321
 32
0
 13
98.25
 23
-346.0407116444321
 33
0
  0
MTEXT
  5
D6
100
AcDbEntity
  8
dim
  6
CONTINUOUS
 62
    0
370
   -2
100
AcDbMText
 10
85
 20
-340.3125
 30
0
 40
6.25
 41
13.19444444444444
 71
    5
 72
    1
  1
%%C14
  7
standard
210
0
220
0
230
1
 50
0
 73
    2
 44
1
  0
LINE
  5
D7
100
AcDbEntity
  8
dim
  6
ByBlock
 62
    0
370
   -2
100
AcDbLine
 10
78
 20
-343.4375
 11
78
 21
-341.875
  0
LINE
  5
D8
100
AcDbEntity
  8
dim
  6
ByBlock
 62
    0
370
   -2
100
AcDbLine
 10
92
 20
-343.4375
 11
92
 21
-341.875
  0
ENDBLK
  5
63
330
61
100
AcDbEntity
  8
0
100
AcDbBlockEnd
  0
BLOCK
  5
65
330
64
100
AcDbEntity
  8
0
100
AcDbBlockBegin
  2
*D4
 70
    1
 10
0
 20
0
  3
*D4
  1

  0
LINE
  5
D9
100
AcDbEntity
  8
dim
  6
ByBlock
 62
    0
370
   -2
100
AcDbLine
 10
280
 20
-390
 11
280
 21
-370
  0
SOLID
  5
DA
100
AcDbEntity
  8
dim
  6
ByBlock
 62
    0
370
   -2
100
AcDbTrace
 10
280
 20
-390
 30
0
 11
278.9592883555679
 21
-383.75
 31
0
 12
281.0407116444321
 22
-383.75
 32
0
 13
281.0407116444321
 23
-383.75
 33
0
  0
SOLID
  5
DB
100
AcDbEntity
  8
dim
  6
ByBlock
 62
    0
370
   -2
100
AcDbTrace
 10
280
 20
-370
 30
0
 11
281.0407116444321
 21
-376.25
 31
0
 12
278.9592883555679
 22
-376.25
 32
0
 13
278.9592883555679
 23
-376.25
 33
0
  0
MTEXT
  5
DC
100
AcDbEntity
  8
dim
  6
CONTINUOUS
 62
    0
370
   -2
100
AcDbMText
 10
275.3125
 20
-380
 30
0
 40
6.25
 41
7.638888888888888
 71
    5
 72
    1
  1
20
  7
standard
210
0
220
0
230
1
 50
90
 73
    2
 44
1
  0
LINE
  5
DD
100
AcDbEntity
  8
dim
  6
ByBlock
 62
    0
370
   -2
100
AcDbLine
 10
292.4375
 20
-390
 11
276.875
 21
-390
  0
LINE
  5
DE
100
AcDbEntity
  8
dim
  6
ByBlock
 62
    0
370
   -2
100
AcDbLine
 10
292.4375
 20
-370
 11
276.875
 21
-370
  0
ENDBLK
  5
66
330
64
100
AcDbEntity
  8
0
100
AcDbBlockEnd
  0
BLOCK
  5
68
330
67
100
AcDbEntity
  8
0
100
AcDbBlockBegin
  2
*D33
 70
    1
 10
0
 20
0
  3
*D33
  1

  0
LINE
  5
DF
100
AcDbEntity
  8
dim
  6
ByBlock
 62
    0
370
   -2
100
AcDbLine
 10
251
 20
19
 11
296
 21
19
  0
SOLID
  5
E0
100
AcDbEntity
  8
dim
  6
ByBlock
 62
    0
370
   -2
100
AcDbTrace
 10
251
 20
19
 30
0
 11
257.25
 21
20.0407116444321
 31
0
 12
257.25
 22
17.9592883555679
 32
0
 13
257.25
 23
17.9592883555679
 33
0
  0
SOLID
  5
E1
100
AcDbEntity
  8
dim
  6
ByBlock
 62
    0
370
   -2
100
AcDbTrace
 10
296
 20
19
 30
0
 11
289.75
 21
17.9592883555679
 31
0
 12
289.75
 22
20.0407116444321
 32
0
 13
289.75
 23
20.0407116444321
 33
0
  0
MTEXT
  5
E2
100
AcDbEntity
  8
dim
  6
CONTINUOUS
 62
    0
370
   -2
100
AcDbMText
 10
273.5
 20
23.6875
 30
0
 40
6.25
 41
8.333333333333719
 71
    5
 72
    1
  1
45
  7
standard
210
0
220
0
230
1
 50
0
 73
    2
 44
1
  0
LINE
  5
E3
100
AcDbEntity
  8
dim
  6
ByBlock
 62
    0
370
   -2
100
AcDbLine
 10
251
 20
1.5625
 11
251
 21
22.125
  0
LINE
  5
E4
100
AcDbEntity
  8
dim
  6
ByBlock
 62
    0
370
   -2
100
AcDbLine
 10
296
 20
7.5625
 11
296
 21
22.125
  0
ENDBLK
  5
69
330
67
100
AcDbEntity
  8
0
100
AcDbBlockEnd
  0
BLOCK
  5
6B
330
6A
100
AcDbEntity
  8
0
100
AcDbBlockBegin
  2
*D28
 70
    1
 10
0
 20
0
  3
*D28
  1

  0
LINE
  5
E5
100
AcDbEntity
  8
dim
  6
ByBlock
 62
    0
370
   -2
100
AcDbLine
 10
130
 20
-420
 11
130
 21
-370
  0
SOLID
  5
E6
100
AcDbEntity
  8
dim
  6
ByBlock
 62
    0
370
   -2
100
AcDbTrace
 10
130
 20
-420
 30
0
 11
128.9592883555679
 21
-413.75
 31
0
 12
131.0407116444321
 22
-413.75
 32
0
 13
131.0407116444321
 23
-413.75
 33
0
  0
SOLID
  5
E7
100
AcDbEntity
  8
dim
  6
ByBlock
 62
    0
370
   -2
100
AcDbTrace
 10
130
 20
-370
 30
0
 11
131.0407116444321
 21
-376.25
 31
0
 12
128.9592883555679
 22
-376.25
 32
0
 13
128.9592883555679
 23
-376.25
 33
0
  0
MTEXT
  5
E8
100
AcDbEntity
  8
dim
  6
CONTINUOUS
 62
    0
370
   -2
100
AcDbMText
 10
125.3125
 20
-395
 30
0
 40
6.25
 41
7.638888888889277
 71
    5
 72
    1
  1
50
  7
standard
210
0
220
0
230
1
 50
90
 73
    2
 44
1
  0
LINE
  5
E9
100
AcDbEntity
  8
dim
  6
ByBlock
 62
    0
370
   -2
100
AcDbLine
 10
104.5625
 20
-420
 11
133.125
 21
-420
  0
LINE
  5
EA
100
AcDbEntity
  8
dim
  6
ByBlock
 62
    0
370
   -2
100
AcDbLine
 10
104.5625
 20
-370
 11
133.125
 21
-370
  0
ENDBLK
  5
6C
330
6A
100
AcDbEntity
  8
0
100
AcDbBlockEnd
  0
BLOCK
  5
6E
330
6D
100
AcDbEntity
  8
0
100
AcDbBlockBegin
  2
*D9
 70
    1
 10
0
 20
0
  3
*D9
  1

  0
LINE
  5
EB
100
AcDbEntity
  8
num
  6
CONTINUOUS
 62
    7
370
    0
100
AcDbLine
 10
398
 20
-510
 11
410
 21
-490
  0
LINE
  5
EC
100
AcDbEntity
  8
num
  6
CONTINUOUS
 62
    7
370
    0
100
AcDbLine
 10
410
 20
-490
 11
420
 21
-490
  0
SOLID
  5
ED
100
AcDbEntity
  8
num
  6
CONTINUOUS
 62
    7
370
    0
100
AcDbTrace
 10
398
 20
-510
 30
0
 11
400.3231955986149
 21
-504.1052274906123
 31
0
 12
402.1080013442293
 22
-505.1761109379809
 32
0
 13
402.1080013442293
 23
-505.1761109379809
 33
0
  0
ENDBLK
  5
6F
330
6D
100
AcDbEntity
  8
0
100
AcDbBlockEnd
  0
BLOCK
  5
71
330
70
100
AcDbEntity
  8
0
100
AcDbBlockBegin
  2
*D22
 70
    1
 10
0
 20
0
  3
*D22
  1

  0
LINE
  5
EE
100
AcDbEntity
  8
dim
  6
ByBlock
 62
    0
370
   -2
100
AcDbLine
 10
183
 20
-308
 11
85
 21
-308
  0
SOLID
  5
EF
100
AcDbEntity
  8
dim
  6
ByBlock
 62
    0
370
   -2
100
AcDbTrace
 10
183
 20
-308
 30
0
 11
176.75
 21
-309.0407116444321
 31
0
 12
176.75
 22
-306.9592883555679
 32
0
 13
176.75
 23
-306.9592883555679
 33
0
  0
SOLID
  5
F0
100
AcDbEntity
  8
dim
  6
ByBlock
 62
    0
370
   -2
100
AcDbTrace
 10
85
 20
-308
 30
0
 11
91.25
 21
-306.9592883555679
 31
0
 12
91.25
 22
-309.0407116444321
 32
0
 13
91.25
 23
-309.0407116444321
 33
0
  0
MTEXT
  5
F1
100
AcDbEntity
  8
dim
  6
CONTINUOUS
 62
    0
370
   -2
100
AcDbMText
 10
134
 20
-303.3125
 30
0
 40
6.25
 41
7.638888888889277
 71
    5
 72
    1
  1
98
  7
standard
210
0
220
0
230
1
 50
360
 73
    2
 44
1
  0
LINE
  5
F2
100
AcDbEntity
  8
dim
  6
ByBlock
 62
    0
370
   -2
100
AcDbLine
 10
183
 20
-378.4375
 11
183
 21
-304.875
  0
LINE
  5
F3
100
AcDbEntity
  8
dim
  6
ByBlock
 62
    0
370
   -2
100
AcDbLine
 10
85
 20
-311.4374999999998
 11
85
 21
-304.875
  0
ENDBLK
  5
72
330
70
100
AcDbEntity
  8
0
100
AcDbBlockEnd
  0
BLOCK
  5
74
330
73
100
AcDbEntity
  8
0
100
AcDbBlockBegin
  2
*D29
 70
    1
 10
0
 20
0
  3
*D29
  1

  0
LINE
  5
F4
100
AcDbEntity
  8
num
  6
CONTINUOUS
 62
    7
370
    0
100
AcDbLine
 10
282
 20
-542
 11
310
 21
-490
  0
LINE
  5
F5
100
AcDbEntity
  8
num
  6
CONTINUOUS
 62
    7
370
    0
100
AcDbLine
 10
310
 20
-490
 11
320
 21
-490
  0
SOLID
  5
F6
100
AcDbEntity
  8
num
  6
CONTINUOUS
 62
    7
370
    0
100
AcDbTrace
 10
282
 20
-542
 30
0
 11
284.0468073676939
 21
-536.0036544190307
 31
0
 12
285.8794404202438
 22
-536.9904568319422
 32
0
 13
285.8794404202438
 23
-536.9904568319422
 33
0
  0
ENDBLK
  5
75
330
73
100
AcDbEntity
  8
0
100
AcDbBlockEnd
  0
BLOCK
  5
77
330
76
100
AcDbEntity
  8
0
100
AcDbBlockBegin
  2
*D31
 70
    1
 10
0
 20
0
  3
*D31
  1

  0
LINE
  5
F7
100
AcDbEntity
  8
dim
  6
ByBlock
 62
    0
370
   -2
100
AcDbLine
 10
-36
 20
19
 11
9
 21
19
  0
SOLID
  5
F8
100
AcDbEntity
  8
dim
  6
ByBlock
 62
    0
370
   -2
100
AcDbTrace
 10
-36
 20
19
 30
0
 11
-29.75
 21
20.0407116444321
 31
0
 12
-29.75
 22
17.9592883555679
 32
0
 13
-29.75
 23
17.9592883555679
 33
0
  0
SOLID
  5
F9
100
AcDbEntity
  8
dim
  6
ByBlock
 62
    0
370
   -2
100
AcDbTrace
 10
9
 20
19
 30
0
 11
2.75
 21
17.9592883555679
 31
0
 12
2.75
 22
20.0407116444321
 32
0
 13
2.75
 23
20.0407116444321
 33
0
  0
MTEXT
  5
FA
100
AcDbEntity
  8
dim
  6
CONTINUOUS
 62
    0
370
   -2
100
AcDbMText
 10
-13.5
 20
23.6875
 30
0
 40
6.25
 41
8.333333333333719
 71
    5
 72
    1
  1
45
  7
standard
210
0
220
0
230
1
 50
0
 73
    2
 44
1
  0
LINE
  5
FB
100
AcDbEntity
  8
dim
  6
ByBlock
 62
    0
370
   -2
100
AcDbLine
 10
-36
 20
7.5625
 11
-36
 21
22.125
  0
LINE
  5
FC
100
AcDbEntity
  8
dim
  6
ByBlock
 62
    0
370
   -2
100
AcDbLine
 10
9
 20
1.562500000000001
 11
9
 21
22.125
  0
ENDBLK
  5
78
330
76
100
AcDbEntity
  8
0
100
AcDbBlockEnd
  0
BLOCK
  5
7A
330
79
100
AcDbEntity
  8
0
100
AcDbBlockBegin
  2
*D3
 70
    1
 10
0
 20
0
  3
*D3
  1

  0
LINE
  5
FD
100
AcDbEntity
  8
dim
  6
ByBlock
 62
    0
370
   -2
100
AcDbLine
 10
290
 20
-410
 11
310
 21
-410
  0
SOLID
  5
FE
100
AcDbEntity
  8
dim
  6
ByBlock
 62
    0
370
   -2
100
AcDbTrace
 10
290
 20
-410
 30
0
 11
296.25
 21
-408.9592883555679
 31
0
 12
296.25
 22
-411.0407116444321
 32
0
 13
296.25
 23
-411.0407116444321
 33
0
  0
SOLID
  5
FF
100
AcDbEntity
  8
dim
  6
ByBlock
 62
    0
370
   -2
100
AcDbTrace
 10
310
 20
-410
 30
0
 11
303.75
 21
-411.0407116444321
 31
0
 12
303.75
 22
-408.9592883555679
 32
0
 13
303.75
 23
-408.9592883555679
 33
0
  0
MTEXT
  5
100
100
AcDbEntity
  8
dim
  6
CONTINUOUS
 62
    0
370
   -2
100
AcDbMText
 10
300
 20
-405.3125
 30
0
 40
6.25
 41
7.638888888888888
 71
    5
 72
    1
  1
20
  7
standard
210
0
220
0
230
1
 50
0
 73
    2
 44
1
  0
LINE
  5
101
100
AcDbEntity
  8
dim
  6
ByBlock
 62
    0
370
   -2
100
AcDbLine
 10
290
 20
-387.5625
 11
290
 21
-413.125
  0
LINE
  5
102
100
AcDbEntity
  8
dim
  6
ByBlock
 62
    0
370
   -2
100
AcDbLine
 10
310
 20
-387.5625
 11
310
 21
-413.125
  0
ENDBLK
  5
7B
330
79
100
AcDbEntity
  8
0
100
AcDbBlockEnd
  0
BLOCK
  5
7D
330
7C
100
AcDbEntity
  8
0
100
AcDbBlockBegin
  2
*D18
 70
    1
 10
0
 20
0
  3
*D18
  1

  0
LINE
  5
103
100
AcDbEntity
  8
dim
  6
ByBlock
 62
    0
370
   -2
100
AcDbLine
 10
195
 20
-377.5
 11
195
 21
-412.5
  0
SOLID
  5
104
100
AcDbEntity
  8
dim
  6
ByBlock
 62
    0
370
   -2
100
AcDbTrace
 10
195
 20
-390
 30
0
 11
193.9592883555679
 21
-383.75
 31
0
 12
196.0407116444321
 22
-383.75
 32
0
 13
196.0407116444321
 23
-383.75
 33
0
  0
SOLID
  5
105
100
AcDbEntity
  8
dim
  6
ByBlock
 62
    0
370
   -2
100
AcDbTrace
 10
195
 20
-400
 30
0
 11
196.0407116444321
 21
-406.25
 31
0
 12
193.9592883555679
 22
-406.25
 32
0
 13
193.9592883555679
 23
-406.25
 33
0
  0
MTEXT
  5
106
100
AcDbEntity
  8
dim
  6
CONTINUOUS
 62
    0
370
   -2
100
AcDbMText
 10
190.3125
 20
-395
 30
0
 40
6.25
 41
6.25
 71
    5
 72
    1
  1
10
  7
standard
210
0
220
0
230
1
 50
90
 73
    2
 44
1
  0
LINE
  5
107
100
AcDbEntity
  8
dim
  6
ByBlock
 62
    0
370
   -2
100
AcDbLine
 10
184.5625
 20
-390
 11
198.125
 21
-390
  0
LINE
  5
108
100
AcDbEntity
  8
dim
  6
ByBlock
 62
    0
370
   -2
100
AcDbLine
 10
184.5625
 20
-400
 11
198.125
 21
-400
  0
ENDBLK
  5
7E
330
7C
100
AcDbEntity
  8
0
100
AcDbBlockEnd
  0
BLOCK
  5
80
330
7F
100
AcDbEntity
  8
0
100
AcDbBlockBegin
  2
*D19
 70
    1
 10
0
 20
0
  3
*D19
  1

  0
LINE
  5
109
100
AcDbEntity
  8
dim
  6
ByBlock
 62
    0
370
   -2
100
AcDbLine
 10
-11
 20
-500
 11
34
 21
-500
  0
SOLID
  5
10A
100
AcDbEntity
  8
dim
  6
ByBlock
 62
    0
370
   -2
100
AcDbTrace
 10
-11
 20
-500
 30
0
 11
-4.75
 21
-498.9592883555679
 31
0
 12
-4.75
 22
-501.0407116444321
 32
0
 13
-4.75
 23
-501.0407116444321
 33
0
  0
SOLID
  5
10B
100
AcDbEntity
  8
dim
  6
ByBlock
 62
    0
370
   -2
100
AcDbTrace
 10
34
 20
-500
 30
0
 11
27.75
 21
-501.0407116444321
 31
0
 12
27.75
 22
-498.9592883555679
 32
0
 13
27.75
 23
-498.9592883555679
 33
0
  0
MTEXT
  5
10C
100
AcDbEntity
  8
dim
  6
CONTINUOUS
 62
    0
370
   -2
100
AcDbMText
 10
11.5
 20
-495.3125
 30
0
 40
6.25
 41
8.333333333333719
 71
    5
 72
    1
  1
45
  7
standard
210
0
220
0
230
1
 50
0
 73
    2
 44
1
  0
LINE
  5
10D
100
AcDbEntity
  8
dim
  6
ByBlock
 62
    0
370
   -2
100
AcDbLine
 10
-11
 20
-508.4375
 11
-11
 21
-496.875
  0
LINE
  5
10E
100
AcDbEntity
  8
dim
  6
ByBlock
 62
    0
370
   -2
100
AcDbLine
 10
34
 20
-508.4375
 11
34
 21
-496.875
  0
ENDBLK
  5
81
330
7F
100
AcDbEntity
  8
0
100
AcDbBlockEnd
  0
BLOCK
  5
83
330
82
100
AcDbEntity
  8
0
100
AcDbBlockBegin
  2
*D30
 70
    1
 10
0
 20
0
  3
*D30
  1

  0
LINE
  5
10F
100
AcDbEntity
  8
num
  6
CONTINUOUS
 62
    7
370
    0
100
AcDbLine
 10
430
 20
-540
 11
450
 21
-490
  0
LINE
  5
110
100
AcDbEntity
  8
num
  6
CONTINUOUS
 62
    7
370
    0
100
AcDbLine
 10
450
 20
-490
 11
460
 21
-490
  0
SOLID
  5
111
100
AcDbEntity
  8
num
  6
CONTINUOUS
 62
    7
370
    0
100
AcDbTrace
 10
430
 20
-540
 30
0
 11
431.3549152234251
 21
-533.8105100804519
 31
0
 12
433.2874682310012
 22
-534.5835312834823
 32
0
 13
433.2874682310012
 23
-534.5835312834823
 33
0
  0
ENDBLK
  5
84
330
82
100
AcDbEntity
  8
0
100
AcDbBlockEnd
  0
BLOCK
  5
86
330
85
100
AcDbEntity
  8
0
100
AcDbBlockBegin
  2
*D8
 70
    1
 10
0
 20
0
  3
*D8
  1

  0
LINE
  5
112
100
AcDbEntity
  8
num
  6
CONTINUOUS
 62
    7
370
    0
100
AcDbLine
 10
350
 20
-520
 11
370
 21
-490
  0
LINE
  5
113
100
AcDbEntity
  8
num
  6
CONTINUOUS
 62
    7
370
    0
100
AcDbLine
 10
370
 20
-490
 11
380
 21
-490
  0
SOLID
  5
114
100
AcDbEntity
  8
num
  6
CONTINUOUS
 62
    7
370
    0
100
AcDbTrace
 10
350
 20
-520
 30
0
 11
352.6009517963371
 21
-514.2224027070081
 31
0
 12
354.3328006564782
 22
-515.3769686137689
 32
0
 13
354.3328006564782
 23
-515.3769686137689
 33
0
  0
ENDBLK
  5
87
330
85
100
AcDbEntity
  8
0
100
AcDbBlockEnd
  0
BLOCK
  5
89
330
88
100
AcDbEntity
  8
0
100
AcDbBlockBegin
  2
*D16
 70
    1
 10
0
 20
0
  3
*D16
  1

  0
LINE
  5
115
100
AcDbEntity
  8
dim
  6
ByBlock
 62
    0
370
   -2
100
AcDbLine
 10
-25.50000051729446
 20
-350
 11
6.499999482705543
 21
-350
  0
SOLID
  5
116
100
AcDbEntity
  8
dim
  6
ByBlock
 62
    0
370
   -2
100
AcDbTrace
 10
-13.00000051729446
 20
-350
 30
0
 11
-19.25000051729446
 21
-351.0407116444321
 31
0
 12
-19.25000051729446
 22
-348.9592883555679
 32
0
 13
-19.25000051729446
 23
-348.9592883555679
 33
0
  0
SOLID
  5
117
100
AcDbEntity
  8
dim
  6
ByBlock
 62
    0
370
   -2
100
AcDbTrace
 10
-6.000000517294457
 20
-350
 30
0
 11
0.249999482705543
 21
-348.9592883555679
 31
0
 12
0.249999482705543
 22
-351.0407116444321
 32
0
 13
0.249999482705543
 23
-351.0407116444321
 33
0
  0
MTEXT
  5
118
100
AcDbEntity
  8
dim
  6
CONTINUOUS
 62
    0
370
   -2
100
AcDbMText
 10
-9.500000517294458
 20
-345.3125
 30
0
 40
6.25
 41
2.777777777777778
 71
    5
 72
    1
  1
7
  7
standard
210
0
220
0
230
1
 50
0
 73
    2
 44
1
  0
LINE
  5
119
100
AcDbEntity
  8
dim
  6
ByBlock
 62
    0
370
   -2
100
AcDbLine
 10
-13.00000051729446
 20
-378.4375
 11
-13.00000051729446
 21
-346.875
  0
LINE
  5
11A
100
AcDbEntity
  8
dim
  6
ByBlock
 62
    0
370
   -2
100
AcDbLine
 10
-6.000000517294457
 20
-378.4375
 11
-6.000000517294457
 21
-346.875
  0
ENDBLK
  5
8A
330
88
100
AcDbEntity
  8
0
100
AcDbBlockEnd
  0
BLOCK
  5
8C
330
8B
100
AcDbEntity
  8
0
100
AcDbBlockBegin
  2
*D23
 70
    1
 10
0
 20
0
  3
*D23
  1

  0
LINE
  5
11B
100
AcDbEntity
  8
dim
  6
ByBlock
 62
    0
370
   -2
100
AcDbLine
 10
48
 20
-430
 11
93
 21
-430
  0
SOLID
  5
11C
100
AcDbEntity
  8
dim
  6
ByBlock
 62
    0
370
   -2
100
AcDbTrace
 10
48
 20
-430
 30
0
 11
54.25
 21
-428.9592883555679
 31
0
 12
54.25
 22
-431.0407116444321
 32
0
 13
54.25
 23
-431.0407116444321
 33
0
  0
SOLID
  5
11D
100
AcDbEntity
  8
dim
  6
ByBlock
 62
    0
370
   -2
100
AcDbTrace
 10
93
 20
-430
 30
0
 11
86.75
 21
-431.0407116444321
 31
0
 12
86.75
 22
-428.9592883555679
 32
0
 13
86.75
 23
-428.9592883555679
 33
0
  0
MTEXT
  5
11E
100
AcDbEntity
  8
dim
  6
CONTINUOUS
 62
    0
370
   -2
100
AcDbMText
 10
70.5
 20
-425.3125
 30
0
 40
6.25
 41
8.333333333333719
 71
    5
 72
    1
  1
45
  7
standard
210
0
220
0
230
1
 50
0
 73
    2
 44
1
  0
LINE
  5
11F
100
AcDbEntity
  8
dim
  6
ByBlock
 62
    0
370
   -2
100
AcDbLine
 10
48
 20
-401.5625
 11
48
 21
-433.125
  0
LINE
  5
120
100
AcDbEntity
  8
dim
  6
ByBlock
 62
    0
370
   -2
100
AcDbLine
 10
93
 20
-421.5625
 11
93
 21
-433.125
  0
ENDBLK
  5
8D
330
8B
100
AcDbEntity
  8
0
100
AcDbBlockEnd
  0
BLOCK
  5
8F
330
8E
100
AcDbEntity
  8
0
100
AcDbBlockBegin
  2
*D24
 70
    1
 10
0
 20
0
  3
*D24
  1

  0
LINE
  5
121
100
AcDbEntity
  8
dim
  6
ByBlock
 62
    0
370
   -2
100
AcDbLine
 10
-13.00000051729447
 20
-330
 11
183
 21
-330
  0
SOLID
  5
122
100
AcDbEntity
  8
dim
  6
ByBlock
 62
    0
370
   -2
100
AcDbTrace
 10
-13.00000051729447
 20
-330
 30
0
 11
-6.750000517294467
 21
-328.9592883555679
 31
0
 12
-6.750000517294467
 22
-331.0407116444321
 32
0
 13
-6.750000517294467
 23
-331.0407116444321
 33
0
  0
SOLID
  5
123
100
AcDbEntity
  8
dim
  6
ByBlock
 62
    0
370
   -2
100
AcDbTrace
 10
183
 20
-330
 30
0
 11
176.75
 21
-331.0407116444321
 31
0
 12
176.75
 22
-328.9592883555679
 32
0
 13
176.75
 23
-328.9592883555679
 33
0
  0
MTEXT
  5
124
100
AcDbEntity
  8
dim
  6
CONTINUOUS
 62
    0
370
   -2
100
AcDbMText
 10
66
 20
-325
 30
0
 40
6.25
 41
11.1111111111115
 71
    5
 72
    1
  1
196
  7
standard
210
0
220
0
230
1
 50
0
 73
    2
 44
1
  0
LINE
  5
125
100
AcDbEntity
  8
dim
  6
ByBlock
 62
    0
370
   -2
100
AcDbLine
 10
-13.00000051729446
 20
-378.4375
 11
-13.00000051729447
 21
-326.875
  0
LINE
  5
126
100
AcDbEntity
  8
dim
  6
ByBlock
 62
    0
370
   -2
100
AcDbLine
 10
183
 20
-378.4375
 11
183
 21
-326.875
  0
ENDBLK
  5
90
330
8E
100
AcDbEntity
  8
0
100
AcDbBlockEnd
  0
BLOCK
  5
92
330
91
100
AcDbEntity
  8
0
100
AcDbBlockBegin
  2
*D10
 70
    1
 10
0
 20
0
  3
*D10
  1

  0
LINE
  5
127
100
AcDbEntity
  8
num
  6
CONTINUOUS
 62
    7
370
    0
100
AcDbLine
 10
410
 20
-520
 11
430
 21
-490
  0
LINE
  5
128
100
AcDbEntity
  8
num
  6
CONTINUOUS
 62
    7
370
    0
100
AcDbLine
 10
430
 20
-490
 11
440
 21
-490
  0
SOLID
  5
129
100
AcDbEntity
  8
num
  6
CONTINUOUS
 62
    7
370
    0
100
AcDbTrace
 10
410
 20
-520
 30
0
 11
412.6009517963371
 21
-514.2224027070081
 31
0
 12
414.3328006564782
 22
-515.3769686137689
 32
0
 13
414.3328006564782
 23
-515.3769686137689
 33
0
  0
ENDBLK
  5
93
330
91
100
AcDbEntity
  8
0
100
AcDbBlockEnd
  0
BLOCK
  5
95
330
94
100
AcDbEntity
  8
0
100
AcDbBlockBegin
  2
*D12
 70
    1
 10
0
 20
0
  3
*D12
  1

  0
LINE
  5
12A
100
AcDbEntity
  8
dim
  6
ByBlock
 62
    0
370
   -2
100
AcDbLine
 10
-6.000000517294453
 20
-360
 11
33.99999948270555
 21
-360
  0
SOLID
  5
12B
100
AcDbEntity
  8
dim
  6
ByBlock
 62
    0
370
   -2
100
AcDbTrace
 10
-6.000000517294453
 20
-360
 30
0
 11
0.2499994827055474
 21
-358.9592883555679
 31
0
 12
0.2499994827055474
 22
-361.0407116444321
 32
0
 13
0.2499994827055474
 23
-361.0407116444321
 33
0
  0
SOLID
  5
12C
100
AcDbEntity
  8
dim
  6
ByBlock
 62
    0
370
   -2
100
AcDbTrace
 10
33.99999948270555
 20
-360
 30
0
 11
27.74999948270555
 21
-361.0407116444321
 31
0
 12
27.74999948270555
 22
-358.9592883555679
 32
0
 13
27.74999948270555
 23
-358.9592883555679
 33
0
  0
MTEXT
  5
12D
100
AcDbEntity
  8
dim
  6
CONTINUOUS
 62
    0
370
   -2
100
AcDbMText
 10
13.99999948270555
 20
-355.3125
 30
0
 40
6.25
 41
8.333333333333332
 71
    5
 72
    1
  1
40
  7
standard
210
0
220
0
230
1
 50
0
 73
    2
 44
1
  0
LINE
  5
12E
100
AcDbEntity
  8
dim
  6
ByBlock
 62
    0
370
   -2
100
AcDbLine
 10
-6.000000517294456
 20
-368.4375
 11
-6.000000517294452
 21
-356.875
  0
LINE
  5
12F
100
AcDbEntity
  8
dim
  6
ByBlock
 62
    0
370
   -2
100
AcDbLine
 10
33.99999948270555
 20
-368.4375
 11
33.99999948270555
 21
-356.875
  0
ENDBLK
  5
96
330
94
100
AcDbEntity
  8
0
100
AcDbBlockEnd
  0
BLOCK
  5
98
330
97
100
AcDbEntity
  8
0
100
AcDbBlockBegin
  2
*D21
 70
    1
 10
0
 20
0
  3
*D21
  1

  0
LINE
  5
130
100
AcDbEntity
  8
dim
  6
ByBlock
 62
    0
370
   -2
100
AcDbLine
 10
78
 20
-519
 11
148
 21
-519
  0
SOLID
  5
131
100
AcDbEntity
  8
dim
  6
ByBlock
 62
    0
370
   -2
100
AcDbTrace
 10
78
 20
-519
 30
0
 11
84.25
 21
-517.9592883555679
 31
0
 12
84.25
 22
-520.0407116444321
 32
0
 13
84.25
 23
-520.0407116444321
 33
0
  0
SOLID
  5
132
100
AcDbEntity
  8
dim
  6
ByBlock
 62
    0
370
   -2
100
AcDbTrace
 10
148
 20
-519
 30
0
 11
141.75
 21
-520.0407116444321
 31
0
 12
141.75
 22
-517.9592883555679
 32
0
 13
141.75
 23
-517.9592883555679
 33
0
  0
MTEXT
  5
133
100
AcDbEntity
  8
dim
  6
CONTINUOUS
 62
    0
370
   -2
100
AcDbMText
 10
113
 20
-514.3125
 30
0
 40
6.25
 41
7.638888888888888
 71
    5
 72
    1
  1
70
  7
standard
210
0
220
0
230
1
 50
0
 73
    2
 44
1
  0
LINE
  5
134
100
AcDbEntity
  8
dim
  6
ByBlock
 62
    0
370
   -2
100
AcDbLine
 10
78
 20
-518.4375
 11
78
 21
-515.875
  0
LINE
  5
135
100
AcDbEntity
  8
dim
  6
ByBlock
 62
    0
370
   -2
100
AcDbLine
 10
148
 20
-518.4375
 11
148
 21
-515.875
  0
ENDBLK
  5
99
330
97
100
AcDbEntity
  8
0
100
AcDbBlockEnd
  0
BLOCK
  5
9B
330
9A
100
AcDbEntity
  8
0
100
AcDbBlockBegin
  2
*D25
 70
    1
 10
0
 20
0
  3
*D25
  1

  0
LINE
  5
136
100
AcDbEntity
  8
dim
  6
ByBlock
 62
    0
370
   -2
100
AcDbLine
 10
26.5
 20
-460
 11
55.5
 21
-460
  0
SOLID
  5
137
100
AcDbEntity
  8
dim
  6
ByBlock
 62
    0
370
   -2
100
AcDbTrace
 10
39
 20
-460
 30
0
 11
32.75
 21
-461.0407116444321
 31
0
 12
32.75
 22
-458.9592883555679
 32
0
 13
32.75
 23
-458.9592883555679
 33
0
  0
SOLID
  5
138
100
AcDbEntity
  8
dim
  6
ByBlock
 62
    0
370
   -2
100
AcDbTrace
 10
43
 20
-460
 30
0
 11
49.25
 21
-458.9592883555679
 31
0
 12
49.25
 22
-461.0407116444321
 32
0
 13
49.25
 23
-461.0407116444321
 33
0
  0
MTEXT
  5
139
100
AcDbEntity
  8
dim
  6
CONTINUOUS
 62
    0
370
   -2
100
AcDbMText
 10
41
 20
-455.3125
 30
0
 40
6.25
 41
3.472222222222222
 71
    5
 72
    1
  1
4
  7
standard
210
0
220
0
230
1
 50
0
 73
    2
 44
1
  0
LINE
  5
13A
100
AcDbEntity
  8
dim
  6
ByBlock
 62
    0
370
   -2
100
AcDbLine
 10
39
 20
-431.5625
 11
39
 21
-463.125
  0
LINE
  5
13B
100
AcDbEntity
  8
dim
  6
ByBlock
 62
    0
370
   -2
100
AcDbLine
 10
43
 20
-431.5625002149721
 11
43
 21
-463.125
  0
ENDBLK
  5
9C
330
9A
100
AcDbEntity
  8
0
100
AcDbBlockEnd
  0
BLOCK
  5
9E
330
9D
100
AcDbEntity
  8
0
100
AcDbBlockBegin
  2
*D20
 70
    1
 10
0
 20
0
  3
*D20
  1

  0
LINE
  5
13C
100
AcDbEntity
  8
dim
  6
ByBlock
 62
    0
370
   -2
100
AcDbLine
 10
48
 20
-500
 11
183
 21
-500
  0
SOLID
  5
13D
100
AcDbEntity
  8
dim
  6
ByBlock
 62
    0
370
   -2
100
AcDbTrace
 10
48
 20
-500
 30
0
 11
54.25
 21
-498.9592883555679
 31
0
 12
54.25
 22
-501.0407116444321
 32
0
 13
54.25
 23
-501.0407116444321
 33
0
  0
SOLID
  5
13E
100
AcDbEntity
  8
dim
  6
ByBlock
 62
    0
370
   -2
100
AcDbTrace
 10
183
 20
-500
 30
0
 11
176.75
 21
-501.0407116444321
 31
0
 12
176.75
 22
-498.9592883555679
 32
0
 13
176.75
 23
-498.9592883555679
 33
0
  0
MTEXT
  5
13F
100
AcDbEntity
  8
dim
  6
CONTINUOUS
 62
    0
370
   -2
100
AcDbMText
 10
115.5
 20
-495.3125
 30
0
 40
6.25
 41
11.11111111111189
 71
    5
 72
    1
  1
135
  7
standard
210
0
220
0
230
1
 50
0
 73
    2
 44
1
  0
LINE
  5
140
100
AcDbEntity
  8
dim
  6
ByBlock
 62
    0
370
   -2
100
AcDbLine
 10
48
 20
-508.4375
 11
48
 21
-496.875
  0
LINE
  5
141
100
AcDbEntity
  8
dim
  6
ByBlock
 62
    0
370
   -2
100
AcDbLine
 10
183
 20
-508.4375
 11
183
 21
-496.875
  0
ENDBLK
  5
9F
330
9D
100
AcDbEntity
  8
0
100
AcDbBlockEnd
  0
BLOCK
  5
A1
330
A0
100
AcDbEntity
  8
0
100
AcDbBlockBegin
  2
*D6
 70
    1
 10
0
 20
0
  3
*D6
  1

  0
LINE
  5
142
100
AcDbEntity
  8
num
  6
CONTINUOUS
 62
    7
370
    0
100
AcDbLine
 10
260
 20
-520
 11
280
 21
-490
  0
LINE
  5
143
100
AcDbEntity
  8
num
  6
CONTINUOUS
 62
    7
370
    0
100
AcDbLine
 10
280
 20
-490
 11
290
 21
-490
  0
SOLID
  5
144
100
AcDbEntity
  8
num
  6
CONTINUOUS
 62
    7
370
    0
100
AcDbTrace
 10
260
 20
-520
 30
0
 11
262.6009517963371
 21
-514.2224027070081
 31
0
 12
264.3328006564782
 22
-515.3769686137689
 32
0
 13
264.3328006564782
 23
-515.3769686137689
 33
0
  0
ENDBLK
  5
A2
330
A0
100
AcDbEntity
  8
0
100
AcDbBlockEnd
  0
BLOCK
  5
A4
330
A3
100
AcDbEntity
  8
0
100
AcDbBlockBegin
  2
*D13
 70
    1
 10
0
 20
0
  3
*D13
  1

  0
LINE
  5
145
100
AcDbEntity
  8
dim
  6
ByBlock
 62
    0
370
   -2
100
AcDbLine
 10
21.5
 20
-590
 11
51.49999999999989
 21
-590
  0
SOLID
  5
146
100
AcDbEntity
  8
dim
  6
ByBlock
 62
    0
370
   -2
100
AcDbTrace
 10
34
 20
-590
 30
0
 11
27.75
 21
-591.0407116444321
 31
0
 12
27.75
 22
-588.9592883555679
 32
0
 13
27.75
 23
-588.9592883555679
 33
0
  0
SOLID
  5
147
100
AcDbEntity
  8
dim
  6
ByBlock
 62
    0
370
   -2
100
AcDbTrace
 10
38.99999999999989
 20
-590
 30
0
 11
45.24999999999989
 21
-588.9592883555679
 31
0
 12
45.24999999999989
 22
-591.0407116444321
 32
0
 13
45.24999999999989
 23
-591.0407116444321
 33
0
  0
MTEXT
  5
148
100
AcDbEntity
  8
dim
  6
CONTINUOUS
 62
    0
370
   -2
100
AcDbMText
 10
36.49999999999994
 20
-585.3125
 30
0
 40
6.25
 41
2.777777777778165
 71
    5
 72
    1
  1
5
  7
standard
210
0
220
0
230
1
 50
0
 73
    2
 44
1
  0
LINE
  5
149
100
AcDbEntity
  8
dim
  6
ByBlock
 62
    0
370
   -2
100
AcDbLine
 10
34
 20
-576.5624999999999
 11
34
 21
-593.125
  0
LINE
  5
14A
100
AcDbEntity
  8
dim
  6
ByBlock
 62
    0
370
   -2
100
AcDbLine
 10
38.99999999999989
 20
-571.5625
 11
38.99999999999989
 21
-593.125
  0
ENDBLK
  5
A5
330
A3
100
AcDbEntity
  8
0
100
AcDbBlockEnd
  0
BLOCK
  5
A7
330
A6
100
AcDbEntity
  8
0
100
AcDbBlockBegin
  2
*D2
 70
    1
 10
0
 20
0
  3
*D2
  1

  0
LINE
  5
14B
100
AcDbEntity
  8
dim
  6
ByBlock
 62
    0
370
   -2
100
AcDbLine
 10
307.5
 20
-360
 11
342.5
 21
-360
  0
SOLID
  5
14C
100
AcDbEntity
  8
dim
  6
ByBlock
 62
    0
370
   -2
100
AcDbTrace
 10
320
 20
-360
 30
0
 11
313.75
 21
-361.0407116444321
 31
0
 12
313.75
 22
-358.9592883555679
 32
0
 13
313.75
 23
-358.9592883555679
 33
0
  0
SOLID
  5
14D
100
AcDbEntity
  8
dim
  6
ByBlock
 62
    0
370
   -2
100
AcDbTrace
 10
330
 20
-360
 30
0
 11
336.25
 21
-358.9592883555679
 31
0
 12
336.25
 22
-361.0407116444321
 32
0
 13
336.25
 23
-361.0407116444321
 33
0
  0
MTEXT
  5
14E
100
AcDbEntity
  8
dim
  6
CONTINUOUS
 62
    0
370
   -2
100
AcDbMText
 10
325
 20
-355.3125
 30
0
 40
6.25
 41
6.25
 71
    5
 72
    1
  1
10
  7
standard
210
0
220
0
230
1
 50
0
 73
    2
 44
1
  0
LINE
  5
14F
100
AcDbEntity
  8
dim
  6
ByBlock
 62
    0
370
   -2
100
AcDbLine
 10
320
 20
-368.4375
 11
320
 21
-356.875
  0
LINE
  5
150
100
AcDbEntity
  8
dim
  6
ByBlock
 62
    0
370
   -2
100
AcDbLine
 10
330
 20
-368.4375
 11
330
 21
-356.875
  0
ENDBLK
  5
A8
330
A6
100
AcDbEntity
  8
0
100
AcDbBlockEnd
  0
BLOCK
  5
AA
330
A9
100
AcDbEntity
  8
0
100
AcDbBlockBegin
  2
*D14
 70
    1
 10
0
 20
0
  3
*D14
  1

  0
LINE
  5
151
100
AcDbEntity
  8
dim
  6
ByBlock
 62
    0
370
   -2
100
AcDbLine
 10
30.5
 20
-600
 11
60.5
 21
-600
  0
SOLID
  5
152
100
AcDbEntity
  8
dim
  6
ByBlock
 62
    0
370
   -2
100
AcDbTrace
 10
43
 20
-600
 30
0
 11
36.75
 21
-601.0407116444321
 31
0
 12
36.75
 22
-598.9592883555679
 32
0
 13
36.75
 23
-598.9592883555679
 33
0
  0
SOLID
  5
153
100
AcDbEntity
  8
dim
  6
ByBlock
 62
    0
370
   -2
100
AcDbTrace
 10
48
 20
-600
 30
0
 11
54.25
 21
-598.9592883555679
 31
0
 12
54.25
 22
-601.0407116444321
 32
0
 13
54.25
 23
-601.0407116444321
 33
0
  0
MTEXT
  5
154
100
AcDbEntity
  8
dim
  6
CONTINUOUS
 62
    0
370
   -2
100
AcDbMText
 10
45.5
 20
-595.3125
 30
0
 40
6.25
 41
2.777777777778165
 71
    5
 72
    1
  1
5
  7
standard
210
0
220
0
230
1
 50
0
 73
    2
 44
1
  0
LINE
  5
155
100
AcDbEntity
  8
dim
  6
ByBlock
 62
    0
370
   -2
100
AcDbLine
 10
43
 20
-571.5624999999999
 11
43
 21
-603.125
  0
LINE
  5
156
100
AcDbEntity
  8
dim
  6
ByBlock
 62
    0
370
   -2
100
AcDbLine
 10
48
 20
-576.5624999999999
 11
48
 21
-603.125
  0
ENDBLK
  5
AB
330
A9
100
AcDbEntity
  8
0
100
AcDbBlockEnd
  0
BLOCK
  5
AD
330
AC
100
AcDbEntity
  8
0
100
AcDbBlockBegin
  2
*D27
 70
    1
 10
0
 20
0
  3
*D27
  1

  0
LINE
  5
157
100
AcDbEntity
  8
dim
  6
ByBlock
 62
    0
370
   -2
100
AcDbLine
 10
193
 20
-549.5
 11
193
 21
-510.5
  0
SOLID
  5
158
100
AcDbEntity
  8
dim
  6
ByBlock
 62
    0
370
   -2
100
AcDbTrace
 10
193
 20
-537
 30
0
 11
194.0407116444321
 21
-543.25
 31
0
 12
191.9592883555679
 22
-543.25
 32
0
 13
191.9592883555679
 23
-543.25
 33
0
  0
SOLID
  5
159
100
AcDbEntity
  8
dim
  6
ByBlock
 62
    0
370
   -2
100
AcDbTrace
 10
193
 20
-523
 30
0
 11
191.9592883555679
 21
-516.75
 31
0
 12
194.0407116444321
 22
-516.75
 32
0
 13
194.0407116444321
 23
-516.75
 33
0
  0
MTEXT
  5
15A
100
AcDbEntity
  8
dim
  6
CONTINUOUS
 62
    0
370
   -2
100
AcDbMText
 10
188.3125
 20
-530
 30
0
 40
6.25
 41
13.19444444444444
 71
    5
 72
    1
  1
%%C14
  7
standard
210
0
220
0
230
1
 50
90
 73
    2
 44
1
  0
LINE
  5
15B
100
AcDbEntity
  8
dim
  6
ByBlock
 62
    0
370
   -2
100
AcDbLine
 10
184.5625
 20
-537
 11
196.125
 21
-537
  0
LINE
  5
15C
100
AcDbEntity
  8
dim
  6
ByBlock
 62
    0
370
   -2
100
AcDbLine
 10
184.5625
 20
-523
 11
196.125
 21
-523
  0
ENDBLK
  5
AE
330
AC
100
AcDbEntity
  8
0
100
AcDbBlockEnd
  0
BLOCK
  5
B0
330
AF
100
AcDbEntity
  8
0
100
AcDbBlockBegin
  2
*D1
 70
    1
 10
0
 20
0
  3
*D1
  1

  0
LINE
  5
15D
100
AcDbEntity
  8
dim
  6
ByBlock
 62
    0
370
   -2
100
AcDbLine
 10
48
 20
-360
 11
78
 21
-360
  0
SOLID
  5
15E
100
AcDbEntity
  8
dim
  6
ByBlock
 62
    0
370
   -2
100
AcDbTrace
 10
48
 20
-360
 30
0
 11
54.25
 21
-358.9592883555679
 31
0
 12
54.25
 22
-361.0407116444321
 32
0
 13
54.25
 23
-361.0407116444321
 33
0
  0
SOLID
  5
15F
100
AcDbEntity
  8
dim
  6
ByBlock
 62
    0
370
   -2
100
AcDbTrace
 10
78
 20
-360
 30
0
 11
71.75
 21
-361.0407116444321
 31
0
 12
71.75
 22
-358.9592883555679
 32
0
 13
71.75
 23
-358.9592883555679
 33
0
  0
MTEXT
  5
160
100
AcDbEntity
  8
dim
  6
CONTINUOUS
 62
    0
370
   -2
100
AcDbMText
 10
63
 20
-355.3125
 30
0
 40
6.25
 41
7.638888888889277
 71
    5
 72
    1
  1
30
  7
standard
210
0
220
0
230
1
 50
0
 73
    2
 44
1
  0
LINE
  5
161
100
AcDbEntity
  8
dim
  6
ByBlock
 62
    0
370
   -2
100
AcDbLine
 10
48
 20
-368.4375
 11
48
 21
-356.875
  0
LINE
  5
162
100
AcDbEntity
  8
dim
  6
ByBlock
 62
    0
370
   -2
100
AcDbLine
 10
78
 20
-368.4375
 11
78
 21
-356.875
  0
ENDBLK
  5
B1
330
AF
100
AcDbEntity
  8
0
100
AcDbBlockEnd
  0
BLOCK
  5
B3
330
B2
100
AcDbEntity
  8
0
100
AcDbBlockBegin
  2
*D7
 70
    1
 10
0
 20
0
  3
*D7
  1

  0
LINE
  5
163
100
AcDbEntity
  8
num
  6
CONTINUOUS
 62
    7
370
    0
100
AcDbLine
 10
310
 20
-520
 11
330
 21
-490
  0
LINE
  5
164
100
AcDbEntity
  8
num
  6
CONTINUOUS
 62
    7
370
    0
100
AcDbLine
 10
330
 20
-490
 11
340
 21
-490
  0
SOLID
  5
165
100
AcDbEntity
  8
num
  6
CONTINUOUS
 62
    7
370
    0
100
AcDbTrace
 10
310
 20
-520
 30
0
 11
312.6009517963371
 21
-514.2224027070081
 31
0
 12
314.3328006564782
 22
-515.3769686137689
 32
0
 13
314.3328006564782
 23
-515.3769686137689
 33
0
  0
ENDBLK
  5
B4
330
B2
100
AcDbEntity
  8
0
100
AcDbBlockEnd
  0
BLOCK
  5
B6
330
B5
100
AcDbEntity
  8
0
100
AcDbBlockBegin
  2
*D15
 70
    1
 10
0
 20
0
  3
*D15
  1

  0
LINE
  5
166
100
AcDbEntity
  8
dim
  6
ByBlock
 62
    0
370
   -2
100
AcDbLine
 10
148
 20
-360
 11
178
 21
-360
  0
SOLID
  5
167
100
AcDbEntity
  8
dim
  6
ByBlock
 62
    0
370
   -2
100
AcDbTrace
 10
148
 20
-360
 30
0
 11
154.25
 21
-358.9592883555679
 31
0
 12
154.25
 22
-361.0407116444321
 32
0
 13
154.25
 23
-361.0407116444321
 33
0
  0
SOLID
  5
168
100
AcDbEntity
  8
dim
  6
ByBlock
 62
    0
370
   -2
100
AcDbTrace
 10
178
 20
-360
 30
0
 11
171.75
 21
-361.0407116444321
 31
0
 12
171.75
 22
-358.9592883555679
 32
0
 13
171.75
 23
-358.9592883555679
 33
0
  0
MTEXT
  5
169
100
AcDbEntity
  8
dim
  6
CONTINUOUS
 62
    0
370
   -2
100
AcDbMText
 10
163
 20
-355.3125
 30
0
 40
6.25
 41
7.638888888889277
 71
    5
 72
    1
  1
30
  7
standard
210
0
220
0
230
1
 50
0
 73
    2
 44
1
  0
LINE
  5
16A
100
AcDbEntity
  8
dim
  6
ByBlock
 62
    0
370
   -2
100
AcDbLine
 10
148
 20
-368.4375
 11
148
 21
-356.875
  0
LINE
  5
16B
100
AcDbEntity
  8
dim
  6
ByBlock
 62
    0
370
   -2
100
AcDbLine
 10
178
 20
-368.4375
 11
178
 21
-356.875
  0
ENDBLK
  5
B7
330
B5
100
AcDbEntity
  8
0
100
AcDbBlockEnd
  0
BLOCK
  5
B9
330
B8
100
AcDbEntity
  8
0
100
AcDbBlockBegin
  2
*D17
 70
    1
 10
0
 20
0
  3
*D17
  1

  0
LINE
  5
16C
100
AcDbEntity
  8
dim
  6
ByBlock
 62
    0
370
   -2
100
AcDbLine
 10
-20
 20
-377.5
 11
-20
 21
-412.5
  0
SOLID
  5
16D
100
AcDbEntity
  8
dim
  6
ByBlock
 62
    0
370
   -2
100
AcDbTrace
 10
-20
 20
-390
 30
0
 11
-21.0407116444321
 21
-383.75
 31
0
 12
-18.95928835556789
 22
-383.75
 32
0
 13
-18.95928835556789
 23
-383.75
 33
0
  0
SOLID
  5
16E
100
AcDbEntity
  8
dim
  6
ByBlock
 62
    0
370
   -2
100
AcDbTrace
 10
-20
 20
-400
 30
0
 11
-18.9592883555679
 21
-406.25
 31
0
 12
-21.0407116444321
 22
-406.25
 32
0
 13
-21.0407116444321
 23
-406.25
 33
0
  0
MTEXT
  5
16F
100
AcDbEntity
  8
dim
  6
CONTINUOUS
 62
    0
370
   -2
100
AcDbMText
 10
-24.6875
 20
-395
 30
0
 40
6.25
 41
6.25
 71
    5
 72
    1
  1
10
  7
standard
210
0
220
0
230
1
 50
90
 73
    2
 44
1
  0
LINE
  5
170
100
AcDbEntity
  8
dim
  6
ByBlock
 62
    0
370
   -2
100
AcDbLine
 10
-12.5625
 20
-390
 11
-23.125
 21
-390
  0
LINE
  5
171
100
AcDbEntity
  8
dim
  6
ByBlock
 62
    0
370
   -2
100
AcDbLine
 10
-12.5625
 20
-400
 11
-23.125
 21
-400
  0
ENDBLK
  5
BA
330
B8
100
AcDbEntity
  8
0
100
AcDbBlockEnd
  0
ENDSEC
  0
SECTION
  2
ENTITIES
  0
HATCH
  5
172
100
AcDbEntity
  8
zasuv
  6
ByLayer
 62
  256
370
   -1
100
AcDbHatch
 10
0
 20
0
 30
0
210
0
220
0
230
1
  2
gost_metal
 70
    0
 71
    0
 91
    1
 92
    0
 93
    4
 72
    1
 10
78
 20
-372
 11
48
 21
-372
 72
    1
 10
48
 20
-372
 11
48
 21
-370
 72
    1
 10
48
 20
-370
 11
78
 21
-370
 72
    1
 10
78
 20
-370
 11
78
 21
-372
 97
    0
 75
    0
 76
    1
 52
0
 41
0.5
 77
    0
 78
    0
 98
    0
  0
HATCH
  5
173
100
AcDbEntity
  8
zasuv
  6
ByLayer
 62
  256
370
   -1
100
AcDbHatch
 10
0
 20
0
 30
0
210
0
220
0
230
1
  2
gost_metal
 70
    0
 71
    0
 91
    1
 92
    0
 93
    4
 72
    1
 10
78
 20
-390
 11
48
 21
-390
 72
    1
 10
48
 20
-390
 11
48
 21
-388
 72
    1
 10
48
 20
-388
 11
78
 21
-388
 72
    1
 10
78
 20
-388
 11
78
 21
-390
 97
    0
 75
    0
 76
    1
 52
0
 41
0.5
 77
    0
 78
    0
 98
    0
  0
HATCH
  5
174
100
AcDbEntity
  8
zasuv
  6
ByLayer
 62
  256
370
   -1
100
AcDbHatch
 10
0
 20
0
 30
0
210
0
220
0
230
1
  2
gost_metal
 70
    0
 71
    0
 91
    1
 92
    0
 93
    4
 72
    1
 10
48
 20
-538
 11
78
 21
-538
 72
    1
 10
78
 20
-538
 11
78
 21
-540
 72
    1
 10
78
 20
-540
 11
48
 21
-540
 72
    1
 10
48
 20
-540
 11
48
 21
-538
 97
    0
 75
    0
 76
    1
 52
0
 41
0.5
 77
    0
 78
    0
 98
    0
  0
HATCH
  5
175
100
AcDbEntity
  8
zasuv
  6
ByLayer
 62
  256
370
   -1
100
AcDbHatch
 10
0
 20
0
 30
0
210
0
220
0
230
1
  2
gost_metal
 70
    0
 71
    0
 91
    1
 92
    0
 93
    4
 72
    1
 10
48
 20
-520
 11
78
 21
-520
 72
    1
 10
78
 20
-520
 11
78
 21
-522
 72
    1
 10
78
 20
-522
 11
48
 21
-522
 72
    1
 10
48
 20
-522
 11
48
 21
-520
 97
    0
 75
    0
 76
    1
 52
0
 41
0.5
 77
    0
 78
    0
 98
    0
  0
HATCH
  5
176
100
AcDbEntity
  8
zasuv
  6
ByLayer
 62
  256
370
   -1
100
AcDbHatch
 10
0
 20
0
 30
0
210
0
220
0
230
1
  2
gost_metal
 70
    0
 71
    0
 91
    1
 92
    0
 93
    4
 72
    1
 10
398
 20
-538
 11
428
 21
-538
 72
    1
 10
428
 20
-538
 11
428
 21
-540
 72
    1
 10
428
 20
-540
 11
398
 21
-540
 72
    1
 10
398
 20
-540
 11
398
 21
-538
 97
    0
 75
    0
 76
    1
 52
0
 41
0.5
 77
    0
 78
    0
 98
    0
  0
HATCH
  5
177
100
AcDbEntity
  8
zasuv
  6
ByLayer
 62
  256
370
   -1
100
AcDbHatch
 10
0
 20
0
 30
0
210
0
220
0
230
1
  2
gost_metal
 70
    0
 71
    0
 91
    1
 92
    0
 93
    4
 72
    1
 10
398
 20
-520
 11
428
 21
-520
 72
    1
 10
428
 20
-520
 11
428
 21
-522
 72
    1
 10
428
 20
-522
 11
398
 21
-522
 72
    1
 10
398
 20
-522
 11
398
 21
-520
 97
    0
 75
    0
 76
    1
 52
0
 41
0.5
 77
    0
 78
    0
 98
    0
  0
HATCH
  5
178
100
AcDbEntity
  8
zasuv
  6
ByLayer
 62
  256
370
   -1
100
AcDbHatch
 10
0
 20
0
 30
0
210
0
220
0
230
1
  2
gost_metal
 70
    0
 71
    0
 91
    1
 92
    0
 93
    4
 72
    1
 10
328
 20
-522
 11
298
 21
-522
 72
    1
 10
298
 20
-522
 11
298
 21
-520
 72
    1
 10
298
 20
-520
 11
328
 21
-520
 72
    1
 10
328
 20
-520
 11
328
 21
-522
 97
    0
 75
    0
 76
    1
 52
0
 41
0.5
 77
    0
 78
    0
 98
    0
  0
HATCH
  5
179
100
AcDbEntity
  8
zasuv
  6
ByLayer
 62
  256
370
   -1
100
AcDbHatch
 10
0
 20
0
 30
0
210
0
220
0
230
1
  2
gost_metal
 70
    0
 71
    0
 91
    1
 92
    0
 93
    4
 72
    1
 10
328
 20
-540
 11
298
 21
-540
 72
    1
 10
298
 20
-540
 11
298
 21
-538
 72
    1
 10
298
 20
-538
 11
328
 21
-538
 72
    1
 10
328
 20
-538
 11
328
 21
-540
 97
    0
 75
    0
 76
    1
 52
0
 41
0.5
 77
    0
 78
    0
 98
    0
  0
HATCH
  5
17A
100
AcDbEntity
  8
zasuv
  6
ByLayer
 62
  256
370
   -1
100
AcDbHatch
 10
0
 20
0
 30
0
210
0
220
0
230
1
  2
gost_metal
 70
    0
 71
    0
 91
    1
 92
    0
 93
    4
 72
    1
 10
33.99999948270555
 20
-520
 11
33.99999948270555
 21
-522
 72
    1
 10
33.99999948270555
 20
-522
 11
-6.000000517294456
 21
-522
 72
    1
 10
-6.000000517294456
 20
-522
 11
-6.000000517294456
 21
-520
 72
    1
 10
-6.000000517294456
 20
-520
 11
33.99999948270555
 21
-520
 97
    0
 75
    0
 76
    1
 52
0
 41
0.5
 77
    0
 78
    0
 98
    0
  0
HATCH
  5
17B
100
AcDbEntity
  8
zasuv
  6
ByLayer
 62
  256
370
   -1
100
AcDbHatch
 10
0
 20
0
 30
0
210
0
220
0
230
1
  2
gost_metal
 70
    0
 71
    0
 91
    1
 92
    0
 93
    4
 72
    1
 10
33.99999948270555
 20
-538
 11
33.99999948270555
 21
-540
 72
    1
 10
33.99999948270555
 20
-540
 11
-6.000000517294456
 21
-540
 72
    1
 10
-6.000000517294456
 20
-540
 11
-6.000000517294456
 21
-538
 72
    1
 10
-6.000000517294456
 20
-538
 11
33.99999948270555
 21
-538
 97
    0
 75
    0
 76
    1
 52
0
 41
0.5
 77
    0
 78
    0
 98
    0
  0
HATCH
  5
17C
100
AcDbEntity
  8
zasuv
  6
ByLayer
 62
  256
370
   -1
100
AcDbHatch
 10
0
 20
0
 30
0
210
0
220
0
230
1
  2
gost_metal
 70
    0
 71
    0
 91
    1
 92
    0
 93
    4
 72
    1
 10
-6.000000517294456
 20
-390
 11
-6.000000517294456
 21
-388
 72
    1
 10
-6.000000517294456
 20
-388
 11
33.99999948270555
 21
-388
 72
    1
 10
33.99999948270555
 20
-388
 11
33.99999948270555
 21
-390
 72
    1
 10
33.99999948270555
 20
-390
 11
-6.000000517294456
 21
-390
 97
    0
 75
    0
 76
    1
 52
0
 41
0.5
 77
    0
 78
    0
 98
    0
  0
HATCH
  5
17D
100
AcDbEntity
  8
zasuv
  6
ByLayer
 62
  256
370
   -1
100
AcDbHatch
 10
0
 20
0
 30
0
210
0
220
0
230
1
  2
gost_metal
 70
    0
 71
    0
 91
    1
 92
    0
 93
    4
 72
    1
 10
-6.000000517294456
 20
-372
 11
-6.000000517294456
 21
-370
 72
    1
 10
-6.000000517294456
 20
-370
 11
33.99999948270555
 21
-370
 72
    1
 10
33.99999948270555
 20
-370
 11
33.99999948270555
 21
-372
 72
    1
 10
33.99999948270555
 20
-372
 11
-6.000000517294456
 21
-372
 97
    0
 75
    0
 76
    1
 52
0
 41
0.5
 77
    0
 78
    0
 98
    0
  0
HATCH
  5
17E
100
AcDbEntity
  8
zasuv
  6
ByLayer
 62
  256
370
   -1
100
AcDbHatch
 10
0
 20
0
 30
0
210
0
220
0
230
1
  2
gost_metal
 70
    0
 71
    0
 91
    1
 92
    0
 93
    4
 72
    1
 10
148
 20
-522
 11
148
 21
-520
 72
    1
 10
148
 20
-520
 11
178
 21
-520
 72
    1
 10
178
 20
-520
 11
178
 21
-522
 72
    1
 10
178
 20
-522
 11
148
 21
-522
 97
    0
 75
    0
 76
    1
 52
0
 41
0.5
 77
    0
 78
    0
 98
    0
  0
HATCH
  5
17F
100
AcDbEntity
  8
zasuv
  6
ByLayer
 62
  256
370
   -1
100
AcDbHatch
 10
0
 20
0
 30
0
210
0
220
0
230
1
  2
gost_metal
 70
    0
 71
    0
 91
    1
 92
    0
 93
    4
 72
    1
 10
148
 20
-540
 11
148
 21
-538
 72
    1
 10
148
 20
-538
 11
178
 21
-538
 72
    1
 10
178
 20
-538
 11
178
 21
-540
 72
    1
 10
178
 20
-540
 11
148
 21
-540
 97
    0
 75
    0
 76
    1
 52
0
 41
0.5
 77
    0
 78
    0
 98
    0
  0
HATCH
  5
180
100
AcDbEntity
  8
zasuv
  6
ByLayer
 62
  256
370
   -1
100
AcDbHatch
 10
0
 20
0
 30
0
210
0
220
0
230
1
  2
gost_metal
 70
    0
 71
    0
 91
    1
 92
    0
 93
    4
 72
    1
 10
178
 20
-388
 11
178
 21
-390
 72
    1
 10
178
 20
-390
 11
148
 21
-390
 72
    1
 10
148
 20
-390
 11
148
 21
-388
 72
    1
 10
148
 20
-388
 11
178
 21
-388
 97
    0
 75
    0
 76
    1
 52
0
 41
0.5
 77
    0
 78
    0
 98
    0
  0
HATCH
  5
181
100
AcDbEntity
  8
zasuv
  6
ByLayer
 62
  256
370
   -1
100
AcDbHatch
 10
0
 20
0
 30
0
210
0
220
0
230
1
  2
gost_metal
 70
    0
 71
    0
 91
    1
 92
    0
 93
    4
 72
    1
 10
178
 20
-370
 11
178
 21
-372
 72
    1
 10
178
 20
-372
 11
148
 21
-372
 72
    1
 10
148
 20
-372
 11
148
 21
-370
 72
    1
 10
148
 20
-370
 11
178
 21
-370
 97
    0
 75
    0
 76
    1
 52
0
 41
0.5
 77
    0
 78
    0
 98
    0
  0
HATCH
  5
182
100
AcDbEntity
  8
ramka
  6
ByLayer
 62
  256
370
   -1
100
AcDbHatch
 10
0
 20
0
 30
0
210
0
220
0
230
1
  2
gost_metal
 70
    0
 71
    0
 91
    1
 92
    0
 93
    9
 72
    1
 10
39
 20
-390
 11
39
 21
-440
 72
    1
 10
39
 20
-440
 11
-11
 21
-440
 72
    1
 10
-11
 20
-440
 11
-11
 21
-438
 72
    2
 10
-8
 20
-438
 40
3
 50
180
 51
270
 73
    0
 72
    1
 10
-8
 20
-435
 11
30
 21
-435
 72
    2
 10
30
 20
-431
 40
4.000000000000001
 50
270
 51
360
 73
    1
 72
    1
 10
34
 20
-431
 11
34
 21
-393
 72
    2
 10
37
 20
-393
 40
3
 50
180
 51
270
 73
    0
 72
    1
 10
37
 20
-390
 11
39
 21
-390
 97
    0
 75
    0
 76
    1
 52
4.71238898038469
 41
1
 77
    0
 78
    0
 98
    0
  0
HATCH
  5
183
100
AcDbEntity
  8
dveri
  6
ByLayer
 62
  256
370
   -1
100
AcDbHatch
 10
0
 20
0
 30
0
210
0
220
0
230
1
  2
gost_metal
 70
    0
 71
    0
 91
    1
 92
    0
 93
    9
 72
    1
 10
43
 20
-440
 11
93
 21
-440
 72
    1
 10
93
 20
-440
 11
93
 21
-438
 72
    2
 10
90
 20
-438
 40
3
 50
360
 51
90
 73
    1
 72
    1
 10
90
 20
-435
 11
52
 21
-435
 72
    2
 10
52
 20
-431
 40
4.000000000000001
 50
90
 51
180
 73
    0
 72
    1
 10
48
 20
-431
 11
48
 21
-393
 72
    2
 10
45
 20
-393
 40
3
 50
360
 51
90
 73
    1
 72
    1
 10
45
 20
-390
 11
43
 21
-390
 72
    1
 10
43
 20
-390
 11
43
 21
-440
 97
    0
 75
    0
 76
    1
 52
1.570796326794897
 41
1
 77
    0
 78
    0
 98
    0
  0
HATCH
  5
184
100
AcDbEntity
  8
dveri
  6
ByLayer
 62
  256
370
   -1
100
AcDbHatch
 10
0
 20
0
 30
0
210
0
220
0
230
1
  2
gost_metal
 70
    0
 71
    0
 91
    1
 92
    0
 93
    9
 72
    2
 10
340
 20
-588
 40
3
 50
360
 51
90
 73
    1
 72
    1
 10
340
 20
-585
 11
302
 21
-585
 72
    2
 10
302
 20
-581
 40
4.000000000000001
 50
90
 51
180
 73
    0
 72
    1
 10
298
 20
-581
 11
298
 21
-543
 72
    2
 10
295
 20
-543
 40
3
 50
360
 51
90
 73
    1
 72
    1
 10
295
 20
-540
 11
293
 21
-540
 72
    1
 10
293
 20
-540
 11
293
 21
-590
 72
    1
 10
293
 20
-590
 11
343
 21
-590
 72
    1
 10
343
 20
-590
 11
343
 21
-588
 97
    0
 75
    0
 76
    1
 52
1.570796326794897
 41
1
 77
    0
 78
    0
 98
    0
  0
HATCH
  5
185
100
AcDbEntity
  8
ramka
  6
ByLayer
 62
  256
370
   -1
100
AcDbHatch
 10
0
 20
0
 30
0
210
0
220
0
230
1
  2
gost_metal
 70
    0
 71
    0
 91
    1
 92
    0
 93
    9
 72
    1
 10
239
 20
-590
 11
239
 21
-588
 72
    2
 10
242
 20
-588
 40
3
 50
180
 51
270
 73
    0
 72
    1
 10
242
 20
-585
 11
280
 21
-585
 72
    2
 10
280
 20
-581
 40
4.000000000000001
 50
270
 51
360
 73
    1
 72
    1
 10
284
 20
-581
 11
284
 21
-543
 72
    2
 10
287
 20
-543
 40
3
 50
180
 51
270
 73
    0
 72
    1
 10
287
 20
-540
 11
289
 21
-540
 72
    1
 10
289
 20
-540
 11
289
 21
-590
 72
    1
 10
289
 20
-590
 11
239
 21
-590
 97
    0
 75
    0
 76
    1
 52
4.71238898038469
 41
1
 77
    0
 78
    0
 98
    0
  0
HATCH
  5
186
100
AcDbEntity
  8
zasuv
  6
ByLayer
 62
  256
370
   -1
100
AcDbHatch
 10
0
 20
0
 30
0
210
0
220
0
230
1
  2
gost_metal
 70
    0
 71
    0
 91
    1
 92
    0
 93
    4
 72
    1
 10
283.9999994827056
 20
-520
 11
283.9999994827056
 21
-522
 72
    1
 10
283.9999994827056
 20
-522
 11
243.9999994827055
 21
-522
 72
    1
 10
243.9999994827055
 20
-522
 11
243.9999994827055
 21
-520
 72
    1
 10
243.9999994827055
 20
-520
 11
283.9999994827056
 21
-520
 97
    0
 75
    0
 76
    1
 52
0
 41
0.5
 77
    0
 78
    0
 98
    0
  0
HATCH
  5
187
100
AcDbEntity
  8
zasuv
  6
ByLayer
 62
  256
370
   -1
100
AcDbHatch
 10
0
 20
0
 30
0
210
0
220
0
230
1
  2
gost_metal
 70
    0
 71
    0
 91
    1
 92
    0
 93
    4
 72
    1
 10
283.9999994827056
 20
-538
 11
283.9999994827056
 21
-540
 72
    1
 10
283.9999994827056
 20
-540
 11
243.9999994827055
 21
-540
 72
    1
 10
243.9999994827055
 20
-540
 11
243.9999994827055
 21
-538
 72
    1
 10
243.9999994827055
 20
-538
 11
283.9999994827056
 21
-538
 97
    0
 75
    0
 76
    1
 52
0
 41
0.5
 77
    0
 78
    0
 98
    0
  0
HATCH
  5
188
100
AcDbEntity
  8
ramka
  6
ByLayer
 62
  256
370
   -1
100
AcDbHatch
 10
0
 20
0
 30
0
210
0
220
0
230
1
  2
gost_metal
 70
    0
 71
    0
 91
    1
 92
    0
 93
   12
 72
    1
 10
286
 20
-393
 11
314
 21
-393
 72
    2
 10
314
 20
-396
 40
3
 50
270
 51
360
 73
    0
 72
    1
 10
317
 20
-396
 11
317
 21
-400
 72
    1
 10
317
 20
-400
 11
320
 21
-400
 72
    1
 10
320
 20
-400
 11
320
 21
-395
 72
    2
 10
315
 20
-395
 40
5.000000000000001
 50
0
 51
90
 73
    1
 72
    1
 10
315
 20
-390
 11
285
 21
-390
 72
    2
 10
285
 20
-395
 40
5.000000000000001
 50
90
 51
180
 73
    1
 72
    1
 10
280
 20
-395
 11
280
 21
-400
 72
    1
 10
280
 20
-400
 11
283
 21
-400
 72
    1
 10
283
 20
-400
 11
283
 21
-396
 72
    2
 10
286
 20
-396
 40
3
 50
180
 51
270
 73
    0
 97
    0
 75
    0
 76
    1
 52
1.570796326794897
 41
1
 77
    0
 78
    0
 98
    0
  0
HATCH
  5
189
100
AcDbEntity
  8
ramka
  6
ByLayer
 62
  256
370
   -1
100
AcDbHatch
 10
0
 20
0
 30
0
210
0
220
0
230
1
  2
gost_metal
 70
    0
 71
    0
 91
    1
 92
    0
 93
   16
 72
    1
 10
286
 20
-403
 11
314
 21
-403
 72
    2
 10
314
 20
-406
 40
3
 50
270
 51
360
 73
    0
 72
    1
 10
317
 20
-406
 11
317
 21
-434
 72
    2
 10
314
 20
-434
 40
3
 50
360
 51
90
 73
    0
 72
    1
 10
314
 20
-437
 11
286
 21
-437
 72
    1
 10
315
 20
-400
 11
285
 21
-400
 72
    2
 10
285
 20
-405
 40
5
 50
90
 51
180
 73
    1
 72
    1
 10
280
 20
-405
 11
280
 21
-435
 72
    2
 10
285
 20
-435
 40
5
 50
180
 51
270
 73
    1
 72
    1
 10
285
 20
-440
 11
315
 21
-440
 72
    2
 10
315
 20
-435
 40
5
 50
270
 51
0
 73
    1
 72
    1
 10
320
 20
-435
 11
320
 21
-405
 72
    2
 10
315
 20
-405
 40
5
 50
0
 51
90
 73
    1
 72
    2
 10
286
 20
-434
 40
3
 50
90
 51
180
 73
    0
 72
    1
 10
283
 20
-434
 11
283
 21
-406
 72
    2
 10
286
 20
-406
 40
3
 50
180
 51
270
 73
    0
 97
    0
 75
    0
 76
    1
 52
0
 41
1
 77
    0
 78
    0
 98
    0
  0
LINE
  5
18A
100
AcDbEntity
  8
zasuv
  6
ByLayer
 62
  256
370
   -1
100
AcDbLine
 10
48
 20
-387
 11
48
 21
-388
  0
LINE
  5
18B
100
AcDbEntity
  8
zasuv
  6
ByLayer
 62
  256
370
   -1
100
AcDbLine
 10
48
 20
-372
 11
48
 21
-373
  0
LINE
  5
18C
100
AcDbEntity
  8
zasuv
  6
DASHED2
 62
  256
370
   -1
100
AcDbLine
 10
48
 20
-373
 11
48
 21
-387
  0
LWPOLYLINE
  5
18D
100
AcDbEntity
  8
zasuv
  6
ByLayer
 62
  256
370
   -1
100
AcDbPolyline
 90
    4
 70
    1
 43
0
 10
48
 20
-370
 10
78
 20
-370
 10
78
 20
-372
 10
48
 20
-372
  0
LWPOLYLINE
  5
18E
100
AcDbEntity
  8
zasuv
  6
ByLayer
 62
  256
370
   -1
100
AcDbPolyline
 90
    4
 70
    1
 43
0
 10
48
 20
-388
 10
78
 20
-388
 10
78
 20
-390
 10
48
 20
-390
  0
LINE
  5
18F
100
AcDbEntity
  8
zasuv
  6
ByLayer
 62
  256
370
   -1
100
AcDbLine
 10
78
 20
-387
 11
78
 21
-388
  0
LINE
  5
190
100
AcDbEntity
  8
zasuv
  6
ByLayer
 62
  256
370
   -1
100
AcDbLine
 10
78
 20
-372
 11
78
 21
-373
  0
LINE
  5
191
100
AcDbEntity
  8
zasuv
  6
DASHED2
 62
  256
370
   -1
100
AcDbLine
 10
78
 20
-373
 11
78
 21
-387
  0
LWPOLYLINE
  5
192
100
AcDbEntity
  8
zasuv
  6
ByLayer
 62
  256
370
   -1
100
AcDbPolyline
 90
    4
 70
    1
 43
0
 10
78
 20
-320
 10
78
 20
-373
 10
92
 20
-373
 10
92
 20
-320
 42
0.9999999999999999
  0
CIRCLE
  5
193
100
AcDbEntity
  8
zasuv
  6
DASHED2
 62
  256
370
   -1
100
AcDbCircle
 10
85
 20
-380
 40
7
  0
LINE
  5
194
100
AcDbEntity
  8
axe
  6
DASHDOT2
 62
  256
370
   -1
100
AcDbLine
 10
85
 20
-308
 11
85
 21
-392
  0
LINE
  5
195
100
AcDbEntity
  8
zasuv
  6
ByLayer
 62
  256
370
   -1
100
AcDbLine
 10
48
 20
-537
 11
48
 21
-538
  0
LINE
  5
196
100
AcDbEntity
  8
zasuv
  6
ByLayer
 62
  256
370
   -1
100
AcDbLine
 10
48
 20
-522
 11
48
 21
-523
  0
LINE
  5
197
100
AcDbEntity
  8
zasuv
  6
DASHED2
 62
  256
370
   -1
100
AcDbLine
 10
48
 20
-523
 11
48
 21
-537
  0
LWPOLYLINE
  5
198
100
AcDbEntity
  8
zasuv
  6
ByLayer
 62
  256
370
   -1
100
AcDbPolyline
 90
    4
 70
    1
 43
0
 10
48
 20
-520
 10
78
 20
-520
 10
78
 20
-522
 10
48
 20
-522
  0
LWPOLYLINE
  5
199
100
AcDbEntity
  8
zasuv
  6
ByLayer
 62
  256
370
   -1
100
AcDbPolyline
 90
    4
 70
    1
 43
0
 10
48
 20
-538
 10
78
 20
-538
 10
78
 20
-540
 10
48
 20
-540
  0
LINE
  5
19A
100
AcDbEntity
  8
zasuv
  6
ByLayer
 62
  256
370
   -1
100
AcDbLine
 10
78
 20
-522
 11
78
 21
-523
  0
LINE
  5
19B
100
AcDbEntity
  8
zasuv
  6
DASHED2
 62
  256
370
   -1
100
AcDbLine
 10
78
 20
-523
 11
78
 21
-537
  0
LWPOLYLINE
  5
19C
100
AcDbEntity
  8
zasuv
  6
ByLayer
 62
  256
370
   -1
100
AcDbPolyline
 90
    4
 70
    1
 43
0
 10
92
 20
-590
 10
92
 20
-537
 10
78
 20
-537
 10
78
 20
-590
 42
0.9999999999999999
  0
LINE
  5
19D
100
AcDbEntity
  8
axe
  6
DASHDOT2
 62
  256
370
   -1
100
AcDbLine
 10
84.99999999999999
 20
-602
 11
85
 21
-518
  0
CIRCLE
  5
19E
100
AcDbEntity
  8
zasuv
  6
DASHED2
 62
  256
370
   -1
100
AcDbCircle
 10
85
 20
-530
 40
7
  0
LWPOLYLINE
  5
19F
100
AcDbEntity
  8
zasuv
  6
ByLayer
 62
  256
370
   -1
100
AcDbPolyline
 90
    8
 70
    1
 43
0
 10
94
 20
-550
 10
102
 20
-550
 42
-0.414213562373095
 10
103
 20
-551
 10
103
 20
-559
 42
-0.414213562373095
 10
102
 20
-560
 10
94
 20
-560
 42
-0.414213562373095
 10
93
 20
-559
 10
93
 20
-551
 42
-0.414213562373095
  0
CIRCLE
  5
1A0
100
AcDbEntity
  8
zasuv
  6
ByLayer
 62
  256
370
   -1
100
AcDbCircle
 10
300
 20
-380
 40
7
  0
LWPOLYLINE
  5
1A1
100
AcDbEntity
  8
zasuv
  6
ByLayer
 62
  256
370
   -1
100
AcDbPolyline
 90
    8
 70
    1
 43
0
 10
294
 20
-370
 10
306
 20
-370
 42
-0.414213562373095
 10
310
 20
-374
 10
310
 20
-386
 42
-0.414213562373095
 10
306
 20
-390
 10
294
 20
-390
 42
-0.414213562373095
 10
290
 20
-386
 10
290
 20
-374
 42
-0.414213562373095
  0
LWPOLYLINE
  5
1A2
100
AcDbEntity
  8
zasuv
  6
ByLayer
 62
  256
370
   -1
100
AcDbPolyline
 90
    8
 70
    1
 43
0
 10
294
 20
-372
 10
306
 20
-372
 42
-0.414213562373095
 10
308
 20
-374
 10
308
 20
-386
 42
-0.414213562373095
 10
306
 20
-388
 10
294
 20
-388
 42
-0.414213562373095
 10
292
 20
-386
 10
292
 20
-374
 42
-0.414213562373095
  0
LINE
  5
1A3
100
AcDbEntity
  8
axe
  6
DASHDOT2
 62
  256
370
   -1
100
AcDbLine
 10
285
 20
-380
 11
315
 21
-380
  0
LWPOLYLINE
  5
1A4
100
AcDbEntity
  8
zasuv
  6
ByLayer
 62
  256
370
   -1
100
AcDbPolyline
 90
    4
 70
    1
 43
0
 10
293.0000000000001
 20
-319.9999999999994
 10
293.0000000000001
 20
-370.1270166537942
 10
307.0000000000001
 20
-370.1270166537929
 10
307.0000000000001
 20
-319.9999999999994
 42
0.9999999999999999
  0
LINE
  5
1A5
100
AcDbEntity
  8
zasuv
  6
ByLayer
 62
  256
370
   -1
100
AcDbLine
 10
293.0000000000001
 20
-372.2679491924346
 11
293.0000000000023
 21
-380
  0
LINE
  5
1A6
100
AcDbEntity
  8
zasuv
  6
ByLayer
 62
  256
370
   -1
100
AcDbLine
 10
307.0000000000001
 20
-372.2679491924317
 11
306.9999999999976
 21
-380
  0
LINE
  5
1A7
100
AcDbEntity
  8
zasuv
  6
DASHED2
 62
  256
370
   -1
100
AcDbLine
 10
293
 20
-370
 11
293
 21
-372
  0
LINE
  5
1A8
100
AcDbEntity
  8
zasuv
  6
DASHED2
 62
  256
370
   -1
100
AcDbLine
 10
307.0000000000041
 20
-370.1270166537929
 11
307.0000000000001
 21
-372.2679491924317
  0
LWPOLYLINE
  5
1A9
100
AcDbEntity
  8
zasuv
  6
ByLayer
 62
  256
370
   -1
100
AcDbPolyline
 90
    4
 70
    1
 43
0
 10
298
 20
-520
 10
328
 20
-520
 10
328
 20
-522
 10
298
 20
-522
  0
LWPOLYLINE
  5
1AA
100
AcDbEntity
  8
zasuv
  6
ByLayer
 62
  256
370
   -1
100
AcDbPolyline
 90
    4
 70
    1
 43
0
 10
298
 20
-538
 10
328
 20
-538
 10
328
 20
-540
 10
298
 20
-540
  0
LINE
  5
1AB
100
AcDbEntity
  8
zasuv
  6
ByLayer
 62
  256
370
   -1
100
AcDbLine
 10
328
 20
-537
 11
328
 21
-538
  0
LINE
  5
1AC
100
AcDbEntity
  8
zasuv
  6
ByLayer
 62
  256
370
   -1
100
AcDbLine
 10
328
 20
-522
 11
328
 21
-523
  0
LINE
  5
1AD
100
AcDbEntity
  8
zasuv
  6
DASHED2
 62
  256
370
   -1
100
AcDbLine
 10
328
 20
-523
 11
328
 21
-537
  0
LWPOLYLINE
  5
1AE
100
AcDbEntity
  8
zasuv
  6
ByLayer
 62
  256
370
   -1
100
AcDbPolyline
 90
    4
 70
    1
 43
0
 10
384
 20
-470
 10
384
 20
-523
 10
398
 20
-523
 10
398
 20
-470
 42
0.9999999999999999
  0
CIRCLE
  5
1AF
100
AcDbEntity
  8
zasuv
  6
DASHED2
 62
  256
370
   -1
100
AcDbCircle
 10
391
 20
-530
 40
7
  0
LINE
  5
1B0
100
AcDbEntity
  8
axe
  6
DASHDOT2
 62
  256
370
   -1
100
AcDbLine
 10
391
 20
-458
 11
391
 21
-542
  0
LINE
  5
1B1
100
AcDbEntity
  8
zasuv
  6
ByLayer
 62
  256
370
   -1
100
AcDbLine
 10
398
 20
-537
 11
398
 21
-538
  0
LINE
  5
1B2
100
AcDbEntity
  8
zasuv
  6
ByLayer
 62
  256
370
   -1
100
AcDbLine
 10
398
 20
-522
 11
398
 21
-523
  0
LINE
  5
1B3
100
AcDbEntity
  8
zasuv
  6
DASHED2
 62
  256
370
   -1
100
AcDbLine
 10
398
 20
-523
 11
398
 21
-537
  0
LWPOLYLINE
  5
1B4
100
AcDbEntity
  8
zasuv
  6
ByLayer
 62
  256
370
   -1
100
AcDbPolyline
 90
    4
 70
    1
 43
0
 10
398
 20
-520
 10
428
 20
-520
 10
428
 20
-522
 10
398
 20
-522
  0
LWPOLYLINE
  5
1B5
100
AcDbEntity
  8
zasuv
  6
ByLayer
 62
  256
370
   -1
100
AcDbPolyline
 90
    4
 70
    1
 43
0
 10
398
 20
-538
 10
428
 20
-538
 10
428
 20
-540
 10
398
 20
-540
  0
LINE
  5
1B6
100
AcDbEntity
  8
zasuv
  6
ByLayer
 62
  256
370
   -1
100
AcDbLine
 10
428
 20
-537
 11
428
 21
-538
  0
LINE
  5
1B7
100
AcDbEntity
  8
zasuv
  6
ByLayer
 62
  256
370
   -1
100
AcDbLine
 10
428
 20
-522
 11
428
 21
-523
  0
LINE
  5
1B8
100
AcDbEntity
  8
zasuv
  6
DASHED2
 62
  256
370
   -1
100
AcDbLine
 10
428
 20
-523
 11
428
 21
-537
  0
LINE
  5
1B9
100
AcDbEntity
  8
axe
  6
DASHDOT2
 62
  256
370
   -1
100
AcDbLine
 10
243
 20
-530
 11
494
 21
-530
  0
DIMENSION
  5
1BA
100
AcDbEntity
  8
dim
  6
ByLayer
 62
  256
370
   -1
100
AcDbDimension
  2
*D1
 10
78
 20
-360
 30
0
 11
63
 21
-355.3125
 31
0
 70
   32
 71
    5
  3
Standard
 53
0
210
0
220
0
230
1
100
AcDbAlignedDimension
 13
48
 23
-370
 33
0
 14
78
 24
-370
 34
0
100
AcDbRotatedDimension
  0
LINE
  5
1BB
100
AcDbEntity
  8
zasuv
  6
DASHED2
 62
  256
370
   -1
100
AcDbLine
 10
93
 20
-387
 11
103
 21
-387
  0
LINE
  5
1BC
100
AcDbEntity
  8
zasuv
  6
DASHED2
 62
  256
370
   -1
100
AcDbLine
 10
103
 20
-373
 11
93
 21
-373
  0
LWPOLYLINE
  5
1BD
100
AcDbEntity
  8
zasuv
  6
ByLayer
 62
  256
370
   -1
100
AcDbPolyline
 90
    4
 70
    0
 43
0
 10
320
 20
-390
 10
320
 20
-370
 10
330
 20
-370
 10
330
 20
-390
  0
DIMENSION
  5
1BE
100
AcDbEntity
  8
dim
  6
ByLayer
 62
  256
370
   -1
100
AcDbDimension
  2
*D2
 10
330
 20
-360
 30
0
 11
325
 21
-355.3125
 31
0
 70
   32
 71
    5
  3
Standard
 53
0
210
0
220
0
230
1
100
AcDbAlignedDimension
 13
320
 23
-370
 33
0
 14
330
 24
-370
 34
0
100
AcDbRotatedDimension
  0
DIMENSION
  5
1BF
100
AcDbEntity
  8
dim
  6
ByLayer
 62
  256
370
   -1
100
AcDbDimension
  2
*D3
 10
310
 20
-410
 30
0
 11
300
 21
-405.3125
 31
0
 70
   32
 71
    5
  3
Standard
 53
0
210
0
220
0
230
1
100
AcDbAlignedDimension
 13
290
 23
-386
 33
0
 14
310
 24
-386
 34
0
100
AcDbRotatedDimension
  0
DIMENSION
  5
1C0
100
AcDbEntity
  8
dim
  6
ByLayer
 62
  256
370
   -1
100
AcDbDimension
  2
*D4
 10
280
 20
-370
 30
0
 11
275.3125
 21
-380
 31
0
 70
   32
 71
    5
  3
Standard
 53
0
210
0
220
0
230
1
100
AcDbAlignedDimension
 13
294
 23
-390
 33
0
 14
294
 24
-370
 34
0
 50
90
100
AcDbRotatedDimension
  0
DIMENSION
  5
1C1
100
AcDbEntity
  8
dim
  6
ByLayer
 62
  256
370
   -1
100
AcDbDimension
  2
*D5
 10
120
 20
-536.9999999999992
 30
0
 11
115.3125
 21
-566.9999999999993
 31
0
 70
   32
 71
    5
  3
Standard
 53
0
210
0
220
0
230
1
100
AcDbAlignedDimension
 13
85
 23
-596.9999999999994
 33
0
 14
85
 24
-536.9999999999992
 34
0
 50
90
100
AcDbRotatedDimension
  0
LINE
  5
1C2
100
AcDbEntity
  8
zasuv
  6
DASHED2
 62
  256
370
   -1
100
AcDbLine
 10
343
 20
-537
 11
353
 21
-537
  0
LINE
  5
1C3
100
AcDbEntity
  8
zasuv
  6
DASHED2
 62
  256
370
   -1
100
AcDbLine
 10
353
 20
-523
 11
343
 21
-523
  0
LWPOLYLINE
  5
1C4
100
AcDbEntity
  8
zasuv
  6
ByLayer
 62
  256
370
   -1
100
AcDbPolyline
 90
    4
 70
    0
 43
0
 10
353
 20
-537
 10
489
 20
-537
 10
489
 20
-523
 10
353
 20
-523
  0
LEADER
  5
1C5
100
AcDbEntity
  8
num
  6
ByLayer
 62
  256
370
   -1
100
AcDbLeader
  3
Standard
 71
    1
 72
    0
 73
    3
 74
    0
 75
    0
 40
1
 41
10
 76
3
 76
3
 10
260
 20
-520
 30
0
 10
280
 20
-490
 30
0
 10
290
 20
-490
 30
0
  0
LEADER
  5
1C6
100
AcDbEntity
  8
num
  6
ByLayer
 62
  256
370
   -1
100
AcDbLeader
  3
Standard
 71
    1
 72
    0
 73
    3
 74
    0
 75
    0
 40
1
 41
10
 76
3
 76
3
 10
310
 20
-520
 30
0
 10
330
 20
-490
 30
0
 10
340
 20
-490
 30
0
  0
LEADER
  5
1C7
100
AcDbEntity
  8
num
  6
ByLayer
 62
  256
370
   -1
100
AcDbLeader
  3
Standard
 71
    1
 72
    0
 73
    3
 74
    0
 75
    0
 40
1
 41
10
 76
3
 76
3
 10
350
 20
-520
 30
0
 10
370
 20
-490
 30
0
 10
380
 20
-490
 30
0
  0
LEADER
  5
1C8
100
AcDbEntity
  8
num
  6
ByLayer
 62
  256
370
   -1
100
AcDbLeader
  3
Standard
 71
    1
 72
    0
 73
    3
 74
    0
 75
    0
 40
1
 41
10
 76
3
 76
3
 10
398
 20
-510
 30
0
 10
410
 20
-490
 30
0
 10
420
 20
-490
 30
0
  0
LEADER
  5
1C9
100
AcDbEntity
  8
num
  6
ByLayer
 62
  256
370
   -1
100
AcDbLeader
  3
Standard
 71
    1
 72
    0
 73
    3
 74
    0
 75
    0
 40
1
 41
10
 76
3
 76
3
 10
410
 20
-520
 30
0
 10
430
 20
-490
 30
0
 10
440
 20
-490
 30
0
  0
MTEXT
  5
1CA
100
AcDbEntity
  8
num
  6
ByLayer
 62
  256
370
   -1
100
AcDbMText
 10
283
 20
-488
 30
0
 40
10
 41
2.222222222222222
 71
    7
 72
    1
  1
1
  7
cyrillic_ii
210
0
220
0
230
1
 50
0
 73
    2
 44
1
  0
DIMENSION
  5
1CB
100
AcDbEntity
  8
dim
  6
ByLayer
 62
  256
370
   -1
100
AcDbDimension
  2
*D11
 10
92
 20
-345
 30
0
 11
85
 21
-340.3125
 31
0
 70
   32
  1
%%C<>
 71
    5
  3
Standard
 53
0
210
0
220
0
230
1
100
AcDbAlignedDimension
 13
78
 23
-345
 33
0
 14
92
 24
-345
 34
0
100
AcDbRotatedDimension
  0
LINE
  5
1CC
100
AcDbEntity
  8
zasuv
  6
ByLayer
 62
  256
370
   -1
100
AcDbLine
 10
33.99999948270555
 20
-537
 11
33.99999948270555
 21
-538
  0
LINE
  5
1CD
100
AcDbEntity
  8
zasuv
  6
ByLayer
 62
  256
370
   -1
100
AcDbLine
 10
33.99999948270555
 20
-522
 11
33.99999948270555
 21
-523
  0
LINE
  5
1CE
100
AcDbEntity
  8
zasuv
  6
DASHED2
 62
  256
370
   -1
100
AcDbLine
 10
33.99999948270555
 20
-523
 11
33.99999948270555
 21
-537
  0
LINE
  5
1CF
100
AcDbEntity
  8
dveri
  6
DASHED2
 62
  256
370
   -1
100
AcDbLine
 10
93
 20
-550
 11
93
 21
-510
  0
LWPOLYLINE
  5
1D0
100
AcDbEntity
  8
dveri
  6
CONTINUOUS
 62
   16
420
8388608
370
   35
100
AcDbPolyline
 90
    2
 70
    0
 43
0
 10
48
 20
-485
 10
48
 20
-575
  0
LWPOLYLINE
  5
1D1
100
AcDbEntity
  8
dveri
  6
ByLayer
 62
  256
370
   -1
100
AcDbPolyline
 90
   14
 70
    0
 43
0
 10
93
 20
-510
 10
93
 20
-490
 10
83
 20
-480
 10
73
 20
-490
 10
63
 20
-480
 10
53
 20
-490
 10
43
 20
-480
 10
43.00000000000011
 20
-570
 10
53
 20
-580
 10
63
 20
-570
 10
73
 20
-580
 10
83
 20
-570
 10
93
 20
-580
 10
93
 20
-550
  0
LWPOLYLINE
  5
1D2
100
AcDbEntity
  8
ramka
  6
ByLayer
 62
  256
370
   -1
100
AcDbPolyline
 90
    7
 70
    0
 43
0
 10
34
 20
-510
 10
-41
 20
-510
 10
-31
 20
-520
 10
-41
 20
-530
 10
-31
 20
-540
 10
-41
 20
-550
 10
34
 20
-550
  0
LWPOLYLINE
  5
1D3
100
AcDbEntity
  8
ramka
  6
ByLayer
 62
  256
370
   -1
100
AcDbPolyline
 90
   14
 70
    0
 43
0
 10
-11
 20
-510
 10
-11
 20
-490
 10
-1
 20
-480
 10
9
 20
-490
 10
19
 20
-480
 10
29
 20
-490
 10
39
 20
-480
 10
38.99999999999989
 20
-570
 10
29
 20
-580
 10
19
 20
-570
 10
9
 20
-580
 10
-1
 20
-570
 10
-11
 20
-580
 10
-11
 20
-550
  0
LWPOLYLINE
  5
1D4
100
AcDbEntity
  8
ramka
  6
CONTINUOUS
 62
  256
370
   35
100
AcDbPolyline
 90
    2
 70
    0
 43
0
 10
34
 20
-485
 10
34
 20
-575
  0
LINE
  5
1D5
100
AcDbEntity
  8
zasuv
  6
ByLayer
 62
  256
370
   -1
100
AcDbLine
 10
-6.000000517294456
 20
-537
 11
-6.000000517294456
 21
-538
  0
LINE
  5
1D6
100
AcDbEntity
  8
zasuv
  6
ByLayer
 62
  256
370
   -1
100
AcDbLine
 10
-6.000000517294456
 20
-522
 11
-6.000000517294456
 21
-523
  0
LWPOLYLINE
  5
1D7
100
AcDbEntity
  8
zasuv
  6
ByLayer
 62
  256
370
   -1
100
AcDbPolyline
 90
    4
 70
    1
 43
0
 10
-6.000000517294456
 20
-520
 10
33.99999948270555
 20
-520
 10
33.99999948270555
 20
-522
 10
-6.000000517294456
 20
-522
  0
LWPOLYLINE
  5
1D8
100
AcDbEntity
  8
zasuv
  6
ByLayer
 62
  256
370
   -1
100
AcDbPolyline
 90
    4
 70
    1
 43
0
 10
-6.000000517294456
 20
-538
 10
33.99999948270555
 20
-538
 10
33.99999948270555
 20
-540
 10
-6.000000517294456
 20
-540
  0
LINE
  5
1D9
100
AcDbEntity
  8
zasuv
  6
ByLayer
 62
  256
370
   -1
100
AcDbLine
 10
33.99999948270555
 20
-387
 11
33.99999948270555
 21
-388
  0
LINE
  5
1DA
100
AcDbEntity
  8
zasuv
  6
ByLayer
 62
  256
370
   -1
100
AcDbLine
 10
33.99999948270555
 20
-372
 11
33.99999948270555
 21
-373
  0
LINE
  5
1DB
100
AcDbEntity
  8
zasuv
  6
DASHED2
 62
  256
370
   -1
100
AcDbLine
 10
33.99999948270555
 20
-373
 11
33.99999948270555
 21
-387
  0
LINE
  5
1DC
100
AcDbEntity
  8
zasuv
  6
ByLayer
 62
  256
370
   -1
100
AcDbLine
 10
-6.000000517294456
 20
-387
 11
-6.000000517294456
 21
-388
  0
LINE
  5
1DD
100
AcDbEntity
  8
zasuv
  6
ByLayer
 62
  256
370
   -1
100
AcDbLine
 10
-6.000000517294456
 20
-372
 11
-6.000000517294456
 21
-373
  0
LWPOLYLINE
  5
1DE
100
AcDbEntity
  8
zasuv
  6
ByLayer
 62
  256
370
   -1
100
AcDbPolyline
 90
    4
 70
    1
 43
0
 10
-6.000000517294456
 20
-370
 10
33.99999948270555
 20
-370
 10
33.99999948270555
 20
-372
 10
-6.000000517294456
 20
-372
  0
LWPOLYLINE
  5
1DF
100
AcDbEntity
  8
zasuv
  6
ByLayer
 62
  256
370
   -1
100
AcDbPolyline
 90
    4
 70
    1
 43
0
 10
-6.000000517294456
 20
-388
 10
33.99999948270555
 20
-388
 10
33.99999948270555
 20
-390
 10
-6.000000517294456
 20
-390
  0
DIMENSION
  5
1E0
100
AcDbEntity
  8
dim
  6
ByLayer
 62
  256
370
   -1
100
AcDbDimension
  2
*D12
 10
33.99999948270555
 20
-360
 30
0
 11
13.99999948270555
 21
-355.3125
 31
0
 70
   32
 71
    5
  3
Standard
 53
0
210
0
220
0
230
1
100
AcDbAlignedDimension
 13
-6.000000517294456
 23
-370
 33
0
 14
33.99999948270555
 24
-370
 34
0
100
AcDbRotatedDimension
  0
LWPOLYLINE
  5
1E1
100
AcDbEntity
  8
dveri
  6
ByLayer
 62
  256
370
   -1
100
AcDbPolyline
 90
    7
 70
    0
 43
0
 10
48
 20
-510
 10
200
 20
-510
 10
210
 20
-520
 10
200
 20
-530
 10
210
 20
-540
 10
200
 20
-550
 10
48
 20
-550
  0
DIMENSION
  5
1E2
100
AcDbEntity
  8
dim
  6
ByLayer
 62
  256
370
   -1
100
AcDbDimension
  2
*D13
 10
40
 20
-590
 30
0
 11
36.49999999999994
 21
-585.3125
 31
0
 70
   32
 71
    5
  3
Standard
 53
0
210
0
220
0
230
1
100
AcDbAlignedDimension
 13
34
 23
-574.9999999999999
 33
0
 14
38.99999999999989
 24
-570
 34
0
100
AcDbRotatedDimension
  0
DIMENSION
  5
1E3
100
AcDbEntity
  8
dim
  6
ByLayer
 62
  256
370
   -1
100
AcDbDimension
  2
*D14
 10
50
 20
-600
 30
0
 11
45.5
 21
-595.3125
 31
0
 70
   32
 71
    5
  3
Standard
 53
0
210
0
220
0
230
1
100
AcDbAlignedDimension
 13
43
 23
-569.9999999999999
 33
0
 14
48
 24
-574.9999999999999
 34
0
100
AcDbRotatedDimension
  0
LINE
  5
1E4
100
AcDbEntity
  8
zasuv
  6
ByLayer
 62
  256
370
   -1
100
AcDbLine
 10
-5.999999999999998
 20
-523
 11
-5.999999999999998
 21
-537
  0
LINE
  5
1E5
100
AcDbEntity
  8
zasuv
  6
ByLayer
 62
  256
370
   -1
100
AcDbLine
 10
148
 20
-537
 11
148
 21
-538
  0
LINE
  5
1E6
100
AcDbEntity
  8
zasuv
  6
ByLayer
 62
  256
370
   -1
100
AcDbLine
 10
148
 20
-522
 11
148
 21
-523
  0
LINE
  5
1E7
100
AcDbEntity
  8
zasuv
  6
DASHED2
 62
  256
370
   -1
100
AcDbLine
 10
148
 20
-523
 11
148
 21
-537
  0
LWPOLYLINE
  5
1E8
100
AcDbEntity
  8
zasuv
  6
ByLayer
 62
  256
370
   -1
100
AcDbPolyline
 90
    4
 70
    1
 43
0
 10
148
 20
-520
 10
178
 20
-520
 10
178
 20
-522
 10
148
 20
-522
  0
LWPOLYLINE
  5
1E9
100
AcDbEntity
  8
zasuv
  6
ByLayer
 62
  256
370
   -1
100
AcDbPolyline
 90
    4
 70
    1
 43
0
 10
148
 20
-538
 10
178
 20
-538
 10
178
 20
-540
 10
148
 20
-540
  0
LINE
  5
1EA
100
AcDbEntity
  8
zasuv
  6
ByLayer
 62
  256
370
   -1
100
AcDbLine
 10
178
 20
-537
 11
178
 21
-538
  0
LINE
  5
1EB
100
AcDbEntity
  8
zasuv
  6
ByLayer
 62
  256
370
   -1
100
AcDbLine
 10
178
 20
-522
 11
178
 21
-523
  0
LINE
  5
1EC
100
AcDbEntity
  8
zasuv
  6
DASHED2
 62
  256
370
   -1
100
AcDbLine
 10
178
 20
-523
 11
178
 21
-537
  0
LWPOLYLINE
  5
1ED
100
AcDbEntity
  8
zasuv
  6
ByLayer
 62
  256
370
   -1
100
AcDbPolyline
 90
    5
 70
    1
 43
0
 10
-5.999999999999998
 20
-523
 10
-13
 20
-530
 10
-5.999999999999998
 20
-537
 10
183
 20
-537
 10
183
 20
-523
  0
LINE
  5
1EE
100
AcDbEntity
  8
axe
  6
DASHDOT2
 62
  256
370
   -1
100
AcDbLine
 10
-18
 20
-530
 11
188
 21
-530
  0
LINE
  5
1EF
100
AcDbEntity
  8
zasuv
  6
ByLayer
 62
  256
370
   -1
100
AcDbLine
 10
148
 20
-387
 11
148
 21
-388
  0
LINE
  5
1F0
100
AcDbEntity
  8
zasuv
  6
ByLayer
 62
  256
370
   -1
100
AcDbLine
 10
148
 20
-372
 11
148
 21
-373
  0
LINE
  5
1F1
100
AcDbEntity
  8
zasuv
  6
DASHED2
 62
  256
370
   -1
100
AcDbLine
 10
148
 20
-373
 11
148
 21
-387
  0
LWPOLYLINE
  5
1F2
100
AcDbEntity
  8
zasuv
  6
ByLayer
 62
  256
370
   -1
100
AcDbPolyline
 90
    4
 70
    1
 43
0
 10
148
 20
-370
 10
178
 20
-370
 10
178
 20
-372
 10
148
 20
-372
  0
LWPOLYLINE
  5
1F3
100
AcDbEntity
  8
zasuv
  6
ByLayer
 62
  256
370
   -1
100
AcDbPolyline
 90
    4
 70
    1
 43
0
 10
148
 20
-388
 10
178
 20
-388
 10
178
 20
-390
 10
148
 20
-390
  0
LINE
  5
1F4
100
AcDbEntity
  8
zasuv
  6
ByLayer
 62
  256
370
   -1
100
AcDbLine
 10
178
 20
-387
 11
178
 21
-388
  0
LINE
  5
1F5
100
AcDbEntity
  8
zasuv
  6
ByLayer
 62
  256
370
   -1
100
AcDbLine
 10
178
 20
-372
 11
178
 21
-373
  0
LINE
  5
1F6
100
AcDbEntity
  8
zasuv
  6
DASHED2
 62
  256
370
   -1
100
AcDbLine
 10
178
 20
-373
 11
178
 21
-387
  0
DIMENSION
  5
1F7
100
AcDbEntity
  8
dim
  6
ByLayer
 62
  256
370
   -1
100
AcDbDimension
  2
*D15
 10
178
 20
-360
 30
0
 11
163
 21
-355.3125
 31
0
 70
   32
 71
    5
  3
Standard
 53
0
210
0
220
0
230
1
100
AcDbAlignedDimension
 13
148
 23
-370
 33
0
 14
178
 24
-370
 34
0
100
AcDbRotatedDimension
  0
LWPOLYLINE
  5
1F8
100
AcDbEntity
  8
zasuv
  6
ByLayer
 62
  256
370
   -1
100
AcDbPolyline
 90
    4
 70
    0
 43
0
 10
103
 20
-387
 10
183
 20
-387
 10
183
 20
-373
 10
103
 20
-373
  0
LINE
  5
1F9
100
AcDbEntity
  8
zasuv
  6
ByLayer
 62
  256
370
   -1
100
AcDbLine
 10
-6.000000517294457
 20
-373
 11
-6.000000517294457
 21
-387
  0
DIMENSION
  5
1FA
100
AcDbEntity
  8
dim
  6
ByLayer
 62
  256
370
   -1
100
AcDbDimension
  2
*D16
 10
-0.9999999999999982
 20
-350
 30
0
 11
-9.500000517294458
 21
-345.3125
 31
0
 70
   32
 71
    5
  3
Standard
 53
0
210
0
220
0
230
1
100
AcDbAlignedDimension
 13
-13.00000051729446
 23
-380
 33
0
 14
-6.000000517294457
 24
-380
 34
0
100
AcDbRotatedDimension
  0
LWPOLYLINE
  5
1FB
100
AcDbEntity
  8
zasuv
  6
ByLayer
 62
  256
370
   -1
100
AcDbPolyline
 90
    5
 70
    0
 43
0
 10
93
 20
-373
 10
-6.000000517294457
 20
-373
 10
-13.00000051729446
 20
-380
 10
-6.000000517294457
 20
-387
 10
93
 20
-387
  0
LINE
  5
1FC
100
AcDbEntity
  8
axe
  6
DASHDOT2
 62
  256
370
   -1
100
AcDbLine
 10
-18.00000051729446
 20
-380
 11
198
 21
-380
  0
LINE
  5
1FD
100
AcDbEntity
  8
ramka
  6
ByLayer
 62
  256
370
   -1
100
AcDbLine
 10
-11
 20
-550
 11
-11
 21
-510
  0
LINE
  5
1FE
100
AcDbEntity
  8
dveri
  6
ByLayer
 62
  256
370
   -1
100
AcDbLine
 10
183
 20
-550
 11
183
 21
-510
  0
LWPOLYLINE
  5
1FF
100
AcDbEntity
  8
dveri
  6
ByLayer
 62
  256
370
   -1
100
AcDbPolyline
 90
    9
 70
    1
 43
0
 10
90
 20
-435
 10
52
 20
-435
 42
-0.414213562373095
 10
48
 20
-431
 10
48
 20
-393
 42
0.414213562373095
 10
45
 20
-390
 10
43
 20
-390
 10
43
 20
-440
 10
93
 20
-440
 10
93
 20
-438
 42
0.414213562373095
  0
LWPOLYLINE
  5
200
100
AcDbEntity
  8
dveri
  6
CONTINUOUS
 62
   16
420
8388608
370
   35
100
AcDbPolyline
 90
   11
 70
    0
 43
0
 10
48
 20
-400
 10
200
 20
-400
 10
210
 20
-410
 10
200
 20
-420
 10
210
 20
-430
 10
200
 20
-440
 10
93
 20
-440
 10
93
 20
-435
 10
53
 20
-435
 10
48
 20
-430
 10
48
 20
-400
  0
LWPOLYLINE
  5
201
100
AcDbEntity
  8
ramka
  6
ByLayer
 62
  256
370
   -1
100
AcDbPolyline
 90
    9
 70
    1
 43
0
 10
-8
 20
-435
 10
30
 20
-435
 42
0.414213562373095
 10
34
 20
-431
 10
34
 20
-393
 42
-0.414213562373095
 10
37
 20
-390
 10
39
 20
-390
 10
39
 20
-440
 10
-11
 20
-440
 10
-11
 20
-438
 42
-0.414213562373095
  0
LWPOLYLINE
  5
202
100
AcDbEntity
  8
ramka
  6
CONTINUOUS
 62
  256
370
   35
100
AcDbPolyline
 90
   11
 70
    0
 43
0
 10
34
 20
-400
 10
-41
 20
-400
 10
-31
 20
-410
 10
-41
 20
-420
 10
-31
 20
-430
 10
-41
 20
-440
 10
-11
 20
-440
 10
-11
 20
-435
 10
29
 20
-435
 10
34
 20
-430
 10
34
 20
-400
  0
DIMENSION
  5
203
100
AcDbEntity
  8
dim
  6
ByLayer
 62
  256
370
   -1
100
AcDbDimension
  2
*D17
 10
-20
 20
-430
 30
0
 11
-24.6875
 21
-395
 31
0
 70
   32
 71
    5
  3
Standard
 53
0
210
0
220
0
230
1
100
AcDbAlignedDimension
 13
-11
 23
-390
 33
0
 14
-11
 24
-400
 34
0
 50
90
100
AcDbRotatedDimension
  0
DIMENSION
  5
204
100
AcDbEntity
  8
dim
  6
ByLayer
 62
  256
370
   -1
100
AcDbDimension
  2
*D18
 10
195
 20
-400
 30
0
 11
190.3125
 21
-395
 31
0
 70
   32
 71
    5
 72
    0
  3
Standard
 53
0
210
0
220
0
230
1
100
AcDbAlignedDimension
 13
183
 23
-390
 33
0
 14
183
 24
-400
 34
0
 50
90
100
AcDbRotatedDimension
  0
DIMENSION
  5
205
100
AcDbEntity
  8
dim
  6
ByLayer
 62
  256
370
   -1
100
AcDbDimension
  2
*D19
 10
34
 20
-500
 30
0
 11
11.5
 21
-495.3125
 31
0
 70
   32
 71
    5
 72
    0
  3
Standard
 53
0
210
0
220
0
230
1
100
AcDbAlignedDimension
 13
-11
 23
-510
 33
0
 14
34
 24
-510
 34
0
100
AcDbRotatedDimension
  0
DIMENSION
  5
206
100
AcDbEntity
  8
dim
  6
ByLayer
 62
  256
370
   -1
100
AcDbDimension
  2
*D20
 10
183
 20
-500
 30
0
 11
115.5
 21
-495.3125
 31
0
 70
   32
 71
    5
 72
    0
  3
Standard
 53
0
210
0
220
0
230
1
100
AcDbAlignedDimension
 13
48
 23
-510
 33
0
 14
183
 24
-510
 34
0
100
AcDbRotatedDimension
  0
DIMENSION
  5
207
100
AcDbEntity
  8
dim
  6
ByLayer
 62
  256
370
   -1
100
AcDbDimension
  2
*D21
 10
148
 20
-519
 30
0
 11
113
 21
-514.3125
 31
0
 70
   32
 71
    5
 72
    0
  3
Standard
 53
0
210
0
220
0
230
1
100
AcDbAlignedDimension
 13
78
 23
-520
 33
0
 14
148
 24
-520
 34
0
100
AcDbRotatedDimension
  0
DIMENSION
  5
208
100
AcDbEntity
  8
dim
  6
ByLayer
 62
  256
370
   -1
100
AcDbDimension
  2
*D22
 10
85
 20
-308
 30
0
 11
134
 21
-303.3125
 31
0
 70
   32
 71
    5
  3
Standard
 53
0
210
0
220
0
230
1
100
AcDbAlignedDimension
 13
183
 23
-380
 33
0
 14
85
 24
-312.9999999999998
 34
0
100
AcDbRotatedDimension
  0
LWPOLYLINE
  5
209
100
AcDbEntity
  8
ramka
  6
CONTINUOUS
 62
  176
420
  128
370
   35
100
AcDbPolyline
 90
    5
 70
    0
 43
0
 10
29
 20
-400
 10
34
 20
-395
 10
34
 20
-390
 10
-11
 20
-390
 10
-11
 20
-400
  0
LWPOLYLINE
  5
20A
100
AcDbEntity
  8
dveri
  6
CONTINUOUS
 62
   16
420
8388608
370
   35
100
AcDbPolyline
 90
    5
 70
    0
 43
0
 10
53
 20
-400
 10
48
 20
-395
 10
48
 20
-390
 10
183
 20
-390
 10
183
 20
-400
  0
LWPOLYLINE
  5
20B
100
AcDbEntity
  8
zasuv
  6
ByLayer
 62
  256
370
   -1
100
AcDbPolyline
 90
    4
 70
    1
 43
0
 10
243.9999994827055
 20
-520
 10
283.9999994827056
 20
-520
 10
283.9999994827056
 20
-522
 10
243.9999994827055
 20
-522
  0
LWPOLYLINE
  5
20C
100
AcDbEntity
  8
zasuv
  6
ByLayer
 62
  256
370
   -1
100
AcDbPolyline
 90
    4
 70
    1
 43
0
 10
243.9999994827055
 20
-538
 10
283.9999994827056
 20
-538
 10
283.9999994827056
 20
-540
 10
243.9999994827055
 20
-540
  0
LWPOLYLINE
  5
20D
100
AcDbEntity
  8
dveri
  6
ByLayer
 62
  256
370
   -1
100
AcDbPolyline
 90
    9
 70
    1
 43
0
 10
340
 20
-585
 10
302
 20
-585
 42
-0.414213562373095
 10
298
 20
-581
 10
298
 20
-543
 42
0.414213562373095
 10
295
 20
-540
 10
293
 20
-540
 10
293
 20
-590
 10
343
 20
-590
 10
343
 20
-588
 42
0.414213562373095
  0
LWPOLYLINE
  5
20E
100
AcDbEntity
  8
dveri
  6
CONTINUOUS
 62
   16
420
8388608
370
   35
100
AcDbPolyline
 90
   11
 70
    0
 43
0
 10
298
 20
-550
 10
450
 20
-550
 10
460
 20
-560
 10
450
 20
-570
 10
460
 20
-580
 10
450
 20
-590
 10
343
 20
-590
 10
343
 20
-585
 10
303
 20
-585
 10
298
 20
-580
 10
298
 20
-550
  0
LWPOLYLINE
  5
20F
100
AcDbEntity
  8
ramka
  6
ByLayer
 62
  256
370
   -1
100
AcDbPolyline
 90
    9
 70
    1
 43
0
 10
242
 20
-585
 10
280
 20
-585
 42
0.414213562373095
 10
284
 20
-581
 10
284
 20
-543
 42
-0.414213562373095
 10
287
 20
-540
 10
289
 20
-540
 10
289
 20
-590
 10
239
 20
-590
 10
239
 20
-588
 42
-0.414213562373095
  0
LWPOLYLINE
  5
210
100
AcDbEntity
  8
ramka
  6
CONTINUOUS
 62
  256
370
   35
100
AcDbPolyline
 90
   11
 70
    0
 43
0
 10
284
 20
-550
 10
209
 20
-550
 10
219
 20
-560
 10
209
 20
-570
 10
219
 20
-580
 10
209
 20
-590
 10
239
 20
-590
 10
239
 20
-585
 10
279
 20
-585
 10
284
 20
-580
 10
284
 20
-550
  0
LWPOLYLINE
  5
211
100
AcDbEntity
  8
ramka
  6
CONTINUOUS
 62
  176
420
  128
370
   35
100
AcDbPolyline
 90
    5
 70
    0
 43
0
 10
279
 20
-550
 10
284
 20
-545
 10
284
 20
-540
 10
239
 20
-540
 10
239
 20
-550
  0
LWPOLYLINE
  5
212
100
AcDbEntity
  8
dveri
  6
CONTINUOUS
 62
   16
420
8388608
370
   35
100
AcDbPolyline
 90
    5
 70
    0
 43
0
 10
303
 20
-550
 10
298
 20
-545
 10
298
 20
-540
 10
433
 20
-540
 10
433
 20
-550
  0
LINE
  5
213
100
AcDbEntity
  8
zasuv
  6
ByLayer
 62
  256
370
   -1
100
AcDbLine
 10
243.9999994827055
 20
-522
 11
243.9999994827055
 21
-538
  0
LINE
  5
214
100
AcDbEntity
  8
zasuv
  6
ByLayer
 62
  256
370
   -1
100
AcDbLine
 10
300
 20
-523
 11
300
 21
-537
  0
LWPOLYLINE
  5
215
100
AcDbEntity
  8
zasuv
  6
ByLayer
 62
  256
370
   -1
100
AcDbPolyline
 90
    5
 70
    0
 43
0
 10
343
 20
-523
 10
300
 20
-523
 10
293
 20
-530
 10
300
 20
-537
 10
343
 20
-537
  0
LINE
  5
216
100
AcDbEntity
  8
zasuv
  6
DASHED2
 62
  256
370
   -1
100
AcDbLine
 10
298
 20
-525
 11
298
 21
-535
  0
LINE
  5
217
100
AcDbEntity
  8
zasuv
  6
ByLayer
 62
  256
370
   -1
100
AcDbLine
 10
298
 20
-522
 11
298
 21
-525
  0
LINE
  5
218
100
AcDbEntity
  8
zasuv
  6
ByLayer
 62
  256
370
   -1
100
AcDbLine
 10
298
 20
-535
 11
298
 21
-538
  0
LINE
  5
219
100
AcDbEntity
  8
zasuv
  6
ByLayer
 62
  256
370
   -1
100
AcDbLine
 10
283.9999994827056
 20
-522
 11
283.9999994827056
 21
-538
  0
LWPOLYLINE
  5
21A
100
AcDbEntity
  8
zasuv
  6
CONTINUOUS
 62
    7
370
   35
100
AcDbPolyline
 90
    4
 70
    1
 43
0
 10
93
 20
-370
 10
103
 20
-370
 10
103
 20
-420
 10
93
 20
-420
  0
DIMENSION
  5
21B
100
AcDbEntity
  8
dim
  6
ByLayer
 62
  256
370
   -1
100
AcDbDimension
  2
*D23
 10
93
 20
-430
 30
0
 11
70.5
 21
-425.3125
 31
0
 70
   32
 71
    5
  3
Standard
 53
0
210
0
220
0
230
1
100
AcDbAlignedDimension
 13
48
 23
-400
 33
0
 14
93
 24
-420
 34
0
100
AcDbRotatedDimension
  0
LWPOLYLINE
  5
21C
100
AcDbEntity
  8
zasuv
  6
CONTINUOUS
 62
    7
370
   35
100
AcDbPolyline
 90
    4
 70
    1
 43
0
 10
343
 20
-520
 10
353
 20
-520
 10
353
 20
-570
 10
343
 20
-570
  0
LINE
  5
21D
100
AcDbEntity
  8
axe
  6
DASHDOT2
 62
  256
370
   -1
100
AcDbLine
 10
291
 20
-510
 11
291
 21
-600
  0
LINE
  5
21E
100
AcDbEntity
  8
axe
  6
DASHDOT2
 62
  256
370
   -1
100
AcDbLine
 10
41
 20
-360
 11
41
 21
-580
  0
DIMENSION
  5
21F
100
AcDbEntity
  8
dim
  6
ByLayer
 62
  256
370
   -1
100
AcDbDimension
  2
*D24
 10
183
 20
-330
 30
0
 11
66
 21
-325
 31
0
 70
   32
 71
    5
  3
Standard
 53
0
210
0
220
0
230
1
100
AcDbAlignedDimension
 13
-13.00000051729446
 23
-380
 33
0
 14
183
 24
-380
 34
0
100
AcDbRotatedDimension
  0
DIMENSION
  5
220
100
AcDbEntity
  8
dim
  6
ByLayer
 62
  256
370
   -1
100
AcDbDimension
  2
*D25
 10
39
 20
-460
 30
0
 11
41
 21
-455.3125
 31
0
 70
   32
 71
    5
  3
Standard
 53
0
210
0
220
0
230
1
100
AcDbAlignedDimension
 13
39
 23
-430
 33
0
 14
43
 24
-430.0000002149721
 34
0
100
AcDbRotatedDimension
  0
DIMENSION
  5
221
100
AcDbEntity
  8
dim
  6
ByLayer
 62
  256
370
   -1
100
AcDbDimension
  2
*D26
 10
115
 20
-390
 30
0
 11
110.3125
 21
-405
 31
0
 70
   32
 71
    5
  3
Standard
 53
0
210
0
220
0
230
1
100
AcDbAlignedDimension
 13
103
 23
-420
 33
0
 14
103
 24
-390
 34
0
 50
90
100
AcDbRotatedDimension
  0
DIMENSION
  5
222
100
AcDbEntity
  8
dim
  6
ByLayer
 62
  256
370
   -1
100
AcDbDimension
  2
*D27
 10
193
 20
-522
 30
0
 11
188.3125
 21
-530
 31
0
 70
   32
  1
%%C<>
 71
    5
  3
Standard
 53
0
210
0
220
0
230
1
100
AcDbAlignedDimension
 13
183
 23
-537
 33
0
 14
183
 24
-523
 34
0
 50
90
100
AcDbRotatedDimension
  0
DIMENSION
  5
223
100
AcDbEntity
  8
dim
  6
ByLayer
 62
  256
370
   -1
100
AcDbDimension
  2
*D28
 10
130
 20
-370
 30
0
 11
125.3125
 21
-395
 31
0
 70
   32
 71
    5
  3
Standard
 53
0
210
0
220
0
230
1
100
AcDbAlignedDimension
 13
103
 23
-420
 33
0
 14
103
 24
-370
 34
0
 50
90
100
AcDbRotatedDimension
  0
LWPOLYLINE
  5
224
100
AcDbEntity
  8
ramka
  6
CONTINUOUS
 62
  176
420
  128
370
   35
100
AcDbPolyline
 90
   12
 70
    1
 43
0
 10
340
 20
-400
 10
350
 20
-410
 10
340
 20
-420
 10
350
 20
-430
 10
340
 20
-440
 10
250
 20
-440
 10
260
 20
-430
 10
250
 20
-420
 10
260
 20
-410
 10
250
 20
-400
 10
260
 20
-390
 10
350
 20
-390
  0
LWPOLYLINE
  5
225
100
AcDbEntity
  8
ramka
  6
ByLayer
 62
  256
370
   -1
100
AcDbPolyline
 90
    8
 70
    1
 43
0
 10
285
 20
-440
 10
315
 20
-440
 42
0.414213562373095
 10
320
 20
-435
 10
320
 20
-405
 42
0.414213562373095
 10
315
 20
-400
 10
285
 20
-400
 42
0.414213562373095
 10
280
 20
-405
 10
280
 20
-435
 42
0.414213562373095
  0
LINE
  5
226
100
AcDbEntity
  8
ramka
  6
ByLayer
 62
  256
370
   -1
100
AcDbLine
 10
255
 20
-435
 11
280.0000000000057
 21
-435
  0
LINE
  5
227
100
AcDbEntity
  8
ramka
  6
ByLayer
 62
  256
370
   -1
100
AcDbLine
 10
320
 20
-435
 11
345.0000000000057
 21
-435
  0
LWPOLYLINE
  5
228
100
AcDbEntity
  8
ramka
  6
CONTINUOUS
 62
  176
420
  128
370
   35
100
AcDbPolyline
 90
    8
 70
    1
 43
0
 10
286
 20
-403
 10
314
 20
-403
 42
-0.414213562373095
 10
317
 20
-406
 10
317
 20
-434
 42
-0.414213562373095
 10
314
 20
-437
 10
286
 20
-437
 42
-0.414213562373095
 10
283
 20
-434
 10
283
 20
-406
 42
-0.414213562373095
  0
LWPOLYLINE
  5
229
100
AcDbEntity
  8
ramka
  6
ByLayer
 62
  256
370
   -1
100
AcDbPolyline
 90
   12
 70
    1
 43
0
 10
320
 20
-395
 42
0.414213562373095
 10
315
 20
-390
 10
285
 20
-390
 42
0.414213562373095
 10
280
 20
-395
 10
280
 20
-400
 10
283
 20
-400
 10
283
 20
-396
 42
-0.414213562373095
 10
286
 20
-393
 10
314
 20
-393
 42
-0.414213562373095
 10
317
 20
-396
 10
317
 20
-400
 10
320
 20
-400
  0
LWPOLYLINE
  5
22A
100
AcDbEntity
  8
zasuv
  6
DASHED2
 62
  256
370
   -1
100
AcDbPolyline
 90
    4
 70
    0
 43
0
 10
320
 20
-390
 10
320
 20
-420
 10
330
 20
-420
 10
330
 20
-390
  0
LINE
  5
22B
100
AcDbEntity
  8
axe
  6
DASHDOT2
 62
  256
370
   -1
100
AcDbLine
 10
300
 20
-308
 11
300
 21
-450
  0
LEADER
  5
22C
100
AcDbEntity
  8
num
  6
ByLayer
 62
  256
370
   -1
100
AcDbLeader
  3
Standard
 71
    1
 72
    0
 73
    3
 74
    0
 75
    0
 40
1
 41
10
 76
3
 76
3
 10
282
 20
-542
 30
0
 10
310
 20
-490
 30
0
 10
320
 20
-490
 30
0
  0
LEADER
  5
22D
100
AcDbEntity
  8
num
  6
ByLayer
 62
  256
370
   -1
100
AcDbLeader
  3
Standard
 71
    1
 72
    0
 73
    3
 74
    0
 75
    0
 40
1
 41
10
 76
3
 76
3
 10
430
 20
-540
 30
0
 10
450
 20
-490
 30
0
 10
460
 20
-490
 30
0
  0
MTEXT
  5
22E
100
AcDbEntity
  8
num
  6
ByLayer
 62
  256
370
   -1
100
AcDbMText
 10
313
 20
-488
 30
0
 40
10
 41
4.444444444444445
 71
    7
 72
    1
  1
2
  7
cyrillic_ii
210
0
220
0
230
1
 50
0
 73
    2
 44
1
  0
MTEXT
  5
22F
100
AcDbEntity
  8
num
  6
ByLayer
 62
  256
370
   -1
100
AcDbMText
 10
333
 20
-488
 30
0
 40
10
 41
4.444444444445065
 71
    7
 72
    1
  1
3
  7
cyrillic_ii
210
0
220
0
230
1
 50
0
 73
    2
 44
1
  0
MTEXT
  5
230
100
AcDbEntity
  8
num
  6
ByLayer
 62
  256
370
   -1
100
AcDbMText
 10
373
 20
-488
 30
0
 40
10
 41
5.555555555555555
 71
    7
 72
    1
  1
4
  7
cyrillic_ii
210
0
220
0
230
1
 50
0
 73
    2
 44
1
  0
MTEXT
  5
231
100
AcDbEntity
  8
num
  6
ByLayer
 62
  256
370
   -1
100
AcDbMText
 10
413
 20
-488
 30
0
 40
10
 41
4.444444444445065
 71
    7
 72
    1
  1
5
  7
cyrillic_ii
210
0
220
0
230
1
 50
0
 73
    2
 44
1
  0
MTEXT
  5
232
100
AcDbEntity
  8
num
  6
ByLayer
 62
  256
370
   -1
100
AcDbMText
 10
433
 20
-488
 30
0
 40
10
 41
4.444444444445065
 71
    7
 72
    1
  1
6
  7
cyrillic_ii
210
0
220
0
230
1
 50
0
 73
    2
 44
1
  0
MTEXT
  5
233
100
AcDbEntity
  8
num
  6
ByLayer
 62
  256
370
   -1
100
AcDbMText
 10
453
 20
-488
 30
0
 40
10
 41
4.444444444444445
 71
    7
 72
    1
  1
7
  7
cyrillic_ii
210
0
220
0
230
1
 50
0
 73
    2
 44
1
  0
MTEXT
  5
234
100
AcDbEntity
  8
dim
  6
ByLayer
 62
  256
370
   -1
100
AcDbMText
 10
-30
 20
-620
 30
0
 40
10
 41
528.888888888892
 71
    1
 72
    1
  3
1. i i   ii.\P2. i 1, 3, 6  i  20202.\P3.  2, 7  i  40403,    10 
  1
.\P3.  4  i  1010.\P4.  5  i  %%C14.
  7
cyrillic_ii
210
0
220
0
230
1
 50
0
 73
    2
 44
1
  0
MTEXT
  5
235
100
AcDbEntity
  8
dim
  6
ByLayer
 62
  256
370
   -1
100
AcDbMText
 10
220
 20
150
 30
0
 40
10
 41
155.8766666666667
 71
    8
 72
    1
  1
  
  7
cyrillic_ii
210
0
220
0
230
1
 50
0
 73
    2
 44
1
  0
LINE
  5
236
100
AcDbEntity
  8
dim
  6
ByLayer
 62
  256
370
   -1
100
AcDbLine
 10
141
 20
151
 11
299
 21
151
  0
LWPOLYLINE
  5
237
100
AcDbEntity
  8
dveri
  6
ByLayer
 62
  256
370
   -1
100
AcDbPolyline
 90
    4
 70
    1
 43
0
 10
100
 20
13
 10
104
 20
13
 10
104
 20
7
 10
100
 20
7
  0
LWPOLYLINE
  5
238
100
AcDbEntity
  8
dveri
  6
ByLayer
 62
  256
370
   -1
100
AcDbPolyline
 90
    8
 70
    0
 43
0
 10
100
 20
-7
 10
104
 20
-7
 10
104
 20
-27
 10
-20
 20
-27
 10
-20
 20
-23
 10
98
 20
-23
 10
100
 20
-21
 10
100
 20
-7
  0
LWPOLYLINE
  5
239
100
AcDbEntity
  8
ramka
  6
ByLayer
 62
  256
370
   -1
100
AcDbPolyline
 90
    4
 70
    1
 43
0
 10
107
 20
15
 10
109
 20
15
 10
109
 20
7
 10
107
 20
7
  0
LWPOLYLINE
  5
23A
100
AcDbEntity
  8
ramka
  6
ByLayer
 62
  256
370
   -1
100
AcDbPolyline
 90
    4
 70
    1
 43
0
 10
107
 20
-7
 10
109
 20
-7
 10
109
 20
-29
 10
107
 20
-29
  0
LINE
  5
23B
100
AcDbEntity
  8
zasuv
  6
ByLayer
 62
  256
370
   -1
100
AcDbLine
 10
98
 20
6
 11
98
 21
-6
  0
LWPOLYLINE
  5
23C
100
AcDbEntity
  8
dveri
  6
ByLayer
 62
  256
370
   -1
100
AcDbPolyline
 90
    4
 70
    1
 43
0
 10
160
 20
13
 10
156
 20
13
 10
156
 20
7
 10
160
 20
7
  0
LWPOLYLINE
  5
23D
100
AcDbEntity
  8
dveri
  6
ByLayer
 62
  256
370
   -1
100
AcDbPolyline
 90
    8
 70
    0
 43
0
 10
160
 20
-7
 10
156
 20
-7
 10
156
 20
-27
 10
280
 20
-27
 10
280
 20
-23
 10
162
 20
-23
 10
160
 20
-21
 10
160
 20
-7
  0
LWPOLYLINE
  5
23E
100
AcDbEntity
  8
ramka
  6
ByLayer
 62
  256
370
   -1
100
AcDbPolyline
 90
    4
 70
    1
 43
0
 10
153
 20
15
 10
151
 20
15
 10
151
 20
7
 10
153
 20
7
  0
LWPOLYLINE
  5
23F
100
AcDbEntity
  8
ramka
  6
ByLayer
 62
  256
370
   -1
100
AcDbPolyline
 90
    4
 70
    1
 43
0
 10
153
 20
-7
 10
151
 20
-7
 10
151
 20
-29
 10
153
 20
-29
  0
LINE
  5
240
100
AcDbEntity
  8
zasuv
  6
ByLayer
 62
  256
370
   -1
100
AcDbLine
 10
162
 20
6
 11
162
 21
-6
  0
LINE
  5
241
100
AcDbEntity
  8
axe
  6
DASHDOT2
 62
  256
370
   -1
100
AcDbLine
 10
140
 20
0
 11
310
 21
0
  0
LINE
  5
242
100
AcDbEntity
  8
axe
  6
DASHDOT2
 62
  256
370
   -1
100
AcDbLine
 10
55
 20
7
 11
55
 21
-7
  0
LINE
  5
243
100
AcDbEntity
  8
axe
  6
DASHDOT2
 62
  256
370
   -1
100
AcDbLine
 10
48
 20
7
 11
48
 21
-7
  0
LINE
  5
244
100
AcDbEntity
  8
axe
  6
DASHDOT2
 62
  256
370
   -1
100
AcDbLine
 10
22
 20
7
 11
22
 21
-7
  0
LINE
  5
245
100
AcDbEntity
  8
axe
  6
DASHDOT2
 62
  256
370
   -1
100
AcDbLine
 10
15
 20
7
 11
15
 21
-7
  0
LINE
  5
246
100
AcDbEntity
  8
trymach
  6
ByLayer
 62
  256
370
   -1
100
AcDbLine
 10
48
 20
6.499999999999943
 11
47.99999961463958
 21
6.499999999999943
  0
LWPOLYLINE
  5
247
100
AcDbEntity
  8
trymach
  6
ByLayer
 62
  256
370
   -1
100
AcDbPolyline
 90
   18
 70
    1
 43
0
 10
28.49999999999998
 20
12
 10
28.5
 20
3.292940469459129e-15
 42
-0.414213562373095
 10
22
 20
-6.500000000000001
 10
15
 20
-6.5
 42
-0.9999999999999994
 10
15
 20
6.499999999999943
 10
15.5
 20
6.5
 10
15.5
 20
12
 10
5
 20
12
 10
5
 20
-12
 10
65
 20
-12
 10
65
 20
12
 10
61.49999999999998
 20
12
 10
61.5
 20
1.332267629550188e-15
 42
-0.414213562373095
 10
55
 20
-6.500000000000001
 10
48.00000000000001
 20
-6.5
 42
-1
 10
48
 20
6.499999999999943
 10
48.5
 20
6.5
 10
48.5
 20
12
  0
CIRCLE
  5
248
100
AcDbEntity
  8
zasuv
  6
ByLayer
 62
  256
370
   -1
100
AcDbCircle
 10
15
 20
0
 40
6
  0
LWPOLYLINE
  5
249
100
AcDbEntity
  8
zasuv
  6
ByLayer
 62
  256
370
   -1
100
AcDbPolyline
 90
    6
 70
    0
 43
0
 10
98
 20
6
 10
104
 20
0
 10
98
 20
-6
 10
-36
 20
-6
 10
-36
 20
6
 10
98
 20
6
  0
DIMENSION
  5
24A
100
AcDbEntity
  8
dim
  6
ByLayer
 62
  256
370
   -1
100
AcDbDimension
  2
*D31
 10
9
 20
19
 30
0
 11
-13.5
 21
23.6875
 31
0
 70
   32
 71
    5
  3
Standard
 53
0
210
0
220
0
230
1
100
AcDbAlignedDimension
 13
-36
 23
6
 33
0
 14
9
 24
7.347880794884119e-16
 34
0
100
AcDbRotatedDimension
  0
DIMENSION
  5
24B
100
AcDbEntity
  8
dim
  6
ByLayer
 62
  256
370
   -1
100
AcDbDimension
  2
*D32
 10
104
 20
30
 30
0
 11
34
 21
34.6875
 31
0
 70
   32
 71
    5
  3
Standard
 53
0
210
0
220
0
230
1
100
AcDbAlignedDimension
 13
-36
 23
0
 33
0
 14
104
 24
0
 34
0
100
AcDbRotatedDimension
  0
LINE
  5
24C
100
AcDbEntity
  8
trymach
  6
DASHED2
 62
  256
370
   -1
100
AcDbLine
 10
7
 20
12
 11
7
 21
-12
  0
LINE
  5
24D
100
AcDbEntity
  8
trymach
  6
DASHED2
 62
  256
370
   -1
100
AcDbLine
 10
63
 20
12
 11
63
 21
-12
  0
LINE
  5
24E
100
AcDbEntity
  8
axe
  6
DASHDOT2
 62
  256
370
   -1
100
AcDbLine
 10
-45
 20
0
 11
120
 21
0
  0
LINE
  5
24F
100
AcDbEntity
  8
axe
  6
DASHDOT2
 62
  256
370
   -1
100
AcDbLine
 10
252
 20
7
 11
252
 21
-7
  0
LINE
  5
250
100
AcDbEntity
  8
axe
  6
DASHDOT2
 62
  256
370
   -1
100
AcDbLine
 10
245
 20
7
 11
245
 21
-7
  0
LINE
  5
251
100
AcDbEntity
  8
axe
  6
DASHDOT2
 62
  256
370
   -1
100
AcDbLine
 10
219
 20
7
 11
219
 21
-7
  0
LINE
  5
252
100
AcDbEntity
  8
axe
  6
DASHDOT2
 62
  256
370
   -1
100
AcDbLine
 10
212
 20
7
 11
212
 21
-7
  0
LINE
  5
253
100
AcDbEntity
  8
trymach
  6
ByLayer
 62
  256
370
   -1
100
AcDbLine
 10
245
 20
6.499999999999943
 11
244.9999996146396
 21
6.499999999999943
  0
LWPOLYLINE
  5
254
100
AcDbEntity
  8
trymach
  6
ByLayer
 62
  256
370
   -1
100
AcDbPolyline
 90
   18
 70
    1
 43
0
 10
225.5
 20
12
 10
225.5
 20
3.292940469459129e-15
 42
-0.414213562373095
 10
219
 20
-6.500000000000001
 10
212
 20
-6.5
 42
-0.9999999999999994
 10
212
 20
6.499999999999943
 10
212.5
 20
6.5
 10
212.5
 20
12
 10
202
 20
12
 10
202
 20
-12
 10
262
 20
-12
 10
262
 20
12
 10
258.5
 20
12
 10
258.5
 20
1.332267629550188e-15
 42
-0.414213562373095
 10
252
 20
-6.500000000000001
 10
245
 20
-6.5
 42
-1
 10
245
 20
6.499999999999943
 10
245.5
 20
6.5
 10
245.5
 20
12
  0
LINE
  5
255
100
AcDbEntity
  8
trymach
  6
DASHED2
 62
  256
370
   -1
100
AcDbLine
 10
204
 20
12
 11
204
 21
-12
  0
LINE
  5
256
100
AcDbEntity
  8
trymach
  6
DASHED2
 62
  256
370
   -1
100
AcDbLine
 10
260
 20
12
 11
260
 21
-12
  0
CIRCLE
  5
257
100
AcDbEntity
  8
zasuv
  6
ByLayer
 62
  256
370
   -1
100
AcDbCircle
 10
245
 20
0
 40
6
  0
LWPOLYLINE
  5
258
100
AcDbEntity
  8
zasuv
  6
ByLayer
 62
  256
370
   -1
100
AcDbPolyline
 90
    6
 70
    0
 43
0
 10
162
 20
6
 10
156
 20
0
 10
162
 20
-6
 10
296
 20
-6
 10
296
 20
6
 10
162
 20
6
  0
DIMENSION
  5
259
100
AcDbEntity
  8
dim
  6
ByLayer
 62
  256
370
   -1
100
AcDbDimension
  2
*D33
 10
206
 20
19
 30
0
 11
273.5
 21
23.6875
 31
0
 70
   32
 71
    5
  3
Standard
 53
0
210
0
220
0
230
1
100
AcDbAlignedDimension
 13
251
 23
0
 33
0
 14
296
 24
6
 34
0
100
AcDbRotatedDimension
  0
DIMENSION
  5
25A
100
AcDbEntity
  8
dim
  6
ByLayer
 62
  256
370
   -1
100
AcDbDimension
  2
*D34
 10
304
 20
30
 30
0
 11
226
 21
34.6875
 31
0
 70
   32
 71
    5
  3
Standard
 53
0
210
0
220
0
230
1
100
AcDbAlignedDimension
 13
156
 23
0
 33
0
 14
296
 24
6
 34
0
100
AcDbRotatedDimension
  0
ENDSEC
  0
SECTION
  2
OBJECTS
  0
DICTIONARY
  5
C
330
0
100
AcDbDictionary
281
    1
  3
ACAD_GROUP
350
D
  0
DICTIONARY
  5
D
330
C
100
AcDbDictionary
281
    1
  0
ENDSEC
  0
EOF
