999
dxfrw 0.6.3
  0
SECTION
  2
HEADER
  9
$ACADVER
  1
AC1021
  9
$DWGCODEPAGE
  3
ANSI_1252
  9
$INSBASE
 10
0
 20
0
 30
0
  9
$EXTMIN
 10
-2046
 20
-1200
 30
0
  9
$EXTMAX
 10
3990
 20
1325
 30
0
  9
$LIMMIN
 10
0
 20
0
  9
$LIMMAX
 10
420
 20
297
  9
$ORTHOMODE
 70
    0
  9
$REGENMODE
 70
    1
  9
$FILLMODE
 70
    1
  9
$QTEXTMODE
 70
    0
  9
$MIRRTEXT
 70
    0
  9
$LTSCALE
 40
1
  9
$ATTMODE
 70
    0
  9
$TEXTSIZE
 40
2.5
  9
$TRACEWID
 40
15.68
  9
$TEXTSTYLE
  7
STANDARD
  9
$CLAYER
  8
0
  9
$CELTYPE
  6
BYLAYER
  9
$CECOLOR
 62
  256
  9
$CELTSCALE
 40
1
  9
$DISPSILH
 70
    0
  9
$DIMSCALE
 40
10
  9
$DIMASZ
 40
2
  9
$DIMEXO
 40
1
  9
$DIMDLI
 40
3.75
  9
$DIMRND
 40
0
  9
$DIMDLE
 40
0
  9
$DIMEXE
 40
2
  9
$DIMTP
 40
0
  9
$DIMTM
 40
0
  9
$DIMTXT
 40
4
  9
$DIMCEN
 40
2.5
  9
$DIMTSZ
 40
2
  9
$DIMTOL
 70
    0
  9
$DIMLIM
 70
    0
  9
$DIMTIH
 70
    0
  9
$DIMTOH
 70
    0
  9
$DIMSE1
 70
    0
  9
$DIMSE2
 70
    0
  9
$DIMTAD
 70
    1
  9
$DIMZIN
 70
    8
  9
$DIMBLK
  1

  9
$DIMASO
 70
    1
  9
$DIMSHO
 70
    1
  9
$DIMPOST
  1

  9
$DIMAPOST
  1

  9
$DIMALT
 70
    0
  9
$DIMALTD
 70
    3
  9
$DIMALTF
 40
0.03937
  9
$DIMLFAC
 40
1
  9
$DIMTOFL
 70
    1
  9
$DIMTVP
 40
0
  9
$DIMTIX
 70
    0
  9
$DIMSOXD
 70
    0
  9
$DIMSAH
 70
    0
  9
$DIMBLK1
  1

  9
$DIMBLK2
  1

  9
$DIMSTYLE
  2
STANDARD
  9
$DIMCLRD
 70
    0
  9
$DIMCLRE
 70
    0
  9
$DIMCLRT
 70
    0
  9
$DIMTFAC
 40
1
  9
$DIMGAP
 40
2
  9
$DIMJUST
 70
    0
  9
$DIMSD1
 70
    0
  9
$DIMSD2
 70
    0
  9
$DIMTOLJ
 70
    0
  9
$DIMTZIN
 70
    8
  9
$DIMALTZ
 70
    0
  9
$DIMALTTZ
 70
    0
  9
$DIMUPT
 70
    0
  9
$DIMDEC
 70
    1
  9
$DIMTDEC
 70
    2
  9
$DIMALTU
 70
    2
  9
$DIMALTTD
 70
    3
  9
$DIMTXSTY
  7
standard
  9
$DIMAUNIT
 70
    0
  9
$DIMADEC
 70
    0
  9
$DIMALTRND
 40
0
  9
$DIMAZIN
 70
    0
  9
$DIMDSEP
 70
   44
  9
$DIMATFIT
 70
    3
  9
$DIMFRAC
 70
    0
  9
$DIMLDRBLK
  1
STANDARD
  9
$DIMLUNIT
 70
    2
  9
$DIMLWD
 70
   -2
  9
$DIMLWE
 70
   -2
  9
$DIMTMOVE
 70
    0
  9
$DIMFXL
 40
1
  9
$DIMFXLON
 70
    0
  9
$DIMJOGANG
 40
0.7854
  9
$DIMTFILL
 70
    0
  9
$DIMTFILLCLR
 70
    0
  9
$DIMARCSYM
 70
    0
  9
$DIMLTYPE
  6

  9
$DIMLTEX1
  6

  9
$DIMLTEX2
  6

  9
$LUNITS
 70
    2
  9
$LUPREC
 70
    2
  9
$SKETCHINC
 40
1
  9
$FILLETRAD
 40
0
  9
$AUNITS
 70
    0
  9
$AUPREC
 70
    2
  9
$MENU
  1
.
  9
$ELEVATION
 40
0
  9
$PELEVATION
 40
0
  9
$THICKNESS
 40
0
  9
$LIMCHECK
 70
    0
  9
$CHAMFERA
 40
0
  9
$CHAMFERB
 40
0
  9
$CHAMFERC
 40
0
  9
$CHAMFERD
 40
0
  9
$SKPOLY
 70
    0
  9
$USRTIMER
 70
    1
  9
$ANGBASE
 50
0
  9
$ANGDIR
 70
    0
  9
$PDMODE
 70
   34
  9
$PDSIZE
 40
0
  9
$PLINEWID
 40
0
  9
$SPLFRAME
 70
    0
  9
$SPLINETYPE
 70
    2
  9
$SPLINESEGS
 70
    8
  9
$HANDSEED
  5
20000
  9
$SURFTAB1
 70
    6
  9
$SURFTAB2
 70
    6
  9
$SURFTYPE
 70
    6
  9
$SURFU
 70
    6
  9
$SURFV
 70
    6
  9
$UCSBASE
  2

  9
$UCSNAME
  2

  9
$UCSORG
 10
0
 20
0
 30
0
  9
$UCSXDIR
 10
1
 20
0
 30
0
  9
$UCSYDIR
 10
0
 20
1
 30
0
  9
$UCSORTHOREF
  2

  9
$UCSORTHOVIEW
 70
    0
  9
$UCSORGTOP
 10
0
 20
0
 30
0
  9
$UCSORGBOTTOM
 10
0
 20
0
 30
0
  9
$UCSORGLEFT
 10
0
 20
0
 30
0
  9
$UCSORGRIGHT
 10
0
 20
0
 30
0
  9
$UCSORGFRONT
 10
0
 20
0
 30
0
  9
$UCSORGBACK
 10
0
 20
0
 30
0
  9
$PUCSBASE
  2

  9
$PUCSNAME
  2

  9
$PUCSORG
 10
0
 20
0
 30
0
  9
$PUCSXDIR
 10
1
 20
0
 30
0
  9
$PUCSYDIR
 10
0
 20
1
 30
0
  9
$PUCSORTHOREF
  2

  9
$PUCSORTHOVIEW
 70
    0
  9
$PUCSORGTOP
 10
0
 20
0
 30
0
  9
$PUCSORGBOTTOM
 10
0
 20
0
 30
0
  9
$PUCSORGLEFT
 10
0
 20
0
 30
0
  9
$PUCSORGRIGHT
 10
0
 20
0
 30
0
  9
$PUCSORGFRONT
 10
0
 20
0
 30
0
  9
$PUCSORGBACK
 10
0
 20
0
 30
0
  9
$USERI1
 70
    0
  9
$USERI2
 70
    0
  9
$USERI3
 70
    0
  9
$USERI4
 70
    0
  9
$USERI5
 70
    0
  9
$USERR1
 40
0
  9
$USERR2
 40
0
  9
$USERR3
 40
0
  9
$USERR4
 40
0
  9
$USERR5
 40
0
  9
$WORLDVIEW
 70
    1
  9
$SHADEDGE
 70
    3
  9
$SHADEDIF
 70
   70
  9
$TILEMODE
 70
    1
  9
$MAXACTVP
 70
   64
  9
$PINSBASE
 10
2.091991924629879
 20
4.459623149394332
 30
0
  9
$PLIMCHECK
 70
    0
  9
$PEXTMIN
 10
0
 20
0
 30
0
  9
$PEXTMAX
 10
0
 20
0
 30
0
  9
$GRIDMODE
 70
    1
  9
$SNAPSTYLE
 70
    0
  9
$GRIDUNIT
 10
0
 20
0
  9
$PLIMMIN
 10
0
 20
0
  9
$PLIMMAX
 10
29.7
 20
21
  9
$UNITMODE
 70
    0
  9
$VISRETAIN
 70
    1
  9
$PLINEGEN
 70
    0
  9
$PSLTSCALE
 70
    1
  9
$TREEDEPTH
 70
 3020
  9
$CMLSTYLE
  2
Standard
  9
$CMLJUST
 70
    0
  9
$CMLSCALE
 40
20
  9
$PROXYGRAPHICS
 70
    1
  9
$MEASUREMENT
 70
    1
  9
$CELWEIGHT
370
   -1
  9
$ENDCAPS
280
    0
  9
$JOINSTYLE
280
    0
  9
$LWDISPLAY
290
    0
  9
$INSUNITS
 70
    5
  9
$HYPERLINKBASE
  1

  9
$STYLESHEET
  1

  9
$XEDIT
290
    1
  9
$CEPSNTYPE
380
    0
  9
$PSTYLEMODE
290
    1
  9
$EXTNAMES
290
    1
  9
$PSVPSCALE
 40
0.01098250596624637
  9
$OLESTARTUP
290
    0
  9
$SORTENTS
280
  127
  9
$INDEXCTL
280
    0
  9
$HIDETEXT
280
    1
  9
$XCLIPFRAME
290
    0
  9
$HALOGAP
280
    0
  9
$OBSCOLOR
 70
  257
  9
$OBSLTYPE
280
    0
  9
$INTERSECTIONDISPLAY
280
    0
  9
$INTERSECTIONCOLOR
 70
  257
  9
$DIMASSOC
280
    1
  9
$PROJECTNAME
  1

  9
$CAMERADISPLAY
290
    0
  9
$LENSLENGTH
 40
50
  9
$CAMERAHEIGHT
 40
0
  9
$STEPSPERSEC
 40
2
  9
$STEPSIZE
 40
50
  9
$3DDWFPREC
 40
2
  9
$PSOLWIDTH
 40
5
  9
$PSOLHEIGHT
 40
80
  9
$LOFTANG1
 40
1.570796326794897
  9
$LOFTANG2
 40
1.570796326794897
  9
$LOFTMAG1
 40
0
  9
$LOFTMAG2
 40
0
  9
$LOFTPARAM
 70
    7
  9
$LOFTNORMALS
280
    1
  9
$LATITUDE
 40
1
  9
$LONGITUDE
 40
1
  9
$NORTHDIRECTION
 40
0
  9
$TIMEZONE
 70
-8000
  9
$LIGHTGLYPHDISPLAY
280
    1
  9
$TILEMODELIGHTSYNCH
280
    1
  9
$SOLIDHIST
280
    1
  9
$SHOWHIST
280
    1
  9
$DWFFRAME
280
    2
  9
$DGNFRAME
280
    0
  9
$REALWORLDSCALE
290
    1
  9
$INTERFERECOLOR
 62
    1
  9
$CSHADOW
280
    0
  9
$SHADOWPLANELOCATION
 40
0
  0
ENDSEC
  0
SECTION
  2
CLASSES
  0
ENDSEC
  0
SECTION
  2
TABLES
  0
TABLE
  2
VPORT
  5
8
330
0
100
AcDbSymbolTable
 70
    1
  0
VPORT
  5
31
330
2
100
AcDbSymbolTableRecord
100
AcDbViewportTableRecord
  2
*ACTIVE
 70
    0
 10
0
 20
0
 11
1
 21
1
 12
2232.268041240618
 22
815.051546393032
 13
0
 23
0
 14
10
 24
10
 15
10
 25
10
 16
0
 26
0
 36
1
 17
0
 27
0
 37
0
 40
3008.79725086383
 41
1.987870619946092
 42
50
 43
0
 44
0
 50
0
 51
0
 71
    0
 72
  100
 73
    1
 74
    3
 75
    0
 76
    1
 77
    0
 78
    0
281
    0
 65
    1
110
0
120
0
130
0
111
1
121
0
131
0
112
0
122
1
132
0
 79
    0
146
0
348
10020
 60
    7
 61
    5
292
1
282
    1
141
0
142
0
 63
  250
421
3358443
  0
ENDTAB
  0
TABLE
  2
LTYPE
  5
5
330
0
100
AcDbSymbolTable
 70
    4
  0
LTYPE
  5
14
330
5
100
AcDbSymbolTableRecord
100
AcDbLinetypeTableRecord
  2
ByBlock
 70
    0
  3

 72
   65
 73
    0
 40
0
  0
LTYPE
  5
15
330
5
100
AcDbSymbolTableRecord
100
AcDbLinetypeTableRecord
  2
ByLayer
 70
    0
  3

 72
   65
 73
    0
 40
0
  0
LTYPE
  5
16
330
5
100
AcDbSymbolTableRecord
100
AcDbLinetypeTableRecord
  2
Continuous
 70
    0
  3
Solid line
 72
   65
 73
    0
 40
0
  0
LTYPE
  5
32
330
5
100
AcDbSymbolTableRecord
100
AcDbLinetypeTableRecord
  2
DOT
 70
    0
  3
Dot . . . . . . . . . . . . . . . . . . . . . .
 72
   65
 73
    2
 40
6.35
 49
0
 74
    0
 49
-6.35
 74
    0
  0
LTYPE
  5
33
330
5
100
AcDbSymbolTableRecord
100
AcDbLinetypeTableRecord
  2
DOTTINY
 70
    0
  3
Dot (.15x) .....................................
 72
   65
 73
    2
 40
0.9525
 49
0
 74
    0
 49
-0.9525
 74
    0
  0
LTYPE
  5
34
330
5
100
AcDbSymbolTableRecord
100
AcDbLinetypeTableRecord
  2
DOT2
 70
    0
  3
Dot (.5x) .....................................
 72
   65
 73
    2
 40
3.175
 49
0
 74
    0
 49
-3.175
 74
    0
  0
LTYPE
  5
35
330
5
100
AcDbSymbolTableRecord
100
AcDbLinetypeTableRecord
  2
DOTX2
 70
    0
  3
Dot (2x) .  .  .  .  .  .  .  .  .  .  .  .  .
 72
   65
 73
    2
 40
12.7
 49
0
 74
    0
 49
-12.7
 74
    0
  0
LTYPE
  5
36
330
5
100
AcDbSymbolTableRecord
100
AcDbLinetypeTableRecord
  2
DASHED
 70
    0
  3
Dashed _ _ _ _ _ _ _ _ _ _ _ _ _ _ _ _ _
 72
   65
 73
    2
 40
19.05
 49
12.7
 74
    0
 49
-6.35
 74
    0
  0
LTYPE
  5
37
330
5
100
AcDbSymbolTableRecord
100
AcDbLinetypeTableRecord
  2
DASHEDTINY
 70
    0
  3
Dashed (.15x) _ _ _ _ _ _ _ _ _ _ _ _ _ _ _ _ _
 72
   65
 73
    2
 40
2.8575
 49
1.905
 74
    0
 49
-0.9525
 74
    0
  0
LTYPE
  5
38
330
5
100
AcDbSymbolTableRecord
100
AcDbLinetypeTableRecord
  2
DASHED2
 70
    0
  3
Dashed (.5x) _ _ _ _ _ _ _ _ _ _ _ _ _ _ _ _ _
 72
   65
 73
    2
 40
9.524999999999999
 49
6.35
 74
    0
 49
-3.175
 74
    0
  0
LTYPE
  5
39
330
5
100
AcDbSymbolTableRecord
100
AcDbLinetypeTableRecord
  2
DASHEDX2
 70
    0
  3
Dashed (2x) ____  ____  ____  ____  ____  ___
 72
   65
 73
    2
 40
38.09999999999999
 49
25.4
 74
    0
 49
-12.7
 74
    0
  0
LTYPE
  5
3A
330
5
100
AcDbSymbolTableRecord
100
AcDbLinetypeTableRecord
  2
DASHDOT
 70
    0
  3
Dash dot __ . __ . __ . __ . __ . __ . __ . __
 72
   65
 73
    4
 40
25.4
 49
12.7
 74
    0
 49
-6.35
 74
    0
 49
0
 74
    0
 49
-6.35
 74
    0
  0
LTYPE
  5
3B
330
5
100
AcDbSymbolTableRecord
100
AcDbLinetypeTableRecord
  2
DASHDOTTINY
 70
    0
  3
Dash dot (.15x) _._._._._._._._._._._._._._._.
 72
   65
 73
    4
 40
3.81
 49
1.905
 74
    0
 49
-0.9525
 74
    0
 49
0
 74
    0
 49
-0.9525
 74
    0
  0
LTYPE
  5
3C
330
5
100
AcDbSymbolTableRecord
100
AcDbLinetypeTableRecord
  2
DASHDOT2
 70
    0
  3
Dash dot (.5x) _._._._._._._._._._._._._._._.
 72
   65
 73
    4
 40
12.7
 49
6.35
 74
    0
 49
-3.175
 74
    0
 49
0
 74
    0
 49
-3.175
 74
    0
  0
LTYPE
  5
3D
330
5
100
AcDbSymbolTableRecord
100
AcDbLinetypeTableRecord
  2
DASHDOTX2
 70
    0
  3
Dash dot (2x) ____  .  ____  .  ____  .  ___
 72
   65
 73
    4
 40
50.8
 49
25.4
 74
    0
 49
-12.7
 74
    0
 49
0
 74
    0
 49
-12.7
 74
    0
  0
LTYPE
  5
3E
330
5
100
AcDbSymbolTableRecord
100
AcDbLinetypeTableRecord
  2
DIVIDE
 70
    0
  3
Divide ____ . . ____ . . ____ . . ____ . . ____
 72
   65
 73
    6
 40
31.75
 49
12.7
 74
    0
 49
-6.35
 74
    0
 49
0
 74
    0
 49
-6.35
 74
    0
 49
0
 74
    0
 49
-6.35
 74
    0
  0
LTYPE
  5
3F
330
5
100
AcDbSymbolTableRecord
100
AcDbLinetypeTableRecord
  2
DIVIDETINY
 70
    0
  3
Divide (.15x) __..__..__..__..__..__..__..__.._
 72
   65
 73
    6
 40
4.7625
 49
1.905
 74
    0
 49
-0.9525
 74
    0
 49
0
 74
    0
 49
-0.9525
 74
    0
 49
0
 74
    0
 49
-0.9525
 74
    0
  0
LTYPE
  5
40
330
5
100
AcDbSymbolTableRecord
100
AcDbLinetypeTableRecord
  2
DIVIDE2
 70
    0
  3
Divide (.5x) __..__..__..__..__..__..__..__.._
 72
   65
 73
    6
 40
15.875
 49
6.35
 74
    0
 49
-3.175
 74
    0
 49
0
 74
    0
 49
-3.175
 74
    0
 49
0
 74
    0
 49
-3.175
 74
    0
  0
LTYPE
  5
41
330
5
100
AcDbSymbolTableRecord
100
AcDbLinetypeTableRecord
  2
DIVIDEX2
 70
    0
  3
Divide (2x) ________  .  .  ________  .  .  _
 72
   65
 73
    6
 40
63.5
 49
25.4
 74
    0
 49
-12.7
 74
    0
 49
0
 74
    0
 49
-12.7
 74
    0
 49
0
 74
    0
 49
-12.7
 74
    0
  0
LTYPE
  5
42
330
5
100
AcDbSymbolTableRecord
100
AcDbLinetypeTableRecord
  2
BORDER
 70
    0
  3
Border __ __ . __ __ . __ __ . __ __ . __ __ .
 72
   65
 73
    6
 40
44.45
 49
12.7
 74
    0
 49
-6.35
 74
    0
 49
12.7
 74
    0
 49
-6.35
 74
    0
 49
0
 74
    0
 49
-6.35
 74
    0
  0
LTYPE
  5
43
330
5
100
AcDbSymbolTableRecord
100
AcDbLinetypeTableRecord
  2
BORDERTINY
 70
    0
  3
Border (.15x) __.__.__.__.__.__.__.__.__.__.__.
 72
   65
 73
    6
 40
6.6675
 49
1.905
 74
    0
 49
-0.9525
 74
    0
 49
1.905
 74
    0
 49
-0.9525
 74
    0
 49
0
 74
    0
 49
-0.9525
 74
    0
  0
LTYPE
  5
44
330
5
100
AcDbSymbolTableRecord
100
AcDbLinetypeTableRecord
  2
BORDER2
 70
    0
  3
Border (.5x) __.__.__.__.__.__.__.__.__.__.__.
 72
   65
 73
    6
 40
22.225
 49
6.35
 74
    0
 49
-3.175
 74
    0
 49
6.35
 74
    0
 49
-3.175
 74
    0
 49
0
 74
    0
 49
-3.175
 74
    0
  0
LTYPE
  5
45
330
5
100
AcDbSymbolTableRecord
100
AcDbLinetypeTableRecord
  2
BORDERX2
 70
    0
  3
Border (2x) ____  ____  .  ____  ____  .  ___
 72
   65
 73
    6
 40
88.89999999999999
 49
25.4
 74
    0
 49
-12.7
 74
    0
 49
25.4
 74
    0
 49
-12.7
 74
    0
 49
0
 74
    0
 49
-12.7
 74
    0
  0
LTYPE
  5
46
330
5
100
AcDbSymbolTableRecord
100
AcDbLinetypeTableRecord
  2
CENTER
 70
    0
  3
Center ____ _ ____ _ ____ _ ____ _ ____ _ ____
 72
   65
 73
    4
 40
50.8
 49
31.75
 74
    0
 49
-6.35
 74
    0
 49
6.35
 74
    0
 49
-6.35
 74
    0
  0
LTYPE
  5
47
330
5
100
AcDbSymbolTableRecord
100
AcDbLinetypeTableRecord
  2
CENTERTINY
 70
    0
  3
Center (.15x) ___ _ ___ _ ___ _ ___ _ ___ _ ___
 72
   65
 73
    4
 40
7.619999999999999
 49
4.7625
 74
    0
 49
-0.9525
 74
    0
 49
0.9525
 74
    0
 49
-0.9525
 74
    0
  0
LTYPE
  5
48
330
5
100
AcDbSymbolTableRecord
100
AcDbLinetypeTableRecord
  2
CENTER2
 70
    0
  3
Center (.5x) ___ _ ___ _ ___ _ ___ _ ___ _ ___
 72
   65
 73
    4
 40
28.575
 49
19.05
 74
    0
 49
-3.175
 74
    0
 49
3.175
 74
    0
 49
-3.175
 74
    0
  0
LTYPE
  5
49
330
5
100
AcDbSymbolTableRecord
100
AcDbLinetypeTableRecord
  2
CENTERX2
 70
    0
  3
Center (2x) ________  __  ________  __  _____
 72
   65
 73
    4
 40
101.6
 49
63.5
 74
    0
 49
-12.7
 74
    0
 49
12.7
 74
    0
 49
-12.7
 74
    0
  0
ENDTAB
  0
TABLE
  2
LAYER
  5
2
330
0
100
AcDbSymbolTable
 70
    1
  0
LAYER
  5
10
330
2
100
AcDbSymbolTableRecord
100
AcDbLayerTableRecord
  2
0
 70
    0
 62
    7
  6
CONTINUOUS
370
   -3
390
F
1001
LibreCad
1070
    1
  0
LAYER
  5
4A
330
2
100
AcDbSymbolTableRecord
100
AcDbLayerTableRecord
  2
projomy
 70
    0
 62
    1
  6
CONTINUOUS
370
   -3
390
F
  0
LAYER
  5
4B
330
2
100
AcDbSymbolTableRecord
100
AcDbLayerTableRecord
  2
balky
 70
    0
 62
  216
420
8388736
  6
CONTINUOUS
370
   50
390
F
  0
LAYER
  5
4C
330
2
100
AcDbSymbolTableRecord
100
AcDbLayerTableRecord
  2
brick
 70
    0
 62
   16
420
8388608
  6
CONTINUOUS
370
   50
390
F
  0
LAYER
  5
4D
330
2
100
AcDbSymbolTableRecord
100
AcDbLayerTableRecord
  2
cegla
 70
    0
 62
    2
  6
CONTINUOUS
370
   50
390
F
  0
LAYER
  5
4E
330
2
100
AcDbSymbolTableRecord
100
AcDbLayerTableRecord
  2
concrete
 70
    0
 62
  216
420
8388736
  6
CONTINUOUS
370
   50
390
F
  0
LAYER
  5
4F
330
2
100
AcDbSymbolTableRecord
100
AcDbLayerTableRecord
  2
decor
 70
    0
 62
   36
420
8406016
  6
CONTINUOUS
370
   50
390
F
  0
LAYER
  5
50
330
2
100
AcDbSymbolTableRecord
100
AcDbLayerTableRecord
  2
dimensions
 70
    0
 62
    4
  6
CONTINUOUS
370
   13
390
F
  0
LAYER
  5
51
330
2
100
AcDbSymbolTableRecord
100
AcDbLayerTableRecord
  2
epps
 70
    0
 62
   56
420
8421376
  6
CONTINUOUS
370
   50
390
F
  0
LAYER
  5
52
330
2
100
AcDbSymbolTableRecord
100
AcDbLayerTableRecord
  2
face
 70
    0
 62
    3
  6
CONTINUOUS
370
   50
390
F
  0
LAYER
  5
53
330
2
100
AcDbSymbolTableRecord
100
AcDbLayerTableRecord
  2
fundament
 70
    1
 62
  136
420
32896
  6
CONTINUOUS
370
   50
390
F
  0
LAYER
  5
54
330
2
100
AcDbSymbolTableRecord
100
AcDbLayerTableRecord
  2
gazoblok
 70
    0
 62
   56
420
8421376
  6
CONTINUOUS
370
   50
390
F
  0
LAYER
  5
55
330
2
100
AcDbSymbolTableRecord
100
AcDbLayerTableRecord
  2
kontur
 70
    0
 62
  216
420
8388736
  6
CONTINUOUS
370
   50
390
F
  0
LAYER
  5
56
330
2
100
AcDbSymbolTableRecord
100
AcDbLayerTableRecord
  2
metal
 70
    0
 62
    5
  6
CONTINUOUS
370
   25
390
F
  0
LAYER
  5
57
330
2
100
AcDbSymbolTableRecord
100
AcDbLayerTableRecord
  2
muerlat
 70
    0
 62
    3
  6
CONTINUOUS
370
   50
390
F
  0
LAYER
  5
58
330
2
100
AcDbSymbolTableRecord
100
AcDbLayerTableRecord
  2
plyty
 70
    1
 62
    8
  6
CONTINUOUS
370
   50
390
F
  0
LAYER
  5
59
330
2
100
AcDbSymbolTableRecord
100
AcDbLayerTableRecord
  2
styny
 70
    0
 62
   41
420
16376252
  6
CONTINUOUS
370
   50
390
F
  0
LAYER
  5
5A
330
2
100
AcDbSymbolTableRecord
100
AcDbLayerTableRecord
  2
u-block
 70
    0
 62
    6
  6
CONTINUOUS
370
   50
390
F
  0
LAYER
  5
5B
330
2
100
AcDbSymbolTableRecord
100
AcDbLayerTableRecord
  2
vikna_dveri
 70
    0
 62
   36
420
8406016
  6
CONTINUOUS
370
   50
390
F
  0
ENDTAB
  0
TABLE
  2
STYLE
  5
3
330
0
100
AcDbSymbolTable
 70
    3
  0
STYLE
  5
5C
330
2
100
AcDbSymbolTableRecord
100
AcDbTextStyleTableRecord
  2
cyrillic_ii
 70
    0
 40
0
 41
1
 50
0
 71
    0
 42
1
  3
cyrillic_ii
  4

  0
STYLE
  5
5D
330
2
100
AcDbSymbolTableRecord
100
AcDbTextStyleTableRecord
  2
Standard
 70
    0
 40
0
 41
1
 50
0
 71
    0
 42
1
  3
txt
  4

  0
ENDTAB
  0
TABLE
  2
VIEW
  5
6
330
0
100
AcDbSymbolTable
 70
    0
  0
ENDTAB
  0
TABLE
  2
UCS
  5
7
330
0
100
AcDbSymbolTable
 70
    0
  0
ENDTAB
  0
TABLE
  2
APPID
  5
9
330
0
100
AcDbSymbolTable
 70
    1
  0
APPID
  5
12
330
9
100
AcDbSymbolTableRecord
100
AcDbRegAppTableRecord
  2
ACAD
 70
    0
  0
APPID
  5
5E
330
9
100
AcDbSymbolTableRecord
100
AcDbRegAppTableRecord
  2
LibreCad
 70
    0
  0
ENDTAB
  0
TABLE
  2
DIMSTYLE
  5
A
330
0
100
AcDbSymbolTable
 70
    1
100
AcDbDimStyleTable
 71
    1
  0
DIMSTYLE
105
5F
330
A
100
AcDbSymbolTableRecord
100
AcDbDimStyleTableRecord
  2
Standard
 70
    0
 40
10
 41
2
 42
1
 43
0.38
 44
2
 45
0
 46
0
 47
0
 48
0
 49
1
140
4
141
0.09
142
2
143
25.4
144
1
145
0
146
1
147
2
148
0
 71
    0
 72
    0
 73
    0
 74
    1
 75
    0
 76
    0
 77
    0
 78
    8
 79
    0
170
    0
171
    2
172
    0
173
    0
174
    0
175
    0
176
    0
177
    0
178
    0
179
    0
271
    1
272
    4
273
    2
274
    2
275
    0
276
    0
277
    2
278
   44
279
    0
280
    0
281
    0
282
    0
283
    1
284
    0
285
    0
286
    0
288
    0
289
    3
340
standard
341

371
   -2
372
   -2
  0
ENDTAB
  0
TABLE
  2
BLOCK_RECORD
  5
1
330
0
100
AcDbSymbolTable
 70
    2
  0
BLOCK_RECORD
  5
1F
330
1
100
AcDbSymbolTableRecord
100
AcDbBlockTableRecord
  2
*Model_Space
 70
    0
280
    1
281
    0
  0
BLOCK_RECORD
  5
1E
330
1
100
AcDbSymbolTableRecord
100
AcDbBlockTableRecord
  2
*Paper_Space
 70
    0
280
    1
281
    0
  0
BLOCK_RECORD
  5
60
330
1
100
AcDbSymbolTableRecord
100
AcDbBlockTableRecord
  2
block10
 70
    0
280
    1
281
    0
  0
ENDTAB
  0
ENDSEC
  0
SECTION
  2
BLOCKS
  0
BLOCK
  5
20
330
1F
100
AcDbEntity
  8
0
100
AcDbBlockBegin
  2
*Model_Space
 70
    0
 10
0
 20
0
 30
0
  3
*Model_Space
  1

  0
ENDBLK
  5
21
330
1F
100
AcDbEntity
  8
0
100
AcDbBlockEnd
  0
BLOCK
  5
1C
330
1B
100
AcDbEntity
  8
0
100
AcDbBlockBegin
  2
*Paper_Space
 70
    0
 10
0
 20
0
 30
0
  3
*Paper_Space
  1

  0
ENDBLK
  5
1D
330
1F
100
AcDbEntity
  8
0
100
AcDbBlockEnd
  0
BLOCK
  5
61
330
60
100
AcDbEntity
  8
0
100
AcDbBlockBegin
  2
block10
 70
    0
 10
0
 20
0
  3
block10
  1

  0
LWPOLYLINE
  5
63
100
AcDbEntity
  8
0
  6
CONTINUOUS
 62
    7
370
   70
100
AcDbPolyline
 90
   12
 70
    1
 43
0
 10
-0.6062178
 20
1
 10
0
 20
0
 10
0.6062178
 20
1
 10
1.8186533
 20
1
 10
1.2124356
 20
2
 10
1.8186533
 20
3
 10
0.6062178
 20
3
 10
0
 20
4
 10
-0.6062178
 20
3
 10
-1.8186533
 20
3
 10
-1.2124356
 20
2
 10
-1.8186533
 20
1
  0
ENDBLK
  5
62
330
60
100
AcDbEntity
  8
0
100
AcDbBlockEnd
  0
ENDSEC
  0
SECTION
  2
ENTITIES
  0
HATCH
  5
64
100
AcDbEntity
  8
face
  6
ByLayer
 62
  256
370
   -1
100
AcDbHatch
 10
0
 20
0
 30
0
210
0
220
0
230
1
  2
gost_stone
 70
    0
 71
    0
 91
    1
 92
    0
 93
   12
 72
    1
 10
1312
 20
12
 11
1312
 21
1040
 72
    1
 10
1312
 20
1040
 11
2288
 21
1040
 72
    1
 10
2288
 20
1040
 11
2288
 21
246
 72
    1
 10
1858
 20
234
 11
1858
 21
8.881784197001252e-16
 72
    1
 10
1858
 20
8.881784197001252e-16
 11
1300
 21
8.881784197001252e-16
 72
    1
 10
1300
 20
8.881784197001252e-16
 11
1300
 21
1052
 72
    1
 10
1300
 20
1052
 11
2300
 21
1052
 72
    1
 10
2300
 20
1052
 11
2300
 21
234
 72
    1
 10
2300
 20
234
 11
1858
 21
234
 72
    1
 10
2288
 20
246
 11
1846
 21
246
 72
    1
 10
1846
 20
246
 11
1846
 21
12
 72
    1
 10
1846
 20
12
 11
1312
 21
12
 97
    0
 75
    0
 76
    1
 52
1.570796326794897
 41
2
 77
    0
 78
    0
 98
    0
  0
HATCH
  5
65
100
AcDbEntity
  8
face
  6
ByLayer
 62
  256
370
   -1
100
AcDbHatch
 10
0
 20
0
 30
0
210
0
220
0
230
1
  2
gost_stone
 70
    0
 71
    0
 91
    1
 92
    0
 93
    8
 72
    1
 10
2027
 20
12
 11
2054
 21
12
 72
    1
 10
2054
 20
12
 11
2054
 21
51
 72
    1
 10
2054
 20
51
 11
2027
 21
51
 72
    1
 10
2027
 20
51
 11
2027
 21
12
 72
    1
 10
2066
 20
63
 11
2015
 21
63
 72
    1
 10
2015
 20
63
 11
2015
 21
8.881784197001252e-16
 72
    1
 10
2015
 20
8.881784197001252e-16
 11
2066
 21
8.881784197001252e-16
 72
    1
 10
2066
 20
8.881784197001252e-16
 11
2066
 21
63
 97
    0
 75
    0
 76
    1
 52
1.570796326794897
 41
2
 77
    0
 78
    0
 98
    0
  0
HATCH
  5
66
100
AcDbEntity
  8
face
  6
ByLayer
 62
  256
370
   -1
100
AcDbHatch
 10
0
 20
0
 30
0
210
0
220
0
230
1
  2
gost_stone
 70
    0
 71
    0
 91
    1
 92
    0
 93
    8
 72
    1
 10
2700
 20
8.881784197001252e-16
 11
2700
 21
1052
 72
    1
 10
2700
 20
1052
 11
3700.000000000001
 21
1052
 72
    1
 10
3700.000000000001
 20
1052
 11
3700
 21
8.881784197001252e-16
 72
    1
 10
2712
 20
1040
 11
3688
 21
1040
 72
    1
 10
3688
 20
1040
 11
3688
 21
12
 72
    1
 10
3688
 20
12
 11
2712
 21
12
 72
    1
 10
2712
 20
12
 11
2712
 21
1040
 72
    1
 10
3700
 20
8.881784197001252e-16
 11
2700
 21
8.881784197001252e-16
 97
    0
 75
    0
 76
    1
 52
1.570796326794897
 41
2
 77
    0
 78
    0
 98
    0
  0
HATCH
  5
67
100
AcDbEntity
  8
decor
  6
ByLayer
 62
  256
370
   -1
100
AcDbHatch
 10
0
 20
0
 30
0
210
0
220
0
230
1
  2
ar-b816
 70
    0
 71
    0
 91
    1
 92
    0
 93
    4
 72
    1
 10
1050
 20
-1000
 11
1050
 21
-960
 72
    1
 10
1050
 20
-960
 11
0
 21
-960
 72
    1
 10
0
 20
-960
 11
0
 21
-1000
 72
    1
 10
0
 20
-1000
 11
1050
 21
-1000
 97
    0
 75
    0
 76
    1
 52
0
 41
0.2
 77
    0
 78
    0
 98
    0
  0
HATCH
  5
68
100
AcDbEntity
  8
face
  6
ByLayer
 62
  256
370
   -1
100
AcDbHatch
 10
0
 20
0
 30
0
210
0
220
0
230
1
  2
gost_stone
 70
    0
 71
    0
 91
    1
 92
    0
 93
   13
 72
    1
 10
2223
 20
8.881784197001252e-16
 11
2223
 21
63
 72
    1
 10
2288
 20
12
 11
2235
 21
12
 72
    1
 10
2235
 20
12
 11
2235
 21
51
 72
    1
 10
2235
 20
51
 11
2249
 21
51
 72
    1
 10
2249
 20
51
 11
2249
 21
65
 72
    1
 10
2249
 20
65
 11
2288
 21
65
 72
    1
 10
2288
 20
65
 11
2288
 21
12
 72
    1
 10
2223
 20
63
 11
2237
 21
63
 72
    1
 10
2237
 20
63
 11
2237
 21
77
 72
    1
 10
2237
 20
77
 11
2237
 21
77
 72
    1
 10
2237
 20
77
 11
2300
 21
77
 72
    1
 10
2300
 20
77
 11
2300
 21
8.881784197001252e-16
 72
    1
 10
2300
 20
8.881784197001252e-16
 11
2223
 21
8.881784197001252e-16
 97
    0
 75
    0
 76
    1
 52
1.570796326794897
 41
2
 77
    0
 78
    0
 98
    0
  0
HATCH
  5
69
100
AcDbEntity
  8
decor
  6
ByLayer
 62
  256
370
   -1
100
AcDbHatch
 10
0
 20
0
 30
0
210
0
220
0
230
1
  2
ar-b816
 70
    0
 71
    0
 91
    1
 92
    0
 93
    4
 72
    1
 10
-500
 20
-960
 11
-1500
 21
-960
 72
    1
 10
-1500
 20
-960
 11
-1500
 21
-1000
 72
    1
 10
-1500
 20
-1000
 11
-500
 21
-1000
 72
    1
 10
-500
 20
-1000
 11
-500
 21
-960
 97
    0
 75
    0
 76
    1
 52
0
 41
0.2
 77
    0
 78
    0
 98
    0
  0
HATCH
  5
6A
100
AcDbEntity
  8
decor
  6
ByLayer
 62
  256
370
   -1
100
AcDbHatch
 10
0
 20
0
 30
0
210
0
220
0
230
1
  2
ar-b816
 70
    0
 71
    0
 91
    1
 92
    0
 93
    4
 72
    1
 10
0
 20
40
 11
0
 21
0
 72
    1
 10
0
 20
0
 11
1050
 21
0
 72
    1
 10
1050
 20
0
 11
1050
 21
40
 72
    1
 10
1050
 20
40
 11
0
 21
40
 97
    0
 75
    0
 76
    1
 52
0
 41
0.2
 77
    0
 78
    0
 98
    0
  0
HATCH
  5
6B
100
AcDbEntity
  8
decor
  6
ByLayer
 62
  256
370
   -1
100
AcDbHatch
 10
0
 20
0
 30
0
210
0
220
0
230
1
  2
ar-b816
 70
    0
 71
    0
 91
    1
 92
    0
 93
    4
 72
    1
 10
-1500
 20
0
 11
-500
 21
0
 72
    1
 10
-500
 20
0
 11
-500
 21
40
 72
    1
 10
-500
 20
40
 11
-1500
 21
40
 72
    1
 10
-1500
 20
40
 11
-1500
 21
0
 97
    0
 75
    0
 76
    1
 52
0
 41
0.2
 77
    0
 78
    0
 98
    0
  0
HATCH
  5
6C
100
AcDbEntity
  8
fundament
  6
ByLayer
 62
  256
370
   -1
100
AcDbHatch
 10
0
 20
0
 30
0
210
0
220
0
230
1
  2
gost_concrete
 70
    0
 71
    0
 91
    1
 92
    0
 93
    8
 72
    1
 10
-2000
 20
40
 11
-2200
 21
40
 72
    1
 10
-2200
 20
40
 11
-2200
 21
0
 72
    1
 10
-2200
 20
0
 11
-2112
 21
0
 72
    1
 10
-2112
 20
0
 11
-2107
 21
-10
 72
    1
 10
-2107
 20
-10
 11
-2097
 21
10
 72
    1
 10
-2097
 20
10
 11
-2092
 21
0
 72
    1
 10
-2092
 20
0
 11
-2000
 21
0
 72
    1
 10
-2000
 20
0
 11
-2000
 21
40
 97
    0
 75
    0
 76
    1
 52
0
 41
1
 77
    0
 78
    0
 98
    0
  0
HATCH
  5
6D
100
AcDbEntity
  8
fundament
  6
ByLayer
 62
  256
370
   -1
100
AcDbHatch
 10
0
 20
0
 30
0
210
0
220
0
230
1
  2
gost_concrete
 70
    0
 71
    0
 91
    1
 92
    0
 93
    8
 72
    1
 10
-2000
 20
40
 11
-2200
 21
40
 72
    1
 10
-2200
 20
40
 11
-2200
 21
0
 72
    1
 10
-2200
 20
0
 11
-2112
 21
0
 72
    1
 10
-2112
 20
0
 11
-2107
 21
-10
 72
    1
 10
-2107
 20
-10
 11
-2097
 21
10
 72
    1
 10
-2097
 20
10
 11
-2092
 21
0
 72
    1
 10
-2092
 20
0
 11
-2000
 21
0
 72
    1
 10
-2000
 20
0
 11
-2000
 21
40
 97
    0
 75
    0
 76
    1
 52
0
 41
1
 77
    0
 78
    0
 98
    0
  0
HATCH
  5
6E
100
AcDbEntity
  8
styny
  6
ByLayer
 62
  256
370
   -1
100
AcDbHatch
 10
0
 20
0
 30
0
210
0
220
0
230
1
  2
gost_stone
 70
    0
 71
    0
 91
    1
 92
    0
 93
    4
 72
    1
 10
-2012
 20
39.99999999999989
 11
-2011.999999999999
 21
669.9999999999999
 72
    1
 10
-2011.999999999999
 20
669.9999999999999
 11
-1999.999999999999
 21
670.0000000000441
 72
    1
 10
-1999.999999999999
 20
670.0000000000441
 11
-2000
 21
40
 72
    1
 10
-2000
 20
40
 11
-2012
 21
39.99999999999989
 97
    0
 75
    0
 76
    1
 52
1.570796326794897
 41
1
 77
    0
 78
    0
 98
    0
  0
HATCH
  5
6F
100
AcDbEntity
  8
gazoblok
  6
ByLayer
 62
  256
370
   -1
100
AcDbHatch
 10
0
 20
0
 30
0
210
0
220
0
230
1
  2
gost_stone
 70
    0
 71
    0
 91
    1
 92
    0
 93
    4
 72
    1
 10
-2016
 20
324
 11
-2016
 21
39.99999999999989
 72
    1
 10
-2016
 20
39.99999999999989
 11
-2046
 21
39.99999999999989
 72
    1
 10
-2046
 20
39.99999999999989
 11
-2046
 21
324
 72
    1
 10
-2046
 20
324
 11
-2016
 21
324
 97
    0
 75
    0
 76
    1
 52
0
 41
2
 77
    0
 78
    0
 98
    0
  0
HATCH
  5
70
100
AcDbEntity
  8
metal
  6
ByLayer
 62
  256
370
   -1
100
AcDbHatch
 10
0
 20
0
 30
0
210
0
220
0
230
1
  2
SOLID
 70
    1
 71
    0
 91
    1
 92
    0
 93
    1
 72
    2
 10
-2023.5
 20
655.4
 40
0.4000000000000021
 50
0
 51
360
 73
    1
 97
    0
 75
    0
 76
    1
 98
    0
  0
HATCH
  5
71
100
AcDbEntity
  8
metal
  6
ByLayer
 62
  256
370
   -1
100
AcDbHatch
 10
0
 20
0
 30
0
210
0
220
0
230
1
  2
SOLID
 70
    1
 71
    0
 91
    1
 92
    0
 93
    1
 72
    2
 10
-2023.5
 20
669.5999999999999
 40
0.4000000000000021
 50
0
 51
360
 73
    1
 97
    0
 75
    0
 76
    1
 98
    0
  0
HATCH
  5
72
100
AcDbEntity
  8
epps
  6
ByLayer
 62
  256
370
   -1
100
AcDbHatch
 10
0
 20
0
 30
0
210
0
220
0
230
1
  2
gost_non-metal
 70
    0
 71
    0
 91
    1
 92
    0
 93
    4
 72
    1
 10
-2017
 20
367
 11
-2017
 21
343.9999999999999
 72
    1
 10
-2017
 20
343.9999999999999
 11
-2012
 21
343.9999999999999
 72
    1
 10
-2012
 20
343.9999999999999
 11
-2012
 21
366.9999999999999
 72
    1
 10
-2012
 20
366.9999999999999
 11
-2017
 21
367
 97
    0
 75
    0
 76
    1
 52
1.570796326794897
 41
1
 77
    0
 78
    0
 98
    0
  0
HATCH
  5
73
100
AcDbEntity
  8
concrete
  6
ByLayer
 62
  256
370
   -1
100
AcDbHatch
 10
0
 20
0
 30
0
210
0
220
0
230
1
  2
gost_concrete
 70
    0
 71
    0
 91
    1
 92
    0
 93
    4
 72
    1
 10
-2040
 20
330
 11
-2041
 21
344
 72
    1
 10
-2041
 20
344
 11
-2023
 21
344
 72
    1
 10
-2023
 20
344
 11
-2024
 21
330
 72
    1
 10
-2024
 20
330
 11
-2040
 21
330
 97
    0
 75
    0
 76
    1
 52
1.570796326794897
 41
1
 77
    0
 78
    0
 98
    0
  0
HATCH
  5
74
100
AcDbEntity
  8
u-block
  6
ByLayer
 62
  256
370
   -1
100
AcDbHatch
 10
0
 20
0
 30
0
210
0
220
0
230
1
  2
gost_ceramics
 70
    0
 71
    0
 91
    1
 92
    0
 93
    8
 72
    1
 10
-2046
 20
344
 11
-2046
 21
324
 72
    1
 10
-2046
 20
324
 11
-2016
 21
324
 72
    1
 10
-2016
 20
324
 11
-2016
 21
344
 72
    1
 10
-2016
 20
344
 11
-2023
 21
344
 72
    1
 10
-2023
 20
344
 11
-2024
 21
330
 72
    1
 10
-2024
 20
330
 11
-2040
 21
330
 72
    1
 10
-2040
 20
330
 11
-2041
 21
344
 72
    1
 10
-2041
 20
344
 11
-2046
 21
344
 97
    0
 75
    0
 76
    1
 52
0
 41
2
 77
    0
 78
    0
 98
    0
  0
HATCH
  5
75
100
AcDbEntity
  8
metal
  6
ByLayer
 62
  256
370
   -1
100
AcDbHatch
 10
0
 20
0
 30
0
210
0
220
0
230
1
  2
SOLID
 70
    1
 71
    0
 91
    1
 92
    0
 93
    1
 72
    2
 10
-2026
 20
332.4
 40
0.4000000000000004
 50
0
 51
360
 73
    1
 97
    0
 75
    0
 76
    1
 98
    0
  0
HATCH
  5
76
100
AcDbEntity
  8
metal
  6
ByLayer
 62
  256
370
   -1
100
AcDbHatch
 10
0
 20
0
 30
0
210
0
220
0
230
1
  2
SOLID
 70
    1
 71
    0
 91
    1
 92
    0
 93
    1
 72
    2
 10
-2026
 20
341.6
 40
0.4000000000000021
 50
0
 51
360
 73
    1
 97
    0
 75
    0
 76
    1
 98
    0
  0
HATCH
  5
77
100
AcDbEntity
  8
metal
  6
ByLayer
 62
  256
370
   -1
100
AcDbHatch
 10
0
 20
0
 30
0
210
0
220
0
230
1
  2
SOLID
 70
    1
 71
    0
 91
    1
 92
    0
 93
    1
 72
    2
 10
-2038
 20
332.4
 40
0.4000000000000004
 50
0
 51
360
 73
    1
 97
    0
 75
    0
 76
    1
 98
    0
  0
HATCH
  5
78
100
AcDbEntity
  8
metal
  6
ByLayer
 62
  256
370
   -1
100
AcDbHatch
 10
0
 20
0
 30
0
210
0
220
0
230
1
  2
SOLID
 70
    1
 71
    0
 91
    1
 92
    0
 93
    1
 72
    2
 10
-2038
 20
341.6
 40
0.4000000000000021
 50
0
 51
360
 73
    1
 97
    0
 75
    0
 76
    1
 98
    0
  0
HATCH
  5
79
100
AcDbEntity
  8
metal
  6
ByLayer
 62
  256
370
   -1
100
AcDbHatch
 10
0
 20
0
 30
0
210
0
220
0
230
1
  2
SOLID
 70
    1
 71
    0
 91
    1
 92
    0
 93
    1
 72
    2
 10
-2023.100000000001
 20
348.4
 40
0.4000000000000021
 50
0
 51
360
 73
    1
 97
    0
 75
    0
 76
    1
 98
    0
  0
HATCH
  5
7A
100
AcDbEntity
  8
metal
  6
ByLayer
 62
  256
370
   -1
100
AcDbHatch
 10
0
 20
0
 30
0
210
0
220
0
230
1
  2
SOLID
 70
    1
 71
    0
 91
    1
 92
    0
 93
    1
 72
    2
 10
-2023.100000000001
 20
362.6
 40
0.4000000000000021
 50
0
 51
360
 73
    1
 97
    0
 75
    0
 76
    1
 98
    0
  0
HATCH
  5
7B
100
AcDbEntity
  8
plyty
  6
ByLayer
 62
  256
370
   -1
100
AcDbHatch
 10
0
 20
0
 30
0
210
0
220
0
230
1
  2
gost_concrete
 70
    0
 71
    0
 91
    1
 92
    0
 93
    4
 72
    1
 10
-2031
 20
344.9999999999999
 11
-2200
 21
344.9999999999999
 72
    1
 10
-2200
 20
344.9999999999999
 11
-2200
 21
366.9999999999998
 72
    1
 10
-2200
 20
366.9999999999998
 11
-2031
 21
366.9999999999998
 72
    1
 10
-2031
 20
366.9999999999998
 11
-2031
 21
344.9999999999999
 97
    0
 75
    0
 76
    1
 52
0
 41
1
 77
    0
 78
    0
 98
    0
  0
HATCH
  5
7C
100
AcDbEntity
  8
kontur
  6
ByLayer
 62
  256
370
   -1
100
AcDbHatch
 10
0
 20
0
 30
0
210
0
220
0
230
1
  2
gost_concrete
 70
    0
 71
    0
 91
    1
 92
    0
 93
    4
 72
    1
 10
-2031
 20
344
 11
-2031
 21
366.9999999999998
 72
    1
 10
-2031
 20
366.9999999999998
 11
-2017
 21
366.9999999999998
 72
    1
 10
-2017
 20
366.9999999999998
 11
-2017
 21
343.9999999999999
 72
    1
 10
-2017
 20
343.9999999999999
 11
-2031
 21
344
 97
    0
 75
    0
 76
    1
 52
1.570796326794897
 41
1
 77
    0
 78
    0
 98
    0
  0
HATCH
  5
7D
100
AcDbEntity
  8
kontur
  6
ByLayer
 62
  256
370
   -1
100
AcDbHatch
 10
0
 20
0
 30
0
210
0
220
0
230
1
  2
gost_concrete
 70
    0
 71
    0
 91
    1
 92
    0
 93
    4
 72
    1
 10
-2017
 20
673.9999999999998
 11
-2017
 21
650.9999999999999
 72
    1
 10
-2017
 20
650.9999999999999
 11
-2031
 21
651
 72
    1
 10
-2031
 20
651
 11
-2031
 21
673.9999999999998
 72
    1
 10
-2031
 20
673.9999999999998
 11
-2017
 21
673.9999999999998
 97
    0
 75
    0
 76
    1
 52
1.570796326794897
 41
1
 77
    0
 78
    0
 98
    0
  0
HATCH
  5
7E
100
AcDbEntity
  8
plyty
  6
ByLayer
 62
  256
370
   -1
100
AcDbHatch
 10
0
 20
0
 30
0
210
0
220
0
230
1
  2
gost_concrete
 70
    0
 71
    0
 91
    1
 92
    0
 93
    4
 72
    1
 10
-2200
 20
673.9999999999998
 11
-2031
 21
673.9999999999998
 72
    1
 10
-2031
 20
673.9999999999998
 11
-2031
 21
651.9999999999999
 72
    1
 10
-2031
 20
651.9999999999999
 11
-2200
 21
651.9999999999999
 72
    1
 10
-2200
 20
651.9999999999999
 11
-2200
 21
673.9999999999998
 97
    0
 75
    0
 76
    1
 52
0
 41
1
 77
    0
 78
    0
 98
    0
  0
HATCH
  5
7F
100
AcDbEntity
  8
muerlat
  6
ByLayer
 62
  256
370
   -1
100
AcDbHatch
 10
0
 20
0
 30
0
210
0
220
0
230
1
  2
gost_wood
 70
    0
 71
    0
 91
    1
 92
    0
 93
    4
 72
    1
 10
-2032
 20
696.9596491228812
 11
-2032
 21
681.9596491228812
 72
    1
 10
-2032
 20
681.9596491228812
 11
-2017
 21
681.9596491228812
 72
    1
 10
-2017
 20
681.9596491228812
 11
-2017
 21
696.9596491228812
 72
    1
 10
-2017
 20
696.9596491228812
 11
-2032
 21
696.9596491228812
 97
    0
 75
    0
 76
    1
 52
0
 41
1
 77
    0
 78
    0
 98
    0
  0
HATCH
  5
80
100
AcDbEntity
  8
metal
  6
ByLayer
 62
  256
370
   -1
100
AcDbHatch
 10
0
 20
0
 30
0
210
0
220
0
230
1
  2
SOLID
 70
    1
 71
    0
 91
    1
 92
    0
 93
    1
 72
    2
 10
-2038
 20
648.5999999999999
 40
0.4000000000000021
 50
0
 51
360
 73
    1
 97
    0
 75
    0
 76
    1
 98
    0
  0
HATCH
  5
81
100
AcDbEntity
  8
metal
  6
ByLayer
 62
  256
370
   -1
100
AcDbHatch
 10
0
 20
0
 30
0
210
0
220
0
230
1
  2
SOLID
 70
    1
 71
    0
 91
    1
 92
    0
 93
    1
 72
    2
 10
-2038
 20
639.4
 40
0.4000000000000004
 50
0
 51
360
 73
    1
 97
    0
 75
    0
 76
    1
 98
    0
  0
HATCH
  5
82
100
AcDbEntity
  8
metal
  6
ByLayer
 62
  256
370
   -1
100
AcDbHatch
 10
0
 20
0
 30
0
210
0
220
0
230
1
  2
SOLID
 70
    1
 71
    0
 91
    1
 92
    0
 93
    1
 72
    2
 10
-2026
 20
648.5999999999999
 40
0.4000000000000021
 50
0
 51
360
 73
    1
 97
    0
 75
    0
 76
    1
 98
    0
  0
HATCH
  5
83
100
AcDbEntity
  8
metal
  6
ByLayer
 62
  256
370
   -1
100
AcDbHatch
 10
0
 20
0
 30
0
210
0
220
0
230
1
  2
SOLID
 70
    1
 71
    0
 91
    1
 92
    0
 93
    1
 72
    2
 10
-2026
 20
639.4
 40
0.4000000000000004
 50
0
 51
360
 73
    1
 97
    0
 75
    0
 76
    1
 98
    0
  0
HATCH
  5
84
100
AcDbEntity
  8
gazoblok
  6
ByLayer
 62
  256
370
   -1
100
AcDbHatch
 10
0
 20
0
 30
0
210
0
220
0
230
1
  2
gost_stone
 70
    0
 71
    0
 91
    1
 92
    0
 93
    4
 72
    1
 10
-2046
 20
631
 11
-2016
 21
631
 72
    1
 10
-2016
 20
631
 11
-2016
 21
367
 72
    1
 10
-2016
 20
367
 11
-2046
 21
367
 72
    1
 10
-2046
 20
367
 11
-2046
 21
631
 97
    0
 75
    0
 76
    1
 52
0
 41
2
 77
    0
 78
    0
 98
    0
  0
HATCH
  5
85
100
AcDbEntity
  8
u-block
  6
ByLayer
 62
  256
370
   -1
100
AcDbHatch
 10
0
 20
0
 30
0
210
0
220
0
230
1
  2
gost_ceramics
 70
    0
 71
    0
 91
    1
 92
    0
 93
    8
 72
    1
 10
-2040
 20
637
 11
-2041
 21
651
 72
    1
 10
-2041
 20
651
 11
-2046
 21
651
 72
    1
 10
-2046
 20
651
 11
-2046
 21
631
 72
    1
 10
-2046
 20
631
 11
-2016
 21
631
 72
    1
 10
-2016
 20
631
 11
-2016
 21
651
 72
    1
 10
-2016
 20
651
 11
-2023
 21
651
 72
    1
 10
-2023
 20
651
 11
-2024
 21
637
 72
    1
 10
-2024
 20
637
 11
-2040
 21
637
 97
    0
 75
    0
 76
    1
 52
0
 41
2
 77
    0
 78
    0
 98
    0
  0
HATCH
  5
86
100
AcDbEntity
  8
concrete
  6
ByLayer
 62
  256
370
   -1
100
AcDbHatch
 10
0
 20
0
 30
0
210
0
220
0
230
1
  2
gost_concrete
 70
    0
 71
    0
 91
    1
 92
    0
 93
    4
 72
    1
 10
-2023
 20
651
 11
-2024
 21
637
 72
    1
 10
-2024
 20
637
 11
-2040
 21
637
 72
    1
 10
-2040
 20
637
 11
-2041
 21
651
 72
    1
 10
-2041
 20
651
 11
-2023
 21
651
 97
    0
 75
    0
 76
    1
 52
1.570796326794897
 41
1
 77
    0
 78
    0
 98
    0
  0
HATCH
  5
87
100
AcDbEntity
  8
brick
  6
ByLayer
 62
  256
370
   -1
100
AcDbHatch
 10
0
 20
0
 30
0
210
0
220
0
230
1
  2
gost_ferroconcrete
 70
    0
 71
    0
 91
    1
 92
    0
 93
    4
 72
    1
 10
-2038
 20
682
 11
-2038
 21
674
 72
    1
 10
-2038
 20
674
 11
-2013
 21
673.9999999999999
 72
    1
 10
-2013
 20
673.9999999999999
 11
-2013
 21
681.9999999999999
 72
    1
 10
-2013
 20
681.9999999999999
 11
-2038
 21
682
 97
    0
 75
    0
 76
    1
 52
0
 41
1
 77
    0
 78
    0
 98
    0
  0
HATCH
  5
88
100
AcDbEntity
  8
epps
  6
ByLayer
 62
  256
370
   -1
100
AcDbHatch
 10
0
 20
0
 30
0
210
0
220
0
230
1
  2
gost_non-metal
 70
    0
 71
    0
 91
    1
 92
    0
 93
    4
 72
    1
 10
-2012
 20
650.9999999999999
 11
-2012
 21
673.9999999999999
 72
    1
 10
-2012
 20
673.9999999999999
 11
-2017
 21
674
 72
    1
 10
-2017
 20
674
 11
-2017
 21
650.9999999999999
 72
    1
 10
-2017
 20
650.9999999999999
 11
-2012
 21
650.9999999999999
 97
    0
 75
    0
 76
    1
 52
1.570796326794897
 41
1
 77
    0
 78
    0
 98
    0
  0
HATCH
  5
89
100
AcDbEntity
  8
brick
  6
ByLayer
 62
  256
370
   -1
100
AcDbHatch
 10
0
 20
0
 30
0
210
0
220
0
230
1
  2
gost_ferroconcrete
 70
    0
 71
    0
 91
    1
 92
    0
 93
    4
 72
    1
 10
-2012
 20
693
 11
-2011.999999999999
 21
669.9999999999999
 72
    1
 10
-2011.999999999999
 20
669.9999999999999
 11
-2000
 21
670
 72
    1
 10
-2000
 20
670
 11
-2000.000000000001
 21
693.0000000000001
 72
    1
 10
-2000.000000000001
 20
693.0000000000001
 11
-2012
 21
693
 97
    0
 75
    0
 76
    1
 52
0
 41
1
 77
    0
 78
    0
 98
    0
  0
HATCH
  5
8A
100
AcDbEntity
  8
fundament
  6
ByLayer
 62
  256
370
   -1
100
AcDbHatch
 10
0
 20
0
 30
0
210
0
220
0
230
1
  2
concrete
 70
    0
 71
    0
 91
    1
 92
    0
 93
   24
 72
    1
 10
1340
 20
40.00000000000001
 11
1640
 21
40.00003600000008
 72
    1
 10
1640
 20
40.00003600000008
 11
1640
 21
513
 72
    1
 10
1640
 20
513
 11
1340
 21
513
 72
    1
 10
1340
 20
513
 11
1340
 21
40.00000000000001
 72
    1
 10
1680
 20
513
 11
1810
 21
513
 72
    1
 10
1810
 20
513
 11
1810
 21
40.00003600000008
 72
    1
 10
1810
 20
40.00003600000008
 11
1680
 21
40.00003600000008
 72
    1
 10
1680
 20
40.00003600000008
 11
1680
 21
513
 72
    1
 10
1300
 20
1050
 11
2300
 21
1050
 72
    1
 10
2300
 20
1050
 11
2300
 21
0
 72
    1
 10
2300
 20
0
 11
1300
 21
0
 72
    1
 10
1300
 20
0
 11
1300
 21
1050
 72
    1
 10
2260
 20
40.00000000000001
 11
1850
 21
40.00000000000001
 72
    1
 10
1850
 20
40.00000000000001
 11
1850
 21
513
 72
    1
 10
1850
 20
513
 11
2260
 21
513
 72
    1
 10
2260
 20
513
 11
2260
 21
40.00000000000001
 72
    1
 10
1850
 20
553
 11
2260
 21
553
 72
    1
 10
2260
 20
553
 11
2260
 21
1010
 72
    1
 10
2260
 20
1010
 11
1850
 21
1010
 72
    1
 10
1850
 20
1010
 11
1850
 21
553
 72
    1
 10
1810
 20
553
 11
1340
 21
553
 72
    1
 10
1340
 20
553
 11
1340
 21
1010
 72
    1
 10
1340
 20
1010
 11
1810
 21
1010
 72
    1
 10
1810
 20
1010
 11
1810
 21
553
 97
    0
 75
    0
 76
    1
 52
0
 41
10
 77
    0
 78
    0
 98
    0
  0
MTEXT
  5
8B
100
AcDbEntity
  8
dimensions
  6
ByLayer
 62
  256
370
   -1
100
AcDbMText
 10
530
 20
1300
 30
0
 40
50
 41
868.0555555555632
 71
    5
 72
    1
  1
Розрiз Б-Б. Низ коробки.
  7
cyrillic_ii
210
0
220
0
230
1
 50
0
 73
    2
 44
1
  0
MTEXT
  5
8C
100
AcDbEntity
  8
dimensions
  6
ByLayer
 62
  256
370
   -1
100
AcDbMText
 10
2500
 20
-300
 30
0
 40
50
 41
204.166666666669
 71
    6
 72
    1
  1
Стр. 7
  7
cyrillic_ii
210
0
220
0
230
1
 50
0
 73
    2
 44
1
  0
LINE
  5
8D
100
AcDbEntity
  8
dimensions
  6
ByLayer
 62
  256
370
   -1
100
AcDbLine
 10
80
 20
1260
 11
970.0000000000001
 21
1260
  0
LINE
  5
8E
100
AcDbEntity
  8
fundament
  6
DASHED2
 62
  256
370
   -1
100
AcDbLine
 10
2300
 20
983.0000000000001
 11
2260
 21
983
  0
LINE
  5
8F
100
AcDbEntity
  8
fundament
  6
DASHED2
 62
  256
370
   -1
100
AcDbLine
 10
2260
 20
1003
 11
2300
 21
1003
  0
LINE
  5
90
100
AcDbEntity
  8
dimensions
  6
DASHDOT2
 62
  256
370
   -1
100
AcDbLine
 10
1540
 20
180
 11
1520
 21
180
  0
LINE
  5
91
100
AcDbEntity
  8
dimensions
  6
DASHDOT2
 62
  256
370
   -1
100
AcDbLine
 10
1530
 20
190
 11
1530
 21
170
  0
LINE
  5
92
100
AcDbEntity
  8
fundament
  6
DASHED2
 62
  256
370
   -1
100
AcDbLine
 10
1520.5
 20
122.5
 11
1520.5
 21
162.5
  0
LINE
  5
93
100
AcDbEntity
  8
fundament
  6
DASHED2
 62
  256
370
   -1
100
AcDbLine
 10
1540.5
 20
162.5
 11
1540.5
 21
122.5
  0
LWPOLYLINE
  5
94
100
AcDbEntity
  8
fundament
  6
ByLayer
 62
  256
370
   -1
100
AcDbPolyline
 90
    4
 70
    1
 43
0
 10
1300
 20
1050
 10
2300
 20
1050
 10
2300
 20
0
 10
1300
 20
0
  0
LWPOLYLINE
  5
95
100
AcDbEntity
  8
fundament
  6
ByLayer
 62
  256
370
   -1
100
AcDbPolyline
 90
    4
 70
    1
 43
0
 10
2260
 20
40.00000000000001
 10
1850
 20
40.00000000000001
 10
1850
 20
513
 10
2260
 20
513
  0
LWPOLYLINE
  5
96
100
AcDbEntity
  8
fundament
  6
ByLayer
 62
  256
370
   -1
100
AcDbPolyline
 90
    4
 70
    1
 43
0
 10
2260
 20
1010
 10
1850
 20
1010
 10
1850
 20
553
 10
2260
 20
553
  0
LWPOLYLINE
  5
97
100
AcDbEntity
  8
fundament
  6
ByLayer
 62
  256
370
   -1
100
AcDbPolyline
 90
    4
 70
    1
 43
0
 10
1340
 20
1010
 10
1810
 20
1010
 10
1810
 20
553
 10
1340
 20
553
  0
LWPOLYLINE
  5
98
100
AcDbEntity
  8
fundament
  6
ByLayer
 62
  256
370
   -1
100
AcDbPolyline
 90
    4
 70
    1
 43
0
 10
1340
 20
40.00000000000001
 10
1640
 20
40.00003600000008
 10
1640
 20
513
 10
1340
 20
513
  0
LWPOLYLINE
  5
99
100
AcDbEntity
  8
fundament
  6
ByLayer
 62
  256
370
   -1
100
AcDbPolyline
 90
    4
 70
    1
 43
0
 10
1680
 20
513
 10
1810
 20
513
 10
1810
 20
40.00003600000008
 10
1680
 20
40.00003600000008
  0
LWPOLYLINE
  5
9A
100
AcDbEntity
  8
plyty
  6
DASHED2
 62
  256
370
   -1
100
AcDbPolyline
 90
    6
 70
    1
 43
0
 10
2730
 20
47
 10
3228
 20
47
 10
3228
 20
196
 10
2730
 20
196
 10
2730
 20
196
 10
2730
 20
196
  0
LWPOLYLINE
  5
9B
100
AcDbEntity
  8
plyty
  6
DASHED2
 62
  256
370
   -1
100
AcDbPolyline
 90
    6
 70
    1
 43
0
 10
3231
 20
47
 10
3669
 20
47
 10
3669
 20
196
 10
3231
 20
196
 10
3231
 20
196
 10
3231
 20
196
  0
LWPOLYLINE
  5
9C
100
AcDbEntity
  8
gazoblok
  6
ByLayer
 62
  256
370
   -1
100
AcDbPolyline
 90
    4
 70
    1
 43
0
 10
3053
 20
47
 10
3073
 20
47
 10
3073
 20
480
 10
3053
 20
480
  0
LWPOLYLINE
  5
9D
100
AcDbEntity
  8
projomy
  6
ByLayer
 62
  256
370
   -1
100
AcDbPolyline
 90
    4
 70
    1
 43
0
 10
3073
 20
150
 10
3073
 20
70
 10
3053
 20
70
 10
3053
 20
150
  0
LWPOLYLINE
  5
9E
100
AcDbEntity
  8
projomy
  6
ByLayer
 62
  256
370
   -1
100
AcDbPolyline
 90
    4
 70
    1
 43
0
 10
3073
 20
450
 10
3073
 20
370
 10
3053
 20
370
 10
3053
 20
450
  0
LWPOLYLINE
  5
9F
100
AcDbEntity
  8
projomy
  6
ByLayer
 62
  256
370
   -1
100
AcDbPolyline
 90
    4
 70
    1
 43
0
 10
3214
 20
532
 10
3214
 20
622
 10
3244
 20
622
 10
3244
 20
532
  0
LWPOLYLINE
  5
A0
100
AcDbEntity
  8
projomy
  6
ByLayer
 62
  256
370
   -1
100
AcDbPolyline
 90
    4
 70
    1
 43
0
 10
3214
 20
382
 10
3214
 20
472
 10
3244
 20
472
 10
3244
 20
382
  0
LWPOLYLINE
  5
A1
100
AcDbEntity
  8
plyty
  6
DASHED2
 62
  256
370
   -1
100
AcDbPolyline
 90
    6
 70
    1
 43
0
 10
2730
 20
497
 10
3228
 20
497
 10
3228
 20
646
 10
2730
 20
646
 10
2730
 20
646
 10
2730
 20
646
  0
LWPOLYLINE
  5
A2
100
AcDbEntity
  8
plyty
  6
DASHED2
 62
  256
370
   -1
100
AcDbPolyline
 90
    6
 70
    1
 43
0
 10
2730
 20
347
 10
3228
 20
347
 10
3228
 20
496
 10
2730
 20
496
 10
2730
 20
496
 10
2730
 20
496
  0
LWPOLYLINE
  5
A3
100
AcDbEntity
  8
plyty
  6
DASHED2
 62
  256
370
   -1
100
AcDbPolyline
 90
    6
 70
    1
 43
0
 10
2730
 20
197
 10
3228
 20
197
 10
3228
 20
346
 10
2730
 20
346
 10
2730
 20
346
 10
2730
 20
346
  0
LWPOLYLINE
  5
A4
100
AcDbEntity
  8
plyty
  6
DASHED2
 62
  256
370
   -1
100
AcDbPolyline
 90
    6
 70
    1
 43
0
 10
3231
 20
197
 10
3669
 20
197
 10
3669
 20
346
 10
3231
 20
346
 10
3231
 20
346
 10
3231
 20
346
  0
LWPOLYLINE
  5
A5
100
AcDbEntity
  8
plyty
  6
DASHED2
 62
  256
370
   -1
100
AcDbPolyline
 90
    6
 70
    1
 43
0
 10
3231
 20
347
 10
3669
 20
347
 10
3669
 20
496
 10
3231
 20
496
 10
3231
 20
496
 10
3231
 20
496
  0
LWPOLYLINE
  5
A6
100
AcDbEntity
  8
plyty
  6
DASHED2
 62
  256
370
   -1
100
AcDbPolyline
 90
    6
 70
    1
 43
0
 10
3231
 20
497.0000399999999
 10
3669
 20
497.0000399999999
 10
3669
 20
646.0000399999999
 10
3231
 20
646.0000399999999
 10
3231
 20
646.0000399999999
 10
3231
 20
646.0000399999999
  0
LWPOLYLINE
  5
A7
100
AcDbEntity
  8
gazoblok
  6
ByLayer
 62
  256
370
   -1
100
AcDbPolyline
 90
    4
 70
    1
 43
0
 10
2747
 20
248
 10
3053
 20
248
 10
3053
 20
268
 10
2747
 20
268
  0
LWPOLYLINE
  5
A8
100
AcDbEntity
  8
gazoblok
  6
ByLayer
 62
  256
370
   -1
100
AcDbPolyline
 90
    4
 70
    1
 43
0
 10
2747
 20
460
 10
3053
 20
460
 10
3053
 20
480
 10
2747
 20
480
  0
LWPOLYLINE
  5
A9
100
AcDbEntity
  8
0
  6
ByLayer
 62
  256
370
   -1
100
AcDbPolyline
 90
    4
 70
    1
 43
0
 10
1671
 20
150
 10
1671
 20
69.99999999999999
 10
1646
 20
69.99999999999999
 10
1646
 20
150
  0
LWPOLYLINE
  5
AA
100
AcDbEntity
  8
0
  6
ByLayer
 62
  256
370
   -1
100
AcDbPolyline
 90
    4
 70
    1
 43
0
 10
1671
 20
450
 10
1671
 20
370
 10
1646
 20
370
 10
1646
 20
450
  0
LWPOLYLINE
  5
AB
100
AcDbEntity
  8
0
  6
ByLayer
 62
  256
370
   -1
100
AcDbPolyline
 90
    4
 70
    1
 43
0
 10
1817
 20
310
 10
1817
 20
480
 10
1842
 20
480
 10
1842
 20
310
  0
LWPOLYLINE
  5
AC
100
AcDbEntity
  8
plyty
  6
DASHED2
 62
  256
370
   -1
100
AcDbPolyline
 90
    6
 70
    1
 43
0
 10
1831
 20
47
 10
2269
 20
47
 10
2269
 20
196
 10
1831
 20
196
 10
1831
 20
196
 10
1831
 20
196
  0
LWPOLYLINE
  5
AD
100
AcDbEntity
  8
plyty
  6
DASHED2
 62
  256
370
   -1
100
AcDbPolyline
 90
    6
 70
    1
 43
0
 10
1831
 20
197
 10
2269
 20
197
 10
2269
 20
346
 10
1831
 20
346
 10
1831
 20
346
 10
1831
 20
346
  0
LWPOLYLINE
  5
AE
100
AcDbEntity
  8
plyty
  6
DASHED2
 62
  256
370
   -1
100
AcDbPolyline
 90
    6
 70
    1
 43
0
 10
1831
 20
347
 10
2269
 20
347
 10
2269
 20
496
 10
1831
 20
496
 10
1831
 20
496
 10
1831
 20
496
  0
LWPOLYLINE
  5
AF
100
AcDbEntity
  8
plyty
  6
DASHED2
 62
  256
370
   -1
100
AcDbPolyline
 90
    6
 70
    1
 43
0
 10
1831
 20
497.0000399999999
 10
2269
 20
497.0000399999999
 10
2269
 20
646.0000399999999
 10
1831
 20
646.0000399999999
 10
1831
 20
646.0000399999999
 10
1831
 20
646.0000399999999
  0
LWPOLYLINE
  5
B0
100
AcDbEntity
  8
plyty
  6
DASHED2
 62
  256
370
   -1
100
AcDbPolyline
 90
    5
 70
    1
 43
0
 10
1660
 20
47.00000000000001
 10
1828
 20
47.00000000000001
 10
1828
 20
196
 10
1660
 20
196
 10
1660
 20
196
  0
LWPOLYLINE
  5
B1
100
AcDbEntity
  8
plyty
  6
DASHED2
 62
  256
370
   -1
100
AcDbPolyline
 90
    5
 70
    1
 43
0
 10
1660
 20
197
 10
1828
 20
197
 10
1828
 20
346
 10
1660
 20
346
 10
1660
 20
346
  0
LWPOLYLINE
  5
B2
100
AcDbEntity
  8
plyty
  6
DASHED2
 62
  256
370
   -1
100
AcDbPolyline
 90
    5
 70
    1
 43
0
 10
1660
 20
347
 10
1828
 20
347
 10
1828
 20
496
 10
1660
 20
496
 10
1660
 20
496
  0
LWPOLYLINE
  5
B3
100
AcDbEntity
  8
plyty
  6
DASHED2
 62
  256
370
   -1
100
AcDbPolyline
 90
    5
 70
    1
 43
0
 10
1660
 20
497
 10
1828
 20
497
 10
1828
 20
646
 10
1660
 20
646
 10
1660
 20
646
  0
LWPOLYLINE
  5
B4
100
AcDbEntity
  8
plyty
  6
DASHED2
 62
  256
370
   -1
100
AcDbPolyline
 90
    5
 70
    1
 43
0
 10
1329
 20
46.99999999999999
 10
1657
 20
46.99999999999999
 10
1657
 20
146
 10
1329
 20
146
 10
1329
 20
146
  0
LWPOLYLINE
  5
B5
100
AcDbEntity
  8
plyty
  6
DASHED2
 62
  256
370
   -1
100
AcDbPolyline
 90
    5
 70
    1
 43
0
 10
1329
 20
147
 10
1657
 20
147
 10
1657
 20
246
 10
1329
 20
246
 10
1329
 20
246
  0
LWPOLYLINE
  5
B6
100
AcDbEntity
  8
plyty
  6
DASHED2
 62
  256
370
   -1
100
AcDbPolyline
 90
    5
 70
    1
 43
0
 10
1329
 20
269
 10
1657
 20
269
 10
1657
 20
368
 10
1329
 20
368
 10
1329
 20
368
  0
LWPOLYLINE
  5
B7
100
AcDbEntity
  8
plyty
  6
DASHED2
 62
  256
370
   -1
100
AcDbPolyline
 90
    5
 70
    1
 43
0
 10
1329
 20
369
 10
1657
 20
369
 10
1657
 20
468
 10
1329
 20
468
 10
1329
 20
468
  0
LWPOLYLINE
  5
B8
100
AcDbEntity
  8
gazoblok
  6
ByLayer
 62
  256
370
   -1
100
AcDbPolyline
 90
    4
 70
    1
 43
0
 10
1347
 20
248
 10
1646
 20
248
 10
1646
 20
268
 10
1347
 20
268
  0
LWPOLYLINE
  5
B9
100
AcDbEntity
  8
balky
  6
ByLayer
 62
  256
370
   -1
100
AcDbPolyline
 90
    4
 70
    1
 43
0
 10
1822
 20
17
 10
2283
 20
17
 10
2283
 20
47
 10
1822
 20
47
  0
LWPOLYLINE
  5
BA
100
AcDbEntity
  8
gazoblok
  6
ByLayer
 62
  256
370
   -1
100
AcDbPolyline
 90
    4
 70
    1
 43
0
 10
1347
 20
460
 10
1646
 20
460
 10
1646
 20
480
 10
1347
 20
480
  0
LWPOLYLINE
  5
BB
100
AcDbEntity
  8
cegla
  6
ByLayer
 62
  256
370
   -1
100
AcDbPolyline
 90
    4
 70
    1
 43
0
 10
1646
 20
46.99999999999999
 10
1671
 20
47
 10
1671
 20
480
 10
1646
 20
480
  0
MTEXT
  5
BC
100
AcDbEntity
  8
plyty
  6
ByLayer
 62
  256
370
   -1
100
AcDbMText
 10
1570
 20
1100
 30
0
 40
20
 41
148.3333333333358
 71
    8
 72
    1
  1
ПК 50-15-8
  7
cyrillic_ii
210
0
220
0
230
1
 50
0
 73
    2
 44
1
  0
MTEXT
  5
BD
100
AcDbEntity
  8
plyty
  6
ByLayer
 62
  256
370
   -1
100
AcDbMText
 10
2050
 20
1100
 30
0
 40
20
 41
152.7777777777791
 71
    8
 72
    1
  1
ПК 44-15-8
  7
cyrillic_ii
210
0
220
0
230
1
 50
0
 73
    2
 44
1
  0
MTEXT
  5
BE
100
AcDbEntity
  8
plyty
  6
ByLayer
 62
  256
370
   -1
100
AcDbMText
 10
2970
 20
1100
 30
0
 40
20
 41
148.3333333333358
 71
    8
 72
    1
  1
ПК 50-15-8
  7
cyrillic_ii
210
0
220
0
230
1
 50
0
 73
    2
 44
1
  0
MTEXT
  5
BF
100
AcDbEntity
  8
plyty
  6
ByLayer
 62
  256
370
   -1
100
AcDbMText
 10
3450
 20
1100
 30
0
 40
20
 41
152.7777777777791
 71
    8
 72
    1
  1
ПК 44-15-8
  7
cyrillic_ii
210
0
220
0
230
1
 50
0
 73
    2
 44
1
  0
MTEXT
  5
C0
100
AcDbEntity
  8
plyty
  6
ByLayer
 62
  256
370
   -1
100
AcDbMText
 10
1500
 20
-60
 30
0
 40
20
 41
148.3333333333358
 71
    8
 72
    1
  1
ПК 33-10-8 
  7
cyrillic_ii
210
0
220
0
230
1
 50
0
 73
    2
 44
1
  0
MTEXT
  5
C1
100
AcDbEntity
  8
plyty
  6
ByLayer
 62
  256
370
   -1
100
AcDbMText
 10
1750
 20
-60
 30
0
 40
20
 41
143.8888888888901
 71
    8
 72
    1
  1
ПК 17-15-8
  7
cyrillic_ii
210
0
220
0
230
1
 50
0
 73
    2
 44
1
  0
LWPOLYLINE
  5
C2
100
AcDbEntity
  8
gazoblok
  6
ByLayer
 62
  256
370
   -1
100
AcDbPolyline
 90
    4
 70
    1
 43
0
 10
3244
 20
492
 10
3653
 20
492
 10
3653
 20
512
 10
3244
 20
512
  0
LINE
  5
C3
100
AcDbEntity
  8
0
  6
ByLayer
 62
  256
370
   -1
100
AcDbLine
 10
0
 20
128
 11
440
 21
128
  0
LINE
  5
C4
100
AcDbEntity
  8
0
  6
ByLayer
 62
  256
370
   -1
100
AcDbLine
 10
0
 20
455
 11
440
 21
455
  0
LWPOLYLINE
  5
C5
100
AcDbEntity
  8
u-block
  6
CONTINUOUS
 62
    6
370
   50
100
AcDbPolyline
 90
    8
 70
    1
 43
0
 10
-2046
 20
631
 10
-2016
 20
631
 10
-2016
 20
651
 10
-2023
 20
651
 10
-2024
 20
637
 10
-2040
 20
637
 10
-2041
 20
651
 10
-2046
 20
651
  0
LWPOLYLINE
  5
C6
100
AcDbEntity
  8
concrete
  6
ByLayer
 62
  256
370
   -1
100
AcDbPolyline
 90
    5
 70
    0
 43
0
 10
-2041
 20
651
 10
-2023
 20
651
 10
-2024
 20
637
 10
-2040
 20
637
 10
-2041
 20
651
  0
LWPOLYLINE
  5
C7
100
AcDbEntity
  8
gazoblok
  6
ByLayer
 62
  256
370
   -1
100
AcDbPolyline
 90
    4
 70
    1
 43
0
 10
-2016
 20
367
 10
-2046
 20
367
 10
-2046
 20
631
 10
-2016
 20
631
  0
CIRCLE
  5
C8
100
AcDbEntity
  8
metal
  6
ByLayer
 62
  256
370
   -1
100
AcDbCircle
 10
-2026
 20
639.4
 40
0.4000000000000004
  0
CIRCLE
  5
C9
100
AcDbEntity
  8
metal
  6
ByLayer
 62
  256
370
   -1
100
AcDbCircle
 10
-2026
 20
648.5999999999999
 40
0.4000000000000021
  0
CIRCLE
  5
CA
100
AcDbEntity
  8
metal
  6
ByLayer
 62
  256
370
   -1
100
AcDbCircle
 10
-2038
 20
639.4
 40
0.4000000000000004
  0
CIRCLE
  5
CB
100
AcDbEntity
  8
metal
  6
ByLayer
 62
  256
370
   -1
100
AcDbCircle
 10
-2038
 20
648.5999999999999
 40
0.4000000000000021
  0
LWPOLYLINE
  5
CC
100
AcDbEntity
  8
metal
  6
DASHED2
 62
  256
370
   -1
100
AcDbPolyline
 90
    8
 70
    1
 43
0
 10
-2026.5
 20
638.6999999999999
 42
0.414213562373012
 10
-2025.3
 20
639.9
 10
-2025.3
 20
648.0999999999999
 42
0.4142135623730118
 10
-2026.5
 20
649.3
 10
-2037.5
 20
649.3
 42
0.414213562373095
 10
-2038.7
 20
648.0999999999999
 10
-2038.7
 20
639.9
 42
0.4142135623730396
 10
-2037.5
 20
638.7000000000002
  0
LWPOLYLINE
  5
CD
100
AcDbEntity
  8
metal
  6
DASHED2
 62
  256
370
   -1
100
AcDbPolyline
 90
    8
 70
    1
 43
0
 10
-2026.5
 20
638.1
 42
0.4142135623730765
 10
-2024.7
 20
639.9
 10
-2024.7
 20
648.1
 42
0.414213562373095
 10
-2026.5
 20
649.9
 10
-2037.5
 20
649.9
 42
0.414213562373169
 10
-2039.3
 20
648.0999999999999
 10
-2039.299999999999
 20
639.9
 42
0.4142135623730951
 10
-2037.5
 20
638.1
  0
LWPOLYLINE
  5
CE
100
AcDbEntity
  8
muerlat
  6
ByLayer
 62
  256
370
   -1
100
AcDbPolyline
 90
    4
 70
    1
 43
0
 10
-2032
 20
682
 10
-2017
 20
682
 10
-2017
 20
697
 10
-2032
 20
697
  0
LWPOLYLINE
  5
CF
100
AcDbEntity
  8
brick
  6
ByLayer
 62
  256
370
   -1
100
AcDbPolyline
 90
    4
 70
    1
 43
0
 10
-2038
 20
674
 10
-2013
 20
673.9999999999999
 10
-2013
 20
681.9999999999999
 10
-2038
 20
682
  0
LWPOLYLINE
  5
D0
100
AcDbEntity
  8
brick
  6
ByLayer
 62
  256
370
   -1
100
AcDbPolyline
 90
    4
 70
    1
 43
0
 10
-2011.999999999999
 20
669.9999999999999
 10
-2000
 20
670
 10
-2000.000000000001
 20
693.0000000000001
 10
-2012
 20
693
  0
LWPOLYLINE
  5
D1
100
AcDbEntity
  8
epps
  6
ByLayer
 62
  256
370
   -1
100
AcDbPolyline
 90
    4
 70
    1
 43
0
 10
-2012
 20
673.9999999999999
 10
-2017
 20
674
 10
-2017
 20
650.9999999999999
 10
-2012
 20
650.9999999999999
  0
LWPOLYLINE
  5
D2
100
AcDbEntity
  8
plyty
  6
ByLayer
 62
  256
370
   -1
100
AcDbPolyline
 90
    4
 70
    1
 43
0
 10
-2200
 20
673.9999999999998
 10
-2031
 20
673.9999999999998
 10
-2031
 20
651.9999999999999
 10
-2200
 20
651.9999999999999
  0
LWPOLYLINE
  5
D3
100
AcDbEntity
  8
kontur
  6
ByLayer
 62
  256
370
   -1
100
AcDbPolyline
 90
    4
 70
    1
 43
0
 10
-2031
 20
673.9999999999998
 10
-2017
 20
673.9999999999998
 10
-2017
 20
650.9999999999999
 10
-2031
 20
650.9999999999999
  0
LWPOLYLINE
  5
D4
100
AcDbEntity
  8
u-block
  6
CONTINUOUS
 62
    6
370
   50
100
AcDbPolyline
 90
    8
 70
    1
 43
0
 10
-2046
 20
324
 10
-2016
 20
324
 10
-2016
 20
344
 10
-2023
 20
344
 10
-2024
 20
330
 10
-2040
 20
330
 10
-2041
 20
344
 10
-2046
 20
344
  0
LWPOLYLINE
  5
D5
100
AcDbEntity
  8
concrete
  6
ByLayer
 62
  256
370
   -1
100
AcDbPolyline
 90
    5
 70
    0
 43
0
 10
-2041
 20
344
 10
-2023
 20
344
 10
-2024
 20
330
 10
-2040
 20
330
 10
-2041
 20
344
  0
CIRCLE
  5
D6
100
AcDbEntity
  8
metal
  6
ByLayer
 62
  256
370
   -1
100
AcDbCircle
 10
-2026
 20
332.4
 40
0.4000000000000004
  0
CIRCLE
  5
D7
100
AcDbEntity
  8
metal
  6
ByLayer
 62
  256
370
   -1
100
AcDbCircle
 10
-2026
 20
341.6
 40
0.4000000000000021
  0
CIRCLE
  5
D8
100
AcDbEntity
  8
metal
  6
ByLayer
 62
  256
370
   -1
100
AcDbCircle
 10
-2038
 20
332.4
 40
0.4000000000000004
  0
CIRCLE
  5
D9
100
AcDbEntity
  8
metal
  6
ByLayer
 62
  256
370
   -1
100
AcDbCircle
 10
-2038
 20
341.6
 40
0.4000000000000021
  0
LWPOLYLINE
  5
DA
100
AcDbEntity
  8
metal
  6
DASHED2
 62
  256
370
   -1
100
AcDbPolyline
 90
    8
 70
    1
 43
0
 10
-2026.5
 20
331.6999999999999
 42
0.414213562373012
 10
-2025.3
 20
332.9
 10
-2025.3
 20
341.1
 42
0.4142135623730396
 10
-2026.5
 20
342.3000000000001
 10
-2037.5
 20
342.3000000000001
 42
0.414213562373095
 10
-2038.7
 20
341.1
 10
-2038.7
 20
332.9
 42
0.4142135623730396
 10
-2037.5
 20
331.7000000000002
  0
LWPOLYLINE
  5
DB
100
AcDbEntity
  8
metal
  6
DASHED2
 62
  256
370
   -1
100
AcDbPolyline
 90
    8
 70
    1
 43
0
 10
-2026.5
 20
331.1
 42
0.4142135623730857
 10
-2024.7
 20
332.9
 10
-2024.700000000001
 20
341.1
 42
0.4142135623731598
 10
-2026.5
 20
342.9
 10
-2037.5
 20
342.9
 42
0.4142135623731505
 10
-2039.3
 20
341.1
 10
-2039.3
 20
332.8999999999999
 42
0.4142135623731412
 10
-2037.5
 20
331.1
  0
CIRCLE
  5
DC
100
AcDbEntity
  8
metal
  6
ByLayer
 62
  256
370
   -1
100
AcDbCircle
 10
-2023.100000000001
 20
348.4
 40
0.4000000000000021
  0
CIRCLE
  5
DD
100
AcDbEntity
  8
metal
  6
ByLayer
 62
  256
370
   -1
100
AcDbCircle
 10
-2023.100000000001
 20
362.6
 40
0.4000000000000021
  0
LWPOLYLINE
  5
DE
100
AcDbEntity
  8
epps
  6
ByLayer
 62
  256
370
   -1
100
AcDbPolyline
 90
    4
 70
    1
 43
0
 10
-2012
 20
366.9999999999999
 10
-2017
 20
367
 10
-2017
 20
343.9999999999999
 10
-2012
 20
343.9999999999999
  0
LWPOLYLINE
  5
DF
100
AcDbEntity
  8
plyty
  6
ByLayer
 62
  256
370
   -1
100
AcDbPolyline
 90
    4
 70
    1
 43
0
 10
-2200
 20
366.9999999999998
 10
-2031
 20
366.9999999999998
 10
-2031
 20
344.9999999999999
 10
-2200
 20
344.9999999999999
  0
LWPOLYLINE
  5
E0
100
AcDbEntity
  8
kontur
  6
ByLayer
 62
  256
370
   -1
100
AcDbPolyline
 90
    4
 70
    1
 43
0
 10
-2031
 20
366.9999999999998
 10
-2017
 20
366.9999999999998
 10
-2017
 20
343.9999999999999
 10
-2031
 20
343.9999999999999
  0
LWPOLYLINE
  5
E1
100
AcDbEntity
  8
metal
  6
ByLayer
 62
  256
370
   -1
100
AcDbPolyline
 90
    4
 70
    1
 43
0
 10
-2025.5
 20
701.9999999999999
 10
-2023.9
 20
701.9999999999999
 10
-2023.9
 20
651.9999999999999
 10
-2025.5
 20
651.9999999999999
  0
CIRCLE
  5
E2
100
AcDbEntity
  8
metal
  6
ByLayer
 62
  256
370
   -1
100
AcDbCircle
 10
-2023.5
 20
655.4000000000001
 40
0.4000000000000021
  0
CIRCLE
  5
E3
100
AcDbEntity
  8
metal
  6
ByLayer
 62
  256
370
   -1
100
AcDbCircle
 10
-2023.5
 20
669.6000000000001
 40
0.4000000000000021
  0
LWPOLYLINE
  5
E4
100
AcDbEntity
  8
gazoblok
  6
ByLayer
 62
  256
370
   -1
100
AcDbPolyline
 90
    4
 70
    1
 43
0
 10
-2016
 20
39.99999999999989
 10
-2046
 20
39.99999999999989
 10
-2046
 20
324
 10
-2016
 20
324
  0
LWPOLYLINE
  5
E5
100
AcDbEntity
  8
styny
  6
ByLayer
 62
  256
370
   -1
100
AcDbPolyline
 90
    4
 70
    1
 43
0
 10
-2000
 20
40
 10
-2012
 20
39.99999999999989
 10
-2011.999999999999
 20
669.9999999999999
 10
-1999.999999999999
 20
670.0000000000441
  0
LWPOLYLINE
  5
E6
100
AcDbEntity
  8
fundament
  6
ByLayer
 62
  256
370
   -1
100
AcDbPolyline
 90
    9
 70
    0
 43
0
 10
-2200
 20
40
 10
-2200
 20
0
 10
-2112
 20
0
 10
-2107
 20
-10
 10
-2097
 20
10
 10
-2092
 20
0
 10
-2000
 20
0
 10
-2000
 20
40
 10
-2200
 20
40
  0
LWPOLYLINE
  5
E7
100
AcDbEntity
  8
fundament
  6
ByLayer
 62
  256
370
   -1
100
AcDbPolyline
 90
    9
 70
    0
 43
0
 10
-2200
 20
40
 10
-2200
 20
0
 10
-2112
 20
0
 10
-2107
 20
-10
 10
-2097
 20
10
 10
-2092
 20
0
 10
-2000
 20
0
 10
-2000
 20
40
 10
-2200
 20
40
  0
LWPOLYLINE
  5
E8
100
AcDbEntity
  8
decor
  6
ByLayer
 62
  256
370
   -1
100
AcDbPolyline
 90
    4
 70
    1
 43
0
 10
-1500
 20
0
 10
-500
 20
0
 10
-500
 20
40
 10
-1500
 20
40
  0
ARC
  5
E9
100
AcDbEntity
  8
styny
  6
ByLayer
 62
  256
370
   -1
100
AcDbCircle
 10
-1304
 20
429.5000000000005
 40
162.5
100
AcDbArc
 50
75.74996730219641
 51
104.2500326978036
  0
ARC
  5
EA
100
AcDbEntity
  8
styny
  6
ByLayer
 62
  256
370
   -1
100
AcDbCircle
 10
-1304
 20
429.5000000000005
 40
187.4999999999995
100
AcDbArc
 50
75.74996730219635
 51
104.2500326978036
  0
LINE
  5
EB
100
AcDbEntity
  8
styny
  6
ByLayer
 62
  256
370
   -1
100
AcDbLine
 10
-1350.153846153846
 20
611.2307692307695
 11
-1344
 21
587.0000000000005
  0
LINE
  5
EC
100
AcDbEntity
  8
styny
  6
ByLayer
 62
  256
370
   -1
100
AcDbLine
 10
-1257.846153846154
 20
611.2307692307695
 11
-1264
 21
587.0000000000005
  0
LWPOLYLINE
  5
ED
100
AcDbEntity
  8
vikna_dveri
  6
ByLayer
 62
  256
370
   -1
100
AcDbPolyline
 90
    4
 70
    1
 43
0
 10
-1334
 20
468
 10
-1274
 20
468
 10
-1274
 20
574
 10
-1334
 20
574
  0
LWPOLYLINE
  5
EE
100
AcDbEntity
  8
vikna_dveri
  6
ByLayer
 62
  256
370
   -1
100
AcDbPolyline
 90
   21
 70
    0
 43
0
 10
-1305
 20
574
 10
-1305
 20
540
 10
-1334
 20
540
 10
-1334
 20
538
 10
-1305
 20
538
 10
-1305
 20
504
 10
-1334
 20
504
 10
-1334
 20
502
 10
-1305
 20
502
 10
-1305
 20
468
 10
-1303
 20
468
 10
-1303
 20
502
 10
-1274
 20
502
 10
-1274
 20
504
 10
-1303
 20
504
 10
-1303
 20
538
 10
-1274
 20
538
 10
-1274
 20
540
 10
-1303
 20
540
 10
-1303
 20
574
 10
-1305
 20
574
  0
LINE
  5
EF
100
AcDbEntity
  8
styny
  6
ByLayer
 62
  256
370
   -1
100
AcDbLine
 10
-791
 20
40
 11
-791
 21
300
  0
LINE
  5
F0
100
AcDbEntity
  8
styny
  6
ByLayer
 62
  256
370
   -1
100
AcDbLine
 10
-941
 20
40
 11
-941
 21
300
  0
LINE
  5
F1
100
AcDbEntity
  8
styny
  6
ByLayer
 62
  256
370
   -1
100
AcDbLine
 10
-784.8461538461538
 20
324.2307692307691
 11
-791
 21
300
  0
ARC
  5
F2
100
AcDbEntity
  8
styny
  6
ByLayer
 62
  256
370
   -1
100
AcDbCircle
 10
-866
 20
4.687500000000114
 40
304.6874999999999
100
AcDbArc
 50
75.7499673021964
 51
104.2500326978036
  0
LINE
  5
F3
100
AcDbEntity
  8
styny
  6
ByLayer
 62
  256
370
   -1
100
AcDbLine
 10
-947.1538461538462
 20
324.2307692307691
 11
-941
 21
300
  0
ARC
  5
F4
100
AcDbEntity
  8
styny
  6
ByLayer
 62
  256
370
   -1
100
AcDbCircle
 10
-866.0000000000001
 20
4.687500000000227
 40
329.6874999999995
100
AcDbArc
 50
75.74996730219637
 51
104.2500326978036
  0
LINE
  5
F5
100
AcDbEntity
  8
styny
  6
ByLayer
 62
  256
370
   -1
100
AcDbLine
 10
-577
 20
40
 11
-577
 21
300
  0
LINE
  5
F6
100
AcDbEntity
  8
styny
  6
ByLayer
 62
  256
370
   -1
100
AcDbLine
 10
-727
 20
40
 11
-727
 21
300
  0
LINE
  5
F7
100
AcDbEntity
  8
styny
  6
ByLayer
 62
  256
370
   -1
100
AcDbLine
 10
-570.8461538461538
 20
324.2307692307691
 11
-577
 21
300
  0
ARC
  5
F8
100
AcDbEntity
  8
styny
  6
ByLayer
 62
  256
370
   -1
100
AcDbCircle
 10
-652
 20
4.687500000000114
 40
304.6874999999999
100
AcDbArc
 50
75.7499673021964
 51
104.2500326978036
  0
LINE
  5
F9
100
AcDbEntity
  8
styny
  6
ByLayer
 62
  256
370
   -1
100
AcDbLine
 10
-733.1538461538462
 20
324.2307692307691
 11
-727
 21
300
  0
ARC
  5
FA
100
AcDbEntity
  8
styny
  6
ByLayer
 62
  256
370
   -1
100
AcDbCircle
 10
-652.0000000000001
 20
4.687500000000227
 40
329.6874999999995
100
AcDbArc
 50
75.74996730219637
 51
104.2500326978036
  0
LWPOLYLINE
  5
FB
100
AcDbEntity
  8
styny
  6
ByLayer
 62
  256
370
   -1
100
AcDbPolyline
 90
    4
 70
    1
 43
0
 10
-1500
 20
40
 10
-500
 20
40
 10
-500
 20
670
 10
-1500
 20
670
  0
LINE
  5
FC
100
AcDbEntity
  8
styny
  6
ByLayer
 62
  256
370
   -1
100
AcDbLine
 10
-840.1538461538462
 20
611.2307692307695
 11
-834
 21
587.0000000000005
  0
LWPOLYLINE
  5
FD
100
AcDbEntity
  8
vikna_dveri
  6
ByLayer
 62
  256
370
   -1
100
AcDbPolyline
 90
    4
 70
    1
 43
0
 10
-824
 20
468
 10
-764
 20
468
 10
-764
 20
574
 10
-824
 20
574
  0
LWPOLYLINE
  5
FE
100
AcDbEntity
  8
vikna_dveri
  6
ByLayer
 62
  256
370
   -1
100
AcDbPolyline
 90
   21
 70
    0
 43
0
 10
-795
 20
574
 10
-795
 20
540
 10
-824
 20
540
 10
-824
 20
538
 10
-795
 20
538
 10
-795
 20
504
 10
-824
 20
504
 10
-824
 20
502
 10
-795
 20
502
 10
-795
 20
468
 10
-793
 20
468
 10
-793
 20
502
 10
-764
 20
502
 10
-764
 20
504
 10
-793
 20
504
 10
-793
 20
538
 10
-764
 20
538
 10
-764
 20
540
 10
-793
 20
540
 10
-793
 20
574
 10
-795
 20
574
  0
LINE
  5
FF
100
AcDbEntity
  8
styny
  6
ByLayer
 62
  256
370
   -1
100
AcDbLine
 10
-677.8461538461538
 20
611.2307692307695
 11
-684
 21
587.0000000000005
  0
LWPOLYLINE
  5
100
100
AcDbEntity
  8
vikna_dveri
  6
ByLayer
 62
  256
370
   -1
100
AcDbPolyline
 90
    4
 70
    1
 43
0
 10
-839
 20
458
 10
-679
 20
458
 10
-679
 20
452
 10
-839
 20
452
  0
LINE
  5
101
100
AcDbEntity
  8
vikna_dveri
  6
ByLayer
 62
  256
370
   -1
100
AcDbLine
 10
-839
 20
455
 11
-679
 21
455
  0
ARC
  5
102
100
AcDbEntity
  8
styny
  6
ByLayer
 62
  256
370
   -1
100
AcDbCircle
 10
-759
 20
291.6875000000006
 40
304.6874999999999
100
AcDbArc
 50
75.74996730219638
 51
104.2500326978036
  0
ARC
  5
103
100
AcDbEntity
  8
styny
  6
ByLayer
 62
  256
370
   -1
100
AcDbCircle
 10
-758.9999999999994
 20
291.6875000000009
 40
329.6874999999992
100
AcDbArc
 50
75.74996730219648
 51
104.2500326978037
  0
LWPOLYLINE
  5
104
100
AcDbEntity
  8
vikna_dveri
  6
ByLayer
 62
  256
370
   -1
100
AcDbPolyline
 90
    4
 70
    1
 43
0
 10
-754
 20
468
 10
-694
 20
468
 10
-694
 20
574
 10
-754
 20
574
  0
LWPOLYLINE
  5
105
100
AcDbEntity
  8
vikna_dveri
  6
ByLayer
 62
  256
370
   -1
100
AcDbPolyline
 90
   21
 70
    0
 43
0
 10
-725
 20
574
 10
-725
 20
540
 10
-754
 20
540
 10
-754
 20
538
 10
-725
 20
538
 10
-725
 20
504
 10
-754
 20
504
 10
-754
 20
502
 10
-725
 20
502
 10
-725
 20
468
 10
-723
 20
468
 10
-723
 20
502
 10
-694
 20
502
 10
-694
 20
504
 10
-723
 20
504
 10
-723
 20
538
 10
-694
 20
538
 10
-694
 20
540
 10
-723
 20
540
 10
-723
 20
574
 10
-725
 20
574
  0
LINE
  5
106
100
AcDbEntity
  8
vikna_dveri
  6
ByLayer
 62
  256
370
   -1
100
AcDbLine
 10
-1350
 20
455
 11
-1258
 21
455
  0
LWPOLYLINE
  5
107
100
AcDbEntity
  8
vikna_dveri
  6
ByLayer
 62
  256
370
   -1
100
AcDbPolyline
 90
    4
 70
    1
 43
0
 10
-1350
 20
458
 10
-1258
 20
458
 10
-1258
 20
452
 10
-1350
 20
452
  0
LWPOLYLINE
  5
108
100
AcDbEntity
  8
styny
  6
ByLayer
 62
  256
370
   -1
100
AcDbPolyline
 90
   12
 70
    0
 43
0
 10
-1264
 20
587.0000000000005
 10
-1264
 20
458
 10
-1258
 20
458
 10
-1258
 20
452
 10
-1260
 20
452.0000000000006
 10
-1260
 20
443.0000000000001
 10
-1348
 20
443
 10
-1348
 20
452.0000000000005
 10
-1350
 20
452
 10
-1350
 20
458
 10
-1344
 20
458
 10
-1344
 20
587.0000000000005
  0
ARC
  5
109
100
AcDbEntity
  8
styny
  6
ByLayer
 62
  256
370
   -1
100
AcDbCircle
 10
-1056
 20
429.5000000000005
 40
162.5
100
AcDbArc
 50
75.74996730219641
 51
104.2500326978036
  0
ARC
  5
10A
100
AcDbEntity
  8
styny
  6
ByLayer
 62
  256
370
   -1
100
AcDbCircle
 10
-1056
 20
429.5000000000005
 40
187.4999999999995
100
AcDbArc
 50
75.74996730219635
 51
104.2500326978036
  0
LINE
  5
10B
100
AcDbEntity
  8
styny
  6
ByLayer
 62
  256
370
   -1
100
AcDbLine
 10
-1102.153846153846
 20
611.2307692307695
 11
-1096
 21
587.0000000000005
  0
LINE
  5
10C
100
AcDbEntity
  8
styny
  6
ByLayer
 62
  256
370
   -1
100
AcDbLine
 10
-1009.846153846154
 20
611.2307692307695
 11
-1016
 21
587.0000000000005
  0
LWPOLYLINE
  5
10D
100
AcDbEntity
  8
vikna_dveri
  6
ByLayer
 62
  256
370
   -1
100
AcDbPolyline
 90
    4
 70
    1
 43
0
 10
-1086
 20
468
 10
-1026
 20
468
 10
-1026
 20
574
 10
-1086
 20
574
  0
LWPOLYLINE
  5
10E
100
AcDbEntity
  8
vikna_dveri
  6
ByLayer
 62
  256
370
   -1
100
AcDbPolyline
 90
   21
 70
    0
 43
0
 10
-1057
 20
574
 10
-1057
 20
540
 10
-1086
 20
540
 10
-1086
 20
538
 10
-1057
 20
538
 10
-1057
 20
504
 10
-1086
 20
504
 10
-1086
 20
502
 10
-1057
 20
502
 10
-1057
 20
468
 10
-1055
 20
468
 10
-1055
 20
502
 10
-1026
 20
502
 10
-1026
 20
504
 10
-1055
 20
504
 10
-1055
 20
538
 10
-1026
 20
538
 10
-1026
 20
540
 10
-1055
 20
540
 10
-1055
 20
574
 10
-1057
 20
574
  0
LINE
  5
10F
100
AcDbEntity
  8
vikna_dveri
  6
ByLayer
 62
  256
370
   -1
100
AcDbLine
 10
-1102
 20
455
 11
-1010
 21
455
  0
LWPOLYLINE
  5
110
100
AcDbEntity
  8
vikna_dveri
  6
ByLayer
 62
  256
370
   -1
100
AcDbPolyline
 90
    4
 70
    1
 43
0
 10
-1102
 20
458
 10
-1010
 20
458
 10
-1010
 20
452
 10
-1102
 20
452
  0
LWPOLYLINE
  5
111
100
AcDbEntity
  8
styny
  6
ByLayer
 62
  256
370
   -1
100
AcDbPolyline
 90
   12
 70
    0
 43
0
 10
-1016
 20
587.0000000000005
 10
-1016
 20
458
 10
-1010
 20
458
 10
-1010
 20
452
 10
-1012
 20
452.0000000000006
 10
-1012
 20
443.0000000000001
 10
-1100
 20
443
 10
-1100
 20
452.0000000000005
 10
-1102
 20
452
 10
-1102
 20
458
 10
-1096
 20
458
 10
-1096
 20
587.0000000000005
  0
ARC
  5
112
100
AcDbEntity
  8
styny
  6
ByLayer
 62
  256
370
   -1
100
AcDbCircle
 10
-1304
 20
102.5000000000005
 40
162.5
100
AcDbArc
 50
75.74996730219641
 51
104.2500326978036
  0
ARC
  5
113
100
AcDbEntity
  8
styny
  6
ByLayer
 62
  256
370
   -1
100
AcDbCircle
 10
-1304
 20
102.5000000000005
 40
187.4999999999995
100
AcDbArc
 50
75.74996730219635
 51
104.2500326978036
  0
LINE
  5
114
100
AcDbEntity
  8
styny
  6
ByLayer
 62
  256
370
   -1
100
AcDbLine
 10
-1350.153846153846
 20
284.2307692307695
 11
-1344
 21
260.0000000000005
  0
LINE
  5
115
100
AcDbEntity
  8
styny
  6
ByLayer
 62
  256
370
   -1
100
AcDbLine
 10
-1257.846153846154
 20
284.2307692307695
 11
-1264
 21
260.0000000000005
  0
LWPOLYLINE
  5
116
100
AcDbEntity
  8
vikna_dveri
  6
ByLayer
 62
  256
370
   -1
100
AcDbPolyline
 90
    4
 70
    1
 43
0
 10
-1334
 20
141
 10
-1274
 20
141
 10
-1274
 20
247
 10
-1334
 20
247
  0
LWPOLYLINE
  5
117
100
AcDbEntity
  8
vikna_dveri
  6
ByLayer
 62
  256
370
   -1
100
AcDbPolyline
 90
   21
 70
    0
 43
0
 10
-1305
 20
247
 10
-1305
 20
213
 10
-1334
 20
213
 10
-1334
 20
211
 10
-1305
 20
211
 10
-1305
 20
177
 10
-1334
 20
177
 10
-1334
 20
175
 10
-1305
 20
175
 10
-1305
 20
141
 10
-1303
 20
141
 10
-1303
 20
175
 10
-1274
 20
175
 10
-1274
 20
177
 10
-1303
 20
177
 10
-1303
 20
211
 10
-1274
 20
211
 10
-1274
 20
213
 10
-1303
 20
213
 10
-1303
 20
247
 10
-1305
 20
247
  0
LINE
  5
118
100
AcDbEntity
  8
vikna_dveri
  6
ByLayer
 62
  256
370
   -1
100
AcDbLine
 10
-1350
 20
128
 11
-1258
 21
128
  0
LWPOLYLINE
  5
119
100
AcDbEntity
  8
vikna_dveri
  6
ByLayer
 62
  256
370
   -1
100
AcDbPolyline
 90
    4
 70
    1
 43
0
 10
-1350
 20
131
 10
-1258
 20
131
 10
-1258
 20
125
 10
-1350
 20
125
  0
LWPOLYLINE
  5
11A
100
AcDbEntity
  8
styny
  6
ByLayer
 62
  256
370
   -1
100
AcDbPolyline
 90
   12
 70
    0
 43
0
 10
-1264
 20
260.0000000000005
 10
-1264
 20
131
 10
-1258
 20
131
 10
-1258
 20
125
 10
-1260
 20
125.0000000000006
 10
-1260
 20
116.0000000000001
 10
-1348
 20
116
 10
-1348
 20
125.0000000000005
 10
-1350
 20
125
 10
-1350
 20
131
 10
-1344
 20
131
 10
-1344
 20
260.0000000000005
  0
ARC
  5
11B
100
AcDbEntity
  8
styny
  6
ByLayer
 62
  256
370
   -1
100
AcDbCircle
 10
-1056
 20
102.5000000000005
 40
162.5
100
AcDbArc
 50
75.74996730219641
 51
104.2500326978036
  0
ARC
  5
11C
100
AcDbEntity
  8
styny
  6
ByLayer
 62
  256
370
   -1
100
AcDbCircle
 10
-1056
 20
102.5000000000005
 40
187.4999999999995
100
AcDbArc
 50
75.74996730219635
 51
104.2500326978036
  0
LINE
  5
11D
100
AcDbEntity
  8
styny
  6
ByLayer
 62
  256
370
   -1
100
AcDbLine
 10
-1102.153846153846
 20
284.2307692307695
 11
-1096
 21
260.0000000000005
  0
LINE
  5
11E
100
AcDbEntity
  8
styny
  6
ByLayer
 62
  256
370
   -1
100
AcDbLine
 10
-1009.846153846154
 20
284.2307692307695
 11
-1016
 21
260.0000000000005
  0
LWPOLYLINE
  5
11F
100
AcDbEntity
  8
vikna_dveri
  6
ByLayer
 62
  256
370
   -1
100
AcDbPolyline
 90
    4
 70
    1
 43
0
 10
-1086
 20
141
 10
-1026
 20
141
 10
-1026
 20
247
 10
-1086
 20
247
  0
LWPOLYLINE
  5
120
100
AcDbEntity
  8
vikna_dveri
  6
ByLayer
 62
  256
370
   -1
100
AcDbPolyline
 90
   21
 70
    0
 43
0
 10
-1057
 20
247
 10
-1057
 20
213
 10
-1086
 20
213
 10
-1086
 20
211
 10
-1057
 20
211
 10
-1057
 20
177
 10
-1086
 20
177
 10
-1086
 20
175
 10
-1057
 20
175
 10
-1057
 20
141
 10
-1055
 20
141
 10
-1055
 20
175
 10
-1026
 20
175
 10
-1026
 20
177
 10
-1055
 20
177
 10
-1055
 20
211
 10
-1026
 20
211
 10
-1026
 20
213
 10
-1055
 20
213
 10
-1055
 20
247
 10
-1057
 20
247
  0
LINE
  5
121
100
AcDbEntity
  8
vikna_dveri
  6
ByLayer
 62
  256
370
   -1
100
AcDbLine
 10
-1102
 20
128
 11
-1010
 21
128
  0
LWPOLYLINE
  5
122
100
AcDbEntity
  8
vikna_dveri
  6
ByLayer
 62
  256
370
   -1
100
AcDbPolyline
 90
    4
 70
    1
 43
0
 10
-1102
 20
131
 10
-1010
 20
131
 10
-1010
 20
125
 10
-1102
 20
125
  0
LWPOLYLINE
  5
123
100
AcDbEntity
  8
styny
  6
ByLayer
 62
  256
370
   -1
100
AcDbPolyline
 90
   12
 70
    0
 43
0
 10
-1016
 20
260.0000000000005
 10
-1016
 20
131
 10
-1010
 20
131
 10
-1010
 20
125
 10
-1012
 20
125.0000000000006
 10
-1012
 20
116.0000000000001
 10
-1100
 20
116
 10
-1100
 20
125.0000000000005
 10
-1102
 20
125
 10
-1102
 20
131
 10
-1096
 20
131
 10
-1096
 20
260.0000000000005
  0
LWPOLYLINE
  5
124
100
AcDbEntity
  8
styny
  6
ByLayer
 62
  256
370
   -1
100
AcDbPolyline
 90
   12
 70
    0
 43
0
 10
-684
 20
587.0000000000005
 10
-684
 20
458
 10
-679
 20
458
 10
-679
 20
452
 10
-681
 20
452
 10
-681
 20
442.9999999999995
 10
-837
 20
443
 10
-837
 20
452.0000000000005
 10
-839
 20
452
 10
-839
 20
458
 10
-834
 20
458
 10
-834
 20
587.0000000000005
  0
LWPOLYLINE
  5
125
100
AcDbEntity
  8
decor
  6
ByLayer
 62
  256
370
   -1
100
AcDbPolyline
 90
    4
 70
    1
 43
0
 10
0
 20
0
 10
1050
 20
0
 10
1050
 20
40
 10
0
 20
40
  0
LWPOLYLINE
  5
126
100
AcDbEntity
  8
styny
  6
ByLayer
 62
  256
370
   -1
100
AcDbPolyline
 90
    4
 70
    1
 43
0
 10
0
 20
40
 10
1050
 20
40
 10
1050
 20
670
 10
0
 20
670
  0
ARC
  5
127
100
AcDbEntity
  8
styny
  6
ByLayer
 62
  256
370
   -1
100
AcDbCircle
 10
197
 20
429.5000000000005
 40
162.5
100
AcDbArc
 50
75.74996730219641
 51
104.2500326978036
  0
ARC
  5
128
100
AcDbEntity
  8
styny
  6
ByLayer
 62
  256
370
   -1
100
AcDbCircle
 10
197
 20
429.5000000000005
 40
187.4999999999995
100
AcDbArc
 50
75.74996730219635
 51
104.2500326978036
  0
LINE
  5
129
100
AcDbEntity
  8
styny
  6
ByLayer
 62
  256
370
   -1
100
AcDbLine
 10
150.846153846154
 20
611.2307692307695
 11
157
 21
587.0000000000005
  0
LINE
  5
12A
100
AcDbEntity
  8
styny
  6
ByLayer
 62
  256
370
   -1
100
AcDbLine
 10
243.153846153846
 20
611.2307692307695
 11
237
 21
587.0000000000005
  0
LWPOLYLINE
  5
12B
100
AcDbEntity
  8
vikna_dveri
  6
ByLayer
 62
  256
370
   -1
100
AcDbPolyline
 90
    4
 70
    1
 43
0
 10
167
 20
468
 10
227
 20
468
 10
227
 20
574
 10
167
 20
574
  0
LWPOLYLINE
  5
12C
100
AcDbEntity
  8
vikna_dveri
  6
ByLayer
 62
  256
370
   -1
100
AcDbPolyline
 90
   21
 70
    0
 43
0
 10
196
 20
574
 10
196
 20
540
 10
167
 20
540
 10
167
 20
538
 10
196
 20
538
 10
196
 20
504
 10
167
 20
504
 10
167
 20
502
 10
196
 20
502
 10
196
 20
468
 10
198
 20
468
 10
198
 20
502
 10
227
 20
502
 10
227
 20
504
 10
198
 20
504
 10
198
 20
538
 10
227
 20
538
 10
227
 20
540
 10
198
 20
540
 10
198
 20
574
 10
196
 20
574
  0
LINE
  5
12D
100
AcDbEntity
  8
vikna_dveri
  6
ByLayer
 62
  256
370
   -1
100
AcDbLine
 10
151
 20
455
 11
243
 21
455
  0
LWPOLYLINE
  5
12E
100
AcDbEntity
  8
vikna_dveri
  6
ByLayer
 62
  256
370
   -1
100
AcDbPolyline
 90
    4
 70
    1
 43
0
 10
151
 20
458
 10
243
 20
458
 10
243
 20
452
 10
151
 20
452
  0
LWPOLYLINE
  5
12F
100
AcDbEntity
  8
styny
  6
ByLayer
 62
  256
370
   -1
100
AcDbPolyline
 90
   12
 70
    0
 43
0
 10
237
 20
587.0000000000005
 10
237
 20
458
 10
243
 20
458
 10
243
 20
452
 10
241
 20
452.0000000000006
 10
241
 20
443.0000000000001
 10
153
 20
443
 10
153
 20
452.0000000000005
 10
151
 20
452
 10
151
 20
458
 10
157
 20
458
 10
157
 20
587.0000000000005
  0
ARC
  5
130
100
AcDbEntity
  8
styny
  6
ByLayer
 62
  256
370
   -1
100
AcDbCircle
 10
197
 20
102.5000000000005
 40
162.5
100
AcDbArc
 50
75.74996730219641
 51
104.2500326978036
  0
ARC
  5
131
100
AcDbEntity
  8
styny
  6
ByLayer
 62
  256
370
   -1
100
AcDbCircle
 10
197
 20
102.5000000000005
 40
187.4999999999995
100
AcDbArc
 50
75.74996730219635
 51
104.2500326978036
  0
LINE
  5
132
100
AcDbEntity
  8
styny
  6
ByLayer
 62
  256
370
   -1
100
AcDbLine
 10
150.846153846154
 20
284.2307692307695
 11
157
 21
260.0000000000005
  0
LINE
  5
133
100
AcDbEntity
  8
styny
  6
ByLayer
 62
  256
370
   -1
100
AcDbLine
 10
243.153846153846
 20
284.2307692307695
 11
237
 21
260.0000000000005
  0
LWPOLYLINE
  5
134
100
AcDbEntity
  8
vikna_dveri
  6
ByLayer
 62
  256
370
   -1
100
AcDbPolyline
 90
    4
 70
    1
 43
0
 10
167
 20
141
 10
227
 20
141
 10
227
 20
247
 10
167
 20
247
  0
LWPOLYLINE
  5
135
100
AcDbEntity
  8
vikna_dveri
  6
ByLayer
 62
  256
370
   -1
100
AcDbPolyline
 90
   21
 70
    0
 43
0
 10
196
 20
247
 10
196
 20
213
 10
167
 20
213
 10
167
 20
211
 10
196
 20
211
 10
196
 20
177
 10
167
 20
177
 10
167
 20
175
 10
196
 20
175
 10
196
 20
141
 10
198
 20
141
 10
198
 20
175
 10
227
 20
175
 10
227
 20
177
 10
198
 20
177
 10
198
 20
211
 10
227
 20
211
 10
227
 20
213
 10
198
 20
213
 10
198
 20
247
 10
196
 20
247
  0
LINE
  5
136
100
AcDbEntity
  8
vikna_dveri
  6
ByLayer
 62
  256
370
   -1
100
AcDbLine
 10
151
 20
128
 11
243
 21
128
  0
LWPOLYLINE
  5
137
100
AcDbEntity
  8
vikna_dveri
  6
ByLayer
 62
  256
370
   -1
100
AcDbPolyline
 90
    4
 70
    1
 43
0
 10
151
 20
131
 10
243
 20
131
 10
243
 20
125
 10
151
 20
125
  0
LWPOLYLINE
  5
138
100
AcDbEntity
  8
styny
  6
ByLayer
 62
  256
370
   -1
100
AcDbPolyline
 90
   12
 70
    0
 43
0
 10
237
 20
260.0000000000005
 10
237
 20
131
 10
243
 20
131
 10
243
 20
125
 10
241
 20
125.0000000000006
 10
241
 20
116.0000000000001
 10
153
 20
116
 10
153
 20
125.0000000000005
 10
151
 20
125
 10
151
 20
131
 10
157
 20
131
 10
157
 20
260.0000000000005
  0
ARC
  5
139
100
AcDbEntity
  8
styny
  6
ByLayer
 62
  256
370
   -1
100
AcDbCircle
 10
468
 20
429.5000000000005
 40
162.5
100
AcDbArc
 50
75.74996730219641
 51
104.2500326978036
  0
ARC
  5
13A
100
AcDbEntity
  8
styny
  6
ByLayer
 62
  256
370
   -1
100
AcDbCircle
 10
468
 20
429.5000000000005
 40
187.4999999999995
100
AcDbArc
 50
75.74996730219635
 51
104.2500326978036
  0
LINE
  5
13B
100
AcDbEntity
  8
styny
  6
ByLayer
 62
  256
370
   -1
100
AcDbLine
 10
421.846153846154
 20
611.2307692307695
 11
428
 21
587.0000000000005
  0
LINE
  5
13C
100
AcDbEntity
  8
styny
  6
ByLayer
 62
  256
370
   -1
100
AcDbLine
 10
514.153846153846
 20
611.2307692307695
 11
508
 21
587.0000000000005
  0
LWPOLYLINE
  5
13D
100
AcDbEntity
  8
vikna_dveri
  6
ByLayer
 62
  256
370
   -1
100
AcDbPolyline
 90
    4
 70
    1
 43
0
 10
438
 20
468
 10
498
 20
468
 10
498
 20
574
 10
438
 20
574
  0
LWPOLYLINE
  5
13E
100
AcDbEntity
  8
vikna_dveri
  6
ByLayer
 62
  256
370
   -1
100
AcDbPolyline
 90
   21
 70
    0
 43
0
 10
467
 20
574
 10
467
 20
540
 10
438
 20
540
 10
438
 20
538
 10
467
 20
538
 10
467
 20
504
 10
438
 20
504
 10
438
 20
502
 10
467
 20
502
 10
467
 20
468
 10
469
 20
468
 10
469
 20
502
 10
498
 20
502
 10
498
 20
504
 10
469
 20
504
 10
469
 20
538
 10
498
 20
538
 10
498
 20
540
 10
469
 20
540
 10
469
 20
574
 10
467
 20
574
  0
LINE
  5
13F
100
AcDbEntity
  8
vikna_dveri
  6
ByLayer
 62
  256
370
   -1
100
AcDbLine
 10
422
 20
455
 11
514
 21
455
  0
LWPOLYLINE
  5
140
100
AcDbEntity
  8
vikna_dveri
  6
ByLayer
 62
  256
370
   -1
100
AcDbPolyline
 90
    4
 70
    1
 43
0
 10
422
 20
458
 10
514
 20
458
 10
514
 20
452
 10
422
 20
452
  0
LWPOLYLINE
  5
141
100
AcDbEntity
  8
styny
  6
ByLayer
 62
  256
370
   -1
100
AcDbPolyline
 90
   12
 70
    0
 43
0
 10
508
 20
587.0000000000005
 10
508
 20
458
 10
514
 20
458
 10
514
 20
452
 10
512
 20
452.0000000000006
 10
512
 20
443.0000000000001
 10
424
 20
443
 10
424
 20
452.0000000000005
 10
422
 20
452
 10
422
 20
458
 10
428
 20
458
 10
428
 20
587.0000000000005
  0
LINE
  5
142
100
AcDbEntity
  8
styny
  6
ByLayer
 62
  256
370
   -1
100
AcDbLine
 10
653.8461538461538
 20
613.2307692307695
 11
660
 21
589.0000000000005
  0
LINE
  5
143
100
AcDbEntity
  8
styny
  6
ByLayer
 62
  256
370
   -1
100
AcDbLine
 10
653.8461538461538
 20
286.2307692307695
 11
660
 21
262.0000000000005
  0
LWPOLYLINE
  5
144
100
AcDbEntity
  8
decor
  6
ByLayer
 62
  256
370
   -1
100
AcDbPolyline
 90
    4
 70
    1
 43
0
 10
-1500
 20
-1000
 10
-500
 20
-1000
 10
-500
 20
-960
 10
-1500
 20
-960
  0
LWPOLYLINE
  5
145
100
AcDbEntity
  8
styny
  6
ByLayer
 62
  256
370
   -1
100
AcDbPolyline
 90
    4
 70
    1
 43
0
 10
-1500
 20
-960
 10
-500
 20
-960
 10
-500
 20
-330
 10
-1500
 20
-330
  0
ARC
  5
146
100
AcDbEntity
  8
styny
  6
ByLayer
 62
  256
370
   -1
100
AcDbCircle
 10
-896
 20
-570.4999999999995
 40
162.5
100
AcDbArc
 50
75.74996730219641
 51
104.2500326978036
  0
ARC
  5
147
100
AcDbEntity
  8
styny
  6
ByLayer
 62
  256
370
   -1
100
AcDbCircle
 10
-896
 20
-570.4999999999995
 40
187.4999999999995
100
AcDbArc
 50
75.74996730219635
 51
104.2500326978036
  0
LINE
  5
148
100
AcDbEntity
  8
styny
  6
ByLayer
 62
  256
370
   -1
100
AcDbLine
 10
-942.153846153846
 20
-388.7692307692305
 11
-936
 21
-412.9999999999995
  0
LINE
  5
149
100
AcDbEntity
  8
styny
  6
ByLayer
 62
  256
370
   -1
100
AcDbLine
 10
-849.846153846154
 20
-388.7692307692305
 11
-856
 21
-412.9999999999995
  0
LWPOLYLINE
  5
14A
100
AcDbEntity
  8
vikna_dveri
  6
ByLayer
 62
  256
370
   -1
100
AcDbPolyline
 90
    4
 70
    1
 43
0
 10
-926
 20
-532
 10
-866
 20
-532
 10
-866
 20
-426
 10
-926
 20
-426
  0
LWPOLYLINE
  5
14B
100
AcDbEntity
  8
vikna_dveri
  6
ByLayer
 62
  256
370
   -1
100
AcDbPolyline
 90
   21
 70
    0
 43
0
 10
-897
 20
-426
 10
-897
 20
-460
 10
-926
 20
-460
 10
-926
 20
-462
 10
-897
 20
-462
 10
-897
 20
-496
 10
-926
 20
-496
 10
-926
 20
-498
 10
-897
 20
-498
 10
-897
 20
-532
 10
-895
 20
-532
 10
-895
 20
-498
 10
-866
 20
-498
 10
-866
 20
-496
 10
-895
 20
-496
 10
-895
 20
-462
 10
-866
 20
-462
 10
-866
 20
-460
 10
-895
 20
-460
 10
-895
 20
-426
 10
-897
 20
-426
  0
LINE
  5
14C
100
AcDbEntity
  8
vikna_dveri
  6
ByLayer
 62
  256
370
   -1
100
AcDbLine
 10
-942
 20
-545
 11
-850
 21
-545
  0
LWPOLYLINE
  5
14D
100
AcDbEntity
  8
vikna_dveri
  6
ByLayer
 62
  256
370
   -1
100
AcDbPolyline
 90
    4
 70
    1
 43
0
 10
-942
 20
-542
 10
-850
 20
-542
 10
-850
 20
-548
 10
-942
 20
-548
  0
LWPOLYLINE
  5
14E
100
AcDbEntity
  8
styny
  6
ByLayer
 62
  256
370
   -1
100
AcDbPolyline
 90
   12
 70
    0
 43
0
 10
-856
 20
-412.9999999999995
 10
-856
 20
-542
 10
-850
 20
-542
 10
-850
 20
-548
 10
-852
 20
-547.9999999999994
 10
-852
 20
-557
 10
-940
 20
-557
 10
-940
 20
-547.9999999999995
 10
-942
 20
-548
 10
-942
 20
-542
 10
-936
 20
-542
 10
-936
 20
-412.9999999999995
  0
ARC
  5
14F
100
AcDbEntity
  8
styny
  6
ByLayer
 62
  256
370
   -1
100
AcDbCircle
 10
-896
 20
-897.4999999999995
 40
162.5
100
AcDbArc
 50
75.74996730219641
 51
104.2500326978036
  0
ARC
  5
150
100
AcDbEntity
  8
styny
  6
ByLayer
 62
  256
370
   -1
100
AcDbCircle
 10
-896
 20
-897.4999999999995
 40
187.4999999999995
100
AcDbArc
 50
75.74996730219635
 51
104.2500326978036
  0
LINE
  5
151
100
AcDbEntity
  8
styny
  6
ByLayer
 62
  256
370
   -1
100
AcDbLine
 10
-942.153846153846
 20
-715.7692307692305
 11
-936
 21
-739.9999999999995
  0
LINE
  5
152
100
AcDbEntity
  8
styny
  6
ByLayer
 62
  256
370
   -1
100
AcDbLine
 10
-849.846153846154
 20
-715.7692307692305
 11
-856
 21
-739.9999999999995
  0
LWPOLYLINE
  5
153
100
AcDbEntity
  8
vikna_dveri
  6
ByLayer
 62
  256
370
   -1
100
AcDbPolyline
 90
    4
 70
    1
 43
0
 10
-926
 20
-859
 10
-866
 20
-859
 10
-866
 20
-753
 10
-926
 20
-753
  0
LWPOLYLINE
  5
154
100
AcDbEntity
  8
vikna_dveri
  6
ByLayer
 62
  256
370
   -1
100
AcDbPolyline
 90
   21
 70
    0
 43
0
 10
-897
 20
-753
 10
-897
 20
-787
 10
-926
 20
-787
 10
-926
 20
-789
 10
-897
 20
-789
 10
-897
 20
-823
 10
-926
 20
-823
 10
-926
 20
-825
 10
-897
 20
-825
 10
-897
 20
-859
 10
-895
 20
-859
 10
-895
 20
-825
 10
-866
 20
-825
 10
-866
 20
-823
 10
-895
 20
-823
 10
-895
 20
-789
 10
-866
 20
-789
 10
-866
 20
-787
 10
-895
 20
-787
 10
-895
 20
-753
 10
-897
 20
-753
  0
LINE
  5
155
100
AcDbEntity
  8
vikna_dveri
  6
ByLayer
 62
  256
370
   -1
100
AcDbLine
 10
-942
 20
-872
 11
-850
 21
-872
  0
LWPOLYLINE
  5
156
100
AcDbEntity
  8
vikna_dveri
  6
ByLayer
 62
  256
370
   -1
100
AcDbPolyline
 90
    4
 70
    1
 43
0
 10
-942
 20
-869
 10
-850
 20
-869
 10
-850
 20
-875
 10
-942
 20
-875
  0
LWPOLYLINE
  5
157
100
AcDbEntity
  8
styny
  6
ByLayer
 62
  256
370
   -1
100
AcDbPolyline
 90
   12
 70
    0
 43
0
 10
-856
 20
-739.9999999999995
 10
-856
 20
-869
 10
-850
 20
-869
 10
-850
 20
-875
 10
-852
 20
-874.9999999999994
 10
-852
 20
-884
 10
-940
 20
-884
 10
-940
 20
-874.9999999999995
 10
-942
 20
-875
 10
-942
 20
-869
 10
-936
 20
-869
 10
-936
 20
-739.9999999999995
  0
LWPOLYLINE
  5
158
100
AcDbEntity
  8
face
  6
ByLayer
 62
  256
370
   -1
100
AcDbPolyline
 90
    8
 70
    0
 43
0
 10
2300
 20
8.881784197001252e-16
 10
2223
 20
8.881784197001252e-16
 10
2223
 20
63
 10
2237
 20
63
 10
2237
 20
77
 10
2237
 20
77
 10
2300
 20
77
 10
2300
 20
8.881784197001252e-16
  0
LWPOLYLINE
  5
159
100
AcDbEntity
  8
face
  6
ByLayer
 62
  256
370
   -1
100
AcDbPolyline
 90
    7
 70
    0
 43
0
 10
2288
 20
12
 10
2235
 20
12
 10
2235
 20
51
 10
2249
 20
51
 10
2249
 20
65
 10
2288
 20
65
 10
2288
 20
12
  0
LINE
  5
15A
100
AcDbEntity
  8
0
  6
ByLayer
 62
  256
370
   -1
100
AcDbLine
 10
1500
 20
-872
 11
1940
 21
-872
  0
LINE
  5
15B
100
AcDbEntity
  8
0
  6
ByLayer
 62
  256
370
   -1
100
AcDbLine
 10
1500
 20
-545
 11
1940
 21
-545
  0
LWPOLYLINE
  5
15C
100
AcDbEntity
  8
decor
  6
ByLayer
 62
  256
370
   -1
100
AcDbPolyline
 90
    4
 70
    1
 43
0
 10
0
 20
-1000
 10
1050
 20
-1000
 10
1050
 20
-960
 10
0
 20
-960
  0
LWPOLYLINE
  5
15D
100
AcDbEntity
  8
styny
  6
ByLayer
 62
  256
370
   -1
100
AcDbPolyline
 90
    4
 70
    1
 43
0
 10
0
 20
-960
 10
1050
 20
-960
 10
1050
 20
-330
 10
0
 20
-330
  0
LINE
  5
15E
100
AcDbEntity
  8
styny
  6
ByLayer
 62
  256
370
   -1
100
AcDbLine
 10
227
 20
-960
 11
227
 21
-700
  0
LINE
  5
15F
100
AcDbEntity
  8
styny
  6
ByLayer
 62
  256
370
   -1
100
AcDbLine
 10
77
 20
-960
 11
77
 21
-700
  0
LINE
  5
160
100
AcDbEntity
  8
styny
  6
ByLayer
 62
  256
370
   -1
100
AcDbLine
 10
233.1538461538462
 20
-675.7692307692309
 11
227
 21
-700
  0
ARC
  5
161
100
AcDbEntity
  8
styny
  6
ByLayer
 62
  256
370
   -1
100
AcDbCircle
 10
152
 20
-995.3125
 40
304.6874999999999
100
AcDbArc
 50
75.7499673021964
 51
104.2500326978036
  0
LINE
  5
162
100
AcDbEntity
  8
styny
  6
ByLayer
 62
  256
370
   -1
100
AcDbLine
 10
70.84615384615381
 20
-675.7692307692309
 11
77
 21
-700
  0
ARC
  5
163
100
AcDbEntity
  8
styny
  6
ByLayer
 62
  256
370
   -1
100
AcDbCircle
 10
151.9999999999999
 20
-995.3124999999998
 40
329.6874999999995
100
AcDbArc
 50
75.74996730219637
 51
104.2500326978036
  0
ARC
  5
164
100
AcDbEntity
  8
styny
  6
ByLayer
 62
  256
370
   -1
100
AcDbCircle
 10
396
 20
-570.4999999999995
 40
162.5
100
AcDbArc
 50
75.74996730219641
 51
104.2500326978036
  0
ARC
  5
165
100
AcDbEntity
  8
styny
  6
ByLayer
 62
  256
370
   -1
100
AcDbCircle
 10
396
 20
-570.4999999999995
 40
187.4999999999995
100
AcDbArc
 50
75.74996730219635
 51
104.2500326978036
  0
LINE
  5
166
100
AcDbEntity
  8
styny
  6
ByLayer
 62
  256
370
   -1
100
AcDbLine
 10
349.846153846154
 20
-388.7692307692305
 11
356
 21
-412.9999999999995
  0
LINE
  5
167
100
AcDbEntity
  8
styny
  6
ByLayer
 62
  256
370
   -1
100
AcDbLine
 10
442.153846153846
 20
-388.7692307692305
 11
436
 21
-412.9999999999995
  0
LWPOLYLINE
  5
168
100
AcDbEntity
  8
vikna_dveri
  6
ByLayer
 62
  256
370
   -1
100
AcDbPolyline
 90
    4
 70
    1
 43
0
 10
366
 20
-532
 10
426
 20
-532
 10
426
 20
-426
 10
366
 20
-426
  0
LWPOLYLINE
  5
169
100
AcDbEntity
  8
vikna_dveri
  6
ByLayer
 62
  256
370
   -1
100
AcDbPolyline
 90
   21
 70
    0
 43
0
 10
395
 20
-426
 10
395
 20
-460
 10
366
 20
-460
 10
366
 20
-462
 10
395
 20
-462
 10
395
 20
-496
 10
366
 20
-496
 10
366
 20
-498
 10
395
 20
-498
 10
395
 20
-532
 10
397
 20
-532
 10
397
 20
-498
 10
426
 20
-498
 10
426
 20
-496
 10
397
 20
-496
 10
397
 20
-462
 10
426
 20
-462
 10
426
 20
-460
 10
397
 20
-460
 10
397
 20
-426
 10
395
 20
-426
  0
LINE
  5
16A
100
AcDbEntity
  8
vikna_dveri
  6
ByLayer
 62
  256
370
   -1
100
AcDbLine
 10
350
 20
-545
 11
442
 21
-545
  0
LWPOLYLINE
  5
16B
100
AcDbEntity
  8
vikna_dveri
  6
ByLayer
 62
  256
370
   -1
100
AcDbPolyline
 90
    4
 70
    1
 43
0
 10
350
 20
-542
 10
442
 20
-542
 10
442
 20
-548
 10
350
 20
-548
  0
LWPOLYLINE
  5
16C
100
AcDbEntity
  8
styny
  6
ByLayer
 62
  256
370
   -1
100
AcDbPolyline
 90
   12
 70
    0
 43
0
 10
436
 20
-412.9999999999995
 10
436
 20
-542
 10
442
 20
-542
 10
442
 20
-548
 10
440
 20
-547.9999999999995
 10
440
 20
-557
 10
352
 20
-557
 10
352
 20
-547.9999999999995
 10
350
 20
-548
 10
350
 20
-542
 10
356
 20
-542
 10
356
 20
-412.9999999999995
  0
ARC
  5
16D
100
AcDbEntity
  8
styny
  6
ByLayer
 62
  256
370
   -1
100
AcDbCircle
 10
639
 20
-570.4999999999995
 40
162.5
100
AcDbArc
 50
75.74996730219641
 51
104.2500326978036
  0
ARC
  5
16E
100
AcDbEntity
  8
styny
  6
ByLayer
 62
  256
370
   -1
100
AcDbCircle
 10
639
 20
-570.4999999999995
 40
187.4999999999995
100
AcDbArc
 50
75.74996730219635
 51
104.2500326978036
  0
LINE
  5
16F
100
AcDbEntity
  8
styny
  6
ByLayer
 62
  256
370
   -1
100
AcDbLine
 10
592.846153846154
 20
-388.7692307692305
 11
599
 21
-412.9999999999995
  0
LINE
  5
170
100
AcDbEntity
  8
styny
  6
ByLayer
 62
  256
370
   -1
100
AcDbLine
 10
685.153846153846
 20
-388.7692307692305
 11
679
 21
-412.9999999999995
  0
LWPOLYLINE
  5
171
100
AcDbEntity
  8
vikna_dveri
  6
ByLayer
 62
  256
370
   -1
100
AcDbPolyline
 90
    4
 70
    1
 43
0
 10
609
 20
-532
 10
669
 20
-532
 10
669
 20
-426
 10
609
 20
-426
  0
LWPOLYLINE
  5
172
100
AcDbEntity
  8
vikna_dveri
  6
ByLayer
 62
  256
370
   -1
100
AcDbPolyline
 90
   21
 70
    0
 43
0
 10
638
 20
-426
 10
638
 20
-460
 10
609
 20
-460
 10
609
 20
-462
 10
638
 20
-462
 10
638
 20
-496
 10
609
 20
-496
 10
609
 20
-498
 10
638
 20
-498
 10
638
 20
-532
 10
640
 20
-532
 10
640
 20
-498
 10
669
 20
-498
 10
669
 20
-496
 10
640
 20
-496
 10
640
 20
-462
 10
669
 20
-462
 10
669
 20
-460
 10
640
 20
-460
 10
640
 20
-426
 10
638
 20
-426
  0
LINE
  5
173
100
AcDbEntity
  8
vikna_dveri
  6
ByLayer
 62
  256
370
   -1
100
AcDbLine
 10
593
 20
-545
 11
685
 21
-545
  0
LWPOLYLINE
  5
174
100
AcDbEntity
  8
vikna_dveri
  6
ByLayer
 62
  256
370
   -1
100
AcDbPolyline
 90
    4
 70
    1
 43
0
 10
593
 20
-542
 10
685
 20
-542
 10
685
 20
-548
 10
593
 20
-548
  0
LWPOLYLINE
  5
175
100
AcDbEntity
  8
styny
  6
ByLayer
 62
  256
370
   -1
100
AcDbPolyline
 90
   12
 70
    0
 43
0
 10
679
 20
-412.9999999999995
 10
679
 20
-542
 10
685
 20
-542
 10
685
 20
-548
 10
683
 20
-547.9999999999995
 10
683
 20
-557
 10
595
 20
-557
 10
595
 20
-547.9999999999995
 10
593
 20
-548
 10
593
 20
-542
 10
599
 20
-542
 10
599
 20
-412.9999999999995
  0
ARC
  5
176
100
AcDbEntity
  8
styny
  6
ByLayer
 62
  256
370
   -1
100
AcDbCircle
 10
881
 20
-570.4999999999995
 40
162.5
100
AcDbArc
 50
75.74996730219641
 51
104.2500326978036
  0
ARC
  5
177
100
AcDbEntity
  8
styny
  6
ByLayer
 62
  256
370
   -1
100
AcDbCircle
 10
881
 20
-570.4999999999995
 40
187.4999999999995
100
AcDbArc
 50
75.74996730219635
 51
104.2500326978036
  0
LINE
  5
178
100
AcDbEntity
  8
styny
  6
ByLayer
 62
  256
370
   -1
100
AcDbLine
 10
834.846153846154
 20
-388.7692307692305
 11
841
 21
-412.9999999999995
  0
LINE
  5
179
100
AcDbEntity
  8
styny
  6
ByLayer
 62
  256
370
   -1
100
AcDbLine
 10
927.153846153846
 20
-388.7692307692305
 11
921
 21
-412.9999999999995
  0
LWPOLYLINE
  5
17A
100
AcDbEntity
  8
vikna_dveri
  6
ByLayer
 62
  256
370
   -1
100
AcDbPolyline
 90
    4
 70
    1
 43
0
 10
851
 20
-532
 10
911
 20
-532
 10
911
 20
-426
 10
851
 20
-426
  0
LWPOLYLINE
  5
17B
100
AcDbEntity
  8
vikna_dveri
  6
ByLayer
 62
  256
370
   -1
100
AcDbPolyline
 90
   21
 70
    0
 43
0
 10
880
 20
-426
 10
880
 20
-460
 10
851
 20
-460
 10
851
 20
-462
 10
880
 20
-462
 10
880
 20
-496
 10
851
 20
-496
 10
851
 20
-498
 10
880
 20
-498
 10
880
 20
-532
 10
882
 20
-532
 10
882
 20
-498
 10
911
 20
-498
 10
911
 20
-496
 10
882
 20
-496
 10
882
 20
-462
 10
911
 20
-462
 10
911
 20
-460
 10
882
 20
-460
 10
882
 20
-426
 10
880
 20
-426
  0
LINE
  5
17C
100
AcDbEntity
  8
vikna_dveri
  6
ByLayer
 62
  256
370
   -1
100
AcDbLine
 10
835
 20
-545
 11
927
 21
-545
  0
LWPOLYLINE
  5
17D
100
AcDbEntity
  8
vikna_dveri
  6
ByLayer
 62
  256
370
   -1
100
AcDbPolyline
 90
    4
 70
    1
 43
0
 10
835
 20
-542
 10
927
 20
-542
 10
927
 20
-548
 10
835
 20
-548
  0
LWPOLYLINE
  5
17E
100
AcDbEntity
  8
styny
  6
ByLayer
 62
  256
370
   -1
100
AcDbPolyline
 90
   12
 70
    0
 43
0
 10
921
 20
-412.9999999999995
 10
921
 20
-542
 10
927
 20
-542
 10
927
 20
-548
 10
925
 20
-547.9999999999995
 10
925
 20
-557
 10
837
 20
-557
 10
837
 20
-547.9999999999995
 10
835
 20
-548
 10
835
 20
-542
 10
841
 20
-542
 10
841
 20
-412.9999999999995
  0
LINE
  5
17F
100
AcDbEntity
  8
styny
  6
ByLayer
 62
  256
370
   -1
100
AcDbLine
 10
389.8461538461538
 20
-715.7692307692305
 11
396
 21
-739.9999999999995
  0
LWPOLYLINE
  5
180
100
AcDbEntity
  8
vikna_dveri
  6
ByLayer
 62
  256
370
   -1
100
AcDbPolyline
 90
    4
 70
    1
 43
0
 10
406
 20
-859
 10
466
 20
-859
 10
466
 20
-753
 10
406
 20
-753
  0
LWPOLYLINE
  5
181
100
AcDbEntity
  8
vikna_dveri
  6
ByLayer
 62
  256
370
   -1
100
AcDbPolyline
 90
   21
 70
    0
 43
0
 10
435
 20
-753
 10
435
 20
-787
 10
406
 20
-787
 10
406
 20
-789
 10
435
 20
-789
 10
435
 20
-823
 10
406
 20
-823
 10
406
 20
-825
 10
435
 20
-825
 10
435
 20
-859
 10
437
 20
-859
 10
437
 20
-825
 10
466
 20
-825
 10
466
 20
-823
 10
437
 20
-823
 10
437
 20
-789
 10
466
 20
-789
 10
466
 20
-787
 10
437
 20
-787
 10
437
 20
-753
 10
435
 20
-753
  0
LINE
  5
182
100
AcDbEntity
  8
styny
  6
ByLayer
 62
  256
370
   -1
100
AcDbLine
 10
552.1538461538462
 20
-715.7692307692305
 11
546
 21
-739.9999999999995
  0
LWPOLYLINE
  5
183
100
AcDbEntity
  8
vikna_dveri
  6
ByLayer
 62
  256
370
   -1
100
AcDbPolyline
 90
    4
 70
    1
 43
0
 10
391
 20
-869
 10
551
 20
-869
 10
551
 20
-875
 10
391
 20
-875
  0
LINE
  5
184
100
AcDbEntity
  8
vikna_dveri
  6
ByLayer
 62
  256
370
   -1
100
AcDbLine
 10
391
 20
-872
 11
551
 21
-872
  0
ARC
  5
185
100
AcDbEntity
  8
styny
  6
ByLayer
 62
  256
370
   -1
100
AcDbCircle
 10
471
 20
-1035.312499999999
 40
304.6874999999999
100
AcDbArc
 50
75.74996730219638
 51
104.2500326978036
  0
ARC
  5
186
100
AcDbEntity
  8
styny
  6
ByLayer
 62
  256
370
   -1
100
AcDbCircle
 10
471.0000000000006
 20
-1035.312499999999
 40
329.6874999999992
100
AcDbArc
 50
75.74996730219648
 51
104.2500326978037
  0
LWPOLYLINE
  5
187
100
AcDbEntity
  8
vikna_dveri
  6
ByLayer
 62
  256
370
   -1
100
AcDbPolyline
 90
    4
 70
    1
 43
0
 10
476
 20
-859
 10
536
 20
-859
 10
536
 20
-753
 10
476
 20
-753
  0
LWPOLYLINE
  5
188
100
AcDbEntity
  8
vikna_dveri
  6
ByLayer
 62
  256
370
   -1
100
AcDbPolyline
 90
   21
 70
    0
 43
0
 10
505
 20
-753
 10
505
 20
-787
 10
476
 20
-787
 10
476
 20
-789
 10
505
 20
-789
 10
505
 20
-823
 10
476
 20
-823
 10
476
 20
-825
 10
505
 20
-825
 10
505
 20
-859
 10
507
 20
-859
 10
507
 20
-825
 10
536
 20
-825
 10
536
 20
-823
 10
507
 20
-823
 10
507
 20
-789
 10
536
 20
-789
 10
536
 20
-787
 10
507
 20
-787
 10
507
 20
-753
 10
505
 20
-753
  0
LWPOLYLINE
  5
189
100
AcDbEntity
  8
styny
  6
ByLayer
 62
  256
370
   -1
100
AcDbPolyline
 90
   12
 70
    0
 43
0
 10
546
 20
-739.9999999999995
 10
546
 20
-869
 10
551
 20
-869
 10
551
 20
-875
 10
549
 20
-875
 10
549
 20
-884.0000000000005
 10
393
 20
-884
 10
393
 20
-874.9999999999995
 10
391
 20
-875
 10
391
 20
-869
 10
396
 20
-869
 10
396
 20
-739.9999999999995
  0
LINE
  5
18A
100
AcDbEntity
  8
styny
  6
ByLayer
 62
  256
370
   -1
100
AcDbLine
 10
724.8461538461538
 20
-715.7692307692305
 11
731
 21
-739.9999999999995
  0
LWPOLYLINE
  5
18B
100
AcDbEntity
  8
vikna_dveri
  6
ByLayer
 62
  256
370
   -1
100
AcDbPolyline
 90
    4
 70
    1
 43
0
 10
741
 20
-859
 10
801
 20
-859
 10
801
 20
-753
 10
741
 20
-753
  0
LWPOLYLINE
  5
18C
100
AcDbEntity
  8
vikna_dveri
  6
ByLayer
 62
  256
370
   -1
100
AcDbPolyline
 90
   21
 70
    0
 43
0
 10
770
 20
-753
 10
770
 20
-787
 10
741
 20
-787
 10
741
 20
-789
 10
770
 20
-789
 10
770
 20
-823
 10
741
 20
-823
 10
741
 20
-825
 10
770
 20
-825
 10
770
 20
-859
 10
772
 20
-859
 10
772
 20
-825
 10
801
 20
-825
 10
801
 20
-823
 10
772
 20
-823
 10
772
 20
-789
 10
801
 20
-789
 10
801
 20
-787
 10
772
 20
-787
 10
772
 20
-753
 10
770
 20
-753
  0
LINE
  5
18D
100
AcDbEntity
  8
styny
  6
ByLayer
 62
  256
370
   -1
100
AcDbLine
 10
887.1538461538462
 20
-715.7692307692305
 11
881
 21
-739.9999999999995
  0
LWPOLYLINE
  5
18E
100
AcDbEntity
  8
vikna_dveri
  6
ByLayer
 62
  256
370
   -1
100
AcDbPolyline
 90
    4
 70
    1
 43
0
 10
726
 20
-869
 10
886
 20
-869
 10
886
 20
-875
 10
726
 20
-875
  0
LINE
  5
18F
100
AcDbEntity
  8
vikna_dveri
  6
ByLayer
 62
  256
370
   -1
100
AcDbLine
 10
726
 20
-872
 11
886
 21
-872
  0
ARC
  5
190
100
AcDbEntity
  8
styny
  6
ByLayer
 62
  256
370
   -1
100
AcDbCircle
 10
806
 20
-1035.312499999999
 40
304.6874999999999
100
AcDbArc
 50
75.74996730219638
 51
104.2500326978036
  0
ARC
  5
191
100
AcDbEntity
  8
styny
  6
ByLayer
 62
  256
370
   -1
100
AcDbCircle
 10
806.0000000000006
 20
-1035.312499999999
 40
329.6874999999992
100
AcDbArc
 50
75.74996730219648
 51
104.2500326978037
  0
LWPOLYLINE
  5
192
100
AcDbEntity
  8
vikna_dveri
  6
ByLayer
 62
  256
370
   -1
100
AcDbPolyline
 90
    4
 70
    1
 43
0
 10
811
 20
-859
 10
871
 20
-859
 10
871
 20
-753
 10
811
 20
-753
  0
LWPOLYLINE
  5
193
100
AcDbEntity
  8
vikna_dveri
  6
ByLayer
 62
  256
370
   -1
100
AcDbPolyline
 90
   21
 70
    0
 43
0
 10
840
 20
-753
 10
840
 20
-787
 10
811
 20
-787
 10
811
 20
-789
 10
840
 20
-789
 10
840
 20
-823
 10
811
 20
-823
 10
811
 20
-825
 10
840
 20
-825
 10
840
 20
-859
 10
842
 20
-859
 10
842
 20
-825
 10
871
 20
-825
 10
871
 20
-823
 10
842
 20
-823
 10
842
 20
-789
 10
871
 20
-789
 10
871
 20
-787
 10
842
 20
-787
 10
842
 20
-753
 10
840
 20
-753
  0
LWPOLYLINE
  5
194
100
AcDbEntity
  8
styny
  6
ByLayer
 62
  256
370
   -1
100
AcDbPolyline
 90
   12
 70
    0
 43
0
 10
881
 20
-739.9999999999995
 10
881
 20
-869
 10
886
 20
-869
 10
886
 20
-875
 10
884
 20
-875
 10
884
 20
-884.0000000000005
 10
728
 20
-884
 10
728
 20
-874.9999999999995
 10
726
 20
-875
 10
726
 20
-869
 10
731
 20
-869
 10
731
 20
-739.9999999999995
  0
LWPOLYLINE
  5
195
100
AcDbEntity
  8
brick
  6
ByLayer
 62
  256
370
   -1
100
AcDbPolyline
 90
    4
 70
    1
 43
0
 10
0
 20
-1200
 10
25
 20
-1200
 10
25
 20
-1194
 10
0
 20
-1194
  0
LWPOLYLINE
  5
196
100
AcDbEntity
  8
brick
  6
ByLayer
 62
  256
370
   -1
100
AcDbPolyline
 90
    4
 70
    1
 43
0
 10
26
 20
-1200
 10
51
 20
-1200
 10
51
 20
-1194
 10
26
 20
-1194
  0
LWPOLYLINE
  5
197
100
AcDbEntity
  8
brick
  6
ByLayer
 62
  256
370
   -1
100
AcDbPolyline
 90
    4
 70
    1
 43
0
 10
52
 20
-1200
 10
77
 20
-1200
 10
77
 20
-1194
 10
52
 20
-1194
  0
LWPOLYLINE
  5
198
100
AcDbEntity
  8
brick
  6
ByLayer
 62
  256
370
   -1
100
AcDbPolyline
 90
    4
 70
    1
 43
0
 10
78
 20
-1200
 10
103
 20
-1200
 10
103
 20
-1194
 10
78
 20
-1194
  0
LWPOLYLINE
  5
199
100
AcDbEntity
  8
brick
  6
ByLayer
 62
  256
370
   -1
100
AcDbPolyline
 90
    4
 70
    1
 43
0
 10
104
 20
-1200
 10
129
 20
-1200
 10
129
 20
-1194
 10
104
 20
-1194
  0
LWPOLYLINE
  5
19A
100
AcDbEntity
  8
brick
  6
ByLayer
 62
  256
370
   -1
100
AcDbPolyline
 90
    4
 70
    1
 43
0
 10
13
 20
-1193
 10
38
 20
-1193
 10
38
 20
-1187
 10
13
 20
-1187
  0
LWPOLYLINE
  5
19B
100
AcDbEntity
  8
brick
  6
ByLayer
 62
  256
370
   -1
100
AcDbPolyline
 90
    4
 70
    1
 43
0
 10
39
 20
-1193
 10
64
 20
-1193
 10
64
 20
-1187
 10
39
 20
-1187
  0
LWPOLYLINE
  5
19C
100
AcDbEntity
  8
brick
  6
ByLayer
 62
  256
370
   -1
100
AcDbPolyline
 90
    4
 70
    1
 43
0
 10
65
 20
-1193
 10
90
 20
-1193
 10
90
 20
-1187
 10
65
 20
-1187
  0
LWPOLYLINE
  5
19D
100
AcDbEntity
  8
brick
  6
ByLayer
 62
  256
370
   -1
100
AcDbPolyline
 90
    4
 70
    1
 43
0
 10
91
 20
-1193
 10
116
 20
-1193
 10
116
 20
-1187
 10
91
 20
-1187
  0
LWPOLYLINE
  5
19E
100
AcDbEntity
  8
brick
  6
ByLayer
 62
  256
370
   -1
100
AcDbPolyline
 90
    4
 70
    1
 43
0
 10
117
 20
-1193
 10
142
 20
-1193
 10
142
 20
-1187
 10
117
 20
-1187
  0
LWPOLYLINE
  5
19F
100
AcDbEntity
  8
brick
  6
ByLayer
 62
  256
370
   -1
100
AcDbPolyline
 90
    4
 70
    1
 43
0
 10
-13
 20
-1193
 10
12
 20
-1193
 10
12
 20
-1187
 10
-13
 20
-1187
  0
LWPOLYLINE
  5
1A0
100
AcDbEntity
  8
brick
  6
ByLayer
 62
  256
370
   -1
100
AcDbPolyline
 90
    4
 70
    1
 43
0
 10
-26
 20
-1200
 10
-1
 20
-1200
 10
-1
 20
-1194
 10
-26
 20
-1194
  0
LWPOLYLINE
  5
1A1
100
AcDbEntity
  8
brick
  6
ByLayer
 62
  256
370
   -1
100
AcDbPolyline
 90
    4
 70
    1
 43
0
 10
-39
 20
-1193
 10
-14
 20
-1193
 10
-14
 20
-1187
 10
-39
 20
-1187
  0
LWPOLYLINE
  5
1A2
100
AcDbEntity
  8
brick
  6
ByLayer
 62
  256
370
   -1
100
AcDbPolyline
 90
    4
 70
    1
 43
0
 10
-52
 20
-1200
 10
-27
 20
-1200
 10
-27
 20
-1194
 10
-52
 20
-1194
  0
LWPOLYLINE
  5
1A3
100
AcDbEntity
  8
brick
  6
ByLayer
 62
  256
370
   -1
100
AcDbPolyline
 90
    4
 70
    1
 43
0
 10
-65
 20
-1193
 10
-40
 20
-1193
 10
-40
 20
-1187
 10
-65
 20
-1187
  0
LWPOLYLINE
  5
1A4
100
AcDbEntity
  8
projomy
  6
ByLayer
 62
  256
370
   -1
100
AcDbPolyline
 90
    4
 70
    1
 43
0
 10
25
 20
-1194
 10
117
 20
-1194
 10
117
 20
-1160
 10
25
 20
-1160
  0
LWPOLYLINE
  5
1A5
100
AcDbEntity
  8
projomy
  6
ByLayer
 62
  256
370
   -1
100
AcDbPolyline
 90
    4
 70
    1
 43
0
 10
117
 20
-1194
 10
12
 20
-1194
 10
12
 20
-1150
 10
117
 20
-1150
  0
LWPOLYLINE
  5
1A6
100
AcDbEntity
  8
projomy
  6
ByLayer
 62
  256
370
   -1
100
AcDbPolyline
 90
    4
 70
    1
 43
0
 10
117
 20
-1194
 10
64
 20
-1194
 10
64
 20
-1180
 10
117
 20
-1180
  0
LWPOLYLINE
  5
1A7
100
AcDbEntity
  8
projomy
  6
ByLayer
 62
  256
370
   -1
100
AcDbPolyline
 90
    4
 70
    1
 43
0
 10
117
 20
-1194
 10
38
 20
-1194
 10
38
 20
-1170
 10
117
 20
-1170
  0
LWPOLYLINE
  5
1A8
100
AcDbEntity
  8
projomy
  6
ByLayer
 62
  256
370
   -1
100
AcDbPolyline
 90
    4
 70
    1
 43
0
 10
117
 20
-1194
 10
-27
 20
-1194
 10
-27
 20
-1140
 10
117
 20
-1140
  0
LWPOLYLINE
  5
1A9
100
AcDbEntity
  8
projomy
  6
ByLayer
 62
  256
370
   -1
100
AcDbPolyline
 90
    9
 70
    0
 43
0
 10
1300
 20
390
 10
1300
 20
337
 10
1312
 20
337
 10
1312
 20
331
 10
1347
 20
331
 10
1347
 20
396
 10
1312
 20
396
 10
1312
 20
390
 10
1300
 20
390
  0
LWPOLYLINE
  5
1AA
100
AcDbEntity
  8
vikna_dveri
  6
ByLayer
 62
  256
370
   -1
100
AcDbPolyline
 90
    4
 70
    1
 43
0
 10
655
 20
508
 10
718
 20
508
 10
718
 20
502
 10
655
 20
502
  0
LINE
  5
1AB
100
AcDbEntity
  8
vikna_dveri
  6
ByLayer
 62
  256
370
   -1
100
AcDbLine
 10
655
 20
505
 11
718
 21
505
  0
LINE
  5
1AC
100
AcDbEntity
  8
styny
  6
ByLayer
 62
  256
370
   -1
100
AcDbLine
 10
718.1538461538462
 20
613.2307692307695
 11
713
 21
589.0000000000005
  0
LWPOLYLINE
  5
1AD
100
AcDbEntity
  8
vikna_dveri
  6
ByLayer
 62
  256
370
   -1
100
AcDbPolyline
 90
    4
 70
    1
 43
0
 10
670
 20
518
 10
705
 20
518
 10
705
 20
576
 10
670
 20
576
  0
LWPOLYLINE
  5
1AE
100
AcDbEntity
  8
styny
  6
ByLayer
 62
  256
370
   -1
100
AcDbPolyline
 90
   12
 70
    0
 43
0
 10
713
 20
589.0000000000005
 10
713
 20
508
 10
718
 20
508
 10
718
 20
502
 10
716
 20
502
 10
716
 20
492.9999999999995
 10
657
 20
493
 10
657
 20
502.0000000000005
 10
655
 20
502
 10
655
 20
508
 10
660
 20
508
 10
660
 20
589.0000000000005
  0
ARC
  5
1AF
100
AcDbEntity
  8
styny
  6
ByLayer
 62
  256
370
   -1
100
AcDbCircle
 10
686.5000000000001
 20
484.6562500000005
 40
107.65625
100
AcDbArc
 50
75.74996730219648
 51
104.2500326978037
  0
ARC
  5
1B0
100
AcDbEntity
  8
styny
  6
ByLayer
 62
  256
370
   -1
100
AcDbCircle
 10
686.0000000000007
 20
486.6250000000003
 40
130.6249999999998
100
AcDbArc
 50
75.74996730219668
 51
104.2500326978039
  0
LWPOLYLINE
  5
1B1
100
AcDbEntity
  8
vikna_dveri
  6
ByLayer
 62
  256
370
   -1
100
AcDbPolyline
 90
    4
 70
    1
 43
0
 10
655
 20
181
 10
718
 20
181
 10
718
 20
175
 10
655
 20
175
  0
LINE
  5
1B2
100
AcDbEntity
  8
vikna_dveri
  6
ByLayer
 62
  256
370
   -1
100
AcDbLine
 10
655
 20
178
 11
718
 21
178
  0
LINE
  5
1B3
100
AcDbEntity
  8
styny
  6
ByLayer
 62
  256
370
   -1
100
AcDbLine
 10
719.1538461538462
 20
286.2307692307695
 11
713
 21
262.0000000000005
  0
LWPOLYLINE
  5
1B4
100
AcDbEntity
  8
vikna_dveri
  6
ByLayer
 62
  256
370
   -1
100
AcDbPolyline
 90
    4
 70
    1
 43
0
 10
670
 20
191
 10
705
 20
191
 10
705
 20
249
 10
670
 20
249
  0
LWPOLYLINE
  5
1B5
100
AcDbEntity
  8
styny
  6
ByLayer
 62
  256
370
   -1
100
AcDbPolyline
 90
   12
 70
    0
 43
0
 10
713
 20
262.0000000000005
 10
713
 20
181
 10
718
 20
181
 10
718
 20
175
 10
716
 20
175
 10
716
 20
165.9999999999995
 10
657
 20
166
 10
657
 20
175.0000000000005
 10
655
 20
175
 10
655
 20
181
 10
660
 20
181
 10
660
 20
262.0000000000005
  0
ARC
  5
1B6
100
AcDbEntity
  8
styny
  6
ByLayer
 62
  256
370
   -1
100
AcDbCircle
 10
686.4999999999999
 20
157.6562500000005
 40
107.65625
100
AcDbArc
 50
75.74996730219635
 51
104.2500326978035
  0
ARC
  5
1B7
100
AcDbEntity
  8
styny
  6
ByLayer
 62
  256
370
   -1
100
AcDbCircle
 10
686.5000000000007
 20
157.6562500000003
 40
132.6562499999998
100
AcDbArc
 50
75.74996730219667
 51
104.2500326978039
  0
LWPOLYLINE
  5
1B8
100
AcDbEntity
  8
projomy
  6
ByLayer
 62
  256
370
   -1
100
AcDbPolyline
 90
    9
 70
    0
 43
0
 10
2700
 20
390
 10
2700
 20
337
 10
2712
 20
337
 10
2712
 20
331
 10
2747
 20
331
 10
2747
 20
396
 10
2712
 20
396
 10
2712
 20
390
 10
2700
 20
390
  0
LWPOLYLINE
  5
1B9
100
AcDbEntity
  8
projomy
  6
ByLayer
 62
  256
370
   -1
100
AcDbPolyline
 90
    9
 70
    0
 43
0
 10
3378
 20
8.881784197001252e-16
 10
3522
 20
8.881784197001252e-16
 10
3522
 20
12
 10
3528
 20
12
 10
3528
 20
47
 10
3372
 20
47
 10
3372
 20
12
 10
3378
 20
12
 10
3378
 20
8.881784197001252e-16
  0
LWPOLYLINE
  5
1BA
100
AcDbEntity
  8
brick
  6
ByLayer
 62
  256
370
   -1
100
AcDbPolyline
 90
    4
 70
    1
 43
0
 10
1352
 20
-16
 10
1377
 20
-16
 10
1377
 20
-10
 10
1352
 20
-10
  0
LWPOLYLINE
  5
1BB
100
AcDbEntity
  8
brick
  6
ByLayer
 62
  256
370
   -1
100
AcDbPolyline
 90
    4
 70
    1
 43
0
 10
1378
 20
-16
 10
1403
 20
-16
 10
1403
 20
-10
 10
1378
 20
-10
  0
LWPOLYLINE
  5
1BC
100
AcDbEntity
  8
brick
  6
ByLayer
 62
  256
370
   -1
100
AcDbPolyline
 90
    4
 70
    1
 43
0
 10
1404
 20
-16
 10
1429
 20
-16
 10
1429
 20
-10
 10
1404
 20
-10
  0
LWPOLYLINE
  5
1BD
100
AcDbEntity
  8
brick
  6
ByLayer
 62
  256
370
   -1
100
AcDbPolyline
 90
    4
 70
    1
 43
0
 10
1430
 20
-16
 10
1455
 20
-16
 10
1455
 20
-10
 10
1430
 20
-10
  0
LWPOLYLINE
  5
1BE
100
AcDbEntity
  8
brick
  6
ByLayer
 62
  256
370
   -1
100
AcDbPolyline
 90
    4
 70
    1
 43
0
 10
1456
 20
-16
 10
1481
 20
-16
 10
1481
 20
-10
 10
1456
 20
-10
  0
LWPOLYLINE
  5
1BF
100
AcDbEntity
  8
brick
  6
ByLayer
 62
  256
370
   -1
100
AcDbPolyline
 90
    4
 70
    1
 43
0
 10
1326
 20
-16
 10
1351
 20
-16
 10
1351
 20
-10
 10
1326
 20
-10
  0
LWPOLYLINE
  5
1C0
100
AcDbEntity
  8
brick
  6
ByLayer
 62
  256
370
   -1
100
AcDbPolyline
 90
    4
 70
    1
 43
0
 10
1300
 20
-16
 10
1325
 20
-16
 10
1325
 20
-10
 10
1300
 20
-10
  0
LWPOLYLINE
  5
1C1
100
AcDbEntity
  8
brick
  6
ByLayer
 62
  256
370
   -1
100
AcDbPolyline
 90
    4
 70
    1
 43
0
 10
1534
 20
-16
 10
1559
 20
-16
 10
1559
 20
-10
 10
1534
 20
-10
  0
LWPOLYLINE
  5
1C2
100
AcDbEntity
  8
brick
  6
ByLayer
 62
  256
370
   -1
100
AcDbPolyline
 90
    4
 70
    1
 43
0
 10
1560
 20
-16
 10
1585
 20
-16
 10
1585
 20
-10
 10
1560
 20
-10
  0
LWPOLYLINE
  5
1C3
100
AcDbEntity
  8
brick
  6
ByLayer
 62
  256
370
   -1
100
AcDbPolyline
 90
    4
 70
    1
 43
0
 10
1586
 20
-16
 10
1611
 20
-16
 10
1611
 20
-10
 10
1586
 20
-10
  0
LWPOLYLINE
  5
1C4
100
AcDbEntity
  8
brick
  6
ByLayer
 62
  256
370
   -1
100
AcDbPolyline
 90
    4
 70
    1
 43
0
 10
1612
 20
-16
 10
1637
 20
-16
 10
1637
 20
-10
 10
1612
 20
-10
  0
LWPOLYLINE
  5
1C5
100
AcDbEntity
  8
brick
  6
ByLayer
 62
  256
370
   -1
100
AcDbPolyline
 90
    4
 70
    1
 43
0
 10
1638
 20
-16
 10
1663
 20
-16
 10
1663
 20
-10
 10
1638
 20
-10
  0
LWPOLYLINE
  5
1C6
100
AcDbEntity
  8
brick
  6
ByLayer
 62
  256
370
   -1
100
AcDbPolyline
 90
    4
 70
    1
 43
0
 10
1508
 20
-16
 10
1533
 20
-16
 10
1533
 20
-10
 10
1508
 20
-10
  0
LWPOLYLINE
  5
1C7
100
AcDbEntity
  8
brick
  6
ByLayer
 62
  256
370
   -1
100
AcDbPolyline
 90
    4
 70
    1
 43
0
 10
1482
 20
-16
 10
1507
 20
-16
 10
1507
 20
-10
 10
1482
 20
-10
  0
LWPOLYLINE
  5
1C8
100
AcDbEntity
  8
brick
  6
ByLayer
 62
  256
370
   -1
100
AcDbPolyline
 90
    4
 70
    1
 43
0
 10
1716
 20
-16
 10
1741
 20
-16
 10
1741
 20
-10
 10
1716
 20
-10
  0
LWPOLYLINE
  5
1C9
100
AcDbEntity
  8
brick
  6
ByLayer
 62
  256
370
   -1
100
AcDbPolyline
 90
    4
 70
    1
 43
0
 10
1742
 20
-16
 10
1767
 20
-16
 10
1767
 20
-10
 10
1742
 20
-10
  0
LWPOLYLINE
  5
1CA
100
AcDbEntity
  8
brick
  6
ByLayer
 62
  256
370
   -1
100
AcDbPolyline
 90
    4
 70
    1
 43
0
 10
1768
 20
-16
 10
1793
 20
-16
 10
1793
 20
-10
 10
1768
 20
-10
  0
LWPOLYLINE
  5
1CB
100
AcDbEntity
  8
brick
  6
ByLayer
 62
  256
370
   -1
100
AcDbPolyline
 90
    4
 70
    1
 43
0
 10
1794
 20
-16
 10
1819
 20
-16
 10
1819
 20
-10
 10
1794
 20
-10
  0
LWPOLYLINE
  5
1CC
100
AcDbEntity
  8
brick
  6
ByLayer
 62
  256
370
   -1
100
AcDbPolyline
 90
    4
 70
    1
 43
0
 10
1820
 20
-16
 10
1845
 20
-16
 10
1845
 20
-10
 10
1820
 20
-10
  0
LWPOLYLINE
  5
1CD
100
AcDbEntity
  8
brick
  6
ByLayer
 62
  256
370
   -1
100
AcDbPolyline
 90
    4
 70
    1
 43
0
 10
1690
 20
-16
 10
1715
 20
-16
 10
1715
 20
-10
 10
1690
 20
-10
  0
LWPOLYLINE
  5
1CE
100
AcDbEntity
  8
brick
  6
ByLayer
 62
  256
370
   -1
100
AcDbPolyline
 90
    4
 70
    1
 43
0
 10
1664
 20
-16
 10
1689
 20
-16
 10
1689
 20
-10
 10
1664
 20
-10
  0
LWPOLYLINE
  5
1CF
100
AcDbEntity
  8
brick
  6
ByLayer
 62
  256
370
   -1
100
AcDbPolyline
 90
    4
 70
    1
 43
0
 10
1898
 20
-16
 10
1923
 20
-16
 10
1923
 20
-10
 10
1898
 20
-10
  0
LWPOLYLINE
  5
1D0
100
AcDbEntity
  8
brick
  6
ByLayer
 62
  256
370
   -1
100
AcDbPolyline
 90
    4
 70
    1
 43
0
 10
1924
 20
-16
 10
1949
 20
-16
 10
1949
 20
-10
 10
1924
 20
-10
  0
LWPOLYLINE
  5
1D1
100
AcDbEntity
  8
brick
  6
ByLayer
 62
  256
370
   -1
100
AcDbPolyline
 90
    4
 70
    1
 43
0
 10
1950
 20
-16
 10
1975
 20
-16
 10
1975
 20
-10
 10
1950
 20
-10
  0
LWPOLYLINE
  5
1D2
100
AcDbEntity
  8
brick
  6
ByLayer
 62
  256
370
   -1
100
AcDbPolyline
 90
    4
 70
    1
 43
0
 10
1976
 20
-16
 10
2001
 20
-16
 10
2001
 20
-10
 10
1976
 20
-10
  0
LWPOLYLINE
  5
1D3
100
AcDbEntity
  8
brick
  6
ByLayer
 62
  256
370
   -1
100
AcDbPolyline
 90
    4
 70
    1
 43
0
 10
2002
 20
-16
 10
2027
 20
-16
 10
2027
 20
-10
 10
2002
 20
-10
  0
LWPOLYLINE
  5
1D4
100
AcDbEntity
  8
brick
  6
ByLayer
 62
  256
370
   -1
100
AcDbPolyline
 90
    4
 70
    1
 43
0
 10
1872
 20
-16
 10
1897
 20
-16
 10
1897
 20
-10
 10
1872
 20
-10
  0
LWPOLYLINE
  5
1D5
100
AcDbEntity
  8
brick
  6
ByLayer
 62
  256
370
   -1
100
AcDbPolyline
 90
    4
 70
    1
 43
0
 10
1846
 20
-16
 10
1871
 20
-16
 10
1871
 20
-10
 10
1846
 20
-10
  0
LWPOLYLINE
  5
1D6
100
AcDbEntity
  8
brick
  6
ByLayer
 62
  256
370
   -1
100
AcDbPolyline
 90
    4
 70
    1
 43
0
 10
2080
 20
-16
 10
2105
 20
-16
 10
2105
 20
-10
 10
2080
 20
-10
  0
LWPOLYLINE
  5
1D7
100
AcDbEntity
  8
brick
  6
ByLayer
 62
  256
370
   -1
100
AcDbPolyline
 90
    4
 70
    1
 43
0
 10
2106
 20
-16
 10
2131
 20
-16
 10
2131
 20
-10
 10
2106
 20
-10
  0
LWPOLYLINE
  5
1D8
100
AcDbEntity
  8
brick
  6
ByLayer
 62
  256
370
   -1
100
AcDbPolyline
 90
    4
 70
    1
 43
0
 10
2132
 20
-16
 10
2157
 20
-16
 10
2157
 20
-10
 10
2132
 20
-10
  0
LWPOLYLINE
  5
1D9
100
AcDbEntity
  8
brick
  6
ByLayer
 62
  256
370
   -1
100
AcDbPolyline
 90
    4
 70
    1
 43
0
 10
2158
 20
-16
 10
2183
 20
-16
 10
2183
 20
-10
 10
2158
 20
-10
  0
LWPOLYLINE
  5
1DA
100
AcDbEntity
  8
brick
  6
ByLayer
 62
  256
370
   -1
100
AcDbPolyline
 90
    4
 70
    1
 43
0
 10
2184
 20
-16
 10
2209
 20
-16
 10
2209
 20
-10
 10
2184
 20
-10
  0
LWPOLYLINE
  5
1DB
100
AcDbEntity
  8
brick
  6
ByLayer
 62
  256
370
   -1
100
AcDbPolyline
 90
    4
 70
    1
 43
0
 10
2054
 20
-16
 10
2079
 20
-16
 10
2079
 20
-10
 10
2054
 20
-10
  0
LWPOLYLINE
  5
1DC
100
AcDbEntity
  8
brick
  6
ByLayer
 62
  256
370
   -1
100
AcDbPolyline
 90
    4
 70
    1
 43
0
 10
2028
 20
-16
 10
2053
 20
-16
 10
2053
 20
-10
 10
2028
 20
-10
  0
LWPOLYLINE
  5
1DD
100
AcDbEntity
  8
brick
  6
ByLayer
 62
  256
370
   -1
100
AcDbPolyline
 90
    4
 70
    1
 43
0
 10
2210
 20
-16
 10
2235
 20
-16
 10
2235
 20
-10
 10
2210
 20
-10
  0
LWPOLYLINE
  5
1DE
100
AcDbEntity
  8
brick
  6
ByLayer
 62
  256
370
   -1
100
AcDbPolyline
 90
    4
 70
    1
 43
0
 10
2236
 20
-16
 10
2261
 20
-16
 10
2261
 20
-10
 10
2236
 20
-10
  0
LWPOLYLINE
  5
1DF
100
AcDbEntity
  8
brick
  6
ByLayer
 62
  256
370
   -1
100
AcDbPolyline
 90
    4
 70
    1
 43
0
 10
2262
 20
-16
 10
2287
 20
-16
 10
2287
 20
-10
 10
2262
 20
-10
  0
LWPOLYLINE
  5
1E0
100
AcDbEntity
  8
brick
  6
ByLayer
 62
  256
370
   -1
100
AcDbPolyline
 90
    4
 70
    1
 43
0
 10
2288
 20
-16
 10
2300
 20
-16
 10
2300
 20
-10
 10
2288
 20
-10
  0
LWPOLYLINE
  5
1E1
100
AcDbEntity
  8
brick
  6
ByLayer
 62
  256
370
   -1
100
AcDbPolyline
 90
    4
 70
    1
 43
0
 10
2316
 20
52
 10
2316
 20
77
 10
2310
 20
77
 10
2310
 20
52
  0
LWPOLYLINE
  5
1E2
100
AcDbEntity
  8
brick
  6
ByLayer
 62
  256
370
   -1
100
AcDbPolyline
 90
    4
 70
    1
 43
0
 10
2316
 20
78
 10
2316
 20
103
 10
2310
 20
103
 10
2310
 20
78
  0
LWPOLYLINE
  5
1E3
100
AcDbEntity
  8
brick
  6
ByLayer
 62
  256
370
   -1
100
AcDbPolyline
 90
    4
 70
    1
 43
0
 10
2316
 20
104
 10
2316
 20
129
 10
2310
 20
129
 10
2310
 20
104
  0
LWPOLYLINE
  5
1E4
100
AcDbEntity
  8
brick
  6
ByLayer
 62
  256
370
   -1
100
AcDbPolyline
 90
    4
 70
    1
 43
0
 10
2316
 20
130
 10
2316
 20
155
 10
2310
 20
155
 10
2310
 20
130
  0
LWPOLYLINE
  5
1E5
100
AcDbEntity
  8
brick
  6
ByLayer
 62
  256
370
   -1
100
AcDbPolyline
 90
    4
 70
    1
 43
0
 10
2316
 20
156
 10
2316
 20
181
 10
2310
 20
181
 10
2310
 20
156
  0
LWPOLYLINE
  5
1E6
100
AcDbEntity
  8
brick
  6
ByLayer
 62
  256
370
   -1
100
AcDbPolyline
 90
    4
 70
    1
 43
0
 10
2316
 20
26
 10
2316
 20
51
 10
2310
 20
51
 10
2310
 20
26
  0
LWPOLYLINE
  5
1E7
100
AcDbEntity
  8
brick
  6
ByLayer
 62
  256
370
   -1
100
AcDbPolyline
 90
    4
 70
    1
 43
0
 10
2316
 20
-3.673940397442059e-16
 10
2316
 20
25
 10
2310
 20
25
 10
2310
 20
0
  0
LWPOLYLINE
  5
1E8
100
AcDbEntity
  8
brick
  6
ByLayer
 62
  256
370
   -1
100
AcDbPolyline
 90
    4
 70
    1
 43
0
 10
2316
 20
234
 10
2316
 20
259
 10
2310
 20
259
 10
2310
 20
234
  0
LWPOLYLINE
  5
1E9
100
AcDbEntity
  8
brick
  6
ByLayer
 62
  256
370
   -1
100
AcDbPolyline
 90
    4
 70
    1
 43
0
 10
2316
 20
260
 10
2316
 20
285
 10
2310
 20
285
 10
2310
 20
260
  0
LWPOLYLINE
  5
1EA
100
AcDbEntity
  8
brick
  6
ByLayer
 62
  256
370
   -1
100
AcDbPolyline
 90
    4
 70
    1
 43
0
 10
2316
 20
286
 10
2316
 20
311
 10
2310
 20
311
 10
2310
 20
286
  0
LWPOLYLINE
  5
1EB
100
AcDbEntity
  8
brick
  6
ByLayer
 62
  256
370
   -1
100
AcDbPolyline
 90
    4
 70
    1
 43
0
 10
2316
 20
312
 10
2316
 20
337
 10
2310
 20
337
 10
2310
 20
312
  0
LWPOLYLINE
  5
1EC
100
AcDbEntity
  8
brick
  6
ByLayer
 62
  256
370
   -1
100
AcDbPolyline
 90
    4
 70
    1
 43
0
 10
2316
 20
338
 10
2316
 20
363
 10
2310
 20
363
 10
2310
 20
338
  0
LWPOLYLINE
  5
1ED
100
AcDbEntity
  8
brick
  6
ByLayer
 62
  256
370
   -1
100
AcDbPolyline
 90
    4
 70
    1
 43
0
 10
2316
 20
208
 10
2316
 20
233
 10
2310
 20
233
 10
2310
 20
208
  0
LWPOLYLINE
  5
1EE
100
AcDbEntity
  8
brick
  6
ByLayer
 62
  256
370
   -1
100
AcDbPolyline
 90
    4
 70
    1
 43
0
 10
2316
 20
182
 10
2316
 20
207
 10
2310
 20
207
 10
2310
 20
182
  0
LWPOLYLINE
  5
1EF
100
AcDbEntity
  8
brick
  6
ByLayer
 62
  256
370
   -1
100
AcDbPolyline
 90
    4
 70
    1
 43
0
 10
2316
 20
416
 10
2316
 20
441
 10
2310
 20
441
 10
2310
 20
416
  0
LWPOLYLINE
  5
1F0
100
AcDbEntity
  8
brick
  6
ByLayer
 62
  256
370
   -1
100
AcDbPolyline
 90
    4
 70
    1
 43
0
 10
2316
 20
442
 10
2316
 20
467
 10
2310
 20
467
 10
2310
 20
442
  0
LWPOLYLINE
  5
1F1
100
AcDbEntity
  8
brick
  6
ByLayer
 62
  256
370
   -1
100
AcDbPolyline
 90
    4
 70
    1
 43
0
 10
2316
 20
468
 10
2316
 20
493
 10
2310
 20
493
 10
2310
 20
468
  0
LWPOLYLINE
  5
1F2
100
AcDbEntity
  8
brick
  6
ByLayer
 62
  256
370
   -1
100
AcDbPolyline
 90
    4
 70
    1
 43
0
 10
2316
 20
494
 10
2316
 20
519
 10
2310
 20
519
 10
2310
 20
494
  0
LWPOLYLINE
  5
1F3
100
AcDbEntity
  8
brick
  6
ByLayer
 62
  256
370
   -1
100
AcDbPolyline
 90
    4
 70
    1
 43
0
 10
2316
 20
520
 10
2316
 20
545
 10
2310
 20
545
 10
2310
 20
520
  0
LWPOLYLINE
  5
1F4
100
AcDbEntity
  8
brick
  6
ByLayer
 62
  256
370
   -1
100
AcDbPolyline
 90
    4
 70
    1
 43
0
 10
2316
 20
390
 10
2316
 20
415
 10
2310
 20
415
 10
2310
 20
390
  0
LWPOLYLINE
  5
1F5
100
AcDbEntity
  8
brick
  6
ByLayer
 62
  256
370
   -1
100
AcDbPolyline
 90
    4
 70
    1
 43
0
 10
2316
 20
364
 10
2316
 20
389
 10
2310
 20
389
 10
2310
 20
364
  0
LWPOLYLINE
  5
1F6
100
AcDbEntity
  8
brick
  6
ByLayer
 62
  256
370
   -1
100
AcDbPolyline
 90
    4
 70
    1
 43
0
 10
2316
 20
598
 10
2316
 20
623
 10
2310
 20
623
 10
2310
 20
598
  0
LWPOLYLINE
  5
1F7
100
AcDbEntity
  8
brick
  6
ByLayer
 62
  256
370
   -1
100
AcDbPolyline
 90
    4
 70
    1
 43
0
 10
2316
 20
624
 10
2316
 20
649
 10
2310
 20
649
 10
2310
 20
624
  0
LWPOLYLINE
  5
1F8
100
AcDbEntity
  8
brick
  6
ByLayer
 62
  256
370
   -1
100
AcDbPolyline
 90
    4
 70
    1
 43
0
 10
2316
 20
650
 10
2316
 20
675
 10
2310
 20
675
 10
2310
 20
650
  0
LWPOLYLINE
  5
1F9
100
AcDbEntity
  8
brick
  6
ByLayer
 62
  256
370
   -1
100
AcDbPolyline
 90
    4
 70
    1
 43
0
 10
2316
 20
676
 10
2316
 20
701
 10
2310
 20
701
 10
2310
 20
676
  0
LWPOLYLINE
  5
1FA
100
AcDbEntity
  8
brick
  6
ByLayer
 62
  256
370
   -1
100
AcDbPolyline
 90
    4
 70
    1
 43
0
 10
2316
 20
702
 10
2316
 20
727
 10
2310
 20
727
 10
2310
 20
702
  0
LWPOLYLINE
  5
1FB
100
AcDbEntity
  8
brick
  6
ByLayer
 62
  256
370
   -1
100
AcDbPolyline
 90
    4
 70
    1
 43
0
 10
2316
 20
572
 10
2316
 20
597
 10
2310
 20
597
 10
2310
 20
572
  0
LWPOLYLINE
  5
1FC
100
AcDbEntity
  8
brick
  6
ByLayer
 62
  256
370
   -1
100
AcDbPolyline
 90
    4
 70
    1
 43
0
 10
2316
 20
546
 10
2316
 20
571
 10
2310
 20
571
 10
2310
 20
546
  0
LWPOLYLINE
  5
1FD
100
AcDbEntity
  8
brick
  6
ByLayer
 62
  256
370
   -1
100
AcDbPolyline
 90
    4
 70
    1
 43
0
 10
2316
 20
780
 10
2316
 20
805
 10
2310
 20
805
 10
2310
 20
780
  0
LWPOLYLINE
  5
1FE
100
AcDbEntity
  8
brick
  6
ByLayer
 62
  256
370
   -1
100
AcDbPolyline
 90
    4
 70
    1
 43
0
 10
2316
 20
806
 10
2316
 20
831
 10
2310
 20
831
 10
2310
 20
806
  0
LWPOLYLINE
  5
1FF
100
AcDbEntity
  8
brick
  6
ByLayer
 62
  256
370
   -1
100
AcDbPolyline
 90
    4
 70
    1
 43
0
 10
2316
 20
832
 10
2316
 20
857
 10
2310
 20
857
 10
2310
 20
832
  0
LWPOLYLINE
  5
200
100
AcDbEntity
  8
brick
  6
ByLayer
 62
  256
370
   -1
100
AcDbPolyline
 90
    4
 70
    1
 43
0
 10
2316
 20
858
 10
2316
 20
883
 10
2310
 20
883
 10
2310
 20
858
  0
LWPOLYLINE
  5
201
100
AcDbEntity
  8
brick
  6
ByLayer
 62
  256
370
   -1
100
AcDbPolyline
 90
    4
 70
    1
 43
0
 10
2316
 20
884
 10
2316
 20
909
 10
2310
 20
909
 10
2310
 20
884
  0
LWPOLYLINE
  5
202
100
AcDbEntity
  8
brick
  6
ByLayer
 62
  256
370
   -1
100
AcDbPolyline
 90
    4
 70
    1
 43
0
 10
2316
 20
754
 10
2316
 20
779
 10
2310
 20
779
 10
2310
 20
754
  0
LWPOLYLINE
  5
203
100
AcDbEntity
  8
brick
  6
ByLayer
 62
  256
370
   -1
100
AcDbPolyline
 90
    4
 70
    1
 43
0
 10
2316
 20
728
 10
2316
 20
753
 10
2310
 20
753
 10
2310
 20
728
  0
LWPOLYLINE
  5
204
100
AcDbEntity
  8
brick
  6
ByLayer
 62
  256
370
   -1
100
AcDbPolyline
 90
    4
 70
    1
 43
0
 10
2316
 20
910
 10
2316
 20
935
 10
2310
 20
935
 10
2310
 20
910
  0
LWPOLYLINE
  5
205
100
AcDbEntity
  8
brick
  6
ByLayer
 62
  256
370
   -1
100
AcDbPolyline
 90
    4
 70
    1
 43
0
 10
2316
 20
936
 10
2316
 20
961
 10
2310
 20
961
 10
2310
 20
936
  0
LWPOLYLINE
  5
206
100
AcDbEntity
  8
brick
  6
ByLayer
 62
  256
370
   -1
100
AcDbPolyline
 90
    4
 70
    1
 43
0
 10
2316
 20
962
 10
2316
 20
987
 10
2310
 20
987
 10
2310
 20
962
  0
LWPOLYLINE
  5
207
100
AcDbEntity
  8
brick
  6
ByLayer
 62
  256
370
   -1
100
AcDbPolyline
 90
    4
 70
    1
 43
0
 10
2316
 20
988
 10
2316
 20
1013
 10
2310
 20
1013
 10
2310
 20
988
  0
LWPOLYLINE
  5
208
100
AcDbEntity
  8
brick
  6
ByLayer
 62
  256
370
   -1
100
AcDbPolyline
 90
    4
 70
    1
 43
0
 10
2316
 20
1014
 10
2316
 20
1039
 10
2310
 20
1039
 10
2310
 20
1014
  0
LWPOLYLINE
  5
209
100
AcDbEntity
  8
brick
  6
ByLayer
 62
  256
370
   -1
100
AcDbPolyline
 90
    4
 70
    1
 43
0
 10
2316
 20
1040
 10
2316
 20
1052
 10
2310
 20
1052
 10
2310
 20
1040
  0
LWPOLYLINE
  5
20A
100
AcDbEntity
  8
brick
  6
ByLayer
 62
  256
370
   -1
100
AcDbPolyline
 90
    4
 70
    1
 43
0
 10
1290
 20
0
 10
1290
 20
12
 10
1284
 20
12
 10
1284
 20
3.673940397442059e-16
  0
LINE
  5
20B
100
AcDbEntity
  8
0
  6
ByLayer
 62
  256
370
   -1
100
AcDbLine
 10
-1026
 20
141
 11
-586
 21
141
  0
LINE
  5
20C
100
AcDbEntity
  8
0
  6
ByLayer
 62
  256
370
   -1
100
AcDbLine
 10
-1026
 20
468
 11
-586
 21
468
  0
LWPOLYLINE
  5
20D
100
AcDbEntity
  8
brick
  6
ByLayer
 62
  256
370
   -1
100
AcDbPolyline
 90
    4
 70
    1
 43
0
 10
1290
 20
65
 10
1290
 20
90
 10
1284
 20
90
 10
1284
 20
65
  0
LWPOLYLINE
  5
20E
100
AcDbEntity
  8
brick
  6
ByLayer
 62
  256
370
   -1
100
AcDbPolyline
 90
    4
 70
    1
 43
0
 10
1290
 20
91
 10
1290
 20
116
 10
1284
 20
116
 10
1284
 20
91
  0
LWPOLYLINE
  5
20F
100
AcDbEntity
  8
brick
  6
ByLayer
 62
  256
370
   -1
100
AcDbPolyline
 90
    4
 70
    1
 43
0
 10
1290
 20
117
 10
1290
 20
142
 10
1284
 20
142
 10
1284
 20
117
  0
LWPOLYLINE
  5
210
100
AcDbEntity
  8
brick
  6
ByLayer
 62
  256
370
   -1
100
AcDbPolyline
 90
    4
 70
    1
 43
0
 10
1290
 20
143
 10
1290
 20
168
 10
1284
 20
168
 10
1284
 20
143
  0
LWPOLYLINE
  5
211
100
AcDbEntity
  8
brick
  6
ByLayer
 62
  256
370
   -1
100
AcDbPolyline
 90
    4
 70
    1
 43
0
 10
1290
 20
169
 10
1290
 20
194
 10
1284
 20
194
 10
1284
 20
169
  0
LWPOLYLINE
  5
212
100
AcDbEntity
  8
brick
  6
ByLayer
 62
  256
370
   -1
100
AcDbPolyline
 90
    4
 70
    1
 43
0
 10
1290
 20
39
 10
1290
 20
64
 10
1284
 20
64
 10
1284
 20
39
  0
LWPOLYLINE
  5
213
100
AcDbEntity
  8
brick
  6
ByLayer
 62
  256
370
   -1
100
AcDbPolyline
 90
    4
 70
    1
 43
0
 10
1290
 20
13
 10
1290
 20
38
 10
1284
 20
38
 10
1284
 20
13
  0
LWPOLYLINE
  5
214
100
AcDbEntity
  8
brick
  6
ByLayer
 62
  256
370
   -1
100
AcDbPolyline
 90
    4
 70
    1
 43
0
 10
1290
 20
247
 10
1290
 20
272
 10
1284
 20
272
 10
1284
 20
247
  0
LWPOLYLINE
  5
215
100
AcDbEntity
  8
brick
  6
ByLayer
 62
  256
370
   -1
100
AcDbPolyline
 90
    4
 70
    1
 43
0
 10
1290
 20
273
 10
1290
 20
298
 10
1284
 20
298
 10
1284
 20
273
  0
LWPOLYLINE
  5
216
100
AcDbEntity
  8
brick
  6
ByLayer
 62
  256
370
   -1
100
AcDbPolyline
 90
    4
 70
    1
 43
0
 10
1290
 20
299
 10
1290
 20
324
 10
1284
 20
324
 10
1284
 20
299
  0
LWPOLYLINE
  5
217
100
AcDbEntity
  8
brick
  6
ByLayer
 62
  256
370
   -1
100
AcDbPolyline
 90
    4
 70
    1
 43
0
 10
1290
 20
325
 10
1290
 20
350
 10
1284
 20
350
 10
1284
 20
325
  0
LWPOLYLINE
  5
218
100
AcDbEntity
  8
brick
  6
ByLayer
 62
  256
370
   -1
100
AcDbPolyline
 90
    4
 70
    1
 43
0
 10
1290
 20
351
 10
1290
 20
376
 10
1284
 20
376
 10
1284
 20
351
  0
LWPOLYLINE
  5
219
100
AcDbEntity
  8
brick
  6
ByLayer
 62
  256
370
   -1
100
AcDbPolyline
 90
    4
 70
    1
 43
0
 10
1290
 20
221
 10
1290
 20
246
 10
1284
 20
246
 10
1284
 20
221
  0
LWPOLYLINE
  5
21A
100
AcDbEntity
  8
brick
  6
ByLayer
 62
  256
370
   -1
100
AcDbPolyline
 90
    4
 70
    1
 43
0
 10
1290
 20
195
 10
1290
 20
220
 10
1284
 20
220
 10
1284
 20
195
  0
LWPOLYLINE
  5
21B
100
AcDbEntity
  8
brick
  6
ByLayer
 62
  256
370
   -1
100
AcDbPolyline
 90
    4
 70
    1
 43
0
 10
1290
 20
429
 10
1290
 20
454
 10
1284
 20
454
 10
1284
 20
429
  0
LWPOLYLINE
  5
21C
100
AcDbEntity
  8
brick
  6
ByLayer
 62
  256
370
   -1
100
AcDbPolyline
 90
    4
 70
    1
 43
0
 10
1290
 20
455
 10
1290
 20
480
 10
1284
 20
480
 10
1284
 20
455
  0
LWPOLYLINE
  5
21D
100
AcDbEntity
  8
brick
  6
ByLayer
 62
  256
370
   -1
100
AcDbPolyline
 90
    4
 70
    1
 43
0
 10
1290
 20
481
 10
1290
 20
506
 10
1284
 20
506
 10
1284
 20
481
  0
LWPOLYLINE
  5
21E
100
AcDbEntity
  8
brick
  6
ByLayer
 62
  256
370
   -1
100
AcDbPolyline
 90
    4
 70
    1
 43
0
 10
1290
 20
507
 10
1290
 20
532
 10
1284
 20
532
 10
1284
 20
507
  0
LWPOLYLINE
  5
21F
100
AcDbEntity
  8
brick
  6
ByLayer
 62
  256
370
   -1
100
AcDbPolyline
 90
    4
 70
    1
 43
0
 10
1290
 20
533
 10
1290
 20
558
 10
1284
 20
558
 10
1284
 20
533
  0
LWPOLYLINE
  5
220
100
AcDbEntity
  8
brick
  6
ByLayer
 62
  256
370
   -1
100
AcDbPolyline
 90
    4
 70
    1
 43
0
 10
1290
 20
403
 10
1290
 20
428
 10
1284
 20
428
 10
1284
 20
403
  0
LWPOLYLINE
  5
221
100
AcDbEntity
  8
brick
  6
ByLayer
 62
  256
370
   -1
100
AcDbPolyline
 90
    4
 70
    1
 43
0
 10
1290
 20
377
 10
1290
 20
402
 10
1284
 20
402
 10
1284
 20
377
  0
LWPOLYLINE
  5
222
100
AcDbEntity
  8
brick
  6
ByLayer
 62
  256
370
   -1
100
AcDbPolyline
 90
    4
 70
    1
 43
0
 10
1290
 20
611
 10
1290
 20
636
 10
1284
 20
636
 10
1284
 20
611
  0
LWPOLYLINE
  5
223
100
AcDbEntity
  8
brick
  6
ByLayer
 62
  256
370
   -1
100
AcDbPolyline
 90
    4
 70
    1
 43
0
 10
1290
 20
637
 10
1290
 20
662
 10
1284
 20
662
 10
1284
 20
637
  0
LWPOLYLINE
  5
224
100
AcDbEntity
  8
brick
  6
ByLayer
 62
  256
370
   -1
100
AcDbPolyline
 90
    4
 70
    1
 43
0
 10
1290
 20
663
 10
1290
 20
688
 10
1284
 20
688
 10
1284
 20
663
  0
LWPOLYLINE
  5
225
100
AcDbEntity
  8
brick
  6
ByLayer
 62
  256
370
   -1
100
AcDbPolyline
 90
    4
 70
    1
 43
0
 10
1290
 20
689
 10
1290
 20
714
 10
1284
 20
714
 10
1284
 20
689
  0
LWPOLYLINE
  5
226
100
AcDbEntity
  8
brick
  6
ByLayer
 62
  256
370
   -1
100
AcDbPolyline
 90
    4
 70
    1
 43
0
 10
1290
 20
715
 10
1290
 20
740
 10
1284
 20
740
 10
1284
 20
715
  0
LWPOLYLINE
  5
227
100
AcDbEntity
  8
brick
  6
ByLayer
 62
  256
370
   -1
100
AcDbPolyline
 90
    4
 70
    1
 43
0
 10
1290
 20
585
 10
1290
 20
610
 10
1284
 20
610
 10
1284
 20
585
  0
LWPOLYLINE
  5
228
100
AcDbEntity
  8
brick
  6
ByLayer
 62
  256
370
   -1
100
AcDbPolyline
 90
    4
 70
    1
 43
0
 10
1290
 20
559
 10
1290
 20
584
 10
1284
 20
584
 10
1284
 20
559
  0
LWPOLYLINE
  5
229
100
AcDbEntity
  8
brick
  6
ByLayer
 62
  256
370
   -1
100
AcDbPolyline
 90
    4
 70
    1
 43
0
 10
1290
 20
793
 10
1290
 20
818
 10
1284
 20
818
 10
1284
 20
793
  0
LWPOLYLINE
  5
22A
100
AcDbEntity
  8
brick
  6
ByLayer
 62
  256
370
   -1
100
AcDbPolyline
 90
    4
 70
    1
 43
0
 10
1290
 20
819
 10
1290
 20
844
 10
1284
 20
844
 10
1284
 20
819
  0
LWPOLYLINE
  5
22B
100
AcDbEntity
  8
brick
  6
ByLayer
 62
  256
370
   -1
100
AcDbPolyline
 90
    4
 70
    1
 43
0
 10
1290
 20
845
 10
1290
 20
870
 10
1284
 20
870
 10
1284
 20
845
  0
LWPOLYLINE
  5
22C
100
AcDbEntity
  8
brick
  6
ByLayer
 62
  256
370
   -1
100
AcDbPolyline
 90
    4
 70
    1
 43
0
 10
1290
 20
871
 10
1290
 20
896
 10
1284
 20
896
 10
1284
 20
871
  0
LWPOLYLINE
  5
22D
100
AcDbEntity
  8
brick
  6
ByLayer
 62
  256
370
   -1
100
AcDbPolyline
 90
    4
 70
    1
 43
0
 10
1290
 20
897
 10
1290
 20
922
 10
1284
 20
922
 10
1284
 20
897
  0
LWPOLYLINE
  5
22E
100
AcDbEntity
  8
brick
  6
ByLayer
 62
  256
370
   -1
100
AcDbPolyline
 90
    4
 70
    1
 43
0
 10
1290
 20
767
 10
1290
 20
792
 10
1284
 20
792
 10
1284
 20
767
  0
LWPOLYLINE
  5
22F
100
AcDbEntity
  8
brick
  6
ByLayer
 62
  256
370
   -1
100
AcDbPolyline
 90
    4
 70
    1
 43
0
 10
1290
 20
741
 10
1290
 20
766
 10
1284
 20
766
 10
1284
 20
741
  0
LWPOLYLINE
  5
230
100
AcDbEntity
  8
brick
  6
ByLayer
 62
  256
370
   -1
100
AcDbPolyline
 90
    4
 70
    1
 43
0
 10
1290
 20
923
 10
1290
 20
948
 10
1284
 20
948
 10
1284
 20
923
  0
LWPOLYLINE
  5
231
100
AcDbEntity
  8
brick
  6
ByLayer
 62
  256
370
   -1
100
AcDbPolyline
 90
    4
 70
    1
 43
0
 10
1290
 20
949
 10
1290
 20
974
 10
1284
 20
974
 10
1284
 20
949
  0
LWPOLYLINE
  5
232
100
AcDbEntity
  8
brick
  6
ByLayer
 62
  256
370
   -1
100
AcDbPolyline
 90
    4
 70
    1
 43
0
 10
1290
 20
975
 10
1290
 20
1000
 10
1284
 20
1000
 10
1284
 20
975
  0
LWPOLYLINE
  5
233
100
AcDbEntity
  8
brick
  6
ByLayer
 62
  256
370
   -1
100
AcDbPolyline
 90
    4
 70
    1
 43
0
 10
1290
 20
1001
 10
1290
 20
1026
 10
1284
 20
1026
 10
1284
 20
1001
  0
LWPOLYLINE
  5
234
100
AcDbEntity
  8
brick
  6
ByLayer
 62
  256
370
   -1
100
AcDbPolyline
 90
    4
 70
    1
 43
0
 10
1290
 20
1027
 10
1290
 20
1052
 10
1284
 20
1052
 10
1284
 20
1027
  0
LWPOLYLINE
  5
235
100
AcDbEntity
  8
brick
  6
ByLayer
 62
  256
370
   -1
100
AcDbPolyline
 90
    4
 70
    1
 43
0
 10
1365
 20
1062
 10
1390
 20
1062
 10
1390
 20
1068
 10
1365
 20
1068
  0
LWPOLYLINE
  5
236
100
AcDbEntity
  8
brick
  6
ByLayer
 62
  256
370
   -1
100
AcDbPolyline
 90
    4
 70
    1
 43
0
 10
1391
 20
1062
 10
1416
 20
1062
 10
1416
 20
1068
 10
1391
 20
1068
  0
LWPOLYLINE
  5
237
100
AcDbEntity
  8
brick
  6
ByLayer
 62
  256
370
   -1
100
AcDbPolyline
 90
    4
 70
    1
 43
0
 10
1417
 20
1062
 10
1442
 20
1062
 10
1442
 20
1068
 10
1417
 20
1068
  0
LWPOLYLINE
  5
238
100
AcDbEntity
  8
brick
  6
ByLayer
 62
  256
370
   -1
100
AcDbPolyline
 90
    4
 70
    1
 43
0
 10
1443
 20
1062
 10
1468
 20
1062
 10
1468
 20
1068
 10
1443
 20
1068
  0
LWPOLYLINE
  5
239
100
AcDbEntity
  8
brick
  6
ByLayer
 62
  256
370
   -1
100
AcDbPolyline
 90
    4
 70
    1
 43
0
 10
1469
 20
1062
 10
1494
 20
1062
 10
1494
 20
1068
 10
1469
 20
1068
  0
LWPOLYLINE
  5
23A
100
AcDbEntity
  8
brick
  6
ByLayer
 62
  256
370
   -1
100
AcDbPolyline
 90
    4
 70
    1
 43
0
 10
1339
 20
1062
 10
1364
 20
1062
 10
1364
 20
1068
 10
1339
 20
1068
  0
LWPOLYLINE
  5
23B
100
AcDbEntity
  8
brick
  6
ByLayer
 62
  256
370
   -1
100
AcDbPolyline
 90
    4
 70
    1
 43
0
 10
1313
 20
1062
 10
1338
 20
1062
 10
1338
 20
1068
 10
1313
 20
1068
  0
LWPOLYLINE
  5
23C
100
AcDbEntity
  8
brick
  6
ByLayer
 62
  256
370
   -1
100
AcDbPolyline
 90
    4
 70
    1
 43
0
 10
1547
 20
1062
 10
1572
 20
1062
 10
1572
 20
1068
 10
1547
 20
1068
  0
LWPOLYLINE
  5
23D
100
AcDbEntity
  8
brick
  6
ByLayer
 62
  256
370
   -1
100
AcDbPolyline
 90
    4
 70
    1
 43
0
 10
1573
 20
1062
 10
1598
 20
1062
 10
1598
 20
1068
 10
1573
 20
1068
  0
LWPOLYLINE
  5
23E
100
AcDbEntity
  8
brick
  6
ByLayer
 62
  256
370
   -1
100
AcDbPolyline
 90
    4
 70
    1
 43
0
 10
1599
 20
1062
 10
1624
 20
1062
 10
1624
 20
1068
 10
1599
 20
1068
  0
LWPOLYLINE
  5
23F
100
AcDbEntity
  8
brick
  6
ByLayer
 62
  256
370
   -1
100
AcDbPolyline
 90
    4
 70
    1
 43
0
 10
1625
 20
1062
 10
1650
 20
1062
 10
1650
 20
1068
 10
1625
 20
1068
  0
LWPOLYLINE
  5
240
100
AcDbEntity
  8
brick
  6
ByLayer
 62
  256
370
   -1
100
AcDbPolyline
 90
    4
 70
    1
 43
0
 10
1651
 20
1062
 10
1676
 20
1062
 10
1676
 20
1068
 10
1651
 20
1068
  0
LWPOLYLINE
  5
241
100
AcDbEntity
  8
brick
  6
ByLayer
 62
  256
370
   -1
100
AcDbPolyline
 90
    4
 70
    1
 43
0
 10
1521
 20
1062
 10
1546
 20
1062
 10
1546
 20
1068
 10
1521
 20
1068
  0
LWPOLYLINE
  5
242
100
AcDbEntity
  8
brick
  6
ByLayer
 62
  256
370
   -1
100
AcDbPolyline
 90
    4
 70
    1
 43
0
 10
1495
 20
1062
 10
1520
 20
1062
 10
1520
 20
1068
 10
1495
 20
1068
  0
LWPOLYLINE
  5
243
100
AcDbEntity
  8
brick
  6
ByLayer
 62
  256
370
   -1
100
AcDbPolyline
 90
    4
 70
    1
 43
0
 10
1729
 20
1062
 10
1754
 20
1062
 10
1754
 20
1068
 10
1729
 20
1068
  0
LWPOLYLINE
  5
244
100
AcDbEntity
  8
brick
  6
ByLayer
 62
  256
370
   -1
100
AcDbPolyline
 90
    4
 70
    1
 43
0
 10
1755
 20
1062
 10
1780
 20
1062
 10
1780
 20
1068
 10
1755
 20
1068
  0
LWPOLYLINE
  5
245
100
AcDbEntity
  8
brick
  6
ByLayer
 62
  256
370
   -1
100
AcDbPolyline
 90
    4
 70
    1
 43
0
 10
1781
 20
1062
 10
1806
 20
1062
 10
1806
 20
1068
 10
1781
 20
1068
  0
LWPOLYLINE
  5
246
100
AcDbEntity
  8
brick
  6
ByLayer
 62
  256
370
   -1
100
AcDbPolyline
 90
    4
 70
    1
 43
0
 10
1807
 20
1062
 10
1832
 20
1062
 10
1832
 20
1068
 10
1807
 20
1068
  0
LWPOLYLINE
  5
247
100
AcDbEntity
  8
brick
  6
ByLayer
 62
  256
370
   -1
100
AcDbPolyline
 90
    4
 70
    1
 43
0
 10
1833
 20
1062
 10
1858
 20
1062
 10
1858
 20
1068
 10
1833
 20
1068
  0
LWPOLYLINE
  5
248
100
AcDbEntity
  8
brick
  6
ByLayer
 62
  256
370
   -1
100
AcDbPolyline
 90
    4
 70
    1
 43
0
 10
1703
 20
1062
 10
1728
 20
1062
 10
1728
 20
1068
 10
1703
 20
1068
  0
LWPOLYLINE
  5
249
100
AcDbEntity
  8
brick
  6
ByLayer
 62
  256
370
   -1
100
AcDbPolyline
 90
    4
 70
    1
 43
0
 10
1677
 20
1062
 10
1702
 20
1062
 10
1702
 20
1068
 10
1677
 20
1068
  0
LWPOLYLINE
  5
24A
100
AcDbEntity
  8
brick
  6
ByLayer
 62
  256
370
   -1
100
AcDbPolyline
 90
    4
 70
    1
 43
0
 10
1911
 20
1062
 10
1936
 20
1062
 10
1936
 20
1068
 10
1911
 20
1068
  0
LWPOLYLINE
  5
24B
100
AcDbEntity
  8
brick
  6
ByLayer
 62
  256
370
   -1
100
AcDbPolyline
 90
    4
 70
    1
 43
0
 10
1937
 20
1062
 10
1962
 20
1062
 10
1962
 20
1068
 10
1937
 20
1068
  0
LWPOLYLINE
  5
24C
100
AcDbEntity
  8
brick
  6
ByLayer
 62
  256
370
   -1
100
AcDbPolyline
 90
    4
 70
    1
 43
0
 10
1963
 20
1062
 10
1988
 20
1062
 10
1988
 20
1068
 10
1963
 20
1068
  0
LWPOLYLINE
  5
24D
100
AcDbEntity
  8
brick
  6
ByLayer
 62
  256
370
   -1
100
AcDbPolyline
 90
    4
 70
    1
 43
0
 10
1989
 20
1062
 10
2014
 20
1062
 10
2014
 20
1068
 10
1989
 20
1068
  0
LWPOLYLINE
  5
24E
100
AcDbEntity
  8
brick
  6
ByLayer
 62
  256
370
   -1
100
AcDbPolyline
 90
    4
 70
    1
 43
0
 10
2015
 20
1062
 10
2040
 20
1062
 10
2040
 20
1068
 10
2015
 20
1068
  0
LWPOLYLINE
  5
24F
100
AcDbEntity
  8
brick
  6
ByLayer
 62
  256
370
   -1
100
AcDbPolyline
 90
    4
 70
    1
 43
0
 10
1885
 20
1062
 10
1910
 20
1062
 10
1910
 20
1068
 10
1885
 20
1068
  0
LWPOLYLINE
  5
250
100
AcDbEntity
  8
brick
  6
ByLayer
 62
  256
370
   -1
100
AcDbPolyline
 90
    4
 70
    1
 43
0
 10
1859
 20
1062
 10
1884
 20
1062
 10
1884
 20
1068
 10
1859
 20
1068
  0
LWPOLYLINE
  5
251
100
AcDbEntity
  8
brick
  6
ByLayer
 62
  256
370
   -1
100
AcDbPolyline
 90
    4
 70
    1
 43
0
 10
2093
 20
1062
 10
2118
 20
1062
 10
2118
 20
1068
 10
2093
 20
1068
  0
LWPOLYLINE
  5
252
100
AcDbEntity
  8
brick
  6
ByLayer
 62
  256
370
   -1
100
AcDbPolyline
 90
    4
 70
    1
 43
0
 10
2119
 20
1062
 10
2144
 20
1062
 10
2144
 20
1068
 10
2119
 20
1068
  0
LWPOLYLINE
  5
253
100
AcDbEntity
  8
brick
  6
ByLayer
 62
  256
370
   -1
100
AcDbPolyline
 90
    4
 70
    1
 43
0
 10
2145
 20
1062
 10
2170
 20
1062
 10
2170
 20
1068
 10
2145
 20
1068
  0
LWPOLYLINE
  5
254
100
AcDbEntity
  8
brick
  6
ByLayer
 62
  256
370
   -1
100
AcDbPolyline
 90
    4
 70
    1
 43
0
 10
2171
 20
1062
 10
2196
 20
1062
 10
2196
 20
1068
 10
2171
 20
1068
  0
LWPOLYLINE
  5
255
100
AcDbEntity
  8
brick
  6
ByLayer
 62
  256
370
   -1
100
AcDbPolyline
 90
    4
 70
    1
 43
0
 10
2197
 20
1062
 10
2222
 20
1062
 10
2222
 20
1068
 10
2197
 20
1068
  0
LWPOLYLINE
  5
256
100
AcDbEntity
  8
brick
  6
ByLayer
 62
  256
370
   -1
100
AcDbPolyline
 90
    4
 70
    1
 43
0
 10
2067
 20
1062
 10
2092
 20
1062
 10
2092
 20
1068
 10
2067
 20
1068
  0
LWPOLYLINE
  5
257
100
AcDbEntity
  8
brick
  6
ByLayer
 62
  256
370
   -1
100
AcDbPolyline
 90
    4
 70
    1
 43
0
 10
2041
 20
1062
 10
2066
 20
1062
 10
2066
 20
1068
 10
2041
 20
1068
  0
LWPOLYLINE
  5
258
100
AcDbEntity
  8
brick
  6
ByLayer
 62
  256
370
   -1
100
AcDbPolyline
 90
    4
 70
    1
 43
0
 10
2223
 20
1062
 10
2248
 20
1062
 10
2248
 20
1068
 10
2223
 20
1068
  0
LWPOLYLINE
  5
259
100
AcDbEntity
  8
brick
  6
ByLayer
 62
  256
370
   -1
100
AcDbPolyline
 90
    4
 70
    1
 43
0
 10
2249
 20
1062
 10
2274
 20
1062
 10
2274
 20
1068
 10
2249
 20
1068
  0
LWPOLYLINE
  5
25A
100
AcDbEntity
  8
brick
  6
ByLayer
 62
  256
370
   -1
100
AcDbPolyline
 90
    4
 70
    1
 43
0
 10
2275
 20
1062
 10
2300
 20
1062
 10
2300
 20
1068
 10
2275
 20
1068
  0
LWPOLYLINE
  5
25B
100
AcDbEntity
  8
brick
  6
ByLayer
 62
  256
370
   -1
100
AcDbPolyline
 90
    4
 70
    1
 43
0
 10
1300
 20
1062
 10
1312
 20
1062
 10
1312
 20
1068
 10
1300
 20
1068
  0
LINE
  5
25C
100
AcDbEntity
  8
dimensions
  6
DASHDOT2
 62
  256
370
   -1
100
AcDbLine
 10
2242.5
 20
1004.5
 11
2242.5
 21
984.5
  0
LINE
  5
25D
100
AcDbEntity
  8
dimensions
  6
DASHDOT2
 62
  256
370
   -1
100
AcDbLine
 10
2232.5
 20
994.5
 11
2252.5
 21
994.5
  0
LWPOLYLINE
  5
25E
100
AcDbEntity
  8
0
  6
ByLayer
 62
  256
370
   -1
100
AcDbPolyline
 90
    4
 70
    1
 43
0
 10
1693
 20
705
 10
1783
 20
705
 10
1783
 20
685
 10
1693
 20
685
  0
LWPOLYLINE
  5
25F
100
AcDbEntity
  8
cegla
  6
ByLayer
 62
  256
370
   -1
100
AcDbPolyline
 90
    4
 70
    1
 43
0
 10
1817
 20
47
 10
1842
 20
47
 10
1842
 20
1005
 10
1817
 20
1005
  0
LWPOLYLINE
  5
260
100
AcDbEntity
  8
cegla
  6
ByLayer
 62
  256
370
   -1
100
AcDbPolyline
 90
    4
 70
    1
 43
0
 10
1817
 20
703
 10
1842
 20
703
 10
1842
 20
696
 10
1817
 20
696
  0
LWPOLYLINE
  5
261
100
AcDbEntity
  8
cegla
  6
ByLayer
 62
  256
370
   -1
100
AcDbPolyline
 90
    4
 70
    1
 43
0
 10
1817
 20
671
 10
1817
 20
696
 10
1824
 20
696
 10
1824
 20
671
  0
LWPOLYLINE
  5
262
100
AcDbEntity
  8
cegla
  6
ByLayer
 62
  256
370
   -1
100
AcDbPolyline
 90
    4
 70
    1
 43
0
 10
1835
 20
671
 10
1835
 20
696
 10
1842
 20
696
 10
1842
 20
671
  0
LWPOLYLINE
  5
263
100
AcDbEntity
  8
cegla
  6
ByLayer
 62
  256
370
   -1
100
AcDbPolyline
 90
    4
 70
    1
 43
0
 10
1817
 20
671
 10
1842
 20
671
 10
1842
 20
664
 10
1817
 20
664
  0
LWPOLYLINE
  5
264
100
AcDbEntity
  8
plyty
  6
DASHED2
 62
  256
370
   -1
100
AcDbPolyline
 90
    6
 70
    1
 43
0
 10
1831
 20
705.9999600000001
 10
2269
 20
705.9999600000001
 10
2269
 20
854.9999600000001
 10
1831
 20
854.9999600000001
 10
1831
 20
854.9999600000001
 10
1831
 20
854.9999600000001
  0
LWPOLYLINE
  5
265
100
AcDbEntity
  8
plyty
  6
DASHED2
 62
  256
370
   -1
100
AcDbPolyline
 90
    6
 70
    1
 43
0
 10
1831
 20
856
 10
2269
 20
856
 10
2269
 20
1005
 10
1831
 20
1005
 10
1831
 20
1005
 10
1831
 20
1005
  0
LWPOLYLINE
  5
266
100
AcDbEntity
  8
plyty
  6
DASHED2
 62
  256
370
   -1
100
AcDbPolyline
 90
    6
 70
    1
 43
0
 10
1330
 20
856
 10
1828
 20
856
 10
1828
 20
1005
 10
1330
 20
1005
 10
1330
 20
1005
 10
1330
 20
1005
  0
LWPOLYLINE
  5
267
100
AcDbEntity
  8
plyty
  6
DASHED2
 62
  256
370
   -1
100
AcDbPolyline
 90
    6
 70
    1
 43
0
 10
1330
 20
706
 10
1828
 20
706
 10
1828
 20
855
 10
1330
 20
855
 10
1330
 20
855
 10
1330
 20
855
  0
LWPOLYLINE
  5
268
100
AcDbEntity
  8
balky
  6
ByLayer
 62
  256
370
   -1
100
AcDbPolyline
 90
    4
 70
    1
 43
0
 10
1671
 20
460
 10
1646
 20
460
 10
1646
 20
705
 10
1671
 20
705
  0
LWPOLYLINE
  5
269
100
AcDbEntity
  8
gazoblok
  6
ByLayer
 62
  256
370
   -1
100
AcDbPolyline
 90
    4
 70
    1
 43
0
 10
1347
 20
685
 10
1817
 20
685
 10
1817
 20
705
 10
1347
 20
705
  0
LWPOLYLINE
  5
26A
100
AcDbEntity
  8
gazoblok
  6
ByLayer
 62
  256
370
   -1
100
AcDbPolyline
 90
    4
 70
    1
 43
0
 10
2717
 20
1035
 10
3683
 20
1035
 10
3683
 20
17
 10
2717
 20
17
  0
LWPOLYLINE
  5
26B
100
AcDbEntity
  8
gazoblok
  6
ByLayer
 62
  256
370
   -1
100
AcDbPolyline
 90
    4
 70
    1
 43
0
 10
2747
 20
47
 10
3653
 20
47
 10
3653
 20
1005
 10
2747
 20
1005
  0
LWPOLYLINE
  5
26C
100
AcDbEntity
  8
face
  6
ByLayer
 62
  256
370
   -1
100
AcDbPolyline
 90
    4
 70
    1
 43
0
 10
2712
 20
1040
 10
3688
 20
1040
 10
3688
 20
12
 10
2712
 20
12
  0
LWPOLYLINE
  5
26D
100
AcDbEntity
  8
face
  6
ByLayer
 62
  256
370
   -1
100
AcDbPolyline
 90
    4
 70
    1
 43
0
 10
2700
 20
1052
 10
3700.000000000001
 20
1052
 10
3700
 20
8.881784197001252e-16
 10
2700
 20
8.881784197001252e-16
  0
LWPOLYLINE
  5
26E
100
AcDbEntity
  8
0
  6
ByLayer
 62
  256
370
   -1
100
AcDbPolyline
 90
    4
 70
    1
 43
0
 10
3090
 20
705
 10
3180
 20
705
 10
3180
 20
685
 10
3090
 20
685
  0
LWPOLYLINE
  5
26F
100
AcDbEntity
  8
gazoblok
  6
ByLayer
 62
  256
370
   -1
100
AcDbPolyline
 90
    4
 70
    1
 43
0
 10
3214
 20
47
 10
3244
 20
47
 10
3244
 20
1005
 10
3214
 20
1005
  0
LWPOLYLINE
  5
270
100
AcDbEntity
  8
plyty
  6
DASHED2
 62
  256
370
   -1
100
AcDbPolyline
 90
    6
 70
    1
 43
0
 10
2730
 20
856
 10
3228
 20
856
 10
3228
 20
1005
 10
2730
 20
1005
 10
2730
 20
1005
 10
2730
 20
1005
  0
LWPOLYLINE
  5
271
100
AcDbEntity
  8
plyty
  6
DASHED2
 62
  256
370
   -1
100
AcDbPolyline
 90
    6
 70
    1
 43
0
 10
2730
 20
706
 10
3228
 20
706
 10
3228
 20
855
 10
2730
 20
855
 10
2730
 20
855
 10
2730
 20
855
  0
LWPOLYLINE
  5
272
100
AcDbEntity
  8
plyty
  6
DASHED2
 62
  256
370
   -1
100
AcDbPolyline
 90
    6
 70
    1
 43
0
 10
3231
 20
705.9999600000001
 10
3669
 20
705.9999600000001
 10
3669
 20
854.9999600000001
 10
3231
 20
854.9999600000001
 10
3231
 20
854.9999600000001
 10
3231
 20
854.9999600000001
  0
LWPOLYLINE
  5
273
100
AcDbEntity
  8
plyty
  6
DASHED2
 62
  256
370
   -1
100
AcDbPolyline
 90
    6
 70
    1
 43
0
 10
3231
 20
856
 10
3669
 20
856
 10
3669
 20
1005
 10
3231
 20
1005
 10
3231
 20
1005
 10
3231
 20
1005
  0
LWPOLYLINE
  5
274
100
AcDbEntity
  8
gazoblok
  6
ByLayer
 62
  256
370
   -1
100
AcDbPolyline
 90
    4
 70
    1
 43
0
 10
2747
 20
685
 10
3214
 20
685
 10
3214
 20
705
 10
2747
 20
705
  0
LWPOLYLINE
  5
275
100
AcDbEntity
  8
cegla
  6
ByLayer
 62
  256
370
   -1
100
AcDbPolyline
 90
    4
 70
    1
 43
0
 10
3217
 20
703
 10
3242
 20
703
 10
3242
 20
696
 10
3217
 20
696
  0
LWPOLYLINE
  5
276
100
AcDbEntity
  8
cegla
  6
ByLayer
 62
  256
370
   -1
100
AcDbPolyline
 90
    4
 70
    1
 43
0
 10
3217
 20
671
 10
3217
 20
696
 10
3224
 20
696
 10
3224
 20
671
  0
LWPOLYLINE
  5
277
100
AcDbEntity
  8
cegla
  6
ByLayer
 62
  256
370
   -1
100
AcDbPolyline
 90
    4
 70
    1
 43
0
 10
3235
 20
671
 10
3235
 20
696
 10
3242
 20
696
 10
3242
 20
671
  0
LWPOLYLINE
  5
278
100
AcDbEntity
  8
cegla
  6
ByLayer
 62
  256
370
   -1
100
AcDbPolyline
 90
    4
 70
    1
 43
0
 10
3217
 20
671
 10
3242
 20
671
 10
3242
 20
664
 10
3217
 20
664
  0
LWPOLYLINE
  5
279
100
AcDbEntity
  8
brick
  6
ByLayer
 62
  256
370
   -1
100
AcDbPolyline
 90
    4
 70
    1
 43
0
 10
2752
 20
-16
 10
2777
 20
-16
 10
2777
 20
-10
 10
2752
 20
-10
  0
LWPOLYLINE
  5
27A
100
AcDbEntity
  8
brick
  6
ByLayer
 62
  256
370
   -1
100
AcDbPolyline
 90
    4
 70
    1
 43
0
 10
2778
 20
-16
 10
2803
 20
-16
 10
2803
 20
-10
 10
2778
 20
-10
  0
LWPOLYLINE
  5
27B
100
AcDbEntity
  8
brick
  6
ByLayer
 62
  256
370
   -1
100
AcDbPolyline
 90
    4
 70
    1
 43
0
 10
2804
 20
-16
 10
2829
 20
-16
 10
2829
 20
-10
 10
2804
 20
-10
  0
LWPOLYLINE
  5
27C
100
AcDbEntity
  8
brick
  6
ByLayer
 62
  256
370
   -1
100
AcDbPolyline
 90
    4
 70
    1
 43
0
 10
2830
 20
-16
 10
2855
 20
-16
 10
2855
 20
-10
 10
2830
 20
-10
  0
LWPOLYLINE
  5
27D
100
AcDbEntity
  8
brick
  6
ByLayer
 62
  256
370
   -1
100
AcDbPolyline
 90
    4
 70
    1
 43
0
 10
2856
 20
-16
 10
2881
 20
-16
 10
2881
 20
-10
 10
2856
 20
-10
  0
LWPOLYLINE
  5
27E
100
AcDbEntity
  8
brick
  6
ByLayer
 62
  256
370
   -1
100
AcDbPolyline
 90
    4
 70
    1
 43
0
 10
2726
 20
-16
 10
2751
 20
-16
 10
2751
 20
-10
 10
2726
 20
-10
  0
LWPOLYLINE
  5
27F
100
AcDbEntity
  8
brick
  6
ByLayer
 62
  256
370
   -1
100
AcDbPolyline
 90
    4
 70
    1
 43
0
 10
2700
 20
-16
 10
2725
 20
-16
 10
2725
 20
-10
 10
2700
 20
-10
  0
LWPOLYLINE
  5
280
100
AcDbEntity
  8
brick
  6
ByLayer
 62
  256
370
   -1
100
AcDbPolyline
 90
    4
 70
    1
 43
0
 10
2934
 20
-16
 10
2959
 20
-16
 10
2959
 20
-10
 10
2934
 20
-10
  0
LWPOLYLINE
  5
281
100
AcDbEntity
  8
brick
  6
ByLayer
 62
  256
370
   -1
100
AcDbPolyline
 90
    4
 70
    1
 43
0
 10
2960
 20
-16
 10
2985
 20
-16
 10
2985
 20
-10
 10
2960
 20
-10
  0
LWPOLYLINE
  5
282
100
AcDbEntity
  8
brick
  6
ByLayer
 62
  256
370
   -1
100
AcDbPolyline
 90
    4
 70
    1
 43
0
 10
2986
 20
-16
 10
3011
 20
-16
 10
3011
 20
-10
 10
2986
 20
-10
  0
LWPOLYLINE
  5
283
100
AcDbEntity
  8
brick
  6
ByLayer
 62
  256
370
   -1
100
AcDbPolyline
 90
    4
 70
    1
 43
0
 10
3012
 20
-16
 10
3037
 20
-16
 10
3037
 20
-10
 10
3012
 20
-10
  0
LWPOLYLINE
  5
284
100
AcDbEntity
  8
brick
  6
ByLayer
 62
  256
370
   -1
100
AcDbPolyline
 90
    4
 70
    1
 43
0
 10
3038
 20
-16
 10
3063
 20
-16
 10
3063
 20
-10
 10
3038
 20
-10
  0
LWPOLYLINE
  5
285
100
AcDbEntity
  8
brick
  6
ByLayer
 62
  256
370
   -1
100
AcDbPolyline
 90
    4
 70
    1
 43
0
 10
2908
 20
-16
 10
2933
 20
-16
 10
2933
 20
-10
 10
2908
 20
-10
  0
LWPOLYLINE
  5
286
100
AcDbEntity
  8
brick
  6
ByLayer
 62
  256
370
   -1
100
AcDbPolyline
 90
    4
 70
    1
 43
0
 10
2882
 20
-16
 10
2907
 20
-16
 10
2907
 20
-10
 10
2882
 20
-10
  0
LWPOLYLINE
  5
287
100
AcDbEntity
  8
brick
  6
ByLayer
 62
  256
370
   -1
100
AcDbPolyline
 90
    4
 70
    1
 43
0
 10
3116
 20
-16
 10
3141
 20
-16
 10
3141
 20
-10
 10
3116
 20
-10
  0
LWPOLYLINE
  5
288
100
AcDbEntity
  8
brick
  6
ByLayer
 62
  256
370
   -1
100
AcDbPolyline
 90
    4
 70
    1
 43
0
 10
3142
 20
-16
 10
3167
 20
-16
 10
3167
 20
-10
 10
3142
 20
-10
  0
LWPOLYLINE
  5
289
100
AcDbEntity
  8
brick
  6
ByLayer
 62
  256
370
   -1
100
AcDbPolyline
 90
    4
 70
    1
 43
0
 10
3168
 20
-16
 10
3193
 20
-16
 10
3193
 20
-10
 10
3168
 20
-10
  0
LWPOLYLINE
  5
28A
100
AcDbEntity
  8
brick
  6
ByLayer
 62
  256
370
   -1
100
AcDbPolyline
 90
    4
 70
    1
 43
0
 10
3194
 20
-16
 10
3219
 20
-16
 10
3219
 20
-10
 10
3194
 20
-10
  0
LWPOLYLINE
  5
28B
100
AcDbEntity
  8
brick
  6
ByLayer
 62
  256
370
   -1
100
AcDbPolyline
 90
    4
 70
    1
 43
0
 10
3220
 20
-16
 10
3245
 20
-16
 10
3245
 20
-10
 10
3220
 20
-10
  0
LWPOLYLINE
  5
28C
100
AcDbEntity
  8
brick
  6
ByLayer
 62
  256
370
   -1
100
AcDbPolyline
 90
    4
 70
    1
 43
0
 10
3090
 20
-16
 10
3115
 20
-16
 10
3115
 20
-10
 10
3090
 20
-10
  0
LWPOLYLINE
  5
28D
100
AcDbEntity
  8
brick
  6
ByLayer
 62
  256
370
   -1
100
AcDbPolyline
 90
    4
 70
    1
 43
0
 10
3064
 20
-16
 10
3089
 20
-16
 10
3089
 20
-10
 10
3064
 20
-10
  0
LWPOLYLINE
  5
28E
100
AcDbEntity
  8
brick
  6
ByLayer
 62
  256
370
   -1
100
AcDbPolyline
 90
    4
 70
    1
 43
0
 10
3298
 20
-16
 10
3323
 20
-16
 10
3323
 20
-10
 10
3298
 20
-10
  0
LWPOLYLINE
  5
28F
100
AcDbEntity
  8
brick
  6
ByLayer
 62
  256
370
   -1
100
AcDbPolyline
 90
    4
 70
    1
 43
0
 10
3324
 20
-16
 10
3349
 20
-16
 10
3349
 20
-10
 10
3324
 20
-10
  0
LWPOLYLINE
  5
290
100
AcDbEntity
  8
brick
  6
ByLayer
 62
  256
370
   -1
100
AcDbPolyline
 90
    4
 70
    1
 43
0
 10
3350
 20
-16
 10
3375
 20
-16
 10
3375
 20
-10
 10
3350
 20
-10
  0
LWPOLYLINE
  5
291
100
AcDbEntity
  8
brick
  6
ByLayer
 62
  256
370
   -1
100
AcDbPolyline
 90
    4
 70
    1
 43
0
 10
3376
 20
-16
 10
3401
 20
-16
 10
3401
 20
-10
 10
3376
 20
-10
  0
LWPOLYLINE
  5
292
100
AcDbEntity
  8
brick
  6
ByLayer
 62
  256
370
   -1
100
AcDbPolyline
 90
    4
 70
    1
 43
0
 10
3402
 20
-16
 10
3427
 20
-16
 10
3427
 20
-10
 10
3402
 20
-10
  0
LWPOLYLINE
  5
293
100
AcDbEntity
  8
brick
  6
ByLayer
 62
  256
370
   -1
100
AcDbPolyline
 90
    4
 70
    1
 43
0
 10
3272
 20
-16
 10
3297
 20
-16
 10
3297
 20
-10
 10
3272
 20
-10
  0
LWPOLYLINE
  5
294
100
AcDbEntity
  8
brick
  6
ByLayer
 62
  256
370
   -1
100
AcDbPolyline
 90
    4
 70
    1
 43
0
 10
3246
 20
-16
 10
3271
 20
-16
 10
3271
 20
-10
 10
3246
 20
-10
  0
LWPOLYLINE
  5
295
100
AcDbEntity
  8
brick
  6
ByLayer
 62
  256
370
   -1
100
AcDbPolyline
 90
    4
 70
    1
 43
0
 10
3480
 20
-16
 10
3505
 20
-16
 10
3505
 20
-10
 10
3480
 20
-10
  0
LWPOLYLINE
  5
296
100
AcDbEntity
  8
brick
  6
ByLayer
 62
  256
370
   -1
100
AcDbPolyline
 90
    4
 70
    1
 43
0
 10
3506
 20
-16
 10
3531
 20
-16
 10
3531
 20
-10
 10
3506
 20
-10
  0
LWPOLYLINE
  5
297
100
AcDbEntity
  8
brick
  6
ByLayer
 62
  256
370
   -1
100
AcDbPolyline
 90
    4
 70
    1
 43
0
 10
3532
 20
-16
 10
3557
 20
-16
 10
3557
 20
-10
 10
3532
 20
-10
  0
LWPOLYLINE
  5
298
100
AcDbEntity
  8
brick
  6
ByLayer
 62
  256
370
   -1
100
AcDbPolyline
 90
    4
 70
    1
 43
0
 10
3558
 20
-16
 10
3583
 20
-16
 10
3583
 20
-10
 10
3558
 20
-10
  0
LWPOLYLINE
  5
299
100
AcDbEntity
  8
brick
  6
ByLayer
 62
  256
370
   -1
100
AcDbPolyline
 90
    4
 70
    1
 43
0
 10
3584
 20
-16
 10
3609
 20
-16
 10
3609
 20
-10
 10
3584
 20
-10
  0
LWPOLYLINE
  5
29A
100
AcDbEntity
  8
brick
  6
ByLayer
 62
  256
370
   -1
100
AcDbPolyline
 90
    4
 70
    1
 43
0
 10
3454
 20
-16
 10
3479
 20
-16
 10
3479
 20
-10
 10
3454
 20
-10
  0
LWPOLYLINE
  5
29B
100
AcDbEntity
  8
brick
  6
ByLayer
 62
  256
370
   -1
100
AcDbPolyline
 90
    4
 70
    1
 43
0
 10
3428
 20
-16
 10
3453
 20
-16
 10
3453
 20
-10
 10
3428
 20
-10
  0
LWPOLYLINE
  5
29C
100
AcDbEntity
  8
brick
  6
ByLayer
 62
  256
370
   -1
100
AcDbPolyline
 90
    4
 70
    1
 43
0
 10
3610
 20
-16
 10
3635
 20
-16
 10
3635
 20
-10
 10
3610
 20
-10
  0
LWPOLYLINE
  5
29D
100
AcDbEntity
  8
brick
  6
ByLayer
 62
  256
370
   -1
100
AcDbPolyline
 90
    4
 70
    1
 43
0
 10
3636
 20
-16
 10
3661
 20
-16
 10
3661
 20
-10
 10
3636
 20
-10
  0
LWPOLYLINE
  5
29E
100
AcDbEntity
  8
brick
  6
ByLayer
 62
  256
370
   -1
100
AcDbPolyline
 90
    4
 70
    1
 43
0
 10
3662
 20
-16
 10
3687
 20
-16
 10
3687
 20
-10
 10
3662
 20
-10
  0
LWPOLYLINE
  5
29F
100
AcDbEntity
  8
brick
  6
ByLayer
 62
  256
370
   -1
100
AcDbPolyline
 90
    4
 70
    1
 43
0
 10
3688
 20
-16
 10
3700
 20
-16
 10
3700
 20
-10
 10
3688
 20
-10
  0
LWPOLYLINE
  5
2A0
100
AcDbEntity
  8
brick
  6
ByLayer
 62
  256
370
   -1
100
AcDbPolyline
 90
    4
 70
    1
 43
0
 10
3716
 20
52
 10
3716
 20
77
 10
3710
 20
77
 10
3710
 20
52
  0
LWPOLYLINE
  5
2A1
100
AcDbEntity
  8
brick
  6
ByLayer
 62
  256
370
   -1
100
AcDbPolyline
 90
    4
 70
    1
 43
0
 10
3716
 20
78
 10
3716
 20
103
 10
3710
 20
103
 10
3710
 20
78
  0
LWPOLYLINE
  5
2A2
100
AcDbEntity
  8
brick
  6
ByLayer
 62
  256
370
   -1
100
AcDbPolyline
 90
    4
 70
    1
 43
0
 10
3716
 20
104
 10
3716
 20
129
 10
3710
 20
129
 10
3710
 20
104
  0
LWPOLYLINE
  5
2A3
100
AcDbEntity
  8
brick
  6
ByLayer
 62
  256
370
   -1
100
AcDbPolyline
 90
    4
 70
    1
 43
0
 10
3716
 20
130
 10
3716
 20
155
 10
3710
 20
155
 10
3710
 20
130
  0
LWPOLYLINE
  5
2A4
100
AcDbEntity
  8
brick
  6
ByLayer
 62
  256
370
   -1
100
AcDbPolyline
 90
    4
 70
    1
 43
0
 10
3716
 20
156
 10
3716
 20
181
 10
3710
 20
181
 10
3710
 20
156
  0
LWPOLYLINE
  5
2A5
100
AcDbEntity
  8
brick
  6
ByLayer
 62
  256
370
   -1
100
AcDbPolyline
 90
    4
 70
    1
 43
0
 10
3716
 20
26
 10
3716
 20
51
 10
3710
 20
51
 10
3710
 20
26
  0
LWPOLYLINE
  5
2A6
100
AcDbEntity
  8
brick
  6
ByLayer
 62
  256
370
   -1
100
AcDbPolyline
 90
    4
 70
    1
 43
0
 10
3716
 20
-3.673940397442059e-16
 10
3716
 20
25
 10
3710
 20
25
 10
3710
 20
0
  0
LWPOLYLINE
  5
2A7
100
AcDbEntity
  8
brick
  6
ByLayer
 62
  256
370
   -1
100
AcDbPolyline
 90
    4
 70
    1
 43
0
 10
3716
 20
234
 10
3716
 20
259
 10
3710
 20
259
 10
3710
 20
234
  0
LWPOLYLINE
  5
2A8
100
AcDbEntity
  8
brick
  6
ByLayer
 62
  256
370
   -1
100
AcDbPolyline
 90
    4
 70
    1
 43
0
 10
3716
 20
260
 10
3716
 20
285
 10
3710
 20
285
 10
3710
 20
260
  0
LWPOLYLINE
  5
2A9
100
AcDbEntity
  8
brick
  6
ByLayer
 62
  256
370
   -1
100
AcDbPolyline
 90
    4
 70
    1
 43
0
 10
3716
 20
286
 10
3716
 20
311
 10
3710
 20
311
 10
3710
 20
286
  0
LWPOLYLINE
  5
2AA
100
AcDbEntity
  8
brick
  6
ByLayer
 62
  256
370
   -1
100
AcDbPolyline
 90
    4
 70
    1
 43
0
 10
3716
 20
312
 10
3716
 20
337
 10
3710
 20
337
 10
3710
 20
312
  0
LWPOLYLINE
  5
2AB
100
AcDbEntity
  8
brick
  6
ByLayer
 62
  256
370
   -1
100
AcDbPolyline
 90
    4
 70
    1
 43
0
 10
3716
 20
338
 10
3716
 20
363
 10
3710
 20
363
 10
3710
 20
338
  0
LWPOLYLINE
  5
2AC
100
AcDbEntity
  8
brick
  6
ByLayer
 62
  256
370
   -1
100
AcDbPolyline
 90
    4
 70
    1
 43
0
 10
3716
 20
208
 10
3716
 20
233
 10
3710
 20
233
 10
3710
 20
208
  0
LWPOLYLINE
  5
2AD
100
AcDbEntity
  8
brick
  6
ByLayer
 62
  256
370
   -1
100
AcDbPolyline
 90
    4
 70
    1
 43
0
 10
3716
 20
182
 10
3716
 20
207
 10
3710
 20
207
 10
3710
 20
182
  0
LWPOLYLINE
  5
2AE
100
AcDbEntity
  8
brick
  6
ByLayer
 62
  256
370
   -1
100
AcDbPolyline
 90
    4
 70
    1
 43
0
 10
3716
 20
416
 10
3716
 20
441
 10
3710
 20
441
 10
3710
 20
416
  0
LWPOLYLINE
  5
2AF
100
AcDbEntity
  8
brick
  6
ByLayer
 62
  256
370
   -1
100
AcDbPolyline
 90
    4
 70
    1
 43
0
 10
3716
 20
442
 10
3716
 20
467
 10
3710
 20
467
 10
3710
 20
442
  0
LWPOLYLINE
  5
2B0
100
AcDbEntity
  8
brick
  6
ByLayer
 62
  256
370
   -1
100
AcDbPolyline
 90
    4
 70
    1
 43
0
 10
3716
 20
468
 10
3716
 20
493
 10
3710
 20
493
 10
3710
 20
468
  0
LWPOLYLINE
  5
2B1
100
AcDbEntity
  8
brick
  6
ByLayer
 62
  256
370
   -1
100
AcDbPolyline
 90
    4
 70
    1
 43
0
 10
3716
 20
494
 10
3716
 20
519
 10
3710
 20
519
 10
3710
 20
494
  0
LWPOLYLINE
  5
2B2
100
AcDbEntity
  8
brick
  6
ByLayer
 62
  256
370
   -1
100
AcDbPolyline
 90
    4
 70
    1
 43
0
 10
3716
 20
520
 10
3716
 20
545
 10
3710
 20
545
 10
3710
 20
520
  0
LWPOLYLINE
  5
2B3
100
AcDbEntity
  8
brick
  6
ByLayer
 62
  256
370
   -1
100
AcDbPolyline
 90
    4
 70
    1
 43
0
 10
3716
 20
390
 10
3716
 20
415
 10
3710
 20
415
 10
3710
 20
390
  0
LWPOLYLINE
  5
2B4
100
AcDbEntity
  8
brick
  6
ByLayer
 62
  256
370
   -1
100
AcDbPolyline
 90
    4
 70
    1
 43
0
 10
3716
 20
364
 10
3716
 20
389
 10
3710
 20
389
 10
3710
 20
364
  0
LWPOLYLINE
  5
2B5
100
AcDbEntity
  8
brick
  6
ByLayer
 62
  256
370
   -1
100
AcDbPolyline
 90
    4
 70
    1
 43
0
 10
3716
 20
598
 10
3716
 20
623
 10
3710
 20
623
 10
3710
 20
598
  0
LWPOLYLINE
  5
2B6
100
AcDbEntity
  8
brick
  6
ByLayer
 62
  256
370
   -1
100
AcDbPolyline
 90
    4
 70
    1
 43
0
 10
3716
 20
624
 10
3716
 20
649
 10
3710
 20
649
 10
3710
 20
624
  0
LWPOLYLINE
  5
2B7
100
AcDbEntity
  8
brick
  6
ByLayer
 62
  256
370
   -1
100
AcDbPolyline
 90
    4
 70
    1
 43
0
 10
3716
 20
650
 10
3716
 20
675
 10
3710
 20
675
 10
3710
 20
650
  0
LWPOLYLINE
  5
2B8
100
AcDbEntity
  8
brick
  6
ByLayer
 62
  256
370
   -1
100
AcDbPolyline
 90
    4
 70
    1
 43
0
 10
3716
 20
676
 10
3716
 20
701
 10
3710
 20
701
 10
3710
 20
676
  0
LWPOLYLINE
  5
2B9
100
AcDbEntity
  8
brick
  6
ByLayer
 62
  256
370
   -1
100
AcDbPolyline
 90
    4
 70
    1
 43
0
 10
3716
 20
702
 10
3716
 20
727
 10
3710
 20
727
 10
3710
 20
702
  0
LWPOLYLINE
  5
2BA
100
AcDbEntity
  8
brick
  6
ByLayer
 62
  256
370
   -1
100
AcDbPolyline
 90
    4
 70
    1
 43
0
 10
3716
 20
572
 10
3716
 20
597
 10
3710
 20
597
 10
3710
 20
572
  0
LWPOLYLINE
  5
2BB
100
AcDbEntity
  8
brick
  6
ByLayer
 62
  256
370
   -1
100
AcDbPolyline
 90
    4
 70
    1
 43
0
 10
3716
 20
546
 10
3716
 20
571
 10
3710
 20
571
 10
3710
 20
546
  0
LWPOLYLINE
  5
2BC
100
AcDbEntity
  8
brick
  6
ByLayer
 62
  256
370
   -1
100
AcDbPolyline
 90
    4
 70
    1
 43
0
 10
3716
 20
780
 10
3716
 20
805
 10
3710
 20
805
 10
3710
 20
780
  0
LWPOLYLINE
  5
2BD
100
AcDbEntity
  8
brick
  6
ByLayer
 62
  256
370
   -1
100
AcDbPolyline
 90
    4
 70
    1
 43
0
 10
3716
 20
806
 10
3716
 20
831
 10
3710
 20
831
 10
3710
 20
806
  0
LWPOLYLINE
  5
2BE
100
AcDbEntity
  8
brick
  6
ByLayer
 62
  256
370
   -1
100
AcDbPolyline
 90
    4
 70
    1
 43
0
 10
3716
 20
832
 10
3716
 20
857
 10
3710
 20
857
 10
3710
 20
832
  0
LWPOLYLINE
  5
2BF
100
AcDbEntity
  8
brick
  6
ByLayer
 62
  256
370
   -1
100
AcDbPolyline
 90
    4
 70
    1
 43
0
 10
3716
 20
858
 10
3716
 20
883
 10
3710
 20
883
 10
3710
 20
858
  0
LWPOLYLINE
  5
2C0
100
AcDbEntity
  8
brick
  6
ByLayer
 62
  256
370
   -1
100
AcDbPolyline
 90
    4
 70
    1
 43
0
 10
3716
 20
884
 10
3716
 20
909
 10
3710
 20
909
 10
3710
 20
884
  0
LWPOLYLINE
  5
2C1
100
AcDbEntity
  8
brick
  6
ByLayer
 62
  256
370
   -1
100
AcDbPolyline
 90
    4
 70
    1
 43
0
 10
3716
 20
754
 10
3716
 20
779
 10
3710
 20
779
 10
3710
 20
754
  0
LWPOLYLINE
  5
2C2
100
AcDbEntity
  8
brick
  6
ByLayer
 62
  256
370
   -1
100
AcDbPolyline
 90
    4
 70
    1
 43
0
 10
3716
 20
728
 10
3716
 20
753
 10
3710
 20
753
 10
3710
 20
728
  0
LWPOLYLINE
  5
2C3
100
AcDbEntity
  8
brick
  6
ByLayer
 62
  256
370
   -1
100
AcDbPolyline
 90
    4
 70
    1
 43
0
 10
3716
 20
910
 10
3716
 20
935
 10
3710
 20
935
 10
3710
 20
910
  0
LWPOLYLINE
  5
2C4
100
AcDbEntity
  8
brick
  6
ByLayer
 62
  256
370
   -1
100
AcDbPolyline
 90
    4
 70
    1
 43
0
 10
3716
 20
936
 10
3716
 20
961
 10
3710
 20
961
 10
3710
 20
936
  0
LWPOLYLINE
  5
2C5
100
AcDbEntity
  8
brick
  6
ByLayer
 62
  256
370
   -1
100
AcDbPolyline
 90
    4
 70
    1
 43
0
 10
3716
 20
962
 10
3716
 20
987
 10
3710
 20
987
 10
3710
 20
962
  0
LWPOLYLINE
  5
2C6
100
AcDbEntity
  8
brick
  6
ByLayer
 62
  256
370
   -1
100
AcDbPolyline
 90
    4
 70
    1
 43
0
 10
3716
 20
988
 10
3716
 20
1013
 10
3710
 20
1013
 10
3710
 20
988
  0
LWPOLYLINE
  5
2C7
100
AcDbEntity
  8
brick
  6
ByLayer
 62
  256
370
   -1
100
AcDbPolyline
 90
    4
 70
    1
 43
0
 10
3716
 20
1014
 10
3716
 20
1039
 10
3710
 20
1039
 10
3710
 20
1014
  0
LWPOLYLINE
  5
2C8
100
AcDbEntity
  8
brick
  6
ByLayer
 62
  256
370
   -1
100
AcDbPolyline
 90
    4
 70
    1
 43
0
 10
3716
 20
1040
 10
3716
 20
1052
 10
3710
 20
1052
 10
3710
 20
1040
  0
LWPOLYLINE
  5
2C9
100
AcDbEntity
  8
brick
  6
ByLayer
 62
  256
370
   -1
100
AcDbPolyline
 90
    4
 70
    1
 43
0
 10
2690
 20
0
 10
2690
 20
12
 10
2684
 20
12
 10
2684
 20
3.673940397442059e-16
  0
LWPOLYLINE
  5
2CA
100
AcDbEntity
  8
brick
  6
ByLayer
 62
  256
370
   -1
100
AcDbPolyline
 90
    4
 70
    1
 43
0
 10
2690
 20
65
 10
2690
 20
90
 10
2684
 20
90
 10
2684
 20
65
  0
LWPOLYLINE
  5
2CB
100
AcDbEntity
  8
brick
  6
ByLayer
 62
  256
370
   -1
100
AcDbPolyline
 90
    4
 70
    1
 43
0
 10
2690
 20
91
 10
2690
 20
116
 10
2684
 20
116
 10
2684
 20
91
  0
LWPOLYLINE
  5
2CC
100
AcDbEntity
  8
brick
  6
ByLayer
 62
  256
370
   -1
100
AcDbPolyline
 90
    4
 70
    1
 43
0
 10
2690
 20
117
 10
2690
 20
142
 10
2684
 20
142
 10
2684
 20
117
  0
LWPOLYLINE
  5
2CD
100
AcDbEntity
  8
brick
  6
ByLayer
 62
  256
370
   -1
100
AcDbPolyline
 90
    4
 70
    1
 43
0
 10
2690
 20
143
 10
2690
 20
168
 10
2684
 20
168
 10
2684
 20
143
  0
LWPOLYLINE
  5
2CE
100
AcDbEntity
  8
brick
  6
ByLayer
 62
  256
370
   -1
100
AcDbPolyline
 90
    4
 70
    1
 43
0
 10
2690
 20
169
 10
2690
 20
194
 10
2684
 20
194
 10
2684
 20
169
  0
LWPOLYLINE
  5
2CF
100
AcDbEntity
  8
brick
  6
ByLayer
 62
  256
370
   -1
100
AcDbPolyline
 90
    4
 70
    1
 43
0
 10
2690
 20
39
 10
2690
 20
64
 10
2684
 20
64
 10
2684
 20
39
  0
LWPOLYLINE
  5
2D0
100
AcDbEntity
  8
brick
  6
ByLayer
 62
  256
370
   -1
100
AcDbPolyline
 90
    4
 70
    1
 43
0
 10
2690
 20
13
 10
2690
 20
38
 10
2684
 20
38
 10
2684
 20
13
  0
LWPOLYLINE
  5
2D1
100
AcDbEntity
  8
brick
  6
ByLayer
 62
  256
370
   -1
100
AcDbPolyline
 90
    4
 70
    1
 43
0
 10
2690
 20
247
 10
2690
 20
272
 10
2684
 20
272
 10
2684
 20
247
  0
LWPOLYLINE
  5
2D2
100
AcDbEntity
  8
brick
  6
ByLayer
 62
  256
370
   -1
100
AcDbPolyline
 90
    4
 70
    1
 43
0
 10
2690
 20
273
 10
2690
 20
298
 10
2684
 20
298
 10
2684
 20
273
  0
LWPOLYLINE
  5
2D3
100
AcDbEntity
  8
brick
  6
ByLayer
 62
  256
370
   -1
100
AcDbPolyline
 90
    4
 70
    1
 43
0
 10
2690
 20
299
 10
2690
 20
324
 10
2684
 20
324
 10
2684
 20
299
  0
LWPOLYLINE
  5
2D4
100
AcDbEntity
  8
brick
  6
ByLayer
 62
  256
370
   -1
100
AcDbPolyline
 90
    4
 70
    1
 43
0
 10
2690
 20
325
 10
2690
 20
350
 10
2684
 20
350
 10
2684
 20
325
  0
LWPOLYLINE
  5
2D5
100
AcDbEntity
  8
brick
  6
ByLayer
 62
  256
370
   -1
100
AcDbPolyline
 90
    4
 70
    1
 43
0
 10
2690
 20
351
 10
2690
 20
376
 10
2684
 20
376
 10
2684
 20
351
  0
LWPOLYLINE
  5
2D6
100
AcDbEntity
  8
brick
  6
ByLayer
 62
  256
370
   -1
100
AcDbPolyline
 90
    4
 70
    1
 43
0
 10
2690
 20
221
 10
2690
 20
246
 10
2684
 20
246
 10
2684
 20
221
  0
LWPOLYLINE
  5
2D7
100
AcDbEntity
  8
brick
  6
ByLayer
 62
  256
370
   -1
100
AcDbPolyline
 90
    4
 70
    1
 43
0
 10
2690
 20
195
 10
2690
 20
220
 10
2684
 20
220
 10
2684
 20
195
  0
LWPOLYLINE
  5
2D8
100
AcDbEntity
  8
brick
  6
ByLayer
 62
  256
370
   -1
100
AcDbPolyline
 90
    4
 70
    1
 43
0
 10
2690
 20
429
 10
2690
 20
454
 10
2684
 20
454
 10
2684
 20
429
  0
LWPOLYLINE
  5
2D9
100
AcDbEntity
  8
brick
  6
ByLayer
 62
  256
370
   -1
100
AcDbPolyline
 90
    4
 70
    1
 43
0
 10
2690
 20
455
 10
2690
 20
480
 10
2684
 20
480
 10
2684
 20
455
  0
LWPOLYLINE
  5
2DA
100
AcDbEntity
  8
brick
  6
ByLayer
 62
  256
370
   -1
100
AcDbPolyline
 90
    4
 70
    1
 43
0
 10
2690
 20
481
 10
2690
 20
506
 10
2684
 20
506
 10
2684
 20
481
  0
LWPOLYLINE
  5
2DB
100
AcDbEntity
  8
brick
  6
ByLayer
 62
  256
370
   -1
100
AcDbPolyline
 90
    4
 70
    1
 43
0
 10
2690
 20
507
 10
2690
 20
532
 10
2684
 20
532
 10
2684
 20
507
  0
LWPOLYLINE
  5
2DC
100
AcDbEntity
  8
brick
  6
ByLayer
 62
  256
370
   -1
100
AcDbPolyline
 90
    4
 70
    1
 43
0
 10
2690
 20
533
 10
2690
 20
558
 10
2684
 20
558
 10
2684
 20
533
  0
LWPOLYLINE
  5
2DD
100
AcDbEntity
  8
brick
  6
ByLayer
 62
  256
370
   -1
100
AcDbPolyline
 90
    4
 70
    1
 43
0
 10
2690
 20
403
 10
2690
 20
428
 10
2684
 20
428
 10
2684
 20
403
  0
LWPOLYLINE
  5
2DE
100
AcDbEntity
  8
brick
  6
ByLayer
 62
  256
370
   -1
100
AcDbPolyline
 90
    4
 70
    1
 43
0
 10
2690
 20
377
 10
2690
 20
402
 10
2684
 20
402
 10
2684
 20
377
  0
LWPOLYLINE
  5
2DF
100
AcDbEntity
  8
brick
  6
ByLayer
 62
  256
370
   -1
100
AcDbPolyline
 90
    4
 70
    1
 43
0
 10
2690
 20
611
 10
2690
 20
636
 10
2684
 20
636
 10
2684
 20
611
  0
LWPOLYLINE
  5
2E0
100
AcDbEntity
  8
brick
  6
ByLayer
 62
  256
370
   -1
100
AcDbPolyline
 90
    4
 70
    1
 43
0
 10
2690
 20
637
 10
2690
 20
662
 10
2684
 20
662
 10
2684
 20
637
  0
LWPOLYLINE
  5
2E1
100
AcDbEntity
  8
brick
  6
ByLayer
 62
  256
370
   -1
100
AcDbPolyline
 90
    4
 70
    1
 43
0
 10
2690
 20
663
 10
2690
 20
688
 10
2684
 20
688
 10
2684
 20
663
  0
LWPOLYLINE
  5
2E2
100
AcDbEntity
  8
brick
  6
ByLayer
 62
  256
370
   -1
100
AcDbPolyline
 90
    4
 70
    1
 43
0
 10
2690
 20
689
 10
2690
 20
714
 10
2684
 20
714
 10
2684
 20
689
  0
LWPOLYLINE
  5
2E3
100
AcDbEntity
  8
brick
  6
ByLayer
 62
  256
370
   -1
100
AcDbPolyline
 90
    4
 70
    1
 43
0
 10
2690
 20
715
 10
2690
 20
740
 10
2684
 20
740
 10
2684
 20
715
  0
LWPOLYLINE
  5
2E4
100
AcDbEntity
  8
brick
  6
ByLayer
 62
  256
370
   -1
100
AcDbPolyline
 90
    4
 70
    1
 43
0
 10
2690
 20
585
 10
2690
 20
610
 10
2684
 20
610
 10
2684
 20
585
  0
LWPOLYLINE
  5
2E5
100
AcDbEntity
  8
brick
  6
ByLayer
 62
  256
370
   -1
100
AcDbPolyline
 90
    4
 70
    1
 43
0
 10
2690
 20
559
 10
2690
 20
584
 10
2684
 20
584
 10
2684
 20
559
  0
LWPOLYLINE
  5
2E6
100
AcDbEntity
  8
brick
  6
ByLayer
 62
  256
370
   -1
100
AcDbPolyline
 90
    4
 70
    1
 43
0
 10
2690
 20
793
 10
2690
 20
818
 10
2684
 20
818
 10
2684
 20
793
  0
LWPOLYLINE
  5
2E7
100
AcDbEntity
  8
brick
  6
ByLayer
 62
  256
370
   -1
100
AcDbPolyline
 90
    4
 70
    1
 43
0
 10
2690
 20
819
 10
2690
 20
844
 10
2684
 20
844
 10
2684
 20
819
  0
LWPOLYLINE
  5
2E8
100
AcDbEntity
  8
brick
  6
ByLayer
 62
  256
370
   -1
100
AcDbPolyline
 90
    4
 70
    1
 43
0
 10
2690
 20
845
 10
2690
 20
870
 10
2684
 20
870
 10
2684
 20
845
  0
LWPOLYLINE
  5
2E9
100
AcDbEntity
  8
brick
  6
ByLayer
 62
  256
370
   -1
100
AcDbPolyline
 90
    4
 70
    1
 43
0
 10
2690
 20
871
 10
2690
 20
896
 10
2684
 20
896
 10
2684
 20
871
  0
LWPOLYLINE
  5
2EA
100
AcDbEntity
  8
brick
  6
ByLayer
 62
  256
370
   -1
100
AcDbPolyline
 90
    4
 70
    1
 43
0
 10
2690
 20
897
 10
2690
 20
922
 10
2684
 20
922
 10
2684
 20
897
  0
LWPOLYLINE
  5
2EB
100
AcDbEntity
  8
brick
  6
ByLayer
 62
  256
370
   -1
100
AcDbPolyline
 90
    4
 70
    1
 43
0
 10
2690
 20
767
 10
2690
 20
792
 10
2684
 20
792
 10
2684
 20
767
  0
LWPOLYLINE
  5
2EC
100
AcDbEntity
  8
brick
  6
ByLayer
 62
  256
370
   -1
100
AcDbPolyline
 90
    4
 70
    1
 43
0
 10
2690
 20
741
 10
2690
 20
766
 10
2684
 20
766
 10
2684
 20
741
  0
LWPOLYLINE
  5
2ED
100
AcDbEntity
  8
brick
  6
ByLayer
 62
  256
370
   -1
100
AcDbPolyline
 90
    4
 70
    1
 43
0
 10
2690
 20
923
 10
2690
 20
948
 10
2684
 20
948
 10
2684
 20
923
  0
LWPOLYLINE
  5
2EE
100
AcDbEntity
  8
brick
  6
ByLayer
 62
  256
370
   -1
100
AcDbPolyline
 90
    4
 70
    1
 43
0
 10
2690
 20
949
 10
2690
 20
974
 10
2684
 20
974
 10
2684
 20
949
  0
LWPOLYLINE
  5
2EF
100
AcDbEntity
  8
brick
  6
ByLayer
 62
  256
370
   -1
100
AcDbPolyline
 90
    4
 70
    1
 43
0
 10
2690
 20
975
 10
2690
 20
1000
 10
2684
 20
1000
 10
2684
 20
975
  0
LWPOLYLINE
  5
2F0
100
AcDbEntity
  8
brick
  6
ByLayer
 62
  256
370
   -1
100
AcDbPolyline
 90
    4
 70
    1
 43
0
 10
2690
 20
1001
 10
2690
 20
1026
 10
2684
 20
1026
 10
2684
 20
1001
  0
LWPOLYLINE
  5
2F1
100
AcDbEntity
  8
brick
  6
ByLayer
 62
  256
370
   -1
100
AcDbPolyline
 90
    4
 70
    1
 43
0
 10
2690
 20
1027
 10
2690
 20
1052
 10
2684
 20
1052
 10
2684
 20
1027
  0
LWPOLYLINE
  5
2F2
100
AcDbEntity
  8
brick
  6
ByLayer
 62
  256
370
   -1
100
AcDbPolyline
 90
    4
 70
    1
 43
0
 10
2765
 20
1062
 10
2790
 20
1062
 10
2790
 20
1068
 10
2765
 20
1068
  0
LWPOLYLINE
  5
2F3
100
AcDbEntity
  8
brick
  6
ByLayer
 62
  256
370
   -1
100
AcDbPolyline
 90
    4
 70
    1
 43
0
 10
2791
 20
1062
 10
2816
 20
1062
 10
2816
 20
1068
 10
2791
 20
1068
  0
LWPOLYLINE
  5
2F4
100
AcDbEntity
  8
brick
  6
ByLayer
 62
  256
370
   -1
100
AcDbPolyline
 90
    4
 70
    1
 43
0
 10
2817
 20
1062
 10
2842
 20
1062
 10
2842
 20
1068
 10
2817
 20
1068
  0
LWPOLYLINE
  5
2F5
100
AcDbEntity
  8
brick
  6
ByLayer
 62
  256
370
   -1
100
AcDbPolyline
 90
    4
 70
    1
 43
0
 10
2843
 20
1062
 10
2868
 20
1062
 10
2868
 20
1068
 10
2843
 20
1068
  0
LWPOLYLINE
  5
2F6
100
AcDbEntity
  8
brick
  6
ByLayer
 62
  256
370
   -1
100
AcDbPolyline
 90
    4
 70
    1
 43
0
 10
2869
 20
1062
 10
2894
 20
1062
 10
2894
 20
1068
 10
2869
 20
1068
  0
LWPOLYLINE
  5
2F7
100
AcDbEntity
  8
brick
  6
ByLayer
 62
  256
370
   -1
100
AcDbPolyline
 90
    4
 70
    1
 43
0
 10
2739
 20
1062
 10
2764
 20
1062
 10
2764
 20
1068
 10
2739
 20
1068
  0
LWPOLYLINE
  5
2F8
100
AcDbEntity
  8
brick
  6
ByLayer
 62
  256
370
   -1
100
AcDbPolyline
 90
    4
 70
    1
 43
0
 10
2713
 20
1062
 10
2738
 20
1062
 10
2738
 20
1068
 10
2713
 20
1068
  0
LWPOLYLINE
  5
2F9
100
AcDbEntity
  8
brick
  6
ByLayer
 62
  256
370
   -1
100
AcDbPolyline
 90
    4
 70
    1
 43
0
 10
2947
 20
1062
 10
2972
 20
1062
 10
2972
 20
1068
 10
2947
 20
1068
  0
LWPOLYLINE
  5
2FA
100
AcDbEntity
  8
brick
  6
ByLayer
 62
  256
370
   -1
100
AcDbPolyline
 90
    4
 70
    1
 43
0
 10
2973
 20
1062
 10
2998
 20
1062
 10
2998
 20
1068
 10
2973
 20
1068
  0
LWPOLYLINE
  5
2FB
100
AcDbEntity
  8
brick
  6
ByLayer
 62
  256
370
   -1
100
AcDbPolyline
 90
    4
 70
    1
 43
0
 10
2999
 20
1062
 10
3024
 20
1062
 10
3024
 20
1068
 10
2999
 20
1068
  0
LWPOLYLINE
  5
2FC
100
AcDbEntity
  8
brick
  6
ByLayer
 62
  256
370
   -1
100
AcDbPolyline
 90
    4
 70
    1
 43
0
 10
3025
 20
1062
 10
3050
 20
1062
 10
3050
 20
1068
 10
3025
 20
1068
  0
LWPOLYLINE
  5
2FD
100
AcDbEntity
  8
brick
  6
ByLayer
 62
  256
370
   -1
100
AcDbPolyline
 90
    4
 70
    1
 43
0
 10
3051
 20
1062
 10
3076
 20
1062
 10
3076
 20
1068
 10
3051
 20
1068
  0
LWPOLYLINE
  5
2FE
100
AcDbEntity
  8
brick
  6
ByLayer
 62
  256
370
   -1
100
AcDbPolyline
 90
    4
 70
    1
 43
0
 10
2921
 20
1062
 10
2946
 20
1062
 10
2946
 20
1068
 10
2921
 20
1068
  0
LWPOLYLINE
  5
2FF
100
AcDbEntity
  8
brick
  6
ByLayer
 62
  256
370
   -1
100
AcDbPolyline
 90
    4
 70
    1
 43
0
 10
2895
 20
1062
 10
2920
 20
1062
 10
2920
 20
1068
 10
2895
 20
1068
  0
LWPOLYLINE
  5
300
100
AcDbEntity
  8
brick
  6
ByLayer
 62
  256
370
   -1
100
AcDbPolyline
 90
    4
 70
    1
 43
0
 10
3129
 20
1062
 10
3154
 20
1062
 10
3154
 20
1068
 10
3129
 20
1068
  0
LWPOLYLINE
  5
301
100
AcDbEntity
  8
brick
  6
ByLayer
 62
  256
370
   -1
100
AcDbPolyline
 90
    4
 70
    1
 43
0
 10
3155
 20
1062
 10
3180
 20
1062
 10
3180
 20
1068
 10
3155
 20
1068
  0
LWPOLYLINE
  5
302
100
AcDbEntity
  8
brick
  6
ByLayer
 62
  256
370
   -1
100
AcDbPolyline
 90
    4
 70
    1
 43
0
 10
3181
 20
1062
 10
3206
 20
1062
 10
3206
 20
1068
 10
3181
 20
1068
  0
LWPOLYLINE
  5
303
100
AcDbEntity
  8
brick
  6
ByLayer
 62
  256
370
   -1
100
AcDbPolyline
 90
    4
 70
    1
 43
0
 10
3207
 20
1062
 10
3232
 20
1062
 10
3232
 20
1068
 10
3207
 20
1068
  0
LWPOLYLINE
  5
304
100
AcDbEntity
  8
brick
  6
ByLayer
 62
  256
370
   -1
100
AcDbPolyline
 90
    4
 70
    1
 43
0
 10
3233
 20
1062
 10
3258
 20
1062
 10
3258
 20
1068
 10
3233
 20
1068
  0
LWPOLYLINE
  5
305
100
AcDbEntity
  8
brick
  6
ByLayer
 62
  256
370
   -1
100
AcDbPolyline
 90
    4
 70
    1
 43
0
 10
3103
 20
1062
 10
3128
 20
1062
 10
3128
 20
1068
 10
3103
 20
1068
  0
LWPOLYLINE
  5
306
100
AcDbEntity
  8
brick
  6
ByLayer
 62
  256
370
   -1
100
AcDbPolyline
 90
    4
 70
    1
 43
0
 10
3077
 20
1062
 10
3102
 20
1062
 10
3102
 20
1068
 10
3077
 20
1068
  0
LWPOLYLINE
  5
307
100
AcDbEntity
  8
brick
  6
ByLayer
 62
  256
370
   -1
100
AcDbPolyline
 90
    4
 70
    1
 43
0
 10
3311
 20
1062
 10
3336
 20
1062
 10
3336
 20
1068
 10
3311
 20
1068
  0
LWPOLYLINE
  5
308
100
AcDbEntity
  8
brick
  6
ByLayer
 62
  256
370
   -1
100
AcDbPolyline
 90
    4
 70
    1
 43
0
 10
3337
 20
1062
 10
3362
 20
1062
 10
3362
 20
1068
 10
3337
 20
1068
  0
LWPOLYLINE
  5
309
100
AcDbEntity
  8
brick
  6
ByLayer
 62
  256
370
   -1
100
AcDbPolyline
 90
    4
 70
    1
 43
0
 10
3363
 20
1062
 10
3388
 20
1062
 10
3388
 20
1068
 10
3363
 20
1068
  0
LWPOLYLINE
  5
30A
100
AcDbEntity
  8
brick
  6
ByLayer
 62
  256
370
   -1
100
AcDbPolyline
 90
    4
 70
    1
 43
0
 10
3389
 20
1062
 10
3414
 20
1062
 10
3414
 20
1068
 10
3389
 20
1068
  0
LWPOLYLINE
  5
30B
100
AcDbEntity
  8
brick
  6
ByLayer
 62
  256
370
   -1
100
AcDbPolyline
 90
    4
 70
    1
 43
0
 10
3415
 20
1062
 10
3440
 20
1062
 10
3440
 20
1068
 10
3415
 20
1068
  0
LWPOLYLINE
  5
30C
100
AcDbEntity
  8
brick
  6
ByLayer
 62
  256
370
   -1
100
AcDbPolyline
 90
    4
 70
    1
 43
0
 10
3285
 20
1062
 10
3310
 20
1062
 10
3310
 20
1068
 10
3285
 20
1068
  0
LWPOLYLINE
  5
30D
100
AcDbEntity
  8
brick
  6
ByLayer
 62
  256
370
   -1
100
AcDbPolyline
 90
    4
 70
    1
 43
0
 10
3259
 20
1062
 10
3284
 20
1062
 10
3284
 20
1068
 10
3259
 20
1068
  0
LWPOLYLINE
  5
30E
100
AcDbEntity
  8
brick
  6
ByLayer
 62
  256
370
   -1
100
AcDbPolyline
 90
    4
 70
    1
 43
0
 10
3493
 20
1062
 10
3518
 20
1062
 10
3518
 20
1068
 10
3493
 20
1068
  0
LWPOLYLINE
  5
30F
100
AcDbEntity
  8
brick
  6
ByLayer
 62
  256
370
   -1
100
AcDbPolyline
 90
    4
 70
    1
 43
0
 10
3519
 20
1062
 10
3544
 20
1062
 10
3544
 20
1068
 10
3519
 20
1068
  0
LWPOLYLINE
  5
310
100
AcDbEntity
  8
brick
  6
ByLayer
 62
  256
370
   -1
100
AcDbPolyline
 90
    4
 70
    1
 43
0
 10
3545
 20
1062
 10
3570
 20
1062
 10
3570
 20
1068
 10
3545
 20
1068
  0
LWPOLYLINE
  5
311
100
AcDbEntity
  8
brick
  6
ByLayer
 62
  256
370
   -1
100
AcDbPolyline
 90
    4
 70
    1
 43
0
 10
3571
 20
1062
 10
3596
 20
1062
 10
3596
 20
1068
 10
3571
 20
1068
  0
LWPOLYLINE
  5
312
100
AcDbEntity
  8
brick
  6
ByLayer
 62
  256
370
   -1
100
AcDbPolyline
 90
    4
 70
    1
 43
0
 10
3597
 20
1062
 10
3622
 20
1062
 10
3622
 20
1068
 10
3597
 20
1068
  0
LWPOLYLINE
  5
313
100
AcDbEntity
  8
brick
  6
ByLayer
 62
  256
370
   -1
100
AcDbPolyline
 90
    4
 70
    1
 43
0
 10
3467
 20
1062
 10
3492
 20
1062
 10
3492
 20
1068
 10
3467
 20
1068
  0
LWPOLYLINE
  5
314
100
AcDbEntity
  8
brick
  6
ByLayer
 62
  256
370
   -1
100
AcDbPolyline
 90
    4
 70
    1
 43
0
 10
3441
 20
1062
 10
3466
 20
1062
 10
3466
 20
1068
 10
3441
 20
1068
  0
LWPOLYLINE
  5
315
100
AcDbEntity
  8
brick
  6
ByLayer
 62
  256
370
   -1
100
AcDbPolyline
 90
    4
 70
    1
 43
0
 10
3623
 20
1062
 10
3648
 20
1062
 10
3648
 20
1068
 10
3623
 20
1068
  0
LWPOLYLINE
  5
316
100
AcDbEntity
  8
brick
  6
ByLayer
 62
  256
370
   -1
100
AcDbPolyline
 90
    4
 70
    1
 43
0
 10
3649
 20
1062
 10
3674
 20
1062
 10
3674
 20
1068
 10
3649
 20
1068
  0
LWPOLYLINE
  5
317
100
AcDbEntity
  8
brick
  6
ByLayer
 62
  256
370
   -1
100
AcDbPolyline
 90
    4
 70
    1
 43
0
 10
3675
 20
1062
 10
3700
 20
1062
 10
3700
 20
1068
 10
3675
 20
1068
  0
LWPOLYLINE
  5
318
100
AcDbEntity
  8
brick
  6
ByLayer
 62
  256
370
   -1
100
AcDbPolyline
 90
    4
 70
    1
 43
0
 10
2700
 20
1062
 10
2712
 20
1062
 10
2712
 20
1068
 10
2700
 20
1068
  0
LWPOLYLINE
  5
319
100
AcDbEntity
  8
projomy
  6
ByLayer
 62
  256
370
   -1
100
AcDbPolyline
 90
    9
 70
    0
 43
0
 10
1455
 20
0
 10
1534
 20
1.06581410364015e-14
 10
1534
 20
12.00000000000001
 10
1540
 20
12.00000000000001
 10
1540
 20
47
 10
1449
 20
46.99999999999999
 10
1449
 20
12
 10
1455
 20
12
 10
1455
 20
0
  0
LWPOLYLINE
  5
31A
100
AcDbEntity
  8
projomy
  6
ByLayer
 62
  256
370
   -1
100
AcDbPolyline
 90
    9
 70
    0
 43
0
 10
1702
 20
8.881784197001252e-16
 10
1781
 20
8.881784197001252e-16
 10
1781
 20
12
 10
1787
 20
12
 10
1787
 20
47
 10
1696
 20
47
 10
1696
 20
12
 10
1702
 20
12
 10
1702
 20
8.881784197001252e-16
  0
LWPOLYLINE
  5
31B
100
AcDbEntity
  8
brick
  6
ByLayer
 62
  256
370
   -1
100
AcDbPolyline
 90
    4
 70
    1
 43
0
 10
1874
 20
52
 10
1874
 20
77
 10
1868
 20
77
 10
1868
 20
52
  0
LWPOLYLINE
  5
31C
100
AcDbEntity
  8
brick
  6
ByLayer
 62
  256
370
   -1
100
AcDbPolyline
 90
    4
 70
    1
 43
0
 10
1874
 20
78
 10
1874
 20
103
 10
1868
 20
103
 10
1868
 20
78
  0
LWPOLYLINE
  5
31D
100
AcDbEntity
  8
brick
  6
ByLayer
 62
  256
370
   -1
100
AcDbPolyline
 90
    4
 70
    1
 43
0
 10
1874
 20
104
 10
1874
 20
129
 10
1868
 20
129
 10
1868
 20
104
  0
LWPOLYLINE
  5
31E
100
AcDbEntity
  8
brick
  6
ByLayer
 62
  256
370
   -1
100
AcDbPolyline
 90
    4
 70
    1
 43
0
 10
1874
 20
130
 10
1874
 20
155
 10
1868
 20
155
 10
1868
 20
130
  0
LWPOLYLINE
  5
31F
100
AcDbEntity
  8
brick
  6
ByLayer
 62
  256
370
   -1
100
AcDbPolyline
 90
    4
 70
    1
 43
0
 10
1874
 20
156
 10
1874
 20
181
 10
1868
 20
181
 10
1868
 20
156
  0
LWPOLYLINE
  5
320
100
AcDbEntity
  8
brick
  6
ByLayer
 62
  256
370
   -1
100
AcDbPolyline
 90
    4
 70
    1
 43
0
 10
1874
 20
26
 10
1874
 20
51
 10
1868
 20
51
 10
1868
 20
26
  0
LWPOLYLINE
  5
321
100
AcDbEntity
  8
brick
  6
ByLayer
 62
  256
370
   -1
100
AcDbPolyline
 90
    4
 70
    1
 43
0
 10
1874
 20
-3.673940397442059e-16
 10
1874
 20
25
 10
1868
 20
25
 10
1868
 20
0
  0
LWPOLYLINE
  5
322
100
AcDbEntity
  8
brick
  6
ByLayer
 62
  256
370
   -1
100
AcDbPolyline
 90
    4
 70
    1
 43
0
 10
1874
 20
182
 10
1874
 20
207
 10
1868
 20
207
 10
1868
 20
182
  0
LWPOLYLINE
  5
323
100
AcDbEntity
  8
projomy
  6
ByLayer
 62
  256
370
   -1
100
AcDbPolyline
 90
    9
 70
    0
 43
0
 10
1858
 20
89
 10
1858
 20
194
 10
1846
 20
194
 10
1846
 20
196
 10
1817
 20
196
 10
1817
 20
87
 10
1846
 20
87
 10
1846
 20
89
 10
1858
 20
89
  0
LWPOLYLINE
  5
324
100
AcDbEntity
  8
projomy
  6
ByLayer
 62
  256
370
   -1
100
AcDbPolyline
 90
    9
 70
    0
 43
0
 10
3699.999999999999
 20
844
 10
3699.999999999999
 20
923
 10
3687.999999999999
 20
923
 10
3687.999999999999
 20
929
 10
3652.999999999999
 20
929
 10
3652.999999999999
 20
838
 10
3687.999999999999
 20
838
 10
3687.999999999999
 20
844
 10
3699.999999999999
 20
844
  0
LWPOLYLINE
  5
325
100
AcDbEntity
  8
projomy
  6
ByLayer
 62
  256
370
   -1
100
AcDbPolyline
 90
    9
 70
    0
 43
0
 10
3700
 20
350
 10
3700
 20
429
 10
3688
 20
429
 10
3688
 20
435
 10
3653
 20
435
 10
3653
 20
344
 10
3688
 20
344
 10
3688
 20
350
 10
3700
 20
350
  0
LWPOLYLINE
  5
326
100
AcDbEntity
  8
projomy
  6
ByLayer
 62
  256
370
   -1
100
AcDbPolyline
 90
    9
 70
    0
 43
0
 10
3700
 20
597
 10
3700
 20
676
 10
3688
 20
676
 10
3688
 20
682
 10
3653
 20
682
 10
3653
 20
591
 10
3688
 20
591
 10
3688
 20
597
 10
3700
 20
597
  0
LWPOLYLINE
  5
327
100
AcDbEntity
  8
projomy
  6
ByLayer
 62
  256
370
   -1
100
AcDbPolyline
 90
    9
 70
    0
 43
0
 10
3129
 20
1052
 10
3050
 20
1052
 10
3050
 20
1040
 10
3044
 20
1040
 10
3044
 20
1005
 10
3135
 20
1005
 10
3135
 20
1040
 10
3129
 20
1040
 10
3129
 20
1052
  0
LWPOLYLINE
  5
328
100
AcDbEntity
  8
projomy
  6
ByLayer
 62
  256
370
   -1
100
AcDbPolyline
 90
    9
 70
    0
 43
0
 10
2700
 20
897
 10
2700
 20
818
 10
2712
 20
818
 10
2712
 20
812
 10
2747
 20
812
 10
2747
 20
903
 10
2712
 20
903
 10
2712
 20
897
 10
2700
 20
897
  0
LWPOLYLINE
  5
329
100
AcDbEntity
  8
projomy
  6
ByLayer
 62
  256
370
   -1
100
AcDbPolyline
 90
    9
 70
    0
 43
0
 10
2700
 20
623
 10
2700
 20
544
 10
2712
 20
544
 10
2712
 20
538
 10
2747
 20
538
 10
2747
 20
629
 10
2712
 20
629
 10
2712
 20
623
 10
2700
 20
623
  0
LWPOLYLINE
  5
32A
100
AcDbEntity
  8
projomy
  6
ByLayer
 62
  256
370
   -1
100
AcDbPolyline
 90
    9
 70
    0
 43
0
 10
2855
 20
-8.881784197001252e-16
 10
2934
 20
9.769962616701378e-15
 10
2934
 20
12.00000000000001
 10
2940
 20
12.00000000000001
 10
2940
 20
47
 10
2849
 20
46.99999999999999
 10
2849
 20
12
 10
2855
 20
12
 10
2855
 20
-8.881784197001252e-16
  0
LWPOLYLINE
  5
32B
100
AcDbEntity
  8
projomy
  6
ByLayer
 62
  256
370
   -1
100
AcDbPolyline
 90
    9
 70
    0
 43
0
 10
3102
 20
0
 10
3181
 20
0
 10
3181
 20
12
 10
3187
 20
12
 10
3187
 20
47
 10
3096
 20
47
 10
3096
 20
12
 10
3102
 20
12
 10
3102
 20
0
  0
LWPOLYLINE
  5
32C
100
AcDbEntity
  8
projomy
  6
ByLayer
 62
  256
370
   -1
100
AcDbPolyline
 90
    9
 70
    0
 43
0
 10
2300
 20
740
 10
2300
 20
884
 10
2288
 20
884
 10
2288
 20
890
 10
2253
 20
890
 10
2253
 20
734
 10
2288
 20
734
 10
2288
 20
740
 10
2300
 20
740
  0
LWPOLYLINE
  5
32D
100
AcDbEntity
  8
projomy
  6
ByLayer
 62
  256
370
   -1
100
AcDbPolyline
 90
    9
 70
    0
 43
0
 10
2300
 20
389
 10
2300
 20
533
 10
2288
 20
533
 10
2288
 20
539
 10
2253
 20
539
 10
2253
 20
383
 10
2288
 20
383
 10
2288
 20
389
 10
2300
 20
389
  0
LWPOLYLINE
  5
32E
100
AcDbEntity
  8
face
  6
ByLayer
 62
  256
370
   -1
100
AcDbPolyline
 90
    4
 70
    1
 43
0
 10
2015
 20
8.881784197001252e-16
 10
2066
 20
8.881784197001252e-16
 10
2066
 20
63
 10
2015
 20
63
  0
LWPOLYLINE
  5
32F
100
AcDbEntity
  8
face
  6
ByLayer
 62
  256
370
   -1
100
AcDbPolyline
 90
    4
 70
    1
 43
0
 10
2027
 20
12
 10
2054
 20
12
 10
2054
 20
51
 10
2027
 20
51
  0
LWPOLYLINE
  5
330
100
AcDbEntity
  8
balky
  6
ByLayer
 62
  256
370
   -1
100
AcDbPolyline
 90
    4
 70
    1
 43
0
 10
2253
 20
277
 10
2283
 20
277
 10
2283
 20
17
 10
2253
 20
17
  0
LWPOLYLINE
  5
331
100
AcDbEntity
  8
gazoblok
  6
ByLayer
 62
  256
370
   -1
100
AcDbPolyline
 90
   13
 70
    0
 43
0
 10
1842
 20
46.99999999999999
 10
1842
 20
17
 10
1317
 20
16.99999999999999
 10
1317
 20
1035
 10
2283
 20
1035
 10
2283
 20
251
 10
1842
 20
251
 10
1842
 20
281
 10
2253
 20
281
 10
2253
 20
1005
 10
1347
 20
1005
 10
1347
 20
46.99999999999999
 10
1842
 20
46.99999999999999
  0
LWPOLYLINE
  5
332
100
AcDbEntity
  8
face
  6
ByLayer
 62
  256
370
   -1
100
AcDbPolyline
 90
    7
 70
    0
 43
0
 10
1846
 20
246
 10
1846
 20
12
 10
1312
 20
12
 10
1312
 20
1040
 10
2288
 20
1040
 10
2288
 20
246
 10
1846
 20
246
  0
LWPOLYLINE
  5
333
100
AcDbEntity
  8
face
  6
ByLayer
 62
  256
370
   -1
100
AcDbPolyline
 90
    7
 70
    0
 43
0
 10
1858
 20
234
 10
1858
 20
8.881784197001252e-16
 10
1300
 20
8.881784197001252e-16
 10
1300
 20
1052
 10
2300
 20
1052
 10
2300
 20
234
 10
1858
 20
234
  0
LWPOLYLINE
  5
334
100
AcDbEntity
  8
projomy
  6
ByLayer
 62
  256
370
   -1
100
AcDbPolyline
 90
    9
 70
    0
 43
0
 10
1951
 20
1052
 10
1858
 20
1052
 10
1858
 20
1040
 10
1856
 20
1040
 10
1856
 20
1005
 10
1953
 20
1005
 10
1953
 20
1040
 10
1951
 20
1040
 10
1951
 20
1052
  0
LWPOLYLINE
  5
335
100
AcDbEntity
  8
projomy
  6
ByLayer
 62
  256
370
   -1
100
AcDbPolyline
 90
    9
 70
    0
 43
0
 10
1729
 20
1052
 10
1650
 20
1052
 10
1650
 20
1040
 10
1644
 20
1040
 10
1644
 20
1005
 10
1735
 20
1005
 10
1735
 20
1040
 10
1729
 20
1040
 10
1729
 20
1052
  0
LWPOLYLINE
  5
336
100
AcDbEntity
  8
projomy
  6
ByLayer
 62
  256
370
   -1
100
AcDbPolyline
 90
    9
 70
    0
 43
0
 10
1300
 20
897
 10
1300
 20
818
 10
1312
 20
818
 10
1312
 20
812
 10
1347
 20
812
 10
1347
 20
903
 10
1312
 20
903
 10
1312
 20
897
 10
1300
 20
897
  0
LWPOLYLINE
  5
337
100
AcDbEntity
  8
projomy
  6
ByLayer
 62
  256
370
   -1
100
AcDbPolyline
 90
    9
 70
    0
 43
0
 10
1300
 20
157
 10
1300
 20
64
 10
1312
 20
64
 10
1312
 20
62
 10
1347
 20
62
 10
1347
 20
159
 10
1312
 20
159
 10
1312
 20
157
 10
1300
 20
157
  0
ENDSEC
  0
SECTION
  2
OBJECTS
  0
DICTIONARY
  5
C
330
0
100
AcDbDictionary
281
    1
  3
ACAD_GROUP
350
D
  0
DICTIONARY
  5
D
330
C
100
AcDbDictionary
281
    1
  0
ENDSEC
  0
EOF
