999
dxfrw 0.6.3
  0
SECTION
  2
HEADER
  9
$ACADVER
  1
AC1021
  9
$DWGCODEPAGE
  3
ANSI_1252
  9
$INSBASE
 10
0
 20
0
 30
0
  9
$EXTMIN
 10
10000000000
 20
10000000000
 30
0
  9
$EXTMAX
 10
-10000000000
 20
-10000000000
 30
0
  9
$LIMMIN
 10
0
 20
0
  9
$LIMMAX
 10
420
 20
297
  9
$ORTHOMODE
 70
    0
  9
$REGENMODE
 70
    1
  9
$FILLMODE
 70
    1
  9
$QTEXTMODE
 70
    0
  9
$MIRRTEXT
 70
    0
  9
$LTSCALE
 40
1
  9
$ATTMODE
 70
    0
  9
$TEXTSIZE
 40
2.5
  9
$TRACEWID
 40
15.68
  9
$TEXTSTYLE
  7
STANDARD
  9
$CLAYER
  8
styny
  9
$CELTYPE
  6
BYLAYER
  9
$CECOLOR
 62
  256
  9
$CELTSCALE
 40
1
  9
$DISPSILH
 70
    0
  9
$DIMSCALE
 40
10
  9
$DIMASZ
 40
2
  9
$DIMEXO
 40
1
  9
$DIMDLI
 40
3.75
  9
$DIMRND
 40
0
  9
$DIMDLE
 40
0
  9
$DIMEXE
 40
2
  9
$DIMTP
 40
0
  9
$DIMTM
 40
0
  9
$DIMTXT
 40
4
  9
$DIMCEN
 40
2.5
  9
$DIMTSZ
 40
2
  9
$DIMTOL
 70
    0
  9
$DIMLIM
 70
    0
  9
$DIMTIH
 70
    0
  9
$DIMTOH
 70
    0
  9
$DIMSE1
 70
    0
  9
$DIMSE2
 70
    0
  9
$DIMTAD
 70
    1
  9
$DIMZIN
 70
    8
  9
$DIMBLK
  1

  9
$DIMASO
 70
    1
  9
$DIMSHO
 70
    1
  9
$DIMPOST
  1

  9
$DIMAPOST
  1

  9
$DIMALT
 70
    0
  9
$DIMALTD
 70
    3
  9
$DIMALTF
 40
0.03937
  9
$DIMLFAC
 40
1
  9
$DIMTOFL
 70
    1
  9
$DIMTVP
 40
0
  9
$DIMTIX
 70
    0
  9
$DIMSOXD
 70
    0
  9
$DIMSAH
 70
    0
  9
$DIMBLK1
  1

  9
$DIMBLK2
  1

  9
$DIMSTYLE
  2
STANDARD
  9
$DIMCLRD
 70
    0
  9
$DIMCLRE
 70
    0
  9
$DIMCLRT
 70
    0
  9
$DIMTFAC
 40
1
  9
$DIMGAP
 40
2
  9
$DIMJUST
 70
    0
  9
$DIMSD1
 70
    0
  9
$DIMSD2
 70
    0
  9
$DIMTOLJ
 70
    0
  9
$DIMTZIN
 70
    8
  9
$DIMALTZ
 70
    0
  9
$DIMALTTZ
 70
    0
  9
$DIMUPT
 70
    0
  9
$DIMDEC
 70
    1
  9
$DIMTDEC
 70
    2
  9
$DIMALTU
 70
    2
  9
$DIMALTTD
 70
    3
  9
$DIMTXSTY
  7
standard
  9
$DIMAUNIT
 70
    0
  9
$DIMADEC
 70
    0
  9
$DIMALTRND
 40
0
  9
$DIMAZIN
 70
    0
  9
$DIMDSEP
 70
   44
  9
$DIMATFIT
 70
    3
  9
$DIMFRAC
 70
    0
  9
$DIMLDRBLK
  1
STANDARD
  9
$DIMLUNIT
 70
    2
  9
$DIMLWD
 70
   -2
  9
$DIMLWE
 70
   -2
  9
$DIMTMOVE
 70
    0
  9
$DIMFXL
 40
1
  9
$DIMFXLON
 70
    0
  9
$DIMJOGANG
 40
0.7854
  9
$DIMTFILL
 70
    0
  9
$DIMTFILLCLR
 70
    0
  9
$DIMARCSYM
 70
    0
  9
$DIMLTYPE
  6

  9
$DIMLTEX1
  6

  9
$DIMLTEX2
  6

  9
$LUNITS
 70
    2
  9
$LUPREC
 70
    2
  9
$SKETCHINC
 40
1
  9
$FILLETRAD
 40
0
  9
$AUNITS
 70
    0
  9
$AUPREC
 70
    2
  9
$MENU
  1
.
  9
$ELEVATION
 40
0
  9
$PELEVATION
 40
0
  9
$THICKNESS
 40
0
  9
$LIMCHECK
 70
    0
  9
$CHAMFERA
 40
0
  9
$CHAMFERB
 40
0
  9
$CHAMFERC
 40
0
  9
$CHAMFERD
 40
0
  9
$SKPOLY
 70
    0
  9
$USRTIMER
 70
    1
  9
$ANGBASE
 50
0
  9
$ANGDIR
 70
    0
  9
$PDMODE
 70
   34
  9
$PDSIZE
 40
0
  9
$PLINEWID
 40
0
  9
$SPLFRAME
 70
    0
  9
$SPLINETYPE
 70
    2
  9
$SPLINESEGS
 70
    8
  9
$HANDSEED
  5
20000
  9
$SURFTAB1
 70
    6
  9
$SURFTAB2
 70
    6
  9
$SURFTYPE
 70
    6
  9
$SURFU
 70
    6
  9
$SURFV
 70
    6
  9
$UCSBASE
  2

  9
$UCSNAME
  2

  9
$UCSORG
 10
0
 20
0
 30
0
  9
$UCSXDIR
 10
1
 20
0
 30
0
  9
$UCSYDIR
 10
0
 20
1
 30
0
  9
$UCSORTHOREF
  2

  9
$UCSORTHOVIEW
 70
    0
  9
$UCSORGTOP
 10
0
 20
0
 30
0
  9
$UCSORGBOTTOM
 10
0
 20
0
 30
0
  9
$UCSORGLEFT
 10
0
 20
0
 30
0
  9
$UCSORGRIGHT
 10
0
 20
0
 30
0
  9
$UCSORGFRONT
 10
0
 20
0
 30
0
  9
$UCSORGBACK
 10
0
 20
0
 30
0
  9
$PUCSBASE
  2

  9
$PUCSNAME
  2

  9
$PUCSORG
 10
0
 20
0
 30
0
  9
$PUCSXDIR
 10
1
 20
0
 30
0
  9
$PUCSYDIR
 10
0
 20
1
 30
0
  9
$PUCSORTHOREF
  2

  9
$PUCSORTHOVIEW
 70
    0
  9
$PUCSORGTOP
 10
0
 20
0
 30
0
  9
$PUCSORGBOTTOM
 10
0
 20
0
 30
0
  9
$PUCSORGLEFT
 10
0
 20
0
 30
0
  9
$PUCSORGRIGHT
 10
0
 20
0
 30
0
  9
$PUCSORGFRONT
 10
0
 20
0
 30
0
  9
$PUCSORGBACK
 10
0
 20
0
 30
0
  9
$USERI1
 70
    0
  9
$USERI2
 70
    0
  9
$USERI3
 70
    0
  9
$USERI4
 70
    0
  9
$USERI5
 70
    0
  9
$USERR1
 40
0
  9
$USERR2
 40
0
  9
$USERR3
 40
0
  9
$USERR4
 40
0
  9
$USERR5
 40
0
  9
$WORLDVIEW
 70
    1
  9
$SHADEDGE
 70
    3
  9
$SHADEDIF
 70
   70
  9
$TILEMODE
 70
    1
  9
$MAXACTVP
 70
   64
  9
$PINSBASE
 10
7.776815139356791
 20
11.30731687979271
 30
0
  9
$PLIMCHECK
 70
    0
  9
$PEXTMIN
 10
0
 20
0
 30
0
  9
$PEXTMAX
 10
0
 20
0
 30
0
  9
$GRIDMODE
 70
    1
  9
$SNAPSTYLE
 70
    0
  9
$GRIDUNIT
 10
0
 20
0
  9
$PLIMMIN
 10
0
 20
0
  9
$PLIMMAX
 10
29.7
 20
21
  9
$UNITMODE
 70
    0
  9
$VISRETAIN
 70
    1
  9
$PLINEGEN
 70
    0
  9
$PSLTSCALE
 70
    1
  9
$TREEDEPTH
 70
 3020
  9
$CMLSTYLE
  2
Standard
  9
$CMLJUST
 70
    0
  9
$CMLSCALE
 40
20
  9
$PROXYGRAPHICS
 70
    1
  9
$MEASUREMENT
 70
    1
  9
$CELWEIGHT
370
   -1
  9
$ENDCAPS
280
    0
  9
$JOINSTYLE
280
    0
  9
$LWDISPLAY
290
    0
  9
$INSUNITS
 70
    5
  9
$HYPERLINKBASE
  1

  9
$STYLESHEET
  1

  9
$XEDIT
290
    1
  9
$CEPSNTYPE
380
    0
  9
$PSTYLEMODE
290
    1
  9
$EXTNAMES
290
    1
  9
$PSVPSCALE
 40
0.005536148280195536
  9
$OLESTARTUP
290
    0
  9
$SORTENTS
280
  127
  9
$INDEXCTL
280
    0
  9
$HIDETEXT
280
    1
  9
$XCLIPFRAME
290
    0
  9
$HALOGAP
280
    0
  9
$OBSCOLOR
 70
  257
  9
$OBSLTYPE
280
    0
  9
$INTERSECTIONDISPLAY
280
    0
  9
$INTERSECTIONCOLOR
 70
  257
  9
$DIMASSOC
280
    1
  9
$PROJECTNAME
  1

  9
$CAMERADISPLAY
290
    0
  9
$LENSLENGTH
 40
50
  9
$CAMERAHEIGHT
 40
0
  9
$STEPSPERSEC
 40
2
  9
$STEPSIZE
 40
50
  9
$3DDWFPREC
 40
2
  9
$PSOLWIDTH
 40
5
  9
$PSOLHEIGHT
 40
80
  9
$LOFTANG1
 40
1.570796326794897
  9
$LOFTANG2
 40
1.570796326794897
  9
$LOFTMAG1
 40
0
  9
$LOFTMAG2
 40
0
  9
$LOFTPARAM
 70
    7
  9
$LOFTNORMALS
280
    1
  9
$LATITUDE
 40
1
  9
$LONGITUDE
 40
1
  9
$NORTHDIRECTION
 40
0
  9
$TIMEZONE
 70
-8000
  9
$LIGHTGLYPHDISPLAY
280
    1
  9
$TILEMODELIGHTSYNCH
280
    1
  9
$SOLIDHIST
280
    1
  9
$SHOWHIST
280
    1
  9
$DWFFRAME
280
    2
  9
$DGNFRAME
280
    0
  9
$REALWORLDSCALE
290
    1
  9
$INTERFERECOLOR
 62
    1
  9
$CSHADOW
280
    0
  9
$SHADOWPLANELOCATION
 40
0
  0
ENDSEC
  0
SECTION
  2
CLASSES
  0
ENDSEC
  0
SECTION
  2
TABLES
  0
TABLE
  2
VPORT
  5
8
330
0
100
AcDbSymbolTable
 70
    1
  0
VPORT
  5
31
330
2
100
AcDbSymbolTableRecord
100
AcDbViewportTableRecord
  2
*ACTIVE
 70
    0
 10
0
 20
0
 11
1
 21
1
 12
698.9630575583861
 22
-65.9505465599445
 13
0
 23
0
 14
10
 24
10
 15
10
 25
10
 16
0
 26
0
 36
1
 17
0
 27
0
 37
0
 40
67.64158621532769
 41
1.65
 42
50
 43
0
 44
0
 50
0
 51
0
 71
    0
 72
  100
 73
    1
 74
    3
 75
    0
 76
    1
 77
    0
 78
    0
281
    0
 65
    1
110
0
120
0
130
0
111
1
121
0
131
0
112
0
122
1
132
0
 79
    0
146
0
348
10020
 60
    7
 61
    5
292
1
282
    1
141
0
142
0
 63
  250
421
3358443
  0
ENDTAB
  0
TABLE
  2
LTYPE
  5
5
330
0
100
AcDbSymbolTable
 70
    4
  0
LTYPE
  5
14
330
5
100
AcDbSymbolTableRecord
100
AcDbLinetypeTableRecord
  2
ByBlock
 70
    0
  3

 72
   65
 73
    0
 40
0
  0
LTYPE
  5
15
330
5
100
AcDbSymbolTableRecord
100
AcDbLinetypeTableRecord
  2
ByLayer
 70
    0
  3

 72
   65
 73
    0
 40
0
  0
LTYPE
  5
16
330
5
100
AcDbSymbolTableRecord
100
AcDbLinetypeTableRecord
  2
Continuous
 70
    0
  3
Solid line
 72
   65
 73
    0
 40
0
  0
LTYPE
  5
32
330
5
100
AcDbSymbolTableRecord
100
AcDbLinetypeTableRecord
  2
DOT
 70
    0
  3
Dot . . . . . . . . . . . . . . . . . . . . . .
 72
   65
 73
    2
 40
6.35
 49
0
 74
    0
 49
-6.35
 74
    0
  0
LTYPE
  5
33
330
5
100
AcDbSymbolTableRecord
100
AcDbLinetypeTableRecord
  2
DOTTINY
 70
    0
  3
Dot (.15x) .....................................
 72
   65
 73
    2
 40
0.9525
 49
0
 74
    0
 49
-0.9525
 74
    0
  0
LTYPE
  5
34
330
5
100
AcDbSymbolTableRecord
100
AcDbLinetypeTableRecord
  2
DOT2
 70
    0
  3
Dot (.5x) .....................................
 72
   65
 73
    2
 40
3.175
 49
0
 74
    0
 49
-3.175
 74
    0
  0
LTYPE
  5
35
330
5
100
AcDbSymbolTableRecord
100
AcDbLinetypeTableRecord
  2
DOTX2
 70
    0
  3
Dot (2x) .  .  .  .  .  .  .  .  .  .  .  .  .
 72
   65
 73
    2
 40
12.7
 49
0
 74
    0
 49
-12.7
 74
    0
  0
LTYPE
  5
36
330
5
100
AcDbSymbolTableRecord
100
AcDbLinetypeTableRecord
  2
DASHED
 70
    0
  3
Dashed _ _ _ _ _ _ _ _ _ _ _ _ _ _ _ _ _
 72
   65
 73
    2
 40
19.05
 49
12.7
 74
    0
 49
-6.35
 74
    0
  0
LTYPE
  5
37
330
5
100
AcDbSymbolTableRecord
100
AcDbLinetypeTableRecord
  2
DASHEDTINY
 70
    0
  3
Dashed (.15x) _ _ _ _ _ _ _ _ _ _ _ _ _ _ _ _ _
 72
   65
 73
    2
 40
2.8575
 49
1.905
 74
    0
 49
-0.9525
 74
    0
  0
LTYPE
  5
38
330
5
100
AcDbSymbolTableRecord
100
AcDbLinetypeTableRecord
  2
DASHED2
 70
    0
  3
Dashed (.5x) _ _ _ _ _ _ _ _ _ _ _ _ _ _ _ _ _
 72
   65
 73
    2
 40
9.524999999999999
 49
6.35
 74
    0
 49
-3.175
 74
    0
  0
LTYPE
  5
39
330
5
100
AcDbSymbolTableRecord
100
AcDbLinetypeTableRecord
  2
DASHEDX2
 70
    0
  3
Dashed (2x) ____  ____  ____  ____  ____  ___
 72
   65
 73
    2
 40
38.09999999999999
 49
25.4
 74
    0
 49
-12.7
 74
    0
  0
LTYPE
  5
3A
330
5
100
AcDbSymbolTableRecord
100
AcDbLinetypeTableRecord
  2
DASHDOT
 70
    0
  3
Dash dot __ . __ . __ . __ . __ . __ . __ . __
 72
   65
 73
    4
 40
25.4
 49
12.7
 74
    0
 49
-6.35
 74
    0
 49
0
 74
    0
 49
-6.35
 74
    0
  0
LTYPE
  5
3B
330
5
100
AcDbSymbolTableRecord
100
AcDbLinetypeTableRecord
  2
DASHDOTTINY
 70
    0
  3
Dash dot (.15x) _._._._._._._._._._._._._._._.
 72
   65
 73
    4
 40
3.81
 49
1.905
 74
    0
 49
-0.9525
 74
    0
 49
0
 74
    0
 49
-0.9525
 74
    0
  0
LTYPE
  5
3C
330
5
100
AcDbSymbolTableRecord
100
AcDbLinetypeTableRecord
  2
DASHDOT2
 70
    0
  3
Dash dot (.5x) _._._._._._._._._._._._._._._.
 72
   65
 73
    4
 40
12.7
 49
6.35
 74
    0
 49
-3.175
 74
    0
 49
0
 74
    0
 49
-3.175
 74
    0
  0
LTYPE
  5
3D
330
5
100
AcDbSymbolTableRecord
100
AcDbLinetypeTableRecord
  2
DASHDOTX2
 70
    0
  3
Dash dot (2x) ____  .  ____  .  ____  .  ___
 72
   65
 73
    4
 40
50.8
 49
25.4
 74
    0
 49
-12.7
 74
    0
 49
0
 74
    0
 49
-12.7
 74
    0
  0
LTYPE
  5
3E
330
5
100
AcDbSymbolTableRecord
100
AcDbLinetypeTableRecord
  2
DIVIDE
 70
    0
  3
Divide ____ . . ____ . . ____ . . ____ . . ____
 72
   65
 73
    6
 40
31.75
 49
12.7
 74
    0
 49
-6.35
 74
    0
 49
0
 74
    0
 49
-6.35
 74
    0
 49
0
 74
    0
 49
-6.35
 74
    0
  0
LTYPE
  5
3F
330
5
100
AcDbSymbolTableRecord
100
AcDbLinetypeTableRecord
  2
DIVIDETINY
 70
    0
  3
Divide (.15x) __..__..__..__..__..__..__..__.._
 72
   65
 73
    6
 40
4.7625
 49
1.905
 74
    0
 49
-0.9525
 74
    0
 49
0
 74
    0
 49
-0.9525
 74
    0
 49
0
 74
    0
 49
-0.9525
 74
    0
  0
LTYPE
  5
40
330
5
100
AcDbSymbolTableRecord
100
AcDbLinetypeTableRecord
  2
DIVIDE2
 70
    0
  3
Divide (.5x) __..__..__..__..__..__..__..__.._
 72
   65
 73
    6
 40
15.875
 49
6.35
 74
    0
 49
-3.175
 74
    0
 49
0
 74
    0
 49
-3.175
 74
    0
 49
0
 74
    0
 49
-3.175
 74
    0
  0
LTYPE
  5
41
330
5
100
AcDbSymbolTableRecord
100
AcDbLinetypeTableRecord
  2
DIVIDEX2
 70
    0
  3
Divide (2x) ________  .  .  ________  .  .  _
 72
   65
 73
    6
 40
63.5
 49
25.4
 74
    0
 49
-12.7
 74
    0
 49
0
 74
    0
 49
-12.7
 74
    0
 49
0
 74
    0
 49
-12.7
 74
    0
  0
LTYPE
  5
42
330
5
100
AcDbSymbolTableRecord
100
AcDbLinetypeTableRecord
  2
BORDER
 70
    0
  3
Border __ __ . __ __ . __ __ . __ __ . __ __ .
 72
   65
 73
    6
 40
44.45
 49
12.7
 74
    0
 49
-6.35
 74
    0
 49
12.7
 74
    0
 49
-6.35
 74
    0
 49
0
 74
    0
 49
-6.35
 74
    0
  0
LTYPE
  5
43
330
5
100
AcDbSymbolTableRecord
100
AcDbLinetypeTableRecord
  2
BORDERTINY
 70
    0
  3
Border (.15x) __.__.__.__.__.__.__.__.__.__.__.
 72
   65
 73
    6
 40
6.6675
 49
1.905
 74
    0
 49
-0.9525
 74
    0
 49
1.905
 74
    0
 49
-0.9525
 74
    0
 49
0
 74
    0
 49
-0.9525
 74
    0
  0
LTYPE
  5
44
330
5
100
AcDbSymbolTableRecord
100
AcDbLinetypeTableRecord
  2
BORDER2
 70
    0
  3
Border (.5x) __.__.__.__.__.__.__.__.__.__.__.
 72
   65
 73
    6
 40
22.225
 49
6.35
 74
    0
 49
-3.175
 74
    0
 49
6.35
 74
    0
 49
-3.175
 74
    0
 49
0
 74
    0
 49
-3.175
 74
    0
  0
LTYPE
  5
45
330
5
100
AcDbSymbolTableRecord
100
AcDbLinetypeTableRecord
  2
BORDERX2
 70
    0
  3
Border (2x) ____  ____  .  ____  ____  .  ___
 72
   65
 73
    6
 40
88.89999999999999
 49
25.4
 74
    0
 49
-12.7
 74
    0
 49
25.4
 74
    0
 49
-12.7
 74
    0
 49
0
 74
    0
 49
-12.7
 74
    0
  0
LTYPE
  5
46
330
5
100
AcDbSymbolTableRecord
100
AcDbLinetypeTableRecord
  2
CENTER
 70
    0
  3
Center ____ _ ____ _ ____ _ ____ _ ____ _ ____
 72
   65
 73
    4
 40
50.8
 49
31.75
 74
    0
 49
-6.35
 74
    0
 49
6.35
 74
    0
 49
-6.35
 74
    0
  0
LTYPE
  5
47
330
5
100
AcDbSymbolTableRecord
100
AcDbLinetypeTableRecord
  2
CENTERTINY
 70
    0
  3
Center (.15x) ___ _ ___ _ ___ _ ___ _ ___ _ ___
 72
   65
 73
    4
 40
7.619999999999999
 49
4.7625
 74
    0
 49
-0.9525
 74
    0
 49
0.9525
 74
    0
 49
-0.9525
 74
    0
  0
LTYPE
  5
48
330
5
100
AcDbSymbolTableRecord
100
AcDbLinetypeTableRecord
  2
CENTER2
 70
    0
  3
Center (.5x) ___ _ ___ _ ___ _ ___ _ ___ _ ___
 72
   65
 73
    4
 40
28.575
 49
19.05
 74
    0
 49
-3.175
 74
    0
 49
3.175
 74
    0
 49
-3.175
 74
    0
  0
LTYPE
  5
49
330
5
100
AcDbSymbolTableRecord
100
AcDbLinetypeTableRecord
  2
CENTERX2
 70
    0
  3
Center (2x) ________  __  ________  __  _____
 72
   65
 73
    4
 40
101.6
 49
63.5
 74
    0
 49
-12.7
 74
    0
 49
12.7
 74
    0
 49
-12.7
 74
    0
  0
ENDTAB
  0
TABLE
  2
LAYER
  5
2
330
0
100
AcDbSymbolTable
 70
    1
  0
LAYER
  5
10
330
2
100
AcDbSymbolTableRecord
100
AcDbLayerTableRecord
  2
0
 70
    0
 62
    7
  6
CONTINUOUS
370
   -3
390
F
1001
LibreCad
1070
    1
  0
LAYER
  5
4A
330
2
100
AcDbSymbolTableRecord
100
AcDbLayerTableRecord
  2
decor
 70
    0
 62
   36
420
8406016
  6
CONTINUOUS
370
   25
390
F
  0
LAYER
  5
4B
330
2
100
AcDbSymbolTableRecord
100
AcDbLayerTableRecord
  2
dimensions
 70
    0
 62
    4
  6
CONTINUOUS
370
   13
390
F
  0
LAYER
  5
4C
330
2
100
AcDbSymbolTableRecord
100
AcDbLayerTableRecord
  2
shidci
 70
    0
 62
    8
  6
CONTINUOUS
370
   25
390
F
  0
LAYER
  5
4D
330
2
100
AcDbSymbolTableRecord
100
AcDbLayerTableRecord
  2
shyfer
 70
    0
 62
   16
420
8388608
  6
CONTINUOUS
370
   25
390
F
  0
LAYER
  5
4E
330
2
100
AcDbSymbolTableRecord
100
AcDbLayerTableRecord
  2
styny
 70
    0
 62
   41
420
16376252
  6
CONTINUOUS
370
   25
390
F
  0
LAYER
  5
4F
330
2
100
AcDbSymbolTableRecord
100
AcDbLayerTableRecord
  2
vikna_dveri
 70
    0
 62
   36
420
8406016
  6
CONTINUOUS
370
   25
390
F
  0
ENDTAB
  0
TABLE
  2
STYLE
  5
3
330
0
100
AcDbSymbolTable
 70
    3
  0
STYLE
  5
50
330
2
100
AcDbSymbolTableRecord
100
AcDbTextStyleTableRecord
  2
cyrillic_ii
 70
    0
 40
0
 41
1
 50
0
 71
    0
 42
1
  3
cyrillic_ii
  4

  0
STYLE
  5
51
330
2
100
AcDbSymbolTableRecord
100
AcDbTextStyleTableRecord
  2
Standard
 70
    0
 40
0
 41
1
 50
0
 71
    0
 42
1
  3
txt
  4

  0
ENDTAB
  0
TABLE
  2
VIEW
  5
6
330
0
100
AcDbSymbolTable
 70
    0
  0
ENDTAB
  0
TABLE
  2
UCS
  5
7
330
0
100
AcDbSymbolTable
 70
    0
  0
ENDTAB
  0
TABLE
  2
APPID
  5
9
330
0
100
AcDbSymbolTable
 70
    1
  0
APPID
  5
12
330
9
100
AcDbSymbolTableRecord
100
AcDbRegAppTableRecord
  2
ACAD
 70
    0
  0
APPID
  5
52
330
9
100
AcDbSymbolTableRecord
100
AcDbRegAppTableRecord
  2
LibreCad
 70
    0
  0
ENDTAB
  0
TABLE
  2
DIMSTYLE
  5
A
330
0
100
AcDbSymbolTable
 70
    1
100
AcDbDimStyleTable
 71
    1
  0
DIMSTYLE
105
53
330
A
100
AcDbSymbolTableRecord
100
AcDbDimStyleTableRecord
  2
Standard
 70
    0
 40
10
 41
2
 42
1
 43
0.38
 44
2
 45
0
 46
0
 47
0
 48
0
 49
1
140
4
141
0.09
142
2
143
25.4
144
1
145
0
146
1
147
2
148
0
 71
    0
 72
    0
 73
    0
 74
    1
 75
    0
 76
    0
 77
    0
 78
    8
 79
    0
170
    0
171
    2
172
    0
173
    0
174
    0
175
    0
176
    0
177
    0
178
    0
179
    0
271
    1
272
    4
273
    2
274
    2
275
    0
276
    0
277
    2
278
   44
279
    0
280
    0
281
    0
282
    0
283
    1
284
    0
285
    0
286
    0
288
    0
289
    3
340
standard
341

371
   -2
372
   -2
  0
ENDTAB
  0
TABLE
  2
BLOCK_RECORD
  5
1
330
0
100
AcDbSymbolTable
 70
    2
  0
BLOCK_RECORD
  5
1F
330
1
100
AcDbSymbolTableRecord
100
AcDbBlockTableRecord
  2
*Model_Space
 70
    0
280
    1
281
    0
  0
BLOCK_RECORD
  5
1E
330
1
100
AcDbSymbolTableRecord
100
AcDbBlockTableRecord
  2
*Paper_Space
 70
    0
280
    1
281
    0
  0
BLOCK_RECORD
  5
54
330
1
100
AcDbSymbolTableRecord
100
AcDbBlockTableRecord
  2
*D4
 70
    0
280
    1
281
    0
  0
BLOCK_RECORD
  5
57
330
1
100
AcDbSymbolTableRecord
100
AcDbBlockTableRecord
  2
*D2
 70
    0
280
    1
281
    0
  0
BLOCK_RECORD
  5
5A
330
1
100
AcDbSymbolTableRecord
100
AcDbBlockTableRecord
  2
*D9
 70
    0
280
    1
281
    0
  0
BLOCK_RECORD
  5
5D
330
1
100
AcDbSymbolTableRecord
100
AcDbBlockTableRecord
  2
*D5
 70
    0
280
    1
281
    0
  0
BLOCK_RECORD
  5
60
330
1
100
AcDbSymbolTableRecord
100
AcDbBlockTableRecord
  2
*D10
 70
    0
280
    1
281
    0
  0
BLOCK_RECORD
  5
63
330
1
100
AcDbSymbolTableRecord
100
AcDbBlockTableRecord
  2
*D1
 70
    0
280
    1
281
    0
  0
BLOCK_RECORD
  5
66
330
1
100
AcDbSymbolTableRecord
100
AcDbBlockTableRecord
  2
*D6
 70
    0
280
    1
281
    0
  0
BLOCK_RECORD
  5
69
330
1
100
AcDbSymbolTableRecord
100
AcDbBlockTableRecord
  2
*D11
 70
    0
280
    1
281
    0
  0
BLOCK_RECORD
  5
6C
330
1
100
AcDbSymbolTableRecord
100
AcDbBlockTableRecord
  2
*D3
 70
    0
280
    1
281
    0
  0
BLOCK_RECORD
  5
6F
330
1
100
AcDbSymbolTableRecord
100
AcDbBlockTableRecord
  2
*D8
 70
    0
280
    1
281
    0
  0
BLOCK_RECORD
  5
72
330
1
100
AcDbSymbolTableRecord
100
AcDbBlockTableRecord
  2
*D7
 70
    0
280
    1
281
    0
  0
BLOCK_RECORD
  5
75
330
1
100
AcDbSymbolTableRecord
100
AcDbBlockTableRecord
  2
block10
 70
    0
280
    1
281
    0
  0
ENDTAB
  0
ENDSEC
  0
SECTION
  2
BLOCKS
  0
BLOCK
  5
20
330
1F
100
AcDbEntity
  8
0
100
AcDbBlockBegin
  2
*Model_Space
 70
    0
 10
0
 20
0
 30
0
  3
*Model_Space
  1

  0
ENDBLK
  5
21
330
1F
100
AcDbEntity
  8
0
100
AcDbBlockEnd
  0
BLOCK
  5
1C
330
1B
100
AcDbEntity
  8
0
100
AcDbBlockBegin
  2
*Paper_Space
 70
    0
 10
0
 20
0
 30
0
  3
*Paper_Space
  1

  0
ENDBLK
  5
1D
330
1F
100
AcDbEntity
  8
0
100
AcDbBlockEnd
  0
BLOCK
  5
55
330
54
100
AcDbEntity
  8
0
100
AcDbBlockBegin
  2
*D4
 70
    1
 10
0
 20
0
  3
*D4
  1

  0
LINE
  5
78
100
AcDbEntity
  8
dimensions
  6
ByBlock
 62
    0
370
   -2
100
AcDbLine
 10
-200
 20
40
 11
-200
 21
646
  0
LINE
  5
79
100
AcDbEntity
  8
dimensions
  6
ByBlock
 62
    0
370
   -2
100
AcDbLine
 10
-214.142135623731
 20
54.14213562373095
 11
-185.857864376269
 21
25.85786437626905
  0
LINE
  5
7A
100
AcDbEntity
  8
dimensions
  6
ByBlock
 62
    0
370
   -2
100
AcDbLine
 10
-214.142135623731
 20
660.142135623731
 11
-185.857864376269
 21
631.857864376269
  0
MTEXT
  5
7B
100
AcDbEntity
  8
dimensions
  6
CONTINUOUS
 62
    0
370
   -2
100
AcDbMText
 10
-240
 20
343
 30
0
 40
40
 41
80.00000000000497
 71
    5
 72
    1
  1
606
  7
standard
210
0
220
0
230
1
 50
90
 73
    2
 44
1
  0
LINE
  5
7C
100
AcDbEntity
  8
dimensions
  6
ByBlock
 62
    0
370
   -2
100
AcDbLine
 10
-10
 20
40
 11
-220
 21
40
  0
LINE
  5
7D
100
AcDbEntity
  8
dimensions
  6
ByBlock
 62
    0
370
   -2
100
AcDbLine
 10
-10
 20
646
 11
-220
 21
646
  0
ENDBLK
  5
56
330
54
100
AcDbEntity
  8
0
100
AcDbBlockEnd
  0
BLOCK
  5
58
330
57
100
AcDbEntity
  8
0
100
AcDbBlockBegin
  2
*D2
 70
    1
 10
0
 20
0
  3
*D2
  1

  0
LINE
  5
7E
100
AcDbEntity
  8
dimensions
  6
ByBlock
 62
    0
370
   -2
100
AcDbLine
 10
1437.946525941361
 20
1200
 11
2614.053474058641
 21
1200
  0
LINE
  5
7F
100
AcDbEntity
  8
dimensions
  6
ByBlock
 62
    0
370
   -2
100
AcDbLine
 10
1452.088661565092
 20
1214.142135623731
 11
1423.80439031763
 21
1185.857864376269
  0
LINE
  5
80
100
AcDbEntity
  8
dimensions
  6
ByBlock
 62
    0
370
   -2
100
AcDbLine
 10
2628.195609682372
 20
1214.142135623731
 11
2599.91133843491
 21
1185.857864376269
  0
MTEXT
  5
81
100
AcDbEntity
  8
dimensions
  6
CONTINUOUS
 62
    0
370
   -2
100
AcDbMText
 10
2026.000000000001
 20
1240
 30
0
 40
40
 41
131.1111111111136
 71
    5
 72
    1
  1
1176,1
  7
standard
210
0
220
0
230
1
 50
0
 73
    2
 44
1
  0
LINE
  5
82
100
AcDbEntity
  8
dimensions
  6
ByBlock
 62
    0
370
   -2
100
AcDbLine
 10
1437.946525941361
 20
679.5187174072751
 11
1437.946525941361
 21
1220
  0
LINE
  5
83
100
AcDbEntity
  8
dimensions
  6
ByBlock
 62
    0
370
   -2
100
AcDbLine
 10
2614.053474058641
 20
679.5187174072737
 11
2614.053474058641
 21
1220
  0
ENDBLK
  5
59
330
57
100
AcDbEntity
  8
0
100
AcDbBlockEnd
  0
BLOCK
  5
5B
330
5A
100
AcDbEntity
  8
0
100
AcDbBlockBegin
  2
*D9
 70
    1
 10
0
 20
0
  3
*D9
  1

  0
LINE
  5
84
100
AcDbEntity
  8
dimensions
  6
CONTINUOUS
 62
    7
370
    0
100
AcDbLine
 10
1053.999999999996
 20
200
 11
1053.999999999996
 21
260
  0
SOLID
  5
85
100
AcDbEntity
  8
dimensions
  6
CONTINUOUS
 62
    7
370
    0
100
AcDbTrace
 10
1053.999999999996
 20
200
 30
0
 11
1050.669722737813
 21
220
 31
0
 12
1057.330277262179
 22
220
 32
0
 13
1057.330277262179
 23
220
 33
0
  0
ENDBLK
  5
5C
330
5A
100
AcDbEntity
  8
0
100
AcDbBlockEnd
  0
BLOCK
  5
5E
330
5D
100
AcDbEntity
  8
0
100
AcDbBlockBegin
  2
*D5
 70
    1
 10
0
 20
0
  3
*D5
  1

  0
LINE
  5
86
100
AcDbEntity
  8
dimensions
  6
ByBlock
 62
    0
370
   -2
100
AcDbLine
 10
-200
 20
1005.747134924497
 11
-200
 21
646
  0
LINE
  5
87
100
AcDbEntity
  8
dimensions
  6
ByBlock
 62
    0
370
   -2
100
AcDbLine
 10
-185.857864376269
 20
991.6049993007661
 11
-214.142135623731
 21
1019.889270548228
  0
LINE
  5
88
100
AcDbEntity
  8
dimensions
  6
ByBlock
 62
    0
370
   -2
100
AcDbLine
 10
-185.857864376269
 20
631.857864376269
 11
-214.142135623731
 21
660.142135623731
  0
MTEXT
  5
89
100
AcDbEntity
  8
dimensions
  6
CONTINUOUS
 62
    0
370
   -2
100
AcDbMText
 10
-240
 20
825.8735674622487
 30
0
 40
40
 41
126.6666666666716
 71
    5
 72
    1
  1
359,7
  7
standard
210
0
220
0
230
1
 50
90
 73
    2
 44
1
  0
LINE
  5
8A
100
AcDbEntity
  8
dimensions
  6
ByBlock
 62
    0
370
   -2
100
AcDbLine
 10
489.9999999999991
 20
1005.747134924497
 11
-220
 21
1005.747134924497
  0
LINE
  5
8B
100
AcDbEntity
  8
dimensions
  6
ByBlock
 62
    0
370
   -2
100
AcDbLine
 10
-10
 20
646
 11
-220
 21
646
  0
ENDBLK
  5
5F
330
5D
100
AcDbEntity
  8
0
100
AcDbBlockEnd
  0
BLOCK
  5
61
330
60
100
AcDbEntity
  8
0
100
AcDbBlockBegin
  2
*D10
 70
    1
 10
0
 20
0
  3
*D10
  1

  0
LINE
  5
8C
100
AcDbEntity
  8
dimensions
  6
CONTINUOUS
 62
    7
370
    0
100
AcDbLine
 10
-40
 20
540
 11
-40
 21
600
  0
SOLID
  5
8D
100
AcDbEntity
  8
dimensions
  6
CONTINUOUS
 62
    7
370
    0
100
AcDbTrace
 10
-40
 20
540
 30
0
 11
-43.33027726218272
 21
560
 31
0
 12
-36.66972273781727
 22
560
 32
0
 13
-36.66972273781727
 23
560
 33
0
  0
ENDBLK
  5
62
330
60
100
AcDbEntity
  8
0
100
AcDbBlockEnd
  0
BLOCK
  5
64
330
63
100
AcDbEntity
  8
0
100
AcDbBlockBegin
  2
*D1
 70
    1
 10
0
 20
0
  3
*D1
  1

  0
LINE
  5
8E
100
AcDbEntity
  8
dimensions
  6
ByBlock
 62
    0
370
   -2
100
AcDbLine
 10
-62.05347405863904
 20
1200
 11
1062.053474058641
 21
1200
  0
LINE
  5
8F
100
AcDbEntity
  8
dimensions
  6
ByBlock
 62
    0
370
   -2
100
AcDbLine
 10
-47.91133843490809
 20
1214.142135623731
 11
-76.19560968236999
 21
1185.857864376269
  0
LINE
  5
90
100
AcDbEntity
  8
dimensions
  6
ByBlock
 62
    0
370
   -2
100
AcDbLine
 10
1076.195609682372
 20
1214.142135623731
 11
1047.91133843491
 21
1185.857864376269
  0
MTEXT
  5
91
100
AcDbEntity
  8
dimensions
  6
CONTINUOUS
 62
    0
370
   -2
100
AcDbMText
 10
500.0000000000009
 20
1240
 30
0
 40
40
 41
135.5555555555556
 71
    5
 72
    1
  1
1124,1
  7
standard
210
0
220
0
230
1
 50
0
 73
    2
 44
1
  0
LINE
  5
92
100
AcDbEntity
  8
dimensions
  6
ByBlock
 62
    0
370
   -2
100
AcDbLine
 10
-62.05347405863904
 20
679.5187174072751
 11
-62.05347405863904
 21
1220
  0
LINE
  5
93
100
AcDbEntity
  8
dimensions
  6
ByBlock
 62
    0
370
   -2
100
AcDbLine
 10
1062.053474058641
 20
679.5187174072739
 11
1062.053474058641
 21
1220
  0
ENDBLK
  5
65
330
63
100
AcDbEntity
  8
0
100
AcDbBlockEnd
  0
BLOCK
  5
67
330
66
100
AcDbEntity
  8
0
100
AcDbBlockBegin
  2
*D6
 70
    1
 10
0
 20
0
  3
*D6
  1

  0
LINE
  5
94
100
AcDbEntity
  8
dimensions
  6
ByBlock
 62
    0
370
   -2
100
AcDbLine
 10
0
 20
-200
 11
1000
 21
-200
  0
LINE
  5
95
100
AcDbEntity
  8
dimensions
  6
ByBlock
 62
    0
370
   -2
100
AcDbLine
 10
14.14213562373095
 20
-185.857864376269
 11
-14.14213562373095
 21
-214.142135623731
  0
LINE
  5
96
100
AcDbEntity
  8
dimensions
  6
ByBlock
 62
    0
370
   -2
100
AcDbLine
 10
1014.142135623731
 20
-185.857864376269
 11
985.857864376269
 21
-214.142135623731
  0
MTEXT
  5
97
100
AcDbEntity
  8
dimensions
  6
CONTINUOUS
 62
    0
370
   -2
100
AcDbMText
 10
500
 20
-160
 30
0
 40
40
 41
102.2222222222222
 71
    5
 72
    1
  1
1000
  7
standard
210
0
220
0
230
1
 50
0
 73
    2
 44
1
  0
LINE
  5
98
100
AcDbEntity
  8
dimensions
  6
ByBlock
 62
    0
370
   -2
100
AcDbLine
 10
-1.83697019872103e-15
 20
-10
 11
-3.673940397442059e-15
 21
-220
  0
LINE
  5
99
100
AcDbEntity
  8
dimensions
  6
ByBlock
 62
    0
370
   -2
100
AcDbLine
 10
1000
 20
-10
 11
1000
 21
-220
  0
ENDBLK
  5
68
330
66
100
AcDbEntity
  8
0
100
AcDbBlockEnd
  0
BLOCK
  5
6A
330
69
100
AcDbEntity
  8
0
100
AcDbBlockBegin
  2
*D11
 70
    1
 10
0
 20
0
  3
*D11
  1

  0
LINE
  5
9A
100
AcDbEntity
  8
dimensions
  6
CONTINUOUS
 62
    7
370
    0
100
AcDbLine
 10
1053.999999999996
 20
540
 11
1053.999999999996
 21
600
  0
SOLID
  5
9B
100
AcDbEntity
  8
dimensions
  6
CONTINUOUS
 62
    7
370
    0
100
AcDbTrace
 10
1053.999999999996
 20
540
 30
0
 11
1050.669722737813
 21
560
 31
0
 12
1057.330277262179
 22
560
 32
0
 13
1057.330277262179
 23
560
 33
0
  0
ENDBLK
  5
6B
330
69
100
AcDbEntity
  8
0
100
AcDbBlockEnd
  0
BLOCK
  5
6D
330
6C
100
AcDbEntity
  8
0
100
AcDbBlockBegin
  2
*D3
 70
    1
 10
0
 20
0
  3
*D3
  1

  0
LINE
  5
9C
100
AcDbEntity
  8
dimensions
  6
ByBlock
 62
    0
370
   -2
100
AcDbLine
 10
-200
 20
-40
 11
-200
 21
80
  0
LINE
  5
9D
100
AcDbEntity
  8
dimensions
  6
ByBlock
 62
    0
370
   -2
100
AcDbLine
 10
-185.857864376269
 20
-14.14213562373095
 11
-214.142135623731
 21
14.14213562373095
  0
LINE
  5
9E
100
AcDbEntity
  8
dimensions
  6
ByBlock
 62
    0
370
   -2
100
AcDbLine
 10
-185.857864376269
 20
25.85786437626905
 11
-214.142135623731
 21
54.14213562373095
  0
MTEXT
  5
9F
100
AcDbEntity
  8
dimensions
  6
CONTINUOUS
 62
    0
370
   -2
100
AcDbMText
 10
-240
 20
86.66666666666667
 30
0
 40
40
 41
53.33333333333334
 71
    5
 72
    1
  1
40
  7
standard
210
0
220
0
230
1
 50
90
 73
    2
 44
1
  0
LINE
  5
A0
100
AcDbEntity
  8
dimensions
  6
ByBlock
 62
    0
370
   -2
100
AcDbLine
 10
-10
 20
1.224646799147353e-15
 11
-220
 21
2.449293598294707e-15
  0
LINE
  5
A1
100
AcDbEntity
  8
dimensions
  6
ByBlock
 62
    0
370
   -2
100
AcDbLine
 10
-10
 20
40
 11
-220
 21
40
  0
ENDBLK
  5
6E
330
6C
100
AcDbEntity
  8
0
100
AcDbBlockEnd
  0
BLOCK
  5
70
330
6F
100
AcDbEntity
  8
0
100
AcDbBlockBegin
  2
*D8
 70
    1
 10
0
 20
0
  3
*D8
  1

  0
LINE
  5
A2
100
AcDbEntity
  8
dimensions
  6
CONTINUOUS
 62
    7
370
    0
100
AcDbLine
 10
-40
 20
200
 11
-40
 21
260
  0
SOLID
  5
A3
100
AcDbEntity
  8
dimensions
  6
CONTINUOUS
 62
    7
370
    0
100
AcDbTrace
 10
-40
 20
200
 30
0
 11
-43.33027726218272
 21
220
 31
0
 12
-36.66972273781727
 22
220
 32
0
 13
-36.66972273781727
 23
220
 33
0
  0
ENDBLK
  5
71
330
6F
100
AcDbEntity
  8
0
100
AcDbBlockEnd
  0
BLOCK
  5
73
330
72
100
AcDbEntity
  8
0
100
AcDbBlockBegin
  2
*D7
 70
    1
 10
0
 20
0
  3
*D7
  1

  0
LINE
  5
A4
100
AcDbEntity
  8
dimensions
  6
ByBlock
 62
    0
370
   -2
100
AcDbLine
 10
1500
 20
-200
 11
2552
 21
-200
  0
LINE
  5
A5
100
AcDbEntity
  8
dimensions
  6
ByBlock
 62
    0
370
   -2
100
AcDbLine
 10
1514.142135623731
 20
-185.857864376269
 11
1485.857864376269
 21
-214.142135623731
  0
LINE
  5
A6
100
AcDbEntity
  8
dimensions
  6
ByBlock
 62
    0
370
   -2
100
AcDbLine
 10
2566.142135623731
 20
-185.857864376269
 11
2537.857864376269
 21
-214.142135623731
  0
MTEXT
  5
A7
100
AcDbEntity
  8
dimensions
  6
CONTINUOUS
 62
    0
370
   -2
100
AcDbMText
 10
2026
 20
-160
 30
0
 40
40
 41
102.2222222222247
 71
    5
 72
    1
  1
1052
  7
standard
210
0
220
0
230
1
 50
0
 73
    2
 44
1
  0
LINE
  5
A8
100
AcDbEntity
  8
dimensions
  6
ByBlock
 62
    0
370
   -2
100
AcDbLine
 10
1500
 20
-10
 11
1500
 21
-220
  0
LINE
  5
A9
100
AcDbEntity
  8
dimensions
  6
ByBlock
 62
    0
370
   -2
100
AcDbLine
 10
2552
 20
-10
 11
2552
 21
-220
  0
ENDBLK
  5
74
330
72
100
AcDbEntity
  8
0
100
AcDbBlockEnd
  0
BLOCK
  5
76
330
75
100
AcDbEntity
  8
0
100
AcDbBlockBegin
  2
block10
 70
    0
 10
0
 20
0
  3
block10
  1

  0
LWPOLYLINE
  5
AA
100
AcDbEntity
  8
0
  6
CONTINUOUS
 62
    7
370
   70
100
AcDbPolyline
 90
   12
 70
    1
 43
0
 10
-0.6062178
 20
1
 10
0
 20
0
 10
0.6062178
 20
1
 10
1.8186533
 20
1
 10
1.2124356
 20
2
 10
1.8186533
 20
3
 10
0.6062178
 20
3
 10
0
 20
4
 10
-0.6062178
 20
3
 10
-1.8186533
 20
3
 10
-1.2124356
 20
2
 10
-1.8186533
 20
1
  0
ENDBLK
  5
77
330
75
100
AcDbEntity
  8
0
100
AcDbBlockEnd
  0
ENDSEC
  0
SECTION
  2
ENTITIES
  0
HATCH
  5
AB
100
AcDbEntity
  8
shyfer
  6
ByLayer
 62
  256
370
   -1
100
AcDbHatch
 10
0
 20
0
 30
0
210
0
220
0
230
1
  2
ar-roof
 70
    0
 71
    0
 91
    1
 92
    0
 93
    5
 72
    1
 10
-60
 20
666.0860443540269
 11
-62.05347405863904
 21
669.5187174072751
 72
    1
 10
-62.05347405863904
 20
669.5187174072751
 11
500
 21
1005.747134924497
 72
    1
 10
500
 20
1005.747134924497
 11
1062.053474058641
 21
669.5187174072739
 72
    1
 10
1062.053474058641
 20
669.5187174072739
 11
1060
 21
666.086044354027
 72
    1
 10
1060
 20
666.086044354027
 11
-60
 21
666
 97
    0
 75
    0
 76
    1
 52
0
 41
1
 77
    0
 78
    0
 98
    0
  0
HATCH
  5
AC
100
AcDbEntity
  8
shyfer
  6
ByLayer
 62
  256
370
   -1
100
AcDbHatch
 10
0
 20
0
 30
0
210
0
220
0
230
1
  2
ar-roof
 70
    0
 71
    0
 91
    1
 92
    0
 93
   11
 72
    1
 10
1440
 20
666.0860443540269
 11
1437.946525941361
 21
669.5187174072751
 72
    1
 10
1437.946525941361
 20
669.5187174072751
 11
2000
 21
1005.747134924497
 72
    1
 10
2000
 20
1005.747134924497
 11
2000.5
 21
1005.747134924496
 72
    1
 10
2000.5
 20
1005.747134924496
 11
2000.5
 21
1005.747134924496
 72
    1
 10
2000.5
 20
1005.747134924496
 11
2000.5
 21
986.6
 72
    1
 10
2000.5
 20
986.6
 11
2051.5
 21
986.6
 72
    1
 10
2051.5
 20
986.6
 11
2051.5
 21
1005.747134924496
 72
    1
 10
2051.5
 20
1005.747134924496
 11
2052
 21
1005.747134924496
 72
    1
 10
2052
 20
1005.747134924496
 11
2614.053474058641
 21
669.5187174072739
 72
    1
 10
2614.053474058641
 20
669.5187174072739
 11
2612
 21
666.086044354027
 72
    1
 10
2612
 20
666.086044354027
 11
1440
 21
666
 97
    0
 75
    0
 76
    1
 52
0
 41
1
 77
    0
 78
    0
 98
    0
  0
HATCH
  5
AD
100
AcDbEntity
  8
shyfer
  6
ByLayer
 62
  256
370
   -1
100
AcDbHatch
 10
0
 20
0
 30
0
210
0
220
0
230
1
  2
ar-roof
 70
    0
 71
    0
 91
    1
 92
    0
 93
   11
 72
    1
 10
1440
 20
-833.9139556459731
 11
1437.946525941361
 21
-830.4812825927249
 72
    1
 10
1437.946525941361
 20
-830.4812825927249
 11
2000
 21
-494.252865075503
 72
    1
 10
2000
 20
-494.252865075503
 11
2000.5
 21
-494.252865075504
 72
    1
 10
2000.5
 20
-494.252865075504
 11
2000.5
 21
-494.252865075504
 72
    1
 10
2000.5
 20
-494.252865075504
 11
2000.5
 21
-513.4
 72
    1
 10
2000.5
 20
-513.4
 11
2051.5
 21
-513.4
 72
    1
 10
2051.5
 20
-513.4
 11
2051.5
 21
-494.252865075504
 72
    1
 10
2051.5
 20
-494.252865075504
 11
2052
 21
-494.252865075504
 72
    1
 10
2052
 20
-494.252865075504
 11
2614.053474058641
 21
-830.4812825927261
 72
    1
 10
2614.053474058641
 20
-830.4812825927261
 11
2612
 21
-833.913955645973
 72
    1
 10
2612
 20
-833.913955645973
 11
1440
 21
-834
 97
    0
 75
    0
 76
    1
 52
0
 41
1
 77
    0
 78
    0
 98
    0
  0
HATCH
  5
AE
100
AcDbEntity
  8
shyfer
  6
ByLayer
 62
  256
370
   -1
100
AcDbHatch
 10
0
 20
0
 30
0
210
0
220
0
230
1
  2
ar-roof
 70
    0
 71
    0
 91
    1
 92
    0
 93
    5
 72
    1
 10
-60
 20
-833.9139556459731
 11
-62.05347405863904
 21
-830.4812825927249
 72
    1
 10
-62.05347405863904
 20
-830.4812825927249
 11
500
 21
-494.252865075503
 72
    1
 10
500
 20
-494.252865075503
 11
1062.053474058641
 21
-830.4812825927261
 72
    1
 10
1062.053474058641
 20
-830.4812825927261
 11
1060
 21
-833.913955645973
 72
    1
 10
1060
 20
-833.913955645973
 11
-60
 21
-834
 97
    0
 75
    0
 76
    1
 52
0
 41
1
 77
    0
 78
    0
 98
    0
  0
HATCH
  5
AF
100
AcDbEntity
  8
decor
  6
ByLayer
 62
  256
370
   -1
100
AcDbHatch
 10
0
 20
0
 30
0
210
0
220
0
230
1
  2
ar-b816
 70
    0
 71
    0
 91
    1
 92
    0
 93
    8
 72
    1
 10
2552
 20
-1459.985
 11
1764
 21
-1460
 72
    1
 10
1764
 20
-1460
 11
1764
 21
-1472
 72
    1
 10
1764
 20
-1472
 11
1794
 21
-1472
 72
    1
 10
1794
 20
-1472
 11
1794
 21
-1486
 72
    1
 10
1794
 20
-1486
 11
1824
 21
-1486
 72
    1
 10
1824
 20
-1486
 11
1824
 21
-1500
 72
    1
 10
1824
 20
-1500
 11
2552
 21
-1499.985
 72
    1
 10
2552
 20
-1499.985
 11
2552
 21
-1459.985
 97
    0
 75
    0
 76
    1
 52
3.141592653589793
 41
0.2
 77
    0
 78
    0
 98
    0
  0
HATCH
  5
B0
100
AcDbEntity
  8
decor
  6
ByLayer
 62
  256
370
   -1
100
AcDbHatch
 10
0
 20
0
 30
0
210
0
220
0
230
1
  2
ar-b816
 70
    0
 71
    0
 91
    1
 92
    0
 93
    8
 72
    1
 10
0
 20
0
 11
0
 21
40
 72
    1
 10
0
 20
40
 11
527
 21
40
 72
    1
 10
527
 20
40
 11
527
 21
28
 72
    1
 10
527
 20
28
 11
497
 21
28
 72
    1
 10
497
 20
28
 11
497
 21
14
 72
    1
 10
497
 20
14
 11
467
 21
14
 72
    1
 10
467
 20
14
 11
467
 21
0
 72
    1
 10
467
 20
0
 11
0
 21
0
 97
    0
 75
    0
 76
    1
 52
0
 41
0.2
 77
    0
 78
    0
 98
    0
  0
HATCH
  5
B1
100
AcDbEntity
  8
decor
  6
ByLayer
 62
  256
370
   -1
100
AcDbHatch
 10
0
 20
0
 30
0
210
0
220
0
230
1
  2
ar-b816
 70
    0
 71
    0
 91
    1
 92
    0
 93
    4
 72
    1
 10
1000
 20
-1460
 11
456
 21
-1460
 72
    1
 10
456
 20
-1460
 11
456
 21
-1500
 72
    1
 10
456
 20
-1500
 11
1000
 21
-1500
 72
    1
 10
1000
 20
-1500
 11
1000
 21
-1460
 97
    0
 75
    0
 76
    1
 52
0
 41
0.2
 77
    0
 78
    0
 98
    0
  0
HATCH
  5
B2
100
AcDbEntity
  8
decor
  6
ByLayer
 62
  256
370
   -1
100
AcDbHatch
 10
0
 20
0
 30
0
210
0
220
0
230
1
  2
ar-b816
 70
    0
 71
    0
 91
    1
 92
    0
 93
    4
 72
    1
 10
336
 20
-1500
 11
336
 21
-1460
 72
    1
 10
336
 20
-1460
 11
0
 21
-1460
 72
    1
 10
0
 20
-1460
 11
0
 21
-1500
 72
    1
 10
0
 20
-1500
 11
336
 21
-1500
 97
    0
 75
    0
 76
    1
 52
0
 41
0.2
 77
    0
 78
    0
 98
    0
  0
HATCH
  5
B3
100
AcDbEntity
  8
decor
  6
ByLayer
 62
  256
370
   -1
100
AcDbHatch
 10
0
 20
0
 30
0
210
0
220
0
230
1
  2
ar-b816
 70
    0
 71
    0
 91
    1
 92
    0
 93
    4
 72
    1
 10
2552
 20
0
 11
2552
 21
40
 72
    1
 10
2552
 20
40
 11
2489
 21
39.99999999999929
 72
    1
 10
2489
 20
39.99999999999929
 11
2489
 21
-7.105427357601002e-13
 72
    1
 10
2489
 20
-7.105427357601002e-13
 11
2552
 21
0
 97
    0
 75
    0
 76
    1
 52
0
 41
0.2
 77
    0
 78
    0
 98
    0
  0
HATCH
  5
B4
100
AcDbEntity
  8
decor
  6
ByLayer
 62
  256
370
   -1
100
AcDbHatch
 10
0
 20
0
 30
0
210
0
220
0
230
1
  2
ar-b816
 70
    0
 71
    0
 91
    1
 92
    0
 93
    4
 72
    1
 10
2073
 20
0
 11
2369
 21
0
 72
    1
 10
2369
 20
0
 11
2369
 21
40
 72
    1
 10
2369
 20
40
 11
2073
 21
40
 72
    1
 10
2073
 20
40
 11
2073
 21
0
 97
    0
 75
    0
 76
    1
 52
0
 41
0.2
 77
    0
 78
    0
 98
    0
  0
HATCH
  5
B5
100
AcDbEntity
  8
decor
  6
ByLayer
 62
  256
370
   -1
100
AcDbHatch
 10
0
 20
0
 30
0
210
0
220
0
230
1
  2
ar-b816
 70
    0
 71
    0
 91
    1
 92
    0
 93
    4
 72
    1
 10
1500
 20
40
 11
1500
 21
0
 72
    1
 10
1500
 20
0
 11
1953
 21
0
 72
    1
 10
1953
 20
0
 11
1953
 21
40
 72
    1
 10
1953
 20
40
 11
1500
 21
40
 97
    0
 75
    0
 76
    1
 52
0
 41
0.2
 77
    0
 78
    0
 98
    0
  0
HATCH
  5
B6
100
AcDbEntity
  8
decor
  6
ByLayer
 62
  256
370
   -1
100
AcDbHatch
 10
0
 20
0
 30
0
210
0
220
0
230
1
  2
ar-b816
 70
    0
 71
    0
 91
    1
 92
    0
 93
    4
 72
    1
 10
949
 20
-1407.5
 11
1000
 21
-1407.5
 72
    1
 10
1000
 20
-1407.5
 11
1000
 21
-1436.5
 72
    1
 10
1000
 20
-1436.5
 11
949
 21
-1436.5
 72
    1
 10
949
 20
-1436.5
 11
949
 21
-1407.5
 97
    0
 75
    0
 76
    1
 52
3.141592653589793
 41
0.15
 77
    0
 78
    0
 98
    0
  0
HATCH
  5
B7
100
AcDbEntity
  8
decor
  6
ByLayer
 62
  256
370
   -1
100
AcDbHatch
 10
0
 20
0
 30
0
210
0
220
0
230
1
  2
ar-b816
 70
    0
 71
    0
 91
    1
 92
    0
 93
    4
 72
    1
 10
963
 20
-1362.5
 11
1000
 21
-1362.5
 72
    1
 10
1000
 20
-1362.5
 11
1000
 21
-1391.5
 72
    1
 10
1000
 20
-1391.5
 11
963
 21
-1391.5
 72
    1
 10
963
 20
-1391.5
 11
963
 21
-1362.5
 97
    0
 75
    0
 76
    1
 52
3.141592653589793
 41
0.15
 77
    0
 78
    0
 98
    0
  0
HATCH
  5
B8
100
AcDbEntity
  8
decor
  6
ByLayer
 62
  256
370
   -1
100
AcDbHatch
 10
0
 20
0
 30
0
210
0
220
0
230
1
  2
ar-b816
 70
    0
 71
    0
 91
    1
 92
    0
 93
    4
 72
    1
 10
1000
 20
-1301.5
 11
963
 21
-1301.5
 72
    1
 10
963
 20
-1301.5
 11
963
 21
-1272.5
 72
    1
 10
963
 20
-1272.5
 11
1000
 21
-1272.5
 72
    1
 10
1000
 20
-1272.5
 11
1000
 21
-1301.5
 97
    0
 75
    0
 76
    1
 52
3.141592653589793
 41
0.15
 77
    0
 78
    0
 98
    0
  0
HATCH
  5
B9
100
AcDbEntity
  8
decor
  6
ByLayer
 62
  256
370
   -1
100
AcDbHatch
 10
0
 20
0
 30
0
210
0
220
0
230
1
  2
ar-b816
 70
    0
 71
    0
 91
    1
 92
    0
 93
    4
 72
    1
 10
1000
 20
-1346.5
 11
949
 21
-1346.5
 72
    1
 10
949
 20
-1346.5
 11
949
 21
-1317.5
 72
    1
 10
949
 20
-1317.5
 11
1000
 21
-1317.5
 72
    1
 10
1000
 20
-1317.5
 11
1000
 21
-1346.5
 97
    0
 75
    0
 76
    1
 52
3.141592653589793
 41
0.15
 77
    0
 78
    0
 98
    0
  0
HATCH
  5
BA
100
AcDbEntity
  8
decor
  6
ByLayer
 62
  256
370
   -1
100
AcDbHatch
 10
0
 20
0
 30
0
210
0
220
0
230
1
  2
ar-b816
 70
    0
 71
    0
 91
    1
 92
    0
 93
    4
 72
    1
 10
1000
 20
-1211.5
 11
963
 21
-1211.5
 72
    1
 10
963
 20
-1211.5
 11
963
 21
-1182.5
 72
    1
 10
963
 20
-1182.5
 11
1000
 21
-1182.5
 72
    1
 10
1000
 20
-1182.5
 11
1000
 21
-1211.5
 97
    0
 75
    0
 76
    1
 52
3.141592653589793
 41
0.15
 77
    0
 78
    0
 98
    0
  0
HATCH
  5
BB
100
AcDbEntity
  8
decor
  6
ByLayer
 62
  256
370
   -1
100
AcDbHatch
 10
0
 20
0
 30
0
210
0
220
0
230
1
  2
ar-b816
 70
    0
 71
    0
 91
    1
 92
    0
 93
    4
 72
    1
 10
1000
 20
-1256.5
 11
949
 21
-1256.5
 72
    1
 10
949
 20
-1256.5
 11
949
 21
-1227.5
 72
    1
 10
949
 20
-1227.5
 11
1000
 21
-1227.5
 72
    1
 10
1000
 20
-1227.5
 11
1000
 21
-1256.5
 97
    0
 75
    0
 76
    1
 52
3.141592653589793
 41
0.15
 77
    0
 78
    0
 98
    0
  0
HATCH
  5
BC
100
AcDbEntity
  8
decor
  6
ByLayer
 62
  256
370
   -1
100
AcDbHatch
 10
0
 20
0
 30
0
210
0
220
0
230
1
  2
ar-b816
 70
    0
 71
    0
 91
    1
 92
    0
 93
    4
 72
    1
 10
1000
 20
-1121.5
 11
963
 21
-1121.5
 72
    1
 10
963
 20
-1121.5
 11
963
 21
-1092.5
 72
    1
 10
963
 20
-1092.5
 11
1000
 21
-1092.5
 72
    1
 10
1000
 20
-1092.5
 11
1000
 21
-1121.5
 97
    0
 75
    0
 76
    1
 52
3.141592653589793
 41
0.15
 77
    0
 78
    0
 98
    0
  0
HATCH
  5
BD
100
AcDbEntity
  8
decor
  6
ByLayer
 62
  256
370
   -1
100
AcDbHatch
 10
0
 20
0
 30
0
210
0
220
0
230
1
  2
ar-b816
 70
    0
 71
    0
 91
    1
 92
    0
 93
    4
 72
    1
 10
1000
 20
-1166.5
 11
949
 21
-1166.5
 72
    1
 10
949
 20
-1166.5
 11
949
 21
-1137.5
 72
    1
 10
949
 20
-1137.5
 11
1000
 21
-1137.5
 72
    1
 10
1000
 20
-1137.5
 11
1000
 21
-1166.5
 97
    0
 75
    0
 76
    1
 52
3.141592653589793
 41
0.15
 77
    0
 78
    0
 98
    0
  0
HATCH
  5
BE
100
AcDbEntity
  8
decor
  6
ByLayer
 62
  256
370
   -1
100
AcDbHatch
 10
0
 20
0
 30
0
210
0
220
0
230
1
  2
ar-b816
 70
    0
 71
    0
 91
    1
 92
    0
 93
    4
 72
    1
 10
1000
 20
-1031.5
 11
963
 21
-1031.5
 72
    1
 10
963
 20
-1031.5
 11
963
 21
-1002.5
 72
    1
 10
963
 20
-1002.5
 11
1000
 21
-1002.5
 72
    1
 10
1000
 20
-1002.5
 11
1000
 21
-1031.5
 97
    0
 75
    0
 76
    1
 52
3.141592653589793
 41
0.15
 77
    0
 78
    0
 98
    0
  0
HATCH
  5
BF
100
AcDbEntity
  8
decor
  6
ByLayer
 62
  256
370
   -1
100
AcDbHatch
 10
0
 20
0
 30
0
210
0
220
0
230
1
  2
ar-b816
 70
    0
 71
    0
 91
    1
 92
    0
 93
    4
 72
    1
 10
1000
 20
-1076.5
 11
949
 21
-1076.5
 72
    1
 10
949
 20
-1076.5
 11
949
 21
-1047.5
 72
    1
 10
949
 20
-1047.5
 11
1000
 21
-1047.5
 72
    1
 10
1000
 20
-1047.5
 11
1000
 21
-1076.5
 97
    0
 75
    0
 76
    1
 52
3.141592653589793
 41
0.15
 77
    0
 78
    0
 98
    0
  0
HATCH
  5
C0
100
AcDbEntity
  8
decor
  6
ByLayer
 62
  256
370
   -1
100
AcDbHatch
 10
0
 20
0
 30
0
210
0
220
0
230
1
  2
ar-b816
 70
    0
 71
    0
 91
    1
 92
    0
 93
    4
 72
    1
 10
1000
 20
-941.5
 11
963
 21
-941.5
 72
    1
 10
963
 20
-941.5
 11
963
 21
-912.5
 72
    1
 10
963
 20
-912.5
 11
1000
 21
-912.5
 72
    1
 10
1000
 20
-912.5
 11
1000
 21
-941.5
 97
    0
 75
    0
 76
    1
 52
3.141592653589793
 41
0.15
 77
    0
 78
    0
 98
    0
  0
HATCH
  5
C1
100
AcDbEntity
  8
decor
  6
ByLayer
 62
  256
370
   -1
100
AcDbHatch
 10
0
 20
0
 30
0
210
0
220
0
230
1
  2
ar-b816
 70
    0
 71
    0
 91
    1
 92
    0
 93
    4
 72
    1
 10
1000
 20
-986.5
 11
949
 21
-986.5
 72
    1
 10
949
 20
-986.5
 11
949
 21
-957.5
 72
    1
 10
949
 20
-957.5
 11
1000
 21
-957.5
 72
    1
 10
1000
 20
-957.5
 11
1000
 21
-986.5
 97
    0
 75
    0
 76
    1
 52
3.141592653589793
 41
0.15
 77
    0
 78
    0
 98
    0
  0
HATCH
  5
C2
100
AcDbEntity
  8
decor
  6
ByLayer
 62
  256
370
   -1
100
AcDbHatch
 10
0
 20
0
 30
0
210
0
220
0
230
1
  2
ar-b816
 70
    0
 71
    0
 91
    1
 92
    0
 93
    4
 72
    1
 10
1000
 20
-896.5
 11
949
 21
-896.5
 72
    1
 10
949
 20
-896.5
 11
949
 21
-867.5
 72
    1
 10
949
 20
-867.5
 11
1000
 21
-867.5
 72
    1
 10
1000
 20
-867.5
 11
1000
 21
-896.5
 97
    0
 75
    0
 76
    1
 52
3.141592653589793
 41
0.15
 77
    0
 78
    0
 98
    0
  0
HATCH
  5
C3
100
AcDbEntity
  8
decor
  6
ByLayer
 62
  256
370
   -1
100
AcDbHatch
 10
0
 20
0
 30
0
210
0
220
0
230
1
  2
ar-b816
 70
    0
 71
    0
 91
    1
 92
    0
 93
    4
 72
    1
 10
51
 20
-1407.5
 11
0
 21
-1407.5
 72
    1
 10
0
 20
-1407.5
 11
0
 21
-1436.5
 72
    1
 10
0
 20
-1436.5
 11
51
 21
-1436.5
 72
    1
 10
51
 20
-1436.5
 11
51
 21
-1407.5
 97
    0
 75
    0
 76
    1
 52
0
 41
0.15
 77
    0
 78
    0
 98
    0
  0
HATCH
  5
C4
100
AcDbEntity
  8
decor
  6
ByLayer
 62
  256
370
   -1
100
AcDbHatch
 10
0
 20
0
 30
0
210
0
220
0
230
1
  2
ar-b816
 70
    0
 71
    0
 91
    1
 92
    0
 93
    4
 72
    1
 10
37
 20
-1362.5
 11
0
 21
-1362.5
 72
    1
 10
0
 20
-1362.5
 11
0
 21
-1391.5
 72
    1
 10
0
 20
-1391.5
 11
37
 21
-1391.5
 72
    1
 10
37
 20
-1391.5
 11
37
 21
-1362.5
 97
    0
 75
    0
 76
    1
 52
0
 41
0.15
 77
    0
 78
    0
 98
    0
  0
HATCH
  5
C5
100
AcDbEntity
  8
decor
  6
ByLayer
 62
  256
370
   -1
100
AcDbHatch
 10
0
 20
0
 30
0
210
0
220
0
230
1
  2
ar-b816
 70
    0
 71
    0
 91
    1
 92
    0
 93
    4
 72
    1
 10
0
 20
-1301.5
 11
37
 21
-1301.5
 72
    1
 10
37
 20
-1301.5
 11
37
 21
-1272.5
 72
    1
 10
37
 20
-1272.5
 11
0
 21
-1272.5
 72
    1
 10
0
 20
-1272.5
 11
0
 21
-1301.5
 97
    0
 75
    0
 76
    1
 52
0
 41
0.15
 77
    0
 78
    0
 98
    0
  0
HATCH
  5
C6
100
AcDbEntity
  8
decor
  6
ByLayer
 62
  256
370
   -1
100
AcDbHatch
 10
0
 20
0
 30
0
210
0
220
0
230
1
  2
ar-b816
 70
    0
 71
    0
 91
    1
 92
    0
 93
    4
 72
    1
 10
0
 20
-1346.5
 11
51
 21
-1346.5
 72
    1
 10
51
 20
-1346.5
 11
51
 21
-1317.5
 72
    1
 10
51
 20
-1317.5
 11
0
 21
-1317.5
 72
    1
 10
0
 20
-1317.5
 11
0
 21
-1346.5
 97
    0
 75
    0
 76
    1
 52
0
 41
0.15
 77
    0
 78
    0
 98
    0
  0
HATCH
  5
C7
100
AcDbEntity
  8
decor
  6
ByLayer
 62
  256
370
   -1
100
AcDbHatch
 10
0
 20
0
 30
0
210
0
220
0
230
1
  2
ar-b816
 70
    0
 71
    0
 91
    1
 92
    0
 93
    4
 72
    1
 10
0
 20
-1211.5
 11
37
 21
-1211.5
 72
    1
 10
37
 20
-1211.5
 11
37
 21
-1182.5
 72
    1
 10
37
 20
-1182.5
 11
0
 21
-1182.5
 72
    1
 10
0
 20
-1182.5
 11
0
 21
-1211.5
 97
    0
 75
    0
 76
    1
 52
0
 41
0.15
 77
    0
 78
    0
 98
    0
  0
HATCH
  5
C8
100
AcDbEntity
  8
decor
  6
ByLayer
 62
  256
370
   -1
100
AcDbHatch
 10
0
 20
0
 30
0
210
0
220
0
230
1
  2
ar-b816
 70
    0
 71
    0
 91
    1
 92
    0
 93
    4
 72
    1
 10
0
 20
-1256.5
 11
51
 21
-1256.5
 72
    1
 10
51
 20
-1256.5
 11
51
 21
-1227.5
 72
    1
 10
51
 20
-1227.5
 11
0
 21
-1227.5
 72
    1
 10
0
 20
-1227.5
 11
0
 21
-1256.5
 97
    0
 75
    0
 76
    1
 52
0
 41
0.15
 77
    0
 78
    0
 98
    0
  0
HATCH
  5
C9
100
AcDbEntity
  8
decor
  6
ByLayer
 62
  256
370
   -1
100
AcDbHatch
 10
0
 20
0
 30
0
210
0
220
0
230
1
  2
ar-b816
 70
    0
 71
    0
 91
    1
 92
    0
 93
    4
 72
    1
 10
0
 20
-1121.5
 11
37
 21
-1121.5
 72
    1
 10
37
 20
-1121.5
 11
37
 21
-1092.5
 72
    1
 10
37
 20
-1092.5
 11
0
 21
-1092.5
 72
    1
 10
0
 20
-1092.5
 11
0
 21
-1121.5
 97
    0
 75
    0
 76
    1
 52
0
 41
0.15
 77
    0
 78
    0
 98
    0
  0
HATCH
  5
CA
100
AcDbEntity
  8
decor
  6
ByLayer
 62
  256
370
   -1
100
AcDbHatch
 10
0
 20
0
 30
0
210
0
220
0
230
1
  2
ar-b816
 70
    0
 71
    0
 91
    1
 92
    0
 93
    4
 72
    1
 10
0
 20
-1166.5
 11
51
 21
-1166.5
 72
    1
 10
51
 20
-1166.5
 11
51
 21
-1137.5
 72
    1
 10
51
 20
-1137.5
 11
0
 21
-1137.5
 72
    1
 10
0
 20
-1137.5
 11
0
 21
-1166.5
 97
    0
 75
    0
 76
    1
 52
0
 41
0.15
 77
    0
 78
    0
 98
    0
  0
HATCH
  5
CB
100
AcDbEntity
  8
decor
  6
ByLayer
 62
  256
370
   -1
100
AcDbHatch
 10
0
 20
0
 30
0
210
0
220
0
230
1
  2
ar-b816
 70
    0
 71
    0
 91
    1
 92
    0
 93
    4
 72
    1
 10
0
 20
-1031.5
 11
37
 21
-1031.5
 72
    1
 10
37
 20
-1031.5
 11
37
 21
-1002.5
 72
    1
 10
37
 20
-1002.5
 11
0
 21
-1002.5
 72
    1
 10
0
 20
-1002.5
 11
0
 21
-1031.5
 97
    0
 75
    0
 76
    1
 52
0
 41
0.15
 77
    0
 78
    0
 98
    0
  0
HATCH
  5
CC
100
AcDbEntity
  8
decor
  6
ByLayer
 62
  256
370
   -1
100
AcDbHatch
 10
0
 20
0
 30
0
210
0
220
0
230
1
  2
ar-b816
 70
    0
 71
    0
 91
    1
 92
    0
 93
    4
 72
    1
 10
0
 20
-1076.5
 11
51
 21
-1076.5
 72
    1
 10
51
 20
-1076.5
 11
51
 21
-1047.5
 72
    1
 10
51
 20
-1047.5
 11
0
 21
-1047.5
 72
    1
 10
0
 20
-1047.5
 11
0
 21
-1076.5
 97
    0
 75
    0
 76
    1
 52
0
 41
0.15
 77
    0
 78
    0
 98
    0
  0
HATCH
  5
CD
100
AcDbEntity
  8
decor
  6
ByLayer
 62
  256
370
   -1
100
AcDbHatch
 10
0
 20
0
 30
0
210
0
220
0
230
1
  2
ar-b816
 70
    0
 71
    0
 91
    1
 92
    0
 93
    4
 72
    1
 10
0
 20
-941.5
 11
37
 21
-941.5
 72
    1
 10
37
 20
-941.5
 11
37
 21
-912.5
 72
    1
 10
37
 20
-912.5
 11
0
 21
-912.5
 72
    1
 10
0
 20
-912.5
 11
0
 21
-941.5
 97
    0
 75
    0
 76
    1
 52
0
 41
0.15
 77
    0
 78
    0
 98
    0
  0
HATCH
  5
CE
100
AcDbEntity
  8
decor
  6
ByLayer
 62
  256
370
   -1
100
AcDbHatch
 10
0
 20
0
 30
0
210
0
220
0
230
1
  2
ar-b816
 70
    0
 71
    0
 91
    1
 92
    0
 93
    4
 72
    1
 10
0
 20
-986.5
 11
51
 21
-986.5
 72
    1
 10
51
 20
-986.5
 11
51
 21
-957.5
 72
    1
 10
51
 20
-957.5
 11
0
 21
-957.5
 72
    1
 10
0
 20
-957.5
 11
0
 21
-986.5
 97
    0
 75
    0
 76
    1
 52
0
 41
0.15
 77
    0
 78
    0
 98
    0
  0
HATCH
  5
CF
100
AcDbEntity
  8
decor
  6
ByLayer
 62
  256
370
   -1
100
AcDbHatch
 10
0
 20
0
 30
0
210
0
220
0
230
1
  2
ar-b816
 70
    0
 71
    0
 91
    1
 92
    0
 93
    4
 72
    1
 10
0
 20
-896.5
 11
51
 21
-896.5
 72
    1
 10
51
 20
-896.5
 11
51
 21
-867.5
 72
    1
 10
51
 20
-867.5
 11
0
 21
-867.5
 72
    1
 10
0
 20
-867.5
 11
0
 21
-896.5
 97
    0
 75
    0
 76
    1
 52
0
 41
0.15
 77
    0
 78
    0
 98
    0
  0
HATCH
  5
D0
100
AcDbEntity
  8
decor
  6
ByLayer
 62
  256
370
   -1
100
AcDbHatch
 10
0
 20
0
 30
0
210
0
220
0
230
1
  2
ar-b816
 70
    0
 71
    0
 91
    1
 92
    0
 93
    4
 72
    1
 10
2501
 20
-912.4996
 11
2552
 21
-912.4996
 72
    1
 10
2552
 20
-912.4996
 11
2552
 21
-941.4996
 72
    1
 10
2552
 20
-941.4996
 11
2501
 21
-941.4996
 72
    1
 10
2501
 20
-941.4996
 11
2501
 21
-912.4996
 97
    0
 75
    0
 76
    1
 52
3.141592653589793
 41
0.15
 77
    0
 78
    0
 98
    0
  0
HATCH
  5
D1
100
AcDbEntity
  8
decor
  6
ByLayer
 62
  256
370
   -1
100
AcDbHatch
 10
0
 20
0
 30
0
210
0
220
0
230
1
  2
ar-b816
 70
    0
 71
    0
 91
    1
 92
    0
 93
    4
 72
    1
 10
2515
 20
-867.4996
 11
2552
 21
-867.4996
 72
    1
 10
2552
 20
-867.4996
 11
2552
 21
-896.4996
 72
    1
 10
2552
 20
-896.4996
 11
2515
 21
-896.4996
 72
    1
 10
2515
 20
-896.4996
 11
2515
 21
-867.4996
 97
    0
 75
    0
 76
    1
 52
3.141592653589793
 41
0.15
 77
    0
 78
    0
 98
    0
  0
HATCH
  5
D2
100
AcDbEntity
  8
decor
  6
ByLayer
 62
  256
370
   -1
100
AcDbHatch
 10
0
 20
0
 30
0
210
0
220
0
230
1
  2
ar-b816
 70
    0
 71
    0
 91
    1
 92
    0
 93
    4
 72
    1
 10
2501
 20
-1002.4996
 11
2552
 21
-1002.4996
 72
    1
 10
2552
 20
-1002.4996
 11
2552
 21
-1031.4996
 72
    1
 10
2552
 20
-1031.4996
 11
2501
 21
-1031.4996
 72
    1
 10
2501
 20
-1031.4996
 11
2501
 21
-1002.4996
 97
    0
 75
    0
 76
    1
 52
3.141592653589793
 41
0.15
 77
    0
 78
    0
 98
    0
  0
HATCH
  5
D3
100
AcDbEntity
  8
decor
  6
ByLayer
 62
  256
370
   -1
100
AcDbHatch
 10
0
 20
0
 30
0
210
0
220
0
230
1
  2
ar-b816
 70
    0
 71
    0
 91
    1
 92
    0
 93
    4
 72
    1
 10
2515
 20
-957.4996
 11
2552
 21
-957.4996
 72
    1
 10
2552
 20
-957.4996
 11
2552
 21
-986.4996
 72
    1
 10
2552
 20
-986.4996
 11
2515
 21
-986.4996
 72
    1
 10
2515
 20
-986.4996
 11
2515
 21
-957.4996
 97
    0
 75
    0
 76
    1
 52
3.141592653589793
 41
0.15
 77
    0
 78
    0
 98
    0
  0
HATCH
  5
D4
100
AcDbEntity
  8
decor
  6
ByLayer
 62
  256
370
   -1
100
AcDbHatch
 10
0
 20
0
 30
0
210
0
220
0
230
1
  2
ar-b816
 70
    0
 71
    0
 91
    1
 92
    0
 93
    4
 72
    1
 10
2501
 20
-1092.4996
 11
2552
 21
-1092.4996
 72
    1
 10
2552
 20
-1092.4996
 11
2552
 21
-1121.4996
 72
    1
 10
2552
 20
-1121.4996
 11
2501
 21
-1121.4996
 72
    1
 10
2501
 20
-1121.4996
 11
2501
 21
-1092.4996
 97
    0
 75
    0
 76
    1
 52
3.141592653589793
 41
0.15
 77
    0
 78
    0
 98
    0
  0
HATCH
  5
D5
100
AcDbEntity
  8
decor
  6
ByLayer
 62
  256
370
   -1
100
AcDbHatch
 10
0
 20
0
 30
0
210
0
220
0
230
1
  2
ar-b816
 70
    0
 71
    0
 91
    1
 92
    0
 93
    4
 72
    1
 10
2515
 20
-1047.4996
 11
2552
 21
-1047.4996
 72
    1
 10
2552
 20
-1047.4996
 11
2552
 21
-1076.4996
 72
    1
 10
2552
 20
-1076.4996
 11
2515
 21
-1076.4996
 72
    1
 10
2515
 20
-1076.4996
 11
2515
 21
-1047.4996
 97
    0
 75
    0
 76
    1
 52
3.141592653589793
 41
0.15
 77
    0
 78
    0
 98
    0
  0
HATCH
  5
D6
100
AcDbEntity
  8
decor
  6
ByLayer
 62
  256
370
   -1
100
AcDbHatch
 10
0
 20
0
 30
0
210
0
220
0
230
1
  2
ar-b816
 70
    0
 71
    0
 91
    1
 92
    0
 93
    4
 72
    1
 10
2501
 20
-1182.4996
 11
2552
 21
-1182.4996
 72
    1
 10
2552
 20
-1182.4996
 11
2552
 21
-1211.4996
 72
    1
 10
2552
 20
-1211.4996
 11
2501
 21
-1211.4996
 72
    1
 10
2501
 20
-1211.4996
 11
2501
 21
-1182.4996
 97
    0
 75
    0
 76
    1
 52
3.141592653589793
 41
0.15
 77
    0
 78
    0
 98
    0
  0
HATCH
  5
D7
100
AcDbEntity
  8
decor
  6
ByLayer
 62
  256
370
   -1
100
AcDbHatch
 10
0
 20
0
 30
0
210
0
220
0
230
1
  2
ar-b816
 70
    0
 71
    0
 91
    1
 92
    0
 93
    4
 72
    1
 10
2515
 20
-1137.4996
 11
2552
 21
-1137.4996
 72
    1
 10
2552
 20
-1137.4996
 11
2552
 21
-1166.4996
 72
    1
 10
2552
 20
-1166.4996
 11
2515
 21
-1166.4996
 72
    1
 10
2515
 20
-1166.4996
 11
2515
 21
-1137.4996
 97
    0
 75
    0
 76
    1
 52
3.141592653589793
 41
0.15
 77
    0
 78
    0
 98
    0
  0
HATCH
  5
D8
100
AcDbEntity
  8
decor
  6
ByLayer
 62
  256
370
   -1
100
AcDbHatch
 10
0
 20
0
 30
0
210
0
220
0
230
1
  2
ar-b816
 70
    0
 71
    0
 91
    1
 92
    0
 93
    4
 72
    1
 10
2501
 20
-1272.4996
 11
2552
 21
-1272.4996
 72
    1
 10
2552
 20
-1272.4996
 11
2552
 21
-1301.4996
 72
    1
 10
2552
 20
-1301.4996
 11
2501
 21
-1301.4996
 72
    1
 10
2501
 20
-1301.4996
 11
2501
 21
-1272.4996
 97
    0
 75
    0
 76
    1
 52
3.141592653589793
 41
0.15
 77
    0
 78
    0
 98
    0
  0
HATCH
  5
D9
100
AcDbEntity
  8
decor
  6
ByLayer
 62
  256
370
   -1
100
AcDbHatch
 10
0
 20
0
 30
0
210
0
220
0
230
1
  2
ar-b816
 70
    0
 71
    0
 91
    1
 92
    0
 93
    4
 72
    1
 10
2515
 20
-1227.4996
 11
2552
 21
-1227.4996
 72
    1
 10
2552
 20
-1227.4996
 11
2552
 21
-1256.4996
 72
    1
 10
2552
 20
-1256.4996
 11
2515
 21
-1256.4996
 72
    1
 10
2515
 20
-1256.4996
 11
2515
 21
-1227.4996
 97
    0
 75
    0
 76
    1
 52
3.141592653589793
 41
0.15
 77
    0
 78
    0
 98
    0
  0
HATCH
  5
DA
100
AcDbEntity
  8
decor
  6
ByLayer
 62
  256
370
   -1
100
AcDbHatch
 10
0
 20
0
 30
0
210
0
220
0
230
1
  2
ar-b816
 70
    0
 71
    0
 91
    1
 92
    0
 93
    4
 72
    1
 10
2501
 20
-1362.4996
 11
2552
 21
-1362.4996
 72
    1
 10
2552
 20
-1362.4996
 11
2552
 21
-1391.4996
 72
    1
 10
2552
 20
-1391.4996
 11
2501
 21
-1391.4996
 72
    1
 10
2501
 20
-1391.4996
 11
2501
 21
-1362.4996
 97
    0
 75
    0
 76
    1
 52
3.141592653589793
 41
0.15
 77
    0
 78
    0
 98
    0
  0
HATCH
  5
DB
100
AcDbEntity
  8
decor
  6
ByLayer
 62
  256
370
   -1
100
AcDbHatch
 10
0
 20
0
 30
0
210
0
220
0
230
1
  2
ar-b816
 70
    0
 71
    0
 91
    1
 92
    0
 93
    4
 72
    1
 10
2515
 20
-1317.4996
 11
2552
 21
-1317.4996
 72
    1
 10
2552
 20
-1317.4996
 11
2552
 21
-1346.4996
 72
    1
 10
2552
 20
-1346.4996
 11
2515
 21
-1346.4996
 72
    1
 10
2515
 20
-1346.4996
 11
2515
 21
-1317.4996
 97
    0
 75
    0
 76
    1
 52
3.141592653589793
 41
0.15
 77
    0
 78
    0
 98
    0
  0
HATCH
  5
DC
100
AcDbEntity
  8
decor
  6
ByLayer
 62
  256
370
   -1
100
AcDbHatch
 10
0
 20
0
 30
0
210
0
220
0
230
1
  2
ar-b816
 70
    0
 71
    0
 91
    1
 92
    0
 93
    4
 72
    1
 10
2552
 20
-1436.4996
 11
2515
 21
-1436.4996
 72
    1
 10
2515
 20
-1436.4996
 11
2515
 21
-1407.4996
 72
    1
 10
2515
 20
-1407.4996
 11
2552
 21
-1407.4996
 72
    1
 10
2552
 20
-1407.4996
 11
2552
 21
-1436.4996
 97
    0
 75
    0
 76
    1
 52
3.141592653589793
 41
0.15
 77
    0
 78
    0
 98
    0
  0
HATCH
  5
DD
100
AcDbEntity
  8
decor
  6
ByLayer
 62
  256
370
   -1
100
AcDbHatch
 10
0
 20
0
 30
0
210
0
220
0
230
1
  2
ar-b816
 70
    0
 71
    0
 91
    1
 92
    0
 93
    4
 72
    1
 10
1537
 20
-1407.4996
 11
1500
 21
-1407.4996
 72
    1
 10
1500
 20
-1407.4996
 11
1500
 21
-1436.4996
 72
    1
 10
1500
 20
-1436.4996
 11
1537
 21
-1436.4996
 72
    1
 10
1537
 20
-1436.4996
 11
1537
 21
-1407.4996
 97
    0
 75
    0
 76
    1
 52
6.283185307179586
 41
0.15
 77
    0
 78
    0
 98
    0
  0
HATCH
  5
DE
100
AcDbEntity
  8
decor
  6
ByLayer
 62
  256
370
   -1
100
AcDbHatch
 10
0
 20
0
 30
0
210
0
220
0
230
1
  2
ar-b816
 70
    0
 71
    0
 91
    1
 92
    0
 93
    4
 72
    1
 10
1500
 20
-1346.4996
 11
1537
 21
-1346.4996
 72
    1
 10
1537
 20
-1346.4996
 11
1537
 21
-1317.4996
 72
    1
 10
1537
 20
-1317.4996
 11
1500
 21
-1317.4996
 72
    1
 10
1500
 20
-1317.4996
 11
1500
 21
-1346.4996
 97
    0
 75
    0
 76
    1
 52
6.283185307179586
 41
0.15
 77
    0
 78
    0
 98
    0
  0
HATCH
  5
DF
100
AcDbEntity
  8
decor
  6
ByLayer
 62
  256
370
   -1
100
AcDbHatch
 10
0
 20
0
 30
0
210
0
220
0
230
1
  2
ar-b816
 70
    0
 71
    0
 91
    1
 92
    0
 93
    4
 72
    1
 10
1500
 20
-1391.4996
 11
1551
 21
-1391.4996
 72
    1
 10
1551
 20
-1391.4996
 11
1551
 21
-1362.4996
 72
    1
 10
1551
 20
-1362.4996
 11
1500
 21
-1362.4996
 72
    1
 10
1500
 20
-1362.4996
 11
1500
 21
-1391.4996
 97
    0
 75
    0
 76
    1
 52
6.283185307179586
 41
0.15
 77
    0
 78
    0
 98
    0
  0
HATCH
  5
E0
100
AcDbEntity
  8
decor
  6
ByLayer
 62
  256
370
   -1
100
AcDbHatch
 10
0
 20
0
 30
0
210
0
220
0
230
1
  2
ar-b816
 70
    0
 71
    0
 91
    1
 92
    0
 93
    4
 72
    1
 10
1500
 20
-1256.4996
 11
1537
 21
-1256.4996
 72
    1
 10
1537
 20
-1256.4996
 11
1537
 21
-1227.4996
 72
    1
 10
1537
 20
-1227.4996
 11
1500
 21
-1227.4996
 72
    1
 10
1500
 20
-1227.4996
 11
1500
 21
-1256.4996
 97
    0
 75
    0
 76
    1
 52
6.283185307179586
 41
0.15
 77
    0
 78
    0
 98
    0
  0
HATCH
  5
E1
100
AcDbEntity
  8
decor
  6
ByLayer
 62
  256
370
   -1
100
AcDbHatch
 10
0
 20
0
 30
0
210
0
220
0
230
1
  2
ar-b816
 70
    0
 71
    0
 91
    1
 92
    0
 93
    4
 72
    1
 10
1500
 20
-1301.4996
 11
1551
 21
-1301.4996
 72
    1
 10
1551
 20
-1301.4996
 11
1551
 21
-1272.4996
 72
    1
 10
1551
 20
-1272.4996
 11
1500
 21
-1272.4996
 72
    1
 10
1500
 20
-1272.4996
 11
1500
 21
-1301.4996
 97
    0
 75
    0
 76
    1
 52
6.283185307179586
 41
0.15
 77
    0
 78
    0
 98
    0
  0
HATCH
  5
E2
100
AcDbEntity
  8
decor
  6
ByLayer
 62
  256
370
   -1
100
AcDbHatch
 10
0
 20
0
 30
0
210
0
220
0
230
1
  2
ar-b816
 70
    0
 71
    0
 91
    1
 92
    0
 93
    4
 72
    1
 10
1500
 20
-1166.4996
 11
1537
 21
-1166.4996
 72
    1
 10
1537
 20
-1166.4996
 11
1537
 21
-1137.4996
 72
    1
 10
1537
 20
-1137.4996
 11
1500
 21
-1137.4996
 72
    1
 10
1500
 20
-1137.4996
 11
1500
 21
-1166.4996
 97
    0
 75
    0
 76
    1
 52
6.283185307179586
 41
0.15
 77
    0
 78
    0
 98
    0
  0
HATCH
  5
E3
100
AcDbEntity
  8
decor
  6
ByLayer
 62
  256
370
   -1
100
AcDbHatch
 10
0
 20
0
 30
0
210
0
220
0
230
1
  2
ar-b816
 70
    0
 71
    0
 91
    1
 92
    0
 93
    4
 72
    1
 10
1500
 20
-1211.4996
 11
1551
 21
-1211.4996
 72
    1
 10
1551
 20
-1211.4996
 11
1551
 21
-1182.4996
 72
    1
 10
1551
 20
-1182.4996
 11
1500
 21
-1182.4996
 72
    1
 10
1500
 20
-1182.4996
 11
1500
 21
-1211.4996
 97
    0
 75
    0
 76
    1
 52
6.283185307179586
 41
0.15
 77
    0
 78
    0
 98
    0
  0
HATCH
  5
E4
100
AcDbEntity
  8
decor
  6
ByLayer
 62
  256
370
   -1
100
AcDbHatch
 10
0
 20
0
 30
0
210
0
220
0
230
1
  2
ar-b816
 70
    0
 71
    0
 91
    1
 92
    0
 93
    4
 72
    1
 10
1500
 20
-1076.4996
 11
1537
 21
-1076.4996
 72
    1
 10
1537
 20
-1076.4996
 11
1537
 21
-1047.4996
 72
    1
 10
1537
 20
-1047.4996
 11
1500
 21
-1047.4996
 72
    1
 10
1500
 20
-1047.4996
 11
1500
 21
-1076.4996
 97
    0
 75
    0
 76
    1
 52
6.283185307179586
 41
0.15
 77
    0
 78
    0
 98
    0
  0
HATCH
  5
E5
100
AcDbEntity
  8
decor
  6
ByLayer
 62
  256
370
   -1
100
AcDbHatch
 10
0
 20
0
 30
0
210
0
220
0
230
1
  2
ar-b816
 70
    0
 71
    0
 91
    1
 92
    0
 93
    4
 72
    1
 10
1500
 20
-1121.4996
 11
1551
 21
-1121.4996
 72
    1
 10
1551
 20
-1121.4996
 11
1551
 21
-1092.4996
 72
    1
 10
1551
 20
-1092.4996
 11
1500
 21
-1092.4996
 72
    1
 10
1500
 20
-1092.4996
 11
1500
 21
-1121.4996
 97
    0
 75
    0
 76
    1
 52
6.283185307179586
 41
0.15
 77
    0
 78
    0
 98
    0
  0
HATCH
  5
E6
100
AcDbEntity
  8
decor
  6
ByLayer
 62
  256
370
   -1
100
AcDbHatch
 10
0
 20
0
 30
0
210
0
220
0
230
1
  2
ar-b816
 70
    0
 71
    0
 91
    1
 92
    0
 93
    4
 72
    1
 10
1500
 20
-986.4996
 11
1537
 21
-986.4996
 72
    1
 10
1537
 20
-986.4996
 11
1537
 21
-957.4996
 72
    1
 10
1537
 20
-957.4996
 11
1500
 21
-957.4996
 72
    1
 10
1500
 20
-957.4996
 11
1500
 21
-986.4996
 97
    0
 75
    0
 76
    1
 52
6.283185307179586
 41
0.15
 77
    0
 78
    0
 98
    0
  0
HATCH
  5
E7
100
AcDbEntity
  8
decor
  6
ByLayer
 62
  256
370
   -1
100
AcDbHatch
 10
0
 20
0
 30
0
210
0
220
0
230
1
  2
ar-b816
 70
    0
 71
    0
 91
    1
 92
    0
 93
    4
 72
    1
 10
1500
 20
-1031.4996
 11
1551
 21
-1031.4996
 72
    1
 10
1551
 20
-1031.4996
 11
1551
 21
-1002.4996
 72
    1
 10
1551
 20
-1002.4996
 11
1500
 21
-1002.4996
 72
    1
 10
1500
 20
-1002.4996
 11
1500
 21
-1031.4996
 97
    0
 75
    0
 76
    1
 52
6.283185307179586
 41
0.15
 77
    0
 78
    0
 98
    0
  0
HATCH
  5
E8
100
AcDbEntity
  8
decor
  6
ByLayer
 62
  256
370
   -1
100
AcDbHatch
 10
0
 20
0
 30
0
210
0
220
0
230
1
  2
ar-b816
 70
    0
 71
    0
 91
    1
 92
    0
 93
    4
 72
    1
 10
1500
 20
-896.4996
 11
1537
 21
-896.4996
 72
    1
 10
1537
 20
-896.4996
 11
1537
 21
-867.4996
 72
    1
 10
1537
 20
-867.4996
 11
1500
 21
-867.4996
 72
    1
 10
1500
 20
-867.4996
 11
1500
 21
-896.4996
 97
    0
 75
    0
 76
    1
 52
6.283185307179586
 41
0.15
 77
    0
 78
    0
 98
    0
  0
HATCH
  5
E9
100
AcDbEntity
  8
decor
  6
ByLayer
 62
  256
370
   -1
100
AcDbHatch
 10
0
 20
0
 30
0
210
0
220
0
230
1
  2
ar-b816
 70
    0
 71
    0
 91
    1
 92
    0
 93
    4
 72
    1
 10
1500
 20
-941.4996
 11
1551
 21
-941.4996
 72
    1
 10
1551
 20
-941.4996
 11
1551
 21
-912.4996
 72
    1
 10
1551
 20
-912.4996
 11
1500
 21
-912.4996
 72
    1
 10
1500
 20
-912.4996
 11
1500
 21
-941.4996
 97
    0
 75
    0
 76
    1
 52
6.283185307179586
 41
0.15
 77
    0
 78
    0
 98
    0
  0
HATCH
  5
EA
100
AcDbEntity
  8
decor
  6
ByLayer
 62
  256
370
   -1
100
AcDbHatch
 10
0
 20
0
 30
0
210
0
220
0
230
1
  2
ar-b816
 70
    0
 71
    0
 91
    1
 92
    0
 93
    4
 72
    1
 10
2501
 20
587.5
 11
2552
 21
587.5
 72
    1
 10
2552
 20
587.5
 11
2552
 21
558.5
 72
    1
 10
2552
 20
558.5
 11
2501
 21
558.5
 72
    1
 10
2501
 20
558.5
 11
2501
 21
587.5
 97
    0
 75
    0
 76
    1
 52
3.141592653589793
 41
0.15
 77
    0
 78
    0
 98
    0
  0
HATCH
  5
EB
100
AcDbEntity
  8
decor
  6
ByLayer
 62
  256
370
   -1
100
AcDbHatch
 10
0
 20
0
 30
0
210
0
220
0
230
1
  2
ar-b816
 70
    0
 71
    0
 91
    1
 92
    0
 93
    4
 72
    1
 10
2515
 20
632.5
 11
2552
 21
632.5
 72
    1
 10
2552
 20
632.5
 11
2552
 21
603.5
 72
    1
 10
2552
 20
603.5
 11
2515
 21
603.5
 72
    1
 10
2515
 20
603.5
 11
2515
 21
632.5
 97
    0
 75
    0
 76
    1
 52
3.141592653589793
 41
0.15
 77
    0
 78
    0
 98
    0
  0
HATCH
  5
EC
100
AcDbEntity
  8
decor
  6
ByLayer
 62
  256
370
   -1
100
AcDbHatch
 10
0
 20
0
 30
0
210
0
220
0
230
1
  2
ar-b816
 70
    0
 71
    0
 91
    1
 92
    0
 93
    4
 72
    1
 10
2501
 20
497.5
 11
2552
 21
497.5
 72
    1
 10
2552
 20
497.5
 11
2552
 21
468.5
 72
    1
 10
2552
 20
468.5
 11
2501
 21
468.5
 72
    1
 10
2501
 20
468.5
 11
2501
 21
497.5
 97
    0
 75
    0
 76
    1
 52
3.141592653589793
 41
0.15
 77
    0
 78
    0
 98
    0
  0
HATCH
  5
ED
100
AcDbEntity
  8
decor
  6
ByLayer
 62
  256
370
   -1
100
AcDbHatch
 10
0
 20
0
 30
0
210
0
220
0
230
1
  2
ar-b816
 70
    0
 71
    0
 91
    1
 92
    0
 93
    4
 72
    1
 10
2515
 20
542.5
 11
2552
 21
542.5
 72
    1
 10
2552
 20
542.5
 11
2552
 21
513.5
 72
    1
 10
2552
 20
513.5
 11
2515
 21
513.5
 72
    1
 10
2515
 20
513.5
 11
2515
 21
542.5
 97
    0
 75
    0
 76
    1
 52
3.141592653589793
 41
0.15
 77
    0
 78
    0
 98
    0
  0
HATCH
  5
EE
100
AcDbEntity
  8
decor
  6
ByLayer
 62
  256
370
   -1
100
AcDbHatch
 10
0
 20
0
 30
0
210
0
220
0
230
1
  2
ar-b816
 70
    0
 71
    0
 91
    1
 92
    0
 93
    4
 72
    1
 10
2501
 20
407.5
 11
2552
 21
407.5
 72
    1
 10
2552
 20
407.5
 11
2552
 21
378.5
 72
    1
 10
2552
 20
378.5
 11
2501
 21
378.5
 72
    1
 10
2501
 20
378.5
 11
2501
 21
407.5
 97
    0
 75
    0
 76
    1
 52
3.141592653589793
 41
0.15
 77
    0
 78
    0
 98
    0
  0
HATCH
  5
EF
100
AcDbEntity
  8
decor
  6
ByLayer
 62
  256
370
   -1
100
AcDbHatch
 10
0
 20
0
 30
0
210
0
220
0
230
1
  2
ar-b816
 70
    0
 71
    0
 91
    1
 92
    0
 93
    4
 72
    1
 10
2515
 20
452.5
 11
2552
 21
452.5
 72
    1
 10
2552
 20
452.5
 11
2552
 21
423.5
 72
    1
 10
2552
 20
423.5
 11
2515
 21
423.5
 72
    1
 10
2515
 20
423.5
 11
2515
 21
452.5
 97
    0
 75
    0
 76
    1
 52
3.141592653589793
 41
0.15
 77
    0
 78
    0
 98
    0
  0
HATCH
  5
F0
100
AcDbEntity
  8
decor
  6
ByLayer
 62
  256
370
   -1
100
AcDbHatch
 10
0
 20
0
 30
0
210
0
220
0
230
1
  2
ar-b816
 70
    0
 71
    0
 91
    1
 92
    0
 93
    4
 72
    1
 10
2501
 20
317.5
 11
2552
 21
317.5
 72
    1
 10
2552
 20
317.5
 11
2552
 21
288.5
 72
    1
 10
2552
 20
288.5
 11
2501
 21
288.5
 72
    1
 10
2501
 20
288.5
 11
2501
 21
317.5
 97
    0
 75
    0
 76
    1
 52
3.141592653589793
 41
0.15
 77
    0
 78
    0
 98
    0
  0
HATCH
  5
F1
100
AcDbEntity
  8
decor
  6
ByLayer
 62
  256
370
   -1
100
AcDbHatch
 10
0
 20
0
 30
0
210
0
220
0
230
1
  2
ar-b816
 70
    0
 71
    0
 91
    1
 92
    0
 93
    4
 72
    1
 10
2515
 20
362.5
 11
2552
 21
362.5
 72
    1
 10
2552
 20
362.5
 11
2552
 21
333.5
 72
    1
 10
2552
 20
333.5
 11
2515
 21
333.5
 72
    1
 10
2515
 20
333.5
 11
2515
 21
362.5
 97
    0
 75
    0
 76
    1
 52
3.141592653589793
 41
0.15
 77
    0
 78
    0
 98
    0
  0
HATCH
  5
F2
100
AcDbEntity
  8
decor
  6
ByLayer
 62
  256
370
   -1
100
AcDbHatch
 10
0
 20
0
 30
0
210
0
220
0
230
1
  2
ar-b816
 70
    0
 71
    0
 91
    1
 92
    0
 93
    4
 72
    1
 10
2501
 20
227.5
 11
2552
 21
227.5
 72
    1
 10
2552
 20
227.5
 11
2552
 21
198.5
 72
    1
 10
2552
 20
198.5
 11
2501
 21
198.5
 72
    1
 10
2501
 20
198.5
 11
2501
 21
227.5
 97
    0
 75
    0
 76
    1
 52
3.141592653589793
 41
0.15
 77
    0
 78
    0
 98
    0
  0
HATCH
  5
F3
100
AcDbEntity
  8
decor
  6
ByLayer
 62
  256
370
   -1
100
AcDbHatch
 10
0
 20
0
 30
0
210
0
220
0
230
1
  2
ar-b816
 70
    0
 71
    0
 91
    1
 92
    0
 93
    4
 72
    1
 10
2515
 20
272.5
 11
2552
 21
272.5
 72
    1
 10
2552
 20
272.5
 11
2552
 21
243.5
 72
    1
 10
2552
 20
243.5
 11
2515
 21
243.5
 72
    1
 10
2515
 20
243.5
 11
2515
 21
272.5
 97
    0
 75
    0
 76
    1
 52
3.141592653589793
 41
0.15
 77
    0
 78
    0
 98
    0
  0
HATCH
  5
F4
100
AcDbEntity
  8
decor
  6
ByLayer
 62
  256
370
   -1
100
AcDbHatch
 10
0
 20
0
 30
0
210
0
220
0
230
1
  2
ar-b816
 70
    0
 71
    0
 91
    1
 92
    0
 93
    4
 72
    1
 10
2501
 20
137.5
 11
2552
 21
137.5
 72
    1
 10
2552
 20
137.5
 11
2552
 21
108.5
 72
    1
 10
2552
 20
108.5
 11
2501
 21
108.5
 72
    1
 10
2501
 20
108.5
 11
2501
 21
137.5
 97
    0
 75
    0
 76
    1
 52
3.141592653589793
 41
0.15
 77
    0
 78
    0
 98
    0
  0
HATCH
  5
F5
100
AcDbEntity
  8
decor
  6
ByLayer
 62
  256
370
   -1
100
AcDbHatch
 10
0
 20
0
 30
0
210
0
220
0
230
1
  2
ar-b816
 70
    0
 71
    0
 91
    1
 92
    0
 93
    4
 72
    1
 10
2515
 20
182.5
 11
2552
 21
182.5
 72
    1
 10
2552
 20
182.5
 11
2552
 21
153.5
 72
    1
 10
2552
 20
153.5
 11
2515
 21
153.5
 72
    1
 10
2515
 20
153.5
 11
2515
 21
182.5
 97
    0
 75
    0
 76
    1
 52
3.141592653589793
 41
0.15
 77
    0
 78
    0
 98
    0
  0
HATCH
  5
F6
100
AcDbEntity
  8
decor
  6
ByLayer
 62
  256
370
   -1
100
AcDbHatch
 10
0
 20
0
 30
0
210
0
220
0
230
1
  2
ar-b816
 70
    0
 71
    0
 91
    1
 92
    0
 93
    4
 72
    1
 10
2552
 20
63.5
 11
2515
 21
63.5
 72
    1
 10
2515
 20
63.5
 11
2515
 21
92.5
 72
    1
 10
2515
 20
92.5
 11
2552
 21
92.5
 72
    1
 10
2552
 20
92.5
 11
2552
 21
63.5
 97
    0
 75
    0
 76
    1
 52
3.141592653589793
 41
0.15
 77
    0
 78
    0
 98
    0
  0
HATCH
  5
F7
100
AcDbEntity
  8
decor
  6
ByLayer
 62
  256
370
   -1
100
AcDbHatch
 10
0
 20
0
 30
0
210
0
220
0
230
1
  2
ar-b816
 70
    0
 71
    0
 91
    1
 92
    0
 93
    4
 72
    1
 10
1537
 20
92.5
 11
1500
 21
92.5
 72
    1
 10
1500
 20
92.5
 11
1500
 21
63.5
 72
    1
 10
1500
 20
63.5
 11
1537
 21
63.5
 72
    1
 10
1537
 20
63.5
 11
1537
 21
92.5
 97
    0
 75
    0
 76
    1
 52
6.283185307179586
 41
0.15
 77
    0
 78
    0
 98
    0
  0
HATCH
  5
F8
100
AcDbEntity
  8
decor
  6
ByLayer
 62
  256
370
   -1
100
AcDbHatch
 10
0
 20
0
 30
0
210
0
220
0
230
1
  2
ar-b816
 70
    0
 71
    0
 91
    1
 92
    0
 93
    4
 72
    1
 10
1500
 20
153.5
 11
1537
 21
153.5
 72
    1
 10
1537
 20
153.5
 11
1537
 21
182.5
 72
    1
 10
1537
 20
182.5
 11
1500
 21
182.5
 72
    1
 10
1500
 20
182.5
 11
1500
 21
153.5
 97
    0
 75
    0
 76
    1
 52
6.283185307179586
 41
0.15
 77
    0
 78
    0
 98
    0
  0
HATCH
  5
F9
100
AcDbEntity
  8
decor
  6
ByLayer
 62
  256
370
   -1
100
AcDbHatch
 10
0
 20
0
 30
0
210
0
220
0
230
1
  2
ar-b816
 70
    0
 71
    0
 91
    1
 92
    0
 93
    4
 72
    1
 10
1500
 20
108.5
 11
1551
 21
108.5
 72
    1
 10
1551
 20
108.5
 11
1551
 21
137.5
 72
    1
 10
1551
 20
137.5
 11
1500
 21
137.5
 72
    1
 10
1500
 20
137.5
 11
1500
 21
108.5
 97
    0
 75
    0
 76
    1
 52
6.283185307179586
 41
0.15
 77
    0
 78
    0
 98
    0
  0
HATCH
  5
FA
100
AcDbEntity
  8
decor
  6
ByLayer
 62
  256
370
   -1
100
AcDbHatch
 10
0
 20
0
 30
0
210
0
220
0
230
1
  2
ar-b816
 70
    0
 71
    0
 91
    1
 92
    0
 93
    4
 72
    1
 10
1500
 20
243.5
 11
1537
 21
243.5
 72
    1
 10
1537
 20
243.5
 11
1537
 21
272.5
 72
    1
 10
1537
 20
272.5
 11
1500
 21
272.5
 72
    1
 10
1500
 20
272.5
 11
1500
 21
243.5
 97
    0
 75
    0
 76
    1
 52
6.283185307179586
 41
0.15
 77
    0
 78
    0
 98
    0
  0
HATCH
  5
FB
100
AcDbEntity
  8
decor
  6
ByLayer
 62
  256
370
   -1
100
AcDbHatch
 10
0
 20
0
 30
0
210
0
220
0
230
1
  2
ar-b816
 70
    0
 71
    0
 91
    1
 92
    0
 93
    4
 72
    1
 10
1500
 20
198.5
 11
1551
 21
198.5
 72
    1
 10
1551
 20
198.5
 11
1551
 21
227.5
 72
    1
 10
1551
 20
227.5
 11
1500
 21
227.5
 72
    1
 10
1500
 20
227.5
 11
1500
 21
198.5
 97
    0
 75
    0
 76
    1
 52
6.283185307179586
 41
0.15
 77
    0
 78
    0
 98
    0
  0
HATCH
  5
FC
100
AcDbEntity
  8
decor
  6
ByLayer
 62
  256
370
   -1
100
AcDbHatch
 10
0
 20
0
 30
0
210
0
220
0
230
1
  2
ar-b816
 70
    0
 71
    0
 91
    1
 92
    0
 93
    4
 72
    1
 10
1500
 20
333.5
 11
1537
 21
333.5
 72
    1
 10
1537
 20
333.5
 11
1537
 21
362.5
 72
    1
 10
1537
 20
362.5
 11
1500
 21
362.5
 72
    1
 10
1500
 20
362.5
 11
1500
 21
333.5
 97
    0
 75
    0
 76
    1
 52
6.283185307179586
 41
0.15
 77
    0
 78
    0
 98
    0
  0
HATCH
  5
FD
100
AcDbEntity
  8
decor
  6
ByLayer
 62
  256
370
   -1
100
AcDbHatch
 10
0
 20
0
 30
0
210
0
220
0
230
1
  2
ar-b816
 70
    0
 71
    0
 91
    1
 92
    0
 93
    4
 72
    1
 10
1500
 20
288.5
 11
1551
 21
288.5
 72
    1
 10
1551
 20
288.5
 11
1551
 21
317.5
 72
    1
 10
1551
 20
317.5
 11
1500
 21
317.5
 72
    1
 10
1500
 20
317.5
 11
1500
 21
288.5
 97
    0
 75
    0
 76
    1
 52
6.283185307179586
 41
0.15
 77
    0
 78
    0
 98
    0
  0
HATCH
  5
FE
100
AcDbEntity
  8
decor
  6
ByLayer
 62
  256
370
   -1
100
AcDbHatch
 10
0
 20
0
 30
0
210
0
220
0
230
1
  2
ar-b816
 70
    0
 71
    0
 91
    1
 92
    0
 93
    4
 72
    1
 10
1500
 20
423.5
 11
1537
 21
423.5
 72
    1
 10
1537
 20
423.5
 11
1537
 21
452.5
 72
    1
 10
1537
 20
452.5
 11
1500
 21
452.5
 72
    1
 10
1500
 20
452.5
 11
1500
 21
423.5
 97
    0
 75
    0
 76
    1
 52
6.283185307179586
 41
0.15
 77
    0
 78
    0
 98
    0
  0
HATCH
  5
FF
100
AcDbEntity
  8
decor
  6
ByLayer
 62
  256
370
   -1
100
AcDbHatch
 10
0
 20
0
 30
0
210
0
220
0
230
1
  2
ar-b816
 70
    0
 71
    0
 91
    1
 92
    0
 93
    4
 72
    1
 10
1500
 20
378.5
 11
1551
 21
378.5
 72
    1
 10
1551
 20
378.5
 11
1551
 21
407.5
 72
    1
 10
1551
 20
407.5
 11
1500
 21
407.5
 72
    1
 10
1500
 20
407.5
 11
1500
 21
378.5
 97
    0
 75
    0
 76
    1
 52
6.283185307179586
 41
0.15
 77
    0
 78
    0
 98
    0
  0
HATCH
  5
100
100
AcDbEntity
  8
decor
  6
ByLayer
 62
  256
370
   -1
100
AcDbHatch
 10
0
 20
0
 30
0
210
0
220
0
230
1
  2
ar-b816
 70
    0
 71
    0
 91
    1
 92
    0
 93
    4
 72
    1
 10
1500
 20
513.5
 11
1537
 21
513.5
 72
    1
 10
1537
 20
513.5
 11
1537
 21
542.5
 72
    1
 10
1537
 20
542.5
 11
1500
 21
542.5
 72
    1
 10
1500
 20
542.5
 11
1500
 21
513.5
 97
    0
 75
    0
 76
    1
 52
6.283185307179586
 41
0.15
 77
    0
 78
    0
 98
    0
  0
HATCH
  5
101
100
AcDbEntity
  8
decor
  6
ByLayer
 62
  256
370
   -1
100
AcDbHatch
 10
0
 20
0
 30
0
210
0
220
0
230
1
  2
ar-b816
 70
    0
 71
    0
 91
    1
 92
    0
 93
    4
 72
    1
 10
1500
 20
468.5
 11
1551
 21
468.5
 72
    1
 10
1551
 20
468.5
 11
1551
 21
497.5
 72
    1
 10
1551
 20
497.5
 11
1500
 21
497.5
 72
    1
 10
1500
 20
497.5
 11
1500
 21
468.5
 97
    0
 75
    0
 76
    1
 52
6.283185307179586
 41
0.15
 77
    0
 78
    0
 98
    0
  0
HATCH
  5
102
100
AcDbEntity
  8
decor
  6
ByLayer
 62
  256
370
   -1
100
AcDbHatch
 10
0
 20
0
 30
0
210
0
220
0
230
1
  2
ar-b816
 70
    0
 71
    0
 91
    1
 92
    0
 93
    4
 72
    1
 10
1500
 20
603.5
 11
1537
 21
603.5
 72
    1
 10
1537
 20
603.5
 11
1537
 21
632.5
 72
    1
 10
1537
 20
632.5
 11
1500
 21
632.5
 72
    1
 10
1500
 20
632.5
 11
1500
 21
603.5
 97
    0
 75
    0
 76
    1
 52
6.283185307179586
 41
0.15
 77
    0
 78
    0
 98
    0
  0
HATCH
  5
103
100
AcDbEntity
  8
decor
  6
ByLayer
 62
  256
370
   -1
100
AcDbHatch
 10
0
 20
0
 30
0
210
0
220
0
230
1
  2
ar-b816
 70
    0
 71
    0
 91
    1
 92
    0
 93
    4
 72
    1
 10
1500
 20
558.5
 11
1551
 21
558.5
 72
    1
 10
1551
 20
558.5
 11
1551
 21
587.5
 72
    1
 10
1551
 20
587.5
 11
1500
 21
587.5
 72
    1
 10
1500
 20
587.5
 11
1500
 21
558.5
 97
    0
 75
    0
 76
    1
 52
6.283185307179586
 41
0.15
 77
    0
 78
    0
 98
    0
  0
HATCH
  5
104
100
AcDbEntity
  8
decor
  6
ByLayer
 62
  256
370
   -1
100
AcDbHatch
 10
0
 20
0
 30
0
210
0
220
0
230
1
  2
ar-b816
 70
    0
 71
    0
 91
    1
 92
    0
 93
    4
 72
    1
 10
949
 20
92.5
 11
1000
 21
92.5
 72
    1
 10
1000
 20
92.5
 11
1000
 21
63.5
 72
    1
 10
1000
 20
63.5
 11
949
 21
63.5
 72
    1
 10
949
 20
63.5
 11
949
 21
92.5
 97
    0
 75
    0
 76
    1
 52
3.141592653589793
 41
0.15
 77
    0
 78
    0
 98
    0
  0
HATCH
  5
105
100
AcDbEntity
  8
decor
  6
ByLayer
 62
  256
370
   -1
100
AcDbHatch
 10
0
 20
0
 30
0
210
0
220
0
230
1
  2
ar-b816
 70
    0
 71
    0
 91
    1
 92
    0
 93
    4
 72
    1
 10
963
 20
137.5
 11
1000
 21
137.5
 72
    1
 10
1000
 20
137.5
 11
1000
 21
108.5
 72
    1
 10
1000
 20
108.5
 11
963
 21
108.5
 72
    1
 10
963
 20
108.5
 11
963
 21
137.5
 97
    0
 75
    0
 76
    1
 52
3.141592653589793
 41
0.15
 77
    0
 78
    0
 98
    0
  0
HATCH
  5
106
100
AcDbEntity
  8
decor
  6
ByLayer
 62
  256
370
   -1
100
AcDbHatch
 10
0
 20
0
 30
0
210
0
220
0
230
1
  2
ar-b816
 70
    0
 71
    0
 91
    1
 92
    0
 93
    4
 72
    1
 10
1000
 20
198.5
 11
963
 21
198.5
 72
    1
 10
963
 20
198.5
 11
963
 21
227.5
 72
    1
 10
963
 20
227.5
 11
1000
 21
227.5
 72
    1
 10
1000
 20
227.5
 11
1000
 21
198.5
 97
    0
 75
    0
 76
    1
 52
3.141592653589793
 41
0.15
 77
    0
 78
    0
 98
    0
  0
HATCH
  5
107
100
AcDbEntity
  8
decor
  6
ByLayer
 62
  256
370
   -1
100
AcDbHatch
 10
0
 20
0
 30
0
210
0
220
0
230
1
  2
ar-b816
 70
    0
 71
    0
 91
    1
 92
    0
 93
    4
 72
    1
 10
1000
 20
153.5
 11
949
 21
153.5
 72
    1
 10
949
 20
153.5
 11
949
 21
182.5
 72
    1
 10
949
 20
182.5
 11
1000
 21
182.5
 72
    1
 10
1000
 20
182.5
 11
1000
 21
153.5
 97
    0
 75
    0
 76
    1
 52
3.141592653589793
 41
0.15
 77
    0
 78
    0
 98
    0
  0
HATCH
  5
108
100
AcDbEntity
  8
decor
  6
ByLayer
 62
  256
370
   -1
100
AcDbHatch
 10
0
 20
0
 30
0
210
0
220
0
230
1
  2
ar-b816
 70
    0
 71
    0
 91
    1
 92
    0
 93
    4
 72
    1
 10
1000
 20
288.5
 11
963
 21
288.5
 72
    1
 10
963
 20
288.5
 11
963
 21
317.5
 72
    1
 10
963
 20
317.5
 11
1000
 21
317.5
 72
    1
 10
1000
 20
317.5
 11
1000
 21
288.5
 97
    0
 75
    0
 76
    1
 52
3.141592653589793
 41
0.15
 77
    0
 78
    0
 98
    0
  0
HATCH
  5
109
100
AcDbEntity
  8
decor
  6
ByLayer
 62
  256
370
   -1
100
AcDbHatch
 10
0
 20
0
 30
0
210
0
220
0
230
1
  2
ar-b816
 70
    0
 71
    0
 91
    1
 92
    0
 93
    4
 72
    1
 10
1000
 20
243.5
 11
949
 21
243.5
 72
    1
 10
949
 20
243.5
 11
949
 21
272.5
 72
    1
 10
949
 20
272.5
 11
1000
 21
272.5
 72
    1
 10
1000
 20
272.5
 11
1000
 21
243.5
 97
    0
 75
    0
 76
    1
 52
3.141592653589793
 41
0.15
 77
    0
 78
    0
 98
    0
  0
HATCH
  5
10A
100
AcDbEntity
  8
decor
  6
ByLayer
 62
  256
370
   -1
100
AcDbHatch
 10
0
 20
0
 30
0
210
0
220
0
230
1
  2
ar-b816
 70
    0
 71
    0
 91
    1
 92
    0
 93
    4
 72
    1
 10
1000
 20
378.5
 11
963
 21
378.5
 72
    1
 10
963
 20
378.5
 11
963
 21
407.5
 72
    1
 10
963
 20
407.5
 11
1000
 21
407.5
 72
    1
 10
1000
 20
407.5
 11
1000
 21
378.5
 97
    0
 75
    0
 76
    1
 52
3.141592653589793
 41
0.15
 77
    0
 78
    0
 98
    0
  0
HATCH
  5
10B
100
AcDbEntity
  8
decor
  6
ByLayer
 62
  256
370
   -1
100
AcDbHatch
 10
0
 20
0
 30
0
210
0
220
0
230
1
  2
ar-b816
 70
    0
 71
    0
 91
    1
 92
    0
 93
    4
 72
    1
 10
1000
 20
333.5
 11
949
 21
333.5
 72
    1
 10
949
 20
333.5
 11
949
 21
362.5
 72
    1
 10
949
 20
362.5
 11
1000
 21
362.5
 72
    1
 10
1000
 20
362.5
 11
1000
 21
333.5
 97
    0
 75
    0
 76
    1
 52
3.141592653589793
 41
0.15
 77
    0
 78
    0
 98
    0
  0
HATCH
  5
10C
100
AcDbEntity
  8
decor
  6
ByLayer
 62
  256
370
   -1
100
AcDbHatch
 10
0
 20
0
 30
0
210
0
220
0
230
1
  2
ar-b816
 70
    0
 71
    0
 91
    1
 92
    0
 93
    4
 72
    1
 10
1000
 20
468.5
 11
963
 21
468.5
 72
    1
 10
963
 20
468.5
 11
963
 21
497.5
 72
    1
 10
963
 20
497.5
 11
1000
 21
497.5
 72
    1
 10
1000
 20
497.5
 11
1000
 21
468.5
 97
    0
 75
    0
 76
    1
 52
3.141592653589793
 41
0.15
 77
    0
 78
    0
 98
    0
  0
HATCH
  5
10D
100
AcDbEntity
  8
decor
  6
ByLayer
 62
  256
370
   -1
100
AcDbHatch
 10
0
 20
0
 30
0
210
0
220
0
230
1
  2
ar-b816
 70
    0
 71
    0
 91
    1
 92
    0
 93
    4
 72
    1
 10
1000
 20
423.5
 11
949
 21
423.5
 72
    1
 10
949
 20
423.5
 11
949
 21
452.5
 72
    1
 10
949
 20
452.5
 11
1000
 21
452.5
 72
    1
 10
1000
 20
452.5
 11
1000
 21
423.5
 97
    0
 75
    0
 76
    1
 52
3.141592653589793
 41
0.15
 77
    0
 78
    0
 98
    0
  0
HATCH
  5
10E
100
AcDbEntity
  8
decor
  6
ByLayer
 62
  256
370
   -1
100
AcDbHatch
 10
0
 20
0
 30
0
210
0
220
0
230
1
  2
ar-b816
 70
    0
 71
    0
 91
    1
 92
    0
 93
    4
 72
    1
 10
1000
 20
558.5
 11
963
 21
558.5
 72
    1
 10
963
 20
558.5
 11
963
 21
587.5
 72
    1
 10
963
 20
587.5
 11
1000
 21
587.5
 72
    1
 10
1000
 20
587.5
 11
1000
 21
558.5
 97
    0
 75
    0
 76
    1
 52
3.141592653589793
 41
0.15
 77
    0
 78
    0
 98
    0
  0
HATCH
  5
10F
100
AcDbEntity
  8
decor
  6
ByLayer
 62
  256
370
   -1
100
AcDbHatch
 10
0
 20
0
 30
0
210
0
220
0
230
1
  2
ar-b816
 70
    0
 71
    0
 91
    1
 92
    0
 93
    4
 72
    1
 10
1000
 20
513.5
 11
949
 21
513.5
 72
    1
 10
949
 20
513.5
 11
949
 21
542.5
 72
    1
 10
949
 20
542.5
 11
1000
 21
542.5
 72
    1
 10
1000
 20
542.5
 11
1000
 21
513.5
 97
    0
 75
    0
 76
    1
 52
3.141592653589793
 41
0.15
 77
    0
 78
    0
 98
    0
  0
HATCH
  5
110
100
AcDbEntity
  8
decor
  6
ByLayer
 62
  256
370
   -1
100
AcDbHatch
 10
0
 20
0
 30
0
210
0
220
0
230
1
  2
ar-b816
 70
    0
 71
    0
 91
    1
 92
    0
 93
    4
 72
    1
 10
1000
 20
603.5
 11
949
 21
603.5
 72
    1
 10
949
 20
603.5
 11
949
 21
632.5
 72
    1
 10
949
 20
632.5
 11
1000
 21
632.5
 72
    1
 10
1000
 20
632.5
 11
1000
 21
603.5
 97
    0
 75
    0
 76
    1
 52
3.141592653589793
 41
0.15
 77
    0
 78
    0
 98
    0
  0
HATCH
  5
111
100
AcDbEntity
  8
decor
  6
ByLayer
 62
  256
370
   -1
100
AcDbHatch
 10
0
 20
0
 30
0
210
0
220
0
230
1
  2
ar-b816
 70
    0
 71
    0
 91
    1
 92
    0
 93
    4
 72
    1
 10
51
 20
92.5
 11
0
 21
92.5
 72
    1
 10
0
 20
92.5
 11
0
 21
63.5
 72
    1
 10
0
 20
63.5
 11
51
 21
63.5
 72
    1
 10
51
 20
63.5
 11
51
 21
92.5
 97
    0
 75
    0
 76
    1
 52
0
 41
0.15
 77
    0
 78
    0
 98
    0
  0
HATCH
  5
112
100
AcDbEntity
  8
decor
  6
ByLayer
 62
  256
370
   -1
100
AcDbHatch
 10
0
 20
0
 30
0
210
0
220
0
230
1
  2
ar-b816
 70
    0
 71
    0
 91
    1
 92
    0
 93
    4
 72
    1
 10
37
 20
137.5
 11
0
 21
137.5
 72
    1
 10
0
 20
137.5
 11
0
 21
108.5
 72
    1
 10
0
 20
108.5
 11
37
 21
108.5
 72
    1
 10
37
 20
108.5
 11
37
 21
137.5
 97
    0
 75
    0
 76
    1
 52
0
 41
0.15
 77
    0
 78
    0
 98
    0
  0
HATCH
  5
113
100
AcDbEntity
  8
decor
  6
ByLayer
 62
  256
370
   -1
100
AcDbHatch
 10
0
 20
0
 30
0
210
0
220
0
230
1
  2
ar-b816
 70
    0
 71
    0
 91
    1
 92
    0
 93
    4
 72
    1
 10
0
 20
198.5
 11
37
 21
198.5
 72
    1
 10
37
 20
198.5
 11
37
 21
227.5
 72
    1
 10
37
 20
227.5
 11
0
 21
227.5
 72
    1
 10
0
 20
227.5
 11
0
 21
198.5
 97
    0
 75
    0
 76
    1
 52
0
 41
0.15
 77
    0
 78
    0
 98
    0
  0
HATCH
  5
114
100
AcDbEntity
  8
decor
  6
ByLayer
 62
  256
370
   -1
100
AcDbHatch
 10
0
 20
0
 30
0
210
0
220
0
230
1
  2
ar-b816
 70
    0
 71
    0
 91
    1
 92
    0
 93
    4
 72
    1
 10
0
 20
153.5
 11
51
 21
153.5
 72
    1
 10
51
 20
153.5
 11
51
 21
182.5
 72
    1
 10
51
 20
182.5
 11
0
 21
182.5
 72
    1
 10
0
 20
182.5
 11
0
 21
153.5
 97
    0
 75
    0
 76
    1
 52
0
 41
0.15
 77
    0
 78
    0
 98
    0
  0
HATCH
  5
115
100
AcDbEntity
  8
decor
  6
ByLayer
 62
  256
370
   -1
100
AcDbHatch
 10
0
 20
0
 30
0
210
0
220
0
230
1
  2
ar-b816
 70
    0
 71
    0
 91
    1
 92
    0
 93
    4
 72
    1
 10
0
 20
288.5
 11
37
 21
288.5
 72
    1
 10
37
 20
288.5
 11
37
 21
317.5
 72
    1
 10
37
 20
317.5
 11
0
 21
317.5
 72
    1
 10
0
 20
317.5
 11
0
 21
288.5
 97
    0
 75
    0
 76
    1
 52
0
 41
0.15
 77
    0
 78
    0
 98
    0
  0
HATCH
  5
116
100
AcDbEntity
  8
decor
  6
ByLayer
 62
  256
370
   -1
100
AcDbHatch
 10
0
 20
0
 30
0
210
0
220
0
230
1
  2
ar-b816
 70
    0
 71
    0
 91
    1
 92
    0
 93
    4
 72
    1
 10
0
 20
243.5
 11
51
 21
243.5
 72
    1
 10
51
 20
243.5
 11
51
 21
272.5
 72
    1
 10
51
 20
272.5
 11
0
 21
272.5
 72
    1
 10
0
 20
272.5
 11
0
 21
243.5
 97
    0
 75
    0
 76
    1
 52
0
 41
0.15
 77
    0
 78
    0
 98
    0
  0
HATCH
  5
117
100
AcDbEntity
  8
decor
  6
ByLayer
 62
  256
370
   -1
100
AcDbHatch
 10
0
 20
0
 30
0
210
0
220
0
230
1
  2
ar-b816
 70
    0
 71
    0
 91
    1
 92
    0
 93
    4
 72
    1
 10
0
 20
378.5
 11
37
 21
378.5
 72
    1
 10
37
 20
378.5
 11
37
 21
407.5
 72
    1
 10
37
 20
407.5
 11
0
 21
407.5
 72
    1
 10
0
 20
407.5
 11
0
 21
378.5
 97
    0
 75
    0
 76
    1
 52
0
 41
0.15
 77
    0
 78
    0
 98
    0
  0
HATCH
  5
118
100
AcDbEntity
  8
decor
  6
ByLayer
 62
  256
370
   -1
100
AcDbHatch
 10
0
 20
0
 30
0
210
0
220
0
230
1
  2
ar-b816
 70
    0
 71
    0
 91
    1
 92
    0
 93
    4
 72
    1
 10
0
 20
333.5
 11
51
 21
333.5
 72
    1
 10
51
 20
333.5
 11
51
 21
362.5
 72
    1
 10
51
 20
362.5
 11
0
 21
362.5
 72
    1
 10
0
 20
362.5
 11
0
 21
333.5
 97
    0
 75
    0
 76
    1
 52
0
 41
0.15
 77
    0
 78
    0
 98
    0
  0
HATCH
  5
119
100
AcDbEntity
  8
decor
  6
ByLayer
 62
  256
370
   -1
100
AcDbHatch
 10
0
 20
0
 30
0
210
0
220
0
230
1
  2
ar-b816
 70
    0
 71
    0
 91
    1
 92
    0
 93
    4
 72
    1
 10
0
 20
468.5
 11
37
 21
468.5
 72
    1
 10
37
 20
468.5
 11
37
 21
497.5
 72
    1
 10
37
 20
497.5
 11
0
 21
497.5
 72
    1
 10
0
 20
497.5
 11
0
 21
468.5
 97
    0
 75
    0
 76
    1
 52
0
 41
0.15
 77
    0
 78
    0
 98
    0
  0
HATCH
  5
11A
100
AcDbEntity
  8
decor
  6
ByLayer
 62
  256
370
   -1
100
AcDbHatch
 10
0
 20
0
 30
0
210
0
220
0
230
1
  2
ar-b816
 70
    0
 71
    0
 91
    1
 92
    0
 93
    4
 72
    1
 10
0
 20
423.5
 11
51
 21
423.5
 72
    1
 10
51
 20
423.5
 11
51
 21
452.5
 72
    1
 10
51
 20
452.5
 11
0
 21
452.5
 72
    1
 10
0
 20
452.5
 11
0
 21
423.5
 97
    0
 75
    0
 76
    1
 52
0
 41
0.15
 77
    0
 78
    0
 98
    0
  0
HATCH
  5
11B
100
AcDbEntity
  8
decor
  6
ByLayer
 62
  256
370
   -1
100
AcDbHatch
 10
0
 20
0
 30
0
210
0
220
0
230
1
  2
ar-b816
 70
    0
 71
    0
 91
    1
 92
    0
 93
    4
 72
    1
 10
0
 20
558.5
 11
37
 21
558.5
 72
    1
 10
37
 20
558.5
 11
37
 21
587.5
 72
    1
 10
37
 20
587.5
 11
0
 21
587.5
 72
    1
 10
0
 20
587.5
 11
0
 21
558.5
 97
    0
 75
    0
 76
    1
 52
0
 41
0.15
 77
    0
 78
    0
 98
    0
  0
HATCH
  5
11C
100
AcDbEntity
  8
decor
  6
ByLayer
 62
  256
370
   -1
100
AcDbHatch
 10
0
 20
0
 30
0
210
0
220
0
230
1
  2
ar-b816
 70
    0
 71
    0
 91
    1
 92
    0
 93
    4
 72
    1
 10
0
 20
513.5
 11
51
 21
513.5
 72
    1
 10
51
 20
513.5
 11
51
 21
542.5
 72
    1
 10
51
 20
542.5
 11
0
 21
542.5
 72
    1
 10
0
 20
542.5
 11
0
 21
513.5
 97
    0
 75
    0
 76
    1
 52
0
 41
0.15
 77
    0
 78
    0
 98
    0
  0
HATCH
  5
11D
100
AcDbEntity
  8
decor
  6
ByLayer
 62
  256
370
   -1
100
AcDbHatch
 10
0
 20
0
 30
0
210
0
220
0
230
1
  2
ar-b816
 70
    0
 71
    0
 91
    1
 92
    0
 93
    4
 72
    1
 10
0
 20
603.5
 11
51
 21
603.5
 72
    1
 10
51
 20
603.5
 11
51
 21
632.5
 72
    1
 10
51
 20
632.5
 11
0
 21
632.5
 72
    1
 10
0
 20
632.5
 11
0
 21
603.5
 97
    0
 75
    0
 76
    1
 52
0
 41
0.15
 77
    0
 78
    0
 98
    0
  0
LINE
  5
11E
100
AcDbEntity
  8
styny
  6
ByLayer
 62
  256
370
   -1
100
AcDbLine
 10
1960.846153846154
 20
274.2307692307692
 11
1967
 21
250.0000000000001
  0
LINE
  5
11F
100
AcDbEntity
  8
styny
  6
ByLayer
 62
  256
370
   -1
100
AcDbLine
 10
2065.153846153846
 20
274.2307692307691
 11
2059
 21
250
  0
ARC
  5
120
100
AcDbEntity
  8
styny
  6
ByLayer
 62
  256
370
   -1
100
AcDbCircle
 10
2013
 20
68.87500000000011
 40
186.8749999999999
100
AcDbArc
 50
75.7499673021963
 51
104.2500326978035
  0
ARC
  5
121
100
AcDbEntity
  8
styny
  6
ByLayer
 62
  256
370
   -1
100
AcDbCircle
 10
2013
 20
68.8750000000002
 40
211.8749999999997
100
AcDbArc
 50
75.74996730219631
 51
104.2500326978036
  0
LWPOLYLINE
  5
122
100
AcDbEntity
  8
vikna_dveri
  6
ByLayer
 62
  256
370
   -1
100
AcDbPolyline
 90
    4
 70
    1
 43
0
 10
1971
 20
247
 10
2055
 20
247
 10
2055
 20
51
 10
1971
 20
51
  0
ARC
  5
123
100
AcDbEntity
  8
vikna_dveri
  6
ByLayer
 62
  256
370
   -1
100
AcDbCircle
 10
1981
 20
237.9999999999962
 40
10
100
AcDbArc
 50
270
 51
0
  0
ARC
  5
124
100
AcDbEntity
  8
vikna_dveri
  6
ByLayer
 62
  256
370
   -1
100
AcDbCircle
 10
1981
 20
57.99999999999619
 40
10
100
AcDbArc
 50
0
 51
90
  0
LINE
  5
125
100
AcDbEntity
  8
vikna_dveri
  6
ByLayer
 62
  256
370
   -1
100
AcDbLine
 10
1981
 20
227.9999999999962
 11
1981
 21
67.99999999999619
  0
ARC
  5
126
100
AcDbEntity
  8
vikna_dveri
  6
ByLayer
 62
  256
370
   -1
100
AcDbCircle
 10
2045
 20
238
 40
10
100
AcDbArc
 50
180
 51
270
  0
ARC
  5
127
100
AcDbEntity
  8
vikna_dveri
  6
ByLayer
 62
  256
370
   -1
100
AcDbCircle
 10
2045
 20
58
 40
10
100
AcDbArc
 50
90
 51
180
  0
LINE
  5
128
100
AcDbEntity
  8
vikna_dveri
  6
ByLayer
 62
  256
370
   -1
100
AcDbLine
 10
2045
 20
228
 11
2045
 21
68
  0
LINE
  5
129
100
AcDbEntity
  8
vikna_dveri
  6
ByLayer
 62
  256
370
   -1
100
AcDbLine
 10
1991
 20
238
 11
2035
 21
238
  0
LINE
  5
12A
100
AcDbEntity
  8
vikna_dveri
  6
ByLayer
 62
  256
370
   -1
100
AcDbLine
 10
1991
 20
57.99999999999619
 11
2035
 21
58
  0
LINE
  5
12B
100
AcDbEntity
  8
styny
  6
ByLayer
 62
  256
370
   -1
100
AcDbLine
 10
2376.846153846154
 20
274.2307692307692
 11
2383
 21
250.0000000000001
  0
LINE
  5
12C
100
AcDbEntity
  8
styny
  6
ByLayer
 62
  256
370
   -1
100
AcDbLine
 10
2481.153846153846
 20
274.2307692307691
 11
2475
 21
250
  0
ARC
  5
12D
100
AcDbEntity
  8
styny
  6
ByLayer
 62
  256
370
   -1
100
AcDbCircle
 10
2429
 20
68.87500000000011
 40
186.8749999999999
100
AcDbArc
 50
75.7499673021963
 51
104.2500326978035
  0
ARC
  5
12E
100
AcDbEntity
  8
styny
  6
ByLayer
 62
  256
370
   -1
100
AcDbCircle
 10
2429
 20
68.8750000000002
 40
211.8749999999997
100
AcDbArc
 50
75.74996730219631
 51
104.2500326978036
  0
LWPOLYLINE
  5
12F
100
AcDbEntity
  8
vikna_dveri
  6
ByLayer
 62
  256
370
   -1
100
AcDbPolyline
 90
    4
 70
    1
 43
0
 10
2387
 20
247
 10
2471
 20
247
 10
2471
 20
51
 10
2387
 20
51
  0
ARC
  5
130
100
AcDbEntity
  8
vikna_dveri
  6
ByLayer
 62
  256
370
   -1
100
AcDbCircle
 10
2397
 20
237.9999999999962
 40
10
100
AcDbArc
 50
270
 51
0
  0
ARC
  5
131
100
AcDbEntity
  8
vikna_dveri
  6
ByLayer
 62
  256
370
   -1
100
AcDbCircle
 10
2397
 20
57.99999999999619
 40
10
100
AcDbArc
 50
0
 51
90
  0
LINE
  5
132
100
AcDbEntity
  8
vikna_dveri
  6
ByLayer
 62
  256
370
   -1
100
AcDbLine
 10
2397
 20
227.9999999999962
 11
2397
 21
67.99999999999619
  0
ARC
  5
133
100
AcDbEntity
  8
vikna_dveri
  6
ByLayer
 62
  256
370
   -1
100
AcDbCircle
 10
2461
 20
238
 40
10
100
AcDbArc
 50
180
 51
270
  0
ARC
  5
134
100
AcDbEntity
  8
vikna_dveri
  6
ByLayer
 62
  256
370
   -1
100
AcDbCircle
 10
2461
 20
58
 40
10
100
AcDbArc
 50
90
 51
180
  0
LINE
  5
135
100
AcDbEntity
  8
vikna_dveri
  6
ByLayer
 62
  256
370
   -1
100
AcDbLine
 10
2461
 20
228
 11
2461
 21
68
  0
LINE
  5
136
100
AcDbEntity
  8
vikna_dveri
  6
ByLayer
 62
  256
370
   -1
100
AcDbLine
 10
2407
 20
238
 11
2451
 21
238
  0
LINE
  5
137
100
AcDbEntity
  8
vikna_dveri
  6
ByLayer
 62
  256
370
   -1
100
AcDbLine
 10
2407
 20
57.99999999999619
 11
2451
 21
58
  0
LWPOLYLINE
  5
138
100
AcDbEntity
  8
styny
  6
ByLayer
 62
  256
370
   -1
100
AcDbPolyline
 90
    4
 70
    0
 43
0
 10
2383
 20
249.9999999999993
 10
2383
 20
47.99999999999929
 10
2475
 20
47.99999999999929
 10
2475
 20
249.9999999999989
  0
LWPOLYLINE
  5
139
100
AcDbEntity
  8
styny
  6
ByLayer
 62
  256
370
   -1
100
AcDbPolyline
 90
    4
 70
    1
 43
0
 10
0
 20
40
 10
1000
 20
40
 10
1000
 20
646
 10
0
 20
646
  0
LWPOLYLINE
  5
13A
100
AcDbEntity
  8
decor
  6
ByLayer
 62
  256
370
   -1
100
AcDbPolyline
 90
    4
 70
    1
 43
0
 10
0
 20
63.5
 10
51
 20
63.5
 10
51
 20
92.5
 10
0
 20
92.5
  0
LWPOLYLINE
  5
13B
100
AcDbEntity
  8
decor
  6
ByLayer
 62
  256
370
   -1
100
AcDbPolyline
 90
    4
 70
    1
 43
0
 10
0
 20
108.5
 10
37
 20
108.5
 10
37
 20
137.5
 10
0
 20
137.5
  0
LWPOLYLINE
  5
13C
100
AcDbEntity
  8
decor
  6
ByLayer
 62
  256
370
   -1
100
AcDbPolyline
 90
    4
 70
    1
 43
0
 10
0
 20
153.5
 10
51
 20
153.5
 10
51
 20
182.5
 10
0
 20
182.5
  0
LWPOLYLINE
  5
13D
100
AcDbEntity
  8
decor
  6
ByLayer
 62
  256
370
   -1
100
AcDbPolyline
 90
    4
 70
    1
 43
0
 10
0
 20
198.5
 10
37
 20
198.5
 10
37
 20
227.5
 10
0
 20
227.5
  0
LWPOLYLINE
  5
13E
100
AcDbEntity
  8
decor
  6
ByLayer
 62
  256
370
   -1
100
AcDbPolyline
 90
    4
 70
    1
 43
0
 10
0
 20
243.5
 10
51
 20
243.5
 10
51
 20
272.5
 10
0
 20
272.5
  0
LWPOLYLINE
  5
13F
100
AcDbEntity
  8
decor
  6
ByLayer
 62
  256
370
   -1
100
AcDbPolyline
 90
    4
 70
    1
 43
0
 10
0
 20
288.5
 10
37
 20
288.5
 10
37
 20
317.5
 10
0
 20
317.5
  0
LWPOLYLINE
  5
140
100
AcDbEntity
  8
decor
  6
ByLayer
 62
  256
370
   -1
100
AcDbPolyline
 90
    4
 70
    1
 43
0
 10
0
 20
333.5
 10
51
 20
333.5
 10
51
 20
362.5
 10
0
 20
362.5
  0
LWPOLYLINE
  5
141
100
AcDbEntity
  8
decor
  6
ByLayer
 62
  256
370
   -1
100
AcDbPolyline
 90
    4
 70
    1
 43
0
 10
0
 20
378.5
 10
37
 20
378.5
 10
37
 20
407.5
 10
0
 20
407.5
  0
LWPOLYLINE
  5
142
100
AcDbEntity
  8
decor
  6
ByLayer
 62
  256
370
   -1
100
AcDbPolyline
 90
    4
 70
    1
 43
0
 10
0
 20
423.5
 10
51
 20
423.5
 10
51
 20
452.5
 10
0
 20
452.5
  0
LWPOLYLINE
  5
143
100
AcDbEntity
  8
decor
  6
ByLayer
 62
  256
370
   -1
100
AcDbPolyline
 90
    4
 70
    1
 43
0
 10
0
 20
468.5
 10
37
 20
468.5
 10
37
 20
497.5
 10
0
 20
497.5
  0
LWPOLYLINE
  5
144
100
AcDbEntity
  8
decor
  6
ByLayer
 62
  256
370
   -1
100
AcDbPolyline
 90
    4
 70
    1
 43
0
 10
0
 20
513.5
 10
51
 20
513.5
 10
51
 20
542.5
 10
0
 20
542.5
  0
LWPOLYLINE
  5
145
100
AcDbEntity
  8
decor
  6
ByLayer
 62
  256
370
   -1
100
AcDbPolyline
 90
    4
 70
    1
 43
0
 10
0
 20
558.5
 10
37
 20
558.5
 10
37
 20
587.5
 10
0
 20
587.5
  0
LWPOLYLINE
  5
146
100
AcDbEntity
  8
decor
  6
ByLayer
 62
  256
370
   -1
100
AcDbPolyline
 90
    4
 70
    1
 43
0
 10
0
 20
603.5
 10
51
 20
603.5
 10
51
 20
632.5
 10
0
 20
632.5
  0
LWPOLYLINE
  5
147
100
AcDbEntity
  8
decor
  6
ByLayer
 62
  256
370
   -1
100
AcDbPolyline
 90
    4
 70
    1
 43
0
 10
1000
 20
63.5
 10
949
 20
63.5
 10
949
 20
92.5
 10
1000
 20
92.5
  0
LWPOLYLINE
  5
148
100
AcDbEntity
  8
decor
  6
ByLayer
 62
  256
370
   -1
100
AcDbPolyline
 90
    4
 70
    1
 43
0
 10
1000
 20
108.5
 10
963
 20
108.5
 10
963
 20
137.5
 10
1000
 20
137.5
  0
LWPOLYLINE
  5
149
100
AcDbEntity
  8
decor
  6
ByLayer
 62
  256
370
   -1
100
AcDbPolyline
 90
    4
 70
    1
 43
0
 10
1000
 20
153.5
 10
949
 20
153.5
 10
949
 20
182.5
 10
1000
 20
182.5
  0
LWPOLYLINE
  5
14A
100
AcDbEntity
  8
decor
  6
ByLayer
 62
  256
370
   -1
100
AcDbPolyline
 90
    4
 70
    1
 43
0
 10
1000
 20
198.5
 10
963
 20
198.5
 10
963
 20
227.5
 10
1000
 20
227.5
  0
LWPOLYLINE
  5
14B
100
AcDbEntity
  8
decor
  6
ByLayer
 62
  256
370
   -1
100
AcDbPolyline
 90
    4
 70
    1
 43
0
 10
1000
 20
243.5
 10
949
 20
243.5
 10
949
 20
272.5
 10
1000
 20
272.5
  0
LWPOLYLINE
  5
14C
100
AcDbEntity
  8
decor
  6
ByLayer
 62
  256
370
   -1
100
AcDbPolyline
 90
    4
 70
    1
 43
0
 10
1000
 20
288.5
 10
963
 20
288.5
 10
963
 20
317.5
 10
1000
 20
317.5
  0
LWPOLYLINE
  5
14D
100
AcDbEntity
  8
decor
  6
ByLayer
 62
  256
370
   -1
100
AcDbPolyline
 90
    4
 70
    1
 43
0
 10
1000
 20
333.5
 10
949
 20
333.5
 10
949
 20
362.5
 10
1000
 20
362.5
  0
LWPOLYLINE
  5
14E
100
AcDbEntity
  8
decor
  6
ByLayer
 62
  256
370
   -1
100
AcDbPolyline
 90
    4
 70
    1
 43
0
 10
1000
 20
378.5
 10
963
 20
378.5
 10
963
 20
407.5
 10
1000
 20
407.5
  0
LWPOLYLINE
  5
14F
100
AcDbEntity
  8
decor
  6
ByLayer
 62
  256
370
   -1
100
AcDbPolyline
 90
    4
 70
    1
 43
0
 10
1000
 20
423.5
 10
949
 20
423.5
 10
949
 20
452.5
 10
1000
 20
452.5
  0
LWPOLYLINE
  5
150
100
AcDbEntity
  8
decor
  6
ByLayer
 62
  256
370
   -1
100
AcDbPolyline
 90
    4
 70
    1
 43
0
 10
1000
 20
468.5
 10
963
 20
468.5
 10
963
 20
497.5
 10
1000
 20
497.5
  0
LWPOLYLINE
  5
151
100
AcDbEntity
  8
decor
  6
ByLayer
 62
  256
370
   -1
100
AcDbPolyline
 90
    4
 70
    1
 43
0
 10
1000
 20
513.5
 10
949
 20
513.5
 10
949
 20
542.5
 10
1000
 20
542.5
  0
LWPOLYLINE
  5
152
100
AcDbEntity
  8
decor
  6
ByLayer
 62
  256
370
   -1
100
AcDbPolyline
 90
    4
 70
    1
 43
0
 10
1000
 20
558.5
 10
963
 20
558.5
 10
963
 20
587.5
 10
1000
 20
587.5
  0
LWPOLYLINE
  5
153
100
AcDbEntity
  8
decor
  6
ByLayer
 62
  256
370
   -1
100
AcDbPolyline
 90
    4
 70
    1
 43
0
 10
1000
 20
603.5
 10
949
 20
603.5
 10
949
 20
632.5
 10
1000
 20
632.5
  0
LWPOLYLINE
  5
154
100
AcDbEntity
  8
decor
  6
ByLayer
 62
  256
370
   -1
100
AcDbPolyline
 90
    4
 70
    1
 43
0
 10
1500
 20
63.5
 10
1537
 20
63.5
 10
1537
 20
92.5
 10
1500
 20
92.5
  0
LWPOLYLINE
  5
155
100
AcDbEntity
  8
decor
  6
ByLayer
 62
  256
370
   -1
100
AcDbPolyline
 90
    4
 70
    1
 43
0
 10
1500
 20
108.5
 10
1551
 20
108.5
 10
1551
 20
137.5
 10
1500
 20
137.5
  0
LWPOLYLINE
  5
156
100
AcDbEntity
  8
decor
  6
ByLayer
 62
  256
370
   -1
100
AcDbPolyline
 90
    4
 70
    1
 43
0
 10
1500
 20
153.5
 10
1537
 20
153.5
 10
1537
 20
182.5
 10
1500
 20
182.5
  0
LWPOLYLINE
  5
157
100
AcDbEntity
  8
decor
  6
ByLayer
 62
  256
370
   -1
100
AcDbPolyline
 90
    4
 70
    1
 43
0
 10
1500
 20
198.5
 10
1551
 20
198.5
 10
1551
 20
227.5
 10
1500
 20
227.5
  0
LWPOLYLINE
  5
158
100
AcDbEntity
  8
decor
  6
ByLayer
 62
  256
370
   -1
100
AcDbPolyline
 90
    4
 70
    1
 43
0
 10
1500
 20
243.5
 10
1537
 20
243.5
 10
1537
 20
272.5
 10
1500
 20
272.5
  0
LWPOLYLINE
  5
159
100
AcDbEntity
  8
decor
  6
ByLayer
 62
  256
370
   -1
100
AcDbPolyline
 90
    4
 70
    1
 43
0
 10
1500
 20
288.5
 10
1551
 20
288.5
 10
1551
 20
317.5
 10
1500
 20
317.5
  0
LWPOLYLINE
  5
15A
100
AcDbEntity
  8
decor
  6
ByLayer
 62
  256
370
   -1
100
AcDbPolyline
 90
    4
 70
    1
 43
0
 10
1500
 20
333.5
 10
1537
 20
333.5
 10
1537
 20
362.5
 10
1500
 20
362.5
  0
LWPOLYLINE
  5
15B
100
AcDbEntity
  8
decor
  6
ByLayer
 62
  256
370
   -1
100
AcDbPolyline
 90
    4
 70
    1
 43
0
 10
1500
 20
378.5
 10
1551
 20
378.5
 10
1551
 20
407.5
 10
1500
 20
407.5
  0
LWPOLYLINE
  5
15C
100
AcDbEntity
  8
decor
  6
ByLayer
 62
  256
370
   -1
100
AcDbPolyline
 90
    4
 70
    1
 43
0
 10
1500
 20
423.5
 10
1537
 20
423.5
 10
1537
 20
452.5
 10
1500
 20
452.5
  0
LWPOLYLINE
  5
15D
100
AcDbEntity
  8
decor
  6
ByLayer
 62
  256
370
   -1
100
AcDbPolyline
 90
    4
 70
    1
 43
0
 10
1500
 20
468.5
 10
1551
 20
468.5
 10
1551
 20
497.5
 10
1500
 20
497.5
  0
LWPOLYLINE
  5
15E
100
AcDbEntity
  8
decor
  6
ByLayer
 62
  256
370
   -1
100
AcDbPolyline
 90
    4
 70
    1
 43
0
 10
1500
 20
513.5
 10
1537
 20
513.5
 10
1537
 20
542.5
 10
1500
 20
542.5
  0
LWPOLYLINE
  5
15F
100
AcDbEntity
  8
decor
  6
ByLayer
 62
  256
370
   -1
100
AcDbPolyline
 90
    4
 70
    1
 43
0
 10
1500
 20
558.5
 10
1551
 20
558.5
 10
1551
 20
587.5
 10
1500
 20
587.5
  0
LWPOLYLINE
  5
160
100
AcDbEntity
  8
decor
  6
ByLayer
 62
  256
370
   -1
100
AcDbPolyline
 90
    4
 70
    1
 43
0
 10
1500
 20
603.5
 10
1537
 20
603.5
 10
1537
 20
632.5
 10
1500
 20
632.5
  0
LWPOLYLINE
  5
161
100
AcDbEntity
  8
decor
  6
ByLayer
 62
  256
370
   -1
100
AcDbPolyline
 90
    4
 70
    1
 43
0
 10
2552
 20
63.5
 10
2515
 20
63.5
 10
2515
 20
92.5
 10
2552
 20
92.5
  0
LWPOLYLINE
  5
162
100
AcDbEntity
  8
decor
  6
ByLayer
 62
  256
370
   -1
100
AcDbPolyline
 90
    4
 70
    1
 43
0
 10
2552
 20
108.5
 10
2501
 20
108.5
 10
2501
 20
137.5
 10
2552
 20
137.5
  0
LWPOLYLINE
  5
163
100
AcDbEntity
  8
decor
  6
ByLayer
 62
  256
370
   -1
100
AcDbPolyline
 90
    4
 70
    1
 43
0
 10
2552
 20
153.5
 10
2515
 20
153.5
 10
2515
 20
182.5
 10
2552
 20
182.5
  0
LWPOLYLINE
  5
164
100
AcDbEntity
  8
decor
  6
ByLayer
 62
  256
370
   -1
100
AcDbPolyline
 90
    4
 70
    1
 43
0
 10
2552
 20
198.5
 10
2501
 20
198.5
 10
2501
 20
227.5
 10
2552
 20
227.5
  0
LWPOLYLINE
  5
165
100
AcDbEntity
  8
decor
  6
ByLayer
 62
  256
370
   -1
100
AcDbPolyline
 90
    4
 70
    1
 43
0
 10
2552
 20
243.5
 10
2515
 20
243.5
 10
2515
 20
272.5
 10
2552
 20
272.5
  0
LWPOLYLINE
  5
166
100
AcDbEntity
  8
decor
  6
ByLayer
 62
  256
370
   -1
100
AcDbPolyline
 90
    4
 70
    1
 43
0
 10
2552
 20
288.5
 10
2501
 20
288.5
 10
2501
 20
317.5
 10
2552
 20
317.5
  0
LWPOLYLINE
  5
167
100
AcDbEntity
  8
decor
  6
ByLayer
 62
  256
370
   -1
100
AcDbPolyline
 90
    4
 70
    1
 43
0
 10
2552
 20
333.5
 10
2515
 20
333.5
 10
2515
 20
362.5
 10
2552
 20
362.5
  0
LWPOLYLINE
  5
168
100
AcDbEntity
  8
decor
  6
ByLayer
 62
  256
370
   -1
100
AcDbPolyline
 90
    4
 70
    1
 43
0
 10
2552
 20
378.5
 10
2501
 20
378.5
 10
2501
 20
407.5
 10
2552
 20
407.5
  0
LWPOLYLINE
  5
169
100
AcDbEntity
  8
decor
  6
ByLayer
 62
  256
370
   -1
100
AcDbPolyline
 90
    4
 70
    1
 43
0
 10
2552
 20
423.5
 10
2515
 20
423.5
 10
2515
 20
452.5
 10
2552
 20
452.5
  0
LWPOLYLINE
  5
16A
100
AcDbEntity
  8
decor
  6
ByLayer
 62
  256
370
   -1
100
AcDbPolyline
 90
    4
 70
    1
 43
0
 10
2552
 20
468.5
 10
2501
 20
468.5
 10
2501
 20
497.5
 10
2552
 20
497.5
  0
LWPOLYLINE
  5
16B
100
AcDbEntity
  8
decor
  6
ByLayer
 62
  256
370
   -1
100
AcDbPolyline
 90
    4
 70
    1
 43
0
 10
2552
 20
513.5
 10
2515
 20
513.5
 10
2515
 20
542.5
 10
2552
 20
542.5
  0
LWPOLYLINE
  5
16C
100
AcDbEntity
  8
decor
  6
ByLayer
 62
  256
370
   -1
100
AcDbPolyline
 90
    4
 70
    1
 43
0
 10
2552
 20
558.5
 10
2501
 20
558.5
 10
2501
 20
587.5
 10
2552
 20
587.5
  0
LWPOLYLINE
  5
16D
100
AcDbEntity
  8
decor
  6
ByLayer
 62
  256
370
   -1
100
AcDbPolyline
 90
    4
 70
    1
 43
0
 10
2552
 20
603.5
 10
2515
 20
603.5
 10
2515
 20
632.5
 10
2552
 20
632.5
  0
LINE
  5
16E
100
AcDbEntity
  8
shyfer
  6
ByLayer
 62
  256
370
   -1
100
AcDbLine
 10
1437.946525941361
 20
669.5187174072751
 11
2614.053474058641
 21
669.5187174072739
  0
LWPOLYLINE
  5
16F
100
AcDbEntity
  8
decor
  6
ByLayer
 62
  256
370
   -1
100
AcDbPolyline
 90
    4
 70
    1
 43
0
 10
1450
 20
666.000768253161
 10
2602
 20
666.000768253161
 10
2602
 20
646
 10
1450
 20
646
  0
LWPOLYLINE
  5
170
100
AcDbEntity
  8
styny
  6
ByLayer
 62
  256
370
   -1
100
AcDbPolyline
 90
    4
 70
    1
 43
0
 10
1500
 20
40
 10
2552
 20
40
 10
2552
 20
646
 10
1500
 20
646
  0
LWPOLYLINE
  5
171
100
AcDbEntity
  8
shyfer
  6
CONTINUOUS
 62
   16
420
8388608
370
   50
100
AcDbPolyline
 90
   12
 70
    0
 43
0
 10
1440
 20
666.0860443540269
 10
1437.946525941361
 20
669.5187174072751
 10
2000
 20
1005.747134924497
 10
2000.5
 20
1005.747134924496
 10
2000.5
 20
1005.747134924496
 10
2000.5
 20
986.6
 10
2051.5
 20
986.6
 10
2051.5
 20
1005.747134924496
 10
2052
 20
1005.747134924496
 10
2614.053474058641
 20
669.5187174072739
 10
2612
 20
666.086044354027
 10
1440
 20
666
  0
LWPOLYLINE
  5
172
100
AcDbEntity
  8
decor
  6
ByLayer
 62
  256
370
   -1
100
AcDbPolyline
 90
    4
 70
    0
 43
0
 10
460
 20
1070
 10
499.999999999999
 20
1093.747134924497
 10
540
 20
1070
 10
460
 20
1070
  0
LWPOLYLINE
  5
173
100
AcDbEntity
  8
decor
  6
ByLayer
 62
  256
370
   -1
100
AcDbPolyline
 90
    4
 70
    0
 43
0
 10
1993
 20
1070
 10
2026
 20
1093.747134924497
 10
2059
 20
1070
 10
1993
 20
1070
  0
LINE
  5
174
100
AcDbEntity
  8
styny
  6
ByLayer
 62
  256
370
   -1
100
AcDbLine
 10
343.846153846154
 20
-1225.769230769231
 11
350
 21
-1250
  0
LINE
  5
175
100
AcDbEntity
  8
styny
  6
ByLayer
 62
  256
370
   -1
100
AcDbLine
 10
448.153846153846
 20
-1225.769230769231
 11
442
 21
-1250
  0
ARC
  5
176
100
AcDbEntity
  8
styny
  6
ByLayer
 62
  256
370
   -1
100
AcDbCircle
 10
396
 20
-1431.125
 40
186.8749999999999
100
AcDbArc
 50
75.7499673021963
 51
104.2500326978035
  0
ARC
  5
177
100
AcDbEntity
  8
styny
  6
ByLayer
 62
  256
370
   -1
100
AcDbCircle
 10
396
 20
-1431.125
 40
211.8749999999997
100
AcDbArc
 50
75.74996730219631
 51
104.2500326978036
  0
LWPOLYLINE
  5
178
100
AcDbEntity
  8
vikna_dveri
  6
ByLayer
 62
  256
370
   -1
100
AcDbPolyline
 90
    4
 70
    1
 43
0
 10
354
 20
-1253
 10
438
 20
-1253
 10
438
 20
-1449
 10
354
 20
-1449
  0
ARC
  5
179
100
AcDbEntity
  8
vikna_dveri
  6
ByLayer
 62
  256
370
   -1
100
AcDbCircle
 10
364
 20
-1262.000000000004
 40
10
100
AcDbArc
 50
270
 51
0
  0
ARC
  5
17A
100
AcDbEntity
  8
vikna_dveri
  6
ByLayer
 62
  256
370
   -1
100
AcDbCircle
 10
364
 20
-1442.000000000004
 40
10
100
AcDbArc
 50
0
 51
90
  0
LINE
  5
17B
100
AcDbEntity
  8
vikna_dveri
  6
ByLayer
 62
  256
370
   -1
100
AcDbLine
 10
364
 20
-1272.000000000004
 11
364
 21
-1432.000000000004
  0
ARC
  5
17C
100
AcDbEntity
  8
vikna_dveri
  6
ByLayer
 62
  256
370
   -1
100
AcDbCircle
 10
428
 20
-1262
 40
10
100
AcDbArc
 50
180
 51
270
  0
ARC
  5
17D
100
AcDbEntity
  8
vikna_dveri
  6
ByLayer
 62
  256
370
   -1
100
AcDbCircle
 10
428
 20
-1442
 40
10
100
AcDbArc
 50
90
 51
180
  0
LINE
  5
17E
100
AcDbEntity
  8
vikna_dveri
  6
ByLayer
 62
  256
370
   -1
100
AcDbLine
 10
428
 20
-1272
 11
428
 21
-1432
  0
LINE
  5
17F
100
AcDbEntity
  8
vikna_dveri
  6
ByLayer
 62
  256
370
   -1
100
AcDbLine
 10
374
 20
-1262
 11
418
 21
-1262
  0
LINE
  5
180
100
AcDbEntity
  8
vikna_dveri
  6
ByLayer
 62
  256
370
   -1
100
AcDbLine
 10
374
 20
-1442.000000000004
 11
418
 21
-1442
  0
LWPOLYLINE
  5
181
100
AcDbEntity
  8
styny
  6
ByLayer
 62
  256
370
   -1
100
AcDbPolyline
 90
    4
 70
    0
 43
0
 10
350
 20
-1250
 10
350
 20
-1452
 10
442
 20
-1452
 10
442
 20
-1250
  0
LWPOLYLINE
  5
182
100
AcDbEntity
  8
decor
  6
ByLayer
 62
  256
370
   -1
100
AcDbPolyline
 90
    4
 70
    1
 43
0
 10
0
 20
-1436.5
 10
51
 20
-1436.5
 10
51
 20
-1407.5
 10
0
 20
-1407.5
  0
LWPOLYLINE
  5
183
100
AcDbEntity
  8
decor
  6
ByLayer
 62
  256
370
   -1
100
AcDbPolyline
 90
    4
 70
    1
 43
0
 10
0
 20
-1391.5
 10
37
 20
-1391.5
 10
37
 20
-1362.5
 10
0
 20
-1362.5
  0
LWPOLYLINE
  5
184
100
AcDbEntity
  8
decor
  6
ByLayer
 62
  256
370
   -1
100
AcDbPolyline
 90
    4
 70
    1
 43
0
 10
0
 20
-1346.5
 10
51
 20
-1346.5
 10
51
 20
-1317.5
 10
0
 20
-1317.5
  0
LWPOLYLINE
  5
185
100
AcDbEntity
  8
decor
  6
ByLayer
 62
  256
370
   -1
100
AcDbPolyline
 90
    4
 70
    1
 43
0
 10
0
 20
-1301.5
 10
37
 20
-1301.5
 10
37
 20
-1272.5
 10
0
 20
-1272.5
  0
LWPOLYLINE
  5
186
100
AcDbEntity
  8
decor
  6
ByLayer
 62
  256
370
   -1
100
AcDbPolyline
 90
    4
 70
    1
 43
0
 10
0
 20
-1256.5
 10
51
 20
-1256.5
 10
51
 20
-1227.5
 10
0
 20
-1227.5
  0
LWPOLYLINE
  5
187
100
AcDbEntity
  8
decor
  6
ByLayer
 62
  256
370
   -1
100
AcDbPolyline
 90
    4
 70
    1
 43
0
 10
0
 20
-1211.5
 10
37
 20
-1211.5
 10
37
 20
-1182.5
 10
0
 20
-1182.5
  0
LWPOLYLINE
  5
188
100
AcDbEntity
  8
decor
  6
ByLayer
 62
  256
370
   -1
100
AcDbPolyline
 90
    4
 70
    1
 43
0
 10
0
 20
-1166.5
 10
51
 20
-1166.5
 10
51
 20
-1137.5
 10
0
 20
-1137.5
  0
LWPOLYLINE
  5
189
100
AcDbEntity
  8
decor
  6
ByLayer
 62
  256
370
   -1
100
AcDbPolyline
 90
    4
 70
    1
 43
0
 10
0
 20
-1121.5
 10
37
 20
-1121.5
 10
37
 20
-1092.5
 10
0
 20
-1092.5
  0
LWPOLYLINE
  5
18A
100
AcDbEntity
  8
decor
  6
ByLayer
 62
  256
370
   -1
100
AcDbPolyline
 90
    4
 70
    1
 43
0
 10
0
 20
-1076.5
 10
51
 20
-1076.5
 10
51
 20
-1047.5
 10
0
 20
-1047.5
  0
LWPOLYLINE
  5
18B
100
AcDbEntity
  8
decor
  6
ByLayer
 62
  256
370
   -1
100
AcDbPolyline
 90
    4
 70
    1
 43
0
 10
0
 20
-1031.5
 10
37
 20
-1031.5
 10
37
 20
-1002.5
 10
0
 20
-1002.5
  0
LWPOLYLINE
  5
18C
100
AcDbEntity
  8
decor
  6
ByLayer
 62
  256
370
   -1
100
AcDbPolyline
 90
    4
 70
    1
 43
0
 10
0
 20
-986.5
 10
51
 20
-986.5
 10
51
 20
-957.5
 10
0
 20
-957.5
  0
LWPOLYLINE
  5
18D
100
AcDbEntity
  8
decor
  6
ByLayer
 62
  256
370
   -1
100
AcDbPolyline
 90
    4
 70
    1
 43
0
 10
0
 20
-941.5
 10
37
 20
-941.5
 10
37
 20
-912.5
 10
0
 20
-912.5
  0
LWPOLYLINE
  5
18E
100
AcDbEntity
  8
decor
  6
ByLayer
 62
  256
370
   -1
100
AcDbPolyline
 90
    4
 70
    1
 43
0
 10
0
 20
-896.5
 10
51
 20
-896.5
 10
51
 20
-867.5
 10
0
 20
-867.5
  0
LWPOLYLINE
  5
18F
100
AcDbEntity
  8
decor
  6
ByLayer
 62
  256
370
   -1
100
AcDbPolyline
 90
    4
 70
    1
 43
0
 10
1000
 20
-1436.5
 10
949
 20
-1436.5
 10
949
 20
-1407.5
 10
1000
 20
-1407.5
  0
LWPOLYLINE
  5
190
100
AcDbEntity
  8
decor
  6
ByLayer
 62
  256
370
   -1
100
AcDbPolyline
 90
    4
 70
    1
 43
0
 10
1000
 20
-1391.5
 10
963
 20
-1391.5
 10
963
 20
-1362.5
 10
1000
 20
-1362.5
  0
LWPOLYLINE
  5
191
100
AcDbEntity
  8
decor
  6
ByLayer
 62
  256
370
   -1
100
AcDbPolyline
 90
    4
 70
    1
 43
0
 10
1000
 20
-1346.5
 10
949
 20
-1346.5
 10
949
 20
-1317.5
 10
1000
 20
-1317.5
  0
LWPOLYLINE
  5
192
100
AcDbEntity
  8
decor
  6
ByLayer
 62
  256
370
   -1
100
AcDbPolyline
 90
    4
 70
    1
 43
0
 10
1000
 20
-1301.5
 10
963
 20
-1301.5
 10
963
 20
-1272.5
 10
1000
 20
-1272.5
  0
LWPOLYLINE
  5
193
100
AcDbEntity
  8
decor
  6
ByLayer
 62
  256
370
   -1
100
AcDbPolyline
 90
    4
 70
    1
 43
0
 10
1000
 20
-1256.5
 10
949
 20
-1256.5
 10
949
 20
-1227.5
 10
1000
 20
-1227.5
  0
LWPOLYLINE
  5
194
100
AcDbEntity
  8
decor
  6
ByLayer
 62
  256
370
   -1
100
AcDbPolyline
 90
    4
 70
    1
 43
0
 10
1000
 20
-1211.5
 10
963
 20
-1211.5
 10
963
 20
-1182.5
 10
1000
 20
-1182.5
  0
LWPOLYLINE
  5
195
100
AcDbEntity
  8
decor
  6
ByLayer
 62
  256
370
   -1
100
AcDbPolyline
 90
    4
 70
    1
 43
0
 10
1000
 20
-1166.5
 10
949
 20
-1166.5
 10
949
 20
-1137.5
 10
1000
 20
-1137.5
  0
LWPOLYLINE
  5
196
100
AcDbEntity
  8
decor
  6
ByLayer
 62
  256
370
   -1
100
AcDbPolyline
 90
    4
 70
    1
 43
0
 10
1000
 20
-1121.5
 10
963
 20
-1121.5
 10
963
 20
-1092.5
 10
1000
 20
-1092.5
  0
LWPOLYLINE
  5
197
100
AcDbEntity
  8
decor
  6
ByLayer
 62
  256
370
   -1
100
AcDbPolyline
 90
    4
 70
    1
 43
0
 10
1000
 20
-1076.5
 10
949
 20
-1076.5
 10
949
 20
-1047.5
 10
1000
 20
-1047.5
  0
LWPOLYLINE
  5
198
100
AcDbEntity
  8
decor
  6
ByLayer
 62
  256
370
   -1
100
AcDbPolyline
 90
    4
 70
    1
 43
0
 10
1000
 20
-1031.5
 10
963
 20
-1031.5
 10
963
 20
-1002.5
 10
1000
 20
-1002.5
  0
LWPOLYLINE
  5
199
100
AcDbEntity
  8
decor
  6
ByLayer
 62
  256
370
   -1
100
AcDbPolyline
 90
    4
 70
    1
 43
0
 10
1000
 20
-986.5
 10
949
 20
-986.5
 10
949
 20
-957.5
 10
1000
 20
-957.5
  0
LWPOLYLINE
  5
19A
100
AcDbEntity
  8
decor
  6
ByLayer
 62
  256
370
   -1
100
AcDbPolyline
 90
    4
 70
    1
 43
0
 10
1000
 20
-941.5
 10
963
 20
-941.5
 10
963
 20
-912.5
 10
1000
 20
-912.5
  0
LWPOLYLINE
  5
19B
100
AcDbEntity
  8
decor
  6
ByLayer
 62
  256
370
   -1
100
AcDbPolyline
 90
    4
 70
    1
 43
0
 10
1000
 20
-896.5
 10
949
 20
-896.5
 10
949
 20
-867.5
 10
1000
 20
-867.5
  0
LWPOLYLINE
  5
19C
100
AcDbEntity
  8
decor
  6
ByLayer
 62
  256
370
   -1
100
AcDbPolyline
 90
    4
 70
    1
 43
0
 10
1500
 20
-1436.4996
 10
1537
 20
-1436.4996
 10
1537
 20
-1407.4996
 10
1500
 20
-1407.4996
  0
LWPOLYLINE
  5
19D
100
AcDbEntity
  8
decor
  6
ByLayer
 62
  256
370
   -1
100
AcDbPolyline
 90
    4
 70
    1
 43
0
 10
1500
 20
-1391.4996
 10
1551
 20
-1391.4996
 10
1551
 20
-1362.4996
 10
1500
 20
-1362.4996
  0
LWPOLYLINE
  5
19E
100
AcDbEntity
  8
decor
  6
ByLayer
 62
  256
370
   -1
100
AcDbPolyline
 90
    4
 70
    1
 43
0
 10
1500
 20
-1346.4996
 10
1537
 20
-1346.4996
 10
1537
 20
-1317.4996
 10
1500
 20
-1317.4996
  0
LWPOLYLINE
  5
19F
100
AcDbEntity
  8
decor
  6
ByLayer
 62
  256
370
   -1
100
AcDbPolyline
 90
    4
 70
    1
 43
0
 10
1500
 20
-1301.4996
 10
1551
 20
-1301.4996
 10
1551
 20
-1272.4996
 10
1500
 20
-1272.4996
  0
LWPOLYLINE
  5
1A0
100
AcDbEntity
  8
decor
  6
ByLayer
 62
  256
370
   -1
100
AcDbPolyline
 90
    4
 70
    1
 43
0
 10
1500
 20
-1256.4996
 10
1537
 20
-1256.4996
 10
1537
 20
-1227.4996
 10
1500
 20
-1227.4996
  0
LWPOLYLINE
  5
1A1
100
AcDbEntity
  8
decor
  6
ByLayer
 62
  256
370
   -1
100
AcDbPolyline
 90
    4
 70
    1
 43
0
 10
1500
 20
-1211.4996
 10
1551
 20
-1211.4996
 10
1551
 20
-1182.4996
 10
1500
 20
-1182.4996
  0
LWPOLYLINE
  5
1A2
100
AcDbEntity
  8
decor
  6
ByLayer
 62
  256
370
   -1
100
AcDbPolyline
 90
    4
 70
    1
 43
0
 10
1500
 20
-1166.4996
 10
1537
 20
-1166.4996
 10
1537
 20
-1137.4996
 10
1500
 20
-1137.4996
  0
LWPOLYLINE
  5
1A3
100
AcDbEntity
  8
decor
  6
ByLayer
 62
  256
370
   -1
100
AcDbPolyline
 90
    4
 70
    1
 43
0
 10
1500
 20
-1121.4996
 10
1551
 20
-1121.4996
 10
1551
 20
-1092.4996
 10
1500
 20
-1092.4996
  0
LWPOLYLINE
  5
1A4
100
AcDbEntity
  8
decor
  6
ByLayer
 62
  256
370
   -1
100
AcDbPolyline
 90
    4
 70
    1
 43
0
 10
1500
 20
-1076.4996
 10
1537
 20
-1076.4996
 10
1537
 20
-1047.4996
 10
1500
 20
-1047.4996
  0
LWPOLYLINE
  5
1A5
100
AcDbEntity
  8
decor
  6
ByLayer
 62
  256
370
   -1
100
AcDbPolyline
 90
    4
 70
    1
 43
0
 10
1500
 20
-1031.4996
 10
1551
 20
-1031.4996
 10
1551
 20
-1002.4996
 10
1500
 20
-1002.4996
  0
LWPOLYLINE
  5
1A6
100
AcDbEntity
  8
decor
  6
ByLayer
 62
  256
370
   -1
100
AcDbPolyline
 90
    4
 70
    1
 43
0
 10
1500
 20
-986.4996
 10
1537
 20
-986.4996
 10
1537
 20
-957.4996
 10
1500
 20
-957.4996
  0
LWPOLYLINE
  5
1A7
100
AcDbEntity
  8
decor
  6
ByLayer
 62
  256
370
   -1
100
AcDbPolyline
 90
    4
 70
    1
 43
0
 10
1500
 20
-941.4996
 10
1551
 20
-941.4996
 10
1551
 20
-912.4996
 10
1500
 20
-912.4996
  0
LWPOLYLINE
  5
1A8
100
AcDbEntity
  8
decor
  6
ByLayer
 62
  256
370
   -1
100
AcDbPolyline
 90
    4
 70
    1
 43
0
 10
1500
 20
-896.4996
 10
1537
 20
-896.4996
 10
1537
 20
-867.4996
 10
1500
 20
-867.4996
  0
LWPOLYLINE
  5
1A9
100
AcDbEntity
  8
decor
  6
ByLayer
 62
  256
370
   -1
100
AcDbPolyline
 90
    4
 70
    1
 43
0
 10
2552
 20
-1436.4996
 10
2515
 20
-1436.4996
 10
2515
 20
-1407.4996
 10
2552
 20
-1407.4996
  0
LWPOLYLINE
  5
1AA
100
AcDbEntity
  8
decor
  6
ByLayer
 62
  256
370
   -1
100
AcDbPolyline
 90
    4
 70
    1
 43
0
 10
2552
 20
-1391.4996
 10
2501
 20
-1391.4996
 10
2501
 20
-1362.4996
 10
2552
 20
-1362.4996
  0
LWPOLYLINE
  5
1AB
100
AcDbEntity
  8
decor
  6
ByLayer
 62
  256
370
   -1
100
AcDbPolyline
 90
    4
 70
    1
 43
0
 10
2552
 20
-1346.4996
 10
2515
 20
-1346.4996
 10
2515
 20
-1317.4996
 10
2552
 20
-1317.4996
  0
LWPOLYLINE
  5
1AC
100
AcDbEntity
  8
decor
  6
ByLayer
 62
  256
370
   -1
100
AcDbPolyline
 90
    4
 70
    1
 43
0
 10
2552
 20
-1301.4996
 10
2501
 20
-1301.4996
 10
2501
 20
-1272.4996
 10
2552
 20
-1272.4996
  0
LWPOLYLINE
  5
1AD
100
AcDbEntity
  8
decor
  6
ByLayer
 62
  256
370
   -1
100
AcDbPolyline
 90
    4
 70
    1
 43
0
 10
2552
 20
-1256.4996
 10
2515
 20
-1256.4996
 10
2515
 20
-1227.4996
 10
2552
 20
-1227.4996
  0
LWPOLYLINE
  5
1AE
100
AcDbEntity
  8
decor
  6
ByLayer
 62
  256
370
   -1
100
AcDbPolyline
 90
    4
 70
    1
 43
0
 10
2552
 20
-1211.4996
 10
2501
 20
-1211.4996
 10
2501
 20
-1182.4996
 10
2552
 20
-1182.4996
  0
LWPOLYLINE
  5
1AF
100
AcDbEntity
  8
decor
  6
ByLayer
 62
  256
370
   -1
100
AcDbPolyline
 90
    4
 70
    1
 43
0
 10
2552
 20
-1166.4996
 10
2515
 20
-1166.4996
 10
2515
 20
-1137.4996
 10
2552
 20
-1137.4996
  0
LWPOLYLINE
  5
1B0
100
AcDbEntity
  8
decor
  6
ByLayer
 62
  256
370
   -1
100
AcDbPolyline
 90
    4
 70
    1
 43
0
 10
2552
 20
-1121.4996
 10
2501
 20
-1121.4996
 10
2501
 20
-1092.4996
 10
2552
 20
-1092.4996
  0
LWPOLYLINE
  5
1B1
100
AcDbEntity
  8
decor
  6
ByLayer
 62
  256
370
   -1
100
AcDbPolyline
 90
    4
 70
    1
 43
0
 10
2552
 20
-1076.4996
 10
2515
 20
-1076.4996
 10
2515
 20
-1047.4996
 10
2552
 20
-1047.4996
  0
LWPOLYLINE
  5
1B2
100
AcDbEntity
  8
decor
  6
ByLayer
 62
  256
370
   -1
100
AcDbPolyline
 90
    4
 70
    1
 43
0
 10
2552
 20
-1031.4996
 10
2501
 20
-1031.4996
 10
2501
 20
-1002.4996
 10
2552
 20
-1002.4996
  0
LWPOLYLINE
  5
1B3
100
AcDbEntity
  8
decor
  6
ByLayer
 62
  256
370
   -1
100
AcDbPolyline
 90
    4
 70
    1
 43
0
 10
2552
 20
-986.4996
 10
2515
 20
-986.4996
 10
2515
 20
-957.4996
 10
2552
 20
-957.4996
  0
LWPOLYLINE
  5
1B4
100
AcDbEntity
  8
decor
  6
ByLayer
 62
  256
370
   -1
100
AcDbPolyline
 90
    4
 70
    1
 43
0
 10
2552
 20
-941.4996
 10
2501
 20
-941.4996
 10
2501
 20
-912.4996
 10
2552
 20
-912.4996
  0
LWPOLYLINE
  5
1B5
100
AcDbEntity
  8
decor
  6
ByLayer
 62
  256
370
   -1
100
AcDbPolyline
 90
    4
 70
    1
 43
0
 10
2552
 20
-896.4996
 10
2515
 20
-896.4996
 10
2515
 20
-867.4996
 10
2552
 20
-867.4996
  0
LWPOLYLINE
  5
1B6
100
AcDbEntity
  8
shyfer
  6
ByLayer
 62
  256
370
   -1
100
AcDbPolyline
 90
    6
 70
    0
 43
0
 10
-60
 20
-833.9139556459731
 10
-62.05347405863904
 20
-830.4812825927249
 10
500
 20
-494.252865075503
 10
1062.053474058641
 20
-830.4812825927261
 10
1060
 20
-833.913955645973
 10
-60
 20
-834
  0
LINE
  5
1B7
100
AcDbEntity
  8
shyfer
  6
ByLayer
 62
  256
370
   -1
100
AcDbLine
 10
-62.05347405863904
 20
-830.4812825927249
 11
1062.053474058641
 21
-830.4812825927261
  0
LWPOLYLINE
  5
1B8
100
AcDbEntity
  8
decor
  6
ByLayer
 62
  256
370
   -1
100
AcDbPolyline
 90
    4
 70
    1
 43
0
 10
-50
 20
-833.999231746839
 10
1050
 20
-833.999231746839
 10
1050
 20
-854
 10
-50
 20
-854
  0
LINE
  5
1B9
100
AcDbEntity
  8
shyfer
  6
ByLayer
 62
  256
370
   -1
100
AcDbLine
 10
1437.946525941361
 20
-830.4812825927249
 11
2614.053474058641
 21
-830.4812825927261
  0
LWPOLYLINE
  5
1BA
100
AcDbEntity
  8
decor
  6
ByLayer
 62
  256
370
   -1
100
AcDbPolyline
 90
    4
 70
    1
 43
0
 10
1450
 20
-833.999231746839
 10
2602
 20
-833.999231746839
 10
2602
 20
-854
 10
1450
 20
-854
  0
LWPOLYLINE
  5
1BB
100
AcDbEntity
  8
styny
  6
ByLayer
 62
  256
370
   -1
100
AcDbPolyline
 90
    5
 70
    0
 43
0
 10
2000.5
 20
-513.4
 10
2000.5
 20
-450
 10
2051.5
 20
-450
 10
2051.5
 20
-513.4
 10
2000.5
 20
-513.4
  0
LWPOLYLINE
  5
1BC
100
AcDbEntity
  8
shyfer
  6
CONTINUOUS
 62
   16
420
8388608
370
   50
100
AcDbPolyline
 90
   12
 70
    0
 43
0
 10
1440
 20
-833.9139556459731
 10
1437.946525941361
 20
-830.4812825927249
 10
2000
 20
-494.252865075503
 10
2000.5
 20
-494.252865075504
 10
2000.5
 20
-494.252865075504
 10
2000.5
 20
-513.4
 10
2051.5
 20
-513.4
 10
2051.5
 20
-494.252865075504
 10
2052
 20
-494.252865075504
 10
2614.053474058641
 20
-830.4812825927261
 10
2612
 20
-833.913955645973
 10
1440
 20
-834
  0
LWPOLYLINE
  5
1BD
100
AcDbEntity
  8
decor
  6
ByLayer
 62
  256
370
   -1
100
AcDbPolyline
 90
    4
 70
    0
 43
0
 10
460
 20
-430
 10
499.999999999999
 20
-406.252865075503
 10
540
 20
-430
 10
460
 20
-430
  0
LWPOLYLINE
  5
1BE
100
AcDbEntity
  8
decor
  6
ByLayer
 62
  256
370
   -1
100
AcDbPolyline
 90
    4
 70
    0
 43
0
 10
1993
 20
-430
 10
2026
 20
-406.252865075503
 10
2059
 20
-430
 10
1993
 20
-430
  0
LINE
  5
1BF
100
AcDbEntity
  8
styny
  6
ByLayer
 62
  256
370
   -1
100
AcDbLine
 10
148.846153846154
 20
606.2307692307695
 11
155
 21
582.0000000000005
  0
LINE
  5
1C0
100
AcDbEntity
  8
styny
  6
ByLayer
 62
  256
370
   -1
100
AcDbLine
 10
240.153846153846
 20
606.2307692307695
 11
234
 21
582.0000000000005
  0
LINE
  5
1C1
100
AcDbEntity
  8
vikna_dveri
  6
ByLayer
 62
  256
370
   -1
100
AcDbLine
 10
149
 20
450
 11
240
 21
450
  0
LWPOLYLINE
  5
1C2
100
AcDbEntity
  8
vikna_dveri
  6
ByLayer
 62
  256
370
   -1
100
AcDbPolyline
 90
    4
 70
    1
 43
0
 10
149
 20
453
 10
240
 20
453
 10
240
 20
447
 10
149
 20
447
  0
LWPOLYLINE
  5
1C3
100
AcDbEntity
  8
styny
  6
ByLayer
 62
  256
370
   -1
100
AcDbPolyline
 90
   12
 70
    0
 43
0
 10
234
 20
582.0000000000005
 10
234
 20
453
 10
240
 20
453
 10
240
 20
447
 10
238
 20
447.0000000000006
 10
238
 20
438.0000000000001
 10
151
 20
438
 10
151
 20
447.0000000000005
 10
149
 20
447
 10
149
 20
453
 10
155
 20
453
 10
155
 20
582.0000000000005
  0
LWPOLYLINE
  5
1C4
100
AcDbEntity
  8
vikna_dveri
  6
ByLayer
 62
  256
370
   -1
100
AcDbPolyline
 90
    4
 70
    1
 43
0
 10
164.5
 20
463
 10
224.5
 20
463
 10
224.5
 20
569
 10
164.5
 20
569
  0
LWPOLYLINE
  5
1C5
100
AcDbEntity
  8
vikna_dveri
  6
ByLayer
 62
  256
370
   -1
100
AcDbPolyline
 90
   21
 70
    0
 43
0
 10
193.5
 20
569
 10
193.5
 20
535
 10
164.5
 20
535
 10
164.5
 20
533
 10
193.5
 20
533
 10
193.5
 20
499
 10
164.5
 20
499
 10
164.5
 20
497
 10
193.5
 20
497
 10
193.5
 20
463
 10
195.5
 20
463
 10
195.5
 20
497
 10
224.5
 20
497
 10
224.5
 20
499
 10
195.5
 20
499
 10
195.5
 20
533
 10
224.5
 20
533
 10
224.5
 20
535
 10
195.5
 20
535
 10
195.5
 20
569
 10
193.5
 20
569
  0
ARC
  5
1C6
100
AcDbEntity
  8
styny
  6
ByLayer
 62
  256
370
   -1
100
AcDbCircle
 10
194.5
 20
426.4687500000013
 40
185.4687499999989
100
AcDbArc
 50
75.74996730219647
 51
104.2500326978037
  0
ARC
  5
1C7
100
AcDbEntity
  8
styny
  6
ByLayer
 62
  256
370
   -1
100
AcDbCircle
 10
194.4999999999991
 20
426.4687500000003
 40
160.4687499999999
100
AcDbArc
 50
75.74996730219607
 51
104.2500326978033
  0
LINE
  5
1C8
100
AcDbEntity
  8
styny
  6
ByLayer
 62
  256
370
   -1
100
AcDbLine
 10
395.846153846154
 20
606.2307692307695
 11
402
 21
582.0000000000005
  0
LINE
  5
1C9
100
AcDbEntity
  8
styny
  6
ByLayer
 62
  256
370
   -1
100
AcDbLine
 10
487.153846153846
 20
606.2307692307695
 11
481
 21
582.0000000000005
  0
LINE
  5
1CA
100
AcDbEntity
  8
vikna_dveri
  6
ByLayer
 62
  256
370
   -1
100
AcDbLine
 10
396
 20
450
 11
487
 21
450
  0
LWPOLYLINE
  5
1CB
100
AcDbEntity
  8
vikna_dveri
  6
ByLayer
 62
  256
370
   -1
100
AcDbPolyline
 90
    4
 70
    1
 43
0
 10
396
 20
453
 10
487
 20
453
 10
487
 20
447
 10
396
 20
447
  0
LWPOLYLINE
  5
1CC
100
AcDbEntity
  8
styny
  6
ByLayer
 62
  256
370
   -1
100
AcDbPolyline
 90
   12
 70
    0
 43
0
 10
481
 20
582.0000000000005
 10
481
 20
453
 10
487
 20
453
 10
487
 20
447
 10
485
 20
447.0000000000006
 10
485
 20
438.0000000000001
 10
398
 20
438
 10
398
 20
447.0000000000005
 10
396
 20
447
 10
396
 20
453
 10
402
 20
453
 10
402
 20
582.0000000000005
  0
LWPOLYLINE
  5
1CD
100
AcDbEntity
  8
vikna_dveri
  6
ByLayer
 62
  256
370
   -1
100
AcDbPolyline
 90
    4
 70
    1
 43
0
 10
411.5
 20
463
 10
471.5
 20
463
 10
471.5
 20
569
 10
411.5
 20
569
  0
LWPOLYLINE
  5
1CE
100
AcDbEntity
  8
vikna_dveri
  6
ByLayer
 62
  256
370
   -1
100
AcDbPolyline
 90
   21
 70
    0
 43
0
 10
440.5
 20
569
 10
440.5
 20
535
 10
411.5
 20
535
 10
411.5
 20
533
 10
440.5
 20
533
 10
440.5
 20
499
 10
411.5
 20
499
 10
411.5
 20
497
 10
440.5
 20
497
 10
440.5
 20
463
 10
442.5
 20
463
 10
442.5
 20
497
 10
471.5
 20
497
 10
471.5
 20
499
 10
442.5
 20
499
 10
442.5
 20
533
 10
471.5
 20
533
 10
471.5
 20
535
 10
442.5
 20
535
 10
442.5
 20
569
 10
440.5
 20
569
  0
ARC
  5
1CF
100
AcDbEntity
  8
styny
  6
ByLayer
 62
  256
370
   -1
100
AcDbCircle
 10
441.5
 20
426.4687500000013
 40
185.4687499999989
100
AcDbArc
 50
75.74996730219647
 51
104.2500326978037
  0
ARC
  5
1D0
100
AcDbEntity
  8
styny
  6
ByLayer
 62
  256
370
   -1
100
AcDbCircle
 10
441.4999999999991
 20
426.4687500000003
 40
160.4687499999999
100
AcDbArc
 50
75.74996730219607
 51
104.2500326978033
  0
LWPOLYLINE
  5
1D1
100
AcDbEntity
  8
vikna_dveri
  6
ByLayer
 62
  256
370
   -1
100
AcDbPolyline
 90
    4
 70
    1
 43
0
 10
670
 20
453
 10
824
 20
453
 10
824
 20
447
 10
670
 20
447
  0
LINE
  5
1D2
100
AcDbEntity
  8
vikna_dveri
  6
ByLayer
 62
  256
370
   -1
100
AcDbLine
 10
670
 20
450
 11
824
 21
450
  0
LWPOLYLINE
  5
1D3
100
AcDbEntity
  8
styny
  6
ByLayer
 62
  256
370
   -1
100
AcDbPolyline
 90
   12
 70
    0
 43
0
 10
819
 20
582.0000000000005
 10
819
 20
453
 10
824
 20
453
 10
824
 20
447
 10
822
 20
447
 10
822
 20
437.9999999999995
 10
672
 20
438
 10
672
 20
447.0000000000005
 10
670
 20
447
 10
670
 20
453
 10
675
 20
453
 10
675
 20
582.0000000000005
  0
LWPOLYLINE
  5
1D4
100
AcDbEntity
  8
vikna_dveri
  6
ByLayer
 62
  256
370
   -1
100
AcDbPolyline
 90
    4
 70
    1
 43
0
 10
683
 20
463
 10
743
 20
463
 10
743
 20
569
 10
683
 20
569
  0
LWPOLYLINE
  5
1D5
100
AcDbEntity
  8
vikna_dveri
  6
ByLayer
 62
  256
370
   -1
100
AcDbPolyline
 90
   21
 70
    0
 43
0
 10
712
 20
569
 10
712
 20
535
 10
683
 20
535
 10
683
 20
533
 10
712
 20
533
 10
712
 20
499
 10
683
 20
499
 10
683
 20
497
 10
712
 20
497
 10
712
 20
463
 10
714
 20
463
 10
714
 20
497
 10
743
 20
497
 10
743
 20
499
 10
714
 20
499
 10
714
 20
533
 10
743
 20
533
 10
743
 20
535
 10
714
 20
535
 10
714
 20
569
 10
712
 20
569
  0
LWPOLYLINE
  5
1D6
100
AcDbEntity
  8
vikna_dveri
  6
ByLayer
 62
  256
370
   -1
100
AcDbPolyline
 90
    4
 70
    1
 43
0
 10
751
 20
463
 10
811
 20
463
 10
811
 20
569
 10
751
 20
569
  0
LWPOLYLINE
  5
1D7
100
AcDbEntity
  8
vikna_dveri
  6
ByLayer
 62
  256
370
   -1
100
AcDbPolyline
 90
   21
 70
    0
 43
0
 10
780
 20
569
 10
780
 20
535
 10
751
 20
535
 10
751
 20
533
 10
780
 20
533
 10
780
 20
499
 10
751
 20
499
 10
751
 20
497
 10
780
 20
497
 10
780
 20
463
 10
782
 20
463
 10
782
 20
497
 10
811
 20
497
 10
811
 20
499
 10
782
 20
499
 10
782
 20
533
 10
811
 20
533
 10
811
 20
535
 10
782
 20
535
 10
782
 20
569
 10
780
 20
569
  0
LINE
  5
1D8
100
AcDbEntity
  8
styny
  6
ByLayer
 62
  256
370
   -1
100
AcDbLine
 10
668.8461538461538
 20
606.2307692307691
 11
675
 21
582
  0
LINE
  5
1D9
100
AcDbEntity
  8
styny
  6
ByLayer
 62
  256
370
   -1
100
AcDbLine
 10
825.1538461538462
 20
606.2307692307691
 11
819
 21
582
  0
ARC
  5
1DA
100
AcDbEntity
  8
styny
  6
ByLayer
 62
  256
370
   -1
100
AcDbCircle
 10
747.0000000000005
 20
298.5000000000006
 40
292.4999999999999
100
AcDbArc
 50
75.7499673021965
 51
104.2500326978037
  0
ARC
  5
1DB
100
AcDbEntity
  8
styny
  6
ByLayer
 62
  256
370
   -1
100
AcDbCircle
 10
747.0000000000007
 20
298.5000000000006
 40
317.4999999999993
100
AcDbArc
 50
75.74996730219648
 51
104.2500326978037
  0
LINE
  5
1DC
100
AcDbEntity
  8
styny
  6
ByLayer
 62
  256
370
   -1
100
AcDbLine
 10
1648.846153846154
 20
606.2307692307695
 11
1655
 21
582.0000000000005
  0
LINE
  5
1DD
100
AcDbEntity
  8
styny
  6
ByLayer
 62
  256
370
   -1
100
AcDbLine
 10
1740.153846153846
 20
606.2307692307695
 11
1734
 21
582.0000000000005
  0
LINE
  5
1DE
100
AcDbEntity
  8
vikna_dveri
  6
ByLayer
 62
  256
370
   -1
100
AcDbLine
 10
1649
 20
450
 11
1740
 21
450
  0
LWPOLYLINE
  5
1DF
100
AcDbEntity
  8
vikna_dveri
  6
ByLayer
 62
  256
370
   -1
100
AcDbPolyline
 90
    4
 70
    1
 43
0
 10
1649
 20
453
 10
1740
 20
453
 10
1740
 20
447
 10
1649
 20
447
  0
LWPOLYLINE
  5
1E0
100
AcDbEntity
  8
styny
  6
ByLayer
 62
  256
370
   -1
100
AcDbPolyline
 90
   12
 70
    0
 43
0
 10
1734
 20
582.0000000000005
 10
1734
 20
453
 10
1740
 20
453
 10
1740
 20
447
 10
1738
 20
447.0000000000006
 10
1738
 20
438.0000000000001
 10
1651
 20
438
 10
1651
 20
447.0000000000005
 10
1649
 20
447
 10
1649
 20
453
 10
1655
 20
453
 10
1655
 20
582.0000000000005
  0
LWPOLYLINE
  5
1E1
100
AcDbEntity
  8
vikna_dveri
  6
ByLayer
 62
  256
370
   -1
100
AcDbPolyline
 90
    4
 70
    1
 43
0
 10
1664.5
 20
463
 10
1724.5
 20
463
 10
1724.5
 20
569
 10
1664.5
 20
569
  0
LWPOLYLINE
  5
1E2
100
AcDbEntity
  8
vikna_dveri
  6
ByLayer
 62
  256
370
   -1
100
AcDbPolyline
 90
   21
 70
    0
 43
0
 10
1693.5
 20
569
 10
1693.5
 20
535
 10
1664.5
 20
535
 10
1664.5
 20
533
 10
1693.5
 20
533
 10
1693.5
 20
499
 10
1664.5
 20
499
 10
1664.5
 20
497
 10
1693.5
 20
497
 10
1693.5
 20
463
 10
1695.5
 20
463
 10
1695.5
 20
497
 10
1724.5
 20
497
 10
1724.5
 20
499
 10
1695.5
 20
499
 10
1695.5
 20
533
 10
1724.5
 20
533
 10
1724.5
 20
535
 10
1695.5
 20
535
 10
1695.5
 20
569
 10
1693.5
 20
569
  0
ARC
  5
1E3
100
AcDbEntity
  8
styny
  6
ByLayer
 62
  256
370
   -1
100
AcDbCircle
 10
1694.5
 20
426.4687500000013
 40
185.4687499999989
100
AcDbArc
 50
75.74996730219647
 51
104.2500326978037
  0
ARC
  5
1E4
100
AcDbEntity
  8
styny
  6
ByLayer
 62
  256
370
   -1
100
AcDbCircle
 10
1694.499999999999
 20
426.4687500000003
 40
160.4687499999999
100
AcDbArc
 50
75.74996730219607
 51
104.2500326978033
  0
LINE
  5
1E5
100
AcDbEntity
  8
styny
  6
ByLayer
 62
  256
370
   -1
100
AcDbLine
 10
2155.846153846154
 20
608.2307692307695
 11
2162
 21
584.0000000000005
  0
LWPOLYLINE
  5
1E6
100
AcDbEntity
  8
vikna_dveri
  6
ByLayer
 62
  256
370
   -1
100
AcDbPolyline
 90
    4
 70
    1
 43
0
 10
2157
 20
503
 10
2220
 20
503
 10
2220
 20
497
 10
2157
 20
497
  0
LINE
  5
1E7
100
AcDbEntity
  8
vikna_dveri
  6
ByLayer
 62
  256
370
   -1
100
AcDbLine
 10
2157
 20
500
 11
2220
 21
500
  0
LINE
  5
1E8
100
AcDbEntity
  8
styny
  6
ByLayer
 62
  256
370
   -1
100
AcDbLine
 10
2220.153846153846
 20
608.2307692307695
 11
2215
 21
584.0000000000005
  0
LWPOLYLINE
  5
1E9
100
AcDbEntity
  8
styny
  6
ByLayer
 62
  256
370
   -1
100
AcDbPolyline
 90
   12
 70
    0
 43
0
 10
2215
 20
584.0000000000005
 10
2215
 20
503
 10
2220
 20
503
 10
2220
 20
497
 10
2218
 20
497
 10
2218
 20
487.9999999999995
 10
2159
 20
488
 10
2159
 20
497.0000000000005
 10
2157
 20
497
 10
2157
 20
503
 10
2162
 20
503
 10
2162
 20
584.0000000000005
  0
ARC
  5
1EA
100
AcDbEntity
  8
styny
  6
ByLayer
 62
  256
370
   -1
100
AcDbCircle
 10
2188.5
 20
479.6562500000005
 40
107.65625
100
AcDbArc
 50
75.74996730219648
 51
104.2500326978037
  0
ARC
  5
1EB
100
AcDbEntity
  8
styny
  6
ByLayer
 62
  256
370
   -1
100
AcDbCircle
 10
2188.000000000001
 20
481.6250000000003
 40
130.6249999999998
100
AcDbArc
 50
75.74996730219668
 51
104.2500326978039
  0
LINE
  5
1EC
100
AcDbEntity
  8
styny
  6
ByLayer
 62
  256
370
   -1
100
AcDbLine
 10
1922.846153846154
 20
606.2307692307695
 11
1929
 21
582.0000000000005
  0
LINE
  5
1ED
100
AcDbEntity
  8
styny
  6
ByLayer
 62
  256
370
   -1
100
AcDbLine
 10
2014.153846153846
 20
606.2307692307695
 11
2008
 21
582.0000000000005
  0
LINE
  5
1EE
100
AcDbEntity
  8
vikna_dveri
  6
ByLayer
 62
  256
370
   -1
100
AcDbLine
 10
1923
 20
450
 11
2014
 21
450
  0
LWPOLYLINE
  5
1EF
100
AcDbEntity
  8
vikna_dveri
  6
ByLayer
 62
  256
370
   -1
100
AcDbPolyline
 90
    4
 70
    1
 43
0
 10
1923
 20
453
 10
2014
 20
453
 10
2014
 20
447
 10
1923
 20
447
  0
LWPOLYLINE
  5
1F0
100
AcDbEntity
  8
styny
  6
ByLayer
 62
  256
370
   -1
100
AcDbPolyline
 90
   12
 70
    0
 43
0
 10
2008
 20
582.0000000000005
 10
2008
 20
453
 10
2014
 20
453
 10
2014
 20
447
 10
2012
 20
447.0000000000006
 10
2012
 20
438.0000000000001
 10
1925
 20
438
 10
1925
 20
447.0000000000005
 10
1923
 20
447
 10
1923
 20
453
 10
1929
 20
453
 10
1929
 20
582.0000000000005
  0
LWPOLYLINE
  5
1F1
100
AcDbEntity
  8
vikna_dveri
  6
ByLayer
 62
  256
370
   -1
100
AcDbPolyline
 90
    4
 70
    1
 43
0
 10
1938.5
 20
463
 10
1998.5
 20
463
 10
1998.5
 20
569
 10
1938.5
 20
569
  0
LWPOLYLINE
  5
1F2
100
AcDbEntity
  8
vikna_dveri
  6
ByLayer
 62
  256
370
   -1
100
AcDbPolyline
 90
   21
 70
    0
 43
0
 10
1967.5
 20
569
 10
1967.5
 20
535
 10
1938.5
 20
535
 10
1938.5
 20
533
 10
1967.5
 20
533
 10
1967.5
 20
499
 10
1938.5
 20
499
 10
1938.5
 20
497
 10
1967.5
 20
497
 10
1967.5
 20
463
 10
1969.5
 20
463
 10
1969.5
 20
497
 10
1998.5
 20
497
 10
1998.5
 20
499
 10
1969.5
 20
499
 10
1969.5
 20
533
 10
1998.5
 20
533
 10
1998.5
 20
535
 10
1969.5
 20
535
 10
1969.5
 20
569
 10
1967.5
 20
569
  0
ARC
  5
1F3
100
AcDbEntity
  8
styny
  6
ByLayer
 62
  256
370
   -1
100
AcDbCircle
 10
1968.5
 20
426.4687500000013
 40
185.4687499999989
100
AcDbArc
 50
75.74996730219647
 51
104.2500326978037
  0
ARC
  5
1F4
100
AcDbEntity
  8
styny
  6
ByLayer
 62
  256
370
   -1
100
AcDbCircle
 10
1968.499999999999
 20
426.4687500000003
 40
160.4687499999999
100
AcDbArc
 50
75.74996730219607
 51
104.2500326978033
  0
LINE
  5
1F5
100
AcDbEntity
  8
styny
  6
ByLayer
 62
  256
370
   -1
100
AcDbLine
 10
564.846153846154
 20
-893.7692307692305
 11
571
 21
-917.9999999999995
  0
LINE
  5
1F6
100
AcDbEntity
  8
styny
  6
ByLayer
 62
  256
370
   -1
100
AcDbLine
 10
656.153846153846
 20
-893.7692307692305
 11
650
 21
-917.9999999999995
  0
LINE
  5
1F7
100
AcDbEntity
  8
vikna_dveri
  6
ByLayer
 62
  256
370
   -1
100
AcDbLine
 10
565
 20
-1050
 11
656
 21
-1050
  0
LWPOLYLINE
  5
1F8
100
AcDbEntity
  8
vikna_dveri
  6
ByLayer
 62
  256
370
   -1
100
AcDbPolyline
 90
    4
 70
    1
 43
0
 10
565
 20
-1047
 10
656
 20
-1047
 10
656
 20
-1053
 10
565
 20
-1053
  0
LWPOLYLINE
  5
1F9
100
AcDbEntity
  8
styny
  6
ByLayer
 62
  256
370
   -1
100
AcDbPolyline
 90
   12
 70
    0
 43
0
 10
650
 20
-917.9999999999995
 10
650
 20
-1047
 10
656
 20
-1047
 10
656
 20
-1053
 10
654
 20
-1052.999999999999
 10
654
 20
-1062
 10
567
 20
-1062
 10
567
 20
-1053
 10
565
 20
-1053
 10
565
 20
-1047
 10
571
 20
-1047
 10
571
 20
-917.9999999999995
  0
LWPOLYLINE
  5
1FA
100
AcDbEntity
  8
vikna_dveri
  6
ByLayer
 62
  256
370
   -1
100
AcDbPolyline
 90
    4
 70
    1
 43
0
 10
580.5
 20
-1037
 10
640.5
 20
-1037
 10
640.5
 20
-931
 10
580.5
 20
-931
  0
LWPOLYLINE
  5
1FB
100
AcDbEntity
  8
vikna_dveri
  6
ByLayer
 62
  256
370
   -1
100
AcDbPolyline
 90
   21
 70
    0
 43
0
 10
609.5
 20
-931
 10
609.5
 20
-965
 10
580.5
 20
-965
 10
580.5
 20
-967
 10
609.5
 20
-967
 10
609.5
 20
-1001
 10
580.5
 20
-1001
 10
580.5
 20
-1003
 10
609.5
 20
-1003
 10
609.5
 20
-1037
 10
611.5
 20
-1037
 10
611.5
 20
-1003
 10
640.5
 20
-1003
 10
640.5
 20
-1001
 10
611.5
 20
-1001
 10
611.5
 20
-967
 10
640.5
 20
-967
 10
640.5
 20
-965
 10
611.5
 20
-965
 10
611.5
 20
-931
 10
609.5
 20
-931
  0
ARC
  5
1FC
100
AcDbEntity
  8
styny
  6
ByLayer
 62
  256
370
   -1
100
AcDbCircle
 10
610.5000000000002
 20
-1073.531249999999
 40
185.4687499999989
100
AcDbArc
 50
75.74996730219647
 51
104.2500326978037
  0
ARC
  5
1FD
100
AcDbEntity
  8
styny
  6
ByLayer
 62
  256
370
   -1
100
AcDbCircle
 10
610.4999999999991
 20
-1073.53125
 40
160.4687499999999
100
AcDbArc
 50
75.74996730219607
 51
104.2500326978033
  0
LINE
  5
1FE
100
AcDbEntity
  8
styny
  6
ByLayer
 62
  256
370
   -1
100
AcDbLine
 10
1843.846153846154
 20
-893.7692307692305
 11
1850
 21
-917.9999999999995
  0
LINE
  5
1FF
100
AcDbEntity
  8
styny
  6
ByLayer
 62
  256
370
   -1
100
AcDbLine
 10
1935.153846153846
 20
-893.7692307692305
 11
1929
 21
-917.9999999999995
  0
LINE
  5
200
100
AcDbEntity
  8
vikna_dveri
  6
ByLayer
 62
  256
370
   -1
100
AcDbLine
 10
1844
 20
-1050
 11
1935
 21
-1050
  0
LWPOLYLINE
  5
201
100
AcDbEntity
  8
vikna_dveri
  6
ByLayer
 62
  256
370
   -1
100
AcDbPolyline
 90
    4
 70
    1
 43
0
 10
1844
 20
-1047
 10
1935
 20
-1047
 10
1935
 20
-1053
 10
1844
 20
-1053
  0
LWPOLYLINE
  5
202
100
AcDbEntity
  8
styny
  6
ByLayer
 62
  256
370
   -1
100
AcDbPolyline
 90
   12
 70
    0
 43
0
 10
1929
 20
-917.9999999999995
 10
1929
 20
-1047
 10
1935
 20
-1047
 10
1935
 20
-1053
 10
1933
 20
-1052.999999999999
 10
1933
 20
-1062
 10
1846
 20
-1062
 10
1846
 20
-1053
 10
1844
 20
-1053
 10
1844
 20
-1047
 10
1850
 20
-1047
 10
1850
 20
-917.9999999999995
  0
LWPOLYLINE
  5
203
100
AcDbEntity
  8
vikna_dveri
  6
ByLayer
 62
  256
370
   -1
100
AcDbPolyline
 90
    4
 70
    1
 43
0
 10
1859.5
 20
-1037
 10
1919.5
 20
-1037
 10
1919.5
 20
-931
 10
1859.5
 20
-931
  0
LWPOLYLINE
  5
204
100
AcDbEntity
  8
vikna_dveri
  6
ByLayer
 62
  256
370
   -1
100
AcDbPolyline
 90
   21
 70
    0
 43
0
 10
1888.5
 20
-931
 10
1888.5
 20
-965
 10
1859.5
 20
-965
 10
1859.5
 20
-967
 10
1888.5
 20
-967
 10
1888.5
 20
-1001
 10
1859.5
 20
-1001
 10
1859.5
 20
-1003
 10
1888.5
 20
-1003
 10
1888.5
 20
-1037
 10
1890.5
 20
-1037
 10
1890.5
 20
-1003
 10
1919.5
 20
-1003
 10
1919.5
 20
-1001
 10
1890.5
 20
-1001
 10
1890.5
 20
-967
 10
1919.5
 20
-967
 10
1919.5
 20
-965
 10
1890.5
 20
-965
 10
1890.5
 20
-931
 10
1888.5
 20
-931
  0
ARC
  5
205
100
AcDbEntity
  8
styny
  6
ByLayer
 62
  256
370
   -1
100
AcDbCircle
 10
1889.5
 20
-1073.531249999999
 40
185.4687499999989
100
AcDbArc
 50
75.74996730219647
 51
104.2500326978037
  0
ARC
  5
206
100
AcDbEntity
  8
styny
  6
ByLayer
 62
  256
370
   -1
100
AcDbCircle
 10
1889.499999999999
 20
-1073.53125
 40
160.4687499999999
100
AcDbArc
 50
75.74996730219607
 51
104.2500326978033
  0
LINE
  5
207
100
AcDbEntity
  8
styny
  6
ByLayer
 62
  256
370
   -1
100
AcDbLine
 10
2090.846153846154
 20
-893.7692307692305
 11
2097
 21
-917.9999999999995
  0
LINE
  5
208
100
AcDbEntity
  8
styny
  6
ByLayer
 62
  256
370
   -1
100
AcDbLine
 10
2182.153846153846
 20
-893.7692307692305
 11
2176
 21
-917.9999999999995
  0
LINE
  5
209
100
AcDbEntity
  8
vikna_dveri
  6
ByLayer
 62
  256
370
   -1
100
AcDbLine
 10
2091
 20
-1050
 11
2182
 21
-1050
  0
LWPOLYLINE
  5
20A
100
AcDbEntity
  8
vikna_dveri
  6
ByLayer
 62
  256
370
   -1
100
AcDbPolyline
 90
    4
 70
    1
 43
0
 10
2091
 20
-1047
 10
2182
 20
-1047
 10
2182
 20
-1053
 10
2091
 20
-1053
  0
LWPOLYLINE
  5
20B
100
AcDbEntity
  8
styny
  6
ByLayer
 62
  256
370
   -1
100
AcDbPolyline
 90
   12
 70
    0
 43
0
 10
2176
 20
-917.9999999999995
 10
2176
 20
-1047
 10
2182
 20
-1047
 10
2182
 20
-1053
 10
2180
 20
-1052.999999999999
 10
2180
 20
-1062
 10
2093
 20
-1062
 10
2093
 20
-1053
 10
2091
 20
-1053
 10
2091
 20
-1047
 10
2097
 20
-1047
 10
2097
 20
-917.9999999999995
  0
LWPOLYLINE
  5
20C
100
AcDbEntity
  8
vikna_dveri
  6
ByLayer
 62
  256
370
   -1
100
AcDbPolyline
 90
    4
 70
    1
 43
0
 10
2106.5
 20
-1037
 10
2166.5
 20
-1037
 10
2166.5
 20
-931
 10
2106.5
 20
-931
  0
LWPOLYLINE
  5
20D
100
AcDbEntity
  8
vikna_dveri
  6
ByLayer
 62
  256
370
   -1
100
AcDbPolyline
 90
   21
 70
    0
 43
0
 10
2135.5
 20
-931
 10
2135.5
 20
-965
 10
2106.5
 20
-965
 10
2106.5
 20
-967
 10
2135.5
 20
-967
 10
2135.5
 20
-1001
 10
2106.5
 20
-1001
 10
2106.5
 20
-1003
 10
2135.5
 20
-1003
 10
2135.5
 20
-1037
 10
2137.5
 20
-1037
 10
2137.5
 20
-1003
 10
2166.5
 20
-1003
 10
2166.5
 20
-1001
 10
2137.5
 20
-1001
 10
2137.5
 20
-967
 10
2166.5
 20
-967
 10
2166.5
 20
-965
 10
2137.5
 20
-965
 10
2137.5
 20
-931
 10
2135.5
 20
-931
  0
ARC
  5
20E
100
AcDbEntity
  8
styny
  6
ByLayer
 62
  256
370
   -1
100
AcDbCircle
 10
2136.5
 20
-1073.531249999999
 40
185.4687499999989
100
AcDbArc
 50
75.74996730219647
 51
104.2500326978037
  0
ARC
  5
20F
100
AcDbEntity
  8
styny
  6
ByLayer
 62
  256
370
   -1
100
AcDbCircle
 10
2136.499999999999
 20
-1073.53125
 40
160.4687499999999
100
AcDbArc
 50
75.74996730219607
 51
104.2500326978033
  0
LINE
  5
210
100
AcDbEntity
  8
styny
  6
ByLayer
 62
  256
370
   -1
100
AcDbLine
 10
2337.846153846154
 20
-893.7692307692305
 11
2344
 21
-917.9999999999995
  0
LINE
  5
211
100
AcDbEntity
  8
styny
  6
ByLayer
 62
  256
370
   -1
100
AcDbLine
 10
2429.153846153846
 20
-893.7692307692305
 11
2423
 21
-917.9999999999995
  0
LINE
  5
212
100
AcDbEntity
  8
vikna_dveri
  6
ByLayer
 62
  256
370
   -1
100
AcDbLine
 10
2338
 20
-1050
 11
2429
 21
-1050
  0
LWPOLYLINE
  5
213
100
AcDbEntity
  8
vikna_dveri
  6
ByLayer
 62
  256
370
   -1
100
AcDbPolyline
 90
    4
 70
    1
 43
0
 10
2338
 20
-1047
 10
2429
 20
-1047
 10
2429
 20
-1053
 10
2338
 20
-1053
  0
LWPOLYLINE
  5
214
100
AcDbEntity
  8
styny
  6
ByLayer
 62
  256
370
   -1
100
AcDbPolyline
 90
   12
 70
    0
 43
0
 10
2423
 20
-917.9999999999995
 10
2423
 20
-1047
 10
2429
 20
-1047
 10
2429
 20
-1053
 10
2427
 20
-1052.999999999999
 10
2427
 20
-1062
 10
2340
 20
-1062
 10
2340
 20
-1053
 10
2338
 20
-1053
 10
2338
 20
-1047
 10
2344
 20
-1047
 10
2344
 20
-917.9999999999995
  0
LWPOLYLINE
  5
215
100
AcDbEntity
  8
vikna_dveri
  6
ByLayer
 62
  256
370
   -1
100
AcDbPolyline
 90
    4
 70
    1
 43
0
 10
2353.5
 20
-1037
 10
2413.5
 20
-1037
 10
2413.5
 20
-931
 10
2353.5
 20
-931
  0
LWPOLYLINE
  5
216
100
AcDbEntity
  8
vikna_dveri
  6
ByLayer
 62
  256
370
   -1
100
AcDbPolyline
 90
   21
 70
    0
 43
0
 10
2382.5
 20
-931
 10
2382.5
 20
-965
 10
2353.5
 20
-965
 10
2353.5
 20
-967
 10
2382.5
 20
-967
 10
2382.5
 20
-1001
 10
2353.5
 20
-1001
 10
2353.5
 20
-1003
 10
2382.5
 20
-1003
 10
2382.5
 20
-1037
 10
2384.5
 20
-1037
 10
2384.5
 20
-1003
 10
2413.5
 20
-1003
 10
2413.5
 20
-1001
 10
2384.5
 20
-1001
 10
2384.5
 20
-967
 10
2413.5
 20
-967
 10
2413.5
 20
-965
 10
2384.5
 20
-965
 10
2384.5
 20
-931
 10
2382.5
 20
-931
  0
ARC
  5
217
100
AcDbEntity
  8
styny
  6
ByLayer
 62
  256
370
   -1
100
AcDbCircle
 10
2383.5
 20
-1073.531249999999
 40
185.4687499999989
100
AcDbArc
 50
75.74996730219647
 51
104.2500326978037
  0
ARC
  5
218
100
AcDbEntity
  8
styny
  6
ByLayer
 62
  256
370
   -1
100
AcDbCircle
 10
2383.499999999999
 20
-1073.53125
 40
160.4687499999999
100
AcDbArc
 50
75.74996730219607
 51
104.2500326978033
  0
LWPOLYLINE
  5
219
100
AcDbEntity
  8
shidci
  6
ByLayer
 62
  256
370
   -1
100
AcDbPolyline
 90
    4
 70
    1
 43
0
 10
1953
 20
48
 10
2073
 20
48
 10
2073
 20
0
 10
1953
 20
0
  0
LINE
  5
21A
100
AcDbEntity
  8
shidci
  6
ByLayer
 62
  256
370
   -1
100
AcDbLine
 10
1953
 20
32
 11
2073
 21
32
  0
LINE
  5
21B
100
AcDbEntity
  8
shidci
  6
ByLayer
 62
  256
370
   -1
100
AcDbLine
 10
1953
 20
16
 11
2073
 21
16
  0
LWPOLYLINE
  5
21C
100
AcDbEntity
  8
shidci
  6
ByLayer
 62
  256
370
   -1
100
AcDbPolyline
 90
    4
 70
    1
 43
0
 10
2369
 20
47.99999999999929
 10
2489
 20
47.99999999999929
 10
2489
 20
-7.105427357601002e-13
 10
2369
 20
-7.105427357601002e-13
  0
LINE
  5
21D
100
AcDbEntity
  8
shidci
  6
ByLayer
 62
  256
370
   -1
100
AcDbLine
 10
2369
 20
31.99999999999929
 11
2489
 21
31.99999999999929
  0
LINE
  5
21E
100
AcDbEntity
  8
shidci
  6
ByLayer
 62
  256
370
   -1
100
AcDbLine
 10
2369
 20
15.99999999999929
 11
2489
 21
15.99999999999929
  0
LWPOLYLINE
  5
21F
100
AcDbEntity
  8
shidci
  6
ByLayer
 62
  256
370
   -1
100
AcDbPolyline
 90
    4
 70
    1
 43
0
 10
336
 20
-1452
 10
456
 20
-1452
 10
456
 20
-1500
 10
336
 20
-1500
  0
LINE
  5
220
100
AcDbEntity
  8
shidci
  6
ByLayer
 62
  256
370
   -1
100
AcDbLine
 10
336
 20
-1468
 11
456
 21
-1468
  0
LINE
  5
221
100
AcDbEntity
  8
shidci
  6
ByLayer
 62
  256
370
   -1
100
AcDbLine
 10
336
 20
-1484
 11
456
 21
-1484
  0
LINE
  5
222
100
AcDbEntity
  8
shidci
  6
ByLayer
 62
  256
370
   -1
100
AcDbLine
 10
527
 20
28
 11
1030
 21
28
  0
LWPOLYLINE
  5
223
100
AcDbEntity
  8
shidci
  6
ByLayer
 62
  256
370
   -1
100
AcDbPolyline
 90
   13
 70
    0
 43
0
 10
527
 20
42
 10
1030
 20
42
 10
1030
 20
28
 10
1060
 20
28
 10
1060
 20
13
 10
1090
 20
13
 10
1090
 20
0
 10
467
 20
0
 10
467
 20
14
 10
497
 20
14
 10
497
 20
28
 10
527
 20
28
 10
527
 20
42
  0
LINE
  5
224
100
AcDbEntity
  8
shidci
  6
ByLayer
 62
  256
370
   -1
100
AcDbLine
 10
497
 20
14
 11
1060
 21
13
  0
LWPOLYLINE
  5
225
100
AcDbEntity
  8
decor
  6
ByLayer
 62
  256
370
   -1
100
AcDbPolyline
 90
    4
 70
    1
 43
0
 10
1500
 20
0
 10
1953
 20
0
 10
1953
 20
40
 10
1500
 20
40
  0
LWPOLYLINE
  5
226
100
AcDbEntity
  8
decor
  6
ByLayer
 62
  256
370
   -1
100
AcDbPolyline
 90
    4
 70
    1
 43
0
 10
2073
 20
0
 10
2369
 20
0
 10
2369
 20
40
 10
2073
 20
40
  0
LWPOLYLINE
  5
227
100
AcDbEntity
  8
decor
  6
ByLayer
 62
  256
370
   -1
100
AcDbPolyline
 90
    4
 70
    1
 43
0
 10
2489
 20
-7.105427357601002e-13
 10
2552
 20
0
 10
2552
 20
40
 10
2489
 20
39.99999999999929
  0
LWPOLYLINE
  5
228
100
AcDbEntity
  8
decor
  6
ByLayer
 62
  256
370
   -1
100
AcDbPolyline
 90
    4
 70
    1
 43
0
 10
0
 20
-1500
 10
336
 20
-1500
 10
336
 20
-1460
 10
0
 20
-1460
  0
LWPOLYLINE
  5
229
100
AcDbEntity
  8
decor
  6
ByLayer
 62
  256
370
   -1
100
AcDbPolyline
 90
    4
 70
    1
 43
0
 10
456
 20
-1500
 10
1000
 20
-1500
 10
1000
 20
-1460
 10
456
 20
-1460
  0
LWPOLYLINE
  5
22A
100
AcDbEntity
  8
shidci
  6
ByLayer
 62
  256
370
   -1
100
AcDbPolyline
 90
    9
 70
    0
 43
0
 10
0
 20
48
 10
-30
 20
48
 10
-30
 20
32
 10
-60
 20
32
 10
-60
 20
16
 10
-90
 20
16
 10
-90
 20
0
 10
0
 20
0
 10
0
 20
48
  0
LWPOLYLINE
  5
22B
100
AcDbEntity
  8
shidci
  6
ByLayer
 62
  256
370
   -1
100
AcDbPolyline
 90
    9
 70
    0
 43
0
 10
1500
 20
48
 10
1470
 20
48
 10
1470
 20
32
 10
1440
 20
32
 10
1440
 20
16
 10
1410
 20
16
 10
1410
 20
0
 10
1500
 20
0
 10
1500
 20
48
  0
LWPOLYLINE
  5
22C
100
AcDbEntity
  8
decor
  6
ByLayer
 62
  256
370
   -1
100
AcDbPolyline
 90
    9
 70
    0
 43
0
 10
0
 20
0
 10
0
 20
40
 10
527
 20
40
 10
527
 20
28
 10
497
 20
28
 10
497
 20
14
 10
467
 20
14
 10
467
 20
0
 10
0
 20
0
  0
LWPOLYLINE
  5
22D
100
AcDbEntity
  8
shidci
  6
ByLayer
 62
  256
370
   -1
100
AcDbPolyline
 90
    9
 70
    0
 43
0
 10
2552
 20
42
 10
2582
 20
42
 10
2582
 20
28
 10
2612
 20
28
 10
2612
 20
13
 10
2642
 20
13
 10
2642
 20
0
 10
2552
 20
0
 10
2552
 20
42
  0
LWPOLYLINE
  5
22E
100
AcDbEntity
  8
shidci
  6
ByLayer
 62
  256
370
   -1
100
AcDbPolyline
 90
    9
 70
    0
 43
0
 10
1000
 20
-1451.985
 10
1030
 20
-1451.985
 10
1030
 20
-1467.985
 10
1060
 20
-1467.985
 10
1060
 20
-1483.985
 10
1090
 20
-1483.985
 10
1090
 20
-1499.985
 10
1000
 20
-1499.985
 10
1000
 20
-1451.985
  0
LWPOLYLINE
  5
22F
100
AcDbEntity
  8
shidci
  6
ByLayer
 62
  256
370
   -1
100
AcDbPolyline
 90
    9
 70
    0
 43
0
 10
0
 20
-1458
 10
-30
 20
-1458
 10
-30
 20
-1472
 10
-60
 20
-1472
 10
-60
 20
-1487
 10
-90
 20
-1487
 10
-90
 20
-1500
 10
0
 20
-1500
 10
0
 20
-1458
  0
LWPOLYLINE
  5
230
100
AcDbEntity
  8
shidci
  6
ByLayer
 62
  256
370
   -1
100
AcDbPolyline
 90
    9
 70
    0
 43
0
 10
2552
 20
-1451.985
 10
2582
 20
-1451.985
 10
2582
 20
-1467.985
 10
2612
 20
-1467.985
 10
2612
 20
-1483.985
 10
2642
 20
-1483.985
 10
2642
 20
-1499.985
 10
2552
 20
-1499.985
 10
2552
 20
-1451.985
  0
LINE
  5
231
100
AcDbEntity
  8
shidci
  6
ByLayer
 62
  256
370
   -1
100
AcDbLine
 10
1470
 20
-1472
 11
1764
 21
-1472
  0
LWPOLYLINE
  5
232
100
AcDbEntity
  8
shidci
  6
ByLayer
 62
  256
370
   -1
100
AcDbPolyline
 90
   13
 70
    0
 43
0
 10
1470
 20
-1458
 10
1764
 20
-1458
 10
1764
 20
-1472
 10
1794
 20
-1472
 10
1794
 20
-1487
 10
1824
 20
-1487
 10
1824
 20
-1500
 10
1410
 20
-1500
 10
1410
 20
-1486
 10
1440
 20
-1486
 10
1440
 20
-1472
 10
1470
 20
-1472
 10
1470
 20
-1458
  0
LINE
  5
233
100
AcDbEntity
  8
shidci
  6
ByLayer
 62
  256
370
   -1
100
AcDbLine
 10
1440
 20
-1486
 11
1794
 21
-1487
  0
LWPOLYLINE
  5
234
100
AcDbEntity
  8
decor
  6
ByLayer
 62
  256
370
   -1
100
AcDbPolyline
 90
    9
 70
    0
 43
0
 10
2552
 20
-1499.985
 10
2552
 20
-1459.985
 10
1764
 20
-1460
 10
1764
 20
-1472
 10
1794
 20
-1472
 10
1794
 20
-1486
 10
1824
 20
-1486
 10
1824
 20
-1500
 10
2552
 20
-1499.985
  0
DIMENSION
  5
235
100
AcDbEntity
  8
dimensions
  6
ByLayer
 62
  256
370
   -1
100
AcDbDimension
  2
*D1
 10
1062.053474058641
 20
1200
 30
0
 11
500.0000000000009
 21
1240
 31
0
 70
   32
 71
    5
  3
Standard
 53
0
210
0
220
0
230
1
100
AcDbAlignedDimension
 13
-62.05347405863904
 23
669.5187174072751
 33
0
 14
1062.053474058641
 24
669.5187174072739
 34
0
100
AcDbRotatedDimension
  0
DIMENSION
  5
236
100
AcDbEntity
  8
dimensions
  6
ByLayer
 62
  256
370
   -1
100
AcDbDimension
  2
*D2
 10
2614.053474058641
 20
1200
 30
0
 11
2026.000000000001
 21
1240
 31
0
 70
   32
 71
    5
  3
Standard
 53
0
210
0
220
0
230
1
100
AcDbAlignedDimension
 13
1437.946525941361
 23
669.5187174072751
 33
0
 14
2614.053474058641
 24
669.5187174072737
 34
0
100
AcDbRotatedDimension
  0
DIMENSION
  5
237
100
AcDbEntity
  8
dimensions
  6
ByLayer
 62
  256
370
   -1
100
AcDbDimension
  2
*D3
 10
-200
 20
0
 30
0
 11
-240
 21
20
 31
0
 70
   32
 71
    5
  3
Standard
 53
0
210
0
220
0
230
1
100
AcDbAlignedDimension
 13
0
 23
0
 33
0
 14
0
 24
40
 34
0
 50
90
100
AcDbRotatedDimension
  0
DIMENSION
  5
238
100
AcDbEntity
  8
dimensions
  6
ByLayer
 62
  256
370
   -1
100
AcDbDimension
  2
*D4
 10
-200
 20
600
 30
0
 11
-240
 21
343
 31
0
 70
   32
 71
    5
  3
Standard
 53
0
210
0
220
0
230
1
100
AcDbAlignedDimension
 13
0
 23
40
 33
0
 14
0
 24
646
 34
0
 50
90
100
AcDbRotatedDimension
  0
DIMENSION
  5
239
100
AcDbEntity
  8
dimensions
  6
ByLayer
 62
  256
370
   -1
100
AcDbDimension
  2
*D5
 10
-200
 20
650
 30
0
 11
-240
 21
825.8735674622487
 31
0
 70
   32
 71
    5
  3
Standard
 53
0
210
0
220
0
230
1
100
AcDbAlignedDimension
 13
499.9999999999991
 23
1005.747134924497
 33
0
 14
0
 24
646
 34
0
 50
90
100
AcDbRotatedDimension
  0
DIMENSION
  5
23A
100
AcDbEntity
  8
dimensions
  6
ByLayer
 62
  256
370
   -1
100
AcDbDimension
  2
*D6
 10
1000
 20
-200
 30
0
 11
500
 21
-160
 31
0
 70
   32
 71
    5
  3
Standard
 53
0
210
0
220
0
230
1
100
AcDbAlignedDimension
 13
0
 23
0
 33
0
 14
1000
 24
0
 34
0
100
AcDbRotatedDimension
  0
DIMENSION
  5
23B
100
AcDbEntity
  8
dimensions
  6
ByLayer
 62
  256
370
   -1
100
AcDbDimension
  2
*D7
 10
2500
 20
-200
 30
0
 11
2026
 21
-160
 31
0
 70
   32
 71
    5
  3
Standard
 53
0
210
0
220
0
230
1
100
AcDbAlignedDimension
 13
1500
 23
0
 33
0
 14
2552
 24
0
 34
0
100
AcDbRotatedDimension
  0
MTEXT
  5
23C
100
AcDbEntity
  8
dimensions
  6
ByLayer
 62
  256
370
   -1
100
AcDbMText
 10
1300
 20
1500
 30
0
 40
50
 41
625.2166666666667
 71
    5
 72
    1
  1
 
  7
cyrillic_ii
210
0
220
0
230
1
 50
0
 73
    2
 44
1
  0
LINE
  5
23D
100
AcDbEntity
  8
dimensions
  6
ByLayer
 62
  256
370
   -1
100
AcDbLine
 10
980
 20
1460
 11
1620
 21
1460
  0
MTEXT
  5
23E
100
AcDbEntity
  8
dimensions
  6
ByLayer
 62
  256
370
   -1
100
AcDbMText
 10
2815.277777777778
 20
-1775
 30
0
 40
50
 41
193.0555555555579
 71
    6
 72
    1
  1
. 1
  7
cyrillic_ii
210
0
220
0
230
1
 50
0
 73
    2
 44
1
  0
MTEXT
  5
23F
100
AcDbEntity
  8
dimensions
  6
ByLayer
 62
  256
370
   -1
100
AcDbMText
 10
2
 20
-1706
 30
0
 40
50
 41
793.0555555555555
 71
    1
 72
    1
  1
   
  7
cyrillic_ii
210
0
220
0
230
1
 50
0
 73
    2
 44
1
  0
LINE
  5
240
100
AcDbEntity
  8
dimensions
  6
ByLayer
 62
  256
370
   50
100
AcDbLine
 10
-30
 20
200
 11
-60
 21
200
  0
LEADER
  5
241
100
AcDbEntity
  8
dimensions
  6
ByLayer
 62
  256
370
   -1
100
AcDbLeader
  3
Standard
 71
    1
 72
    0
 73
    3
 74
    0
 75
    0
 40
1
 41
10
 76
2
 76
2
 10
-40
 20
200
 30
0
 10
-40
 20
260
 30
0
  0
MTEXT
  5
242
100
AcDbEntity
  8
dimensions
  6
ByLayer
 62
  256
370
   -1
100
AcDbMText
 10
-53.33333333333258
 20
240
 30
0
 40
40
 41
26.66666666666667
 71
    6
 72
    1
  1

  7
cyrillic_ii
210
0
220
0
230
1
 50
0
 73
    2
 44
1
  0
LINE
  5
243
100
AcDbEntity
  8
dimensions
  6
ByLayer
 62
  256
370
   50
100
AcDbLine
 10
1063.999999999996
 20
200
 11
1033.999999999996
 21
200
  0
LEADER
  5
244
100
AcDbEntity
  8
dimensions
  6
ByLayer
 62
  256
370
   -1
100
AcDbLeader
  3
Standard
 71
    1
 72
    0
 73
    3
 74
    0
 75
    0
 40
1
 41
10
 76
2
 76
2
 10
1053.999999999996
 20
200
 30
0
 10
1053.999999999996
 20
260
 30
0
  0
MTEXT
  5
245
100
AcDbEntity
  8
dimensions
  6
ByLayer
 62
  256
370
   -1
100
AcDbMText
 10
1100.666666666664
 20
260
 30
0
 40
40
 41
26.66666666666667
 71
    6
 72
    1
  1

  7
cyrillic_ii
210
0
220
0
230
1
 50
0
 73
    2
 44
1
  0
MTEXT
  5
246
100
AcDbEntity
  8
dimensions
  6
ByLayer
 62
  256
370
   -1
100
AcDbMText
 10
-50
 20
580
 30
0
 40
40
 41
22.2222222222252
 71
    6
 72
    1
  1

  7
cyrillic_ii
210
0
220
0
230
1
 50
0
 73
    2
 44
1
  0
LINE
  5
247
100
AcDbEntity
  8
dimensions
  6
ByLayer
 62
  256
370
   50
100
AcDbLine
 10
-30
 20
540
 11
-60
 21
540
  0
LEADER
  5
248
100
AcDbEntity
  8
dimensions
  6
ByLayer
 62
  256
370
   -1
100
AcDbLeader
  3
Standard
 71
    1
 72
    0
 73
    3
 74
    0
 75
    0
 40
1
 41
10
 76
2
 76
2
 10
-40
 20
540
 30
0
 10
-40
 20
600
 30
0
  0
LINE
  5
249
100
AcDbEntity
  8
dimensions
  6
ByLayer
 62
  256
370
   50
100
AcDbLine
 10
1063.999999999996
 20
540
 11
1033.999999999996
 21
540
  0
LEADER
  5
24A
100
AcDbEntity
  8
dimensions
  6
ByLayer
 62
  256
370
   -1
100
AcDbLeader
  3
Standard
 71
    1
 72
    0
 73
    3
 74
    0
 75
    0
 40
1
 41
10
 76
2
 76
2
 10
1053.999999999996
 20
540
 30
0
 10
1053.999999999996
 20
600
 30
0
  0
MTEXT
  5
24B
100
AcDbEntity
  8
dimensions
  6
ByLayer
 62
  256
370
   -1
100
AcDbMText
 10
1096.222222222223
 20
600
 30
0
 40
40
 41
22.2222222222252
 71
    6
 72
    1
  1

  7
cyrillic_ii
210
0
220
0
230
1
 50
0
 73
    2
 44
1
  0
LWPOLYLINE
  5
24C
100
AcDbEntity
  8
styny
  6
CONTINUOUS
 62
   41
420
16376252
370
   -1
100
AcDbPolyline
 90
    6
 70
    0
 43
0
 10
468
 20
986.6042777816396
 10
468
 20
1050
 10
532
 20
1050
 10
532.0000000000003
 20
986.604277781639
 10
499.999999999999
 20
1005.747134924497
 10
468
 20
986.6042777816396
  0
LWPOLYLINE
  5
24D
100
AcDbEntity
  8
styny
  6
ByLayer
 62
  256
370
   -1
100
AcDbPolyline
 90
    5
 70
    0
 43
0
 10
2000.5
 20
986.6
 10
2000.5
 20
1050
 10
2051.5
 20
1050
 10
2051.5
 20
986.6
 10
2000.5
 20
986.6
  0
LWPOLYLINE
  5
24E
100
AcDbEntity
  8
decor
  6
ByLayer
 62
  256
370
   -1
100
AcDbPolyline
 90
    5
 70
    1
 43
0
 10
-50
 20
666.000768253161
 10
1050
 20
666.000768253161
 10
1050
 20
646
 10
-50
 20
646
 10
-50
 20
646
  0
LWPOLYLINE
  5
24F
100
AcDbEntity
  8
shyfer
  6
ByLayer
 62
  256
370
   -1
100
AcDbPolyline
 90
    6
 70
    0
 43
0
 10
-60
 20
666.0860443540269
 10
-62.05347405863904
 20
669.5187174072751
 10
500
 20
1005.747134924497
 10
1062.053474058641
 20
669.5187174072739
 10
1060
 20
666.086044354027
 10
-60
 20
666
  0
LINE
  5
250
100
AcDbEntity
  8
shyfer
  6
ByLayer
 62
  256
370
   -1
100
AcDbLine
 10
-62.0535
 20
669.519
 11
1062.05
 21
669.519
  0
LWPOLYLINE
  5
251
100
AcDbEntity
  8
styny
  6
CONTINUOUS
 62
   41
420
16376252
370
   -1
100
AcDbPolyline
 90
    6
 70
    0
 43
0
 10
468
 20
-513.3957222183604
 10
468
 20
-450
 10
532
 20
-450
 10
532.0000000000003
 20
-513.395722218361
 10
499.999999999999
 20
-494.252865075503
 10
468
 20
-513.3957222183604
  0
LWPOLYLINE
  5
252
100
AcDbEntity
  8
styny
  6
ByLayer
 62
  256
370
   -1
100
AcDbPolyline
 90
    4
 70
    1
 43
0
 10
0
 20
-1460
 10
1000
 20
-1460
 10
1000
 20
-854
 10
0
 20
-854
  0
LWPOLYLINE
  5
253
100
AcDbEntity
  8
styny
  6
ByLayer
 62
  256
370
   -1
100
AcDbPolyline
 90
    4
 70
    1
 43
0
 10
1500
 20
-1460
 10
2552
 20
-1460
 10
2552
 20
-854
 10
1500
 20
-854
  0
LINE
  5
254
100
AcDbEntity
  8
vikna_dveri
  6
ByLayer
 62
  256
370
   -1
100
AcDbLine
 10
149
 20
128
 11
240
 21
128
  0
LWPOLYLINE
  5
255
100
AcDbEntity
  8
vikna_dveri
  6
ByLayer
 62
  256
370
   -1
100
AcDbPolyline
 90
    4
 70
    1
 43
0
 10
149
 20
131
 10
240
 20
131
 10
240
 20
125
 10
149
 20
125
  0
LWPOLYLINE
  5
256
100
AcDbEntity
  8
vikna_dveri
  6
ByLayer
 62
  256
370
   -1
100
AcDbPolyline
 90
    4
 70
    1
 43
0
 10
164.5
 20
141
 10
224.5
 20
141
 10
224.5
 20
247
 10
164.5
 20
247
  0
LWPOLYLINE
  5
257
100
AcDbEntity
  8
vikna_dveri
  6
ByLayer
 62
  256
370
   -1
100
AcDbPolyline
 90
   21
 70
    0
 43
0
 10
193.5
 20
247
 10
193.5
 20
213
 10
164.5
 20
213
 10
164.5
 20
211
 10
193.5
 20
211
 10
193.5
 20
177
 10
164.5
 20
177
 10
164.5
 20
175
 10
193.5
 20
175
 10
193.5
 20
141
 10
195.5
 20
141
 10
195.5
 20
175
 10
224.5
 20
175
 10
224.5
 20
177
 10
195.5
 20
177
 10
195.5
 20
211
 10
224.5
 20
211
 10
224.5
 20
213
 10
195.5
 20
213
 10
195.5
 20
247
 10
193.5
 20
247
  0
LINE
  5
258
100
AcDbEntity
  8
vikna_dveri
  6
ByLayer
 62
  256
370
   -1
100
AcDbLine
 10
396
 20
128
 11
487
 21
128
  0
LWPOLYLINE
  5
259
100
AcDbEntity
  8
vikna_dveri
  6
ByLayer
 62
  256
370
   -1
100
AcDbPolyline
 90
    4
 70
    1
 43
0
 10
396
 20
131
 10
487
 20
131
 10
487
 20
125
 10
396
 20
125
  0
LWPOLYLINE
  5
25A
100
AcDbEntity
  8
vikna_dveri
  6
ByLayer
 62
  256
370
   -1
100
AcDbPolyline
 90
    4
 70
    1
 43
0
 10
411.5
 20
141
 10
471.5
 20
141
 10
471.5
 20
247
 10
411.5
 20
247
  0
LWPOLYLINE
  5
25B
100
AcDbEntity
  8
vikna_dveri
  6
ByLayer
 62
  256
370
   -1
100
AcDbPolyline
 90
   21
 70
    0
 43
0
 10
440.5
 20
247
 10
440.5
 20
213
 10
411.5
 20
213
 10
411.5
 20
211
 10
440.5
 20
211
 10
440.5
 20
177
 10
411.5
 20
177
 10
411.5
 20
175
 10
440.5
 20
175
 10
440.5
 20
141
 10
442.5
 20
141
 10
442.5
 20
175
 10
471.5
 20
175
 10
471.5
 20
177
 10
442.5
 20
177
 10
442.5
 20
211
 10
471.5
 20
211
 10
471.5
 20
213
 10
442.5
 20
213
 10
442.5
 20
247
 10
440.5
 20
247
  0
LINE
  5
25C
100
AcDbEntity
  8
vikna_dveri
  6
ByLayer
 62
  256
370
   -1
100
AcDbLine
 10
1649
 20
128
 11
1740
 21
128
  0
LWPOLYLINE
  5
25D
100
AcDbEntity
  8
vikna_dveri
  6
ByLayer
 62
  256
370
   -1
100
AcDbPolyline
 90
    4
 70
    1
 43
0
 10
1649
 20
131
 10
1740
 20
131
 10
1740
 20
125
 10
1649
 20
125
  0
LWPOLYLINE
  5
25E
100
AcDbEntity
  8
vikna_dveri
  6
ByLayer
 62
  256
370
   -1
100
AcDbPolyline
 90
    4
 70
    1
 43
0
 10
1664.5
 20
141
 10
1724.5
 20
141
 10
1724.5
 20
247
 10
1664.5
 20
247
  0
LWPOLYLINE
  5
25F
100
AcDbEntity
  8
vikna_dveri
  6
ByLayer
 62
  256
370
   -1
100
AcDbPolyline
 90
   21
 70
    0
 43
0
 10
1693.5
 20
247
 10
1693.5
 20
213
 10
1664.5
 20
213
 10
1664.5
 20
211
 10
1693.5
 20
211
 10
1693.5
 20
177
 10
1664.5
 20
177
 10
1664.5
 20
175
 10
1693.5
 20
175
 10
1693.5
 20
141
 10
1695.5
 20
141
 10
1695.5
 20
175
 10
1724.5
 20
175
 10
1724.5
 20
177
 10
1695.5
 20
177
 10
1695.5
 20
211
 10
1724.5
 20
211
 10
1724.5
 20
213
 10
1695.5
 20
213
 10
1695.5
 20
247
 10
1693.5
 20
247
  0
LINE
  5
260
100
AcDbEntity
  8
vikna_dveri
  6
ByLayer
 62
  256
370
   -1
100
AcDbLine
 10
565
 20
-1372
 11
656
 21
-1372
  0
LWPOLYLINE
  5
261
100
AcDbEntity
  8
vikna_dveri
  6
ByLayer
 62
  256
370
   -1
100
AcDbPolyline
 90
    4
 70
    1
 43
0
 10
565
 20
-1369
 10
656
 20
-1369
 10
656
 20
-1375
 10
565
 20
-1375
  0
LWPOLYLINE
  5
262
100
AcDbEntity
  8
vikna_dveri
  6
ByLayer
 62
  256
370
   -1
100
AcDbPolyline
 90
    4
 70
    1
 43
0
 10
580.5
 20
-1359
 10
640.5
 20
-1359
 10
640.5
 20
-1253
 10
580.5
 20
-1253
  0
LWPOLYLINE
  5
263
100
AcDbEntity
  8
vikna_dveri
  6
ByLayer
 62
  256
370
   -1
100
AcDbPolyline
 90
   21
 70
    0
 43
0
 10
609.5
 20
-1253
 10
609.5
 20
-1287
 10
580.5
 20
-1287
 10
580.5
 20
-1289
 10
609.5
 20
-1289
 10
609.5
 20
-1323
 10
580.5
 20
-1323
 10
580.5
 20
-1325
 10
609.5
 20
-1325
 10
609.5
 20
-1359
 10
611.5
 20
-1359
 10
611.5
 20
-1325
 10
640.5
 20
-1325
 10
640.5
 20
-1323
 10
611.5
 20
-1323
 10
611.5
 20
-1289
 10
640.5
 20
-1289
 10
640.5
 20
-1287
 10
611.5
 20
-1287
 10
611.5
 20
-1253
 10
609.5
 20
-1253
  0
LWPOLYLINE
  5
264
100
AcDbEntity
  8
vikna_dveri
  6
ByLayer
 62
  256
370
   -1
100
AcDbPolyline
 90
    4
 70
    1
 43
0
 10
1897
 20
-1369
 10
2051
 20
-1369
 10
2051
 20
-1375
 10
1897
 20
-1375
  0
LINE
  5
265
100
AcDbEntity
  8
vikna_dveri
  6
ByLayer
 62
  256
370
   -1
100
AcDbLine
 10
1897
 20
-1372
 11
2051
 21
-1372
  0
LWPOLYLINE
  5
266
100
AcDbEntity
  8
vikna_dveri
  6
ByLayer
 62
  256
370
   -1
100
AcDbPolyline
 90
    4
 70
    1
 43
0
 10
1910
 20
-1359
 10
1970
 20
-1359
 10
1970
 20
-1253
 10
1910
 20
-1253
  0
LWPOLYLINE
  5
267
100
AcDbEntity
  8
vikna_dveri
  6
ByLayer
 62
  256
370
   -1
100
AcDbPolyline
 90
   21
 70
    0
 43
0
 10
1939
 20
-1253
 10
1939
 20
-1287
 10
1910
 20
-1287
 10
1910
 20
-1289
 10
1939
 20
-1289
 10
1939
 20
-1323
 10
1910
 20
-1323
 10
1910
 20
-1325
 10
1939
 20
-1325
 10
1939
 20
-1359
 10
1941
 20
-1359
 10
1941
 20
-1325
 10
1970
 20
-1325
 10
1970
 20
-1323
 10
1941
 20
-1323
 10
1941
 20
-1289
 10
1970
 20
-1289
 10
1970
 20
-1287
 10
1941
 20
-1287
 10
1941
 20
-1253
 10
1939
 20
-1253
  0
LWPOLYLINE
  5
268
100
AcDbEntity
  8
vikna_dveri
  6
ByLayer
 62
  256
370
   -1
100
AcDbPolyline
 90
    4
 70
    1
 43
0
 10
1978
 20
-1359
 10
2038
 20
-1359
 10
2038
 20
-1253
 10
1978
 20
-1253
  0
LWPOLYLINE
  5
269
100
AcDbEntity
  8
vikna_dveri
  6
ByLayer
 62
  256
370
   -1
100
AcDbPolyline
 90
   21
 70
    0
 43
0
 10
2007
 20
-1253
 10
2007
 20
-1287
 10
1978
 20
-1287
 10
1978
 20
-1289
 10
2007
 20
-1289
 10
2007
 20
-1323
 10
1978
 20
-1323
 10
1978
 20
-1325
 10
2007
 20
-1325
 10
2007
 20
-1359
 10
2009
 20
-1359
 10
2009
 20
-1325
 10
2038
 20
-1325
 10
2038
 20
-1323
 10
2009
 20
-1323
 10
2009
 20
-1289
 10
2038
 20
-1289
 10
2038
 20
-1287
 10
2009
 20
-1287
 10
2009
 20
-1253
 10
2007
 20
-1253
  0
LWPOLYLINE
  5
26A
100
AcDbEntity
  8
vikna_dveri
  6
ByLayer
 62
  256
370
   -1
100
AcDbPolyline
 90
    4
 70
    1
 43
0
 10
2222
 20
-1369
 10
2376
 20
-1369
 10
2376
 20
-1375
 10
2222
 20
-1375
  0
LINE
  5
26B
100
AcDbEntity
  8
vikna_dveri
  6
ByLayer
 62
  256
370
   -1
100
AcDbLine
 10
2222
 20
-1372
 11
2376
 21
-1372
  0
LWPOLYLINE
  5
26C
100
AcDbEntity
  8
vikna_dveri
  6
ByLayer
 62
  256
370
   -1
100
AcDbPolyline
 90
    4
 70
    1
 43
0
 10
2235
 20
-1359
 10
2295
 20
-1359
 10
2295
 20
-1253
 10
2235
 20
-1253
  0
LWPOLYLINE
  5
26D
100
AcDbEntity
  8
vikna_dveri
  6
ByLayer
 62
  256
370
   -1
100
AcDbPolyline
 90
   21
 70
    0
 43
0
 10
2264
 20
-1253
 10
2264
 20
-1287
 10
2235
 20
-1287
 10
2235
 20
-1289
 10
2264
 20
-1289
 10
2264
 20
-1323
 10
2235
 20
-1323
 10
2235
 20
-1325
 10
2264
 20
-1325
 10
2264
 20
-1359
 10
2266
 20
-1359
 10
2266
 20
-1325
 10
2295
 20
-1325
 10
2295
 20
-1323
 10
2266
 20
-1323
 10
2266
 20
-1289
 10
2295
 20
-1289
 10
2295
 20
-1287
 10
2266
 20
-1287
 10
2266
 20
-1253
 10
2264
 20
-1253
  0
LWPOLYLINE
  5
26E
100
AcDbEntity
  8
vikna_dveri
  6
ByLayer
 62
  256
370
   -1
100
AcDbPolyline
 90
    4
 70
    1
 43
0
 10
2303
 20
-1359
 10
2363
 20
-1359
 10
2363
 20
-1253
 10
2303
 20
-1253
  0
LWPOLYLINE
  5
26F
100
AcDbEntity
  8
vikna_dveri
  6
ByLayer
 62
  256
370
   -1
100
AcDbPolyline
 90
   21
 70
    0
 43
0
 10
2332
 20
-1253
 10
2332
 20
-1287
 10
2303
 20
-1287
 10
2303
 20
-1289
 10
2332
 20
-1289
 10
2332
 20
-1323
 10
2303
 20
-1323
 10
2303
 20
-1325
 10
2332
 20
-1325
 10
2332
 20
-1359
 10
2334
 20
-1359
 10
2334
 20
-1325
 10
2363
 20
-1325
 10
2363
 20
-1323
 10
2334
 20
-1323
 10
2334
 20
-1289
 10
2363
 20
-1289
 10
2363
 20
-1287
 10
2334
 20
-1287
 10
2334
 20
-1253
 10
2332
 20
-1253
  0
LWPOLYLINE
  5
270
100
AcDbEntity
  8
styny
  6
ByLayer
 62
  256
370
   -1
100
AcDbPolyline
 90
    4
 70
    1
 43
0
 10
2140
 20
41
 10
2115
 20
41
 10
2115
 20
47.5
 10
2140
 20
47.5
  0
LWPOLYLINE
  5
271
100
AcDbEntity
  8
styny
  6
ByLayer
 62
  256
370
   -1
100
AcDbPolyline
 90
    4
 70
    1
 43
0
 10
2140
 20
48.5
 10
2115
 20
48.5
 10
2115
 20
55
 10
2140
 20
55
  0
LWPOLYLINE
  5
272
100
AcDbEntity
  8
styny
  6
ByLayer
 62
  256
370
   -1
100
AcDbPolyline
 90
    4
 70
    1
 43
0
 10
2140
 20
56
 10
2115.000000000001
 20
56
 10
2115.000000000001
 20
62.5
 10
2140
 20
62.5
  0
LWPOLYLINE
  5
273
100
AcDbEntity
  8
styny
  6
ByLayer
 62
  256
370
   -1
100
AcDbPolyline
 90
    4
 70
    1
 43
0
 10
2140.000000000001
 20
63.5
 10
2115.000000000001
 20
63.5
 10
2115.000000000001
 20
70
 10
2140.000000000001
 20
70
  0
LWPOLYLINE
  5
274
100
AcDbEntity
  8
styny
  6
ByLayer
 62
  256
370
   -1
100
AcDbPolyline
 90
    4
 70
    1
 43
0
 10
2140.000000000001
 20
71
 10
2115.000000000001
 20
71
 10
2115.000000000001
 20
77.5
 10
2140.000000000001
 20
77.5
  0
LWPOLYLINE
  5
275
100
AcDbEntity
  8
styny
  6
ByLayer
 62
  256
370
   -1
100
AcDbPolyline
 90
    4
 70
    1
 43
0
 10
2140.000000000001
 20
78.5
 10
2115.000000000001
 20
78.5
 10
2115.000000000001
 20
85
 10
2140.000000000001
 20
85
  0
LWPOLYLINE
  5
276
100
AcDbEntity
  8
styny
  6
ByLayer
 62
  256
370
   -1
100
AcDbPolyline
 90
    4
 70
    1
 43
0
 10
2140.000000000001
 20
86
 10
2115.000000000002
 20
86
 10
2115.000000000002
 20
92.5
 10
2140.000000000001
 20
92.5
  0
LWPOLYLINE
  5
277
100
AcDbEntity
  8
styny
  6
ByLayer
 62
  256
370
   -1
100
AcDbPolyline
 90
    4
 70
    1
 43
0
 10
2140.000000000002
 20
93.5
 10
2115.000000000002
 20
93.5
 10
2115.000000000002
 20
100
 10
2140.000000000002
 20
100
  0
LWPOLYLINE
  5
278
100
AcDbEntity
  8
styny
  6
ByLayer
 62
  256
370
   -1
100
AcDbPolyline
 90
    4
 70
    1
 43
0
 10
2140.000000000002
 20
101
 10
2115.000000000002
 20
101
 10
2115.000000000002
 20
107.5
 10
2140.000000000002
 20
107.5
  0
LWPOLYLINE
  5
279
100
AcDbEntity
  8
styny
  6
ByLayer
 62
  256
370
   -1
100
AcDbPolyline
 90
    4
 70
    1
 43
0
 10
2140.000000000002
 20
108.5
 10
2115.000000000002
 20
108.5
 10
2115.000000000002
 20
115
 10
2140.000000000002
 20
115
  0
LWPOLYLINE
  5
27A
100
AcDbEntity
  8
styny
  6
ByLayer
 62
  256
370
   -1
100
AcDbPolyline
 90
    4
 70
    1
 43
0
 10
2140.000000000002
 20
116
 10
2115.000000000003
 20
116
 10
2115.000000000003
 20
122.5
 10
2140.000000000002
 20
122.5
  0
LWPOLYLINE
  5
27B
100
AcDbEntity
  8
styny
  6
ByLayer
 62
  256
370
   -1
100
AcDbPolyline
 90
    4
 70
    1
 43
0
 10
2140
 20
123.5
 10
2115
 20
123.5
 10
2115
 20
130
 10
2140
 20
130
  0
LWPOLYLINE
  5
27C
100
AcDbEntity
  8
styny
  6
ByLayer
 62
  256
370
   -1
100
AcDbPolyline
 90
    4
 70
    1
 43
0
 10
2140
 20
131
 10
2115
 20
131
 10
2115
 20
137.5
 10
2140
 20
137.5
  0
LWPOLYLINE
  5
27D
100
AcDbEntity
  8
styny
  6
ByLayer
 62
  256
370
   -1
100
AcDbPolyline
 90
    4
 70
    1
 43
0
 10
2140
 20
138.5
 10
2115.000000000001
 20
138.5
 10
2115.000000000001
 20
145
 10
2140
 20
145
  0
LWPOLYLINE
  5
27E
100
AcDbEntity
  8
styny
  6
ByLayer
 62
  256
370
   -1
100
AcDbPolyline
 90
    4
 70
    1
 43
0
 10
2140.000000000001
 20
146
 10
2115.000000000001
 20
146
 10
2115.000000000001
 20
152.5
 10
2140.000000000001
 20
152.5
  0
LWPOLYLINE
  5
27F
100
AcDbEntity
  8
styny
  6
ByLayer
 62
  256
370
   -1
100
AcDbPolyline
 90
    4
 70
    1
 43
0
 10
2140.000000000001
 20
153.5
 10
2115.000000000001
 20
153.5
 10
2115.000000000001
 20
160
 10
2140.000000000001
 20
160
  0
LWPOLYLINE
  5
280
100
AcDbEntity
  8
styny
  6
ByLayer
 62
  256
370
   -1
100
AcDbPolyline
 90
    4
 70
    1
 43
0
 10
2140.000000000001
 20
161
 10
2115.000000000001
 20
161
 10
2115.000000000001
 20
167.5
 10
2140.000000000001
 20
167.5
  0
LWPOLYLINE
  5
281
100
AcDbEntity
  8
styny
  6
ByLayer
 62
  256
370
   -1
100
AcDbPolyline
 90
    4
 70
    1
 43
0
 10
2140.000000000001
 20
168.5
 10
2115.000000000002
 20
168.5
 10
2115.000000000002
 20
175
 10
2140.000000000001
 20
175
  0
LWPOLYLINE
  5
282
100
AcDbEntity
  8
styny
  6
ByLayer
 62
  256
370
   -1
100
AcDbPolyline
 90
    4
 70
    1
 43
0
 10
2140.000000000002
 20
176
 10
2115.000000000002
 20
176
 10
2115.000000000002
 20
182.5
 10
2140.000000000002
 20
182.5
  0
LWPOLYLINE
  5
283
100
AcDbEntity
  8
styny
  6
ByLayer
 62
  256
370
   -1
100
AcDbPolyline
 90
    4
 70
    1
 43
0
 10
2140.000000000002
 20
183.5
 10
2115.000000000002
 20
183.5
 10
2115.000000000002
 20
190
 10
2140.000000000002
 20
190
  0
LWPOLYLINE
  5
284
100
AcDbEntity
  8
styny
  6
ByLayer
 62
  256
370
   -1
100
AcDbPolyline
 90
    4
 70
    1
 43
0
 10
2140.000000000002
 20
191
 10
2115.000000000002
 20
191
 10
2115.000000000002
 20
197.5
 10
2140.000000000002
 20
197.5
  0
LWPOLYLINE
  5
285
100
AcDbEntity
  8
styny
  6
ByLayer
 62
  256
370
   -1
100
AcDbPolyline
 90
    4
 70
    1
 43
0
 10
2140.000000000002
 20
198.5
 10
2115.000000000003
 20
198.5
 10
2115.000000000003
 20
205
 10
2140.000000000002
 20
205
  0
LWPOLYLINE
  5
286
100
AcDbEntity
  8
vikna_dveri
  6
ByLayer
 62
  256
370
   -1
100
AcDbPolyline
 90
    4
 70
    1
 43
0
 10
2171
 20
513
 10
2206
 20
513
 10
2206
 20
571
 10
2171
 20
571
  0
LWPOLYLINE
  5
287
100
AcDbEntity
  8
styny
  6
ByLayer
 62
  256
370
   -1
100
AcDbPolyline
 90
    4
 70
    1
 43
0
 10
2140
 20
206
 10
2115
 20
206
 10
2115
 20
212.5
 10
2140
 20
212.5
  0
LWPOLYLINE
  5
288
100
AcDbEntity
  8
styny
  6
ByLayer
 62
  256
370
   -1
100
AcDbPolyline
 90
    4
 70
    1
 43
0
 10
2140
 20
213.5
 10
2115
 20
213.5
 10
2115
 20
220
 10
2140
 20
220
  0
LWPOLYLINE
  5
289
100
AcDbEntity
  8
styny
  6
ByLayer
 62
  256
370
   -1
100
AcDbPolyline
 90
    4
 70
    1
 43
0
 10
2140
 20
221
 10
2115.000000000001
 20
221
 10
2115.000000000001
 20
227.5
 10
2140
 20
227.5
  0
LWPOLYLINE
  5
28A
100
AcDbEntity
  8
styny
  6
ByLayer
 62
  256
370
   -1
100
AcDbPolyline
 90
    4
 70
    1
 43
0
 10
2140.000000000001
 20
228.5
 10
2115.000000000001
 20
228.5
 10
2115.000000000001
 20
235
 10
2140.000000000001
 20
235
  0
LWPOLYLINE
  5
28B
100
AcDbEntity
  8
styny
  6
ByLayer
 62
  256
370
   -1
100
AcDbPolyline
 90
    4
 70
    1
 43
0
 10
2140.000000000001
 20
236
 10
2115.000000000001
 20
236
 10
2115.000000000001
 20
242.5
 10
2140.000000000001
 20
242.5
  0
LWPOLYLINE
  5
28C
100
AcDbEntity
  8
styny
  6
ByLayer
 62
  256
370
   -1
100
AcDbPolyline
 90
    4
 70
    1
 43
0
 10
2140.000000000001
 20
243.5
 10
2115.000000000001
 20
243.5
 10
2115.000000000001
 20
250
 10
2140.000000000001
 20
250
  0
LWPOLYLINE
  5
28D
100
AcDbEntity
  8
styny
  6
ByLayer
 62
  256
370
   -1
100
AcDbPolyline
 90
    4
 70
    1
 43
0
 10
2140.000000000001
 20
251
 10
2115.000000000002
 20
251
 10
2115.000000000002
 20
257.5
 10
2140.000000000001
 20
257.5
  0
LWPOLYLINE
  5
28E
100
AcDbEntity
  8
styny
  6
ByLayer
 62
  256
370
   -1
100
AcDbPolyline
 90
    4
 70
    1
 43
0
 10
2140.000000000002
 20
258.5
 10
2115.000000000002
 20
258.5
 10
2115.000000000002
 20
265
 10
2140.000000000002
 20
265
  0
LWPOLYLINE
  5
28F
100
AcDbEntity
  8
styny
  6
ByLayer
 62
  256
370
   -1
100
AcDbPolyline
 90
    4
 70
    1
 43
0
 10
2140.000000000002
 20
266
 10
2115.000000000002
 20
266
 10
2115.000000000002
 20
272.5
 10
2140.000000000002
 20
272.5
  0
LWPOLYLINE
  5
290
100
AcDbEntity
  8
styny
  6
ByLayer
 62
  256
370
   -1
100
AcDbPolyline
 90
    4
 70
    1
 43
0
 10
2140.000000000002
 20
273.5
 10
2115.000000000002
 20
273.5
 10
2115.000000000002
 20
280
 10
2140.000000000002
 20
280
  0
LWPOLYLINE
  5
291
100
AcDbEntity
  8
styny
  6
ByLayer
 62
  256
370
   -1
100
AcDbPolyline
 90
    4
 70
    1
 43
0
 10
2140.000000000002
 20
281
 10
2115.000000000003
 20
281
 10
2115.000000000003
 20
287.5
 10
2140.000000000002
 20
287.5
  0
LWPOLYLINE
  5
292
100
AcDbEntity
  8
vikna_dveri
  6
ByLayer
 62
  256
370
   -1
100
AcDbPolyline
 90
    4
 70
    1
 43
0
 10
2157
 20
183
 10
2220
 20
183
 10
2220
 20
177
 10
2157
 20
177
  0
LINE
  5
293
100
AcDbEntity
  8
vikna_dveri
  6
ByLayer
 62
  256
370
   -1
100
AcDbLine
 10
2157
 20
180
 11
2220
 21
180
  0
LWPOLYLINE
  5
294
100
AcDbEntity
  8
vikna_dveri
  6
ByLayer
 62
  256
370
   -1
100
AcDbPolyline
 90
    4
 70
    1
 43
0
 10
2171
 20
193
 10
2206
 20
193
 10
2206
 20
251
 10
2171
 20
251
  0
LWPOLYLINE
  5
295
100
AcDbEntity
  8
styny
  6
ByLayer
 62
  256
370
   -1
100
AcDbPolyline
 90
    4
 70
    1
 43
0
 10
1640
 20
41
 10
1615
 20
41
 10
1615
 20
47.5
 10
1640
 20
47.5
  0
LWPOLYLINE
  5
296
100
AcDbEntity
  8
styny
  6
ByLayer
 62
  256
370
   -1
100
AcDbPolyline
 90
    4
 70
    1
 43
0
 10
1640
 20
48.5
 10
1615
 20
48.5
 10
1615
 20
55
 10
1640
 20
55
  0
LWPOLYLINE
  5
297
100
AcDbEntity
  8
styny
  6
ByLayer
 62
  256
370
   -1
100
AcDbPolyline
 90
    4
 70
    1
 43
0
 10
1640
 20
56
 10
1615.000000000001
 20
56
 10
1615.000000000001
 20
62.5
 10
1640
 20
62.5
  0
LWPOLYLINE
  5
298
100
AcDbEntity
  8
styny
  6
ByLayer
 62
  256
370
   -1
100
AcDbPolyline
 90
    4
 70
    1
 43
0
 10
1640.000000000001
 20
63.5
 10
1615.000000000001
 20
63.5
 10
1615.000000000001
 20
70
 10
1640.000000000001
 20
70
  0
LWPOLYLINE
  5
299
100
AcDbEntity
  8
styny
  6
ByLayer
 62
  256
370
   -1
100
AcDbPolyline
 90
    4
 70
    1
 43
0
 10
1640.000000000001
 20
71
 10
1615.000000000001
 20
71
 10
1615.000000000001
 20
77.5
 10
1640.000000000001
 20
77.5
  0
LWPOLYLINE
  5
29A
100
AcDbEntity
  8
styny
  6
ByLayer
 62
  256
370
   -1
100
AcDbPolyline
 90
    4
 70
    1
 43
0
 10
1640.000000000001
 20
78.5
 10
1615.000000000001
 20
78.5
 10
1615.000000000001
 20
85
 10
1640.000000000001
 20
85
  0
LWPOLYLINE
  5
29B
100
AcDbEntity
  8
styny
  6
ByLayer
 62
  256
370
   -1
100
AcDbPolyline
 90
    4
 70
    1
 43
0
 10
1640.000000000001
 20
86
 10
1615.000000000002
 20
86
 10
1615.000000000002
 20
92.5
 10
1640.000000000001
 20
92.5
  0
LWPOLYLINE
  5
29C
100
AcDbEntity
  8
styny
  6
ByLayer
 62
  256
370
   -1
100
AcDbPolyline
 90
    4
 70
    1
 43
0
 10
1640.000000000002
 20
93.5
 10
1615.000000000002
 20
93.5
 10
1615.000000000002
 20
100
 10
1640.000000000002
 20
100
  0
LWPOLYLINE
  5
29D
100
AcDbEntity
  8
styny
  6
ByLayer
 62
  256
370
   -1
100
AcDbPolyline
 90
    4
 70
    1
 43
0
 10
1640.000000000002
 20
101
 10
1615.000000000002
 20
101
 10
1615.000000000002
 20
107.5
 10
1640.000000000002
 20
107.5
  0
LWPOLYLINE
  5
29E
100
AcDbEntity
  8
styny
  6
ByLayer
 62
  256
370
   -1
100
AcDbPolyline
 90
    4
 70
    1
 43
0
 10
1640.000000000002
 20
108.5
 10
1615.000000000002
 20
108.5
 10
1615.000000000002
 20
115
 10
1640.000000000002
 20
115
  0
LWPOLYLINE
  5
29F
100
AcDbEntity
  8
styny
  6
ByLayer
 62
  256
370
   -1
100
AcDbPolyline
 90
    4
 70
    1
 43
0
 10
1640.000000000002
 20
116
 10
1615.000000000003
 20
116
 10
1615.000000000003
 20
122.5
 10
1640.000000000002
 20
122.5
  0
LWPOLYLINE
  5
2A0
100
AcDbEntity
  8
styny
  6
ByLayer
 62
  256
370
   -1
100
AcDbPolyline
 90
    4
 70
    1
 43
0
 10
1640
 20
123.5
 10
1615
 20
123.5
 10
1615
 20
130
 10
1640
 20
130
  0
LWPOLYLINE
  5
2A1
100
AcDbEntity
  8
styny
  6
ByLayer
 62
  256
370
   -1
100
AcDbPolyline
 90
    4
 70
    1
 43
0
 10
1640
 20
131
 10
1615
 20
131
 10
1615
 20
137.5
 10
1640
 20
137.5
  0
LWPOLYLINE
  5
2A2
100
AcDbEntity
  8
styny
  6
ByLayer
 62
  256
370
   -1
100
AcDbPolyline
 90
    4
 70
    1
 43
0
 10
1640
 20
138.5
 10
1615.000000000001
 20
138.5
 10
1615.000000000001
 20
145
 10
1640
 20
145
  0
LWPOLYLINE
  5
2A3
100
AcDbEntity
  8
styny
  6
ByLayer
 62
  256
370
   -1
100
AcDbPolyline
 90
    4
 70
    1
 43
0
 10
1640.000000000001
 20
146
 10
1615.000000000001
 20
146
 10
1615.000000000001
 20
152.5
 10
1640.000000000001
 20
152.5
  0
LWPOLYLINE
  5
2A4
100
AcDbEntity
  8
styny
  6
ByLayer
 62
  256
370
   -1
100
AcDbPolyline
 90
    4
 70
    1
 43
0
 10
1640.000000000001
 20
153.5
 10
1615.000000000001
 20
153.5
 10
1615.000000000001
 20
160
 10
1640.000000000001
 20
160
  0
LWPOLYLINE
  5
2A5
100
AcDbEntity
  8
styny
  6
ByLayer
 62
  256
370
   -1
100
AcDbPolyline
 90
    4
 70
    1
 43
0
 10
1640.000000000001
 20
161
 10
1615.000000000001
 20
161
 10
1615.000000000001
 20
167.5
 10
1640.000000000001
 20
167.5
  0
LWPOLYLINE
  5
2A6
100
AcDbEntity
  8
styny
  6
ByLayer
 62
  256
370
   -1
100
AcDbPolyline
 90
    4
 70
    1
 43
0
 10
1640.000000000001
 20
168.5
 10
1615.000000000002
 20
168.5
 10
1615.000000000002
 20
175
 10
1640.000000000001
 20
175
  0
LWPOLYLINE
  5
2A7
100
AcDbEntity
  8
styny
  6
ByLayer
 62
  256
370
   -1
100
AcDbPolyline
 90
    4
 70
    1
 43
0
 10
1640.000000000002
 20
176
 10
1615.000000000002
 20
176
 10
1615.000000000002
 20
182.5
 10
1640.000000000002
 20
182.5
  0
LWPOLYLINE
  5
2A8
100
AcDbEntity
  8
styny
  6
ByLayer
 62
  256
370
   -1
100
AcDbPolyline
 90
    4
 70
    1
 43
0
 10
1640.000000000002
 20
183.5
 10
1615.000000000002
 20
183.5
 10
1615.000000000002
 20
190
 10
1640.000000000002
 20
190
  0
LWPOLYLINE
  5
2A9
100
AcDbEntity
  8
styny
  6
ByLayer
 62
  256
370
   -1
100
AcDbPolyline
 90
    4
 70
    1
 43
0
 10
1640.000000000002
 20
191
 10
1615.000000000002
 20
191
 10
1615.000000000002
 20
197.5
 10
1640.000000000002
 20
197.5
  0
LWPOLYLINE
  5
2AA
100
AcDbEntity
  8
styny
  6
ByLayer
 62
  256
370
   -1
100
AcDbPolyline
 90
    4
 70
    1
 43
0
 10
1640.000000000002
 20
198.5
 10
1615.000000000003
 20
198.5
 10
1615.000000000003
 20
205
 10
1640.000000000002
 20
205
  0
LWPOLYLINE
  5
2AB
100
AcDbEntity
  8
styny
  6
ByLayer
 62
  256
370
   -1
100
AcDbPolyline
 90
    4
 70
    1
 43
0
 10
1640
 20
206
 10
1615
 20
206
 10
1615
 20
212.5
 10
1640
 20
212.5
  0
LWPOLYLINE
  5
2AC
100
AcDbEntity
  8
styny
  6
ByLayer
 62
  256
370
   -1
100
AcDbPolyline
 90
    4
 70
    1
 43
0
 10
1640
 20
213.5
 10
1615
 20
213.5
 10
1615
 20
220
 10
1640
 20
220
  0
LWPOLYLINE
  5
2AD
100
AcDbEntity
  8
styny
  6
ByLayer
 62
  256
370
   -1
100
AcDbPolyline
 90
    4
 70
    1
 43
0
 10
1640
 20
221
 10
1615.000000000001
 20
221
 10
1615.000000000001
 20
227.5
 10
1640
 20
227.5
  0
LWPOLYLINE
  5
2AE
100
AcDbEntity
  8
styny
  6
ByLayer
 62
  256
370
   -1
100
AcDbPolyline
 90
    4
 70
    1
 43
0
 10
1640.000000000001
 20
228.5
 10
1615.000000000001
 20
228.5
 10
1615.000000000001
 20
235
 10
1640.000000000001
 20
235
  0
LWPOLYLINE
  5
2AF
100
AcDbEntity
  8
styny
  6
ByLayer
 62
  256
370
   -1
100
AcDbPolyline
 90
    4
 70
    1
 43
0
 10
1640.000000000001
 20
236
 10
1615.000000000001
 20
236
 10
1615.000000000001
 20
242.5
 10
1640.000000000001
 20
242.5
  0
LWPOLYLINE
  5
2B0
100
AcDbEntity
  8
styny
  6
ByLayer
 62
  256
370
   -1
100
AcDbPolyline
 90
    4
 70
    1
 43
0
 10
1640.000000000001
 20
243.5
 10
1615.000000000001
 20
243.5
 10
1615.000000000001
 20
250
 10
1640.000000000001
 20
250
  0
LWPOLYLINE
  5
2B1
100
AcDbEntity
  8
styny
  6
ByLayer
 62
  256
370
   -1
100
AcDbPolyline
 90
    4
 70
    1
 43
0
 10
1640.000000000001
 20
251
 10
1615.000000000002
 20
251
 10
1615.000000000002
 20
257.5
 10
1640.000000000001
 20
257.5
  0
LWPOLYLINE
  5
2B2
100
AcDbEntity
  8
styny
  6
ByLayer
 62
  256
370
   -1
100
AcDbPolyline
 90
    4
 70
    1
 43
0
 10
1640.000000000002
 20
258.5
 10
1615.000000000002
 20
258.5
 10
1615.000000000002
 20
265
 10
1640.000000000002
 20
265
  0
LWPOLYLINE
  5
2B3
100
AcDbEntity
  8
styny
  6
ByLayer
 62
  256
370
   -1
100
AcDbPolyline
 90
    4
 70
    1
 43
0
 10
1640.000000000002
 20
266
 10
1615.000000000002
 20
266
 10
1615.000000000002
 20
272.5
 10
1640.000000000002
 20
272.5
  0
LWPOLYLINE
  5
2B4
100
AcDbEntity
  8
styny
  6
ByLayer
 62
  256
370
   -1
100
AcDbPolyline
 90
    4
 70
    1
 43
0
 10
1640.000000000002
 20
273.5
 10
1615.000000000002
 20
273.5
 10
1615.000000000002
 20
280
 10
1640.000000000002
 20
280
  0
LWPOLYLINE
  5
2B5
100
AcDbEntity
  8
styny
  6
ByLayer
 62
  256
370
   -1
100
AcDbPolyline
 90
    4
 70
    1
 43
0
 10
1640.000000000002
 20
281
 10
1615.000000000003
 20
281
 10
1615.000000000003
 20
287.5
 10
1640.000000000002
 20
287.5
  0
LINE
  5
2B6
100
AcDbEntity
  8
0
  6
ByLayer
 62
  256
370
   -1
100
AcDbLine
 10
1615.000000000002
 20
257.5
 11
1640.000000000001
 21
257.5
  0
LINE
  5
2B7
100
AcDbEntity
  8
styny
  6
ByLayer
 62
  256
370
   -1
100
AcDbLine
 10
1648.846153846154
 20
281.730769230768
 11
1655
 21
257.499999999999
  0
LINE
  5
2B8
100
AcDbEntity
  8
styny
  6
ByLayer
 62
  256
370
   -1
100
AcDbLine
 10
1740.153846153846
 20
281.730769230768
 11
1734
 21
257.499999999999
  0
LWPOLYLINE
  5
2B9
100
AcDbEntity
  8
styny
  6
ByLayer
 62
  256
370
   -1
100
AcDbPolyline
 90
   12
 70
    0
 43
0
 10
1734
 20
257.499999999999
 10
1734
 20
131
 10
1740
 20
131
 10
1740
 20
125
 10
1738
 20
125.0000000000006
 10
1738
 20
116.0000000000001
 10
1651
 20
116
 10
1651
 20
125.0000000000005
 10
1649
 20
125
 10
1649
 20
131
 10
1655
 20
131
 10
1655
 20
257.499999999999
  0
ARC
  5
2BA
100
AcDbEntity
  8
styny
  6
ByLayer
 62
  256
370
   -1
100
AcDbCircle
 10
1694.5
 20
101.9687499999998
 40
185.4687499999989
100
AcDbArc
 50
75.74996730219647
 51
104.2500326978037
  0
ARC
  5
2BB
100
AcDbEntity
  8
styny
  6
ByLayer
 62
  256
370
   -1
100
AcDbCircle
 10
1694.499999999999
 20
101.9687499999988
 40
160.4687499999999
100
AcDbArc
 50
75.74996730219607
 51
104.2500326978033
  0
LINE
  5
2BC
100
AcDbEntity
  8
styny
  6
ByLayer
 62
  256
370
   -1
100
AcDbLine
 10
2155.846153846154
 20
281.7307692307695
 11
2162
 21
257.5000000000005
  0
LINE
  5
2BD
100
AcDbEntity
  8
styny
  6
ByLayer
 62
  256
370
   -1
100
AcDbLine
 10
2220.153846153846
 20
281.7307692307695
 11
2215
 21
257.5000000000005
  0
LWPOLYLINE
  5
2BE
100
AcDbEntity
  8
styny
  6
ByLayer
 62
  256
370
   -1
100
AcDbPolyline
 90
   12
 70
    0
 43
0
 10
2215
 20
257.5000000000005
 10
2215
 20
183
 10
2220
 20
183
 10
2220
 20
177
 10
2218
 20
177
 10
2218
 20
167.9999999999995
 10
2159
 20
168
 10
2159
 20
177.0000000000005
 10
2157
 20
177
 10
2157
 20
183
 10
2162
 20
183
 10
2162
 20
257.5000000000005
  0
ARC
  5
2BF
100
AcDbEntity
  8
styny
  6
ByLayer
 62
  256
370
   -1
100
AcDbCircle
 10
2188.5
 20
153.1562500000005
 40
107.65625
100
AcDbArc
 50
75.74996730219648
 51
104.2500326978037
  0
ARC
  5
2C0
100
AcDbEntity
  8
styny
  6
ByLayer
 62
  256
370
   -1
100
AcDbCircle
 10
2188.000000000001
 20
155.1250000000003
 40
130.6249999999998
100
AcDbArc
 50
75.74996730219668
 51
104.2500326978039
  0
LINE
  5
2C1
100
AcDbEntity
  8
styny
  6
ByLayer
 62
  256
370
   -1
100
AcDbLine
 10
148.846153846154
 20
281.7307692307689
 11
155
 21
257.4999999999999
  0
LINE
  5
2C2
100
AcDbEntity
  8
styny
  6
ByLayer
 62
  256
370
   -1
100
AcDbLine
 10
240.153846153846
 20
281.7307692307689
 11
234
 21
257.4999999999999
  0
LWPOLYLINE
  5
2C3
100
AcDbEntity
  8
styny
  6
ByLayer
 62
  256
370
   -1
100
AcDbPolyline
 90
   12
 70
    0
 43
0
 10
234
 20
257.4999999999999
 10
234
 20
131
 10
240
 20
131
 10
240
 20
125
 10
238
 20
125.0000000000006
 10
238
 20
116.0000000000001
 10
151
 20
116
 10
151
 20
125.0000000000005
 10
149
 20
125
 10
149
 20
131
 10
155
 20
131
 10
155
 20
257.4999999999999
  0
ARC
  5
2C4
100
AcDbEntity
  8
styny
  6
ByLayer
 62
  256
370
   -1
100
AcDbCircle
 10
194.5
 20
101.9687500000007
 40
185.4687499999989
100
AcDbArc
 50
75.74996730219647
 51
104.2500326978037
  0
ARC
  5
2C5
100
AcDbEntity
  8
styny
  6
ByLayer
 62
  256
370
   -1
100
AcDbCircle
 10
194.4999999999991
 20
101.9687499999997
 40
160.4687499999999
100
AcDbArc
 50
75.74996730219607
 51
104.2500326978033
  0
LINE
  5
2C6
100
AcDbEntity
  8
styny
  6
ByLayer
 62
  256
370
   -1
100
AcDbLine
 10
395.846153846154
 20
281.7307692307695
 11
402
 21
257.5000000000005
  0
LINE
  5
2C7
100
AcDbEntity
  8
styny
  6
ByLayer
 62
  256
370
   -1
100
AcDbLine
 10
487.153846153846
 20
281.7307692307695
 11
481
 21
257.5000000000005
  0
LWPOLYLINE
  5
2C8
100
AcDbEntity
  8
styny
  6
ByLayer
 62
  256
370
   -1
100
AcDbPolyline
 90
   12
 70
    0
 43
0
 10
481
 20
257.5000000000005
 10
481
 20
131
 10
487
 20
131
 10
487
 20
125
 10
485
 20
125.0000000000006
 10
485
 20
116.0000000000001
 10
398
 20
116
 10
398
 20
125.0000000000005
 10
396
 20
125
 10
396
 20
131
 10
402
 20
131
 10
402
 20
257.5000000000005
  0
ARC
  5
2C9
100
AcDbEntity
  8
styny
  6
ByLayer
 62
  256
370
   -1
100
AcDbCircle
 10
441.5
 20
101.9687500000013
 40
185.4687499999989
100
AcDbArc
 50
75.74996730219647
 51
104.2500326978037
  0
ARC
  5
2CA
100
AcDbEntity
  8
styny
  6
ByLayer
 62
  256
370
   -1
100
AcDbCircle
 10
441.4999999999991
 20
101.9687500000003
 40
160.4687499999999
100
AcDbArc
 50
75.74996730219607
 51
104.2500326978033
  0
LWPOLYLINE
  5
2CB
100
AcDbEntity
  8
styny
  6
ByLayer
 62
  256
370
   -1
100
AcDbPolyline
 90
    4
 70
    1
 43
0
 10
1880
 20
-1459
 10
1855
 20
-1459
 10
1855
 20
-1452.5
 10
1880
 20
-1452.5
  0
LWPOLYLINE
  5
2CC
100
AcDbEntity
  8
styny
  6
ByLayer
 62
  256
370
   -1
100
AcDbPolyline
 90
    4
 70
    1
 43
0
 10
1880
 20
-1451.5
 10
1855
 20
-1451.5
 10
1855
 20
-1445
 10
1880
 20
-1445
  0
LWPOLYLINE
  5
2CD
100
AcDbEntity
  8
styny
  6
ByLayer
 62
  256
370
   -1
100
AcDbPolyline
 90
    4
 70
    1
 43
0
 10
1880
 20
-1444
 10
1855.000000000001
 20
-1444
 10
1855.000000000001
 20
-1437.5
 10
1880
 20
-1437.5
  0
LWPOLYLINE
  5
2CE
100
AcDbEntity
  8
styny
  6
ByLayer
 62
  256
370
   -1
100
AcDbPolyline
 90
    4
 70
    1
 43
0
 10
1880.000000000001
 20
-1436.5
 10
1855.000000000001
 20
-1436.5
 10
1855.000000000001
 20
-1430
 10
1880.000000000001
 20
-1430
  0
LWPOLYLINE
  5
2CF
100
AcDbEntity
  8
styny
  6
ByLayer
 62
  256
370
   -1
100
AcDbPolyline
 90
    4
 70
    1
 43
0
 10
1880.000000000001
 20
-1429
 10
1855.000000000001
 20
-1429
 10
1855.000000000001
 20
-1422.5
 10
1880.000000000001
 20
-1422.5
  0
LWPOLYLINE
  5
2D0
100
AcDbEntity
  8
styny
  6
ByLayer
 62
  256
370
   -1
100
AcDbPolyline
 90
    4
 70
    1
 43
0
 10
1880.000000000001
 20
-1421.5
 10
1855.000000000001
 20
-1421.5
 10
1855.000000000001
 20
-1415
 10
1880.000000000001
 20
-1415
  0
LWPOLYLINE
  5
2D1
100
AcDbEntity
  8
styny
  6
ByLayer
 62
  256
370
   -1
100
AcDbPolyline
 90
    4
 70
    1
 43
0
 10
1880.000000000001
 20
-1414
 10
1855.000000000002
 20
-1414
 10
1855.000000000002
 20
-1407.5
 10
1880.000000000001
 20
-1407.5
  0
LWPOLYLINE
  5
2D2
100
AcDbEntity
  8
styny
  6
ByLayer
 62
  256
370
   -1
100
AcDbPolyline
 90
    4
 70
    1
 43
0
 10
1880.000000000002
 20
-1406.5
 10
1855.000000000002
 20
-1406.5
 10
1855.000000000002
 20
-1400
 10
1880.000000000002
 20
-1400
  0
LWPOLYLINE
  5
2D3
100
AcDbEntity
  8
styny
  6
ByLayer
 62
  256
370
   -1
100
AcDbPolyline
 90
    4
 70
    1
 43
0
 10
1880.000000000002
 20
-1399
 10
1855.000000000002
 20
-1399
 10
1855.000000000002
 20
-1392.5
 10
1880.000000000002
 20
-1392.5
  0
LWPOLYLINE
  5
2D4
100
AcDbEntity
  8
styny
  6
ByLayer
 62
  256
370
   -1
100
AcDbPolyline
 90
    4
 70
    1
 43
0
 10
1880.000000000002
 20
-1391.5
 10
1855.000000000002
 20
-1391.5
 10
1855.000000000002
 20
-1385
 10
1880.000000000002
 20
-1385
  0
LWPOLYLINE
  5
2D5
100
AcDbEntity
  8
styny
  6
ByLayer
 62
  256
370
   -1
100
AcDbPolyline
 90
    4
 70
    1
 43
0
 10
1880.000000000002
 20
-1384
 10
1855.000000000003
 20
-1384
 10
1855.000000000003
 20
-1377.5
 10
1880.000000000002
 20
-1377.5
  0
LWPOLYLINE
  5
2D6
100
AcDbEntity
  8
styny
  6
ByLayer
 62
  256
370
   -1
100
AcDbPolyline
 90
    4
 70
    1
 43
0
 10
1880
 20
-1376.5
 10
1855
 20
-1376.5
 10
1855
 20
-1370
 10
1880
 20
-1370
  0
LWPOLYLINE
  5
2D7
100
AcDbEntity
  8
styny
  6
ByLayer
 62
  256
370
   -1
100
AcDbPolyline
 90
    4
 70
    1
 43
0
 10
1880
 20
-1369
 10
1855
 20
-1369
 10
1855
 20
-1362.5
 10
1880
 20
-1362.5
  0
LWPOLYLINE
  5
2D8
100
AcDbEntity
  8
styny
  6
ByLayer
 62
  256
370
   -1
100
AcDbPolyline
 90
    4
 70
    1
 43
0
 10
1880
 20
-1361.5
 10
1855.000000000001
 20
-1361.5
 10
1855.000000000001
 20
-1355
 10
1880
 20
-1355
  0
LWPOLYLINE
  5
2D9
100
AcDbEntity
  8
styny
  6
ByLayer
 62
  256
370
   -1
100
AcDbPolyline
 90
    4
 70
    1
 43
0
 10
1880.000000000001
 20
-1354
 10
1855.000000000001
 20
-1354
 10
1855.000000000001
 20
-1347.5
 10
1880.000000000001
 20
-1347.5
  0
LWPOLYLINE
  5
2DA
100
AcDbEntity
  8
styny
  6
ByLayer
 62
  256
370
   -1
100
AcDbPolyline
 90
    4
 70
    1
 43
0
 10
1880.000000000001
 20
-1346.5
 10
1855.000000000001
 20
-1346.5
 10
1855.000000000001
 20
-1340
 10
1880.000000000001
 20
-1340
  0
LWPOLYLINE
  5
2DB
100
AcDbEntity
  8
styny
  6
ByLayer
 62
  256
370
   -1
100
AcDbPolyline
 90
    4
 70
    1
 43
0
 10
1880.000000000001
 20
-1339
 10
1855.000000000001
 20
-1339
 10
1855.000000000001
 20
-1332.5
 10
1880.000000000001
 20
-1332.5
  0
LWPOLYLINE
  5
2DC
100
AcDbEntity
  8
styny
  6
ByLayer
 62
  256
370
   -1
100
AcDbPolyline
 90
    4
 70
    1
 43
0
 10
1880.000000000001
 20
-1331.5
 10
1855.000000000002
 20
-1331.5
 10
1855.000000000002
 20
-1325
 10
1880.000000000001
 20
-1325
  0
LWPOLYLINE
  5
2DD
100
AcDbEntity
  8
styny
  6
ByLayer
 62
  256
370
   -1
100
AcDbPolyline
 90
    4
 70
    1
 43
0
 10
1880.000000000002
 20
-1324
 10
1855.000000000002
 20
-1324
 10
1855.000000000002
 20
-1317.5
 10
1880.000000000002
 20
-1317.5
  0
LWPOLYLINE
  5
2DE
100
AcDbEntity
  8
styny
  6
ByLayer
 62
  256
370
   -1
100
AcDbPolyline
 90
    4
 70
    1
 43
0
 10
1880.000000000002
 20
-1316.5
 10
1855.000000000002
 20
-1316.5
 10
1855.000000000002
 20
-1310
 10
1880.000000000002
 20
-1310
  0
LWPOLYLINE
  5
2DF
100
AcDbEntity
  8
styny
  6
ByLayer
 62
  256
370
   -1
100
AcDbPolyline
 90
    4
 70
    1
 43
0
 10
1880.000000000002
 20
-1309
 10
1855.000000000002
 20
-1309
 10
1855.000000000002
 20
-1302.5
 10
1880.000000000002
 20
-1302.5
  0
LWPOLYLINE
  5
2E0
100
AcDbEntity
  8
styny
  6
ByLayer
 62
  256
370
   -1
100
AcDbPolyline
 90
    4
 70
    1
 43
0
 10
1880.000000000002
 20
-1301.5
 10
1855.000000000003
 20
-1301.5
 10
1855.000000000003
 20
-1295
 10
1880.000000000002
 20
-1295
  0
LWPOLYLINE
  5
2E1
100
AcDbEntity
  8
styny
  6
ByLayer
 62
  256
370
   -1
100
AcDbPolyline
 90
    4
 70
    1
 43
0
 10
1880
 20
-1294
 10
1855
 20
-1294
 10
1855
 20
-1287.5
 10
1880
 20
-1287.5
  0
LWPOLYLINE
  5
2E2
100
AcDbEntity
  8
styny
  6
ByLayer
 62
  256
370
   -1
100
AcDbPolyline
 90
    4
 70
    1
 43
0
 10
1880
 20
-1286.5
 10
1855
 20
-1286.5
 10
1855
 20
-1280
 10
1880
 20
-1280
  0
LWPOLYLINE
  5
2E3
100
AcDbEntity
  8
styny
  6
ByLayer
 62
  256
370
   -1
100
AcDbPolyline
 90
    4
 70
    1
 43
0
 10
1880
 20
-1279
 10
1855.000000000001
 20
-1279
 10
1855.000000000001
 20
-1272.5
 10
1880
 20
-1272.5
  0
LWPOLYLINE
  5
2E4
100
AcDbEntity
  8
styny
  6
ByLayer
 62
  256
370
   -1
100
AcDbPolyline
 90
    4
 70
    1
 43
0
 10
1880.000000000001
 20
-1271.5
 10
1855.000000000001
 20
-1271.5
 10
1855.000000000001
 20
-1265
 10
1880.000000000001
 20
-1265
  0
LWPOLYLINE
  5
2E5
100
AcDbEntity
  8
styny
  6
ByLayer
 62
  256
370
   -1
100
AcDbPolyline
 90
    4
 70
    1
 43
0
 10
1880.000000000001
 20
-1264
 10
1855.000000000001
 20
-1264
 10
1855.000000000001
 20
-1257.5
 10
1880.000000000001
 20
-1257.5
  0
LWPOLYLINE
  5
2E6
100
AcDbEntity
  8
styny
  6
ByLayer
 62
  256
370
   -1
100
AcDbPolyline
 90
    4
 70
    1
 43
0
 10
1880.000000000001
 20
-1256.5
 10
1855.000000000001
 20
-1256.5
 10
1855.000000000001
 20
-1250
 10
1880.000000000001
 20
-1250
  0
LWPOLYLINE
  5
2E7
100
AcDbEntity
  8
styny
  6
ByLayer
 62
  256
370
   -1
100
AcDbPolyline
 90
    4
 70
    1
 43
0
 10
1880.000000000001
 20
-1249
 10
1855.000000000002
 20
-1249
 10
1855.000000000002
 20
-1242.5
 10
1880.000000000001
 20
-1242.5
  0
LWPOLYLINE
  5
2E8
100
AcDbEntity
  8
styny
  6
ByLayer
 62
  256
370
   -1
100
AcDbPolyline
 90
    4
 70
    1
 43
0
 10
1880.000000000002
 20
-1241.5
 10
1855.000000000002
 20
-1241.5
 10
1855.000000000002
 20
-1235
 10
1880.000000000002
 20
-1235
  0
LWPOLYLINE
  5
2E9
100
AcDbEntity
  8
styny
  6
ByLayer
 62
  256
370
   -1
100
AcDbPolyline
 90
    4
 70
    1
 43
0
 10
1880.000000000002
 20
-1234
 10
1855.000000000002
 20
-1234
 10
1855.000000000002
 20
-1227.5
 10
1880.000000000002
 20
-1227.5
  0
LWPOLYLINE
  5
2EA
100
AcDbEntity
  8
styny
  6
ByLayer
 62
  256
370
   -1
100
AcDbPolyline
 90
    4
 70
    1
 43
0
 10
1880.000000000002
 20
-1226.5
 10
1855.000000000002
 20
-1226.5
 10
1855.000000000002
 20
-1220
 10
1880.000000000002
 20
-1220
  0
LWPOLYLINE
  5
2EB
100
AcDbEntity
  8
styny
  6
ByLayer
 62
  256
370
   -1
100
AcDbPolyline
 90
    4
 70
    1
 43
0
 10
1880.000000000002
 20
-1219
 10
1855.000000000003
 20
-1219
 10
1855.000000000003
 20
-1212.5
 10
1880.000000000002
 20
-1212.5
  0
LINE
  5
2EC
100
AcDbEntity
  8
0
  6
ByLayer
 62
  256
370
   -1
100
AcDbLine
 10
1855.000000000002
 20
-1242.5
 11
1880.000000000001
 21
-1242.5
  0
LINE
  5
2ED
100
AcDbEntity
  8
styny
  6
ByLayer
 62
  256
370
   -1
100
AcDbLine
 10
1895.846153846154
 20
-1218.26923076923
 11
1902
 21
-1242.5
  0
LINE
  5
2EE
100
AcDbEntity
  8
styny
  6
ByLayer
 62
  256
370
   -1
100
AcDbLine
 10
2052.153846153846
 20
-1218.26923076923
 11
2046
 21
-1242.5
  0
LWPOLYLINE
  5
2EF
100
AcDbEntity
  8
styny
  6
ByLayer
 62
  256
370
   -1
100
AcDbPolyline
 90
   12
 70
    0
 43
0
 10
2046
 20
-1242.5
 10
2046
 20
-1369
 10
2051
 20
-1369
 10
2051
 20
-1375
 10
2049
 20
-1375
 10
2049
 20
-1384
 10
1899
 20
-1384
 10
1899
 20
-1375
 10
1897
 20
-1375
 10
1897
 20
-1369
 10
1902
 20
-1369
 10
1902
 20
-1242.5
  0
ARC
  5
2F0
100
AcDbEntity
  8
styny
  6
ByLayer
 62
  256
370
   -1
100
AcDbCircle
 10
1974
 20
-1525.999999999999
 40
292.4999999999999
100
AcDbArc
 50
75.7499673021965
 51
104.2500326978037
  0
ARC
  5
2F1
100
AcDbEntity
  8
styny
  6
ByLayer
 62
  256
370
   -1
100
AcDbCircle
 10
1974.000000000001
 20
-1525.999999999999
 40
317.4999999999993
100
AcDbArc
 50
75.74996730219648
 51
104.2500326978037
  0
LINE
  5
2F2
100
AcDbEntity
  8
styny
  6
ByLayer
 62
  256
370
   -1
100
AcDbLine
 10
2220.846153846154
 20
-1218.269230769235
 11
2227
 21
-1242.500000000005
  0
LINE
  5
2F3
100
AcDbEntity
  8
styny
  6
ByLayer
 62
  256
370
   -1
100
AcDbLine
 10
2377.153846153846
 20
-1218.269230769235
 11
2371
 21
-1242.500000000005
  0
LWPOLYLINE
  5
2F4
100
AcDbEntity
  8
styny
  6
ByLayer
 62
  256
370
   -1
100
AcDbPolyline
 90
   12
 70
    0
 43
0
 10
2371
 20
-1242.500000000005
 10
2371
 20
-1369
 10
2376
 20
-1369
 10
2376
 20
-1375
 10
2374
 20
-1375
 10
2374
 20
-1384
 10
2224
 20
-1384
 10
2224
 20
-1375
 10
2222
 20
-1375
 10
2222
 20
-1369
 10
2227
 20
-1369
 10
2227
 20
-1242.500000000005
  0
ARC
  5
2F5
100
AcDbEntity
  8
styny
  6
ByLayer
 62
  256
370
   -1
100
AcDbCircle
 10
2299
 20
-1526.000000000004
 40
292.4999999999999
100
AcDbArc
 50
75.7499673021965
 51
104.2500326978037
  0
ARC
  5
2F6
100
AcDbEntity
  8
styny
  6
ByLayer
 62
  256
370
   -1
100
AcDbCircle
 10
2299
 20
-1526.000000000004
 40
317.4999999999993
100
AcDbArc
 50
75.74996730219648
 51
104.2500326978037
  0
LINE
  5
2F7
100
AcDbEntity
  8
styny
  6
ByLayer
 62
  256
370
   -1
100
AcDbLine
 10
564.8461538461539
 20
-1218.26923076923
 11
570.9999999999999
 21
-1242.5
  0
LINE
  5
2F8
100
AcDbEntity
  8
styny
  6
ByLayer
 62
  256
370
   -1
100
AcDbLine
 10
656.1538461538458
 20
-1218.26923076923
 11
649.9999999999999
 21
-1242.5
  0
LWPOLYLINE
  5
2F9
100
AcDbEntity
  8
styny
  6
ByLayer
 62
  256
370
   -1
100
AcDbPolyline
 90
   12
 70
    0
 43
0
 10
649.9999999999999
 20
-1242.5
 10
650
 20
-1369
 10
656
 20
-1369
 10
656
 20
-1375
 10
654
 20
-1374.999999999999
 10
654
 20
-1384
 10
567
 20
-1384
 10
567
 20
-1375
 10
565
 20
-1375
 10
565
 20
-1369
 10
571
 20
-1369
 10
570.9999999999999
 20
-1242.5
  0
ARC
  5
2FA
100
AcDbEntity
  8
styny
  6
ByLayer
 62
  256
370
   -1
100
AcDbCircle
 10
610.5000000000001
 20
-1398.031249999999
 40
185.4687499999989
100
AcDbArc
 50
75.74996730219647
 51
104.2500326978037
  0
ARC
  5
2FB
100
AcDbEntity
  8
styny
  6
ByLayer
 62
  256
370
   -1
100
AcDbCircle
 10
610.499999999999
 20
-1398.03125
 40
160.4687499999999
100
AcDbArc
 50
75.74996730219607
 51
104.2500326978033
  0
LINE
  5
2FC
100
AcDbEntity
  8
0
  6
ByLayer
 62
  256
370
   -1
100
AcDbLine
 10
1651
 20
116
 11
1738
 21
116.0000000000001
  0
LINE
  5
2FD
100
AcDbEntity
  8
styny
  6
ByLayer
 62
  256
370
   -1
100
AcDbLine
 10
1734
 20
-1460
 11
1734.000000000003
 21
-1242.499999999997
  0
LINE
  5
2FE
100
AcDbEntity
  8
styny
  6
ByLayer
 62
  256
370
   -1
100
AcDbLine
 10
1577
 20
-1460
 11
1577.000000000003
 21
-1242.499999999997
  0
LINE
  5
2FF
100
AcDbEntity
  8
styny
  6
ByLayer
 62
  256
370
   -1
100
AcDbLine
 10
1562.542740064556
 20
-1222.104225065982
 11
1577.000000000003
 21
-1242.499999999997
  0
LINE
  5
300
100
AcDbEntity
  8
styny
  6
ByLayer
 62
  256
370
   -1
100
AcDbLine
 10
1748.457259935449
 20
-1222.104225065984
 11
1734.000000000003
 21
-1242.499999999997
  0
ARC
  5
301
100
AcDbEntity
  8
styny
  6
ByLayer
 62
  256
370
   -1
100
AcDbCircle
 10
1655.500000000002
 20
-1353.244936417337
 40
160.7449481272908
100
AcDbArc
 50
54.66961207713619
 51
125.3303879228627
  0
ARC
  5
302
100
AcDbEntity
  8
styny
  6
ByLayer
 62
  256
370
   -1
100
AcDbCircle
 10
1655.500000000003
 20
-1353.244999999999
 40
135.745
100
AcDbArc
 50
54.6696
 51
125.33
  0
LINE
  5
303
100
AcDbEntity
  8
styny
  6
ByLayer
 62
  256
370
   -1
100
AcDbLine
 10
766.0000000000002
 20
40
 11
766.0000000000001
 21
257.5000000000002
  0
LINE
  5
304
100
AcDbEntity
  8
styny
  6
ByLayer
 62
  256
370
   -1
100
AcDbLine
 10
714
 20
40
 11
713.9999999999999
 21
257.5000000000002
  0
LINE
  5
305
100
AcDbEntity
  8
styny
  6
ByLayer
 62
  256
370
   -1
100
AcDbLine
 10
557
 20
40
 11
556.9999999999999
 21
257.5000000000002
  0
LINE
  5
306
100
AcDbEntity
  8
styny
  6
ByLayer
 62
  256
370
   -1
100
AcDbLine
 10
923.0000000000002
 20
40
 11
923.0000000000001
 21
257.5000000000002
  0
LINE
  5
307
100
AcDbEntity
  8
styny
  6
ByLayer
 62
  256
370
   -1
100
AcDbLine
 10
-2006.153846153846
 20
24.23076923076979
 11
-2000
 21
7.389644451905042e-13
  0
ARC
  5
308
100
AcDbEntity
  8
styny
  6
ByLayer
 62
  256
370
   -1
100
AcDbCircle
 10
-1921.500000000002
 20
-309.0937499999992
 40
318.9062499999999
100
AcDbArc
 50
75.74996730219604
 51
104.2500326978032
  0
LINE
  5
309
100
AcDbEntity
  8
styny
  6
ByLayer
 62
  256
370
   -1
100
AcDbLine
 10
-1836.846153846154
 20
24.23076923076962
 11
-1843
 21
5.684341886080801e-13
  0
ARC
  5
30A
100
AcDbEntity
  8
styny
  6
ByLayer
 62
  256
370
   -1
100
AcDbCircle
 10
-1921.5
 20
-309.0937499999984
 40
343.9062499999989
100
AcDbArc
 50
75.74996730219634
 51
104.2500326978036
  0
LINE
  5
30B
100
AcDbEntity
  8
styny
  6
ByLayer
 62
  256
370
   -1
100
AcDbLine
 10
-1797.153846153846
 20
24.23076923076877
 11
-1791
 21
-2.842170943040401e-13
  0
ARC
  5
30C
100
AcDbEntity
  8
styny
  6
ByLayer
 62
  256
370
   -1
100
AcDbCircle
 10
-1712.500000000002
 20
-309.0937500000002
 40
318.9062499999999
100
AcDbArc
 50
75.74996730219604
 51
104.2500326978032
  0
LINE
  5
30D
100
AcDbEntity
  8
styny
  6
ByLayer
 62
  256
370
   -1
100
AcDbLine
 10
-1627.846153846154
 20
24.2307692307686
 11
-1634
 21
-4.547473508864641e-13
  0
ARC
  5
30E
100
AcDbEntity
  8
styny
  6
ByLayer
 62
  256
370
   -1
100
AcDbCircle
 10
-1712.5
 20
-309.0937499999994
 40
343.9062499999989
100
AcDbArc
 50
75.74996730219634
 51
104.2500326978036
  0
LINE
  5
30F
100
AcDbEntity
  8
styny
  6
ByLayer
 62
  256
370
   -1
100
AcDbLine
 10
542.5420202579085
 20
277.8952647129481
 11
556.9992801933554
 21
257.4994897789325
  0
LINE
  5
310
100
AcDbEntity
  8
styny
  6
ByLayer
 62
  256
370
   -1
100
AcDbLine
 10
728.4565401288023
 20
277.8952647129457
 11
713.9992801933554
 21
257.4994897789325
  0
ARC
  5
311
100
AcDbEntity
  8
styny
  6
ByLayer
 62
  256
370
   -1
100
AcDbCircle
 10
635.4992801933543
 20
146.7545533615924
 40
160.7449481272908
100
AcDbArc
 50
54.66961207713619
 51
125.3303879228627
  0
ARC
  5
312
100
AcDbEntity
  8
styny
  6
ByLayer
 62
  256
370
   -1
100
AcDbCircle
 10
844.4992801933554
 20
146.7545533615912
 40
135.7449481272911
100
AcDbArc
 50
54.66961207713675
 51
125.3303879228633
  0
LINE
  5
313
100
AcDbEntity
  8
styny
  6
ByLayer
 62
  256
370
   -1
100
AcDbLine
 10
751.5420202579089
 20
277.8952647129481
 11
765.9992801933554
 21
257.4994897789325
  0
LINE
  5
314
100
AcDbEntity
  8
styny
  6
ByLayer
 62
  256
370
   -1
100
AcDbLine
 10
937.4565401288023
 20
277.8952647129457
 11
922.9992801933554
 21
257.4994897789325
  0
ARC
  5
315
100
AcDbEntity
  8
styny
  6
ByLayer
 62
  256
370
   -1
100
AcDbCircle
 10
844.4992801933545
 20
146.7545533615924
 40
160.7449481272908
100
AcDbArc
 50
54.66961207713619
 51
125.3303879228627
  0
ARC
  5
316
100
AcDbEntity
  8
styny
  6
ByLayer
 62
  256
370
   -1
100
AcDbCircle
 10
635.4992801933554
 20
146.7544897789305
 40
135.745
100
AcDbArc
 50
54.6696
 51
125.33
  0
LWPOLYLINE
  5
317
100
AcDbEntity
  8
styny
  6
ByLayer
 62
  256
370
   -1
100
AcDbPolyline
 90
    4
 70
    0
 43
0
 10
1967
 20
250.0000000000001
 10
1967
 20
48
 10
2059
 20
48
 10
2059
 20
249.9999999999996
  0
ENDSEC
  0
SECTION
  2
OBJECTS
  0
DICTIONARY
  5
C
330
0
100
AcDbDictionary
281
    1
  3
ACAD_GROUP
350
D
  0
DICTIONARY
  5
D
330
C
100
AcDbDictionary
281
    1
  0
ENDSEC
  0
EOF
