999
dxfrw 0.6.3
  0
SECTION
  2
HEADER
  9
$ACADVER
  1
AC1021
  9
$DWGCODEPAGE
  3
ANSI_1252
  9
$INSBASE
 10
0
 20
0
 30
0
  9
$EXTMIN
 10
10000000000
 20
10000000000
 30
0
  9
$EXTMAX
 10
-10000000000
 20
-10000000000
 30
0
  9
$LIMMIN
 10
0
 20
0
  9
$LIMMAX
 10
420
 20
297
  9
$ORTHOMODE
 70
    0
  9
$REGENMODE
 70
    1
  9
$FILLMODE
 70
    1
  9
$QTEXTMODE
 70
    0
  9
$MIRRTEXT
 70
    0
  9
$LTSCALE
 40
1
  9
$ATTMODE
 70
    0
  9
$TEXTSIZE
 40
2.5
  9
$TRACEWID
 40
15.68
  9
$TEXTSTYLE
  7
STANDARD
  9
$CLAYER
  8
dimensions
  9
$CELTYPE
  6
BYLAYER
  9
$CECOLOR
 62
  256
  9
$CELTSCALE
 40
1
  9
$DISPSILH
 70
    0
  9
$DIMSCALE
 40
10
  9
$DIMASZ
 40
0.5
  9
$DIMEXO
 40
0.2
  9
$DIMDLI
 40
3.75
  9
$DIMRND
 40
0
  9
$DIMDLE
 40
0
  9
$DIMEXE
 40
0.5
  9
$DIMTP
 40
0
  9
$DIMTM
 40
0
  9
$DIMTXT
 40
1
  9
$DIMCEN
 40
2.5
  9
$DIMTSZ
 40
0
  9
$DIMTOL
 70
    0
  9
$DIMLIM
 70
    0
  9
$DIMTIH
 70
    0
  9
$DIMTOH
 70
    0
  9
$DIMSE1
 70
    0
  9
$DIMSE2
 70
    0
  9
$DIMTAD
 70
    1
  9
$DIMZIN
 70
    8
  9
$DIMBLK
  1

  9
$DIMASO
 70
    1
  9
$DIMSHO
 70
    1
  9
$DIMPOST
  1

  9
$DIMAPOST
  1

  9
$DIMALT
 70
    0
  9
$DIMALTD
 70
    3
  9
$DIMALTF
 40
0.03937
  9
$DIMLFAC
 40
1
  9
$DIMTOFL
 70
    1
  9
$DIMTVP
 40
0
  9
$DIMTIX
 70
    0
  9
$DIMSOXD
 70
    0
  9
$DIMSAH
 70
    0
  9
$DIMBLK1
  1

  9
$DIMBLK2
  1

  9
$DIMSTYLE
  2
STANDARD
  9
$DIMCLRD
 70
    0
  9
$DIMCLRE
 70
    0
  9
$DIMCLRT
 70
    0
  9
$DIMTFAC
 40
1
  9
$DIMGAP
 40
0.5
  9
$DIMJUST
 70
    0
  9
$DIMSD1
 70
    0
  9
$DIMSD2
 70
    0
  9
$DIMTOLJ
 70
    0
  9
$DIMTZIN
 70
    8
  9
$DIMALTZ
 70
    0
  9
$DIMALTTZ
 70
    0
  9
$DIMUPT
 70
    0
  9
$DIMDEC
 70
    1
  9
$DIMTDEC
 70
    2
  9
$DIMALTU
 70
    2
  9
$DIMALTTD
 70
    3
  9
$DIMTXSTY
  7
standard
  9
$DIMAUNIT
 70
    0
  9
$DIMADEC
 70
    0
  9
$DIMALTRND
 40
0
  9
$DIMAZIN
 70
    0
  9
$DIMDSEP
 70
   44
  9
$DIMATFIT
 70
    3
  9
$DIMFRAC
 70
    0
  9
$DIMLDRBLK
  1
STANDARD
  9
$DIMLUNIT
 70
    2
  9
$DIMLWD
 70
   -2
  9
$DIMLWE
 70
   -2
  9
$DIMTMOVE
 70
    0
  9
$DIMFXL
 40
1
  9
$DIMFXLON
 70
    0
  9
$DIMJOGANG
 40
0.7854
  9
$DIMTFILL
 70
    0
  9
$DIMTFILLCLR
 70
    0
  9
$DIMARCSYM
 70
    0
  9
$DIMLTYPE
  6

  9
$DIMLTEX1
  6

  9
$DIMLTEX2
  6

  9
$LUNITS
 70
    2
  9
$LUPREC
 70
    2
  9
$SKETCHINC
 40
1
  9
$FILLETRAD
 40
0
  9
$AUNITS
 70
    0
  9
$AUPREC
 70
    2
  9
$MENU
  1
.
  9
$ELEVATION
 40
0
  9
$PELEVATION
 40
0
  9
$THICKNESS
 40
0
  9
$LIMCHECK
 70
    0
  9
$CHAMFERA
 40
0
  9
$CHAMFERB
 40
0
  9
$CHAMFERC
 40
0
  9
$CHAMFERD
 40
0
  9
$SKPOLY
 70
    0
  9
$USRTIMER
 70
    1
  9
$ANGBASE
 50
0
  9
$ANGDIR
 70
    0
  9
$PDMODE
 70
   34
  9
$PDSIZE
 40
0
  9
$PLINEWID
 40
0
  9
$SPLFRAME
 70
    0
  9
$SPLINETYPE
 70
    2
  9
$SPLINESEGS
 70
    8
  9
$HANDSEED
  5
20000
  9
$SURFTAB1
 70
    6
  9
$SURFTAB2
 70
    6
  9
$SURFTYPE
 70
    6
  9
$SURFU
 70
    6
  9
$SURFV
 70
    6
  9
$UCSBASE
  2

  9
$UCSNAME
  2

  9
$UCSORG
 10
0
 20
0
 30
0
  9
$UCSXDIR
 10
1
 20
0
 30
0
  9
$UCSYDIR
 10
0
 20
1
 30
0
  9
$UCSORTHOREF
  2

  9
$UCSORTHOVIEW
 70
    0
  9
$UCSORGTOP
 10
0
 20
0
 30
0
  9
$UCSORGBOTTOM
 10
0
 20
0
 30
0
  9
$UCSORGLEFT
 10
0
 20
0
 30
0
  9
$UCSORGRIGHT
 10
0
 20
0
 30
0
  9
$UCSORGFRONT
 10
0
 20
0
 30
0
  9
$UCSORGBACK
 10
0
 20
0
 30
0
  9
$PUCSBASE
  2

  9
$PUCSNAME
  2

  9
$PUCSORG
 10
0
 20
0
 30
0
  9
$PUCSXDIR
 10
1
 20
0
 30
0
  9
$PUCSYDIR
 10
0
 20
1
 30
0
  9
$PUCSORTHOREF
  2

  9
$PUCSORTHOVIEW
 70
    0
  9
$PUCSORGTOP
 10
0
 20
0
 30
0
  9
$PUCSORGBOTTOM
 10
0
 20
0
 30
0
  9
$PUCSORGLEFT
 10
0
 20
0
 30
0
  9
$PUCSORGRIGHT
 10
0
 20
0
 30
0
  9
$PUCSORGFRONT
 10
0
 20
0
 30
0
  9
$PUCSORGBACK
 10
0
 20
0
 30
0
  9
$USERI1
 70
    0
  9
$USERI2
 70
    0
  9
$USERI3
 70
    0
  9
$USERI4
 70
    0
  9
$USERI5
 70
    0
  9
$USERR1
 40
0
  9
$USERR2
 40
0
  9
$USERR3
 40
0
  9
$USERR4
 40
0
  9
$USERR5
 40
0
  9
$WORLDVIEW
 70
    1
  9
$SHADEDGE
 70
    3
  9
$SHADEDIF
 70
   70
  9
$TILEMODE
 70
    1
  9
$MAXACTVP
 70
   64
  9
$PINSBASE
 10
3.268957617411224
 20
8.751718213058417
 30
0
  9
$PLIMCHECK
 70
    0
  9
$PEXTMIN
 10
0
 20
0
 30
0
  9
$PEXTMAX
 10
0
 20
0
 30
0
  9
$GRIDMODE
 70
    1
  9
$SNAPSTYLE
 70
    0
  9
$GRIDUNIT
 10
0
 20
0
  9
$PLIMMIN
 10
0
 20
0
  9
$PLIMMAX
 10
29.7
 20
21
  9
$UNITMODE
 70
    0
  9
$VISRETAIN
 70
    1
  9
$PLINEGEN
 70
    0
  9
$PSLTSCALE
 70
    1
  9
$TREEDEPTH
 70
 3020
  9
$CMLSTYLE
  2
Standard
  9
$CMLJUST
 70
    0
  9
$CMLSCALE
 40
20
  9
$PROXYGRAPHICS
 70
    1
  9
$MEASUREMENT
 70
    1
  9
$CELWEIGHT
370
   -1
  9
$ENDCAPS
280
    0
  9
$JOINSTYLE
280
    0
  9
$LWDISPLAY
290
    0
  9
$INSUNITS
 70
    5
  9
$HYPERLINKBASE
  1

  9
$STYLESHEET
  1

  9
$XEDIT
290
    1
  9
$CEPSNTYPE
380
    0
  9
$PSTYLEMODE
290
    1
  9
$EXTNAMES
290
    1
  9
$PSVPSCALE
 40
0.1271478449711756
  9
$OLESTARTUP
290
    0
  9
$SORTENTS
280
  127
  9
$INDEXCTL
280
    0
  9
$HIDETEXT
280
    1
  9
$XCLIPFRAME
290
    0
  9
$HALOGAP
280
    0
  9
$OBSCOLOR
 70
  257
  9
$OBSLTYPE
280
    0
  9
$INTERSECTIONDISPLAY
280
    0
  9
$INTERSECTIONCOLOR
 70
  257
  9
$DIMASSOC
280
    1
  9
$PROJECTNAME
  1

  9
$CAMERADISPLAY
290
    0
  9
$LENSLENGTH
 40
50
  9
$CAMERAHEIGHT
 40
0
  9
$STEPSPERSEC
 40
2
  9
$STEPSIZE
 40
50
  9
$3DDWFPREC
 40
2
  9
$PSOLWIDTH
 40
5
  9
$PSOLHEIGHT
 40
80
  9
$LOFTANG1
 40
1.570796326794897
  9
$LOFTANG2
 40
1.570796326794897
  9
$LOFTMAG1
 40
0
  9
$LOFTMAG2
 40
0
  9
$LOFTPARAM
 70
    7
  9
$LOFTNORMALS
280
    1
  9
$LATITUDE
 40
1
  9
$LONGITUDE
 40
1
  9
$NORTHDIRECTION
 40
0
  9
$TIMEZONE
 70
-8000
  9
$LIGHTGLYPHDISPLAY
280
    1
  9
$TILEMODELIGHTSYNCH
280
    1
  9
$SOLIDHIST
280
    1
  9
$SHOWHIST
280
    1
  9
$DWFFRAME
280
    2
  9
$DGNFRAME
280
    0
  9
$REALWORLDSCALE
290
    1
  9
$INTERFERECOLOR
 62
    1
  9
$CSHADOW
280
    0
  9
$SHADOWPLANELOCATION
 40
0
  0
ENDSEC
  0
SECTION
  2
CLASSES
  0
ENDSEC
  0
SECTION
  2
TABLES
  0
TABLE
  2
VPORT
  5
8
330
0
100
AcDbSymbolTable
 70
    1
  0
VPORT
  5
31
330
2
100
AcDbSymbolTableRecord
100
AcDbViewportTableRecord
  2
*ACTIVE
 70
    0
 10
0
 20
0
 11
1
 21
1
 12
321.3342566943678
 22
216.3550323176364
 13
0
 23
0
 14
10
 24
10
 15
10
 25
10
 16
0
 26
0
 36
1
 17
0
 27
0
 37
0
 40
558.3841181902128
 41
1.987870619946092
 42
50
 43
0
 44
0
 50
0
 51
0
 71
    0
 72
  100
 73
    1
 74
    3
 75
    0
 76
    1
 77
    0
 78
    0
281
    0
 65
    1
110
0
120
0
130
0
111
1
121
0
131
0
112
0
122
1
132
0
 79
    0
146
0
348
10020
 60
    7
 61
    5
292
1
282
    1
141
0
142
0
 63
  250
421
3358443
  0
ENDTAB
  0
TABLE
  2
LTYPE
  5
5
330
0
100
AcDbSymbolTable
 70
    4
  0
LTYPE
  5
14
330
5
100
AcDbSymbolTableRecord
100
AcDbLinetypeTableRecord
  2
ByBlock
 70
    0
  3

 72
   65
 73
    0
 40
0
  0
LTYPE
  5
15
330
5
100
AcDbSymbolTableRecord
100
AcDbLinetypeTableRecord
  2
ByLayer
 70
    0
  3

 72
   65
 73
    0
 40
0
  0
LTYPE
  5
16
330
5
100
AcDbSymbolTableRecord
100
AcDbLinetypeTableRecord
  2
Continuous
 70
    0
  3
Solid line
 72
   65
 73
    0
 40
0
  0
LTYPE
  5
32
330
5
100
AcDbSymbolTableRecord
100
AcDbLinetypeTableRecord
  2
DOT
 70
    0
  3
Dot . . . . . . . . . . . . . . . . . . . . . .
 72
   65
 73
    2
 40
6.35
 49
0
 74
    0
 49
-6.35
 74
    0
  0
LTYPE
  5
33
330
5
100
AcDbSymbolTableRecord
100
AcDbLinetypeTableRecord
  2
DOTTINY
 70
    0
  3
Dot (.15x) .....................................
 72
   65
 73
    2
 40
0.9525
 49
0
 74
    0
 49
-0.9525
 74
    0
  0
LTYPE
  5
34
330
5
100
AcDbSymbolTableRecord
100
AcDbLinetypeTableRecord
  2
DOT2
 70
    0
  3
Dot (.5x) .....................................
 72
   65
 73
    2
 40
3.175
 49
0
 74
    0
 49
-3.175
 74
    0
  0
LTYPE
  5
35
330
5
100
AcDbSymbolTableRecord
100
AcDbLinetypeTableRecord
  2
DOTX2
 70
    0
  3
Dot (2x) .  .  .  .  .  .  .  .  .  .  .  .  .
 72
   65
 73
    2
 40
12.7
 49
0
 74
    0
 49
-12.7
 74
    0
  0
LTYPE
  5
36
330
5
100
AcDbSymbolTableRecord
100
AcDbLinetypeTableRecord
  2
DASHED
 70
    0
  3
Dashed _ _ _ _ _ _ _ _ _ _ _ _ _ _ _ _ _
 72
   65
 73
    2
 40
19.05
 49
12.7
 74
    0
 49
-6.35
 74
    0
  0
LTYPE
  5
37
330
5
100
AcDbSymbolTableRecord
100
AcDbLinetypeTableRecord
  2
DASHEDTINY
 70
    0
  3
Dashed (.15x) _ _ _ _ _ _ _ _ _ _ _ _ _ _ _ _ _
 72
   65
 73
    2
 40
2.8575
 49
1.905
 74
    0
 49
-0.9525
 74
    0
  0
LTYPE
  5
38
330
5
100
AcDbSymbolTableRecord
100
AcDbLinetypeTableRecord
  2
DASHED2
 70
    0
  3
Dashed (.5x) _ _ _ _ _ _ _ _ _ _ _ _ _ _ _ _ _
 72
   65
 73
    2
 40
9.524999999999999
 49
6.35
 74
    0
 49
-3.175
 74
    0
  0
LTYPE
  5
39
330
5
100
AcDbSymbolTableRecord
100
AcDbLinetypeTableRecord
  2
DASHEDX2
 70
    0
  3
Dashed (2x) ____  ____  ____  ____  ____  ___
 72
   65
 73
    2
 40
38.09999999999999
 49
25.4
 74
    0
 49
-12.7
 74
    0
  0
LTYPE
  5
3A
330
5
100
AcDbSymbolTableRecord
100
AcDbLinetypeTableRecord
  2
DASHDOT
 70
    0
  3
Dash dot __ . __ . __ . __ . __ . __ . __ . __
 72
   65
 73
    4
 40
25.4
 49
12.7
 74
    0
 49
-6.35
 74
    0
 49
0
 74
    0
 49
-6.35
 74
    0
  0
LTYPE
  5
3B
330
5
100
AcDbSymbolTableRecord
100
AcDbLinetypeTableRecord
  2
DASHDOTTINY
 70
    0
  3
Dash dot (.15x) _._._._._._._._._._._._._._._.
 72
   65
 73
    4
 40
3.81
 49
1.905
 74
    0
 49
-0.9525
 74
    0
 49
0
 74
    0
 49
-0.9525
 74
    0
  0
LTYPE
  5
3C
330
5
100
AcDbSymbolTableRecord
100
AcDbLinetypeTableRecord
  2
DASHDOT2
 70
    0
  3
Dash dot (.5x) _._._._._._._._._._._._._._._.
 72
   65
 73
    4
 40
12.7
 49
6.35
 74
    0
 49
-3.175
 74
    0
 49
0
 74
    0
 49
-3.175
 74
    0
  0
LTYPE
  5
3D
330
5
100
AcDbSymbolTableRecord
100
AcDbLinetypeTableRecord
  2
DASHDOTX2
 70
    0
  3
Dash dot (2x) ____  .  ____  .  ____  .  ___
 72
   65
 73
    4
 40
50.8
 49
25.4
 74
    0
 49
-12.7
 74
    0
 49
0
 74
    0
 49
-12.7
 74
    0
  0
LTYPE
  5
3E
330
5
100
AcDbSymbolTableRecord
100
AcDbLinetypeTableRecord
  2
DIVIDE
 70
    0
  3
Divide ____ . . ____ . . ____ . . ____ . . ____
 72
   65
 73
    6
 40
31.75
 49
12.7
 74
    0
 49
-6.35
 74
    0
 49
0
 74
    0
 49
-6.35
 74
    0
 49
0
 74
    0
 49
-6.35
 74
    0
  0
LTYPE
  5
3F
330
5
100
AcDbSymbolTableRecord
100
AcDbLinetypeTableRecord
  2
DIVIDETINY
 70
    0
  3
Divide (.15x) __..__..__..__..__..__..__..__.._
 72
   65
 73
    6
 40
4.7625
 49
1.905
 74
    0
 49
-0.9525
 74
    0
 49
0
 74
    0
 49
-0.9525
 74
    0
 49
0
 74
    0
 49
-0.9525
 74
    0
  0
LTYPE
  5
40
330
5
100
AcDbSymbolTableRecord
100
AcDbLinetypeTableRecord
  2
DIVIDE2
 70
    0
  3
Divide (.5x) __..__..__..__..__..__..__..__.._
 72
   65
 73
    6
 40
15.875
 49
6.35
 74
    0
 49
-3.175
 74
    0
 49
0
 74
    0
 49
-3.175
 74
    0
 49
0
 74
    0
 49
-3.175
 74
    0
  0
LTYPE
  5
41
330
5
100
AcDbSymbolTableRecord
100
AcDbLinetypeTableRecord
  2
DIVIDEX2
 70
    0
  3
Divide (2x) ________  .  .  ________  .  .  _
 72
   65
 73
    6
 40
63.5
 49
25.4
 74
    0
 49
-12.7
 74
    0
 49
0
 74
    0
 49
-12.7
 74
    0
 49
0
 74
    0
 49
-12.7
 74
    0
  0
LTYPE
  5
42
330
5
100
AcDbSymbolTableRecord
100
AcDbLinetypeTableRecord
  2
BORDER
 70
    0
  3
Border __ __ . __ __ . __ __ . __ __ . __ __ .
 72
   65
 73
    6
 40
44.45
 49
12.7
 74
    0
 49
-6.35
 74
    0
 49
12.7
 74
    0
 49
-6.35
 74
    0
 49
0
 74
    0
 49
-6.35
 74
    0
  0
LTYPE
  5
43
330
5
100
AcDbSymbolTableRecord
100
AcDbLinetypeTableRecord
  2
BORDERTINY
 70
    0
  3
Border (.15x) __.__.__.__.__.__.__.__.__.__.__.
 72
   65
 73
    6
 40
6.6675
 49
1.905
 74
    0
 49
-0.9525
 74
    0
 49
1.905
 74
    0
 49
-0.9525
 74
    0
 49
0
 74
    0
 49
-0.9525
 74
    0
  0
LTYPE
  5
44
330
5
100
AcDbSymbolTableRecord
100
AcDbLinetypeTableRecord
  2
BORDER2
 70
    0
  3
Border (.5x) __.__.__.__.__.__.__.__.__.__.__.
 72
   65
 73
    6
 40
22.225
 49
6.35
 74
    0
 49
-3.175
 74
    0
 49
6.35
 74
    0
 49
-3.175
 74
    0
 49
0
 74
    0
 49
-3.175
 74
    0
  0
LTYPE
  5
45
330
5
100
AcDbSymbolTableRecord
100
AcDbLinetypeTableRecord
  2
BORDERX2
 70
    0
  3
Border (2x) ____  ____  .  ____  ____  .  ___
 72
   65
 73
    6
 40
88.89999999999999
 49
25.4
 74
    0
 49
-12.7
 74
    0
 49
25.4
 74
    0
 49
-12.7
 74
    0
 49
0
 74
    0
 49
-12.7
 74
    0
  0
LTYPE
  5
46
330
5
100
AcDbSymbolTableRecord
100
AcDbLinetypeTableRecord
  2
CENTER
 70
    0
  3
Center ____ _ ____ _ ____ _ ____ _ ____ _ ____
 72
   65
 73
    4
 40
50.8
 49
31.75
 74
    0
 49
-6.35
 74
    0
 49
6.35
 74
    0
 49
-6.35
 74
    0
  0
LTYPE
  5
47
330
5
100
AcDbSymbolTableRecord
100
AcDbLinetypeTableRecord
  2
CENTERTINY
 70
    0
  3
Center (.15x) ___ _ ___ _ ___ _ ___ _ ___ _ ___
 72
   65
 73
    4
 40
7.619999999999999
 49
4.7625
 74
    0
 49
-0.9525
 74
    0
 49
0.9525
 74
    0
 49
-0.9525
 74
    0
  0
LTYPE
  5
48
330
5
100
AcDbSymbolTableRecord
100
AcDbLinetypeTableRecord
  2
CENTER2
 70
    0
  3
Center (.5x) ___ _ ___ _ ___ _ ___ _ ___ _ ___
 72
   65
 73
    4
 40
28.575
 49
19.05
 74
    0
 49
-3.175
 74
    0
 49
3.175
 74
    0
 49
-3.175
 74
    0
  0
LTYPE
  5
49
330
5
100
AcDbSymbolTableRecord
100
AcDbLinetypeTableRecord
  2
CENTERX2
 70
    0
  3
Center (2x) ________  __  ________  __  _____
 72
   65
 73
    4
 40
101.6
 49
63.5
 74
    0
 49
-12.7
 74
    0
 49
12.7
 74
    0
 49
-12.7
 74
    0
  0
ENDTAB
  0
TABLE
  2
LAYER
  5
2
330
0
100
AcDbSymbolTable
 70
    1
  0
LAYER
  5
10
330
2
100
AcDbSymbolTableRecord
100
AcDbLayerTableRecord
  2
0
 70
    0
 62
    7
  6
CONTINUOUS
370
   -3
390
F
1001
LibreCad
1070
    1
  0
LAYER
  5
4A
330
2
100
AcDbSymbolTableRecord
100
AcDbLayerTableRecord
  2
concrete
 70
    0
 62
  216
420
8388736
  6
CONTINUOUS
370
   35
390
F
  0
LAYER
  5
4B
330
2
100
AcDbSymbolTableRecord
100
AcDbLayerTableRecord
  2
dimensions
 70
    0
 62
    4
  6
CONTINUOUS
370
   13
390
F
  0
LAYER
  5
4C
330
2
100
AcDbSymbolTableRecord
100
AcDbLayerTableRecord
  2
metal
 70
    0
 62
    5
  6
CONTINUOUS
370
   35
390
F
  0
ENDTAB
  0
TABLE
  2
STYLE
  5
3
330
0
100
AcDbSymbolTable
 70
    3
  0
STYLE
  5
4D
330
2
100
AcDbSymbolTableRecord
100
AcDbTextStyleTableRecord
  2
cyrillic_ii
 70
    0
 40
0
 41
1
 50
0
 71
    0
 42
1
  3
cyrillic_ii
  4

  0
STYLE
  5
4E
330
2
100
AcDbSymbolTableRecord
100
AcDbTextStyleTableRecord
  2
Standard
 70
    0
 40
0
 41
1
 50
0
 71
    0
 42
1
  3
txt
  4

  0
ENDTAB
  0
TABLE
  2
VIEW
  5
6
330
0
100
AcDbSymbolTable
 70
    0
  0
ENDTAB
  0
TABLE
  2
UCS
  5
7
330
0
100
AcDbSymbolTable
 70
    0
  0
ENDTAB
  0
TABLE
  2
APPID
  5
9
330
0
100
AcDbSymbolTable
 70
    1
  0
APPID
  5
12
330
9
100
AcDbSymbolTableRecord
100
AcDbRegAppTableRecord
  2
ACAD
 70
    0
  0
APPID
  5
4F
330
9
100
AcDbSymbolTableRecord
100
AcDbRegAppTableRecord
  2
LibreCad
 70
    0
  0
ENDTAB
  0
TABLE
  2
DIMSTYLE
  5
A
330
0
100
AcDbSymbolTable
 70
    1
100
AcDbDimStyleTable
 71
    1
  0
DIMSTYLE
105
50
330
A
100
AcDbSymbolTableRecord
100
AcDbDimStyleTableRecord
  2
Standard
 70
    0
 40
10
 41
0.5
 42
0.2
 43
0.38
 44
0.5
 45
0
 46
0
 47
0
 48
0
 49
1
140
1
141
0.09
142
0
143
25.4
144
1
145
0
146
1
147
0.5
148
0
 71
    0
 72
    0
 73
    0
 74
    1
 75
    0
 76
    0
 77
    0
 78
    8
 79
    0
170
    0
171
    2
172
    0
173
    0
174
    0
175
    0
176
    0
177
    0
178
    0
179
    0
271
    1
272
    4
273
    2
274
    2
275
    0
276
    0
277
    2
278
   44
279
    0
280
    0
281
    0
282
    0
283
    1
284
    0
285
    0
286
    0
288
    0
289
    3
340
standard
341

371
   -2
372
   -2
  0
ENDTAB
  0
TABLE
  2
BLOCK_RECORD
  5
1
330
0
100
AcDbSymbolTable
 70
    2
  0
BLOCK_RECORD
  5
1F
330
1
100
AcDbSymbolTableRecord
100
AcDbBlockTableRecord
  2
*Model_Space
 70
    0
280
    1
281
    0
  0
BLOCK_RECORD
  5
1E
330
1
100
AcDbSymbolTableRecord
100
AcDbBlockTableRecord
  2
*Paper_Space
 70
    0
280
    1
281
    0
  0
BLOCK_RECORD
  5
51
330
1
100
AcDbSymbolTableRecord
100
AcDbBlockTableRecord
  2
*D14
 70
    0
280
    1
281
    0
  0
BLOCK_RECORD
  5
54
330
1
100
AcDbSymbolTableRecord
100
AcDbBlockTableRecord
  2
*D9
 70
    0
280
    1
281
    0
  0
BLOCK_RECORD
  5
57
330
1
100
AcDbSymbolTableRecord
100
AcDbBlockTableRecord
  2
*D16
 70
    0
280
    1
281
    0
  0
BLOCK_RECORD
  5
5A
330
1
100
AcDbSymbolTableRecord
100
AcDbBlockTableRecord
  2
*D3
 70
    0
280
    1
281
    0
  0
BLOCK_RECORD
  5
5D
330
1
100
AcDbSymbolTableRecord
100
AcDbBlockTableRecord
  2
*D17
 70
    0
280
    1
281
    0
  0
BLOCK_RECORD
  5
60
330
1
100
AcDbSymbolTableRecord
100
AcDbBlockTableRecord
  2
*D18
 70
    0
280
    1
281
    0
  0
BLOCK_RECORD
  5
63
330
1
100
AcDbSymbolTableRecord
100
AcDbBlockTableRecord
  2
*D5
 70
    0
280
    1
281
    0
  0
BLOCK_RECORD
  5
66
330
1
100
AcDbSymbolTableRecord
100
AcDbBlockTableRecord
  2
*D10
 70
    0
280
    1
281
    0
  0
BLOCK_RECORD
  5
69
330
1
100
AcDbSymbolTableRecord
100
AcDbBlockTableRecord
  2
*D2
 70
    0
280
    1
281
    0
  0
BLOCK_RECORD
  5
6C
330
1
100
AcDbSymbolTableRecord
100
AcDbBlockTableRecord
  2
*D11
 70
    0
280
    1
281
    0
  0
BLOCK_RECORD
  5
6F
330
1
100
AcDbSymbolTableRecord
100
AcDbBlockTableRecord
  2
*D4
 70
    0
280
    1
281
    0
  0
BLOCK_RECORD
  5
72
330
1
100
AcDbSymbolTableRecord
100
AcDbBlockTableRecord
  2
*D6
 70
    0
280
    1
281
    0
  0
BLOCK_RECORD
  5
75
330
1
100
AcDbSymbolTableRecord
100
AcDbBlockTableRecord
  2
*D15
 70
    0
280
    1
281
    0
  0
BLOCK_RECORD
  5
78
330
1
100
AcDbSymbolTableRecord
100
AcDbBlockTableRecord
  2
*D1
 70
    0
280
    1
281
    0
  0
BLOCK_RECORD
  5
7B
330
1
100
AcDbSymbolTableRecord
100
AcDbBlockTableRecord
  2
*D7
 70
    0
280
    1
281
    0
  0
BLOCK_RECORD
  5
7E
330
1
100
AcDbSymbolTableRecord
100
AcDbBlockTableRecord
  2
*D12
 70
    0
280
    1
281
    0
  0
BLOCK_RECORD
  5
81
330
1
100
AcDbSymbolTableRecord
100
AcDbBlockTableRecord
  2
*D19
 70
    0
280
    1
281
    0
  0
BLOCK_RECORD
  5
84
330
1
100
AcDbSymbolTableRecord
100
AcDbBlockTableRecord
  2
*D8
 70
    0
280
    1
281
    0
  0
BLOCK_RECORD
  5
87
330
1
100
AcDbSymbolTableRecord
100
AcDbBlockTableRecord
  2
*D13
 70
    0
280
    1
281
    0
  0
BLOCK_RECORD
  5
8A
330
1
100
AcDbSymbolTableRecord
100
AcDbBlockTableRecord
  2
block10
 70
    0
280
    1
281
    0
  0
ENDTAB
  0
ENDSEC
  0
SECTION
  2
BLOCKS
  0
BLOCK
  5
20
330
1F
100
AcDbEntity
  8
0
100
AcDbBlockBegin
  2
*Model_Space
 70
    0
 10
0
 20
0
 30
0
  3
*Model_Space
  1

  0
ENDBLK
  5
21
330
1F
100
AcDbEntity
  8
0
100
AcDbBlockEnd
  0
BLOCK
  5
1C
330
1B
100
AcDbEntity
  8
0
100
AcDbBlockBegin
  2
*Paper_Space
 70
    0
 10
0
 20
0
 30
0
  3
*Paper_Space
  1

  0
ENDBLK
  5
1D
330
1F
100
AcDbEntity
  8
0
100
AcDbBlockEnd
  0
BLOCK
  5
52
330
51
100
AcDbEntity
  8
0
100
AcDbBlockBegin
  2
*D14
 70
    1
 10
0
 20
0
  3
*D14
  1

  0
LINE
  5
8D
100
AcDbEntity
  8
dimensions
  6
ByBlock
 62
    0
370
   -2
100
AcDbLine
 10
190
 20
22.00000324387133
 11
190
 21
6.900000000000006
  0
SOLID
  5
8E
100
AcDbEntity
  8
dimensions
  6
ByBlock
 62
    0
370
   -2
100
AcDbTrace
 10
190
 20
22.00000324387133
 30
0
 11
190.8325693155457
 21
17.00000324387133
 31
0
 12
189.1674306844543
 22
17.00000324387133
 32
0
 13
189.1674306844543
 23
17.00000324387133
 33
0
  0
SOLID
  5
8F
100
AcDbEntity
  8
dimensions
  6
ByBlock
 62
    0
370
   -2
100
AcDbTrace
 10
190
 20
6.900000000000006
 30
0
 11
189.1674306844543
 21
11.90000000000001
 31
0
 12
190.8325693155457
 22
11.90000000000001
 32
0
 13
190.8325693155457
 23
11.90000000000001
 33
0
  0
MTEXT
  5
90
100
AcDbEntity
  8
dimensions
  6
CONTINUOUS
 62
    0
370
   -2
100
AcDbMText
 10
180
 20
36.72222546609386
 30
0
 40
10
 41
19.44444444444506
 71
    5
 72
    1
  1
15,1
  7
standard
210
0
220
0
230
1
 50
90
 73
    2
 44
1
  0
LINE
  5
91
100
AcDbEntity
  8
dimensions
  6
ByBlock
 62
    0
370
   -2
100
AcDbLine
 10
170.8000000000001
 20
22.00000324387133
 11
195
 21
22.00000324387133
  0
LINE
  5
92
100
AcDbEntity
  8
dimensions
  6
ByBlock
 62
    0
370
   -2
100
AcDbLine
 10
170.8
 20
6.900000000000006
 11
195
 21
6.900000000000006
  0
ENDBLK
  5
53
330
51
100
AcDbEntity
  8
0
100
AcDbBlockEnd
  0
BLOCK
  5
55
330
54
100
AcDbEntity
  8
0
100
AcDbBlockBegin
  2
*D9
 70
    1
 10
0
 20
0
  3
*D9
  1

  0
LINE
  5
93
100
AcDbEntity
  8
dimensions
  6
ByBlock
 62
    0
370
   -2
100
AcDbLine
 10
173.8000000000001
 20
230
 11
151.8000000000001
 21
230
  0
SOLID
  5
94
100
AcDbEntity
  8
dimensions
  6
ByBlock
 62
    0
370
   -2
100
AcDbTrace
 10
173.8000000000001
 20
230
 30
0
 11
168.8000000000001
 21
229.1674306844543
 31
0
 12
168.8000000000001
 22
230.8325693155457
 32
0
 13
168.8000000000001
 23
230.8325693155457
 33
0
  0
SOLID
  5
95
100
AcDbEntity
  8
dimensions
  6
ByBlock
 62
    0
370
   -2
100
AcDbTrace
 10
151.8000000000001
 20
230
 30
0
 11
156.8000000000001
 21
230.8325693155457
 31
0
 12
156.8000000000001
 22
229.1674306844543
 32
0
 13
156.8000000000001
 23
229.1674306844543
 33
0
  0
MTEXT
  5
96
100
AcDbEntity
  8
dimensions
  6
CONTINUOUS
 62
    0
370
   -2
100
AcDbMText
 10
162.8000000000001
 20
240
 30
0
 40
10
 41
12.22222222222222
 71
    5
 72
    1
  1
22
  7
standard
210
0
220
0
230
1
 50
360
 73
    2
 44
1
  0
LINE
  5
97
100
AcDbEntity
  8
dimensions
  6
ByBlock
 62
    0
370
   -2
100
AcDbLine
 10
173.8000000000001
 20
224.0000040476179
 11
173.8000000000001
 21
235
  0
LINE
  5
98
100
AcDbEntity
  8
dimensions
  6
ByBlock
 62
    0
370
   -2
100
AcDbLine
 10
151.8000000000001
 20
225.8
 11
151.8000000000001
 21
235
  0
ENDBLK
  5
56
330
54
100
AcDbEntity
  8
0
100
AcDbBlockEnd
  0
BLOCK
  5
58
330
57
100
AcDbEntity
  8
0
100
AcDbBlockBegin
  2
*D16
 70
    1
 10
0
 20
0
  3
*D16
  1

  0
LINE
  5
99
100
AcDbEntity
  8
dimensions
  6
ByBlock
 62
    0
370
   -2
100
AcDbLine
 10
140
 20
23.8
 11
140
 21
1.799999999999997
  0
SOLID
  5
9A
100
AcDbEntity
  8
dimensions
  6
ByBlock
 62
    0
370
   -2
100
AcDbTrace
 10
140
 20
23.8
 30
0
 11
140.8325693155457
 21
18.8
 31
0
 12
139.1674306844543
 22
18.8
 32
0
 13
139.1674306844543
 23
18.8
 33
0
  0
SOLID
  5
9B
100
AcDbEntity
  8
dimensions
  6
ByBlock
 62
    0
370
   -2
100
AcDbTrace
 10
140
 20
1.799999999999997
 30
0
 11
139.1674306844543
 21
6.799999999999997
 31
0
 12
140.8325693155457
 22
6.799999999999997
 32
0
 13
140.8325693155457
 23
6.799999999999997
 33
0
  0
MTEXT
  5
9C
100
AcDbEntity
  8
dimensions
  6
CONTINUOUS
 62
    0
370
   -2
100
AcDbMText
 10
130
 20
12.8
 30
0
 40
10
 41
12.22222222222222
 71
    5
 72
    1
  1
22
  7
standard
210
0
220
0
230
1
 50
90
 73
    2
 44
1
  0
LINE
  5
9D
100
AcDbEntity
  8
dimensions
  6
ByBlock
 62
    0
370
   -2
100
AcDbLine
 10
149.7999994591416
 20
23.8
 11
135
 21
23.8
  0
LINE
  5
9E
100
AcDbEntity
  8
dimensions
  6
ByBlock
 62
    0
370
   -2
100
AcDbLine
 10
148
 20
1.799999999999997
 11
135
 21
1.799999999999998
  0
ENDBLK
  5
59
330
57
100
AcDbEntity
  8
0
100
AcDbBlockEnd
  0
BLOCK
  5
5B
330
5A
100
AcDbEntity
  8
0
100
AcDbBlockBegin
  2
*D3
 70
    1
 10
0
 20
0
  3
*D3
  1

  0
LINE
  5
9F
100
AcDbEntity
  8
dimensions
  6
ByBlock
 62
    0
370
   -2
100
AcDbLine
 10
60
 20
-20
 11
85
 21
-20
  0
SOLID
  5
A0
100
AcDbEntity
  8
dimensions
  6
ByBlock
 62
    0
370
   -2
100
AcDbTrace
 10
60
 20
-20
 30
0
 11
65
 21
-19.16743068445432
 31
0
 12
65
 22
-20.83256931554568
 32
0
 13
65
 23
-20.83256931554568
 33
0
  0
SOLID
  5
A1
100
AcDbEntity
  8
dimensions
  6
ByBlock
 62
    0
370
   -2
100
AcDbTrace
 10
85
 20
-20
 30
0
 11
80
 21
-20.83256931554568
 31
0
 12
80
 22
-19.16743068445432
 32
0
 13
80
 23
-19.16743068445432
 33
0
  0
MTEXT
  5
A2
100
AcDbEntity
  8
dimensions
  6
CONTINUOUS
 62
    0
370
   -2
100
AcDbMText
 10
72.5
 20
-10
 30
0
 40
10
 41
12.22222222222284
 71
    5
 72
    1
  1
25
  7
standard
210
0
220
0
230
1
 50
0
 73
    2
 44
1
  0
LINE
  5
A3
100
AcDbEntity
  8
dimensions
  6
ByBlock
 62
    0
370
   -2
100
AcDbLine
 10
60
 20
-2
 11
60
 21
-25
  0
LINE
  5
A4
100
AcDbEntity
  8
dimensions
  6
ByBlock
 62
    0
370
   -2
100
AcDbLine
 10
85
 20
-2
 11
85
 21
-25
  0
ENDBLK
  5
5C
330
5A
100
AcDbEntity
  8
0
100
AcDbBlockEnd
  0
BLOCK
  5
5E
330
5D
100
AcDbEntity
  8
0
100
AcDbBlockBegin
  2
*D17
 70
    1
 10
0
 20
0
  3
*D17
  1

  0
LINE
  5
A5
100
AcDbEntity
  8
dimensions
  6
ByBlock
 62
    0
370
   -2
100
AcDbLine
 10
150.0000000000001
 20
-20
 11
167
 21
-20
  0
SOLID
  5
A6
100
AcDbEntity
  8
dimensions
  6
ByBlock
 62
    0
370
   -2
100
AcDbTrace
 10
150.0000000000001
 20
-20
 30
0
 11
155.0000000000001
 21
-19.16743068445432
 31
0
 12
155.0000000000001
 22
-20.83256931554568
 32
0
 13
155.0000000000001
 23
-20.83256931554568
 33
0
  0
SOLID
  5
A7
100
AcDbEntity
  8
dimensions
  6
ByBlock
 62
    0
370
   -2
100
AcDbTrace
 10
167
 20
-20
 30
0
 11
162
 21
-20.83256931554568
 31
0
 12
162
 22
-19.16743068445432
 32
0
 13
162
 23
-19.16743068445432
 33
0
  0
MTEXT
  5
A8
100
AcDbEntity
  8
dimensions
  6
CONTINUOUS
 62
    0
370
   -2
100
AcDbMText
 10
158.5000000000001
 20
-10
 30
0
 40
10
 41
10
 71
    5
 72
    1
  1
17
  7
standard
210
0
220
0
230
1
 50
0
 73
    2
 44
1
  0
LINE
  5
A9
100
AcDbEntity
  8
dimensions
  6
ByBlock
 62
    0
370
   -2
100
AcDbLine
 10
150.0000000000001
 20
-0.2000000000000031
 11
150.0000000000001
 21
-25
  0
LINE
  5
AA
100
AcDbEntity
  8
dimensions
  6
ByBlock
 62
    0
370
   -2
100
AcDbLine
 10
167
 20
-2
 11
167
 21
-25
  0
ENDBLK
  5
5F
330
5D
100
AcDbEntity
  8
0
100
AcDbBlockEnd
  0
BLOCK
  5
61
330
60
100
AcDbEntity
  8
0
100
AcDbBlockBegin
  2
*D18
 70
    1
 10
0
 20
0
  3
*D18
  1

  0
LINE
  5
AB
100
AcDbEntity
  8
dimensions
  6
ByBlock
 62
    0
370
   -2
100
AcDbLine
 10
168.8000000000001
 20
140
 11
150.0000000000001
 21
140
  0
SOLID
  5
AC
100
AcDbEntity
  8
dimensions
  6
ByBlock
 62
    0
370
   -2
100
AcDbTrace
 10
168.8000000000001
 20
140
 30
0
 11
163.8000000000001
 21
139.1674306844543
 31
0
 12
163.8000000000001
 22
140.8325693155457
 32
0
 13
163.8000000000001
 23
140.8325693155457
 33
0
  0
SOLID
  5
AD
100
AcDbEntity
  8
dimensions
  6
ByBlock
 62
    0
370
   -2
100
AcDbTrace
 10
150.0000000000001
 20
140
 30
0
 11
155.0000000000001
 21
140.8325693155457
 31
0
 12
155.0000000000001
 22
139.1674306844543
 32
0
 13
155.0000000000001
 23
139.1674306844543
 33
0
  0
MTEXT
  5
AE
100
AcDbEntity
  8
dimensions
  6
CONTINUOUS
 62
    0
370
   -2
100
AcDbMText
 10
184.6333333333334
 20
150
 30
0
 40
10
 41
21.66666666666667
 71
    5
 72
    1
  1
18,8
  7
standard
210
0
220
0
230
1
 50
360
 73
    2
 44
1
  0
LINE
  5
AF
100
AcDbEntity
  8
dimensions
  6
ByBlock
 62
    0
370
   -2
100
AcDbLine
 10
168.8000000000001
 20
123.9999967561293
 11
168.8000000000001
 21
145
  0
LINE
  5
B0
100
AcDbEntity
  8
dimensions
  6
ByBlock
 62
    0
370
   -2
100
AcDbLine
 10
150.0000000000001
 20
124
 11
150.0000000000001
 21
145
  0
ENDBLK
  5
62
330
60
100
AcDbEntity
  8
0
100
AcDbBlockEnd
  0
BLOCK
  5
64
330
63
100
AcDbEntity
  8
0
100
AcDbBlockBegin
  2
*D5
 70
    1
 10
0
 20
0
  3
*D5
  1

  0
LINE
  5
B1
100
AcDbEntity
  8
dimensions
  6
ByBlock
 62
    0
370
   -2
100
AcDbLine
 10
-60.00000000000002
 20
50
 11
-60
 21
350
  0
SOLID
  5
B2
100
AcDbEntity
  8
dimensions
  6
ByBlock
 62
    0
370
   -2
100
AcDbTrace
 10
-60.00000000000002
 20
50
 30
0
 11
-60.8325693155457
 21
55
 31
0
 12
-59.16743068445434
 22
55
 32
0
 13
-59.16743068445434
 23
55
 33
0
  0
SOLID
  5
B3
100
AcDbEntity
  8
dimensions
  6
ByBlock
 62
    0
370
   -2
100
AcDbTrace
 10
-60
 20
350
 30
0
 11
-59.16743068445432
 21
345
 31
0
 12
-60.83256931554568
 22
345
 32
0
 13
-60.83256931554568
 23
345
 33
0
  0
MTEXT
  5
B4
100
AcDbEntity
  8
dimensions
  6
CONTINUOUS
 62
    0
370
   -2
100
AcDbMText
 10
-70.00000000000001
 20
200
 30
0
 40
10
 41
20.00000000000062
 71
    5
 72
    1
  1
300
  7
standard
210
0
220
0
230
1
 50
90
 73
    2
 44
1
  0
LINE
  5
B5
100
AcDbEntity
  8
dimensions
  6
ByBlock
 62
    0
370
   -2
100
AcDbLine
 10
-2
 20
50
 11
-65.00000000000003
 21
50
  0
LINE
  5
B6
100
AcDbEntity
  8
dimensions
  6
ByBlock
 62
    0
370
   -2
100
AcDbLine
 10
2
 20
350
 11
-65
 21
350
  0
ENDBLK
  5
65
330
63
100
AcDbEntity
  8
0
100
AcDbBlockEnd
  0
BLOCK
  5
67
330
66
100
AcDbEntity
  8
0
100
AcDbBlockBegin
  2
*D10
 70
    1
 10
0
 20
0
  3
*D10
  1

  0
LINE
  5
B7
100
AcDbEntity
  8
dimensions
  6
ByBlock
 62
    0
370
   -2
100
AcDbLine
 10
150
 20
180
 11
172.0000000000001
 21
180
  0
SOLID
  5
B8
100
AcDbEntity
  8
dimensions
  6
ByBlock
 62
    0
370
   -2
100
AcDbTrace
 10
150
 20
180
 30
0
 11
155
 21
180.8325693155457
 31
0
 12
155
 22
179.1674306844543
 32
0
 13
155
 23
179.1674306844543
 33
0
  0
SOLID
  5
B9
100
AcDbEntity
  8
dimensions
  6
ByBlock
 62
    0
370
   -2
100
AcDbTrace
 10
172.0000000000001
 20
180
 30
0
 11
167.0000000000001
 21
179.1674306844543
 31
0
 12
167.0000000000001
 22
180.8325693155457
 32
0
 13
167.0000000000001
 23
180.8325693155457
 33
0
  0
MTEXT
  5
BA
100
AcDbEntity
  8
dimensions
  6
CONTINUOUS
 62
    0
370
   -2
100
AcDbMText
 10
161.0000000000001
 20
190
 30
0
 40
10
 41
12.22222222222222
 71
    5
 72
    1
  1
22
  7
standard
210
0
220
0
230
1
 50
0
 73
    2
 44
1
  0
LINE
  5
BB
100
AcDbEntity
  8
dimensions
  6
ByBlock
 62
    0
370
   -2
100
AcDbLine
 10
150
 20
199.8
 11
150
 21
175
  0
LINE
  5
BC
100
AcDbEntity
  8
dimensions
  6
ByBlock
 62
    0
370
   -2
100
AcDbLine
 10
172.0000000000001
 20
198
 11
172.0000000000001
 21
175
  0
ENDBLK
  5
68
330
66
100
AcDbEntity
  8
0
100
AcDbBlockEnd
  0
BLOCK
  5
6A
330
69
100
AcDbEntity
  8
0
100
AcDbBlockBegin
  2
*D2
 70
    1
 10
0
 20
0
  3
*D2
  1

  0
LINE
  5
BD
100
AcDbEntity
  8
dimensions
  6
ByBlock
 62
    0
370
   -2
100
AcDbLine
 10
0
 20
-20
 11
30
 21
-20
  0
SOLID
  5
BE
100
AcDbEntity
  8
dimensions
  6
ByBlock
 62
    0
370
   -2
100
AcDbTrace
 10
0
 20
-20
 30
0
 11
5
 21
-19.16743068445432
 31
0
 12
5
 22
-20.83256931554568
 32
0
 13
5
 23
-20.83256931554568
 33
0
  0
SOLID
  5
BF
100
AcDbEntity
  8
dimensions
  6
ByBlock
 62
    0
370
   -2
100
AcDbTrace
 10
30
 20
-20
 30
0
 11
25
 21
-20.83256931554568
 31
0
 12
25
 22
-19.16743068445432
 32
0
 13
25
 23
-19.16743068445432
 33
0
  0
MTEXT
  5
C0
100
AcDbEntity
  8
dimensions
  6
CONTINUOUS
 62
    0
370
   -2
100
AcDbMText
 10
15
 20
-10
 30
0
 40
10
 41
12.22222222222284
 71
    5
 72
    1
  1
30
  7
standard
210
0
220
0
230
1
 50
0
 73
    2
 44
1
  0
LINE
  5
C1
100
AcDbEntity
  8
dimensions
  6
ByBlock
 62
    0
370
   -2
100
AcDbLine
 10
-3.673940397442059e-16
 20
-2
 11
-9.184850993605148e-16
 21
-25
  0
LINE
  5
C2
100
AcDbEntity
  8
dimensions
  6
ByBlock
 62
    0
370
   -2
100
AcDbLine
 10
30
 20
-2
 11
30
 21
-25
  0
ENDBLK
  5
6B
330
69
100
AcDbEntity
  8
0
100
AcDbBlockEnd
  0
BLOCK
  5
6D
330
6C
100
AcDbEntity
  8
0
100
AcDbBlockBegin
  2
*D11
 70
    1
 10
0
 20
0
  3
*D11
  1

  0
LINE
  5
C3
100
AcDbEntity
  8
dimensions
  6
ByBlock
 62
    0
370
   -2
100
AcDbLine
 10
195
 20
206.9
 11
195
 21
222.0000040476179
  0
SOLID
  5
C4
100
AcDbEntity
  8
dimensions
  6
ByBlock
 62
    0
370
   -2
100
AcDbTrace
 10
195
 20
206.9
 30
0
 11
194.1674306844543
 21
211.9
 31
0
 12
195.8325693155457
 22
211.9
 32
0
 13
195.8325693155457
 23
211.9
 33
0
  0
SOLID
  5
C5
100
AcDbEntity
  8
dimensions
  6
ByBlock
 62
    0
370
   -2
100
AcDbTrace
 10
195
 20
222.0000040476179
 30
0
 11
195.8325693155457
 21
217.0000040476179
 31
0
 12
194.1674306844543
 22
217.0000040476179
 32
0
 13
194.1674306844543
 23
217.0000040476179
 33
0
  0
MTEXT
  5
C6
100
AcDbEntity
  8
dimensions
  6
CONTINUOUS
 62
    0
370
   -2
100
AcDbMText
 10
185
 20
236.7222262698405
 30
0
 40
10
 41
19.44444444444506
 71
    5
 72
    1
  1
15,1
  7
standard
210
0
220
0
230
1
 50
90
 73
    2
 44
1
  0
LINE
  5
C7
100
AcDbEntity
  8
dimensions
  6
ByBlock
 62
    0
370
   -2
100
AcDbLine
 10
175.8000000000001
 20
206.9
 11
200
 21
206.9
  0
LINE
  5
C8
100
AcDbEntity
  8
dimensions
  6
ByBlock
 62
    0
370
   -2
100
AcDbLine
 10
175.8000000000001
 20
222.0000040476179
 11
200
 21
222.0000040476179
  0
ENDBLK
  5
6E
330
6C
100
AcDbEntity
  8
0
100
AcDbBlockEnd
  0
BLOCK
  5
70
330
6F
100
AcDbEntity
  8
0
100
AcDbBlockBegin
  2
*D4
 70
    1
 10
0
 20
0
  3
*D4
  1

  0
LINE
  5
C9
100
AcDbEntity
  8
dimensions
  6
ByBlock
 62
    0
370
   -2
100
AcDbLine
 10
-40.00000000000002
 20
50
 11
-40
 21
334
  0
SOLID
  5
CA
100
AcDbEntity
  8
dimensions
  6
ByBlock
 62
    0
370
   -2
100
AcDbTrace
 10
-40.00000000000002
 20
50
 30
0
 11
-40.8325693155457
 21
55
 31
0
 12
-39.16743068445434
 22
55
 32
0
 13
-39.16743068445434
 23
55
 33
0
  0
SOLID
  5
CB
100
AcDbEntity
  8
dimensions
  6
ByBlock
 62
    0
370
   -2
100
AcDbTrace
 10
-40
 20
334
 30
0
 11
-39.16743068445432
 21
329
 31
0
 12
-40.83256931554568
 22
329
 32
0
 13
-40.83256931554568
 23
329
 33
0
  0
MTEXT
  5
CC
100
AcDbEntity
  8
dimensions
  6
CONTINUOUS
 62
    0
370
   -2
100
AcDbMText
 10
-50.00000000000001
 20
192
 30
0
 40
10
 41
21.11111111111111
 71
    5
 72
    1
  1
284
  7
standard
210
0
220
0
230
1
 50
90
 73
    2
 44
1
  0
LINE
  5
CD
100
AcDbEntity
  8
dimensions
  6
ByBlock
 62
    0
370
   -2
100
AcDbLine
 10
-2
 20
50
 11
-45.00000000000002
 21
50
  0
LINE
  5
CE
100
AcDbEntity
  8
dimensions
  6
ByBlock
 62
    0
370
   -2
100
AcDbLine
 10
-2
 20
334
 11
-45
 21
334
  0
ENDBLK
  5
71
330
6F
100
AcDbEntity
  8
0
100
AcDbBlockEnd
  0
BLOCK
  5
73
330
72
100
AcDbEntity
  8
0
100
AcDbBlockBegin
  2
*D6
 70
    1
 10
0
 20
0
  3
*D6
  1

  0
LINE
  5
CF
100
AcDbEntity
  8
dimensions
  6
ByBlock
 62
    0
370
   -2
100
AcDbLine
 10
-20
 20
50
 11
-20
 21
75
  0
SOLID
  5
D0
100
AcDbEntity
  8
dimensions
  6
ByBlock
 62
    0
370
   -2
100
AcDbTrace
 10
-20
 20
50
 30
0
 11
-20.83256931554568
 21
55
 31
0
 12
-19.16743068445432
 22
55
 32
0
 13
-19.16743068445432
 23
55
 33
0
  0
SOLID
  5
D1
100
AcDbEntity
  8
dimensions
  6
ByBlock
 62
    0
370
   -2
100
AcDbTrace
 10
-20
 20
75
 30
0
 11
-19.16743068445432
 21
70
 31
0
 12
-20.83256931554568
 22
70
 32
0
 13
-20.83256931554568
 23
70
 33
0
  0
MTEXT
  5
D2
100
AcDbEntity
  8
dimensions
  6
CONTINUOUS
 62
    0
370
   -2
100
AcDbMText
 10
-30.00000000000001
 20
62.5
 30
0
 40
10
 41
12.22222222222284
 71
    5
 72
    1
  1
25
  7
standard
210
0
220
0
230
1
 50
90
 73
    2
 44
1
  0
LINE
  5
D3
100
AcDbEntity
  8
dimensions
  6
ByBlock
 62
    0
370
   -2
100
AcDbLine
 10
-2
 20
50
 11
-25
 21
50
  0
LINE
  5
D4
100
AcDbEntity
  8
dimensions
  6
ByBlock
 62
    0
370
   -2
100
AcDbLine
 10
1.099999999999998
 20
75
 11
-25
 21
75
  0
ENDBLK
  5
74
330
72
100
AcDbEntity
  8
0
100
AcDbBlockEnd
  0
BLOCK
  5
76
330
75
100
AcDbEntity
  8
0
100
AcDbBlockBegin
  2
*D15
 70
    1
 10
0
 20
0
  3
*D15
  1

  0
LINE
  5
D5
100
AcDbEntity
  8
dimensions
  6
ByBlock
 62
    0
370
   -2
100
AcDbLine
 10
168.8000000000001
 20
40
 11
151.8000005408586
 21
40
  0
SOLID
  5
D6
100
AcDbEntity
  8
dimensions
  6
ByBlock
 62
    0
370
   -2
100
AcDbTrace
 10
168.8000000000001
 20
40
 30
0
 11
163.8000000000001
 21
39.16743068445432
 31
0
 12
163.8000000000001
 22
40.83256931554568
 32
0
 13
163.8000000000001
 23
40.83256931554568
 33
0
  0
SOLID
  5
D7
100
AcDbEntity
  8
dimensions
  6
ByBlock
 62
    0
370
   -2
100
AcDbTrace
 10
151.8000005408586
 20
40
 30
0
 11
156.8000005408586
 21
40.83256931554568
 31
0
 12
156.8000005408586
 22
39.16743068445432
 32
0
 13
156.8000005408586
 23
39.16743068445432
 33
0
  0
MTEXT
  5
D8
100
AcDbEntity
  8
dimensions
  6
CONTINUOUS
 62
    0
370
   -2
100
AcDbMText
 10
160.3000002704294
 20
50
 30
0
 40
10
 41
10
 71
    5
 72
    1
  1
17
  7
standard
210
0
220
0
230
1
 50
360
 73
    2
 44
1
  0
LINE
  5
D9
100
AcDbEntity
  8
dimensions
  6
ByBlock
 62
    0
370
   -2
100
AcDbLine
 10
168.8000000000001
 20
23.99999675612928
 11
168.8000000000001
 21
45
  0
LINE
  5
DA
100
AcDbEntity
  8
dimensions
  6
ByBlock
 62
    0
370
   -2
100
AcDbLine
 10
151.8000005408586
 20
25.79999999999998
 11
151.8000005408586
 21
45
  0
ENDBLK
  5
77
330
75
100
AcDbEntity
  8
0
100
AcDbBlockEnd
  0
BLOCK
  5
79
330
78
100
AcDbEntity
  8
0
100
AcDbBlockBegin
  2
*D1
 70
    1
 10
0
 20
0
  3
*D1
  1

  0
LINE
  5
DB
100
AcDbEntity
  8
dimensions
  6
ByBlock
 62
    0
370
   -2
100
AcDbLine
 10
-10
 20
0
 11
-10
 21
30
  0
SOLID
  5
DC
100
AcDbEntity
  8
dimensions
  6
ByBlock
 62
    0
370
   -2
100
AcDbTrace
 10
-10
 20
0
 30
0
 11
-10.83256931554568
 21
5
 31
0
 12
-9.16743068445432
 22
5
 32
0
 13
-9.16743068445432
 23
5
 33
0
  0
SOLID
  5
DD
100
AcDbEntity
  8
dimensions
  6
ByBlock
 62
    0
370
   -2
100
AcDbTrace
 10
-10
 20
30
 30
0
 11
-9.167430684454319
 21
25
 31
0
 12
-10.83256931554568
 22
25
 32
0
 13
-10.83256931554568
 23
25
 33
0
  0
MTEXT
  5
DE
100
AcDbEntity
  8
dimensions
  6
CONTINUOUS
 62
    0
370
   -2
100
AcDbMText
 10
-20
 20
15
 30
0
 40
10
 41
12.22222222222284
 71
    5
 72
    1
  1
30
  7
standard
210
0
220
0
230
1
 50
90
 73
    2
 44
1
  0
LINE
  5
DF
100
AcDbEntity
  8
dimensions
  6
ByBlock
 62
    0
370
   -2
100
AcDbLine
 10
-2
 20
2.449293598294706e-16
 11
-15
 21
6.123233995736766e-16
  0
LINE
  5
E0
100
AcDbEntity
  8
dimensions
  6
ByBlock
 62
    0
370
   -2
100
AcDbLine
 10
-2
 20
30
 11
-15
 21
30
  0
ENDBLK
  5
7A
330
78
100
AcDbEntity
  8
0
100
AcDbBlockEnd
  0
BLOCK
  5
7C
330
7B
100
AcDbEntity
  8
0
100
AcDbBlockBegin
  2
*D7
 70
    1
 10
0
 20
0
  3
*D7
  1

  0
LINE
  5
E1
100
AcDbEntity
  8
dimensions
  6
ByBlock
 62
    0
370
   -2
100
AcDbLine
 10
-20
 20
75
 11
-20
 21
100
  0
SOLID
  5
E2
100
AcDbEntity
  8
dimensions
  6
ByBlock
 62
    0
370
   -2
100
AcDbTrace
 10
-20
 20
75
 30
0
 11
-20.83256931554568
 21
80
 31
0
 12
-19.16743068445432
 22
80
 32
0
 13
-19.16743068445432
 23
80
 33
0
  0
SOLID
  5
E3
100
AcDbEntity
  8
dimensions
  6
ByBlock
 62
    0
370
   -2
100
AcDbTrace
 10
-20
 20
100
 30
0
 11
-19.16743068445432
 21
95
 31
0
 12
-20.83256931554568
 22
95
 32
0
 13
-20.83256931554568
 23
95
 33
0
  0
MTEXT
  5
E4
100
AcDbEntity
  8
dimensions
  6
CONTINUOUS
 62
    0
370
   -2
100
AcDbMText
 10
-30
 20
87.5
 30
0
 40
10
 41
12.22222222222284
 71
    5
 72
    1
  1
25
  7
standard
210
0
220
0
230
1
 50
90
 73
    2
 44
1
  0
LINE
  5
E5
100
AcDbEntity
  8
dimensions
  6
ByBlock
 62
    0
370
   -2
100
AcDbLine
 10
1.099999999999998
 20
75
 11
-25
 21
75
  0
LINE
  5
E6
100
AcDbEntity
  8
dimensions
  6
ByBlock
 62
    0
370
   -2
100
AcDbLine
 10
1.1
 20
100
 11
-25
 21
100
  0
ENDBLK
  5
7D
330
7B
100
AcDbEntity
  8
0
100
AcDbBlockEnd
  0
BLOCK
  5
7F
330
7E
100
AcDbEntity
  8
0
100
AcDbBlockBegin
  2
*D12
 70
    1
 10
0
 20
0
  3
*D12
  1

  0
LINE
  5
E7
100
AcDbEntity
  8
dimensions
  6
ByBlock
 62
    0
370
   -2
100
AcDbLine
 10
173.8000000000001
 20
330
 11
150
 21
330
  0
SOLID
  5
E8
100
AcDbEntity
  8
dimensions
  6
ByBlock
 62
    0
370
   -2
100
AcDbTrace
 10
173.8000000000001
 20
330
 30
0
 11
168.8000000000001
 21
329.1674306844543
 31
0
 12
168.8000000000001
 22
330.8325693155457
 32
0
 13
168.8000000000001
 23
330.8325693155457
 33
0
  0
SOLID
  5
E9
100
AcDbEntity
  8
dimensions
  6
ByBlock
 62
    0
370
   -2
100
AcDbTrace
 10
150
 20
330
 30
0
 11
155
 21
330.8325693155457
 31
0
 12
155
 22
329.1674306844543
 32
0
 13
155
 23
329.1674306844543
 33
0
  0
MTEXT
  5
EA
100
AcDbEntity
  8
dimensions
  6
CONTINUOUS
 62
    0
370
   -2
100
AcDbMText
 10
190.7444444444449
 20
340
 30
0
 40
10
 41
23.88888888888951
 71
    5
 72
    1
  1
23,8
  7
standard
210
0
220
0
230
1
 50
360
 73
    2
 44
1
  0
LINE
  5
EB
100
AcDbEntity
  8
dimensions
  6
ByBlock
 62
    0
370
   -2
100
AcDbLine
 10
173.8000000000001
 20
324.0000040476179
 11
173.8000000000001
 21
335
  0
LINE
  5
EC
100
AcDbEntity
  8
dimensions
  6
ByBlock
 62
    0
370
   -2
100
AcDbLine
 10
150
 20
324
 11
150
 21
335
  0
ENDBLK
  5
80
330
7E
100
AcDbEntity
  8
0
100
AcDbBlockEnd
  0
BLOCK
  5
82
330
81
100
AcDbEntity
  8
0
100
AcDbBlockBegin
  2
*D19
 70
    1
 10
0
 20
0
  3
*D19
  1

  0
LINE
  5
ED
100
AcDbEntity
  8
dimensions
  6
ByBlock
 62
    0
370
   -2
100
AcDbLine
 10
140
 20
123.8
 11
140
 21
100
  0
SOLID
  5
EE
100
AcDbEntity
  8
dimensions
  6
ByBlock
 62
    0
370
   -2
100
AcDbTrace
 10
140
 20
123.8
 30
0
 11
140.8325693155457
 21
118.8
 31
0
 12
139.1674306844543
 22
118.8
 32
0
 13
139.1674306844543
 23
118.8
 33
0
  0
SOLID
  5
EF
100
AcDbEntity
  8
dimensions
  6
ByBlock
 62
    0
370
   -2
100
AcDbTrace
 10
140
 20
100
 30
0
 11
139.1674306844543
 21
105
 31
0
 12
140.8325693155457
 22
105
 32
0
 13
140.8325693155457
 23
105
 33
0
  0
MTEXT
  5
F0
100
AcDbEntity
  8
dimensions
  6
CONTINUOUS
 62
    0
370
   -2
100
AcDbMText
 10
130
 20
140.7444444444448
 30
0
 40
10
 41
23.88888888888951
 71
    5
 72
    1
  1
23,8
  7
standard
210
0
220
0
230
1
 50
90
 73
    2
 44
1
  0
LINE
  5
F1
100
AcDbEntity
  8
dimensions
  6
ByBlock
 62
    0
370
   -2
100
AcDbLine
 10
149.7999994591416
 20
123.8
 11
135
 21
123.8
  0
LINE
  5
F2
100
AcDbEntity
  8
dimensions
  6
ByBlock
 62
    0
370
   -2
100
AcDbLine
 10
149.8
 20
100
 11
135
 21
100
  0
ENDBLK
  5
83
330
81
100
AcDbEntity
  8
0
100
AcDbBlockEnd
  0
BLOCK
  5
85
330
84
100
AcDbEntity
  8
0
100
AcDbBlockBegin
  2
*D8
 70
    1
 10
0
 20
0
  3
*D8
  1

  0
LINE
  5
F3
100
AcDbEntity
  8
dimensions
  6
ByBlock
 62
    0
370
   -2
100
AcDbLine
 10
140
 20
223.8
 11
140
 21
201.8
  0
SOLID
  5
F4
100
AcDbEntity
  8
dimensions
  6
ByBlock
 62
    0
370
   -2
100
AcDbTrace
 10
140
 20
223.8
 30
0
 11
140.8325693155457
 21
218.8
 31
0
 12
139.1674306844543
 22
218.8
 32
0
 13
139.1674306844543
 23
218.8
 33
0
  0
SOLID
  5
F5
100
AcDbEntity
  8
dimensions
  6
ByBlock
 62
    0
370
   -2
100
AcDbTrace
 10
140
 20
201.8
 30
0
 11
139.1674306844543
 21
206.8
 31
0
 12
140.8325693155457
 22
206.8
 32
0
 13
140.8325693155457
 23
206.8
 33
0
  0
MTEXT
  5
F6
100
AcDbEntity
  8
dimensions
  6
CONTINUOUS
 62
    0
370
   -2
100
AcDbMText
 10
130
 20
212.8
 30
0
 40
10
 41
12.22222222222222
 71
    5
 72
    1
  1
22
  7
standard
210
0
220
0
230
1
 50
90
 73
    2
 44
1
  0
LINE
  5
F7
100
AcDbEntity
  8
dimensions
  6
ByBlock
 62
    0
370
   -2
100
AcDbLine
 10
149.8000000000001
 20
223.8
 11
135
 21
223.8
  0
LINE
  5
F8
100
AcDbEntity
  8
dimensions
  6
ByBlock
 62
    0
370
   -2
100
AcDbLine
 10
148
 20
201.8
 11
135
 21
201.8
  0
ENDBLK
  5
86
330
84
100
AcDbEntity
  8
0
100
AcDbBlockEnd
  0
BLOCK
  5
88
330
87
100
AcDbEntity
  8
0
100
AcDbBlockBegin
  2
*D13
 70
    1
 10
0
 20
0
  3
*D13
  1

  0
LINE
  5
F9
100
AcDbEntity
  8
dimensions
  6
ByBlock
 62
    0
370
   -2
100
AcDbLine
 10
140
 20
323.8
 11
140
 21
300
  0
SOLID
  5
FA
100
AcDbEntity
  8
dimensions
  6
ByBlock
 62
    0
370
   -2
100
AcDbTrace
 10
140
 20
323.8
 30
0
 11
140.8325693155457
 21
318.8
 31
0
 12
139.1674306844543
 22
318.8
 32
0
 13
139.1674306844543
 23
318.8
 33
0
  0
SOLID
  5
FB
100
AcDbEntity
  8
dimensions
  6
ByBlock
 62
    0
370
   -2
100
AcDbTrace
 10
140
 20
300
 30
0
 11
139.1674306844543
 21
305
 31
0
 12
140.8325693155457
 22
305
 32
0
 13
140.8325693155457
 23
305
 33
0
  0
MTEXT
  5
FC
100
AcDbEntity
  8
dimensions
  6
CONTINUOUS
 62
    0
370
   -2
100
AcDbMText
 10
130
 20
340.7444444444448
 30
0
 40
10
 41
23.88888888888951
 71
    5
 72
    1
  1
23,8
  7
standard
210
0
220
0
230
1
 50
90
 73
    2
 44
1
  0
LINE
  5
FD
100
AcDbEntity
  8
dimensions
  6
ByBlock
 62
    0
370
   -2
100
AcDbLine
 10
149.8000000000001
 20
323.8
 11
135
 21
323.8
  0
LINE
  5
FE
100
AcDbEntity
  8
dimensions
  6
ByBlock
 62
    0
370
   -2
100
AcDbLine
 10
149.9
 20
300
 11
135
 21
300
  0
ENDBLK
  5
89
330
87
100
AcDbEntity
  8
0
100
AcDbBlockEnd
  0
BLOCK
  5
8B
330
8A
100
AcDbEntity
  8
0
100
AcDbBlockBegin
  2
block10
 70
    0
 10
0
 20
0
  3
block10
  1

  0
LWPOLYLINE
  5
FF
100
AcDbEntity
  8
0
  6
CONTINUOUS
 62
    7
370
   70
100
AcDbPolyline
 90
   12
 70
    1
 43
0
 10
-0.6062178
 20
1
 10
0
 20
0
 10
0.6062178
 20
1
 10
1.8186533
 20
1
 10
1.2124356
 20
2
 10
1.8186533
 20
3
 10
0.6062178
 20
3
 10
0
 20
4
 10
-0.6062178
 20
3
 10
-1.8186533
 20
3
 10
-1.2124356
 20
2
 10
-1.8186533
 20
1
  0
ENDBLK
  5
8C
330
8A
100
AcDbEntity
  8
0
100
AcDbBlockEnd
  0
ENDSEC
  0
SECTION
  2
ENTITIES
  0
HATCH
  5
100
100
AcDbEntity
  8
metal
  6
ByLayer
 62
  256
370
   -1
100
AcDbHatch
 10
0
 20
0
 30
0
210
0
220
0
230
1
  2
SOLID
 70
    1
 71
    0
 91
    1
 92
    0
 93
    1
 72
    2
 10
25.20000000000005
 20
25.19999999999994
 40
0.7999999999999545
 50
0
 51
360
 73
    1
 97
    0
 75
    0
 76
    1
 98
    0
  0
HATCH
  5
101
100
AcDbEntity
  8
metal
  6
ByLayer
 62
  256
370
   -1
100
AcDbHatch
 10
0
 20
0
 30
0
210
0
220
0
230
1
  2
SOLID
 70
    1
 71
    0
 91
    1
 92
    0
 93
    1
 72
    2
 10
4.800000000000182
 20
25.20000000000005
 40
0.7999999999999545
 50
0
 51
360
 73
    1
 97
    0
 75
    0
 76
    1
 98
    0
  0
HATCH
  5
102
100
AcDbEntity
  8
metal
  6
ByLayer
 62
  256
370
   -1
100
AcDbHatch
 10
0
 20
0
 30
0
210
0
220
0
230
1
  2
SOLID
 70
    1
 71
    0
 91
    1
 92
    0
 93
    1
 72
    2
 10
4.800000000000182
 20
4.799999999999944
 40
0.7999999999999545
 50
0
 51
360
 73
    1
 97
    0
 75
    0
 76
    1
 98
    0
  0
HATCH
  5
103
100
AcDbEntity
  8
metal
  6
ByLayer
 62
  256
370
   -1
100
AcDbHatch
 10
0
 20
0
 30
0
210
0
220
0
230
1
  2
SOLID
 70
    1
 71
    0
 91
    1
 92
    0
 93
    1
 72
    2
 10
25.19999999999982
 20
4.800000000000047
 40
0.7999999999999545
 50
0
 51
360
 73
    1
 97
    0
 75
    0
 76
    1
 98
    0
  0
HATCH
  5
104
100
AcDbEntity
  8
metal
  6
ByLayer
 62
  256
370
   -1
100
AcDbHatch
 10
0
 20
0
 30
0
210
0
220
0
230
1
  2
SOLID
 70
    1
 71
    0
 91
    1
 92
    0
 93
    1
 72
    2
 10
64.80000000000018
 20
4.799999999999944
 40
0.7999999999999545
 50
0
 51
360
 73
    1
 97
    0
 75
    0
 76
    1
 98
    0
  0
HATCH
  5
105
100
AcDbEntity
  8
metal
  6
ByLayer
 62
  256
370
   -1
100
AcDbHatch
 10
0
 20
0
 30
0
210
0
220
0
230
1
  2
SOLID
 70
    1
 71
    0
 91
    1
 92
    0
 93
    1
 72
    2
 10
64.80000000000018
 20
25.20000000000005
 40
0.7999999999999545
 50
0
 51
360
 73
    1
 97
    0
 75
    0
 76
    1
 98
    0
  0
HATCH
  5
106
100
AcDbEntity
  8
metal
  6
ByLayer
 62
  256
370
   -1
100
AcDbHatch
 10
0
 20
0
 30
0
210
0
220
0
230
1
  2
SOLID
 70
    1
 71
    0
 91
    1
 92
    0
 93
    1
 72
    2
 10
80.20000000000005
 20
25.19999999999994
 40
0.7999999999999545
 50
0
 51
360
 73
    1
 97
    0
 75
    0
 76
    1
 98
    0
  0
HATCH
  5
107
100
AcDbEntity
  8
metal
  6
ByLayer
 62
  256
370
   -1
100
AcDbHatch
 10
0
 20
0
 30
0
210
0
220
0
230
1
  2
SOLID
 70
    1
 71
    0
 91
    1
 92
    0
 93
    1
 72
    2
 10
80.19999999999982
 20
4.800000000000047
 40
0.7999999999999545
 50
0
 51
360
 73
    1
 97
    0
 75
    0
 76
    1
 98
    0
  0
LWPOLYLINE
  5
108
100
AcDbEntity
  8
concrete
  6
ByLayer
 62
  256
370
   -1
100
AcDbPolyline
 90
    4
 70
    1
 43
0
 10
0
 20
334
 10
30
 20
334
 10
30
 20
50
 10
0
 20
50
  0
LWPOLYLINE
  5
109
100
AcDbEntity
  8
concrete
  6
ByLayer
 62
  256
370
   -1
100
AcDbPolyline
 90
    4
 70
    1
 43
0
 10
0
 20
30
 10
30
 20
30
 10
30
 20
0
 10
0
 20
0
  0
LWPOLYLINE
  5
10A
100
AcDbEntity
  8
metal
  6
DASHED2
 62
  256
370
   -1
100
AcDbPolyline
 90
    4
 70
    1
 43
0
 10
4
 20
50
 10
5.600000000000136
 20
50
 10
5.600000000000136
 20
350
 10
4
 20
350
  0
LWPOLYLINE
  5
10B
100
AcDbEntity
  8
metal
  6
DASHED2
 62
  256
370
   -1
100
AcDbPolyline
 90
    4
 70
    1
 43
0
 10
24.39999999999986
 20
50
 10
26
 20
50
 10
26
 20
350
 10
24.39999999999986
 20
350
  0
CIRCLE
  5
10C
100
AcDbEntity
  8
metal
  6
ByLayer
 62
  256
370
   -1
100
AcDbCircle
 10
25.20000000000005
 20
25.19999999999994
 40
0.7999999999999545
  0
CIRCLE
  5
10D
100
AcDbEntity
  8
metal
  6
ByLayer
 62
  256
370
   -1
100
AcDbCircle
 10
4.800000000000182
 20
25.20000000000005
 40
0.7999999999999545
  0
CIRCLE
  5
10E
100
AcDbEntity
  8
metal
  6
ByLayer
 62
  256
370
   -1
100
AcDbCircle
 10
4.800000000000182
 20
4.799999999999944
 40
0.7999999999999545
  0
CIRCLE
  5
10F
100
AcDbEntity
  8
metal
  6
ByLayer
 62
  256
370
   -1
100
AcDbCircle
 10
25.19999999999982
 20
4.800000000000047
 40
0.7999999999999545
  0
CIRCLE
  5
110
100
AcDbEntity
  8
metal
  6
ByLayer
 62
  256
370
   -1
100
AcDbCircle
 10
64.80000000000018
 20
25.20000000000005
 40
0.7999999999999545
  0
CIRCLE
  5
111
100
AcDbEntity
  8
metal
  6
ByLayer
 62
  256
370
   -1
100
AcDbCircle
 10
64.80000000000018
 20
4.799999999999944
 40
0.7999999999999545
  0
LWPOLYLINE
  5
112
100
AcDbEntity
  8
concrete
  6
ByLayer
 62
  256
370
   -1
100
AcDbPolyline
 90
    4
 70
    1
 43
0
 10
60
 20
30
 10
85
 20
30
 10
85
 20
0
 10
60
 20
0
  0
CIRCLE
  5
113
100
AcDbEntity
  8
metal
  6
ByLayer
 62
  256
370
   -1
100
AcDbCircle
 10
80.20000000000005
 20
25.19999999999994
 40
0.7999999999999545
  0
CIRCLE
  5
114
100
AcDbEntity
  8
metal
  6
ByLayer
 62
  256
370
   -1
100
AcDbCircle
 10
80.19999999999982
 20
4.800000000000047
 40
0.7999999999999545
  0
LWPOLYLINE
  5
115
100
AcDbEntity
  8
metal
  6
DASHED2
 62
  256
370
   -1
100
AcDbPolyline
 90
    8
 70
    1
 43
0
 10
25.10000000000014
 20
3.099999999999989
 42
0.4142135623730529
 10
26.90000000000009
 20
4.899999999999992
 10
26.89999999999988
 20
25.10000000000001
 42
0.4142135623731351
 10
25.10000000000014
 20
26.90000000000001
 10
4.900000000000091
 20
26.90000000000001
 42
0.4142135623730821
 10
3.099999999999683
 20
25.10000000000001
 10
3.100000000000342
 20
4.900000000000013
 42
0.4142135623730663
 10
4.900000000000091
 20
3.099999999999999
  0
LWPOLYLINE
  5
116
100
AcDbEntity
  8
metal
  6
DASHED2
 62
  256
370
   -1
100
AcDbPolyline
 90
    8
 70
    1
 43
0
 10
25.09999999999991
 20
3.900000000000039
 42
0.4142135623729502
 10
26.09999999999991
 20
4.899999999999999
 10
26.10000000000005
 20
25.1
 42
0.4142135623728495
 10
25.10000000000014
 20
26.09999999999999
 10
4.900000000000091
 20
26.09999999999998
 42
0.4142135623728557
 10
3.900000000000091
 20
25.10000000000001
 10
3.900000000000337
 20
4.899999999999996
 42
0.4142135623728315
 10
4.900000000000091
 20
3.899999999999999
  0
LWPOLYLINE
  5
117
100
AcDbEntity
  8
metal
  6
DASHED2
 62
  256
370
   -1
100
AcDbPolyline
 90
    8
 70
    1
 43
0
 10
80.10000000000014
 20
3.099999999999989
 42
0.4142135623730516
 10
81.90000000000009
 20
4.899999999999989
 10
81.89999999999986
 20
25.10000000000001
 42
0.4142135623731382
 10
80.10000000000014
 20
26.90000000000001
 10
64.90000000000009
 20
26.90000000000001
 42
0.4142135623730905
 10
63.09999999999967
 20
25.10000000000001
 10
63.10000000000076
 20
4.900000000000007
 42
0.4142135623730613
 10
64.90000000000009
 20
3.100000000000001
  0
LWPOLYLINE
  5
118
100
AcDbEntity
  8
metal
  6
DASHED2
 62
  256
370
   -1
100
AcDbPolyline
 90
    8
 70
    1
 43
0
 10
80.09999999999991
 20
3.900000000000039
 42
0.4142135623729502
 10
81.09999999999991
 20
4.899999999999999
 10
81.10000000000005
 20
25.1
 42
0.4142135623728495
 10
80.10000000000014
 20
26.09999999999999
 10
64.90000000000009
 20
26.09999999999998
 42
0.414213562372837
 10
63.90000000000009
 20
25.10000000000001
 10
63.90000000000012
 20
4.900000000000003
 42
0.4142135623728372
 10
64.90000000000032
 20
3.900000000000003
  0
LWPOLYLINE
  5
119
100
AcDbEntity
  8
metal
  6
DASHED2
 62
  256
370
   -1
100
AcDbPolyline
 90
    4
 70
    1
 43
0
 10
26.50000000000023
 20
74.59999999999999
 42
0.9999999999999999
 10
26.50000000000023
 20
75.40000000000001
 10
3.5
 20
75.40000000000001
 42
0.9999999999999999
 10
3.5
 20
74.59999999999999
  0
LWPOLYLINE
  5
11A
100
AcDbEntity
  8
metal
  6
DASHED2
 62
  256
370
   -1
100
AcDbPolyline
 90
    4
 70
    1
 43
0
 10
26.50000000000023
 20
99.59999999999999
 42
0.9999999999999999
 10
26.50000000000023
 20
100.4
 10
3.5
 20
100.4
 42
0.9999999999999999
 10
3.5
 20
99.59999999999999
  0
LWPOLYLINE
  5
11B
100
AcDbEntity
  8
metal
  6
DASHED2
 62
  256
370
   -1
100
AcDbPolyline
 90
    4
 70
    1
 43
0
 10
26.50000000000023
 20
124.6
 42
0.9999999999999999
 10
26.50000000000023
 20
125.4
 10
3.5
 20
125.4
 42
0.9999999999999999
 10
3.5
 20
124.6
  0
LWPOLYLINE
  5
11C
100
AcDbEntity
  8
metal
  6
DASHED2
 62
  256
370
   -1
100
AcDbPolyline
 90
    4
 70
    1
 43
0
 10
26.50000000000023
 20
149.6
 42
0.9999999999999999
 10
26.50000000000023
 20
150.4
 10
3.5
 20
150.4
 42
0.9999999999999999
 10
3.5
 20
149.6
  0
LWPOLYLINE
  5
11D
100
AcDbEntity
  8
metal
  6
DASHED2
 62
  256
370
   -1
100
AcDbPolyline
 90
    4
 70
    1
 43
0
 10
26.50000000000023
 20
174.6
 42
0.9999999999999999
 10
26.50000000000023
 20
175.4
 10
3.5
 20
175.4
 42
0.9999999999999999
 10
3.5
 20
174.6
  0
LWPOLYLINE
  5
11E
100
AcDbEntity
  8
metal
  6
DASHED2
 62
  256
370
   -1
100
AcDbPolyline
 90
    4
 70
    1
 43
0
 10
26.50000000000023
 20
199.6
 42
0.9999999999999999
 10
26.50000000000023
 20
200.4
 10
3.5
 20
200.4
 42
0.9999999999999999
 10
3.5
 20
199.6
  0
LWPOLYLINE
  5
11F
100
AcDbEntity
  8
metal
  6
DASHED2
 62
  256
370
   -1
100
AcDbPolyline
 90
    4
 70
    1
 43
0
 10
26.50000000000023
 20
224.6
 42
0.9999999999999999
 10
26.50000000000023
 20
225.4
 10
3.5
 20
225.4
 42
0.9999999999999999
 10
3.5
 20
224.6
  0
LWPOLYLINE
  5
120
100
AcDbEntity
  8
metal
  6
DASHED2
 62
  256
370
   -1
100
AcDbPolyline
 90
    4
 70
    1
 43
0
 10
26.50000000000023
 20
249.6
 42
0.9999999999999999
 10
26.50000000000023
 20
250.4
 10
3.5
 20
250.4
 42
0.9999999999999999
 10
3.5
 20
249.6
  0
LWPOLYLINE
  5
121
100
AcDbEntity
  8
metal
  6
DASHED2
 62
  256
370
   -1
100
AcDbPolyline
 90
    4
 70
    1
 43
0
 10
26.50000000000023
 20
274.6
 42
0.9999999999999999
 10
26.50000000000023
 20
275.4
 10
3.5
 20
275.4
 42
0.9999999999999999
 10
3.5
 20
274.6
  0
LWPOLYLINE
  5
122
100
AcDbEntity
  8
metal
  6
DASHED2
 62
  256
370
   -1
100
AcDbPolyline
 90
    4
 70
    1
 43
0
 10
26.50000000000023
 20
299.6
 42
0.9999999999999999
 10
26.50000000000023
 20
300.4
 10
3.5
 20
300.4
 42
0.9999999999999999
 10
3.5
 20
299.6
  0
LWPOLYLINE
  5
123
100
AcDbEntity
  8
metal
  6
DASHED2
 62
  256
370
   -1
100
AcDbPolyline
 90
    4
 70
    1
 43
0
 10
26.50000000000023
 20
324.6
 42
0.9999999999999999
 10
26.50000000000023
 20
325.4
 10
3.5
 20
325.4
 42
0.9999999999999999
 10
3.5
 20
324.6
  0
LWPOLYLINE
  5
124
100
AcDbEntity
  8
metal
  6
DASHED2
 62
  256
370
   -1
100
AcDbPolyline
 90
    4
 70
    1
 43
0
 10
64
 20
50
 10
65.60000000000014
 20
50
 10
65.60000000000014
 20
350
 10
64
 20
350
  0
LWPOLYLINE
  5
125
100
AcDbEntity
  8
concrete
  6
ByLayer
 62
  256
370
   -1
100
AcDbPolyline
 90
    4
 70
    1
 43
0
 10
60
 20
334
 10
85
 20
334
 10
85
 20
50
 10
60
 20
50
  0
LWPOLYLINE
  5
126
100
AcDbEntity
  8
metal
  6
DASHED2
 62
  256
370
   -1
100
AcDbPolyline
 90
    4
 70
    1
 43
0
 10
79.39999999999986
 20
50
 10
81
 20
50
 10
81
 20
350
 10
79.39999999999986
 20
350
  0
LWPOLYLINE
  5
127
100
AcDbEntity
  8
metal
  6
DASHED2
 62
  256
370
   -1
100
AcDbPolyline
 90
    4
 70
    1
 43
0
 10
81.50000000000023
 20
74.59999999999999
 42
0.9999999999999999
 10
81.50000000000023
 20
75.40000000000001
 10
63.5
 20
75.40000000000001
 42
0.9999999999999999
 10
63.5
 20
74.59999999999999
  0
LWPOLYLINE
  5
128
100
AcDbEntity
  8
metal
  6
DASHED2
 62
  256
370
   -1
100
AcDbPolyline
 90
    4
 70
    1
 43
0
 10
81.50000000000023
 20
99.59999999999999
 42
0.9999999999999999
 10
81.50000000000023
 20
100.4
 10
63.5
 20
100.4
 42
0.9999999999999999
 10
63.5
 20
99.59999999999999
  0
LWPOLYLINE
  5
129
100
AcDbEntity
  8
metal
  6
DASHED2
 62
  256
370
   -1
100
AcDbPolyline
 90
    4
 70
    1
 43
0
 10
81.50000000000023
 20
124.6
 42
0.9999999999999999
 10
81.50000000000023
 20
125.4
 10
63.5
 20
125.4
 42
0.9999999999999999
 10
63.5
 20
124.6
  0
LWPOLYLINE
  5
12A
100
AcDbEntity
  8
metal
  6
DASHED2
 62
  256
370
   -1
100
AcDbPolyline
 90
    4
 70
    1
 43
0
 10
81.50000000000023
 20
149.6
 42
0.9999999999999999
 10
81.50000000000023
 20
150.4
 10
63.5
 20
150.4
 42
0.9999999999999999
 10
63.5
 20
149.6
  0
LWPOLYLINE
  5
12B
100
AcDbEntity
  8
metal
  6
DASHED2
 62
  256
370
   -1
100
AcDbPolyline
 90
    4
 70
    1
 43
0
 10
81.50000000000023
 20
174.6
 42
0.9999999999999999
 10
81.50000000000023
 20
175.4
 10
63.5
 20
175.4
 42
0.9999999999999999
 10
63.5
 20
174.6
  0
LWPOLYLINE
  5
12C
100
AcDbEntity
  8
metal
  6
DASHED2
 62
  256
370
   -1
100
AcDbPolyline
 90
    4
 70
    1
 43
0
 10
81.50000000000023
 20
199.6
 42
0.9999999999999999
 10
81.50000000000023
 20
200.4
 10
63.5
 20
200.4
 42
0.9999999999999999
 10
63.5
 20
199.6
  0
LWPOLYLINE
  5
12D
100
AcDbEntity
  8
metal
  6
DASHED2
 62
  256
370
   -1
100
AcDbPolyline
 90
    4
 70
    1
 43
0
 10
81.50000000000023
 20
224.6
 42
0.9999999999999999
 10
81.50000000000023
 20
225.4
 10
63.5
 20
225.4
 42
0.9999999999999999
 10
63.5
 20
224.6
  0
LWPOLYLINE
  5
12E
100
AcDbEntity
  8
metal
  6
DASHED2
 62
  256
370
   -1
100
AcDbPolyline
 90
    4
 70
    1
 43
0
 10
81.50000000000023
 20
249.6
 42
0.9999999999999999
 10
81.50000000000023
 20
250.4
 10
63.5
 20
250.4
 42
0.9999999999999999
 10
63.5
 20
249.6
  0
LWPOLYLINE
  5
12F
100
AcDbEntity
  8
metal
  6
DASHED2
 62
  256
370
   -1
100
AcDbPolyline
 90
    4
 70
    1
 43
0
 10
81.50000000000023
 20
274.6
 42
0.9999999999999999
 10
81.50000000000023
 20
275.4
 10
63.5
 20
275.4
 42
0.9999999999999999
 10
63.5
 20
274.6
  0
LWPOLYLINE
  5
130
100
AcDbEntity
  8
metal
  6
DASHED2
 62
  256
370
   -1
100
AcDbPolyline
 90
    4
 70
    1
 43
0
 10
81.50000000000023
 20
299.6
 42
0.9999999999999999
 10
81.50000000000023
 20
300.4
 10
63.5
 20
300.4
 42
0.9999999999999999
 10
63.5
 20
299.6
  0
LWPOLYLINE
  5
131
100
AcDbEntity
  8
metal
  6
DASHED2
 62
  256
370
   -1
100
AcDbPolyline
 90
    4
 70
    1
 43
0
 10
81.50000000000023
 20
324.6
 42
0.9999999999999999
 10
81.50000000000023
 20
325.4
 10
63.5
 20
325.4
 42
0.9999999999999999
 10
63.5
 20
324.6
  0
DIMENSION
  5
132
100
AcDbEntity
  8
dimensions
  6
ByLayer
 62
  256
370
   -1
100
AcDbDimension
  2
*D1
 10
-10
 20
30
 30
0
 11
-20
 21
15
 31
0
 70
   32
 71
    5
 72
    0
  3
Standard
 53
0
210
0
220
0
230
1
100
AcDbAlignedDimension
 13
0
 23
0
 33
0
 14
0
 24
30
 34
0
 50
90
100
AcDbRotatedDimension
  0
DIMENSION
  5
133
100
AcDbEntity
  8
dimensions
  6
ByLayer
 62
  256
370
   -1
100
AcDbDimension
  2
*D2
 10
30
 20
-20
 30
0
 11
15
 21
-10
 31
0
 70
   32
 71
    5
 72
    0
  3
Standard
 53
0
210
0
220
0
230
1
100
AcDbAlignedDimension
 13
0
 23
0
 33
0
 14
30
 24
0
 34
0
100
AcDbRotatedDimension
  0
DIMENSION
  5
134
100
AcDbEntity
  8
dimensions
  6
ByLayer
 62
  256
370
   -1
100
AcDbDimension
  2
*D3
 10
85
 20
-20
 30
0
 11
72.5
 21
-10
 31
0
 70
   32
 71
    5
 72
    0
  3
Standard
 53
0
210
0
220
0
230
1
100
AcDbAlignedDimension
 13
60
 23
0
 33
0
 14
85
 24
0
 34
0
100
AcDbRotatedDimension
  0
DIMENSION
  5
135
100
AcDbEntity
  8
dimensions
  6
ByLayer
 62
  256
370
   -1
100
AcDbDimension
  2
*D4
 10
-40
 20
334
 30
0
 11
-50.00000000000001
 21
192
 31
0
 70
   32
 71
    5
 72
    0
  3
Standard
 53
0
210
0
220
0
230
1
100
AcDbAlignedDimension
 13
0
 23
50
 33
0
 14
0
 24
334
 34
0
 50
90
100
AcDbRotatedDimension
  0
DIMENSION
  5
136
100
AcDbEntity
  8
dimensions
  6
ByLayer
 62
  256
370
   -1
100
AcDbDimension
  2
*D5
 10
-60
 20
350
 30
0
 11
-70.00000000000001
 21
200
 31
0
 70
   32
 71
    5
 72
    0
  3
Standard
 53
0
210
0
220
0
230
1
100
AcDbAlignedDimension
 13
0
 23
50
 33
0
 14
4
 24
350
 34
0
 50
90
100
AcDbRotatedDimension
  0
DIMENSION
  5
137
100
AcDbEntity
  8
dimensions
  6
ByLayer
 62
  256
370
   -1
100
AcDbDimension
  2
*D6
 10
-20
 20
75
 30
0
 11
-30.00000000000001
 21
62.5
 31
0
 70
   32
 71
    5
 72
    0
  3
Standard
 53
0
210
0
220
0
230
1
100
AcDbAlignedDimension
 13
0
 23
50
 33
0
 14
3.099999999999998
 24
75
 34
0
 50
90
100
AcDbRotatedDimension
  0
DIMENSION
  5
138
100
AcDbEntity
  8
dimensions
  6
ByLayer
 62
  256
370
   -1
100
AcDbDimension
  2
*D7
 10
-20
 20
100
 30
0
 11
-30
 21
87.5
 31
0
 70
   32
 71
    5
 72
    0
  3
Standard
 53
0
210
0
220
0
230
1
100
AcDbAlignedDimension
 13
3.099999999999998
 23
75
 33
0
 14
3.1
 24
100
 34
0
 50
90
100
AcDbRotatedDimension
  0
LWPOLYLINE
  5
139
100
AcDbEntity
  8
metal
  6
ByLayer
 62
  256
370
   -1
100
AcDbPolyline
 90
    8
 70
    1
 43
0
 10
172.0000000000001
 20
200
 42
0.414213562373049
 10
173.8000000000001
 20
201.8
 10
173.7999999999999
 20
222
 42
0.4142135623731319
 10
172.0000000000001
 20
223.8
 10
151.8000000000001
 20
223.8
 42
0.4142135623730858
 10
149.9999999999997
 20
222
 10
150.0000000000003
 20
201.8
 42
0.4142135623730673
 10
151.8000000000001
 20
200
  0
LWPOLYLINE
  5
13A
100
AcDbEntity
  8
metal
  6
ByLayer
 62
  256
370
   -1
100
AcDbPolyline
 90
    8
 70
    1
 43
0
 10
171.9999999999999
 20
200.8
 42
0.4142135623729452
 10
172.9999999999999
 20
201.8
 10
173.0000000000001
 20
222
 42
0.4142135623728453
 10
172.0000000000001
 20
223
 10
151.8000000000001
 20
223
 42
0.4142135623728619
 10
150.8000000000001
 20
222
 10
150.8000000000004
 20
201.8
 42
0.414213562372837
 10
151.8000000000001
 20
200.8
  0
LINE
  5
13B
100
AcDbEntity
  8
metal
  6
DASHED2
 62
  256
370
   -1
100
AcDbLine
 10
173.0000000000001
 20
216.9
 11
173.8
 21
216.9
  0
LINE
  5
13C
100
AcDbEntity
  8
metal
  6
ByLayer
 62
  256
370
   -1
100
AcDbLine
 10
173.0000000000001
 20
206.9
 11
173.8000000000001
 21
206.9
  0
DIMENSION
  5
13D
100
AcDbEntity
  8
dimensions
  6
ByLayer
 62
  256
370
   -1
100
AcDbDimension
  2
*D8
 10
140
 20
201.8
 30
0
 11
130
 21
212.8
 31
0
 70
   32
 71
    5
 72
    0
  3
Standard
 53
0
210
0
220
0
230
1
100
AcDbAlignedDimension
 13
151.8000000000001
 23
223.8
 33
0
 14
150
 24
201.8
 34
0
 50
90
100
AcDbRotatedDimension
  0
DIMENSION
  5
13E
100
AcDbEntity
  8
dimensions
  6
ByLayer
 62
  256
370
   -1
100
AcDbDimension
  2
*D9
 10
151.8000000000001
 20
230
 30
0
 11
162.8000000000001
 21
240
 31
0
 70
   32
 71
    5
 72
    0
  3
Standard
 53
0
210
0
220
0
230
1
100
AcDbAlignedDimension
 13
173.8000000000001
 23
222.0000040476179
 33
0
 14
151.8000000000001
 24
223.8
 34
0
100
AcDbRotatedDimension
  0
DIMENSION
  5
13F
100
AcDbEntity
  8
dimensions
  6
ByLayer
 62
  256
370
   -1
100
AcDbDimension
  2
*D10
 10
172.0000000000001
 20
180
 30
0
 11
161.0000000000001
 21
190
 31
0
 70
   32
 71
    5
 72
    0
  3
Standard
 53
0
210
0
220
0
230
1
100
AcDbAlignedDimension
 13
150
 23
201.8
 33
0
 14
172.0000000000001
 24
200
 34
0
100
AcDbRotatedDimension
  0
DIMENSION
  5
140
100
AcDbEntity
  8
dimensions
  6
ByLayer
 62
  256
370
   -1
100
AcDbDimension
  2
*D11
 10
195
 20
222
 30
0
 11
185
 21
214.450002023809
 31
0
 70
   32
 71
    5
 72
    0
  3
Standard
 53
0
210
0
220
0
230
1
100
AcDbAlignedDimension
 13
173.8000000000001
 23
206.9
 33
0
 14
173.8000000000001
 24
222.0000040476179
 34
0
 50
90
100
AcDbRotatedDimension
  0
LWPOLYLINE
  5
141
100
AcDbEntity
  8
metal
  6
ByLayer
 62
  256
370
   -1
100
AcDbPolyline
 90
    8
 70
    1
 43
0
 10
172.0000000000001
 20
300
 42
0.414213562373049
 10
173.8000000000001
 20
301.8
 10
173.7999999999999
 20
322
 42
0.4142135623731179
 10
172.0000000000001
 20
323.8
 10
151.8000000000001
 20
323.8
 42
0.4142135623730719
 10
149.9999999999997
 20
322
 10
150.0000000000003
 20
301.8
 42
0.414213562373058
 10
151.8000000000001
 20
299.9999999999999
  0
LWPOLYLINE
  5
142
100
AcDbEntity
  8
metal
  6
ByLayer
 62
  256
370
   -1
100
AcDbPolyline
 90
    8
 70
    1
 43
0
 10
171.9999999999999
 20
300.8000000000001
 42
0.4142135623729535
 10
172.9999999999999
 20
301.8
 10
173.0000000000001
 20
322.0000000000001
 42
0.4142135623728536
 10
172.0000000000001
 20
323
 10
151.8000000000001
 20
323
 42
0.4142135623728619
 10
150.8000000000001
 20
322
 10
150.8000000000004
 20
301.8
 42
0.414213562372837
 10
151.8000000000001
 20
300.8
  0
LINE
  5
143
100
AcDbEntity
  8
metal
  6
DASHED2
 62
  256
370
   -1
100
AcDbLine
 10
173.0000000000001
 20
316.9
 11
173.8
 21
316.9
  0
LINE
  5
144
100
AcDbEntity
  8
metal
  6
ByLayer
 62
  256
370
   -1
100
AcDbLine
 10
173.0000000000001
 20
306.9
 11
173.8000000000001
 21
306.9
  0
DIMENSION
  5
145
100
AcDbEntity
  8
dimensions
  6
ByLayer
 62
  256
370
   -1
100
AcDbDimension
  2
*D12
 10
151.8000000000001
 20
330
 30
0
 11
161.9000000000001
 21
340
 31
0
 70
   32
 71
    5
 72
    0
  3
Standard
 53
0
210
0
220
0
230
1
100
AcDbAlignedDimension
 13
173.8000000000001
 23
322.0000040476179
 33
0
 14
150
 24
322
 34
0
100
AcDbRotatedDimension
  0
DIMENSION
  5
146
100
AcDbEntity
  8
dimensions
  6
ByLayer
 62
  256
370
   -1
100
AcDbDimension
  2
*D13
 10
140
 20
301.8
 30
0
 11
130
 21
311.9
 31
0
 70
   32
 71
    5
 72
    0
  3
Standard
 53
0
210
0
220
0
230
1
100
AcDbAlignedDimension
 13
151.8000000000001
 23
323.8
 33
0
 14
151.9
 24
300
 34
0
 50
90
100
AcDbRotatedDimension
  0
MTEXT
  5
147
100
AcDbEntity
  8
dimensions
  6
ByLayer
 62
  256
370
   -1
100
AcDbMText
 10
200
 20
312
 30
0
 40
10
 41
48.33333333333334
 71
    4
 72
    1
  1
L = 100
  7
cyrillic_ii
210
0
220
0
230
1
 50
0
 73
    2
 44
1
  0
LWPOLYLINE
  5
148
100
AcDbEntity
  8
metal
  6
ByLayer
 62
  256
370
   -1
100
AcDbPolyline
 90
    8
 70
    1
 43
0
 10
167.0000000000001
 20
-5.329070518200751e-15
 42
0.4142135623730521
 10
168.8000000000001
 20
1.799999999999997
 10
168.7999999999999
 20
22.00000000000002
 42
0.4142135623731377
 10
167.0000000000001
 20
23.80000000000001
 10
151.8000000000001
 20
23.8
 42
0.4142135623730921
 10
149.9999999999997
 20
22
 10
150.0000000000008
 20
1.800000000000009
 42
0.414213562373062
 10
151.8000000000001
 20
4.440892098500626e-16
  0
LWPOLYLINE
  5
149
100
AcDbEntity
  8
metal
  6
ByLayer
 62
  256
370
   -1
100
AcDbPolyline
 90
    8
 70
    1
 43
0
 10
166.9999999999999
 20
0.8000000000000367
 42
0.4142135623729504
 10
167.9999999999999
 20
1.799999999999997
 10
168.0000000000001
 20
22
 42
0.4142135623728463
 10
167.0000000000001
 20
23
 10
151.8000000000001
 20
22.99999999999998
 42
0.4142135623728391
 10
150.8000000000001
 20
22
 10
150.8000000000001
 20
1.800000000000005
 42
0.4142135623728396
 10
151.8000000000003
 20
0.7999999999999963
  0
LINE
  5
14A
100
AcDbEntity
  8
metal
  6
DASHED2
 62
  256
370
   -1
100
AcDbLine
 10
168.0000000000001
 20
16.90000000000001
 11
168.8
 21
16.90000000000001
  0
LINE
  5
14B
100
AcDbEntity
  8
metal
  6
ByLayer
 62
  256
370
   -1
100
AcDbLine
 10
168.0000000000001
 20
6.900000000000006
 11
168.8000000000001
 21
6.900000000000006
  0
DIMENSION
  5
14C
100
AcDbEntity
  8
dimensions
  6
ByLayer
 62
  256
370
   -1
100
AcDbDimension
  2
*D14
 10
190
 20
6.899999999999991
 30
0
 11
180
 21
14.45000162193567
 31
0
 70
   32
 71
    5
 72
    0
  3
Standard
 53
0
210
0
220
0
230
1
100
AcDbAlignedDimension
 13
168.8000000000001
 23
22.00000324387133
 33
0
 14
168.8
 24
6.900000000000006
 34
0
 50
90
100
AcDbRotatedDimension
  0
DIMENSION
  5
14D
100
AcDbEntity
  8
dimensions
  6
ByLayer
 62
  256
370
   -1
100
AcDbDimension
  2
*D15
 10
151.8000005408586
 20
40
 30
0
 11
160.3000002704294
 21
50
 31
0
 70
   32
 71
    5
 72
    0
  3
Standard
 53
0
210
0
220
0
230
1
100
AcDbAlignedDimension
 13
168.8000000000001
 23
21.99999675612928
 33
0
 14
151.8000005408586
 24
23.79999999999998
 34
0
100
AcDbRotatedDimension
  0
DIMENSION
  5
14E
100
AcDbEntity
  8
dimensions
  6
ByLayer
 62
  256
370
   -1
100
AcDbDimension
  2
*D16
 10
140
 20
1.799999999999997
 30
0
 11
130
 21
12.8
 31
0
 70
   32
 71
    5
 72
    0
  3
Standard
 53
0
210
0
220
0
230
1
100
AcDbAlignedDimension
 13
151.7999994591416
 23
23.8
 33
0
 14
150
 24
1.799999999999997
 34
0
 50
90
100
AcDbRotatedDimension
  0
DIMENSION
  5
14F
100
AcDbEntity
  8
dimensions
  6
ByLayer
 62
  256
370
   -1
100
AcDbDimension
  2
*D17
 10
167
 20
-20
 30
0
 11
158.5000000000001
 21
-10
 31
0
 70
   32
 71
    5
 72
    0
  3
Standard
 53
0
210
0
220
0
230
1
100
AcDbAlignedDimension
 13
150.0000000000001
 23
1.799999999999997
 33
0
 14
167
 24
0
 34
0
100
AcDbRotatedDimension
  0
LWPOLYLINE
  5
150
100
AcDbEntity
  8
metal
  6
ByLayer
 62
  256
370
   -1
100
AcDbPolyline
 90
    8
 70
    1
 43
0
 10
167.0000000000001
 20
100
 42
0.4142135623730511
 10
168.8000000000001
 20
101.8
 10
168.7999999999998
 20
122
 42
0.4142135623731434
 10
167.0000000000001
 20
123.8
 10
151.8000000000001
 20
123.8
 42
0.4142135623730928
 10
149.9999999999997
 20
122
 10
150.0000000000007
 20
101.8
 42
0.4142135623730533
 10
151.8000000000001
 20
100
  0
LWPOLYLINE
  5
151
100
AcDbEntity
  8
metal
  6
ByLayer
 62
  256
370
   -1
100
AcDbPolyline
 90
    8
 70
    1
 43
0
 10
166.9999999999999
 20
100.8
 42
0.4142135623729452
 10
167.9999999999999
 20
101.8
 10
168
 20
122
 42
0.4142135623728453
 10
167.0000000000001
 20
123
 10
151.8000000000001
 20
123
 42
0.4142135623728411
 10
150.8000000000001
 20
122
 10
150.8000000000001
 20
101.8
 42
0.4142135623728536
 10
151.8000000000003
 20
100.8
  0
LINE
  5
152
100
AcDbEntity
  8
metal
  6
DASHED2
 62
  256
370
   -1
100
AcDbLine
 10
168.0000000000001
 20
116.9
 11
168.8000000000001
 21
116.9
  0
LINE
  5
153
100
AcDbEntity
  8
metal
  6
ByLayer
 62
  256
370
   -1
100
AcDbLine
 10
168.0000000000001
 20
106.9
 11
168.8000000000001
 21
106.9
  0
DIMENSION
  5
154
100
AcDbEntity
  8
dimensions
  6
ByLayer
 62
  256
370
   -1
100
AcDbDimension
  2
*D18
 10
151.8000005408586
 20
140
 30
0
 11
159.4000000000001
 21
150
 31
0
 70
   32
 71
    5
 72
    0
  3
Standard
 53
0
210
0
220
0
230
1
100
AcDbAlignedDimension
 13
168.8000000000001
 23
121.9999967561293
 33
0
 14
150.0000000000001
 24
122
 34
0
100
AcDbRotatedDimension
  0
DIMENSION
  5
155
100
AcDbEntity
  8
dimensions
  6
ByLayer
 62
  256
370
   -1
100
AcDbDimension
  2
*D19
 10
140
 20
101.8
 30
0
 11
130
 21
111.9
 31
0
 70
   32
 71
    5
 72
    0
  3
Standard
 53
0
210
0
220
0
230
1
100
AcDbAlignedDimension
 13
151.7999994591416
 23
123.8
 33
0
 14
151.8
 24
100
 34
0
 50
90
100
AcDbRotatedDimension
  0
MTEXT
  5
156
100
AcDbEntity
  8
dimensions
  6
ByLayer
 62
  256
370
   -1
100
AcDbMText
 10
200
 20
112
 30
0
 40
10
 41
42.77777777777778
 71
    4
 72
    1
  1
L = 90
  7
cyrillic_ii
210
0
220
0
230
1
 50
0
 73
    2
 44
1
  0
LINE
  5
157
100
AcDbEntity
  8
dimensions
  6
ByLayer
 62
  256
370
   -1
100
AcDbLine
 10
-10
 20
400
 11
210
 21
400
  0
MTEXT
  5
158
100
AcDbEntity
  8
dimensions
  6
ByLayer
 62
  256
370
   -1
100
AcDbMText
 10
250
 20
-100
 30
0
 40
20
 41
81.66666666666885
 71
    6
 72
    1
  1
. 5
  7
cyrillic_ii
210
0
220
0
230
1
 50
0
 73
    2
 44
1
  0
MTEXT
  5
159
100
AcDbEntity
  8
dimensions
  6
ByLayer
 62
  256
370
   -1
100
AcDbMText
 10
100
 20
400
 30
0
 40
20
 41
210.5555555555556
 71
    8
 72
    1
  1
 
  7
cyrillic_ii
210
0
220
0
230
1
 50
0
 73
    2
 44
1
  0
ENDSEC
  0
SECTION
  2
OBJECTS
  0
DICTIONARY
  5
C
330
0
100
AcDbDictionary
281
    1
  3
ACAD_GROUP
350
D
  0
DICTIONARY
  5
D
330
C
100
AcDbDictionary
281
    1
  0
ENDSEC
  0
EOF
