999
dxfrw 0.6.3
  0
SECTION
  2
HEADER
  9
$ACADVER
  1
AC1021
  9
$DWGCODEPAGE
  3
ANSI_1252
  9
$INSBASE
 10
0
 20
0
 30
0
  9
$EXTMIN
 10
-2200
 20
-341.6666666666667
 30
0
  9
$EXTMAX
 10
3700.000000000001
 20
1325
 30
0
  9
$LIMMIN
 10
0
 20
0
  9
$LIMMAX
 10
420
 20
297
  9
$ORTHOMODE
 70
    0
  9
$REGENMODE
 70
    1
  9
$FILLMODE
 70
    1
  9
$QTEXTMODE
 70
    0
  9
$MIRRTEXT
 70
    0
  9
$LTSCALE
 40
1
  9
$ATTMODE
 70
    0
  9
$TEXTSIZE
 40
2.5
  9
$TRACEWID
 40
15.68
  9
$TEXTSTYLE
  7
STANDARD
  9
$CLAYER
  8
0
  9
$CELTYPE
  6
BYLAYER
  9
$CECOLOR
 62
  256
  9
$CELTSCALE
 40
1
  9
$DISPSILH
 70
    0
  9
$DIMSCALE
 40
10
  9
$DIMASZ
 40
2
  9
$DIMEXO
 40
1
  9
$DIMDLI
 40
3.75
  9
$DIMRND
 40
0
  9
$DIMDLE
 40
0
  9
$DIMEXE
 40
2
  9
$DIMTP
 40
0
  9
$DIMTM
 40
0
  9
$DIMTXT
 40
4
  9
$DIMCEN
 40
2.5
  9
$DIMTSZ
 40
2
  9
$DIMTOL
 70
    0
  9
$DIMLIM
 70
    0
  9
$DIMTIH
 70
    0
  9
$DIMTOH
 70
    0
  9
$DIMSE1
 70
    0
  9
$DIMSE2
 70
    0
  9
$DIMTAD
 70
    1
  9
$DIMZIN
 70
    8
  9
$DIMBLK
  1

  9
$DIMASO
 70
    1
  9
$DIMSHO
 70
    1
  9
$DIMPOST
  1

  9
$DIMAPOST
  1

  9
$DIMALT
 70
    0
  9
$DIMALTD
 70
    3
  9
$DIMALTF
 40
0.03937
  9
$DIMLFAC
 40
1
  9
$DIMTOFL
 70
    1
  9
$DIMTVP
 40
0
  9
$DIMTIX
 70
    0
  9
$DIMSOXD
 70
    0
  9
$DIMSAH
 70
    0
  9
$DIMBLK1
  1

  9
$DIMBLK2
  1

  9
$DIMSTYLE
  2
STANDARD
  9
$DIMCLRD
 70
    0
  9
$DIMCLRE
 70
    0
  9
$DIMCLRT
 70
    0
  9
$DIMTFAC
 40
1
  9
$DIMGAP
 40
2
  9
$DIMJUST
 70
    0
  9
$DIMSD1
 70
    0
  9
$DIMSD2
 70
    0
  9
$DIMTOLJ
 70
    0
  9
$DIMTZIN
 70
    8
  9
$DIMALTZ
 70
    0
  9
$DIMALTTZ
 70
    0
  9
$DIMUPT
 70
    0
  9
$DIMDEC
 70
    1
  9
$DIMTDEC
 70
    2
  9
$DIMALTU
 70
    2
  9
$DIMALTTD
 70
    3
  9
$DIMTXSTY
  7
standard
  9
$DIMAUNIT
 70
    0
  9
$DIMADEC
 70
    0
  9
$DIMALTRND
 40
0
  9
$DIMAZIN
 70
    0
  9
$DIMDSEP
 70
   44
  9
$DIMATFIT
 70
    3
  9
$DIMFRAC
 70
    0
  9
$DIMLDRBLK
  1
STANDARD
  9
$DIMLUNIT
 70
    2
  9
$DIMLWD
 70
   -2
  9
$DIMLWE
 70
   -2
  9
$DIMTMOVE
 70
    0
  9
$DIMFXL
 40
1
  9
$DIMFXLON
 70
    0
  9
$DIMJOGANG
 40
0.7854
  9
$DIMTFILL
 70
    0
  9
$DIMTFILLCLR
 70
    0
  9
$DIMARCSYM
 70
    0
  9
$DIMLTYPE
  6

  9
$DIMLTEX1
  6

  9
$DIMLTEX2
  6

  9
$LUNITS
 70
    2
  9
$LUPREC
 70
    2
  9
$SKETCHINC
 40
1
  9
$FILLETRAD
 40
0
  9
$AUNITS
 70
    0
  9
$AUPREC
 70
    2
  9
$MENU
  1
.
  9
$ELEVATION
 40
0
  9
$PELEVATION
 40
0
  9
$THICKNESS
 40
0
  9
$LIMCHECK
 70
    0
  9
$CHAMFERA
 40
0
  9
$CHAMFERB
 40
0
  9
$CHAMFERC
 40
0
  9
$CHAMFERD
 40
0
  9
$SKPOLY
 70
    0
  9
$USRTIMER
 70
    1
  9
$ANGBASE
 50
0
  9
$ANGDIR
 70
    0
  9
$PDMODE
 70
   34
  9
$PDSIZE
 40
0
  9
$PLINEWID
 40
0
  9
$SPLFRAME
 70
    0
  9
$SPLINETYPE
 70
    2
  9
$SPLINESEGS
 70
    8
  9
$HANDSEED
  5
20000
  9
$SURFTAB1
 70
    6
  9
$SURFTAB2
 70
    6
  9
$SURFTYPE
 70
    6
  9
$SURFU
 70
    6
  9
$SURFV
 70
    6
  9
$UCSBASE
  2

  9
$UCSNAME
  2

  9
$UCSORG
 10
0
 20
0
 30
0
  9
$UCSXDIR
 10
1
 20
0
 30
0
  9
$UCSYDIR
 10
0
 20
1
 30
0
  9
$UCSORTHOREF
  2

  9
$UCSORTHOVIEW
 70
    0
  9
$UCSORGTOP
 10
0
 20
0
 30
0
  9
$UCSORGBOTTOM
 10
0
 20
0
 30
0
  9
$UCSORGLEFT
 10
0
 20
0
 30
0
  9
$UCSORGRIGHT
 10
0
 20
0
 30
0
  9
$UCSORGFRONT
 10
0
 20
0
 30
0
  9
$UCSORGBACK
 10
0
 20
0
 30
0
  9
$PUCSBASE
  2

  9
$PUCSNAME
  2

  9
$PUCSORG
 10
0
 20
0
 30
0
  9
$PUCSXDIR
 10
1
 20
0
 30
0
  9
$PUCSYDIR
 10
0
 20
1
 30
0
  9
$PUCSORTHOREF
  2

  9
$PUCSORTHOVIEW
 70
    0
  9
$PUCSORGTOP
 10
0
 20
0
 30
0
  9
$PUCSORGBOTTOM
 10
0
 20
0
 30
0
  9
$PUCSORGLEFT
 10
0
 20
0
 30
0
  9
$PUCSORGRIGHT
 10
0
 20
0
 30
0
  9
$PUCSORGFRONT
 10
0
 20
0
 30
0
  9
$PUCSORGBACK
 10
0
 20
0
 30
0
  9
$USERI1
 70
    0
  9
$USERI2
 70
    0
  9
$USERI3
 70
    0
  9
$USERI4
 70
    0
  9
$USERI5
 70
    0
  9
$USERR1
 40
0
  9
$USERR2
 40
0
  9
$USERR3
 40
0
  9
$USERR4
 40
0
  9
$USERR5
 40
0
  9
$WORLDVIEW
 70
    1
  9
$SHADEDGE
 70
    3
  9
$SHADEDIF
 70
   70
  9
$TILEMODE
 70
    1
  9
$MAXACTVP
 70
   64
  9
$PINSBASE
 10
2.091991924629879
 20
4.459623149394332
 30
0
  9
$PLIMCHECK
 70
    0
  9
$PEXTMIN
 10
0
 20
0
 30
0
  9
$PEXTMAX
 10
0
 20
0
 30
0
  9
$GRIDMODE
 70
    1
  9
$SNAPSTYLE
 70
    0
  9
$GRIDUNIT
 10
0
 20
0
  9
$PLIMMIN
 10
0
 20
0
  9
$PLIMMAX
 10
29.7
 20
21
  9
$UNITMODE
 70
    0
  9
$VISRETAIN
 70
    1
  9
$PLINEGEN
 70
    0
  9
$PSLTSCALE
 70
    1
  9
$TREEDEPTH
 70
 3020
  9
$CMLSTYLE
  2
Standard
  9
$CMLJUST
 70
    0
  9
$CMLSCALE
 40
20
  9
$PROXYGRAPHICS
 70
    1
  9
$MEASUREMENT
 70
    1
  9
$CELWEIGHT
370
   -1
  9
$ENDCAPS
280
    0
  9
$JOINSTYLE
280
    0
  9
$LWDISPLAY
290
    0
  9
$INSUNITS
 70
    5
  9
$HYPERLINKBASE
  1

  9
$STYLESHEET
  1

  9
$XEDIT
290
    1
  9
$CEPSNTYPE
380
    0
  9
$PSTYLEMODE
290
    1
  9
$EXTNAMES
290
    1
  9
$PSVPSCALE
 40
0.01098250596624637
  9
$OLESTARTUP
290
    0
  9
$SORTENTS
280
  127
  9
$INDEXCTL
280
    0
  9
$HIDETEXT
280
    1
  9
$XCLIPFRAME
290
    0
  9
$HALOGAP
280
    0
  9
$OBSCOLOR
 70
  257
  9
$OBSLTYPE
280
    0
  9
$INTERSECTIONDISPLAY
280
    0
  9
$INTERSECTIONCOLOR
 70
  257
  9
$DIMASSOC
280
    1
  9
$PROJECTNAME
  1

  9
$CAMERADISPLAY
290
    0
  9
$LENSLENGTH
 40
50
  9
$CAMERAHEIGHT
 40
0
  9
$STEPSPERSEC
 40
2
  9
$STEPSIZE
 40
50
  9
$3DDWFPREC
 40
2
  9
$PSOLWIDTH
 40
5
  9
$PSOLHEIGHT
 40
80
  9
$LOFTANG1
 40
1.570796326794897
  9
$LOFTANG2
 40
1.570796326794897
  9
$LOFTMAG1
 40
0
  9
$LOFTMAG2
 40
0
  9
$LOFTPARAM
 70
    7
  9
$LOFTNORMALS
280
    1
  9
$LATITUDE
 40
1
  9
$LONGITUDE
 40
1
  9
$NORTHDIRECTION
 40
0
  9
$TIMEZONE
 70
-8000
  9
$LIGHTGLYPHDISPLAY
280
    1
  9
$TILEMODELIGHTSYNCH
280
    1
  9
$SOLIDHIST
280
    1
  9
$SHOWHIST
280
    1
  9
$DWFFRAME
280
    2
  9
$DGNFRAME
280
    0
  9
$REALWORLDSCALE
290
    1
  9
$INTERFERECOLOR
 62
    1
  9
$CSHADOW
280
    0
  9
$SHADOWPLANELOCATION
 40
0
  0
ENDSEC
  0
SECTION
  2
CLASSES
  0
ENDSEC
  0
SECTION
  2
TABLES
  0
TABLE
  2
VPORT
  5
8
330
0
100
AcDbSymbolTable
 70
    1
  0
VPORT
  5
31
330
2
100
AcDbSymbolTableRecord
100
AcDbViewportTableRecord
  2
*ACTIVE
 70
    0
 10
0
 20
0
 11
1
 21
1
 12
1923.327710312328
 22
685.7825268052111
 13
0
 23
0
 14
10
 24
10
 15
10
 25
10
 16
0
 26
0
 36
1
 17
0
 27
0
 37
0
 40
2115.803055673458
 41
1.987870619946092
 42
50
 43
0
 44
0
 50
0
 51
0
 71
    0
 72
  100
 73
    1
 74
    3
 75
    0
 76
    1
 77
    0
 78
    0
281
    0
 65
    1
110
0
120
0
130
0
111
1
121
0
131
0
112
0
122
1
132
0
 79
    0
146
0
348
10020
 60
    7
 61
    5
292
1
282
    1
141
0
142
0
 63
  250
421
3358443
  0
ENDTAB
  0
TABLE
  2
LTYPE
  5
5
330
0
100
AcDbSymbolTable
 70
    4
  0
LTYPE
  5
14
330
5
100
AcDbSymbolTableRecord
100
AcDbLinetypeTableRecord
  2
ByBlock
 70
    0
  3

 72
   65
 73
    0
 40
0
  0
LTYPE
  5
15
330
5
100
AcDbSymbolTableRecord
100
AcDbLinetypeTableRecord
  2
ByLayer
 70
    0
  3

 72
   65
 73
    0
 40
0
  0
LTYPE
  5
16
330
5
100
AcDbSymbolTableRecord
100
AcDbLinetypeTableRecord
  2
Continuous
 70
    0
  3
Solid line
 72
   65
 73
    0
 40
0
  0
LTYPE
  5
32
330
5
100
AcDbSymbolTableRecord
100
AcDbLinetypeTableRecord
  2
DOT
 70
    0
  3
Dot . . . . . . . . . . . . . . . . . . . . . .
 72
   65
 73
    2
 40
6.35
 49
0
 74
    0
 49
-6.35
 74
    0
  0
LTYPE
  5
33
330
5
100
AcDbSymbolTableRecord
100
AcDbLinetypeTableRecord
  2
DOTTINY
 70
    0
  3
Dot (.15x) .....................................
 72
   65
 73
    2
 40
0.9525
 49
0
 74
    0
 49
-0.9525
 74
    0
  0
LTYPE
  5
34
330
5
100
AcDbSymbolTableRecord
100
AcDbLinetypeTableRecord
  2
DOT2
 70
    0
  3
Dot (.5x) .....................................
 72
   65
 73
    2
 40
3.175
 49
0
 74
    0
 49
-3.175
 74
    0
  0
LTYPE
  5
35
330
5
100
AcDbSymbolTableRecord
100
AcDbLinetypeTableRecord
  2
DOTX2
 70
    0
  3
Dot (2x) .  .  .  .  .  .  .  .  .  .  .  .  .
 72
   65
 73
    2
 40
12.7
 49
0
 74
    0
 49
-12.7
 74
    0
  0
LTYPE
  5
36
330
5
100
AcDbSymbolTableRecord
100
AcDbLinetypeTableRecord
  2
DASHED
 70
    0
  3
Dashed _ _ _ _ _ _ _ _ _ _ _ _ _ _ _ _ _
 72
   65
 73
    2
 40
19.05
 49
12.7
 74
    0
 49
-6.35
 74
    0
  0
LTYPE
  5
37
330
5
100
AcDbSymbolTableRecord
100
AcDbLinetypeTableRecord
  2
DASHEDTINY
 70
    0
  3
Dashed (.15x) _ _ _ _ _ _ _ _ _ _ _ _ _ _ _ _ _
 72
   65
 73
    2
 40
2.8575
 49
1.905
 74
    0
 49
-0.9525
 74
    0
  0
LTYPE
  5
38
330
5
100
AcDbSymbolTableRecord
100
AcDbLinetypeTableRecord
  2
DASHED2
 70
    0
  3
Dashed (.5x) _ _ _ _ _ _ _ _ _ _ _ _ _ _ _ _ _
 72
   65
 73
    2
 40
9.524999999999999
 49
6.35
 74
    0
 49
-3.175
 74
    0
  0
LTYPE
  5
39
330
5
100
AcDbSymbolTableRecord
100
AcDbLinetypeTableRecord
  2
DASHEDX2
 70
    0
  3
Dashed (2x) ____  ____  ____  ____  ____  ___
 72
   65
 73
    2
 40
38.09999999999999
 49
25.4
 74
    0
 49
-12.7
 74
    0
  0
LTYPE
  5
3A
330
5
100
AcDbSymbolTableRecord
100
AcDbLinetypeTableRecord
  2
DASHDOT
 70
    0
  3
Dash dot __ . __ . __ . __ . __ . __ . __ . __
 72
   65
 73
    4
 40
25.4
 49
12.7
 74
    0
 49
-6.35
 74
    0
 49
0
 74
    0
 49
-6.35
 74
    0
  0
LTYPE
  5
3B
330
5
100
AcDbSymbolTableRecord
100
AcDbLinetypeTableRecord
  2
DASHDOTTINY
 70
    0
  3
Dash dot (.15x) _._._._._._._._._._._._._._._.
 72
   65
 73
    4
 40
3.81
 49
1.905
 74
    0
 49
-0.9525
 74
    0
 49
0
 74
    0
 49
-0.9525
 74
    0
  0
LTYPE
  5
3C
330
5
100
AcDbSymbolTableRecord
100
AcDbLinetypeTableRecord
  2
DASHDOT2
 70
    0
  3
Dash dot (.5x) _._._._._._._._._._._._._._._.
 72
   65
 73
    4
 40
12.7
 49
6.35
 74
    0
 49
-3.175
 74
    0
 49
0
 74
    0
 49
-3.175
 74
    0
  0
LTYPE
  5
3D
330
5
100
AcDbSymbolTableRecord
100
AcDbLinetypeTableRecord
  2
DASHDOTX2
 70
    0
  3
Dash dot (2x) ____  .  ____  .  ____  .  ___
 72
   65
 73
    4
 40
50.8
 49
25.4
 74
    0
 49
-12.7
 74
    0
 49
0
 74
    0
 49
-12.7
 74
    0
  0
LTYPE
  5
3E
330
5
100
AcDbSymbolTableRecord
100
AcDbLinetypeTableRecord
  2
DIVIDE
 70
    0
  3
Divide ____ . . ____ . . ____ . . ____ . . ____
 72
   65
 73
    6
 40
31.75
 49
12.7
 74
    0
 49
-6.35
 74
    0
 49
0
 74
    0
 49
-6.35
 74
    0
 49
0
 74
    0
 49
-6.35
 74
    0
  0
LTYPE
  5
3F
330
5
100
AcDbSymbolTableRecord
100
AcDbLinetypeTableRecord
  2
DIVIDETINY
 70
    0
  3
Divide (.15x) __..__..__..__..__..__..__..__.._
 72
   65
 73
    6
 40
4.7625
 49
1.905
 74
    0
 49
-0.9525
 74
    0
 49
0
 74
    0
 49
-0.9525
 74
    0
 49
0
 74
    0
 49
-0.9525
 74
    0
  0
LTYPE
  5
40
330
5
100
AcDbSymbolTableRecord
100
AcDbLinetypeTableRecord
  2
DIVIDE2
 70
    0
  3
Divide (.5x) __..__..__..__..__..__..__..__.._
 72
   65
 73
    6
 40
15.875
 49
6.35
 74
    0
 49
-3.175
 74
    0
 49
0
 74
    0
 49
-3.175
 74
    0
 49
0
 74
    0
 49
-3.175
 74
    0
  0
LTYPE
  5
41
330
5
100
AcDbSymbolTableRecord
100
AcDbLinetypeTableRecord
  2
DIVIDEX2
 70
    0
  3
Divide (2x) ________  .  .  ________  .  .  _
 72
   65
 73
    6
 40
63.5
 49
25.4
 74
    0
 49
-12.7
 74
    0
 49
0
 74
    0
 49
-12.7
 74
    0
 49
0
 74
    0
 49
-12.7
 74
    0
  0
LTYPE
  5
42
330
5
100
AcDbSymbolTableRecord
100
AcDbLinetypeTableRecord
  2
BORDER
 70
    0
  3
Border __ __ . __ __ . __ __ . __ __ . __ __ .
 72
   65
 73
    6
 40
44.45
 49
12.7
 74
    0
 49
-6.35
 74
    0
 49
12.7
 74
    0
 49
-6.35
 74
    0
 49
0
 74
    0
 49
-6.35
 74
    0
  0
LTYPE
  5
43
330
5
100
AcDbSymbolTableRecord
100
AcDbLinetypeTableRecord
  2
BORDERTINY
 70
    0
  3
Border (.15x) __.__.__.__.__.__.__.__.__.__.__.
 72
   65
 73
    6
 40
6.6675
 49
1.905
 74
    0
 49
-0.9525
 74
    0
 49
1.905
 74
    0
 49
-0.9525
 74
    0
 49
0
 74
    0
 49
-0.9525
 74
    0
  0
LTYPE
  5
44
330
5
100
AcDbSymbolTableRecord
100
AcDbLinetypeTableRecord
  2
BORDER2
 70
    0
  3
Border (.5x) __.__.__.__.__.__.__.__.__.__.__.
 72
   65
 73
    6
 40
22.225
 49
6.35
 74
    0
 49
-3.175
 74
    0
 49
6.35
 74
    0
 49
-3.175
 74
    0
 49
0
 74
    0
 49
-3.175
 74
    0
  0
LTYPE
  5
45
330
5
100
AcDbSymbolTableRecord
100
AcDbLinetypeTableRecord
  2
BORDERX2
 70
    0
  3
Border (2x) ____  ____  .  ____  ____  .  ___
 72
   65
 73
    6
 40
88.89999999999999
 49
25.4
 74
    0
 49
-12.7
 74
    0
 49
25.4
 74
    0
 49
-12.7
 74
    0
 49
0
 74
    0
 49
-12.7
 74
    0
  0
LTYPE
  5
46
330
5
100
AcDbSymbolTableRecord
100
AcDbLinetypeTableRecord
  2
CENTER
 70
    0
  3
Center ____ _ ____ _ ____ _ ____ _ ____ _ ____
 72
   65
 73
    4
 40
50.8
 49
31.75
 74
    0
 49
-6.35
 74
    0
 49
6.35
 74
    0
 49
-6.35
 74
    0
  0
LTYPE
  5
47
330
5
100
AcDbSymbolTableRecord
100
AcDbLinetypeTableRecord
  2
CENTERTINY
 70
    0
  3
Center (.15x) ___ _ ___ _ ___ _ ___ _ ___ _ ___
 72
   65
 73
    4
 40
7.619999999999999
 49
4.7625
 74
    0
 49
-0.9525
 74
    0
 49
0.9525
 74
    0
 49
-0.9525
 74
    0
  0
LTYPE
  5
48
330
5
100
AcDbSymbolTableRecord
100
AcDbLinetypeTableRecord
  2
CENTER2
 70
    0
  3
Center (.5x) ___ _ ___ _ ___ _ ___ _ ___ _ ___
 72
   65
 73
    4
 40
28.575
 49
19.05
 74
    0
 49
-3.175
 74
    0
 49
3.175
 74
    0
 49
-3.175
 74
    0
  0
LTYPE
  5
49
330
5
100
AcDbSymbolTableRecord
100
AcDbLinetypeTableRecord
  2
CENTERX2
 70
    0
  3
Center (2x) ________  __  ________  __  _____
 72
   65
 73
    4
 40
101.6
 49
63.5
 74
    0
 49
-12.7
 74
    0
 49
12.7
 74
    0
 49
-12.7
 74
    0
  0
ENDTAB
  0
TABLE
  2
LAYER
  5
2
330
0
100
AcDbSymbolTable
 70
    1
  0
LAYER
  5
10
330
2
100
AcDbSymbolTableRecord
100
AcDbLayerTableRecord
  2
0
 70
    0
 62
    7
  6
CONTINUOUS
370
   -3
390
F
1001
LibreCad
1070
    1
  0
LAYER
  5
4A
330
2
100
AcDbSymbolTableRecord
100
AcDbLayerTableRecord
  2
aeroc
 70
    0
 62
   56
420
8421376
  6
CONTINUOUS
370
   50
390
F
  0
LAYER
  5
4B
330
2
100
AcDbSymbolTableRecord
100
AcDbLayerTableRecord
  2
balky
 70
    0
 62
  216
420
8388736
  6
CONTINUOUS
370
   50
390
F
  0
LAYER
  5
4C
330
2
100
AcDbSymbolTableRecord
100
AcDbLayerTableRecord
  2
brick
 70
    0
 62
   16
420
8388608
  6
CONTINUOUS
370
   50
390
F
  0
LAYER
  5
4D
330
2
100
AcDbSymbolTableRecord
100
AcDbLayerTableRecord
  2
cegla
 70
    0
 62
    2
  6
CONTINUOUS
370
   50
390
F
  0
LAYER
  5
4E
330
2
100
AcDbSymbolTableRecord
100
AcDbLayerTableRecord
  2
concrete
 70
    0
 62
  216
420
8388736
  6
CONTINUOUS
370
   50
390
F
  0
LAYER
  5
4F
330
2
100
AcDbSymbolTableRecord
100
AcDbLayerTableRecord
  2
decor
 70
    0
 62
   36
420
8406016
  6
CONTINUOUS
370
   50
390
F
  0
LAYER
  5
50
330
2
100
AcDbSymbolTableRecord
100
AcDbLayerTableRecord
  2
dimensions
 70
    0
 62
    4
  6
CONTINUOUS
370
   13
390
F
  0
LAYER
  5
51
330
2
100
AcDbSymbolTableRecord
100
AcDbLayerTableRecord
  2
epps
 70
    0
 62
   56
420
8421376
  6
CONTINUOUS
370
   50
390
F
  0
LAYER
  5
52
330
2
100
AcDbSymbolTableRecord
100
AcDbLayerTableRecord
  2
face
 70
    0
 62
    3
  6
CONTINUOUS
370
   50
390
F
  0
LAYER
  5
53
330
2
100
AcDbSymbolTableRecord
100
AcDbLayerTableRecord
  2
fundament
 70
    1
 62
  136
420
32896
  6
CONTINUOUS
370
   50
390
F
  0
LAYER
  5
54
330
2
100
AcDbSymbolTableRecord
100
AcDbLayerTableRecord
  2
gazoblok
 70
    0
 62
   56
420
8421376
  6
CONTINUOUS
370
   50
390
F
  0
LAYER
  5
55
330
2
100
AcDbSymbolTableRecord
100
AcDbLayerTableRecord
  2
kontur
 70
    0
 62
  216
420
8388736
  6
CONTINUOUS
370
   50
390
F
  0
LAYER
  5
56
330
2
100
AcDbSymbolTableRecord
100
AcDbLayerTableRecord
  2
metal
 70
    0
 62
    5
  6
CONTINUOUS
370
   25
390
F
  0
LAYER
  5
57
330
2
100
AcDbSymbolTableRecord
100
AcDbLayerTableRecord
  2
muerlat
 70
    0
 62
    3
  6
CONTINUOUS
370
   50
390
F
  0
LAYER
  5
58
330
2
100
AcDbSymbolTableRecord
100
AcDbLayerTableRecord
  2
plyty
 70
    0
 62
    8
  6
CONTINUOUS
370
   50
390
F
  0
LAYER
  5
59
330
2
100
AcDbSymbolTableRecord
100
AcDbLayerTableRecord
  2
styny
 70
    0
 62
   41
420
16376252
  6
CONTINUOUS
370
   50
390
F
  0
LAYER
  5
5A
330
2
100
AcDbSymbolTableRecord
100
AcDbLayerTableRecord
  2
u-block
 70
    0
 62
    6
  6
CONTINUOUS
370
   50
390
F
  0
LAYER
  5
5B
330
2
100
AcDbSymbolTableRecord
100
AcDbLayerTableRecord
  2
vikna_dveri
 70
    0
 62
   36
420
8406016
  6
CONTINUOUS
370
   50
390
F
  0
ENDTAB
  0
TABLE
  2
STYLE
  5
3
330
0
100
AcDbSymbolTable
 70
    3
  0
STYLE
  5
5C
330
2
100
AcDbSymbolTableRecord
100
AcDbTextStyleTableRecord
  2
cyrillic_ii
 70
    0
 40
0
 41
1
 50
0
 71
    0
 42
1
  3
cyrillic_ii
  4

  0
STYLE
  5
5D
330
2
100
AcDbSymbolTableRecord
100
AcDbTextStyleTableRecord
  2
Standard
 70
    0
 40
0
 41
1
 50
0
 71
    0
 42
1
  3
txt
  4

  0
ENDTAB
  0
TABLE
  2
VIEW
  5
6
330
0
100
AcDbSymbolTable
 70
    0
  0
ENDTAB
  0
TABLE
  2
UCS
  5
7
330
0
100
AcDbSymbolTable
 70
    0
  0
ENDTAB
  0
TABLE
  2
APPID
  5
9
330
0
100
AcDbSymbolTable
 70
    1
  0
APPID
  5
12
330
9
100
AcDbSymbolTableRecord
100
AcDbRegAppTableRecord
  2
ACAD
 70
    0
  0
APPID
  5
5E
330
9
100
AcDbSymbolTableRecord
100
AcDbRegAppTableRecord
  2
LibreCad
 70
    0
  0
ENDTAB
  0
TABLE
  2
DIMSTYLE
  5
A
330
0
100
AcDbSymbolTable
 70
    1
100
AcDbDimStyleTable
 71
    1
  0
DIMSTYLE
105
5F
330
A
100
AcDbSymbolTableRecord
100
AcDbDimStyleTableRecord
  2
Standard
 70
    0
 40
10
 41
2
 42
1
 43
0.38
 44
2
 45
0
 46
0
 47
0
 48
0
 49
1
140
4
141
0.09
142
2
143
25.4
144
1
145
0
146
1
147
2
148
0
 71
    0
 72
    0
 73
    0
 74
    1
 75
    0
 76
    0
 77
    0
 78
    8
 79
    0
170
    0
171
    2
172
    0
173
    0
174
    0
175
    0
176
    0
177
    0
178
    0
179
    0
271
    1
272
    4
273
    2
274
    2
275
    0
276
    0
277
    2
278
   44
279
    0
280
    0
281
    0
282
    0
283
    1
284
    0
285
    0
286
    0
288
    0
289
    3
340
standard
341

371
   -2
372
   -2
  0
ENDTAB
  0
TABLE
  2
BLOCK_RECORD
  5
1
330
0
100
AcDbSymbolTable
 70
    2
  0
BLOCK_RECORD
  5
1F
330
1
100
AcDbSymbolTableRecord
100
AcDbBlockTableRecord
  2
*Model_Space
 70
    0
280
    1
281
    0
  0
BLOCK_RECORD
  5
1E
330
1
100
AcDbSymbolTableRecord
100
AcDbBlockTableRecord
  2
*Paper_Space
 70
    0
280
    1
281
    0
  0
BLOCK_RECORD
  5
60
330
1
100
AcDbSymbolTableRecord
100
AcDbBlockTableRecord
  2
*D1
 70
    0
280
    1
281
    0
  0
BLOCK_RECORD
  5
63
330
1
100
AcDbSymbolTableRecord
100
AcDbBlockTableRecord
  2
*D2
 70
    0
280
    1
281
    0
  0
BLOCK_RECORD
  5
66
330
1
100
AcDbSymbolTableRecord
100
AcDbBlockTableRecord
  2
block10
 70
    0
280
    1
281
    0
  0
ENDTAB
  0
ENDSEC
  0
SECTION
  2
BLOCKS
  0
BLOCK
  5
20
330
1F
100
AcDbEntity
  8
0
100
AcDbBlockBegin
  2
*Model_Space
 70
    0
 10
0
 20
0
 30
0
  3
*Model_Space
  1

  0
ENDBLK
  5
21
330
1F
100
AcDbEntity
  8
0
100
AcDbBlockEnd
  0
BLOCK
  5
1C
330
1B
100
AcDbEntity
  8
0
100
AcDbBlockBegin
  2
*Paper_Space
 70
    0
 10
0
 20
0
 30
0
  3
*Paper_Space
  1

  0
ENDBLK
  5
1D
330
1F
100
AcDbEntity
  8
0
100
AcDbBlockEnd
  0
BLOCK
  5
61
330
60
100
AcDbEntity
  8
0
100
AcDbBlockBegin
  2
*D1
 70
    1
 10
0
 20
0
  3
*D1
  1

  0
LINE
  5
69
100
AcDbEntity
  8
dimensions
  6
ByBlock
 62
    0
370
   -2
100
AcDbLine
 10
2400
 20
0
 11
2400
 21
1050
  0
LINE
  5
6A
100
AcDbEntity
  8
dimensions
  6
ByBlock
 62
    0
370
   -2
100
AcDbLine
 10
2385.857864376269
 20
14.14213562373095
 11
2414.142135623731
 21
-14.14213562373095
  0
LINE
  5
6B
100
AcDbEntity
  8
dimensions
  6
ByBlock
 62
    0
370
   -2
100
AcDbLine
 10
2385.857864376269
 20
1064.142135623731
 11
2414.142135623731
 21
1035.857864376269
  0
MTEXT
  5
6C
100
AcDbEntity
  8
dimensions
  6
CONTINUOUS
 62
    0
370
   -2
100
AcDbMText
 10
2360
 20
525
 30
0
 40
40
 41
102.2222222222247
 71
    5
 72
    1
  1
1050
  7
standard
210
0
220
0
230
1
 50
90
 73
    2
 44
1
  0
LINE
  5
6D
100
AcDbEntity
  8
dimensions
  6
ByBlock
 62
    0
370
   -2
100
AcDbLine
 10
2310
 20
8.881784197001252e-16
 11
2420
 21
0
  0
LINE
  5
6E
100
AcDbEntity
  8
dimensions
  6
ByBlock
 62
    0
370
   -2
100
AcDbLine
 10
2310
 20
1050
 11
2420
 21
1050
  0
ENDBLK
  5
62
330
60
100
AcDbEntity
  8
0
100
AcDbBlockEnd
  0
BLOCK
  5
64
330
63
100
AcDbEntity
  8
0
100
AcDbBlockBegin
  2
*D2
 70
    1
 10
0
 20
0
  3
*D2
  1

  0
LINE
  5
6F
100
AcDbEntity
  8
dimensions
  6
ByBlock
 62
    0
370
   -2
100
AcDbLine
 10
1300
 20
-200
 11
2300
 21
-200
  0
LINE
  5
70
100
AcDbEntity
  8
dimensions
  6
ByBlock
 62
    0
370
   -2
100
AcDbLine
 10
1314.142135623731
 20
-185.857864376269
 11
1285.857864376269
 21
-214.142135623731
  0
LINE
  5
71
100
AcDbEntity
  8
dimensions
  6
ByBlock
 62
    0
370
   -2
100
AcDbLine
 10
2314.142135623731
 20
-185.857864376269
 11
2285.857864376269
 21
-214.142135623731
  0
MTEXT
  5
72
100
AcDbEntity
  8
dimensions
  6
CONTINUOUS
 62
    0
370
   -2
100
AcDbMText
 10
1800
 20
-160
 30
0
 40
40
 41
102.2222222222222
 71
    5
 72
    1
  1
1000
  7
standard
210
0
220
0
230
1
 50
0
 73
    2
 44
1
  0
LINE
  5
73
100
AcDbEntity
  8
dimensions
  6
ByBlock
 62
    0
370
   -2
100
AcDbLine
 10
1300
 20
-10
 11
1300
 21
-220
  0
LINE
  5
74
100
AcDbEntity
  8
dimensions
  6
ByBlock
 62
    0
370
   -2
100
AcDbLine
 10
2300
 20
-10
 11
2300
 21
-220
  0
ENDBLK
  5
65
330
63
100
AcDbEntity
  8
0
100
AcDbBlockEnd
  0
BLOCK
  5
67
330
66
100
AcDbEntity
  8
0
100
AcDbBlockBegin
  2
block10
 70
    0
 10
0
 20
0
  3
block10
  1

  0
LWPOLYLINE
  5
75
100
AcDbEntity
  8
0
  6
CONTINUOUS
 62
    7
370
   70
100
AcDbPolyline
 90
   12
 70
    1
 43
0
 10
-0.6062178
 20
1
 10
0
 20
0
 10
0.6062178
 20
1
 10
1.8186533
 20
1
 10
1.2124356
 20
2
 10
1.8186533
 20
3
 10
0.6062178
 20
3
 10
0
 20
4
 10
-0.6062178
 20
3
 10
-1.8186533
 20
3
 10
-1.2124356
 20
2
 10
-1.8186533
 20
1
  0
ENDBLK
  5
68
330
66
100
AcDbEntity
  8
0
100
AcDbBlockEnd
  0
ENDSEC
  0
SECTION
  2
ENTITIES
  0
HATCH
  5
76
100
AcDbEntity
  8
decor
  6
ByLayer
 62
  256
370
   -1
100
AcDbHatch
 10
0
 20
0
 30
0
210
0
220
0
230
1
  2
ar-b816
 70
    0
 71
    0
 91
    1
 92
    0
 93
    4
 72
    1
 10
-500
 20
-960
 11
-1500
 21
-960
 72
    1
 10
-1500
 20
-960
 11
-1500
 21
-1000
 72
    1
 10
-1500
 20
-1000
 11
-500
 21
-1000
 72
    1
 10
-500
 20
-1000
 11
-500
 21
-960
 97
    0
 75
    0
 76
    1
 52
0
 41
0.2
 77
    0
 78
    0
 98
    0
  0
HATCH
  5
77
100
AcDbEntity
  8
decor
  6
ByLayer
 62
  256
370
   -1
100
AcDbHatch
 10
0
 20
0
 30
0
210
0
220
0
230
1
  2
ar-b816
 70
    0
 71
    0
 91
    1
 92
    0
 93
    4
 72
    1
 10
1050
 20
-1000
 11
1050
 21
-960
 72
    1
 10
1050
 20
-960
 11
0
 21
-960
 72
    1
 10
0
 20
-960
 11
0
 21
-1000
 72
    1
 10
0
 20
-1000
 11
1050
 21
-1000
 97
    0
 75
    0
 76
    1
 52
0
 41
0.2
 77
    0
 78
    0
 98
    0
  0
HATCH
  5
78
100
AcDbEntity
  8
decor
  6
ByLayer
 62
  256
370
   -1
100
AcDbHatch
 10
0
 20
0
 30
0
210
0
220
0
230
1
  2
ar-b816
 70
    0
 71
    0
 91
    1
 92
    0
 93
    4
 72
    1
 10
0
 20
40
 11
0
 21
0
 72
    1
 10
0
 20
0
 11
1050
 21
0
 72
    1
 10
1050
 20
0
 11
1050
 21
40
 72
    1
 10
1050
 20
40
 11
0
 21
40
 97
    0
 75
    0
 76
    1
 52
0
 41
0.2
 77
    0
 78
    0
 98
    0
  0
HATCH
  5
79
100
AcDbEntity
  8
face
  6
ByLayer
 62
  256
370
   -1
100
AcDbHatch
 10
0
 20
0
 30
0
210
0
220
0
230
1
  2
gost_stone
 70
    0
 71
    0
 91
    1
 92
    0
 93
    8
 72
    1
 10
3700
 20
8.881784197001252e-16
 11
2700
 21
8.881784197001252e-16
 72
    1
 10
2712
 20
1038
 11
3688
 21
1038
 72
    1
 10
3688
 20
1038
 11
3688
 21
12
 72
    1
 10
3688
 20
12
 11
2712
 21
12
 72
    1
 10
2712
 20
12
 11
2712
 21
1038
 72
    1
 10
2700
 20
8.881784197001252e-16
 11
2700
 21
1050
 72
    1
 10
2700
 20
1050
 11
3700.000000000001
 21
1050
 72
    1
 10
3700.000000000001
 20
1050
 11
3700
 21
8.881784197001252e-16
 97
    0
 75
    0
 76
    1
 52
1.570796326794897
 41
2
 77
    0
 78
    0
 98
    0
  0
HATCH
  5
7A
100
AcDbEntity
  8
decor
  6
ByLayer
 62
  256
370
   -1
100
AcDbHatch
 10
0
 20
0
 30
0
210
0
220
0
230
1
  2
ar-b816
 70
    0
 71
    0
 91
    1
 92
    0
 93
    4
 72
    1
 10
-1500
 20
0
 11
-500
 21
0
 72
    1
 10
-500
 20
0
 11
-500
 21
40
 72
    1
 10
-500
 20
40
 11
-1500
 21
40
 72
    1
 10
-1500
 20
40
 11
-1500
 21
0
 97
    0
 75
    0
 76
    1
 52
0
 41
0.2
 77
    0
 78
    0
 98
    0
  0
HATCH
  5
7B
100
AcDbEntity
  8
fundament
  6
ByLayer
 62
  256
370
   -1
100
AcDbHatch
 10
0
 20
0
 30
0
210
0
220
0
230
1
  2
gost_concrete
 70
    0
 71
    0
 91
    1
 92
    0
 93
    8
 72
    1
 10
-2000
 20
40
 11
-2200
 21
40
 72
    1
 10
-2200
 20
40
 11
-2200
 21
0
 72
    1
 10
-2200
 20
0
 11
-2112
 21
0
 72
    1
 10
-2112
 20
0
 11
-2107
 21
-10
 72
    1
 10
-2107
 20
-10
 11
-2097
 21
10
 72
    1
 10
-2097
 20
10
 11
-2092
 21
0
 72
    1
 10
-2092
 20
0
 11
-2000
 21
0
 72
    1
 10
-2000
 20
0
 11
-2000
 21
40
 97
    0
 75
    0
 76
    1
 52
0
 41
1
 77
    0
 78
    0
 98
    0
  0
HATCH
  5
7C
100
AcDbEntity
  8
fundament
  6
ByLayer
 62
  256
370
   -1
100
AcDbHatch
 10
0
 20
0
 30
0
210
0
220
0
230
1
  2
gost_concrete
 70
    0
 71
    0
 91
    1
 92
    0
 93
    8
 72
    1
 10
-2000
 20
40
 11
-2200
 21
40
 72
    1
 10
-2200
 20
40
 11
-2200
 21
0
 72
    1
 10
-2200
 20
0
 11
-2112
 21
0
 72
    1
 10
-2112
 20
0
 11
-2107
 21
-10
 72
    1
 10
-2107
 20
-10
 11
-2097
 21
10
 72
    1
 10
-2097
 20
10
 11
-2092
 21
0
 72
    1
 10
-2092
 20
0
 11
-2000
 21
0
 72
    1
 10
-2000
 20
0
 11
-2000
 21
40
 97
    0
 75
    0
 76
    1
 52
0
 41
1
 77
    0
 78
    0
 98
    0
  0
HATCH
  5
7D
100
AcDbEntity
  8
styny
  6
ByLayer
 62
  256
370
   -1
100
AcDbHatch
 10
0
 20
0
 30
0
210
0
220
0
230
1
  2
gost_stone
 70
    0
 71
    0
 91
    1
 92
    0
 93
    4
 72
    1
 10
-2012
 20
39.99999999999989
 11
-2011.999999999999
 21
669.9999999999999
 72
    1
 10
-2011.999999999999
 20
669.9999999999999
 11
-1999.999999999999
 21
670.0000000000441
 72
    1
 10
-1999.999999999999
 20
670.0000000000441
 11
-2000
 21
40
 72
    1
 10
-2000
 20
40
 11
-2012
 21
39.99999999999989
 97
    0
 75
    0
 76
    1
 52
1.570796326794897
 41
1
 77
    0
 78
    0
 98
    0
  0
HATCH
  5
7E
100
AcDbEntity
  8
aeroc
  6
ByLayer
 62
  256
370
   -1
100
AcDbHatch
 10
0
 20
0
 30
0
210
0
220
0
230
1
  2
gost_stone
 70
    0
 71
    0
 91
    1
 92
    0
 93
    4
 72
    1
 10
-2016
 20
324
 11
-2016
 21
39.99999999999989
 72
    1
 10
-2016
 20
39.99999999999989
 11
-2046
 21
39.99999999999989
 72
    1
 10
-2046
 20
39.99999999999989
 11
-2046
 21
324
 72
    1
 10
-2046
 20
324
 11
-2016
 21
324
 97
    0
 75
    0
 76
    1
 52
0
 41
2
 77
    0
 78
    0
 98
    0
  0
HATCH
  5
7F
100
AcDbEntity
  8
metal
  6
ByLayer
 62
  256
370
   -1
100
AcDbHatch
 10
0
 20
0
 30
0
210
0
220
0
230
1
  2
SOLID
 70
    1
 71
    0
 91
    1
 92
    0
 93
    1
 72
    2
 10
-2023.5
 20
655.4
 40
0.4000000000000021
 50
0
 51
360
 73
    1
 97
    0
 75
    0
 76
    1
 98
    0
  0
HATCH
  5
80
100
AcDbEntity
  8
metal
  6
ByLayer
 62
  256
370
   -1
100
AcDbHatch
 10
0
 20
0
 30
0
210
0
220
0
230
1
  2
SOLID
 70
    1
 71
    0
 91
    1
 92
    0
 93
    1
 72
    2
 10
-2023.5
 20
669.5999999999999
 40
0.4000000000000021
 50
0
 51
360
 73
    1
 97
    0
 75
    0
 76
    1
 98
    0
  0
HATCH
  5
81
100
AcDbEntity
  8
epps
  6
ByLayer
 62
  256
370
   -1
100
AcDbHatch
 10
0
 20
0
 30
0
210
0
220
0
230
1
  2
gost_non-metal
 70
    0
 71
    0
 91
    1
 92
    0
 93
    4
 72
    1
 10
-2017
 20
367
 11
-2017
 21
343.9999999999999
 72
    1
 10
-2017
 20
343.9999999999999
 11
-2012
 21
343.9999999999999
 72
    1
 10
-2012
 20
343.9999999999999
 11
-2012
 21
366.9999999999999
 72
    1
 10
-2012
 20
366.9999999999999
 11
-2017
 21
367
 97
    0
 75
    0
 76
    1
 52
1.570796326794897
 41
1
 77
    0
 78
    0
 98
    0
  0
HATCH
  5
82
100
AcDbEntity
  8
concrete
  6
ByLayer
 62
  256
370
   -1
100
AcDbHatch
 10
0
 20
0
 30
0
210
0
220
0
230
1
  2
gost_concrete
 70
    0
 71
    0
 91
    1
 92
    0
 93
    4
 72
    1
 10
-2040
 20
330
 11
-2041
 21
344
 72
    1
 10
-2041
 20
344
 11
-2023
 21
344
 72
    1
 10
-2023
 20
344
 11
-2024
 21
330
 72
    1
 10
-2024
 20
330
 11
-2040
 21
330
 97
    0
 75
    0
 76
    1
 52
1.570796326794897
 41
1
 77
    0
 78
    0
 98
    0
  0
HATCH
  5
83
100
AcDbEntity
  8
u-block
  6
ByLayer
 62
  256
370
   -1
100
AcDbHatch
 10
0
 20
0
 30
0
210
0
220
0
230
1
  2
gost_ceramics
 70
    0
 71
    0
 91
    1
 92
    0
 93
    8
 72
    1
 10
-2046
 20
344
 11
-2046
 21
324
 72
    1
 10
-2046
 20
324
 11
-2016
 21
324
 72
    1
 10
-2016
 20
324
 11
-2016
 21
344
 72
    1
 10
-2016
 20
344
 11
-2023
 21
344
 72
    1
 10
-2023
 20
344
 11
-2024
 21
330
 72
    1
 10
-2024
 20
330
 11
-2040
 21
330
 72
    1
 10
-2040
 20
330
 11
-2041
 21
344
 72
    1
 10
-2041
 20
344
 11
-2046
 21
344
 97
    0
 75
    0
 76
    1
 52
0
 41
2
 77
    0
 78
    0
 98
    0
  0
HATCH
  5
84
100
AcDbEntity
  8
metal
  6
ByLayer
 62
  256
370
   -1
100
AcDbHatch
 10
0
 20
0
 30
0
210
0
220
0
230
1
  2
SOLID
 70
    1
 71
    0
 91
    1
 92
    0
 93
    1
 72
    2
 10
-2026
 20
332.4
 40
0.4000000000000004
 50
0
 51
360
 73
    1
 97
    0
 75
    0
 76
    1
 98
    0
  0
HATCH
  5
85
100
AcDbEntity
  8
metal
  6
ByLayer
 62
  256
370
   -1
100
AcDbHatch
 10
0
 20
0
 30
0
210
0
220
0
230
1
  2
SOLID
 70
    1
 71
    0
 91
    1
 92
    0
 93
    1
 72
    2
 10
-2026
 20
341.6
 40
0.4000000000000021
 50
0
 51
360
 73
    1
 97
    0
 75
    0
 76
    1
 98
    0
  0
HATCH
  5
86
100
AcDbEntity
  8
metal
  6
ByLayer
 62
  256
370
   -1
100
AcDbHatch
 10
0
 20
0
 30
0
210
0
220
0
230
1
  2
SOLID
 70
    1
 71
    0
 91
    1
 92
    0
 93
    1
 72
    2
 10
-2038
 20
332.4
 40
0.4000000000000004
 50
0
 51
360
 73
    1
 97
    0
 75
    0
 76
    1
 98
    0
  0
HATCH
  5
87
100
AcDbEntity
  8
metal
  6
ByLayer
 62
  256
370
   -1
100
AcDbHatch
 10
0
 20
0
 30
0
210
0
220
0
230
1
  2
SOLID
 70
    1
 71
    0
 91
    1
 92
    0
 93
    1
 72
    2
 10
-2038
 20
341.6
 40
0.4000000000000021
 50
0
 51
360
 73
    1
 97
    0
 75
    0
 76
    1
 98
    0
  0
HATCH
  5
88
100
AcDbEntity
  8
metal
  6
ByLayer
 62
  256
370
   -1
100
AcDbHatch
 10
0
 20
0
 30
0
210
0
220
0
230
1
  2
SOLID
 70
    1
 71
    0
 91
    1
 92
    0
 93
    1
 72
    2
 10
-2023.100000000001
 20
348.4
 40
0.4000000000000021
 50
0
 51
360
 73
    1
 97
    0
 75
    0
 76
    1
 98
    0
  0
HATCH
  5
89
100
AcDbEntity
  8
metal
  6
ByLayer
 62
  256
370
   -1
100
AcDbHatch
 10
0
 20
0
 30
0
210
0
220
0
230
1
  2
SOLID
 70
    1
 71
    0
 91
    1
 92
    0
 93
    1
 72
    2
 10
-2023.100000000001
 20
362.6
 40
0.4000000000000021
 50
0
 51
360
 73
    1
 97
    0
 75
    0
 76
    1
 98
    0
  0
HATCH
  5
8A
100
AcDbEntity
  8
plyty
  6
ByLayer
 62
  256
370
   -1
100
AcDbHatch
 10
0
 20
0
 30
0
210
0
220
0
230
1
  2
gost_concrete
 70
    0
 71
    0
 91
    1
 92
    0
 93
    4
 72
    1
 10
-2031
 20
344.9999999999999
 11
-2200
 21
344.9999999999999
 72
    1
 10
-2200
 20
344.9999999999999
 11
-2200
 21
366.9999999999998
 72
    1
 10
-2200
 20
366.9999999999998
 11
-2031
 21
366.9999999999998
 72
    1
 10
-2031
 20
366.9999999999998
 11
-2031
 21
344.9999999999999
 97
    0
 75
    0
 76
    1
 52
0
 41
1
 77
    0
 78
    0
 98
    0
  0
HATCH
  5
8B
100
AcDbEntity
  8
kontur
  6
ByLayer
 62
  256
370
   -1
100
AcDbHatch
 10
0
 20
0
 30
0
210
0
220
0
230
1
  2
gost_concrete
 70
    0
 71
    0
 91
    1
 92
    0
 93
    4
 72
    1
 10
-2031
 20
344
 11
-2031
 21
366.9999999999998
 72
    1
 10
-2031
 20
366.9999999999998
 11
-2017
 21
366.9999999999998
 72
    1
 10
-2017
 20
366.9999999999998
 11
-2017
 21
343.9999999999999
 72
    1
 10
-2017
 20
343.9999999999999
 11
-2031
 21
344
 97
    0
 75
    0
 76
    1
 52
1.570796326794897
 41
1
 77
    0
 78
    0
 98
    0
  0
HATCH
  5
8C
100
AcDbEntity
  8
kontur
  6
ByLayer
 62
  256
370
   -1
100
AcDbHatch
 10
0
 20
0
 30
0
210
0
220
0
230
1
  2
gost_concrete
 70
    0
 71
    0
 91
    1
 92
    0
 93
    4
 72
    1
 10
-2017
 20
673.9999999999998
 11
-2017
 21
650.9999999999999
 72
    1
 10
-2017
 20
650.9999999999999
 11
-2031
 21
651
 72
    1
 10
-2031
 20
651
 11
-2031
 21
673.9999999999998
 72
    1
 10
-2031
 20
673.9999999999998
 11
-2017
 21
673.9999999999998
 97
    0
 75
    0
 76
    1
 52
1.570796326794897
 41
1
 77
    0
 78
    0
 98
    0
  0
HATCH
  5
8D
100
AcDbEntity
  8
plyty
  6
ByLayer
 62
  256
370
   -1
100
AcDbHatch
 10
0
 20
0
 30
0
210
0
220
0
230
1
  2
gost_concrete
 70
    0
 71
    0
 91
    1
 92
    0
 93
    4
 72
    1
 10
-2200
 20
673.9999999999998
 11
-2031
 21
673.9999999999998
 72
    1
 10
-2031
 20
673.9999999999998
 11
-2031
 21
651.9999999999999
 72
    1
 10
-2031
 20
651.9999999999999
 11
-2200
 21
651.9999999999999
 72
    1
 10
-2200
 20
651.9999999999999
 11
-2200
 21
673.9999999999998
 97
    0
 75
    0
 76
    1
 52
0
 41
1
 77
    0
 78
    0
 98
    0
  0
HATCH
  5
8E
100
AcDbEntity
  8
muerlat
  6
ByLayer
 62
  256
370
   -1
100
AcDbHatch
 10
0
 20
0
 30
0
210
0
220
0
230
1
  2
gost_wood
 70
    0
 71
    0
 91
    1
 92
    0
 93
    4
 72
    1
 10
-2032
 20
696.9596491228812
 11
-2032
 21
681.9596491228812
 72
    1
 10
-2032
 20
681.9596491228812
 11
-2017
 21
681.9596491228812
 72
    1
 10
-2017
 20
681.9596491228812
 11
-2017
 21
696.9596491228812
 72
    1
 10
-2017
 20
696.9596491228812
 11
-2032
 21
696.9596491228812
 97
    0
 75
    0
 76
    1
 52
0
 41
1
 77
    0
 78
    0
 98
    0
  0
HATCH
  5
8F
100
AcDbEntity
  8
metal
  6
ByLayer
 62
  256
370
   -1
100
AcDbHatch
 10
0
 20
0
 30
0
210
0
220
0
230
1
  2
SOLID
 70
    1
 71
    0
 91
    1
 92
    0
 93
    1
 72
    2
 10
-2038
 20
648.5999999999999
 40
0.4000000000000021
 50
0
 51
360
 73
    1
 97
    0
 75
    0
 76
    1
 98
    0
  0
HATCH
  5
90
100
AcDbEntity
  8
metal
  6
ByLayer
 62
  256
370
   -1
100
AcDbHatch
 10
0
 20
0
 30
0
210
0
220
0
230
1
  2
SOLID
 70
    1
 71
    0
 91
    1
 92
    0
 93
    1
 72
    2
 10
-2038
 20
639.4
 40
0.4000000000000004
 50
0
 51
360
 73
    1
 97
    0
 75
    0
 76
    1
 98
    0
  0
HATCH
  5
91
100
AcDbEntity
  8
metal
  6
ByLayer
 62
  256
370
   -1
100
AcDbHatch
 10
0
 20
0
 30
0
210
0
220
0
230
1
  2
SOLID
 70
    1
 71
    0
 91
    1
 92
    0
 93
    1
 72
    2
 10
-2026
 20
648.5999999999999
 40
0.4000000000000021
 50
0
 51
360
 73
    1
 97
    0
 75
    0
 76
    1
 98
    0
  0
HATCH
  5
92
100
AcDbEntity
  8
metal
  6
ByLayer
 62
  256
370
   -1
100
AcDbHatch
 10
0
 20
0
 30
0
210
0
220
0
230
1
  2
SOLID
 70
    1
 71
    0
 91
    1
 92
    0
 93
    1
 72
    2
 10
-2026
 20
639.4
 40
0.4000000000000004
 50
0
 51
360
 73
    1
 97
    0
 75
    0
 76
    1
 98
    0
  0
HATCH
  5
93
100
AcDbEntity
  8
aeroc
  6
ByLayer
 62
  256
370
   -1
100
AcDbHatch
 10
0
 20
0
 30
0
210
0
220
0
230
1
  2
gost_stone
 70
    0
 71
    0
 91
    1
 92
    0
 93
    4
 72
    1
 10
-2046
 20
631
 11
-2016
 21
631
 72
    1
 10
-2016
 20
631
 11
-2016
 21
367
 72
    1
 10
-2016
 20
367
 11
-2046
 21
367
 72
    1
 10
-2046
 20
367
 11
-2046
 21
631
 97
    0
 75
    0
 76
    1
 52
0
 41
2
 77
    0
 78
    0
 98
    0
  0
HATCH
  5
94
100
AcDbEntity
  8
u-block
  6
ByLayer
 62
  256
370
   -1
100
AcDbHatch
 10
0
 20
0
 30
0
210
0
220
0
230
1
  2
gost_ceramics
 70
    0
 71
    0
 91
    1
 92
    0
 93
    8
 72
    1
 10
-2040
 20
637
 11
-2041
 21
651
 72
    1
 10
-2041
 20
651
 11
-2046
 21
651
 72
    1
 10
-2046
 20
651
 11
-2046
 21
631
 72
    1
 10
-2046
 20
631
 11
-2016
 21
631
 72
    1
 10
-2016
 20
631
 11
-2016
 21
651
 72
    1
 10
-2016
 20
651
 11
-2023
 21
651
 72
    1
 10
-2023
 20
651
 11
-2024
 21
637
 72
    1
 10
-2024
 20
637
 11
-2040
 21
637
 97
    0
 75
    0
 76
    1
 52
0
 41
2
 77
    0
 78
    0
 98
    0
  0
HATCH
  5
95
100
AcDbEntity
  8
concrete
  6
ByLayer
 62
  256
370
   -1
100
AcDbHatch
 10
0
 20
0
 30
0
210
0
220
0
230
1
  2
gost_concrete
 70
    0
 71
    0
 91
    1
 92
    0
 93
    4
 72
    1
 10
-2023
 20
651
 11
-2024
 21
637
 72
    1
 10
-2024
 20
637
 11
-2040
 21
637
 72
    1
 10
-2040
 20
637
 11
-2041
 21
651
 72
    1
 10
-2041
 20
651
 11
-2023
 21
651
 97
    0
 75
    0
 76
    1
 52
1.570796326794897
 41
1
 77
    0
 78
    0
 98
    0
  0
HATCH
  5
96
100
AcDbEntity
  8
brick
  6
ByLayer
 62
  256
370
   -1
100
AcDbHatch
 10
0
 20
0
 30
0
210
0
220
0
230
1
  2
gost_ferroconcrete
 70
    0
 71
    0
 91
    1
 92
    0
 93
    4
 72
    1
 10
-2038
 20
682
 11
-2038
 21
674
 72
    1
 10
-2038
 20
674
 11
-2013
 21
673.9999999999999
 72
    1
 10
-2013
 20
673.9999999999999
 11
-2013
 21
681.9999999999999
 72
    1
 10
-2013
 20
681.9999999999999
 11
-2038
 21
682
 97
    0
 75
    0
 76
    1
 52
0
 41
1
 77
    0
 78
    0
 98
    0
  0
HATCH
  5
97
100
AcDbEntity
  8
epps
  6
ByLayer
 62
  256
370
   -1
100
AcDbHatch
 10
0
 20
0
 30
0
210
0
220
0
230
1
  2
gost_non-metal
 70
    0
 71
    0
 91
    1
 92
    0
 93
    4
 72
    1
 10
-2012
 20
650.9999999999999
 11
-2012
 21
673.9999999999999
 72
    1
 10
-2012
 20
673.9999999999999
 11
-2017
 21
674
 72
    1
 10
-2017
 20
674
 11
-2017
 21
650.9999999999999
 72
    1
 10
-2017
 20
650.9999999999999
 11
-2012
 21
650.9999999999999
 97
    0
 75
    0
 76
    1
 52
1.570796326794897
 41
1
 77
    0
 78
    0
 98
    0
  0
HATCH
  5
98
100
AcDbEntity
  8
brick
  6
ByLayer
 62
  256
370
   -1
100
AcDbHatch
 10
0
 20
0
 30
0
210
0
220
0
230
1
  2
gost_ferroconcrete
 70
    0
 71
    0
 91
    1
 92
    0
 93
    4
 72
    1
 10
-2012
 20
693
 11
-2011.999999999999
 21
669.9999999999999
 72
    1
 10
-2011.999999999999
 20
669.9999999999999
 11
-2000
 21
670
 72
    1
 10
-2000
 20
670
 11
-2000.000000000001
 21
693.0000000000001
 72
    1
 10
-2000.000000000001
 20
693.0000000000001
 11
-2012
 21
693
 97
    0
 75
    0
 76
    1
 52
0
 41
1
 77
    0
 78
    0
 98
    0
  0
HATCH
  5
99
100
AcDbEntity
  8
fundament
  6
ByLayer
 62
  256
370
   -1
100
AcDbHatch
 10
0
 20
0
 30
0
210
0
220
0
230
1
  2
concrete
 70
    0
 71
    0
 91
    1
 92
    0
 93
   24
 72
    1
 10
1340
 20
40.00000000000001
 11
1640
 21
40.00003600000008
 72
    1
 10
1640
 20
40.00003600000008
 11
1640
 21
513
 72
    1
 10
1640
 20
513
 11
1340
 21
513
 72
    1
 10
1340
 20
513
 11
1340
 21
40.00000000000001
 72
    1
 10
1680
 20
513
 11
1810
 21
513
 72
    1
 10
1810
 20
513
 11
1810
 21
40.00003600000008
 72
    1
 10
1810
 20
40.00003600000008
 11
1680
 21
40.00003600000008
 72
    1
 10
1680
 20
40.00003600000008
 11
1680
 21
513
 72
    1
 10
1300
 20
1050
 11
2300
 21
1050
 72
    1
 10
2300
 20
1050
 11
2300
 21
0
 72
    1
 10
2300
 20
0
 11
1300
 21
0
 72
    1
 10
1300
 20
0
 11
1300
 21
1050
 72
    1
 10
2260
 20
40.00000000000001
 11
1850
 21
40.00000000000001
 72
    1
 10
1850
 20
40.00000000000001
 11
1850
 21
513
 72
    1
 10
1850
 20
513
 11
2260
 21
513
 72
    1
 10
2260
 20
513
 11
2260
 21
40.00000000000001
 72
    1
 10
1850
 20
553
 11
2260
 21
553
 72
    1
 10
2260
 20
553
 11
2260
 21
1010
 72
    1
 10
2260
 20
1010
 11
1850
 21
1010
 72
    1
 10
1850
 20
1010
 11
1850
 21
553
 72
    1
 10
1810
 20
553
 11
1340
 21
553
 72
    1
 10
1340
 20
553
 11
1340
 21
1010
 72
    1
 10
1340
 20
1010
 11
1810
 21
1010
 72
    1
 10
1810
 20
1010
 11
1810
 21
553
 97
    0
 75
    0
 76
    1
 52
0
 41
10
 77
    0
 78
    0
 98
    0
  0
HATCH
  5
9A
100
AcDbEntity
  8
face
  6
ByLayer
 62
  256
370
   -1
100
AcDbHatch
 10
0
 20
0
 30
0
210
0
220
0
230
1
  2
gost_stone
 70
    0
 71
    0
 91
    1
 92
    0
 93
   13
 72
    1
 10
2223
 20
51
 11
2249
 21
51
 72
    1
 10
2249
 20
51
 11
2249
 21
77
 72
    1
 10
2249
 20
77
 11
2249
 21
77
 72
    1
 10
2249
 20
77
 11
2300
 21
77
 72
    1
 10
2300
 20
77
 11
2300
 21
8.881784197001252e-16
 72
    1
 10
2300
 20
8.881784197001252e-16
 11
2223
 21
8.881784197001252e-16
 72
    1
 10
2223
 20
8.881784197001252e-16
 11
2223
 21
51
 72
    1
 10
2288
 20
12
 11
2235
 21
12
 72
    1
 10
2235
 20
12
 11
2235
 21
39
 72
    1
 10
2235
 20
39
 11
2261
 21
39
 72
    1
 10
2261
 20
39
 11
2261
 21
65
 72
    1
 10
2261
 20
65
 11
2288
 21
65
 72
    1
 10
2288
 20
65
 11
2288
 21
12
 97
    0
 75
    0
 76
    1
 52
1.570796326794897
 41
2
 77
    0
 78
    0
 98
    0
  0
HATCH
  5
9B
100
AcDbEntity
  8
face
  6
ByLayer
 62
  256
370
   -1
100
AcDbHatch
 10
0
 20
0
 30
0
210
0
220
0
230
1
  2
gost_stone
 70
    0
 71
    0
 91
    1
 92
    0
 93
   12
 72
    1
 10
2288
 20
245
 11
1847
 21
245
 72
    1
 10
1847
 20
245
 11
1847
 21
12
 72
    1
 10
1847
 20
12
 11
1312
 21
12
 72
    1
 10
1312
 20
12
 11
1312
 21
1038
 72
    1
 10
1312
 20
1038
 11
2288
 21
1038
 72
    1
 10
2288
 20
1038
 11
2288
 21
245
 72
    1
 10
1859
 20
233
 11
1859
 21
8.881784197001252e-16
 72
    1
 10
1859
 20
8.881784197001252e-16
 11
1300
 21
8.881784197001252e-16
 72
    1
 10
1300
 20
8.881784197001252e-16
 11
1300
 21
1050
 72
    1
 10
1300
 20
1050
 11
2300
 21
1050
 72
    1
 10
2300
 20
1050
 11
2300
 21
233
 72
    1
 10
2300
 20
233
 11
1859
 21
233
 97
    0
 75
    0
 76
    1
 52
1.570796326794897
 41
2
 77
    0
 78
    0
 98
    0
  0
HATCH
  5
9C
100
AcDbEntity
  8
face
  6
ByLayer
 62
  256
370
   -1
100
AcDbHatch
 10
0
 20
0
 30
0
210
0
220
0
230
1
  2
gost_stone
 70
    0
 71
    0
 91
    1
 92
    0
 93
    8
 72
    1
 10
2073
 20
51
 11
2009
 21
51
 72
    1
 10
2009
 20
51
 11
2009
 21
8.881784197001252e-16
 72
    1
 10
2009
 20
8.881784197001252e-16
 11
2073
 21
8.881784197001252e-16
 72
    1
 10
2073
 20
8.881784197001252e-16
 11
2073
 21
51
 72
    1
 10
2021
 20
12
 11
2061
 21
12
 72
    1
 10
2061
 20
12
 11
2061
 21
39
 72
    1
 10
2061
 20
39
 11
2021
 21
39
 72
    1
 10
2021
 20
39
 11
2021
 21
12
 97
    0
 75
    0
 76
    1
 52
1.570796326794897
 41
2
 77
    0
 78
    0
 98
    0
  0
MTEXT
  5
9D
100
AcDbEntity
  8
dimensions
  6
ByLayer
 62
  256
370
   -1
100
AcDbMText
 10
530
 20
1300
 30
0
 40
50
 41
868.0555555555632
 71
    5
 72
    1
  1
Розрiз Б-Б. Низ коробки.
  7
cyrillic_ii
210
0
220
0
230
1
 50
0
 73
    2
 44
1
  0
MTEXT
  5
9E
100
AcDbEntity
  8
dimensions
  6
ByLayer
 62
  256
370
   -1
100
AcDbMText
 10
2500
 20
-300
 30
0
 40
50
 41
204.166666666669
 71
    6
 72
    1
  1
Стр. 7
  7
cyrillic_ii
210
0
220
0
230
1
 50
0
 73
    2
 44
1
  0
LINE
  5
9F
100
AcDbEntity
  8
dimensions
  6
ByLayer
 62
  256
370
   -1
100
AcDbLine
 10
80
 20
1260
 11
970.0000000000001
 21
1260
  0
DIMENSION
  5
A0
100
AcDbEntity
  8
dimensions
  6
ByLayer
 62
  256
370
   -1
100
AcDbDimension
  2
*D1
 10
2400
 20
1000
 30
0
 11
2360
 21
525
 31
0
 70
   32
 71
    5
 72
    0
  3
Standard
 53
0
210
0
220
0
230
1
100
AcDbAlignedDimension
 13
2300
 23
8.881784197001252e-16
 33
0
 14
2300
 24
1050
 34
0
 50
90
100
AcDbRotatedDimension
  0
LINE
  5
A1
100
AcDbEntity
  8
dimensions
  6
DASHDOT2
 62
  256
370
   -1
100
AcDbLine
 10
2242.5
 20
1002.5
 11
2242.5
 21
982.5
  0
LINE
  5
A2
100
AcDbEntity
  8
dimensions
  6
DASHDOT2
 62
  256
370
   -1
100
AcDbLine
 10
2232.5
 20
992.5
 11
2252.5
 21
992.5
  0
LINE
  5
A3
100
AcDbEntity
  8
fundament
  6
DASHED2
 62
  256
370
   -1
100
AcDbLine
 10
2300
 20
983.0000000000001
 11
2260
 21
983
  0
LINE
  5
A4
100
AcDbEntity
  8
fundament
  6
DASHED2
 62
  256
370
   -1
100
AcDbLine
 10
2260
 20
1003
 11
2300
 21
1003
  0
LINE
  5
A5
100
AcDbEntity
  8
dimensions
  6
DASHDOT2
 62
  256
370
   -1
100
AcDbLine
 10
1540
 20
180
 11
1520
 21
180
  0
LINE
  5
A6
100
AcDbEntity
  8
dimensions
  6
DASHDOT2
 62
  256
370
   -1
100
AcDbLine
 10
1530
 20
190
 11
1530
 21
170
  0
LINE
  5
A7
100
AcDbEntity
  8
fundament
  6
DASHED2
 62
  256
370
   -1
100
AcDbLine
 10
1520.5
 20
122.5
 11
1520.5
 21
162.5
  0
LINE
  5
A8
100
AcDbEntity
  8
fundament
  6
DASHED2
 62
  256
370
   -1
100
AcDbLine
 10
1540.5
 20
162.5
 11
1540.5
 21
122.5
  0
LWPOLYLINE
  5
A9
100
AcDbEntity
  8
fundament
  6
ByLayer
 62
  256
370
   -1
100
AcDbPolyline
 90
    4
 70
    1
 43
0
 10
1300
 20
1050
 10
2300
 20
1050
 10
2300
 20
0
 10
1300
 20
0
  0
LWPOLYLINE
  5
AA
100
AcDbEntity
  8
fundament
  6
ByLayer
 62
  256
370
   -1
100
AcDbPolyline
 90
    4
 70
    1
 43
0
 10
2260
 20
40.00000000000001
 10
1850
 20
40.00000000000001
 10
1850
 20
513
 10
2260
 20
513
  0
LWPOLYLINE
  5
AB
100
AcDbEntity
  8
fundament
  6
ByLayer
 62
  256
370
   -1
100
AcDbPolyline
 90
    4
 70
    1
 43
0
 10
2260
 20
1010
 10
1850
 20
1010
 10
1850
 20
553
 10
2260
 20
553
  0
LWPOLYLINE
  5
AC
100
AcDbEntity
  8
fundament
  6
ByLayer
 62
  256
370
   -1
100
AcDbPolyline
 90
    4
 70
    1
 43
0
 10
1340
 20
1010
 10
1810
 20
1010
 10
1810
 20
553
 10
1340
 20
553
  0
LWPOLYLINE
  5
AD
100
AcDbEntity
  8
fundament
  6
ByLayer
 62
  256
370
   -1
100
AcDbPolyline
 90
    4
 70
    1
 43
0
 10
1340
 20
40.00000000000001
 10
1640
 20
40.00003600000008
 10
1640
 20
513
 10
1340
 20
513
  0
LWPOLYLINE
  5
AE
100
AcDbEntity
  8
fundament
  6
ByLayer
 62
  256
370
   -1
100
AcDbPolyline
 90
    4
 70
    1
 43
0
 10
1680
 20
513
 10
1810
 20
513
 10
1810
 20
40.00003600000008
 10
1680
 20
40.00003600000008
  0
LWPOLYLINE
  5
AF
100
AcDbEntity
  8
face
  6
ByLayer
 62
  256
370
   -1
100
AcDbPolyline
 90
    8
 70
    0
 43
0
 10
2300
 20
8.881784197001252e-16
 10
2223
 20
8.881784197001252e-16
 10
2223
 20
51
 10
2249
 20
51
 10
2249
 20
77
 10
2249
 20
77
 10
2300
 20
77
 10
2300
 20
8.881784197001252e-16
  0
LWPOLYLINE
  5
B0
100
AcDbEntity
  8
face
  6
ByLayer
 62
  256
370
   -1
100
AcDbPolyline
 90
    7
 70
    0
 43
0
 10
2288
 20
12
 10
2235
 20
12
 10
2235
 20
39
 10
2261
 20
39
 10
2261
 20
65
 10
2288
 20
65
 10
2288
 20
12
  0
LWPOLYLINE
  5
B1
100
AcDbEntity
  8
balky
  6
ByLayer
 62
  256
370
   -1
100
AcDbPolyline
 90
    4
 70
    1
 43
0
 10
2253
 20
270
 10
2283
 20
270
 10
2283
 20
17
 10
2253
 20
17
  0
LWPOLYLINE
  5
B2
100
AcDbEntity
  8
0
  6
ByLayer
 62
  256
370
   -1
100
AcDbPolyline
 90
    4
 70
    1
 43
0
 10
1693
 20
703
 10
1783
 20
703
 10
1783
 20
683
 10
1693
 20
683
  0
LWPOLYLINE
  5
B3
100
AcDbEntity
  8
gazoblok
  6
ByLayer
 62
  256
370
   -1
100
AcDbPolyline
 90
    4
 70
    1
 43
0
 10
2717
 20
1033
 10
3683
 20
1033
 10
3683
 20
17
 10
2717
 20
17
  0
LWPOLYLINE
  5
B4
100
AcDbEntity
  8
gazoblok
  6
ByLayer
 62
  256
370
   -1
100
AcDbPolyline
 90
    4
 70
    1
 43
0
 10
2747
 20
47
 10
3653
 20
47
 10
3653
 20
1003
 10
2747
 20
1003
  0
LWPOLYLINE
  5
B5
100
AcDbEntity
  8
face
  6
ByLayer
 62
  256
370
   -1
100
AcDbPolyline
 90
    4
 70
    1
 43
0
 10
2712
 20
1038
 10
3688
 20
1038
 10
3688
 20
12
 10
2712
 20
12
  0
LWPOLYLINE
  5
B6
100
AcDbEntity
  8
face
  6
ByLayer
 62
  256
370
   -1
100
AcDbPolyline
 90
    4
 70
    1
 43
0
 10
2700
 20
1050
 10
3700.000000000001
 20
1050
 10
3700
 20
8.881784197001252e-16
 10
2700
 20
8.881784197001252e-16
  0
LWPOLYLINE
  5
B7
100
AcDbEntity
  8
0
  6
ByLayer
 62
  256
370
   -1
100
AcDbPolyline
 90
    4
 70
    1
 43
0
 10
3090
 20
703
 10
3180
 20
703
 10
3180
 20
683
 10
3090
 20
683
  0
LWPOLYLINE
  5
B8
100
AcDbEntity
  8
plyty
  6
DASHED2
 62
  256
370
   -1
100
AcDbPolyline
 90
    6
 70
    1
 43
0
 10
2730
 20
47
 10
3228
 20
47
 10
3228
 20
196
 10
2730
 20
196
 10
2730
 20
196
 10
2730
 20
196
  0
LWPOLYLINE
  5
B9
100
AcDbEntity
  8
plyty
  6
DASHED2
 62
  256
370
   -1
100
AcDbPolyline
 90
    6
 70
    1
 43
0
 10
3231
 20
47
 10
3669
 20
47
 10
3669
 20
196
 10
3231
 20
196
 10
3231
 20
196
 10
3231
 20
196
  0
LWPOLYLINE
  5
BA
100
AcDbEntity
  8
gazoblok
  6
ByLayer
 62
  256
370
   -1
100
AcDbPolyline
 90
    4
 70
    1
 43
0
 10
3053
 20
47
 10
3073
 20
47
 10
3073
 20
480
 10
3053
 20
480
  0
LWPOLYLINE
  5
BB
100
AcDbEntity
  8
gazoblok
  6
ByLayer
 62
  256
370
   -1
100
AcDbPolyline
 90
    4
 70
    1
 43
0
 10
3214
 20
47
 10
3244
 20
47
 10
3244
 20
1003
 10
3214
 20
1003
  0
LWPOLYLINE
  5
BC
100
AcDbEntity
  8
0
  6
ByLayer
 62
  256
370
   -1
100
AcDbPolyline
 90
    4
 70
    1
 43
0
 10
3073
 20
150
 10
3073
 20
70
 10
3053
 20
70
 10
3053
 20
150
  0
LWPOLYLINE
  5
BD
100
AcDbEntity
  8
0
  6
ByLayer
 62
  256
370
   -1
100
AcDbPolyline
 90
    4
 70
    1
 43
0
 10
3073
 20
450
 10
3073
 20
370
 10
3053
 20
370
 10
3053
 20
450
  0
LWPOLYLINE
  5
BE
100
AcDbEntity
  8
0
  6
ByLayer
 62
  256
370
   -1
100
AcDbPolyline
 90
    4
 70
    1
 43
0
 10
3214
 20
532
 10
3214
 20
622
 10
3244
 20
622
 10
3244
 20
532
  0
LWPOLYLINE
  5
BF
100
AcDbEntity
  8
0
  6
ByLayer
 62
  256
370
   -1
100
AcDbPolyline
 90
    4
 70
    1
 43
0
 10
3214
 20
382
 10
3214
 20
472
 10
3244
 20
472
 10
3244
 20
382
  0
LWPOLYLINE
  5
C0
100
AcDbEntity
  8
plyty
  6
DASHED2
 62
  256
370
   -1
100
AcDbPolyline
 90
    6
 70
    1
 43
0
 10
2730
 20
854
 10
3228
 20
854
 10
3228
 20
1003
 10
2730
 20
1003
 10
2730
 20
1003
 10
2730
 20
1003
  0
LWPOLYLINE
  5
C1
100
AcDbEntity
  8
plyty
  6
DASHED2
 62
  256
370
   -1
100
AcDbPolyline
 90
    6
 70
    1
 43
0
 10
2730
 20
704
 10
3228
 20
704
 10
3228
 20
853
 10
2730
 20
853
 10
2730
 20
853
 10
2730
 20
853
  0
LWPOLYLINE
  5
C2
100
AcDbEntity
  8
plyty
  6
DASHED2
 62
  256
370
   -1
100
AcDbPolyline
 90
    6
 70
    1
 43
0
 10
2730
 20
497
 10
3228
 20
497
 10
3228
 20
646
 10
2730
 20
646
 10
2730
 20
646
 10
2730
 20
646
  0
LWPOLYLINE
  5
C3
100
AcDbEntity
  8
plyty
  6
DASHED2
 62
  256
370
   -1
100
AcDbPolyline
 90
    6
 70
    1
 43
0
 10
2730
 20
347
 10
3228
 20
347
 10
3228
 20
496
 10
2730
 20
496
 10
2730
 20
496
 10
2730
 20
496
  0
LWPOLYLINE
  5
C4
100
AcDbEntity
  8
plyty
  6
DASHED2
 62
  256
370
   -1
100
AcDbPolyline
 90
    6
 70
    1
 43
0
 10
2730
 20
197
 10
3228
 20
197
 10
3228
 20
346
 10
2730
 20
346
 10
2730
 20
346
 10
2730
 20
346
  0
LWPOLYLINE
  5
C5
100
AcDbEntity
  8
plyty
  6
DASHED2
 62
  256
370
   -1
100
AcDbPolyline
 90
    6
 70
    1
 43
0
 10
3231
 20
197
 10
3669
 20
197
 10
3669
 20
346
 10
3231
 20
346
 10
3231
 20
346
 10
3231
 20
346
  0
LWPOLYLINE
  5
C6
100
AcDbEntity
  8
plyty
  6
DASHED2
 62
  256
370
   -1
100
AcDbPolyline
 90
    6
 70
    1
 43
0
 10
3231
 20
347
 10
3669
 20
347
 10
3669
 20
496
 10
3231
 20
496
 10
3231
 20
496
 10
3231
 20
496
  0
LWPOLYLINE
  5
C7
100
AcDbEntity
  8
plyty
  6
DASHED2
 62
  256
370
   -1
100
AcDbPolyline
 90
    6
 70
    1
 43
0
 10
3231
 20
497.0000399999999
 10
3669
 20
497.0000399999999
 10
3669
 20
646.0000399999999
 10
3231
 20
646.0000399999999
 10
3231
 20
646.0000399999999
 10
3231
 20
646.0000399999999
  0
LWPOLYLINE
  5
C8
100
AcDbEntity
  8
plyty
  6
DASHED2
 62
  256
370
   -1
100
AcDbPolyline
 90
    6
 70
    1
 43
0
 10
3231
 20
703.9999600000001
 10
3669
 20
703.9999600000001
 10
3669
 20
852.9999600000001
 10
3231
 20
852.9999600000001
 10
3231
 20
852.9999600000001
 10
3231
 20
852.9999600000001
  0
LWPOLYLINE
  5
C9
100
AcDbEntity
  8
plyty
  6
DASHED2
 62
  256
370
   -1
100
AcDbPolyline
 90
    6
 70
    1
 43
0
 10
3231
 20
854
 10
3669
 20
854
 10
3669
 20
1003
 10
3231
 20
1003
 10
3231
 20
1003
 10
3231
 20
1003
  0
LWPOLYLINE
  5
CA
100
AcDbEntity
  8
gazoblok
  6
ByLayer
 62
  256
370
   -1
100
AcDbPolyline
 90
    4
 70
    1
 43
0
 10
2747
 20
248
 10
3053
 20
248
 10
3053
 20
268
 10
2747
 20
268
  0
LWPOLYLINE
  5
CB
100
AcDbEntity
  8
gazoblok
  6
ByLayer
 62
  256
370
   -1
100
AcDbPolyline
 90
    4
 70
    1
 43
0
 10
2747
 20
460
 10
3053
 20
460
 10
3053
 20
480
 10
2747
 20
480
  0
LWPOLYLINE
  5
CC
100
AcDbEntity
  8
gazoblok
  6
ByLayer
 62
  256
370
   -1
100
AcDbPolyline
 90
    4
 70
    1
 43
0
 10
2747
 20
683
 10
3214
 20
683
 10
3214
 20
703
 10
2747
 20
703
  0
LWPOLYLINE
  5
CD
100
AcDbEntity
  8
cegla
  6
ByLayer
 62
  256
370
   -1
100
AcDbPolyline
 90
    4
 70
    1
 43
0
 10
1817
 20
47
 10
1842
 20
47
 10
1842
 20
1003
 10
1817
 20
1003
  0
LWPOLYLINE
  5
CE
100
AcDbEntity
  8
0
  6
ByLayer
 62
  256
370
   -1
100
AcDbPolyline
 90
    4
 70
    1
 43
0
 10
1817
 20
95
 10
1817
 20
205
 10
1842
 20
205
 10
1842
 20
95
  0
LWPOLYLINE
  5
CF
100
AcDbEntity
  8
0
  6
ByLayer
 62
  256
370
   -1
100
AcDbPolyline
 90
    4
 70
    1
 43
0
 10
1671
 20
150
 10
1671
 20
69.99999999999999
 10
1646
 20
69.99999999999999
 10
1646
 20
150
  0
LWPOLYLINE
  5
D0
100
AcDbEntity
  8
0
  6
ByLayer
 62
  256
370
   -1
100
AcDbPolyline
 90
    4
 70
    1
 43
0
 10
1671
 20
450
 10
1671
 20
370
 10
1646
 20
370
 10
1646
 20
450
  0
LWPOLYLINE
  5
D1
100
AcDbEntity
  8
cegla
  6
ByLayer
 62
  256
370
   -1
100
AcDbPolyline
 90
    4
 70
    1
 43
0
 10
1817
 20
701
 10
1842
 20
701
 10
1842
 20
694
 10
1817
 20
694
  0
LWPOLYLINE
  5
D2
100
AcDbEntity
  8
cegla
  6
ByLayer
 62
  256
370
   -1
100
AcDbPolyline
 90
    4
 70
    1
 43
0
 10
1817
 20
669
 10
1817
 20
694
 10
1824
 20
694
 10
1824
 20
669
  0
LWPOLYLINE
  5
D3
100
AcDbEntity
  8
cegla
  6
ByLayer
 62
  256
370
   -1
100
AcDbPolyline
 90
    4
 70
    1
 43
0
 10
1835
 20
669
 10
1835
 20
694
 10
1842
 20
694
 10
1842
 20
669
  0
LWPOLYLINE
  5
D4
100
AcDbEntity
  8
cegla
  6
ByLayer
 62
  256
370
   -1
100
AcDbPolyline
 90
    4
 70
    1
 43
0
 10
1817
 20
669
 10
1842
 20
669
 10
1842
 20
662
 10
1817
 20
662
  0
LWPOLYLINE
  5
D5
100
AcDbEntity
  8
0
  6
ByLayer
 62
  256
370
   -1
100
AcDbPolyline
 90
    4
 70
    1
 43
0
 10
1817
 20
310
 10
1817
 20
480
 10
1842
 20
480
 10
1842
 20
310
  0
LWPOLYLINE
  5
D6
100
AcDbEntity
  8
plyty
  6
DASHED2
 62
  256
370
   -1
100
AcDbPolyline
 90
    6
 70
    1
 43
0
 10
1831
 20
47
 10
2269
 20
47
 10
2269
 20
196
 10
1831
 20
196
 10
1831
 20
196
 10
1831
 20
196
  0
LWPOLYLINE
  5
D7
100
AcDbEntity
  8
plyty
  6
DASHED2
 62
  256
370
   -1
100
AcDbPolyline
 90
    6
 70
    1
 43
0
 10
1831
 20
197
 10
2269
 20
197
 10
2269
 20
346
 10
1831
 20
346
 10
1831
 20
346
 10
1831
 20
346
  0
LWPOLYLINE
  5
D8
100
AcDbEntity
  8
plyty
  6
DASHED2
 62
  256
370
   -1
100
AcDbPolyline
 90
    6
 70
    1
 43
0
 10
1831
 20
347
 10
2269
 20
347
 10
2269
 20
496
 10
1831
 20
496
 10
1831
 20
496
 10
1831
 20
496
  0
LWPOLYLINE
  5
D9
100
AcDbEntity
  8
plyty
  6
DASHED2
 62
  256
370
   -1
100
AcDbPolyline
 90
    6
 70
    1
 43
0
 10
1831
 20
497.0000399999999
 10
2269
 20
497.0000399999999
 10
2269
 20
646.0000399999999
 10
1831
 20
646.0000399999999
 10
1831
 20
646.0000399999999
 10
1831
 20
646.0000399999999
  0
LWPOLYLINE
  5
DA
100
AcDbEntity
  8
plyty
  6
DASHED2
 62
  256
370
   -1
100
AcDbPolyline
 90
    6
 70
    1
 43
0
 10
1831
 20
703.9999600000001
 10
2269
 20
703.9999600000001
 10
2269
 20
852.9999600000001
 10
1831
 20
852.9999600000001
 10
1831
 20
852.9999600000001
 10
1831
 20
852.9999600000001
  0
LWPOLYLINE
  5
DB
100
AcDbEntity
  8
plyty
  6
DASHED2
 62
  256
370
   -1
100
AcDbPolyline
 90
    6
 70
    1
 43
0
 10
1831
 20
854
 10
2269
 20
854
 10
2269
 20
1003
 10
1831
 20
1003
 10
1831
 20
1003
 10
1831
 20
1003
  0
LWPOLYLINE
  5
DC
100
AcDbEntity
  8
plyty
  6
DASHED2
 62
  256
370
   -1
100
AcDbPolyline
 90
    6
 70
    1
 43
0
 10
1330
 20
854
 10
1828
 20
854
 10
1828
 20
1003
 10
1330
 20
1003
 10
1330
 20
1003
 10
1330
 20
1003
  0
LWPOLYLINE
  5
DD
100
AcDbEntity
  8
plyty
  6
DASHED2
 62
  256
370
   -1
100
AcDbPolyline
 90
    6
 70
    1
 43
0
 10
1330
 20
704
 10
1828
 20
704
 10
1828
 20
853
 10
1330
 20
853
 10
1330
 20
853
 10
1330
 20
853
  0
LWPOLYLINE
  5
DE
100
AcDbEntity
  8
balky
  6
ByLayer
 62
  256
370
   -1
100
AcDbPolyline
 90
    4
 70
    1
 43
0
 10
1671
 20
460
 10
1646
 20
460
 10
1646
 20
703
 10
1671
 20
703
  0
LWPOLYLINE
  5
DF
100
AcDbEntity
  8
plyty
  6
DASHED2
 62
  256
370
   -1
100
AcDbPolyline
 90
    5
 70
    1
 43
0
 10
1660
 20
47.00000000000001
 10
1828
 20
47.00000000000001
 10
1828
 20
196
 10
1660
 20
196
 10
1660
 20
196
  0
LWPOLYLINE
  5
E0
100
AcDbEntity
  8
plyty
  6
DASHED2
 62
  256
370
   -1
100
AcDbPolyline
 90
    5
 70
    1
 43
0
 10
1660
 20
197
 10
1828
 20
197
 10
1828
 20
346
 10
1660
 20
346
 10
1660
 20
346
  0
LWPOLYLINE
  5
E1
100
AcDbEntity
  8
plyty
  6
DASHED2
 62
  256
370
   -1
100
AcDbPolyline
 90
    5
 70
    1
 43
0
 10
1660
 20
347
 10
1828
 20
347
 10
1828
 20
496
 10
1660
 20
496
 10
1660
 20
496
  0
LWPOLYLINE
  5
E2
100
AcDbEntity
  8
plyty
  6
DASHED2
 62
  256
370
   -1
100
AcDbPolyline
 90
    5
 70
    1
 43
0
 10
1660
 20
497
 10
1828
 20
497
 10
1828
 20
646
 10
1660
 20
646
 10
1660
 20
646
  0
LWPOLYLINE
  5
E3
100
AcDbEntity
  8
plyty
  6
DASHED2
 62
  256
370
   -1
100
AcDbPolyline
 90
    5
 70
    1
 43
0
 10
1329
 20
46.99999999999999
 10
1657
 20
46.99999999999999
 10
1657
 20
146
 10
1329
 20
146
 10
1329
 20
146
  0
LWPOLYLINE
  5
E4
100
AcDbEntity
  8
plyty
  6
DASHED2
 62
  256
370
   -1
100
AcDbPolyline
 90
    5
 70
    1
 43
0
 10
1329
 20
147
 10
1657
 20
147
 10
1657
 20
246
 10
1329
 20
246
 10
1329
 20
246
  0
LWPOLYLINE
  5
E5
100
AcDbEntity
  8
plyty
  6
DASHED2
 62
  256
370
   -1
100
AcDbPolyline
 90
    5
 70
    1
 43
0
 10
1329
 20
269
 10
1657
 20
269
 10
1657
 20
368
 10
1329
 20
368
 10
1329
 20
368
  0
LWPOLYLINE
  5
E6
100
AcDbEntity
  8
plyty
  6
DASHED2
 62
  256
370
   -1
100
AcDbPolyline
 90
    5
 70
    1
 43
0
 10
1329
 20
369
 10
1657
 20
369
 10
1657
 20
468
 10
1329
 20
468
 10
1329
 20
468
  0
LWPOLYLINE
  5
E7
100
AcDbEntity
  8
gazoblok
  6
ByLayer
 62
  256
370
   -1
100
AcDbPolyline
 90
    4
 70
    1
 43
0
 10
1347
 20
248
 10
1646
 20
248
 10
1646
 20
268
 10
1347
 20
268
  0
LWPOLYLINE
  5
E8
100
AcDbEntity
  8
face
  6
ByLayer
 62
  256
370
   -1
100
AcDbPolyline
 90
    7
 70
    0
 43
0
 10
1847
 20
245
 10
1847
 20
12
 10
1312
 20
12
 10
1312
 20
1038
 10
2288
 20
1038
 10
2288
 20
245
 10
1847
 20
245
  0
LWPOLYLINE
  5
E9
100
AcDbEntity
  8
face
  6
ByLayer
 62
  256
370
   -1
100
AcDbPolyline
 90
    7
 70
    0
 43
0
 10
1859
 20
233
 10
1859
 20
8.881784197001252e-16
 10
1300
 20
8.881784197001252e-16
 10
1300
 20
1050
 10
2300
 20
1050
 10
2300
 20
233
 10
1859
 20
233
  0
LWPOLYLINE
  5
EA
100
AcDbEntity
  8
gazoblok
  6
ByLayer
 62
  256
370
   -1
100
AcDbPolyline
 90
   13
 70
    0
 43
0
 10
1842
 20
46.99999999999999
 10
1842
 20
17
 10
1317
 20
16.99999999999999
 10
1317
 20
1033
 10
2283
 20
1033
 10
2283
 20
250
 10
1842
 20
250
 10
1842
 20
280
 10
2253
 20
280
 10
2253
 20
1003
 10
1347
 20
1003
 10
1347
 20
46.99999999999999
 10
1842
 20
46.99999999999999
  0
LWPOLYLINE
  5
EB
100
AcDbEntity
  8
balky
  6
ByLayer
 62
  256
370
   -1
100
AcDbPolyline
 90
    4
 70
    1
 43
0
 10
1822
 20
17
 10
2283
 20
17
 10
2283
 20
47
 10
1822
 20
47
  0
LWPOLYLINE
  5
EC
100
AcDbEntity
  8
gazoblok
  6
ByLayer
 62
  256
370
   -1
100
AcDbPolyline
 90
    4
 70
    1
 43
0
 10
1347
 20
460
 10
1646
 20
460
 10
1646
 20
480
 10
1347
 20
480
  0
LWPOLYLINE
  5
ED
100
AcDbEntity
  8
cegla
  6
ByLayer
 62
  256
370
   -1
100
AcDbPolyline
 90
    4
 70
    1
 43
0
 10
1646
 20
46.99999999999999
 10
1671
 20
47
 10
1671
 20
480
 10
1646
 20
480
  0
LWPOLYLINE
  5
EE
100
AcDbEntity
  8
gazoblok
  6
ByLayer
 62
  256
370
   -1
100
AcDbPolyline
 90
    4
 70
    1
 43
0
 10
1347
 20
683
 10
1817
 20
683
 10
1817
 20
703
 10
1347
 20
703
  0
MTEXT
  5
EF
100
AcDbEntity
  8
plyty
  6
ByLayer
 62
  256
370
   -1
100
AcDbMText
 10
1570
 20
1100
 30
0
 40
20
 41
148.3333333333358
 71
    8
 72
    1
  1
ПК 50-15-8
  7
cyrillic_ii
210
0
220
0
230
1
 50
0
 73
    2
 44
1
  0
MTEXT
  5
F0
100
AcDbEntity
  8
plyty
  6
ByLayer
 62
  256
370
   -1
100
AcDbMText
 10
2050
 20
1100
 30
0
 40
20
 41
152.7777777777791
 71
    8
 72
    1
  1
ПК 44-15-8
  7
cyrillic_ii
210
0
220
0
230
1
 50
0
 73
    2
 44
1
  0
MTEXT
  5
F1
100
AcDbEntity
  8
plyty
  6
ByLayer
 62
  256
370
   -1
100
AcDbMText
 10
2970
 20
1100
 30
0
 40
20
 41
148.3333333333358
 71
    8
 72
    1
  1
ПК 50-15-8
  7
cyrillic_ii
210
0
220
0
230
1
 50
0
 73
    2
 44
1
  0
MTEXT
  5
F2
100
AcDbEntity
  8
plyty
  6
ByLayer
 62
  256
370
   -1
100
AcDbMText
 10
3450
 20
1100
 30
0
 40
20
 41
152.7777777777791
 71
    8
 72
    1
  1
ПК 44-15-8
  7
cyrillic_ii
210
0
220
0
230
1
 50
0
 73
    2
 44
1
  0
DIMENSION
  5
F3
100
AcDbEntity
  8
dimensions
  6
ByLayer
 62
  256
370
   -1
100
AcDbDimension
  2
*D2
 10
2300
 20
-200
 30
0
 11
1800
 21
-160
 31
0
 70
   32
 71
    5
 72
    0
  3
Standard
 53
0
210
0
220
0
230
1
100
AcDbAlignedDimension
 13
1300
 23
8.881784197001252e-16
 33
0
 14
2300
 24
8.881784197001252e-16
 34
0
100
AcDbRotatedDimension
  0
MTEXT
  5
F4
100
AcDbEntity
  8
plyty
  6
ByLayer
 62
  256
370
   -1
100
AcDbMText
 10
1500
 20
-60
 30
0
 40
20
 41
148.3333333333358
 71
    8
 72
    1
  1
ПК 33-10-8 
  7
cyrillic_ii
210
0
220
0
230
1
 50
0
 73
    2
 44
1
  0
MTEXT
  5
F5
100
AcDbEntity
  8
plyty
  6
ByLayer
 62
  256
370
   -1
100
AcDbMText
 10
1750
 20
-60
 30
0
 40
20
 41
143.8888888888901
 71
    8
 72
    1
  1
ПК 17-15-8
  7
cyrillic_ii
210
0
220
0
230
1
 50
0
 73
    2
 44
1
  0
ELLIPSE
  5
F6
100
AcDbEntity
  8
vikna_dveri
  6
ByLayer
 62
  256
370
   -1
100
AcDbEllipse
 10
1828
 20
854
 30
0
 11
2
 21
176
 31
0
 40
0.238863783085862
 41
0
 42
6.283185307179586
  0
ELLIPSE
  5
F7
100
AcDbEntity
  8
vikna_dveri
  6
ByLayer
 62
  256
370
   -1
100
AcDbEllipse
 10
1330
 20
260
 30
0
 11
0
 21
250
 31
0
 40
0.28
 41
0
 42
6.283185307179586
  0
ELLIPSE
  5
F8
100
AcDbEntity
  8
vikna_dveri
  6
ByLayer
 62
  256
370
   -1
100
AcDbEllipse
 10
1660
 20
260
 30
0
 11
0
 21
250
 31
0
 40
0.24
 41
0
 42
6.283185307179586
  0
ELLIPSE
  5
F9
100
AcDbEntity
  8
vikna_dveri
  6
ByLayer
 62
  256
370
   -1
100
AcDbEllipse
 10
1831
 20
346
 30
0
 11
-1
 21
314
 31
0
 40
0.1879367526395328
 41
0
 42
6.283185307179586
  0
ELLIPSE
  5
FA
100
AcDbEntity
  8
vikna_dveri
  6
ByLayer
 62
  256
370
   -1
100
AcDbEllipse
 10
1660
 20
580
 30
0
 11
0
 21
120
 31
0
 40
0.5
 41
0
 42
6.283185307179586
  0
MTEXT
  5
FB
100
AcDbEntity
  8
vikna_dveri
  6
ByLayer
 62
  256
370
   -1
100
AcDbMText
 10
1240
 20
980
 30
0
 40
50
 41
33.33333333333333
 71
    5
 72
    1
  1
А
  7
cyrillic_ii
210
0
220
0
230
1
 50
0
 73
    2
 44
1
  0
MTEXT
  5
FC
100
AcDbEntity
  8
vikna_dveri
  6
ByLayer
 62
  256
370
   -1
100
AcDbMText
 10
1240
 20
470
 30
0
 40
50
 41
27.77777777778149
 71
    5
 72
    1
  1
Б
  7
cyrillic_ii
210
0
220
0
230
1
 50
0
 73
    2
 44
1
  0
MTEXT
  5
FD
100
AcDbEntity
  8
vikna_dveri
  6
ByLayer
 62
  256
370
   -1
100
AcDbMText
 10
1580
 20
420
 30
0
 40
50
 41
27.77777777778149
 71
    5
 72
    1
  1
Б
  7
cyrillic_ii
210
0
220
0
230
1
 50
0
 73
    2
 44
1
  0
MTEXT
  5
FE
100
AcDbEntity
  8
vikna_dveri
  6
ByLayer
 62
  256
370
   -1
100
AcDbMText
 10
1770
 20
610
 30
0
 40
50
 41
27.77777777778149
 71
    5
 72
    1
  1
Б
  7
cyrillic_ii
210
0
220
0
230
1
 50
0
 73
    2
 44
1
  0
MTEXT
  5
FF
100
AcDbEntity
  8
vikna_dveri
  6
ByLayer
 62
  256
370
   -1
100
AcDbMText
 10
1770
 20
980
 30
0
 40
50
 41
33.33333333333333
 71
    5
 72
    1
  1
А
  7
cyrillic_ii
210
0
220
0
230
1
 50
0
 73
    2
 44
1
  0
MTEXT
  5
100
100
AcDbEntity
  8
vikna_dveri
  6
ByLayer
 62
  256
370
   -1
100
AcDbMText
 10
1580
 20
670
 30
0
 40
50
 41
33.33333333333333
 71
    5
 72
    1
  1
А
  7
cyrillic_ii
210
0
220
0
230
1
 50
0
 73
    2
 44
1
  0
MTEXT
  5
101
100
AcDbEntity
  8
vikna_dveri
  6
ByLayer
 62
  256
370
   -1
100
AcDbMText
 10
1330
 20
1110
 30
0
 40
50
 41
11.11111111111111
 71
    8
 72
    1
  1
1
  7
cyrillic_ii
210
0
220
0
230
1
 50
0
 73
    2
 44
1
  0
MTEXT
  5
102
100
AcDbEntity
  8
vikna_dveri
  6
ByLayer
 62
  256
370
   -1
100
AcDbMText
 10
2740
 20
1110
 30
0
 40
50
 41
11.11111111111111
 71
    8
 72
    1
  1
1
  7
cyrillic_ii
210
0
220
0
230
1
 50
0
 73
    2
 44
1
  0
MTEXT
  5
103
100
AcDbEntity
  8
vikna_dveri
  6
ByLayer
 62
  256
370
   -1
100
AcDbMText
 10
1660
 20
740
 30
0
 40
50
 41
22.22222222222222
 71
    8
 72
    1
  1
2
  7
cyrillic_ii
210
0
220
0
230
1
 50
0
 73
    2
 44
1
  0
MTEXT
  5
104
100
AcDbEntity
  8
vikna_dveri
  6
ByLayer
 62
  256
370
   -1
100
AcDbMText
 10
1830
 20
1110
 30
0
 40
50
 41
22.22222222222533
 71
    8
 72
    1
  1
3
  7
cyrillic_ii
210
0
220
0
230
1
 50
0
 73
    2
 44
1
  0
MTEXT
  5
105
100
AcDbEntity
  8
vikna_dveri
  6
ByLayer
 62
  256
370
   -1
100
AcDbMText
 10
2260
 20
1110
 30
0
 40
50
 41
27.77777777777778
 71
    8
 72
    1
  1
4
  7
cyrillic_ii
210
0
220
0
230
1
 50
0
 73
    2
 44
1
  0
MTEXT
  5
106
100
AcDbEntity
  8
vikna_dveri
  6
ByLayer
 62
  256
370
   -1
100
AcDbMText
 10
3060
 20
530
 30
0
 40
50
 41
22.22222222222222
 71
    8
 72
    1
  1
2
  7
cyrillic_ii
210
0
220
0
230
1
 50
0
 73
    2
 44
1
  0
MTEXT
  5
107
100
AcDbEntity
  8
vikna_dveri
  6
ByLayer
 62
  256
370
   -1
100
AcDbMText
 10
3230
 20
1110
 30
0
 40
50
 41
22.22222222222533
 71
    8
 72
    1
  1
3
  7
cyrillic_ii
210
0
220
0
230
1
 50
0
 73
    2
 44
1
  0
MTEXT
  5
108
100
AcDbEntity
  8
vikna_dveri
  6
ByLayer
 62
  256
370
   -1
100
AcDbMText
 10
3670
 20
1110
 30
0
 40
50
 41
27.77777777777778
 71
    8
 72
    1
  1
4
  7
cyrillic_ii
210
0
220
0
230
1
 50
0
 73
    2
 44
1
  0
LINE
  5
109
100
AcDbEntity
  8
0
  6
ByLayer
 62
  256
370
   -1
100
AcDbLine
 10
1550
 20
8.881784197001252e-16
 11
1550
 21
240
  0
LINE
  5
10A
100
AcDbEntity
  8
0
  6
ByLayer
 62
  256
370
   -1
100
AcDbLine
 10
1800
 20
8.881784197001252e-16
 11
1800
 21
210
  0
LINE
  5
10B
100
AcDbEntity
  8
0
  6
ByLayer
 62
  256
370
   -1
100
AcDbLine
 10
2050
 20
10
 11
2050
 21
180
  0
LWPOLYLINE
  5
10C
100
AcDbEntity
  8
0
  6
ByLayer
 62
  256
370
   -1
100
AcDbPolyline
 90
    9
 70
    0
 43
0
 10
1704
 20
8.881784197001252e-16
 10
1784
 20
8.881784197001252e-16
 10
1784
 20
12
 10
1790
 20
12
 10
1790
 20
47
 10
1698
 20
47
 10
1698
 20
12
 10
1704
 20
12
 10
1704
 20
8.881784197001252e-16
  0
LWPOLYLINE
  5
10D
100
AcDbEntity
  8
0
  6
ByLayer
 62
  256
370
   -1
100
AcDbPolyline
 90
    9
 70
    0
 43
0
 10
1300
 20
893
 10
1300
 20
813
 10
1312
 20
813
 10
1312
 20
807
 10
1347
 20
807
 10
1347
 20
899
 10
1312
 20
899
 10
1312
 20
893
 10
1300
 20
893
  0
LWPOLYLINE
  5
10E
100
AcDbEntity
  8
0
  6
ByLayer
 62
  256
370
   -1
100
AcDbPolyline
 90
    9
 70
    0
 43
0
 10
2300
 20
842
 10
2300
 20
922
 10
2288
 20
922
 10
2288
 20
928
 10
2253
 20
928
 10
2253
 20
836
 10
2288
 20
836
 10
2288
 20
842
 10
2300
 20
842
  0
LWPOLYLINE
  5
10F
100
AcDbEntity
  8
0
  6
ByLayer
 62
  256
370
   -1
100
AcDbPolyline
 90
    9
 70
    0
 43
0
 10
2300
 20
361
 10
2300
 20
441
 10
2288
 20
441
 10
2288
 20
447
 10
2253
 20
447
 10
2253
 20
355
 10
2288
 20
355
 10
2288
 20
361
 10
2300
 20
361
  0
LWPOLYLINE
  5
110
100
AcDbEntity
  8
0
  6
ByLayer
 62
  256
370
   -1
100
AcDbPolyline
 90
    9
 70
    0
 43
0
 10
2300
 20
602
 10
2300
 20
682
 10
2288
 20
682
 10
2288
 20
688
 10
2253
 20
688
 10
2253
 20
596
 10
2288
 20
596
 10
2288
 20
602
 10
2300
 20
602
  0
LINE
  5
111
100
AcDbEntity
  8
0
  6
ByLayer
 62
  256
370
   -1
100
AcDbLine
 10
2950
 20
8.881784197001252e-16
 11
2950
 21
240
  0
LINE
  5
112
100
AcDbEntity
  8
0
  6
ByLayer
 62
  256
370
   -1
100
AcDbLine
 10
3200
 20
8.881784197001252e-16
 11
3200
 21
210
  0
LINE
  5
113
100
AcDbEntity
  8
0
  6
ByLayer
 62
  256
370
   -1
100
AcDbLine
 10
3450
 20
10
 11
3450
 21
180
  0
LWPOLYLINE
  5
114
100
AcDbEntity
  8
0
  6
ByLayer
 62
  256
370
   -1
100
AcDbPolyline
 90
    9
 70
    0
 43
0
 10
3104
 20
8.881784197001252e-16
 10
3184
 20
8.881784197001252e-16
 10
3184
 20
12
 10
3190
 20
12
 10
3190
 20
47
 10
3098
 20
47
 10
3098
 20
12
 10
3104
 20
12
 10
3104
 20
8.881784197001252e-16
  0
LWPOLYLINE
  5
115
100
AcDbEntity
  8
0
  6
ByLayer
 62
  256
370
   -1
100
AcDbPolyline
 90
    9
 70
    0
 43
0
 10
2700
 20
893
 10
2700
 20
813
 10
2712
 20
813
 10
2712
 20
807
 10
2747
 20
807
 10
2747
 20
899
 10
2712
 20
899
 10
2712
 20
893
 10
2700
 20
893
  0
LWPOLYLINE
  5
116
100
AcDbEntity
  8
0
  6
ByLayer
 62
  256
370
   -1
100
AcDbPolyline
 90
    9
 70
    0
 43
0
 10
3700
 20
842
 10
3700
 20
922
 10
3688
 20
922
 10
3688
 20
928
 10
3653
 20
928
 10
3653
 20
836
 10
3688
 20
836
 10
3688
 20
842
 10
3700
 20
842
  0
LWPOLYLINE
  5
117
100
AcDbEntity
  8
0
  6
ByLayer
 62
  256
370
   -1
100
AcDbPolyline
 90
    9
 70
    0
 43
0
 10
3700
 20
361
 10
3700
 20
441
 10
3688
 20
441
 10
3688
 20
447
 10
3653
 20
447
 10
3653
 20
355
 10
3688
 20
355
 10
3688
 20
361
 10
3700
 20
361
  0
LWPOLYLINE
  5
118
100
AcDbEntity
  8
0
  6
ByLayer
 62
  256
370
   -1
100
AcDbPolyline
 90
    9
 70
    0
 43
0
 10
3700
 20
602
 10
3700
 20
682
 10
3688
 20
682
 10
3688
 20
688
 10
3653
 20
688
 10
3653
 20
596
 10
3688
 20
596
 10
3688
 20
602
 10
3700
 20
602
  0
LWPOLYLINE
  5
119
100
AcDbEntity
  8
gazoblok
  6
ByLayer
 62
  256
370
   -1
100
AcDbPolyline
 90
    4
 70
    1
 43
0
 10
3244
 20
492
 10
3653
 20
492
 10
3653
 20
512
 10
3244
 20
512
  0
LWPOLYLINE
  5
11A
100
AcDbEntity
  8
cegla
  6
ByLayer
 62
  256
370
   -1
100
AcDbPolyline
 90
    4
 70
    1
 43
0
 10
3217
 20
701
 10
3242
 20
701
 10
3242
 20
694
 10
3217
 20
694
  0
LWPOLYLINE
  5
11B
100
AcDbEntity
  8
cegla
  6
ByLayer
 62
  256
370
   -1
100
AcDbPolyline
 90
    4
 70
    1
 43
0
 10
3217
 20
669
 10
3217
 20
694
 10
3224
 20
694
 10
3224
 20
669
  0
LWPOLYLINE
  5
11C
100
AcDbEntity
  8
cegla
  6
ByLayer
 62
  256
370
   -1
100
AcDbPolyline
 90
    4
 70
    1
 43
0
 10
3235
 20
669
 10
3235
 20
694
 10
3242
 20
694
 10
3242
 20
669
  0
LWPOLYLINE
  5
11D
100
AcDbEntity
  8
cegla
  6
ByLayer
 62
  256
370
   -1
100
AcDbPolyline
 90
    4
 70
    1
 43
0
 10
3217
 20
669
 10
3242
 20
669
 10
3242
 20
662
 10
3217
 20
662
  0
LWPOLYLINE
  5
11E
100
AcDbEntity
  8
0
  6
ByLayer
 62
  256
370
   -1
100
AcDbPolyline
 90
    9
 70
    0
 43
0
 10
1456
 20
1.509903313490213e-14
 10
1536
 20
1.509903313490213e-14
 10
1536
 20
12.00000000000001
 10
1542
 20
12.00000000000001
 10
1542
 20
47.00000000000001
 10
1450
 20
47.00000000000001
 10
1450
 20
12.00000000000001
 10
1456
 20
12.00000000000001
 10
1456
 20
1.509903313490213e-14
  0
LWPOLYLINE
  5
11F
100
AcDbEntity
  8
0
  6
ByLayer
 62
  256
370
   -1
100
AcDbPolyline
 90
    9
 70
    0
 43
0
 10
2856
 20
1.509903313490213e-14
 10
2936
 20
1.509903313490213e-14
 10
2936
 20
12.00000000000001
 10
2942
 20
12.00000000000001
 10
2942
 20
47.00000000000001
 10
2850
 20
47.00000000000001
 10
2850
 20
12.00000000000001
 10
2856
 20
12.00000000000001
 10
2856
 20
1.509903313490213e-14
  0
LWPOLYLINE
  5
120
100
AcDbEntity
  8
0
  6
ByLayer
 62
  256
370
   -1
100
AcDbPolyline
 90
    9
 70
    0
 43
0
 10
1736
 20
1050
 10
1656
 20
1050
 10
1656
 20
1038
 10
1650
 20
1038
 10
1650
 20
1003
 10
1742
 20
1003
 10
1742
 20
1038
 10
1736
 20
1038
 10
1736
 20
1050
  0
LWPOLYLINE
  5
121
100
AcDbEntity
  8
0
  6
ByLayer
 62
  256
370
   -1
100
AcDbPolyline
 90
    9
 70
    0
 43
0
 10
3136
 20
1050
 10
3056
 20
1050
 10
3056
 20
1038
 10
3050
 20
1038
 10
3050
 20
1003
 10
3142
 20
1003
 10
3142
 20
1038
 10
3136
 20
1038
 10
3136
 20
1050
  0
LWPOLYLINE
  5
122
100
AcDbEntity
  8
face
  6
ByLayer
 62
  256
370
   -1
100
AcDbPolyline
 90
    4
 70
    1
 43
0
 10
2009
 20
8.881784197001252e-16
 10
2073
 20
8.881784197001252e-16
 10
2073
 20
51
 10
2009
 20
51
  0
LWPOLYLINE
  5
123
100
AcDbEntity
  8
face
  6
ByLayer
 62
  256
370
   -1
100
AcDbPolyline
 90
    4
 70
    1
 43
0
 10
2021
 20
12
 10
2061
 20
12
 10
2061
 20
39
 10
2021
 20
39
  0
LWPOLYLINE
  5
124
100
AcDbEntity
  8
0
  6
ByLayer
 62
  256
370
   -1
100
AcDbPolyline
 90
    9
 70
    0
 43
0
 10
2700
 20
622
 10
2700
 20
542
 10
2712
 20
542
 10
2712
 20
536
 10
2747
 20
536
 10
2747
 20
628
 10
2712
 20
628
 10
2712
 20
622
 10
2700
 20
622
  0
LWPOLYLINE
  5
125
100
AcDbEntity
  8
0
  6
ByLayer
 62
  256
370
   -1
100
AcDbPolyline
 90
    9
 70
    0
 43
0
 10
3371
 20
8.881784197001252e-16
 10
3529
 20
8.881784197001252e-16
 10
3529
 20
12
 10
3535
 20
12
 10
3535
 20
47
 10
3365
 20
47
 10
3365
 20
12
 10
3371
 20
12
 10
3371
 20
8.881784197001252e-16
  0
LINE
  5
126
100
AcDbEntity
  8
0
  6
ByLayer
 62
  256
370
   -1
100
AcDbLine
 10
0
 20
128
 11
440
 21
128
  0
LINE
  5
127
100
AcDbEntity
  8
0
  6
ByLayer
 62
  256
370
   -1
100
AcDbLine
 10
0
 20
455
 11
440
 21
455
  0
LWPOLYLINE
  5
128
100
AcDbEntity
  8
0
  6
ByLayer
 62
  256
370
   -1
100
AcDbPolyline
 90
    9
 70
    0
 43
0
 10
1894
 20
8.881784197001252e-16
 10
1974
 20
8.881784197001252e-16
 10
1974
 20
12
 10
1980
 20
12
 10
1980
 20
47
 10
1888
 20
47
 10
1888
 20
12
 10
1894
 20
12
 10
1894
 20
8.881784197001252e-16
  0
LWPOLYLINE
  5
129
100
AcDbEntity
  8
0
  6
ByLayer
 62
  256
370
   -1
100
AcDbPolyline
 90
    9
 70
    0
 43
0
 10
2108
 20
0
 10
2188
 20
0
 10
2188
 20
12
 10
2194
 20
12
 10
2194
 20
47
 10
2102
 20
47
 10
2102
 20
12
 10
2108
 20
12
 10
2108
 20
0
  0
LWPOLYLINE
  5
12A
100
AcDbEntity
  8
u-block
  6
CONTINUOUS
 62
    6
370
   50
100
AcDbPolyline
 90
    8
 70
    1
 43
0
 10
-2046
 20
631
 10
-2016
 20
631
 10
-2016
 20
651
 10
-2023
 20
651
 10
-2024
 20
637
 10
-2040
 20
637
 10
-2041
 20
651
 10
-2046
 20
651
  0
LWPOLYLINE
  5
12B
100
AcDbEntity
  8
concrete
  6
ByLayer
 62
  256
370
   -1
100
AcDbPolyline
 90
    5
 70
    0
 43
0
 10
-2041
 20
651
 10
-2023
 20
651
 10
-2024
 20
637
 10
-2040
 20
637
 10
-2041
 20
651
  0
LWPOLYLINE
  5
12C
100
AcDbEntity
  8
aeroc
  6
ByLayer
 62
  256
370
   -1
100
AcDbPolyline
 90
    4
 70
    1
 43
0
 10
-2016
 20
367
 10
-2046
 20
367
 10
-2046
 20
631
 10
-2016
 20
631
  0
CIRCLE
  5
12D
100
AcDbEntity
  8
metal
  6
ByLayer
 62
  256
370
   -1
100
AcDbCircle
 10
-2026
 20
639.4
 40
0.4000000000000004
  0
CIRCLE
  5
12E
100
AcDbEntity
  8
metal
  6
ByLayer
 62
  256
370
   -1
100
AcDbCircle
 10
-2026
 20
648.5999999999999
 40
0.4000000000000021
  0
CIRCLE
  5
12F
100
AcDbEntity
  8
metal
  6
ByLayer
 62
  256
370
   -1
100
AcDbCircle
 10
-2038
 20
639.4
 40
0.4000000000000004
  0
CIRCLE
  5
130
100
AcDbEntity
  8
metal
  6
ByLayer
 62
  256
370
   -1
100
AcDbCircle
 10
-2038
 20
648.5999999999999
 40
0.4000000000000021
  0
LWPOLYLINE
  5
131
100
AcDbEntity
  8
metal
  6
DASHED2
 62
  256
370
   -1
100
AcDbPolyline
 90
    8
 70
    1
 43
0
 10
-2026.5
 20
638.6999999999999
 42
0.4142135623730396
 10
-2025.3
 20
639.9
 10
-2025.3
 20
648.0999999999999
 42
0.4142135623730396
 10
-2026.5
 20
649.3
 10
-2037.5
 20
649.3
 42
0.414213562373095
 10
-2038.7
 20
648.0999999999999
 10
-2038.7
 20
639.9
 42
0.4142135623730396
 10
-2037.5
 20
638.7000000000002
  0
LWPOLYLINE
  5
132
100
AcDbEntity
  8
metal
  6
DASHED2
 62
  256
370
   -1
100
AcDbPolyline
 90
    8
 70
    1
 43
0
 10
-2026.5
 20
638.1
 42
0.4142135623730765
 10
-2024.7
 20
639.9
 10
-2024.7
 20
648.1
 42
0.414213562373095
 10
-2026.5
 20
649.9
 10
-2037.5
 20
649.9
 42
0.4142135623731505
 10
-2039.3
 20
648.0999999999999
 10
-2039.299999999999
 20
639.9
 42
0.4142135623730951
 10
-2037.5
 20
638.1
  0
LWPOLYLINE
  5
133
100
AcDbEntity
  8
muerlat
  6
ByLayer
 62
  256
370
   -1
100
AcDbPolyline
 90
    4
 70
    1
 43
0
 10
-2032
 20
682
 10
-2017
 20
682
 10
-2017
 20
697
 10
-2032
 20
697
  0
LWPOLYLINE
  5
134
100
AcDbEntity
  8
brick
  6
ByLayer
 62
  256
370
   -1
100
AcDbPolyline
 90
    4
 70
    1
 43
0
 10
-2038
 20
674
 10
-2013
 20
673.9999999999999
 10
-2013
 20
681.9999999999999
 10
-2038
 20
682
  0
LWPOLYLINE
  5
135
100
AcDbEntity
  8
brick
  6
ByLayer
 62
  256
370
   -1
100
AcDbPolyline
 90
    4
 70
    1
 43
0
 10
-2011.999999999999
 20
669.9999999999999
 10
-2000
 20
670
 10
-2000.000000000001
 20
693.0000000000001
 10
-2012
 20
693
  0
LWPOLYLINE
  5
136
100
AcDbEntity
  8
epps
  6
ByLayer
 62
  256
370
   -1
100
AcDbPolyline
 90
    4
 70
    1
 43
0
 10
-2012
 20
673.9999999999999
 10
-2017
 20
674
 10
-2017
 20
650.9999999999999
 10
-2012
 20
650.9999999999999
  0
LWPOLYLINE
  5
137
100
AcDbEntity
  8
plyty
  6
ByLayer
 62
  256
370
   -1
100
AcDbPolyline
 90
    4
 70
    1
 43
0
 10
-2200
 20
673.9999999999998
 10
-2031
 20
673.9999999999998
 10
-2031
 20
651.9999999999999
 10
-2200
 20
651.9999999999999
  0
LWPOLYLINE
  5
138
100
AcDbEntity
  8
kontur
  6
ByLayer
 62
  256
370
   -1
100
AcDbPolyline
 90
    4
 70
    1
 43
0
 10
-2031
 20
673.9999999999998
 10
-2017
 20
673.9999999999998
 10
-2017
 20
650.9999999999999
 10
-2031
 20
650.9999999999999
  0
LWPOLYLINE
  5
139
100
AcDbEntity
  8
u-block
  6
CONTINUOUS
 62
    6
370
   50
100
AcDbPolyline
 90
    8
 70
    1
 43
0
 10
-2046
 20
324
 10
-2016
 20
324
 10
-2016
 20
344
 10
-2023
 20
344
 10
-2024
 20
330
 10
-2040
 20
330
 10
-2041
 20
344
 10
-2046
 20
344
  0
LWPOLYLINE
  5
13A
100
AcDbEntity
  8
concrete
  6
ByLayer
 62
  256
370
   -1
100
AcDbPolyline
 90
    5
 70
    0
 43
0
 10
-2041
 20
344
 10
-2023
 20
344
 10
-2024
 20
330
 10
-2040
 20
330
 10
-2041
 20
344
  0
CIRCLE
  5
13B
100
AcDbEntity
  8
metal
  6
ByLayer
 62
  256
370
   -1
100
AcDbCircle
 10
-2026
 20
332.4
 40
0.4000000000000004
  0
CIRCLE
  5
13C
100
AcDbEntity
  8
metal
  6
ByLayer
 62
  256
370
   -1
100
AcDbCircle
 10
-2026
 20
341.6
 40
0.4000000000000021
  0
CIRCLE
  5
13D
100
AcDbEntity
  8
metal
  6
ByLayer
 62
  256
370
   -1
100
AcDbCircle
 10
-2038
 20
332.4
 40
0.4000000000000004
  0
CIRCLE
  5
13E
100
AcDbEntity
  8
metal
  6
ByLayer
 62
  256
370
   -1
100
AcDbCircle
 10
-2038
 20
341.6
 40
0.4000000000000021
  0
LWPOLYLINE
  5
13F
100
AcDbEntity
  8
metal
  6
DASHED2
 62
  256
370
   -1
100
AcDbPolyline
 90
    8
 70
    1
 43
0
 10
-2026.5
 20
331.6999999999999
 42
0.4142135623730396
 10
-2025.3
 20
332.9
 10
-2025.3
 20
341.1
 42
0.414213562373095
 10
-2026.5
 20
342.3000000000001
 10
-2037.5
 20
342.3
 42
0.414213562373095
 10
-2038.7
 20
341.1
 10
-2038.7
 20
332.9
 42
0.4142135623730396
 10
-2037.5
 20
331.7000000000002
  0
LWPOLYLINE
  5
140
100
AcDbEntity
  8
metal
  6
DASHED2
 62
  256
370
   -1
100
AcDbPolyline
 90
    8
 70
    1
 43
0
 10
-2026.5
 20
331.1
 42
0.4142135623730857
 10
-2024.7
 20
332.9
 10
-2024.700000000001
 20
341.1
 42
0.4142135623731413
 10
-2026.5
 20
342.9
 10
-2037.5
 20
342.9
 42
0.4142135623731321
 10
-2039.3
 20
341.1
 10
-2039.3
 20
332.8999999999999
 42
0.4142135623731226
 10
-2037.5
 20
331.1000000000001
  0
CIRCLE
  5
141
100
AcDbEntity
  8
metal
  6
ByLayer
 62
  256
370
   -1
100
AcDbCircle
 10
-2023.100000000001
 20
348.4
 40
0.4000000000000021
  0
CIRCLE
  5
142
100
AcDbEntity
  8
metal
  6
ByLayer
 62
  256
370
   -1
100
AcDbCircle
 10
-2023.100000000001
 20
362.6
 40
0.4000000000000021
  0
LWPOLYLINE
  5
143
100
AcDbEntity
  8
epps
  6
ByLayer
 62
  256
370
   -1
100
AcDbPolyline
 90
    4
 70
    1
 43
0
 10
-2012
 20
366.9999999999999
 10
-2017
 20
367
 10
-2017
 20
343.9999999999999
 10
-2012
 20
343.9999999999999
  0
LWPOLYLINE
  5
144
100
AcDbEntity
  8
plyty
  6
ByLayer
 62
  256
370
   -1
100
AcDbPolyline
 90
    4
 70
    1
 43
0
 10
-2200
 20
366.9999999999998
 10
-2031
 20
366.9999999999998
 10
-2031
 20
344.9999999999999
 10
-2200
 20
344.9999999999999
  0
LWPOLYLINE
  5
145
100
AcDbEntity
  8
kontur
  6
ByLayer
 62
  256
370
   -1
100
AcDbPolyline
 90
    4
 70
    1
 43
0
 10
-2031
 20
366.9999999999998
 10
-2017
 20
366.9999999999998
 10
-2017
 20
343.9999999999999
 10
-2031
 20
343.9999999999999
  0
LWPOLYLINE
  5
146
100
AcDbEntity
  8
metal
  6
ByLayer
 62
  256
370
   -1
100
AcDbPolyline
 90
    4
 70
    1
 43
0
 10
-2025.5
 20
701.9999999999999
 10
-2023.9
 20
701.9999999999999
 10
-2023.9
 20
651.9999999999999
 10
-2025.5
 20
651.9999999999999
  0
CIRCLE
  5
147
100
AcDbEntity
  8
metal
  6
ByLayer
 62
  256
370
   -1
100
AcDbCircle
 10
-2023.5
 20
655.4000000000001
 40
0.4000000000000021
  0
CIRCLE
  5
148
100
AcDbEntity
  8
metal
  6
ByLayer
 62
  256
370
   -1
100
AcDbCircle
 10
-2023.5
 20
669.6000000000001
 40
0.4000000000000021
  0
LWPOLYLINE
  5
149
100
AcDbEntity
  8
aeroc
  6
ByLayer
 62
  256
370
   -1
100
AcDbPolyline
 90
    4
 70
    1
 43
0
 10
-2016
 20
39.99999999999989
 10
-2046
 20
39.99999999999989
 10
-2046
 20
324
 10
-2016
 20
324
  0
LWPOLYLINE
  5
14A
100
AcDbEntity
  8
styny
  6
ByLayer
 62
  256
370
   -1
100
AcDbPolyline
 90
    4
 70
    1
 43
0
 10
-2000
 20
40
 10
-2012
 20
39.99999999999989
 10
-2011.999999999999
 20
669.9999999999999
 10
-1999.999999999999
 20
670.0000000000441
  0
LWPOLYLINE
  5
14B
100
AcDbEntity
  8
fundament
  6
ByLayer
 62
  256
370
   -1
100
AcDbPolyline
 90
    9
 70
    0
 43
0
 10
-2200
 20
40
 10
-2200
 20
0
 10
-2112
 20
0
 10
-2107
 20
-10
 10
-2097
 20
10
 10
-2092
 20
0
 10
-2000
 20
0
 10
-2000
 20
40
 10
-2200
 20
40
  0
LWPOLYLINE
  5
14C
100
AcDbEntity
  8
fundament
  6
ByLayer
 62
  256
370
   -1
100
AcDbPolyline
 90
    9
 70
    0
 43
0
 10
-2200
 20
40
 10
-2200
 20
0
 10
-2112
 20
0
 10
-2107
 20
-10
 10
-2097
 20
10
 10
-2092
 20
0
 10
-2000
 20
0
 10
-2000
 20
40
 10
-2200
 20
40
  0
LWPOLYLINE
  5
14D
100
AcDbEntity
  8
decor
  6
ByLayer
 62
  256
370
   -1
100
AcDbPolyline
 90
    4
 70
    1
 43
0
 10
-1500
 20
0
 10
-500
 20
0
 10
-500
 20
40
 10
-1500
 20
40
  0
ARC
  5
14E
100
AcDbEntity
  8
styny
  6
ByLayer
 62
  256
370
   -1
100
AcDbCircle
 10
-1304
 20
429.5000000000005
 40
162.5
100
AcDbArc
 50
75.74996730219641
 51
104.2500326978036
  0
ARC
  5
14F
100
AcDbEntity
  8
styny
  6
ByLayer
 62
  256
370
   -1
100
AcDbCircle
 10
-1304
 20
429.5000000000005
 40
187.4999999999995
100
AcDbArc
 50
75.74996730219635
 51
104.2500326978036
  0
LINE
  5
150
100
AcDbEntity
  8
styny
  6
ByLayer
 62
  256
370
   -1
100
AcDbLine
 10
-1350.153846153846
 20
611.2307692307695
 11
-1344
 21
587.0000000000005
  0
LINE
  5
151
100
AcDbEntity
  8
styny
  6
ByLayer
 62
  256
370
   -1
100
AcDbLine
 10
-1257.846153846154
 20
611.2307692307695
 11
-1264
 21
587.0000000000005
  0
LWPOLYLINE
  5
152
100
AcDbEntity
  8
vikna_dveri
  6
ByLayer
 62
  256
370
   -1
100
AcDbPolyline
 90
    4
 70
    1
 43
0
 10
-1334
 20
468
 10
-1274
 20
468
 10
-1274
 20
574
 10
-1334
 20
574
  0
LWPOLYLINE
  5
153
100
AcDbEntity
  8
vikna_dveri
  6
ByLayer
 62
  256
370
   -1
100
AcDbPolyline
 90
   21
 70
    0
 43
0
 10
-1305
 20
574
 10
-1305
 20
540
 10
-1334
 20
540
 10
-1334
 20
538
 10
-1305
 20
538
 10
-1305
 20
504
 10
-1334
 20
504
 10
-1334
 20
502
 10
-1305
 20
502
 10
-1305
 20
468
 10
-1303
 20
468
 10
-1303
 20
502
 10
-1274
 20
502
 10
-1274
 20
504
 10
-1303
 20
504
 10
-1303
 20
538
 10
-1274
 20
538
 10
-1274
 20
540
 10
-1303
 20
540
 10
-1303
 20
574
 10
-1305
 20
574
  0
LINE
  5
154
100
AcDbEntity
  8
styny
  6
ByLayer
 62
  256
370
   -1
100
AcDbLine
 10
-791
 20
40
 11
-791
 21
300
  0
LINE
  5
155
100
AcDbEntity
  8
styny
  6
ByLayer
 62
  256
370
   -1
100
AcDbLine
 10
-941
 20
40
 11
-941
 21
300
  0
LINE
  5
156
100
AcDbEntity
  8
styny
  6
ByLayer
 62
  256
370
   -1
100
AcDbLine
 10
-784.8461538461538
 20
324.2307692307691
 11
-791
 21
300
  0
ARC
  5
157
100
AcDbEntity
  8
styny
  6
ByLayer
 62
  256
370
   -1
100
AcDbCircle
 10
-866
 20
4.687500000000114
 40
304.6874999999999
100
AcDbArc
 50
75.7499673021964
 51
104.2500326978036
  0
LINE
  5
158
100
AcDbEntity
  8
styny
  6
ByLayer
 62
  256
370
   -1
100
AcDbLine
 10
-947.1538461538462
 20
324.2307692307691
 11
-941
 21
300
  0
ARC
  5
159
100
AcDbEntity
  8
styny
  6
ByLayer
 62
  256
370
   -1
100
AcDbCircle
 10
-866.0000000000001
 20
4.687500000000227
 40
329.6874999999995
100
AcDbArc
 50
75.74996730219637
 51
104.2500326978036
  0
LINE
  5
15A
100
AcDbEntity
  8
styny
  6
ByLayer
 62
  256
370
   -1
100
AcDbLine
 10
-577
 20
40
 11
-577
 21
300
  0
LINE
  5
15B
100
AcDbEntity
  8
styny
  6
ByLayer
 62
  256
370
   -1
100
AcDbLine
 10
-727
 20
40
 11
-727
 21
300
  0
LINE
  5
15C
100
AcDbEntity
  8
styny
  6
ByLayer
 62
  256
370
   -1
100
AcDbLine
 10
-570.8461538461538
 20
324.2307692307691
 11
-577
 21
300
  0
ARC
  5
15D
100
AcDbEntity
  8
styny
  6
ByLayer
 62
  256
370
   -1
100
AcDbCircle
 10
-652
 20
4.687500000000114
 40
304.6874999999999
100
AcDbArc
 50
75.7499673021964
 51
104.2500326978036
  0
LINE
  5
15E
100
AcDbEntity
  8
styny
  6
ByLayer
 62
  256
370
   -1
100
AcDbLine
 10
-733.1538461538462
 20
324.2307692307691
 11
-727
 21
300
  0
ARC
  5
15F
100
AcDbEntity
  8
styny
  6
ByLayer
 62
  256
370
   -1
100
AcDbCircle
 10
-652.0000000000001
 20
4.687500000000227
 40
329.6874999999995
100
AcDbArc
 50
75.74996730219637
 51
104.2500326978036
  0
LWPOLYLINE
  5
160
100
AcDbEntity
  8
styny
  6
ByLayer
 62
  256
370
   -1
100
AcDbPolyline
 90
    4
 70
    1
 43
0
 10
-1500
 20
40
 10
-500
 20
40
 10
-500
 20
670
 10
-1500
 20
670
  0
LINE
  5
161
100
AcDbEntity
  8
styny
  6
ByLayer
 62
  256
370
   -1
100
AcDbLine
 10
-840.1538461538462
 20
611.2307692307695
 11
-834
 21
587.0000000000005
  0
LWPOLYLINE
  5
162
100
AcDbEntity
  8
vikna_dveri
  6
ByLayer
 62
  256
370
   -1
100
AcDbPolyline
 90
    4
 70
    1
 43
0
 10
-824
 20
468
 10
-764
 20
468
 10
-764
 20
574
 10
-824
 20
574
  0
LWPOLYLINE
  5
163
100
AcDbEntity
  8
vikna_dveri
  6
ByLayer
 62
  256
370
   -1
100
AcDbPolyline
 90
   21
 70
    0
 43
0
 10
-795
 20
574
 10
-795
 20
540
 10
-824
 20
540
 10
-824
 20
538
 10
-795
 20
538
 10
-795
 20
504
 10
-824
 20
504
 10
-824
 20
502
 10
-795
 20
502
 10
-795
 20
468
 10
-793
 20
468
 10
-793
 20
502
 10
-764
 20
502
 10
-764
 20
504
 10
-793
 20
504
 10
-793
 20
538
 10
-764
 20
538
 10
-764
 20
540
 10
-793
 20
540
 10
-793
 20
574
 10
-795
 20
574
  0
LINE
  5
164
100
AcDbEntity
  8
styny
  6
ByLayer
 62
  256
370
   -1
100
AcDbLine
 10
-677.8461538461538
 20
611.2307692307695
 11
-684
 21
587.0000000000005
  0
LWPOLYLINE
  5
165
100
AcDbEntity
  8
vikna_dveri
  6
ByLayer
 62
  256
370
   -1
100
AcDbPolyline
 90
    4
 70
    1
 43
0
 10
-839
 20
458
 10
-679
 20
458
 10
-679
 20
452
 10
-839
 20
452
  0
LINE
  5
166
100
AcDbEntity
  8
vikna_dveri
  6
ByLayer
 62
  256
370
   -1
100
AcDbLine
 10
-839
 20
455
 11
-679
 21
455
  0
ARC
  5
167
100
AcDbEntity
  8
styny
  6
ByLayer
 62
  256
370
   -1
100
AcDbCircle
 10
-759
 20
291.6875000000006
 40
304.6874999999999
100
AcDbArc
 50
75.74996730219638
 51
104.2500326978036
  0
ARC
  5
168
100
AcDbEntity
  8
styny
  6
ByLayer
 62
  256
370
   -1
100
AcDbCircle
 10
-758.9999999999994
 20
291.6875000000009
 40
329.6874999999992
100
AcDbArc
 50
75.74996730219648
 51
104.2500326978037
  0
LWPOLYLINE
  5
169
100
AcDbEntity
  8
vikna_dveri
  6
ByLayer
 62
  256
370
   -1
100
AcDbPolyline
 90
    4
 70
    1
 43
0
 10
-754
 20
468
 10
-694
 20
468
 10
-694
 20
574
 10
-754
 20
574
  0
LWPOLYLINE
  5
16A
100
AcDbEntity
  8
vikna_dveri
  6
ByLayer
 62
  256
370
   -1
100
AcDbPolyline
 90
   21
 70
    0
 43
0
 10
-725
 20
574
 10
-725
 20
540
 10
-754
 20
540
 10
-754
 20
538
 10
-725
 20
538
 10
-725
 20
504
 10
-754
 20
504
 10
-754
 20
502
 10
-725
 20
502
 10
-725
 20
468
 10
-723
 20
468
 10
-723
 20
502
 10
-694
 20
502
 10
-694
 20
504
 10
-723
 20
504
 10
-723
 20
538
 10
-694
 20
538
 10
-694
 20
540
 10
-723
 20
540
 10
-723
 20
574
 10
-725
 20
574
  0
LINE
  5
16B
100
AcDbEntity
  8
vikna_dveri
  6
ByLayer
 62
  256
370
   -1
100
AcDbLine
 10
-1350
 20
455
 11
-1258
 21
455
  0
LWPOLYLINE
  5
16C
100
AcDbEntity
  8
vikna_dveri
  6
ByLayer
 62
  256
370
   -1
100
AcDbPolyline
 90
    4
 70
    1
 43
0
 10
-1350
 20
458
 10
-1258
 20
458
 10
-1258
 20
452
 10
-1350
 20
452
  0
LWPOLYLINE
  5
16D
100
AcDbEntity
  8
styny
  6
ByLayer
 62
  256
370
   -1
100
AcDbPolyline
 90
   12
 70
    0
 43
0
 10
-1264
 20
587.0000000000005
 10
-1264
 20
458
 10
-1258
 20
458
 10
-1258
 20
452
 10
-1260
 20
452.0000000000006
 10
-1260
 20
443.0000000000001
 10
-1348
 20
443
 10
-1348
 20
452.0000000000005
 10
-1350
 20
452
 10
-1350
 20
458
 10
-1344
 20
458
 10
-1344
 20
587.0000000000005
  0
ARC
  5
16E
100
AcDbEntity
  8
styny
  6
ByLayer
 62
  256
370
   -1
100
AcDbCircle
 10
-1056
 20
429.5000000000005
 40
162.5
100
AcDbArc
 50
75.74996730219641
 51
104.2500326978036
  0
ARC
  5
16F
100
AcDbEntity
  8
styny
  6
ByLayer
 62
  256
370
   -1
100
AcDbCircle
 10
-1056
 20
429.5000000000005
 40
187.4999999999995
100
AcDbArc
 50
75.74996730219635
 51
104.2500326978036
  0
LINE
  5
170
100
AcDbEntity
  8
styny
  6
ByLayer
 62
  256
370
   -1
100
AcDbLine
 10
-1102.153846153846
 20
611.2307692307695
 11
-1096
 21
587.0000000000005
  0
LINE
  5
171
100
AcDbEntity
  8
styny
  6
ByLayer
 62
  256
370
   -1
100
AcDbLine
 10
-1009.846153846154
 20
611.2307692307695
 11
-1016
 21
587.0000000000005
  0
LWPOLYLINE
  5
172
100
AcDbEntity
  8
vikna_dveri
  6
ByLayer
 62
  256
370
   -1
100
AcDbPolyline
 90
    4
 70
    1
 43
0
 10
-1086
 20
468
 10
-1026
 20
468
 10
-1026
 20
574
 10
-1086
 20
574
  0
LWPOLYLINE
  5
173
100
AcDbEntity
  8
vikna_dveri
  6
ByLayer
 62
  256
370
   -1
100
AcDbPolyline
 90
   21
 70
    0
 43
0
 10
-1057
 20
574
 10
-1057
 20
540
 10
-1086
 20
540
 10
-1086
 20
538
 10
-1057
 20
538
 10
-1057
 20
504
 10
-1086
 20
504
 10
-1086
 20
502
 10
-1057
 20
502
 10
-1057
 20
468
 10
-1055
 20
468
 10
-1055
 20
502
 10
-1026
 20
502
 10
-1026
 20
504
 10
-1055
 20
504
 10
-1055
 20
538
 10
-1026
 20
538
 10
-1026
 20
540
 10
-1055
 20
540
 10
-1055
 20
574
 10
-1057
 20
574
  0
LINE
  5
174
100
AcDbEntity
  8
vikna_dveri
  6
ByLayer
 62
  256
370
   -1
100
AcDbLine
 10
-1102
 20
455
 11
-1010
 21
455
  0
LWPOLYLINE
  5
175
100
AcDbEntity
  8
vikna_dveri
  6
ByLayer
 62
  256
370
   -1
100
AcDbPolyline
 90
    4
 70
    1
 43
0
 10
-1102
 20
458
 10
-1010
 20
458
 10
-1010
 20
452
 10
-1102
 20
452
  0
LWPOLYLINE
  5
176
100
AcDbEntity
  8
styny
  6
ByLayer
 62
  256
370
   -1
100
AcDbPolyline
 90
   12
 70
    0
 43
0
 10
-1016
 20
587.0000000000005
 10
-1016
 20
458
 10
-1010
 20
458
 10
-1010
 20
452
 10
-1012
 20
452.0000000000006
 10
-1012
 20
443.0000000000001
 10
-1100
 20
443
 10
-1100
 20
452.0000000000005
 10
-1102
 20
452
 10
-1102
 20
458
 10
-1096
 20
458
 10
-1096
 20
587.0000000000005
  0
ARC
  5
177
100
AcDbEntity
  8
styny
  6
ByLayer
 62
  256
370
   -1
100
AcDbCircle
 10
-1304
 20
102.5000000000005
 40
162.5
100
AcDbArc
 50
75.74996730219641
 51
104.2500326978036
  0
ARC
  5
178
100
AcDbEntity
  8
styny
  6
ByLayer
 62
  256
370
   -1
100
AcDbCircle
 10
-1304
 20
102.5000000000005
 40
187.4999999999995
100
AcDbArc
 50
75.74996730219635
 51
104.2500326978036
  0
LINE
  5
179
100
AcDbEntity
  8
styny
  6
ByLayer
 62
  256
370
   -1
100
AcDbLine
 10
-1350.153846153846
 20
284.2307692307695
 11
-1344
 21
260.0000000000005
  0
LINE
  5
17A
100
AcDbEntity
  8
styny
  6
ByLayer
 62
  256
370
   -1
100
AcDbLine
 10
-1257.846153846154
 20
284.2307692307695
 11
-1264
 21
260.0000000000005
  0
LWPOLYLINE
  5
17B
100
AcDbEntity
  8
vikna_dveri
  6
ByLayer
 62
  256
370
   -1
100
AcDbPolyline
 90
    4
 70
    1
 43
0
 10
-1334
 20
141
 10
-1274
 20
141
 10
-1274
 20
247
 10
-1334
 20
247
  0
LWPOLYLINE
  5
17C
100
AcDbEntity
  8
vikna_dveri
  6
ByLayer
 62
  256
370
   -1
100
AcDbPolyline
 90
   21
 70
    0
 43
0
 10
-1305
 20
247
 10
-1305
 20
213
 10
-1334
 20
213
 10
-1334
 20
211
 10
-1305
 20
211
 10
-1305
 20
177
 10
-1334
 20
177
 10
-1334
 20
175
 10
-1305
 20
175
 10
-1305
 20
141
 10
-1303
 20
141
 10
-1303
 20
175
 10
-1274
 20
175
 10
-1274
 20
177
 10
-1303
 20
177
 10
-1303
 20
211
 10
-1274
 20
211
 10
-1274
 20
213
 10
-1303
 20
213
 10
-1303
 20
247
 10
-1305
 20
247
  0
LINE
  5
17D
100
AcDbEntity
  8
vikna_dveri
  6
ByLayer
 62
  256
370
   -1
100
AcDbLine
 10
-1350
 20
128
 11
-1258
 21
128
  0
LWPOLYLINE
  5
17E
100
AcDbEntity
  8
vikna_dveri
  6
ByLayer
 62
  256
370
   -1
100
AcDbPolyline
 90
    4
 70
    1
 43
0
 10
-1350
 20
131
 10
-1258
 20
131
 10
-1258
 20
125
 10
-1350
 20
125
  0
LWPOLYLINE
  5
17F
100
AcDbEntity
  8
styny
  6
ByLayer
 62
  256
370
   -1
100
AcDbPolyline
 90
   12
 70
    0
 43
0
 10
-1264
 20
260.0000000000005
 10
-1264
 20
131
 10
-1258
 20
131
 10
-1258
 20
125
 10
-1260
 20
125.0000000000006
 10
-1260
 20
116.0000000000001
 10
-1348
 20
116
 10
-1348
 20
125.0000000000005
 10
-1350
 20
125
 10
-1350
 20
131
 10
-1344
 20
131
 10
-1344
 20
260.0000000000005
  0
ARC
  5
180
100
AcDbEntity
  8
styny
  6
ByLayer
 62
  256
370
   -1
100
AcDbCircle
 10
-1056
 20
102.5000000000005
 40
162.5
100
AcDbArc
 50
75.74996730219641
 51
104.2500326978036
  0
ARC
  5
181
100
AcDbEntity
  8
styny
  6
ByLayer
 62
  256
370
   -1
100
AcDbCircle
 10
-1056
 20
102.5000000000005
 40
187.4999999999995
100
AcDbArc
 50
75.74996730219635
 51
104.2500326978036
  0
LINE
  5
182
100
AcDbEntity
  8
styny
  6
ByLayer
 62
  256
370
   -1
100
AcDbLine
 10
-1102.153846153846
 20
284.2307692307695
 11
-1096
 21
260.0000000000005
  0
LINE
  5
183
100
AcDbEntity
  8
styny
  6
ByLayer
 62
  256
370
   -1
100
AcDbLine
 10
-1009.846153846154
 20
284.2307692307695
 11
-1016
 21
260.0000000000005
  0
LWPOLYLINE
  5
184
100
AcDbEntity
  8
vikna_dveri
  6
ByLayer
 62
  256
370
   -1
100
AcDbPolyline
 90
    4
 70
    1
 43
0
 10
-1086
 20
141
 10
-1026
 20
141
 10
-1026
 20
247
 10
-1086
 20
247
  0
LWPOLYLINE
  5
185
100
AcDbEntity
  8
vikna_dveri
  6
ByLayer
 62
  256
370
   -1
100
AcDbPolyline
 90
   21
 70
    0
 43
0
 10
-1057
 20
247
 10
-1057
 20
213
 10
-1086
 20
213
 10
-1086
 20
211
 10
-1057
 20
211
 10
-1057
 20
177
 10
-1086
 20
177
 10
-1086
 20
175
 10
-1057
 20
175
 10
-1057
 20
141
 10
-1055
 20
141
 10
-1055
 20
175
 10
-1026
 20
175
 10
-1026
 20
177
 10
-1055
 20
177
 10
-1055
 20
211
 10
-1026
 20
211
 10
-1026
 20
213
 10
-1055
 20
213
 10
-1055
 20
247
 10
-1057
 20
247
  0
LINE
  5
186
100
AcDbEntity
  8
vikna_dveri
  6
ByLayer
 62
  256
370
   -1
100
AcDbLine
 10
-1102
 20
128
 11
-1010
 21
128
  0
LWPOLYLINE
  5
187
100
AcDbEntity
  8
vikna_dveri
  6
ByLayer
 62
  256
370
   -1
100
AcDbPolyline
 90
    4
 70
    1
 43
0
 10
-1102
 20
131
 10
-1010
 20
131
 10
-1010
 20
125
 10
-1102
 20
125
  0
LWPOLYLINE
  5
188
100
AcDbEntity
  8
styny
  6
ByLayer
 62
  256
370
   -1
100
AcDbPolyline
 90
   12
 70
    0
 43
0
 10
-1016
 20
260.0000000000005
 10
-1016
 20
131
 10
-1010
 20
131
 10
-1010
 20
125
 10
-1012
 20
125.0000000000006
 10
-1012
 20
116.0000000000001
 10
-1100
 20
116
 10
-1100
 20
125.0000000000005
 10
-1102
 20
125
 10
-1102
 20
131
 10
-1096
 20
131
 10
-1096
 20
260.0000000000005
  0
LWPOLYLINE
  5
189
100
AcDbEntity
  8
styny
  6
ByLayer
 62
  256
370
   -1
100
AcDbPolyline
 90
   12
 70
    0
 43
0
 10
-684
 20
587.0000000000005
 10
-684
 20
458
 10
-679
 20
458
 10
-679
 20
452
 10
-681
 20
452
 10
-681
 20
442.9999999999995
 10
-837
 20
443
 10
-837
 20
452.0000000000005
 10
-839
 20
452
 10
-839
 20
458
 10
-834
 20
458
 10
-834
 20
587.0000000000005
  0
LWPOLYLINE
  5
18A
100
AcDbEntity
  8
0
  6
ByLayer
 62
  256
370
   -1
100
AcDbPolyline
 90
    9
 70
    0
 43
0
 10
2700
 20
390
 10
2700
 20
338
 10
2712
 20
338
 10
2712
 20
332
 10
2747
 20
332
 10
2747
 20
396
 10
2712
 20
396
 10
2712
 20
390
 10
2700
 20
390
  0
LWPOLYLINE
  5
18B
100
AcDbEntity
  8
0
  6
ByLayer
 62
  256
370
   -1
100
AcDbPolyline
 90
    9
 70
    0
 43
0
 10
1300
 20
390
 10
1300
 20
338
 10
1312
 20
338
 10
1312
 20
332
 10
1347
 20
332
 10
1347
 20
396
 10
1312
 20
396
 10
1312
 20
390
 10
1300
 20
390
  0
LWPOLYLINE
  5
18C
100
AcDbEntity
  8
decor
  6
ByLayer
 62
  256
370
   -1
100
AcDbPolyline
 90
    4
 70
    1
 43
0
 10
0
 20
0
 10
1050
 20
0
 10
1050
 20
40
 10
0
 20
40
  0
LWPOLYLINE
  5
18D
100
AcDbEntity
  8
styny
  6
ByLayer
 62
  256
370
   -1
100
AcDbPolyline
 90
    4
 70
    1
 43
0
 10
0
 20
40
 10
1050
 20
40
 10
1050
 20
670
 10
0
 20
670
  0
ARC
  5
18E
100
AcDbEntity
  8
styny
  6
ByLayer
 62
  256
370
   -1
100
AcDbCircle
 10
197
 20
429.5000000000005
 40
162.5
100
AcDbArc
 50
75.74996730219641
 51
104.2500326978036
  0
ARC
  5
18F
100
AcDbEntity
  8
styny
  6
ByLayer
 62
  256
370
   -1
100
AcDbCircle
 10
197
 20
429.5000000000005
 40
187.4999999999995
100
AcDbArc
 50
75.74996730219635
 51
104.2500326978036
  0
LINE
  5
190
100
AcDbEntity
  8
styny
  6
ByLayer
 62
  256
370
   -1
100
AcDbLine
 10
150.846153846154
 20
611.2307692307695
 11
157
 21
587.0000000000005
  0
LINE
  5
191
100
AcDbEntity
  8
styny
  6
ByLayer
 62
  256
370
   -1
100
AcDbLine
 10
243.153846153846
 20
611.2307692307695
 11
237
 21
587.0000000000005
  0
LWPOLYLINE
  5
192
100
AcDbEntity
  8
vikna_dveri
  6
ByLayer
 62
  256
370
   -1
100
AcDbPolyline
 90
    4
 70
    1
 43
0
 10
167
 20
468
 10
227
 20
468
 10
227
 20
574
 10
167
 20
574
  0
LWPOLYLINE
  5
193
100
AcDbEntity
  8
vikna_dveri
  6
ByLayer
 62
  256
370
   -1
100
AcDbPolyline
 90
   21
 70
    0
 43
0
 10
196
 20
574
 10
196
 20
540
 10
167
 20
540
 10
167
 20
538
 10
196
 20
538
 10
196
 20
504
 10
167
 20
504
 10
167
 20
502
 10
196
 20
502
 10
196
 20
468
 10
198
 20
468
 10
198
 20
502
 10
227
 20
502
 10
227
 20
504
 10
198
 20
504
 10
198
 20
538
 10
227
 20
538
 10
227
 20
540
 10
198
 20
540
 10
198
 20
574
 10
196
 20
574
  0
LINE
  5
194
100
AcDbEntity
  8
vikna_dveri
  6
ByLayer
 62
  256
370
   -1
100
AcDbLine
 10
151
 20
455
 11
243
 21
455
  0
LWPOLYLINE
  5
195
100
AcDbEntity
  8
vikna_dveri
  6
ByLayer
 62
  256
370
   -1
100
AcDbPolyline
 90
    4
 70
    1
 43
0
 10
151
 20
458
 10
243
 20
458
 10
243
 20
452
 10
151
 20
452
  0
LWPOLYLINE
  5
196
100
AcDbEntity
  8
styny
  6
ByLayer
 62
  256
370
   -1
100
AcDbPolyline
 90
   12
 70
    0
 43
0
 10
237
 20
587.0000000000005
 10
237
 20
458
 10
243
 20
458
 10
243
 20
452
 10
241
 20
452.0000000000006
 10
241
 20
443.0000000000001
 10
153
 20
443
 10
153
 20
452.0000000000005
 10
151
 20
452
 10
151
 20
458
 10
157
 20
458
 10
157
 20
587.0000000000005
  0
ARC
  5
197
100
AcDbEntity
  8
styny
  6
ByLayer
 62
  256
370
   -1
100
AcDbCircle
 10
197
 20
102.5000000000005
 40
162.5
100
AcDbArc
 50
75.74996730219641
 51
104.2500326978036
  0
ARC
  5
198
100
AcDbEntity
  8
styny
  6
ByLayer
 62
  256
370
   -1
100
AcDbCircle
 10
197
 20
102.5000000000005
 40
187.4999999999995
100
AcDbArc
 50
75.74996730219635
 51
104.2500326978036
  0
LINE
  5
199
100
AcDbEntity
  8
styny
  6
ByLayer
 62
  256
370
   -1
100
AcDbLine
 10
150.846153846154
 20
284.2307692307695
 11
157
 21
260.0000000000005
  0
LINE
  5
19A
100
AcDbEntity
  8
styny
  6
ByLayer
 62
  256
370
   -1
100
AcDbLine
 10
243.153846153846
 20
284.2307692307695
 11
237
 21
260.0000000000005
  0
LWPOLYLINE
  5
19B
100
AcDbEntity
  8
vikna_dveri
  6
ByLayer
 62
  256
370
   -1
100
AcDbPolyline
 90
    4
 70
    1
 43
0
 10
167
 20
141
 10
227
 20
141
 10
227
 20
247
 10
167
 20
247
  0
LWPOLYLINE
  5
19C
100
AcDbEntity
  8
vikna_dveri
  6
ByLayer
 62
  256
370
   -1
100
AcDbPolyline
 90
   21
 70
    0
 43
0
 10
196
 20
247
 10
196
 20
213
 10
167
 20
213
 10
167
 20
211
 10
196
 20
211
 10
196
 20
177
 10
167
 20
177
 10
167
 20
175
 10
196
 20
175
 10
196
 20
141
 10
198
 20
141
 10
198
 20
175
 10
227
 20
175
 10
227
 20
177
 10
198
 20
177
 10
198
 20
211
 10
227
 20
211
 10
227
 20
213
 10
198
 20
213
 10
198
 20
247
 10
196
 20
247
  0
LINE
  5
19D
100
AcDbEntity
  8
vikna_dveri
  6
ByLayer
 62
  256
370
   -1
100
AcDbLine
 10
151
 20
128
 11
243
 21
128
  0
LWPOLYLINE
  5
19E
100
AcDbEntity
  8
vikna_dveri
  6
ByLayer
 62
  256
370
   -1
100
AcDbPolyline
 90
    4
 70
    1
 43
0
 10
151
 20
131
 10
243
 20
131
 10
243
 20
125
 10
151
 20
125
  0
LWPOLYLINE
  5
19F
100
AcDbEntity
  8
styny
  6
ByLayer
 62
  256
370
   -1
100
AcDbPolyline
 90
   12
 70
    0
 43
0
 10
237
 20
260.0000000000005
 10
237
 20
131
 10
243
 20
131
 10
243
 20
125
 10
241
 20
125.0000000000006
 10
241
 20
116.0000000000001
 10
153
 20
116
 10
153
 20
125.0000000000005
 10
151
 20
125
 10
151
 20
131
 10
157
 20
131
 10
157
 20
260.0000000000005
  0
ARC
  5
1A0
100
AcDbEntity
  8
styny
  6
ByLayer
 62
  256
370
   -1
100
AcDbCircle
 10
468
 20
429.5000000000005
 40
162.5
100
AcDbArc
 50
75.74996730219641
 51
104.2500326978036
  0
ARC
  5
1A1
100
AcDbEntity
  8
styny
  6
ByLayer
 62
  256
370
   -1
100
AcDbCircle
 10
468
 20
429.5000000000005
 40
187.4999999999995
100
AcDbArc
 50
75.74996730219635
 51
104.2500326978036
  0
LINE
  5
1A2
100
AcDbEntity
  8
styny
  6
ByLayer
 62
  256
370
   -1
100
AcDbLine
 10
421.846153846154
 20
611.2307692307695
 11
428
 21
587.0000000000005
  0
LINE
  5
1A3
100
AcDbEntity
  8
styny
  6
ByLayer
 62
  256
370
   -1
100
AcDbLine
 10
514.153846153846
 20
611.2307692307695
 11
508
 21
587.0000000000005
  0
LWPOLYLINE
  5
1A4
100
AcDbEntity
  8
vikna_dveri
  6
ByLayer
 62
  256
370
   -1
100
AcDbPolyline
 90
    4
 70
    1
 43
0
 10
438
 20
468
 10
498
 20
468
 10
498
 20
574
 10
438
 20
574
  0
LWPOLYLINE
  5
1A5
100
AcDbEntity
  8
vikna_dveri
  6
ByLayer
 62
  256
370
   -1
100
AcDbPolyline
 90
   21
 70
    0
 43
0
 10
467
 20
574
 10
467
 20
540
 10
438
 20
540
 10
438
 20
538
 10
467
 20
538
 10
467
 20
504
 10
438
 20
504
 10
438
 20
502
 10
467
 20
502
 10
467
 20
468
 10
469
 20
468
 10
469
 20
502
 10
498
 20
502
 10
498
 20
504
 10
469
 20
504
 10
469
 20
538
 10
498
 20
538
 10
498
 20
540
 10
469
 20
540
 10
469
 20
574
 10
467
 20
574
  0
LINE
  5
1A6
100
AcDbEntity
  8
vikna_dveri
  6
ByLayer
 62
  256
370
   -1
100
AcDbLine
 10
422
 20
455
 11
514
 21
455
  0
LWPOLYLINE
  5
1A7
100
AcDbEntity
  8
vikna_dveri
  6
ByLayer
 62
  256
370
   -1
100
AcDbPolyline
 90
    4
 70
    1
 43
0
 10
422
 20
458
 10
514
 20
458
 10
514
 20
452
 10
422
 20
452
  0
LWPOLYLINE
  5
1A8
100
AcDbEntity
  8
styny
  6
ByLayer
 62
  256
370
   -1
100
AcDbPolyline
 90
   12
 70
    0
 43
0
 10
508
 20
587.0000000000005
 10
508
 20
458
 10
514
 20
458
 10
514
 20
452
 10
512
 20
452.0000000000006
 10
512
 20
443.0000000000001
 10
424
 20
443
 10
424
 20
452.0000000000005
 10
422
 20
452
 10
422
 20
458
 10
428
 20
458
 10
428
 20
587.0000000000005
  0
LINE
  5
1A9
100
AcDbEntity
  8
styny
  6
ByLayer
 62
  256
370
   -1
100
AcDbLine
 10
653.8461538461538
 20
613.2307692307695
 11
660
 21
589.0000000000005
  0
ARC
  5
1AA
100
AcDbEntity
  8
styny
  6
ByLayer
 62
  256
370
   -1
100
AcDbCircle
 10
685
 20
490.5625000000005
 40
101.5625
100
AcDbArc
 50
75.7499673021964
 51
104.2500326978036
  0
ARC
  5
1AB
100
AcDbEntity
  8
styny
  6
ByLayer
 62
  256
370
   -1
100
AcDbCircle
 10
685.0000000000007
 20
490.5625000000005
 40
126.5624999999996
100
AcDbArc
 50
75.74996730219668
 51
104.2500326978039
  0
LWPOLYLINE
  5
1AC
100
AcDbEntity
  8
vikna_dveri
  6
ByLayer
 62
  256
370
   -1
100
AcDbPolyline
 90
    4
 70
    1
 43
0
 10
655
 20
508
 10
717
 20
508
 10
717
 20
502
 10
655
 20
502
  0
LINE
  5
1AD
100
AcDbEntity
  8
vikna_dveri
  6
ByLayer
 62
  256
370
   -1
100
AcDbLine
 10
655
 20
505
 11
717
 21
505
  0
LINE
  5
1AE
100
AcDbEntity
  8
styny
  6
ByLayer
 62
  256
370
   -1
100
AcDbLine
 10
718.1538461538462
 20
613.2307692307695
 11
712
 21
589.0000000000005
  0
LWPOLYLINE
  5
1AF
100
AcDbEntity
  8
vikna_dveri
  6
ByLayer
 62
  256
370
   -1
100
AcDbPolyline
 90
    4
 70
    1
 43
0
 10
670
 20
518
 10
704
 20
518
 10
704
 20
576
 10
670
 20
576
  0
LWPOLYLINE
  5
1B0
100
AcDbEntity
  8
styny
  6
ByLayer
 62
  256
370
   -1
100
AcDbPolyline
 90
   12
 70
    0
 43
0
 10
712
 20
589.0000000000005
 10
712
 20
508
 10
717
 20
508
 10
717
 20
502
 10
715
 20
502
 10
715
 20
492.9999999999995
 10
657
 20
493
 10
657
 20
502.0000000000005
 10
655
 20
502
 10
655
 20
508
 10
660
 20
508
 10
660
 20
589.0000000000005
  0
LINE
  5
1B1
100
AcDbEntity
  8
styny
  6
ByLayer
 62
  256
370
   -1
100
AcDbLine
 10
653.8461538461538
 20
286.2307692307695
 11
660
 21
262.0000000000005
  0
ARC
  5
1B2
100
AcDbEntity
  8
styny
  6
ByLayer
 62
  256
370
   -1
100
AcDbCircle
 10
685
 20
163.5625000000005
 40
101.5625
100
AcDbArc
 50
75.7499673021964
 51
104.2500326978036
  0
ARC
  5
1B3
100
AcDbEntity
  8
styny
  6
ByLayer
 62
  256
370
   -1
100
AcDbCircle
 10
685.0000000000007
 20
163.5625000000005
 40
126.5624999999996
100
AcDbArc
 50
75.74996730219668
 51
104.2500326978039
  0
LWPOLYLINE
  5
1B4
100
AcDbEntity
  8
vikna_dveri
  6
ByLayer
 62
  256
370
   -1
100
AcDbPolyline
 90
    4
 70
    1
 43
0
 10
655
 20
181
 10
717
 20
181
 10
717
 20
175
 10
655
 20
175
  0
LINE
  5
1B5
100
AcDbEntity
  8
vikna_dveri
  6
ByLayer
 62
  256
370
   -1
100
AcDbLine
 10
655
 20
178
 11
717
 21
178
  0
LINE
  5
1B6
100
AcDbEntity
  8
styny
  6
ByLayer
 62
  256
370
   -1
100
AcDbLine
 10
718.1538461538462
 20
286.2307692307695
 11
712
 21
262.0000000000005
  0
LWPOLYLINE
  5
1B7
100
AcDbEntity
  8
vikna_dveri
  6
ByLayer
 62
  256
370
   -1
100
AcDbPolyline
 90
    4
 70
    1
 43
0
 10
670
 20
191
 10
704
 20
191
 10
704
 20
249
 10
670
 20
249
  0
LWPOLYLINE
  5
1B8
100
AcDbEntity
  8
styny
  6
ByLayer
 62
  256
370
   -1
100
AcDbPolyline
 90
   12
 70
    0
 43
0
 10
712
 20
262.0000000000005
 10
712
 20
181
 10
717
 20
181
 10
717
 20
175
 10
715
 20
175
 10
715
 20
165.9999999999995
 10
657
 20
166
 10
657
 20
175.0000000000005
 10
655
 20
175
 10
655
 20
181
 10
660
 20
181
 10
660
 20
262.0000000000005
  0
LINE
  5
1B9
100
AcDbEntity
  8
0
  6
ByLayer
 62
  256
370
   -1
100
AcDbLine
 10
0
 20
-872
 11
440
 21
-872
  0
LINE
  5
1BA
100
AcDbEntity
  8
0
  6
ByLayer
 62
  256
370
   -1
100
AcDbLine
 10
0
 20
-545
 11
440
 21
-545
  0
LWPOLYLINE
  5
1BB
100
AcDbEntity
  8
decor
  6
ByLayer
 62
  256
370
   -1
100
AcDbPolyline
 90
    4
 70
    1
 43
0
 10
-1500
 20
-1000
 10
-500
 20
-1000
 10
-500
 20
-960
 10
-1500
 20
-960
  0
LWPOLYLINE
  5
1BC
100
AcDbEntity
  8
styny
  6
ByLayer
 62
  256
370
   -1
100
AcDbPolyline
 90
    4
 70
    1
 43
0
 10
-1500
 20
-960
 10
-500
 20
-960
 10
-500
 20
-330
 10
-1500
 20
-330
  0
LWPOLYLINE
  5
1BD
100
AcDbEntity
  8
decor
  6
ByLayer
 62
  256
370
   -1
100
AcDbPolyline
 90
    4
 70
    1
 43
0
 10
0
 20
-1000
 10
1050
 20
-1000
 10
1050
 20
-960
 10
0
 20
-960
  0
LWPOLYLINE
  5
1BE
100
AcDbEntity
  8
styny
  6
ByLayer
 62
  256
370
   -1
100
AcDbPolyline
 90
    4
 70
    1
 43
0
 10
0
 20
-960
 10
1050
 20
-960
 10
1050
 20
-330
 10
0
 20
-330
  0
ELLIPSE
  5
1BF
100
AcDbEntity
  8
vikna_dveri
  6
ByLayer
 62
  256
370
   -1
100
AcDbEllipse
 10
1330
 20
854
 30
0
 11
0
 21
226
 31
0
 40
0.3097345132743363
 41
0
 42
6.283185307179586
  0
ARC
  5
1C0
100
AcDbEntity
  8
styny
  6
ByLayer
 62
  256
370
   -1
100
AcDbCircle
 10
-896
 20
-570.4999999999995
 40
162.5
100
AcDbArc
 50
75.74996730219641
 51
104.2500326978036
  0
ARC
  5
1C1
100
AcDbEntity
  8
styny
  6
ByLayer
 62
  256
370
   -1
100
AcDbCircle
 10
-896
 20
-570.4999999999995
 40
187.4999999999995
100
AcDbArc
 50
75.74996730219635
 51
104.2500326978036
  0
LINE
  5
1C2
100
AcDbEntity
  8
styny
  6
ByLayer
 62
  256
370
   -1
100
AcDbLine
 10
-942.153846153846
 20
-388.7692307692305
 11
-936
 21
-412.9999999999995
  0
LINE
  5
1C3
100
AcDbEntity
  8
styny
  6
ByLayer
 62
  256
370
   -1
100
AcDbLine
 10
-849.846153846154
 20
-388.7692307692305
 11
-856
 21
-412.9999999999995
  0
LWPOLYLINE
  5
1C4
100
AcDbEntity
  8
vikna_dveri
  6
ByLayer
 62
  256
370
   -1
100
AcDbPolyline
 90
    4
 70
    1
 43
0
 10
-926
 20
-532
 10
-866
 20
-532
 10
-866
 20
-426
 10
-926
 20
-426
  0
LWPOLYLINE
  5
1C5
100
AcDbEntity
  8
vikna_dveri
  6
ByLayer
 62
  256
370
   -1
100
AcDbPolyline
 90
   21
 70
    0
 43
0
 10
-897
 20
-426
 10
-897
 20
-460
 10
-926
 20
-460
 10
-926
 20
-462
 10
-897
 20
-462
 10
-897
 20
-496
 10
-926
 20
-496
 10
-926
 20
-498
 10
-897
 20
-498
 10
-897
 20
-532
 10
-895
 20
-532
 10
-895
 20
-498
 10
-866
 20
-498
 10
-866
 20
-496
 10
-895
 20
-496
 10
-895
 20
-462
 10
-866
 20
-462
 10
-866
 20
-460
 10
-895
 20
-460
 10
-895
 20
-426
 10
-897
 20
-426
  0
LINE
  5
1C6
100
AcDbEntity
  8
vikna_dveri
  6
ByLayer
 62
  256
370
   -1
100
AcDbLine
 10
-942
 20
-545
 11
-850
 21
-545
  0
LWPOLYLINE
  5
1C7
100
AcDbEntity
  8
vikna_dveri
  6
ByLayer
 62
  256
370
   -1
100
AcDbPolyline
 90
    4
 70
    1
 43
0
 10
-942
 20
-542
 10
-850
 20
-542
 10
-850
 20
-548
 10
-942
 20
-548
  0
LWPOLYLINE
  5
1C8
100
AcDbEntity
  8
styny
  6
ByLayer
 62
  256
370
   -1
100
AcDbPolyline
 90
   12
 70
    0
 43
0
 10
-856
 20
-412.9999999999995
 10
-856
 20
-542
 10
-850
 20
-542
 10
-850
 20
-548
 10
-852
 20
-547.9999999999994
 10
-852
 20
-557
 10
-940
 20
-557
 10
-940
 20
-547.9999999999995
 10
-942
 20
-548
 10
-942
 20
-542
 10
-936
 20
-542
 10
-936
 20
-412.9999999999995
  0
ARC
  5
1C9
100
AcDbEntity
  8
styny
  6
ByLayer
 62
  256
370
   -1
100
AcDbCircle
 10
-896
 20
-897.4999999999995
 40
162.5
100
AcDbArc
 50
75.74996730219641
 51
104.2500326978036
  0
ARC
  5
1CA
100
AcDbEntity
  8
styny
  6
ByLayer
 62
  256
370
   -1
100
AcDbCircle
 10
-896
 20
-897.4999999999995
 40
187.4999999999995
100
AcDbArc
 50
75.74996730219635
 51
104.2500326978036
  0
LINE
  5
1CB
100
AcDbEntity
  8
styny
  6
ByLayer
 62
  256
370
   -1
100
AcDbLine
 10
-942.153846153846
 20
-715.7692307692305
 11
-936
 21
-739.9999999999995
  0
LINE
  5
1CC
100
AcDbEntity
  8
styny
  6
ByLayer
 62
  256
370
   -1
100
AcDbLine
 10
-849.846153846154
 20
-715.7692307692305
 11
-856
 21
-739.9999999999995
  0
LWPOLYLINE
  5
1CD
100
AcDbEntity
  8
vikna_dveri
  6
ByLayer
 62
  256
370
   -1
100
AcDbPolyline
 90
    4
 70
    1
 43
0
 10
-926
 20
-859
 10
-866
 20
-859
 10
-866
 20
-753
 10
-926
 20
-753
  0
LWPOLYLINE
  5
1CE
100
AcDbEntity
  8
vikna_dveri
  6
ByLayer
 62
  256
370
   -1
100
AcDbPolyline
 90
   21
 70
    0
 43
0
 10
-897
 20
-753
 10
-897
 20
-787
 10
-926
 20
-787
 10
-926
 20
-789
 10
-897
 20
-789
 10
-897
 20
-823
 10
-926
 20
-823
 10
-926
 20
-825
 10
-897
 20
-825
 10
-897
 20
-859
 10
-895
 20
-859
 10
-895
 20
-825
 10
-866
 20
-825
 10
-866
 20
-823
 10
-895
 20
-823
 10
-895
 20
-789
 10
-866
 20
-789
 10
-866
 20
-787
 10
-895
 20
-787
 10
-895
 20
-753
 10
-897
 20
-753
  0
LINE
  5
1CF
100
AcDbEntity
  8
vikna_dveri
  6
ByLayer
 62
  256
370
   -1
100
AcDbLine
 10
-942
 20
-872
 11
-850
 21
-872
  0
LWPOLYLINE
  5
1D0
100
AcDbEntity
  8
vikna_dveri
  6
ByLayer
 62
  256
370
   -1
100
AcDbPolyline
 90
    4
 70
    1
 43
0
 10
-942
 20
-869
 10
-850
 20
-869
 10
-850
 20
-875
 10
-942
 20
-875
  0
LWPOLYLINE
  5
1D1
100
AcDbEntity
  8
styny
  6
ByLayer
 62
  256
370
   -1
100
AcDbPolyline
 90
   12
 70
    0
 43
0
 10
-856
 20
-739.9999999999995
 10
-856
 20
-869
 10
-850
 20
-869
 10
-850
 20
-875
 10
-852
 20
-874.9999999999994
 10
-852
 20
-884
 10
-940
 20
-884
 10
-940
 20
-874.9999999999995
 10
-942
 20
-875
 10
-942
 20
-869
 10
-936
 20
-869
 10
-936
 20
-739.9999999999995
  0
ARC
  5
1D2
100
AcDbEntity
  8
styny
  6
ByLayer
 62
  256
370
   -1
100
AcDbCircle
 10
401
 20
-570.4999999999995
 40
162.5
100
AcDbArc
 50
75.74996730219641
 51
104.2500326978036
  0
ARC
  5
1D3
100
AcDbEntity
  8
styny
  6
ByLayer
 62
  256
370
   -1
100
AcDbCircle
 10
401
 20
-570.4999999999995
 40
187.4999999999995
100
AcDbArc
 50
75.74996730219635
 51
104.2500326978036
  0
LINE
  5
1D4
100
AcDbEntity
  8
styny
  6
ByLayer
 62
  256
370
   -1
100
AcDbLine
 10
354.846153846154
 20
-388.7692307692305
 11
361
 21
-412.9999999999995
  0
LINE
  5
1D5
100
AcDbEntity
  8
styny
  6
ByLayer
 62
  256
370
   -1
100
AcDbLine
 10
447.153846153846
 20
-388.7692307692305
 11
441
 21
-412.9999999999995
  0
LWPOLYLINE
  5
1D6
100
AcDbEntity
  8
vikna_dveri
  6
ByLayer
 62
  256
370
   -1
100
AcDbPolyline
 90
    4
 70
    1
 43
0
 10
371
 20
-532
 10
431
 20
-532
 10
431
 20
-426
 10
371
 20
-426
  0
LWPOLYLINE
  5
1D7
100
AcDbEntity
  8
vikna_dveri
  6
ByLayer
 62
  256
370
   -1
100
AcDbPolyline
 90
   21
 70
    0
 43
0
 10
400
 20
-426
 10
400
 20
-460
 10
371
 20
-460
 10
371
 20
-462
 10
400
 20
-462
 10
400
 20
-496
 10
371
 20
-496
 10
371
 20
-498
 10
400
 20
-498
 10
400
 20
-532
 10
402
 20
-532
 10
402
 20
-498
 10
431
 20
-498
 10
431
 20
-496
 10
402
 20
-496
 10
402
 20
-462
 10
431
 20
-462
 10
431
 20
-460
 10
402
 20
-460
 10
402
 20
-426
 10
400
 20
-426
  0
LINE
  5
1D8
100
AcDbEntity
  8
vikna_dveri
  6
ByLayer
 62
  256
370
   -1
100
AcDbLine
 10
355
 20
-545
 11
447
 21
-545
  0
LWPOLYLINE
  5
1D9
100
AcDbEntity
  8
vikna_dveri
  6
ByLayer
 62
  256
370
   -1
100
AcDbPolyline
 90
    4
 70
    1
 43
0
 10
355
 20
-542
 10
447
 20
-542
 10
447
 20
-548
 10
355
 20
-548
  0
LWPOLYLINE
  5
1DA
100
AcDbEntity
  8
styny
  6
ByLayer
 62
  256
370
   -1
100
AcDbPolyline
 90
   12
 70
    0
 43
0
 10
441
 20
-412.9999999999995
 10
441
 20
-542
 10
447
 20
-542
 10
447
 20
-548
 10
445
 20
-547.9999999999994
 10
445
 20
-557
 10
357
 20
-557
 10
357
 20
-547.9999999999995
 10
355
 20
-548
 10
355
 20
-542
 10
361
 20
-542
 10
361
 20
-412.9999999999995
  0
ARC
  5
1DB
100
AcDbEntity
  8
styny
  6
ByLayer
 62
  256
370
   -1
100
AcDbCircle
 10
401
 20
-897.4999999999995
 40
162.5
100
AcDbArc
 50
75.74996730219641
 51
104.2500326978036
  0
ARC
  5
1DC
100
AcDbEntity
  8
styny
  6
ByLayer
 62
  256
370
   -1
100
AcDbCircle
 10
401
 20
-897.4999999999995
 40
187.4999999999995
100
AcDbArc
 50
75.74996730219635
 51
104.2500326978036
  0
LINE
  5
1DD
100
AcDbEntity
  8
styny
  6
ByLayer
 62
  256
370
   -1
100
AcDbLine
 10
354.846153846154
 20
-715.7692307692305
 11
361
 21
-739.9999999999995
  0
LINE
  5
1DE
100
AcDbEntity
  8
styny
  6
ByLayer
 62
  256
370
   -1
100
AcDbLine
 10
447.153846153846
 20
-715.7692307692305
 11
441
 21
-739.9999999999995
  0
LWPOLYLINE
  5
1DF
100
AcDbEntity
  8
vikna_dveri
  6
ByLayer
 62
  256
370
   -1
100
AcDbPolyline
 90
    4
 70
    1
 43
0
 10
371
 20
-859
 10
431
 20
-859
 10
431
 20
-753
 10
371
 20
-753
  0
LWPOLYLINE
  5
1E0
100
AcDbEntity
  8
vikna_dveri
  6
ByLayer
 62
  256
370
   -1
100
AcDbPolyline
 90
   21
 70
    0
 43
0
 10
400
 20
-753
 10
400
 20
-787
 10
371
 20
-787
 10
371
 20
-789
 10
400
 20
-789
 10
400
 20
-823
 10
371
 20
-823
 10
371
 20
-825
 10
400
 20
-825
 10
400
 20
-859
 10
402
 20
-859
 10
402
 20
-825
 10
431
 20
-825
 10
431
 20
-823
 10
402
 20
-823
 10
402
 20
-789
 10
431
 20
-789
 10
431
 20
-787
 10
402
 20
-787
 10
402
 20
-753
 10
400
 20
-753
  0
LINE
  5
1E1
100
AcDbEntity
  8
vikna_dveri
  6
ByLayer
 62
  256
370
   -1
100
AcDbLine
 10
355
 20
-872
 11
447
 21
-872
  0
LWPOLYLINE
  5
1E2
100
AcDbEntity
  8
vikna_dveri
  6
ByLayer
 62
  256
370
   -1
100
AcDbPolyline
 90
    4
 70
    1
 43
0
 10
355
 20
-869
 10
447
 20
-869
 10
447
 20
-875
 10
355
 20
-875
  0
LWPOLYLINE
  5
1E3
100
AcDbEntity
  8
styny
  6
ByLayer
 62
  256
370
   -1
100
AcDbPolyline
 90
   12
 70
    0
 43
0
 10
441
 20
-739.9999999999995
 10
441
 20
-869
 10
447
 20
-869
 10
447
 20
-875
 10
445
 20
-874.9999999999994
 10
445
 20
-884
 10
357
 20
-884
 10
357
 20
-874.9999999999995
 10
355
 20
-875
 10
355
 20
-869
 10
361
 20
-869
 10
361
 20
-739.9999999999995
  0
ARC
  5
1E4
100
AcDbEntity
  8
styny
  6
ByLayer
 62
  256
370
   -1
100
AcDbCircle
 10
642
 20
-570.4999999999995
 40
162.5
100
AcDbArc
 50
75.74996730219641
 51
104.2500326978036
  0
ARC
  5
1E5
100
AcDbEntity
  8
styny
  6
ByLayer
 62
  256
370
   -1
100
AcDbCircle
 10
642
 20
-570.4999999999995
 40
187.4999999999995
100
AcDbArc
 50
75.74996730219635
 51
104.2500326978036
  0
LINE
  5
1E6
100
AcDbEntity
  8
styny
  6
ByLayer
 62
  256
370
   -1
100
AcDbLine
 10
595.846153846154
 20
-388.7692307692305
 11
602
 21
-412.9999999999995
  0
LINE
  5
1E7
100
AcDbEntity
  8
styny
  6
ByLayer
 62
  256
370
   -1
100
AcDbLine
 10
688.153846153846
 20
-388.7692307692305
 11
682
 21
-412.9999999999995
  0
LWPOLYLINE
  5
1E8
100
AcDbEntity
  8
vikna_dveri
  6
ByLayer
 62
  256
370
   -1
100
AcDbPolyline
 90
    4
 70
    1
 43
0
 10
612
 20
-532
 10
672
 20
-532
 10
672
 20
-426
 10
612
 20
-426
  0
LWPOLYLINE
  5
1E9
100
AcDbEntity
  8
vikna_dveri
  6
ByLayer
 62
  256
370
   -1
100
AcDbPolyline
 90
   21
 70
    0
 43
0
 10
641
 20
-426
 10
641
 20
-460
 10
612
 20
-460
 10
612
 20
-462
 10
641
 20
-462
 10
641
 20
-496
 10
612
 20
-496
 10
612
 20
-498
 10
641
 20
-498
 10
641
 20
-532
 10
643
 20
-532
 10
643
 20
-498
 10
672
 20
-498
 10
672
 20
-496
 10
643
 20
-496
 10
643
 20
-462
 10
672
 20
-462
 10
672
 20
-460
 10
643
 20
-460
 10
643
 20
-426
 10
641
 20
-426
  0
LINE
  5
1EA
100
AcDbEntity
  8
vikna_dveri
  6
ByLayer
 62
  256
370
   -1
100
AcDbLine
 10
596
 20
-545
 11
688
 21
-545
  0
LWPOLYLINE
  5
1EB
100
AcDbEntity
  8
vikna_dveri
  6
ByLayer
 62
  256
370
   -1
100
AcDbPolyline
 90
    4
 70
    1
 43
0
 10
596
 20
-542
 10
688
 20
-542
 10
688
 20
-548
 10
596
 20
-548
  0
LWPOLYLINE
  5
1EC
100
AcDbEntity
  8
styny
  6
ByLayer
 62
  256
370
   -1
100
AcDbPolyline
 90
   12
 70
    0
 43
0
 10
682
 20
-412.9999999999995
 10
682
 20
-542
 10
688
 20
-542
 10
688
 20
-548
 10
686
 20
-547.9999999999994
 10
686
 20
-557
 10
598
 20
-557
 10
598
 20
-547.9999999999995
 10
596
 20
-548
 10
596
 20
-542
 10
602
 20
-542
 10
602
 20
-412.9999999999995
  0
ARC
  5
1ED
100
AcDbEntity
  8
styny
  6
ByLayer
 62
  256
370
   -1
100
AcDbCircle
 10
642
 20
-897.4999999999995
 40
162.5
100
AcDbArc
 50
75.74996730219641
 51
104.2500326978036
  0
ARC
  5
1EE
100
AcDbEntity
  8
styny
  6
ByLayer
 62
  256
370
   -1
100
AcDbCircle
 10
642
 20
-897.4999999999995
 40
187.4999999999995
100
AcDbArc
 50
75.74996730219635
 51
104.2500326978036
  0
LINE
  5
1EF
100
AcDbEntity
  8
styny
  6
ByLayer
 62
  256
370
   -1
100
AcDbLine
 10
595.846153846154
 20
-715.7692307692305
 11
602
 21
-739.9999999999995
  0
LINE
  5
1F0
100
AcDbEntity
  8
styny
  6
ByLayer
 62
  256
370
   -1
100
AcDbLine
 10
688.153846153846
 20
-715.7692307692305
 11
682
 21
-739.9999999999995
  0
LWPOLYLINE
  5
1F1
100
AcDbEntity
  8
vikna_dveri
  6
ByLayer
 62
  256
370
   -1
100
AcDbPolyline
 90
    4
 70
    1
 43
0
 10
612
 20
-859
 10
672
 20
-859
 10
672
 20
-753
 10
612
 20
-753
  0
LWPOLYLINE
  5
1F2
100
AcDbEntity
  8
vikna_dveri
  6
ByLayer
 62
  256
370
   -1
100
AcDbPolyline
 90
   21
 70
    0
 43
0
 10
641
 20
-753
 10
641
 20
-787
 10
612
 20
-787
 10
612
 20
-789
 10
641
 20
-789
 10
641
 20
-823
 10
612
 20
-823
 10
612
 20
-825
 10
641
 20
-825
 10
641
 20
-859
 10
643
 20
-859
 10
643
 20
-825
 10
672
 20
-825
 10
672
 20
-823
 10
643
 20
-823
 10
643
 20
-789
 10
672
 20
-789
 10
672
 20
-787
 10
643
 20
-787
 10
643
 20
-753
 10
641
 20
-753
  0
LINE
  5
1F3
100
AcDbEntity
  8
vikna_dveri
  6
ByLayer
 62
  256
370
   -1
100
AcDbLine
 10
596
 20
-872
 11
688
 21
-872
  0
LWPOLYLINE
  5
1F4
100
AcDbEntity
  8
vikna_dveri
  6
ByLayer
 62
  256
370
   -1
100
AcDbPolyline
 90
    4
 70
    1
 43
0
 10
596
 20
-869
 10
688
 20
-869
 10
688
 20
-875
 10
596
 20
-875
  0
LWPOLYLINE
  5
1F5
100
AcDbEntity
  8
styny
  6
ByLayer
 62
  256
370
   -1
100
AcDbPolyline
 90
   12
 70
    0
 43
0
 10
682
 20
-739.9999999999995
 10
682
 20
-869
 10
688
 20
-869
 10
688
 20
-875
 10
686
 20
-874.9999999999994
 10
686
 20
-884
 10
598
 20
-884
 10
598
 20
-874.9999999999995
 10
596
 20
-875
 10
596
 20
-869
 10
602
 20
-869
 10
602
 20
-739.9999999999995
  0
ARC
  5
1F6
100
AcDbEntity
  8
styny
  6
ByLayer
 62
  256
370
   -1
100
AcDbCircle
 10
882
 20
-570.4999999999995
 40
162.5
100
AcDbArc
 50
75.74996730219641
 51
104.2500326978036
  0
ARC
  5
1F7
100
AcDbEntity
  8
styny
  6
ByLayer
 62
  256
370
   -1
100
AcDbCircle
 10
882
 20
-570.4999999999995
 40
187.4999999999995
100
AcDbArc
 50
75.74996730219635
 51
104.2500326978036
  0
LINE
  5
1F8
100
AcDbEntity
  8
styny
  6
ByLayer
 62
  256
370
   -1
100
AcDbLine
 10
835.846153846154
 20
-388.7692307692305
 11
842
 21
-412.9999999999995
  0
LINE
  5
1F9
100
AcDbEntity
  8
styny
  6
ByLayer
 62
  256
370
   -1
100
AcDbLine
 10
928.153846153846
 20
-388.7692307692305
 11
922
 21
-412.9999999999995
  0
LWPOLYLINE
  5
1FA
100
AcDbEntity
  8
vikna_dveri
  6
ByLayer
 62
  256
370
   -1
100
AcDbPolyline
 90
    4
 70
    1
 43
0
 10
852
 20
-532
 10
912
 20
-532
 10
912
 20
-426
 10
852
 20
-426
  0
LWPOLYLINE
  5
1FB
100
AcDbEntity
  8
vikna_dveri
  6
ByLayer
 62
  256
370
   -1
100
AcDbPolyline
 90
   21
 70
    0
 43
0
 10
881
 20
-426
 10
881
 20
-460
 10
852
 20
-460
 10
852
 20
-462
 10
881
 20
-462
 10
881
 20
-496
 10
852
 20
-496
 10
852
 20
-498
 10
881
 20
-498
 10
881
 20
-532
 10
883
 20
-532
 10
883
 20
-498
 10
912
 20
-498
 10
912
 20
-496
 10
883
 20
-496
 10
883
 20
-462
 10
912
 20
-462
 10
912
 20
-460
 10
883
 20
-460
 10
883
 20
-426
 10
881
 20
-426
  0
LINE
  5
1FC
100
AcDbEntity
  8
vikna_dveri
  6
ByLayer
 62
  256
370
   -1
100
AcDbLine
 10
836
 20
-545
 11
928
 21
-545
  0
LWPOLYLINE
  5
1FD
100
AcDbEntity
  8
vikna_dveri
  6
ByLayer
 62
  256
370
   -1
100
AcDbPolyline
 90
    4
 70
    1
 43
0
 10
836
 20
-542
 10
928
 20
-542
 10
928
 20
-548
 10
836
 20
-548
  0
LWPOLYLINE
  5
1FE
100
AcDbEntity
  8
styny
  6
ByLayer
 62
  256
370
   -1
100
AcDbPolyline
 90
   12
 70
    0
 43
0
 10
922
 20
-412.9999999999995
 10
922
 20
-542
 10
928
 20
-542
 10
928
 20
-548
 10
926
 20
-547.9999999999994
 10
926
 20
-557
 10
838
 20
-557
 10
838
 20
-547.9999999999995
 10
836
 20
-548
 10
836
 20
-542
 10
842
 20
-542
 10
842
 20
-412.9999999999995
  0
ARC
  5
1FF
100
AcDbEntity
  8
styny
  6
ByLayer
 62
  256
370
   -1
100
AcDbCircle
 10
882
 20
-897.4999999999995
 40
162.5
100
AcDbArc
 50
75.74996730219641
 51
104.2500326978036
  0
ARC
  5
200
100
AcDbEntity
  8
styny
  6
ByLayer
 62
  256
370
   -1
100
AcDbCircle
 10
882
 20
-897.4999999999995
 40
187.4999999999995
100
AcDbArc
 50
75.74996730219635
 51
104.2500326978036
  0
LINE
  5
201
100
AcDbEntity
  8
styny
  6
ByLayer
 62
  256
370
   -1
100
AcDbLine
 10
835.846153846154
 20
-715.7692307692305
 11
842
 21
-739.9999999999995
  0
LINE
  5
202
100
AcDbEntity
  8
styny
  6
ByLayer
 62
  256
370
   -1
100
AcDbLine
 10
928.153846153846
 20
-715.7692307692305
 11
922
 21
-739.9999999999995
  0
LWPOLYLINE
  5
203
100
AcDbEntity
  8
vikna_dveri
  6
ByLayer
 62
  256
370
   -1
100
AcDbPolyline
 90
    4
 70
    1
 43
0
 10
852
 20
-859
 10
912
 20
-859
 10
912
 20
-753
 10
852
 20
-753
  0
LWPOLYLINE
  5
204
100
AcDbEntity
  8
vikna_dveri
  6
ByLayer
 62
  256
370
   -1
100
AcDbPolyline
 90
   21
 70
    0
 43
0
 10
881
 20
-753
 10
881
 20
-787
 10
852
 20
-787
 10
852
 20
-789
 10
881
 20
-789
 10
881
 20
-823
 10
852
 20
-823
 10
852
 20
-825
 10
881
 20
-825
 10
881
 20
-859
 10
883
 20
-859
 10
883
 20
-825
 10
912
 20
-825
 10
912
 20
-823
 10
883
 20
-823
 10
883
 20
-789
 10
912
 20
-789
 10
912
 20
-787
 10
883
 20
-787
 10
883
 20
-753
 10
881
 20
-753
  0
LINE
  5
205
100
AcDbEntity
  8
vikna_dveri
  6
ByLayer
 62
  256
370
   -1
100
AcDbLine
 10
836
 20
-872
 11
928
 21
-872
  0
LWPOLYLINE
  5
206
100
AcDbEntity
  8
vikna_dveri
  6
ByLayer
 62
  256
370
   -1
100
AcDbPolyline
 90
    4
 70
    1
 43
0
 10
836
 20
-869
 10
928
 20
-869
 10
928
 20
-875
 10
836
 20
-875
  0
LWPOLYLINE
  5
207
100
AcDbEntity
  8
styny
  6
ByLayer
 62
  256
370
   -1
100
AcDbPolyline
 90
   12
 70
    0
 43
0
 10
922
 20
-739.9999999999995
 10
922
 20
-869
 10
928
 20
-869
 10
928
 20
-875
 10
926
 20
-874.9999999999994
 10
926
 20
-884
 10
838
 20
-884
 10
838
 20
-874.9999999999995
 10
836
 20
-875
 10
836
 20
-869
 10
842
 20
-869
 10
842
 20
-739.9999999999995
  0
LINE
  5
208
100
AcDbEntity
  8
styny
  6
ByLayer
 62
  256
370
   -1
100
AcDbLine
 10
227
 20
-960
 11
227
 21
-700
  0
LINE
  5
209
100
AcDbEntity
  8
styny
  6
ByLayer
 62
  256
370
   -1
100
AcDbLine
 10
77
 20
-960
 11
77
 21
-700
  0
LINE
  5
20A
100
AcDbEntity
  8
styny
  6
ByLayer
 62
  256
370
   -1
100
AcDbLine
 10
233.1538461538462
 20
-675.7692307692309
 11
227
 21
-700
  0
ARC
  5
20B
100
AcDbEntity
  8
styny
  6
ByLayer
 62
  256
370
   -1
100
AcDbCircle
 10
152
 20
-995.3124999999999
 40
304.6874999999999
100
AcDbArc
 50
75.7499673021964
 51
104.2500326978036
  0
LINE
  5
20C
100
AcDbEntity
  8
styny
  6
ByLayer
 62
  256
370
   -1
100
AcDbLine
 10
70.84615384615381
 20
-675.7692307692309
 11
77
 21
-700
  0
ARC
  5
20D
100
AcDbEntity
  8
styny
  6
ByLayer
 62
  256
370
   -1
100
AcDbCircle
 10
151.9999999999999
 20
-995.3124999999998
 40
329.6874999999995
100
AcDbArc
 50
75.74996730219637
 51
104.2500326978036
  0
ENDSEC
  0
SECTION
  2
OBJECTS
  0
DICTIONARY
  5
C
330
0
100
AcDbDictionary
281
    1
  3
ACAD_GROUP
350
D
  0
DICTIONARY
  5
D
330
C
100
AcDbDictionary
281
    1
  0
ENDSEC
  0
EOF
