999
dxfrw 0.6.3
  0
SECTION
  2
HEADER
  9
$ACADVER
  1
AC1021
  9
$DWGCODEPAGE
  3
ANSI_1252
  9
$INSBASE
 10
0
 20
0
 30
0
  9
$EXTMIN
 10
-14.5
 20
-20
 30
0
  9
$EXTMAX
 10
119.0000000000002
 20
93.5
 30
0
  9
$LIMMIN
 10
0
 20
0
  9
$LIMMAX
 10
420
 20
297
  9
$ORTHOMODE
 70
    0
  9
$REGENMODE
 70
    1
  9
$FILLMODE
 70
    1
  9
$QTEXTMODE
 70
    0
  9
$MIRRTEXT
 70
    0
  9
$LTSCALE
 40
1
  9
$ATTMODE
 70
    0
  9
$TEXTSIZE
 40
2.5
  9
$TRACEWID
 40
15.68
  9
$TEXTSTYLE
  7
STANDARD
  9
$CLAYER
  8
metal
  9
$CELTYPE
  6
BYLAYER
  9
$CECOLOR
 62
  256
  9
$CELTSCALE
 40
1
  9
$DISPSILH
 70
    0
  9
$DIMSCALE
 40
1
  9
$DIMASZ
 40
3
  9
$DIMEXO
 40
1
  9
$DIMDLI
 40
3.75
  9
$DIMRND
 40
0
  9
$DIMDLE
 40
0
  9
$DIMEXE
 40
2
  9
$DIMTP
 40
0
  9
$DIMTM
 40
0
  9
$DIMTXT
 40
3.5
  9
$DIMCEN
 40
2.5
  9
$DIMTSZ
 40
0
  9
$DIMTOL
 70
    0
  9
$DIMLIM
 70
    0
  9
$DIMTIH
 70
    0
  9
$DIMTOH
 70
    0
  9
$DIMSE1
 70
    0
  9
$DIMSE2
 70
    0
  9
$DIMTAD
 70
    1
  9
$DIMZIN
 70
    8
  9
$DIMBLK
  1

  9
$DIMASO
 70
    1
  9
$DIMSHO
 70
    1
  9
$DIMPOST
  1

  9
$DIMAPOST
  1

  9
$DIMALT
 70
    0
  9
$DIMALTD
 70
    3
  9
$DIMALTF
 40
0.03937
  9
$DIMLFAC
 40
1
  9
$DIMTOFL
 70
    1
  9
$DIMTVP
 40
0
  9
$DIMTIX
 70
    0
  9
$DIMSOXD
 70
    0
  9
$DIMSAH
 70
    0
  9
$DIMBLK1
  1

  9
$DIMBLK2
  1

  9
$DIMSTYLE
  2
STANDARD
  9
$DIMCLRD
 70
    0
  9
$DIMCLRE
 70
    0
  9
$DIMCLRT
 70
    0
  9
$DIMTFAC
 40
1
  9
$DIMGAP
 40
1
  9
$DIMJUST
 70
    0
  9
$DIMSD1
 70
    0
  9
$DIMSD2
 70
    0
  9
$DIMTOLJ
 70
    0
  9
$DIMTZIN
 70
    8
  9
$DIMALTZ
 70
    0
  9
$DIMALTTZ
 70
    0
  9
$DIMUPT
 70
    0
  9
$DIMDEC
 70
    1
  9
$DIMTDEC
 70
    2
  9
$DIMALTU
 70
    2
  9
$DIMALTTD
 70
    3
  9
$DIMTXSTY
  7
standard
  9
$DIMAUNIT
 70
    0
  9
$DIMADEC
 70
    0
  9
$DIMALTRND
 40
0
  9
$DIMAZIN
 70
    0
  9
$DIMDSEP
 70
   44
  9
$DIMATFIT
 70
    3
  9
$DIMFRAC
 70
    0
  9
$DIMLDRBLK
  1
STANDARD
  9
$DIMLUNIT
 70
    2
  9
$DIMLWD
 70
   -2
  9
$DIMLWE
 70
   -2
  9
$DIMTMOVE
 70
    0
  9
$DIMFXL
 40
1
  9
$DIMFXLON
 70
    0
  9
$DIMJOGANG
 40
0.7854
  9
$DIMTFILL
 70
    0
  9
$DIMTFILLCLR
 70
    0
  9
$DIMARCSYM
 70
    0
  9
$DIMLTYPE
  6

  9
$DIMLTEX1
  6

  9
$DIMLTEX2
  6

  9
$LUNITS
 70
    2
  9
$LUPREC
 70
    2
  9
$SKETCHINC
 40
1
  9
$FILLETRAD
 40
0
  9
$AUNITS
 70
    0
  9
$AUPREC
 70
    2
  9
$MENU
  1
.
  9
$ELEVATION
 40
0
  9
$PELEVATION
 40
0
  9
$THICKNESS
 40
0
  9
$LIMCHECK
 70
    0
  9
$CHAMFERA
 40
0
  9
$CHAMFERB
 40
0
  9
$CHAMFERC
 40
0
  9
$CHAMFERD
 40
0
  9
$SKPOLY
 70
    0
  9
$USRTIMER
 70
    1
  9
$ANGBASE
 50
0
  9
$ANGDIR
 70
    0
  9
$PDMODE
 70
   34
  9
$PDSIZE
 40
0
  9
$PLINEWID
 40
0
  9
$SPLFRAME
 70
    0
  9
$SPLINETYPE
 70
    2
  9
$SPLINESEGS
 70
    8
  9
$HANDSEED
  5
20000
  9
$SURFTAB1
 70
    6
  9
$SURFTAB2
 70
    6
  9
$SURFTYPE
 70
    6
  9
$SURFU
 70
    6
  9
$SURFV
 70
    6
  9
$UCSBASE
  2

  9
$UCSNAME
  2

  9
$UCSORG
 10
0
 20
0
 30
0
  9
$UCSXDIR
 10
1
 20
0
 30
0
  9
$UCSYDIR
 10
0
 20
1
 30
0
  9
$UCSORTHOREF
  2

  9
$UCSORTHOVIEW
 70
    0
  9
$UCSORGTOP
 10
0
 20
0
 30
0
  9
$UCSORGBOTTOM
 10
0
 20
0
 30
0
  9
$UCSORGLEFT
 10
0
 20
0
 30
0
  9
$UCSORGRIGHT
 10
0
 20
0
 30
0
  9
$UCSORGFRONT
 10
0
 20
0
 30
0
  9
$UCSORGBACK
 10
0
 20
0
 30
0
  9
$PUCSBASE
  2

  9
$PUCSNAME
  2

  9
$PUCSORG
 10
0
 20
0
 30
0
  9
$PUCSXDIR
 10
1
 20
0
 30
0
  9
$PUCSYDIR
 10
0
 20
1
 30
0
  9
$PUCSORTHOREF
  2

  9
$PUCSORTHOVIEW
 70
    0
  9
$PUCSORGTOP
 10
0
 20
0
 30
0
  9
$PUCSORGBOTTOM
 10
0
 20
0
 30
0
  9
$PUCSORGLEFT
 10
0
 20
0
 30
0
  9
$PUCSORGRIGHT
 10
0
 20
0
 30
0
  9
$PUCSORGFRONT
 10
0
 20
0
 30
0
  9
$PUCSORGBACK
 10
0
 20
0
 30
0
  9
$USERI1
 70
    0
  9
$USERI2
 70
    0
  9
$USERI3
 70
    0
  9
$USERI4
 70
    0
  9
$USERI5
 70
    0
  9
$USERR1
 40
0
  9
$USERR2
 40
0
  9
$USERR3
 40
0
  9
$USERR4
 40
0
  9
$USERR5
 40
0
  9
$WORLDVIEW
 70
    1
  9
$SHADEDGE
 70
    3
  9
$SHADEDIF
 70
   70
  9
$TILEMODE
 70
    1
  9
$MAXACTVP
 70
   64
  9
$PINSBASE
 10
10.59564102564103
 20
8.181025641025641
 30
0
  9
$PLIMCHECK
 70
    0
  9
$PEXTMIN
 10
0
 20
0
 30
0
  9
$PEXTMAX
 10
0
 20
0
 30
0
  9
$GRIDMODE
 70
    1
  9
$SNAPSTYLE
 70
    0
  9
$GRIDUNIT
 10
0
 20
0
  9
$PLIMMIN
 10
0
 20
0
  9
$PLIMMAX
 10
29.7
 20
21
  9
$UNITMODE
 70
    0
  9
$VISRETAIN
 70
    1
  9
$PLINEGEN
 70
    0
  9
$PSLTSCALE
 70
    1
  9
$TREEDEPTH
 70
 3020
  9
$CMLSTYLE
  2
Standard
  9
$CMLJUST
 70
    0
  9
$CMLSCALE
 40
20
  9
$PROXYGRAPHICS
 70
    1
  9
$MEASUREMENT
 70
    1
  9
$CELWEIGHT
370
   -1
  9
$ENDCAPS
280
    0
  9
$JOINSTYLE
280
    0
  9
$LWDISPLAY
290
    0
  9
$INSUNITS
 70
    5
  9
$HYPERLINKBASE
  1

  9
$STYLESHEET
  1

  9
$XEDIT
290
    1
  9
$CEPSNTYPE
380
    0
  9
$PSTYLEMODE
290
    1
  9
$EXTNAMES
290
    1
  9
$PSVPSCALE
 40
0.1394871337067869
  9
$OLESTARTUP
290
    0
  9
$SORTENTS
280
  127
  9
$INDEXCTL
280
    0
  9
$HIDETEXT
280
    1
  9
$XCLIPFRAME
290
    0
  9
$HALOGAP
280
    0
  9
$OBSCOLOR
 70
  257
  9
$OBSLTYPE
280
    0
  9
$INTERSECTIONDISPLAY
280
    0
  9
$INTERSECTIONCOLOR
 70
  257
  9
$DIMASSOC
280
    1
  9
$PROJECTNAME
  1

  9
$CAMERADISPLAY
290
    0
  9
$LENSLENGTH
 40
50
  9
$CAMERAHEIGHT
 40
0
  9
$STEPSPERSEC
 40
2
  9
$STEPSIZE
 40
50
  9
$3DDWFPREC
 40
2
  9
$PSOLWIDTH
 40
5
  9
$PSOLHEIGHT
 40
80
  9
$LOFTANG1
 40
1.570796326794897
  9
$LOFTANG2
 40
1.570796326794897
  9
$LOFTMAG1
 40
0
  9
$LOFTMAG2
 40
0
  9
$LOFTPARAM
 70
    7
  9
$LOFTNORMALS
280
    1
  9
$LATITUDE
 40
1
  9
$LONGITUDE
 40
1
  9
$NORTHDIRECTION
 40
0
  9
$TIMEZONE
 70
-8000
  9
$LIGHTGLYPHDISPLAY
280
    1
  9
$TILEMODELIGHTSYNCH
280
    1
  9
$SOLIDHIST
280
    1
  9
$SHOWHIST
280
    1
  9
$DWFFRAME
280
    2
  9
$DGNFRAME
280
    0
  9
$REALWORLDSCALE
290
    1
  9
$INTERFERECOLOR
 62
    1
  9
$CSHADOW
280
    0
  9
$SHADOWPLANELOCATION
 40
0
  0
ENDSEC
  0
SECTION
  2
CLASSES
  0
ENDSEC
  0
SECTION
  2
TABLES
  0
TABLE
  2
VPORT
  5
8
330
0
100
AcDbSymbolTable
 70
    1
  0
VPORT
  5
31
330
2
100
AcDbSymbolTableRecord
100
AcDbViewportTableRecord
  2
*ACTIVE
 70
    0
 10
0
 20
0
 11
1
 21
1
 12
84.10318559556787
 22
47.55367036011081
 13
0
 23
0
 14
10
 24
10
 15
10
 25
10
 16
0
 26
0
 36
1
 17
0
 27
0
 37
0
 40
116.6440443213296
 41
1.987870619946092
 42
50
 43
0
 44
0
 50
0
 51
0
 71
    0
 72
  100
 73
    1
 74
    3
 75
    0
 76
    1
 77
    0
 78
    0
281
    0
 65
    1
110
0
120
0
130
0
111
1
121
0
131
0
112
0
122
1
132
0
 79
    0
146
0
348
10020
 60
    7
 61
    5
292
1
282
    1
141
0
142
0
 63
  250
421
3358443
  0
ENDTAB
  0
TABLE
  2
LTYPE
  5
5
330
0
100
AcDbSymbolTable
 70
    4
  0
LTYPE
  5
14
330
5
100
AcDbSymbolTableRecord
100
AcDbLinetypeTableRecord
  2
ByBlock
 70
    0
  3

 72
   65
 73
    0
 40
0
  0
LTYPE
  5
15
330
5
100
AcDbSymbolTableRecord
100
AcDbLinetypeTableRecord
  2
ByLayer
 70
    0
  3

 72
   65
 73
    0
 40
0
  0
LTYPE
  5
16
330
5
100
AcDbSymbolTableRecord
100
AcDbLinetypeTableRecord
  2
Continuous
 70
    0
  3
Solid line
 72
   65
 73
    0
 40
0
  0
LTYPE
  5
32
330
5
100
AcDbSymbolTableRecord
100
AcDbLinetypeTableRecord
  2
DOT
 70
    0
  3
Dot . . . . . . . . . . . . . . . . . . . . . .
 72
   65
 73
    2
 40
6.35
 49
0
 74
    0
 49
-6.35
 74
    0
  0
LTYPE
  5
33
330
5
100
AcDbSymbolTableRecord
100
AcDbLinetypeTableRecord
  2
DOTTINY
 70
    0
  3
Dot (.15x) .....................................
 72
   65
 73
    2
 40
0.9525
 49
0
 74
    0
 49
-0.9525
 74
    0
  0
LTYPE
  5
34
330
5
100
AcDbSymbolTableRecord
100
AcDbLinetypeTableRecord
  2
DOT2
 70
    0
  3
Dot (.5x) .....................................
 72
   65
 73
    2
 40
3.175
 49
0
 74
    0
 49
-3.175
 74
    0
  0
LTYPE
  5
35
330
5
100
AcDbSymbolTableRecord
100
AcDbLinetypeTableRecord
  2
DOTX2
 70
    0
  3
Dot (2x) .  .  .  .  .  .  .  .  .  .  .  .  .
 72
   65
 73
    2
 40
12.7
 49
0
 74
    0
 49
-12.7
 74
    0
  0
LTYPE
  5
36
330
5
100
AcDbSymbolTableRecord
100
AcDbLinetypeTableRecord
  2
DASHED
 70
    0
  3
Dashed _ _ _ _ _ _ _ _ _ _ _ _ _ _ _ _ _
 72
   65
 73
    2
 40
19.05
 49
12.7
 74
    0
 49
-6.35
 74
    0
  0
LTYPE
  5
37
330
5
100
AcDbSymbolTableRecord
100
AcDbLinetypeTableRecord
  2
DASHEDTINY
 70
    0
  3
Dashed (.15x) _ _ _ _ _ _ _ _ _ _ _ _ _ _ _ _ _
 72
   65
 73
    2
 40
2.8575
 49
1.905
 74
    0
 49
-0.9525
 74
    0
  0
LTYPE
  5
38
330
5
100
AcDbSymbolTableRecord
100
AcDbLinetypeTableRecord
  2
DASHED2
 70
    0
  3
Dashed (.5x) _ _ _ _ _ _ _ _ _ _ _ _ _ _ _ _ _
 72
   65
 73
    2
 40
9.524999999999999
 49
6.35
 74
    0
 49
-3.175
 74
    0
  0
LTYPE
  5
39
330
5
100
AcDbSymbolTableRecord
100
AcDbLinetypeTableRecord
  2
DASHEDX2
 70
    0
  3
Dashed (2x) ____  ____  ____  ____  ____  ___
 72
   65
 73
    2
 40
38.09999999999999
 49
25.4
 74
    0
 49
-12.7
 74
    0
  0
LTYPE
  5
3A
330
5
100
AcDbSymbolTableRecord
100
AcDbLinetypeTableRecord
  2
DASHDOT
 70
    0
  3
Dash dot __ . __ . __ . __ . __ . __ . __ . __
 72
   65
 73
    4
 40
25.4
 49
12.7
 74
    0
 49
-6.35
 74
    0
 49
0
 74
    0
 49
-6.35
 74
    0
  0
LTYPE
  5
3B
330
5
100
AcDbSymbolTableRecord
100
AcDbLinetypeTableRecord
  2
DASHDOTTINY
 70
    0
  3
Dash dot (.15x) _._._._._._._._._._._._._._._.
 72
   65
 73
    4
 40
3.81
 49
1.905
 74
    0
 49
-0.9525
 74
    0
 49
0
 74
    0
 49
-0.9525
 74
    0
  0
LTYPE
  5
3C
330
5
100
AcDbSymbolTableRecord
100
AcDbLinetypeTableRecord
  2
DASHDOT2
 70
    0
  3
Dash dot (.5x) _._._._._._._._._._._._._._._.
 72
   65
 73
    4
 40
12.7
 49
6.35
 74
    0
 49
-3.175
 74
    0
 49
0
 74
    0
 49
-3.175
 74
    0
  0
LTYPE
  5
3D
330
5
100
AcDbSymbolTableRecord
100
AcDbLinetypeTableRecord
  2
DASHDOTX2
 70
    0
  3
Dash dot (2x) ____  .  ____  .  ____  .  ___
 72
   65
 73
    4
 40
50.8
 49
25.4
 74
    0
 49
-12.7
 74
    0
 49
0
 74
    0
 49
-12.7
 74
    0
  0
LTYPE
  5
3E
330
5
100
AcDbSymbolTableRecord
100
AcDbLinetypeTableRecord
  2
DIVIDE
 70
    0
  3
Divide ____ . . ____ . . ____ . . ____ . . ____
 72
   65
 73
    6
 40
31.75
 49
12.7
 74
    0
 49
-6.35
 74
    0
 49
0
 74
    0
 49
-6.35
 74
    0
 49
0
 74
    0
 49
-6.35
 74
    0
  0
LTYPE
  5
3F
330
5
100
AcDbSymbolTableRecord
100
AcDbLinetypeTableRecord
  2
DIVIDETINY
 70
    0
  3
Divide (.15x) __..__..__..__..__..__..__..__.._
 72
   65
 73
    6
 40
4.7625
 49
1.905
 74
    0
 49
-0.9525
 74
    0
 49
0
 74
    0
 49
-0.9525
 74
    0
 49
0
 74
    0
 49
-0.9525
 74
    0
  0
LTYPE
  5
40
330
5
100
AcDbSymbolTableRecord
100
AcDbLinetypeTableRecord
  2
DIVIDE2
 70
    0
  3
Divide (.5x) __..__..__..__..__..__..__..__.._
 72
   65
 73
    6
 40
15.875
 49
6.35
 74
    0
 49
-3.175
 74
    0
 49
0
 74
    0
 49
-3.175
 74
    0
 49
0
 74
    0
 49
-3.175
 74
    0
  0
LTYPE
  5
41
330
5
100
AcDbSymbolTableRecord
100
AcDbLinetypeTableRecord
  2
DIVIDEX2
 70
    0
  3
Divide (2x) ________  .  .  ________  .  .  _
 72
   65
 73
    6
 40
63.5
 49
25.4
 74
    0
 49
-12.7
 74
    0
 49
0
 74
    0
 49
-12.7
 74
    0
 49
0
 74
    0
 49
-12.7
 74
    0
  0
LTYPE
  5
42
330
5
100
AcDbSymbolTableRecord
100
AcDbLinetypeTableRecord
  2
BORDER
 70
    0
  3
Border __ __ . __ __ . __ __ . __ __ . __ __ .
 72
   65
 73
    6
 40
44.45
 49
12.7
 74
    0
 49
-6.35
 74
    0
 49
12.7
 74
    0
 49
-6.35
 74
    0
 49
0
 74
    0
 49
-6.35
 74
    0
  0
LTYPE
  5
43
330
5
100
AcDbSymbolTableRecord
100
AcDbLinetypeTableRecord
  2
BORDERTINY
 70
    0
  3
Border (.15x) __.__.__.__.__.__.__.__.__.__.__.
 72
   65
 73
    6
 40
6.6675
 49
1.905
 74
    0
 49
-0.9525
 74
    0
 49
1.905
 74
    0
 49
-0.9525
 74
    0
 49
0
 74
    0
 49
-0.9525
 74
    0
  0
LTYPE
  5
44
330
5
100
AcDbSymbolTableRecord
100
AcDbLinetypeTableRecord
  2
BORDER2
 70
    0
  3
Border (.5x) __.__.__.__.__.__.__.__.__.__.__.
 72
   65
 73
    6
 40
22.225
 49
6.35
 74
    0
 49
-3.175
 74
    0
 49
6.35
 74
    0
 49
-3.175
 74
    0
 49
0
 74
    0
 49
-3.175
 74
    0
  0
LTYPE
  5
45
330
5
100
AcDbSymbolTableRecord
100
AcDbLinetypeTableRecord
  2
BORDERX2
 70
    0
  3
Border (2x) ____  ____  .  ____  ____  .  ___
 72
   65
 73
    6
 40
88.89999999999999
 49
25.4
 74
    0
 49
-12.7
 74
    0
 49
25.4
 74
    0
 49
-12.7
 74
    0
 49
0
 74
    0
 49
-12.7
 74
    0
  0
LTYPE
  5
46
330
5
100
AcDbSymbolTableRecord
100
AcDbLinetypeTableRecord
  2
CENTER
 70
    0
  3
Center ____ _ ____ _ ____ _ ____ _ ____ _ ____
 72
   65
 73
    4
 40
50.8
 49
31.75
 74
    0
 49
-6.35
 74
    0
 49
6.35
 74
    0
 49
-6.35
 74
    0
  0
LTYPE
  5
47
330
5
100
AcDbSymbolTableRecord
100
AcDbLinetypeTableRecord
  2
CENTERTINY
 70
    0
  3
Center (.15x) ___ _ ___ _ ___ _ ___ _ ___ _ ___
 72
   65
 73
    4
 40
7.619999999999999
 49
4.7625
 74
    0
 49
-0.9525
 74
    0
 49
0.9525
 74
    0
 49
-0.9525
 74
    0
  0
LTYPE
  5
48
330
5
100
AcDbSymbolTableRecord
100
AcDbLinetypeTableRecord
  2
CENTER2
 70
    0
  3
Center (.5x) ___ _ ___ _ ___ _ ___ _ ___ _ ___
 72
   65
 73
    4
 40
28.575
 49
19.05
 74
    0
 49
-3.175
 74
    0
 49
3.175
 74
    0
 49
-3.175
 74
    0
  0
LTYPE
  5
49
330
5
100
AcDbSymbolTableRecord
100
AcDbLinetypeTableRecord
  2
CENTERX2
 70
    0
  3
Center (2x) ________  __  ________  __  _____
 72
   65
 73
    4
 40
101.6
 49
63.5
 74
    0
 49
-12.7
 74
    0
 49
12.7
 74
    0
 49
-12.7
 74
    0
  0
ENDTAB
  0
TABLE
  2
LAYER
  5
2
330
0
100
AcDbSymbolTable
 70
    1
  0
LAYER
  5
10
330
2
100
AcDbSymbolTableRecord
100
AcDbLayerTableRecord
  2
0
 70
    0
 62
    7
  6
CONTINUOUS
370
   -3
390
F
1001
LibreCad
1070
    1
  0
LAYER
  5
4A
330
2
100
AcDbSymbolTableRecord
100
AcDbLayerTableRecord
  2
concreet
 70
    0
 62
    6
  6
CONTINUOUS
370
   50
390
F
  0
LAYER
  5
4B
330
2
100
AcDbSymbolTableRecord
100
AcDbLayerTableRecord
  2
fasad
 70
    0
 62
    3
  6
CONTINUOUS
370
   50
390
F
  0
LAYER
  5
4C
330
2
100
AcDbSymbolTableRecord
100
AcDbLayerTableRecord
  2
metal
 70
    0
 62
    5
  6
CONTINUOUS
370
   50
390
F
  0
LAYER
  5
4D
330
2
100
AcDbSymbolTableRecord
100
AcDbLayerTableRecord
  2
rozmir
 70
    0
 62
    4
  6
CONTINUOUS
370
   13
390
F
  0
LAYER
  5
4E
330
2
100
AcDbSymbolTableRecord
100
AcDbLayerTableRecord
  2
rozmir_zagib
 70
    0
 62
  136
420
32896
  6
CONTINUOUS
370
   13
390
F
  0
LAYER
  5
4F
330
2
100
AcDbSymbolTableRecord
100
AcDbLayerTableRecord
  2
wall
 70
    0
 62
   56
420
8421376
  6
CONTINUOUS
370
   50
390
F
  0
ENDTAB
  0
TABLE
  2
STYLE
  5
3
330
0
100
AcDbSymbolTable
 70
    3
  0
STYLE
  5
50
330
2
100
AcDbSymbolTableRecord
100
AcDbTextStyleTableRecord
  2
cyrillic_ii
 70
    0
 40
0
 41
1
 50
0
 71
    0
 42
1
  3
cyrillic_ii
  4

  0
STYLE
  5
51
330
2
100
AcDbSymbolTableRecord
100
AcDbTextStyleTableRecord
  2
Standard
 70
    0
 40
0
 41
1
 50
0
 71
    0
 42
1
  3
txt
  4

  0
ENDTAB
  0
TABLE
  2
VIEW
  5
6
330
0
100
AcDbSymbolTable
 70
    0
  0
ENDTAB
  0
TABLE
  2
UCS
  5
7
330
0
100
AcDbSymbolTable
 70
    0
  0
ENDTAB
  0
TABLE
  2
APPID
  5
9
330
0
100
AcDbSymbolTable
 70
    1
  0
APPID
  5
12
330
9
100
AcDbSymbolTableRecord
100
AcDbRegAppTableRecord
  2
ACAD
 70
    0
  0
APPID
  5
52
330
9
100
AcDbSymbolTableRecord
100
AcDbRegAppTableRecord
  2
LibreCad
 70
    0
  0
ENDTAB
  0
TABLE
  2
DIMSTYLE
  5
A
330
0
100
AcDbSymbolTable
 70
    1
100
AcDbDimStyleTable
 71
    1
  0
DIMSTYLE
105
53
330
A
100
AcDbSymbolTableRecord
100
AcDbDimStyleTableRecord
  2
Standard
 70
    0
 40
1
 41
3
 42
1
 43
0.38
 44
2
 45
0
 46
0
 47
0
 48
0
 49
1
140
3.5
141
0.09
142
0
143
25.4
144
1
145
0
146
1
147
1
148
0
 71
    0
 72
    0
 73
    0
 74
    1
 75
    0
 76
    0
 77
    0
 78
    8
 79
    0
170
    0
171
    2
172
    0
173
    0
174
    0
175
    0
176
    0
177
    0
178
    0
179
    0
271
    1
272
    4
273
    2
274
    2
275
    0
276
    0
277
    2
278
   44
279
    0
280
    0
281
    0
282
    0
283
    1
284
    0
285
    0
286
    0
288
    0
289
    3
340
standard
341

371
   -2
372
   -2
  0
ENDTAB
  0
TABLE
  2
BLOCK_RECORD
  5
1
330
0
100
AcDbSymbolTable
 70
    2
  0
BLOCK_RECORD
  5
1F
330
1
100
AcDbSymbolTableRecord
100
AcDbBlockTableRecord
  2
*Model_Space
 70
    0
280
    1
281
    0
  0
BLOCK_RECORD
  5
1E
330
1
100
AcDbSymbolTableRecord
100
AcDbBlockTableRecord
  2
*Paper_Space
 70
    0
280
    1
281
    0
  0
BLOCK_RECORD
  5
54
330
1
100
AcDbSymbolTableRecord
100
AcDbBlockTableRecord
  2
*D19
 70
    0
280
    1
281
    0
  0
BLOCK_RECORD
  5
57
330
1
100
AcDbSymbolTableRecord
100
AcDbBlockTableRecord
  2
*D27
 70
    0
280
    1
281
    0
  0
BLOCK_RECORD
  5
5A
330
1
100
AcDbSymbolTableRecord
100
AcDbBlockTableRecord
  2
*D16
 70
    0
280
    1
281
    0
  0
BLOCK_RECORD
  5
5D
330
1
100
AcDbSymbolTableRecord
100
AcDbBlockTableRecord
  2
*D24
 70
    0
280
    1
281
    0
  0
BLOCK_RECORD
  5
60
330
1
100
AcDbSymbolTableRecord
100
AcDbBlockTableRecord
  2
*D25
 70
    0
280
    1
281
    0
  0
BLOCK_RECORD
  5
63
330
1
100
AcDbSymbolTableRecord
100
AcDbBlockTableRecord
  2
*D21
 70
    0
280
    1
281
    0
  0
BLOCK_RECORD
  5
66
330
1
100
AcDbSymbolTableRecord
100
AcDbBlockTableRecord
  2
*D8
 70
    0
280
    1
281
    0
  0
BLOCK_RECORD
  5
69
330
1
100
AcDbSymbolTableRecord
100
AcDbBlockTableRecord
  2
*D11
 70
    0
280
    1
281
    0
  0
BLOCK_RECORD
  5
6C
330
1
100
AcDbSymbolTableRecord
100
AcDbBlockTableRecord
  2
*D23
 70
    0
280
    1
281
    0
  0
BLOCK_RECORD
  5
6F
330
1
100
AcDbSymbolTableRecord
100
AcDbBlockTableRecord
  2
*D3
 70
    0
280
    1
281
    0
  0
BLOCK_RECORD
  5
72
330
1
100
AcDbSymbolTableRecord
100
AcDbBlockTableRecord
  2
*D17
 70
    0
280
    1
281
    0
  0
BLOCK_RECORD
  5
75
330
1
100
AcDbSymbolTableRecord
100
AcDbBlockTableRecord
  2
*D29
 70
    0
280
    1
281
    0
  0
BLOCK_RECORD
  5
78
330
1
100
AcDbSymbolTableRecord
100
AcDbBlockTableRecord
  2
*D5
 70
    0
280
    1
281
    0
  0
BLOCK_RECORD
  5
7B
330
1
100
AcDbSymbolTableRecord
100
AcDbBlockTableRecord
  2
*D15
 70
    0
280
    1
281
    0
  0
BLOCK_RECORD
  5
7E
330
1
100
AcDbSymbolTableRecord
100
AcDbBlockTableRecord
  2
*D6
 70
    0
280
    1
281
    0
  0
BLOCK_RECORD
  5
81
330
1
100
AcDbSymbolTableRecord
100
AcDbBlockTableRecord
  2
*D20
 70
    0
280
    1
281
    0
  0
BLOCK_RECORD
  5
84
330
1
100
AcDbSymbolTableRecord
100
AcDbBlockTableRecord
  2
*D1
 70
    0
280
    1
281
    0
  0
BLOCK_RECORD
  5
87
330
1
100
AcDbSymbolTableRecord
100
AcDbBlockTableRecord
  2
*D28
 70
    0
280
    1
281
    0
  0
BLOCK_RECORD
  5
8A
330
1
100
AcDbSymbolTableRecord
100
AcDbBlockTableRecord
  2
*D30
 70
    0
280
    1
281
    0
  0
BLOCK_RECORD
  5
8D
330
1
100
AcDbSymbolTableRecord
100
AcDbBlockTableRecord
  2
*D10
 70
    0
280
    1
281
    0
  0
BLOCK_RECORD
  5
90
330
1
100
AcDbSymbolTableRecord
100
AcDbBlockTableRecord
  2
*D14
 70
    0
280
    1
281
    0
  0
BLOCK_RECORD
  5
93
330
1
100
AcDbSymbolTableRecord
100
AcDbBlockTableRecord
  2
*D12
 70
    0
280
    1
281
    0
  0
BLOCK_RECORD
  5
96
330
1
100
AcDbSymbolTableRecord
100
AcDbBlockTableRecord
  2
*D13
 70
    0
280
    1
281
    0
  0
BLOCK_RECORD
  5
99
330
1
100
AcDbSymbolTableRecord
100
AcDbBlockTableRecord
  2
*D4
 70
    0
280
    1
281
    0
  0
BLOCK_RECORD
  5
9C
330
1
100
AcDbSymbolTableRecord
100
AcDbBlockTableRecord
  2
*D22
 70
    0
280
    1
281
    0
  0
BLOCK_RECORD
  5
9F
330
1
100
AcDbSymbolTableRecord
100
AcDbBlockTableRecord
  2
*D26
 70
    0
280
    1
281
    0
  0
BLOCK_RECORD
  5
A2
330
1
100
AcDbSymbolTableRecord
100
AcDbBlockTableRecord
  2
*D7
 70
    0
280
    1
281
    0
  0
BLOCK_RECORD
  5
A5
330
1
100
AcDbSymbolTableRecord
100
AcDbBlockTableRecord
  2
*D2
 70
    0
280
    1
281
    0
  0
BLOCK_RECORD
  5
A8
330
1
100
AcDbSymbolTableRecord
100
AcDbBlockTableRecord
  2
*D9
 70
    0
280
    1
281
    0
  0
BLOCK_RECORD
  5
AB
330
1
100
AcDbSymbolTableRecord
100
AcDbBlockTableRecord
  2
*D18
 70
    0
280
    1
281
    0
  0
ENDTAB
  0
ENDSEC
  0
SECTION
  2
BLOCKS
  0
BLOCK
  5
20
330
1F
100
AcDbEntity
  8
0
100
AcDbBlockBegin
  2
*Model_Space
 70
    0
 10
0
 20
0
 30
0
  3
*Model_Space
  1

  0
ENDBLK
  5
21
330
1F
100
AcDbEntity
  8
0
100
AcDbBlockEnd
  0
BLOCK
  5
1C
330
1B
100
AcDbEntity
  8
0
100
AcDbBlockBegin
  2
*Paper_Space
 70
    0
 10
0
 20
0
 30
0
  3
*Paper_Space
  1

  0
ENDBLK
  5
1D
330
1F
100
AcDbEntity
  8
0
100
AcDbBlockEnd
  0
BLOCK
  5
55
330
54
100
AcDbEntity
  8
0
100
AcDbBlockBegin
  2
*D19
 70
    1
 10
0
 20
0
  3
*D19
  1

  0
LINE
  5
AE
100
AcDbEntity
  8
rozmir
  6
ByBlock
 62
    0
370
   -2
100
AcDbLine
 10
-9.999999999999998
 20
27.99999999999999
 11
-10
 21
6.235012506294873e-16
  0
SOLID
  5
AF
100
AcDbEntity
  8
rozmir
  6
ByBlock
 62
    0
370
   -2
100
AcDbTrace
 10
-9.999999999999998
 20
27.99999999999999
 30
0
 11
-9.500458410672589
 21
24.99999999999999
 31
0
 12
-10.49954158932741
 22
24.99999999999999
 32
0
 13
-10.49954158932741
 23
24.99999999999999
 33
0
  0
SOLID
  5
B0
100
AcDbEntity
  8
rozmir
  6
ByBlock
 62
    0
370
   -2
100
AcDbTrace
 10
-10
 20
6.235012506294873e-16
 30
0
 11
-10.49954158932741
 21
3
 31
0
 12
-9.500458410672591
 22
3
 32
0
 13
-9.500458410672591
 23
3
 33
0
  0
MTEXT
  5
B1
100
AcDbEntity
  8
rozmir
  6
CONTINUOUS
 62
    0
370
   -2
100
AcDbMText
 10
-12.75
 20
13.99999999999999
 30
0
 40
3.5
 41
4.277777777777778
 71
    5
 72
    1
  1
28
  7
standard
210
0
220
0
230
1
 50
90
 73
    2
 44
1
  0
LINE
  5
B2
100
AcDbEntity
  8
rozmir
  6
ByBlock
 62
    0
370
   -2
100
AcDbLine
 10
0.6999999999999886
 20
27.99999999999999
 11
-12
 21
27.99999999999999
  0
LINE
  5
B3
100
AcDbEntity
  8
rozmir
  6
ByBlock
 62
    0
370
   -2
100
AcDbLine
 10
0.6999999999999886
 20
1.224646799147353e-16
 11
-12
 21
8.68430610458958e-16
  0
ENDBLK
  5
56
330
54
100
AcDbEntity
  8
0
100
AcDbBlockEnd
  0
BLOCK
  5
58
330
57
100
AcDbEntity
  8
0
100
AcDbBlockBegin
  2
*D27
 70
    1
 10
0
 20
0
  3
*D27
  1

  0
LINE
  5
B4
100
AcDbEntity
  8
rozmir_zagib
  6
ByBlock
 62
    0
370
   -2
100
AcDbLine
 10
56.89999999999998
 20
15
 11
56.89999999999998
 21
1.600000000000002
  0
SOLID
  5
B5
100
AcDbEntity
  8
rozmir_zagib
  6
ByBlock
 62
    0
370
   -2
100
AcDbTrace
 10
56.89999999999998
 20
15
 30
0
 11
57.39954158932738
 21
12
 31
0
 12
56.40045841067257
 22
12
 32
0
 13
56.40045841067257
 23
12
 33
0
  0
SOLID
  5
B6
100
AcDbEntity
  8
rozmir_zagib
  6
ByBlock
 62
    0
370
   -2
100
AcDbTrace
 10
56.89999999999998
 20
1.600000000000002
 30
0
 11
56.40045841067257
 21
4.600000000000001
 31
0
 12
57.39954158932738
 22
4.600000000000001
 32
0
 13
57.39954158932738
 23
4.600000000000001
 33
0
  0
MTEXT
  5
B7
100
AcDbEntity
  8
rozmir_zagib
  6
CONTINUOUS
 62
    0
370
   -2
100
AcDbMText
 10
54.14999999999998
 20
8.299999999999997
 30
0
 40
3.5
 41
7.97222222222244
 71
    5
 72
    1
  1
13,4
  7
standard
210
0
220
0
230
1
 50
90
 73
    2
 44
1
  0
LINE
  5
B8
100
AcDbEntity
  8
rozmir_zagib
  6
ByBlock
 62
    0
370
   -2
100
AcDbLine
 10
60.6
 20
15
 11
54.89999999999998
 21
15
  0
LINE
  5
B9
100
AcDbEntity
  8
rozmir_zagib
  6
ByBlock
 62
    0
370
   -2
100
AcDbLine
 10
59
 20
1.600000000000002
 11
54.89999999999998
 21
1.600000000000002
  0
ENDBLK
  5
59
330
57
100
AcDbEntity
  8
0
100
AcDbBlockEnd
  0
BLOCK
  5
5B
330
5A
100
AcDbEntity
  8
0
100
AcDbBlockBegin
  2
*D16
 70
    1
 10
0
 20
0
  3
*D16
  1

  0
LINE
  5
BA
100
AcDbEntity
  8
rozmir
  6
ByBlock
 62
    0
370
   -2
100
AcDbLine
 10
89.99999999999997
 20
86
 11
103
 21
86
  0
SOLID
  5
BB
100
AcDbEntity
  8
rozmir
  6
ByBlock
 62
    0
370
   -2
100
AcDbTrace
 10
89.99999999999997
 20
86
 30
0
 11
92.99999999999997
 21
86.49954158932741
 31
0
 12
92.99999999999997
 22
85.50045841067259
 32
0
 13
92.99999999999997
 23
85.50045841067259
 33
0
  0
SOLID
  5
BC
100
AcDbEntity
  8
rozmir
  6
ByBlock
 62
    0
370
   -2
100
AcDbTrace
 10
103
 20
86
 30
0
 11
100
 21
85.50045841067259
 31
0
 12
100
 22
86.49954158932741
 32
0
 13
100
 23
86.49954158932741
 33
0
  0
MTEXT
  5
BD
100
AcDbEntity
  8
rozmir
  6
CONTINUOUS
 62
    0
370
   -2
100
AcDbMText
 10
96.49999999999999
 20
88.75
 30
0
 40
3.5
 41
3.500000000000217
 71
    5
 72
    1
  1
13
  7
standard
210
0
220
0
230
1
 50
0
 73
    2
 44
1
  0
LINE
  5
BE
100
AcDbEntity
  8
rozmir
  6
ByBlock
 62
    0
370
   -2
100
AcDbLine
 10
89.99999999999997
 20
76.29999982013832
 11
89.99999999999997
 21
88
  0
LINE
  5
BF
100
AcDbEntity
  8
rozmir
  6
ByBlock
 62
    0
370
   -2
100
AcDbLine
 10
103
 20
76.39999610137923
 11
103
 21
88
  0
ENDBLK
  5
5C
330
5A
100
AcDbEntity
  8
0
100
AcDbBlockEnd
  0
BLOCK
  5
5E
330
5D
100
AcDbEntity
  8
0
100
AcDbBlockBegin
  2
*D24
 70
    1
 10
0
 20
0
  3
*D24
  1

  0
LINE
  5
C0
100
AcDbEntity
  8
rozmir_zagib
  6
ByBlock
 62
    0
370
   -2
100
AcDbLine
 10
19
 20
30.7
 11
1.700004301932466
 21
30.7
  0
SOLID
  5
C1
100
AcDbEntity
  8
rozmir_zagib
  6
ByBlock
 62
    0
370
   -2
100
AcDbTrace
 10
19
 20
30.7
 30
0
 11
16
 21
30.2004584106726
 31
0
 12
16
 22
31.19954158932741
 32
0
 13
16
 23
31.19954158932741
 33
0
  0
SOLID
  5
C2
100
AcDbEntity
  8
rozmir_zagib
  6
ByBlock
 62
    0
370
   -2
100
AcDbTrace
 10
1.700004301932466
 20
30.7
 30
0
 11
4.700004301932466
 21
31.19954158932741
 31
0
 12
4.700004301932466
 22
30.20045841067259
 32
0
 13
4.700004301932466
 23
30.20045841067259
 33
0
  0
MTEXT
  5
C3
100
AcDbEntity
  8
rozmir_zagib
  6
CONTINUOUS
 62
    0
370
   -2
100
AcDbMText
 10
10.35000215096623
 20
33.45
 30
0
 40
3.5
 41
7.583333333333551
 71
    5
 72
    1
  1
17,3
  7
standard
210
0
220
0
230
1
 50
360
 73
    2
 44
1
  0
LINE
  5
C4
100
AcDbEntity
  8
rozmir_zagib
  6
ByBlock
 62
    0
370
   -2
100
AcDbLine
 10
19
 20
29
 11
18.99999999999999
 21
32.7
  0
LINE
  5
C5
100
AcDbEntity
  8
rozmir_zagib
  6
ByBlock
 62
    0
370
   -2
100
AcDbLine
 10
1.700004301932466
 20
29.00000000000003
 11
1.700004301932467
 21
32.7
  0
ENDBLK
  5
5F
330
5D
100
AcDbEntity
  8
0
100
AcDbBlockEnd
  0
BLOCK
  5
61
330
60
100
AcDbEntity
  8
0
100
AcDbBlockBegin
  2
*D25
 70
    1
 10
0
 20
0
  3
*D25
  1

  0
LINE
  5
C6
100
AcDbEntity
  8
rozmir_zagib
  6
ByBlock
 62
    0
370
   -2
100
AcDbLine
 10
59.99999999999997
 20
-6.299999999999997
 11
91.40000000000001
 21
-6.299999999999997
  0
SOLID
  5
C7
100
AcDbEntity
  8
rozmir_zagib
  6
ByBlock
 62
    0
370
   -2
100
AcDbTrace
 10
59.99999999999997
 20
-6.299999999999997
 30
0
 11
62.99999999999997
 21
-5.800458410672589
 31
0
 12
62.99999999999997
 22
-6.799541589327406
 32
0
 13
62.99999999999997
 23
-6.799541589327406
 33
0
  0
SOLID
  5
C8
100
AcDbEntity
  8
rozmir_zagib
  6
ByBlock
 62
    0
370
   -2
100
AcDbTrace
 10
91.40000000000001
 20
-6.299999999999997
 30
0
 11
88.40000000000001
 21
-6.799541589327406
 31
0
 12
88.40000000000001
 22
-5.800458410672588
 32
0
 13
88.40000000000001
 23
-5.800458410672588
 33
0
  0
MTEXT
  5
C9
100
AcDbEntity
  8
rozmir_zagib
  6
CONTINUOUS
 62
    0
370
   -2
100
AcDbMText
 10
75.69999999999999
 20
-3.549999999999997
 30
0
 40
3.5
 41
7.97222222222244
 71
    5
 72
    1
  1
31,4
  7
standard
210
0
220
0
230
1
 50
0
 73
    2
 44
1
  0
LINE
  5
CA
100
AcDbEntity
  8
rozmir_zagib
  6
ByBlock
 62
    0
370
   -2
100
AcDbLine
 10
59.99999999999997
 20
0.7000000000000028
 11
59.99999999999997
 21
-8.299999999999997
  0
LINE
  5
CB
100
AcDbEntity
  8
rozmir_zagib
  6
ByBlock
 62
    0
370
   -2
100
AcDbLine
 10
91.40000000000001
 20
-1
 11
91.40000000000001
 21
-8.299999999999997
  0
ENDBLK
  5
62
330
60
100
AcDbEntity
  8
0
100
AcDbBlockEnd
  0
BLOCK
  5
64
330
63
100
AcDbEntity
  8
0
100
AcDbBlockBegin
  2
*D21
 70
    1
 10
0
 20
0
  3
*D21
  1

  0
LINE
  5
CC
100
AcDbEntity
  8
rozmir_zagib
  6
ByBlock
 62
    0
370
   -2
100
AcDbLine
 10
-2.664535259100376e-14
 20
-6.299999999999997
 11
31.4
 21
-6.299999999999997
  0
SOLID
  5
CD
100
AcDbEntity
  8
rozmir_zagib
  6
ByBlock
 62
    0
370
   -2
100
AcDbTrace
 10
-2.664535259100376e-14
 20
-6.299999999999997
 30
0
 11
2.999999999999973
 21
-5.800458410672589
 31
0
 12
2.999999999999973
 22
-6.799541589327406
 32
0
 13
2.999999999999973
 23
-6.799541589327406
 33
0
  0
SOLID
  5
CE
100
AcDbEntity
  8
rozmir_zagib
  6
ByBlock
 62
    0
370
   -2
100
AcDbTrace
 10
31.4
 20
-6.299999999999997
 30
0
 11
28.4
 21
-6.799541589327406
 31
0
 12
28.4
 22
-5.800458410672588
 32
0
 13
28.4
 23
-5.800458410672588
 33
0
  0
MTEXT
  5
CF
100
AcDbEntity
  8
rozmir_zagib
  6
CONTINUOUS
 62
    0
370
   -2
100
AcDbMText
 10
15.69999999999999
 20
-3.549999999999997
 30
0
 40
3.5
 41
7.97222222222244
 71
    5
 72
    1
  1
31,4
  7
standard
210
0
220
0
230
1
 50
0
 73
    2
 44
1
  0
LINE
  5
D0
100
AcDbEntity
  8
rozmir_zagib
  6
ByBlock
 62
    0
370
   -2
100
AcDbLine
 10
-2.860540645027611e-14
 20
0.7000000000000028
 11
-2.701274663074796e-14
 21
-8.299999999999997
  0
LINE
  5
D1
100
AcDbEntity
  8
rozmir_zagib
  6
ByBlock
 62
    0
370
   -2
100
AcDbLine
 10
31.40000000000001
 20
-1
 11
31.4
 21
-8.299999999999997
  0
ENDBLK
  5
65
330
63
100
AcDbEntity
  8
0
100
AcDbBlockEnd
  0
BLOCK
  5
67
330
66
100
AcDbEntity
  8
0
100
AcDbBlockBegin
  2
*D8
 70
    1
 10
0
 20
0
  3
*D8
  1

  0
LINE
  5
D2
100
AcDbEntity
  8
rozmir_zagib
  6
ByBlock
 62
    0
370
   -2
100
AcDbLine
 10
56.5
 20
82.7
 11
46.70000430193247
 21
82.7
  0
SOLID
  5
D3
100
AcDbEntity
  8
rozmir_zagib
  6
ByBlock
 62
    0
370
   -2
100
AcDbTrace
 10
56.5
 20
82.7
 30
0
 11
53.5
 21
82.2004584106726
 31
0
 12
53.5
 22
83.19954158932741
 32
0
 13
53.5
 23
83.19954158932741
 33
0
  0
SOLID
  5
D4
100
AcDbEntity
  8
rozmir_zagib
  6
ByBlock
 62
    0
370
   -2
100
AcDbTrace
 10
46.70000430193247
 20
82.7
 30
0
 11
49.70000430193247
 21
83.19954158932741
 31
0
 12
49.70000430193247
 22
82.2004584106726
 32
0
 13
49.70000430193247
 23
82.2004584106726
 33
0
  0
MTEXT
  5
D5
100
AcDbEntity
  8
rozmir_zagib
  6
CONTINUOUS
 62
    0
370
   -2
100
AcDbMText
 10
51.60000215096623
 20
85.45
 30
0
 40
3.5
 41
5.638888888889106
 71
    5
 72
    1
  1
9,8
  7
standard
210
0
220
0
230
1
 50
360
 73
    2
 44
1
  0
LINE
  5
D6
100
AcDbEntity
  8
rozmir_zagib
  6
ByBlock
 62
    0
370
   -2
100
AcDbLine
 10
56.5
 20
81
 11
56.5
 21
84.7
  0
LINE
  5
D7
100
AcDbEntity
  8
rozmir_zagib
  6
ByBlock
 62
    0
370
   -2
100
AcDbLine
 10
46.70000430193247
 20
81.00000000000003
 11
46.70000430193247
 21
84.7
  0
ENDBLK
  5
68
330
66
100
AcDbEntity
  8
0
100
AcDbBlockEnd
  0
BLOCK
  5
6A
330
69
100
AcDbEntity
  8
0
100
AcDbBlockBegin
  2
*D11
 70
    1
 10
0
 20
0
  3
*D11
  1

  0
LINE
  5
D8
100
AcDbEntity
  8
rozmir
  6
ByBlock
 62
    0
370
   -2
100
AcDbLine
 10
44.99999999999997
 20
89
 11
63
 21
89
  0
SOLID
  5
D9
100
AcDbEntity
  8
rozmir
  6
ByBlock
 62
    0
370
   -2
100
AcDbTrace
 10
44.99999999999997
 20
89
 30
0
 11
47.99999999999997
 21
89.49954158932741
 31
0
 12
47.99999999999997
 22
88.50045841067259
 32
0
 13
47.99999999999997
 23
88.50045841067259
 33
0
  0
SOLID
  5
DA
100
AcDbEntity
  8
rozmir
  6
ByBlock
 62
    0
370
   -2
100
AcDbTrace
 10
63
 20
89
 30
0
 11
60
 21
88.50045841067259
 31
0
 12
60
 22
89.49954158932741
 32
0
 13
60
 23
89.49954158932741
 33
0
  0
MTEXT
  5
DB
100
AcDbEntity
  8
rozmir
  6
CONTINUOUS
 62
    0
370
   -2
100
AcDbMText
 10
53.99999999999999
 20
91.75
 30
0
 40
3.5
 41
3.5
 71
    5
 72
    1
  1
18
  7
standard
210
0
220
0
230
1
 50
0
 73
    2
 44
1
  0
LINE
  5
DC
100
AcDbEntity
  8
rozmir
  6
ByBlock
 62
    0
370
   -2
100
AcDbLine
 10
44.99999999999997
 20
79.29999982013832
 11
44.99999999999997
 21
91
  0
LINE
  5
DD
100
AcDbEntity
  8
rozmir
  6
ByBlock
 62
    0
370
   -2
100
AcDbLine
 10
63
 20
79.39999610137923
 11
63
 21
91
  0
ENDBLK
  5
6B
330
69
100
AcDbEntity
  8
0
100
AcDbBlockEnd
  0
BLOCK
  5
6D
330
6C
100
AcDbEntity
  8
0
100
AcDbBlockBegin
  2
*D23
 70
    1
 10
0
 20
0
  3
*D23
  1

  0
LINE
  5
DE
100
AcDbEntity
  8
rozmir_zagib
  6
ByBlock
 62
    0
370
   -2
100
AcDbLine
 10
40
 20
-1.77635683940025e-15
 11
40
 21
26.4
  0
SOLID
  5
DF
100
AcDbEntity
  8
rozmir_zagib
  6
ByBlock
 62
    0
370
   -2
100
AcDbTrace
 10
40
 20
-1.77635683940025e-15
 30
0
 11
39.50045841067259
 21
2.999999999999998
 31
0
 12
40.49954158932741
 22
2.999999999999998
 32
0
 13
40.49954158932741
 23
2.999999999999998
 33
0
  0
SOLID
  5
E0
100
AcDbEntity
  8
rozmir_zagib
  6
ByBlock
 62
    0
370
   -2
100
AcDbTrace
 10
40
 20
26.4
 30
0
 11
40.49954158932741
 21
23.4
 31
0
 12
39.50045841067259
 22
23.4
 32
0
 13
39.50045841067259
 23
23.4
 33
0
  0
MTEXT
  5
E1
100
AcDbEntity
  8
rozmir_zagib
  6
CONTINUOUS
 62
    0
370
   -2
100
AcDbMText
 10
37.25
 20
13.2
 30
0
 40
3.5
 41
8.750000000000218
 71
    5
 72
    1
  1
26,4
  7
standard
210
0
220
0
230
1
 50
90
 73
    2
 44
1
  0
LINE
  5
E2
100
AcDbEntity
  8
rozmir_zagib
  6
ByBlock
 62
    0
370
   -2
100
AcDbLine
 10
32.40000000000001
 20
0
 11
42
 21
-1.77635683940025e-15
  0
LINE
  5
E3
100
AcDbEntity
  8
rozmir_zagib
  6
ByBlock
 62
    0
370
   -2
100
AcDbLine
 10
34
 20
26.4
 11
42
 21
26.4
  0
ENDBLK
  5
6E
330
6C
100
AcDbEntity
  8
0
100
AcDbBlockEnd
  0
BLOCK
  5
70
330
6F
100
AcDbEntity
  8
0
100
AcDbBlockBegin
  2
*D3
 70
    1
 10
0
 20
0
  3
*D3
  1

  0
LINE
  5
E4
100
AcDbEntity
  8
rozmir_zagib
  6
ByBlock
 62
    0
370
   -2
100
AcDbLine
 10
-3.100000000000022
 20
72
 11
-3.100000000000023
 21
61.6
  0
SOLID
  5
E5
100
AcDbEntity
  8
rozmir_zagib
  6
ByBlock
 62
    0
370
   -2
100
AcDbTrace
 10
-3.100000000000022
 20
72
 30
0
 11
-2.600458410672614
 21
69
 31
0
 12
-3.599541589327431
 22
69
 32
0
 13
-3.599541589327431
 23
69
 33
0
  0
SOLID
  5
E6
100
AcDbEntity
  8
rozmir_zagib
  6
ByBlock
 62
    0
370
   -2
100
AcDbTrace
 10
-3.100000000000023
 20
61.6
 30
0
 11
-3.599541589327431
 21
64.59999999999999
 31
0
 12
-2.600458410672614
 22
64.59999999999999
 32
0
 13
-2.600458410672614
 23
64.59999999999999
 33
0
  0
MTEXT
  5
E7
100
AcDbEntity
  8
rozmir_zagib
  6
CONTINUOUS
 62
    0
370
   -2
100
AcDbMText
 10
-5.850000000000023
 20
66.8
 30
0
 40
3.5
 41
7.972222222222221
 71
    5
 72
    1
  1
10,4
  7
standard
210
0
220
0
230
1
 50
90
 73
    2
 44
1
  0
LINE
  5
E8
100
AcDbEntity
  8
rozmir_zagib
  6
ByBlock
 62
    0
370
   -2
100
AcDbLine
 10
0.6000000000000001
 20
72
 11
-5.100000000000023
 21
72
  0
LINE
  5
E9
100
AcDbEntity
  8
rozmir_zagib
  6
ByBlock
 62
    0
370
   -2
100
AcDbLine
 10
-1
 20
61.6
 11
-5.100000000000023
 21
61.6
  0
ENDBLK
  5
71
330
6F
100
AcDbEntity
  8
0
100
AcDbBlockEnd
  0
BLOCK
  5
73
330
72
100
AcDbEntity
  8
0
100
AcDbBlockBegin
  2
*D17
 70
    1
 10
0
 20
0
  3
*D17
  1

  0
LINE
  5
EA
100
AcDbEntity
  8
rozmir_zagib
  6
ByBlock
 62
    0
370
   -2
100
AcDbLine
 10
109.3
 20
60
 11
109.3
 21
75.40000000000001
  0
SOLID
  5
EB
100
AcDbEntity
  8
rozmir_zagib
  6
ByBlock
 62
    0
370
   -2
100
AcDbTrace
 10
109.3
 20
60
 30
0
 11
108.8004584106726
 21
63
 31
0
 12
109.7995415893274
 22
63
 32
0
 13
109.7995415893274
 23
63
 33
0
  0
SOLID
  5
EC
100
AcDbEntity
  8
rozmir_zagib
  6
ByBlock
 62
    0
370
   -2
100
AcDbTrace
 10
109.3
 20
75.40000000000001
 30
0
 11
109.7995415893274
 21
72.40000000000001
 31
0
 12
108.8004584106726
 22
72.40000000000001
 32
0
 13
108.8004584106726
 23
72.40000000000001
 33
0
  0
MTEXT
  5
ED
100
AcDbEntity
  8
rozmir_zagib
  6
CONTINUOUS
 62
    0
370
   -2
100
AcDbMText
 10
106.55
 20
67.7
 30
0
 40
3.5
 41
7.97222222222244
 71
    5
 72
    1
  1
15,4
  7
standard
210
0
220
0
230
1
 50
90
 73
    2
 44
1
  0
LINE
  5
EE
100
AcDbEntity
  8
rozmir_zagib
  6
ByBlock
 62
    0
370
   -2
100
AcDbLine
 10
102.4
 20
60
 11
111.3
 21
60
  0
LINE
  5
EF
100
AcDbEntity
  8
rozmir_zagib
  6
ByBlock
 62
    0
370
   -2
100
AcDbLine
 10
104
 20
75.40000000000001
 11
111.3
 21
75.40000000000001
  0
ENDBLK
  5
74
330
72
100
AcDbEntity
  8
0
100
AcDbBlockEnd
  0
BLOCK
  5
76
330
75
100
AcDbEntity
  8
0
100
AcDbBlockBegin
  2
*D29
 70
    1
 10
0
 20
0
  3
*D29
  1

  0
LINE
  5
F0
100
AcDbEntity
  8
rozmir_zagib
  6
ByBlock
 62
    0
370
   -2
100
AcDbLine
 10
100
 20
0
 11
100
 21
13.4
  0
SOLID
  5
F1
100
AcDbEntity
  8
rozmir_zagib
  6
ByBlock
 62
    0
370
   -2
100
AcDbTrace
 10
100
 20
0
 30
0
 11
99.50045841067259
 21
3
 31
0
 12
100.4995415893274
 22
3
 32
0
 13
100.4995415893274
 23
3
 33
0
  0
SOLID
  5
F2
100
AcDbEntity
  8
rozmir_zagib
  6
ByBlock
 62
    0
370
   -2
100
AcDbTrace
 10
100
 20
13.4
 30
0
 11
100.4995415893274
 21
10.4
 31
0
 12
99.50045841067259
 22
10.4
 32
0
 13
99.50045841067259
 23
10.4
 33
0
  0
MTEXT
  5
F3
100
AcDbEntity
  8
rozmir_zagib
  6
CONTINUOUS
 62
    0
370
   -2
100
AcDbMText
 10
97.25
 20
6.700000000000003
 30
0
 40
3.5
 41
7.97222222222244
 71
    5
 72
    1
  1
13,4
  7
standard
210
0
220
0
230
1
 50
90
 73
    2
 44
1
  0
LINE
  5
F4
100
AcDbEntity
  8
rozmir_zagib
  6
ByBlock
 62
    0
370
   -2
100
AcDbLine
 10
92.40000000000001
 20
0
 11
102
 21
0
  0
LINE
  5
F5
100
AcDbEntity
  8
rozmir_zagib
  6
ByBlock
 62
    0
370
   -2
100
AcDbLine
 10
94
 20
13.4
 11
102
 21
13.4
  0
ENDBLK
  5
77
330
75
100
AcDbEntity
  8
0
100
AcDbBlockEnd
  0
BLOCK
  5
79
330
78
100
AcDbEntity
  8
0
100
AcDbBlockBegin
  2
*D5
 70
    1
 10
0
 20
0
  3
*D5
  1

  0
LINE
  5
F6
100
AcDbEntity
  8
rozmir_zagib
  6
ByBlock
 62
    0
370
   -2
100
AcDbLine
 10
-2.664535259100376e-14
 20
53.7
 11
16.4
 21
53.7
  0
SOLID
  5
F7
100
AcDbEntity
  8
rozmir_zagib
  6
ByBlock
 62
    0
370
   -2
100
AcDbTrace
 10
-2.664535259100376e-14
 20
53.7
 30
0
 11
2.999999999999973
 21
54.19954158932741
 31
0
 12
2.999999999999973
 22
53.2004584106726
 32
0
 13
2.999999999999973
 23
53.2004584106726
 33
0
  0
SOLID
  5
F8
100
AcDbEntity
  8
rozmir_zagib
  6
ByBlock
 62
    0
370
   -2
100
AcDbTrace
 10
16.4
 20
53.7
 30
0
 11
13.4
 21
53.2004584106726
 31
0
 12
13.4
 22
54.19954158932741
 32
0
 13
13.4
 23
54.19954158932741
 33
0
  0
MTEXT
  5
F9
100
AcDbEntity
  8
rozmir_zagib
  6
CONTINUOUS
 62
    0
370
   -2
100
AcDbMText
 10
8.199999999999989
 20
56.45
 30
0
 40
3.5
 41
7.97222222222244
 71
    5
 72
    1
  1
16,4
  7
standard
210
0
220
0
230
1
 50
0
 73
    2
 44
1
  0
LINE
  5
FA
100
AcDbEntity
  8
rozmir_zagib
  6
ByBlock
 62
    0
370
   -2
100
AcDbLine
 10
-2.860540645027611e-14
 20
60.7
 11
-2.701274663074796e-14
 21
51.7
  0
LINE
  5
FB
100
AcDbEntity
  8
rozmir_zagib
  6
ByBlock
 62
    0
370
   -2
100
AcDbLine
 10
16.4
 20
59
 11
16.4
 21
51.7
  0
ENDBLK
  5
7A
330
78
100
AcDbEntity
  8
0
100
AcDbBlockEnd
  0
BLOCK
  5
7C
330
7B
100
AcDbEntity
  8
0
100
AcDbBlockBegin
  2
*D15
 70
    1
 10
0
 20
0
  3
*D15
  1

  0
LINE
  5
FC
100
AcDbEntity
  8
rozmir_zagib
  6
ByBlock
 62
    0
370
   -2
100
AcDbLine
 10
89.99999999999997
 20
53.7
 11
101.4
 21
53.7
  0
SOLID
  5
FD
100
AcDbEntity
  8
rozmir_zagib
  6
ByBlock
 62
    0
370
   -2
100
AcDbTrace
 10
89.99999999999997
 20
53.7
 30
0
 11
92.99999999999997
 21
54.19954158932741
 31
0
 12
92.99999999999997
 22
53.2004584106726
 32
0
 13
92.99999999999997
 23
53.2004584106726
 33
0
  0
SOLID
  5
FE
100
AcDbEntity
  8
rozmir_zagib
  6
ByBlock
 62
    0
370
   -2
100
AcDbTrace
 10
101.4
 20
53.7
 30
0
 11
98.40000000000001
 21
53.2004584106726
 31
0
 12
98.40000000000001
 22
54.19954158932741
 32
0
 13
98.40000000000001
 23
54.19954158932741
 33
0
  0
MTEXT
  5
FF
100
AcDbEntity
  8
rozmir_zagib
  6
CONTINUOUS
 62
    0
370
   -2
100
AcDbMText
 10
95.69999999999999
 20
56.45
 30
0
 40
3.5
 41
7.194444444444445
 71
    5
 72
    1
  1
11,4
  7
standard
210
0
220
0
230
1
 50
0
 73
    2
 44
1
  0
LINE
  5
100
100
AcDbEntity
  8
rozmir_zagib
  6
ByBlock
 62
    0
370
   -2
100
AcDbLine
 10
89.99999999999997
 20
60.7
 11
89.99999999999997
 21
51.7
  0
LINE
  5
101
100
AcDbEntity
  8
rozmir_zagib
  6
ByBlock
 62
    0
370
   -2
100
AcDbLine
 10
101.4
 20
59
 11
101.4
 21
51.7
  0
ENDBLK
  5
7D
330
7B
100
AcDbEntity
  8
0
100
AcDbBlockEnd
  0
BLOCK
  5
7F
330
7E
100
AcDbEntity
  8
0
100
AcDbBlockBegin
  2
*D6
 70
    1
 10
0
 20
0
  3
*D6
  1

  0
LINE
  5
102
100
AcDbEntity
  8
rozmir_zagib
  6
ByBlock
 62
    0
370
   -2
100
AcDbLine
 10
24.29999999999998
 20
60
 11
24.29999999999998
 21
70.40000000000001
  0
SOLID
  5
103
100
AcDbEntity
  8
rozmir_zagib
  6
ByBlock
 62
    0
370
   -2
100
AcDbTrace
 10
24.29999999999998
 20
60
 30
0
 11
23.80045841067257
 21
63
 31
0
 12
24.79954158932739
 22
63
 32
0
 13
24.79954158932739
 23
63
 33
0
  0
SOLID
  5
104
100
AcDbEntity
  8
rozmir_zagib
  6
ByBlock
 62
    0
370
   -2
100
AcDbTrace
 10
24.29999999999998
 20
70.40000000000001
 30
0
 11
24.79954158932738
 21
67.40000000000001
 31
0
 12
23.80045841067257
 22
67.40000000000001
 32
0
 13
23.80045841067257
 23
67.40000000000001
 33
0
  0
MTEXT
  5
105
100
AcDbEntity
  8
rozmir_zagib
  6
CONTINUOUS
 62
    0
370
   -2
100
AcDbMText
 10
21.54999999999998
 20
65.2
 30
0
 40
3.5
 41
7.972222222222221
 71
    5
 72
    1
  1
10,4
  7
standard
210
0
220
0
230
1
 50
90
 73
    2
 44
1
  0
LINE
  5
106
100
AcDbEntity
  8
rozmir_zagib
  6
ByBlock
 62
    0
370
   -2
100
AcDbLine
 10
17.4
 20
60
 11
26.29999999999998
 21
60
  0
LINE
  5
107
100
AcDbEntity
  8
rozmir_zagib
  6
ByBlock
 62
    0
370
   -2
100
AcDbLine
 10
19
 20
70.40000000000001
 11
26.29999999999998
 21
70.40000000000001
  0
ENDBLK
  5
80
330
7E
100
AcDbEntity
  8
0
100
AcDbBlockEnd
  0
BLOCK
  5
82
330
81
100
AcDbEntity
  8
0
100
AcDbBlockBegin
  2
*D20
 70
    1
 10
0
 20
0
  3
*D20
  1

  0
LINE
  5
108
100
AcDbEntity
  8
rozmir_zagib
  6
ByBlock
 62
    0
370
   -2
100
AcDbLine
 10
-3.100000000000021
 20
28
 11
-3.100000000000023
 21
1.600000000000002
  0
SOLID
  5
109
100
AcDbEntity
  8
rozmir_zagib
  6
ByBlock
 62
    0
370
   -2
100
AcDbTrace
 10
-3.100000000000021
 20
28
 30
0
 11
-2.600458410672613
 21
25
 31
0
 12
-3.59954158932743
 22
25
 32
0
 13
-3.59954158932743
 23
25
 33
0
  0
SOLID
  5
10A
100
AcDbEntity
  8
rozmir_zagib
  6
ByBlock
 62
    0
370
   -2
100
AcDbTrace
 10
-3.100000000000023
 20
1.600000000000002
 30
0
 11
-3.599541589327431
 21
4.600000000000001
 31
0
 12
-2.600458410672614
 22
4.600000000000001
 32
0
 13
-2.600458410672614
 23
4.600000000000001
 33
0
  0
MTEXT
  5
10B
100
AcDbEntity
  8
rozmir_zagib
  6
CONTINUOUS
 62
    0
370
   -2
100
AcDbMText
 10
-5.850000000000022
 20
14.8
 30
0
 40
3.5
 41
8.750000000000218
 71
    5
 72
    1
  1
26,4
  7
standard
210
0
220
0
230
1
 50
90
 73
    2
 44
1
  0
LINE
  5
10C
100
AcDbEntity
  8
rozmir_zagib
  6
ByBlock
 62
    0
370
   -2
100
AcDbLine
 10
0.6000000000000014
 20
28
 11
-5.100000000000021
 21
28
  0
LINE
  5
10D
100
AcDbEntity
  8
rozmir_zagib
  6
ByBlock
 62
    0
370
   -2
100
AcDbLine
 10
-1
 20
1.600000000000002
 11
-5.100000000000023
 21
1.600000000000002
  0
ENDBLK
  5
83
330
81
100
AcDbEntity
  8
0
100
AcDbBlockEnd
  0
BLOCK
  5
85
330
84
100
AcDbEntity
  8
0
100
AcDbBlockBegin
  2
*D1
 70
    1
 10
0
 20
0
  3
*D1
  1

  0
LINE
  5
10E
100
AcDbEntity
  8
rozmir_zagib
  6
ByBlock
 62
    0
370
   -2
100
AcDbLine
 10
11.5
 20
74.7
 11
1.700004301932466
 21
74.7
  0
SOLID
  5
10F
100
AcDbEntity
  8
rozmir_zagib
  6
ByBlock
 62
    0
370
   -2
100
AcDbTrace
 10
11.5
 20
74.7
 30
0
 11
8.500000000000002
 21
74.2004584106726
 31
0
 12
8.500000000000002
 22
75.19954158932741
 32
0
 13
8.500000000000002
 23
75.19954158932741
 33
0
  0
SOLID
  5
110
100
AcDbEntity
  8
rozmir_zagib
  6
ByBlock
 62
    0
370
   -2
100
AcDbTrace
 10
1.700004301932466
 20
74.7
 30
0
 11
4.700004301932466
 21
75.19954158932741
 31
0
 12
4.700004301932466
 22
74.2004584106726
 32
0
 13
4.700004301932466
 23
74.2004584106726
 33
0
  0
MTEXT
  5
111
100
AcDbEntity
  8
rozmir_zagib
  6
CONTINUOUS
 62
    0
370
   -2
100
AcDbMText
 10
6.600002150966234
 20
77.45
 30
0
 40
3.5
 41
5.638888888889106
 71
    5
 72
    1
  1
9,8
  7
standard
210
0
220
0
230
1
 50
360
 73
    2
 44
1
  0
LINE
  5
112
100
AcDbEntity
  8
rozmir_zagib
  6
ByBlock
 62
    0
370
   -2
100
AcDbLine
 10
11.5
 20
73
 11
11.5
 21
76.7
  0
LINE
  5
113
100
AcDbEntity
  8
rozmir_zagib
  6
ByBlock
 62
    0
370
   -2
100
AcDbLine
 10
1.700004301932466
 20
73.00000000000003
 11
1.700004301932467
 21
76.7
  0
ENDBLK
  5
86
330
84
100
AcDbEntity
  8
0
100
AcDbBlockEnd
  0
BLOCK
  5
88
330
87
100
AcDbEntity
  8
0
100
AcDbBlockBegin
  2
*D28
 70
    1
 10
0
 20
0
  3
*D28
  1

  0
LINE
  5
114
100
AcDbEntity
  8
rozmir
  6
ByBlock
 62
    0
370
   -2
100
AcDbLine
 10
59.99999999999997
 20
24
 11
93
 21
24
  0
SOLID
  5
115
100
AcDbEntity
  8
rozmir
  6
ByBlock
 62
    0
370
   -2
100
AcDbTrace
 10
59.99999999999997
 20
24
 30
0
 11
62.99999999999997
 21
24.49954158932741
 31
0
 12
62.99999999999997
 22
23.50045841067259
 32
0
 13
62.99999999999997
 23
23.50045841067259
 33
0
  0
SOLID
  5
116
100
AcDbEntity
  8
rozmir
  6
ByBlock
 62
    0
370
   -2
100
AcDbTrace
 10
93
 20
24
 30
0
 11
90
 21
23.50045841067259
 31
0
 12
90
 22
24.49954158932741
 32
0
 13
90
 23
24.49954158932741
 33
0
  0
MTEXT
  5
117
100
AcDbEntity
  8
rozmir
  6
CONTINUOUS
 62
    0
370
   -2
100
AcDbMText
 10
76.49999999999999
 20
26.75
 30
0
 40
3.5
 41
4.277777777778212
 71
    5
 72
    1
  1
33
  7
standard
210
0
220
0
230
1
 50
0
 73
    2
 44
1
  0
LINE
  5
118
100
AcDbEntity
  8
rozmir
  6
ByBlock
 62
    0
370
   -2
100
AcDbLine
 10
59.99999999999997
 20
14.29999982013832
 11
59.99999999999997
 21
26
  0
LINE
  5
119
100
AcDbEntity
  8
rozmir
  6
ByBlock
 62
    0
370
   -2
100
AcDbLine
 10
93
 20
14.39999610137923
 11
93
 21
26
  0
ENDBLK
  5
89
330
87
100
AcDbEntity
  8
0
100
AcDbBlockEnd
  0
BLOCK
  5
8B
330
8A
100
AcDbEntity
  8
0
100
AcDbBlockBegin
  2
*D30
 70
    1
 10
0
 20
0
  3
*D30
  1

  0
LINE
  5
11A
100
AcDbEntity
  8
rozmir_zagib
  6
ByBlock
 62
    0
370
   -2
100
AcDbLine
 10
79
 20
17.7
 11
61.70000430193247
 21
17.7
  0
SOLID
  5
11B
100
AcDbEntity
  8
rozmir_zagib
  6
ByBlock
 62
    0
370
   -2
100
AcDbTrace
 10
79
 20
17.7
 30
0
 11
76
 21
17.2004584106726
 31
0
 12
76
 22
18.19954158932741
 32
0
 13
76
 23
18.19954158932741
 33
0
  0
SOLID
  5
11C
100
AcDbEntity
  8
rozmir_zagib
  6
ByBlock
 62
    0
370
   -2
100
AcDbTrace
 10
61.70000430193247
 20
17.7
 30
0
 11
64.70000430193247
 21
18.19954158932741
 31
0
 12
64.70000430193247
 22
17.20045841067259
 32
0
 13
64.70000430193247
 23
17.20045841067259
 33
0
  0
MTEXT
  5
11D
100
AcDbEntity
  8
rozmir_zagib
  6
CONTINUOUS
 62
    0
370
   -2
100
AcDbMText
 10
70.35000215096623
 20
20.45
 30
0
 40
3.5
 41
7.583333333333551
 71
    5
 72
    1
  1
17,3
  7
standard
210
0
220
0
230
1
 50
360
 73
    2
 44
1
  0
LINE
  5
11E
100
AcDbEntity
  8
rozmir_zagib
  6
ByBlock
 62
    0
370
   -2
100
AcDbLine
 10
79
 20
16
 11
79
 21
19.7
  0
LINE
  5
11F
100
AcDbEntity
  8
rozmir_zagib
  6
ByBlock
 62
    0
370
   -2
100
AcDbLine
 10
61.70000430193247
 20
16.00000000000003
 11
61.70000430193247
 21
19.7
  0
ENDBLK
  5
8C
330
8A
100
AcDbEntity
  8
0
100
AcDbBlockEnd
  0
BLOCK
  5
8E
330
8D
100
AcDbEntity
  8
0
100
AcDbBlockBegin
  2
*D10
 70
    1
 10
0
 20
0
  3
*D10
  1

  0
LINE
  5
120
100
AcDbEntity
  8
rozmir_zagib
  6
ByBlock
 62
    0
370
   -2
100
AcDbLine
 10
41.89999999999998
 20
80
 11
41.89999999999998
 21
61.6
  0
SOLID
  5
121
100
AcDbEntity
  8
rozmir_zagib
  6
ByBlock
 62
    0
370
   -2
100
AcDbTrace
 10
41.89999999999998
 20
80
 30
0
 11
42.39954158932738
 21
77
 31
0
 12
41.40045841067257
 22
77
 32
0
 13
41.40045841067257
 23
77
 33
0
  0
SOLID
  5
122
100
AcDbEntity
  8
rozmir_zagib
  6
ByBlock
 62
    0
370
   -2
100
AcDbTrace
 10
41.89999999999998
 20
61.6
 30
0
 11
41.40045841067257
 21
64.59999999999999
 31
0
 12
42.39954158932738
 22
64.59999999999999
 32
0
 13
42.39954158932738
 23
64.59999999999999
 33
0
  0
MTEXT
  5
123
100
AcDbEntity
  8
rozmir_zagib
  6
CONTINUOUS
 62
    0
370
   -2
100
AcDbMText
 10
39.14999999999998
 20
70.8
 30
0
 40
3.5
 41
7.972222222222221
 71
    5
 72
    1
  1
18,4
  7
standard
210
0
220
0
230
1
 50
90
 73
    2
 44
1
  0
LINE
  5
124
100
AcDbEntity
  8
rozmir_zagib
  6
ByBlock
 62
    0
370
   -2
100
AcDbLine
 10
45.6
 20
80
 11
39.89999999999998
 21
80
  0
LINE
  5
125
100
AcDbEntity
  8
rozmir_zagib
  6
ByBlock
 62
    0
370
   -2
100
AcDbLine
 10
44
 20
61.6
 11
39.89999999999998
 21
61.6
  0
ENDBLK
  5
8F
330
8D
100
AcDbEntity
  8
0
100
AcDbBlockEnd
  0
BLOCK
  5
91
330
90
100
AcDbEntity
  8
0
100
AcDbBlockBegin
  2
*D14
 70
    1
 10
0
 20
0
  3
*D14
  1

  0
LINE
  5
126
100
AcDbEntity
  8
rozmir_zagib
  6
ByBlock
 62
    0
370
   -2
100
AcDbLine
 10
86.89999999999998
 20
77
 11
86.89999999999998
 21
61.6
  0
SOLID
  5
127
100
AcDbEntity
  8
rozmir_zagib
  6
ByBlock
 62
    0
370
   -2
100
AcDbTrace
 10
86.89999999999998
 20
77
 30
0
 11
87.39954158932738
 21
74
 31
0
 12
86.40045841067257
 22
74
 32
0
 13
86.40045841067257
 23
74
 33
0
  0
SOLID
  5
128
100
AcDbEntity
  8
rozmir_zagib
  6
ByBlock
 62
    0
370
   -2
100
AcDbTrace
 10
86.89999999999998
 20
61.6
 30
0
 11
86.40045841067257
 21
64.59999999999999
 31
0
 12
87.39954158932738
 22
64.59999999999999
 32
0
 13
87.39954158932738
 23
64.59999999999999
 33
0
  0
MTEXT
  5
129
100
AcDbEntity
  8
rozmir_zagib
  6
CONTINUOUS
 62
    0
370
   -2
100
AcDbMText
 10
84.14999999999998
 20
69.3
 30
0
 40
3.5
 41
7.97222222222244
 71
    5
 72
    1
  1
15,4
  7
standard
210
0
220
0
230
1
 50
90
 73
    2
 44
1
  0
LINE
  5
12A
100
AcDbEntity
  8
rozmir_zagib
  6
ByBlock
 62
    0
370
   -2
100
AcDbLine
 10
90.59999999999999
 20
77
 11
84.89999999999998
 21
77
  0
LINE
  5
12B
100
AcDbEntity
  8
rozmir_zagib
  6
ByBlock
 62
    0
370
   -2
100
AcDbLine
 10
89
 20
61.6
 11
84.89999999999998
 21
61.6
  0
ENDBLK
  5
92
330
90
100
AcDbEntity
  8
0
100
AcDbBlockEnd
  0
BLOCK
  5
94
330
93
100
AcDbEntity
  8
0
100
AcDbBlockBegin
  2
*D12
 70
    1
 10
0
 20
0
  3
*D12
  1

  0
LINE
  5
12C
100
AcDbEntity
  8
rozmir_zagib
  6
ByBlock
 62
    0
370
   -2
100
AcDbLine
 10
69.29999999999998
 20
60
 11
69.29999999999998
 21
78.40000000000001
  0
SOLID
  5
12D
100
AcDbEntity
  8
rozmir_zagib
  6
ByBlock
 62
    0
370
   -2
100
AcDbTrace
 10
69.29999999999998
 20
60
 30
0
 11
68.80045841067258
 21
63
 31
0
 12
69.79954158932739
 22
63
 32
0
 13
69.79954158932739
 23
63
 33
0
  0
SOLID
  5
12E
100
AcDbEntity
  8
rozmir_zagib
  6
ByBlock
 62
    0
370
   -2
100
AcDbTrace
 10
69.29999999999998
 20
78.40000000000001
 30
0
 11
69.79954158932739
 21
75.40000000000001
 31
0
 12
68.80045841067258
 22
75.40000000000001
 32
0
 13
68.80045841067258
 23
75.40000000000001
 33
0
  0
MTEXT
  5
12F
100
AcDbEntity
  8
rozmir_zagib
  6
CONTINUOUS
 62
    0
370
   -2
100
AcDbMText
 10
66.54999999999998
 20
69.2
 30
0
 40
3.5
 41
7.972222222222221
 71
    5
 72
    1
  1
18,4
  7
standard
210
0
220
0
230
1
 50
90
 73
    2
 44
1
  0
LINE
  5
130
100
AcDbEntity
  8
rozmir_zagib
  6
ByBlock
 62
    0
370
   -2
100
AcDbLine
 10
62.40000000000001
 20
60
 11
71.29999999999998
 21
60
  0
LINE
  5
131
100
AcDbEntity
  8
rozmir_zagib
  6
ByBlock
 62
    0
370
   -2
100
AcDbLine
 10
64
 20
78.40000000000001
 11
71.29999999999998
 21
78.40000000000001
  0
ENDBLK
  5
95
330
93
100
AcDbEntity
  8
0
100
AcDbBlockEnd
  0
BLOCK
  5
97
330
96
100
AcDbEntity
  8
0
100
AcDbBlockBegin
  2
*D13
 70
    1
 10
0
 20
0
  3
*D13
  1

  0
LINE
  5
132
100
AcDbEntity
  8
rozmir
  6
ByBlock
 62
    0
370
   -2
100
AcDbLine
 10
80
 20
76.99999999999999
 11
80
 21
60
  0
SOLID
  5
133
100
AcDbEntity
  8
rozmir
  6
ByBlock
 62
    0
370
   -2
100
AcDbTrace
 10
80
 20
76.99999999999999
 30
0
 11
80.49954158932741
 21
73.99999999999999
 31
0
 12
79.50045841067259
 22
73.99999999999999
 32
0
 13
79.50045841067259
 23
73.99999999999999
 33
0
  0
SOLID
  5
134
100
AcDbEntity
  8
rozmir
  6
ByBlock
 62
    0
370
   -2
100
AcDbTrace
 10
80
 20
60
 30
0
 11
79.50045841067259
 21
63
 31
0
 12
80.49954158932741
 22
63
 32
0
 13
80.49954158932741
 23
63
 33
0
  0
MTEXT
  5
135
100
AcDbEntity
  8
rozmir
  6
CONTINUOUS
 62
    0
370
   -2
100
AcDbMText
 10
77.25
 20
68.5
 30
0
 40
3.5
 41
3.5
 71
    5
 72
    1
  1
17
  7
standard
210
0
220
0
230
1
 50
90
 73
    2
 44
1
  0
LINE
  5
136
100
AcDbEntity
  8
rozmir
  6
ByBlock
 62
    0
370
   -2
100
AcDbLine
 10
90.69999999999999
 20
76.99999999999999
 11
78
 21
76.99999999999999
  0
LINE
  5
137
100
AcDbEntity
  8
rozmir
  6
ByBlock
 62
    0
370
   -2
100
AcDbLine
 10
90.69999999999999
 20
60
 11
78
 21
60
  0
ENDBLK
  5
98
330
96
100
AcDbEntity
  8
0
100
AcDbBlockEnd
  0
BLOCK
  5
9A
330
99
100
AcDbEntity
  8
0
100
AcDbBlockBegin
  2
*D4
 70
    1
 10
0
 20
0
  3
*D4
  1

  0
LINE
  5
138
100
AcDbEntity
  8
rozmir
  6
ByBlock
 62
    0
370
   -2
100
AcDbLine
 10
-2.842170943040401e-14
 20
81
 11
18
 21
81
  0
SOLID
  5
139
100
AcDbEntity
  8
rozmir
  6
ByBlock
 62
    0
370
   -2
100
AcDbTrace
 10
-2.842170943040401e-14
 20
81
 30
0
 11
2.999999999999972
 21
81.49954158932741
 31
0
 12
2.999999999999972
 22
80.50045841067259
 32
0
 13
2.999999999999972
 23
80.50045841067259
 33
0
  0
SOLID
  5
13A
100
AcDbEntity
  8
rozmir
  6
ByBlock
 62
    0
370
   -2
100
AcDbTrace
 10
18
 20
81
 30
0
 11
15
 21
80.50045841067259
 31
0
 12
15
 22
81.49954158932741
 32
0
 13
15
 23
81.49954158932741
 33
0
  0
MTEXT
  5
13B
100
AcDbEntity
  8
rozmir
  6
CONTINUOUS
 62
    0
370
   -2
100
AcDbMText
 10
8.999999999999986
 20
83.75
 30
0
 40
3.5
 41
3.5
 71
    5
 72
    1
  1
18
  7
standard
210
0
220
0
230
1
 50
0
 73
    2
 44
1
  0
LINE
  5
13C
100
AcDbEntity
  8
rozmir
  6
ByBlock
 62
    0
370
   -2
100
AcDbLine
 10
-2.836047709044664e-14
 20
71.29999982013832
 11
-2.829924475048927e-14
 21
83
  0
LINE
  5
13D
100
AcDbEntity
  8
rozmir
  6
ByBlock
 62
    0
370
   -2
100
AcDbLine
 10
18
 20
71.39999610137923
 11
18
 21
83
  0
ENDBLK
  5
9B
330
99
100
AcDbEntity
  8
0
100
AcDbBlockEnd
  0
BLOCK
  5
9D
330
9C
100
AcDbEntity
  8
0
100
AcDbBlockBegin
  2
*D22
 70
    1
 10
0
 20
0
  3
*D22
  1

  0
LINE
  5
13E
100
AcDbEntity
  8
rozmir
  6
ByBlock
 62
    0
370
   -2
100
AcDbLine
 10
-2.842170943040401e-14
 20
37
 11
33
 21
37
  0
SOLID
  5
13F
100
AcDbEntity
  8
rozmir
  6
ByBlock
 62
    0
370
   -2
100
AcDbTrace
 10
-2.842170943040401e-14
 20
37
 30
0
 11
2.999999999999972
 21
37.49954158932741
 31
0
 12
2.999999999999972
 22
36.50045841067259
 32
0
 13
2.999999999999972
 23
36.50045841067259
 33
0
  0
SOLID
  5
140
100
AcDbEntity
  8
rozmir
  6
ByBlock
 62
    0
370
   -2
100
AcDbTrace
 10
33
 20
37
 30
0
 11
30
 21
36.50045841067259
 31
0
 12
30
 22
37.49954158932741
 32
0
 13
30
 23
37.49954158932741
 33
0
  0
MTEXT
  5
141
100
AcDbEntity
  8
rozmir
  6
CONTINUOUS
 62
    0
370
   -2
100
AcDbMText
 10
16.49999999999999
 20
39.75
 30
0
 40
3.5
 41
4.277777777778212
 71
    5
 72
    1
  1
33
  7
standard
210
0
220
0
230
1
 50
0
 73
    2
 44
1
  0
LINE
  5
142
100
AcDbEntity
  8
rozmir
  6
ByBlock
 62
    0
370
   -2
100
AcDbLine
 10
-2.836047709044664e-14
 20
27.29999982013832
 11
-2.829924475048927e-14
 21
39
  0
LINE
  5
143
100
AcDbEntity
  8
rozmir
  6
ByBlock
 62
    0
370
   -2
100
AcDbLine
 10
33
 20
27.39999610137923
 11
33
 21
39
  0
ENDBLK
  5
9E
330
9C
100
AcDbEntity
  8
0
100
AcDbBlockEnd
  0
BLOCK
  5
A0
330
9F
100
AcDbEntity
  8
0
100
AcDbBlockBegin
  2
*D26
 70
    1
 10
0
 20
0
  3
*D26
  1

  0
LINE
  5
144
100
AcDbEntity
  8
rozmir
  6
ByBlock
 62
    0
370
   -2
100
AcDbLine
 10
50
 20
14.99999999999999
 11
50
 21
8.313350008393164e-16
  0
SOLID
  5
145
100
AcDbEntity
  8
rozmir
  6
ByBlock
 62
    0
370
   -2
100
AcDbTrace
 10
50
 20
14.99999999999999
 30
0
 11
50.49954158932741
 21
11.99999999999999
 31
0
 12
49.50045841067259
 22
11.99999999999999
 32
0
 13
49.50045841067259
 23
11.99999999999999
 33
0
  0
SOLID
  5
146
100
AcDbEntity
  8
rozmir
  6
ByBlock
 62
    0
370
   -2
100
AcDbTrace
 10
50
 20
8.313350008393164e-16
 30
0
 11
49.50045841067259
 21
3.000000000000001
 31
0
 12
50.49954158932741
 22
3.000000000000001
 32
0
 13
50.49954158932741
 23
3.000000000000001
 33
0
  0
MTEXT
  5
147
100
AcDbEntity
  8
rozmir
  6
CONTINUOUS
 62
    0
370
   -2
100
AcDbMText
 10
47.25
 20
7.499999999999993
 30
0
 40
3.5
 41
3.500000000000217
 71
    5
 72
    1
  1
15
  7
standard
210
0
220
0
230
1
 50
90
 73
    2
 44
1
  0
LINE
  5
148
100
AcDbEntity
  8
rozmir
  6
ByBlock
 62
    0
370
   -2
100
AcDbLine
 10
60.69999999999999
 20
14.99999999999999
 11
48
 21
14.99999999999999
  0
LINE
  5
149
100
AcDbEntity
  8
rozmir
  6
ByBlock
 62
    0
370
   -2
100
AcDbLine
 10
60.69999999999999
 20
1.224646799147353e-16
 11
48
 21
1.076264360668787e-15
  0
ENDBLK
  5
A1
330
9F
100
AcDbEntity
  8
0
100
AcDbBlockEnd
  0
BLOCK
  5
A3
330
A2
100
AcDbEntity
  8
0
100
AcDbBlockBegin
  2
*D7
 70
    1
 10
0
 20
0
  3
*D7
  1

  0
LINE
  5
14A
100
AcDbEntity
  8
rozmir_zagib
  6
ByBlock
 62
    0
370
   -2
100
AcDbLine
 10
44.99999999999997
 20
53.7
 11
61.40000000000001
 21
53.7
  0
SOLID
  5
14B
100
AcDbEntity
  8
rozmir_zagib
  6
ByBlock
 62
    0
370
   -2
100
AcDbTrace
 10
44.99999999999997
 20
53.7
 30
0
 11
47.99999999999997
 21
54.19954158932741
 31
0
 12
47.99999999999997
 22
53.2004584106726
 32
0
 13
47.99999999999997
 23
53.2004584106726
 33
0
  0
SOLID
  5
14C
100
AcDbEntity
  8
rozmir_zagib
  6
ByBlock
 62
    0
370
   -2
100
AcDbTrace
 10
61.40000000000001
 20
53.7
 30
0
 11
58.40000000000001
 21
53.2004584106726
 31
0
 12
58.40000000000001
 22
54.19954158932741
 32
0
 13
58.40000000000001
 23
54.19954158932741
 33
0
  0
MTEXT
  5
14D
100
AcDbEntity
  8
rozmir_zagib
  6
CONTINUOUS
 62
    0
370
   -2
100
AcDbMText
 10
53.19999999999999
 20
56.45
 30
0
 40
3.5
 41
7.97222222222244
 71
    5
 72
    1
  1
16,4
  7
standard
210
0
220
0
230
1
 50
0
 73
    2
 44
1
  0
LINE
  5
14E
100
AcDbEntity
  8
rozmir_zagib
  6
ByBlock
 62
    0
370
   -2
100
AcDbLine
 10
44.99999999999997
 20
60.7
 11
44.99999999999997
 21
51.7
  0
LINE
  5
14F
100
AcDbEntity
  8
rozmir_zagib
  6
ByBlock
 62
    0
370
   -2
100
AcDbLine
 10
61.40000000000001
 20
59
 11
61.40000000000001
 21
51.7
  0
ENDBLK
  5
A4
330
A2
100
AcDbEntity
  8
0
100
AcDbBlockEnd
  0
BLOCK
  5
A6
330
A5
100
AcDbEntity
  8
0
100
AcDbBlockBegin
  2
*D2
 70
    1
 10
0
 20
0
  3
*D2
  1

  0
LINE
  5
150
100
AcDbEntity
  8
rozmir
  6
ByBlock
 62
    0
370
   -2
100
AcDbLine
 10
-10
 20
71.99999999999999
 11
-10
 21
60
  0
SOLID
  5
151
100
AcDbEntity
  8
rozmir
  6
ByBlock
 62
    0
370
   -2
100
AcDbTrace
 10
-10
 20
71.99999999999999
 30
0
 11
-9.500458410672591
 21
68.99999999999999
 31
0
 12
-10.49954158932741
 22
68.99999999999999
 32
0
 13
-10.49954158932741
 23
68.99999999999999
 33
0
  0
SOLID
  5
152
100
AcDbEntity
  8
rozmir
  6
ByBlock
 62
    0
370
   -2
100
AcDbTrace
 10
-10
 20
60
 30
0
 11
-10.49954158932741
 21
63
 31
0
 12
-9.500458410672591
 22
63
 32
0
 13
-9.500458410672591
 23
63
 33
0
  0
MTEXT
  5
153
100
AcDbEntity
  8
rozmir
  6
CONTINUOUS
 62
    0
370
   -2
100
AcDbMText
 10
-12.75
 20
66
 30
0
 40
3.5
 41
3.5
 71
    5
 72
    1
  1
12
  7
standard
210
0
220
0
230
1
 50
90
 73
    2
 44
1
  0
LINE
  5
154
100
AcDbEntity
  8
rozmir
  6
ByBlock
 62
    0
370
   -2
100
AcDbLine
 10
0.6999999999999886
 20
71.99999999999999
 11
-12
 21
71.99999999999999
  0
LINE
  5
155
100
AcDbEntity
  8
rozmir
  6
ByBlock
 62
    0
370
   -2
100
AcDbLine
 10
0.6999999999999886
 20
60
 11
-12
 21
60
  0
ENDBLK
  5
A7
330
A5
100
AcDbEntity
  8
0
100
AcDbBlockEnd
  0
BLOCK
  5
A9
330
A8
100
AcDbEntity
  8
0
100
AcDbBlockBegin
  2
*D9
 70
    1
 10
0
 20
0
  3
*D9
  1

  0
LINE
  5
156
100
AcDbEntity
  8
rozmir
  6
ByBlock
 62
    0
370
   -2
100
AcDbLine
 10
35
 20
79.99999999999999
 11
35
 21
60
  0
SOLID
  5
157
100
AcDbEntity
  8
rozmir
  6
ByBlock
 62
    0
370
   -2
100
AcDbTrace
 10
35
 20
79.99999999999999
 30
0
 11
35.49954158932741
 21
76.99999999999999
 31
0
 12
34.50045841067259
 22
76.99999999999999
 32
0
 13
34.50045841067259
 23
76.99999999999999
 33
0
  0
SOLID
  5
158
100
AcDbEntity
  8
rozmir
  6
ByBlock
 62
    0
370
   -2
100
AcDbTrace
 10
35
 20
60
 30
0
 11
34.50045841067259
 21
63
 31
0
 12
35.49954158932741
 22
63
 32
0
 13
35.49954158932741
 23
63
 33
0
  0
MTEXT
  5
159
100
AcDbEntity
  8
rozmir
  6
CONTINUOUS
 62
    0
370
   -2
100
AcDbMText
 10
32.25
 20
70
 30
0
 40
3.5
 41
4.277777777777779
 71
    5
 72
    1
  1
20
  7
standard
210
0
220
0
230
1
 50
90
 73
    2
 44
1
  0
LINE
  5
15A
100
AcDbEntity
  8
rozmir
  6
ByBlock
 62
    0
370
   -2
100
AcDbLine
 10
45.69999999999999
 20
79.99999999999999
 11
33
 21
79.99999999999999
  0
LINE
  5
15B
100
AcDbEntity
  8
rozmir
  6
ByBlock
 62
    0
370
   -2
100
AcDbLine
 10
45.69999999999999
 20
60
 11
33
 21
60
  0
ENDBLK
  5
AA
330
A8
100
AcDbEntity
  8
0
100
AcDbBlockEnd
  0
BLOCK
  5
AC
330
AB
100
AcDbEntity
  8
0
100
AcDbBlockBegin
  2
*D18
 70
    1
 10
0
 20
0
  3
*D18
  1

  0
LINE
  5
15C
100
AcDbEntity
  8
rozmir_zagib
  6
ByBlock
 62
    0
370
   -2
100
AcDbLine
 10
105.2
 20
79.7
 11
85.70000430193247
 21
79.7
  0
SOLID
  5
15D
100
AcDbEntity
  8
rozmir_zagib
  6
ByBlock
 62
    0
370
   -2
100
AcDbTrace
 10
99.20000000000002
 20
79.7
 30
0
 11
102.2
 21
80.19954158932741
 31
0
 12
102.2
 22
79.2004584106726
 32
0
 13
102.2
 23
79.2004584106726
 33
0
  0
SOLID
  5
15E
100
AcDbEntity
  8
rozmir_zagib
  6
ByBlock
 62
    0
370
   -2
100
AcDbTrace
 10
91.70000430193247
 20
79.7
 30
0
 11
88.70000430193247
 21
79.2004584106726
 31
0
 12
88.70000430193247
 22
80.19954158932741
 32
0
 13
88.70000430193247
 23
80.19954158932741
 33
0
  0
MTEXT
  5
15F
100
AcDbEntity
  8
rozmir_zagib
  6
CONTINUOUS
 62
    0
370
   -2
100
AcDbMText
 10
95.45000215096624
 20
82.45
 30
0
 40
3.5
 41
5.638888888889106
 71
    5
 72
    1
  1
7,5
  7
standard
210
0
220
0
230
1
 50
360
 73
    2
 44
1
  0
LINE
  5
160
100
AcDbEntity
  8
rozmir_zagib
  6
ByBlock
 62
    0
370
   -2
100
AcDbLine
 10
99.20000000000002
 20
78
 11
99.20000000000002
 21
81.7
  0
LINE
  5
161
100
AcDbEntity
  8
rozmir_zagib
  6
ByBlock
 62
    0
370
   -2
100
AcDbLine
 10
91.70000430193247
 20
78.00000000000003
 11
91.70000430193247
 21
81.7
  0
ENDBLK
  5
AD
330
AB
100
AcDbEntity
  8
0
100
AcDbBlockEnd
  0
ENDSEC
  0
SECTION
  2
ENTITIES
  0
HATCH
  5
162
100
AcDbEntity
  8
metal
  6
ByLayer
 62
  256
370
   -1
100
AcDbHatch
 10
0
 20
0
 30
0
210
0
220
0
230
1
  2
SOLID
 70
    1
 71
    0
 91
    1
 92
    0
 93
    1
 72
    2
 10
1.199999999999989
 20
61.2
 40
0.4000000000000004
 50
0
 51
360
 73
    1
 97
    0
 75
    0
 76
    1
 98
    0
  0
HATCH
  5
163
100
AcDbEntity
  8
metal
  6
ByLayer
 62
  256
370
   -1
100
AcDbHatch
 10
0
 20
0
 30
0
210
0
220
0
230
1
  2
SOLID
 70
    1
 71
    0
 91
    1
 92
    0
 93
    1
 72
    2
 10
16.79999999999998
 20
61.2
 40
0.4000000000000004
 50
0
 51
360
 73
    1
 97
    0
 75
    0
 76
    1
 98
    0
  0
HATCH
  5
164
100
AcDbEntity
  8
metal
  6
ByLayer
 62
  256
370
   -1
100
AcDbHatch
 10
0
 20
0
 30
0
210
0
220
0
230
1
  2
SOLID
 70
    1
 71
    0
 91
    1
 92
    0
 93
    1
 72
    2
 10
16.79999999999998
 20
70.8
 40
0.4000000000000021
 50
0
 51
360
 73
    1
 97
    0
 75
    0
 76
    1
 98
    0
  0
HATCH
  5
165
100
AcDbEntity
  8
metal
  6
ByLayer
 62
  256
370
   -1
100
AcDbHatch
 10
0
 20
0
 30
0
210
0
220
0
230
1
  2
SOLID
 70
    1
 71
    0
 91
    1
 92
    0
 93
    1
 72
    2
 10
1.199999999999989
 20
70.80000000000001
 40
0.4000000000000021
 50
0
 51
360
 73
    1
 97
    0
 75
    0
 76
    1
 98
    0
  0
HATCH
  5
166
100
AcDbEntity
  8
metal
  6
ByLayer
 62
  256
370
   -1
100
AcDbHatch
 10
0
 20
0
 30
0
210
0
220
0
230
1
  2
SOLID
 70
    1
 71
    0
 91
    1
 92
    0
 93
    1
 72
    2
 10
61.79999999999998
 20
61.2
 40
0.4000000000000004
 50
0
 51
360
 73
    1
 97
    0
 75
    0
 76
    1
 98
    0
  0
HATCH
  5
167
100
AcDbEntity
  8
metal
  6
ByLayer
 62
  256
370
   -1
100
AcDbHatch
 10
0
 20
0
 30
0
210
0
220
0
230
1
  2
SOLID
 70
    1
 71
    0
 91
    1
 92
    0
 93
    1
 72
    2
 10
46.19999999999999
 20
61.2
 40
0.4000000000000004
 50
0
 51
360
 73
    1
 97
    0
 75
    0
 76
    1
 98
    0
  0
HATCH
  5
168
100
AcDbEntity
  8
metal
  6
ByLayer
 62
  256
370
   -1
100
AcDbHatch
 10
0
 20
0
 30
0
210
0
220
0
230
1
  2
SOLID
 70
    1
 71
    0
 91
    1
 92
    0
 93
    1
 72
    2
 10
61.79999999999998
 20
78.8
 40
0.4000000000000021
 50
0
 51
360
 73
    1
 97
    0
 75
    0
 76
    1
 98
    0
  0
HATCH
  5
169
100
AcDbEntity
  8
metal
  6
ByLayer
 62
  256
370
   -1
100
AcDbHatch
 10
0
 20
0
 30
0
210
0
220
0
230
1
  2
SOLID
 70
    1
 71
    0
 91
    1
 92
    0
 93
    1
 72
    2
 10
46.19999999999999
 20
78.80000000000001
 40
0.4000000000000021
 50
0
 51
360
 73
    1
 97
    0
 75
    0
 76
    1
 98
    0
  0
HATCH
  5
16A
100
AcDbEntity
  8
metal
  6
ByLayer
 62
  256
370
   -1
100
AcDbHatch
 10
0
 20
0
 30
0
210
0
220
0
230
1
  2
SOLID
 70
    1
 71
    0
 91
    1
 92
    0
 93
    1
 72
    2
 10
91.19999999999999
 20
61.2
 40
0.4000000000000004
 50
0
 51
360
 73
    1
 97
    0
 75
    0
 76
    1
 98
    0
  0
HATCH
  5
16B
100
AcDbEntity
  8
metal
  6
ByLayer
 62
  256
370
   -1
100
AcDbHatch
 10
0
 20
0
 30
0
210
0
220
0
230
1
  2
SOLID
 70
    1
 71
    0
 91
    1
 92
    0
 93
    1
 72
    2
 10
91.19999999999999
 20
75.80000000000001
 40
0.4000000000000021
 50
0
 51
360
 73
    1
 97
    0
 75
    0
 76
    1
 98
    0
  0
HATCH
  5
16C
100
AcDbEntity
  8
metal
  6
ByLayer
 62
  256
370
   -1
100
AcDbHatch
 10
0
 20
0
 30
0
210
0
220
0
230
1
  2
SOLID
 70
    1
 71
    0
 91
    1
 92
    0
 93
    1
 72
    2
 10
101.8
 20
75.8
 40
0.4000000000000021
 50
0
 51
360
 73
    1
 97
    0
 75
    0
 76
    1
 98
    0
  0
HATCH
  5
16D
100
AcDbEntity
  8
metal
  6
ByLayer
 62
  256
370
   -1
100
AcDbHatch
 10
0
 20
0
 30
0
210
0
220
0
230
1
  2
SOLID
 70
    1
 71
    0
 91
    1
 92
    0
 93
    1
 72
    2
 10
101.8
 20
61.2
 40
0.4000000000000004
 50
0
 51
360
 73
    1
 97
    0
 75
    0
 76
    1
 98
    0
  0
HATCH
  5
16E
100
AcDbEntity
  8
metal
  6
ByLayer
 62
  256
370
   -1
100
AcDbHatch
 10
0
 20
0
 30
0
210
0
220
0
230
1
  2
SOLID
 70
    1
 71
    0
 91
    1
 92
    0
 93
    1
 72
    2
 10
1.199999999999989
 20
1.200000000000003
 40
0.4000000000000004
 50
0
 51
360
 73
    1
 97
    0
 75
    0
 76
    1
 98
    0
  0
HATCH
  5
16F
100
AcDbEntity
  8
metal
  6
ByLayer
 62
  256
370
   -1
100
AcDbHatch
 10
0
 20
0
 30
0
210
0
220
0
230
1
  2
SOLID
 70
    1
 71
    0
 91
    1
 92
    0
 93
    1
 72
    2
 10
1.199999999999989
 20
26.80000000000001
 40
0.4000000000000021
 50
0
 51
360
 73
    1
 97
    0
 75
    0
 76
    1
 98
    0
  0
HATCH
  5
170
100
AcDbEntity
  8
metal
  6
ByLayer
 62
  256
370
   -1
100
AcDbHatch
 10
0
 20
0
 30
0
210
0
220
0
230
1
  2
SOLID
 70
    1
 71
    0
 91
    1
 92
    0
 93
    1
 72
    2
 10
31.79999999999998
 20
26.8
 40
0.4000000000000021
 50
0
 51
360
 73
    1
 97
    0
 75
    0
 76
    1
 98
    0
  0
HATCH
  5
171
100
AcDbEntity
  8
metal
  6
ByLayer
 62
  256
370
   -1
100
AcDbHatch
 10
0
 20
0
 30
0
210
0
220
0
230
1
  2
SOLID
 70
    1
 71
    0
 91
    1
 92
    0
 93
    1
 72
    2
 10
31.79999999999998
 20
1.200000000000003
 40
0.4000000000000004
 50
0
 51
360
 73
    1
 97
    0
 75
    0
 76
    1
 98
    0
  0
HATCH
  5
172
100
AcDbEntity
  8
metal
  6
ByLayer
 62
  256
370
   -1
100
AcDbHatch
 10
0
 20
0
 30
0
210
0
220
0
230
1
  2
SOLID
 70
    1
 71
    0
 91
    1
 92
    0
 93
    1
 72
    2
 10
91.79999999999998
 20
1.200000000000003
 40
0.4000000000000004
 50
0
 51
360
 73
    1
 97
    0
 75
    0
 76
    1
 98
    0
  0
HATCH
  5
173
100
AcDbEntity
  8
metal
  6
ByLayer
 62
  256
370
   -1
100
AcDbHatch
 10
0
 20
0
 30
0
210
0
220
0
230
1
  2
SOLID
 70
    1
 71
    0
 91
    1
 92
    0
 93
    1
 72
    2
 10
61.19999999999999
 20
1.200000000000003
 40
0.4000000000000004
 50
0
 51
360
 73
    1
 97
    0
 75
    0
 76
    1
 98
    0
  0
HATCH
  5
174
100
AcDbEntity
  8
metal
  6
ByLayer
 62
  256
370
   -1
100
AcDbHatch
 10
0
 20
0
 30
0
210
0
220
0
230
1
  2
SOLID
 70
    1
 71
    0
 91
    1
 92
    0
 93
    1
 72
    2
 10
91.79999999999998
 20
13.8
 40
0.4000000000000021
 50
0
 51
360
 73
    1
 97
    0
 75
    0
 76
    1
 98
    0
  0
HATCH
  5
175
100
AcDbEntity
  8
metal
  6
ByLayer
 62
  256
370
   -1
100
AcDbHatch
 10
0
 20
0
 30
0
210
0
220
0
230
1
  2
SOLID
 70
    1
 71
    0
 91
    1
 92
    0
 93
    1
 72
    2
 10
61.19999999999999
 20
13.80000000000001
 40
0.4000000000000021
 50
0
 51
360
 73
    1
 97
    0
 75
    0
 76
    1
 98
    0
  0
CIRCLE
  5
176
100
AcDbEntity
  8
metal
  6
ByLayer
 62
  256
370
   -1
100
AcDbCircle
 10
1.199999999999989
 20
61.2
 40
0.4000000000000004
  0
CIRCLE
  5
177
100
AcDbEntity
  8
metal
  6
ByLayer
 62
  256
370
   -1
100
AcDbCircle
 10
16.79999999999998
 20
61.2
 40
0.4000000000000004
  0
CIRCLE
  5
178
100
AcDbEntity
  8
metal
  6
ByLayer
 62
  256
370
   -1
100
AcDbCircle
 10
1.199999999999989
 20
70.80000000000001
 40
0.4000000000000021
  0
CIRCLE
  5
179
100
AcDbEntity
  8
metal
  6
ByLayer
 62
  256
370
   -1
100
AcDbCircle
 10
16.79999999999998
 20
70.8
 40
0.4000000000000021
  0
LINE
  5
17A
100
AcDbEntity
  8
metal
  6
ByLayer
 62
  256
370
   -1
100
AcDbLine
 10
6.500000000000002
 20
71.99999999999999
 11
6.500000000000002
 21
71.40000000000001
  0
LINE
  5
17B
100
AcDbEntity
  8
metal
  6
ByLayer
 62
  256
370
   -1
100
AcDbLine
 10
11.5
 20
71.99999999999999
 11
11.5
 21
71.40000000000001
  0
DIMENSION
  5
17C
100
AcDbEntity
  8
rozmir_zagib
  6
ByLayer
 62
  256
370
   -1
100
AcDbDimension
  2
*D1
 10
1.700004301932466
 20
74.7
 30
0
 11
6.600002150966234
 21
77.45
 31
0
 70
   32
 71
    5
  3
Standard
 53
0
210
0
220
0
230
1
100
AcDbAlignedDimension
 13
11.5
 23
72
 33
0
 14
1.700004301932466
 24
72.00000000000003
 34
0
100
AcDbRotatedDimension
  0
DIMENSION
  5
17D
100
AcDbEntity
  8
rozmir
  6
ByLayer
 62
  256
370
   -1
100
AcDbDimension
  2
*D2
 10
-10
 20
60
 30
0
 11
-12.75
 21
66
 31
0
 70
   32
 71
    5
  3
Standard
 53
0
210
0
220
0
230
1
100
AcDbAlignedDimension
 13
1.699999999999989
 23
71.99999999999999
 33
0
 14
1.699999999999989
 24
60
 34
0
 50
90
100
AcDbRotatedDimension
  0
DIMENSION
  5
17E
100
AcDbEntity
  8
rozmir_zagib
  6
ByLayer
 62
  256
370
   -1
100
AcDbDimension
  2
*D3
 10
-3.100000000000023
 20
61.7
 30
0
 11
-5.850000000000023
 21
66.8
 31
0
 70
   32
 71
    5
  3
Standard
 53
0
210
0
220
0
230
1
100
AcDbAlignedDimension
 13
1.6
 23
72
 33
0
 14
-2.775557561562891e-16
 24
61.6
 34
0
 50
90
100
AcDbRotatedDimension
  0
DIMENSION
  5
17F
100
AcDbEntity
  8
rozmir
  6
ByLayer
 62
  256
370
   -1
100
AcDbDimension
  2
*D4
 10
17.99999999999996
 20
81
 30
0
 11
8.999999999999986
 21
83.75
 31
0
 70
   32
 71
    5
  3
Standard
 53
0
210
0
220
0
230
1
100
AcDbAlignedDimension
 13
-2.842170943040401e-14
 23
70.29999982013832
 33
0
 14
18
 24
70.39999610137923
 34
0
100
AcDbRotatedDimension
  0
DIMENSION
  5
180
100
AcDbEntity
  8
rozmir_zagib
  6
ByLayer
 62
  256
370
   -1
100
AcDbDimension
  2
*D5
 10
12.89999999999998
 20
53.7
 30
0
 11
8.199999999999989
 21
56.45
 31
0
 70
   32
 71
    5
  3
Standard
 53
0
210
0
220
0
230
1
100
AcDbAlignedDimension
 13
-2.842170943040401e-14
 23
61.7
 33
0
 14
16.4
 24
60
 34
0
100
AcDbRotatedDimension
  0
DIMENSION
  5
181
100
AcDbEntity
  8
rozmir_zagib
  6
ByLayer
 62
  256
370
   -1
100
AcDbDimension
  2
*D6
 10
24.29999999999998
 20
70.10000420718525
 30
0
 11
21.54999999999998
 21
65.2
 31
0
 70
   32
 71
    5
  3
Standard
 53
0
210
0
220
0
230
1
100
AcDbAlignedDimension
 13
16.4
 23
60
 33
0
 14
18
 24
70.40000000000001
 34
0
 50
90
100
AcDbRotatedDimension
  0
LWPOLYLINE
  5
182
100
AcDbEntity
  8
metal
  6
ByLayer
 62
  256
370
   -1
100
AcDbPolyline
 90
    8
 70
    1
 43
0
 10
16.4
 20
60.6
 42
0.4142135623730955
 10
17.39999999999999
 20
61.6
 10
17.40000000000001
 20
70.40000000000001
 42
0.4142135623730976
 10
16.4
 20
71.39999999999999
 10
1.6
 20
71.40000000000001
 42
0.4142135623730929
 10
0.5999999999999962
 20
70.40000000000001
 10
0.6000000000000039
 20
61.6
 42
0.4142135623730904
 10
1.6
 20
60.6
  0
LWPOLYLINE
  5
183
100
AcDbEntity
  8
metal
  6
ByLayer
 62
  256
370
   -1
100
AcDbPolyline
 90
    8
 70
    1
 43
0
 10
16.4
 20
60
 42
0.4142135623730981
 10
18
 20
61.6
 10
17.99999999999999
 20
70.39999579281475
 42
0.4142135623730976
 10
16.4
 20
72
 10
1.600004301932421
 20
71.99999999999999
 42
0.4142135623730989
 10
7.077671781985373e-15
 20
70.40000000000001
 10
-2.220446049250313e-15
 20
61.59999999999999
 42
0.4142135623731018
 10
1.6
 20
60
  0
CIRCLE
  5
184
100
AcDbEntity
  8
metal
  6
ByLayer
 62
  256
370
   -1
100
AcDbCircle
 10
46.19999999999999
 20
61.2
 40
0.4000000000000004
  0
CIRCLE
  5
185
100
AcDbEntity
  8
metal
  6
ByLayer
 62
  256
370
   -1
100
AcDbCircle
 10
61.79999999999998
 20
61.2
 40
0.4000000000000004
  0
DIMENSION
  5
186
100
AcDbEntity
  8
rozmir_zagib
  6
ByLayer
 62
  256
370
   -1
100
AcDbDimension
  2
*D7
 10
57.89999999999998
 20
53.7
 30
0
 11
53.19999999999999
 21
56.45
 31
0
 70
   32
 71
    5
  3
Standard
 53
0
210
0
220
0
230
1
100
AcDbAlignedDimension
 13
44.99999999999997
 23
61.7
 33
0
 14
61.40000000000001
 24
60
 34
0
100
AcDbRotatedDimension
  0
CIRCLE
  5
187
100
AcDbEntity
  8
metal
  6
ByLayer
 62
  256
370
   -1
100
AcDbCircle
 10
46.19999999999999
 20
78.80000000000001
 40
0.4000000000000021
  0
CIRCLE
  5
188
100
AcDbEntity
  8
metal
  6
ByLayer
 62
  256
370
   -1
100
AcDbCircle
 10
61.79999999999998
 20
78.8
 40
0.4000000000000021
  0
LINE
  5
189
100
AcDbEntity
  8
metal
  6
ByLayer
 62
  256
370
   -1
100
AcDbLine
 10
51.5
 20
79.99999999999999
 11
51.5
 21
79.40000000000001
  0
LINE
  5
18A
100
AcDbEntity
  8
metal
  6
ByLayer
 62
  256
370
   -1
100
AcDbLine
 10
56.5
 20
79.99999999999999
 11
56.5
 21
79.40000000000001
  0
DIMENSION
  5
18B
100
AcDbEntity
  8
rozmir_zagib
  6
ByLayer
 62
  256
370
   -1
100
AcDbDimension
  2
*D8
 10
46.70000430193247
 20
82.7
 30
0
 11
51.60000215096623
 21
85.45
 31
0
 70
   32
 71
    5
  3
Standard
 53
0
210
0
220
0
230
1
100
AcDbAlignedDimension
 13
56.5
 23
80
 33
0
 14
46.70000430193247
 24
80.00000000000003
 34
0
100
AcDbRotatedDimension
  0
DIMENSION
  5
18C
100
AcDbEntity
  8
rozmir
  6
ByLayer
 62
  256
370
   -1
100
AcDbDimension
  2
*D9
 10
35
 20
60
 30
0
 11
32.25
 21
70
 31
0
 70
   32
 71
    5
  3
Standard
 53
0
210
0
220
0
230
1
100
AcDbAlignedDimension
 13
46.69999999999999
 23
79.99999999999999
 33
0
 14
46.69999999999999
 24
60
 34
0
 50
90
100
AcDbRotatedDimension
  0
DIMENSION
  5
18D
100
AcDbEntity
  8
rozmir_zagib
  6
ByLayer
 62
  256
370
   -1
100
AcDbDimension
  2
*D10
 10
41.89999999999998
 20
61.7
 30
0
 11
39.14999999999998
 21
70.8
 31
0
 70
   32
 71
    5
  3
Standard
 53
0
210
0
220
0
230
1
100
AcDbAlignedDimension
 13
46.6
 23
80
 33
0
 14
45
 24
61.6
 34
0
 50
90
100
AcDbRotatedDimension
  0
DIMENSION
  5
18E
100
AcDbEntity
  8
rozmir
  6
ByLayer
 62
  256
370
   -1
100
AcDbDimension
  2
*D11
 10
62.99999999999996
 20
89
 30
0
 11
53.99999999999999
 21
91.75
 31
0
 70
   32
 71
    5
  3
Standard
 53
0
210
0
220
0
230
1
100
AcDbAlignedDimension
 13
44.99999999999997
 23
78.29999982013832
 33
0
 14
63
 24
78.39999610137923
 34
0
100
AcDbRotatedDimension
  0
DIMENSION
  5
18F
100
AcDbEntity
  8
rozmir_zagib
  6
ByLayer
 62
  256
370
   -1
100
AcDbDimension
  2
*D12
 10
69.29999999999998
 20
70.10000420718525
 30
0
 11
66.54999999999998
 21
69.2
 31
0
 70
   32
 71
    5
  3
Standard
 53
0
210
0
220
0
230
1
100
AcDbAlignedDimension
 13
61.40000000000001
 23
60
 33
0
 14
63
 24
78.40000000000001
 34
0
 50
90
100
AcDbRotatedDimension
  0
LWPOLYLINE
  5
190
100
AcDbEntity
  8
metal
  6
ByLayer
 62
  256
370
   -1
100
AcDbPolyline
 90
    8
 70
    1
 43
0
 10
61.40000000000001
 20
60.6
 42
0.4142135623730955
 10
62.39999999999999
 20
61.6
 10
62.40000000000001
 20
78.40000000000001
 42
0.4142135623730976
 10
61.40000000000001
 20
79.40000000000001
 10
46.6
 20
79.40000000000001
 42
0.4142135623730929
 10
45.59999999999999
 20
78.40000000000001
 10
45.6
 20
61.6
 42
0.4142135623730904
 10
46.6
 20
60.6
  0
LWPOLYLINE
  5
191
100
AcDbEntity
  8
metal
  6
ByLayer
 62
  256
370
   -1
100
AcDbPolyline
 90
    8
 70
    1
 43
0
 10
61.4
 20
60
 42
0.4142135623730981
 10
63
 20
61.6
 10
62.99999999999999
 20
78.39999579281476
 42
0.4142135623730976
 10
61.40000000000001
 20
80
 10
46.60000430193242
 20
79.99999999999997
 42
0.4142135623730989
 10
45.00000000000001
 20
78.40000000000001
 10
45
 20
61.59999999999999
 42
0.4142135623731018
 10
46.6
 20
60
  0
MTEXT
  5
192
100
AcDbEntity
  8
rozmir_zagib
  6
ByLayer
 62
  256
370
   -1
100
AcDbMText
 10
45
 20
48
 30
0
 40
4
 41
17.11111111111136
 71
    4
 72
    1
  1
L = 76
  7
cyrillic_ii
210
0
220
0
230
1
 50
0
 73
    2
 44
1
  0
MTEXT
  5
193
100
AcDbEntity
  8
rozmir_zagib
  6
ByLayer
 62
  256
370
   -1
100
AcDbMText
 10
0
 20
48
 30
0
 40
4
 41
17.11111111111136
 71
    4
 72
    1
  1
L = 60
  7
cyrillic_ii
210
0
220
0
230
1
 50
0
 73
    2
 44
1
  0
CIRCLE
  5
194
100
AcDbEntity
  8
metal
  6
ByLayer
 62
  256
370
   -1
100
AcDbCircle
 10
91.19999999999999
 20
61.2
 40
0.4000000000000004
  0
CIRCLE
  5
195
100
AcDbEntity
  8
metal
  6
ByLayer
 62
  256
370
   -1
100
AcDbCircle
 10
91.19999999999999
 20
75.80000000000001
 40
0.4000000000000021
  0
DIMENSION
  5
196
100
AcDbEntity
  8
rozmir
  6
ByLayer
 62
  256
370
   -1
100
AcDbDimension
  2
*D13
 10
80
 20
60
 30
0
 11
77.25
 21
68.5
 31
0
 70
   32
 71
    5
  3
Standard
 53
0
210
0
220
0
230
1
100
AcDbAlignedDimension
 13
91.69999999999999
 23
76.99999999999999
 33
0
 14
91.69999999999999
 24
60
 34
0
 50
90
100
AcDbRotatedDimension
  0
DIMENSION
  5
197
100
AcDbEntity
  8
rozmir_zagib
  6
ByLayer
 62
  256
370
   -1
100
AcDbDimension
  2
*D14
 10
86.89999999999998
 20
61.7
 30
0
 11
84.14999999999998
 21
69.3
 31
0
 70
   32
 71
    5
  3
Standard
 53
0
210
0
220
0
230
1
100
AcDbAlignedDimension
 13
91.59999999999999
 23
77
 33
0
 14
90
 24
61.6
 34
0
 50
90
100
AcDbRotatedDimension
  0
CIRCLE
  5
198
100
AcDbEntity
  8
metal
  6
ByLayer
 62
  256
370
   -1
100
AcDbCircle
 10
101.8
 20
61.2
 40
0.4000000000000004
  0
DIMENSION
  5
199
100
AcDbEntity
  8
rozmir_zagib
  6
ByLayer
 62
  256
370
   -1
100
AcDbDimension
  2
*D15
 10
102.9
 20
53.7
 30
0
 11
95.69999999999999
 21
56.45
 31
0
 70
   32
 71
    5
  3
Standard
 53
0
210
0
220
0
230
1
100
AcDbAlignedDimension
 13
89.99999999999997
 23
61.7
 33
0
 14
101.4
 24
60
 34
0
100
AcDbRotatedDimension
  0
CIRCLE
  5
19A
100
AcDbEntity
  8
metal
  6
ByLayer
 62
  256
370
   -1
100
AcDbCircle
 10
101.8
 20
75.8
 40
0.4000000000000021
  0
DIMENSION
  5
19B
100
AcDbEntity
  8
rozmir
  6
ByLayer
 62
  256
370
   -1
100
AcDbDimension
  2
*D16
 10
108
 20
86
 30
0
 11
96.49999999999999
 21
88.75
 31
0
 70
   32
 71
    5
  3
Standard
 53
0
210
0
220
0
230
1
100
AcDbAlignedDimension
 13
89.99999999999997
 23
75.29999982013832
 33
0
 14
103
 24
75.39999610137923
 34
0
100
AcDbRotatedDimension
  0
DIMENSION
  5
19C
100
AcDbEntity
  8
rozmir_zagib
  6
ByLayer
 62
  256
370
   -1
100
AcDbDimension
  2
*D17
 10
109.3
 20
70.10000420718525
 30
0
 11
106.55
 21
67.7
 31
0
 70
   32
 71
    5
  3
Standard
 53
0
210
0
220
0
230
1
100
AcDbAlignedDimension
 13
101.4
 23
60
 33
0
 14
103
 24
75.40000000000001
 34
0
 50
90
100
AcDbRotatedDimension
  0
LWPOLYLINE
  5
19D
100
AcDbEntity
  8
metal
  6
ByLayer
 62
  256
370
   -1
100
AcDbPolyline
 90
    8
 70
    1
 43
0
 10
101.4
 20
60.6
 42
0.4142135623730955
 10
102.4
 20
61.6
 10
102.4
 20
75.40000000000001
 42
0.4142135623730976
 10
101.4
 20
76.40000000000001
 10
91.60000000000001
 20
76.40000000000001
 42
0.4142135623730929
 10
90.59999999999999
 20
75.40000000000001
 10
90.60000000000001
 20
61.6
 42
0.4142135623730904
 10
91.59999999999999
 20
60.6
  0
LWPOLYLINE
  5
19E
100
AcDbEntity
  8
metal
  6
ByLayer
 62
  256
370
   -1
100
AcDbPolyline
 90
    8
 70
    1
 43
0
 10
101.4
 20
60
 42
0.4142135623730981
 10
103
 20
61.6
 10
103
 20
75.39999579281476
 42
0.4142135623730976
 10
101.4
 20
77
 10
91.60000430193242
 20
76.99999999999997
 42
0.4142135623730989
 10
90
 20
75.40000000000001
 10
90
 20
61.59999999999999
 42
0.4142135623731018
 10
91.59999999999999
 20
60
  0
LINE
  5
19F
100
AcDbEntity
  8
metal
  6
ByLayer
 62
  256
370
   -1
100
AcDbLine
 10
94.20000000000002
 20
76.99999999999999
 11
94.20000000000002
 21
76.40000000000001
  0
LINE
  5
1A0
100
AcDbEntity
  8
metal
  6
ByLayer
 62
  256
370
   -1
100
AcDbLine
 10
99.20000000000002
 20
76.99999999999999
 11
99.20000000000002
 21
76.40000000000001
  0
DIMENSION
  5
1A1
100
AcDbEntity
  8
rozmir_zagib
  6
ByLayer
 62
  256
370
   -1
100
AcDbDimension
  2
*D18
 10
91.70000430193247
 20
79.7
 30
0
 11
95.45000215096624
 21
82.45
 31
0
 70
   32
 71
    5
  3
Standard
 53
0
210
0
220
0
230
1
100
AcDbAlignedDimension
 13
99.20000000000002
 23
77
 33
0
 14
91.70000430193247
 24
77.00000000000003
 34
0
100
AcDbRotatedDimension
  0
MTEXT
  5
1A2
100
AcDbEntity
  8
rozmir_zagib
  6
ByLayer
 62
  256
370
   -1
100
AcDbMText
 10
90
 20
48
 30
0
 40
4
 41
17.11111111111136
 71
    4
 72
    1
  1
L = 60
  7
cyrillic_ii
210
0
220
0
230
1
 50
0
 73
    2
 44
1
  0
CIRCLE
  5
1A3
100
AcDbEntity
  8
metal
  6
ByLayer
 62
  256
370
   -1
100
AcDbCircle
 10
1.199999999999989
 20
1.200000000000003
 40
0.4000000000000004
  0
CIRCLE
  5
1A4
100
AcDbEntity
  8
metal
  6
ByLayer
 62
  256
370
   -1
100
AcDbCircle
 10
1.199999999999989
 20
26.80000000000001
 40
0.4000000000000021
  0
DIMENSION
  5
1A5
100
AcDbEntity
  8
rozmir
  6
ByLayer
 62
  256
370
   -1
100
AcDbDimension
  2
*D19
 10
-10
 20
0
 30
0
 11
-12.75
 21
13.99999999999999
 31
0
 70
   32
 71
    5
  3
Standard
 53
0
210
0
220
0
230
1
100
AcDbAlignedDimension
 13
1.699999999999989
 23
27.99999999999999
 33
0
 14
1.699999999999989
 24
0
 34
0
 50
90
100
AcDbRotatedDimension
  0
DIMENSION
  5
1A6
100
AcDbEntity
  8
rozmir_zagib
  6
ByLayer
 62
  256
370
   -1
100
AcDbDimension
  2
*D20
 10
-3.100000000000023
 20
1.700000000000003
 30
0
 11
-5.850000000000022
 21
14.8
 31
0
 70
   32
 71
    5
  3
Standard
 53
0
210
0
220
0
230
1
100
AcDbAlignedDimension
 13
1.600000000000001
 23
28
 33
0
 14
0
 24
1.600000000000001
 34
0
 50
90
100
AcDbRotatedDimension
  0
CIRCLE
  5
1A7
100
AcDbEntity
  8
metal
  6
ByLayer
 62
  256
370
   -1
100
AcDbCircle
 10
31.79999999999998
 20
1.200000000000003
 40
0.4000000000000004
  0
DIMENSION
  5
1A8
100
AcDbEntity
  8
rozmir_zagib
  6
ByLayer
 62
  256
370
   -1
100
AcDbDimension
  2
*D21
 10
12.89999999999998
 20
-6.299999999999997
 30
0
 11
15.69999999999999
 21
-3.549999999999997
 31
0
 70
   32
 71
    5
  3
Standard
 53
0
210
0
220
0
230
1
100
AcDbAlignedDimension
 13
-2.842170943040401e-14
 23
1.700000000000003
 33
0
 14
31.40000000000001
 24
0
 34
0
100
AcDbRotatedDimension
  0
CIRCLE
  5
1A9
100
AcDbEntity
  8
metal
  6
ByLayer
 62
  256
370
   -1
100
AcDbCircle
 10
31.79999999999998
 20
26.8
 40
0.4000000000000021
  0
DIMENSION
  5
1AA
100
AcDbEntity
  8
rozmir
  6
ByLayer
 62
  256
370
   -1
100
AcDbDimension
  2
*D22
 10
17.99999999999996
 20
37
 30
0
 11
16.49999999999999
 21
39.75
 31
0
 70
   32
 71
    5
  3
Standard
 53
0
210
0
220
0
230
1
100
AcDbAlignedDimension
 13
-2.842170943040401e-14
 23
26.29999982013832
 33
0
 14
33
 24
26.39999610137923
 34
0
100
AcDbRotatedDimension
  0
LWPOLYLINE
  5
1AB
100
AcDbEntity
  8
metal
  6
ByLayer
 62
  256
370
   -1
100
AcDbPolyline
 90
    8
 70
    1
 43
0
 10
31.40000000000001
 20
0.6000000000000025
 42
0.4142135623730955
 10
32.39999999999999
 20
1.600000000000001
 10
32.40000000000001
 20
26.4
 42
0.4142135623730976
 10
31.40000000000001
 20
27.4
 10
1.600000000000003
 20
27.40000000000001
 42
0.4142135623730929
 10
0.5999999999999943
 20
26.4
 10
0.6000000000000021
 20
1.600000000000003
 42
0.4142135623730904
 10
1.600000000000001
 20
0.6000000000000014
  0
LWPOLYLINE
  5
1AC
100
AcDbEntity
  8
metal
  6
ByLayer
 62
  256
370
   -1
100
AcDbPolyline
 90
    8
 70
    1
 43
0
 10
31.4
 20
2.220446049250313e-15
 42
0.4142135623730981
 10
33
 20
1.600000000000001
 10
32.99999999999999
 20
26.39999579281475
 42
0.4142135623730976
 10
31.40000000000001
 20
28.00000000000001
 10
1.600004301932422
 20
27.99999999999998
 42
0.4142135623730989
 10
7.105427357601002e-15
 20
26.4
 10
-2.664535259100376e-15
 20
1.599999999999997
 42
0.4142135623731018
 10
1.600000000000001
 20
0
  0
DIMENSION
  5
1AD
100
AcDbEntity
  8
rozmir_zagib
  6
ByLayer
 62
  256
370
   -1
100
AcDbDimension
  2
*D23
 10
40
 20
9
 30
0
 11
37.25
 21
13.2
 31
0
 70
   32
 71
    5
  3
Standard
 53
0
210
0
220
0
230
1
100
AcDbAlignedDimension
 13
31.40000000000001
 23
0
 33
0
 14
33
 24
26.4
 34
0
 50
90
100
AcDbRotatedDimension
  0
LINE
  5
1AE
100
AcDbEntity
  8
metal
  6
ByLayer
 62
  256
370
   -1
100
AcDbLine
 10
14
 20
27.99999999999999
 11
14
 21
27.40000000000001
  0
LINE
  5
1AF
100
AcDbEntity
  8
metal
  6
ByLayer
 62
  256
370
   -1
100
AcDbLine
 10
19
 20
27.99999999999999
 11
19
 21
27.40000000000001
  0
DIMENSION
  5
1B0
100
AcDbEntity
  8
rozmir_zagib
  6
ByLayer
 62
  256
370
   -1
100
AcDbDimension
  2
*D24
 10
1.700004301932466
 20
30.7
 30
0
 11
10.35000215096623
 21
33.45
 31
0
 70
   32
 71
    5
  3
Standard
 53
0
210
0
220
0
230
1
100
AcDbAlignedDimension
 13
19
 23
28
 33
0
 14
1.700004301932466
 24
28.00000000000003
 34
0
100
AcDbRotatedDimension
  0
MTEXT
  5
1B1
100
AcDbEntity
  8
rozmir_zagib
  6
ByLayer
 62
  256
370
   -1
100
AcDbMText
 10
0
 20
-12
 30
0
 40
4
 41
19.33333333333333
 71
    4
 72
    1
  1
L = 122
  7
cyrillic_ii
210
0
220
0
230
1
 50
0
 73
    2
 44
1
  0
CIRCLE
  5
1B2
100
AcDbEntity
  8
metal
  6
ByLayer
 62
  256
370
   -1
100
AcDbCircle
 10
61.19999999999999
 20
1.200000000000003
 40
0.4000000000000004
  0
CIRCLE
  5
1B3
100
AcDbEntity
  8
metal
  6
ByLayer
 62
  256
370
   -1
100
AcDbCircle
 10
91.79999999999998
 20
1.200000000000003
 40
0.4000000000000004
  0
DIMENSION
  5
1B4
100
AcDbEntity
  8
rozmir_zagib
  6
ByLayer
 62
  256
370
   -1
100
AcDbDimension
  2
*D25
 10
72.89999999999998
 20
-6.299999999999997
 30
0
 11
75.69999999999999
 21
-3.549999999999997
 31
0
 70
   32
 71
    5
  3
Standard
 53
0
210
0
220
0
230
1
100
AcDbAlignedDimension
 13
59.99999999999997
 23
1.700000000000003
 33
0
 14
91.40000000000001
 24
0
 34
0
100
AcDbRotatedDimension
  0
CIRCLE
  5
1B5
100
AcDbEntity
  8
metal
  6
ByLayer
 62
  256
370
   -1
100
AcDbCircle
 10
61.19999999999999
 20
13.80000000000001
 40
0.4000000000000021
  0
DIMENSION
  5
1B6
100
AcDbEntity
  8
rozmir
  6
ByLayer
 62
  256
370
   -1
100
AcDbDimension
  2
*D26
 10
50
 20
0
 30
0
 11
47.25
 21
7.499999999999993
 31
0
 70
   32
 71
    5
  3
Standard
 53
0
210
0
220
0
230
1
100
AcDbAlignedDimension
 13
61.69999999999999
 23
14.99999999999999
 33
0
 14
61.69999999999999
 24
0
 34
0
 50
90
100
AcDbRotatedDimension
  0
DIMENSION
  5
1B7
100
AcDbEntity
  8
rozmir_zagib
  6
ByLayer
 62
  256
370
   -1
100
AcDbDimension
  2
*D27
 10
56.89999999999998
 20
1.700000000000003
 30
0
 11
54.14999999999998
 21
8.299999999999997
 31
0
 70
   32
 71
    5
  3
Standard
 53
0
210
0
220
0
230
1
100
AcDbAlignedDimension
 13
61.6
 23
15
 33
0
 14
60
 24
1.600000000000001
 34
0
 50
90
100
AcDbRotatedDimension
  0
CIRCLE
  5
1B8
100
AcDbEntity
  8
metal
  6
ByLayer
 62
  256
370
   -1
100
AcDbCircle
 10
91.79999999999998
 20
13.8
 40
0.4000000000000021
  0
DIMENSION
  5
1B9
100
AcDbEntity
  8
rozmir
  6
ByLayer
 62
  256
370
   -1
100
AcDbDimension
  2
*D28
 10
77.99999999999997
 20
24
 30
0
 11
76.49999999999999
 21
26.75
 31
0
 70
   32
 71
    5
  3
Standard
 53
0
210
0
220
0
230
1
100
AcDbAlignedDimension
 13
59.99999999999997
 23
13.29999982013832
 33
0
 14
93
 24
13.39999610137923
 34
0
100
AcDbRotatedDimension
  0
LWPOLYLINE
  5
1BA
100
AcDbEntity
  8
metal
  6
ByLayer
 62
  256
370
   -1
100
AcDbPolyline
 90
    8
 70
    1
 43
0
 10
91.40000000000001
 20
0.6000000000000025
 42
0.4142135623730955
 10
92.39999999999999
 20
1.600000000000001
 10
92.40000000000001
 20
13.4
 42
0.4142135623730976
 10
91.40000000000001
 20
14.4
 10
61.6
 20
14.4
 42
0.4142135623730929
 10
60.59999999999999
 20
13.4
 10
60.6
 20
1.600000000000003
 42
0.4142135623730904
 10
61.6
 20
0.6000000000000014
  0
LWPOLYLINE
  5
1BB
100
AcDbEntity
  8
metal
  6
ByLayer
 62
  256
370
   -1
100
AcDbPolyline
 90
    8
 70
    1
 43
0
 10
91.39999999999999
 20
2.220446049250313e-15
 42
0.4142135623730981
 10
93
 20
1.600000000000001
 10
92.99999999999999
 20
13.39999579281475
 42
0.4142135623730976
 10
91.40000000000001
 20
15.00000000000001
 10
61.60000430193242
 20
14.99999999999998
 42
0.4142135623730989
 10
60.00000000000001
 20
13.4
 10
60
 20
1.599999999999997
 42
0.4142135623731018
 10
61.6
 20
0
  0
DIMENSION
  5
1BC
100
AcDbEntity
  8
rozmir_zagib
  6
ByLayer
 62
  256
370
   -1
100
AcDbDimension
  2
*D29
 10
100
 20
9
 30
0
 11
97.25
 21
6.700000000000003
 31
0
 70
   32
 71
    5
  3
Standard
 53
0
210
0
220
0
230
1
100
AcDbAlignedDimension
 13
91.40000000000001
 23
0
 33
0
 14
93
 24
13.4
 34
0
 50
90
100
AcDbRotatedDimension
  0
LINE
  5
1BD
100
AcDbEntity
  8
metal
  6
ByLayer
 62
  256
370
   -1
100
AcDbLine
 10
74
 20
14.99999999999999
 11
74
 21
14.40000000000001
  0
LINE
  5
1BE
100
AcDbEntity
  8
metal
  6
ByLayer
 62
  256
370
   -1
100
AcDbLine
 10
79
 20
14.99999999999999
 11
79
 21
14.40000000000001
  0
DIMENSION
  5
1BF
100
AcDbEntity
  8
rozmir_zagib
  6
ByLayer
 62
  256
370
   -1
100
AcDbDimension
  2
*D30
 10
61.70000430193247
 20
17.7
 30
0
 11
70.35000215096623
 21
20.45
 31
0
 70
   32
 71
    5
  3
Standard
 53
0
210
0
220
0
230
1
100
AcDbAlignedDimension
 13
79
 23
15
 33
0
 14
61.70000430193247
 24
15.00000000000003
 34
0
100
AcDbRotatedDimension
  0
MTEXT
  5
1C0
100
AcDbEntity
  8
rozmir_zagib
  6
ByLayer
 62
  256
370
   -1
100
AcDbMText
 10
60
 20
-12
 30
0
 40
4
 41
17.11111111111136
 71
    4
 72
    1
  1
L = 96
  7
cyrillic_ii
210
0
220
0
230
1
 50
0
 73
    2
 44
1
  0
MTEXT
  5
1C1
100
AcDbEntity
  8
rozmir
  6
ByLayer
 62
  256
370
   -1
100
AcDbMText
 10
100
 20
-20
 30
0
 40
4
 41
19.00000000000018
 71
    7
 72
    1
  1
. 14
  7
cyrillic_ii
210
0
220
0
230
1
 50
360
 73
    2
 44
1
  0
ENDSEC
  0
SECTION
  2
OBJECTS
  0
DICTIONARY
  5
C
330
0
100
AcDbDictionary
281
    1
  3
ACAD_GROUP
350
D
  0
DICTIONARY
  5
D
330
C
100
AcDbDictionary
281
    1
  0
ENDSEC
  0
EOF
