999
dxfrw 0.6.3
  0
SECTION
  2
HEADER
  9
$ACADVER
  1
AC1021
  9
$DWGCODEPAGE
  3
ANSI_1252
  9
$INSBASE
 10
0
 20
0
 30
0
  9
$EXTMIN
 10
0
 20
-241.6666666666667
 30
0
  9
$EXTMAX
 10
1000
 20
1325.013200342358
 30
0
  9
$LIMMIN
 10
0
 20
0
  9
$LIMMAX
 10
420
 20
297
  9
$ORTHOMODE
 70
    0
  9
$REGENMODE
 70
    1
  9
$FILLMODE
 70
    1
  9
$QTEXTMODE
 70
    0
  9
$MIRRTEXT
 70
    0
  9
$LTSCALE
 40
1
  9
$ATTMODE
 70
    0
  9
$TEXTSIZE
 40
2.5
  9
$TRACEWID
 40
15.68
  9
$TEXTSTYLE
  7
STANDARD
  9
$CLAYER
  8
plyty
  9
$CELTYPE
  6
BYLAYER
  9
$CECOLOR
 62
  256
  9
$CELTSCALE
 40
1
  9
$DISPSILH
 70
    0
  9
$DIMSCALE
 40
10
  9
$DIMASZ
 40
1
  9
$DIMEXO
 40
0.2
  9
$DIMDLI
 40
3.75
  9
$DIMRND
 40
0
  9
$DIMDLE
 40
0
  9
$DIMEXE
 40
0.5
  9
$DIMTP
 40
0
  9
$DIMTM
 40
0
  9
$DIMTXT
 40
1.5
  9
$DIMCEN
 40
2.5
  9
$DIMTSZ
 40
1
  9
$DIMTOL
 70
    0
  9
$DIMLIM
 70
    0
  9
$DIMTIH
 70
    0
  9
$DIMTOH
 70
    0
  9
$DIMSE1
 70
    0
  9
$DIMSE2
 70
    0
  9
$DIMTAD
 70
    1
  9
$DIMZIN
 70
    8
  9
$DIMBLK
  1

  9
$DIMASO
 70
    1
  9
$DIMSHO
 70
    1
  9
$DIMPOST
  1

  9
$DIMAPOST
  1

  9
$DIMALT
 70
    0
  9
$DIMALTD
 70
    3
  9
$DIMALTF
 40
0.03937
  9
$DIMLFAC
 40
1
  9
$DIMTOFL
 70
    1
  9
$DIMTVP
 40
0
  9
$DIMTIX
 70
    0
  9
$DIMSOXD
 70
    0
  9
$DIMSAH
 70
    0
  9
$DIMBLK1
  1

  9
$DIMBLK2
  1

  9
$DIMSTYLE
  2
STANDARD
  9
$DIMCLRD
 70
    0
  9
$DIMCLRE
 70
    0
  9
$DIMCLRT
 70
    0
  9
$DIMTFAC
 40
1
  9
$DIMGAP
 40
0.5
  9
$DIMJUST
 70
    0
  9
$DIMSD1
 70
    0
  9
$DIMSD2
 70
    0
  9
$DIMTOLJ
 70
    0
  9
$DIMTZIN
 70
    8
  9
$DIMALTZ
 70
    0
  9
$DIMALTTZ
 70
    0
  9
$DIMUPT
 70
    0
  9
$DIMDEC
 70
    1
  9
$DIMTDEC
 70
    2
  9
$DIMALTU
 70
    2
  9
$DIMALTTD
 70
    3
  9
$DIMTXSTY
  7
standard
  9
$DIMAUNIT
 70
    0
  9
$DIMADEC
 70
    0
  9
$DIMALTRND
 40
0
  9
$DIMAZIN
 70
    0
  9
$DIMDSEP
 70
   44
  9
$DIMATFIT
 70
    3
  9
$DIMFRAC
 70
    0
  9
$DIMLDRBLK
  1
STANDARD
  9
$DIMLUNIT
 70
    2
  9
$DIMLWD
 70
   -2
  9
$DIMLWE
 70
   -2
  9
$DIMTMOVE
 70
    0
  9
$DIMFXL
 40
1
  9
$DIMFXLON
 70
    0
  9
$DIMJOGANG
 40
0.7854
  9
$DIMTFILL
 70
    0
  9
$DIMTFILLCLR
 70
    0
  9
$DIMARCSYM
 70
    0
  9
$DIMLTYPE
  6

  9
$DIMLTEX1
  6

  9
$DIMLTEX2
  6

  9
$LUNITS
 70
    2
  9
$LUPREC
 70
    2
  9
$SKETCHINC
 40
1
  9
$FILLETRAD
 40
0
  9
$AUNITS
 70
    0
  9
$AUPREC
 70
    2
  9
$MENU
  1
.
  9
$ELEVATION
 40
0
  9
$PELEVATION
 40
0
  9
$THICKNESS
 40
0
  9
$LIMCHECK
 70
    0
  9
$CHAMFERA
 40
0
  9
$CHAMFERB
 40
0
  9
$CHAMFERC
 40
0
  9
$CHAMFERD
 40
0
  9
$SKPOLY
 70
    0
  9
$USRTIMER
 70
    1
  9
$ANGBASE
 50
0
  9
$ANGDIR
 70
    0
  9
$PDMODE
 70
   34
  9
$PDSIZE
 40
0
  9
$PLINEWID
 40
0
  9
$SPLFRAME
 70
    0
  9
$SPLINETYPE
 70
    2
  9
$SPLINESEGS
 70
    8
  9
$HANDSEED
  5
20000
  9
$SURFTAB1
 70
    6
  9
$SURFTAB2
 70
    6
  9
$SURFTYPE
 70
    6
  9
$SURFU
 70
    6
  9
$SURFV
 70
    6
  9
$UCSBASE
  2

  9
$UCSNAME
  2

  9
$UCSORG
 10
0
 20
0
 30
0
  9
$UCSXDIR
 10
1
 20
0
 30
0
  9
$UCSYDIR
 10
0
 20
1
 30
0
  9
$UCSORTHOREF
  2

  9
$UCSORTHOVIEW
 70
    0
  9
$UCSORGTOP
 10
0
 20
0
 30
0
  9
$UCSORGBOTTOM
 10
0
 20
0
 30
0
  9
$UCSORGLEFT
 10
0
 20
0
 30
0
  9
$UCSORGRIGHT
 10
0
 20
0
 30
0
  9
$UCSORGFRONT
 10
0
 20
0
 30
0
  9
$UCSORGBACK
 10
0
 20
0
 30
0
  9
$PUCSBASE
  2

  9
$PUCSNAME
  2

  9
$PUCSORG
 10
0
 20
0
 30
0
  9
$PUCSXDIR
 10
1
 20
0
 30
0
  9
$PUCSYDIR
 10
0
 20
1
 30
0
  9
$PUCSORTHOREF
  2

  9
$PUCSORTHOVIEW
 70
    0
  9
$PUCSORGTOP
 10
0
 20
0
 30
0
  9
$PUCSORGBOTTOM
 10
0
 20
0
 30
0
  9
$PUCSORGLEFT
 10
0
 20
0
 30
0
  9
$PUCSORGRIGHT
 10
0
 20
0
 30
0
  9
$PUCSORGFRONT
 10
0
 20
0
 30
0
  9
$PUCSORGBACK
 10
0
 20
0
 30
0
  9
$USERI1
 70
    0
  9
$USERI2
 70
    0
  9
$USERI3
 70
    0
  9
$USERI4
 70
    0
  9
$USERI5
 70
    0
  9
$USERR1
 40
0
  9
$USERR2
 40
0
  9
$USERR3
 40
0
  9
$USERR4
 40
0
  9
$USERR5
 40
0
  9
$WORLDVIEW
 70
    1
  9
$SHADEDGE
 70
    3
  9
$SHADEDIF
 70
   70
  9
$TILEMODE
 70
    1
  9
$MAXACTVP
 70
   64
  9
$PINSBASE
 10
11.60768786127168
 20
14.08236994219653
 30
0
  9
$PLIMCHECK
 70
    0
  9
$PEXTMIN
 10
0
 20
0
 30
0
  9
$PEXTMAX
 10
0
 20
0
 30
0
  9
$GRIDMODE
 70
    1
  9
$SNAPSTYLE
 70
    0
  9
$GRIDUNIT
 10
0
 20
0
  9
$PLIMMIN
 10
0
 20
0
  9
$PLIMMAX
 10
29.7
 20
21
  9
$UNITMODE
 70
    0
  9
$VISRETAIN
 70
    1
  9
$PLINEGEN
 70
    0
  9
$PSLTSCALE
 70
    1
  9
$TREEDEPTH
 70
 3020
  9
$CMLSTYLE
  2
Standard
  9
$CMLJUST
 70
    0
  9
$CMLSCALE
 40
20
  9
$PROXYGRAPHICS
 70
    1
  9
$MEASUREMENT
 70
    1
  9
$CELWEIGHT
370
   -1
  9
$ENDCAPS
280
    0
  9
$JOINSTYLE
280
    0
  9
$LWDISPLAY
290
    0
  9
$INSUNITS
 70
    5
  9
$HYPERLINKBASE
  1

  9
$STYLESHEET
  1

  9
$XEDIT
290
    1
  9
$CEPSNTYPE
380
    0
  9
$PSTYLEMODE
290
    1
  9
$EXTNAMES
290
    1
  9
$PSVPSCALE
 40
0.004277452691373233
  9
$OLESTARTUP
290
    0
  9
$SORTENTS
280
  127
  9
$INDEXCTL
280
    0
  9
$HIDETEXT
280
    1
  9
$XCLIPFRAME
290
    0
  9
$HALOGAP
280
    0
  9
$OBSCOLOR
 70
  257
  9
$OBSLTYPE
280
    0
  9
$INTERSECTIONDISPLAY
280
    0
  9
$INTERSECTIONCOLOR
 70
  257
  9
$DIMASSOC
280
    1
  9
$PROJECTNAME
  1

  9
$CAMERADISPLAY
290
    0
  9
$LENSLENGTH
 40
50
  9
$CAMERAHEIGHT
 40
0
  9
$STEPSPERSEC
 40
2
  9
$STEPSIZE
 40
50
  9
$3DDWFPREC
 40
2
  9
$PSOLWIDTH
 40
5
  9
$PSOLHEIGHT
 40
80
  9
$LOFTANG1
 40
1.570796326794897
  9
$LOFTANG2
 40
1.570796326794897
  9
$LOFTMAG1
 40
0
  9
$LOFTMAG2
 40
0
  9
$LOFTPARAM
 70
    7
  9
$LOFTNORMALS
280
    1
  9
$LATITUDE
 40
1
  9
$LONGITUDE
 40
1
  9
$NORTHDIRECTION
 40
0
  9
$TIMEZONE
 70
-8000
  9
$LIGHTGLYPHDISPLAY
280
    1
  9
$TILEMODELIGHTSYNCH
280
    1
  9
$SOLIDHIST
280
    1
  9
$SHOWHIST
280
    1
  9
$DWFFRAME
280
    2
  9
$DGNFRAME
280
    0
  9
$REALWORLDSCALE
290
    1
  9
$INTERFERECOLOR
 62
    1
  9
$CSHADOW
280
    0
  9
$SHADOWPLANELOCATION
 40
0
  0
ENDSEC
  0
SECTION
  2
CLASSES
  0
ENDSEC
  0
SECTION
  2
TABLES
  0
TABLE
  2
VPORT
  5
8
330
0
100
AcDbSymbolTable
 70
    1
  0
VPORT
  5
31
330
2
100
AcDbSymbolTableRecord
100
AcDbViewportTableRecord
  2
*ACTIVE
 70
    0
 10
0
 20
0
 11
1
 21
1
 12
1050.239689241507
 22
673.759139482413
 13
0
 23
0
 14
10
 24
10
 15
10
 25
10
 16
0
 26
0
 36
1
 17
0
 27
0
 37
0
 40
1610.078201275203
 41
1.987870619946092
 42
50
 43
0
 44
0
 50
0
 51
0
 71
    0
 72
  100
 73
    1
 74
    3
 75
    0
 76
    1
 77
    0
 78
    0
281
    0
 65
    1
110
0
120
0
130
0
111
1
121
0
131
0
112
0
122
1
132
0
 79
    0
146
0
348
10020
 60
    7
 61
    5
292
1
282
    1
141
0
142
0
 63
  250
421
3358443
  0
ENDTAB
  0
TABLE
  2
LTYPE
  5
5
330
0
100
AcDbSymbolTable
 70
    4
  0
LTYPE
  5
14
330
5
100
AcDbSymbolTableRecord
100
AcDbLinetypeTableRecord
  2
ByBlock
 70
    0
  3

 72
   65
 73
    0
 40
0
  0
LTYPE
  5
15
330
5
100
AcDbSymbolTableRecord
100
AcDbLinetypeTableRecord
  2
ByLayer
 70
    0
  3

 72
   65
 73
    0
 40
0
  0
LTYPE
  5
16
330
5
100
AcDbSymbolTableRecord
100
AcDbLinetypeTableRecord
  2
Continuous
 70
    0
  3
Solid line
 72
   65
 73
    0
 40
0
  0
LTYPE
  5
32
330
5
100
AcDbSymbolTableRecord
100
AcDbLinetypeTableRecord
  2
DOT
 70
    0
  3
Dot . . . . . . . . . . . . . . . . . . . . . .
 72
   65
 73
    2
 40
6.35
 49
0
 74
    0
 49
-6.35
 74
    0
  0
LTYPE
  5
33
330
5
100
AcDbSymbolTableRecord
100
AcDbLinetypeTableRecord
  2
DOTTINY
 70
    0
  3
Dot (.15x) .....................................
 72
   65
 73
    2
 40
0.9525
 49
0
 74
    0
 49
-0.9525
 74
    0
  0
LTYPE
  5
34
330
5
100
AcDbSymbolTableRecord
100
AcDbLinetypeTableRecord
  2
DOT2
 70
    0
  3
Dot (.5x) .....................................
 72
   65
 73
    2
 40
3.175
 49
0
 74
    0
 49
-3.175
 74
    0
  0
LTYPE
  5
35
330
5
100
AcDbSymbolTableRecord
100
AcDbLinetypeTableRecord
  2
DOTX2
 70
    0
  3
Dot (2x) .  .  .  .  .  .  .  .  .  .  .  .  .
 72
   65
 73
    2
 40
12.7
 49
0
 74
    0
 49
-12.7
 74
    0
  0
LTYPE
  5
36
330
5
100
AcDbSymbolTableRecord
100
AcDbLinetypeTableRecord
  2
DASHED
 70
    0
  3
Dashed _ _ _ _ _ _ _ _ _ _ _ _ _ _ _ _ _
 72
   65
 73
    2
 40
19.05
 49
12.7
 74
    0
 49
-6.35
 74
    0
  0
LTYPE
  5
37
330
5
100
AcDbSymbolTableRecord
100
AcDbLinetypeTableRecord
  2
DASHEDTINY
 70
    0
  3
Dashed (.15x) _ _ _ _ _ _ _ _ _ _ _ _ _ _ _ _ _
 72
   65
 73
    2
 40
2.8575
 49
1.905
 74
    0
 49
-0.9525
 74
    0
  0
LTYPE
  5
38
330
5
100
AcDbSymbolTableRecord
100
AcDbLinetypeTableRecord
  2
DASHED2
 70
    0
  3
Dashed (.5x) _ _ _ _ _ _ _ _ _ _ _ _ _ _ _ _ _
 72
   65
 73
    2
 40
9.524999999999999
 49
6.35
 74
    0
 49
-3.175
 74
    0
  0
LTYPE
  5
39
330
5
100
AcDbSymbolTableRecord
100
AcDbLinetypeTableRecord
  2
DASHEDX2
 70
    0
  3
Dashed (2x) ____  ____  ____  ____  ____  ___
 72
   65
 73
    2
 40
38.09999999999999
 49
25.4
 74
    0
 49
-12.7
 74
    0
  0
LTYPE
  5
3A
330
5
100
AcDbSymbolTableRecord
100
AcDbLinetypeTableRecord
  2
DASHDOT
 70
    0
  3
Dash dot __ . __ . __ . __ . __ . __ . __ . __
 72
   65
 73
    4
 40
25.4
 49
12.7
 74
    0
 49
-6.35
 74
    0
 49
0
 74
    0
 49
-6.35
 74
    0
  0
LTYPE
  5
3B
330
5
100
AcDbSymbolTableRecord
100
AcDbLinetypeTableRecord
  2
DASHDOTTINY
 70
    0
  3
Dash dot (.15x) _._._._._._._._._._._._._._._.
 72
   65
 73
    4
 40
3.81
 49
1.905
 74
    0
 49
-0.9525
 74
    0
 49
0
 74
    0
 49
-0.9525
 74
    0
  0
LTYPE
  5
3C
330
5
100
AcDbSymbolTableRecord
100
AcDbLinetypeTableRecord
  2
DASHDOT2
 70
    0
  3
Dash dot (.5x) _._._._._._._._._._._._._._._.
 72
   65
 73
    4
 40
12.7
 49
6.35
 74
    0
 49
-3.175
 74
    0
 49
0
 74
    0
 49
-3.175
 74
    0
  0
LTYPE
  5
3D
330
5
100
AcDbSymbolTableRecord
100
AcDbLinetypeTableRecord
  2
DASHDOTX2
 70
    0
  3
Dash dot (2x) ____  .  ____  .  ____  .  ___
 72
   65
 73
    4
 40
50.8
 49
25.4
 74
    0
 49
-12.7
 74
    0
 49
0
 74
    0
 49
-12.7
 74
    0
  0
LTYPE
  5
3E
330
5
100
AcDbSymbolTableRecord
100
AcDbLinetypeTableRecord
  2
DIVIDE
 70
    0
  3
Divide ____ . . ____ . . ____ . . ____ . . ____
 72
   65
 73
    6
 40
31.75
 49
12.7
 74
    0
 49
-6.35
 74
    0
 49
0
 74
    0
 49
-6.35
 74
    0
 49
0
 74
    0
 49
-6.35
 74
    0
  0
LTYPE
  5
3F
330
5
100
AcDbSymbolTableRecord
100
AcDbLinetypeTableRecord
  2
DIVIDETINY
 70
    0
  3
Divide (.15x) __..__..__..__..__..__..__..__.._
 72
   65
 73
    6
 40
4.7625
 49
1.905
 74
    0
 49
-0.9525
 74
    0
 49
0
 74
    0
 49
-0.9525
 74
    0
 49
0
 74
    0
 49
-0.9525
 74
    0
  0
LTYPE
  5
40
330
5
100
AcDbSymbolTableRecord
100
AcDbLinetypeTableRecord
  2
DIVIDE2
 70
    0
  3
Divide (.5x) __..__..__..__..__..__..__..__.._
 72
   65
 73
    6
 40
15.875
 49
6.35
 74
    0
 49
-3.175
 74
    0
 49
0
 74
    0
 49
-3.175
 74
    0
 49
0
 74
    0
 49
-3.175
 74
    0
  0
LTYPE
  5
41
330
5
100
AcDbSymbolTableRecord
100
AcDbLinetypeTableRecord
  2
DIVIDEX2
 70
    0
  3
Divide (2x) ________  .  .  ________  .  .  _
 72
   65
 73
    6
 40
63.5
 49
25.4
 74
    0
 49
-12.7
 74
    0
 49
0
 74
    0
 49
-12.7
 74
    0
 49
0
 74
    0
 49
-12.7
 74
    0
  0
LTYPE
  5
42
330
5
100
AcDbSymbolTableRecord
100
AcDbLinetypeTableRecord
  2
BORDER
 70
    0
  3
Border __ __ . __ __ . __ __ . __ __ . __ __ .
 72
   65
 73
    6
 40
44.45
 49
12.7
 74
    0
 49
-6.35
 74
    0
 49
12.7
 74
    0
 49
-6.35
 74
    0
 49
0
 74
    0
 49
-6.35
 74
    0
  0
LTYPE
  5
43
330
5
100
AcDbSymbolTableRecord
100
AcDbLinetypeTableRecord
  2
BORDERTINY
 70
    0
  3
Border (.15x) __.__.__.__.__.__.__.__.__.__.__.
 72
   65
 73
    6
 40
6.6675
 49
1.905
 74
    0
 49
-0.9525
 74
    0
 49
1.905
 74
    0
 49
-0.9525
 74
    0
 49
0
 74
    0
 49
-0.9525
 74
    0
  0
LTYPE
  5
44
330
5
100
AcDbSymbolTableRecord
100
AcDbLinetypeTableRecord
  2
BORDER2
 70
    0
  3
Border (.5x) __.__.__.__.__.__.__.__.__.__.__.
 72
   65
 73
    6
 40
22.225
 49
6.35
 74
    0
 49
-3.175
 74
    0
 49
6.35
 74
    0
 49
-3.175
 74
    0
 49
0
 74
    0
 49
-3.175
 74
    0
  0
LTYPE
  5
45
330
5
100
AcDbSymbolTableRecord
100
AcDbLinetypeTableRecord
  2
BORDERX2
 70
    0
  3
Border (2x) ____  ____  .  ____  ____  .  ___
 72
   65
 73
    6
 40
88.89999999999999
 49
25.4
 74
    0
 49
-12.7
 74
    0
 49
25.4
 74
    0
 49
-12.7
 74
    0
 49
0
 74
    0
 49
-12.7
 74
    0
  0
LTYPE
  5
46
330
5
100
AcDbSymbolTableRecord
100
AcDbLinetypeTableRecord
  2
CENTER
 70
    0
  3
Center ____ _ ____ _ ____ _ ____ _ ____ _ ____
 72
   65
 73
    4
 40
50.8
 49
31.75
 74
    0
 49
-6.35
 74
    0
 49
6.35
 74
    0
 49
-6.35
 74
    0
  0
LTYPE
  5
47
330
5
100
AcDbSymbolTableRecord
100
AcDbLinetypeTableRecord
  2
CENTERTINY
 70
    0
  3
Center (.15x) ___ _ ___ _ ___ _ ___ _ ___ _ ___
 72
   65
 73
    4
 40
7.619999999999999
 49
4.7625
 74
    0
 49
-0.9525
 74
    0
 49
0.9525
 74
    0
 49
-0.9525
 74
    0
  0
LTYPE
  5
48
330
5
100
AcDbSymbolTableRecord
100
AcDbLinetypeTableRecord
  2
CENTER2
 70
    0
  3
Center (.5x) ___ _ ___ _ ___ _ ___ _ ___ _ ___
 72
   65
 73
    4
 40
28.575
 49
19.05
 74
    0
 49
-3.175
 74
    0
 49
3.175
 74
    0
 49
-3.175
 74
    0
  0
LTYPE
  5
49
330
5
100
AcDbSymbolTableRecord
100
AcDbLinetypeTableRecord
  2
CENTERX2
 70
    0
  3
Center (2x) ________  __  ________  __  _____
 72
   65
 73
    4
 40
101.6
 49
63.5
 74
    0
 49
-12.7
 74
    0
 49
12.7
 74
    0
 49
-12.7
 74
    0
  0
ENDTAB
  0
TABLE
  2
LAYER
  5
2
330
0
100
AcDbSymbolTable
 70
    1
  0
LAYER
  5
10
330
2
100
AcDbSymbolTableRecord
100
AcDbLayerTableRecord
  2
0
 70
    1
 62
    7
  6
CONTINUOUS
370
   -3
390
F
1001
LibreCad
1070
    1
  0
LAYER
  5
4A
330
2
100
AcDbSymbolTableRecord
100
AcDbLayerTableRecord
  2
armopojas
 70
    0
 62
  216
420
8388736
  6
CONTINUOUS
370
   25
390
F
  0
LAYER
  5
4B
330
2
100
AcDbSymbolTableRecord
100
AcDbLayerTableRecord
  2
cegla
 70
    0
 62
    2
  6
CONTINUOUS
370
   25
390
F
  0
LAYER
  5
4C
330
2
100
AcDbSymbolTableRecord
100
AcDbLayerTableRecord
  2
concrete
 70
    0
 62
  136
420
32896
  6
CONTINUOUS
370
   25
390
F
  0
LAYER
  5
4D
330
2
100
AcDbSymbolTableRecord
100
AcDbLayerTableRecord
  2
gazoblok
 70
    0
 62
   56
420
8421376
  6
CONTINUOUS
370
   25
390
F
  0
LAYER
  5
4E
330
2
100
AcDbSymbolTableRecord
100
AcDbLayerTableRecord
  2
lyce
 70
    0
 62
   41
420
16376252
  6
CONTINUOUS
370
   25
390
F
  0
LAYER
  5
4F
330
2
100
AcDbSymbolTableRecord
100
AcDbLayerTableRecord
  2
plyty
 70
    0
 62
    8
  6
CONTINUOUS
370
   25
390
F
  0
LAYER
  5
50
330
2
100
AcDbSymbolTableRecord
100
AcDbLayerTableRecord
  2
rozmir
 70
    1
 62
    4
  6
CONTINUOUS
370
   13
390
F
  0
LAYER
  5
51
330
2
100
AcDbSymbolTableRecord
100
AcDbLayerTableRecord
  2
tekst
 70
    0
 62
  136
420
32896
  6
CONTINUOUS
370
   13
390
F
  0
ENDTAB
  0
TABLE
  2
STYLE
  5
3
330
0
100
AcDbSymbolTable
 70
    3
  0
STYLE
  5
52
330
2
100
AcDbSymbolTableRecord
100
AcDbTextStyleTableRecord
  2
cyrillic_ii
 70
    0
 40
0
 41
1
 50
0
 71
    0
 42
1
  3
cyrillic_ii
  4

  0
STYLE
  5
53
330
2
100
AcDbSymbolTableRecord
100
AcDbTextStyleTableRecord
  2
Standard
 70
    0
 40
0
 41
1
 50
0
 71
    0
 42
1
  3
txt
  4

  0
ENDTAB
  0
TABLE
  2
VIEW
  5
6
330
0
100
AcDbSymbolTable
 70
    0
  0
ENDTAB
  0
TABLE
  2
UCS
  5
7
330
0
100
AcDbSymbolTable
 70
    0
  0
ENDTAB
  0
TABLE
  2
APPID
  5
9
330
0
100
AcDbSymbolTable
 70
    1
  0
APPID
  5
12
330
9
100
AcDbSymbolTableRecord
100
AcDbRegAppTableRecord
  2
ACAD
 70
    0
  0
APPID
  5
54
330
9
100
AcDbSymbolTableRecord
100
AcDbRegAppTableRecord
  2
LibreCad
 70
    0
  0
ENDTAB
  0
TABLE
  2
DIMSTYLE
  5
A
330
0
100
AcDbSymbolTable
 70
    1
100
AcDbDimStyleTable
 71
    1
  0
DIMSTYLE
105
55
330
A
100
AcDbSymbolTableRecord
100
AcDbDimStyleTableRecord
  2
Standard
 70
    0
 40
10
 41
1
 42
0.2
 43
0.38
 44
0.5
 45
0
 46
0
 47
0
 48
0
 49
1
140
1.5
141
0.09
142
1
143
25.4
144
1
145
0
146
1
147
0.5
148
0
 71
    0
 72
    0
 73
    0
 74
    1
 75
    0
 76
    0
 77
    0
 78
    8
 79
    0
170
    0
171
    2
172
    0
173
    0
174
    0
175
    0
176
    0
177
    0
178
    0
179
    0
271
    1
272
    4
273
    2
274
    2
275
    0
276
    0
277
    2
278
   44
279
    0
280
    0
281
    0
282
    0
283
    1
284
    0
285
    0
286
    0
288
    0
289
    3
340
standard
341

371
   -2
372
   -2
  0
ENDTAB
  0
TABLE
  2
BLOCK_RECORD
  5
1
330
0
100
AcDbSymbolTable
 70
    2
  0
BLOCK_RECORD
  5
1F
330
1
100
AcDbSymbolTableRecord
100
AcDbBlockTableRecord
  2
*Model_Space
 70
    0
280
    1
281
    0
  0
BLOCK_RECORD
  5
1E
330
1
100
AcDbSymbolTableRecord
100
AcDbBlockTableRecord
  2
*Paper_Space
 70
    0
280
    1
281
    0
  0
BLOCK_RECORD
  5
56
330
1
100
AcDbSymbolTableRecord
100
AcDbBlockTableRecord
  2
*D9
 70
    0
280
    1
281
    0
  0
BLOCK_RECORD
  5
59
330
1
100
AcDbSymbolTableRecord
100
AcDbBlockTableRecord
  2
*D62
 70
    0
280
    1
281
    0
  0
BLOCK_RECORD
  5
5C
330
1
100
AcDbSymbolTableRecord
100
AcDbBlockTableRecord
  2
*D20
 70
    0
280
    1
281
    0
  0
BLOCK_RECORD
  5
5F
330
1
100
AcDbSymbolTableRecord
100
AcDbBlockTableRecord
  2
*D74
 70
    0
280
    1
281
    0
  0
BLOCK_RECORD
  5
62
330
1
100
AcDbSymbolTableRecord
100
AcDbBlockTableRecord
  2
*D34
 70
    0
280
    1
281
    0
  0
BLOCK_RECORD
  5
65
330
1
100
AcDbSymbolTableRecord
100
AcDbBlockTableRecord
  2
*D88
 70
    0
280
    1
281
    0
  0
BLOCK_RECORD
  5
68
330
1
100
AcDbSymbolTableRecord
100
AcDbBlockTableRecord
  2
*D60
 70
    0
280
    1
281
    0
  0
BLOCK_RECORD
  5
6B
330
1
100
AcDbSymbolTableRecord
100
AcDbBlockTableRecord
  2
*D13
 70
    0
280
    1
281
    0
  0
BLOCK_RECORD
  5
6E
330
1
100
AcDbSymbolTableRecord
100
AcDbBlockTableRecord
  2
*D46
 70
    0
280
    1
281
    0
  0
BLOCK_RECORD
  5
71
330
1
100
AcDbSymbolTableRecord
100
AcDbBlockTableRecord
  2
*D66
 70
    0
280
    1
281
    0
  0
BLOCK_RECORD
  5
74
330
1
100
AcDbSymbolTableRecord
100
AcDbBlockTableRecord
  2
*D47
 70
    0
280
    1
281
    0
  0
BLOCK_RECORD
  5
77
330
1
100
AcDbSymbolTableRecord
100
AcDbBlockTableRecord
  2
*D17
 70
    0
280
    1
281
    0
  0
BLOCK_RECORD
  5
7A
330
1
100
AcDbSymbolTableRecord
100
AcDbBlockTableRecord
  2
*D42
 70
    0
280
    1
281
    0
  0
BLOCK_RECORD
  5
7D
330
1
100
AcDbSymbolTableRecord
100
AcDbBlockTableRecord
  2
*D45
 70
    0
280
    1
281
    0
  0
BLOCK_RECORD
  5
80
330
1
100
AcDbSymbolTableRecord
100
AcDbBlockTableRecord
  2
*D43
 70
    0
280
    1
281
    0
  0
BLOCK_RECORD
  5
83
330
1
100
AcDbSymbolTableRecord
100
AcDbBlockTableRecord
  2
*D22
 70
    0
280
    1
281
    0
  0
BLOCK_RECORD
  5
86
330
1
100
AcDbSymbolTableRecord
100
AcDbBlockTableRecord
  2
*D30
 70
    0
280
    1
281
    0
  0
BLOCK_RECORD
  5
89
330
1
100
AcDbSymbolTableRecord
100
AcDbBlockTableRecord
  2
*D5
 70
    0
280
    1
281
    0
  0
BLOCK_RECORD
  5
8C
330
1
100
AcDbSymbolTableRecord
100
AcDbBlockTableRecord
  2
*D82
 70
    0
280
    1
281
    0
  0
BLOCK_RECORD
  5
8F
330
1
100
AcDbSymbolTableRecord
100
AcDbBlockTableRecord
  2
*D29
 70
    0
280
    1
281
    0
  0
BLOCK_RECORD
  5
92
330
1
100
AcDbSymbolTableRecord
100
AcDbBlockTableRecord
  2
*D77
 70
    0
280
    1
281
    0
  0
BLOCK_RECORD
  5
95
330
1
100
AcDbSymbolTableRecord
100
AcDbBlockTableRecord
  2
*D81
 70
    0
280
    1
281
    0
  0
BLOCK_RECORD
  5
98
330
1
100
AcDbSymbolTableRecord
100
AcDbBlockTableRecord
  2
*D65
 70
    0
280
    1
281
    0
  0
BLOCK_RECORD
  5
9B
330
1
100
AcDbSymbolTableRecord
100
AcDbBlockTableRecord
  2
*D58
 70
    0
280
    1
281
    0
  0
BLOCK_RECORD
  5
9E
330
1
100
AcDbSymbolTableRecord
100
AcDbBlockTableRecord
  2
*D12
 70
    0
280
    1
281
    0
  0
BLOCK_RECORD
  5
A1
330
1
100
AcDbSymbolTableRecord
100
AcDbBlockTableRecord
  2
*D56
 70
    0
280
    1
281
    0
  0
BLOCK_RECORD
  5
A4
330
1
100
AcDbSymbolTableRecord
100
AcDbBlockTableRecord
  2
*D38
 70
    0
280
    1
281
    0
  0
BLOCK_RECORD
  5
A7
330
1
100
AcDbSymbolTableRecord
100
AcDbBlockTableRecord
  2
*D75
 70
    0
280
    1
281
    0
  0
BLOCK_RECORD
  5
AA
330
1
100
AcDbSymbolTableRecord
100
AcDbBlockTableRecord
  2
*D83
 70
    0
280
    1
281
    0
  0
BLOCK_RECORD
  5
AD
330
1
100
AcDbSymbolTableRecord
100
AcDbBlockTableRecord
  2
*D50
 70
    0
280
    1
281
    0
  0
BLOCK_RECORD
  5
B0
330
1
100
AcDbSymbolTableRecord
100
AcDbBlockTableRecord
  2
*D52
 70
    0
280
    1
281
    0
  0
BLOCK_RECORD
  5
B3
330
1
100
AcDbSymbolTableRecord
100
AcDbBlockTableRecord
  2
*D67
 70
    0
280
    1
281
    0
  0
BLOCK_RECORD
  5
B6
330
1
100
AcDbSymbolTableRecord
100
AcDbBlockTableRecord
  2
*D28
 70
    0
280
    1
281
    0
  0
BLOCK_RECORD
  5
B9
330
1
100
AcDbSymbolTableRecord
100
AcDbBlockTableRecord
  2
*D54
 70
    0
280
    1
281
    0
  0
BLOCK_RECORD
  5
BC
330
1
100
AcDbSymbolTableRecord
100
AcDbBlockTableRecord
  2
*D69
 70
    0
280
    1
281
    0
  0
BLOCK_RECORD
  5
BF
330
1
100
AcDbSymbolTableRecord
100
AcDbBlockTableRecord
  2
*D15
 70
    0
280
    1
281
    0
  0
BLOCK_RECORD
  5
C2
330
1
100
AcDbSymbolTableRecord
100
AcDbBlockTableRecord
  2
*D26
 70
    0
280
    1
281
    0
  0
BLOCK_RECORD
  5
C5
330
1
100
AcDbSymbolTableRecord
100
AcDbBlockTableRecord
  2
*D14
 70
    0
280
    1
281
    0
  0
BLOCK_RECORD
  5
C8
330
1
100
AcDbSymbolTableRecord
100
AcDbBlockTableRecord
  2
*D63
 70
    0
280
    1
281
    0
  0
BLOCK_RECORD
  5
CB
330
1
100
AcDbSymbolTableRecord
100
AcDbBlockTableRecord
  2
*D78
 70
    0
280
    1
281
    0
  0
BLOCK_RECORD
  5
CE
330
1
100
AcDbSymbolTableRecord
100
AcDbBlockTableRecord
  2
*D73
 70
    0
280
    1
281
    0
  0
BLOCK_RECORD
  5
D1
330
1
100
AcDbSymbolTableRecord
100
AcDbBlockTableRecord
  2
*D25
 70
    0
280
    1
281
    0
  0
BLOCK_RECORD
  5
D4
330
1
100
AcDbSymbolTableRecord
100
AcDbBlockTableRecord
  2
*D41
 70
    0
280
    1
281
    0
  0
BLOCK_RECORD
  5
D7
330
1
100
AcDbSymbolTableRecord
100
AcDbBlockTableRecord
  2
*D27
 70
    0
280
    1
281
    0
  0
BLOCK_RECORD
  5
DA
330
1
100
AcDbSymbolTableRecord
100
AcDbBlockTableRecord
  2
*D37
 70
    0
280
    1
281
    0
  0
BLOCK_RECORD
  5
DD
330
1
100
AcDbSymbolTableRecord
100
AcDbBlockTableRecord
  2
*D87
 70
    0
280
    1
281
    0
  0
BLOCK_RECORD
  5
E0
330
1
100
AcDbSymbolTableRecord
100
AcDbBlockTableRecord
  2
*D61
 70
    0
280
    1
281
    0
  0
BLOCK_RECORD
  5
E3
330
1
100
AcDbSymbolTableRecord
100
AcDbBlockTableRecord
  2
*D68
 70
    0
280
    1
281
    0
  0
BLOCK_RECORD
  5
E6
330
1
100
AcDbSymbolTableRecord
100
AcDbBlockTableRecord
  2
*D24
 70
    0
280
    1
281
    0
  0
BLOCK_RECORD
  5
E9
330
1
100
AcDbSymbolTableRecord
100
AcDbBlockTableRecord
  2
*D8
 70
    0
280
    1
281
    0
  0
BLOCK_RECORD
  5
EC
330
1
100
AcDbSymbolTableRecord
100
AcDbBlockTableRecord
  2
*D36
 70
    0
280
    1
281
    0
  0
BLOCK_RECORD
  5
EF
330
1
100
AcDbSymbolTableRecord
100
AcDbBlockTableRecord
  2
*D4
 70
    0
280
    1
281
    0
  0
BLOCK_RECORD
  5
F2
330
1
100
AcDbSymbolTableRecord
100
AcDbBlockTableRecord
  2
*D49
 70
    0
280
    1
281
    0
  0
BLOCK_RECORD
  5
F5
330
1
100
AcDbSymbolTableRecord
100
AcDbBlockTableRecord
  2
*D11
 70
    0
280
    1
281
    0
  0
BLOCK_RECORD
  5
F8
330
1
100
AcDbSymbolTableRecord
100
AcDbBlockTableRecord
  2
*D19
 70
    0
280
    1
281
    0
  0
BLOCK_RECORD
  5
FB
330
1
100
AcDbSymbolTableRecord
100
AcDbBlockTableRecord
  2
*D79
 70
    0
280
    1
281
    0
  0
BLOCK_RECORD
  5
FE
330
1
100
AcDbSymbolTableRecord
100
AcDbBlockTableRecord
  2
*D39
 70
    0
280
    1
281
    0
  0
BLOCK_RECORD
  5
101
330
1
100
AcDbSymbolTableRecord
100
AcDbBlockTableRecord
  2
*D85
 70
    0
280
    1
281
    0
  0
BLOCK_RECORD
  5
104
330
1
100
AcDbSymbolTableRecord
100
AcDbBlockTableRecord
  2
*D89
 70
    0
280
    1
281
    0
  0
BLOCK_RECORD
  5
107
330
1
100
AcDbSymbolTableRecord
100
AcDbBlockTableRecord
  2
*D16
 70
    0
280
    1
281
    0
  0
BLOCK_RECORD
  5
10A
330
1
100
AcDbSymbolTableRecord
100
AcDbBlockTableRecord
  2
*D7
 70
    0
280
    1
281
    0
  0
BLOCK_RECORD
  5
10D
330
1
100
AcDbSymbolTableRecord
100
AcDbBlockTableRecord
  2
*D55
 70
    0
280
    1
281
    0
  0
BLOCK_RECORD
  5
110
330
1
100
AcDbSymbolTableRecord
100
AcDbBlockTableRecord
  2
*D53
 70
    0
280
    1
281
    0
  0
BLOCK_RECORD
  5
113
330
1
100
AcDbSymbolTableRecord
100
AcDbBlockTableRecord
  2
*D2
 70
    0
280
    1
281
    0
  0
BLOCK_RECORD
  5
116
330
1
100
AcDbSymbolTableRecord
100
AcDbBlockTableRecord
  2
*D44
 70
    0
280
    1
281
    0
  0
BLOCK_RECORD
  5
119
330
1
100
AcDbSymbolTableRecord
100
AcDbBlockTableRecord
  2
*D59
 70
    0
280
    1
281
    0
  0
BLOCK_RECORD
  5
11C
330
1
100
AcDbSymbolTableRecord
100
AcDbBlockTableRecord
  2
*D6
 70
    0
280
    1
281
    0
  0
BLOCK_RECORD
  5
11F
330
1
100
AcDbSymbolTableRecord
100
AcDbBlockTableRecord
  2
*D23
 70
    0
280
    1
281
    0
  0
BLOCK_RECORD
  5
122
330
1
100
AcDbSymbolTableRecord
100
AcDbBlockTableRecord
  2
*D70
 70
    0
280
    1
281
    0
  0
BLOCK_RECORD
  5
125
330
1
100
AcDbSymbolTableRecord
100
AcDbBlockTableRecord
  2
*D71
 70
    0
280
    1
281
    0
  0
BLOCK_RECORD
  5
128
330
1
100
AcDbSymbolTableRecord
100
AcDbBlockTableRecord
  2
*D40
 70
    0
280
    1
281
    0
  0
BLOCK_RECORD
  5
12B
330
1
100
AcDbSymbolTableRecord
100
AcDbBlockTableRecord
  2
*D21
 70
    0
280
    1
281
    0
  0
BLOCK_RECORD
  5
12E
330
1
100
AcDbSymbolTableRecord
100
AcDbBlockTableRecord
  2
*D64
 70
    0
280
    1
281
    0
  0
BLOCK_RECORD
  5
131
330
1
100
AcDbSymbolTableRecord
100
AcDbBlockTableRecord
  2
*D76
 70
    0
280
    1
281
    0
  0
BLOCK_RECORD
  5
134
330
1
100
AcDbSymbolTableRecord
100
AcDbBlockTableRecord
  2
*D1
 70
    0
280
    1
281
    0
  0
BLOCK_RECORD
  5
137
330
1
100
AcDbSymbolTableRecord
100
AcDbBlockTableRecord
  2
*D32
 70
    0
280
    1
281
    0
  0
BLOCK_RECORD
  5
13A
330
1
100
AcDbSymbolTableRecord
100
AcDbBlockTableRecord
  2
*D84
 70
    0
280
    1
281
    0
  0
BLOCK_RECORD
  5
13D
330
1
100
AcDbSymbolTableRecord
100
AcDbBlockTableRecord
  2
*D72
 70
    0
280
    1
281
    0
  0
BLOCK_RECORD
  5
140
330
1
100
AcDbSymbolTableRecord
100
AcDbBlockTableRecord
  2
*D18
 70
    0
280
    1
281
    0
  0
BLOCK_RECORD
  5
143
330
1
100
AcDbSymbolTableRecord
100
AcDbBlockTableRecord
  2
*D10
 70
    0
280
    1
281
    0
  0
BLOCK_RECORD
  5
146
330
1
100
AcDbSymbolTableRecord
100
AcDbBlockTableRecord
  2
*D33
 70
    0
280
    1
281
    0
  0
BLOCK_RECORD
  5
149
330
1
100
AcDbSymbolTableRecord
100
AcDbBlockTableRecord
  2
*D86
 70
    0
280
    1
281
    0
  0
BLOCK_RECORD
  5
14C
330
1
100
AcDbSymbolTableRecord
100
AcDbBlockTableRecord
  2
*D80
 70
    0
280
    1
281
    0
  0
BLOCK_RECORD
  5
14F
330
1
100
AcDbSymbolTableRecord
100
AcDbBlockTableRecord
  2
*D51
 70
    0
280
    1
281
    0
  0
BLOCK_RECORD
  5
152
330
1
100
AcDbSymbolTableRecord
100
AcDbBlockTableRecord
  2
*D48
 70
    0
280
    1
281
    0
  0
BLOCK_RECORD
  5
155
330
1
100
AcDbSymbolTableRecord
100
AcDbBlockTableRecord
  2
*D35
 70
    0
280
    1
281
    0
  0
BLOCK_RECORD
  5
158
330
1
100
AcDbSymbolTableRecord
100
AcDbBlockTableRecord
  2
*D57
 70
    0
280
    1
281
    0
  0
BLOCK_RECORD
  5
15B
330
1
100
AcDbSymbolTableRecord
100
AcDbBlockTableRecord
  2
*D31
 70
    0
280
    1
281
    0
  0
BLOCK_RECORD
  5
15E
330
1
100
AcDbSymbolTableRecord
100
AcDbBlockTableRecord
  2
*D3
 70
    0
280
    1
281
    0
  0
BLOCK_RECORD
  5
161
330
1
100
AcDbSymbolTableRecord
100
AcDbBlockTableRecord
  2
block10
 70
    0
280
    1
281
    0
  0
ENDTAB
  0
ENDSEC
  0
SECTION
  2
BLOCKS
  0
BLOCK
  5
20
330
1F
100
AcDbEntity
  8
0
100
AcDbBlockBegin
  2
*Model_Space
 70
    0
 10
0
 20
0
 30
0
  3
*Model_Space
  1

  0
ENDBLK
  5
21
330
1F
100
AcDbEntity
  8
0
100
AcDbBlockEnd
  0
BLOCK
  5
1C
330
1B
100
AcDbEntity
  8
0
100
AcDbBlockBegin
  2
*Paper_Space
 70
    0
 10
0
 20
0
 30
0
  3
*Paper_Space
  1

  0
ENDBLK
  5
1D
330
1F
100
AcDbEntity
  8
0
100
AcDbBlockEnd
  0
BLOCK
  5
57
330
56
100
AcDbEntity
  8
0
100
AcDbBlockBegin
  2
*D9
 70
    1
 10
0
 20
0
  3
*D9
  1

  0
LINE
  5
164
100
AcDbEntity
  8
rozmir
  6
ByBlock
 62
    0
370
   -2
100
AcDbLine
 10
1060
 20
350
 11
1060
 21
428.9999999999999
  0
LINE
  5
165
100
AcDbEntity
  8
rozmir
  6
ByBlock
 62
    0
370
   -2
100
AcDbLine
 10
1052.928932188134
 20
357.0710678118655
 11
1067.071067811866
 21
342.9289321881345
  0
LINE
  5
166
100
AcDbEntity
  8
rozmir
  6
ByBlock
 62
    0
370
   -2
100
AcDbLine
 10
1052.928932188134
 20
436.0710678118654
 11
1067.071067811866
 21
421.9289321881344
  0
MTEXT
  5
167
100
AcDbEntity
  8
rozmir
  6
CONTINUOUS
 62
    0
370
   -2
100
AcDbMText
 10
1047.5
 20
389.5
 30
0
 40
15
 41
18.33333333333334
 71
    5
 72
    1
  1
79
  7
standard
210
0
220
0
230
1
 50
90
 73
    2
 44
1
  0
LINE
  5
168
100
AcDbEntity
  8
rozmir
  6
ByBlock
 62
    0
370
   -2
100
AcDbLine
 10
1002
 20
350
 11
1065
 21
350
  0
LINE
  5
169
100
AcDbEntity
  8
rozmir
  6
ByBlock
 62
    0
370
   -2
100
AcDbLine
 10
1002
 20
428.9999999999999
 11
1065
 21
428.9999999999999
  0
ENDBLK
  5
58
330
56
100
AcDbEntity
  8
0
100
AcDbBlockEnd
  0
BLOCK
  5
5A
330
59
100
AcDbEntity
  8
0
100
AcDbBlockBegin
  2
*D62
 70
    1
 10
0
 20
0
  3
*D62
  1

  0
LINE
  5
16A
100
AcDbEntity
  8
rozmir
  6
ByBlock
 62
    0
370
   -2
100
AcDbLine
 10
546
 20
70
 11
669
 21
70
  0
LINE
  5
16B
100
AcDbEntity
  8
rozmir
  6
ByBlock
 62
    0
370
   -2
100
AcDbLine
 10
553.0710678118655
 20
77.07106781186548
 11
538.9289321881345
 21
62.92893218813452
  0
LINE
  5
16C
100
AcDbEntity
  8
rozmir
  6
ByBlock
 62
    0
370
   -2
100
AcDbLine
 10
676.0710678118655
 20
77.07106781186548
 11
661.9289321881345
 21
62.92893218813452
  0
MTEXT
  5
16D
100
AcDbEntity
  8
rozmir
  6
CONTINUOUS
 62
    0
370
   -2
100
AcDbMText
 10
607.5
 20
82.5
 30
0
 40
15
 41
26.6666666666676
 71
    5
 72
    1
  1
123
  7
standard
210
0
220
0
230
1
 50
0
 73
    2
 44
1
  0
LINE
  5
16E
100
AcDbEntity
  8
rozmir
  6
ByBlock
 62
    0
370
   -2
100
AcDbLine
 10
546
 20
48
 11
546
 21
75
  0
LINE
  5
16F
100
AcDbEntity
  8
rozmir
  6
ByBlock
 62
    0
370
   -2
100
AcDbLine
 10
669
 20
48
 11
669
 21
75
  0
ENDBLK
  5
5B
330
59
100
AcDbEntity
  8
0
100
AcDbBlockEnd
  0
BLOCK
  5
5D
330
5C
100
AcDbEntity
  8
0
100
AcDbBlockBegin
  2
*D20
 70
    1
 10
0
 20
0
  3
*D20
  1

  0
LINE
  5
170
100
AcDbEntity
  8
rozmir
  6
ByBlock
 62
    0
370
   -2
100
AcDbLine
 10
819
 20
-60
 11
1000
 21
-60
  0
LINE
  5
171
100
AcDbEntity
  8
rozmir
  6
ByBlock
 62
    0
370
   -2
100
AcDbLine
 10
826.0710678118655
 20
-52.92893218813452
 11
811.9289321881345
 21
-67.07106781186548
  0
LINE
  5
172
100
AcDbEntity
  8
rozmir
  6
ByBlock
 62
    0
370
   -2
100
AcDbLine
 10
1007.071067811866
 20
-52.92893218813452
 11
992.9289321881345
 21
-67.07106781186548
  0
MTEXT
  5
173
100
AcDbEntity
  8
rozmir
  6
CONTINUOUS
 62
    0
370
   -2
100
AcDbMText
 10
909.5
 20
-47.5
 30
0
 40
15
 41
23.33333333333334
 71
    5
 72
    1
  1
181
  7
standard
210
0
220
0
230
1
 50
0
 73
    2
 44
1
  0
LINE
  5
174
100
AcDbEntity
  8
rozmir
  6
ByBlock
 62
    0
370
   -2
100
AcDbLine
 10
819
 20
-1.999999999999999
 11
819
 21
-65
  0
LINE
  5
175
100
AcDbEntity
  8
rozmir
  6
ByBlock
 62
    0
370
   -2
100
AcDbLine
 10
1000
 20
-2
 11
1000
 21
-65
  0
ENDBLK
  5
5E
330
5C
100
AcDbEntity
  8
0
100
AcDbBlockEnd
  0
BLOCK
  5
60
330
5F
100
AcDbEntity
  8
0
100
AcDbBlockBegin
  2
*D74
 70
    1
 10
0
 20
0
  3
*D74
  1

  0
LINE
  5
176
100
AcDbEntity
  8
rozmir
  6
ByBlock
 62
    0
370
   -2
100
AcDbLine
 10
930
 20
838
 11
930
 21
682
  0
LINE
  5
177
100
AcDbEntity
  8
rozmir
  6
ByBlock
 62
    0
370
   -2
100
AcDbLine
 10
937.0710678118654
 20
830.9289321881345
 11
922.9289321881346
 21
845.0710678118655
  0
LINE
  5
178
100
AcDbEntity
  8
rozmir
  6
ByBlock
 62
    0
370
   -2
100
AcDbLine
 10
937.0710678118654
 20
674.9289321881345
 11
922.9289321881346
 21
689.0710678118655
  0
MTEXT
  5
179
100
AcDbEntity
  8
rozmir
  6
CONTINUOUS
 62
    0
370
   -2
100
AcDbMText
 10
917.5
 20
760
 30
0
 40
15
 41
26.66666666666853
 71
    5
 72
    1
  1
156
  7
standard
210
0
220
0
230
1
 50
90
 73
    2
 44
1
  0
LINE
  5
17A
100
AcDbEntity
  8
rozmir
  6
ByBlock
 62
    0
370
   -2
100
AcDbLine
 10
952
 20
838
 11
925
 21
838
  0
LINE
  5
17B
100
AcDbEntity
  8
rozmir
  6
ByBlock
 62
    0
370
   -2
100
AcDbLine
 10
952
 20
682
 11
925
 21
682
  0
ENDBLK
  5
61
330
5F
100
AcDbEntity
  8
0
100
AcDbBlockEnd
  0
BLOCK
  5
63
330
62
100
AcDbEntity
  8
0
100
AcDbBlockBegin
  2
*D34
 70
    1
 10
0
 20
0
  3
*D34
  1

  0
LINE
  5
17C
100
AcDbEntity
  8
rozmir
  6
ByBlock
 62
    0
370
   -2
100
AcDbLine
 10
260
 20
220
 11
314
 21
220
  0
LINE
  5
17D
100
AcDbEntity
  8
rozmir
  6
ByBlock
 62
    0
370
   -2
100
AcDbLine
 10
272.9289321881345
 20
212.9289321881345
 11
287.0710678118655
 21
227.0710678118655
  0
LINE
  5
17E
100
AcDbEntity
  8
rozmir
  6
ByBlock
 62
    0
370
   -2
100
AcDbLine
 10
286.9289321881345
 20
212.9289321881345
 11
301.0710678118655
 21
227.0710678118655
  0
MTEXT
  5
17F
100
AcDbEntity
  8
rozmir
  6
CONTINUOUS
 62
    0
370
   -2
100
AcDbMText
 10
269.3333333333333
 20
232
 30
0
 40
15
 41
16.66666666666667
 71
    5
 72
    1
  1
14
  7
standard
210
0
220
0
230
1
 50
0
 73
    2
 44
1
  0
LINE
  5
180
100
AcDbEntity
  8
rozmir
  6
ByBlock
 62
    0
370
   -2
100
AcDbLine
 10
280
 20
252
 11
280
 21
215
  0
LINE
  5
181
100
AcDbEntity
  8
rozmir
  6
ByBlock
 62
    0
370
   -2
100
AcDbLine
 10
294
 20
252
 11
294
 21
215
  0
ENDBLK
  5
64
330
62
100
AcDbEntity
  8
0
100
AcDbBlockEnd
  0
BLOCK
  5
66
330
65
100
AcDbEntity
  8
0
100
AcDbBlockBegin
  2
*D88
 70
    1
 10
0
 20
0
  3
*D88
  1

  0
LINE
  5
182
100
AcDbEntity
  8
rozmir
  6
ByBlock
 62
    0
370
   -2
100
AcDbLine
 10
320
 20
254
 11
320
 21
142
  0
LINE
  5
183
100
AcDbEntity
  8
rozmir
  6
ByBlock
 62
    0
370
   -2
100
AcDbLine
 10
327.0710678118655
 20
246.9289321881345
 11
312.9289321881345
 21
261.0710678118655
  0
LINE
  5
184
100
AcDbEntity
  8
rozmir
  6
ByBlock
 62
    0
370
   -2
100
AcDbLine
 10
327.0710678118655
 20
134.9289321881345
 11
312.9289321881345
 21
149.0710678118655
  0
MTEXT
  5
185
100
AcDbEntity
  8
rozmir
  6
CONTINUOUS
 62
    0
370
   -2
100
AcDbMText
 10
307.5
 20
198
 30
0
 40
15
 41
23.33333333333334
 71
    5
 72
    1
  1
112
  7
standard
210
0
220
0
230
1
 50
90
 73
    2
 44
1
  0
LINE
  5
186
100
AcDbEntity
  8
rozmir
  6
ByBlock
 62
    0
370
   -2
100
AcDbLine
 10
344
 20
254
 11
315
 21
254
  0
LINE
  5
187
100
AcDbEntity
  8
rozmir
  6
ByBlock
 62
    0
370
   -2
100
AcDbLine
 10
344
 20
142
 11
315
 21
142
  0
ENDBLK
  5
67
330
65
100
AcDbEntity
  8
0
100
AcDbBlockEnd
  0
BLOCK
  5
69
330
68
100
AcDbEntity
  8
0
100
AcDbBlockBegin
  2
*D60
 70
    1
 10
0
 20
0
  3
*D60
  1

  0
LINE
  5
188
100
AcDbEntity
  8
rozmir
  6
ByBlock
 62
    0
370
   -2
100
AcDbLine
 10
46
 20
70
 11
149
 21
70
  0
LINE
  5
189
100
AcDbEntity
  8
rozmir
  6
ByBlock
 62
    0
370
   -2
100
AcDbLine
 10
53.07106781186548
 20
77.07106781186548
 11
38.92893218813452
 21
62.92893218813452
  0
LINE
  5
18A
100
AcDbEntity
  8
rozmir
  6
ByBlock
 62
    0
370
   -2
100
AcDbLine
 10
156.0710678118655
 20
77.07106781186548
 11
141.9289321881345
 21
62.92893218813452
  0
MTEXT
  5
18B
100
AcDbEntity
  8
rozmir
  6
CONTINUOUS
 62
    0
370
   -2
100
AcDbMText
 10
97.5
 20
82.5
 30
0
 40
15
 41
26.6666666666676
 71
    5
 72
    1
  1
103
  7
standard
210
0
220
0
230
1
 50
0
 73
    2
 44
1
  0
LINE
  5
18C
100
AcDbEntity
  8
rozmir
  6
ByBlock
 62
    0
370
   -2
100
AcDbLine
 10
46
 20
47.99999999999999
 11
46
 21
75
  0
LINE
  5
18D
100
AcDbEntity
  8
rozmir
  6
ByBlock
 62
    0
370
   -2
100
AcDbLine
 10
149
 20
47.99999999999999
 11
149
 21
75
  0
ENDBLK
  5
6A
330
68
100
AcDbEntity
  8
0
100
AcDbBlockEnd
  0
BLOCK
  5
6C
330
6B
100
AcDbEntity
  8
0
100
AcDbBlockBegin
  2
*D13
 70
    1
 10
0
 20
0
  3
*D13
  1

  0
LINE
  5
18E
100
AcDbEntity
  8
rozmir
  6
ByBlock
 62
    0
370
   -2
100
AcDbLine
 10
1060
 20
844
 11
1060
 21
923
  0
LINE
  5
18F
100
AcDbEntity
  8
rozmir
  6
ByBlock
 62
    0
370
   -2
100
AcDbLine
 10
1052.928932188134
 20
851.0710678118655
 11
1067.071067811866
 21
836.9289321881345
  0
LINE
  5
190
100
AcDbEntity
  8
rozmir
  6
ByBlock
 62
    0
370
   -2
100
AcDbLine
 10
1052.928932188134
 20
930.0710678118655
 11
1067.071067811866
 21
915.9289321881345
  0
MTEXT
  5
191
100
AcDbEntity
  8
rozmir
  6
CONTINUOUS
 62
    0
370
   -2
100
AcDbMText
 10
1047.5
 20
883.5
 30
0
 40
15
 41
18.33333333333334
 71
    5
 72
    1
  1
79
  7
standard
210
0
220
0
230
1
 50
90
 73
    2
 44
1
  0
LINE
  5
192
100
AcDbEntity
  8
rozmir
  6
ByBlock
 62
    0
370
   -2
100
AcDbLine
 10
1002
 20
844
 11
1065
 21
844
  0
LINE
  5
193
100
AcDbEntity
  8
rozmir
  6
ByBlock
 62
    0
370
   -2
100
AcDbLine
 10
1001.999999999999
 20
923
 11
1065
 21
923
  0
ENDBLK
  5
6D
330
6B
100
AcDbEntity
  8
0
100
AcDbBlockEnd
  0
BLOCK
  5
6F
330
6E
100
AcDbEntity
  8
0
100
AcDbBlockBegin
  2
*D46
 70
    1
 10
0
 20
0
  3
*D46
  1

  0
LINE
  5
194
100
AcDbEntity
  8
rozmir
  6
ByBlock
 62
    0
370
   -2
100
AcDbLine
 10
90
 20
331
 11
90
 21
266
  0
LINE
  5
195
100
AcDbEntity
  8
rozmir
  6
ByBlock
 62
    0
370
   -2
100
AcDbLine
 10
97.07106781186548
 20
323.9289321881345
 11
82.92893218813452
 21
338.0710678118655
  0
LINE
  5
196
100
AcDbEntity
  8
rozmir
  6
ByBlock
 62
    0
370
   -2
100
AcDbLine
 10
97.07106781186548
 20
258.9289321881345
 11
82.92893218813452
 21
273.0710678118655
  0
MTEXT
  5
197
100
AcDbEntity
  8
rozmir
  6
CONTINUOUS
 62
    0
370
   -2
100
AcDbMText
 10
77.5
 20
298.5
 30
0
 40
15
 41
18.3333333333352
 71
    5
 72
    1
  1
65
  7
standard
210
0
220
0
230
1
 50
90
 73
    2
 44
1
  0
LINE
  5
198
100
AcDbEntity
  8
rozmir
  6
ByBlock
 62
    0
370
   -2
100
AcDbLine
 10
48
 20
331
 11
95
 21
331
  0
LINE
  5
199
100
AcDbEntity
  8
rozmir
  6
ByBlock
 62
    0
370
   -2
100
AcDbLine
 10
48
 20
266
 11
95
 21
266
  0
ENDBLK
  5
70
330
6E
100
AcDbEntity
  8
0
100
AcDbBlockEnd
  0
BLOCK
  5
72
330
71
100
AcDbEntity
  8
0
100
AcDbBlockBegin
  2
*D66
 70
    1
 10
0
 20
0
  3
*D66
  1

  0
LINE
  5
19A
100
AcDbEntity
  8
rozmir
  6
ByBlock
 62
    0
370
   -2
100
AcDbLine
 10
580
 20
536
 11
580
 21
579
  0
LINE
  5
19B
100
AcDbEntity
  8
rozmir
  6
ByBlock
 62
    0
370
   -2
100
AcDbLine
 10
572.9289321881346
 20
543.0710678118655
 11
587.0710678118654
 21
528.9289321881345
  0
LINE
  5
19C
100
AcDbEntity
  8
rozmir
  6
ByBlock
 62
    0
370
   -2
100
AcDbLine
 10
572.9289321881346
 20
586.0710678118655
 11
587.0710678118654
 21
571.9289321881345
  0
MTEXT
  5
19D
100
AcDbEntity
  8
rozmir
  6
CONTINUOUS
 62
    0
370
   -2
100
AcDbMText
 10
567.5
 20
557.5
 30
0
 40
15
 41
20.00000000000093
 71
    5
 72
    1
  1
43
  7
standard
210
0
220
0
230
1
 50
90
 73
    2
 44
1
  0
LINE
  5
19E
100
AcDbEntity
  8
rozmir
  6
ByBlock
 62
    0
370
   -2
100
AcDbLine
 10
548
 20
536
 11
585
 21
536
  0
LINE
  5
19F
100
AcDbEntity
  8
rozmir
  6
ByBlock
 62
    0
370
   -2
100
AcDbLine
 10
548
 20
579
 11
585
 21
579
  0
ENDBLK
  5
73
330
71
100
AcDbEntity
  8
0
100
AcDbBlockEnd
  0
BLOCK
  5
75
330
74
100
AcDbEntity
  8
0
100
AcDbBlockBegin
  2
*D47
 70
    1
 10
0
 20
0
  3
*D47
  1

  0
LINE
  5
1A0
100
AcDbEntity
  8
rozmir
  6
ByBlock
 62
    0
370
   -2
100
AcDbLine
 10
46
 20
220
 11
98
 21
220
  0
LINE
  5
1A1
100
AcDbEntity
  8
rozmir
  6
ByBlock
 62
    0
370
   -2
100
AcDbLine
 10
53.07106781186548
 20
227.0710678118655
 11
38.92893218813452
 21
212.9289321881345
  0
LINE
  5
1A2
100
AcDbEntity
  8
rozmir
  6
ByBlock
 62
    0
370
   -2
100
AcDbLine
 10
105.0710678118655
 20
227.0710678118655
 11
90.92893218813452
 21
212.9289321881345
  0
MTEXT
  5
1A3
100
AcDbEntity
  8
rozmir
  6
CONTINUOUS
 62
    0
370
   -2
100
AcDbMText
 10
72
 20
232.5
 30
0
 40
15
 41
18.33333333333426
 71
    5
 72
    1
  1
52
  7
standard
210
0
220
0
230
1
 50
0
 73
    2
 44
1
  0
LINE
  5
1A4
100
AcDbEntity
  8
rozmir
  6
ByBlock
 62
    0
370
   -2
100
AcDbLine
 10
46
 20
252
 11
46
 21
215
  0
LINE
  5
1A5
100
AcDbEntity
  8
rozmir
  6
ByBlock
 62
    0
370
   -2
100
AcDbLine
 10
98
 20
252
 11
98
 21
215
  0
ENDBLK
  5
76
330
74
100
AcDbEntity
  8
0
100
AcDbBlockEnd
  0
BLOCK
  5
78
330
77
100
AcDbEntity
  8
0
100
AcDbBlockBegin
  2
*D17
 70
    1
 10
0
 20
0
  3
*D17
  1

  0
LINE
  5
1A6
100
AcDbEntity
  8
rozmir
  6
ByBlock
 62
    0
370
   -2
100
AcDbLine
 10
429
 20
1090
 11
1000.000000000001
 21
1090
  0
LINE
  5
1A7
100
AcDbEntity
  8
rozmir
  6
ByBlock
 62
    0
370
   -2
100
AcDbLine
 10
436.0710678118655
 20
1097.071067811866
 11
421.9289321881345
 21
1082.928932188134
  0
LINE
  5
1A8
100
AcDbEntity
  8
rozmir
  6
ByBlock
 62
    0
370
   -2
100
AcDbLine
 10
1007.071067811867
 20
1097.071067811866
 11
992.9289321881355
 21
1082.928932188134
  0
MTEXT
  5
1A9
100
AcDbEntity
  8
rozmir
  6
CONTINUOUS
 62
    0
370
   -2
100
AcDbMText
 10
714.5
 20
1102.5
 30
0
 40
15
 41
26.6666666666676
 71
    5
 72
    1
  1
571
  7
standard
210
0
220
0
230
1
 50
0
 73
    2
 44
1
  0
LINE
  5
1AA
100
AcDbEntity
  8
rozmir
  6
ByBlock
 62
    0
370
   -2
100
AcDbLine
 10
429
 20
1054
 11
429
 21
1095
  0
LINE
  5
1AB
100
AcDbEntity
  8
rozmir
  6
ByBlock
 62
    0
370
   -2
100
AcDbLine
 10
1000.000000000001
 20
1054
 11
1000.000000000001
 21
1095
  0
ENDBLK
  5
79
330
77
100
AcDbEntity
  8
0
100
AcDbBlockEnd
  0
BLOCK
  5
7B
330
7A
100
AcDbEntity
  8
0
100
AcDbBlockBegin
  2
*D42
 70
    1
 10
0
 20
0
  3
*D42
  1

  0
LINE
  5
1AC
100
AcDbEntity
  8
rozmir
  6
ByBlock
 62
    0
370
   -2
100
AcDbLine
 10
90
 20
903
 11
90
 21
812
  0
LINE
  5
1AD
100
AcDbEntity
  8
rozmir
  6
ByBlock
 62
    0
370
   -2
100
AcDbLine
 10
97.07106781186548
 20
895.9289321881345
 11
82.92893218813452
 21
910.0710678118655
  0
LINE
  5
1AE
100
AcDbEntity
  8
rozmir
  6
ByBlock
 62
    0
370
   -2
100
AcDbLine
 10
97.07106781186548
 20
804.9289321881345
 11
82.92893218813452
 21
819.0710678118655
  0
MTEXT
  5
1AF
100
AcDbEntity
  8
rozmir
  6
CONTINUOUS
 62
    0
370
   -2
100
AcDbMText
 10
77.5
 20
857.5
 30
0
 40
15
 41
15.00000000000093
 71
    5
 72
    1
  1
91
  7
standard
210
0
220
0
230
1
 50
90
 73
    2
 44
1
  0
LINE
  5
1B0
100
AcDbEntity
  8
rozmir
  6
ByBlock
 62
    0
370
   -2
100
AcDbLine
 10
48
 20
903
 11
95
 21
903
  0
LINE
  5
1B1
100
AcDbEntity
  8
rozmir
  6
ByBlock
 62
    0
370
   -2
100
AcDbLine
 10
48
 20
812
 11
95
 21
812
  0
ENDBLK
  5
7C
330
7A
100
AcDbEntity
  8
0
100
AcDbBlockEnd
  0
BLOCK
  5
7E
330
7D
100
AcDbEntity
  8
0
100
AcDbBlockBegin
  2
*D45
 70
    1
 10
0
 20
0
  3
*D45
  1

  0
LINE
  5
1B2
100
AcDbEntity
  8
rozmir
  6
ByBlock
 62
    0
370
   -2
100
AcDbLine
 10
90
 20
396
 11
90
 21
331
  0
LINE
  5
1B3
100
AcDbEntity
  8
rozmir
  6
ByBlock
 62
    0
370
   -2
100
AcDbLine
 10
97.07106781186548
 20
388.9289321881345
 11
82.92893218813452
 21
403.0710678118655
  0
LINE
  5
1B4
100
AcDbEntity
  8
rozmir
  6
ByBlock
 62
    0
370
   -2
100
AcDbLine
 10
97.07106781186548
 20
323.9289321881345
 11
82.92893218813452
 21
338.0710678118655
  0
MTEXT
  5
1B5
100
AcDbEntity
  8
rozmir
  6
CONTINUOUS
 62
    0
370
   -2
100
AcDbMText
 10
77.5
 20
363.5
 30
0
 40
15
 41
18.3333333333352
 71
    5
 72
    1
  1
65
  7
standard
210
0
220
0
230
1
 50
90
 73
    2
 44
1
  0
LINE
  5
1B6
100
AcDbEntity
  8
rozmir
  6
ByBlock
 62
    0
370
   -2
100
AcDbLine
 10
48
 20
396
 11
95
 21
396
  0
LINE
  5
1B7
100
AcDbEntity
  8
rozmir
  6
ByBlock
 62
    0
370
   -2
100
AcDbLine
 10
48
 20
331
 11
95
 21
331
  0
ENDBLK
  5
7F
330
7D
100
AcDbEntity
  8
0
100
AcDbBlockEnd
  0
BLOCK
  5
81
330
80
100
AcDbEntity
  8
0
100
AcDbBlockBegin
  2
*D43
 70
    1
 10
0
 20
0
  3
*D43
  1

  0
LINE
  5
1B8
100
AcDbEntity
  8
rozmir
  6
ByBlock
 62
    0
370
   -2
100
AcDbLine
 10
90
 20
812
 11
90
 21
704
  0
LINE
  5
1B9
100
AcDbEntity
  8
rozmir
  6
ByBlock
 62
    0
370
   -2
100
AcDbLine
 10
97.07106781186548
 20
804.9289321881345
 11
82.92893218813452
 21
819.0710678118655
  0
LINE
  5
1BA
100
AcDbEntity
  8
rozmir
  6
ByBlock
 62
    0
370
   -2
100
AcDbLine
 10
97.07106781186548
 20
696.9289321881345
 11
82.92893218813452
 21
711.0710678118655
  0
MTEXT
  5
1BB
100
AcDbEntity
  8
rozmir
  6
CONTINUOUS
 62
    0
370
   -2
100
AcDbMText
 10
77.5
 20
758
 30
0
 40
15
 41
26.66666666666667
 71
    5
 72
    1
  1
108
  7
standard
210
0
220
0
230
1
 50
90
 73
    2
 44
1
  0
LINE
  5
1BC
100
AcDbEntity
  8
rozmir
  6
ByBlock
 62
    0
370
   -2
100
AcDbLine
 10
48
 20
812
 11
95
 21
812
  0
LINE
  5
1BD
100
AcDbEntity
  8
rozmir
  6
ByBlock
 62
    0
370
   -2
100
AcDbLine
 10
48
 20
704
 11
95
 21
704
  0
ENDBLK
  5
82
330
80
100
AcDbEntity
  8
0
100
AcDbBlockEnd
  0
BLOCK
  5
84
330
83
100
AcDbEntity
  8
0
100
AcDbBlockBegin
  2
*D22
 70
    1
 10
0
 20
0
  3
*D22
  1

  0
LINE
  5
1BE
100
AcDbEntity
  8
rozmir
  6
ByBlock
 62
    0
370
   -2
100
AcDbLine
 10
481
 20
-60
 11
675
 21
-60
  0
LINE
  5
1BF
100
AcDbEntity
  8
rozmir
  6
ByBlock
 62
    0
370
   -2
100
AcDbLine
 10
488.0710678118655
 20
-52.92893218813452
 11
473.9289321881345
 21
-67.07106781186548
  0
LINE
  5
1C0
100
AcDbEntity
  8
rozmir
  6
ByBlock
 62
    0
370
   -2
100
AcDbLine
 10
682.0710678118655
 20
-52.92893218813452
 11
667.9289321881345
 21
-67.07106781186548
  0
MTEXT
  5
1C1
100
AcDbEntity
  8
rozmir
  6
CONTINUOUS
 62
    0
370
   -2
100
AcDbMText
 10
578
 20
-47.5
 30
0
 40
15
 41
28.33333333333334
 71
    5
 72
    1
  1
194
  7
standard
210
0
220
0
230
1
 50
0
 73
    2
 44
1
  0
LINE
  5
1C2
100
AcDbEntity
  8
rozmir
  6
ByBlock
 62
    0
370
   -2
100
AcDbLine
 10
481
 20
-2
 11
481
 21
-65
  0
LINE
  5
1C3
100
AcDbEntity
  8
rozmir
  6
ByBlock
 62
    0
370
   -2
100
AcDbLine
 10
675
 20
-2
 11
675
 21
-65
  0
ENDBLK
  5
85
330
83
100
AcDbEntity
  8
0
100
AcDbBlockEnd
  0
BLOCK
  5
87
330
86
100
AcDbEntity
  8
0
100
AcDbBlockBegin
  2
*D30
 70
    1
 10
0
 20
0
  3
*D30
  1

  0
LINE
  5
1C4
100
AcDbEntity
  8
rozmir
  6
ByBlock
 62
    0
370
   -2
100
AcDbLine
 10
430
 20
724
 11
430
 21
664
  0
LINE
  5
1C5
100
AcDbEntity
  8
rozmir
  6
ByBlock
 62
    0
370
   -2
100
AcDbLine
 10
422.9289321881345
 20
711.0710678118655
 11
437.0710678118655
 21
696.9289321881345
  0
LINE
  5
1C6
100
AcDbEntity
  8
rozmir
  6
ByBlock
 62
    0
370
   -2
100
AcDbLine
 10
422.9289321881345
 20
691.0710678118655
 11
437.0710678118655
 21
676.9289321881345
  0
MTEXT
  5
1C7
100
AcDbEntity
  8
rozmir
  6
CONTINUOUS
 62
    0
370
   -2
100
AcDbMText
 10
417.5
 20
694
 30
0
 40
15
 41
18.33333333333334
 71
    5
 72
    1
  1
20
  7
standard
210
0
220
0
230
1
 50
90
 73
    2
 44
1
  0
LINE
  5
1C8
100
AcDbEntity
  8
rozmir
  6
ByBlock
 62
    0
370
   -2
100
AcDbLine
 10
395
 20
704
 11
435
 21
704
  0
LINE
  5
1C9
100
AcDbEntity
  8
rozmir
  6
ByBlock
 62
    0
370
   -2
100
AcDbLine
 10
395
 20
684
 11
435
 21
684
  0
ENDBLK
  5
88
330
86
100
AcDbEntity
  8
0
100
AcDbBlockEnd
  0
BLOCK
  5
8A
330
89
100
AcDbEntity
  8
0
100
AcDbBlockBegin
  2
*D5
 70
    1
 10
0
 20
0
  3
*D5
  1

  0
LINE
  5
1CA
100
AcDbEntity
  8
rozmir
  6
ByBlock
 62
    0
370
   -2
100
AcDbLine
 10
-40.00000000000001
 20
623
 11
-40
 21
818
  0
LINE
  5
1CB
100
AcDbEntity
  8
rozmir
  6
ByBlock
 62
    0
370
   -2
100
AcDbLine
 10
-47.07106781186549
 20
630.0710678118655
 11
-32.92893218813454
 21
615.9289321881345
  0
LINE
  5
1CC
100
AcDbEntity
  8
rozmir
  6
ByBlock
 62
    0
370
   -2
100
AcDbLine
 10
-47.07106781186548
 20
825.0710678118655
 11
-32.92893218813452
 21
810.9289321881345
  0
MTEXT
  5
1CD
100
AcDbEntity
  8
rozmir
  6
CONTINUOUS
 62
    0
370
   -2
100
AcDbMText
 10
-52.5
 20
720.5
 30
0
 40
15
 41
26.6666666666676
 71
    5
 72
    1
  1
195
  7
standard
210
0
220
0
230
1
 50
90
 73
    2
 44
1
  0
LINE
  5
1CE
100
AcDbEntity
  8
rozmir
  6
ByBlock
 62
    0
370
   -2
100
AcDbLine
 10
-2
 20
623
 11
-45.00000000000001
 21
623
  0
LINE
  5
1CF
100
AcDbEntity
  8
rozmir
  6
ByBlock
 62
    0
370
   -2
100
AcDbLine
 10
-2
 20
818
 11
-45
 21
818
  0
ENDBLK
  5
8B
330
89
100
AcDbEntity
  8
0
100
AcDbBlockEnd
  0
BLOCK
  5
8D
330
8C
100
AcDbEntity
  8
0
100
AcDbBlockBegin
  2
*D82
 70
    1
 10
0
 20
0
  3
*D82
  1

  0
LINE
  5
1D0
100
AcDbEntity
  8
rozmir
  6
ByBlock
 62
    0
370
   -2
100
AcDbLine
 10
90
 20
587
 11
90
 21
484
  0
LINE
  5
1D1
100
AcDbEntity
  8
rozmir
  6
ByBlock
 62
    0
370
   -2
100
AcDbLine
 10
97.07106781186548
 20
579.9289321881345
 11
82.92893218813452
 21
594.0710678118655
  0
LINE
  5
1D2
100
AcDbEntity
  8
rozmir
  6
ByBlock
 62
    0
370
   -2
100
AcDbLine
 10
97.07106781186548
 20
476.9289321881345
 11
82.92893218813452
 21
491.0710678118655
  0
MTEXT
  5
1D3
100
AcDbEntity
  8
rozmir
  6
CONTINUOUS
 62
    0
370
   -2
100
AcDbMText
 10
77.5
 20
535.5
 30
0
 40
15
 41
26.6666666666676
 71
    5
 72
    1
  1
103
  7
standard
210
0
220
0
230
1
 50
90
 73
    2
 44
1
  0
LINE
  5
1D4
100
AcDbEntity
  8
rozmir
  6
ByBlock
 62
    0
370
   -2
100
AcDbLine
 10
48
 20
587
 11
95
 21
587
  0
LINE
  5
1D5
100
AcDbEntity
  8
rozmir
  6
ByBlock
 62
    0
370
   -2
100
AcDbLine
 10
48
 20
484
 11
95
 21
484
  0
ENDBLK
  5
8E
330
8C
100
AcDbEntity
  8
0
100
AcDbBlockEnd
  0
BLOCK
  5
90
330
8F
100
AcDbEntity
  8
0
100
AcDbBlockBegin
  2
*D29
 70
    1
 10
0
 20
0
  3
*D29
  1

  0
LINE
  5
1D6
100
AcDbEntity
  8
rozmir
  6
ByBlock
 62
    0
370
   -2
100
AcDbLine
 10
346
 20
420
 11
371
 21
420
  0
LINE
  5
1D7
100
AcDbEntity
  8
rozmir
  6
ByBlock
 62
    0
370
   -2
100
AcDbLine
 10
353.0710678118655
 20
427.0710678118655
 11
338.9289321881345
 21
412.9289321881345
  0
LINE
  5
1D8
100
AcDbEntity
  8
rozmir
  6
ByBlock
 62
    0
370
   -2
100
AcDbLine
 10
378.0710678118655
 20
427.0710678118655
 11
363.9289321881345
 21
412.9289321881345
  0
MTEXT
  5
1D9
100
AcDbEntity
  8
rozmir
  6
CONTINUOUS
 62
    0
370
   -2
100
AcDbMText
 10
358.5
 20
432.5
 30
0
 40
15
 41
18.33333333333427
 71
    5
 72
    1
  1
25
  7
standard
210
0
220
0
230
1
 50
0
 73
    2
 44
1
  0
LINE
  5
1DA
100
AcDbEntity
  8
rozmir
  6
ByBlock
 62
    0
370
   -2
100
AcDbLine
 10
346
 20
448
 11
346
 21
415
  0
LINE
  5
1DB
100
AcDbEntity
  8
rozmir
  6
ByBlock
 62
    0
370
   -2
100
AcDbLine
 10
371
 20
448
 11
371
 21
415
  0
ENDBLK
  5
91
330
8F
100
AcDbEntity
  8
0
100
AcDbBlockEnd
  0
BLOCK
  5
93
330
92
100
AcDbEntity
  8
0
100
AcDbBlockBegin
  2
*D77
 70
    1
 10
0
 20
0
  3
*D77
  1

  0
LINE
  5
1DC
100
AcDbEntity
  8
rozmir
  6
ByBlock
 62
    0
370
   -2
100
AcDbLine
 10
930
 20
516
 11
930
 21
435
  0
LINE
  5
1DD
100
AcDbEntity
  8
rozmir
  6
ByBlock
 62
    0
370
   -2
100
AcDbLine
 10
937.0710678118654
 20
508.9289321881345
 11
922.9289321881346
 21
523.0710678118655
  0
LINE
  5
1DE
100
AcDbEntity
  8
rozmir
  6
ByBlock
 62
    0
370
   -2
100
AcDbLine
 10
937.0710678118654
 20
427.9289321881345
 11
922.9289321881346
 21
442.0710678118655
  0
MTEXT
  5
1DF
100
AcDbEntity
  8
rozmir
  6
CONTINUOUS
 62
    0
370
   -2
100
AcDbMText
 10
917.5
 20
475.5
 30
0
 40
15
 41
15
 71
    5
 72
    1
  1
81
  7
standard
210
0
220
0
230
1
 50
90
 73
    2
 44
1
  0
LINE
  5
1E0
100
AcDbEntity
  8
rozmir
  6
ByBlock
 62
    0
370
   -2
100
AcDbLine
 10
952
 20
516
 11
925
 21
516
  0
LINE
  5
1E1
100
AcDbEntity
  8
rozmir
  6
ByBlock
 62
    0
370
   -2
100
AcDbLine
 10
952
 20
435
 11
925
 21
435
  0
ENDBLK
  5
94
330
92
100
AcDbEntity
  8
0
100
AcDbBlockEnd
  0
BLOCK
  5
96
330
95
100
AcDbEntity
  8
0
100
AcDbBlockBegin
  2
*D81
 70
    1
 10
0
 20
0
  3
*D81
  1

  0
LINE
  5
1E2
100
AcDbEntity
  8
rozmir
  6
ByBlock
 62
    0
370
   -2
100
AcDbLine
 10
90
 20
472
 11
90
 21
396
  0
LINE
  5
1E3
100
AcDbEntity
  8
rozmir
  6
ByBlock
 62
    0
370
   -2
100
AcDbLine
 10
97.07106781186548
 20
464.9289321881345
 11
82.92893218813452
 21
479.0710678118655
  0
LINE
  5
1E4
100
AcDbEntity
  8
rozmir
  6
ByBlock
 62
    0
370
   -2
100
AcDbLine
 10
97.07106781186548
 20
388.9289321881345
 11
82.92893218813452
 21
403.0710678118655
  0
MTEXT
  5
1E5
100
AcDbEntity
  8
rozmir
  6
CONTINUOUS
 62
    0
370
   -2
100
AcDbMText
 10
77.5
 20
434
 30
0
 40
15
 41
18.33333333333427
 71
    5
 72
    1
  1
76
  7
standard
210
0
220
0
230
1
 50
90
 73
    2
 44
1
  0
LINE
  5
1E6
100
AcDbEntity
  8
rozmir
  6
ByBlock
 62
    0
370
   -2
100
AcDbLine
 10
48
 20
472
 11
95
 21
472
  0
LINE
  5
1E7
100
AcDbEntity
  8
rozmir
  6
ByBlock
 62
    0
370
   -2
100
AcDbLine
 10
48
 20
396
 11
95
 21
396
  0
ENDBLK
  5
97
330
95
100
AcDbEntity
  8
0
100
AcDbBlockEnd
  0
BLOCK
  5
99
330
98
100
AcDbEntity
  8
0
100
AcDbBlockBegin
  2
*D65
 70
    1
 10
0
 20
0
  3
*D65
  1

  0
LINE
  5
1E8
100
AcDbEntity
  8
rozmir
  6
ByBlock
 62
    0
370
   -2
100
AcDbLine
 10
546
 20
960
 11
954
 21
960
  0
LINE
  5
1E9
100
AcDbEntity
  8
rozmir
  6
ByBlock
 62
    0
370
   -2
100
AcDbLine
 10
553.0710678118655
 20
967.0710678118654
 11
538.9289321881345
 21
952.9289321881346
  0
LINE
  5
1EA
100
AcDbEntity
  8
rozmir
  6
ByBlock
 62
    0
370
   -2
100
AcDbLine
 10
961.0710678118655
 20
967.0710678118654
 11
946.9289321881345
 21
952.9289321881346
  0
MTEXT
  5
1EB
100
AcDbEntity
  8
rozmir
  6
CONTINUOUS
 62
    0
370
   -2
100
AcDbMText
 10
750
 20
972.5
 30
0
 40
15
 41
31.66666666666667
 71
    5
 72
    1
  1
408
  7
standard
210
0
220
0
230
1
 50
0
 73
    2
 44
1
  0
LINE
  5
1EC
100
AcDbEntity
  8
rozmir
  6
ByBlock
 62
    0
370
   -2
100
AcDbLine
 10
546
 20
1004
 11
546
 21
955
  0
LINE
  5
1ED
100
AcDbEntity
  8
rozmir
  6
ByBlock
 62
    0
370
   -2
100
AcDbLine
 10
954
 20
1004
 11
954
 21
955
  0
ENDBLK
  5
9A
330
98
100
AcDbEntity
  8
0
100
AcDbBlockEnd
  0
BLOCK
  5
9C
330
9B
100
AcDbEntity
  8
0
100
AcDbBlockBegin
  2
*D58
 70
    1
 10
0
 20
0
  3
*D58
  1

  0
LINE
  5
1EE
100
AcDbEntity
  8
rozmir
  6
ByBlock
 62
    0
370
   -2
100
AcDbLine
 10
396
 20
70
 11
487
 21
70
  0
LINE
  5
1EF
100
AcDbEntity
  8
rozmir
  6
ByBlock
 62
    0
370
   -2
100
AcDbLine
 10
403.0710678118655
 20
77.07106781186548
 11
388.9289321881345
 21
62.92893218813452
  0
LINE
  5
1F0
100
AcDbEntity
  8
rozmir
  6
ByBlock
 62
    0
370
   -2
100
AcDbLine
 10
494.0710678118655
 20
77.07106781186548
 11
479.9289321881345
 21
62.92893218813452
  0
MTEXT
  5
1F1
100
AcDbEntity
  8
rozmir
  6
CONTINUOUS
 62
    0
370
   -2
100
AcDbMText
 10
441.5
 20
82.5
 30
0
 40
15
 41
15.00000000000093
 71
    5
 72
    1
  1
91
  7
standard
210
0
220
0
230
1
 50
0
 73
    2
 44
1
  0
LINE
  5
1F2
100
AcDbEntity
  8
rozmir
  6
ByBlock
 62
    0
370
   -2
100
AcDbLine
 10
396
 20
47.99999999999999
 11
396
 21
75
  0
LINE
  5
1F3
100
AcDbEntity
  8
rozmir
  6
ByBlock
 62
    0
370
   -2
100
AcDbLine
 10
487
 20
48
 11
487
 21
75
  0
ENDBLK
  5
9D
330
9B
100
AcDbEntity
  8
0
100
AcDbBlockEnd
  0
BLOCK
  5
9F
330
9E
100
AcDbEntity
  8
0
100
AcDbBlockBegin
  2
*D12
 70
    1
 10
0
 20
0
  3
*D12
  1

  0
LINE
  5
1F4
100
AcDbEntity
  8
rozmir
  6
ByBlock
 62
    0
370
   -2
100
AcDbLine
 10
1060
 20
676
 11
1060
 21
844
  0
LINE
  5
1F5
100
AcDbEntity
  8
rozmir
  6
ByBlock
 62
    0
370
   -2
100
AcDbLine
 10
1052.928932188134
 20
683.0710678118655
 11
1067.071067811866
 21
668.9289321881345
  0
LINE
  5
1F6
100
AcDbEntity
  8
rozmir
  6
ByBlock
 62
    0
370
   -2
100
AcDbLine
 10
1052.928932188134
 20
851.0710678118655
 11
1067.071067811866
 21
836.9289321881345
  0
MTEXT
  5
1F7
100
AcDbEntity
  8
rozmir
  6
CONTINUOUS
 62
    0
370
   -2
100
AcDbMText
 10
1047.5
 20
760
 30
0
 40
15
 41
26.6666666666676
 71
    5
 72
    1
  1
168
  7
standard
210
0
220
0
230
1
 50
90
 73
    2
 44
1
  0
LINE
  5
1F8
100
AcDbEntity
  8
rozmir
  6
ByBlock
 62
    0
370
   -2
100
AcDbLine
 10
1002
 20
676
 11
1065
 21
676
  0
LINE
  5
1F9
100
AcDbEntity
  8
rozmir
  6
ByBlock
 62
    0
370
   -2
100
AcDbLine
 10
1002
 20
844
 11
1065
 21
844
  0
ENDBLK
  5
A0
330
9E
100
AcDbEntity
  8
0
100
AcDbBlockEnd
  0
BLOCK
  5
A2
330
A1
100
AcDbEntity
  8
0
100
AcDbBlockBegin
  2
*D56
 70
    1
 10
0
 20
0
  3
*D56
  1

  0
LINE
  5
1FA
100
AcDbEntity
  8
rozmir
  6
ByBlock
 62
    0
370
   -2
100
AcDbLine
 10
240
 20
70
 11
346
 21
70
  0
LINE
  5
1FB
100
AcDbEntity
  8
rozmir
  6
ByBlock
 62
    0
370
   -2
100
AcDbLine
 10
247.0710678118655
 20
77.07106781186548
 11
232.9289321881345
 21
62.92893218813452
  0
LINE
  5
1FC
100
AcDbEntity
  8
rozmir
  6
ByBlock
 62
    0
370
   -2
100
AcDbLine
 10
353.0710678118655
 20
77.07106781186548
 11
338.9289321881345
 21
62.92893218813452
  0
MTEXT
  5
1FD
100
AcDbEntity
  8
rozmir
  6
CONTINUOUS
 62
    0
370
   -2
100
AcDbMText
 10
293
 20
82.5
 30
0
 40
15
 41
26.6666666666676
 71
    5
 72
    1
  1
106
  7
standard
210
0
220
0
230
1
 50
0
 73
    2
 44
1
  0
LINE
  5
1FE
100
AcDbEntity
  8
rozmir
  6
ByBlock
 62
    0
370
   -2
100
AcDbLine
 10
240
 20
47.99999999999999
 11
240
 21
75
  0
LINE
  5
1FF
100
AcDbEntity
  8
rozmir
  6
ByBlock
 62
    0
370
   -2
100
AcDbLine
 10
346
 20
47.99999999999999
 11
346
 21
75
  0
ENDBLK
  5
A3
330
A1
100
AcDbEntity
  8
0
100
AcDbBlockEnd
  0
BLOCK
  5
A5
330
A4
100
AcDbEntity
  8
0
100
AcDbBlockBegin
  2
*D38
 70
    1
 10
0
 20
0
  3
*D38
  1

  0
LINE
  5
200
100
AcDbEntity
  8
rozmir
  6
ByBlock
 62
    0
370
   -2
100
AcDbLine
 10
490
 20
501
 11
490
 21
464
  0
LINE
  5
201
100
AcDbEntity
  8
rozmir
  6
ByBlock
 62
    0
370
   -2
100
AcDbLine
 10
497.0710678118655
 20
493.9289321881345
 11
482.9289321881345
 21
508.0710678118655
  0
LINE
  5
202
100
AcDbEntity
  8
rozmir
  6
ByBlock
 62
    0
370
   -2
100
AcDbLine
 10
497.0710678118655
 20
456.9289321881345
 11
482.9289321881345
 21
471.0710678118655
  0
MTEXT
  5
203
100
AcDbEntity
  8
rozmir
  6
CONTINUOUS
 62
    0
370
   -2
100
AcDbMText
 10
477.5
 20
482.5
 30
0
 40
15
 41
18.33333333333426
 71
    5
 72
    1
  1
37
  7
standard
210
0
220
0
230
1
 50
90
 73
    2
 44
1
  0
LINE
  5
204
100
AcDbEntity
  8
rozmir
  6
ByBlock
 62
    0
370
   -2
100
AcDbLine
 10
518
 20
501
 11
485
 21
501
  0
LINE
  5
205
100
AcDbEntity
  8
rozmir
  6
ByBlock
 62
    0
370
   -2
100
AcDbLine
 10
506
 20
464
 11
485
 21
464
  0
ENDBLK
  5
A6
330
A4
100
AcDbEntity
  8
0
100
AcDbBlockEnd
  0
BLOCK
  5
A8
330
A7
100
AcDbEntity
  8
0
100
AcDbBlockBegin
  2
*D75
 70
    1
 10
0
 20
0
  3
*D75
  1

  0
LINE
  5
206
100
AcDbEntity
  8
rozmir
  6
ByBlock
 62
    0
370
   -2
100
AcDbLine
 10
930
 20
682
 11
930
 21
591
  0
LINE
  5
207
100
AcDbEntity
  8
rozmir
  6
ByBlock
 62
    0
370
   -2
100
AcDbLine
 10
937.0710678118654
 20
674.9289321881345
 11
922.9289321881346
 21
689.0710678118655
  0
LINE
  5
208
100
AcDbEntity
  8
rozmir
  6
ByBlock
 62
    0
370
   -2
100
AcDbLine
 10
937.0710678118654
 20
583.9289321881345
 11
922.9289321881346
 21
598.0710678118655
  0
MTEXT
  5
209
100
AcDbEntity
  8
rozmir
  6
CONTINUOUS
 62
    0
370
   -2
100
AcDbMText
 10
917.5
 20
636.5
 30
0
 40
15
 41
15.00000000000093
 71
    5
 72
    1
  1
91
  7
standard
210
0
220
0
230
1
 50
90
 73
    2
 44
1
  0
LINE
  5
20A
100
AcDbEntity
  8
rozmir
  6
ByBlock
 62
    0
370
   -2
100
AcDbLine
 10
952
 20
682
 11
925
 21
682
  0
LINE
  5
20B
100
AcDbEntity
  8
rozmir
  6
ByBlock
 62
    0
370
   -2
100
AcDbLine
 10
952
 20
591
 11
925
 21
591
  0
ENDBLK
  5
A9
330
A7
100
AcDbEntity
  8
0
100
AcDbBlockEnd
  0
BLOCK
  5
AB
330
AA
100
AcDbEntity
  8
0
100
AcDbBlockBegin
  2
*D83
 70
    1
 10
0
 20
0
  3
*D83
  1

  0
LINE
  5
20C
100
AcDbEntity
  8
rozmir
  6
ByBlock
 62
    0
370
   -2
100
AcDbLine
 10
310
 20
452
 11
310
 21
504
  0
LINE
  5
20D
100
AcDbEntity
  8
rozmir
  6
ByBlock
 62
    0
370
   -2
100
AcDbLine
 10
317.0710678118655
 20
464.9289321881345
 11
302.9289321881345
 21
479.0710678118655
  0
LINE
  5
20E
100
AcDbEntity
  8
rozmir
  6
ByBlock
 62
    0
370
   -2
100
AcDbLine
 10
317.0710678118655
 20
476.9289321881345
 11
302.9289321881345
 21
491.0710678118655
  0
MTEXT
  5
20F
100
AcDbEntity
  8
rozmir
  6
CONTINUOUS
 62
    0
370
   -2
100
AcDbMText
 10
297.5
 20
496.5
 30
0
 40
15
 41
15
 71
    5
 72
    1
  1
12
  7
standard
210
0
220
0
230
1
 50
90
 73
    2
 44
1
  0
LINE
  5
210
100
AcDbEntity
  8
rozmir
  6
ByBlock
 62
    0
370
   -2
100
AcDbLine
 10
302
 20
472
 11
315
 21
472
  0
LINE
  5
211
100
AcDbEntity
  8
rozmir
  6
ByBlock
 62
    0
370
   -2
100
AcDbLine
 10
302
 20
484
 11
315
 21
484
  0
ENDBLK
  5
AC
330
AA
100
AcDbEntity
  8
0
100
AcDbBlockEnd
  0
BLOCK
  5
AE
330
AD
100
AcDbEntity
  8
0
100
AcDbBlockBegin
  2
*D50
 70
    1
 10
0
 20
0
  3
*D50
  1

  0
LINE
  5
212
100
AcDbEntity
  8
rozmir
  6
ByBlock
 62
    0
370
   -2
100
AcDbLine
 10
344
 20
960
 11
435
 21
960
  0
LINE
  5
213
100
AcDbEntity
  8
rozmir
  6
ByBlock
 62
    0
370
   -2
100
AcDbLine
 10
351.0710678118655
 20
967.0710678118654
 11
336.9289321881345
 21
952.9289321881346
  0
LINE
  5
214
100
AcDbEntity
  8
rozmir
  6
ByBlock
 62
    0
370
   -2
100
AcDbLine
 10
442.0710678118655
 20
967.0710678118654
 11
427.9289321881345
 21
952.9289321881346
  0
MTEXT
  5
215
100
AcDbEntity
  8
rozmir
  6
CONTINUOUS
 62
    0
370
   -2
100
AcDbMText
 10
389.5
 20
972.5
 30
0
 40
15
 41
15.00000000000093
 71
    5
 72
    1
  1
91
  7
standard
210
0
220
0
230
1
 50
0
 73
    2
 44
1
  0
LINE
  5
216
100
AcDbEntity
  8
rozmir
  6
ByBlock
 62
    0
370
   -2
100
AcDbLine
 10
344
 20
1004
 11
344
 21
955
  0
LINE
  5
217
100
AcDbEntity
  8
rozmir
  6
ByBlock
 62
    0
370
   -2
100
AcDbLine
 10
435
 20
1004
 11
435
 21
955
  0
ENDBLK
  5
AF
330
AD
100
AcDbEntity
  8
0
100
AcDbBlockEnd
  0
BLOCK
  5
B1
330
B0
100
AcDbEntity
  8
0
100
AcDbBlockBegin
  2
*D52
 70
    1
 10
0
 20
0
  3
*D52
  1

  0
LINE
  5
218
100
AcDbEntity
  8
rozmir
  6
ByBlock
 62
    0
370
   -2
100
AcDbLine
 10
460
 20
704
 11
460
 21
1006
  0
LINE
  5
219
100
AcDbEntity
  8
rozmir
  6
ByBlock
 62
    0
370
   -2
100
AcDbLine
 10
452.9289321881345
 20
711.0710678118655
 11
467.0710678118655
 21
696.9289321881345
  0
LINE
  5
21A
100
AcDbEntity
  8
rozmir
  6
ByBlock
 62
    0
370
   -2
100
AcDbLine
 10
452.9289321881345
 20
1013.071067811866
 11
467.0710678118655
 21
998.9289321881345
  0
MTEXT
  5
21B
100
AcDbEntity
  8
rozmir
  6
CONTINUOUS
 62
    0
370
   -2
100
AcDbMText
 10
447.5
 20
855
 30
0
 40
15
 41
30.00000000000093
 71
    5
 72
    1
  1
302
  7
standard
210
0
220
0
230
1
 50
90
 73
    2
 44
1
  0
LINE
  5
21C
100
AcDbEntity
  8
rozmir
  6
ByBlock
 62
    0
370
   -2
100
AcDbLine
 10
481
 20
704
 11
455
 21
704
  0
LINE
  5
21D
100
AcDbEntity
  8
rozmir
  6
ByBlock
 62
    0
370
   -2
100
AcDbLine
 10
506
 20
1006
 11
455
 21
1006
  0
ENDBLK
  5
B2
330
B0
100
AcDbEntity
  8
0
100
AcDbBlockEnd
  0
BLOCK
  5
B4
330
B3
100
AcDbEntity
  8
0
100
AcDbBlockBegin
  2
*D67
 70
    1
 10
0
 20
0
  3
*D67
  1

  0
LINE
  5
21E
100
AcDbEntity
  8
rozmir
  6
ByBlock
 62
    0
370
   -2
100
AcDbLine
 10
580
 20
579
 11
580
 21
671
  0
LINE
  5
21F
100
AcDbEntity
  8
rozmir
  6
ByBlock
 62
    0
370
   -2
100
AcDbLine
 10
572.9289321881346
 20
586.0710678118655
 11
587.0710678118654
 21
571.9289321881345
  0
LINE
  5
220
100
AcDbEntity
  8
rozmir
  6
ByBlock
 62
    0
370
   -2
100
AcDbLine
 10
572.9289321881346
 20
678.0710678118655
 11
587.0710678118654
 21
663.9289321881345
  0
MTEXT
  5
221
100
AcDbEntity
  8
rozmir
  6
CONTINUOUS
 62
    0
370
   -2
100
AcDbMText
 10
567.5
 20
625
 30
0
 40
15
 41
18.33333333333427
 71
    5
 72
    1
  1
92
  7
standard
210
0
220
0
230
1
 50
90
 73
    2
 44
1
  0
LINE
  5
222
100
AcDbEntity
  8
rozmir
  6
ByBlock
 62
    0
370
   -2
100
AcDbLine
 10
548
 20
579
 11
585
 21
579
  0
LINE
  5
223
100
AcDbEntity
  8
rozmir
  6
ByBlock
 62
    0
370
   -2
100
AcDbLine
 10
548
 20
671
 11
585
 21
671
  0
ENDBLK
  5
B5
330
B3
100
AcDbEntity
  8
0
100
AcDbBlockEnd
  0
BLOCK
  5
B7
330
B6
100
AcDbEntity
  8
0
100
AcDbBlockBegin
  2
*D28
 70
    1
 10
0
 20
0
  3
*D28
  1

  0
LINE
  5
224
100
AcDbEntity
  8
rozmir
  6
ByBlock
 62
    0
370
   -2
100
AcDbLine
 10
483
 20
730
 11
508
 21
730
  0
LINE
  5
225
100
AcDbEntity
  8
rozmir
  6
ByBlock
 62
    0
370
   -2
100
AcDbLine
 10
490.0710678118655
 20
737.0710678118654
 11
475.9289321881345
 21
722.9289321881346
  0
LINE
  5
226
100
AcDbEntity
  8
rozmir
  6
ByBlock
 62
    0
370
   -2
100
AcDbLine
 10
515.0710678118655
 20
737.0710678118654
 11
500.9289321881345
 21
722.9289321881346
  0
MTEXT
  5
227
100
AcDbEntity
  8
rozmir
  6
CONTINUOUS
 62
    0
370
   -2
100
AcDbMText
 10
495.5
 20
742.5
 30
0
 40
15
 41
18.33333333333427
 71
    5
 72
    1
  1
25
  7
standard
210
0
220
0
230
1
 50
0
 73
    2
 44
1
  0
LINE
  5
228
100
AcDbEntity
  8
rozmir
  6
ByBlock
 62
    0
370
   -2
100
AcDbLine
 10
483
 20
706
 11
483
 21
735
  0
LINE
  5
229
100
AcDbEntity
  8
rozmir
  6
ByBlock
 62
    0
370
   -2
100
AcDbLine
 10
508
 20
706
 11
508
 21
735
  0
ENDBLK
  5
B8
330
B6
100
AcDbEntity
  8
0
100
AcDbBlockEnd
  0
BLOCK
  5
BA
330
B9
100
AcDbEntity
  8
0
100
AcDbBlockBegin
  2
*D54
 70
    1
 10
0
 20
0
  3
*D54
  1

  0
LINE
  5
22A
100
AcDbEntity
  8
rozmir
  6
ByBlock
 62
    0
370
   -2
100
AcDbLine
 10
90
 20
1006
 11
90
 21
903
  0
LINE
  5
22B
100
AcDbEntity
  8
rozmir
  6
ByBlock
 62
    0
370
   -2
100
AcDbLine
 10
97.07106781186548
 20
998.9289321881345
 11
82.92893218813452
 21
1013.071067811866
  0
LINE
  5
22C
100
AcDbEntity
  8
rozmir
  6
ByBlock
 62
    0
370
   -2
100
AcDbLine
 10
97.07106781186548
 20
895.9289321881345
 11
82.92893218813452
 21
910.0710678118655
  0
MTEXT
  5
22D
100
AcDbEntity
  8
rozmir
  6
CONTINUOUS
 62
    0
370
   -2
100
AcDbMText
 10
77.5
 20
954.5
 30
0
 40
15
 41
26.6666666666676
 71
    5
 72
    1
  1
103
  7
standard
210
0
220
0
230
1
 50
90
 73
    2
 44
1
  0
LINE
  5
22E
100
AcDbEntity
  8
rozmir
  6
ByBlock
 62
    0
370
   -2
100
AcDbLine
 10
48
 20
1006
 11
95
 21
1006
  0
LINE
  5
22F
100
AcDbEntity
  8
rozmir
  6
ByBlock
 62
    0
370
   -2
100
AcDbLine
 10
48
 20
903
 11
95
 21
903
  0
ENDBLK
  5
BB
330
B9
100
AcDbEntity
  8
0
100
AcDbBlockEnd
  0
BLOCK
  5
BD
330
BC
100
AcDbEntity
  8
0
100
AcDbBlockBegin
  2
*D69
 70
    1
 10
0
 20
0
  3
*D69
  1

  0
LINE
  5
230
100
AcDbEntity
  8
rozmir
  6
ByBlock
 62
    0
370
   -2
100
AcDbLine
 10
580
 20
46
 11
580
 21
383
  0
LINE
  5
231
100
AcDbEntity
  8
rozmir
  6
ByBlock
 62
    0
370
   -2
100
AcDbLine
 10
572.9289321881346
 20
53.07106781186548
 11
587.0710678118654
 21
38.92893218813452
  0
LINE
  5
232
100
AcDbEntity
  8
rozmir
  6
ByBlock
 62
    0
370
   -2
100
AcDbLine
 10
572.9289321881346
 20
390.0710678118655
 11
587.0710678118654
 21
375.9289321881345
  0
MTEXT
  5
233
100
AcDbEntity
  8
rozmir
  6
CONTINUOUS
 62
    0
370
   -2
100
AcDbMText
 10
567.5
 20
214.5
 30
0
 40
15
 41
30.00000000000187
 71
    5
 72
    1
  1
337
  7
standard
210
0
220
0
230
1
 50
90
 73
    2
 44
1
  0
LINE
  5
234
100
AcDbEntity
  8
rozmir
  6
ByBlock
 62
    0
370
   -2
100
AcDbLine
 10
548
 20
46
 11
585
 21
46
  0
LINE
  5
235
100
AcDbEntity
  8
rozmir
  6
ByBlock
 62
    0
370
   -2
100
AcDbLine
 10
548
 20
383
 11
585
 21
383
  0
ENDBLK
  5
BE
330
BC
100
AcDbEntity
  8
0
100
AcDbBlockEnd
  0
BLOCK
  5
C0
330
BF
100
AcDbEntity
  8
0
100
AcDbBlockBegin
  2
*D15
 70
    1
 10
0
 20
0
  3
*D15
  1

  0
LINE
  5
236
100
AcDbEntity
  8
rozmir
  6
ByBlock
 62
    0
370
   -2
100
AcDbLine
 10
0
 20
1090
 11
350
 21
1090
  0
LINE
  5
237
100
AcDbEntity
  8
rozmir
  6
ByBlock
 62
    0
370
   -2
100
AcDbLine
 10
7.071067811865477
 20
1097.071067811866
 11
-7.071067811865477
 21
1082.928932188134
  0
LINE
  5
238
100
AcDbEntity
  8
rozmir
  6
ByBlock
 62
    0
370
   -2
100
AcDbLine
 10
357.0710678118655
 20
1097.071067811866
 11
342.9289321881345
 21
1082.928932188134
  0
MTEXT
  5
239
100
AcDbEntity
  8
rozmir
  6
CONTINUOUS
 62
    0
370
   -2
100
AcDbMText
 10
175
 20
1102.5
 30
0
 40
15
 41
30.00000000000187
 71
    5
 72
    1
  1
350
  7
standard
210
0
220
0
230
1
 50
0
 73
    2
 44
1
  0
LINE
  5
23A
100
AcDbEntity
  8
rozmir
  6
ByBlock
 62
    0
370
   -2
100
AcDbLine
 10
1.224646799147353e-16
 20
1054
 11
3.061616997868383e-16
 21
1095
  0
LINE
  5
23B
100
AcDbEntity
  8
rozmir
  6
ByBlock
 62
    0
370
   -2
100
AcDbLine
 10
350
 20
1054
 11
350
 21
1095
  0
ENDBLK
  5
C1
330
BF
100
AcDbEntity
  8
0
100
AcDbBlockEnd
  0
BLOCK
  5
C3
330
C2
100
AcDbEntity
  8
0
100
AcDbBlockBegin
  2
*D26
 70
    1
 10
0
 20
0
  3
*D26
  1

  0
LINE
  5
23C
100
AcDbEntity
  8
rozmir
  6
ByBlock
 62
    0
370
   -2
100
AcDbLine
 10
1000.000000000001
 20
1130
 11
0
 21
1130
  0
LINE
  5
23D
100
AcDbEntity
  8
rozmir
  6
ByBlock
 62
    0
370
   -2
100
AcDbLine
 10
992.9289321881354
 20
1122.928932188134
 11
1007.071067811866
 21
1137.071067811866
  0
LINE
  5
23E
100
AcDbEntity
  8
rozmir
  6
ByBlock
 62
    0
370
   -2
100
AcDbLine
 10
-7.071067811865476
 20
1122.928932188134
 11
7.071067811865476
 21
1137.071067811866
  0
MTEXT
  5
23F
100
AcDbEntity
  8
rozmir
  6
CONTINUOUS
 62
    0
370
   -2
100
AcDbMText
 10
500
 20
1142.5
 30
0
 40
15
 41
52.83333333333334
 71
    5
 72
    1
  1
1000*
  7
standard
210
0
220
0
230
1
 50
360
 73
    2
 44
1
  0
LINE
  5
240
100
AcDbEntity
  8
rozmir
  6
ByBlock
 62
    0
370
   -2
100
AcDbLine
 10
1000.000000000001
 20
1054
 11
1000.000000000001
 21
1135
  0
LINE
  5
241
100
AcDbEntity
  8
rozmir
  6
ByBlock
 62
    0
370
   -2
100
AcDbLine
 10
1.224646799147353e-16
 20
1054
 11
3.061616997868383e-16
 21
1135
  0
ENDBLK
  5
C4
330
C2
100
AcDbEntity
  8
0
100
AcDbBlockEnd
  0
BLOCK
  5
C6
330
C5
100
AcDbEntity
  8
0
100
AcDbBlockBegin
  2
*D14
 70
    1
 10
0
 20
0
  3
*D14
  1

  0
LINE
  5
242
100
AcDbEntity
  8
rozmir
  6
ByBlock
 62
    0
370
   -2
100
AcDbLine
 10
1060
 20
923
 11
1060
 21
1052
  0
LINE
  5
243
100
AcDbEntity
  8
rozmir
  6
ByBlock
 62
    0
370
   -2
100
AcDbLine
 10
1052.928932188134
 20
930.0710678118655
 11
1067.071067811866
 21
915.9289321881345
  0
LINE
  5
244
100
AcDbEntity
  8
rozmir
  6
ByBlock
 62
    0
370
   -2
100
AcDbLine
 10
1052.928932188134
 20
1059.071067811866
 11
1067.071067811866
 21
1044.928932188134
  0
MTEXT
  5
245
100
AcDbEntity
  8
rozmir
  6
CONTINUOUS
 62
    0
370
   -2
100
AcDbMText
 10
1047.5
 20
987.5
 30
0
 40
15
 41
26.66666666666667
 71
    5
 72
    1
  1
129
  7
standard
210
0
220
0
230
1
 50
90
 73
    2
 44
1
  0
LINE
  5
246
100
AcDbEntity
  8
rozmir
  6
ByBlock
 62
    0
370
   -2
100
AcDbLine
 10
1001.999999999999
 20
923
 11
1065
 21
923
  0
LINE
  5
247
100
AcDbEntity
  8
rozmir
  6
ByBlock
 62
    0
370
   -2
100
AcDbLine
 10
1002.000000000001
 20
1052
 11
1065
 21
1052
  0
ENDBLK
  5
C7
330
C5
100
AcDbEntity
  8
0
100
AcDbBlockEnd
  0
BLOCK
  5
C9
330
C8
100
AcDbEntity
  8
0
100
AcDbBlockBegin
  2
*D63
 70
    1
 10
0
 20
0
  3
*D63
  1

  0
LINE
  5
248
100
AcDbEntity
  8
rozmir
  6
ByBlock
 62
    0
370
   -2
100
AcDbLine
 10
669
 20
70
 11
825
 21
70
  0
LINE
  5
249
100
AcDbEntity
  8
rozmir
  6
ByBlock
 62
    0
370
   -2
100
AcDbLine
 10
676.0710678118655
 20
77.07106781186548
 11
661.9289321881345
 21
62.92893218813452
  0
LINE
  5
24A
100
AcDbEntity
  8
rozmir
  6
ByBlock
 62
    0
370
   -2
100
AcDbLine
 10
832.0710678118655
 20
77.07106781186548
 11
817.9289321881345
 21
62.92893218813452
  0
MTEXT
  5
24B
100
AcDbEntity
  8
rozmir
  6
CONTINUOUS
 62
    0
370
   -2
100
AcDbMText
 10
747
 20
82.5
 30
0
 40
15
 41
26.66666666666853
 71
    5
 72
    1
  1
156
  7
standard
210
0
220
0
230
1
 50
0
 73
    2
 44
1
  0
LINE
  5
24C
100
AcDbEntity
  8
rozmir
  6
ByBlock
 62
    0
370
   -2
100
AcDbLine
 10
669
 20
48
 11
669
 21
75
  0
LINE
  5
24D
100
AcDbEntity
  8
rozmir
  6
ByBlock
 62
    0
370
   -2
100
AcDbLine
 10
825
 20
48
 11
825
 21
75
  0
ENDBLK
  5
CA
330
C8
100
AcDbEntity
  8
0
100
AcDbBlockEnd
  0
BLOCK
  5
CC
330
CB
100
AcDbEntity
  8
0
100
AcDbBlockBegin
  2
*D78
 70
    1
 10
0
 20
0
  3
*D78
  1

  0
LINE
  5
24E
100
AcDbEntity
  8
rozmir
  6
ByBlock
 62
    0
370
   -2
100
AcDbLine
 10
930
 20
435
 11
930
 21
344
  0
LINE
  5
24F
100
AcDbEntity
  8
rozmir
  6
ByBlock
 62
    0
370
   -2
100
AcDbLine
 10
937.0710678118654
 20
427.9289321881345
 11
922.9289321881346
 21
442.0710678118655
  0
LINE
  5
250
100
AcDbEntity
  8
rozmir
  6
ByBlock
 62
    0
370
   -2
100
AcDbLine
 10
937.0710678118654
 20
336.9289321881345
 11
922.9289321881346
 21
351.0710678118655
  0
MTEXT
  5
251
100
AcDbEntity
  8
rozmir
  6
CONTINUOUS
 62
    0
370
   -2
100
AcDbMText
 10
917.5
 20
389.5
 30
0
 40
15
 41
15.00000000000093
 71
    5
 72
    1
  1
91
  7
standard
210
0
220
0
230
1
 50
90
 73
    2
 44
1
  0
LINE
  5
252
100
AcDbEntity
  8
rozmir
  6
ByBlock
 62
    0
370
   -2
100
AcDbLine
 10
952
 20
435
 11
925
 21
435
  0
LINE
  5
253
100
AcDbEntity
  8
rozmir
  6
ByBlock
 62
    0
370
   -2
100
AcDbLine
 10
952
 20
344
 11
925
 21
344
  0
ENDBLK
  5
CD
330
CB
100
AcDbEntity
  8
0
100
AcDbBlockEnd
  0
BLOCK
  5
CF
330
CE
100
AcDbEntity
  8
0
100
AcDbBlockBegin
  2
*D73
 70
    1
 10
0
 20
0
  3
*D73
  1

  0
LINE
  5
254
100
AcDbEntity
  8
rozmir
  6
ByBlock
 62
    0
370
   -2
100
AcDbLine
 10
930
 20
929
 11
930
 21
838
  0
LINE
  5
255
100
AcDbEntity
  8
rozmir
  6
ByBlock
 62
    0
370
   -2
100
AcDbLine
 10
937.0710678118654
 20
921.9289321881345
 11
922.9289321881346
 21
936.0710678118655
  0
LINE
  5
256
100
AcDbEntity
  8
rozmir
  6
ByBlock
 62
    0
370
   -2
100
AcDbLine
 10
937.0710678118654
 20
830.9289321881345
 11
922.9289321881346
 21
845.0710678118655
  0
MTEXT
  5
257
100
AcDbEntity
  8
rozmir
  6
CONTINUOUS
 62
    0
370
   -2
100
AcDbMText
 10
917.5
 20
883.5
 30
0
 40
15
 41
15.00000000000093
 71
    5
 72
    1
  1
91
  7
standard
210
0
220
0
230
1
 50
90
 73
    2
 44
1
  0
LINE
  5
258
100
AcDbEntity
  8
rozmir
  6
ByBlock
 62
    0
370
   -2
100
AcDbLine
 10
951.9999999999991
 20
929
 11
925
 21
929
  0
LINE
  5
259
100
AcDbEntity
  8
rozmir
  6
ByBlock
 62
    0
370
   -2
100
AcDbLine
 10
952
 20
838
 11
925
 21
838
  0
ENDBLK
  5
D0
330
CE
100
AcDbEntity
  8
0
100
AcDbBlockEnd
  0
BLOCK
  5
D2
330
D1
100
AcDbEntity
  8
0
100
AcDbBlockBegin
  2
*D25
 70
    1
 10
0
 20
0
  3
*D25
  1

  0
LINE
  5
25A
100
AcDbEntity
  8
rozmir
  6
ByBlock
 62
    0
370
   -2
100
AcDbLine
 10
-80
 20
1052
 11
-80
 21
0
  0
LINE
  5
25B
100
AcDbEntity
  8
rozmir
  6
ByBlock
 62
    0
370
   -2
100
AcDbLine
 10
-72.92893218813452
 20
1044.928932188134
 11
-87.07106781186548
 21
1059.071067811866
  0
LINE
  5
25C
100
AcDbEntity
  8
rozmir
  6
ByBlock
 62
    0
370
   -2
100
AcDbLine
 10
-72.92893218813452
 20
-7.071067811865476
 11
-87.07106781186548
 21
7.071067811865476
  0
MTEXT
  5
25D
100
AcDbEntity
  8
rozmir
  6
CONTINUOUS
 62
    0
370
   -2
100
AcDbMText
 10
-92.5
 20
526
 30
0
 40
15
 41
52.83333333333427
 71
    5
 72
    1
  1
1052*
  7
standard
210
0
220
0
230
1
 50
90
 73
    2
 44
1
  0
LINE
  5
25E
100
AcDbEntity
  8
rozmir
  6
ByBlock
 62
    0
370
   -2
100
AcDbLine
 10
-2
 20
1052
 11
-85
 21
1052
  0
LINE
  5
25F
100
AcDbEntity
  8
rozmir
  6
ByBlock
 62
    0
370
   -2
100
AcDbLine
 10
-2
 20
2.449293598294706e-16
 11
-85
 21
6.123233995736766e-16
  0
ENDBLK
  5
D3
330
D1
100
AcDbEntity
  8
0
100
AcDbBlockEnd
  0
BLOCK
  5
D5
330
D4
100
AcDbEntity
  8
0
100
AcDbBlockBegin
  2
*D41
 70
    1
 10
0
 20
0
  3
*D41
  1

  0
LINE
  5
260
100
AcDbEntity
  8
rozmir
  6
ByBlock
 62
    0
370
   -2
100
AcDbLine
 10
46
 20
420
 11
346
 21
420
  0
LINE
  5
261
100
AcDbEntity
  8
rozmir
  6
ByBlock
 62
    0
370
   -2
100
AcDbLine
 10
53.07106781186548
 20
427.0710678118655
 11
38.92893218813452
 21
412.9289321881345
  0
LINE
  5
262
100
AcDbEntity
  8
rozmir
  6
ByBlock
 62
    0
370
   -2
100
AcDbLine
 10
353.0710678118655
 20
427.0710678118655
 11
338.9289321881345
 21
412.9289321881345
  0
MTEXT
  5
263
100
AcDbEntity
  8
rozmir
  6
CONTINUOUS
 62
    0
370
   -2
100
AcDbMText
 10
196
 20
432.5
 30
0
 40
15
 41
30.00000000000093
 71
    5
 72
    1
  1
300
  7
standard
210
0
220
0
230
1
 50
0
 73
    2
 44
1
  0
LINE
  5
264
100
AcDbEntity
  8
rozmir
  6
ByBlock
 62
    0
370
   -2
100
AcDbLine
 10
46
 20
468
 11
46
 21
415
  0
LINE
  5
265
100
AcDbEntity
  8
rozmir
  6
ByBlock
 62
    0
370
   -2
100
AcDbLine
 10
346
 20
468
 11
346
 21
415
  0
ENDBLK
  5
D6
330
D4
100
AcDbEntity
  8
0
100
AcDbBlockEnd
  0
BLOCK
  5
D8
330
D7
100
AcDbEntity
  8
0
100
AcDbBlockBegin
  2
*D27
 70
    1
 10
0
 20
0
  3
*D27
  1

  0
LINE
  5
266
100
AcDbEntity
  8
rozmir
  6
ByBlock
 62
    0
370
   -2
100
AcDbLine
 10
393
 20
730
 11
483
 21
730
  0
LINE
  5
267
100
AcDbEntity
  8
rozmir
  6
ByBlock
 62
    0
370
   -2
100
AcDbLine
 10
400.0710678118655
 20
737.0710678118654
 11
385.9289321881345
 21
722.9289321881346
  0
LINE
  5
268
100
AcDbEntity
  8
rozmir
  6
ByBlock
 62
    0
370
   -2
100
AcDbLine
 10
490.0710678118655
 20
737.0710678118654
 11
475.9289321881345
 21
722.9289321881346
  0
MTEXT
  5
269
100
AcDbEntity
  8
rozmir
  6
CONTINUOUS
 62
    0
370
   -2
100
AcDbMText
 10
438
 20
742.5
 30
0
 40
15
 41
18.33333333333427
 71
    5
 72
    1
  1
90
  7
standard
210
0
220
0
230
1
 50
0
 73
    2
 44
1
  0
LINE
  5
26A
100
AcDbEntity
  8
rozmir
  6
ByBlock
 62
    0
370
   -2
100
AcDbLine
 10
393
 20
706
 11
393
 21
735
  0
LINE
  5
26B
100
AcDbEntity
  8
rozmir
  6
ByBlock
 62
    0
370
   -2
100
AcDbLine
 10
483
 20
706
 11
483
 21
735
  0
ENDBLK
  5
D9
330
D7
100
AcDbEntity
  8
0
100
AcDbBlockEnd
  0
BLOCK
  5
DB
330
DA
100
AcDbEntity
  8
0
100
AcDbBlockBegin
  2
*D37
 70
    1
 10
0
 20
0
  3
*D37
  1

  0
LINE
  5
26C
100
AcDbEntity
  8
rozmir
  6
ByBlock
 62
    0
370
   -2
100
AcDbLine
 10
490
 20
528
 11
490
 21
501
  0
LINE
  5
26D
100
AcDbEntity
  8
rozmir
  6
ByBlock
 62
    0
370
   -2
100
AcDbLine
 10
497.0710678118655
 20
520.9289321881345
 11
482.9289321881345
 21
535.0710678118655
  0
LINE
  5
26E
100
AcDbEntity
  8
rozmir
  6
ByBlock
 62
    0
370
   -2
100
AcDbLine
 10
497.0710678118655
 20
493.9289321881345
 11
482.9289321881345
 21
508.0710678118655
  0
MTEXT
  5
26F
100
AcDbEntity
  8
rozmir
  6
CONTINUOUS
 62
    0
370
   -2
100
AcDbMText
 10
477.5
 20
514.5
 30
0
 40
15
 41
18.33333333333334
 71
    5
 72
    1
  1
27
  7
standard
210
0
220
0
230
1
 50
90
 73
    2
 44
1
  0
LINE
  5
270
100
AcDbEntity
  8
rozmir
  6
ByBlock
 62
    0
370
   -2
100
AcDbLine
 10
518
 20
528
 11
485
 21
528
  0
LINE
  5
271
100
AcDbEntity
  8
rozmir
  6
ByBlock
 62
    0
370
   -2
100
AcDbLine
 10
518
 20
501
 11
485
 21
501
  0
ENDBLK
  5
DC
330
DA
100
AcDbEntity
  8
0
100
AcDbBlockEnd
  0
BLOCK
  5
DE
330
DD
100
AcDbEntity
  8
0
100
AcDbBlockBegin
  2
*D87
 70
    1
 10
0
 20
0
  3
*D87
  1

  0
LINE
  5
272
100
AcDbEntity
  8
rozmir
  6
ByBlock
 62
    0
370
   -2
100
AcDbLine
 10
320
 20
72
 11
320
 21
142
  0
LINE
  5
273
100
AcDbEntity
  8
rozmir
  6
ByBlock
 62
    0
370
   -2
100
AcDbLine
 10
312.9289321881345
 20
79.07106781186548
 11
327.0710678118655
 21
64.92893218813452
  0
LINE
  5
274
100
AcDbEntity
  8
rozmir
  6
ByBlock
 62
    0
370
   -2
100
AcDbLine
 10
312.9289321881345
 20
149.0710678118655
 11
327.0710678118655
 21
134.9289321881345
  0
MTEXT
  5
275
100
AcDbEntity
  8
rozmir
  6
CONTINUOUS
 62
    0
370
   -2
100
AcDbMText
 10
307.5
 20
107
 30
0
 40
15
 41
18.33333333333334
 71
    5
 72
    1
  1
70
  7
standard
210
0
220
0
230
1
 50
90
 73
    2
 44
1
  0
LINE
  5
276
100
AcDbEntity
  8
rozmir
  6
ByBlock
 62
    0
370
   -2
100
AcDbLine
 10
344
 20
72
 11
315
 21
72
  0
LINE
  5
277
100
AcDbEntity
  8
rozmir
  6
ByBlock
 62
    0
370
   -2
100
AcDbLine
 10
344
 20
142
 11
315
 21
142
  0
ENDBLK
  5
DF
330
DD
100
AcDbEntity
  8
0
100
AcDbBlockEnd
  0
BLOCK
  5
E1
330
E0
100
AcDbEntity
  8
0
100
AcDbBlockBegin
  2
*D61
 70
    1
 10
0
 20
0
  3
*D61
  1

  0
LINE
  5
278
100
AcDbEntity
  8
rozmir
  6
ByBlock
 62
    0
370
   -2
100
AcDbLine
 10
90
 20
254
 11
90
 21
46
  0
LINE
  5
279
100
AcDbEntity
  8
rozmir
  6
ByBlock
 62
    0
370
   -2
100
AcDbLine
 10
97.07106781186548
 20
246.9289321881345
 11
82.92893218813452
 21
261.0710678118655
  0
LINE
  5
27A
100
AcDbEntity
  8
rozmir
  6
ByBlock
 62
    0
370
   -2
100
AcDbLine
 10
97.07106781186548
 20
38.92893218813452
 11
82.92893218813452
 21
53.07106781186548
  0
MTEXT
  5
27B
100
AcDbEntity
  8
rozmir
  6
CONTINUOUS
 62
    0
370
   -2
100
AcDbMText
 10
77.5
 20
150
 30
0
 40
15
 41
30
 71
    5
 72
    1
  1
208
  7
standard
210
0
220
0
230
1
 50
90
 73
    2
 44
1
  0
LINE
  5
27C
100
AcDbEntity
  8
rozmir
  6
ByBlock
 62
    0
370
   -2
100
AcDbLine
 10
48
 20
254
 11
95
 21
254
  0
LINE
  5
27D
100
AcDbEntity
  8
rozmir
  6
ByBlock
 62
    0
370
   -2
100
AcDbLine
 10
48
 20
46
 11
95
 21
46
  0
ENDBLK
  5
E2
330
E0
100
AcDbEntity
  8
0
100
AcDbBlockEnd
  0
BLOCK
  5
E4
330
E3
100
AcDbEntity
  8
0
100
AcDbBlockBegin
  2
*D68
 70
    1
 10
0
 20
0
  3
*D68
  1

  0
LINE
  5
27E
100
AcDbEntity
  8
rozmir
  6
ByBlock
 62
    0
370
   -2
100
AcDbLine
 10
580
 20
671
 11
580
 21
1006
  0
LINE
  5
27F
100
AcDbEntity
  8
rozmir
  6
ByBlock
 62
    0
370
   -2
100
AcDbLine
 10
572.9289321881346
 20
678.0710678118655
 11
587.0710678118654
 21
663.9289321881345
  0
LINE
  5
280
100
AcDbEntity
  8
rozmir
  6
ByBlock
 62
    0
370
   -2
100
AcDbLine
 10
572.9289321881346
 20
1013.071067811866
 11
587.0710678118654
 21
998.9289321881345
  0
MTEXT
  5
281
100
AcDbEntity
  8
rozmir
  6
CONTINUOUS
 62
    0
370
   -2
100
AcDbMText
 10
567.5
 20
838.5
 30
0
 40
15
 41
30.0000000000028
 71
    5
 72
    1
  1
335
  7
standard
210
0
220
0
230
1
 50
90
 73
    2
 44
1
  0
LINE
  5
282
100
AcDbEntity
  8
rozmir
  6
ByBlock
 62
    0
370
   -2
100
AcDbLine
 10
548
 20
671
 11
585
 21
671
  0
LINE
  5
283
100
AcDbEntity
  8
rozmir
  6
ByBlock
 62
    0
370
   -2
100
AcDbLine
 10
548
 20
1006
 11
585
 21
1006
  0
ENDBLK
  5
E5
330
E3
100
AcDbEntity
  8
0
100
AcDbBlockEnd
  0
BLOCK
  5
E7
330
E6
100
AcDbEntity
  8
0
100
AcDbBlockBegin
  2
*D24
 70
    1
 10
0
 20
0
  3
*D24
  1

  0
LINE
  5
284
100
AcDbEntity
  8
rozmir
  6
ByBlock
 62
    0
370
   -2
100
AcDbLine
 10
234
 20
-60
 11
402
 21
-60
  0
LINE
  5
285
100
AcDbEntity
  8
rozmir
  6
ByBlock
 62
    0
370
   -2
100
AcDbLine
 10
241.0710678118655
 20
-52.92893218813452
 11
226.9289321881345
 21
-67.07106781186548
  0
LINE
  5
286
100
AcDbEntity
  8
rozmir
  6
ByBlock
 62
    0
370
   -2
100
AcDbLine
 10
409.0710678118655
 20
-52.92893218813452
 11
394.9289321881345
 21
-67.07106781186548
  0
MTEXT
  5
287
100
AcDbEntity
  8
rozmir
  6
CONTINUOUS
 62
    0
370
   -2
100
AcDbMText
 10
318
 20
-47.5
 30
0
 40
15
 41
26.6666666666676
 71
    5
 72
    1
  1
168
  7
standard
210
0
220
0
230
1
 50
0
 73
    2
 44
1
  0
LINE
  5
288
100
AcDbEntity
  8
rozmir
  6
ByBlock
 62
    0
370
   -2
100
AcDbLine
 10
234
 20
-1.999999999999989
 11
234
 21
-65
  0
LINE
  5
289
100
AcDbEntity
  8
rozmir
  6
ByBlock
 62
    0
370
   -2
100
AcDbLine
 10
402
 20
-1.999999999999989
 11
402
 21
-65
  0
ENDBLK
  5
E8
330
E6
100
AcDbEntity
  8
0
100
AcDbBlockEnd
  0
BLOCK
  5
EA
330
E9
100
AcDbEntity
  8
0
100
AcDbBlockBegin
  2
*D8
 70
    1
 10
0
 20
0
  3
*D8
  1

  0
LINE
  5
28A
100
AcDbEntity
  8
rozmir
  6
ByBlock
 62
    0
370
   -2
100
AcDbLine
 10
1060
 20
0
 11
1060
 21
350
  0
LINE
  5
28B
100
AcDbEntity
  8
rozmir
  6
ByBlock
 62
    0
370
   -2
100
AcDbLine
 10
1052.928932188134
 20
7.071067811865477
 11
1067.071067811866
 21
-7.071067811865477
  0
LINE
  5
28C
100
AcDbEntity
  8
rozmir
  6
ByBlock
 62
    0
370
   -2
100
AcDbLine
 10
1052.928932188134
 20
357.0710678118655
 11
1067.071067811866
 21
342.9289321881345
  0
MTEXT
  5
28D
100
AcDbEntity
  8
rozmir
  6
CONTINUOUS
 62
    0
370
   -2
100
AcDbMText
 10
1047.5
 20
175
 30
0
 40
15
 41
30.00000000000187
 71
    5
 72
    1
  1
350
  7
standard
210
0
220
0
230
1
 50
90
 73
    2
 44
1
  0
LINE
  5
28E
100
AcDbEntity
  8
rozmir
  6
ByBlock
 62
    0
370
   -2
100
AcDbLine
 10
1002
 20
8.881784197001252e-16
 11
1065
 21
0
  0
LINE
  5
28F
100
AcDbEntity
  8
rozmir
  6
ByBlock
 62
    0
370
   -2
100
AcDbLine
 10
1002
 20
350
 11
1065
 21
350
  0
ENDBLK
  5
EB
330
E9
100
AcDbEntity
  8
0
100
AcDbBlockEnd
  0
BLOCK
  5
ED
330
EC
100
AcDbEntity
  8
0
100
AcDbBlockBegin
  2
*D36
 70
    1
 10
0
 20
0
  3
*D36
  1

  0
LINE
  5
290
100
AcDbEntity
  8
rozmir
  6
ByBlock
 62
    0
370
   -2
100
AcDbLine
 10
490
 20
684
 11
490
 21
528
  0
LINE
  5
291
100
AcDbEntity
  8
rozmir
  6
ByBlock
 62
    0
370
   -2
100
AcDbLine
 10
497.0710678118655
 20
676.9289321881345
 11
482.9289321881345
 21
691.0710678118655
  0
LINE
  5
292
100
AcDbEntity
  8
rozmir
  6
ByBlock
 62
    0
370
   -2
100
AcDbLine
 10
497.0710678118655
 20
520.9289321881345
 11
482.9289321881345
 21
535.0710678118655
  0
MTEXT
  5
293
100
AcDbEntity
  8
rozmir
  6
CONTINUOUS
 62
    0
370
   -2
100
AcDbMText
 10
477.5
 20
606
 30
0
 40
15
 41
26.66666666666853
 71
    5
 72
    1
  1
156
  7
standard
210
0
220
0
230
1
 50
90
 73
    2
 44
1
  0
LINE
  5
294
100
AcDbEntity
  8
rozmir
  6
ByBlock
 62
    0
370
   -2
100
AcDbLine
 10
506
 20
684
 11
485
 21
684
  0
LINE
  5
295
100
AcDbEntity
  8
rozmir
  6
ByBlock
 62
    0
370
   -2
100
AcDbLine
 10
518
 20
528
 11
485
 21
528
  0
ENDBLK
  5
EE
330
EC
100
AcDbEntity
  8
0
100
AcDbBlockEnd
  0
BLOCK
  5
F0
330
EF
100
AcDbEntity
  8
0
100
AcDbBlockBegin
  2
*D4
 70
    1
 10
0
 20
0
  3
*D4
  1

  0
LINE
  5
296
100
AcDbEntity
  8
rozmir
  6
ByBlock
 62
    0
370
   -2
100
AcDbLine
 10
-40.00000000000001
 20
544
 11
-40
 21
623
  0
LINE
  5
297
100
AcDbEntity
  8
rozmir
  6
ByBlock
 62
    0
370
   -2
100
AcDbLine
 10
-47.07106781186548
 20
551.0710678118655
 11
-32.92893218813453
 21
536.9289321881345
  0
LINE
  5
298
100
AcDbEntity
  8
rozmir
  6
ByBlock
 62
    0
370
   -2
100
AcDbLine
 10
-47.07106781186548
 20
630.0710678118655
 11
-32.92893218813452
 21
615.9289321881345
  0
MTEXT
  5
299
100
AcDbEntity
  8
rozmir
  6
CONTINUOUS
 62
    0
370
   -2
100
AcDbMText
 10
-52.5
 20
583.5
 30
0
 40
15
 41
18.33333333333334
 71
    5
 72
    1
  1
79
  7
standard
210
0
220
0
230
1
 50
90
 73
    2
 44
1
  0
LINE
  5
29A
100
AcDbEntity
  8
rozmir
  6
ByBlock
 62
    0
370
   -2
100
AcDbLine
 10
-2
 20
544
 11
-45.00000000000001
 21
544
  0
LINE
  5
29B
100
AcDbEntity
  8
rozmir
  6
ByBlock
 62
    0
370
   -2
100
AcDbLine
 10
-2
 20
623
 11
-45
 21
623
  0
ENDBLK
  5
F1
330
EF
100
AcDbEntity
  8
0
100
AcDbBlockEnd
  0
BLOCK
  5
F3
330
F2
100
AcDbEntity
  8
0
100
AcDbBlockBegin
  2
*D49
 70
    1
 10
0
 20
0
  3
*D49
  1

  0
LINE
  5
29C
100
AcDbEntity
  8
rozmir
  6
ByBlock
 62
    0
370
   -2
100
AcDbLine
 10
-8
 20
560
 11
36
 21
560
  0
LINE
  5
29D
100
AcDbEntity
  8
rozmir
  6
ByBlock
 62
    0
370
   -2
100
AcDbLine
 10
4.928932188134524
 20
552.9289321881346
 11
19.07106781186548
 21
567.0710678118654
  0
LINE
  5
29E
100
AcDbEntity
  8
rozmir
  6
ByBlock
 62
    0
370
   -2
100
AcDbLine
 10
8.928932188134524
 20
552.9289321881346
 11
23.07106781186548
 21
567.0710678118654
  0
MTEXT
  5
29F
100
AcDbEntity
  8
rozmir
  6
CONTINUOUS
 62
    0
370
   -2
100
AcDbMText
 10
15.16666666666667
 20
545
 30
0
 40
15
 41
8.333333333333334
 71
    5
 72
    1
  1
4
  7
standard
210
0
220
0
230
1
 50
0
 73
    2
 44
1
  0
LINE
  5
2A0
100
AcDbEntity
  8
rozmir
  6
ByBlock
 62
    0
370
   -2
100
AcDbLine
 10
12
 20
583
 11
12
 21
555
  0
LINE
  5
2A1
100
AcDbEntity
  8
rozmir
  6
ByBlock
 62
    0
370
   -2
100
AcDbLine
 10
16
 20
585
 11
16
 21
555
  0
ENDBLK
  5
F4
330
F2
100
AcDbEntity
  8
0
100
AcDbBlockEnd
  0
BLOCK
  5
F6
330
F5
100
AcDbEntity
  8
0
100
AcDbBlockBegin
  2
*D11
 70
    1
 10
0
 20
0
  3
*D11
  1

  0
LINE
  5
2A2
100
AcDbEntity
  8
rozmir
  6
ByBlock
 62
    0
370
   -2
100
AcDbLine
 10
1060
 20
597
 11
1060
 21
676
  0
LINE
  5
2A3
100
AcDbEntity
  8
rozmir
  6
ByBlock
 62
    0
370
   -2
100
AcDbLine
 10
1052.928932188134
 20
604.0710678118655
 11
1067.071067811866
 21
589.9289321881345
  0
LINE
  5
2A4
100
AcDbEntity
  8
rozmir
  6
ByBlock
 62
    0
370
   -2
100
AcDbLine
 10
1052.928932188134
 20
683.0710678118655
 11
1067.071067811866
 21
668.9289321881345
  0
MTEXT
  5
2A5
100
AcDbEntity
  8
rozmir
  6
CONTINUOUS
 62
    0
370
   -2
100
AcDbMText
 10
1047.5
 20
636.5
 30
0
 40
15
 41
18.33333333333334
 71
    5
 72
    1
  1
79
  7
standard
210
0
220
0
230
1
 50
90
 73
    2
 44
1
  0
LINE
  5
2A6
100
AcDbEntity
  8
rozmir
  6
ByBlock
 62
    0
370
   -2
100
AcDbLine
 10
1002
 20
597
 11
1065
 21
597
  0
LINE
  5
2A7
100
AcDbEntity
  8
rozmir
  6
ByBlock
 62
    0
370
   -2
100
AcDbLine
 10
1002
 20
676
 11
1065
 21
676
  0
ENDBLK
  5
F7
330
F5
100
AcDbEntity
  8
0
100
AcDbBlockEnd
  0
BLOCK
  5
F9
330
F8
100
AcDbEntity
  8
0
100
AcDbBlockBegin
  2
*D19
 70
    1
 10
0
 20
0
  3
*D19
  1

  0
LINE
  5
2A8
100
AcDbEntity
  8
rozmir
  6
ByBlock
 62
    0
370
   -2
100
AcDbLine
 10
155
 20
-60.00000000000001
 11
234
 21
-60.00000000000001
  0
LINE
  5
2A9
100
AcDbEntity
  8
rozmir
  6
ByBlock
 62
    0
370
   -2
100
AcDbLine
 10
162.0710678118655
 20
-52.92893218813453
 11
147.9289321881345
 21
-67.07106781186548
  0
LINE
  5
2AA
100
AcDbEntity
  8
rozmir
  6
ByBlock
 62
    0
370
   -2
100
AcDbLine
 10
241.0710678118655
 20
-52.92893218813453
 11
226.9289321881345
 21
-67.07106781186548
  0
MTEXT
  5
2AB
100
AcDbEntity
  8
rozmir
  6
CONTINUOUS
 62
    0
370
   -2
100
AcDbMText
 10
194.5
 20
-47.50000000000001
 30
0
 40
15
 41
18.33333333333334
 71
    5
 72
    1
  1
79
  7
standard
210
0
220
0
230
1
 50
0
 73
    2
 44
1
  0
LINE
  5
2AC
100
AcDbEntity
  8
rozmir
  6
ByBlock
 62
    0
370
   -2
100
AcDbLine
 10
155
 20
-2.000000000000001
 11
155
 21
-65
  0
LINE
  5
2AD
100
AcDbEntity
  8
rozmir
  6
ByBlock
 62
    0
370
   -2
100
AcDbLine
 10
234
 20
-1.99999999999999
 11
234
 21
-65
  0
ENDBLK
  5
FA
330
F8
100
AcDbEntity
  8
0
100
AcDbBlockEnd
  0
BLOCK
  5
FC
330
FB
100
AcDbEntity
  8
0
100
AcDbBlockBegin
  2
*D79
 70
    1
 10
0
 20
0
  3
*D79
  1

  0
LINE
  5
2AE
100
AcDbEntity
  8
rozmir
  6
ByBlock
 62
    0
370
   -2
100
AcDbLine
 10
930
 20
344
 11
930
 21
46
  0
LINE
  5
2AF
100
AcDbEntity
  8
rozmir
  6
ByBlock
 62
    0
370
   -2
100
AcDbLine
 10
937.0710678118654
 20
336.9289321881345
 11
922.9289321881346
 21
351.0710678118655
  0
LINE
  5
2B0
100
AcDbEntity
  8
rozmir
  6
ByBlock
 62
    0
370
   -2
100
AcDbLine
 10
937.0710678118654
 20
38.92893218813452
 11
922.9289321881346
 21
53.07106781186548
  0
MTEXT
  5
2B1
100
AcDbEntity
  8
rozmir
  6
CONTINUOUS
 62
    0
370
   -2
100
AcDbMText
 10
917.5
 20
195
 30
0
 40
15
 41
30
 71
    5
 72
    1
  1
298
  7
standard
210
0
220
0
230
1
 50
90
 73
    2
 44
1
  0
LINE
  5
2B2
100
AcDbEntity
  8
rozmir
  6
ByBlock
 62
    0
370
   -2
100
AcDbLine
 10
952
 20
344
 11
925
 21
344
  0
LINE
  5
2B3
100
AcDbEntity
  8
rozmir
  6
ByBlock
 62
    0
370
   -2
100
AcDbLine
 10
952
 20
46
 11
925
 21
46
  0
ENDBLK
  5
FD
330
FB
100
AcDbEntity
  8
0
100
AcDbBlockEnd
  0
BLOCK
  5
FF
330
FE
100
AcDbEntity
  8
0
100
AcDbBlockBegin
  2
*D39
 70
    1
 10
0
 20
0
  3
*D39
  1

  0
LINE
  5
2B4
100
AcDbEntity
  8
rozmir
  6
ByBlock
 62
    0
370
   -2
100
AcDbLine
 10
508
 20
430
 11
546
 21
430
  0
LINE
  5
2B5
100
AcDbEntity
  8
rozmir
  6
ByBlock
 62
    0
370
   -2
100
AcDbLine
 10
515.0710678118655
 20
437.0710678118655
 11
500.9289321881345
 21
422.9289321881345
  0
LINE
  5
2B6
100
AcDbEntity
  8
rozmir
  6
ByBlock
 62
    0
370
   -2
100
AcDbLine
 10
553.0710678118655
 20
437.0710678118655
 11
538.9289321881345
 21
422.9289321881345
  0
MTEXT
  5
2B7
100
AcDbEntity
  8
rozmir
  6
CONTINUOUS
 62
    0
370
   -2
100
AcDbMText
 10
527
 20
442.5
 30
0
 40
15
 41
18.33333333333427
 71
    5
 72
    1
  1
38
  7
standard
210
0
220
0
230
1
 50
0
 73
    2
 44
1
  0
LINE
  5
2B8
100
AcDbEntity
  8
rozmir
  6
ByBlock
 62
    0
370
   -2
100
AcDbLine
 10
508
 20
462
 11
508
 21
425
  0
LINE
  5
2B9
100
AcDbEntity
  8
rozmir
  6
ByBlock
 62
    0
370
   -2
100
AcDbLine
 10
546
 20
462
 11
546
 21
425
  0
ENDBLK
  5
100
330
FE
100
AcDbEntity
  8
0
100
AcDbBlockEnd
  0
BLOCK
  5
102
330
101
100
AcDbEntity
  8
0
100
AcDbBlockBegin
  2
*D85
 70
    1
 10
0
 20
0
  3
*D85
  1

  0
LINE
  5
2BA
100
AcDbEntity
  8
rozmir
  6
ByBlock
 62
    0
370
   -2
100
AcDbLine
 10
400
 20
376
 11
400
 21
446
  0
LINE
  5
2BB
100
AcDbEntity
  8
rozmir
  6
ByBlock
 62
    0
370
   -2
100
AcDbLine
 10
392.9289321881345
 20
383.0710678118655
 11
407.0710678118655
 21
368.9289321881345
  0
LINE
  5
2BC
100
AcDbEntity
  8
rozmir
  6
ByBlock
 62
    0
370
   -2
100
AcDbLine
 10
392.9289321881345
 20
453.0710678118655
 11
407.0710678118655
 21
438.9289321881345
  0
MTEXT
  5
2BD
100
AcDbEntity
  8
rozmir
  6
CONTINUOUS
 62
    0
370
   -2
100
AcDbMText
 10
387.5
 20
411
 30
0
 40
15
 41
18.33333333333334
 71
    5
 72
    1
  1
70
  7
standard
210
0
220
0
230
1
 50
90
 73
    2
 44
1
  0
LINE
  5
2BE
100
AcDbEntity
  8
rozmir
  6
ByBlock
 62
    0
370
   -2
100
AcDbLine
 10
373
 20
376
 11
405
 21
376
  0
LINE
  5
2BF
100
AcDbEntity
  8
rozmir
  6
ByBlock
 62
    0
370
   -2
100
AcDbLine
 10
373
 20
446
 11
405
 21
446
  0
ENDBLK
  5
103
330
101
100
AcDbEntity
  8
0
100
AcDbBlockEnd
  0
BLOCK
  5
105
330
104
100
AcDbEntity
  8
0
100
AcDbBlockBegin
  2
*D89
 70
    1
 10
0
 20
0
  3
*D89
  1

  0
LINE
  5
2C0
100
AcDbEntity
  8
rozmir
  6
ByBlock
 62
    0
370
   -2
100
AcDbLine
 10
320
 20
376
 11
320
 21
266
  0
LINE
  5
2C1
100
AcDbEntity
  8
rozmir
  6
ByBlock
 62
    0
370
   -2
100
AcDbLine
 10
327.0710678118655
 20
368.9289321881345
 11
312.9289321881345
 21
383.0710678118655
  0
LINE
  5
2C2
100
AcDbEntity
  8
rozmir
  6
ByBlock
 62
    0
370
   -2
100
AcDbLine
 10
327.0710678118655
 20
258.9289321881345
 11
312.9289321881345
 21
273.0710678118655
  0
MTEXT
  5
2C3
100
AcDbEntity
  8
rozmir
  6
CONTINUOUS
 62
    0
370
   -2
100
AcDbMText
 10
307.5
 20
321
 30
0
 40
15
 41
23.33333333333334
 71
    5
 72
    1
  1
110
  7
standard
210
0
220
0
230
1
 50
90
 73
    2
 44
1
  0
LINE
  5
2C4
100
AcDbEntity
  8
rozmir
  6
ByBlock
 62
    0
370
   -2
100
AcDbLine
 10
344
 20
376
 11
315
 21
376
  0
LINE
  5
2C5
100
AcDbEntity
  8
rozmir
  6
ByBlock
 62
    0
370
   -2
100
AcDbLine
 10
344
 20
266
 11
315
 21
266
  0
ENDBLK
  5
106
330
104
100
AcDbEntity
  8
0
100
AcDbBlockEnd
  0
BLOCK
  5
108
330
107
100
AcDbEntity
  8
0
100
AcDbBlockBegin
  2
*D16
 70
    1
 10
0
 20
0
  3
*D16
  1

  0
LINE
  5
2C6
100
AcDbEntity
  8
rozmir
  6
ByBlock
 62
    0
370
   -2
100
AcDbLine
 10
350
 20
1090
 11
429
 21
1090
  0
LINE
  5
2C7
100
AcDbEntity
  8
rozmir
  6
ByBlock
 62
    0
370
   -2
100
AcDbLine
 10
357.0710678118655
 20
1097.071067811866
 11
342.9289321881345
 21
1082.928932188134
  0
LINE
  5
2C8
100
AcDbEntity
  8
rozmir
  6
ByBlock
 62
    0
370
   -2
100
AcDbLine
 10
436.0710678118655
 20
1097.071067811866
 11
421.9289321881345
 21
1082.928932188134
  0
MTEXT
  5
2C9
100
AcDbEntity
  8
rozmir
  6
CONTINUOUS
 62
    0
370
   -2
100
AcDbMText
 10
389.5
 20
1102.5
 30
0
 40
15
 41
18.33333333333334
 71
    5
 72
    1
  1
79
  7
standard
210
0
220
0
230
1
 50
0
 73
    2
 44
1
  0
LINE
  5
2CA
100
AcDbEntity
  8
rozmir
  6
ByBlock
 62
    0
370
   -2
100
AcDbLine
 10
350
 20
1054
 11
350
 21
1095
  0
LINE
  5
2CB
100
AcDbEntity
  8
rozmir
  6
ByBlock
 62
    0
370
   -2
100
AcDbLine
 10
429
 20
1054
 11
429
 21
1095
  0
ENDBLK
  5
109
330
107
100
AcDbEntity
  8
0
100
AcDbBlockEnd
  0
BLOCK
  5
10B
330
10A
100
AcDbEntity
  8
0
100
AcDbBlockBegin
  2
*D7
 70
    1
 10
0
 20
0
  3
*D7
  1

  0
LINE
  5
2CC
100
AcDbEntity
  8
rozmir
  6
ByBlock
 62
    0
370
   -2
100
AcDbLine
 10
-40.00000000000001
 20
897
 11
-40
 21
1052
  0
LINE
  5
2CD
100
AcDbEntity
  8
rozmir
  6
ByBlock
 62
    0
370
   -2
100
AcDbLine
 10
-47.07106781186549
 20
904.0710678118655
 11
-32.92893218813454
 21
889.9289321881345
  0
LINE
  5
2CE
100
AcDbEntity
  8
rozmir
  6
ByBlock
 62
    0
370
   -2
100
AcDbLine
 10
-47.07106781186548
 20
1059.071067811866
 11
-32.92893218813452
 21
1044.928932188134
  0
MTEXT
  5
2CF
100
AcDbEntity
  8
rozmir
  6
CONTINUOUS
 62
    0
370
   -2
100
AcDbMText
 10
-52.5
 20
974.5
 30
0
 40
15
 41
26.66666666666853
 71
    5
 72
    1
  1
155
  7
standard
210
0
220
0
230
1
 50
90
 73
    2
 44
1
  0
LINE
  5
2D0
100
AcDbEntity
  8
rozmir
  6
ByBlock
 62
    0
370
   -2
100
AcDbLine
 10
-2
 20
897
 11
-45.00000000000001
 21
897
  0
LINE
  5
2D1
100
AcDbEntity
  8
rozmir
  6
ByBlock
 62
    0
370
   -2
100
AcDbLine
 10
-2
 20
1052
 11
-45
 21
1052
  0
ENDBLK
  5
10C
330
10A
100
AcDbEntity
  8
0
100
AcDbBlockEnd
  0
BLOCK
  5
10E
330
10D
100
AcDbEntity
  8
0
100
AcDbBlockBegin
  2
*D55
 70
    1
 10
0
 20
0
  3
*D55
  1

  0
LINE
  5
2D2
100
AcDbEntity
  8
rozmir
  6
ByBlock
 62
    0
370
   -2
100
AcDbLine
 10
149
 20
70
 11
240
 21
70
  0
LINE
  5
2D3
100
AcDbEntity
  8
rozmir
  6
ByBlock
 62
    0
370
   -2
100
AcDbLine
 10
156.0710678118655
 20
77.07106781186548
 11
141.9289321881345
 21
62.92893218813452
  0
LINE
  5
2D4
100
AcDbEntity
  8
rozmir
  6
ByBlock
 62
    0
370
   -2
100
AcDbLine
 10
247.0710678118655
 20
77.07106781186548
 11
232.9289321881345
 21
62.92893218813452
  0
MTEXT
  5
2D5
100
AcDbEntity
  8
rozmir
  6
CONTINUOUS
 62
    0
370
   -2
100
AcDbMText
 10
194.5
 20
82.5
 30
0
 40
15
 41
15.00000000000093
 71
    5
 72
    1
  1
91
  7
standard
210
0
220
0
230
1
 50
0
 73
    2
 44
1
  0
LINE
  5
2D6
100
AcDbEntity
  8
rozmir
  6
ByBlock
 62
    0
370
   -2
100
AcDbLine
 10
149
 20
47.99999999999999
 11
149
 21
75
  0
LINE
  5
2D7
100
AcDbEntity
  8
rozmir
  6
ByBlock
 62
    0
370
   -2
100
AcDbLine
 10
240
 20
47.99999999999999
 11
240
 21
75
  0
ENDBLK
  5
10F
330
10D
100
AcDbEntity
  8
0
100
AcDbBlockEnd
  0
BLOCK
  5
111
330
110
100
AcDbEntity
  8
0
100
AcDbBlockBegin
  2
*D53
 70
    1
 10
0
 20
0
  3
*D53
  1

  0
LINE
  5
2D8
100
AcDbEntity
  8
rozmir
  6
ByBlock
 62
    0
370
   -2
100
AcDbLine
 10
46
 20
960
 11
344
 21
960
  0
LINE
  5
2D9
100
AcDbEntity
  8
rozmir
  6
ByBlock
 62
    0
370
   -2
100
AcDbLine
 10
53.07106781186548
 20
967.0710678118654
 11
38.92893218813452
 21
952.9289321881346
  0
LINE
  5
2DA
100
AcDbEntity
  8
rozmir
  6
ByBlock
 62
    0
370
   -2
100
AcDbLine
 10
351.0710678118655
 20
967.0710678118654
 11
336.9289321881345
 21
952.9289321881346
  0
MTEXT
  5
2DB
100
AcDbEntity
  8
rozmir
  6
CONTINUOUS
 62
    0
370
   -2
100
AcDbMText
 10
195
 20
972.5
 30
0
 40
15
 41
30
 71
    5
 72
    1
  1
298
  7
standard
210
0
220
0
230
1
 50
0
 73
    2
 44
1
  0
LINE
  5
2DC
100
AcDbEntity
  8
rozmir
  6
ByBlock
 62
    0
370
   -2
100
AcDbLine
 10
46
 20
1004
 11
46
 21
955
  0
LINE
  5
2DD
100
AcDbEntity
  8
rozmir
  6
ByBlock
 62
    0
370
   -2
100
AcDbLine
 10
344
 20
1004
 11
344
 21
955
  0
ENDBLK
  5
112
330
110
100
AcDbEntity
  8
0
100
AcDbBlockEnd
  0
BLOCK
  5
114
330
113
100
AcDbEntity
  8
0
100
AcDbBlockBegin
  2
*D2
 70
    1
 10
0
 20
0
  3
*D2
  1

  0
LINE
  5
2DE
100
AcDbEntity
  8
rozmir
  6
ByBlock
 62
    0
370
   -2
100
AcDbLine
 10
-40.00000000000001
 20
337
 11
-40
 21
390
  0
LINE
  5
2DF
100
AcDbEntity
  8
rozmir
  6
ByBlock
 62
    0
370
   -2
100
AcDbLine
 10
-47.07106781186548
 20
344.0710678118655
 11
-32.92893218813453
 21
329.9289321881345
  0
LINE
  5
2E0
100
AcDbEntity
  8
rozmir
  6
ByBlock
 62
    0
370
   -2
100
AcDbLine
 10
-47.07106781186548
 20
397.0710678118655
 11
-32.92893218813452
 21
382.9289321881345
  0
MTEXT
  5
2E1
100
AcDbEntity
  8
rozmir
  6
CONTINUOUS
 62
    0
370
   -2
100
AcDbMText
 10
-52.5
 20
363.5
 30
0
 40
15
 41
18.3333333333352
 71
    5
 72
    1
  1
53
  7
standard
210
0
220
0
230
1
 50
90
 73
    2
 44
1
  0
LINE
  5
2E2
100
AcDbEntity
  8
rozmir
  6
ByBlock
 62
    0
370
   -2
100
AcDbLine
 10
-2
 20
337
 11
-45.00000000000001
 21
337
  0
LINE
  5
2E3
100
AcDbEntity
  8
rozmir
  6
ByBlock
 62
    0
370
   -2
100
AcDbLine
 10
-2
 20
390
 11
-45
 21
390
  0
ENDBLK
  5
115
330
113
100
AcDbEntity
  8
0
100
AcDbBlockEnd
  0
BLOCK
  5
117
330
116
100
AcDbEntity
  8
0
100
AcDbBlockBegin
  2
*D44
 70
    1
 10
0
 20
0
  3
*D44
  1

  0
LINE
  5
2E4
100
AcDbEntity
  8
rozmir
  6
ByBlock
 62
    0
370
   -2
100
AcDbLine
 10
90
 20
684
 11
90
 21
587
  0
LINE
  5
2E5
100
AcDbEntity
  8
rozmir
  6
ByBlock
 62
    0
370
   -2
100
AcDbLine
 10
97.07106781186548
 20
676.9289321881345
 11
82.92893218813452
 21
691.0710678118655
  0
LINE
  5
2E6
100
AcDbEntity
  8
rozmir
  6
ByBlock
 62
    0
370
   -2
100
AcDbLine
 10
97.07106781186548
 20
579.9289321881345
 11
82.92893218813452
 21
594.0710678118655
  0
MTEXT
  5
2E7
100
AcDbEntity
  8
rozmir
  6
CONTINUOUS
 62
    0
370
   -2
100
AcDbMText
 10
77.5
 20
635.5
 30
0
 40
15
 41
18.33333333333427
 71
    5
 72
    1
  1
97
  7
standard
210
0
220
0
230
1
 50
90
 73
    2
 44
1
  0
LINE
  5
2E8
100
AcDbEntity
  8
rozmir
  6
ByBlock
 62
    0
370
   -2
100
AcDbLine
 10
48
 20
684
 11
95
 21
684
  0
LINE
  5
2E9
100
AcDbEntity
  8
rozmir
  6
ByBlock
 62
    0
370
   -2
100
AcDbLine
 10
48
 20
587
 11
95
 21
587
  0
ENDBLK
  5
118
330
116
100
AcDbEntity
  8
0
100
AcDbBlockEnd
  0
BLOCK
  5
11A
330
119
100
AcDbEntity
  8
0
100
AcDbBlockBegin
  2
*D59
 70
    1
 10
0
 20
0
  3
*D59
  1

  0
LINE
  5
2EA
100
AcDbEntity
  8
rozmir
  6
ByBlock
 62
    0
370
   -2
100
AcDbLine
 10
467
 20
70
 11
528
 21
70
  0
LINE
  5
2EB
100
AcDbEntity
  8
rozmir
  6
ByBlock
 62
    0
370
   -2
100
AcDbLine
 10
479.9289321881345
 20
62.92893218813452
 11
494.0710678118655
 21
77.07106781186548
  0
LINE
  5
2EC
100
AcDbEntity
  8
rozmir
  6
ByBlock
 62
    0
370
   -2
100
AcDbLine
 10
500.9289321881345
 20
62.92893218813452
 11
515.0710678118655
 21
77.07106781186548
  0
MTEXT
  5
2ED
100
AcDbEntity
  8
rozmir
  6
CONTINUOUS
 62
    0
370
   -2
100
AcDbMText
 10
497.5
 20
82.5
 30
0
 40
15
 41
15
 71
    5
 72
    1
  1
21
  7
standard
210
0
220
0
230
1
 50
0
 73
    2
 44
1
  0
LINE
  5
2EE
100
AcDbEntity
  8
rozmir
  6
ByBlock
 62
    0
370
   -2
100
AcDbLine
 10
487
 20
48
 11
487
 21
75
  0
LINE
  5
2EF
100
AcDbEntity
  8
rozmir
  6
ByBlock
 62
    0
370
   -2
100
AcDbLine
 10
508
 20
48
 11
508
 21
75
  0
ENDBLK
  5
11B
330
119
100
AcDbEntity
  8
0
100
AcDbBlockEnd
  0
BLOCK
  5
11D
330
11C
100
AcDbEntity
  8
0
100
AcDbBlockBegin
  2
*D6
 70
    1
 10
0
 20
0
  3
*D6
  1

  0
LINE
  5
2F0
100
AcDbEntity
  8
rozmir
  6
ByBlock
 62
    0
370
   -2
100
AcDbLine
 10
-40.00000000000001
 20
818
 11
-40
 21
897
  0
LINE
  5
2F1
100
AcDbEntity
  8
rozmir
  6
ByBlock
 62
    0
370
   -2
100
AcDbLine
 10
-47.07106781186548
 20
825.0710678118655
 11
-32.92893218813453
 21
810.9289321881345
  0
LINE
  5
2F2
100
AcDbEntity
  8
rozmir
  6
ByBlock
 62
    0
370
   -2
100
AcDbLine
 10
-47.07106781186548
 20
904.0710678118655
 11
-32.92893218813452
 21
889.9289321881345
  0
MTEXT
  5
2F3
100
AcDbEntity
  8
rozmir
  6
CONTINUOUS
 62
    0
370
   -2
100
AcDbMText
 10
-52.5
 20
857.5
 30
0
 40
15
 41
18.33333333333334
 71
    5
 72
    1
  1
79
  7
standard
210
0
220
0
230
1
 50
90
 73
    2
 44
1
  0
LINE
  5
2F4
100
AcDbEntity
  8
rozmir
  6
ByBlock
 62
    0
370
   -2
100
AcDbLine
 10
-2
 20
818
 11
-45.00000000000001
 21
818
  0
LINE
  5
2F5
100
AcDbEntity
  8
rozmir
  6
ByBlock
 62
    0
370
   -2
100
AcDbLine
 10
-2
 20
897
 11
-45
 21
897
  0
ENDBLK
  5
11E
330
11C
100
AcDbEntity
  8
0
100
AcDbBlockEnd
  0
BLOCK
  5
120
330
11F
100
AcDbEntity
  8
0
100
AcDbBlockBegin
  2
*D23
 70
    1
 10
0
 20
0
  3
*D23
  1

  0
LINE
  5
2F6
100
AcDbEntity
  8
rozmir
  6
ByBlock
 62
    0
370
   -2
100
AcDbLine
 10
402
 20
-60
 11
481
 21
-60
  0
LINE
  5
2F7
100
AcDbEntity
  8
rozmir
  6
ByBlock
 62
    0
370
   -2
100
AcDbLine
 10
409.0710678118655
 20
-52.92893218813452
 11
394.9289321881345
 21
-67.07106781186548
  0
LINE
  5
2F8
100
AcDbEntity
  8
rozmir
  6
ByBlock
 62
    0
370
   -2
100
AcDbLine
 10
488.0710678118655
 20
-52.92893218813452
 11
473.9289321881345
 21
-67.07106781186548
  0
MTEXT
  5
2F9
100
AcDbEntity
  8
rozmir
  6
CONTINUOUS
 62
    0
370
   -2
100
AcDbMText
 10
441.5
 20
-47.5
 30
0
 40
15
 41
18.33333333333334
 71
    5
 72
    1
  1
79
  7
standard
210
0
220
0
230
1
 50
0
 73
    2
 44
1
  0
LINE
  5
2FA
100
AcDbEntity
  8
rozmir
  6
ByBlock
 62
    0
370
   -2
100
AcDbLine
 10
402
 20
-1.999999999999989
 11
402
 21
-65
  0
LINE
  5
2FB
100
AcDbEntity
  8
rozmir
  6
ByBlock
 62
    0
370
   -2
100
AcDbLine
 10
481
 20
-2
 11
481
 21
-65
  0
ENDBLK
  5
121
330
11F
100
AcDbEntity
  8
0
100
AcDbBlockEnd
  0
BLOCK
  5
123
330
122
100
AcDbEntity
  8
0
100
AcDbBlockBegin
  2
*D70
 70
    1
 10
0
 20
0
  3
*D70
  1

  0
LINE
  5
2FC
100
AcDbEntity
  8
rozmir
  6
ByBlock
 62
    0
370
   -2
100
AcDbLine
 10
580
 20
475
 11
580
 21
516
  0
LINE
  5
2FD
100
AcDbEntity
  8
rozmir
  6
ByBlock
 62
    0
370
   -2
100
AcDbLine
 10
572.9289321881346
 20
482.0710678118655
 11
587.0710678118654
 21
467.9289321881345
  0
LINE
  5
2FE
100
AcDbEntity
  8
rozmir
  6
ByBlock
 62
    0
370
   -2
100
AcDbLine
 10
572.9289321881346
 20
523.0710678118655
 11
587.0710678118654
 21
508.9289321881345
  0
MTEXT
  5
2FF
100
AcDbEntity
  8
rozmir
  6
CONTINUOUS
 62
    0
370
   -2
100
AcDbMText
 10
567.5
 20
495.5
 30
0
 40
15
 41
16.66666666666667
 71
    5
 72
    1
  1
41
  7
standard
210
0
220
0
230
1
 50
90
 73
    2
 44
1
  0
LINE
  5
300
100
AcDbEntity
  8
rozmir
  6
ByBlock
 62
    0
370
   -2
100
AcDbLine
 10
548
 20
475
 11
585
 21
475
  0
LINE
  5
301
100
AcDbEntity
  8
rozmir
  6
ByBlock
 62
    0
370
   -2
100
AcDbLine
 10
548
 20
516
 11
585
 21
516
  0
ENDBLK
  5
124
330
122
100
AcDbEntity
  8
0
100
AcDbBlockEnd
  0
BLOCK
  5
126
330
125
100
AcDbEntity
  8
0
100
AcDbBlockBegin
  2
*D71
 70
    1
 10
0
 20
0
  3
*D71
  1

  0
LINE
  5
302
100
AcDbEntity
  8
rozmir
  6
ByBlock
 62
    0
370
   -2
100
AcDbLine
 10
580
 20
383
 11
580
 21
475
  0
LINE
  5
303
100
AcDbEntity
  8
rozmir
  6
ByBlock
 62
    0
370
   -2
100
AcDbLine
 10
572.9289321881346
 20
390.0710678118655
 11
587.0710678118654
 21
375.9289321881345
  0
LINE
  5
304
100
AcDbEntity
  8
rozmir
  6
ByBlock
 62
    0
370
   -2
100
AcDbLine
 10
572.9289321881346
 20
482.0710678118655
 11
587.0710678118654
 21
467.9289321881345
  0
MTEXT
  5
305
100
AcDbEntity
  8
rozmir
  6
CONTINUOUS
 62
    0
370
   -2
100
AcDbMText
 10
567.5
 20
429
 30
0
 40
15
 41
18.33333333333427
 71
    5
 72
    1
  1
92
  7
standard
210
0
220
0
230
1
 50
90
 73
    2
 44
1
  0
LINE
  5
306
100
AcDbEntity
  8
rozmir
  6
ByBlock
 62
    0
370
   -2
100
AcDbLine
 10
548
 20
383
 11
585
 21
383
  0
LINE
  5
307
100
AcDbEntity
  8
rozmir
  6
ByBlock
 62
    0
370
   -2
100
AcDbLine
 10
548
 20
475
 11
585
 21
475
  0
ENDBLK
  5
127
330
125
100
AcDbEntity
  8
0
100
AcDbBlockEnd
  0
BLOCK
  5
129
330
128
100
AcDbEntity
  8
0
100
AcDbBlockBegin
  2
*D40
 70
    1
 10
0
 20
0
  3
*D40
  1

  0
LINE
  5
308
100
AcDbEntity
  8
rozmir
  6
ByBlock
 62
    0
370
   -2
100
AcDbLine
 10
46
 20
730
 11
393
 21
730
  0
LINE
  5
309
100
AcDbEntity
  8
rozmir
  6
ByBlock
 62
    0
370
   -2
100
AcDbLine
 10
53.07106781186548
 20
737.0710678118654
 11
38.92893218813452
 21
722.9289321881346
  0
LINE
  5
30A
100
AcDbEntity
  8
rozmir
  6
ByBlock
 62
    0
370
   -2
100
AcDbLine
 10
400.0710678118655
 20
737.0710678118654
 11
385.9289321881345
 21
722.9289321881346
  0
MTEXT
  5
30B
100
AcDbEntity
  8
rozmir
  6
CONTINUOUS
 62
    0
370
   -2
100
AcDbMText
 10
219.5
 20
742.5
 30
0
 40
15
 41
31.6666666666676
 71
    5
 72
    1
  1
347
  7
standard
210
0
220
0
230
1
 50
0
 73
    2
 44
1
  0
LINE
  5
30C
100
AcDbEntity
  8
rozmir
  6
ByBlock
 62
    0
370
   -2
100
AcDbLine
 10
46
 20
706
 11
46
 21
735
  0
LINE
  5
30D
100
AcDbEntity
  8
rozmir
  6
ByBlock
 62
    0
370
   -2
100
AcDbLine
 10
393
 20
706
 11
393
 21
735
  0
ENDBLK
  5
12A
330
128
100
AcDbEntity
  8
0
100
AcDbBlockEnd
  0
BLOCK
  5
12C
330
12B
100
AcDbEntity
  8
0
100
AcDbBlockBegin
  2
*D21
 70
    1
 10
0
 20
0
  3
*D21
  1

  0
LINE
  5
30E
100
AcDbEntity
  8
rozmir
  6
ByBlock
 62
    0
370
   -2
100
AcDbLine
 10
675
 20
-60
 11
819
 21
-60
  0
LINE
  5
30F
100
AcDbEntity
  8
rozmir
  6
ByBlock
 62
    0
370
   -2
100
AcDbLine
 10
682.0710678118655
 20
-52.92893218813452
 11
667.9289321881345
 21
-67.07106781186548
  0
LINE
  5
310
100
AcDbEntity
  8
rozmir
  6
ByBlock
 62
    0
370
   -2
100
AcDbLine
 10
826.0710678118655
 20
-52.92893218813452
 11
811.9289321881345
 21
-67.07106781186548
  0
MTEXT
  5
311
100
AcDbEntity
  8
rozmir
  6
CONTINUOUS
 62
    0
370
   -2
100
AcDbMText
 10
747
 20
-47.5
 30
0
 40
15
 41
30
 71
    5
 72
    1
  1
144
  7
standard
210
0
220
0
230
1
 50
0
 73
    2
 44
1
  0
LINE
  5
312
100
AcDbEntity
  8
rozmir
  6
ByBlock
 62
    0
370
   -2
100
AcDbLine
 10
675
 20
-2
 11
675
 21
-65
  0
LINE
  5
313
100
AcDbEntity
  8
rozmir
  6
ByBlock
 62
    0
370
   -2
100
AcDbLine
 10
819
 20
-2
 11
819
 21
-65
  0
ENDBLK
  5
12D
330
12B
100
AcDbEntity
  8
0
100
AcDbBlockEnd
  0
BLOCK
  5
12F
330
12E
100
AcDbEntity
  8
0
100
AcDbBlockBegin
  2
*D64
 70
    1
 10
0
 20
0
  3
*D64
  1

  0
LINE
  5
314
100
AcDbEntity
  8
rozmir
  6
ByBlock
 62
    0
370
   -2
100
AcDbLine
 10
825
 20
70
 11
954
 21
70
  0
LINE
  5
315
100
AcDbEntity
  8
rozmir
  6
ByBlock
 62
    0
370
   -2
100
AcDbLine
 10
832.0710678118655
 20
77.07106781186548
 11
817.9289321881345
 21
62.92893218813452
  0
LINE
  5
316
100
AcDbEntity
  8
rozmir
  6
ByBlock
 62
    0
370
   -2
100
AcDbLine
 10
961.0710678118655
 20
77.07106781186548
 11
946.9289321881345
 21
62.92893218813452
  0
MTEXT
  5
317
100
AcDbEntity
  8
rozmir
  6
CONTINUOUS
 62
    0
370
   -2
100
AcDbMText
 10
889.5
 20
82.5
 30
0
 40
15
 41
26.66666666666667
 71
    5
 72
    1
  1
129
  7
standard
210
0
220
0
230
1
 50
0
 73
    2
 44
1
  0
LINE
  5
318
100
AcDbEntity
  8
rozmir
  6
ByBlock
 62
    0
370
   -2
100
AcDbLine
 10
825
 20
48
 11
825
 21
75
  0
LINE
  5
319
100
AcDbEntity
  8
rozmir
  6
ByBlock
 62
    0
370
   -2
100
AcDbLine
 10
954
 20
48
 11
954
 21
75
  0
ENDBLK
  5
130
330
12E
100
AcDbEntity
  8
0
100
AcDbBlockEnd
  0
BLOCK
  5
132
330
131
100
AcDbEntity
  8
0
100
AcDbBlockBegin
  2
*D76
 70
    1
 10
0
 20
0
  3
*D76
  1

  0
LINE
  5
31A
100
AcDbEntity
  8
rozmir
  6
ByBlock
 62
    0
370
   -2
100
AcDbLine
 10
930
 20
591
 11
930
 21
536
  0
LINE
  5
31B
100
AcDbEntity
  8
rozmir
  6
ByBlock
 62
    0
370
   -2
100
AcDbLine
 10
937.0710678118654
 20
583.9289321881345
 11
922.9289321881346
 21
598.0710678118655
  0
LINE
  5
31C
100
AcDbEntity
  8
rozmir
  6
ByBlock
 62
    0
370
   -2
100
AcDbLine
 10
937.0710678118654
 20
528.9289321881345
 11
922.9289321881346
 21
543.0710678118655
  0
MTEXT
  5
31D
100
AcDbEntity
  8
rozmir
  6
CONTINUOUS
 62
    0
370
   -2
100
AcDbMText
 10
917.5
 20
563.5
 30
0
 40
15
 41
18.3333333333352
 71
    5
 72
    1
  1
55
  7
standard
210
0
220
0
230
1
 50
90
 73
    2
 44
1
  0
LINE
  5
31E
100
AcDbEntity
  8
rozmir
  6
ByBlock
 62
    0
370
   -2
100
AcDbLine
 10
952
 20
591
 11
925
 21
591
  0
LINE
  5
31F
100
AcDbEntity
  8
rozmir
  6
ByBlock
 62
    0
370
   -2
100
AcDbLine
 10
952
 20
536
 11
925
 21
536
  0
ENDBLK
  5
133
330
131
100
AcDbEntity
  8
0
100
AcDbBlockEnd
  0
BLOCK
  5
135
330
134
100
AcDbEntity
  8
0
100
AcDbBlockBegin
  2
*D1
 70
    1
 10
0
 20
0
  3
*D1
  1

  0
LINE
  5
320
100
AcDbEntity
  8
rozmir
  6
ByBlock
 62
    0
370
   -2
100
AcDbLine
 10
-40.00000000000002
 20
0
 11
-40
 21
337
  0
LINE
  5
321
100
AcDbEntity
  8
rozmir
  6
ByBlock
 62
    0
370
   -2
100
AcDbLine
 10
-47.0710678118655
 20
7.071067811865477
 11
-32.92893218813455
 21
-7.071067811865477
  0
LINE
  5
322
100
AcDbEntity
  8
rozmir
  6
ByBlock
 62
    0
370
   -2
100
AcDbLine
 10
-47.07106781186548
 20
344.0710678118655
 11
-32.92893218813452
 21
329.9289321881345
  0
MTEXT
  5
323
100
AcDbEntity
  8
rozmir
  6
CONTINUOUS
 62
    0
370
   -2
100
AcDbMText
 10
-52.5
 20
168.5
 30
0
 40
15
 41
30.00000000000187
 71
    5
 72
    1
  1
337
  7
standard
210
0
220
0
230
1
 50
90
 73
    2
 44
1
  0
LINE
  5
324
100
AcDbEntity
  8
rozmir
  6
ByBlock
 62
    0
370
   -2
100
AcDbLine
 10
-2
 20
2.449293598294706e-16
 11
-45.00000000000002
 21
6.123233995736766e-16
  0
LINE
  5
325
100
AcDbEntity
  8
rozmir
  6
ByBlock
 62
    0
370
   -2
100
AcDbLine
 10
-2
 20
337
 11
-45
 21
337
  0
ENDBLK
  5
136
330
134
100
AcDbEntity
  8
0
100
AcDbBlockEnd
  0
BLOCK
  5
138
330
137
100
AcDbEntity
  8
0
100
AcDbBlockBegin
  2
*D32
 70
    1
 10
0
 20
0
  3
*D32
  1

  0
LINE
  5
326
100
AcDbEntity
  8
rozmir
  6
ByBlock
 62
    0
370
   -2
100
AcDbLine
 10
111
 20
220
 11
280
 21
220
  0
LINE
  5
327
100
AcDbEntity
  8
rozmir
  6
ByBlock
 62
    0
370
   -2
100
AcDbLine
 10
118.0710678118655
 20
227.0710678118655
 11
103.9289321881345
 21
212.9289321881345
  0
LINE
  5
328
100
AcDbEntity
  8
rozmir
  6
ByBlock
 62
    0
370
   -2
100
AcDbLine
 10
287.0710678118655
 20
227.0710678118655
 11
272.9289321881345
 21
212.9289321881345
  0
MTEXT
  5
329
100
AcDbEntity
  8
rozmir
  6
CONTINUOUS
 62
    0
370
   -2
100
AcDbMText
 10
195.5
 20
232.5
 30
0
 40
15
 41
26.6666666666676
 71
    5
 72
    1
  1
169
  7
standard
210
0
220
0
230
1
 50
0
 73
    2
 44
1
  0
LINE
  5
32A
100
AcDbEntity
  8
rozmir
  6
ByBlock
 62
    0
370
   -2
100
AcDbLine
 10
111
 20
252
 11
111
 21
215
  0
LINE
  5
32B
100
AcDbEntity
  8
rozmir
  6
ByBlock
 62
    0
370
   -2
100
AcDbLine
 10
280
 20
252
 11
280
 21
215
  0
ENDBLK
  5
139
330
137
100
AcDbEntity
  8
0
100
AcDbBlockEnd
  0
BLOCK
  5
13B
330
13A
100
AcDbEntity
  8
0
100
AcDbBlockBegin
  2
*D84
 70
    1
 10
0
 20
0
  3
*D84
  1

  0
LINE
  5
32C
100
AcDbEntity
  8
rozmir
  6
ByBlock
 62
    0
370
   -2
100
AcDbLine
 10
400
 20
446
 11
400
 21
484
  0
LINE
  5
32D
100
AcDbEntity
  8
rozmir
  6
ByBlock
 62
    0
370
   -2
100
AcDbLine
 10
392.9289321881345
 20
453.0710678118655
 11
407.0710678118655
 21
438.9289321881345
  0
LINE
  5
32E
100
AcDbEntity
  8
rozmir
  6
ByBlock
 62
    0
370
   -2
100
AcDbLine
 10
392.9289321881345
 20
491.0710678118655
 11
407.0710678118655
 21
476.9289321881345
  0
MTEXT
  5
32F
100
AcDbEntity
  8
rozmir
  6
CONTINUOUS
 62
    0
370
   -2
100
AcDbMText
 10
387.5
 20
465
 30
0
 40
15
 41
18.33333333333427
 71
    5
 72
    1
  1
38
  7
standard
210
0
220
0
230
1
 50
90
 73
    2
 44
1
  0
LINE
  5
330
100
AcDbEntity
  8
rozmir
  6
ByBlock
 62
    0
370
   -2
100
AcDbLine
 10
373
 20
446
 11
405
 21
446
  0
LINE
  5
331
100
AcDbEntity
  8
rozmir
  6
ByBlock
 62
    0
370
   -2
100
AcDbLine
 10
373
 20
484
 11
405
 21
484
  0
ENDBLK
  5
13C
330
13A
100
AcDbEntity
  8
0
100
AcDbBlockEnd
  0
BLOCK
  5
13E
330
13D
100
AcDbEntity
  8
0
100
AcDbBlockBegin
  2
*D72
 70
    1
 10
0
 20
0
  3
*D72
  1

  0
LINE
  5
332
100
AcDbEntity
  8
rozmir
  6
ByBlock
 62
    0
370
   -2
100
AcDbLine
 10
930
 20
1006
 11
930
 21
929
  0
LINE
  5
333
100
AcDbEntity
  8
rozmir
  6
ByBlock
 62
    0
370
   -2
100
AcDbLine
 10
937.0710678118654
 20
998.9289321881345
 11
922.9289321881346
 21
1013.071067811866
  0
LINE
  5
334
100
AcDbEntity
  8
rozmir
  6
ByBlock
 62
    0
370
   -2
100
AcDbLine
 10
937.0710678118654
 20
921.9289321881345
 11
922.9289321881346
 21
936.0710678118655
  0
MTEXT
  5
335
100
AcDbEntity
  8
rozmir
  6
CONTINUOUS
 62
    0
370
   -2
100
AcDbMText
 10
917.5
 20
967.5
 30
0
 40
15
 41
18.33333333333334
 71
    5
 72
    1
  1
77
  7
standard
210
0
220
0
230
1
 50
90
 73
    2
 44
1
  0
LINE
  5
336
100
AcDbEntity
  8
rozmir
  6
ByBlock
 62
    0
370
   -2
100
AcDbLine
 10
952
 20
1006
 11
925
 21
1006
  0
LINE
  5
337
100
AcDbEntity
  8
rozmir
  6
ByBlock
 62
    0
370
   -2
100
AcDbLine
 10
951.9999999999991
 20
929
 11
925
 21
929
  0
ENDBLK
  5
13F
330
13D
100
AcDbEntity
  8
0
100
AcDbBlockEnd
  0
BLOCK
  5
141
330
140
100
AcDbEntity
  8
0
100
AcDbBlockBegin
  2
*D18
 70
    1
 10
0
 20
0
  3
*D18
  1

  0
LINE
  5
338
100
AcDbEntity
  8
rozmir
  6
ByBlock
 62
    0
370
   -2
100
AcDbLine
 10
0
 20
-60
 11
155
 21
-60
  0
LINE
  5
339
100
AcDbEntity
  8
rozmir
  6
ByBlock
 62
    0
370
   -2
100
AcDbLine
 10
7.071067811865477
 20
-52.92893218813452
 11
-7.071067811865477
 21
-67.07106781186548
  0
LINE
  5
33A
100
AcDbEntity
  8
rozmir
  6
ByBlock
 62
    0
370
   -2
100
AcDbLine
 10
162.0710678118655
 20
-52.92893218813452
 11
147.9289321881345
 21
-67.07106781186548
  0
MTEXT
  5
33B
100
AcDbEntity
  8
rozmir
  6
CONTINUOUS
 62
    0
370
   -2
100
AcDbMText
 10
77.5
 20
-47.5
 30
0
 40
15
 41
26.66666666666853
 71
    5
 72
    1
  1
155
  7
standard
210
0
220
0
230
1
 50
0
 73
    2
 44
1
  0
LINE
  5
33C
100
AcDbEntity
  8
rozmir
  6
ByBlock
 62
    0
370
   -2
100
AcDbLine
 10
-3.673940397442059e-16
 20
-2
 11
-9.184850993605148e-16
 21
-65
  0
LINE
  5
33D
100
AcDbEntity
  8
rozmir
  6
ByBlock
 62
    0
370
   -2
100
AcDbLine
 10
155
 20
-2.000000000000001
 11
155
 21
-65
  0
ENDBLK
  5
142
330
140
100
AcDbEntity
  8
0
100
AcDbBlockEnd
  0
BLOCK
  5
144
330
143
100
AcDbEntity
  8
0
100
AcDbBlockBegin
  2
*D10
 70
    1
 10
0
 20
0
  3
*D10
  1

  0
LINE
  5
33E
100
AcDbEntity
  8
rozmir
  6
ByBlock
 62
    0
370
   -2
100
AcDbLine
 10
1060
 20
428.9999999999999
 11
1060
 21
597
  0
LINE
  5
33F
100
AcDbEntity
  8
rozmir
  6
ByBlock
 62
    0
370
   -2
100
AcDbLine
 10
1052.928932188134
 20
436.0710678118654
 11
1067.071067811866
 21
421.9289321881344
  0
LINE
  5
340
100
AcDbEntity
  8
rozmir
  6
ByBlock
 62
    0
370
   -2
100
AcDbLine
 10
1052.928932188134
 20
604.0710678118655
 11
1067.071067811866
 21
589.9289321881345
  0
MTEXT
  5
341
100
AcDbEntity
  8
rozmir
  6
CONTINUOUS
 62
    0
370
   -2
100
AcDbMText
 10
1047.5
 20
513
 30
0
 40
15
 41
26.6666666666676
 71
    5
 72
    1
  1
168
  7
standard
210
0
220
0
230
1
 50
90
 73
    2
 44
1
  0
LINE
  5
342
100
AcDbEntity
  8
rozmir
  6
ByBlock
 62
    0
370
   -2
100
AcDbLine
 10
1002
 20
428.9999999999999
 11
1065
 21
428.9999999999999
  0
LINE
  5
343
100
AcDbEntity
  8
rozmir
  6
ByBlock
 62
    0
370
   -2
100
AcDbLine
 10
1002
 20
597
 11
1065
 21
597
  0
ENDBLK
  5
145
330
143
100
AcDbEntity
  8
0
100
AcDbBlockEnd
  0
BLOCK
  5
147
330
146
100
AcDbEntity
  8
0
100
AcDbBlockBegin
  2
*D33
 70
    1
 10
0
 20
0
  3
*D33
  1

  0
LINE
  5
344
100
AcDbEntity
  8
rozmir
  6
ByBlock
 62
    0
370
   -2
100
AcDbLine
 10
294
 20
220
 11
346
 21
220
  0
LINE
  5
345
100
AcDbEntity
  8
rozmir
  6
ByBlock
 62
    0
370
   -2
100
AcDbLine
 10
301.0710678118655
 20
227.0710678118655
 11
286.9289321881345
 21
212.9289321881345
  0
LINE
  5
346
100
AcDbEntity
  8
rozmir
  6
ByBlock
 62
    0
370
   -2
100
AcDbLine
 10
353.0710678118655
 20
227.0710678118655
 11
338.9289321881345
 21
212.9289321881345
  0
MTEXT
  5
347
100
AcDbEntity
  8
rozmir
  6
CONTINUOUS
 62
    0
370
   -2
100
AcDbMText
 10
320
 20
232.5
 30
0
 40
15
 41
18.33333333333426
 71
    5
 72
    1
  1
52
  7
standard
210
0
220
0
230
1
 50
0
 73
    2
 44
1
  0
LINE
  5
348
100
AcDbEntity
  8
rozmir
  6
ByBlock
 62
    0
370
   -2
100
AcDbLine
 10
294
 20
252
 11
294
 21
215
  0
LINE
  5
349
100
AcDbEntity
  8
rozmir
  6
ByBlock
 62
    0
370
   -2
100
AcDbLine
 10
346
 20
252
 11
346
 21
215
  0
ENDBLK
  5
148
330
146
100
AcDbEntity
  8
0
100
AcDbBlockEnd
  0
BLOCK
  5
14A
330
149
100
AcDbEntity
  8
0
100
AcDbBlockBegin
  2
*D86
 70
    1
 10
0
 20
0
  3
*D86
  1

  0
LINE
  5
34A
100
AcDbEntity
  8
rozmir
  6
ByBlock
 62
    0
370
   -2
100
AcDbLine
 10
400
 20
376
 11
400
 21
142
  0
LINE
  5
34B
100
AcDbEntity
  8
rozmir
  6
ByBlock
 62
    0
370
   -2
100
AcDbLine
 10
407.0710678118655
 20
368.9289321881345
 11
392.9289321881345
 21
383.0710678118655
  0
LINE
  5
34C
100
AcDbEntity
  8
rozmir
  6
ByBlock
 62
    0
370
   -2
100
AcDbLine
 10
407.0710678118655
 20
134.9289321881345
 11
392.9289321881345
 21
149.0710678118655
  0
MTEXT
  5
34D
100
AcDbEntity
  8
rozmir
  6
CONTINUOUS
 62
    0
370
   -2
100
AcDbMText
 10
387.5
 20
259
 30
0
 40
15
 41
31.6666666666676
 71
    5
 72
    1
  1
234
  7
standard
210
0
220
0
230
1
 50
90
 73
    2
 44
1
  0
LINE
  5
34E
100
AcDbEntity
  8
rozmir
  6
ByBlock
 62
    0
370
   -2
100
AcDbLine
 10
373
 20
376
 11
405
 21
376
  0
LINE
  5
34F
100
AcDbEntity
  8
rozmir
  6
ByBlock
 62
    0
370
   -2
100
AcDbLine
 10
373
 20
142
 11
405
 21
142
  0
ENDBLK
  5
14B
330
149
100
AcDbEntity
  8
0
100
AcDbBlockEnd
  0
BLOCK
  5
14D
330
14C
100
AcDbEntity
  8
0
100
AcDbBlockBegin
  2
*D80
 70
    1
 10
0
 20
0
  3
*D80
  1

  0
LINE
  5
350
100
AcDbEntity
  8
rozmir
  6
ByBlock
 62
    0
370
   -2
100
AcDbLine
 10
810
 20
496
 11
810
 21
556
  0
LINE
  5
351
100
AcDbEntity
  8
rozmir
  6
ByBlock
 62
    0
370
   -2
100
AcDbLine
 10
817.0710678118654
 20
508.9289321881345
 11
802.9289321881346
 21
523.0710678118655
  0
LINE
  5
352
100
AcDbEntity
  8
rozmir
  6
ByBlock
 62
    0
370
   -2
100
AcDbLine
 10
817.0710678118654
 20
528.9289321881345
 11
802.9289321881346
 21
543.0710678118655
  0
MTEXT
  5
353
100
AcDbEntity
  8
rozmir
  6
CONTINUOUS
 62
    0
370
   -2
100
AcDbMText
 10
797
 20
554
 30
0
 40
15
 41
18.33333333333334
 71
    5
 72
    1
  1
20
  7
standard
210
0
220
0
230
1
 50
90
 73
    2
 44
1
  0
LINE
  5
354
100
AcDbEntity
  8
rozmir
  6
ByBlock
 62
    0
370
   -2
100
AcDbLine
 10
802
 20
516
 11
815
 21
516
  0
LINE
  5
355
100
AcDbEntity
  8
rozmir
  6
ByBlock
 62
    0
370
   -2
100
AcDbLine
 10
802
 20
536
 11
815
 21
536
  0
ENDBLK
  5
14E
330
14C
100
AcDbEntity
  8
0
100
AcDbBlockEnd
  0
BLOCK
  5
150
330
14F
100
AcDbEntity
  8
0
100
AcDbBlockBegin
  2
*D51
 70
    1
 10
0
 20
0
  3
*D51
  1

  0
LINE
  5
356
100
AcDbEntity
  8
rozmir
  6
ByBlock
 62
    0
370
   -2
100
AcDbLine
 10
435
 20
960
 11
508
 21
960
  0
LINE
  5
357
100
AcDbEntity
  8
rozmir
  6
ByBlock
 62
    0
370
   -2
100
AcDbLine
 10
442.0710678118655
 20
967.0710678118654
 11
427.9289321881345
 21
952.9289321881346
  0
LINE
  5
358
100
AcDbEntity
  8
rozmir
  6
ByBlock
 62
    0
370
   -2
100
AcDbLine
 10
515.0710678118655
 20
967.0710678118654
 11
500.9289321881345
 21
952.9289321881346
  0
MTEXT
  5
359
100
AcDbEntity
  8
rozmir
  6
CONTINUOUS
 62
    0
370
   -2
100
AcDbMText
 10
471.5
 20
972.5
 30
0
 40
15
 41
18.33333333333427
 71
    5
 72
    1
  1
73
  7
standard
210
0
220
0
230
1
 50
0
 73
    2
 44
1
  0
LINE
  5
35A
100
AcDbEntity
  8
rozmir
  6
ByBlock
 62
    0
370
   -2
100
AcDbLine
 10
435
 20
1004
 11
435
 21
955
  0
LINE
  5
35B
100
AcDbEntity
  8
rozmir
  6
ByBlock
 62
    0
370
   -2
100
AcDbLine
 10
508
 20
1004
 11
508
 21
955
  0
ENDBLK
  5
151
330
14F
100
AcDbEntity
  8
0
100
AcDbBlockEnd
  0
BLOCK
  5
153
330
152
100
AcDbEntity
  8
0
100
AcDbBlockBegin
  2
*D48
 70
    1
 10
0
 20
0
  3
*D48
  1

  0
LINE
  5
35C
100
AcDbEntity
  8
rozmir
  6
ByBlock
 62
    0
370
   -2
100
AcDbLine
 10
16
 20
560
 11
46
 21
560
  0
LINE
  5
35D
100
AcDbEntity
  8
rozmir
  6
ByBlock
 62
    0
370
   -2
100
AcDbLine
 10
23.07106781186548
 20
567.0710678118654
 11
8.928932188134523
 21
552.9289321881346
  0
LINE
  5
35E
100
AcDbEntity
  8
rozmir
  6
ByBlock
 62
    0
370
   -2
100
AcDbLine
 10
53.07106781186548
 20
567.0710678118654
 11
38.92893218813452
 21
552.9289321881346
  0
MTEXT
  5
35F
100
AcDbEntity
  8
rozmir
  6
CONTINUOUS
 62
    0
370
   -2
100
AcDbMText
 10
31
 20
572.5
 30
0
 40
15
 41
18.33333333333427
 71
    5
 72
    1
  1
30
  7
standard
210
0
220
0
230
1
 50
0
 73
    2
 44
1
  0
LINE
  5
360
100
AcDbEntity
  8
rozmir
  6
ByBlock
 62
    0
370
   -2
100
AcDbLine
 10
16
 20
585
 11
16
 21
555
  0
LINE
  5
361
100
AcDbEntity
  8
rozmir
  6
ByBlock
 62
    0
370
   -2
100
AcDbLine
 10
46
 20
585
 11
46
 21
555
  0
ENDBLK
  5
154
330
152
100
AcDbEntity
  8
0
100
AcDbBlockEnd
  0
BLOCK
  5
156
330
155
100
AcDbEntity
  8
0
100
AcDbBlockBegin
  2
*D35
 70
    1
 10
0
 20
0
  3
*D35
  1

  0
LINE
  5
362
100
AcDbEntity
  8
rozmir
  6
ByBlock
 62
    0
370
   -2
100
AcDbLine
 10
240
 20
234
 11
240
 21
286
  0
LINE
  5
363
100
AcDbEntity
  8
rozmir
  6
ByBlock
 62
    0
370
   -2
100
AcDbLine
 10
247.0710678118655
 20
246.9289321881345
 11
232.9289321881345
 21
261.0710678118655
  0
LINE
  5
364
100
AcDbEntity
  8
rozmir
  6
ByBlock
 62
    0
370
   -2
100
AcDbLine
 10
247.0710678118655
 20
258.9289321881345
 11
232.9289321881345
 21
273.0710678118655
  0
MTEXT
  5
365
100
AcDbEntity
  8
rozmir
  6
CONTINUOUS
 62
    0
370
   -2
100
AcDbMText
 10
227.5
 20
278.5
 30
0
 40
15
 41
15
 71
    5
 72
    1
  1
12
  7
standard
210
0
220
0
230
1
 50
90
 73
    2
 44
1
  0
LINE
  5
366
100
AcDbEntity
  8
rozmir
  6
ByBlock
 62
    0
370
   -2
100
AcDbLine
 10
248
 20
254
 11
235
 21
254
  0
LINE
  5
367
100
AcDbEntity
  8
rozmir
  6
ByBlock
 62
    0
370
   -2
100
AcDbLine
 10
248
 20
266
 11
235
 21
266
  0
ENDBLK
  5
157
330
155
100
AcDbEntity
  8
0
100
AcDbBlockEnd
  0
BLOCK
  5
159
330
158
100
AcDbEntity
  8
0
100
AcDbBlockBegin
  2
*D57
 70
    1
 10
0
 20
0
  3
*D57
  1

  0
LINE
  5
368
100
AcDbEntity
  8
rozmir
  6
ByBlock
 62
    0
370
   -2
100
AcDbLine
 10
371
 20
70
 11
396
 21
70
  0
LINE
  5
369
100
AcDbEntity
  8
rozmir
  6
ByBlock
 62
    0
370
   -2
100
AcDbLine
 10
378.0710678118655
 20
77.07106781186548
 11
363.9289321881345
 21
62.92893218813452
  0
LINE
  5
36A
100
AcDbEntity
  8
rozmir
  6
ByBlock
 62
    0
370
   -2
100
AcDbLine
 10
403.0710678118655
 20
77.07106781186548
 11
388.9289321881345
 21
62.92893218813452
  0
MTEXT
  5
36B
100
AcDbEntity
  8
rozmir
  6
CONTINUOUS
 62
    0
370
   -2
100
AcDbMText
 10
383.5
 20
82.5
 30
0
 40
15
 41
18.33333333333427
 71
    5
 72
    1
  1
25
  7
standard
210
0
220
0
230
1
 50
0
 73
    2
 44
1
  0
LINE
  5
36C
100
AcDbEntity
  8
rozmir
  6
ByBlock
 62
    0
370
   -2
100
AcDbLine
 10
371
 20
47.99999999999999
 11
371
 21
75
  0
LINE
  5
36D
100
AcDbEntity
  8
rozmir
  6
ByBlock
 62
    0
370
   -2
100
AcDbLine
 10
396
 20
47.99999999999999
 11
396
 21
75
  0
ENDBLK
  5
15A
330
158
100
AcDbEntity
  8
0
100
AcDbBlockEnd
  0
BLOCK
  5
15C
330
15B
100
AcDbEntity
  8
0
100
AcDbBlockBegin
  2
*D31
 70
    1
 10
0
 20
0
  3
*D31
  1

  0
LINE
  5
36E
100
AcDbEntity
  8
rozmir
  6
ByBlock
 62
    0
370
   -2
100
AcDbLine
 10
78
 20
220
 11
131
 21
220
  0
LINE
  5
36F
100
AcDbEntity
  8
rozmir
  6
ByBlock
 62
    0
370
   -2
100
AcDbLine
 10
90.92893218813452
 20
212.9289321881345
 11
105.0710678118655
 21
227.0710678118655
  0
LINE
  5
370
100
AcDbEntity
  8
rozmir
  6
ByBlock
 62
    0
370
   -2
100
AcDbLine
 10
103.9289321881345
 20
212.9289321881345
 11
118.0710678118655
 21
227.0710678118655
  0
MTEXT
  5
371
100
AcDbEntity
  8
rozmir
  6
CONTINUOUS
 62
    0
370
   -2
100
AcDbMText
 10
123.5000000000005
 20
232.5
 30
0
 40
15
 41
15.00000000000093
 71
    5
 72
    1
  1
13
  7
standard
210
0
220
0
230
1
 50
0
 73
    2
 44
1
  0
LINE
  5
372
100
AcDbEntity
  8
rozmir
  6
ByBlock
 62
    0
370
   -2
100
AcDbLine
 10
98
 20
252
 11
98
 21
215
  0
LINE
  5
373
100
AcDbEntity
  8
rozmir
  6
ByBlock
 62
    0
370
   -2
100
AcDbLine
 10
111
 20
252
 11
111
 21
215
  0
ENDBLK
  5
15D
330
15B
100
AcDbEntity
  8
0
100
AcDbBlockEnd
  0
BLOCK
  5
15F
330
15E
100
AcDbEntity
  8
0
100
AcDbBlockBegin
  2
*D3
 70
    1
 10
0
 20
0
  3
*D3
  1

  0
LINE
  5
374
100
AcDbEntity
  8
rozmir
  6
ByBlock
 62
    0
370
   -2
100
AcDbLine
 10
-40.00000000000001
 20
390
 11
-40
 21
544
  0
LINE
  5
375
100
AcDbEntity
  8
rozmir
  6
ByBlock
 62
    0
370
   -2
100
AcDbLine
 10
-47.07106781186549
 20
397.0710678118655
 11
-32.92893218813454
 21
382.9289321881345
  0
LINE
  5
376
100
AcDbEntity
  8
rozmir
  6
ByBlock
 62
    0
370
   -2
100
AcDbLine
 10
-47.07106781186548
 20
551.0710678118655
 11
-32.92893218813452
 21
536.9289321881345
  0
MTEXT
  5
377
100
AcDbEntity
  8
rozmir
  6
CONTINUOUS
 62
    0
370
   -2
100
AcDbMText
 10
-52.5
 20
467
 30
0
 40
15
 41
28.33333333333426
 71
    5
 72
    1
  1
154
  7
standard
210
0
220
0
230
1
 50
90
 73
    2
 44
1
  0
LINE
  5
378
100
AcDbEntity
  8
rozmir
  6
ByBlock
 62
    0
370
   -2
100
AcDbLine
 10
-2
 20
390
 11
-45.00000000000001
 21
390
  0
LINE
  5
379
100
AcDbEntity
  8
rozmir
  6
ByBlock
 62
    0
370
   -2
100
AcDbLine
 10
-2
 20
544
 11
-45
 21
544
  0
ENDBLK
  5
160
330
15E
100
AcDbEntity
  8
0
100
AcDbBlockEnd
  0
BLOCK
  5
162
330
161
100
AcDbEntity
  8
0
100
AcDbBlockBegin
  2
block10
 70
    0
 10
0
 20
0
  3
block10
  1

  0
LWPOLYLINE
  5
37A
100
AcDbEntity
  8
0
  6
CONTINUOUS
 62
    7
370
   70
100
AcDbPolyline
 90
   12
 70
    1
 43
0
 10
-0.6062178
 20
1
 10
0
 20
0
 10
0.6062178
 20
1
 10
1.8186533
 20
1
 10
1.2124356
 20
2
 10
1.8186533
 20
3
 10
0.6062178
 20
3
 10
0
 20
4
 10
-0.6062178
 20
3
 10
-1.8186533
 20
3
 10
-1.2124356
 20
2
 10
-1.8186533
 20
1
  0
ENDBLK
  5
163
330
161
100
AcDbEntity
  8
0
100
AcDbBlockEnd
  0
ENDSEC
  0
SECTION
  2
ENTITIES
  0
HATCH
  5
37B
100
AcDbEntity
  8
lyce
  6
ByLayer
 62
  256
370
   -1
100
AcDbHatch
 10
0
 20
0
 30
0
210
0
220
0
230
1
  2
gost_ceramics
 70
    0
 71
    0
 91
    1
 92
    0
 93
    8
 72
    1
 10
0
 20
1052
 11
1000
 21
1052
 72
    1
 10
1000
 20
1052
 11
1000
 21
0
 72
    1
 10
1000
 20
0
 11
0
 21
0
 72
    1
 10
0
 20
0
 11
0
 21
1052
 72
    1
 10
988
 20
12
 11
12
 21
12
 72
    1
 10
12
 20
12
 11
12
 21
1040
 72
    1
 10
12
 20
1040
 11
988
 21
1040
 72
    1
 10
988
 20
1040
 11
988
 21
12
 97
    0
 75
    0
 76
    1
 52
0
 41
3
 77
    0
 78
    0
 98
    0
  0
LINE
  5
37C
100
AcDbEntity
  8
rozmir
  6
DASHDOT2
 62
  256
370
   -1
100
AcDbLine
 10
298
 20
260
 11
278
 21
260
  0
LINE
  5
37D
100
AcDbEntity
  8
rozmir
  6
DASHDOT2
 62
  256
370
   -1
100
AcDbLine
 10
288
 20
270
 11
288
 21
250
  0
LWPOLYLINE
  5
37E
100
AcDbEntity
  8
cegla
  6
DASHED2
 62
  256
370
   -1
100
AcDbPolyline
 90
    4
 70
    1
 43
0
 10
111
 20
266
 10
280
 20
266
 10
280
 20
254
 10
111
 20
254
  0
LWPOLYLINE
  5
37F
100
AcDbEntity
  8
cegla
  6
DASHED2
 62
  256
370
   -1
100
AcDbPolyline
 90
    4
 70
    1
 43
0
 10
294
 20
266
 10
346
 20
266
 10
346
 20
254
 10
294
 20
254
  0
LINE
  5
380
100
AcDbEntity
  8
cegla
  6
ByLayer
 62
  256
370
   -1
100
AcDbLine
 10
98
 20
266
 11
111
 21
266
  0
LINE
  5
381
100
AcDbEntity
  8
cegla
  6
ByLayer
 62
  256
370
   -1
100
AcDbLine
 10
111
 20
254
 11
98
 21
254
  0
LINE
  5
382
100
AcDbEntity
  8
cegla
  6
ByLayer
 62
  256
370
   -1
100
AcDbLine
 10
280
 20
266
 11
294
 21
266
  0
LINE
  5
383
100
AcDbEntity
  8
cegla
  6
ByLayer
 62
  256
370
   -1
100
AcDbLine
 10
294
 20
254
 11
280
 21
254
  0
DIMENSION
  5
384
100
AcDbEntity
  8
rozmir
  6
ByLayer
 62
  256
370
   -1
100
AcDbDimension
  2
*D1
 10
-40
 20
337
 30
0
 11
-52.5
 21
168.5
 31
0
 70
   32
 71
    5
  3
Standard
 53
0
210
0
220
0
230
1
100
AcDbAlignedDimension
 13
0
 23
0
 33
0
 14
0
 24
337
 34
0
 50
90
100
AcDbRotatedDimension
  0
DIMENSION
  5
385
100
AcDbEntity
  8
rozmir
  6
ByLayer
 62
  256
370
   -1
100
AcDbDimension
  2
*D2
 10
-40
 20
390
 30
0
 11
-52.5
 21
363.5
 31
0
 70
   32
 71
    5
  3
Standard
 53
0
210
0
220
0
230
1
100
AcDbAlignedDimension
 13
0
 23
337
 33
0
 14
0
 24
390
 34
0
 50
90
100
AcDbRotatedDimension
  0
DIMENSION
  5
386
100
AcDbEntity
  8
rozmir
  6
ByLayer
 62
  256
370
   -1
100
AcDbDimension
  2
*D3
 10
-40
 20
544
 30
0
 11
-52.5
 21
467
 31
0
 70
   32
 71
    5
  3
Standard
 53
0
210
0
220
0
230
1
100
AcDbAlignedDimension
 13
0
 23
390
 33
0
 14
0
 24
544
 34
0
 50
90
100
AcDbRotatedDimension
  0
DIMENSION
  5
387
100
AcDbEntity
  8
rozmir
  6
ByLayer
 62
  256
370
   -1
100
AcDbDimension
  2
*D4
 10
-40
 20
623
 30
0
 11
-52.5
 21
583.5
 31
0
 70
   32
 71
    5
  3
Standard
 53
0
210
0
220
0
230
1
100
AcDbAlignedDimension
 13
0
 23
544
 33
0
 14
0
 24
623
 34
0
 50
90
100
AcDbRotatedDimension
  0
DIMENSION
  5
388
100
AcDbEntity
  8
rozmir
  6
ByLayer
 62
  256
370
   -1
100
AcDbDimension
  2
*D5
 10
-40
 20
818
 30
0
 11
-52.5
 21
720.5
 31
0
 70
   32
 71
    5
  3
Standard
 53
0
210
0
220
0
230
1
100
AcDbAlignedDimension
 13
0
 23
623
 33
0
 14
0
 24
818
 34
0
 50
90
100
AcDbRotatedDimension
  0
DIMENSION
  5
389
100
AcDbEntity
  8
rozmir
  6
ByLayer
 62
  256
370
   -1
100
AcDbDimension
  2
*D6
 10
-40
 20
897
 30
0
 11
-52.5
 21
857.5
 31
0
 70
   32
 71
    5
  3
Standard
 53
0
210
0
220
0
230
1
100
AcDbAlignedDimension
 13
0
 23
818
 33
0
 14
0
 24
897
 34
0
 50
90
100
AcDbRotatedDimension
  0
DIMENSION
  5
38A
100
AcDbEntity
  8
rozmir
  6
ByLayer
 62
  256
370
   -1
100
AcDbDimension
  2
*D7
 10
-40
 20
1052
 30
0
 11
-52.5
 21
974.5
 31
0
 70
   32
 71
    5
  3
Standard
 53
0
210
0
220
0
230
1
100
AcDbAlignedDimension
 13
0
 23
897
 33
0
 14
0
 24
1052
 34
0
 50
90
100
AcDbRotatedDimension
  0
DIMENSION
  5
38B
100
AcDbEntity
  8
rozmir
  6
ByLayer
 62
  256
370
   -1
100
AcDbDimension
  2
*D8
 10
1060
 20
350
 30
0
 11
1047.5
 21
175
 31
0
 70
   32
 71
    5
  3
Standard
 53
0
210
0
220
0
230
1
100
AcDbAlignedDimension
 13
1000
 23
8.881784197001252e-16
 33
0
 14
1000
 24
350
 34
0
 50
90
100
AcDbRotatedDimension
  0
DIMENSION
  5
38C
100
AcDbEntity
  8
rozmir
  6
ByLayer
 62
  256
370
   -1
100
AcDbDimension
  2
*D9
 10
1060
 20
428.9999999999999
 30
0
 11
1047.5
 21
389.5
 31
0
 70
   32
 71
    5
  3
Standard
 53
0
210
0
220
0
230
1
100
AcDbAlignedDimension
 13
1000
 23
350
 33
0
 14
1000
 24
428.9999999999999
 34
0
 50
90
100
AcDbRotatedDimension
  0
DIMENSION
  5
38D
100
AcDbEntity
  8
rozmir
  6
ByLayer
 62
  256
370
   -1
100
AcDbDimension
  2
*D10
 10
1060
 20
597
 30
0
 11
1047.5
 21
513
 31
0
 70
   32
 71
    5
  3
Standard
 53
0
210
0
220
0
230
1
100
AcDbAlignedDimension
 13
1000
 23
428.9999999999999
 33
0
 14
1000
 24
597
 34
0
 50
90
100
AcDbRotatedDimension
  0
DIMENSION
  5
38E
100
AcDbEntity
  8
rozmir
  6
ByLayer
 62
  256
370
   -1
100
AcDbDimension
  2
*D11
 10
1060
 20
676
 30
0
 11
1047.5
 21
636.5
 31
0
 70
   32
 71
    5
  3
Standard
 53
0
210
0
220
0
230
1
100
AcDbAlignedDimension
 13
1000
 23
597
 33
0
 14
1000
 24
676
 34
0
 50
90
100
AcDbRotatedDimension
  0
DIMENSION
  5
38F
100
AcDbEntity
  8
rozmir
  6
ByLayer
 62
  256
370
   -1
100
AcDbDimension
  2
*D12
 10
1060
 20
844
 30
0
 11
1047.5
 21
760
 31
0
 70
   32
 71
    5
  3
Standard
 53
0
210
0
220
0
230
1
100
AcDbAlignedDimension
 13
1000
 23
676
 33
0
 14
1000
 24
844
 34
0
 50
90
100
AcDbRotatedDimension
  0
DIMENSION
  5
390
100
AcDbEntity
  8
rozmir
  6
ByLayer
 62
  256
370
   -1
100
AcDbDimension
  2
*D13
 10
1060
 20
923
 30
0
 11
1047.5
 21
883.5
 31
0
 70
   32
 71
    5
  3
Standard
 53
0
210
0
220
0
230
1
100
AcDbAlignedDimension
 13
1000
 23
844
 33
0
 14
999.9999999999991
 24
923
 34
0
 50
90
100
AcDbRotatedDimension
  0
DIMENSION
  5
391
100
AcDbEntity
  8
rozmir
  6
ByLayer
 62
  256
370
   -1
100
AcDbDimension
  2
*D14
 10
1060
 20
1052
 30
0
 11
1047.5
 21
987.5
 31
0
 70
   32
 71
    5
  3
Standard
 53
0
210
0
220
0
230
1
100
AcDbAlignedDimension
 13
999.9999999999991
 23
923
 33
0
 14
1000.000000000001
 24
1052
 34
0
 50
90
100
AcDbRotatedDimension
  0
DIMENSION
  5
392
100
AcDbEntity
  8
rozmir
  6
ByLayer
 62
  256
370
   -1
100
AcDbDimension
  2
*D15
 10
350
 20
1090
 30
0
 11
175
 21
1102.5
 31
0
 70
   32
 71
    5
  3
Standard
 53
0
210
0
220
0
230
1
100
AcDbAlignedDimension
 13
0
 23
1052
 33
0
 14
350
 24
1052
 34
0
100
AcDbRotatedDimension
  0
DIMENSION
  5
393
100
AcDbEntity
  8
rozmir
  6
ByLayer
 62
  256
370
   -1
100
AcDbDimension
  2
*D16
 10
429
 20
1090
 30
0
 11
389.5
 21
1102.5
 31
0
 70
   32
 71
    5
  3
Standard
 53
0
210
0
220
0
230
1
100
AcDbAlignedDimension
 13
350
 23
1052
 33
0
 14
429
 24
1052
 34
0
100
AcDbRotatedDimension
  0
DIMENSION
  5
394
100
AcDbEntity
  8
rozmir
  6
ByLayer
 62
  256
370
   -1
100
AcDbDimension
  2
*D17
 10
1000.000000000001
 20
1090
 30
0
 11
714.5
 21
1102.5
 31
0
 70
   32
 71
    5
  3
Standard
 53
0
210
0
220
0
230
1
100
AcDbAlignedDimension
 13
429
 23
1052
 33
0
 14
1000.000000000001
 24
1052
 34
0
100
AcDbRotatedDimension
  0
DIMENSION
  5
395
100
AcDbEntity
  8
rozmir
  6
ByLayer
 62
  256
370
   -1
100
AcDbDimension
  2
*D18
 10
155
 20
-60
 30
0
 11
77.5
 21
-47.5
 31
0
 70
   32
 71
    5
  3
Standard
 53
0
210
0
220
0
230
1
100
AcDbAlignedDimension
 13
0
 23
0
 33
0
 14
155
 24
-8.881784197001252e-16
 34
0
100
AcDbRotatedDimension
  0
DIMENSION
  5
396
100
AcDbEntity
  8
rozmir
  6
ByLayer
 62
  256
370
   -1
100
AcDbDimension
  2
*D19
 10
234
 20
-60.00000000000001
 30
0
 11
194.5
 21
-47.50000000000001
 31
0
 70
   32
 71
    5
  3
Standard
 53
0
210
0
220
0
230
1
100
AcDbAlignedDimension
 13
155
 23
-8.881784197001252e-16
 33
0
 14
234
 24
9.769962616701378e-15
 34
0
100
AcDbRotatedDimension
  0
DIMENSION
  5
397
100
AcDbEntity
  8
rozmir
  6
ByLayer
 62
  256
370
   -1
100
AcDbDimension
  2
*D20
 10
1000
 20
-60
 30
0
 11
909.5
 21
-47.5
 31
0
 70
   32
 71
    5
  3
Standard
 53
0
210
0
220
0
230
1
100
AcDbAlignedDimension
 13
819
 23
8.881784197001252e-16
 33
0
 14
1000
 24
0
 34
0
100
AcDbRotatedDimension
  0
DIMENSION
  5
398
100
AcDbEntity
  8
rozmir
  6
ByLayer
 62
  256
370
   -1
100
AcDbDimension
  2
*D21
 10
819
 20
-60
 30
0
 11
747
 21
-47.5
 31
0
 70
   32
 71
    5
  3
Standard
 53
0
210
0
220
0
230
1
100
AcDbAlignedDimension
 13
675
 23
0
 33
0
 14
819
 24
0
 34
0
100
AcDbRotatedDimension
  0
DIMENSION
  5
399
100
AcDbEntity
  8
rozmir
  6
ByLayer
 62
  256
370
   -1
100
AcDbDimension
  2
*D22
 10
675
 20
-60
 30
0
 11
578
 21
-47.5
 31
0
 70
   32
 71
    5
  3
Standard
 53
0
210
0
220
0
230
1
100
AcDbAlignedDimension
 13
481
 23
0
 33
0
 14
675
 24
0
 34
0
100
AcDbRotatedDimension
  0
DIMENSION
  5
39A
100
AcDbEntity
  8
rozmir
  6
ByLayer
 62
  256
370
   -1
100
AcDbDimension
  2
*D23
 10
481
 20
-60
 30
0
 11
441.5
 21
-47.5
 31
0
 70
   32
 71
    5
  3
Standard
 53
0
210
0
220
0
230
1
100
AcDbAlignedDimension
 13
402
 23
1.06581410364015e-14
 33
0
 14
481
 24
0
 34
0
100
AcDbRotatedDimension
  0
DIMENSION
  5
39B
100
AcDbEntity
  8
rozmir
  6
ByLayer
 62
  256
370
   -1
100
AcDbDimension
  2
*D24
 10
402
 20
-60
 30
0
 11
318
 21
-47.5
 31
0
 70
   32
 71
    5
  3
Standard
 53
0
210
0
220
0
230
1
100
AcDbAlignedDimension
 13
234
 23
1.06581410364015e-14
 33
0
 14
402
 24
1.06581410364015e-14
 34
0
100
AcDbRotatedDimension
  0
DIMENSION
  5
39C
100
AcDbEntity
  8
rozmir
  6
ByLayer
 62
  256
370
   -1
100
AcDbDimension
  2
*D25
 10
-80
 20
9.797174393178826e-15
 30
0
 11
-92.5
 21
526
 31
0
 70
   32
  1
<>*
 71
    5
  3
Standard
 53
0
210
0
220
0
230
1
100
AcDbAlignedDimension
 13
0
 23
1052
 33
0
 14
0
 24
0
 34
0
 50
90
100
AcDbRotatedDimension
  0
DIMENSION
  5
39D
100
AcDbEntity
  8
rozmir
  6
ByLayer
 62
  256
370
   -1
100
AcDbDimension
  2
*D26
 10
0
 20
1130
 30
0
 11
500
 21
1142.5
 31
0
 70
   32
  1
<>*
 71
    5
  3
Standard
 53
0
210
0
220
0
230
1
100
AcDbAlignedDimension
 13
1000.000000000001
 23
1052
 33
0
 14
0
 24
1052
 34
0
100
AcDbRotatedDimension
  0
LWPOLYLINE
  5
39E
100
AcDbEntity
  8
cegla
  6
DASHED2
 62
  256
370
   -1
100
AcDbPolyline
 90
    4
 70
    1
 43
0
 10
46
 20
266
 10
98
 20
266
 10
98
 20
254
 10
46
 20
254
  0
DIMENSION
  5
39F
100
AcDbEntity
  8
rozmir
  6
ByLayer
 62
  256
370
   -1
100
AcDbDimension
  2
*D27
 10
483
 20
730
 30
0
 11
438
 21
742.5
 31
0
 70
   32
 71
    5
  3
Standard
 53
0
210
0
220
0
230
1
100
AcDbAlignedDimension
 13
393
 23
704
 33
0
 14
483
 24
704
 34
0
100
AcDbRotatedDimension
  0
DIMENSION
  5
3A0
100
AcDbEntity
  8
rozmir
  6
ByLayer
 62
  256
370
   -1
100
AcDbDimension
  2
*D28
 10
508
 20
730
 30
0
 11
495.5
 21
742.5
 31
0
 70
   32
 71
    5
  3
Standard
 53
0
210
0
220
0
230
1
100
AcDbAlignedDimension
 13
483
 23
704
 33
0
 14
508
 24
704
 34
0
100
AcDbRotatedDimension
  0
DIMENSION
  5
3A1
100
AcDbEntity
  8
rozmir
  6
ByLayer
 62
  256
370
   -1
100
AcDbDimension
  2
*D29
 10
371
 20
420
 30
0
 11
358.5
 21
432.5
 31
0
 70
   32
 71
    5
  3
Standard
 53
0
210
0
220
0
230
1
100
AcDbAlignedDimension
 13
346
 23
450
 33
0
 14
371
 24
450
 34
0
100
AcDbRotatedDimension
  0
DIMENSION
  5
3A2
100
AcDbEntity
  8
rozmir
  6
ByLayer
 62
  256
370
   -1
100
AcDbDimension
  2
*D30
 10
430
 20
684
 30
0
 11
417.5
 21
694
 31
0
 70
   32
 71
    5
  3
Standard
 53
0
210
0
220
0
230
1
100
AcDbAlignedDimension
 13
393
 23
704
 33
0
 14
393
 24
684
 34
0
 50
90
100
AcDbRotatedDimension
  0
DIMENSION
  5
3A3
100
AcDbEntity
  8
rozmir
  6
ByLayer
 62
  256
370
   -1
100
AcDbDimension
  2
*D31
 10
111
 20
220
 30
0
 11
104.5
 21
232.5
 31
0
 70
   32
 71
    5
  3
Standard
 53
0
210
0
220
0
230
1
100
AcDbAlignedDimension
 13
98
 23
254
 33
0
 14
111
 24
254
 34
0
100
AcDbRotatedDimension
  0
DIMENSION
  5
3A4
100
AcDbEntity
  8
rozmir
  6
ByLayer
 62
  256
370
   -1
100
AcDbDimension
  2
*D32
 10
280
 20
220
 30
0
 11
195.5
 21
232.5
 31
0
 70
   32
 71
    5
  3
Standard
 53
0
210
0
220
0
230
1
100
AcDbAlignedDimension
 13
111
 23
254
 33
0
 14
280
 24
254
 34
0
100
AcDbRotatedDimension
  0
DIMENSION
  5
3A5
100
AcDbEntity
  8
rozmir
  6
ByLayer
 62
  256
370
   -1
100
AcDbDimension
  2
*D33
 10
346
 20
220
 30
0
 11
320
 21
232.5
 31
0
 70
   32
 71
    5
  3
Standard
 53
0
210
0
220
0
230
1
100
AcDbAlignedDimension
 13
294
 23
254
 33
0
 14
346
 24
254
 34
0
100
AcDbRotatedDimension
  0
DIMENSION
  5
3A6
100
AcDbEntity
  8
rozmir
  6
ByLayer
 62
  256
370
   -1
100
AcDbDimension
  2
*D34
 10
294
 20
220
 30
0
 11
249
 21
232
 31
0
 70
   32
 71
    5
  3
Standard
 53
0
210
0
220
0
230
1
100
AcDbAlignedDimension
 13
280
 23
254
 33
0
 14
294
 24
254
 34
0
100
AcDbRotatedDimension
  0
DIMENSION
  5
3A7
100
AcDbEntity
  8
rozmir
  6
ByLayer
 62
  256
370
   -1
100
AcDbDimension
  2
*D35
 10
240
 20
270
 30
0
 11
227.5
 21
260
 31
0
 70
   32
 71
    5
  3
Standard
 53
0
210
0
220
0
230
1
100
AcDbAlignedDimension
 13
250
 23
254
 33
0
 14
250
 24
266
 34
0
 50
90
100
AcDbRotatedDimension
  0
DIMENSION
  5
3A8
100
AcDbEntity
  8
rozmir
  6
ByLayer
 62
  256
370
   -1
100
AcDbDimension
  2
*D36
 10
490
 20
528
 30
0
 11
477.5
 21
606
 31
0
 70
   32
 71
    5
  3
Standard
 53
0
210
0
220
0
230
1
100
AcDbAlignedDimension
 13
508
 23
684
 33
0
 14
520
 24
528
 34
0
 50
90
100
AcDbRotatedDimension
  0
DIMENSION
  5
3A9
100
AcDbEntity
  8
rozmir
  6
ByLayer
 62
  256
370
   -1
100
AcDbDimension
  2
*D37
 10
490
 20
501
 30
0
 11
477.5
 21
514.5
 31
0
 70
   32
 71
    5
  3
Standard
 53
0
210
0
220
0
230
1
100
AcDbAlignedDimension
 13
520
 23
528
 33
0
 14
520
 24
501
 34
0
 50
90
100
AcDbRotatedDimension
  0
DIMENSION
  5
3AA
100
AcDbEntity
  8
rozmir
  6
ByLayer
 62
  256
370
   -1
100
AcDbDimension
  2
*D38
 10
490
 20
464
 30
0
 11
477.5
 21
482.5
 31
0
 70
   32
 71
    5
  3
Standard
 53
0
210
0
220
0
230
1
100
AcDbAlignedDimension
 13
520
 23
501
 33
0
 14
508
 24
464
 34
0
 50
90
100
AcDbRotatedDimension
  0
DIMENSION
  5
3AB
100
AcDbEntity
  8
rozmir
  6
ByLayer
 62
  256
370
   -1
100
AcDbDimension
  2
*D39
 10
546
 20
430
 30
0
 11
527
 21
442.5
 31
0
 70
   32
 71
    5
  3
Standard
 53
0
210
0
220
0
230
1
100
AcDbAlignedDimension
 13
508
 23
464
 33
0
 14
546
 24
464
 34
0
100
AcDbRotatedDimension
  0
DIMENSION
  5
3AC
100
AcDbEntity
  8
rozmir
  6
ByLayer
 62
  256
370
   -1
100
AcDbDimension
  2
*D40
 10
393
 20
730
 30
0
 11
219.5
 21
742.5
 31
0
 70
   32
 71
    5
  3
Standard
 53
0
210
0
220
0
230
1
100
AcDbAlignedDimension
 13
46
 23
704
 33
0
 14
393
 24
704
 34
0
100
AcDbRotatedDimension
  0
DIMENSION
  5
3AD
100
AcDbEntity
  8
rozmir
  6
ByLayer
 62
  256
370
   -1
100
AcDbDimension
  2
*D41
 10
346
 20
420
 30
0
 11
196
 21
432.5
 31
0
 70
   32
 71
    5
  3
Standard
 53
0
210
0
220
0
230
1
100
AcDbAlignedDimension
 13
46
 23
470
 33
0
 14
346
 24
470
 34
0
100
AcDbRotatedDimension
  0
DIMENSION
  5
3AE
100
AcDbEntity
  8
rozmir
  6
ByLayer
 62
  256
370
   -1
100
AcDbDimension
  2
*D42
 10
90
 20
812
 30
0
 11
77.5
 21
857.5
 31
0
 70
   32
 71
    5
  3
Standard
 53
0
210
0
220
0
230
1
100
AcDbAlignedDimension
 13
46
 23
903
 33
0
 14
46
 24
812
 34
0
 50
90
100
AcDbRotatedDimension
  0
DIMENSION
  5
3AF
100
AcDbEntity
  8
rozmir
  6
ByLayer
 62
  256
370
   -1
100
AcDbDimension
  2
*D43
 10
90
 20
704
 30
0
 11
77.5
 21
758
 31
0
 70
   32
 71
    5
  3
Standard
 53
0
210
0
220
0
230
1
100
AcDbAlignedDimension
 13
46
 23
812
 33
0
 14
46
 24
704
 34
0
 50
90
100
AcDbRotatedDimension
  0
DIMENSION
  5
3B0
100
AcDbEntity
  8
rozmir
  6
ByLayer
 62
  256
370
   -1
100
AcDbDimension
  2
*D44
 10
90
 20
587
 30
0
 11
77.5
 21
635.5
 31
0
 70
   32
 71
    5
  3
Standard
 53
0
210
0
220
0
230
1
100
AcDbAlignedDimension
 13
46
 23
684
 33
0
 14
46
 24
587
 34
0
 50
90
100
AcDbRotatedDimension
  0
DIMENSION
  5
3B1
100
AcDbEntity
  8
rozmir
  6
ByLayer
 62
  256
370
   -1
100
AcDbDimension
  2
*D45
 10
90
 20
331
 30
0
 11
77.5
 21
363.5
 31
0
 70
   32
 71
    5
  3
Standard
 53
0
210
0
220
0
230
1
100
AcDbAlignedDimension
 13
46
 23
396
 33
0
 14
46
 24
331
 34
0
 50
90
100
AcDbRotatedDimension
  0
DIMENSION
  5
3B2
100
AcDbEntity
  8
rozmir
  6
ByLayer
 62
  256
370
   -1
100
AcDbDimension
  2
*D46
 10
90
 20
266
 30
0
 11
77.5
 21
298.5
 31
0
 70
   32
 71
    5
  3
Standard
 53
0
210
0
220
0
230
1
100
AcDbAlignedDimension
 13
46
 23
331
 33
0
 14
46
 24
266
 34
0
 50
90
100
AcDbRotatedDimension
  0
DIMENSION
  5
3B3
100
AcDbEntity
  8
rozmir
  6
ByLayer
 62
  256
370
   -1
100
AcDbDimension
  2
*D47
 10
98
 20
220
 30
0
 11
72
 21
232.5
 31
0
 70
   32
 71
    5
  3
Standard
 53
0
210
0
220
0
230
1
100
AcDbAlignedDimension
 13
46
 23
254
 33
0
 14
98
 24
254
 34
0
100
AcDbRotatedDimension
  0
DIMENSION
  5
3B4
100
AcDbEntity
  8
rozmir
  6
ByLayer
 62
  256
370
   -1
100
AcDbDimension
  2
*D48
 10
47
 20
560
 30
0
 11
31
 21
572.5
 31
0
 70
   32
 71
    5
  3
Standard
 53
0
210
0
220
0
230
1
100
AcDbAlignedDimension
 13
16
 23
587
 33
0
 14
46
 24
587
 34
0
100
AcDbRotatedDimension
  0
DIMENSION
  5
3B5
100
AcDbEntity
  8
rozmir
  6
ByLayer
 62
  256
370
   -1
100
AcDbDimension
  2
*D49
 10
17
 20
560
 30
0
 11
4
 21
545
 31
0
 70
   32
 71
    5
  3
Standard
 53
0
210
0
220
0
230
1
100
AcDbAlignedDimension
 13
12
 23
585
 33
0
 14
16
 24
587
 34
0
100
AcDbRotatedDimension
  0
DIMENSION
  5
3B6
100
AcDbEntity
  8
rozmir
  6
ByLayer
 62
  256
370
   -1
100
AcDbDimension
  2
*D50
 10
435
 20
960
 30
0
 11
389.5
 21
972.5
 31
0
 70
   32
 71
    5
  3
Standard
 53
0
210
0
220
0
230
1
100
AcDbAlignedDimension
 13
344
 23
1006
 33
0
 14
435
 24
1006
 34
0
100
AcDbRotatedDimension
  0
DIMENSION
  5
3B7
100
AcDbEntity
  8
rozmir
  6
ByLayer
 62
  256
370
   -1
100
AcDbDimension
  2
*D51
 10
508
 20
960
 30
0
 11
471.5
 21
972.5
 31
0
 70
   32
 71
    5
  3
Standard
 53
0
210
0
220
0
230
1
100
AcDbAlignedDimension
 13
435
 23
1006
 33
0
 14
508
 24
1006
 34
0
100
AcDbRotatedDimension
  0
DIMENSION
  5
3B8
100
AcDbEntity
  8
rozmir
  6
ByLayer
 62
  256
370
   -1
100
AcDbDimension
  2
*D52
 10
460
 20
1005
 30
0
 11
447.5
 21
855
 31
0
 70
   32
 71
    5
  3
Standard
 53
0
210
0
220
0
230
1
100
AcDbAlignedDimension
 13
483
 23
704
 33
0
 14
508
 24
1006
 34
0
 50
90
100
AcDbRotatedDimension
  0
DIMENSION
  5
3B9
100
AcDbEntity
  8
rozmir
  6
ByLayer
 62
  256
370
   -1
100
AcDbDimension
  2
*D53
 10
344
 20
960
 30
0
 11
195
 21
972.5
 31
0
 70
   32
 71
    5
  3
Standard
 53
0
210
0
220
0
230
1
100
AcDbAlignedDimension
 13
46
 23
1006
 33
0
 14
344
 24
1006
 34
0
100
AcDbRotatedDimension
  0
DIMENSION
  5
3BA
100
AcDbEntity
  8
rozmir
  6
ByLayer
 62
  256
370
   -1
100
AcDbDimension
  2
*D54
 10
90
 20
903
 30
0
 11
77.5
 21
954.5
 31
0
 70
   32
 71
    5
  3
Standard
 53
0
210
0
220
0
230
1
100
AcDbAlignedDimension
 13
46
 23
1006
 33
0
 14
46
 24
903
 34
0
 50
90
100
AcDbRotatedDimension
  0
DIMENSION
  5
3BB
100
AcDbEntity
  8
rozmir
  6
ByLayer
 62
  256
370
   -1
100
AcDbDimension
  2
*D55
 10
240
 20
70
 30
0
 11
194.5
 21
82.5
 31
0
 70
   32
 71
    5
  3
Standard
 53
0
210
0
220
0
230
1
100
AcDbAlignedDimension
 13
149
 23
45.99999999999999
 33
0
 14
240
 24
45.99999999999999
 34
0
100
AcDbRotatedDimension
  0
DIMENSION
  5
3BC
100
AcDbEntity
  8
rozmir
  6
ByLayer
 62
  256
370
   -1
100
AcDbDimension
  2
*D56
 10
346
 20
70
 30
0
 11
293
 21
82.5
 31
0
 70
   32
 71
    5
  3
Standard
 53
0
210
0
220
0
230
1
100
AcDbAlignedDimension
 13
240
 23
45.99999999999999
 33
0
 14
346
 24
45.99999999999999
 34
0
100
AcDbRotatedDimension
  0
DIMENSION
  5
3BD
100
AcDbEntity
  8
rozmir
  6
ByLayer
 62
  256
370
   -1
100
AcDbDimension
  2
*D57
 10
396
 20
70
 30
0
 11
383.5
 21
82.5
 31
0
 70
   32
 71
    5
  3
Standard
 53
0
210
0
220
0
230
1
100
AcDbAlignedDimension
 13
371
 23
45.99999999999999
 33
0
 14
396
 24
45.99999999999999
 34
0
100
AcDbRotatedDimension
  0
DIMENSION
  5
3BE
100
AcDbEntity
  8
rozmir
  6
ByLayer
 62
  256
370
   -1
100
AcDbDimension
  2
*D58
 10
487
 20
70
 30
0
 11
441.5
 21
82.5
 31
0
 70
   32
 71
    5
  3
Standard
 53
0
210
0
220
0
230
1
100
AcDbAlignedDimension
 13
396
 23
45.99999999999999
 33
0
 14
487
 24
46
 34
0
100
AcDbRotatedDimension
  0
DIMENSION
  5
3BF
100
AcDbEntity
  8
rozmir
  6
ByLayer
 62
  256
370
   -1
100
AcDbDimension
  2
*D59
 10
508
 20
70
 30
0
 11
497.5
 21
82.5
 31
0
 70
   32
 71
    5
  3
Standard
 53
0
210
0
220
0
230
1
100
AcDbAlignedDimension
 13
487
 23
46
 33
0
 14
508
 24
46
 34
0
100
AcDbRotatedDimension
  0
DIMENSION
  5
3C0
100
AcDbEntity
  8
rozmir
  6
ByLayer
 62
  256
370
   -1
100
AcDbDimension
  2
*D60
 10
149
 20
70
 30
0
 11
97.5
 21
82.5
 31
0
 70
   32
 71
    5
  3
Standard
 53
0
210
0
220
0
230
1
100
AcDbAlignedDimension
 13
46
 23
45.99999999999999
 33
0
 14
149
 24
45.99999999999999
 34
0
100
AcDbRotatedDimension
  0
DIMENSION
  5
3C1
100
AcDbEntity
  8
rozmir
  6
ByLayer
 62
  256
370
   -1
100
AcDbDimension
  2
*D61
 10
90
 20
171
 30
0
 11
77.5
 21
150
 31
0
 70
   32
 71
    5
  3
Standard
 53
0
210
0
220
0
230
1
100
AcDbAlignedDimension
 13
46
 23
254
 33
0
 14
46
 24
46
 34
0
 50
90
100
AcDbRotatedDimension
  0
DIMENSION
  5
3C2
100
AcDbEntity
  8
rozmir
  6
ByLayer
 62
  256
370
   -1
100
AcDbDimension
  2
*D62
 10
669
 20
70
 30
0
 11
607.5
 21
82.5
 31
0
 70
   32
 71
    5
  3
Standard
 53
0
210
0
220
0
230
1
100
AcDbAlignedDimension
 13
546
 23
46
 33
0
 14
669
 24
46
 34
0
100
AcDbRotatedDimension
  0
DIMENSION
  5
3C3
100
AcDbEntity
  8
rozmir
  6
ByLayer
 62
  256
370
   -1
100
AcDbDimension
  2
*D63
 10
825
 20
70
 30
0
 11
747
 21
82.5
 31
0
 70
   32
 71
    5
  3
Standard
 53
0
210
0
220
0
230
1
100
AcDbAlignedDimension
 13
669
 23
46
 33
0
 14
825
 24
46
 34
0
100
AcDbRotatedDimension
  0
DIMENSION
  5
3C4
100
AcDbEntity
  8
rozmir
  6
ByLayer
 62
  256
370
   -1
100
AcDbDimension
  2
*D64
 10
954
 20
70
 30
0
 11
889.5
 21
82.5
 31
0
 70
   32
 71
    5
  3
Standard
 53
0
210
0
220
0
230
1
100
AcDbAlignedDimension
 13
825
 23
46
 33
0
 14
954
 24
46
 34
0
100
AcDbRotatedDimension
  0
DIMENSION
  5
3C5
100
AcDbEntity
  8
rozmir
  6
ByLayer
 62
  256
370
   -1
100
AcDbDimension
  2
*D65
 10
954
 20
960
 30
0
 11
750
 21
972.5
 31
0
 70
   32
 71
    5
  3
Standard
 53
0
210
0
220
0
230
1
100
AcDbAlignedDimension
 13
546
 23
1006
 33
0
 14
954
 24
1006
 34
0
100
AcDbRotatedDimension
  0
DIMENSION
  5
3C6
100
AcDbEntity
  8
rozmir
  6
ByLayer
 62
  256
370
   -1
100
AcDbDimension
  2
*D66
 10
580
 20
579
 30
0
 11
567.5
 21
557.5
 31
0
 70
   32
 71
    5
  3
Standard
 53
0
210
0
220
0
230
1
100
AcDbAlignedDimension
 13
546
 23
536
 33
0
 14
546
 24
579
 34
0
 50
90
100
AcDbRotatedDimension
  0
DIMENSION
  5
3C7
100
AcDbEntity
  8
rozmir
  6
ByLayer
 62
  256
370
   -1
100
AcDbDimension
  2
*D67
 10
580
 20
671
 30
0
 11
567.5
 21
625
 31
0
 70
   32
 71
    5
  3
Standard
 53
0
210
0
220
0
230
1
100
AcDbAlignedDimension
 13
546
 23
579
 33
0
 14
546
 24
671
 34
0
 50
90
100
AcDbRotatedDimension
  0
DIMENSION
  5
3C8
100
AcDbEntity
  8
rozmir
  6
ByLayer
 62
  256
370
   -1
100
AcDbDimension
  2
*D68
 10
580
 20
1006
 30
0
 11
567.5
 21
838.5
 31
0
 70
   32
 71
    5
  3
Standard
 53
0
210
0
220
0
230
1
100
AcDbAlignedDimension
 13
546
 23
671
 33
0
 14
546
 24
1006
 34
0
 50
90
100
AcDbRotatedDimension
  0
DIMENSION
  5
3C9
100
AcDbEntity
  8
rozmir
  6
ByLayer
 62
  256
370
   -1
100
AcDbDimension
  2
*D69
 10
580
 20
384
 30
0
 11
567.5
 21
214.5
 31
0
 70
   32
 71
    5
  3
Standard
 53
0
210
0
220
0
230
1
100
AcDbAlignedDimension
 13
546
 23
46
 33
0
 14
546
 24
383
 34
0
 50
90
100
AcDbRotatedDimension
  0
DIMENSION
  5
3CA
100
AcDbEntity
  8
rozmir
  6
ByLayer
 62
  256
370
   -1
100
AcDbDimension
  2
*D70
 10
580
 20
516
 30
0
 11
567.5
 21
495.5
 31
0
 70
   32
 71
    5
  3
Standard
 53
0
210
0
220
0
230
1
100
AcDbAlignedDimension
 13
546
 23
475
 33
0
 14
546
 24
516
 34
0
 50
90
100
AcDbRotatedDimension
  0
DIMENSION
  5
3CB
100
AcDbEntity
  8
rozmir
  6
ByLayer
 62
  256
370
   -1
100
AcDbDimension
  2
*D71
 10
580
 20
474
 30
0
 11
567.5
 21
429
 31
0
 70
   32
 71
    5
  3
Standard
 53
0
210
0
220
0
230
1
100
AcDbAlignedDimension
 13
546
 23
383
 33
0
 14
546
 24
475
 34
0
 50
90
100
AcDbRotatedDimension
  0
DIMENSION
  5
3CC
100
AcDbEntity
  8
rozmir
  6
ByLayer
 62
  256
370
   -1
100
AcDbDimension
  2
*D72
 10
930
 20
929
 30
0
 11
917.5
 21
967.5
 31
0
 70
   32
 71
    5
  3
Standard
 53
0
210
0
220
0
230
1
100
AcDbAlignedDimension
 13
954
 23
1006
 33
0
 14
953.9999999999991
 24
929
 34
0
 50
90
100
AcDbRotatedDimension
  0
DIMENSION
  5
3CD
100
AcDbEntity
  8
rozmir
  6
ByLayer
 62
  256
370
   -1
100
AcDbDimension
  2
*D73
 10
930
 20
838
 30
0
 11
917.5
 21
883.5
 31
0
 70
   32
 71
    5
  3
Standard
 53
0
210
0
220
0
230
1
100
AcDbAlignedDimension
 13
953.9999999999991
 23
929
 33
0
 14
954
 24
838
 34
0
 50
90
100
AcDbRotatedDimension
  0
DIMENSION
  5
3CE
100
AcDbEntity
  8
rozmir
  6
ByLayer
 62
  256
370
   -1
100
AcDbDimension
  2
*D74
 10
930
 20
682
 30
0
 11
917.5
 21
760
 31
0
 70
   32
 71
    5
  3
Standard
 53
0
210
0
220
0
230
1
100
AcDbAlignedDimension
 13
954
 23
838
 33
0
 14
954
 24
682
 34
0
 50
90
100
AcDbRotatedDimension
  0
DIMENSION
  5
3CF
100
AcDbEntity
  8
rozmir
  6
ByLayer
 62
  256
370
   -1
100
AcDbDimension
  2
*D75
 10
930
 20
591
 30
0
 11
917.5
 21
636.5
 31
0
 70
   32
 71
    5
  3
Standard
 53
0
210
0
220
0
230
1
100
AcDbAlignedDimension
 13
954
 23
682
 33
0
 14
954
 24
591
 34
0
 50
90
100
AcDbRotatedDimension
  0
DIMENSION
  5
3D0
100
AcDbEntity
  8
rozmir
  6
ByLayer
 62
  256
370
   -1
100
AcDbDimension
  2
*D76
 10
930
 20
536
 30
0
 11
917.5
 21
563.5
 31
0
 70
   32
 71
    5
  3
Standard
 53
0
210
0
220
0
230
1
100
AcDbAlignedDimension
 13
954
 23
591
 33
0
 14
954
 24
536
 34
0
 50
90
100
AcDbRotatedDimension
  0
DIMENSION
  5
3D1
100
AcDbEntity
  8
rozmir
  6
ByLayer
 62
  256
370
   -1
100
AcDbDimension
  2
*D77
 10
930
 20
435
 30
0
 11
917.5
 21
475.5
 31
0
 70
   32
 71
    5
  3
Standard
 53
0
210
0
220
0
230
1
100
AcDbAlignedDimension
 13
954
 23
516
 33
0
 14
954
 24
435
 34
0
 50
90
100
AcDbRotatedDimension
  0
DIMENSION
  5
3D2
100
AcDbEntity
  8
rozmir
  6
ByLayer
 62
  256
370
   -1
100
AcDbDimension
  2
*D78
 10
930
 20
344
 30
0
 11
917.5
 21
389.5
 31
0
 70
   32
 71
    5
  3
Standard
 53
0
210
0
220
0
230
1
100
AcDbAlignedDimension
 13
954
 23
435
 33
0
 14
954
 24
344
 34
0
 50
90
100
AcDbRotatedDimension
  0
DIMENSION
  5
3D3
100
AcDbEntity
  8
rozmir
  6
ByLayer
 62
  256
370
   -1
100
AcDbDimension
  2
*D79
 10
930
 20
46
 30
0
 11
917.5
 21
195
 31
0
 70
   32
 71
    5
  3
Standard
 53
0
210
0
220
0
230
1
100
AcDbAlignedDimension
 13
954
 23
344
 33
0
 14
954
 24
46
 34
0
 50
90
100
AcDbRotatedDimension
  0
DIMENSION
  5
3D4
100
AcDbEntity
  8
rozmir
  6
ByLayer
 62
  256
370
   -1
100
AcDbDimension
  2
*D80
 10
810
 20
536
 30
0
 11
797
 21
554
 31
0
 70
   32
 71
    5
  3
Standard
 53
0
210
0
220
0
230
1
100
AcDbAlignedDimension
 13
800
 23
516
 33
0
 14
800
 24
536
 34
0
 50
90
100
AcDbRotatedDimension
  0
LWPOLYLINE
  5
3D5
100
AcDbEntity
  8
cegla
  6
DASHED2
 62
  256
370
   -1
100
AcDbPolyline
 90
    4
 70
    1
 43
0
 10
46
 20
472
 10
346
 20
472
 10
346
 20
484
 10
46
 20
484
  0
DIMENSION
  5
3D6
100
AcDbEntity
  8
rozmir
  6
ByLayer
 62
  256
370
   -1
100
AcDbDimension
  2
*D81
 10
90
 20
396
 30
0
 11
77.5
 21
434
 31
0
 70
   32
 71
    5
  3
Standard
 53
0
210
0
220
0
230
1
100
AcDbAlignedDimension
 13
46
 23
472
 33
0
 14
46
 24
396
 34
0
 50
90
100
AcDbRotatedDimension
  0
DIMENSION
  5
3D7
100
AcDbEntity
  8
rozmir
  6
ByLayer
 62
  256
370
   -1
100
AcDbDimension
  2
*D82
 10
90
 20
491
 30
0
 11
77.5
 21
535.5
 31
0
 70
   32
 71
    5
  3
Standard
 53
0
210
0
220
0
230
1
100
AcDbAlignedDimension
 13
46
 23
587
 33
0
 14
46
 24
484
 34
0
 50
90
100
AcDbRotatedDimension
  0
DIMENSION
  5
3D8
100
AcDbEntity
  8
rozmir
  6
ByLayer
 62
  256
370
   -1
100
AcDbDimension
  2
*D83
 10
310
 20
482
 30
0
 11
297.5
 21
478
 31
0
 70
   32
 71
    5
  3
Standard
 53
0
210
0
220
0
230
1
100
AcDbAlignedDimension
 13
300
 23
472
 33
0
 14
300
 24
484
 34
0
 50
90
100
AcDbRotatedDimension
  0
DIMENSION
  5
3D9
100
AcDbEntity
  8
rozmir
  6
ByLayer
 62
  256
370
   -1
100
AcDbDimension
  2
*D84
 10
400
 20
482
 30
0
 11
387.5
 21
465
 31
0
 70
   32
 71
    5
  3
Standard
 53
0
210
0
220
0
230
1
100
AcDbAlignedDimension
 13
371
 23
446
 33
0
 14
371
 24
484
 34
0
 50
90
100
AcDbRotatedDimension
  0
DIMENSION
  5
3DA
100
AcDbEntity
  8
rozmir
  6
ByLayer
 62
  256
370
   -1
100
AcDbDimension
  2
*D85
 10
400
 20
446
 30
0
 11
387.5
 21
411
 31
0
 70
   32
 71
    5
 72
    0
  3
Standard
 53
0
210
0
220
0
230
1
100
AcDbAlignedDimension
 13
371
 23
376
 33
0
 14
371
 24
446
 34
0
 50
90
100
AcDbRotatedDimension
  0
DIMENSION
  5
3DB
100
AcDbEntity
  8
rozmir
  6
ByLayer
 62
  256
370
   -1
100
AcDbDimension
  2
*D86
 10
400
 20
142
 30
0
 11
387.5
 21
259
 31
0
 70
   32
 71
    5
 72
    0
  3
Standard
 53
0
210
0
220
0
230
1
100
AcDbAlignedDimension
 13
371
 23
376
 33
0
 14
371
 24
142
 34
0
 50
90
100
AcDbRotatedDimension
  0
DIMENSION
  5
3DC
100
AcDbEntity
  8
rozmir
  6
ByLayer
 62
  256
370
   -1
100
AcDbDimension
  2
*D87
 10
320
 20
142
 30
0
 11
307.5
 21
107
 31
0
 70
   32
 71
    5
 72
    0
  3
Standard
 53
0
210
0
220
0
230
1
100
AcDbAlignedDimension
 13
346
 23
72
 33
0
 14
346
 24
142
 34
0
 50
90
100
AcDbRotatedDimension
  0
DIMENSION
  5
3DD
100
AcDbEntity
  8
rozmir
  6
ByLayer
 62
  256
370
   -1
100
AcDbDimension
  2
*D88
 10
320
 20
151
 30
0
 11
307.5
 21
198
 31
0
 70
   32
 71
    5
  3
Standard
 53
0
210
0
220
0
230
1
100
AcDbAlignedDimension
 13
346
 23
254
 33
0
 14
346
 24
142
 34
0
 50
90
100
AcDbRotatedDimension
  0
DIMENSION
  5
3DE
100
AcDbEntity
  8
rozmir
  6
ByLayer
 62
  256
370
   -1
100
AcDbDimension
  2
*D89
 10
320
 20
266
 30
0
 11
307.5
 21
321
 31
0
 70
   32
 71
    5
  3
Standard
 53
0
210
0
220
0
230
1
100
AcDbAlignedDimension
 13
346
 23
376
 33
0
 14
346
 24
266
 34
0
 50
90
100
AcDbRotatedDimension
  0
MTEXT
  5
3DF
100
AcDbEntity
  8
tekst
  6
ByLayer
 62
  256
370
   -1
100
AcDbMText
 10
530
 20
1300
 30
0
 40
50
 41
906.9444444444515
 71
    5
 72
    1
  1
   2
  7
cyrillic_ii
210
0
220
0
230
1
 50
0
 73
    2
 44
1
  0
LINE
  5
3E0
100
AcDbEntity
  8
tekst
  6
ByLayer
 62
  256
370
   -1
100
AcDbLine
 10
70
 20
1260
 11
990
 21
1260
  0
MTEXT
  5
3E1
100
AcDbEntity
  8
plyty
  6
ByLayer
 62
  256
370
   -1
100
AcDbMText
 10
270
 20
1100
 30
0
 40
30
 41
222.5000000000038
 71
    8
 72
    1
  1
 50-15-8
  7
cyrillic_ii
210
0
220
0
230
1
 50
0
 73
    2
 44
1
  0
MTEXT
  5
3E2
100
AcDbEntity
  8
plyty
  6
ByLayer
 62
  256
370
   -1
100
AcDbMText
 10
750
 20
1100
 30
0
 40
30
 41
229.1666666666686
 71
    8
 72
    1
  1
 44-15-8
  7
cyrillic_ii
210
0
220
0
230
1
 50
0
 73
    2
 44
1
  0
MTEXT
  5
3E3
100
AcDbEntity
  8
plyty
  6
ByLayer
 62
  256
370
   -1
100
AcDbMText
 10
200
 20
-60
 30
0
 40
30
 41
222.5000000000056
 71
    8
 72
    1
  1
 33-15-8 
  7
cyrillic_ii
210
0
220
0
230
1
 50
0
 73
    2
 44
1
  0
LWPOLYLINE
  5
3E4
100
AcDbEntity
  8
lyce
  6
ByLayer
 62
  256
370
   -1
100
AcDbPolyline
 90
    4
 70
    1
 43
0
 10
0
 20
1052
 10
1000
 20
1052
 10
1000
 20
0
 10
0
 20
0
  0
LWPOLYLINE
  5
3E5
100
AcDbEntity
  8
lyce
  6
ByLayer
 62
  256
370
   -1
100
AcDbPolyline
 90
    4
 70
    1
 43
0
 10
988
 20
12
 10
12
 20
12
 10
12
 20
1040
 10
988
 20
1040
  0
LWPOLYLINE
  5
3E6
100
AcDbEntity
  8
gazoblok
  6
DASHED2
 62
  256
370
   -1
100
AcDbPolyline
 90
    5
 70
    1
 43
0
 10
546
 20
516
 10
954
 20
516
 10
954
 20
536
 10
546
 20
536
 10
546
 20
536
  0
LWPOLYLINE
  5
3E7
100
AcDbEntity
  8
gazoblok
  6
DASHED2
 62
  256
370
   -1
100
AcDbPolyline
 90
    4
 70
    1
 43
0
 10
16
 20
1036
 10
984
 20
1036
 10
984
 20
16
 10
16
 20
16
  0
LWPOLYLINE
  5
3E8
100
AcDbEntity
  8
gazoblok
  6
DASHED2
 62
  256
370
   -1
100
AcDbPolyline
 90
    4
 70
    1
 43
0
 10
954
 20
46
 10
46
 20
46
 10
46
 20
1006
 10
954
 20
1006
  0
LWPOLYLINE
  5
3E9
100
AcDbEntity
  8
armopojas
  6
DASHED2
 62
  216
420
8388736
370
   25
100
AcDbPolyline
 90
    5
 70
    0
 43
0
 10
980
 20
20
 10
21
 20
21
 10
21
 20
1031
 10
979
 20
1031
 10
980
 20
20
  0
LWPOLYLINE
  5
3EA
100
AcDbEntity
  8
armopojas
  6
DASHED2
 62
  256
370
   -1
100
AcDbPolyline
 90
    5
 70
    1
 43
0
 10
520
 20
528
 10
534
 20
528
 10
534
 20
501
 10
520
 20
501
 10
520
 20
501
  0
LWPOLYLINE
  5
3EB
100
AcDbEntity
  8
armopojas
  6
DASHED2
 62
  216
420
8388736
370
   25
100
AcDbPolyline
 90
    5
 70
    0
 43
0
 10
960
 20
41
 10
546
 20
41
 10
546
 20
1011
 10
959
 20
1011
 10
960
 20
41
  0
LWPOLYLINE
  5
3EC
100
AcDbEntity
  8
armopojas
  6
DASHED2
 62
  256
370
   -1
100
AcDbPolyline
 90
    5
 70
    1
 43
0
 10
41
 20
1011
 10
508
 20
1011
 10
508
 20
41
 10
41
 20
41
 10
41
 20
41
  0
LWPOLYLINE
  5
3ED
100
AcDbEntity
  8
cegla
  6
DASHED2
 62
  256
370
   -1
100
AcDbPolyline
 90
    4
 70
    1
 43
0
 10
346
 20
484
 10
371
 20
484
 10
371
 20
46
 10
346
 20
46
  0
MTEXT
  5
3EE
100
AcDbEntity
  8
tekst
  6
ByLayer
 62
  256
370
   -1
100
AcDbMText
 10
1000
 20
-200
 30
0
 40
50
 41
204.166666666669
 71
    6
 72
    1
  1
. 9
  7
cyrillic_ii
210
0
220
0
230
1
 50
0
 73
    2
 44
1
  0
LWPOLYLINE
  5
3EF
100
AcDbEntity
  8
plyty
  6
DASHED2
 62
  256
370
   -1
100
AcDbPolyline
 90
    6
 70
    1
 43
0
 10
30
 20
857
 10
528
 20
857
 10
528
 20
1006
 10
30
 20
1006
 10
30
 20
1006
 10
30
 20
1006
  0
LWPOLYLINE
  5
3F0
100
AcDbEntity
  8
plyty
  6
DASHED2
 62
  256
370
   -1
100
AcDbPolyline
 90
    6
 70
    1
 43
0
 10
30
 20
707
 10
528
 20
707
 10
528
 20
856
 10
30
 20
856
 10
30
 20
856
 10
30
 20
856
  0
LWPOLYLINE
  5
3F1
100
AcDbEntity
  8
plyty
  6
DASHED2
 62
  256
370
   -1
100
AcDbPolyline
 90
    6
 70
    1
 43
0
 10
531
 20
706.9999600000001
 10
969
 20
706.9999600000001
 10
969
 20
855.9999600000001
 10
531
 20
855.9999600000001
 10
531
 20
855.9999600000001
 10
531
 20
855.9999600000001
  0
LWPOLYLINE
  5
3F2
100
AcDbEntity
  8
plyty
  6
DASHED2
 62
  256
370
   -1
100
AcDbPolyline
 90
    6
 70
    1
 43
0
 10
531
 20
857
 10
969
 20
857
 10
969
 20
1006
 10
531
 20
1006
 10
531
 20
1006
 10
531
 20
1006
  0
LWPOLYLINE
  5
3F3
100
AcDbEntity
  8
plyty
  6
DASHED2
 62
  256
370
   -1
100
AcDbPolyline
 90
    6
 70
    1
 43
0
 10
531
 20
557
 10
969
 20
557
 10
969
 20
706
 10
531
 20
706
 10
531
 20
706
 10
531
 20
706
  0
LWPOLYLINE
  5
3F4
100
AcDbEntity
  8
plyty
  6
DASHED2
 62
  256
370
   -1
100
AcDbPolyline
 90
    6
 70
    1
 43
0
 10
30
 20
557
 10
528
 20
557
 10
528
 20
706
 10
30
 20
706
 10
30
 20
706
 10
30
 20
706
  0
LWPOLYLINE
  5
3F5
100
AcDbEntity
  8
concrete
  6
DASHED2
 62
  256
370
   -1
100
AcDbPolyline
 90
    4
 70
    1
 43
0
 10
534
 20
496
 10
969
 20
496
 10
969
 20
556
 10
534
 20
556
  0
LWPOLYLINE
  5
3F6
100
AcDbEntity
  8
concrete
  6
DASHED2
 62
  256
370
   -1
100
AcDbPolyline
 90
    4
 70
    1
 43
0
 10
30
 20
496
 10
520
 20
496
 10
520
 20
556
 10
30
 20
556
  0
LWPOLYLINE
  5
3F7
100
AcDbEntity
  8
plyty
  6
DASHED2
 62
  256
370
   -1
100
AcDbPolyline
 90
    6
 70
    1
 43
0
 10
30
 20
46
 10
528
 20
46
 10
528
 20
195
 10
30
 20
195
 10
30
 20
195
 10
30
 20
195
  0
LWPOLYLINE
  5
3F8
100
AcDbEntity
  8
plyty
  6
DASHED2
 62
  256
370
   -1
100
AcDbPolyline
 90
    6
 70
    1
 43
0
 10
531
 20
46
 10
969
 20
46
 10
969
 20
195
 10
531
 20
195
 10
531
 20
195
 10
531
 20
195
  0
LWPOLYLINE
  5
3F9
100
AcDbEntity
  8
plyty
  6
DASHED2
 62
  256
370
   -1
100
AcDbPolyline
 90
    6
 70
    1
 43
0
 10
30
 20
346
 10
528
 20
346
 10
528
 20
495
 10
30
 20
495
 10
30
 20
495
 10
30
 20
495
  0
LWPOLYLINE
  5
3FA
100
AcDbEntity
  8
plyty
  6
DASHED2
 62
  256
370
   -1
100
AcDbPolyline
 90
    6
 70
    1
 43
0
 10
531
 20
196
 10
969
 20
196
 10
969
 20
345
 10
531
 20
345
 10
531
 20
345
 10
531
 20
345
  0
LWPOLYLINE
  5
3FB
100
AcDbEntity
  8
plyty
  6
DASHED2
 62
  256
370
   -1
100
AcDbPolyline
 90
    6
 70
    1
 43
0
 10
531
 20
346
 10
969
 20
346
 10
969
 20
495
 10
531
 20
495
 10
531
 20
495
 10
531
 20
495
  0
LWPOLYLINE
  5
3FC
100
AcDbEntity
  8
plyty
  6
DASHED2
 62
  256
370
   -1
100
AcDbPolyline
 90
    5
 70
    1
 43
0
 10
30
 20
196
 10
358
 20
196
 10
358
 20
345
 10
30
 20
345
 10
30
 20
345
  0
ENDSEC
  0
SECTION
  2
OBJECTS
  0
DICTIONARY
  5
C
330
0
100
AcDbDictionary
281
    1
  3
ACAD_GROUP
350
D
  0
DICTIONARY
  5
D
330
C
100
AcDbDictionary
281
    1
  0
ENDSEC
  0
EOF
