999
dxfrw 0.6.3
  0
SECTION
  2
HEADER
  9
$ACADVER
  1
AC1021
  9
$DWGCODEPAGE
  3
ANSI_1252
  9
$INSBASE
 10
0
 20
0
 30
0
  9
$EXTMIN
 10
-16
 20
-341.6666666666667
 30
0
  9
$EXTMAX
 10
2500
 20
1325
 30
0
  9
$LIMMIN
 10
0
 20
0
  9
$LIMMAX
 10
420
 20
297
  9
$ORTHOMODE
 70
    0
  9
$REGENMODE
 70
    1
  9
$FILLMODE
 70
    1
  9
$QTEXTMODE
 70
    0
  9
$MIRRTEXT
 70
    0
  9
$LTSCALE
 40
1
  9
$ATTMODE
 70
    0
  9
$TEXTSIZE
 40
2.5
  9
$TRACEWID
 40
15.68
  9
$TEXTSTYLE
  7
STANDARD
  9
$CLAYER
  8
0
  9
$CELTYPE
  6
BYLAYER
  9
$CECOLOR
 62
  256
  9
$CELTSCALE
 40
1
  9
$DISPSILH
 70
    0
  9
$DIMSCALE
 40
10
  9
$DIMASZ
 40
2
  9
$DIMEXO
 40
1
  9
$DIMDLI
 40
3.75
  9
$DIMRND
 40
0
  9
$DIMDLE
 40
0
  9
$DIMEXE
 40
2
  9
$DIMTP
 40
0
  9
$DIMTM
 40
0
  9
$DIMTXT
 40
4
  9
$DIMCEN
 40
2.5
  9
$DIMTSZ
 40
2
  9
$DIMTOL
 70
    0
  9
$DIMLIM
 70
    0
  9
$DIMTIH
 70
    0
  9
$DIMTOH
 70
    0
  9
$DIMSE1
 70
    0
  9
$DIMSE2
 70
    0
  9
$DIMTAD
 70
    1
  9
$DIMZIN
 70
    8
  9
$DIMBLK
  1

  9
$DIMASO
 70
    1
  9
$DIMSHO
 70
    1
  9
$DIMPOST
  1

  9
$DIMAPOST
  1

  9
$DIMALT
 70
    0
  9
$DIMALTD
 70
    3
  9
$DIMALTF
 40
0.03937
  9
$DIMLFAC
 40
1
  9
$DIMTOFL
 70
    1
  9
$DIMTVP
 40
0
  9
$DIMTIX
 70
    0
  9
$DIMSOXD
 70
    0
  9
$DIMSAH
 70
    0
  9
$DIMBLK1
  1

  9
$DIMBLK2
  1

  9
$DIMSTYLE
  2
STANDARD
  9
$DIMCLRD
 70
    0
  9
$DIMCLRE
 70
    0
  9
$DIMCLRT
 70
    0
  9
$DIMTFAC
 40
1
  9
$DIMGAP
 40
2
  9
$DIMJUST
 70
    0
  9
$DIMSD1
 70
    0
  9
$DIMSD2
 70
    0
  9
$DIMTOLJ
 70
    0
  9
$DIMTZIN
 70
    8
  9
$DIMALTZ
 70
    0
  9
$DIMALTTZ
 70
    0
  9
$DIMUPT
 70
    0
  9
$DIMDEC
 70
    1
  9
$DIMTDEC
 70
    2
  9
$DIMALTU
 70
    2
  9
$DIMALTTD
 70
    3
  9
$DIMTXSTY
  7
standard
  9
$DIMAUNIT
 70
    0
  9
$DIMADEC
 70
    0
  9
$DIMALTRND
 40
0
  9
$DIMAZIN
 70
    0
  9
$DIMDSEP
 70
   44
  9
$DIMATFIT
 70
    3
  9
$DIMFRAC
 70
    0
  9
$DIMLDRBLK
  1
STANDARD
  9
$DIMLUNIT
 70
    2
  9
$DIMLWD
 70
   -2
  9
$DIMLWE
 70
   -2
  9
$DIMTMOVE
 70
    0
  9
$DIMFXL
 40
1
  9
$DIMFXLON
 70
    0
  9
$DIMJOGANG
 40
0.7854
  9
$DIMTFILL
 70
    0
  9
$DIMTFILLCLR
 70
    0
  9
$DIMARCSYM
 70
    0
  9
$DIMLTYPE
  6

  9
$DIMLTEX1
  6

  9
$DIMLTEX2
  6

  9
$LUNITS
 70
    2
  9
$LUPREC
 70
    2
  9
$SKETCHINC
 40
1
  9
$FILLETRAD
 40
0
  9
$AUNITS
 70
    0
  9
$AUPREC
 70
    2
  9
$MENU
  1
.
  9
$ELEVATION
 40
0
  9
$PELEVATION
 40
0
  9
$THICKNESS
 40
0
  9
$LIMCHECK
 70
    0
  9
$CHAMFERA
 40
0
  9
$CHAMFERB
 40
0
  9
$CHAMFERC
 40
0
  9
$CHAMFERD
 40
0
  9
$SKPOLY
 70
    0
  9
$USRTIMER
 70
    1
  9
$ANGBASE
 50
0
  9
$ANGDIR
 70
    0
  9
$PDMODE
 70
   34
  9
$PDSIZE
 40
0
  9
$PLINEWID
 40
0
  9
$SPLFRAME
 70
    0
  9
$SPLINETYPE
 70
    2
  9
$SPLINESEGS
 70
    8
  9
$HANDSEED
  5
20000
  9
$SURFTAB1
 70
    6
  9
$SURFTAB2
 70
    6
  9
$SURFTYPE
 70
    6
  9
$SURFU
 70
    6
  9
$SURFV
 70
    6
  9
$UCSBASE
  2

  9
$UCSNAME
  2

  9
$UCSORG
 10
0
 20
0
 30
0
  9
$UCSXDIR
 10
1
 20
0
 30
0
  9
$UCSYDIR
 10
0
 20
1
 30
0
  9
$UCSORTHOREF
  2

  9
$UCSORTHOVIEW
 70
    0
  9
$UCSORGTOP
 10
0
 20
0
 30
0
  9
$UCSORGBOTTOM
 10
0
 20
0
 30
0
  9
$UCSORGLEFT
 10
0
 20
0
 30
0
  9
$UCSORGRIGHT
 10
0
 20
0
 30
0
  9
$UCSORGFRONT
 10
0
 20
0
 30
0
  9
$UCSORGBACK
 10
0
 20
0
 30
0
  9
$PUCSBASE
  2

  9
$PUCSNAME
  2

  9
$PUCSORG
 10
0
 20
0
 30
0
  9
$PUCSXDIR
 10
1
 20
0
 30
0
  9
$PUCSYDIR
 10
0
 20
1
 30
0
  9
$PUCSORTHOREF
  2

  9
$PUCSORTHOVIEW
 70
    0
  9
$PUCSORGTOP
 10
0
 20
0
 30
0
  9
$PUCSORGBOTTOM
 10
0
 20
0
 30
0
  9
$PUCSORGLEFT
 10
0
 20
0
 30
0
  9
$PUCSORGRIGHT
 10
0
 20
0
 30
0
  9
$PUCSORGFRONT
 10
0
 20
0
 30
0
  9
$PUCSORGBACK
 10
0
 20
0
 30
0
  9
$USERI1
 70
    0
  9
$USERI2
 70
    0
  9
$USERI3
 70
    0
  9
$USERI4
 70
    0
  9
$USERI5
 70
    0
  9
$USERR1
 40
0
  9
$USERR2
 40
0
  9
$USERR3
 40
0
  9
$USERR4
 40
0
  9
$USERR5
 40
0
  9
$WORLDVIEW
 70
    1
  9
$SHADEDGE
 70
    3
  9
$SHADEDIF
 70
   70
  9
$TILEMODE
 70
    1
  9
$MAXACTVP
 70
   64
  9
$PINSBASE
 10
11.60768786127168
 20
14.08236994219653
 30
0
  9
$PLIMCHECK
 70
    0
  9
$PEXTMIN
 10
0
 20
0
 30
0
  9
$PEXTMAX
 10
0
 20
0
 30
0
  9
$GRIDMODE
 70
    1
  9
$SNAPSTYLE
 70
    0
  9
$GRIDUNIT
 10
0
 20
0
  9
$PLIMMIN
 10
0
 20
0
  9
$PLIMMAX
 10
29.7
 20
21
  9
$UNITMODE
 70
    0
  9
$VISRETAIN
 70
    1
  9
$PLINEGEN
 70
    0
  9
$PSLTSCALE
 70
    1
  9
$TREEDEPTH
 70
 3020
  9
$CMLSTYLE
  2
Standard
  9
$CMLJUST
 70
    0
  9
$CMLSCALE
 40
20
  9
$PROXYGRAPHICS
 70
    1
  9
$MEASUREMENT
 70
    1
  9
$CELWEIGHT
370
   -1
  9
$ENDCAPS
280
    0
  9
$JOINSTYLE
280
    0
  9
$LWDISPLAY
290
    0
  9
$INSUNITS
 70
    5
  9
$HYPERLINKBASE
  1

  9
$STYLESHEET
  1

  9
$XEDIT
290
    1
  9
$CEPSNTYPE
380
    0
  9
$PSTYLEMODE
290
    1
  9
$EXTNAMES
290
    1
  9
$PSVPSCALE
 40
0.004277452691373233
  9
$OLESTARTUP
290
    0
  9
$SORTENTS
280
  127
  9
$INDEXCTL
280
    0
  9
$HIDETEXT
280
    1
  9
$XCLIPFRAME
290
    0
  9
$HALOGAP
280
    0
  9
$OBSCOLOR
 70
  257
  9
$OBSLTYPE
280
    0
  9
$INTERSECTIONDISPLAY
280
    0
  9
$INTERSECTIONCOLOR
 70
  257
  9
$DIMASSOC
280
    1
  9
$PROJECTNAME
  1

  9
$CAMERADISPLAY
290
    0
  9
$LENSLENGTH
 40
50
  9
$CAMERAHEIGHT
 40
0
  9
$STEPSPERSEC
 40
2
  9
$STEPSIZE
 40
50
  9
$3DDWFPREC
 40
2
  9
$PSOLWIDTH
 40
5
  9
$PSOLHEIGHT
 40
80
  9
$LOFTANG1
 40
1.570796326794897
  9
$LOFTANG2
 40
1.570796326794897
  9
$LOFTMAG1
 40
0
  9
$LOFTMAG2
 40
0
  9
$LOFTPARAM
 70
    7
  9
$LOFTNORMALS
280
    1
  9
$LATITUDE
 40
1
  9
$LONGITUDE
 40
1
  9
$NORTHDIRECTION
 40
0
  9
$TIMEZONE
 70
-8000
  9
$LIGHTGLYPHDISPLAY
280
    1
  9
$TILEMODELIGHTSYNCH
280
    1
  9
$SOLIDHIST
280
    1
  9
$SHOWHIST
280
    1
  9
$DWFFRAME
280
    2
  9
$DGNFRAME
280
    0
  9
$REALWORLDSCALE
290
    1
  9
$INTERFERECOLOR
 62
    1
  9
$CSHADOW
280
    0
  9
$SHADOWPLANELOCATION
 40
0
  0
ENDSEC
  0
SECTION
  2
CLASSES
  0
ENDSEC
  0
SECTION
  2
TABLES
  0
TABLE
  2
VPORT
  5
8
330
0
100
AcDbSymbolTable
 70
    1
  0
VPORT
  5
31
330
2
100
AcDbSymbolTableRecord
100
AcDbViewportTableRecord
  2
*ACTIVE
 70
    0
 10
0
 20
0
 11
1
 21
1
 12
1472.760849492151
 22
674.0535549399816
 13
0
 23
0
 14
10
 24
10
 15
10
 25
10
 16
0
 26
0
 36
1
 17
0
 27
0
 37
0
 40
1712.834718374885
 41
1.987870619946092
 42
50
 43
0
 44
0
 50
0
 51
0
 71
    0
 72
  100
 73
    1
 74
    3
 75
    0
 76
    1
 77
    0
 78
    0
281
    0
 65
    1
110
0
120
0
130
0
111
1
121
0
131
0
112
0
122
1
132
0
 79
    0
146
0
348
10020
 60
    7
 61
    5
292
1
282
    1
141
0
142
0
 63
  250
421
3358443
  0
ENDTAB
  0
TABLE
  2
LTYPE
  5
5
330
0
100
AcDbSymbolTable
 70
    4
  0
LTYPE
  5
14
330
5
100
AcDbSymbolTableRecord
100
AcDbLinetypeTableRecord
  2
ByBlock
 70
    0
  3

 72
   65
 73
    0
 40
0
  0
LTYPE
  5
15
330
5
100
AcDbSymbolTableRecord
100
AcDbLinetypeTableRecord
  2
ByLayer
 70
    0
  3

 72
   65
 73
    0
 40
0
  0
LTYPE
  5
16
330
5
100
AcDbSymbolTableRecord
100
AcDbLinetypeTableRecord
  2
Continuous
 70
    0
  3
Solid line
 72
   65
 73
    0
 40
0
  0
LTYPE
  5
32
330
5
100
AcDbSymbolTableRecord
100
AcDbLinetypeTableRecord
  2
DOT
 70
    0
  3
Dot . . . . . . . . . . . . . . . . . . . . . .
 72
   65
 73
    2
 40
6.35
 49
0
 74
    0
 49
-6.35
 74
    0
  0
LTYPE
  5
33
330
5
100
AcDbSymbolTableRecord
100
AcDbLinetypeTableRecord
  2
DOTTINY
 70
    0
  3
Dot (.15x) .....................................
 72
   65
 73
    2
 40
0.9525
 49
0
 74
    0
 49
-0.9525
 74
    0
  0
LTYPE
  5
34
330
5
100
AcDbSymbolTableRecord
100
AcDbLinetypeTableRecord
  2
DOT2
 70
    0
  3
Dot (.5x) .....................................
 72
   65
 73
    2
 40
3.175
 49
0
 74
    0
 49
-3.175
 74
    0
  0
LTYPE
  5
35
330
5
100
AcDbSymbolTableRecord
100
AcDbLinetypeTableRecord
  2
DOTX2
 70
    0
  3
Dot (2x) .  .  .  .  .  .  .  .  .  .  .  .  .
 72
   65
 73
    2
 40
12.7
 49
0
 74
    0
 49
-12.7
 74
    0
  0
LTYPE
  5
36
330
5
100
AcDbSymbolTableRecord
100
AcDbLinetypeTableRecord
  2
DASHED
 70
    0
  3
Dashed _ _ _ _ _ _ _ _ _ _ _ _ _ _ _ _ _
 72
   65
 73
    2
 40
19.05
 49
12.7
 74
    0
 49
-6.35
 74
    0
  0
LTYPE
  5
37
330
5
100
AcDbSymbolTableRecord
100
AcDbLinetypeTableRecord
  2
DASHEDTINY
 70
    0
  3
Dashed (.15x) _ _ _ _ _ _ _ _ _ _ _ _ _ _ _ _ _
 72
   65
 73
    2
 40
2.8575
 49
1.905
 74
    0
 49
-0.9525
 74
    0
  0
LTYPE
  5
38
330
5
100
AcDbSymbolTableRecord
100
AcDbLinetypeTableRecord
  2
DASHED2
 70
    0
  3
Dashed (.5x) _ _ _ _ _ _ _ _ _ _ _ _ _ _ _ _ _
 72
   65
 73
    2
 40
9.524999999999999
 49
6.35
 74
    0
 49
-3.175
 74
    0
  0
LTYPE
  5
39
330
5
100
AcDbSymbolTableRecord
100
AcDbLinetypeTableRecord
  2
DASHEDX2
 70
    0
  3
Dashed (2x) ____  ____  ____  ____  ____  ___
 72
   65
 73
    2
 40
38.09999999999999
 49
25.4
 74
    0
 49
-12.7
 74
    0
  0
LTYPE
  5
3A
330
5
100
AcDbSymbolTableRecord
100
AcDbLinetypeTableRecord
  2
DASHDOT
 70
    0
  3
Dash dot __ . __ . __ . __ . __ . __ . __ . __
 72
   65
 73
    4
 40
25.4
 49
12.7
 74
    0
 49
-6.35
 74
    0
 49
0
 74
    0
 49
-6.35
 74
    0
  0
LTYPE
  5
3B
330
5
100
AcDbSymbolTableRecord
100
AcDbLinetypeTableRecord
  2
DASHDOTTINY
 70
    0
  3
Dash dot (.15x) _._._._._._._._._._._._._._._.
 72
   65
 73
    4
 40
3.81
 49
1.905
 74
    0
 49
-0.9525
 74
    0
 49
0
 74
    0
 49
-0.9525
 74
    0
  0
LTYPE
  5
3C
330
5
100
AcDbSymbolTableRecord
100
AcDbLinetypeTableRecord
  2
DASHDOT2
 70
    0
  3
Dash dot (.5x) _._._._._._._._._._._._._._._.
 72
   65
 73
    4
 40
12.7
 49
6.35
 74
    0
 49
-3.175
 74
    0
 49
0
 74
    0
 49
-3.175
 74
    0
  0
LTYPE
  5
3D
330
5
100
AcDbSymbolTableRecord
100
AcDbLinetypeTableRecord
  2
DASHDOTX2
 70
    0
  3
Dash dot (2x) ____  .  ____  .  ____  .  ___
 72
   65
 73
    4
 40
50.8
 49
25.4
 74
    0
 49
-12.7
 74
    0
 49
0
 74
    0
 49
-12.7
 74
    0
  0
LTYPE
  5
3E
330
5
100
AcDbSymbolTableRecord
100
AcDbLinetypeTableRecord
  2
DIVIDE
 70
    0
  3
Divide ____ . . ____ . . ____ . . ____ . . ____
 72
   65
 73
    6
 40
31.75
 49
12.7
 74
    0
 49
-6.35
 74
    0
 49
0
 74
    0
 49
-6.35
 74
    0
 49
0
 74
    0
 49
-6.35
 74
    0
  0
LTYPE
  5
3F
330
5
100
AcDbSymbolTableRecord
100
AcDbLinetypeTableRecord
  2
DIVIDETINY
 70
    0
  3
Divide (.15x) __..__..__..__..__..__..__..__.._
 72
   65
 73
    6
 40
4.7625
 49
1.905
 74
    0
 49
-0.9525
 74
    0
 49
0
 74
    0
 49
-0.9525
 74
    0
 49
0
 74
    0
 49
-0.9525
 74
    0
  0
LTYPE
  5
40
330
5
100
AcDbSymbolTableRecord
100
AcDbLinetypeTableRecord
  2
DIVIDE2
 70
    0
  3
Divide (.5x) __..__..__..__..__..__..__..__.._
 72
   65
 73
    6
 40
15.875
 49
6.35
 74
    0
 49
-3.175
 74
    0
 49
0
 74
    0
 49
-3.175
 74
    0
 49
0
 74
    0
 49
-3.175
 74
    0
  0
LTYPE
  5
41
330
5
100
AcDbSymbolTableRecord
100
AcDbLinetypeTableRecord
  2
DIVIDEX2
 70
    0
  3
Divide (2x) ________  .  .  ________  .  .  _
 72
   65
 73
    6
 40
63.5
 49
25.4
 74
    0
 49
-12.7
 74
    0
 49
0
 74
    0
 49
-12.7
 74
    0
 49
0
 74
    0
 49
-12.7
 74
    0
  0
LTYPE
  5
42
330
5
100
AcDbSymbolTableRecord
100
AcDbLinetypeTableRecord
  2
BORDER
 70
    0
  3
Border __ __ . __ __ . __ __ . __ __ . __ __ .
 72
   65
 73
    6
 40
44.45
 49
12.7
 74
    0
 49
-6.35
 74
    0
 49
12.7
 74
    0
 49
-6.35
 74
    0
 49
0
 74
    0
 49
-6.35
 74
    0
  0
LTYPE
  5
43
330
5
100
AcDbSymbolTableRecord
100
AcDbLinetypeTableRecord
  2
BORDERTINY
 70
    0
  3
Border (.15x) __.__.__.__.__.__.__.__.__.__.__.
 72
   65
 73
    6
 40
6.6675
 49
1.905
 74
    0
 49
-0.9525
 74
    0
 49
1.905
 74
    0
 49
-0.9525
 74
    0
 49
0
 74
    0
 49
-0.9525
 74
    0
  0
LTYPE
  5
44
330
5
100
AcDbSymbolTableRecord
100
AcDbLinetypeTableRecord
  2
BORDER2
 70
    0
  3
Border (.5x) __.__.__.__.__.__.__.__.__.__.__.
 72
   65
 73
    6
 40
22.225
 49
6.35
 74
    0
 49
-3.175
 74
    0
 49
6.35
 74
    0
 49
-3.175
 74
    0
 49
0
 74
    0
 49
-3.175
 74
    0
  0
LTYPE
  5
45
330
5
100
AcDbSymbolTableRecord
100
AcDbLinetypeTableRecord
  2
BORDERX2
 70
    0
  3
Border (2x) ____  ____  .  ____  ____  .  ___
 72
   65
 73
    6
 40
88.89999999999999
 49
25.4
 74
    0
 49
-12.7
 74
    0
 49
25.4
 74
    0
 49
-12.7
 74
    0
 49
0
 74
    0
 49
-12.7
 74
    0
  0
LTYPE
  5
46
330
5
100
AcDbSymbolTableRecord
100
AcDbLinetypeTableRecord
  2
CENTER
 70
    0
  3
Center ____ _ ____ _ ____ _ ____ _ ____ _ ____
 72
   65
 73
    4
 40
50.8
 49
31.75
 74
    0
 49
-6.35
 74
    0
 49
6.35
 74
    0
 49
-6.35
 74
    0
  0
LTYPE
  5
47
330
5
100
AcDbSymbolTableRecord
100
AcDbLinetypeTableRecord
  2
CENTERTINY
 70
    0
  3
Center (.15x) ___ _ ___ _ ___ _ ___ _ ___ _ ___
 72
   65
 73
    4
 40
7.619999999999999
 49
4.7625
 74
    0
 49
-0.9525
 74
    0
 49
0.9525
 74
    0
 49
-0.9525
 74
    0
  0
LTYPE
  5
48
330
5
100
AcDbSymbolTableRecord
100
AcDbLinetypeTableRecord
  2
CENTER2
 70
    0
  3
Center (.5x) ___ _ ___ _ ___ _ ___ _ ___ _ ___
 72
   65
 73
    4
 40
28.575
 49
19.05
 74
    0
 49
-3.175
 74
    0
 49
3.175
 74
    0
 49
-3.175
 74
    0
  0
LTYPE
  5
49
330
5
100
AcDbSymbolTableRecord
100
AcDbLinetypeTableRecord
  2
CENTERX2
 70
    0
  3
Center (2x) ________  __  ________  __  _____
 72
   65
 73
    4
 40
101.6
 49
63.5
 74
    0
 49
-12.7
 74
    0
 49
12.7
 74
    0
 49
-12.7
 74
    0
  0
ENDTAB
  0
TABLE
  2
LAYER
  5
2
330
0
100
AcDbSymbolTable
 70
    1
  0
LAYER
  5
10
330
2
100
AcDbSymbolTableRecord
100
AcDbLayerTableRecord
  2
0
 70
    0
 62
    7
  6
CONTINUOUS
370
   -3
390
F
1001
LibreCad
1070
    1
  0
LAYER
  5
4A
330
2
100
AcDbSymbolTableRecord
100
AcDbLayerTableRecord
  2
balky
 70
    0
 62
  216
420
8388736
  6
CONTINUOUS
370
   50
390
F
  0
LAYER
  5
4B
330
2
100
AcDbSymbolTableRecord
100
AcDbLayerTableRecord
  2
brick
 70
    0
 62
   16
420
8388608
  6
CONTINUOUS
370
   50
390
F
  0
LAYER
  5
4C
330
2
100
AcDbSymbolTableRecord
100
AcDbLayerTableRecord
  2
cegla
 70
    0
 62
    2
  6
CONTINUOUS
370
   50
390
F
  0
LAYER
  5
4D
330
2
100
AcDbSymbolTableRecord
100
AcDbLayerTableRecord
  2
concrete
 70
    0
 62
  216
420
8388736
  6
CONTINUOUS
370
   50
390
F
  0
LAYER
  5
4E
330
2
100
AcDbSymbolTableRecord
100
AcDbLayerTableRecord
  2
decor
 70
    0
 62
   36
420
8406016
  6
CONTINUOUS
370
   50
390
F
  0
LAYER
  5
4F
330
2
100
AcDbSymbolTableRecord
100
AcDbLayerTableRecord
  2
dimensions
 70
    0
 62
    4
  6
CONTINUOUS
370
   13
390
F
  0
LAYER
  5
50
330
2
100
AcDbSymbolTableRecord
100
AcDbLayerTableRecord
  2
epps
 70
    0
 62
   56
420
8421376
  6
CONTINUOUS
370
   50
390
F
  0
LAYER
  5
51
330
2
100
AcDbSymbolTableRecord
100
AcDbLayerTableRecord
  2
face
 70
    0
 62
    3
  6
CONTINUOUS
370
   50
390
F
  0
LAYER
  5
52
330
2
100
AcDbSymbolTableRecord
100
AcDbLayerTableRecord
  2
fundament
 70
    1
 62
  136
420
32896
  6
CONTINUOUS
370
   50
390
F
  0
LAYER
  5
53
330
2
100
AcDbSymbolTableRecord
100
AcDbLayerTableRecord
  2
gazoblok
 70
    0
 62
   56
420
8421376
  6
CONTINUOUS
370
   50
390
F
  0
LAYER
  5
54
330
2
100
AcDbSymbolTableRecord
100
AcDbLayerTableRecord
  2
kontur
 70
    0
 62
  216
420
8388736
  6
CONTINUOUS
370
   50
390
F
  0
LAYER
  5
55
330
2
100
AcDbSymbolTableRecord
100
AcDbLayerTableRecord
  2
metal
 70
    0
 62
    5
  6
CONTINUOUS
370
   25
390
F
  0
LAYER
  5
56
330
2
100
AcDbSymbolTableRecord
100
AcDbLayerTableRecord
  2
muerlat
 70
    0
 62
    3
  6
CONTINUOUS
370
   50
390
F
  0
LAYER
  5
57
330
2
100
AcDbSymbolTableRecord
100
AcDbLayerTableRecord
  2
plyty
 70
    0
 62
    8
  6
CONTINUOUS
370
   50
390
F
  0
LAYER
  5
58
330
2
100
AcDbSymbolTableRecord
100
AcDbLayerTableRecord
  2
projomy
 70
    0
 62
    1
  6
CONTINUOUS
370
   -3
390
F
  0
LAYER
  5
59
330
2
100
AcDbSymbolTableRecord
100
AcDbLayerTableRecord
  2
styny
 70
    0
 62
   41
420
16376252
  6
CONTINUOUS
370
   50
390
F
  0
LAYER
  5
5A
330
2
100
AcDbSymbolTableRecord
100
AcDbLayerTableRecord
  2
u-block
 70
    0
 62
    6
  6
CONTINUOUS
370
   50
390
F
  0
LAYER
  5
5B
330
2
100
AcDbSymbolTableRecord
100
AcDbLayerTableRecord
  2
vikna_dveri
 70
    0
 62
   36
420
8406016
  6
CONTINUOUS
370
   50
390
F
  0
ENDTAB
  0
TABLE
  2
STYLE
  5
3
330
0
100
AcDbSymbolTable
 70
    3
  0
STYLE
  5
5C
330
2
100
AcDbSymbolTableRecord
100
AcDbTextStyleTableRecord
  2
cyrillic_ii
 70
    0
 40
0
 41
1
 50
0
 71
    0
 42
1
  3
cyrillic_ii
  4

  0
STYLE
  5
5D
330
2
100
AcDbSymbolTableRecord
100
AcDbTextStyleTableRecord
  2
Standard
 70
    0
 40
0
 41
1
 50
0
 71
    0
 42
1
  3
txt
  4

  0
ENDTAB
  0
TABLE
  2
VIEW
  5
6
330
0
100
AcDbSymbolTable
 70
    0
  0
ENDTAB
  0
TABLE
  2
UCS
  5
7
330
0
100
AcDbSymbolTable
 70
    0
  0
ENDTAB
  0
TABLE
  2
APPID
  5
9
330
0
100
AcDbSymbolTable
 70
    1
  0
APPID
  5
12
330
9
100
AcDbSymbolTableRecord
100
AcDbRegAppTableRecord
  2
ACAD
 70
    0
  0
APPID
  5
5E
330
9
100
AcDbSymbolTableRecord
100
AcDbRegAppTableRecord
  2
LibreCad
 70
    0
  0
ENDTAB
  0
TABLE
  2
DIMSTYLE
  5
A
330
0
100
AcDbSymbolTable
 70
    1
100
AcDbDimStyleTable
 71
    1
  0
DIMSTYLE
105
5F
330
A
100
AcDbSymbolTableRecord
100
AcDbDimStyleTableRecord
  2
Standard
 70
    0
 40
10
 41
2
 42
1
 43
0.38
 44
2
 45
0
 46
0
 47
0
 48
0
 49
1
140
4
141
0.09
142
2
143
25.4
144
1
145
0
146
1
147
2
148
0
 71
    0
 72
    0
 73
    0
 74
    1
 75
    0
 76
    0
 77
    0
 78
    8
 79
    0
170
    0
171
    2
172
    0
173
    0
174
    0
175
    0
176
    0
177
    0
178
    0
179
    0
271
    1
272
    4
273
    2
274
    2
275
    0
276
    0
277
    2
278
   44
279
    0
280
    0
281
    0
282
    0
283
    1
284
    0
285
    0
286
    0
288
    0
289
    3
340
standard
341

371
   -2
372
   -2
  0
ENDTAB
  0
TABLE
  2
BLOCK_RECORD
  5
1
330
0
100
AcDbSymbolTable
 70
    2
  0
BLOCK_RECORD
  5
1F
330
1
100
AcDbSymbolTableRecord
100
AcDbBlockTableRecord
  2
*Model_Space
 70
    0
280
    1
281
    0
  0
BLOCK_RECORD
  5
1E
330
1
100
AcDbSymbolTableRecord
100
AcDbBlockTableRecord
  2
*Paper_Space
 70
    0
280
    1
281
    0
  0
BLOCK_RECORD
  5
60
330
1
100
AcDbSymbolTableRecord
100
AcDbBlockTableRecord
  2
block10
 70
    0
280
    1
281
    0
  0
ENDTAB
  0
ENDSEC
  0
SECTION
  2
BLOCKS
  0
BLOCK
  5
20
330
1F
100
AcDbEntity
  8
0
100
AcDbBlockBegin
  2
*Model_Space
 70
    0
 10
0
 20
0
 30
0
  3
*Model_Space
  1

  0
ENDBLK
  5
21
330
1F
100
AcDbEntity
  8
0
100
AcDbBlockEnd
  0
BLOCK
  5
1C
330
1B
100
AcDbEntity
  8
0
100
AcDbBlockBegin
  2
*Paper_Space
 70
    0
 10
0
 20
0
 30
0
  3
*Paper_Space
  1

  0
ENDBLK
  5
1D
330
1F
100
AcDbEntity
  8
0
100
AcDbBlockEnd
  0
BLOCK
  5
61
330
60
100
AcDbEntity
  8
0
100
AcDbBlockBegin
  2
block10
 70
    0
 10
0
 20
0
  3
block10
  1

  0
LWPOLYLINE
  5
63
100
AcDbEntity
  8
0
  6
CONTINUOUS
 62
    7
370
   70
100
AcDbPolyline
 90
   12
 70
    1
 43
0
 10
-0.6062178
 20
1
 10
0
 20
0
 10
0.6062178
 20
1
 10
1.8186533
 20
1
 10
1.2124356
 20
2
 10
1.8186533
 20
3
 10
0.6062178
 20
3
 10
0
 20
4
 10
-0.6062178
 20
3
 10
-1.8186533
 20
3
 10
-1.2124356
 20
2
 10
-1.8186533
 20
1
  0
ENDBLK
  5
62
330
60
100
AcDbEntity
  8
0
100
AcDbBlockEnd
  0
ENDSEC
  0
SECTION
  2
ENTITIES
  0
HATCH
  5
64
100
AcDbEntity
  8
face
  6
ByLayer
 62
  256
370
   -1
100
AcDbHatch
 10
0
 20
0
 30
0
210
0
220
0
230
1
  2
gost_stone
 70
    0
 71
    0
 91
    1
 92
    0
 93
   12
 72
    1
 10
12
 20
12
 11
12
 21
1040
 72
    1
 10
12
 20
1040
 11
988
 21
1040
 72
    1
 10
988
 20
1040
 11
988
 21
246
 72
    1
 10
988
 20
246
 11
546
 21
246
 72
    1
 10
546
 20
246
 11
546
 21
12
 72
    1
 10
546
 20
12
 11
12
 21
12
 72
    1
 10
1000
 20
234
 11
558
 21
234
 72
    1
 10
558
 20
234
 11
558
 21
0
 72
    1
 10
558
 20
0
 11
0
 21
8.881784197001252e-16
 72
    1
 10
0
 20
8.881784197001252e-16
 11
0
 21
1052
 72
    1
 10
0
 20
1052
 11
1000
 21
1052
 72
    1
 10
1000
 20
1052
 11
1000
 21
234
 97
    0
 75
    0
 76
    1
 52
1.570796326794897
 41
2
 77
    0
 78
    0
 98
    0
  0
HATCH
  5
65
100
AcDbEntity
  8
fundament
  6
ByLayer
 62
  256
370
   -1
100
AcDbHatch
 10
0
 20
0
 30
0
210
0
220
0
230
1
  2
concrete
 70
    0
 71
    0
 91
    1
 92
    0
 93
   24
 72
    1
 10
340
 20
513
 11
40
 21
513
 72
    1
 10
40
 20
513
 11
40
 21
40.00000000000001
 72
    1
 10
380
 20
513
 11
510
 21
513
 72
    1
 10
510
 20
513
 11
510
 21
40.00003600000008
 72
    1
 10
510
 20
40.00003600000008
 11
380
 21
40.00003600000008
 72
    1
 10
380
 20
40.00003600000008
 11
380
 21
513
 72
    1
 10
0
 20
1050
 11
1000
 21
1050
 72
    1
 10
1000
 20
1050
 11
1000
 21
8.881784197001252e-16
 72
    1
 10
1000
 20
8.881784197001252e-16
 11
0
 21
8.881784197001252e-16
 72
    1
 10
0
 20
8.881784197001252e-16
 11
0
 21
1050
 72
    1
 10
960
 20
40.00000000000001
 11
550
 21
40.00000000000001
 72
    1
 10
550
 20
40.00000000000001
 11
550
 21
513
 72
    1
 10
550
 20
513
 11
960
 21
513
 72
    1
 10
960
 20
513
 11
960
 21
40.00000000000001
 72
    1
 10
550
 20
553
 11
960
 21
553
 72
    1
 10
960
 20
553
 11
960
 21
1010
 72
    1
 10
960
 20
1010
 11
550
 21
1010
 72
    1
 10
550
 20
1010
 11
550
 21
553
 72
    1
 10
510
 20
553
 11
40
 21
553
 72
    1
 10
40
 20
553
 11
40
 21
1010
 72
    1
 10
40
 20
1010
 11
510
 21
1010
 72
    1
 10
510
 20
1010
 11
510
 21
553
 72
    1
 10
40
 20
40.00000000000001
 11
340
 21
40.00003600000008
 72
    1
 10
340
 20
40.00003600000008
 11
340
 21
513
 97
    0
 75
    0
 76
    1
 52
0
 41
10
 77
    0
 78
    0
 98
    0
  0
HATCH
  5
66
100
AcDbEntity
  8
face
  6
ByLayer
 62
  256
370
   -1
100
AcDbHatch
 10
0
 20
0
 30
0
210
0
220
0
230
1
  2
gost_stone
 70
    0
 71
    0
 91
    1
 92
    0
 93
    8
 72
    1
 10
2400.000000000001
 20
1052
 11
2400
 21
8.881784197001252e-16
 72
    1
 10
2400
 20
8.881784197001252e-16
 11
1400
 21
8.881784197001252e-16
 72
    1
 10
1400
 20
8.881784197001252e-16
 11
1400
 21
1052
 72
    1
 10
1400
 20
1052
 11
2400.000000000001
 21
1052
 72
    1
 10
1412
 20
1040
 11
2388
 21
1040
 72
    1
 10
2388
 20
1040
 11
2388
 21
12
 72
    1
 10
2388
 20
12
 11
1412
 21
12
 72
    1
 10
1412
 20
12
 11
1412
 21
1040
 97
    0
 75
    0
 76
    1
 52
1.570796326794897
 41
2
 77
    0
 78
    0
 98
    0
  0
HATCH
  5
67
100
AcDbEntity
  8
face
  6
ByLayer
 62
  256
370
   -1
100
AcDbHatch
 10
0
 20
0
 30
0
210
0
220
0
230
1
  2
gost_stone
 70
    0
 71
    0
 91
    1
 92
    0
 93
   13
 72
    1
 10
923
 20
64
 11
936
 21
64
 72
    1
 10
936
 20
64
 11
936
 21
77
 72
    1
 10
936
 20
77
 11
936
 21
77
 72
    1
 10
936
 20
77
 11
1000
 21
77
 72
    1
 10
1000
 20
77
 11
1000
 21
8.881784197001252e-16
 72
    1
 10
1000
 20
8.881784197001252e-16
 11
923
 21
8.881784197001252e-16
 72
    1
 10
923
 20
8.881784197001252e-16
 11
923
 21
64
 72
    1
 10
988
 20
12
 11
935
 21
12
 72
    1
 10
935
 20
12
 11
935
 21
52
 72
    1
 10
935
 20
52
 11
948
 21
52
 72
    1
 10
948
 20
52
 11
948
 21
65
 72
    1
 10
948
 20
65
 11
988
 21
65
 72
    1
 10
988
 20
65
 11
988
 21
12
 97
    0
 75
    0
 76
    1
 52
1.570796326794897
 41
2
 77
    0
 78
    0
 98
    0
  0
HATCH
  5
68
100
AcDbEntity
  8
face
  6
ByLayer
 62
  256
370
   -1
100
AcDbHatch
 10
0
 20
0
 30
0
210
0
220
0
230
1
  2
gost_stone
 70
    0
 71
    0
 91
    1
 92
    0
 93
    8
 72
    1
 10
754
 20
12
 11
754
 21
52
 72
    1
 10
754
 20
52
 11
727
 21
52
 72
    1
 10
727
 20
52
 11
727
 21
12
 72
    1
 10
727
 20
12
 11
754
 21
12
 72
    1
 10
766
 20
64
 11
715
 21
64
 72
    1
 10
715
 20
64
 11
715
 21
8.881784197001252e-16
 72
    1
 10
715
 20
8.881784197001252e-16
 11
766
 21
8.881784197001252e-16
 72
    1
 10
766
 20
8.881784197001252e-16
 11
766
 21
64
 97
    0
 75
    0
 76
    1
 52
1.570796326794897
 41
2
 77
    0
 78
    0
 98
    0
  0
HATCH
  5
69
100
AcDbEntity
  8
fundament
  6
ByLayer
 62
  256
370
   -1
100
AcDbHatch
 10
0
 20
0
 30
0
210
0
220
0
230
1
  2
gost_concrete
 70
    0
 71
    0
 91
    1
 92
    0
 93
    8
 72
    1
 10
-2000
 20
40
 11
-2200
 21
40
 72
    1
 10
-2200
 20
40
 11
-2200
 21
0
 72
    1
 10
-2200
 20
0
 11
-2112
 21
0
 72
    1
 10
-2112
 20
0
 11
-2107
 21
-10
 72
    1
 10
-2107
 20
-10
 11
-2097
 21
10
 72
    1
 10
-2097
 20
10
 11
-2092
 21
0
 72
    1
 10
-2092
 20
0
 11
-2000
 21
0
 72
    1
 10
-2000
 20
0
 11
-2000
 21
40
 97
    0
 75
    0
 76
    1
 52
0
 41
1
 77
    0
 78
    0
 98
    0
  0
HATCH
  5
6A
100
AcDbEntity
  8
fundament
  6
ByLayer
 62
  256
370
   -1
100
AcDbHatch
 10
0
 20
0
 30
0
210
0
220
0
230
1
  2
gost_concrete
 70
    0
 71
    0
 91
    1
 92
    0
 93
    8
 72
    1
 10
-2000
 20
40
 11
-2200
 21
40
 72
    1
 10
-2200
 20
40
 11
-2200
 21
0
 72
    1
 10
-2200
 20
0
 11
-2112
 21
0
 72
    1
 10
-2112
 20
0
 11
-2107
 21
-10
 72
    1
 10
-2107
 20
-10
 11
-2097
 21
10
 72
    1
 10
-2097
 20
10
 11
-2092
 21
0
 72
    1
 10
-2092
 20
0
 11
-2000
 21
0
 72
    1
 10
-2000
 20
0
 11
-2000
 21
40
 97
    0
 75
    0
 76
    1
 52
0
 41
1
 77
    0
 78
    0
 98
    0
  0
MTEXT
  5
6B
100
AcDbEntity
  8
dimensions
  6
ByLayer
 62
  256
370
   -1
100
AcDbMText
 10
2500
 20
-300
 30
0
 40
50
 41
204.166666666669
 71
    6
 72
    1
  1
Стр. 7
  7
cyrillic_ii
210
0
220
0
230
1
 50
0
 73
    2
 44
1
  0
LINE
  5
6C
100
AcDbEntity
  8
dimensions
  6
ByLayer
 62
  256
370
   -1
100
AcDbLine
 10
80
 20
1260
 11
970.0000000000001
 21
1260
  0
LINE
  5
6D
100
AcDbEntity
  8
fundament
  6
DASHED2
 62
  256
370
   -1
100
AcDbLine
 10
2300
 20
983.0000000000001
 11
2260
 21
983
  0
LINE
  5
6E
100
AcDbEntity
  8
fundament
  6
DASHED2
 62
  256
370
   -1
100
AcDbLine
 10
2260
 20
1003
 11
2300
 21
1003
  0
LINE
  5
6F
100
AcDbEntity
  8
fundament
  6
DASHED2
 62
  256
370
   -1
100
AcDbLine
 10
1520.5
 20
122.5
 11
1520.5
 21
162.5
  0
LINE
  5
70
100
AcDbEntity
  8
fundament
  6
DASHED2
 62
  256
370
   -1
100
AcDbLine
 10
1540.5
 20
162.5
 11
1540.5
 21
122.5
  0
LWPOLYLINE
  5
71
100
AcDbEntity
  8
fundament
  6
ByLayer
 62
  256
370
   -1
100
AcDbPolyline
 90
    9
 70
    0
 43
0
 10
-2200
 20
40
 10
-2200
 20
0
 10
-2112
 20
0
 10
-2107
 20
-10
 10
-2097
 20
10
 10
-2092
 20
0
 10
-2000
 20
0
 10
-2000
 20
40
 10
-2200
 20
40
  0
LWPOLYLINE
  5
72
100
AcDbEntity
  8
fundament
  6
ByLayer
 62
  256
370
   -1
100
AcDbPolyline
 90
    9
 70
    0
 43
0
 10
-2200
 20
40
 10
-2200
 20
0
 10
-2112
 20
0
 10
-2107
 20
-10
 10
-2097
 20
10
 10
-2092
 20
0
 10
-2000
 20
0
 10
-2000
 20
40
 10
-2200
 20
40
  0
LWPOLYLINE
  5
73
100
AcDbEntity
  8
plyty
  6
DASHED2
 62
  256
370
   -1
100
AcDbPolyline
 90
    6
 70
    1
 43
0
 10
1430
 20
47
 10
1928
 20
47
 10
1928
 20
196
 10
1430
 20
196
 10
1430
 20
196
 10
1430
 20
196
  0
LWPOLYLINE
  5
74
100
AcDbEntity
  8
plyty
  6
DASHED2
 62
  256
370
   -1
100
AcDbPolyline
 90
    6
 70
    1
 43
0
 10
1931
 20
47
 10
2369
 20
47
 10
2369
 20
196
 10
1931
 20
196
 10
1931
 20
196
 10
1931
 20
196
  0
LWPOLYLINE
  5
75
100
AcDbEntity
  8
plyty
  6
DASHED2
 62
  256
370
   -1
100
AcDbPolyline
 90
    6
 70
    1
 43
0
 10
1430
 20
347
 10
1928
 20
347
 10
1928
 20
496
 10
1430
 20
496
 10
1430
 20
496
 10
1430
 20
496
  0
LWPOLYLINE
  5
76
100
AcDbEntity
  8
plyty
  6
DASHED2
 62
  256
370
   -1
100
AcDbPolyline
 90
    6
 70
    1
 43
0
 10
1931
 20
197
 10
2369
 20
197
 10
2369
 20
346
 10
1931
 20
346
 10
1931
 20
346
 10
1931
 20
346
  0
LWPOLYLINE
  5
77
100
AcDbEntity
  8
plyty
  6
DASHED2
 62
  256
370
   -1
100
AcDbPolyline
 90
    6
 70
    1
 43
0
 10
1931
 20
347
 10
2369
 20
347
 10
2369
 20
496
 10
1931
 20
496
 10
1931
 20
496
 10
1931
 20
496
  0
LWPOLYLINE
  5
78
100
AcDbEntity
  8
balky
  6
ByLayer
 62
  256
370
   -1
100
AcDbPolyline
 90
    4
 70
    1
 43
0
 10
522
 20
17
 10
983
 20
17
 10
983
 20
47
 10
522
 20
47
  0
MTEXT
  5
79
100
AcDbEntity
  8
plyty
  6
ByLayer
 62
  256
370
   -1
100
AcDbMText
 10
270
 20
1100
 30
0
 40
20
 41
148.3333333333358
 71
    8
 72
    1
  1
ПК 50-15-8
  7
cyrillic_ii
210
0
220
0
230
1
 50
0
 73
    2
 44
1
  0
MTEXT
  5
7A
100
AcDbEntity
  8
plyty
  6
ByLayer
 62
  256
370
   -1
100
AcDbMText
 10
750
 20
1100
 30
0
 40
20
 41
152.7777777777791
 71
    8
 72
    1
  1
ПК 44-15-8
  7
cyrillic_ii
210
0
220
0
230
1
 50
0
 73
    2
 44
1
  0
MTEXT
  5
7B
100
AcDbEntity
  8
plyty
  6
ByLayer
 62
  256
370
   -1
100
AcDbMText
 10
1670
 20
1100
 30
0
 40
20
 41
148.3333333333358
 71
    8
 72
    1
  1
ПК 50-15-8
  7
cyrillic_ii
210
0
220
0
230
1
 50
0
 73
    2
 44
1
  0
MTEXT
  5
7C
100
AcDbEntity
  8
plyty
  6
ByLayer
 62
  256
370
   -1
100
AcDbMText
 10
2150
 20
1100
 30
0
 40
20
 41
152.7777777777791
 71
    8
 72
    1
  1
ПК 44-15-8
  7
cyrillic_ii
210
0
220
0
230
1
 50
0
 73
    2
 44
1
  0
MTEXT
  5
7D
100
AcDbEntity
  8
plyty
  6
ByLayer
 62
  256
370
   -1
100
AcDbMText
 10
200
 20
-60
 30
0
 40
20
 41
148.3333333333358
 71
    8
 72
    1
  1
ПК 33-10-8 
  7
cyrillic_ii
210
0
220
0
230
1
 50
0
 73
    2
 44
1
  0
MTEXT
  5
7E
100
AcDbEntity
  8
plyty
  6
ByLayer
 62
  256
370
   -1
100
AcDbMText
 10
450
 20
-60
 30
0
 40
20
 41
143.8888888888901
 71
    8
 72
    1
  1
ПК 17-15-8
  7
cyrillic_ii
210
0
220
0
230
1
 50
0
 73
    2
 44
1
  0
LWPOLYLINE
  5
7F
100
AcDbEntity
  8
projomy
  6
ByLayer
 62
  256
370
   -1
100
AcDbPolyline
 90
    9
 70
    0
 43
0
 10
0
 20
390
 10
0
 20
337
 10
12
 20
337
 10
12
 20
331
 10
47
 20
331
 10
47
 20
396
 10
12
 20
396
 10
12
 20
390
 10
0
 20
390
  0
LWPOLYLINE
  5
80
100
AcDbEntity
  8
projomy
  6
ByLayer
 62
  256
370
   -1
100
AcDbPolyline
 90
    9
 70
    0
 43
0
 10
1400
 20
390
 10
1400
 20
337
 10
1412
 20
337
 10
1412
 20
331
 10
1447
 20
331
 10
1447
 20
396
 10
1412
 20
396
 10
1412
 20
390
 10
1400
 20
390
  0
LWPOLYLINE
  5
81
100
AcDbEntity
  8
brick
  6
ByLayer
 62
  256
370
   -1
100
AcDbPolyline
 90
    4
 70
    1
 43
0
 10
52
 20
-16
 10
77
 20
-16
 10
77
 20
-10
 10
52
 20
-10
  0
LWPOLYLINE
  5
82
100
AcDbEntity
  8
brick
  6
ByLayer
 62
  256
370
   -1
100
AcDbPolyline
 90
    4
 70
    1
 43
0
 10
78
 20
-16
 10
103
 20
-16
 10
103
 20
-10
 10
78
 20
-10
  0
LWPOLYLINE
  5
83
100
AcDbEntity
  8
brick
  6
ByLayer
 62
  256
370
   -1
100
AcDbPolyline
 90
    4
 70
    1
 43
0
 10
104
 20
-16
 10
129
 20
-16
 10
129
 20
-10
 10
104
 20
-10
  0
LWPOLYLINE
  5
84
100
AcDbEntity
  8
brick
  6
ByLayer
 62
  256
370
   -1
100
AcDbPolyline
 90
    4
 70
    1
 43
0
 10
130
 20
-16
 10
155
 20
-16
 10
155
 20
-10
 10
130
 20
-10
  0
LWPOLYLINE
  5
85
100
AcDbEntity
  8
brick
  6
ByLayer
 62
  256
370
   -1
100
AcDbPolyline
 90
    4
 70
    1
 43
0
 10
156
 20
-16
 10
181
 20
-16
 10
181
 20
-10
 10
156
 20
-10
  0
LWPOLYLINE
  5
86
100
AcDbEntity
  8
brick
  6
ByLayer
 62
  256
370
   -1
100
AcDbPolyline
 90
    4
 70
    1
 43
0
 10
26
 20
-16
 10
51
 20
-16
 10
51
 20
-10
 10
26
 20
-10
  0
LWPOLYLINE
  5
87
100
AcDbEntity
  8
brick
  6
ByLayer
 62
  256
370
   -1
100
AcDbPolyline
 90
    4
 70
    1
 43
0
 10
0
 20
-16
 10
25
 20
-16
 10
25
 20
-10
 10
0
 20
-10
  0
LWPOLYLINE
  5
88
100
AcDbEntity
  8
brick
  6
ByLayer
 62
  256
370
   -1
100
AcDbPolyline
 90
    4
 70
    1
 43
0
 10
234
 20
-16
 10
259
 20
-16
 10
259
 20
-10
 10
234
 20
-10
  0
LWPOLYLINE
  5
89
100
AcDbEntity
  8
brick
  6
ByLayer
 62
  256
370
   -1
100
AcDbPolyline
 90
    4
 70
    1
 43
0
 10
260
 20
-16
 10
285
 20
-16
 10
285
 20
-10
 10
260
 20
-10
  0
LWPOLYLINE
  5
8A
100
AcDbEntity
  8
brick
  6
ByLayer
 62
  256
370
   -1
100
AcDbPolyline
 90
    4
 70
    1
 43
0
 10
286
 20
-16
 10
311
 20
-16
 10
311
 20
-10
 10
286
 20
-10
  0
LWPOLYLINE
  5
8B
100
AcDbEntity
  8
brick
  6
ByLayer
 62
  256
370
   -1
100
AcDbPolyline
 90
    4
 70
    1
 43
0
 10
312
 20
-16
 10
337
 20
-16
 10
337
 20
-10
 10
312
 20
-10
  0
LWPOLYLINE
  5
8C
100
AcDbEntity
  8
brick
  6
ByLayer
 62
  256
370
   -1
100
AcDbPolyline
 90
    4
 70
    1
 43
0
 10
338
 20
-16
 10
363
 20
-16
 10
363
 20
-10
 10
338
 20
-10
  0
LWPOLYLINE
  5
8D
100
AcDbEntity
  8
brick
  6
ByLayer
 62
  256
370
   -1
100
AcDbPolyline
 90
    4
 70
    1
 43
0
 10
208
 20
-16
 10
233
 20
-16
 10
233
 20
-10
 10
208
 20
-10
  0
LWPOLYLINE
  5
8E
100
AcDbEntity
  8
brick
  6
ByLayer
 62
  256
370
   -1
100
AcDbPolyline
 90
    4
 70
    1
 43
0
 10
182
 20
-16
 10
207
 20
-16
 10
207
 20
-10
 10
182
 20
-10
  0
LWPOLYLINE
  5
8F
100
AcDbEntity
  8
brick
  6
ByLayer
 62
  256
370
   -1
100
AcDbPolyline
 90
    4
 70
    1
 43
0
 10
416
 20
-16
 10
441
 20
-16
 10
441
 20
-10
 10
416
 20
-10
  0
LWPOLYLINE
  5
90
100
AcDbEntity
  8
brick
  6
ByLayer
 62
  256
370
   -1
100
AcDbPolyline
 90
    4
 70
    1
 43
0
 10
442
 20
-16
 10
467
 20
-16
 10
467
 20
-10
 10
442
 20
-10
  0
LWPOLYLINE
  5
91
100
AcDbEntity
  8
brick
  6
ByLayer
 62
  256
370
   -1
100
AcDbPolyline
 90
    4
 70
    1
 43
0
 10
468
 20
-16
 10
493
 20
-16
 10
493
 20
-10
 10
468
 20
-10
  0
LWPOLYLINE
  5
92
100
AcDbEntity
  8
brick
  6
ByLayer
 62
  256
370
   -1
100
AcDbPolyline
 90
    4
 70
    1
 43
0
 10
494
 20
-16
 10
519
 20
-16
 10
519
 20
-10
 10
494
 20
-10
  0
LWPOLYLINE
  5
93
100
AcDbEntity
  8
brick
  6
ByLayer
 62
  256
370
   -1
100
AcDbPolyline
 90
    4
 70
    1
 43
0
 10
520
 20
-16
 10
545
 20
-16
 10
545
 20
-10
 10
520
 20
-10
  0
LWPOLYLINE
  5
94
100
AcDbEntity
  8
brick
  6
ByLayer
 62
  256
370
   -1
100
AcDbPolyline
 90
    4
 70
    1
 43
0
 10
390
 20
-16
 10
415
 20
-16
 10
415
 20
-10
 10
390
 20
-10
  0
LWPOLYLINE
  5
95
100
AcDbEntity
  8
brick
  6
ByLayer
 62
  256
370
   -1
100
AcDbPolyline
 90
    4
 70
    1
 43
0
 10
364
 20
-16
 10
389
 20
-16
 10
389
 20
-10
 10
364
 20
-10
  0
LWPOLYLINE
  5
96
100
AcDbEntity
  8
brick
  6
ByLayer
 62
  256
370
   -1
100
AcDbPolyline
 90
    4
 70
    1
 43
0
 10
598
 20
-16
 10
623
 20
-16
 10
623
 20
-10
 10
598
 20
-10
  0
LWPOLYLINE
  5
97
100
AcDbEntity
  8
brick
  6
ByLayer
 62
  256
370
   -1
100
AcDbPolyline
 90
    4
 70
    1
 43
0
 10
624
 20
-16
 10
649
 20
-16
 10
649
 20
-10
 10
624
 20
-10
  0
LWPOLYLINE
  5
98
100
AcDbEntity
  8
brick
  6
ByLayer
 62
  256
370
   -1
100
AcDbPolyline
 90
    4
 70
    1
 43
0
 10
650
 20
-16
 10
675
 20
-16
 10
675
 20
-10
 10
650
 20
-10
  0
LWPOLYLINE
  5
99
100
AcDbEntity
  8
brick
  6
ByLayer
 62
  256
370
   -1
100
AcDbPolyline
 90
    4
 70
    1
 43
0
 10
676
 20
-16
 10
701
 20
-16
 10
701
 20
-10
 10
676
 20
-10
  0
LWPOLYLINE
  5
9A
100
AcDbEntity
  8
brick
  6
ByLayer
 62
  256
370
   -1
100
AcDbPolyline
 90
    4
 70
    1
 43
0
 10
702
 20
-16
 10
727
 20
-16
 10
727
 20
-10
 10
702
 20
-10
  0
LWPOLYLINE
  5
9B
100
AcDbEntity
  8
brick
  6
ByLayer
 62
  256
370
   -1
100
AcDbPolyline
 90
    4
 70
    1
 43
0
 10
572
 20
-16
 10
597
 20
-16
 10
597
 20
-10
 10
572
 20
-10
  0
LWPOLYLINE
  5
9C
100
AcDbEntity
  8
brick
  6
ByLayer
 62
  256
370
   -1
100
AcDbPolyline
 90
    4
 70
    1
 43
0
 10
546
 20
-16
 10
571
 20
-16
 10
571
 20
-10
 10
546
 20
-10
  0
LWPOLYLINE
  5
9D
100
AcDbEntity
  8
brick
  6
ByLayer
 62
  256
370
   -1
100
AcDbPolyline
 90
    4
 70
    1
 43
0
 10
780
 20
-16
 10
805
 20
-16
 10
805
 20
-10
 10
780
 20
-10
  0
LWPOLYLINE
  5
9E
100
AcDbEntity
  8
brick
  6
ByLayer
 62
  256
370
   -1
100
AcDbPolyline
 90
    4
 70
    1
 43
0
 10
806
 20
-16
 10
831
 20
-16
 10
831
 20
-10
 10
806
 20
-10
  0
LWPOLYLINE
  5
9F
100
AcDbEntity
  8
brick
  6
ByLayer
 62
  256
370
   -1
100
AcDbPolyline
 90
    4
 70
    1
 43
0
 10
832
 20
-16
 10
857
 20
-16
 10
857
 20
-10
 10
832
 20
-10
  0
LWPOLYLINE
  5
A0
100
AcDbEntity
  8
brick
  6
ByLayer
 62
  256
370
   -1
100
AcDbPolyline
 90
    4
 70
    1
 43
0
 10
858
 20
-16
 10
883
 20
-16
 10
883
 20
-10
 10
858
 20
-10
  0
LWPOLYLINE
  5
A1
100
AcDbEntity
  8
brick
  6
ByLayer
 62
  256
370
   -1
100
AcDbPolyline
 90
    4
 70
    1
 43
0
 10
884
 20
-16
 10
909
 20
-16
 10
909
 20
-10
 10
884
 20
-10
  0
LWPOLYLINE
  5
A2
100
AcDbEntity
  8
brick
  6
ByLayer
 62
  256
370
   -1
100
AcDbPolyline
 90
    4
 70
    1
 43
0
 10
754
 20
-16
 10
779
 20
-16
 10
779
 20
-10
 10
754
 20
-10
  0
LWPOLYLINE
  5
A3
100
AcDbEntity
  8
brick
  6
ByLayer
 62
  256
370
   -1
100
AcDbPolyline
 90
    4
 70
    1
 43
0
 10
728
 20
-16
 10
753
 20
-16
 10
753
 20
-10
 10
728
 20
-10
  0
LWPOLYLINE
  5
A4
100
AcDbEntity
  8
brick
  6
ByLayer
 62
  256
370
   -1
100
AcDbPolyline
 90
    4
 70
    1
 43
0
 10
910
 20
-16
 10
935
 20
-16
 10
935
 20
-10
 10
910
 20
-10
  0
LWPOLYLINE
  5
A5
100
AcDbEntity
  8
brick
  6
ByLayer
 62
  256
370
   -1
100
AcDbPolyline
 90
    4
 70
    1
 43
0
 10
936
 20
-16
 10
961
 20
-16
 10
961
 20
-10
 10
936
 20
-10
  0
LWPOLYLINE
  5
A6
100
AcDbEntity
  8
brick
  6
ByLayer
 62
  256
370
   -1
100
AcDbPolyline
 90
    4
 70
    1
 43
0
 10
962
 20
-16
 10
987
 20
-16
 10
987
 20
-10
 10
962
 20
-10
  0
LWPOLYLINE
  5
A7
100
AcDbEntity
  8
brick
  6
ByLayer
 62
  256
370
   -1
100
AcDbPolyline
 90
    4
 70
    1
 43
0
 10
988
 20
-16
 10
1000
 20
-16
 10
1000
 20
-10
 10
988
 20
-10
  0
LWPOLYLINE
  5
A8
100
AcDbEntity
  8
brick
  6
ByLayer
 62
  256
370
   -1
100
AcDbPolyline
 90
    4
 70
    1
 43
0
 10
1016
 20
52
 10
1016
 20
77
 10
1010
 20
77
 10
1010
 20
52
  0
LWPOLYLINE
  5
A9
100
AcDbEntity
  8
brick
  6
ByLayer
 62
  256
370
   -1
100
AcDbPolyline
 90
    4
 70
    1
 43
0
 10
1016
 20
78
 10
1016
 20
103
 10
1010
 20
103
 10
1010
 20
78
  0
LWPOLYLINE
  5
AA
100
AcDbEntity
  8
brick
  6
ByLayer
 62
  256
370
   -1
100
AcDbPolyline
 90
    4
 70
    1
 43
0
 10
1016
 20
104
 10
1016
 20
129
 10
1010
 20
129
 10
1010
 20
104
  0
LWPOLYLINE
  5
AB
100
AcDbEntity
  8
brick
  6
ByLayer
 62
  256
370
   -1
100
AcDbPolyline
 90
    4
 70
    1
 43
0
 10
1016
 20
130
 10
1016
 20
155
 10
1010
 20
155
 10
1010
 20
130
  0
LWPOLYLINE
  5
AC
100
AcDbEntity
  8
brick
  6
ByLayer
 62
  256
370
   -1
100
AcDbPolyline
 90
    4
 70
    1
 43
0
 10
1016
 20
156
 10
1016
 20
181
 10
1010
 20
181
 10
1010
 20
156
  0
LWPOLYLINE
  5
AD
100
AcDbEntity
  8
brick
  6
ByLayer
 62
  256
370
   -1
100
AcDbPolyline
 90
    4
 70
    1
 43
0
 10
1016
 20
26
 10
1016
 20
51
 10
1010
 20
51
 10
1010
 20
26
  0
LWPOLYLINE
  5
AE
100
AcDbEntity
  8
brick
  6
ByLayer
 62
  256
370
   -1
100
AcDbPolyline
 90
    4
 70
    1
 43
0
 10
1016
 20
-3.673940397442059e-16
 10
1016
 20
25
 10
1010
 20
25
 10
1010
 20
0
  0
LWPOLYLINE
  5
AF
100
AcDbEntity
  8
brick
  6
ByLayer
 62
  256
370
   -1
100
AcDbPolyline
 90
    4
 70
    1
 43
0
 10
1016
 20
234
 10
1016
 20
259
 10
1010
 20
259
 10
1010
 20
234
  0
LWPOLYLINE
  5
B0
100
AcDbEntity
  8
brick
  6
ByLayer
 62
  256
370
   -1
100
AcDbPolyline
 90
    4
 70
    1
 43
0
 10
1016
 20
260
 10
1016
 20
285
 10
1010
 20
285
 10
1010
 20
260
  0
LWPOLYLINE
  5
B1
100
AcDbEntity
  8
brick
  6
ByLayer
 62
  256
370
   -1
100
AcDbPolyline
 90
    4
 70
    1
 43
0
 10
1016
 20
286
 10
1016
 20
311
 10
1010
 20
311
 10
1010
 20
286
  0
LWPOLYLINE
  5
B2
100
AcDbEntity
  8
brick
  6
ByLayer
 62
  256
370
   -1
100
AcDbPolyline
 90
    4
 70
    1
 43
0
 10
1016
 20
312
 10
1016
 20
337
 10
1010
 20
337
 10
1010
 20
312
  0
LWPOLYLINE
  5
B3
100
AcDbEntity
  8
brick
  6
ByLayer
 62
  256
370
   -1
100
AcDbPolyline
 90
    4
 70
    1
 43
0
 10
1016
 20
338
 10
1016
 20
363
 10
1010
 20
363
 10
1010
 20
338
  0
LWPOLYLINE
  5
B4
100
AcDbEntity
  8
brick
  6
ByLayer
 62
  256
370
   -1
100
AcDbPolyline
 90
    4
 70
    1
 43
0
 10
1016
 20
208
 10
1016
 20
233
 10
1010
 20
233
 10
1010
 20
208
  0
LWPOLYLINE
  5
B5
100
AcDbEntity
  8
brick
  6
ByLayer
 62
  256
370
   -1
100
AcDbPolyline
 90
    4
 70
    1
 43
0
 10
1016
 20
182
 10
1016
 20
207
 10
1010
 20
207
 10
1010
 20
182
  0
LWPOLYLINE
  5
B6
100
AcDbEntity
  8
brick
  6
ByLayer
 62
  256
370
   -1
100
AcDbPolyline
 90
    4
 70
    1
 43
0
 10
1016
 20
416
 10
1016
 20
441
 10
1010
 20
441
 10
1010
 20
416
  0
LWPOLYLINE
  5
B7
100
AcDbEntity
  8
brick
  6
ByLayer
 62
  256
370
   -1
100
AcDbPolyline
 90
    4
 70
    1
 43
0
 10
1016
 20
442
 10
1016
 20
467
 10
1010
 20
467
 10
1010
 20
442
  0
LWPOLYLINE
  5
B8
100
AcDbEntity
  8
brick
  6
ByLayer
 62
  256
370
   -1
100
AcDbPolyline
 90
    4
 70
    1
 43
0
 10
1016
 20
468
 10
1016
 20
493
 10
1010
 20
493
 10
1010
 20
468
  0
LWPOLYLINE
  5
B9
100
AcDbEntity
  8
brick
  6
ByLayer
 62
  256
370
   -1
100
AcDbPolyline
 90
    4
 70
    1
 43
0
 10
1016
 20
494
 10
1016
 20
519
 10
1010
 20
519
 10
1010
 20
494
  0
LWPOLYLINE
  5
BA
100
AcDbEntity
  8
brick
  6
ByLayer
 62
  256
370
   -1
100
AcDbPolyline
 90
    4
 70
    1
 43
0
 10
1016
 20
520
 10
1016
 20
545
 10
1010
 20
545
 10
1010
 20
520
  0
LWPOLYLINE
  5
BB
100
AcDbEntity
  8
brick
  6
ByLayer
 62
  256
370
   -1
100
AcDbPolyline
 90
    4
 70
    1
 43
0
 10
1016
 20
390
 10
1016
 20
415
 10
1010
 20
415
 10
1010
 20
390
  0
LWPOLYLINE
  5
BC
100
AcDbEntity
  8
brick
  6
ByLayer
 62
  256
370
   -1
100
AcDbPolyline
 90
    4
 70
    1
 43
0
 10
1016
 20
364
 10
1016
 20
389
 10
1010
 20
389
 10
1010
 20
364
  0
LWPOLYLINE
  5
BD
100
AcDbEntity
  8
brick
  6
ByLayer
 62
  256
370
   -1
100
AcDbPolyline
 90
    4
 70
    1
 43
0
 10
1016
 20
598
 10
1016
 20
623
 10
1010
 20
623
 10
1010
 20
598
  0
LWPOLYLINE
  5
BE
100
AcDbEntity
  8
brick
  6
ByLayer
 62
  256
370
   -1
100
AcDbPolyline
 90
    4
 70
    1
 43
0
 10
1016
 20
624
 10
1016
 20
649
 10
1010
 20
649
 10
1010
 20
624
  0
LWPOLYLINE
  5
BF
100
AcDbEntity
  8
brick
  6
ByLayer
 62
  256
370
   -1
100
AcDbPolyline
 90
    4
 70
    1
 43
0
 10
1016
 20
650
 10
1016
 20
675
 10
1010
 20
675
 10
1010
 20
650
  0
LWPOLYLINE
  5
C0
100
AcDbEntity
  8
brick
  6
ByLayer
 62
  256
370
   -1
100
AcDbPolyline
 90
    4
 70
    1
 43
0
 10
1016
 20
676
 10
1016
 20
701
 10
1010
 20
701
 10
1010
 20
676
  0
LWPOLYLINE
  5
C1
100
AcDbEntity
  8
brick
  6
ByLayer
 62
  256
370
   -1
100
AcDbPolyline
 90
    4
 70
    1
 43
0
 10
1016
 20
702
 10
1016
 20
727
 10
1010
 20
727
 10
1010
 20
702
  0
LWPOLYLINE
  5
C2
100
AcDbEntity
  8
brick
  6
ByLayer
 62
  256
370
   -1
100
AcDbPolyline
 90
    4
 70
    1
 43
0
 10
1016
 20
572
 10
1016
 20
597
 10
1010
 20
597
 10
1010
 20
572
  0
LWPOLYLINE
  5
C3
100
AcDbEntity
  8
brick
  6
ByLayer
 62
  256
370
   -1
100
AcDbPolyline
 90
    4
 70
    1
 43
0
 10
1016
 20
546
 10
1016
 20
571
 10
1010
 20
571
 10
1010
 20
546
  0
LWPOLYLINE
  5
C4
100
AcDbEntity
  8
brick
  6
ByLayer
 62
  256
370
   -1
100
AcDbPolyline
 90
    4
 70
    1
 43
0
 10
1016
 20
780
 10
1016
 20
805
 10
1010
 20
805
 10
1010
 20
780
  0
LWPOLYLINE
  5
C5
100
AcDbEntity
  8
brick
  6
ByLayer
 62
  256
370
   -1
100
AcDbPolyline
 90
    4
 70
    1
 43
0
 10
1016
 20
806
 10
1016
 20
831
 10
1010
 20
831
 10
1010
 20
806
  0
LWPOLYLINE
  5
C6
100
AcDbEntity
  8
brick
  6
ByLayer
 62
  256
370
   -1
100
AcDbPolyline
 90
    4
 70
    1
 43
0
 10
1016
 20
832
 10
1016
 20
857
 10
1010
 20
857
 10
1010
 20
832
  0
LWPOLYLINE
  5
C7
100
AcDbEntity
  8
brick
  6
ByLayer
 62
  256
370
   -1
100
AcDbPolyline
 90
    4
 70
    1
 43
0
 10
1016
 20
858
 10
1016
 20
883
 10
1010
 20
883
 10
1010
 20
858
  0
LWPOLYLINE
  5
C8
100
AcDbEntity
  8
brick
  6
ByLayer
 62
  256
370
   -1
100
AcDbPolyline
 90
    4
 70
    1
 43
0
 10
1016
 20
884
 10
1016
 20
909
 10
1010
 20
909
 10
1010
 20
884
  0
LWPOLYLINE
  5
C9
100
AcDbEntity
  8
brick
  6
ByLayer
 62
  256
370
   -1
100
AcDbPolyline
 90
    4
 70
    1
 43
0
 10
1016
 20
754
 10
1016
 20
779
 10
1010
 20
779
 10
1010
 20
754
  0
LWPOLYLINE
  5
CA
100
AcDbEntity
  8
brick
  6
ByLayer
 62
  256
370
   -1
100
AcDbPolyline
 90
    4
 70
    1
 43
0
 10
1016
 20
728
 10
1016
 20
753
 10
1010
 20
753
 10
1010
 20
728
  0
LWPOLYLINE
  5
CB
100
AcDbEntity
  8
brick
  6
ByLayer
 62
  256
370
   -1
100
AcDbPolyline
 90
    4
 70
    1
 43
0
 10
1016
 20
910
 10
1016
 20
935
 10
1010
 20
935
 10
1010
 20
910
  0
LWPOLYLINE
  5
CC
100
AcDbEntity
  8
brick
  6
ByLayer
 62
  256
370
   -1
100
AcDbPolyline
 90
    4
 70
    1
 43
0
 10
1016
 20
936
 10
1016
 20
961
 10
1010
 20
961
 10
1010
 20
936
  0
LWPOLYLINE
  5
CD
100
AcDbEntity
  8
brick
  6
ByLayer
 62
  256
370
   -1
100
AcDbPolyline
 90
    4
 70
    1
 43
0
 10
1016
 20
962
 10
1016
 20
987
 10
1010
 20
987
 10
1010
 20
962
  0
LWPOLYLINE
  5
CE
100
AcDbEntity
  8
brick
  6
ByLayer
 62
  256
370
   -1
100
AcDbPolyline
 90
    4
 70
    1
 43
0
 10
1016
 20
988
 10
1016
 20
1013
 10
1010
 20
1013
 10
1010
 20
988
  0
LWPOLYLINE
  5
CF
100
AcDbEntity
  8
brick
  6
ByLayer
 62
  256
370
   -1
100
AcDbPolyline
 90
    4
 70
    1
 43
0
 10
1016
 20
1014
 10
1016
 20
1039
 10
1010
 20
1039
 10
1010
 20
1014
  0
LWPOLYLINE
  5
D0
100
AcDbEntity
  8
brick
  6
ByLayer
 62
  256
370
   -1
100
AcDbPolyline
 90
    4
 70
    1
 43
0
 10
1016
 20
1040
 10
1016
 20
1052
 10
1010
 20
1052
 10
1010
 20
1040
  0
LWPOLYLINE
  5
D1
100
AcDbEntity
  8
brick
  6
ByLayer
 62
  256
370
   -1
100
AcDbPolyline
 90
    4
 70
    1
 43
0
 10
-10
 20
0
 10
-10
 20
12
 10
-16
 20
12
 10
-16
 20
3.673940397442059e-16
  0
LWPOLYLINE
  5
D2
100
AcDbEntity
  8
brick
  6
ByLayer
 62
  256
370
   -1
100
AcDbPolyline
 90
    4
 70
    1
 43
0
 10
-10
 20
65
 10
-10
 20
90
 10
-16
 20
90
 10
-16
 20
65
  0
LWPOLYLINE
  5
D3
100
AcDbEntity
  8
brick
  6
ByLayer
 62
  256
370
   -1
100
AcDbPolyline
 90
    4
 70
    1
 43
0
 10
-10
 20
91
 10
-10
 20
116
 10
-16
 20
116
 10
-16
 20
91
  0
LWPOLYLINE
  5
D4
100
AcDbEntity
  8
brick
  6
ByLayer
 62
  256
370
   -1
100
AcDbPolyline
 90
    4
 70
    1
 43
0
 10
-10
 20
117
 10
-10
 20
142
 10
-16
 20
142
 10
-16
 20
117
  0
LWPOLYLINE
  5
D5
100
AcDbEntity
  8
brick
  6
ByLayer
 62
  256
370
   -1
100
AcDbPolyline
 90
    4
 70
    1
 43
0
 10
-10
 20
143
 10
-10
 20
168
 10
-16
 20
168
 10
-16
 20
143
  0
LWPOLYLINE
  5
D6
100
AcDbEntity
  8
brick
  6
ByLayer
 62
  256
370
   -1
100
AcDbPolyline
 90
    4
 70
    1
 43
0
 10
-10
 20
169
 10
-10
 20
194
 10
-16
 20
194
 10
-16
 20
169
  0
LWPOLYLINE
  5
D7
100
AcDbEntity
  8
brick
  6
ByLayer
 62
  256
370
   -1
100
AcDbPolyline
 90
    4
 70
    1
 43
0
 10
-10
 20
39
 10
-10
 20
64
 10
-16
 20
64
 10
-16
 20
39
  0
LWPOLYLINE
  5
D8
100
AcDbEntity
  8
brick
  6
ByLayer
 62
  256
370
   -1
100
AcDbPolyline
 90
    4
 70
    1
 43
0
 10
-10
 20
13
 10
-10
 20
38
 10
-16
 20
38
 10
-16
 20
13
  0
LWPOLYLINE
  5
D9
100
AcDbEntity
  8
brick
  6
ByLayer
 62
  256
370
   -1
100
AcDbPolyline
 90
    4
 70
    1
 43
0
 10
-10
 20
247
 10
-10
 20
272
 10
-16
 20
272
 10
-16
 20
247
  0
LWPOLYLINE
  5
DA
100
AcDbEntity
  8
brick
  6
ByLayer
 62
  256
370
   -1
100
AcDbPolyline
 90
    4
 70
    1
 43
0
 10
-10
 20
273
 10
-10
 20
298
 10
-16
 20
298
 10
-16
 20
273
  0
LWPOLYLINE
  5
DB
100
AcDbEntity
  8
brick
  6
ByLayer
 62
  256
370
   -1
100
AcDbPolyline
 90
    4
 70
    1
 43
0
 10
-10
 20
299
 10
-10
 20
324
 10
-16
 20
324
 10
-16
 20
299
  0
LWPOLYLINE
  5
DC
100
AcDbEntity
  8
brick
  6
ByLayer
 62
  256
370
   -1
100
AcDbPolyline
 90
    4
 70
    1
 43
0
 10
-10
 20
325
 10
-10
 20
350
 10
-16
 20
350
 10
-16
 20
325
  0
LWPOLYLINE
  5
DD
100
AcDbEntity
  8
brick
  6
ByLayer
 62
  256
370
   -1
100
AcDbPolyline
 90
    4
 70
    1
 43
0
 10
-10
 20
351
 10
-10
 20
376
 10
-16
 20
376
 10
-16
 20
351
  0
LWPOLYLINE
  5
DE
100
AcDbEntity
  8
brick
  6
ByLayer
 62
  256
370
   -1
100
AcDbPolyline
 90
    4
 70
    1
 43
0
 10
-10
 20
221
 10
-10
 20
246
 10
-16
 20
246
 10
-16
 20
221
  0
LWPOLYLINE
  5
DF
100
AcDbEntity
  8
brick
  6
ByLayer
 62
  256
370
   -1
100
AcDbPolyline
 90
    4
 70
    1
 43
0
 10
-10
 20
195
 10
-10
 20
220
 10
-16
 20
220
 10
-16
 20
195
  0
LWPOLYLINE
  5
E0
100
AcDbEntity
  8
brick
  6
ByLayer
 62
  256
370
   -1
100
AcDbPolyline
 90
    4
 70
    1
 43
0
 10
-10
 20
429
 10
-10
 20
454
 10
-16
 20
454
 10
-16
 20
429
  0
LWPOLYLINE
  5
E1
100
AcDbEntity
  8
brick
  6
ByLayer
 62
  256
370
   -1
100
AcDbPolyline
 90
    4
 70
    1
 43
0
 10
-10
 20
455
 10
-10
 20
480
 10
-16
 20
480
 10
-16
 20
455
  0
LWPOLYLINE
  5
E2
100
AcDbEntity
  8
brick
  6
ByLayer
 62
  256
370
   -1
100
AcDbPolyline
 90
    4
 70
    1
 43
0
 10
-10
 20
481
 10
-10
 20
506
 10
-16
 20
506
 10
-16
 20
481
  0
LWPOLYLINE
  5
E3
100
AcDbEntity
  8
brick
  6
ByLayer
 62
  256
370
   -1
100
AcDbPolyline
 90
    4
 70
    1
 43
0
 10
-10
 20
507
 10
-10
 20
532
 10
-16
 20
532
 10
-16
 20
507
  0
LWPOLYLINE
  5
E4
100
AcDbEntity
  8
brick
  6
ByLayer
 62
  256
370
   -1
100
AcDbPolyline
 90
    4
 70
    1
 43
0
 10
-10
 20
533
 10
-10
 20
558
 10
-16
 20
558
 10
-16
 20
533
  0
LWPOLYLINE
  5
E5
100
AcDbEntity
  8
brick
  6
ByLayer
 62
  256
370
   -1
100
AcDbPolyline
 90
    4
 70
    1
 43
0
 10
-10
 20
403
 10
-10
 20
428
 10
-16
 20
428
 10
-16
 20
403
  0
LWPOLYLINE
  5
E6
100
AcDbEntity
  8
brick
  6
ByLayer
 62
  256
370
   -1
100
AcDbPolyline
 90
    4
 70
    1
 43
0
 10
-10
 20
377
 10
-10
 20
402
 10
-16
 20
402
 10
-16
 20
377
  0
LWPOLYLINE
  5
E7
100
AcDbEntity
  8
brick
  6
ByLayer
 62
  256
370
   -1
100
AcDbPolyline
 90
    4
 70
    1
 43
0
 10
-10
 20
611
 10
-10
 20
636
 10
-16
 20
636
 10
-16
 20
611
  0
LWPOLYLINE
  5
E8
100
AcDbEntity
  8
brick
  6
ByLayer
 62
  256
370
   -1
100
AcDbPolyline
 90
    4
 70
    1
 43
0
 10
-10
 20
637
 10
-10
 20
662
 10
-16
 20
662
 10
-16
 20
637
  0
LWPOLYLINE
  5
E9
100
AcDbEntity
  8
brick
  6
ByLayer
 62
  256
370
   -1
100
AcDbPolyline
 90
    4
 70
    1
 43
0
 10
-10
 20
663
 10
-10
 20
688
 10
-16
 20
688
 10
-16
 20
663
  0
LWPOLYLINE
  5
EA
100
AcDbEntity
  8
brick
  6
ByLayer
 62
  256
370
   -1
100
AcDbPolyline
 90
    4
 70
    1
 43
0
 10
-10
 20
689
 10
-10
 20
714
 10
-16
 20
714
 10
-16
 20
689
  0
LWPOLYLINE
  5
EB
100
AcDbEntity
  8
brick
  6
ByLayer
 62
  256
370
   -1
100
AcDbPolyline
 90
    4
 70
    1
 43
0
 10
-10
 20
715
 10
-10
 20
740
 10
-16
 20
740
 10
-16
 20
715
  0
LWPOLYLINE
  5
EC
100
AcDbEntity
  8
brick
  6
ByLayer
 62
  256
370
   -1
100
AcDbPolyline
 90
    4
 70
    1
 43
0
 10
-10
 20
585
 10
-10
 20
610
 10
-16
 20
610
 10
-16
 20
585
  0
LWPOLYLINE
  5
ED
100
AcDbEntity
  8
brick
  6
ByLayer
 62
  256
370
   -1
100
AcDbPolyline
 90
    4
 70
    1
 43
0
 10
-10
 20
559
 10
-10
 20
584
 10
-16
 20
584
 10
-16
 20
559
  0
LWPOLYLINE
  5
EE
100
AcDbEntity
  8
brick
  6
ByLayer
 62
  256
370
   -1
100
AcDbPolyline
 90
    4
 70
    1
 43
0
 10
-10
 20
793
 10
-10
 20
818
 10
-16
 20
818
 10
-16
 20
793
  0
LWPOLYLINE
  5
EF
100
AcDbEntity
  8
brick
  6
ByLayer
 62
  256
370
   -1
100
AcDbPolyline
 90
    4
 70
    1
 43
0
 10
-10
 20
819
 10
-10
 20
844
 10
-16
 20
844
 10
-16
 20
819
  0
LWPOLYLINE
  5
F0
100
AcDbEntity
  8
brick
  6
ByLayer
 62
  256
370
   -1
100
AcDbPolyline
 90
    4
 70
    1
 43
0
 10
-10
 20
845
 10
-10
 20
870
 10
-16
 20
870
 10
-16
 20
845
  0
LWPOLYLINE
  5
F1
100
AcDbEntity
  8
brick
  6
ByLayer
 62
  256
370
   -1
100
AcDbPolyline
 90
    4
 70
    1
 43
0
 10
-10
 20
871
 10
-10
 20
896
 10
-16
 20
896
 10
-16
 20
871
  0
LWPOLYLINE
  5
F2
100
AcDbEntity
  8
brick
  6
ByLayer
 62
  256
370
   -1
100
AcDbPolyline
 90
    4
 70
    1
 43
0
 10
-10
 20
897
 10
-10
 20
922
 10
-16
 20
922
 10
-16
 20
897
  0
LWPOLYLINE
  5
F3
100
AcDbEntity
  8
brick
  6
ByLayer
 62
  256
370
   -1
100
AcDbPolyline
 90
    4
 70
    1
 43
0
 10
-10
 20
767
 10
-10
 20
792
 10
-16
 20
792
 10
-16
 20
767
  0
LWPOLYLINE
  5
F4
100
AcDbEntity
  8
brick
  6
ByLayer
 62
  256
370
   -1
100
AcDbPolyline
 90
    4
 70
    1
 43
0
 10
-10
 20
741
 10
-10
 20
766
 10
-16
 20
766
 10
-16
 20
741
  0
LWPOLYLINE
  5
F5
100
AcDbEntity
  8
brick
  6
ByLayer
 62
  256
370
   -1
100
AcDbPolyline
 90
    4
 70
    1
 43
0
 10
-10
 20
923
 10
-10
 20
948
 10
-16
 20
948
 10
-16
 20
923
  0
LWPOLYLINE
  5
F6
100
AcDbEntity
  8
brick
  6
ByLayer
 62
  256
370
   -1
100
AcDbPolyline
 90
    4
 70
    1
 43
0
 10
-10
 20
949
 10
-10
 20
974
 10
-16
 20
974
 10
-16
 20
949
  0
LWPOLYLINE
  5
F7
100
AcDbEntity
  8
brick
  6
ByLayer
 62
  256
370
   -1
100
AcDbPolyline
 90
    4
 70
    1
 43
0
 10
-10
 20
975
 10
-10
 20
1000
 10
-16
 20
1000
 10
-16
 20
975
  0
LWPOLYLINE
  5
F8
100
AcDbEntity
  8
brick
  6
ByLayer
 62
  256
370
   -1
100
AcDbPolyline
 90
    4
 70
    1
 43
0
 10
-10
 20
1001
 10
-10
 20
1026
 10
-16
 20
1026
 10
-16
 20
1001
  0
LWPOLYLINE
  5
F9
100
AcDbEntity
  8
brick
  6
ByLayer
 62
  256
370
   -1
100
AcDbPolyline
 90
    4
 70
    1
 43
0
 10
-10
 20
1027
 10
-10
 20
1052
 10
-16
 20
1052
 10
-16
 20
1027
  0
LWPOLYLINE
  5
FA
100
AcDbEntity
  8
brick
  6
ByLayer
 62
  256
370
   -1
100
AcDbPolyline
 90
    4
 70
    1
 43
0
 10
65
 20
1062
 10
90
 20
1062
 10
90
 20
1068
 10
65
 20
1068
  0
LWPOLYLINE
  5
FB
100
AcDbEntity
  8
brick
  6
ByLayer
 62
  256
370
   -1
100
AcDbPolyline
 90
    4
 70
    1
 43
0
 10
91
 20
1062
 10
116
 20
1062
 10
116
 20
1068
 10
91
 20
1068
  0
LWPOLYLINE
  5
FC
100
AcDbEntity
  8
brick
  6
ByLayer
 62
  256
370
   -1
100
AcDbPolyline
 90
    4
 70
    1
 43
0
 10
117
 20
1062
 10
142
 20
1062
 10
142
 20
1068
 10
117
 20
1068
  0
LWPOLYLINE
  5
FD
100
AcDbEntity
  8
brick
  6
ByLayer
 62
  256
370
   -1
100
AcDbPolyline
 90
    4
 70
    1
 43
0
 10
143
 20
1062
 10
168
 20
1062
 10
168
 20
1068
 10
143
 20
1068
  0
LWPOLYLINE
  5
FE
100
AcDbEntity
  8
brick
  6
ByLayer
 62
  256
370
   -1
100
AcDbPolyline
 90
    4
 70
    1
 43
0
 10
169
 20
1062
 10
194
 20
1062
 10
194
 20
1068
 10
169
 20
1068
  0
LWPOLYLINE
  5
FF
100
AcDbEntity
  8
brick
  6
ByLayer
 62
  256
370
   -1
100
AcDbPolyline
 90
    4
 70
    1
 43
0
 10
39
 20
1062
 10
64
 20
1062
 10
64
 20
1068
 10
39
 20
1068
  0
LWPOLYLINE
  5
100
100
AcDbEntity
  8
brick
  6
ByLayer
 62
  256
370
   -1
100
AcDbPolyline
 90
    4
 70
    1
 43
0
 10
13
 20
1062
 10
38
 20
1062
 10
38
 20
1068
 10
13
 20
1068
  0
LWPOLYLINE
  5
101
100
AcDbEntity
  8
brick
  6
ByLayer
 62
  256
370
   -1
100
AcDbPolyline
 90
    4
 70
    1
 43
0
 10
247
 20
1062
 10
272
 20
1062
 10
272
 20
1068
 10
247
 20
1068
  0
LWPOLYLINE
  5
102
100
AcDbEntity
  8
brick
  6
ByLayer
 62
  256
370
   -1
100
AcDbPolyline
 90
    4
 70
    1
 43
0
 10
273
 20
1062
 10
298
 20
1062
 10
298
 20
1068
 10
273
 20
1068
  0
LWPOLYLINE
  5
103
100
AcDbEntity
  8
brick
  6
ByLayer
 62
  256
370
   -1
100
AcDbPolyline
 90
    4
 70
    1
 43
0
 10
299
 20
1062
 10
324
 20
1062
 10
324
 20
1068
 10
299
 20
1068
  0
LWPOLYLINE
  5
104
100
AcDbEntity
  8
brick
  6
ByLayer
 62
  256
370
   -1
100
AcDbPolyline
 90
    4
 70
    1
 43
0
 10
325
 20
1062
 10
350
 20
1062
 10
350
 20
1068
 10
325
 20
1068
  0
LWPOLYLINE
  5
105
100
AcDbEntity
  8
brick
  6
ByLayer
 62
  256
370
   -1
100
AcDbPolyline
 90
    4
 70
    1
 43
0
 10
351
 20
1062
 10
376
 20
1062
 10
376
 20
1068
 10
351
 20
1068
  0
LWPOLYLINE
  5
106
100
AcDbEntity
  8
brick
  6
ByLayer
 62
  256
370
   -1
100
AcDbPolyline
 90
    4
 70
    1
 43
0
 10
221
 20
1062
 10
246
 20
1062
 10
246
 20
1068
 10
221
 20
1068
  0
LWPOLYLINE
  5
107
100
AcDbEntity
  8
brick
  6
ByLayer
 62
  256
370
   -1
100
AcDbPolyline
 90
    4
 70
    1
 43
0
 10
195
 20
1062
 10
220
 20
1062
 10
220
 20
1068
 10
195
 20
1068
  0
LWPOLYLINE
  5
108
100
AcDbEntity
  8
brick
  6
ByLayer
 62
  256
370
   -1
100
AcDbPolyline
 90
    4
 70
    1
 43
0
 10
429
 20
1062
 10
454
 20
1062
 10
454
 20
1068
 10
429
 20
1068
  0
LWPOLYLINE
  5
109
100
AcDbEntity
  8
brick
  6
ByLayer
 62
  256
370
   -1
100
AcDbPolyline
 90
    4
 70
    1
 43
0
 10
455
 20
1062
 10
480
 20
1062
 10
480
 20
1068
 10
455
 20
1068
  0
LWPOLYLINE
  5
10A
100
AcDbEntity
  8
brick
  6
ByLayer
 62
  256
370
   -1
100
AcDbPolyline
 90
    4
 70
    1
 43
0
 10
481
 20
1062
 10
506
 20
1062
 10
506
 20
1068
 10
481
 20
1068
  0
LWPOLYLINE
  5
10B
100
AcDbEntity
  8
brick
  6
ByLayer
 62
  256
370
   -1
100
AcDbPolyline
 90
    4
 70
    1
 43
0
 10
507
 20
1062
 10
532
 20
1062
 10
532
 20
1068
 10
507
 20
1068
  0
LWPOLYLINE
  5
10C
100
AcDbEntity
  8
brick
  6
ByLayer
 62
  256
370
   -1
100
AcDbPolyline
 90
    4
 70
    1
 43
0
 10
533
 20
1062
 10
558
 20
1062
 10
558
 20
1068
 10
533
 20
1068
  0
LWPOLYLINE
  5
10D
100
AcDbEntity
  8
brick
  6
ByLayer
 62
  256
370
   -1
100
AcDbPolyline
 90
    4
 70
    1
 43
0
 10
403
 20
1062
 10
428
 20
1062
 10
428
 20
1068
 10
403
 20
1068
  0
LWPOLYLINE
  5
10E
100
AcDbEntity
  8
brick
  6
ByLayer
 62
  256
370
   -1
100
AcDbPolyline
 90
    4
 70
    1
 43
0
 10
377
 20
1062
 10
402
 20
1062
 10
402
 20
1068
 10
377
 20
1068
  0
LWPOLYLINE
  5
10F
100
AcDbEntity
  8
brick
  6
ByLayer
 62
  256
370
   -1
100
AcDbPolyline
 90
    4
 70
    1
 43
0
 10
611
 20
1062
 10
636
 20
1062
 10
636
 20
1068
 10
611
 20
1068
  0
LWPOLYLINE
  5
110
100
AcDbEntity
  8
brick
  6
ByLayer
 62
  256
370
   -1
100
AcDbPolyline
 90
    4
 70
    1
 43
0
 10
637
 20
1062
 10
662
 20
1062
 10
662
 20
1068
 10
637
 20
1068
  0
LWPOLYLINE
  5
111
100
AcDbEntity
  8
brick
  6
ByLayer
 62
  256
370
   -1
100
AcDbPolyline
 90
    4
 70
    1
 43
0
 10
663
 20
1062
 10
688
 20
1062
 10
688
 20
1068
 10
663
 20
1068
  0
LWPOLYLINE
  5
112
100
AcDbEntity
  8
brick
  6
ByLayer
 62
  256
370
   -1
100
AcDbPolyline
 90
    4
 70
    1
 43
0
 10
689
 20
1062
 10
714
 20
1062
 10
714
 20
1068
 10
689
 20
1068
  0
LWPOLYLINE
  5
113
100
AcDbEntity
  8
brick
  6
ByLayer
 62
  256
370
   -1
100
AcDbPolyline
 90
    4
 70
    1
 43
0
 10
715
 20
1062
 10
740
 20
1062
 10
740
 20
1068
 10
715
 20
1068
  0
LWPOLYLINE
  5
114
100
AcDbEntity
  8
brick
  6
ByLayer
 62
  256
370
   -1
100
AcDbPolyline
 90
    4
 70
    1
 43
0
 10
585
 20
1062
 10
610
 20
1062
 10
610
 20
1068
 10
585
 20
1068
  0
LWPOLYLINE
  5
115
100
AcDbEntity
  8
brick
  6
ByLayer
 62
  256
370
   -1
100
AcDbPolyline
 90
    4
 70
    1
 43
0
 10
559
 20
1062
 10
584
 20
1062
 10
584
 20
1068
 10
559
 20
1068
  0
LWPOLYLINE
  5
116
100
AcDbEntity
  8
brick
  6
ByLayer
 62
  256
370
   -1
100
AcDbPolyline
 90
    4
 70
    1
 43
0
 10
793
 20
1062
 10
818
 20
1062
 10
818
 20
1068
 10
793
 20
1068
  0
LWPOLYLINE
  5
117
100
AcDbEntity
  8
brick
  6
ByLayer
 62
  256
370
   -1
100
AcDbPolyline
 90
    4
 70
    1
 43
0
 10
819
 20
1062
 10
844
 20
1062
 10
844
 20
1068
 10
819
 20
1068
  0
LWPOLYLINE
  5
118
100
AcDbEntity
  8
brick
  6
ByLayer
 62
  256
370
   -1
100
AcDbPolyline
 90
    4
 70
    1
 43
0
 10
845
 20
1062
 10
870
 20
1062
 10
870
 20
1068
 10
845
 20
1068
  0
LWPOLYLINE
  5
119
100
AcDbEntity
  8
brick
  6
ByLayer
 62
  256
370
   -1
100
AcDbPolyline
 90
    4
 70
    1
 43
0
 10
871
 20
1062
 10
896
 20
1062
 10
896
 20
1068
 10
871
 20
1068
  0
LWPOLYLINE
  5
11A
100
AcDbEntity
  8
brick
  6
ByLayer
 62
  256
370
   -1
100
AcDbPolyline
 90
    4
 70
    1
 43
0
 10
897
 20
1062
 10
922
 20
1062
 10
922
 20
1068
 10
897
 20
1068
  0
LWPOLYLINE
  5
11B
100
AcDbEntity
  8
brick
  6
ByLayer
 62
  256
370
   -1
100
AcDbPolyline
 90
    4
 70
    1
 43
0
 10
767
 20
1062
 10
792
 20
1062
 10
792
 20
1068
 10
767
 20
1068
  0
LWPOLYLINE
  5
11C
100
AcDbEntity
  8
brick
  6
ByLayer
 62
  256
370
   -1
100
AcDbPolyline
 90
    4
 70
    1
 43
0
 10
741
 20
1062
 10
766
 20
1062
 10
766
 20
1068
 10
741
 20
1068
  0
LWPOLYLINE
  5
11D
100
AcDbEntity
  8
brick
  6
ByLayer
 62
  256
370
   -1
100
AcDbPolyline
 90
    4
 70
    1
 43
0
 10
923
 20
1062
 10
948
 20
1062
 10
948
 20
1068
 10
923
 20
1068
  0
LWPOLYLINE
  5
11E
100
AcDbEntity
  8
brick
  6
ByLayer
 62
  256
370
   -1
100
AcDbPolyline
 90
    4
 70
    1
 43
0
 10
949
 20
1062
 10
974
 20
1062
 10
974
 20
1068
 10
949
 20
1068
  0
LWPOLYLINE
  5
11F
100
AcDbEntity
  8
brick
  6
ByLayer
 62
  256
370
   -1
100
AcDbPolyline
 90
    4
 70
    1
 43
0
 10
975
 20
1062
 10
1000
 20
1062
 10
1000
 20
1068
 10
975
 20
1068
  0
LWPOLYLINE
  5
120
100
AcDbEntity
  8
brick
  6
ByLayer
 62
  256
370
   -1
100
AcDbPolyline
 90
    4
 70
    1
 43
0
 10
0
 20
1062
 10
12
 20
1062
 10
12
 20
1068
 10
0
 20
1068
  0
LINE
  5
121
100
AcDbEntity
  8
dimensions
  6
DASHDOT2
 62
  256
370
   -1
100
AcDbLine
 10
942.5
 20
1004.5
 11
942.5
 21
984.5
  0
LINE
  5
122
100
AcDbEntity
  8
dimensions
  6
DASHDOT2
 62
  256
370
   -1
100
AcDbLine
 10
932.5
 20
994.5
 11
952.5
 21
994.5
  0
LWPOLYLINE
  5
123
100
AcDbEntity
  8
gazoblok
  6
ByLayer
 62
  256
370
   -1
100
AcDbPolyline
 90
    4
 70
    1
 43
0
 10
1417
 20
1035
 10
2383
 20
1035
 10
2383
 20
17
 10
1417
 20
17
  0
LWPOLYLINE
  5
124
100
AcDbEntity
  8
gazoblok
  6
ByLayer
 62
  256
370
   -1
100
AcDbPolyline
 90
    4
 70
    1
 43
0
 10
1447
 20
47
 10
2353
 20
47
 10
2353
 20
1005
 10
1447
 20
1005
  0
LWPOLYLINE
  5
125
100
AcDbEntity
  8
face
  6
ByLayer
 62
  256
370
   -1
100
AcDbPolyline
 90
    4
 70
    1
 43
0
 10
1412
 20
1040
 10
2388
 20
1040
 10
2388
 20
12
 10
1412
 20
12
  0
LWPOLYLINE
  5
126
100
AcDbEntity
  8
face
  6
ByLayer
 62
  256
370
   -1
100
AcDbPolyline
 90
    4
 70
    1
 43
0
 10
1400
 20
1052
 10
2400.000000000001
 20
1052
 10
2400
 20
8.881784197001252e-16
 10
1400
 20
8.881784197001252e-16
  0
LWPOLYLINE
  5
127
100
AcDbEntity
  8
brick
  6
ByLayer
 62
  256
370
   -1
100
AcDbPolyline
 90
    4
 70
    1
 43
0
 10
1452
 20
-16
 10
1477
 20
-16
 10
1477
 20
-10
 10
1452
 20
-10
  0
LWPOLYLINE
  5
128
100
AcDbEntity
  8
brick
  6
ByLayer
 62
  256
370
   -1
100
AcDbPolyline
 90
    4
 70
    1
 43
0
 10
1478
 20
-16
 10
1503
 20
-16
 10
1503
 20
-10
 10
1478
 20
-10
  0
LWPOLYLINE
  5
129
100
AcDbEntity
  8
brick
  6
ByLayer
 62
  256
370
   -1
100
AcDbPolyline
 90
    4
 70
    1
 43
0
 10
1504
 20
-16
 10
1529
 20
-16
 10
1529
 20
-10
 10
1504
 20
-10
  0
LWPOLYLINE
  5
12A
100
AcDbEntity
  8
brick
  6
ByLayer
 62
  256
370
   -1
100
AcDbPolyline
 90
    4
 70
    1
 43
0
 10
1530
 20
-16
 10
1555
 20
-16
 10
1555
 20
-10
 10
1530
 20
-10
  0
LWPOLYLINE
  5
12B
100
AcDbEntity
  8
brick
  6
ByLayer
 62
  256
370
   -1
100
AcDbPolyline
 90
    4
 70
    1
 43
0
 10
1556
 20
-16
 10
1581
 20
-16
 10
1581
 20
-10
 10
1556
 20
-10
  0
LWPOLYLINE
  5
12C
100
AcDbEntity
  8
brick
  6
ByLayer
 62
  256
370
   -1
100
AcDbPolyline
 90
    4
 70
    1
 43
0
 10
1426
 20
-16
 10
1451
 20
-16
 10
1451
 20
-10
 10
1426
 20
-10
  0
LWPOLYLINE
  5
12D
100
AcDbEntity
  8
brick
  6
ByLayer
 62
  256
370
   -1
100
AcDbPolyline
 90
    4
 70
    1
 43
0
 10
1400
 20
-16
 10
1425
 20
-16
 10
1425
 20
-10
 10
1400
 20
-10
  0
LWPOLYLINE
  5
12E
100
AcDbEntity
  8
brick
  6
ByLayer
 62
  256
370
   -1
100
AcDbPolyline
 90
    4
 70
    1
 43
0
 10
1634
 20
-16
 10
1659
 20
-16
 10
1659
 20
-10
 10
1634
 20
-10
  0
LWPOLYLINE
  5
12F
100
AcDbEntity
  8
brick
  6
ByLayer
 62
  256
370
   -1
100
AcDbPolyline
 90
    4
 70
    1
 43
0
 10
1660
 20
-16
 10
1685
 20
-16
 10
1685
 20
-10
 10
1660
 20
-10
  0
LWPOLYLINE
  5
130
100
AcDbEntity
  8
brick
  6
ByLayer
 62
  256
370
   -1
100
AcDbPolyline
 90
    4
 70
    1
 43
0
 10
1686
 20
-16
 10
1711
 20
-16
 10
1711
 20
-10
 10
1686
 20
-10
  0
LWPOLYLINE
  5
131
100
AcDbEntity
  8
brick
  6
ByLayer
 62
  256
370
   -1
100
AcDbPolyline
 90
    4
 70
    1
 43
0
 10
1712
 20
-16
 10
1737
 20
-16
 10
1737
 20
-10
 10
1712
 20
-10
  0
LWPOLYLINE
  5
132
100
AcDbEntity
  8
brick
  6
ByLayer
 62
  256
370
   -1
100
AcDbPolyline
 90
    4
 70
    1
 43
0
 10
1738
 20
-16
 10
1763
 20
-16
 10
1763
 20
-10
 10
1738
 20
-10
  0
LWPOLYLINE
  5
133
100
AcDbEntity
  8
brick
  6
ByLayer
 62
  256
370
   -1
100
AcDbPolyline
 90
    4
 70
    1
 43
0
 10
1608
 20
-16
 10
1633
 20
-16
 10
1633
 20
-10
 10
1608
 20
-10
  0
LWPOLYLINE
  5
134
100
AcDbEntity
  8
brick
  6
ByLayer
 62
  256
370
   -1
100
AcDbPolyline
 90
    4
 70
    1
 43
0
 10
1582
 20
-16
 10
1607
 20
-16
 10
1607
 20
-10
 10
1582
 20
-10
  0
LWPOLYLINE
  5
135
100
AcDbEntity
  8
brick
  6
ByLayer
 62
  256
370
   -1
100
AcDbPolyline
 90
    4
 70
    1
 43
0
 10
1816
 20
-16
 10
1841
 20
-16
 10
1841
 20
-10
 10
1816
 20
-10
  0
LWPOLYLINE
  5
136
100
AcDbEntity
  8
brick
  6
ByLayer
 62
  256
370
   -1
100
AcDbPolyline
 90
    4
 70
    1
 43
0
 10
1842
 20
-16
 10
1867
 20
-16
 10
1867
 20
-10
 10
1842
 20
-10
  0
LWPOLYLINE
  5
137
100
AcDbEntity
  8
brick
  6
ByLayer
 62
  256
370
   -1
100
AcDbPolyline
 90
    4
 70
    1
 43
0
 10
1868
 20
-16
 10
1893
 20
-16
 10
1893
 20
-10
 10
1868
 20
-10
  0
LWPOLYLINE
  5
138
100
AcDbEntity
  8
brick
  6
ByLayer
 62
  256
370
   -1
100
AcDbPolyline
 90
    4
 70
    1
 43
0
 10
1894
 20
-16
 10
1919
 20
-16
 10
1919
 20
-10
 10
1894
 20
-10
  0
LWPOLYLINE
  5
139
100
AcDbEntity
  8
brick
  6
ByLayer
 62
  256
370
   -1
100
AcDbPolyline
 90
    4
 70
    1
 43
0
 10
1920
 20
-16
 10
1945
 20
-16
 10
1945
 20
-10
 10
1920
 20
-10
  0
LWPOLYLINE
  5
13A
100
AcDbEntity
  8
brick
  6
ByLayer
 62
  256
370
   -1
100
AcDbPolyline
 90
    4
 70
    1
 43
0
 10
1790
 20
-16
 10
1815
 20
-16
 10
1815
 20
-10
 10
1790
 20
-10
  0
LWPOLYLINE
  5
13B
100
AcDbEntity
  8
brick
  6
ByLayer
 62
  256
370
   -1
100
AcDbPolyline
 90
    4
 70
    1
 43
0
 10
1764
 20
-16
 10
1789
 20
-16
 10
1789
 20
-10
 10
1764
 20
-10
  0
LWPOLYLINE
  5
13C
100
AcDbEntity
  8
brick
  6
ByLayer
 62
  256
370
   -1
100
AcDbPolyline
 90
    4
 70
    1
 43
0
 10
1998
 20
-16
 10
2023
 20
-16
 10
2023
 20
-10
 10
1998
 20
-10
  0
LWPOLYLINE
  5
13D
100
AcDbEntity
  8
brick
  6
ByLayer
 62
  256
370
   -1
100
AcDbPolyline
 90
    4
 70
    1
 43
0
 10
2024
 20
-16
 10
2049
 20
-16
 10
2049
 20
-10
 10
2024
 20
-10
  0
LWPOLYLINE
  5
13E
100
AcDbEntity
  8
brick
  6
ByLayer
 62
  256
370
   -1
100
AcDbPolyline
 90
    4
 70
    1
 43
0
 10
2050
 20
-16
 10
2075
 20
-16
 10
2075
 20
-10
 10
2050
 20
-10
  0
LWPOLYLINE
  5
13F
100
AcDbEntity
  8
brick
  6
ByLayer
 62
  256
370
   -1
100
AcDbPolyline
 90
    4
 70
    1
 43
0
 10
2076
 20
-16
 10
2101
 20
-16
 10
2101
 20
-10
 10
2076
 20
-10
  0
LWPOLYLINE
  5
140
100
AcDbEntity
  8
brick
  6
ByLayer
 62
  256
370
   -1
100
AcDbPolyline
 90
    4
 70
    1
 43
0
 10
2102
 20
-16
 10
2127
 20
-16
 10
2127
 20
-10
 10
2102
 20
-10
  0
LWPOLYLINE
  5
141
100
AcDbEntity
  8
brick
  6
ByLayer
 62
  256
370
   -1
100
AcDbPolyline
 90
    4
 70
    1
 43
0
 10
1972
 20
-16
 10
1997
 20
-16
 10
1997
 20
-10
 10
1972
 20
-10
  0
LWPOLYLINE
  5
142
100
AcDbEntity
  8
brick
  6
ByLayer
 62
  256
370
   -1
100
AcDbPolyline
 90
    4
 70
    1
 43
0
 10
1946
 20
-16
 10
1971
 20
-16
 10
1971
 20
-10
 10
1946
 20
-10
  0
LWPOLYLINE
  5
143
100
AcDbEntity
  8
brick
  6
ByLayer
 62
  256
370
   -1
100
AcDbPolyline
 90
    4
 70
    1
 43
0
 10
2180
 20
-16
 10
2205
 20
-16
 10
2205
 20
-10
 10
2180
 20
-10
  0
LWPOLYLINE
  5
144
100
AcDbEntity
  8
brick
  6
ByLayer
 62
  256
370
   -1
100
AcDbPolyline
 90
    4
 70
    1
 43
0
 10
2206
 20
-16
 10
2231
 20
-16
 10
2231
 20
-10
 10
2206
 20
-10
  0
LWPOLYLINE
  5
145
100
AcDbEntity
  8
brick
  6
ByLayer
 62
  256
370
   -1
100
AcDbPolyline
 90
    4
 70
    1
 43
0
 10
2232
 20
-16
 10
2257
 20
-16
 10
2257
 20
-10
 10
2232
 20
-10
  0
LWPOLYLINE
  5
146
100
AcDbEntity
  8
brick
  6
ByLayer
 62
  256
370
   -1
100
AcDbPolyline
 90
    4
 70
    1
 43
0
 10
2258
 20
-16
 10
2283
 20
-16
 10
2283
 20
-10
 10
2258
 20
-10
  0
LWPOLYLINE
  5
147
100
AcDbEntity
  8
brick
  6
ByLayer
 62
  256
370
   -1
100
AcDbPolyline
 90
    4
 70
    1
 43
0
 10
2284
 20
-16
 10
2309
 20
-16
 10
2309
 20
-10
 10
2284
 20
-10
  0
LWPOLYLINE
  5
148
100
AcDbEntity
  8
brick
  6
ByLayer
 62
  256
370
   -1
100
AcDbPolyline
 90
    4
 70
    1
 43
0
 10
2154
 20
-16
 10
2179
 20
-16
 10
2179
 20
-10
 10
2154
 20
-10
  0
LWPOLYLINE
  5
149
100
AcDbEntity
  8
brick
  6
ByLayer
 62
  256
370
   -1
100
AcDbPolyline
 90
    4
 70
    1
 43
0
 10
2128
 20
-16
 10
2153
 20
-16
 10
2153
 20
-10
 10
2128
 20
-10
  0
LWPOLYLINE
  5
14A
100
AcDbEntity
  8
brick
  6
ByLayer
 62
  256
370
   -1
100
AcDbPolyline
 90
    4
 70
    1
 43
0
 10
2310
 20
-16
 10
2335
 20
-16
 10
2335
 20
-10
 10
2310
 20
-10
  0
LWPOLYLINE
  5
14B
100
AcDbEntity
  8
brick
  6
ByLayer
 62
  256
370
   -1
100
AcDbPolyline
 90
    4
 70
    1
 43
0
 10
2336
 20
-16
 10
2361
 20
-16
 10
2361
 20
-10
 10
2336
 20
-10
  0
LWPOLYLINE
  5
14C
100
AcDbEntity
  8
brick
  6
ByLayer
 62
  256
370
   -1
100
AcDbPolyline
 90
    4
 70
    1
 43
0
 10
2362
 20
-16
 10
2387
 20
-16
 10
2387
 20
-10
 10
2362
 20
-10
  0
LWPOLYLINE
  5
14D
100
AcDbEntity
  8
brick
  6
ByLayer
 62
  256
370
   -1
100
AcDbPolyline
 90
    4
 70
    1
 43
0
 10
2388
 20
-16
 10
2400
 20
-16
 10
2400
 20
-10
 10
2388
 20
-10
  0
LWPOLYLINE
  5
14E
100
AcDbEntity
  8
brick
  6
ByLayer
 62
  256
370
   -1
100
AcDbPolyline
 90
    4
 70
    1
 43
0
 10
2416
 20
52
 10
2416
 20
77
 10
2410
 20
77
 10
2410
 20
52
  0
LWPOLYLINE
  5
14F
100
AcDbEntity
  8
brick
  6
ByLayer
 62
  256
370
   -1
100
AcDbPolyline
 90
    4
 70
    1
 43
0
 10
2416
 20
78
 10
2416
 20
103
 10
2410
 20
103
 10
2410
 20
78
  0
LWPOLYLINE
  5
150
100
AcDbEntity
  8
brick
  6
ByLayer
 62
  256
370
   -1
100
AcDbPolyline
 90
    4
 70
    1
 43
0
 10
2416
 20
104
 10
2416
 20
129
 10
2410
 20
129
 10
2410
 20
104
  0
LWPOLYLINE
  5
151
100
AcDbEntity
  8
brick
  6
ByLayer
 62
  256
370
   -1
100
AcDbPolyline
 90
    4
 70
    1
 43
0
 10
2416
 20
130
 10
2416
 20
155
 10
2410
 20
155
 10
2410
 20
130
  0
LWPOLYLINE
  5
152
100
AcDbEntity
  8
brick
  6
ByLayer
 62
  256
370
   -1
100
AcDbPolyline
 90
    4
 70
    1
 43
0
 10
2416
 20
156
 10
2416
 20
181
 10
2410
 20
181
 10
2410
 20
156
  0
LWPOLYLINE
  5
153
100
AcDbEntity
  8
brick
  6
ByLayer
 62
  256
370
   -1
100
AcDbPolyline
 90
    4
 70
    1
 43
0
 10
2416
 20
26
 10
2416
 20
51
 10
2410
 20
51
 10
2410
 20
26
  0
LWPOLYLINE
  5
154
100
AcDbEntity
  8
brick
  6
ByLayer
 62
  256
370
   -1
100
AcDbPolyline
 90
    4
 70
    1
 43
0
 10
2416
 20
-3.673940397442059e-16
 10
2416
 20
25
 10
2410
 20
25
 10
2410
 20
0
  0
LWPOLYLINE
  5
155
100
AcDbEntity
  8
brick
  6
ByLayer
 62
  256
370
   -1
100
AcDbPolyline
 90
    4
 70
    1
 43
0
 10
2416
 20
234
 10
2416
 20
259
 10
2410
 20
259
 10
2410
 20
234
  0
LWPOLYLINE
  5
156
100
AcDbEntity
  8
brick
  6
ByLayer
 62
  256
370
   -1
100
AcDbPolyline
 90
    4
 70
    1
 43
0
 10
2416
 20
260
 10
2416
 20
285
 10
2410
 20
285
 10
2410
 20
260
  0
LWPOLYLINE
  5
157
100
AcDbEntity
  8
brick
  6
ByLayer
 62
  256
370
   -1
100
AcDbPolyline
 90
    4
 70
    1
 43
0
 10
2416
 20
286
 10
2416
 20
311
 10
2410
 20
311
 10
2410
 20
286
  0
LWPOLYLINE
  5
158
100
AcDbEntity
  8
brick
  6
ByLayer
 62
  256
370
   -1
100
AcDbPolyline
 90
    4
 70
    1
 43
0
 10
2416
 20
312
 10
2416
 20
337
 10
2410
 20
337
 10
2410
 20
312
  0
LWPOLYLINE
  5
159
100
AcDbEntity
  8
brick
  6
ByLayer
 62
  256
370
   -1
100
AcDbPolyline
 90
    4
 70
    1
 43
0
 10
2416
 20
338
 10
2416
 20
363
 10
2410
 20
363
 10
2410
 20
338
  0
LWPOLYLINE
  5
15A
100
AcDbEntity
  8
brick
  6
ByLayer
 62
  256
370
   -1
100
AcDbPolyline
 90
    4
 70
    1
 43
0
 10
2416
 20
208
 10
2416
 20
233
 10
2410
 20
233
 10
2410
 20
208
  0
LWPOLYLINE
  5
15B
100
AcDbEntity
  8
brick
  6
ByLayer
 62
  256
370
   -1
100
AcDbPolyline
 90
    4
 70
    1
 43
0
 10
2416
 20
182
 10
2416
 20
207
 10
2410
 20
207
 10
2410
 20
182
  0
LWPOLYLINE
  5
15C
100
AcDbEntity
  8
brick
  6
ByLayer
 62
  256
370
   -1
100
AcDbPolyline
 90
    4
 70
    1
 43
0
 10
2416
 20
416
 10
2416
 20
441
 10
2410
 20
441
 10
2410
 20
416
  0
LWPOLYLINE
  5
15D
100
AcDbEntity
  8
brick
  6
ByLayer
 62
  256
370
   -1
100
AcDbPolyline
 90
    4
 70
    1
 43
0
 10
2416
 20
442
 10
2416
 20
467
 10
2410
 20
467
 10
2410
 20
442
  0
LWPOLYLINE
  5
15E
100
AcDbEntity
  8
brick
  6
ByLayer
 62
  256
370
   -1
100
AcDbPolyline
 90
    4
 70
    1
 43
0
 10
2416
 20
468
 10
2416
 20
493
 10
2410
 20
493
 10
2410
 20
468
  0
LWPOLYLINE
  5
15F
100
AcDbEntity
  8
brick
  6
ByLayer
 62
  256
370
   -1
100
AcDbPolyline
 90
    4
 70
    1
 43
0
 10
2416
 20
494
 10
2416
 20
519
 10
2410
 20
519
 10
2410
 20
494
  0
LWPOLYLINE
  5
160
100
AcDbEntity
  8
brick
  6
ByLayer
 62
  256
370
   -1
100
AcDbPolyline
 90
    4
 70
    1
 43
0
 10
2416
 20
520
 10
2416
 20
545
 10
2410
 20
545
 10
2410
 20
520
  0
LWPOLYLINE
  5
161
100
AcDbEntity
  8
brick
  6
ByLayer
 62
  256
370
   -1
100
AcDbPolyline
 90
    4
 70
    1
 43
0
 10
2416
 20
390
 10
2416
 20
415
 10
2410
 20
415
 10
2410
 20
390
  0
LWPOLYLINE
  5
162
100
AcDbEntity
  8
brick
  6
ByLayer
 62
  256
370
   -1
100
AcDbPolyline
 90
    4
 70
    1
 43
0
 10
2416
 20
364
 10
2416
 20
389
 10
2410
 20
389
 10
2410
 20
364
  0
LWPOLYLINE
  5
163
100
AcDbEntity
  8
brick
  6
ByLayer
 62
  256
370
   -1
100
AcDbPolyline
 90
    4
 70
    1
 43
0
 10
2416
 20
598
 10
2416
 20
623
 10
2410
 20
623
 10
2410
 20
598
  0
LWPOLYLINE
  5
164
100
AcDbEntity
  8
brick
  6
ByLayer
 62
  256
370
   -1
100
AcDbPolyline
 90
    4
 70
    1
 43
0
 10
2416
 20
624
 10
2416
 20
649
 10
2410
 20
649
 10
2410
 20
624
  0
LWPOLYLINE
  5
165
100
AcDbEntity
  8
brick
  6
ByLayer
 62
  256
370
   -1
100
AcDbPolyline
 90
    4
 70
    1
 43
0
 10
2416
 20
650
 10
2416
 20
675
 10
2410
 20
675
 10
2410
 20
650
  0
LWPOLYLINE
  5
166
100
AcDbEntity
  8
brick
  6
ByLayer
 62
  256
370
   -1
100
AcDbPolyline
 90
    4
 70
    1
 43
0
 10
2416
 20
676
 10
2416
 20
701
 10
2410
 20
701
 10
2410
 20
676
  0
LWPOLYLINE
  5
167
100
AcDbEntity
  8
brick
  6
ByLayer
 62
  256
370
   -1
100
AcDbPolyline
 90
    4
 70
    1
 43
0
 10
2416
 20
702
 10
2416
 20
727
 10
2410
 20
727
 10
2410
 20
702
  0
LWPOLYLINE
  5
168
100
AcDbEntity
  8
brick
  6
ByLayer
 62
  256
370
   -1
100
AcDbPolyline
 90
    4
 70
    1
 43
0
 10
2416
 20
572
 10
2416
 20
597
 10
2410
 20
597
 10
2410
 20
572
  0
LWPOLYLINE
  5
169
100
AcDbEntity
  8
brick
  6
ByLayer
 62
  256
370
   -1
100
AcDbPolyline
 90
    4
 70
    1
 43
0
 10
2416
 20
546
 10
2416
 20
571
 10
2410
 20
571
 10
2410
 20
546
  0
LWPOLYLINE
  5
16A
100
AcDbEntity
  8
brick
  6
ByLayer
 62
  256
370
   -1
100
AcDbPolyline
 90
    4
 70
    1
 43
0
 10
2416
 20
780
 10
2416
 20
805
 10
2410
 20
805
 10
2410
 20
780
  0
LWPOLYLINE
  5
16B
100
AcDbEntity
  8
brick
  6
ByLayer
 62
  256
370
   -1
100
AcDbPolyline
 90
    4
 70
    1
 43
0
 10
2416
 20
806
 10
2416
 20
831
 10
2410
 20
831
 10
2410
 20
806
  0
LWPOLYLINE
  5
16C
100
AcDbEntity
  8
brick
  6
ByLayer
 62
  256
370
   -1
100
AcDbPolyline
 90
    4
 70
    1
 43
0
 10
2416
 20
832
 10
2416
 20
857
 10
2410
 20
857
 10
2410
 20
832
  0
LWPOLYLINE
  5
16D
100
AcDbEntity
  8
brick
  6
ByLayer
 62
  256
370
   -1
100
AcDbPolyline
 90
    4
 70
    1
 43
0
 10
2416
 20
858
 10
2416
 20
883
 10
2410
 20
883
 10
2410
 20
858
  0
LWPOLYLINE
  5
16E
100
AcDbEntity
  8
brick
  6
ByLayer
 62
  256
370
   -1
100
AcDbPolyline
 90
    4
 70
    1
 43
0
 10
2416
 20
884
 10
2416
 20
909
 10
2410
 20
909
 10
2410
 20
884
  0
LWPOLYLINE
  5
16F
100
AcDbEntity
  8
brick
  6
ByLayer
 62
  256
370
   -1
100
AcDbPolyline
 90
    4
 70
    1
 43
0
 10
2416
 20
754
 10
2416
 20
779
 10
2410
 20
779
 10
2410
 20
754
  0
LWPOLYLINE
  5
170
100
AcDbEntity
  8
brick
  6
ByLayer
 62
  256
370
   -1
100
AcDbPolyline
 90
    4
 70
    1
 43
0
 10
2416
 20
728
 10
2416
 20
753
 10
2410
 20
753
 10
2410
 20
728
  0
LWPOLYLINE
  5
171
100
AcDbEntity
  8
brick
  6
ByLayer
 62
  256
370
   -1
100
AcDbPolyline
 90
    4
 70
    1
 43
0
 10
2416
 20
910
 10
2416
 20
935
 10
2410
 20
935
 10
2410
 20
910
  0
LWPOLYLINE
  5
172
100
AcDbEntity
  8
brick
  6
ByLayer
 62
  256
370
   -1
100
AcDbPolyline
 90
    4
 70
    1
 43
0
 10
2416
 20
936
 10
2416
 20
961
 10
2410
 20
961
 10
2410
 20
936
  0
LWPOLYLINE
  5
173
100
AcDbEntity
  8
brick
  6
ByLayer
 62
  256
370
   -1
100
AcDbPolyline
 90
    4
 70
    1
 43
0
 10
2416
 20
962
 10
2416
 20
987
 10
2410
 20
987
 10
2410
 20
962
  0
LWPOLYLINE
  5
174
100
AcDbEntity
  8
brick
  6
ByLayer
 62
  256
370
   -1
100
AcDbPolyline
 90
    4
 70
    1
 43
0
 10
2416
 20
988
 10
2416
 20
1013
 10
2410
 20
1013
 10
2410
 20
988
  0
LWPOLYLINE
  5
175
100
AcDbEntity
  8
brick
  6
ByLayer
 62
  256
370
   -1
100
AcDbPolyline
 90
    4
 70
    1
 43
0
 10
2416
 20
1014
 10
2416
 20
1039
 10
2410
 20
1039
 10
2410
 20
1014
  0
LWPOLYLINE
  5
176
100
AcDbEntity
  8
brick
  6
ByLayer
 62
  256
370
   -1
100
AcDbPolyline
 90
    4
 70
    1
 43
0
 10
2416
 20
1040
 10
2416
 20
1052
 10
2410
 20
1052
 10
2410
 20
1040
  0
LWPOLYLINE
  5
177
100
AcDbEntity
  8
brick
  6
ByLayer
 62
  256
370
   -1
100
AcDbPolyline
 90
    4
 70
    1
 43
0
 10
1390
 20
0
 10
1390
 20
12
 10
1384
 20
12
 10
1384
 20
3.673940397442059e-16
  0
LWPOLYLINE
  5
178
100
AcDbEntity
  8
brick
  6
ByLayer
 62
  256
370
   -1
100
AcDbPolyline
 90
    4
 70
    1
 43
0
 10
1390
 20
65
 10
1390
 20
90
 10
1384
 20
90
 10
1384
 20
65
  0
LWPOLYLINE
  5
179
100
AcDbEntity
  8
brick
  6
ByLayer
 62
  256
370
   -1
100
AcDbPolyline
 90
    4
 70
    1
 43
0
 10
1390
 20
91
 10
1390
 20
116
 10
1384
 20
116
 10
1384
 20
91
  0
LWPOLYLINE
  5
17A
100
AcDbEntity
  8
brick
  6
ByLayer
 62
  256
370
   -1
100
AcDbPolyline
 90
    4
 70
    1
 43
0
 10
1390
 20
117
 10
1390
 20
142
 10
1384
 20
142
 10
1384
 20
117
  0
LWPOLYLINE
  5
17B
100
AcDbEntity
  8
brick
  6
ByLayer
 62
  256
370
   -1
100
AcDbPolyline
 90
    4
 70
    1
 43
0
 10
1390
 20
143
 10
1390
 20
168
 10
1384
 20
168
 10
1384
 20
143
  0
LWPOLYLINE
  5
17C
100
AcDbEntity
  8
brick
  6
ByLayer
 62
  256
370
   -1
100
AcDbPolyline
 90
    4
 70
    1
 43
0
 10
1390
 20
169
 10
1390
 20
194
 10
1384
 20
194
 10
1384
 20
169
  0
LWPOLYLINE
  5
17D
100
AcDbEntity
  8
brick
  6
ByLayer
 62
  256
370
   -1
100
AcDbPolyline
 90
    4
 70
    1
 43
0
 10
1390
 20
39
 10
1390
 20
64
 10
1384
 20
64
 10
1384
 20
39
  0
LWPOLYLINE
  5
17E
100
AcDbEntity
  8
brick
  6
ByLayer
 62
  256
370
   -1
100
AcDbPolyline
 90
    4
 70
    1
 43
0
 10
1390
 20
13
 10
1390
 20
38
 10
1384
 20
38
 10
1384
 20
13
  0
LWPOLYLINE
  5
17F
100
AcDbEntity
  8
brick
  6
ByLayer
 62
  256
370
   -1
100
AcDbPolyline
 90
    4
 70
    1
 43
0
 10
1390
 20
247
 10
1390
 20
272
 10
1384
 20
272
 10
1384
 20
247
  0
LWPOLYLINE
  5
180
100
AcDbEntity
  8
brick
  6
ByLayer
 62
  256
370
   -1
100
AcDbPolyline
 90
    4
 70
    1
 43
0
 10
1390
 20
273
 10
1390
 20
298
 10
1384
 20
298
 10
1384
 20
273
  0
LWPOLYLINE
  5
181
100
AcDbEntity
  8
brick
  6
ByLayer
 62
  256
370
   -1
100
AcDbPolyline
 90
    4
 70
    1
 43
0
 10
1390
 20
299
 10
1390
 20
324
 10
1384
 20
324
 10
1384
 20
299
  0
LWPOLYLINE
  5
182
100
AcDbEntity
  8
brick
  6
ByLayer
 62
  256
370
   -1
100
AcDbPolyline
 90
    4
 70
    1
 43
0
 10
1390
 20
325
 10
1390
 20
350
 10
1384
 20
350
 10
1384
 20
325
  0
LWPOLYLINE
  5
183
100
AcDbEntity
  8
brick
  6
ByLayer
 62
  256
370
   -1
100
AcDbPolyline
 90
    4
 70
    1
 43
0
 10
1390
 20
351
 10
1390
 20
376
 10
1384
 20
376
 10
1384
 20
351
  0
LWPOLYLINE
  5
184
100
AcDbEntity
  8
brick
  6
ByLayer
 62
  256
370
   -1
100
AcDbPolyline
 90
    4
 70
    1
 43
0
 10
1390
 20
221
 10
1390
 20
246
 10
1384
 20
246
 10
1384
 20
221
  0
LWPOLYLINE
  5
185
100
AcDbEntity
  8
brick
  6
ByLayer
 62
  256
370
   -1
100
AcDbPolyline
 90
    4
 70
    1
 43
0
 10
1390
 20
195
 10
1390
 20
220
 10
1384
 20
220
 10
1384
 20
195
  0
LWPOLYLINE
  5
186
100
AcDbEntity
  8
brick
  6
ByLayer
 62
  256
370
   -1
100
AcDbPolyline
 90
    4
 70
    1
 43
0
 10
1390
 20
429
 10
1390
 20
454
 10
1384
 20
454
 10
1384
 20
429
  0
LWPOLYLINE
  5
187
100
AcDbEntity
  8
brick
  6
ByLayer
 62
  256
370
   -1
100
AcDbPolyline
 90
    4
 70
    1
 43
0
 10
1390
 20
455
 10
1390
 20
480
 10
1384
 20
480
 10
1384
 20
455
  0
LWPOLYLINE
  5
188
100
AcDbEntity
  8
brick
  6
ByLayer
 62
  256
370
   -1
100
AcDbPolyline
 90
    4
 70
    1
 43
0
 10
1390
 20
481
 10
1390
 20
506
 10
1384
 20
506
 10
1384
 20
481
  0
LWPOLYLINE
  5
189
100
AcDbEntity
  8
brick
  6
ByLayer
 62
  256
370
   -1
100
AcDbPolyline
 90
    4
 70
    1
 43
0
 10
1390
 20
507
 10
1390
 20
532
 10
1384
 20
532
 10
1384
 20
507
  0
LWPOLYLINE
  5
18A
100
AcDbEntity
  8
brick
  6
ByLayer
 62
  256
370
   -1
100
AcDbPolyline
 90
    4
 70
    1
 43
0
 10
1390
 20
533
 10
1390
 20
558
 10
1384
 20
558
 10
1384
 20
533
  0
LWPOLYLINE
  5
18B
100
AcDbEntity
  8
brick
  6
ByLayer
 62
  256
370
   -1
100
AcDbPolyline
 90
    4
 70
    1
 43
0
 10
1390
 20
403
 10
1390
 20
428
 10
1384
 20
428
 10
1384
 20
403
  0
LWPOLYLINE
  5
18C
100
AcDbEntity
  8
brick
  6
ByLayer
 62
  256
370
   -1
100
AcDbPolyline
 90
    4
 70
    1
 43
0
 10
1390
 20
377
 10
1390
 20
402
 10
1384
 20
402
 10
1384
 20
377
  0
LWPOLYLINE
  5
18D
100
AcDbEntity
  8
brick
  6
ByLayer
 62
  256
370
   -1
100
AcDbPolyline
 90
    4
 70
    1
 43
0
 10
1390
 20
611
 10
1390
 20
636
 10
1384
 20
636
 10
1384
 20
611
  0
LWPOLYLINE
  5
18E
100
AcDbEntity
  8
brick
  6
ByLayer
 62
  256
370
   -1
100
AcDbPolyline
 90
    4
 70
    1
 43
0
 10
1390
 20
637
 10
1390
 20
662
 10
1384
 20
662
 10
1384
 20
637
  0
LWPOLYLINE
  5
18F
100
AcDbEntity
  8
brick
  6
ByLayer
 62
  256
370
   -1
100
AcDbPolyline
 90
    4
 70
    1
 43
0
 10
1390
 20
663
 10
1390
 20
688
 10
1384
 20
688
 10
1384
 20
663
  0
LWPOLYLINE
  5
190
100
AcDbEntity
  8
brick
  6
ByLayer
 62
  256
370
   -1
100
AcDbPolyline
 90
    4
 70
    1
 43
0
 10
1390
 20
689
 10
1390
 20
714
 10
1384
 20
714
 10
1384
 20
689
  0
LWPOLYLINE
  5
191
100
AcDbEntity
  8
brick
  6
ByLayer
 62
  256
370
   -1
100
AcDbPolyline
 90
    4
 70
    1
 43
0
 10
1390
 20
715
 10
1390
 20
740
 10
1384
 20
740
 10
1384
 20
715
  0
LWPOLYLINE
  5
192
100
AcDbEntity
  8
brick
  6
ByLayer
 62
  256
370
   -1
100
AcDbPolyline
 90
    4
 70
    1
 43
0
 10
1390
 20
585
 10
1390
 20
610
 10
1384
 20
610
 10
1384
 20
585
  0
LWPOLYLINE
  5
193
100
AcDbEntity
  8
brick
  6
ByLayer
 62
  256
370
   -1
100
AcDbPolyline
 90
    4
 70
    1
 43
0
 10
1390
 20
559
 10
1390
 20
584
 10
1384
 20
584
 10
1384
 20
559
  0
LWPOLYLINE
  5
194
100
AcDbEntity
  8
brick
  6
ByLayer
 62
  256
370
   -1
100
AcDbPolyline
 90
    4
 70
    1
 43
0
 10
1390
 20
793
 10
1390
 20
818
 10
1384
 20
818
 10
1384
 20
793
  0
LWPOLYLINE
  5
195
100
AcDbEntity
  8
brick
  6
ByLayer
 62
  256
370
   -1
100
AcDbPolyline
 90
    4
 70
    1
 43
0
 10
1390
 20
819
 10
1390
 20
844
 10
1384
 20
844
 10
1384
 20
819
  0
LWPOLYLINE
  5
196
100
AcDbEntity
  8
brick
  6
ByLayer
 62
  256
370
   -1
100
AcDbPolyline
 90
    4
 70
    1
 43
0
 10
1390
 20
845
 10
1390
 20
870
 10
1384
 20
870
 10
1384
 20
845
  0
LWPOLYLINE
  5
197
100
AcDbEntity
  8
brick
  6
ByLayer
 62
  256
370
   -1
100
AcDbPolyline
 90
    4
 70
    1
 43
0
 10
1390
 20
871
 10
1390
 20
896
 10
1384
 20
896
 10
1384
 20
871
  0
LWPOLYLINE
  5
198
100
AcDbEntity
  8
brick
  6
ByLayer
 62
  256
370
   -1
100
AcDbPolyline
 90
    4
 70
    1
 43
0
 10
1390
 20
897
 10
1390
 20
922
 10
1384
 20
922
 10
1384
 20
897
  0
LWPOLYLINE
  5
199
100
AcDbEntity
  8
brick
  6
ByLayer
 62
  256
370
   -1
100
AcDbPolyline
 90
    4
 70
    1
 43
0
 10
1390
 20
767
 10
1390
 20
792
 10
1384
 20
792
 10
1384
 20
767
  0
LWPOLYLINE
  5
19A
100
AcDbEntity
  8
brick
  6
ByLayer
 62
  256
370
   -1
100
AcDbPolyline
 90
    4
 70
    1
 43
0
 10
1390
 20
741
 10
1390
 20
766
 10
1384
 20
766
 10
1384
 20
741
  0
LWPOLYLINE
  5
19B
100
AcDbEntity
  8
brick
  6
ByLayer
 62
  256
370
   -1
100
AcDbPolyline
 90
    4
 70
    1
 43
0
 10
1390
 20
923
 10
1390
 20
948
 10
1384
 20
948
 10
1384
 20
923
  0
LWPOLYLINE
  5
19C
100
AcDbEntity
  8
brick
  6
ByLayer
 62
  256
370
   -1
100
AcDbPolyline
 90
    4
 70
    1
 43
0
 10
1390
 20
949
 10
1390
 20
974
 10
1384
 20
974
 10
1384
 20
949
  0
LWPOLYLINE
  5
19D
100
AcDbEntity
  8
brick
  6
ByLayer
 62
  256
370
   -1
100
AcDbPolyline
 90
    4
 70
    1
 43
0
 10
1390
 20
975
 10
1390
 20
1000
 10
1384
 20
1000
 10
1384
 20
975
  0
LWPOLYLINE
  5
19E
100
AcDbEntity
  8
brick
  6
ByLayer
 62
  256
370
   -1
100
AcDbPolyline
 90
    4
 70
    1
 43
0
 10
1390
 20
1001
 10
1390
 20
1026
 10
1384
 20
1026
 10
1384
 20
1001
  0
LWPOLYLINE
  5
19F
100
AcDbEntity
  8
brick
  6
ByLayer
 62
  256
370
   -1
100
AcDbPolyline
 90
    4
 70
    1
 43
0
 10
1390
 20
1027
 10
1390
 20
1052
 10
1384
 20
1052
 10
1384
 20
1027
  0
LWPOLYLINE
  5
1A0
100
AcDbEntity
  8
brick
  6
ByLayer
 62
  256
370
   -1
100
AcDbPolyline
 90
    4
 70
    1
 43
0
 10
1465
 20
1062
 10
1490
 20
1062
 10
1490
 20
1068
 10
1465
 20
1068
  0
LWPOLYLINE
  5
1A1
100
AcDbEntity
  8
brick
  6
ByLayer
 62
  256
370
   -1
100
AcDbPolyline
 90
    4
 70
    1
 43
0
 10
1491
 20
1062
 10
1516
 20
1062
 10
1516
 20
1068
 10
1491
 20
1068
  0
LWPOLYLINE
  5
1A2
100
AcDbEntity
  8
brick
  6
ByLayer
 62
  256
370
   -1
100
AcDbPolyline
 90
    4
 70
    1
 43
0
 10
1517
 20
1062
 10
1542
 20
1062
 10
1542
 20
1068
 10
1517
 20
1068
  0
LWPOLYLINE
  5
1A3
100
AcDbEntity
  8
brick
  6
ByLayer
 62
  256
370
   -1
100
AcDbPolyline
 90
    4
 70
    1
 43
0
 10
1543
 20
1062
 10
1568
 20
1062
 10
1568
 20
1068
 10
1543
 20
1068
  0
LWPOLYLINE
  5
1A4
100
AcDbEntity
  8
brick
  6
ByLayer
 62
  256
370
   -1
100
AcDbPolyline
 90
    4
 70
    1
 43
0
 10
1569
 20
1062
 10
1594
 20
1062
 10
1594
 20
1068
 10
1569
 20
1068
  0
LWPOLYLINE
  5
1A5
100
AcDbEntity
  8
brick
  6
ByLayer
 62
  256
370
   -1
100
AcDbPolyline
 90
    4
 70
    1
 43
0
 10
1439
 20
1062
 10
1464
 20
1062
 10
1464
 20
1068
 10
1439
 20
1068
  0
LWPOLYLINE
  5
1A6
100
AcDbEntity
  8
brick
  6
ByLayer
 62
  256
370
   -1
100
AcDbPolyline
 90
    4
 70
    1
 43
0
 10
1413
 20
1062
 10
1438
 20
1062
 10
1438
 20
1068
 10
1413
 20
1068
  0
LWPOLYLINE
  5
1A7
100
AcDbEntity
  8
brick
  6
ByLayer
 62
  256
370
   -1
100
AcDbPolyline
 90
    4
 70
    1
 43
0
 10
1647
 20
1062
 10
1672
 20
1062
 10
1672
 20
1068
 10
1647
 20
1068
  0
LWPOLYLINE
  5
1A8
100
AcDbEntity
  8
brick
  6
ByLayer
 62
  256
370
   -1
100
AcDbPolyline
 90
    4
 70
    1
 43
0
 10
1673
 20
1062
 10
1698
 20
1062
 10
1698
 20
1068
 10
1673
 20
1068
  0
LWPOLYLINE
  5
1A9
100
AcDbEntity
  8
brick
  6
ByLayer
 62
  256
370
   -1
100
AcDbPolyline
 90
    4
 70
    1
 43
0
 10
1699
 20
1062
 10
1724
 20
1062
 10
1724
 20
1068
 10
1699
 20
1068
  0
LWPOLYLINE
  5
1AA
100
AcDbEntity
  8
brick
  6
ByLayer
 62
  256
370
   -1
100
AcDbPolyline
 90
    4
 70
    1
 43
0
 10
1725
 20
1062
 10
1750
 20
1062
 10
1750
 20
1068
 10
1725
 20
1068
  0
LWPOLYLINE
  5
1AB
100
AcDbEntity
  8
brick
  6
ByLayer
 62
  256
370
   -1
100
AcDbPolyline
 90
    4
 70
    1
 43
0
 10
1751
 20
1062
 10
1776
 20
1062
 10
1776
 20
1068
 10
1751
 20
1068
  0
LWPOLYLINE
  5
1AC
100
AcDbEntity
  8
brick
  6
ByLayer
 62
  256
370
   -1
100
AcDbPolyline
 90
    4
 70
    1
 43
0
 10
1621
 20
1062
 10
1646
 20
1062
 10
1646
 20
1068
 10
1621
 20
1068
  0
LWPOLYLINE
  5
1AD
100
AcDbEntity
  8
brick
  6
ByLayer
 62
  256
370
   -1
100
AcDbPolyline
 90
    4
 70
    1
 43
0
 10
1595
 20
1062
 10
1620
 20
1062
 10
1620
 20
1068
 10
1595
 20
1068
  0
LWPOLYLINE
  5
1AE
100
AcDbEntity
  8
brick
  6
ByLayer
 62
  256
370
   -1
100
AcDbPolyline
 90
    4
 70
    1
 43
0
 10
1829
 20
1062
 10
1854
 20
1062
 10
1854
 20
1068
 10
1829
 20
1068
  0
LWPOLYLINE
  5
1AF
100
AcDbEntity
  8
brick
  6
ByLayer
 62
  256
370
   -1
100
AcDbPolyline
 90
    4
 70
    1
 43
0
 10
1855
 20
1062
 10
1880
 20
1062
 10
1880
 20
1068
 10
1855
 20
1068
  0
LWPOLYLINE
  5
1B0
100
AcDbEntity
  8
brick
  6
ByLayer
 62
  256
370
   -1
100
AcDbPolyline
 90
    4
 70
    1
 43
0
 10
1881
 20
1062
 10
1906
 20
1062
 10
1906
 20
1068
 10
1881
 20
1068
  0
LWPOLYLINE
  5
1B1
100
AcDbEntity
  8
brick
  6
ByLayer
 62
  256
370
   -1
100
AcDbPolyline
 90
    4
 70
    1
 43
0
 10
1907
 20
1062
 10
1932
 20
1062
 10
1932
 20
1068
 10
1907
 20
1068
  0
LWPOLYLINE
  5
1B2
100
AcDbEntity
  8
brick
  6
ByLayer
 62
  256
370
   -1
100
AcDbPolyline
 90
    4
 70
    1
 43
0
 10
1933
 20
1062
 10
1958
 20
1062
 10
1958
 20
1068
 10
1933
 20
1068
  0
LWPOLYLINE
  5
1B3
100
AcDbEntity
  8
brick
  6
ByLayer
 62
  256
370
   -1
100
AcDbPolyline
 90
    4
 70
    1
 43
0
 10
1803
 20
1062
 10
1828
 20
1062
 10
1828
 20
1068
 10
1803
 20
1068
  0
LWPOLYLINE
  5
1B4
100
AcDbEntity
  8
brick
  6
ByLayer
 62
  256
370
   -1
100
AcDbPolyline
 90
    4
 70
    1
 43
0
 10
1777
 20
1062
 10
1802
 20
1062
 10
1802
 20
1068
 10
1777
 20
1068
  0
LWPOLYLINE
  5
1B5
100
AcDbEntity
  8
brick
  6
ByLayer
 62
  256
370
   -1
100
AcDbPolyline
 90
    4
 70
    1
 43
0
 10
2011
 20
1062
 10
2036
 20
1062
 10
2036
 20
1068
 10
2011
 20
1068
  0
LWPOLYLINE
  5
1B6
100
AcDbEntity
  8
brick
  6
ByLayer
 62
  256
370
   -1
100
AcDbPolyline
 90
    4
 70
    1
 43
0
 10
2037
 20
1062
 10
2062
 20
1062
 10
2062
 20
1068
 10
2037
 20
1068
  0
LWPOLYLINE
  5
1B7
100
AcDbEntity
  8
brick
  6
ByLayer
 62
  256
370
   -1
100
AcDbPolyline
 90
    4
 70
    1
 43
0
 10
2063
 20
1062
 10
2088
 20
1062
 10
2088
 20
1068
 10
2063
 20
1068
  0
LWPOLYLINE
  5
1B8
100
AcDbEntity
  8
brick
  6
ByLayer
 62
  256
370
   -1
100
AcDbPolyline
 90
    4
 70
    1
 43
0
 10
2089
 20
1062
 10
2114
 20
1062
 10
2114
 20
1068
 10
2089
 20
1068
  0
LWPOLYLINE
  5
1B9
100
AcDbEntity
  8
brick
  6
ByLayer
 62
  256
370
   -1
100
AcDbPolyline
 90
    4
 70
    1
 43
0
 10
2115
 20
1062
 10
2140
 20
1062
 10
2140
 20
1068
 10
2115
 20
1068
  0
LWPOLYLINE
  5
1BA
100
AcDbEntity
  8
brick
  6
ByLayer
 62
  256
370
   -1
100
AcDbPolyline
 90
    4
 70
    1
 43
0
 10
1985
 20
1062
 10
2010
 20
1062
 10
2010
 20
1068
 10
1985
 20
1068
  0
LWPOLYLINE
  5
1BB
100
AcDbEntity
  8
brick
  6
ByLayer
 62
  256
370
   -1
100
AcDbPolyline
 90
    4
 70
    1
 43
0
 10
1959
 20
1062
 10
1984
 20
1062
 10
1984
 20
1068
 10
1959
 20
1068
  0
LWPOLYLINE
  5
1BC
100
AcDbEntity
  8
brick
  6
ByLayer
 62
  256
370
   -1
100
AcDbPolyline
 90
    4
 70
    1
 43
0
 10
2193
 20
1062
 10
2218
 20
1062
 10
2218
 20
1068
 10
2193
 20
1068
  0
LWPOLYLINE
  5
1BD
100
AcDbEntity
  8
brick
  6
ByLayer
 62
  256
370
   -1
100
AcDbPolyline
 90
    4
 70
    1
 43
0
 10
2219
 20
1062
 10
2244
 20
1062
 10
2244
 20
1068
 10
2219
 20
1068
  0
LWPOLYLINE
  5
1BE
100
AcDbEntity
  8
brick
  6
ByLayer
 62
  256
370
   -1
100
AcDbPolyline
 90
    4
 70
    1
 43
0
 10
2245
 20
1062
 10
2270
 20
1062
 10
2270
 20
1068
 10
2245
 20
1068
  0
LWPOLYLINE
  5
1BF
100
AcDbEntity
  8
brick
  6
ByLayer
 62
  256
370
   -1
100
AcDbPolyline
 90
    4
 70
    1
 43
0
 10
2271
 20
1062
 10
2296
 20
1062
 10
2296
 20
1068
 10
2271
 20
1068
  0
LWPOLYLINE
  5
1C0
100
AcDbEntity
  8
brick
  6
ByLayer
 62
  256
370
   -1
100
AcDbPolyline
 90
    4
 70
    1
 43
0
 10
2297
 20
1062
 10
2322
 20
1062
 10
2322
 20
1068
 10
2297
 20
1068
  0
LWPOLYLINE
  5
1C1
100
AcDbEntity
  8
brick
  6
ByLayer
 62
  256
370
   -1
100
AcDbPolyline
 90
    4
 70
    1
 43
0
 10
2167
 20
1062
 10
2192
 20
1062
 10
2192
 20
1068
 10
2167
 20
1068
  0
LWPOLYLINE
  5
1C2
100
AcDbEntity
  8
brick
  6
ByLayer
 62
  256
370
   -1
100
AcDbPolyline
 90
    4
 70
    1
 43
0
 10
2141
 20
1062
 10
2166
 20
1062
 10
2166
 20
1068
 10
2141
 20
1068
  0
LWPOLYLINE
  5
1C3
100
AcDbEntity
  8
brick
  6
ByLayer
 62
  256
370
   -1
100
AcDbPolyline
 90
    4
 70
    1
 43
0
 10
2323
 20
1062
 10
2348
 20
1062
 10
2348
 20
1068
 10
2323
 20
1068
  0
LWPOLYLINE
  5
1C4
100
AcDbEntity
  8
brick
  6
ByLayer
 62
  256
370
   -1
100
AcDbPolyline
 90
    4
 70
    1
 43
0
 10
2349
 20
1062
 10
2374
 20
1062
 10
2374
 20
1068
 10
2349
 20
1068
  0
LWPOLYLINE
  5
1C5
100
AcDbEntity
  8
brick
  6
ByLayer
 62
  256
370
   -1
100
AcDbPolyline
 90
    4
 70
    1
 43
0
 10
2375
 20
1062
 10
2400
 20
1062
 10
2400
 20
1068
 10
2375
 20
1068
  0
LWPOLYLINE
  5
1C6
100
AcDbEntity
  8
brick
  6
ByLayer
 62
  256
370
   -1
100
AcDbPolyline
 90
    4
 70
    1
 43
0
 10
1400
 20
1062
 10
1412
 20
1062
 10
1412
 20
1068
 10
1400
 20
1068
  0
LWPOLYLINE
  5
1C7
100
AcDbEntity
  8
projomy
  6
ByLayer
 62
  256
370
   -1
100
AcDbPolyline
 90
    9
 70
    0
 43
0
 10
155
 20
0
 10
234
 20
1.06581410364015e-14
 10
234
 20
12.00000000000001
 10
240
 20
12.00000000000001
 10
240
 20
47
 10
149
 20
46.99999999999999
 10
149
 20
12
 10
155
 20
12
 10
155
 20
0
  0
LWPOLYLINE
  5
1C8
100
AcDbEntity
  8
projomy
  6
ByLayer
 62
  256
370
   -1
100
AcDbPolyline
 90
    9
 70
    0
 43
0
 10
402
 20
8.881784197001252e-16
 10
481
 20
8.881784197001252e-16
 10
481
 20
12
 10
487
 20
12
 10
487
 20
47
 10
396
 20
47
 10
396
 20
12
 10
402
 20
12
 10
402
 20
8.881784197001252e-16
  0
LWPOLYLINE
  5
1C9
100
AcDbEntity
  8
projomy
  6
ByLayer
 62
  256
370
   -1
100
AcDbPolyline
 90
    9
 70
    0
 43
0
 10
2399.999999999999
 20
844
 10
2399.999999999999
 20
923
 10
2387.999999999999
 20
923
 10
2387.999999999999
 20
929
 10
2352.999999999999
 20
929
 10
2352.999999999999
 20
838
 10
2387.999999999999
 20
838
 10
2387.999999999999
 20
844
 10
2399.999999999999
 20
844
  0
LWPOLYLINE
  5
1CA
100
AcDbEntity
  8
projomy
  6
ByLayer
 62
  256
370
   -1
100
AcDbPolyline
 90
    9
 70
    0
 43
0
 10
2400
 20
350
 10
2400
 20
429
 10
2388
 20
429
 10
2388
 20
435
 10
2353
 20
435
 10
2353
 20
344
 10
2388
 20
344
 10
2388
 20
350
 10
2400
 20
350
  0
LWPOLYLINE
  5
1CB
100
AcDbEntity
  8
projomy
  6
ByLayer
 62
  256
370
   -1
100
AcDbPolyline
 90
    9
 70
    0
 43
0
 10
2400
 20
597
 10
2400
 20
676
 10
2388
 20
676
 10
2388
 20
682
 10
2353
 20
682
 10
2353
 20
591
 10
2388
 20
591
 10
2388
 20
597
 10
2400
 20
597
  0
LWPOLYLINE
  5
1CC
100
AcDbEntity
  8
projomy
  6
ByLayer
 62
  256
370
   -1
100
AcDbPolyline
 90
    9
 70
    0
 43
0
 10
1829
 20
1052
 10
1750
 20
1052
 10
1750
 20
1040
 10
1744
 20
1040
 10
1744
 20
1005
 10
1835
 20
1005
 10
1835
 20
1040
 10
1829
 20
1040
 10
1829
 20
1052
  0
LWPOLYLINE
  5
1CD
100
AcDbEntity
  8
projomy
  6
ByLayer
 62
  256
370
   -1
100
AcDbPolyline
 90
    9
 70
    0
 43
0
 10
1400
 20
897
 10
1400
 20
818
 10
1412
 20
818
 10
1412
 20
812
 10
1447
 20
812
 10
1447
 20
903
 10
1412
 20
903
 10
1412
 20
897
 10
1400
 20
897
  0
LWPOLYLINE
  5
1CE
100
AcDbEntity
  8
projomy
  6
ByLayer
 62
  256
370
   -1
100
AcDbPolyline
 90
    9
 70
    0
 43
0
 10
1400
 20
623
 10
1400
 20
544
 10
1412
 20
544
 10
1412
 20
538
 10
1447
 20
538
 10
1447
 20
629
 10
1412
 20
629
 10
1412
 20
623
 10
1400
 20
623
  0
LWPOLYLINE
  5
1CF
100
AcDbEntity
  8
projomy
  6
ByLayer
 62
  256
370
   -1
100
AcDbPolyline
 90
    9
 70
    0
 43
0
 10
1555
 20
-8.881784197001252e-16
 10
1634
 20
9.769962616701378e-15
 10
1634
 20
12.00000000000001
 10
1640
 20
12.00000000000001
 10
1640
 20
47
 10
1549
 20
46.99999999999999
 10
1549
 20
12
 10
1555
 20
12
 10
1555
 20
-8.881784197001252e-16
  0
LWPOLYLINE
  5
1D0
100
AcDbEntity
  8
projomy
  6
ByLayer
 62
  256
370
   -1
100
AcDbPolyline
 90
    9
 70
    0
 43
0
 10
1802
 20
0
 10
1881
 20
0
 10
1881
 20
12
 10
1887
 20
12
 10
1887
 20
47
 10
1796
 20
47
 10
1796
 20
12
 10
1802
 20
12
 10
1802
 20
0
  0
LWPOLYLINE
  5
1D1
100
AcDbEntity
  8
balky
  6
ByLayer
 62
  256
370
   -1
100
AcDbPolyline
 90
    4
 70
    1
 43
0
 10
953
 20
277
 10
983
 20
277
 10
983
 20
17
 10
953
 20
17
  0
LWPOLYLINE
  5
1D2
100
AcDbEntity
  8
projomy
  6
ByLayer
 62
  256
370
   -1
100
AcDbPolyline
 90
    9
 70
    0
 43
0
 10
429
 20
1052
 10
350
 20
1052
 10
350
 20
1040
 10
344
 20
1040
 10
344
 20
1005
 10
435
 20
1005
 10
435
 20
1040
 10
429
 20
1040
 10
429
 20
1052
  0
LWPOLYLINE
  5
1D3
100
AcDbEntity
  8
projomy
  6
ByLayer
 62
  256
370
   -1
100
AcDbPolyline
 90
    9
 70
    0
 43
0
 10
0
 20
897
 10
0
 20
818
 10
12
 20
818
 10
12
 20
812
 10
47
 20
812
 10
47
 20
903
 10
12
 20
903
 10
12
 20
897
 10
0
 20
897
  0
LWPOLYLINE
  5
1D4
100
AcDbEntity
  8
projomy
  6
ByLayer
 62
  256
370
   -1
100
AcDbPolyline
 90
    9
 70
    0
 43
0
 10
650
 20
1052
 10
558
 20
1052
 10
558
 20
1040
 10
556
 20
1040
 10
556
 20
1005
 10
652
 20
1005
 10
652
 20
1040
 10
650
 20
1040
 10
650
 20
1052
  0
LWPOLYLINE
  5
1D5
100
AcDbEntity
  8
projomy
  6
ByLayer
 62
  256
370
   -1
100
AcDbPolyline
 90
    9
 70
    0
 43
0
 10
0
 20
585
 10
0
 20
493
 10
12
 20
493
 10
12
 20
491
 10
47
 20
491
 10
47
 20
587
 10
12
 20
587
 10
12
 20
585
 10
0
 20
585
  0
LWPOLYLINE
  5
1D6
100
AcDbEntity
  8
projomy
  6
ByLayer
 62
  256
370
   -1
100
AcDbPolyline
 90
    9
 70
    0
 43
0
 10
2075
 20
8.881784197001252e-16
 10
2219
 20
8.881784197001252e-16
 10
2219
 20
12
 10
2225
 20
12
 10
2225
 20
47
 10
2069
 20
47
 10
2069
 20
12
 10
2075
 20
12
 10
2075
 20
8.881784197001252e-16
  0
LWPOLYLINE
  5
1D7
100
AcDbEntity
  8
projomy
  6
ByLayer
 62
  256
370
   -1
100
AcDbPolyline
 90
    9
 70
    0
 43
0
 10
1000
 20
402
 10
1000
 20
546
 10
988
 20
546
 10
988
 20
552
 10
953
 20
552
 10
953
 20
396
 10
988
 20
396
 10
988
 20
402
 10
1000
 20
402
  0
LWPOLYLINE
  5
1D8
100
AcDbEntity
  8
projomy
  6
ByLayer
 62
  256
370
   -1
100
AcDbPolyline
 90
    9
 70
    0
 43
0
 10
1000
 20
727
 10
1000
 20
871
 10
988
 20
871
 10
988
 20
877
 10
953
 20
877
 10
953
 20
721
 10
988
 20
721
 10
988
 20
727
 10
1000
 20
727
  0
LWPOLYLINE
  5
1D9
100
AcDbEntity
  8
face
  6
ByLayer
 62
  256
370
   -1
100
AcDbPolyline
 90
    8
 70
    0
 43
0
 10
1000
 20
8.881784197001252e-16
 10
923
 20
8.881784197001252e-16
 10
923
 20
64
 10
936
 20
64
 10
936
 20
77
 10
936
 20
77
 10
1000
 20
77
 10
1000
 20
8.881784197001252e-16
  0
LWPOLYLINE
  5
1DA
100
AcDbEntity
  8
face
  6
ByLayer
 62
  256
370
   -1
100
AcDbPolyline
 90
    7
 70
    0
 43
0
 10
988
 20
12
 10
935
 20
12
 10
935
 20
52
 10
948
 20
52
 10
948
 20
65
 10
988
 20
65
 10
988
 20
12
  0
LWPOLYLINE
  5
1DB
100
AcDbEntity
  8
face
  6
ByLayer
 62
  256
370
   -1
100
AcDbPolyline
 90
    4
 70
    1
 43
0
 10
715
 20
8.881784197001252e-16
 10
766
 20
8.881784197001252e-16
 10
766
 20
64
 10
715
 20
64
  0
LWPOLYLINE
  5
1DC
100
AcDbEntity
  8
face
  6
ByLayer
 62
  256
370
   -1
100
AcDbPolyline
 90
    4
 70
    1
 43
0
 10
727
 20
12
 10
754
 20
12
 10
754
 20
52
 10
727
 20
52
  0
LWPOLYLINE
  5
1DD
100
AcDbEntity
  8
projomy
  6
ByLayer
 62
  256
370
   -1
100
AcDbPolyline
 90
    9
 70
    0
 43
0
 10
0
 20
169
 10
0
 20
77
 10
12
 20
77
 10
12
 20
75
 10
47
 20
75
 10
47
 20
171
 10
12
 20
171
 10
12
 20
169
 10
0
 20
169
  0
LWPOLYLINE
  5
1DE
100
AcDbEntity
  8
plyty
  6
DASHED2
 62
  256
370
   -1
100
AcDbPolyline
 90
    5
 70
    1
 43
0
 10
360
 20
48.00000000000001
 10
528
 20
48.00000000000001
 10
528
 20
197
 10
360
 20
197
 10
360
 20
197
  0
LWPOLYLINE
  5
1DF
100
AcDbEntity
  8
plyty
  6
DASHED2
 62
  256
370
   -1
100
AcDbPolyline
 90
    5
 70
    1
 43
0
 10
360
 20
198
 10
528
 20
198
 10
528
 20
347
 10
360
 20
347
 10
360
 20
347
  0
LWPOLYLINE
  5
1E0
100
AcDbEntity
  8
plyty
  6
DASHED2
 62
  256
370
   -1
100
AcDbPolyline
 90
    5
 70
    1
 43
0
 10
360
 20
348
 10
528
 20
348
 10
528
 20
497
 10
360
 20
497
 10
360
 20
497
  0
LWPOLYLINE
  5
1E1
100
AcDbEntity
  8
plyty
  6
DASHED2
 62
  256
370
   -1
100
AcDbPolyline
 90
    6
 70
    1
 43
0
 10
531
 20
47.9999600000001
 10
969
 20
47.9999600000001
 10
969
 20
196.9999600000001
 10
531
 20
196.9999600000001
 10
531
 20
196.9999600000001
 10
531
 20
196.9999600000001
  0
LWPOLYLINE
  5
1E2
100
AcDbEntity
  8
plyty
  6
DASHED2
 62
  256
370
   -1
100
AcDbPolyline
 90
    6
 70
    1
 43
0
 10
531
 20
197.9999600000001
 10
969
 20
197.9999600000001
 10
969
 20
346.9999600000001
 10
531
 20
346.9999600000001
 10
531
 20
346.9999600000001
 10
531
 20
346.9999600000001
  0
LWPOLYLINE
  5
1E3
100
AcDbEntity
  8
plyty
  6
DASHED2
 62
  256
370
   -1
100
AcDbPolyline
 90
    6
 70
    1
 43
0
 10
531
 20
347.9999600000001
 10
969
 20
347.9999600000001
 10
969
 20
496.9999600000001
 10
531
 20
496.9999600000001
 10
531
 20
496.9999600000001
 10
531
 20
496.9999600000001
  0
LWPOLYLINE
  5
1E4
100
AcDbEntity
  8
plyty
  6
DASHED2
 62
  256
370
   -1
100
AcDbPolyline
 90
    6
 70
    1
 43
0
 10
531
 20
704.9999600000001
 10
969
 20
704.9999600000001
 10
969
 20
853.9999600000001
 10
531
 20
853.9999600000001
 10
531
 20
853.9999600000001
 10
531
 20
853.9999600000001
  0
LWPOLYLINE
  5
1E5
100
AcDbEntity
  8
plyty
  6
DASHED2
 62
  256
370
   -1
100
AcDbPolyline
 90
    6
 70
    1
 43
0
 10
531
 20
855
 10
969
 20
855
 10
969
 20
1004
 10
531
 20
1004
 10
531
 20
1004
 10
531
 20
1004
  0
LWPOLYLINE
  5
1E6
100
AcDbEntity
  8
plyty
  6
DASHED2
 62
  256
370
   -1
100
AcDbPolyline
 90
    6
 70
    1
 43
0
 10
30
 20
855
 10
528
 20
855
 10
528
 20
1004
 10
30
 20
1004
 10
30
 20
1004
 10
30
 20
1004
  0
LWPOLYLINE
  5
1E7
100
AcDbEntity
  8
plyty
  6
DASHED2
 62
  256
370
   -1
100
AcDbPolyline
 90
    6
 70
    1
 43
0
 10
30
 20
705
 10
528
 20
705
 10
528
 20
854
 10
30
 20
854
 10
30
 20
854
 10
30
 20
854
  0
LWPOLYLINE
  5
1E8
100
AcDbEntity
  8
plyty
  6
DASHED2
 62
  256
370
   -1
100
AcDbPolyline
 90
    5
 70
    1
 43
0
 10
1430
 20
197
 10
1758
 20
197
 10
1758
 20
346
 10
1430
 20
346
 10
1430
 20
346
  0
MTEXT
  5
1E9
100
AcDbEntity
  8
plyty
  6
ByLayer
 62
  256
370
   -1
100
AcDbMText
 10
1600
 20
-60
 30
0
 40
20
 41
148.3333333333371
 71
    8
 72
    1
  1
ПК 33-15-8 
  7
cyrillic_ii
210
0
220
0
230
1
 50
0
 73
    2
 44
1
  0
LWPOLYLINE
  5
1EA
100
AcDbEntity
  8
plyty
  6
DASHED2
 62
  256
370
   -1
100
AcDbPolyline
 90
    6
 70
    1
 43
0
 10
531
 20
555
 10
969
 20
555
 10
969
 20
704
 10
531
 20
704
 10
531
 20
704
 10
531
 20
704
  0
LWPOLYLINE
  5
1EB
100
AcDbEntity
  8
plyty
  6
DASHED2
 62
  256
370
   -1
100
AcDbPolyline
 90
    6
 70
    1
 43
0
 10
1430
 20
855
 10
1928
 20
855
 10
1928
 20
1004
 10
1430
 20
1004
 10
1430
 20
1004
 10
1430
 20
1004
  0
LWPOLYLINE
  5
1EC
100
AcDbEntity
  8
plyty
  6
DASHED2
 62
  256
370
   -1
100
AcDbPolyline
 90
    6
 70
    1
 43
0
 10
1430
 20
705
 10
1928
 20
705
 10
1928
 20
854
 10
1430
 20
854
 10
1430
 20
854
 10
1430
 20
854
  0
LWPOLYLINE
  5
1ED
100
AcDbEntity
  8
plyty
  6
DASHED2
 62
  256
370
   -1
100
AcDbPolyline
 90
    6
 70
    1
 43
0
 10
1931
 20
704.9999600000001
 10
2369
 20
704.9999600000001
 10
2369
 20
853.9999600000001
 10
1931
 20
853.9999600000001
 10
1931
 20
853.9999600000001
 10
1931
 20
853.9999600000001
  0
LWPOLYLINE
  5
1EE
100
AcDbEntity
  8
plyty
  6
DASHED2
 62
  256
370
   -1
100
AcDbPolyline
 90
    6
 70
    1
 43
0
 10
1931
 20
855
 10
2369
 20
855
 10
2369
 20
1004
 10
1931
 20
1004
 10
1931
 20
1004
 10
1931
 20
1004
  0
LWPOLYLINE
  5
1EF
100
AcDbEntity
  8
plyty
  6
DASHED2
 62
  256
370
   -1
100
AcDbPolyline
 90
    6
 70
    1
 43
0
 10
1931
 20
555
 10
2369
 20
555
 10
2369
 20
704
 10
1931
 20
704
 10
1931
 20
704
 10
1931
 20
704
  0
LWPOLYLINE
  5
1F0
100
AcDbEntity
  8
plyty
  6
DASHED2
 62
  256
370
   -1
100
AcDbPolyline
 90
    6
 70
    1
 43
0
 10
1430
 20
534
 10
1928
 20
534
 10
1928
 20
683
 10
1430
 20
683
 10
1430
 20
683
 10
1430
 20
683
  0
LWPOLYLINE
  5
1F1
100
AcDbEntity
  8
projomy
  6
ByLayer
 62
  256
370
   -1
100
AcDbPolyline
 90
    4
 70
    1
 43
0
 10
1793
 20
704
 10
1883
 20
704
 10
1883
 20
684
 10
1793
 20
684
  0
LWPOLYLINE
  5
1F2
100
AcDbEntity
  8
projomy
  6
ByLayer
 62
  256
370
   -1
100
AcDbPolyline
 90
    4
 70
    1
 43
0
 10
393
 20
704
 10
483
 20
704
 10
483
 20
684
 10
393
 20
684
  0
LWPOLYLINE
  5
1F3
100
AcDbEntity
  8
balky
  6
ByLayer
 62
  256
370
   -1
100
AcDbPolyline
 90
    4
 70
    1
 43
0
 10
371
 20
453
 10
346
 20
453
 10
346
 20
704
 10
371
 20
704
  0
LWPOLYLINE
  5
1F4
100
AcDbEntity
  8
plyty
  6
DASHED2
 62
  256
370
   -1
100
AcDbPolyline
 90
    5
 70
    1
 43
0
 10
360
 20
534
 10
528
 20
534
 10
528
 20
683
 10
360
 20
683
 10
360
 20
683
  0
LWPOLYLINE
  5
1F5
100
AcDbEntity
  8
fundament
  6
ByLayer
 62
  256
370
   -1
100
AcDbPolyline
 90
    4
 70
    1
 43
0
 10
0
 20
1050
 10
1000
 20
1050
 10
1000
 20
8.881784197001252e-16
 10
0
 20
8.881784197001252e-16
  0
LWPOLYLINE
  5
1F6
100
AcDbEntity
  8
fundament
  6
ByLayer
 62
  256
370
   -1
100
AcDbPolyline
 90
    4
 70
    1
 43
0
 10
960
 20
40.00000000000001
 10
550
 20
40.00000000000001
 10
550
 20
513
 10
960
 20
513
  0
LWPOLYLINE
  5
1F7
100
AcDbEntity
  8
fundament
  6
ByLayer
 62
  256
370
   -1
100
AcDbPolyline
 90
    4
 70
    1
 43
0
 10
960
 20
1010
 10
550
 20
1010
 10
550
 20
553
 10
960
 20
553
  0
LWPOLYLINE
  5
1F8
100
AcDbEntity
  8
fundament
  6
ByLayer
 62
  256
370
   -1
100
AcDbPolyline
 90
    4
 70
    1
 43
0
 10
40
 20
1010
 10
510
 20
1010
 10
510
 20
553
 10
40
 20
553
  0
LWPOLYLINE
  5
1F9
100
AcDbEntity
  8
fundament
  6
ByLayer
 62
  256
370
   -1
100
AcDbPolyline
 90
    4
 70
    1
 43
0
 10
40
 20
40.00000000000001
 10
340
 20
40.00003600000008
 10
340
 20
513
 10
40
 20
513
  0
LWPOLYLINE
  5
1FA
100
AcDbEntity
  8
fundament
  6
ByLayer
 62
  256
370
   -1
100
AcDbPolyline
 90
    4
 70
    1
 43
0
 10
380
 20
513
 10
510
 20
513
 10
510
 20
40.00003600000008
 10
380
 20
40.00003600000008
  0
LWPOLYLINE
  5
1FB
100
AcDbEntity
  8
gazoblok
  6
ByLayer
 62
  256
370
   -1
100
AcDbPolyline
 90
    4
 70
    1
 43
0
 10
47
 20
684
 10
510
 20
684
 10
510
 20
704
 10
47
 20
704
  0
LWPOLYLINE
  5
1FC
100
AcDbEntity
  8
balky
  6
DASHED2
 62
  256
370
   -1
100
AcDbPolyline
 90
    4
 70
    1
 43
0
 10
1936
 20
498
 10
2369
 20
498
 10
2369
 20
554
 10
1936
 20
554
  0
LWPOLYLINE
  5
1FD
100
AcDbEntity
  8
balky
  6
DASHED2
 62
  256
370
   -1
100
AcDbPolyline
 90
    4
 70
    1
 43
0
 10
1760
 20
498
 10
1922
 20
498
 10
1922
 20
533
 10
1760
 20
533
  0
LINE
  5
1FE
100
AcDbEntity
  8
dimensions
  6
DASHDOT2
 62
  256
370
   -1
100
AcDbLine
 10
298
 20
260
 11
278
 21
260
  0
LINE
  5
1FF
100
AcDbEntity
  8
dimensions
  6
DASHDOT2
 62
  256
370
   -1
100
AcDbLine
 10
288
 20
270
 11
288
 21
250
  0
LINE
  5
200
100
AcDbEntity
  8
dimensions
  6
DASHDOT2
 62
  256
370
   -1
100
AcDbLine
 10
320
 20
60
 11
300
 21
60
  0
LINE
  5
201
100
AcDbEntity
  8
dimensions
  6
DASHDOT2
 62
  256
370
   -1
100
AcDbLine
 10
310
 20
70
 11
310
 21
50
  0
LWPOLYLINE
  5
202
100
AcDbEntity
  8
brick
  6
ByLayer
 62
  256
370
   -1
100
AcDbPolyline
 90
    4
 70
    1
 43
0
 10
586
 20
52
 10
586
 20
77
 10
580
 20
77
 10
580
 20
52
  0
LWPOLYLINE
  5
203
100
AcDbEntity
  8
brick
  6
ByLayer
 62
  256
370
   -1
100
AcDbPolyline
 90
    4
 70
    1
 43
0
 10
586
 20
78
 10
586
 20
103
 10
580
 20
103
 10
580
 20
78
  0
LWPOLYLINE
  5
204
100
AcDbEntity
  8
brick
  6
ByLayer
 62
  256
370
   -1
100
AcDbPolyline
 90
    4
 70
    1
 43
0
 10
586
 20
104
 10
586
 20
129
 10
580
 20
129
 10
580
 20
104
  0
LWPOLYLINE
  5
205
100
AcDbEntity
  8
brick
  6
ByLayer
 62
  256
370
   -1
100
AcDbPolyline
 90
    4
 70
    1
 43
0
 10
586
 20
130
 10
586
 20
155
 10
580
 20
155
 10
580
 20
130
  0
LWPOLYLINE
  5
206
100
AcDbEntity
  8
brick
  6
ByLayer
 62
  256
370
   -1
100
AcDbPolyline
 90
    4
 70
    1
 43
0
 10
586
 20
156
 10
586
 20
181
 10
580
 20
181
 10
580
 20
156
  0
LWPOLYLINE
  5
207
100
AcDbEntity
  8
brick
  6
ByLayer
 62
  256
370
   -1
100
AcDbPolyline
 90
    4
 70
    1
 43
0
 10
586
 20
26
 10
586
 20
51
 10
580
 20
51
 10
580
 20
26
  0
LWPOLYLINE
  5
208
100
AcDbEntity
  8
brick
  6
ByLayer
 62
  256
370
   -1
100
AcDbPolyline
 90
    4
 70
    1
 43
0
 10
586
 20
-3.673940397442059e-16
 10
586
 20
25
 10
580
 20
25
 10
580
 20
0
  0
LWPOLYLINE
  5
209
100
AcDbEntity
  8
brick
  6
ByLayer
 62
  256
370
   -1
100
AcDbPolyline
 90
    4
 70
    1
 43
0
 10
586
 20
182
 10
586
 20
207
 10
580
 20
207
 10
580
 20
182
  0
LWPOLYLINE
  5
20A
100
AcDbEntity
  8
face
  6
ByLayer
 62
  256
370
   -1
100
AcDbPolyline
 90
    7
 70
    0
 43
0
 10
546
 20
246
 10
546
 20
12
 10
12
 20
12
 10
12
 20
1040
 10
988
 20
1040
 10
988
 20
246
 10
546
 20
246
  0
LWPOLYLINE
  5
20B
100
AcDbEntity
  8
face
  6
ByLayer
 62
  256
370
   -1
100
AcDbPolyline
 90
    7
 70
    0
 43
0
 10
558
 20
234
 10
558
 20
0
 10
0
 20
8.881784197001252e-16
 10
0
 20
1052
 10
1000
 20
1052
 10
1000
 20
234
 10
558
 20
234
  0
LWPOLYLINE
  5
20C
100
AcDbEntity
  8
cegla
  6
ByLayer
 62
  256
370
   -1
100
AcDbPolyline
 90
    4
 70
    1
 43
0
 10
508
 20
17
 10
546
 20
17
 10
546
 20
1005
 10
508
 20
1005
  0
LWPOLYLINE
  5
20D
100
AcDbEntity
  8
gazoblok
  6
DASHED2
 62
  256
370
   -1
100
AcDbPolyline
 90
    5
 70
    1
 43
0
 10
546
 20
516
 10
953
 20
516
 10
953
 20
536
 10
546
 20
536
 10
546
 20
536
  0
LWPOLYLINE
  5
20E
100
AcDbEntity
  8
gazoblok
  6
ByLayer
 62
  256
370
   -1
100
AcDbPolyline
 90
   13
 70
    0
 43
0
 10
508
 20
47
 10
508
 20
17
 10
17
 20
16.99999999999999
 10
17
 20
1035
 10
983
 20
1035
 10
983
 20
251
 10
546
 20
251
 10
546
 20
281
 10
953
 20
281
 10
953
 20
1005
 10
47
 20
1005
 10
47
 20
46.99999999999999
 10
508
 20
47
  0
LWPOLYLINE
  5
20F
100
AcDbEntity
  8
plyty
  6
DASHED2
 62
  256
370
   -1
100
AcDbPolyline
 90
    5
 70
    1
 43
0
 10
29
 20
368
 10
357
 20
368
 10
357
 20
467
 10
29
 20
467
 10
29
 20
467
  0
LWPOLYLINE
  5
210
100
AcDbEntity
  8
plyty
  6
DASHED2
 62
  256
370
   -1
100
AcDbPolyline
 90
    5
 70
    1
 43
0
 10
29
 20
48.99999999999999
 10
357
 20
48.99999999999999
 10
357
 20
148
 10
29
 20
148
 10
29
 20
148
  0
LWPOLYLINE
  5
211
100
AcDbEntity
  8
plyty
  6
DASHED2
 62
  256
370
   -1
100
AcDbPolyline
 90
    5
 70
    1
 43
0
 10
29
 20
151
 10
357
 20
151
 10
357
 20
250
 10
29
 20
250
 10
29
 20
250
  0
LWPOLYLINE
  5
212
100
AcDbEntity
  8
cegla
  6
ByLayer
 62
  256
370
   -1
100
AcDbPolyline
 90
    4
 70
    1
 43
0
 10
47
 20
254
 10
346
 20
254
 10
346
 20
266
 10
47
 20
266
  0
LWPOLYLINE
  5
213
100
AcDbEntity
  8
plyty
  6
DASHED2
 62
  256
370
   -1
100
AcDbPolyline
 90
    5
 70
    1
 43
0
 10
29
 20
267
 10
357
 20
267
 10
357
 20
366
 10
29
 20
366
 10
29
 20
366
  0
LWPOLYLINE
  5
214
100
AcDbEntity
  8
projomy
  6
ByLayer
 62
  256
370
   -1
100
AcDbPolyline
 90
    4
 70
    1
 43
0
 10
371
 20
151
 10
371
 20
72
 10
346
 20
72
 10
346
 20
151
  0
LWPOLYLINE
  5
215
100
AcDbEntity
  8
projomy
  6
ByLayer
 62
  256
370
   -1
100
AcDbPolyline
 90
    4
 70
    1
 43
0
 10
371
 20
450
 10
371
 20
371
 10
346
 20
371
 10
346
 20
450
  0
LWPOLYLINE
  5
216
100
AcDbEntity
  8
cegla
  6
ByLayer
 62
  256
370
   -1
100
AcDbPolyline
 90
    4
 70
    1
 43
0
 10
47
 20
470
 10
346
 20
470
 10
346
 20
482
 10
47
 20
482
  0
LWPOLYLINE
  5
217
100
AcDbEntity
  8
cegla
  6
ByLayer
 62
  256
370
   -1
100
AcDbPolyline
 90
    4
 70
    1
 43
0
 10
346
 20
46.99999999999999
 10
371
 20
47
 10
371
 20
482
 10
346
 20
482
  0
LWPOLYLINE
  5
218
100
AcDbEntity
  8
projomy
  6
ByLayer
 62
  256
370
   -1
100
AcDbPolyline
 90
    9
 70
    0
 43
0
 10
558
 20
90
 10
558
 20
195
 10
546
 20
195
 10
546
 20
203
 10
508
 20
203
 10
508
 20
85
 10
546
 20
85
 10
546
 20
90
 10
558
 20
90
  0
LWPOLYLINE
  5
219
100
AcDbEntity
  8
cegla
  6
ByLayer
 62
  256
370
   -1
100
AcDbPolyline
 90
    5
 70
    1
 43
0
 10
508
 20
502
 10
508
 20
527
 10
520
 20
527
 10
520
 20
502
 10
520
 20
502
  0
LWPOLYLINE
  5
21A
100
AcDbEntity
  8
cegla
  6
ByLayer
 62
  256
370
   -1
100
AcDbPolyline
 90
    5
 70
    1
 43
0
 10
533
 20
489
 10
508
 20
489
 10
508
 20
501
 10
533
 20
501
 10
533
 20
501
  0
LWPOLYLINE
  5
21B
100
AcDbEntity
  8
cegla
  6
ByLayer
 62
  256
370
   -1
100
AcDbPolyline
 90
    5
 70
    1
 43
0
 10
533
 20
528
 10
508
 20
528
 10
508
 20
540
 10
533
 20
540
 10
533
 20
540
  0
LWPOLYLINE
  5
21C
100
AcDbEntity
  8
cegla
  6
ByLayer
 62
  256
370
   -1
100
AcDbPolyline
 90
    5
 70
    1
 43
0
 10
534
 20
515
 10
534
 20
540
 10
546
 20
540
 10
546
 20
515
 10
546
 20
515
  0
LWPOLYLINE
  5
21D
100
AcDbEntity
  8
cegla
  6
ByLayer
 62
  256
370
   -1
100
AcDbPolyline
 90
    5
 70
    1
 43
0
 10
534
 20
489
 10
534
 20
514
 10
546
 20
514
 10
546
 20
489
 10
546
 20
489
  0
LWPOLYLINE
  5
21E
100
AcDbEntity
  8
balky
  6
DASHED2
 62
  256
370
   -1
100
AcDbPolyline
 90
    4
 70
    1
 43
0
 10
534
 20
498
 10
969
 20
498
 10
969
 20
554
 10
534
 20
554
  0
LWPOLYLINE
  5
21F
100
AcDbEntity
  8
balky
  6
DASHED2
 62
  256
370
   -1
100
AcDbPolyline
 90
    4
 70
    1
 43
0
 10
360
 20
498
 10
520
 20
498
 10
520
 20
533
 10
360
 20
533
  0
LWPOLYLINE
  5
220
100
AcDbEntity
  8
projomy
  6
ByLayer
 62
  256
370
   -1
100
AcDbPolyline
 90
    4
 70
    1
 43
0
 10
508
 20
294
 10
508
 20
464
 10
546
 20
464
 10
546
 20
294
  0
LWPOLYLINE
  5
221
100
AcDbEntity
  8
cegla
  6
ByLayer
 62
  256
370
   -1
100
AcDbPolyline
 90
    5
 70
    1
 43
0
 10
1908
 20
502
 10
1908
 20
527
 10
1920
 20
527
 10
1920
 20
502
 10
1920
 20
502
  0
LWPOLYLINE
  5
222
100
AcDbEntity
  8
cegla
  6
ByLayer
 62
  256
370
   -1
100
AcDbPolyline
 90
    5
 70
    1
 43
0
 10
1933
 20
489
 10
1908
 20
489
 10
1908
 20
501
 10
1933
 20
501
 10
1933
 20
501
  0
LWPOLYLINE
  5
223
100
AcDbEntity
  8
cegla
  6
ByLayer
 62
  256
370
   -1
100
AcDbPolyline
 90
    5
 70
    1
 43
0
 10
1933
 20
528
 10
1908
 20
528
 10
1908
 20
540
 10
1933
 20
540
 10
1933
 20
540
  0
LWPOLYLINE
  5
224
100
AcDbEntity
  8
cegla
  6
ByLayer
 62
  256
370
   -1
100
AcDbPolyline
 90
    5
 70
    1
 43
0
 10
1934
 20
515
 10
1934
 20
540
 10
1946
 20
540
 10
1946
 20
515
 10
1946
 20
515
  0
LWPOLYLINE
  5
225
100
AcDbEntity
  8
cegla
  6
ByLayer
 62
  256
370
   -1
100
AcDbPolyline
 90
    5
 70
    1
 43
0
 10
1934
 20
489
 10
1934
 20
514
 10
1946
 20
514
 10
1946
 20
489
 10
1946
 20
489
  0
LWPOLYLINE
  5
226
100
AcDbEntity
  8
cegla
  6
ByLayer
 62
  256
370
   -1
100
AcDbPolyline
 90
    4
 70
    1
 43
0
 10
1908
 20
47
 10
1946
 20
47
 10
1946
 20
1005
 10
1908
 20
1005
  0
LWPOLYLINE
  5
227
100
AcDbEntity
  8
gazoblok
  6
ByLayer
 62
  256
370
   -1
100
AcDbPolyline
 90
    4
 70
    1
 43
0
 10
1946
 20
516
 10
2353
 20
516
 10
2353
 20
536
 10
1946
 20
536
  0
LWPOLYLINE
  5
228
100
AcDbEntity
  8
gazoblok
  6
ByLayer
 62
  256
370
   -1
100
AcDbPolyline
 90
    4
 70
    1
 43
0
 10
1447
 20
684
 10
1908
 20
684
 10
1908
 20
704
 10
1447
 20
704
  0
LINE
  5
229
100
AcDbEntity
  8
dimensions
  6
DASHDOT2
 62
  256
370
   -1
100
AcDbLine
 10
1698
 20
260
 11
1678
 21
260
  0
LINE
  5
22A
100
AcDbEntity
  8
dimensions
  6
DASHDOT2
 62
  256
370
   -1
100
AcDbLine
 10
1688
 20
270
 11
1688
 21
250
  0
LWPOLYLINE
  5
22B
100
AcDbEntity
  8
cegla
  6
ByLayer
 62
  256
370
   -1
100
AcDbPolyline
 90
    4
 70
    1
 43
0
 10
1447
 20
254
 10
1746
 20
254
 10
1746
 20
266
 10
1447
 20
266
  0
LWPOLYLINE
  5
22C
100
AcDbEntity
  8
cegla
  6
ByLayer
 62
  256
370
   -1
100
AcDbPolyline
 90
    4
 70
    1
 43
0
 10
1447
 20
470
 10
1746
 20
470
 10
1746
 20
482
 10
1447
 20
482
  0
LWPOLYLINE
  5
22D
100
AcDbEntity
  8
cegla
  6
ByLayer
 62
  256
370
   -1
100
AcDbPolyline
 90
    4
 70
    1
 43
0
 10
1746
 20
46.99999999999999
 10
1771
 20
47
 10
1771
 20
482
 10
1746
 20
482
  0
LWPOLYLINE
  5
22E
100
AcDbEntity
  8
brick
  6
ByLayer
 62
  256
370
   -1
100
AcDbPolyline
 90
    4
 70
    1
 43
0
 10
1900
 20
99
 10
1900
 20
124
 10
1894
 20
124
 10
1894
 20
99
  0
LWPOLYLINE
  5
22F
100
AcDbEntity
  8
brick
  6
ByLayer
 62
  256
370
   -1
100
AcDbPolyline
 90
    4
 70
    1
 43
0
 10
1900
 20
125
 10
1900
 20
150
 10
1894
 20
150
 10
1894
 20
125
  0
LWPOLYLINE
  5
230
100
AcDbEntity
  8
brick
  6
ByLayer
 62
  256
370
   -1
100
AcDbPolyline
 90
    4
 70
    1
 43
0
 10
1900
 20
151
 10
1900
 20
176
 10
1894
 20
176
 10
1894
 20
151
  0
LWPOLYLINE
  5
231
100
AcDbEntity
  8
brick
  6
ByLayer
 62
  256
370
   -1
100
AcDbPolyline
 90
    4
 70
    1
 43
0
 10
1900
 20
177
 10
1900
 20
202
 10
1894
 20
202
 10
1894
 20
177
  0
LWPOLYLINE
  5
232
100
AcDbEntity
  8
brick
  6
ByLayer
 62
  256
370
   -1
100
AcDbPolyline
 90
    4
 70
    1
 43
0
 10
1900
 20
203
 10
1900
 20
228
 10
1894
 20
228
 10
1894
 20
203
  0
LWPOLYLINE
  5
233
100
AcDbEntity
  8
brick
  6
ByLayer
 62
  256
370
   -1
100
AcDbPolyline
 90
    4
 70
    1
 43
0
 10
1900
 20
73
 10
1900
 20
98
 10
1894
 20
98
 10
1894
 20
73
  0
LWPOLYLINE
  5
234
100
AcDbEntity
  8
brick
  6
ByLayer
 62
  256
370
   -1
100
AcDbPolyline
 90
    4
 70
    1
 43
0
 10
1900
 20
47
 10
1900
 20
72
 10
1894
 20
72
 10
1894
 20
47
  0
LWPOLYLINE
  5
235
100
AcDbEntity
  8
brick
  6
ByLayer
 62
  256
370
   -1
100
AcDbPolyline
 90
    4
 70
    1
 43
0
 10
1900
 20
281
 10
1900
 20
306
 10
1894
 20
306
 10
1894
 20
281
  0
LWPOLYLINE
  5
236
100
AcDbEntity
  8
brick
  6
ByLayer
 62
  256
370
   -1
100
AcDbPolyline
 90
    4
 70
    1
 43
0
 10
1900
 20
307
 10
1900
 20
332
 10
1894
 20
332
 10
1894
 20
307
  0
LWPOLYLINE
  5
237
100
AcDbEntity
  8
brick
  6
ByLayer
 62
  256
370
   -1
100
AcDbPolyline
 90
    4
 70
    1
 43
0
 10
1900
 20
333
 10
1900
 20
358
 10
1894
 20
358
 10
1894
 20
333
  0
LWPOLYLINE
  5
238
100
AcDbEntity
  8
brick
  6
ByLayer
 62
  256
370
   -1
100
AcDbPolyline
 90
    4
 70
    1
 43
0
 10
1900
 20
359
 10
1900
 20
384
 10
1894
 20
384
 10
1894
 20
359
  0
LWPOLYLINE
  5
239
100
AcDbEntity
  8
brick
  6
ByLayer
 62
  256
370
   -1
100
AcDbPolyline
 90
    4
 70
    1
 43
0
 10
1900
 20
385
 10
1900
 20
410
 10
1894
 20
410
 10
1894
 20
385
  0
LWPOLYLINE
  5
23A
100
AcDbEntity
  8
brick
  6
ByLayer
 62
  256
370
   -1
100
AcDbPolyline
 90
    4
 70
    1
 43
0
 10
1900
 20
255
 10
1900
 20
280
 10
1894
 20
280
 10
1894
 20
255
  0
LWPOLYLINE
  5
23B
100
AcDbEntity
  8
brick
  6
ByLayer
 62
  256
370
   -1
100
AcDbPolyline
 90
    4
 70
    1
 43
0
 10
1900
 20
229
 10
1900
 20
254
 10
1894
 20
254
 10
1894
 20
229
  0
LWPOLYLINE
  5
23C
100
AcDbEntity
  8
brick
  6
ByLayer
 62
  256
370
   -1
100
AcDbPolyline
 90
    4
 70
    1
 43
0
 10
1900
 20
463
 10
1900
 20
488
 10
1894
 20
488
 10
1894
 20
463
  0
LWPOLYLINE
  5
23D
100
AcDbEntity
  8
brick
  6
ByLayer
 62
  256
370
   -1
100
AcDbPolyline
 90
    4
 70
    1
 43
0
 10
1900
 20
489
 10
1900
 20
514
 10
1894
 20
514
 10
1894
 20
489
  0
LWPOLYLINE
  5
23E
100
AcDbEntity
  8
brick
  6
ByLayer
 62
  256
370
   -1
100
AcDbPolyline
 90
    4
 70
    1
 43
0
 10
1900
 20
437
 10
1900
 20
462
 10
1894
 20
462
 10
1894
 20
437
  0
LWPOLYLINE
  5
23F
100
AcDbEntity
  8
brick
  6
ByLayer
 62
  256
370
   -1
100
AcDbPolyline
 90
    4
 70
    1
 43
0
 10
1900
 20
411
 10
1900
 20
436
 10
1894
 20
436
 10
1894
 20
411
  0
LWPOLYLINE
  5
240
100
AcDbEntity
  8
brick
  6
ByLayer
 62
  256
370
   -1
100
AcDbPolyline
 90
    4
 70
    1
 43
0
 10
1900
 20
515
 10
1900
 20
540
 10
1894
 20
540
 10
1894
 20
515
  0
LWPOLYLINE
  5
241
100
AcDbEntity
  8
brick
  6
ByLayer
 62
  256
370
   -1
100
AcDbPolyline
 90
    4
 70
    1
 43
0
 10
1900
 20
593
 10
1900
 20
618
 10
1894
 20
618
 10
1894
 20
593
  0
LWPOLYLINE
  5
242
100
AcDbEntity
  8
brick
  6
ByLayer
 62
  256
370
   -1
100
AcDbPolyline
 90
    4
 70
    1
 43
0
 10
1900
 20
619
 10
1900
 20
644
 10
1894
 20
644
 10
1894
 20
619
  0
LWPOLYLINE
  5
243
100
AcDbEntity
  8
brick
  6
ByLayer
 62
  256
370
   -1
100
AcDbPolyline
 90
    4
 70
    1
 43
0
 10
1900
 20
567
 10
1900
 20
592
 10
1894
 20
592
 10
1894
 20
567
  0
LWPOLYLINE
  5
244
100
AcDbEntity
  8
brick
  6
ByLayer
 62
  256
370
   -1
100
AcDbPolyline
 90
    4
 70
    1
 43
0
 10
1900
 20
541
 10
1900
 20
566
 10
1894
 20
566
 10
1894
 20
541
  0
LWPOLYLINE
  5
245
100
AcDbEntity
  8
brick
  6
ByLayer
 62
  256
370
   -1
100
AcDbPolyline
 90
    4
 70
    1
 43
0
 10
1900
 20
645
 10
1900
 20
670
 10
1894
 20
670
 10
1894
 20
645
  0
LWPOLYLINE
  5
246
100
AcDbEntity
  8
brick
  6
ByLayer
 62
  256
370
   -1
100
AcDbPolyline
 90
    4
 70
    1
 43
0
 10
1900
 20
671
 10
1900
 20
696
 10
1894
 20
696
 10
1894
 20
671
  0
LWPOLYLINE
  5
247
100
AcDbEntity
  8
projomy
  6
ByLayer
 62
  256
370
   -1
100
AcDbPolyline
 90
    4
 70
    1
 43
0
 10
1908
 20
579
 10
1908
 20
671
 10
1946
 20
671
 10
1946
 20
579
  0
LWPOLYLINE
  5
248
100
AcDbEntity
  8
projomy
  6
ByLayer
 62
  256
370
   -1
100
AcDbPolyline
 90
    4
 70
    1
 43
0
 10
1908
 20
384
 10
1908
 20
474
 10
1946
 20
474
 10
1946
 20
384
  0
MTEXT
  5
249
100
AcDbEntity
  8
dimensions
  6
ByLayer
 62
  256
370
   -1
100
AcDbMText
 10
530
 20
1300
 30
0
 40
50
 41
879.1666666666666
 71
    5
 72
    1
  1
Розрiз А-А. Низ коробки.
  7
cyrillic_ii
210
0
220
0
230
1
 50
0
 73
    2
 44
1
  0
ENDSEC
  0
SECTION
  2
OBJECTS
  0
DICTIONARY
  5
C
330
0
100
AcDbDictionary
281
    1
  3
ACAD_GROUP
350
D
  0
DICTIONARY
  5
D
330
C
100
AcDbDictionary
281
    1
  0
ENDSEC
  0
EOF
