999
dxfrw 0.6.3
  0
SECTION
  2
HEADER
  9
$ACADVER
  1
AC1021
  9
$DWGCODEPAGE
  3
ANSI_1252
  9
$INSBASE
 10
0
 20
0
 30
0
  9
$EXTMIN
 10
10000000000
 20
10000000000
 30
0
  9
$EXTMAX
 10
-10000000000
 20
-10000000000
 30
0
  9
$LIMMIN
 10
0
 20
0
  9
$LIMMAX
 10
420
 20
297
  9
$ORTHOMODE
 70
    0
  9
$REGENMODE
 70
    1
  9
$FILLMODE
 70
    1
  9
$QTEXTMODE
 70
    0
  9
$MIRRTEXT
 70
    0
  9
$LTSCALE
 40
1
  9
$ATTMODE
 70
    0
  9
$TEXTSIZE
 40
2.5
  9
$TRACEWID
 40
15.68
  9
$TEXTSTYLE
  7
STANDARD
  9
$CLAYER
  8
face
  9
$CELTYPE
  6
BYLAYER
  9
$CECOLOR
 62
  256
  9
$CELTSCALE
 40
1
  9
$DISPSILH
 70
    0
  9
$DIMSCALE
 40
1
  9
$DIMASZ
 40
5
  9
$DIMEXO
 40
1
  9
$DIMDLI
 40
3.75
  9
$DIMRND
 40
0
  9
$DIMDLE
 40
0
  9
$DIMEXE
 40
2
  9
$DIMTP
 40
0
  9
$DIMTM
 40
0
  9
$DIMTXT
 40
4
  9
$DIMCEN
 40
2.5
  9
$DIMTSZ
 40
0
  9
$DIMTOL
 70
    0
  9
$DIMLIM
 70
    0
  9
$DIMTIH
 70
    0
  9
$DIMTOH
 70
    0
  9
$DIMSE1
 70
    0
  9
$DIMSE2
 70
    0
  9
$DIMTAD
 70
    1
  9
$DIMZIN
 70
    8
  9
$DIMBLK
  1

  9
$DIMASO
 70
    1
  9
$DIMSHO
 70
    1
  9
$DIMPOST
  1

  9
$DIMAPOST
  1

  9
$DIMALT
 70
    0
  9
$DIMALTD
 70
    3
  9
$DIMALTF
 40
0.03937
  9
$DIMLFAC
 40
1
  9
$DIMTOFL
 70
    1
  9
$DIMTVP
 40
0
  9
$DIMTIX
 70
    0
  9
$DIMSOXD
 70
    0
  9
$DIMSAH
 70
    0
  9
$DIMBLK1
  1

  9
$DIMBLK2
  1

  9
$DIMSTYLE
  2
STANDARD
  9
$DIMCLRD
 70
    0
  9
$DIMCLRE
 70
    0
  9
$DIMCLRT
 70
    0
  9
$DIMTFAC
 40
1
  9
$DIMGAP
 40
1
  9
$DIMJUST
 70
    0
  9
$DIMSD1
 70
    0
  9
$DIMSD2
 70
    0
  9
$DIMTOLJ
 70
    0
  9
$DIMTZIN
 70
    8
  9
$DIMALTZ
 70
    0
  9
$DIMALTTZ
 70
    0
  9
$DIMUPT
 70
    0
  9
$DIMDEC
 70
    1
  9
$DIMTDEC
 70
    2
  9
$DIMALTU
 70
    2
  9
$DIMALTTD
 70
    3
  9
$DIMTXSTY
  7
standard
  9
$DIMAUNIT
 70
    0
  9
$DIMADEC
 70
    0
  9
$DIMALTRND
 40
0
  9
$DIMAZIN
 70
    0
  9
$DIMDSEP
 70
   44
  9
$DIMATFIT
 70
    3
  9
$DIMFRAC
 70
    0
  9
$DIMLDRBLK
  1
STANDARD
  9
$DIMLUNIT
 70
    2
  9
$DIMLWD
 70
   -2
  9
$DIMLWE
 70
   -2
  9
$DIMTMOVE
 70
    0
  9
$DIMFXL
 40
1
  9
$DIMFXLON
 70
    0
  9
$DIMJOGANG
 40
0.7854
  9
$DIMTFILL
 70
    0
  9
$DIMTFILLCLR
 70
    0
  9
$DIMARCSYM
 70
    0
  9
$DIMLTYPE
  6

  9
$DIMLTEX1
  6

  9
$DIMLTEX2
  6

  9
$LUNITS
 70
    2
  9
$LUPREC
 70
    2
  9
$SKETCHINC
 40
1
  9
$FILLETRAD
 40
0
  9
$AUNITS
 70
    0
  9
$AUPREC
 70
    2
  9
$MENU
  1
.
  9
$ELEVATION
 40
0
  9
$PELEVATION
 40
0
  9
$THICKNESS
 40
0
  9
$LIMCHECK
 70
    0
  9
$CHAMFERA
 40
0
  9
$CHAMFERB
 40
0
  9
$CHAMFERC
 40
0
  9
$CHAMFERD
 40
0
  9
$SKPOLY
 70
    0
  9
$USRTIMER
 70
    1
  9
$ANGBASE
 50
0
  9
$ANGDIR
 70
    0
  9
$PDMODE
 70
   34
  9
$PDSIZE
 40
0
  9
$PLINEWID
 40
0
  9
$SPLFRAME
 70
    0
  9
$SPLINETYPE
 70
    2
  9
$SPLINESEGS
 70
    8
  9
$HANDSEED
  5
20000
  9
$SURFTAB1
 70
    6
  9
$SURFTAB2
 70
    6
  9
$SURFTYPE
 70
    6
  9
$SURFU
 70
    6
  9
$SURFV
 70
    6
  9
$UCSBASE
  2

  9
$UCSNAME
  2

  9
$UCSORG
 10
0
 20
0
 30
0
  9
$UCSXDIR
 10
1
 20
0
 30
0
  9
$UCSYDIR
 10
0
 20
1
 30
0
  9
$UCSORTHOREF
  2

  9
$UCSORTHOVIEW
 70
    0
  9
$UCSORGTOP
 10
0
 20
0
 30
0
  9
$UCSORGBOTTOM
 10
0
 20
0
 30
0
  9
$UCSORGLEFT
 10
0
 20
0
 30
0
  9
$UCSORGRIGHT
 10
0
 20
0
 30
0
  9
$UCSORGFRONT
 10
0
 20
0
 30
0
  9
$UCSORGBACK
 10
0
 20
0
 30
0
  9
$PUCSBASE
  2

  9
$PUCSNAME
  2

  9
$PUCSORG
 10
0
 20
0
 30
0
  9
$PUCSXDIR
 10
1
 20
0
 30
0
  9
$PUCSYDIR
 10
0
 20
1
 30
0
  9
$PUCSORTHOREF
  2

  9
$PUCSORTHOVIEW
 70
    0
  9
$PUCSORGTOP
 10
0
 20
0
 30
0
  9
$PUCSORGBOTTOM
 10
0
 20
0
 30
0
  9
$PUCSORGLEFT
 10
0
 20
0
 30
0
  9
$PUCSORGRIGHT
 10
0
 20
0
 30
0
  9
$PUCSORGFRONT
 10
0
 20
0
 30
0
  9
$PUCSORGBACK
 10
0
 20
0
 30
0
  9
$USERI1
 70
    0
  9
$USERI2
 70
    0
  9
$USERI3
 70
    0
  9
$USERI4
 70
    0
  9
$USERI5
 70
    0
  9
$USERR1
 40
0
  9
$USERR2
 40
0
  9
$USERR3
 40
0
  9
$USERR4
 40
0
  9
$USERR5
 40
0
  9
$WORLDVIEW
 70
    1
  9
$SHADEDGE
 70
    3
  9
$SHADEDIF
 70
   70
  9
$TILEMODE
 70
    1
  9
$MAXACTVP
 70
   64
  9
$PINSBASE
 10
4.875242326332796
 20
3.68578352180937
 30
0
  9
$PLIMCHECK
 70
    0
  9
$PEXTMIN
 10
0
 20
0
 30
0
  9
$PEXTMAX
 10
0
 20
0
 30
0
  9
$GRIDMODE
 70
    1
  9
$SNAPSTYLE
 70
    0
  9
$GRIDUNIT
 10
0
 20
0
  9
$PLIMMIN
 10
0
 20
0
  9
$PLIMMAX
 10
29.7
 20
21
  9
$UNITMODE
 70
    0
  9
$VISRETAIN
 70
    1
  9
$PLINEGEN
 70
    0
  9
$PSLTSCALE
 70
    1
  9
$TREEDEPTH
 70
 3020
  9
$CMLSTYLE
  2
Standard
  9
$CMLJUST
 70
    0
  9
$CMLSCALE
 40
20
  9
$PROXYGRAPHICS
 70
    1
  9
$MEASUREMENT
 70
    1
  9
$CELWEIGHT
370
   -1
  9
$ENDCAPS
280
    0
  9
$JOINSTYLE
280
    0
  9
$LWDISPLAY
290
    0
  9
$INSUNITS
 70
    5
  9
$HYPERLINKBASE
  1

  9
$STYLESHEET
  1

  9
$XEDIT
290
    1
  9
$CEPSNTYPE
380
    0
  9
$PSTYLEMODE
290
    1
  9
$EXTNAMES
290
    1
  9
$PSVPSCALE
 40
0.07471719541535289
  9
$OLESTARTUP
290
    0
  9
$SORTENTS
280
  127
  9
$INDEXCTL
280
    0
  9
$HIDETEXT
280
    1
  9
$XCLIPFRAME
290
    0
  9
$HALOGAP
280
    0
  9
$OBSCOLOR
 70
  257
  9
$OBSLTYPE
280
    0
  9
$INTERSECTIONDISPLAY
280
    0
  9
$INTERSECTIONCOLOR
 70
  257
  9
$DIMASSOC
280
    1
  9
$PROJECTNAME
  1

  9
$CAMERADISPLAY
290
    0
  9
$LENSLENGTH
 40
50
  9
$CAMERAHEIGHT
 40
0
  9
$STEPSPERSEC
 40
2
  9
$STEPSIZE
 40
50
  9
$3DDWFPREC
 40
2
  9
$PSOLWIDTH
 40
5
  9
$PSOLHEIGHT
 40
80
  9
$LOFTANG1
 40
1.570796326794897
  9
$LOFTANG2
 40
1.570796326794897
  9
$LOFTMAG1
 40
0
  9
$LOFTMAG2
 40
0
  9
$LOFTPARAM
 70
    7
  9
$LOFTNORMALS
280
    1
  9
$LATITUDE
 40
1
  9
$LONGITUDE
 40
1
  9
$NORTHDIRECTION
 40
0
  9
$TIMEZONE
 70
-8000
  9
$LIGHTGLYPHDISPLAY
280
    1
  9
$TILEMODELIGHTSYNCH
280
    1
  9
$SOLIDHIST
280
    1
  9
$SHOWHIST
280
    1
  9
$DWFFRAME
280
    2
  9
$DGNFRAME
280
    0
  9
$REALWORLDSCALE
290
    1
  9
$INTERFERECOLOR
 62
    1
  9
$CSHADOW
280
    0
  9
$SHADOWPLANELOCATION
 40
0
  0
ENDSEC
  0
SECTION
  2
CLASSES
  0
ENDSEC
  0
SECTION
  2
TABLES
  0
TABLE
  2
VPORT
  5
8
330
0
100
AcDbSymbolTable
 70
    1
  0
VPORT
  5
31
330
2
100
AcDbSymbolTableRecord
100
AcDbViewportTableRecord
  2
*ACTIVE
 70
    0
 10
0
 20
0
 11
1
 21
1
 12
183.7866847304479
 22
113.3522346047009
 13
0
 23
0
 14
10
 24
10
 15
10
 25
10
 16
0
 26
0
 36
1
 17
0
 27
0
 37
0
 40
304.7368046256813
 41
1.987870619946092
 42
50
 43
0
 44
0
 50
0
 51
0
 71
    0
 72
  100
 73
    1
 74
    3
 75
    0
 76
    1
 77
    0
 78
    0
281
    0
 65
    1
110
0
120
0
130
0
111
1
121
0
131
0
112
0
122
1
132
0
 79
    0
146
0
348
10020
 60
    7
 61
    5
292
1
282
    1
141
0
142
0
 63
  250
421
3358443
  0
ENDTAB
  0
TABLE
  2
LTYPE
  5
5
330
0
100
AcDbSymbolTable
 70
    4
  0
LTYPE
  5
14
330
5
100
AcDbSymbolTableRecord
100
AcDbLinetypeTableRecord
  2
ByBlock
 70
    0
  3

 72
   65
 73
    0
 40
0
  0
LTYPE
  5
15
330
5
100
AcDbSymbolTableRecord
100
AcDbLinetypeTableRecord
  2
ByLayer
 70
    0
  3

 72
   65
 73
    0
 40
0
  0
LTYPE
  5
16
330
5
100
AcDbSymbolTableRecord
100
AcDbLinetypeTableRecord
  2
Continuous
 70
    0
  3
Solid line
 72
   65
 73
    0
 40
0
  0
LTYPE
  5
32
330
5
100
AcDbSymbolTableRecord
100
AcDbLinetypeTableRecord
  2
DOT
 70
    0
  3
Dot . . . . . . . . . . . . . . . . . . . . . .
 72
   65
 73
    2
 40
6.35
 49
0
 74
    0
 49
-6.35
 74
    0
  0
LTYPE
  5
33
330
5
100
AcDbSymbolTableRecord
100
AcDbLinetypeTableRecord
  2
DOTTINY
 70
    0
  3
Dot (.15x) .....................................
 72
   65
 73
    2
 40
0.9525
 49
0
 74
    0
 49
-0.9525
 74
    0
  0
LTYPE
  5
34
330
5
100
AcDbSymbolTableRecord
100
AcDbLinetypeTableRecord
  2
DOT2
 70
    0
  3
Dot (.5x) .....................................
 72
   65
 73
    2
 40
3.175
 49
0
 74
    0
 49
-3.175
 74
    0
  0
LTYPE
  5
35
330
5
100
AcDbSymbolTableRecord
100
AcDbLinetypeTableRecord
  2
DOTX2
 70
    0
  3
Dot (2x) .  .  .  .  .  .  .  .  .  .  .  .  .
 72
   65
 73
    2
 40
12.7
 49
0
 74
    0
 49
-12.7
 74
    0
  0
LTYPE
  5
36
330
5
100
AcDbSymbolTableRecord
100
AcDbLinetypeTableRecord
  2
DASHED
 70
    0
  3
Dashed _ _ _ _ _ _ _ _ _ _ _ _ _ _ _ _ _
 72
   65
 73
    2
 40
19.05
 49
12.7
 74
    0
 49
-6.35
 74
    0
  0
LTYPE
  5
37
330
5
100
AcDbSymbolTableRecord
100
AcDbLinetypeTableRecord
  2
DASHEDTINY
 70
    0
  3
Dashed (.15x) _ _ _ _ _ _ _ _ _ _ _ _ _ _ _ _ _
 72
   65
 73
    2
 40
2.8575
 49
1.905
 74
    0
 49
-0.9525
 74
    0
  0
LTYPE
  5
38
330
5
100
AcDbSymbolTableRecord
100
AcDbLinetypeTableRecord
  2
DASHED2
 70
    0
  3
Dashed (.5x) _ _ _ _ _ _ _ _ _ _ _ _ _ _ _ _ _
 72
   65
 73
    2
 40
9.524999999999999
 49
6.35
 74
    0
 49
-3.175
 74
    0
  0
LTYPE
  5
39
330
5
100
AcDbSymbolTableRecord
100
AcDbLinetypeTableRecord
  2
DASHEDX2
 70
    0
  3
Dashed (2x) ____  ____  ____  ____  ____  ___
 72
   65
 73
    2
 40
38.09999999999999
 49
25.4
 74
    0
 49
-12.7
 74
    0
  0
LTYPE
  5
3A
330
5
100
AcDbSymbolTableRecord
100
AcDbLinetypeTableRecord
  2
DASHDOT
 70
    0
  3
Dash dot __ . __ . __ . __ . __ . __ . __ . __
 72
   65
 73
    4
 40
25.4
 49
12.7
 74
    0
 49
-6.35
 74
    0
 49
0
 74
    0
 49
-6.35
 74
    0
  0
LTYPE
  5
3B
330
5
100
AcDbSymbolTableRecord
100
AcDbLinetypeTableRecord
  2
DASHDOTTINY
 70
    0
  3
Dash dot (.15x) _._._._._._._._._._._._._._._.
 72
   65
 73
    4
 40
3.81
 49
1.905
 74
    0
 49
-0.9525
 74
    0
 49
0
 74
    0
 49
-0.9525
 74
    0
  0
LTYPE
  5
3C
330
5
100
AcDbSymbolTableRecord
100
AcDbLinetypeTableRecord
  2
DASHDOT2
 70
    0
  3
Dash dot (.5x) _._._._._._._._._._._._._._._.
 72
   65
 73
    4
 40
12.7
 49
6.35
 74
    0
 49
-3.175
 74
    0
 49
0
 74
    0
 49
-3.175
 74
    0
  0
LTYPE
  5
3D
330
5
100
AcDbSymbolTableRecord
100
AcDbLinetypeTableRecord
  2
DASHDOTX2
 70
    0
  3
Dash dot (2x) ____  .  ____  .  ____  .  ___
 72
   65
 73
    4
 40
50.8
 49
25.4
 74
    0
 49
-12.7
 74
    0
 49
0
 74
    0
 49
-12.7
 74
    0
  0
LTYPE
  5
3E
330
5
100
AcDbSymbolTableRecord
100
AcDbLinetypeTableRecord
  2
DIVIDE
 70
    0
  3
Divide ____ . . ____ . . ____ . . ____ . . ____
 72
   65
 73
    6
 40
31.75
 49
12.7
 74
    0
 49
-6.35
 74
    0
 49
0
 74
    0
 49
-6.35
 74
    0
 49
0
 74
    0
 49
-6.35
 74
    0
  0
LTYPE
  5
3F
330
5
100
AcDbSymbolTableRecord
100
AcDbLinetypeTableRecord
  2
DIVIDETINY
 70
    0
  3
Divide (.15x) __..__..__..__..__..__..__..__.._
 72
   65
 73
    6
 40
4.7625
 49
1.905
 74
    0
 49
-0.9525
 74
    0
 49
0
 74
    0
 49
-0.9525
 74
    0
 49
0
 74
    0
 49
-0.9525
 74
    0
  0
LTYPE
  5
40
330
5
100
AcDbSymbolTableRecord
100
AcDbLinetypeTableRecord
  2
DIVIDE2
 70
    0
  3
Divide (.5x) __..__..__..__..__..__..__..__.._
 72
   65
 73
    6
 40
15.875
 49
6.35
 74
    0
 49
-3.175
 74
    0
 49
0
 74
    0
 49
-3.175
 74
    0
 49
0
 74
    0
 49
-3.175
 74
    0
  0
LTYPE
  5
41
330
5
100
AcDbSymbolTableRecord
100
AcDbLinetypeTableRecord
  2
DIVIDEX2
 70
    0
  3
Divide (2x) ________  .  .  ________  .  .  _
 72
   65
 73
    6
 40
63.5
 49
25.4
 74
    0
 49
-12.7
 74
    0
 49
0
 74
    0
 49
-12.7
 74
    0
 49
0
 74
    0
 49
-12.7
 74
    0
  0
LTYPE
  5
42
330
5
100
AcDbSymbolTableRecord
100
AcDbLinetypeTableRecord
  2
BORDER
 70
    0
  3
Border __ __ . __ __ . __ __ . __ __ . __ __ .
 72
   65
 73
    6
 40
44.45
 49
12.7
 74
    0
 49
-6.35
 74
    0
 49
12.7
 74
    0
 49
-6.35
 74
    0
 49
0
 74
    0
 49
-6.35
 74
    0
  0
LTYPE
  5
43
330
5
100
AcDbSymbolTableRecord
100
AcDbLinetypeTableRecord
  2
BORDERTINY
 70
    0
  3
Border (.15x) __.__.__.__.__.__.__.__.__.__.__.
 72
   65
 73
    6
 40
6.6675
 49
1.905
 74
    0
 49
-0.9525
 74
    0
 49
1.905
 74
    0
 49
-0.9525
 74
    0
 49
0
 74
    0
 49
-0.9525
 74
    0
  0
LTYPE
  5
44
330
5
100
AcDbSymbolTableRecord
100
AcDbLinetypeTableRecord
  2
BORDER2
 70
    0
  3
Border (.5x) __.__.__.__.__.__.__.__.__.__.__.
 72
   65
 73
    6
 40
22.225
 49
6.35
 74
    0
 49
-3.175
 74
    0
 49
6.35
 74
    0
 49
-3.175
 74
    0
 49
0
 74
    0
 49
-3.175
 74
    0
  0
LTYPE
  5
45
330
5
100
AcDbSymbolTableRecord
100
AcDbLinetypeTableRecord
  2
BORDERX2
 70
    0
  3
Border (2x) ____  ____  .  ____  ____  .  ___
 72
   65
 73
    6
 40
88.89999999999999
 49
25.4
 74
    0
 49
-12.7
 74
    0
 49
25.4
 74
    0
 49
-12.7
 74
    0
 49
0
 74
    0
 49
-12.7
 74
    0
  0
LTYPE
  5
46
330
5
100
AcDbSymbolTableRecord
100
AcDbLinetypeTableRecord
  2
CENTER
 70
    0
  3
Center ____ _ ____ _ ____ _ ____ _ ____ _ ____
 72
   65
 73
    4
 40
50.8
 49
31.75
 74
    0
 49
-6.35
 74
    0
 49
6.35
 74
    0
 49
-6.35
 74
    0
  0
LTYPE
  5
47
330
5
100
AcDbSymbolTableRecord
100
AcDbLinetypeTableRecord
  2
CENTERTINY
 70
    0
  3
Center (.15x) ___ _ ___ _ ___ _ ___ _ ___ _ ___
 72
   65
 73
    4
 40
7.619999999999999
 49
4.7625
 74
    0
 49
-0.9525
 74
    0
 49
0.9525
 74
    0
 49
-0.9525
 74
    0
  0
LTYPE
  5
48
330
5
100
AcDbSymbolTableRecord
100
AcDbLinetypeTableRecord
  2
CENTER2
 70
    0
  3
Center (.5x) ___ _ ___ _ ___ _ ___ _ ___ _ ___
 72
   65
 73
    4
 40
28.575
 49
19.05
 74
    0
 49
-3.175
 74
    0
 49
3.175
 74
    0
 49
-3.175
 74
    0
  0
LTYPE
  5
49
330
5
100
AcDbSymbolTableRecord
100
AcDbLinetypeTableRecord
  2
CENTERX2
 70
    0
  3
Center (2x) ________  __  ________  __  _____
 72
   65
 73
    4
 40
101.6
 49
63.5
 74
    0
 49
-12.7
 74
    0
 49
12.7
 74
    0
 49
-12.7
 74
    0
  0
ENDTAB
  0
TABLE
  2
LAYER
  5
2
330
0
100
AcDbSymbolTable
 70
    1
  0
LAYER
  5
10
330
2
100
AcDbSymbolTableRecord
100
AcDbLayerTableRecord
  2
0
 70
    0
 62
    7
  6
CONTINUOUS
370
   -3
390
F
1001
LibreCad
1070
    1
  0
LAYER
  5
4A
330
2
100
AcDbSymbolTableRecord
100
AcDbLayerTableRecord
  2
dveri
 70
    0
 62
   96
420
32768
  6
CONTINUOUS
370
   50
390
F
  0
LAYER
  5
4B
330
2
100
AcDbSymbolTableRecord
100
AcDbLayerTableRecord
  2
face
 70
    0
 62
   41
420
16310459
  6
CONTINUOUS
370
   25
390
F
  0
LAYER
  5
4C
330
2
100
AcDbSymbolTableRecord
100
AcDbLayerTableRecord
  2
fasad
 70
    0
 62
    3
  6
CONTINUOUS
370
   50
390
F
  0
LAYER
  5
4D
330
2
100
AcDbSymbolTableRecord
100
AcDbLayerTableRecord
  2
list
 70
    0
 62
    2
  6
CONTINUOUS
370
   50
390
F
  0
LAYER
  5
4E
330
2
100
AcDbSymbolTableRecord
100
AcDbLayerTableRecord
  2
ramka
 70
    0
 62
  136
420
32896
  6
CONTINUOUS
370
   50
390
F
  0
LAYER
  5
4F
330
2
100
AcDbSymbolTableRecord
100
AcDbLayerTableRecord
  2
rozmir
 70
    0
 62
    4
  6
CONTINUOUS
370
   13
390
F
  0
LAYER
  5
50
330
2
100
AcDbSymbolTableRecord
100
AcDbLayerTableRecord
  2
shelf
 70
    1
 62
    5
  6
CONTINUOUS
370
   50
390
F
  0
LAYER
  5
51
330
2
100
AcDbSymbolTableRecord
100
AcDbLayerTableRecord
  2
wall
 70
    0
 62
   56
420
8421376
  6
CONTINUOUS
370
   50
390
F
  0
ENDTAB
  0
TABLE
  2
STYLE
  5
3
330
0
100
AcDbSymbolTable
 70
    3
  0
STYLE
  5
52
330
2
100
AcDbSymbolTableRecord
100
AcDbTextStyleTableRecord
  2
cyrillic_ii
 70
    0
 40
0
 41
1
 50
0
 71
    0
 42
1
  3
cyrillic_ii
  4

  0
STYLE
  5
53
330
2
100
AcDbSymbolTableRecord
100
AcDbTextStyleTableRecord
  2
Standard
 70
    0
 40
0
 41
1
 50
0
 71
    0
 42
1
  3
txt
  4

  0
ENDTAB
  0
TABLE
  2
VIEW
  5
6
330
0
100
AcDbSymbolTable
 70
    0
  0
ENDTAB
  0
TABLE
  2
UCS
  5
7
330
0
100
AcDbSymbolTable
 70
    0
  0
ENDTAB
  0
TABLE
  2
APPID
  5
9
330
0
100
AcDbSymbolTable
 70
    1
  0
APPID
  5
12
330
9
100
AcDbSymbolTableRecord
100
AcDbRegAppTableRecord
  2
ACAD
 70
    0
  0
APPID
  5
54
330
9
100
AcDbSymbolTableRecord
100
AcDbRegAppTableRecord
  2
LibreCad
 70
    0
  0
ENDTAB
  0
TABLE
  2
DIMSTYLE
  5
A
330
0
100
AcDbSymbolTable
 70
    1
100
AcDbDimStyleTable
 71
    1
  0
DIMSTYLE
105
55
330
A
100
AcDbSymbolTableRecord
100
AcDbDimStyleTableRecord
  2
Standard
 70
    0
 40
1
 41
5
 42
1
 43
0.38
 44
2
 45
0
 46
0
 47
0
 48
0
 49
1
140
4
141
0.09
142
0
143
25.4
144
1
145
0
146
1
147
1
148
0
 71
    0
 72
    0
 73
    0
 74
    1
 75
    0
 76
    0
 77
    0
 78
    8
 79
    0
170
    0
171
    2
172
    0
173
    0
174
    0
175
    0
176
    0
177
    0
178
    0
179
    0
271
    1
272
    4
273
    2
274
    2
275
    0
276
    0
277
    2
278
   44
279
    0
280
    0
281
    0
282
    0
283
    1
284
    0
285
    0
286
    0
288
    0
289
    3
340
standard
341

371
   -2
372
   -2
  0
ENDTAB
  0
TABLE
  2
BLOCK_RECORD
  5
1
330
0
100
AcDbSymbolTable
 70
    2
  0
BLOCK_RECORD
  5
1F
330
1
100
AcDbSymbolTableRecord
100
AcDbBlockTableRecord
  2
*Model_Space
 70
    0
280
    1
281
    0
  0
BLOCK_RECORD
  5
1E
330
1
100
AcDbSymbolTableRecord
100
AcDbBlockTableRecord
  2
*Paper_Space
 70
    0
280
    1
281
    0
  0
BLOCK_RECORD
  5
56
330
1
100
AcDbSymbolTableRecord
100
AcDbBlockTableRecord
  2
*D14
 70
    0
280
    1
281
    0
  0
BLOCK_RECORD
  5
59
330
1
100
AcDbSymbolTableRecord
100
AcDbBlockTableRecord
  2
*D19
 70
    0
280
    1
281
    0
  0
BLOCK_RECORD
  5
5C
330
1
100
AcDbSymbolTableRecord
100
AcDbBlockTableRecord
  2
*D11
 70
    0
280
    1
281
    0
  0
BLOCK_RECORD
  5
5F
330
1
100
AcDbSymbolTableRecord
100
AcDbBlockTableRecord
  2
*D20
 70
    0
280
    1
281
    0
  0
BLOCK_RECORD
  5
62
330
1
100
AcDbSymbolTableRecord
100
AcDbBlockTableRecord
  2
*D8
 70
    0
280
    1
281
    0
  0
BLOCK_RECORD
  5
65
330
1
100
AcDbSymbolTableRecord
100
AcDbBlockTableRecord
  2
*D17
 70
    0
280
    1
281
    0
  0
BLOCK_RECORD
  5
68
330
1
100
AcDbSymbolTableRecord
100
AcDbBlockTableRecord
  2
*D12
 70
    0
280
    1
281
    0
  0
BLOCK_RECORD
  5
6B
330
1
100
AcDbSymbolTableRecord
100
AcDbBlockTableRecord
  2
*D9
 70
    0
280
    1
281
    0
  0
BLOCK_RECORD
  5
6E
330
1
100
AcDbSymbolTableRecord
100
AcDbBlockTableRecord
  2
*D16
 70
    0
280
    1
281
    0
  0
BLOCK_RECORD
  5
71
330
1
100
AcDbSymbolTableRecord
100
AcDbBlockTableRecord
  2
*D10
 70
    0
280
    1
281
    0
  0
BLOCK_RECORD
  5
74
330
1
100
AcDbSymbolTableRecord
100
AcDbBlockTableRecord
  2
*D3
 70
    0
280
    1
281
    0
  0
BLOCK_RECORD
  5
77
330
1
100
AcDbSymbolTableRecord
100
AcDbBlockTableRecord
  2
*D15
 70
    0
280
    1
281
    0
  0
BLOCK_RECORD
  5
7A
330
1
100
AcDbSymbolTableRecord
100
AcDbBlockTableRecord
  2
*D18
 70
    0
280
    1
281
    0
  0
BLOCK_RECORD
  5
7D
330
1
100
AcDbSymbolTableRecord
100
AcDbBlockTableRecord
  2
*D7
 70
    0
280
    1
281
    0
  0
BLOCK_RECORD
  5
80
330
1
100
AcDbSymbolTableRecord
100
AcDbBlockTableRecord
  2
*D5
 70
    0
280
    1
281
    0
  0
BLOCK_RECORD
  5
83
330
1
100
AcDbSymbolTableRecord
100
AcDbBlockTableRecord
  2
*D2
 70
    0
280
    1
281
    0
  0
BLOCK_RECORD
  5
86
330
1
100
AcDbSymbolTableRecord
100
AcDbBlockTableRecord
  2
*D13
 70
    0
280
    1
281
    0
  0
BLOCK_RECORD
  5
89
330
1
100
AcDbSymbolTableRecord
100
AcDbBlockTableRecord
  2
*D1
 70
    0
280
    1
281
    0
  0
BLOCK_RECORD
  5
8C
330
1
100
AcDbSymbolTableRecord
100
AcDbBlockTableRecord
  2
*D6
 70
    0
280
    1
281
    0
  0
BLOCK_RECORD
  5
8F
330
1
100
AcDbSymbolTableRecord
100
AcDbBlockTableRecord
  2
*D4
 70
    0
280
    1
281
    0
  0
ENDTAB
  0
ENDSEC
  0
SECTION
  2
BLOCKS
  0
BLOCK
  5
20
330
1F
100
AcDbEntity
  8
0
100
AcDbBlockBegin
  2
*Model_Space
 70
    0
 10
0
 20
0
 30
0
  3
*Model_Space
  1

  0
ENDBLK
  5
21
330
1F
100
AcDbEntity
  8
0
100
AcDbBlockEnd
  0
BLOCK
  5
1C
330
1B
100
AcDbEntity
  8
0
100
AcDbBlockBegin
  2
*Paper_Space
 70
    0
 10
0
 20
0
 30
0
  3
*Paper_Space
  1

  0
ENDBLK
  5
1D
330
1F
100
AcDbEntity
  8
0
100
AcDbBlockEnd
  0
BLOCK
  5
57
330
56
100
AcDbEntity
  8
0
100
AcDbBlockBegin
  2
*D14
 70
    1
 10
0
 20
0
  3
*D14
  1

  0
LINE
  5
92
100
AcDbEntity
  8
rozmir
  6
CONTINUOUS
 62
    7
370
    0
100
AcDbLine
 10
180
 20
2
 11
190
 21
39
  0
LINE
  5
93
100
AcDbEntity
  8
rozmir
  6
CONTINUOUS
 62
    7
370
    0
100
AcDbLine
 10
190
 20
39
 11
250
 21
39
  0
SOLID
  5
94
100
AcDbEntity
  8
rozmir
  6
CONTINUOUS
 62
    7
370
    0
100
AcDbTrace
 10
180
 20
2
 30
0
 11
180.5008131863275
 21
7.044041813624142
 31
0
 12
182.1082770651003
 22
6.60959211665852
 32
0
 13
182.1082770651003
 23
6.60959211665852
 33
0
  0
ENDBLK
  5
58
330
56
100
AcDbEntity
  8
0
100
AcDbBlockEnd
  0
BLOCK
  5
5A
330
59
100
AcDbEntity
  8
0
100
AcDbBlockBegin
  2
*D19
 70
    1
 10
0
 20
0
  3
*D19
  1

  0
LINE
  5
95
100
AcDbEntity
  8
rozmir
  6
CONTINUOUS
 62
    7
370
    0
100
AcDbLine
 10
265
 20
147
 11
243
 21
159
  0
SOLID
  5
96
100
AcDbEntity
  8
rozmir
  6
CONTINUOUS
 62
    7
370
    0
100
AcDbTrace
 10
265
 20
147
 30
0
 11
260.2118445447398
 21
148.6633517371409
 31
0
 12
261.0091997261164
 22
150.1251695696648
 32
0
 13
261.0091997261164
 23
150.1251695696648
 33
0
  0
ENDBLK
  5
5B
330
59
100
AcDbEntity
  8
0
100
AcDbBlockEnd
  0
BLOCK
  5
5D
330
5C
100
AcDbEntity
  8
0
100
AcDbBlockBegin
  2
*D11
 70
    1
 10
0
 20
0
  3
*D11
  1

  0
LINE
  5
97
100
AcDbEntity
  8
rozmir
  6
CONTINUOUS
 62
    7
370
    0
100
AcDbLine
 10
103
 20
160
 11
78
 21
170
  0
SOLID
  5
98
100
AcDbEntity
  8
rozmir
  6
CONTINUOUS
 62
    7
370
    0
100
AcDbTrace
 10
103
 20
160
 30
0
 11
98.04840806436152
 21
161.0839321787401
 31
0
 12
98.66682502678589
 22
162.629974584801
 32
0
 13
98.66682502678589
 23
162.629974584801
 33
0
  0
ENDBLK
  5
5E
330
5C
100
AcDbEntity
  8
0
100
AcDbBlockEnd
  0
BLOCK
  5
60
330
5F
100
AcDbEntity
  8
0
100
AcDbBlockBegin
  2
*D20
 70
    1
 10
0
 20
0
  3
*D20
  1

  0
LINE
  5
99
100
AcDbEntity
  8
rozmir
  6
ByBlock
 62
    0
370
   -2
100
AcDbLine
 10
-9.999999999999998
 20
170.0000000000001
 11
-10
 21
98
  0
SOLID
  5
9A
100
AcDbEntity
  8
rozmir
  6
ByBlock
 62
    0
370
   -2
100
AcDbTrace
 10
-9.999999999999998
 20
170.0000000000001
 30
0
 11
-9.167430684454317
 21
165.0000000000001
 31
0
 12
-10.83256931554568
 22
165.0000000000001
 32
0
 13
-10.83256931554568
 23
165.0000000000001
 33
0
  0
SOLID
  5
9B
100
AcDbEntity
  8
rozmir
  6
ByBlock
 62
    0
370
   -2
100
AcDbTrace
 10
-10
 20
98
 30
0
 11
-10.83256931554568
 21
103
 31
0
 12
-9.16743068445432
 22
103
 32
0
 13
-9.16743068445432
 23
103
 33
0
  0
MTEXT
  5
9C
100
AcDbEntity
  8
rozmir
  6
CONTINUOUS
 62
    0
370
   -2
100
AcDbMText
 10
-13
 20
134.0000000000001
 30
0
 40
4
 41
4.888888888888888
 71
    5
 72
    1
  1
72
  7
standard
210
0
220
0
230
1
 50
90
 73
    2
 44
1
  0
LINE
  5
9D
100
AcDbEntity
  8
rozmir
  6
ByBlock
 62
    0
370
   -2
100
AcDbLine
 10
-4
 20
170.0000000000001
 11
-12
 21
170.0000000000001
  0
LINE
  5
9E
100
AcDbEntity
  8
rozmir
  6
ByBlock
 62
    0
370
   -2
100
AcDbLine
 10
-4
 20
98
 11
-12
 21
98
  0
ENDBLK
  5
61
330
5F
100
AcDbEntity
  8
0
100
AcDbBlockEnd
  0
BLOCK
  5
63
330
62
100
AcDbEntity
  8
0
100
AcDbBlockBegin
  2
*D8
 70
    1
 10
0
 20
0
  3
*D8
  1

  0
LINE
  5
9F
100
AcDbEntity
  8
rozmir
  6
ByBlock
 62
    0
370
   -2
100
AcDbLine
 10
280
 20
193.4
 11
280
 21
131.4
  0
SOLID
  5
A0
100
AcDbEntity
  8
rozmir
  6
ByBlock
 62
    0
370
   -2
100
AcDbTrace
 10
280
 20
193.4
 30
0
 11
280.8325693155457
 21
188.4
 31
0
 12
279.1674306844543
 22
188.4
 32
0
 13
279.1674306844543
 23
188.4
 33
0
  0
SOLID
  5
A1
100
AcDbEntity
  8
rozmir
  6
ByBlock
 62
    0
370
   -2
100
AcDbTrace
 10
280
 20
131.4
 30
0
 11
279.1674306844543
 21
136.4
 31
0
 12
280.8325693155457
 22
136.4
 32
0
 13
280.8325693155457
 23
136.4
 33
0
  0
MTEXT
  5
A2
100
AcDbEntity
  8
rozmir
  6
CONTINUOUS
 62
    0
370
   -2
100
AcDbMText
 10
277
 20
162.4
 30
0
 40
4
 41
4.888888888889136
 71
    5
 72
    1
  1
62
  7
standard
210
0
220
0
230
1
 50
90
 73
    2
 44
1
  0
LINE
  5
A3
100
AcDbEntity
  8
rozmir
  6
ByBlock
 62
    0
370
   -2
100
AcDbLine
 10
268.4
 20
193.4
 11
282
 21
193.4
  0
LINE
  5
A4
100
AcDbEntity
  8
rozmir
  6
ByBlock
 62
    0
370
   -2
100
AcDbLine
 10
264.4
 20
131.4
 11
282
 21
131.4
  0
ENDBLK
  5
64
330
62
100
AcDbEntity
  8
0
100
AcDbBlockEnd
  0
BLOCK
  5
66
330
65
100
AcDbEntity
  8
0
100
AcDbBlockBegin
  2
*D17
 70
    1
 10
0
 20
0
  3
*D17
  1

  0
LINE
  5
A5
100
AcDbEntity
  8
rozmir
  6
CONTINUOUS
 62
    7
370
    0
100
AcDbLine
 10
183
 20
129
 11
193
 21
89
  0
SOLID
  5
A6
100
AcDbEntity
  8
rozmir
  6
CONTINUOUS
 62
    7
370
    0
100
AcDbTrace
 10
183
 20
129
 30
0
 11
185.0203890025094
 21
124.3512152186053
 31
0
 12
183.4049672478539
 22
123.9473597799414
 32
0
 13
183.4049672478539
 23
123.9473597799414
 33
0
  0
ENDBLK
  5
67
330
65
100
AcDbEntity
  8
0
100
AcDbBlockEnd
  0
BLOCK
  5
69
330
68
100
AcDbEntity
  8
0
100
AcDbBlockBegin
  2
*D12
 70
    1
 10
0
 20
0
  3
*D12
  1

  0
LINE
  5
A7
100
AcDbEntity
  8
rozmir
  6
CONTINUOUS
 62
    7
370
    0
100
AcDbLine
 10
9
 20
198
 11
20
 21
170
  0
SOLID
  5
A8
100
AcDbEntity
  8
rozmir
  6
CONTINUOUS
 62
    7
370
    0
100
AcDbTrace
 10
9
 20
198
 30
0
 11
11.60317699595172
 21
193.6506734782341
 31
0
 12
10.05334672827822
 22
193.0418115873624
 32
0
 13
10.05334672827822
 23
193.0418115873624
 33
0
  0
ENDBLK
  5
6A
330
68
100
AcDbEntity
  8
0
100
AcDbBlockEnd
  0
BLOCK
  5
6C
330
6B
100
AcDbEntity
  8
0
100
AcDbBlockBegin
  2
*D9
 70
    1
 10
0
 20
0
  3
*D9
  1

  0
LINE
  5
A9
100
AcDbEntity
  8
rozmir
  6
ByBlock
 62
    0
370
   -2
100
AcDbLine
 10
290
 20
193.4
 11
290
 21
0
  0
SOLID
  5
AA
100
AcDbEntity
  8
rozmir
  6
ByBlock
 62
    0
370
   -2
100
AcDbTrace
 10
290
 20
193.4
 30
0
 11
290.8325693155457
 21
188.4
 31
0
 12
289.1674306844543
 22
188.4
 32
0
 13
289.1674306844543
 23
188.4
 33
0
  0
SOLID
  5
AB
100
AcDbEntity
  8
rozmir
  6
ByBlock
 62
    0
370
   -2
100
AcDbTrace
 10
290
 20
0
 30
0
 11
289.1674306844543
 21
5
 31
0
 12
290.8325693155457
 22
5
 32
0
 13
290.8325693155457
 23
5
 33
0
  0
MTEXT
  5
AC
100
AcDbEntity
  8
rozmir
  6
CONTINUOUS
 62
    0
370
   -2
100
AcDbMText
 10
287
 20
96.69999999999997
 30
0
 40
4
 41
12.22222222222247
 71
    5
 72
    1
  1
193,4
  7
standard
210
0
220
0
230
1
 50
90
 73
    2
 44
1
  0
LINE
  5
AD
100
AcDbEntity
  8
rozmir
  6
ByBlock
 62
    0
370
   -2
100
AcDbLine
 10
268.4
 20
193.4
 11
292
 21
193.4
  0
LINE
  5
AE
100
AcDbEntity
  8
rozmir
  6
ByBlock
 62
    0
370
   -2
100
AcDbLine
 10
268.4
 20
0
 11
292
 21
0
  0
ENDBLK
  5
6D
330
6B
100
AcDbEntity
  8
0
100
AcDbBlockEnd
  0
BLOCK
  5
6F
330
6E
100
AcDbEntity
  8
0
100
AcDbBlockBegin
  2
*D16
 70
    1
 10
0
 20
0
  3
*D16
  1

  0
LINE
  5
AF
100
AcDbEntity
  8
rozmir
  6
CONTINUOUS
 62
    7
370
    0
100
AcDbLine
 10
180
 20
64
 11
193
 21
89
  0
LINE
  5
B0
100
AcDbEntity
  8
rozmir
  6
CONTINUOUS
 62
    7
370
    0
100
AcDbLine
 10
193
 20
89
 11
247
 21
89
  0
SOLID
  5
B1
100
AcDbEntity
  8
rozmir
  6
CONTINUOUS
 62
    7
370
    0
100
AcDbTrace
 10
180
 20
64
 30
0
 11
181.5680941982654
 21
68.82019213834413
 31
0
 12
183.0454331681545
 22
68.05197587400183
 32
0
 13
183.0454331681545
 23
68.05197587400183
 33
0
  0
ENDBLK
  5
70
330
6E
100
AcDbEntity
  8
0
100
AcDbBlockEnd
  0
BLOCK
  5
72
330
71
100
AcDbEntity
  8
0
100
AcDbBlockBegin
  2
*D10
 70
    1
 10
0
 20
0
  3
*D10
  1

  0
LINE
  5
B2
100
AcDbEntity
  8
rozmir
  6
CONTINUOUS
 62
    7
370
    0
100
AcDbLine
 10
-3
 20
158
 11
20
 21
170
  0
LINE
  5
B3
100
AcDbEntity
  8
rozmir
  6
CONTINUOUS
 62
    7
370
    0
100
AcDbLine
 10
20
 20
170
 11
78
 21
170
  0
LINE
  5
B4
100
AcDbEntity
  8
rozmir
  6
CONTINUOUS
 62
    7
370
    0
100
AcDbLine
 10
78
 20
170
 11
78
 21
170
  0
SOLID
  5
B5
100
AcDbEntity
  8
rozmir
  6
CONTINUOUS
 62
    7
370
    0
100
AcDbTrace
 10
-3
 20
158
 30
0
 11
1.0478059672385
 21
161.0509733720203
 31
0
 12
1.818042494416044
 22
159.57468669493
 32
0
 13
1.818042494416044
 23
159.57468669493
 33
0
  0
ENDBLK
  5
73
330
71
100
AcDbEntity
  8
0
100
AcDbBlockEnd
  0
BLOCK
  5
75
330
74
100
AcDbEntity
  8
0
100
AcDbBlockBegin
  2
*D3
 70
    1
 10
0
 20
0
  3
*D3
  1

  0
LINE
  5
B6
100
AcDbEntity
  8
rozmir
  6
ByBlock
 62
    0
370
   -2
100
AcDbLine
 10
-9.999999999999998
 20
201
 11
-10
 21
170.0000000000001
  0
SOLID
  5
B7
100
AcDbEntity
  8
rozmir
  6
ByBlock
 62
    0
370
   -2
100
AcDbTrace
 10
-9.999999999999998
 20
201
 30
0
 11
-9.167430684454317
 21
196
 31
0
 12
-10.83256931554568
 22
196
 32
0
 13
-10.83256931554568
 23
196
 33
0
  0
SOLID
  5
B8
100
AcDbEntity
  8
rozmir
  6
ByBlock
 62
    0
370
   -2
100
AcDbTrace
 10
-10
 20
170.0000000000001
 30
0
 11
-10.83256931554568
 21
175.0000000000001
 31
0
 12
-9.167430684454319
 22
175.0000000000001
 32
0
 13
-9.167430684454319
 23
175.0000000000001
 33
0
  0
MTEXT
  5
B9
100
AcDbEntity
  8
rozmir
  6
CONTINUOUS
 62
    0
370
   -2
100
AcDbMText
 10
-13
 20
185.5000000000001
 30
0
 40
4
 41
4.000000000000248
 71
    5
 72
    1
  1
31
  7
standard
210
0
220
0
230
1
 50
90
 73
    2
 44
1
  0
LINE
  5
BA
100
AcDbEntity
  8
rozmir
  6
ByBlock
 62
    0
370
   -2
100
AcDbLine
 10
-6
 20
201
 11
-12
 21
201
  0
LINE
  5
BB
100
AcDbEntity
  8
rozmir
  6
ByBlock
 62
    0
370
   -2
100
AcDbLine
 10
-4
 20
170.0000000000001
 11
-12
 21
170.0000000000001
  0
ENDBLK
  5
76
330
74
100
AcDbEntity
  8
0
100
AcDbBlockEnd
  0
BLOCK
  5
78
330
77
100
AcDbEntity
  8
0
100
AcDbBlockBegin
  2
*D15
 70
    1
 10
0
 20
0
  3
*D15
  1

  0
LINE
  5
BC
100
AcDbEntity
  8
rozmir
  6
CONTINUOUS
 62
    7
370
    0
100
AcDbLine
 10
172
 20
30
 11
190
 21
39
  0
SOLID
  5
BD
100
AcDbEntity
  8
rozmir
  6
CONTINUOUS
 62
    7
370
    0
100
AcDbTrace
 10
172
 20
30
 30
0
 11
176.0997996378915
 21
32.98074061171604
 31
0
 12
176.8444722721077
 22
31.49139534328354
 32
0
 13
176.8444722721077
 23
31.49139534328354
 33
0
  0
ENDBLK
  5
79
330
77
100
AcDbEntity
  8
0
100
AcDbBlockEnd
  0
BLOCK
  5
7B
330
7A
100
AcDbEntity
  8
0
100
AcDbBlockBegin
  2
*D18
 70
    1
 10
0
 20
0
  3
*D18
  1

  0
LINE
  5
BE
100
AcDbEntity
  8
rozmir
  6
CONTINUOUS
 62
    7
370
    0
100
AcDbLine
 10
231
 20
192
 11
243
 21
159
  0
LINE
  5
BF
100
AcDbEntity
  8
rozmir
  6
CONTINUOUS
 62
    7
370
    0
100
AcDbLine
 10
243
 20
159
 11
180
 21
159
  0
SOLID
  5
C0
100
AcDbEntity
  8
rozmir
  6
CONTINUOUS
 62
    7
370
    0
100
AcDbTrace
 10
231
 20
192
 30
0
 11
233.4911584827816
 21
187.5855576706844
 31
0
 12
231.9262721480854
 22
187.0165080944312
 32
0
 13
231.9262721480854
 23
187.0165080944312
 33
0
  0
ENDBLK
  5
7C
330
7A
100
AcDbEntity
  8
0
100
AcDbBlockEnd
  0
BLOCK
  5
7E
330
7D
100
AcDbEntity
  8
0
100
AcDbBlockBegin
  2
*D7
 70
    1
 10
0
 20
0
  3
*D7
  1

  0
LINE
  5
C1
100
AcDbEntity
  8
rozmir
  6
ByBlock
 62
    0
370
   -2
100
AcDbLine
 10
280
 20
0
 11
280
 21
62
  0
SOLID
  5
C2
100
AcDbEntity
  8
rozmir
  6
ByBlock
 62
    0
370
   -2
100
AcDbTrace
 10
280
 20
0
 30
0
 11
279.1674306844543
 21
5
 31
0
 12
280.8325693155457
 22
5
 32
0
 13
280.8325693155457
 23
5
 33
0
  0
SOLID
  5
C3
100
AcDbEntity
  8
rozmir
  6
ByBlock
 62
    0
370
   -2
100
AcDbTrace
 10
280
 20
62
 30
0
 11
280.8325693155457
 21
57
 31
0
 12
279.1674306844543
 22
57
 32
0
 13
279.1674306844543
 23
57
 33
0
  0
MTEXT
  5
C4
100
AcDbEntity
  8
rozmir
  6
CONTINUOUS
 62
    0
370
   -2
100
AcDbMText
 10
277
 20
31
 30
0
 40
4
 41
4.888888888889136
 71
    5
 72
    1
  1
62
  7
standard
210
0
220
0
230
1
 50
90
 73
    2
 44
1
  0
LINE
  5
C5
100
AcDbEntity
  8
rozmir
  6
ByBlock
 62
    0
370
   -2
100
AcDbLine
 10
268.4
 20
0
 11
282
 21
0
  0
LINE
  5
C6
100
AcDbEntity
  8
rozmir
  6
ByBlock
 62
    0
370
   -2
100
AcDbLine
 10
264.4
 20
62
 11
282
 21
62
  0
ENDBLK
  5
7F
330
7D
100
AcDbEntity
  8
0
100
AcDbBlockEnd
  0
BLOCK
  5
81
330
80
100
AcDbEntity
  8
0
100
AcDbBlockBegin
  2
*D5
 70
    1
 10
0
 20
0
  3
*D5
  1

  0
LINE
  5
C7
100
AcDbEntity
  8
rozmir
  6
ByBlock
 62
    0
370
   -2
100
AcDbLine
 10
-19.99999999999999
 20
201
 11
-20
 21
-2.999999999999999
  0
SOLID
  5
C8
100
AcDbEntity
  8
rozmir
  6
ByBlock
 62
    0
370
   -2
100
AcDbTrace
 10
-19.99999999999999
 20
201
 30
0
 11
-19.16743068445431
 21
196
 31
0
 12
-20.83256931554567
 22
196
 32
0
 13
-20.83256931554567
 23
196
 33
0
  0
SOLID
  5
C9
100
AcDbEntity
  8
rozmir
  6
ByBlock
 62
    0
370
   -2
100
AcDbTrace
 10
-20
 20
-2.999999999999999
 30
0
 11
-20.83256931554568
 21
2.000000000000001
 31
0
 12
-19.16743068445432
 22
2.000000000000001
 32
0
 13
-19.16743068445432
 23
2.000000000000001
 33
0
  0
MTEXT
  5
CA
100
AcDbEntity
  8
rozmir
  6
CONTINUOUS
 62
    0
370
   -2
100
AcDbMText
 10
-22.99999999999999
 20
99
 30
0
 40
4
 41
8.444444444444445
 71
    5
 72
    1
  1
204
  7
standard
210
0
220
0
230
1
 50
90
 73
    2
 44
1
  0
LINE
  5
CB
100
AcDbEntity
  8
rozmir
  6
ByBlock
 62
    0
370
   -2
100
AcDbLine
 10
-6
 20
201
 11
-21.99999999999999
 21
201
  0
LINE
  5
CC
100
AcDbEntity
  8
rozmir
  6
ByBlock
 62
    0
370
   -2
100
AcDbLine
 10
-5.999999999999986
 20
-3
 11
-22
 21
-2.999999999999999
  0
ENDBLK
  5
82
330
80
100
AcDbEntity
  8
0
100
AcDbBlockEnd
  0
BLOCK
  5
84
330
83
100
AcDbEntity
  8
0
100
AcDbBlockBegin
  2
*D2
 70
    1
 10
0
 20
0
  3
*D2
  1

  0
LINE
  5
CD
100
AcDbEntity
  8
rozmir
  6
ByBlock
 62
    0
370
   -2
100
AcDbLine
 10
105
 20
210
 11
-5
 21
210
  0
SOLID
  5
CE
100
AcDbEntity
  8
rozmir
  6
ByBlock
 62
    0
370
   -2
100
AcDbTrace
 10
105
 20
210
 30
0
 11
100
 21
209.1674306844543
 31
0
 12
100
 22
210.8325693155457
 32
0
 13
100
 23
210.8325693155457
 33
0
  0
SOLID
  5
CF
100
AcDbEntity
  8
rozmir
  6
ByBlock
 62
    0
370
   -2
100
AcDbTrace
 10
-5
 20
210
 30
0
 11
0
 21
210.8325693155457
 31
0
 12
0
 22
209.1674306844543
 32
0
 13
0
 23
209.1674306844543
 33
0
  0
MTEXT
  5
D0
100
AcDbEntity
  8
rozmir
  6
CONTINUOUS
 62
    0
370
   -2
100
AcDbMText
 10
50
 20
213
 30
0
 40
4
 41
6.222222222222221
 71
    5
 72
    1
  1
110
  7
standard
210
0
220
0
230
1
 50
360
 73
    2
 44
1
  0
LINE
  5
D1
100
AcDbEntity
  8
rozmir
  6
ByBlock
 62
    0
370
   -2
100
AcDbLine
 10
105
 20
202
 11
105
 21
212
  0
LINE
  5
D2
100
AcDbEntity
  8
rozmir
  6
ByBlock
 62
    0
370
   -2
100
AcDbLine
 10
-5
 20
202
 11
-5
 21
212
  0
ENDBLK
  5
85
330
83
100
AcDbEntity
  8
0
100
AcDbBlockEnd
  0
BLOCK
  5
87
330
86
100
AcDbEntity
  8
0
100
AcDbBlockBegin
  2
*D13
 70
    1
 10
0
 20
0
  3
*D13
  1

  0
LINE
  5
D3
100
AcDbEntity
  8
rozmir
  6
CONTINUOUS
 62
    7
370
    0
100
AcDbLine
 10
11
 20
-1
 11
23
 21
30
  0
LINE
  5
D4
100
AcDbEntity
  8
rozmir
  6
CONTINUOUS
 62
    7
370
    0
100
AcDbLine
 10
23
 20
30
 11
77
 21
30
  0
SOLID
  5
D5
100
AcDbEntity
  8
rozmir
  6
CONTINUOUS
 62
    7
370
    0
100
AcDbTrace
 10
11
 20
-1
 30
0
 11
12.02854292950877
 21
3.963393104252949
 31
0
 12
13.58139809606836
 22
3.362287878487945
 32
0
 13
13.58139809606836
 23
3.362287878487945
 33
0
  0
ENDBLK
  5
88
330
86
100
AcDbEntity
  8
0
100
AcDbBlockEnd
  0
BLOCK
  5
8A
330
89
100
AcDbEntity
  8
0
100
AcDbBlockBegin
  2
*D1
 70
    1
 10
0
 20
0
  3
*D1
  1

  0
LINE
  5
D6
100
AcDbEntity
  8
rozmir
  6
ByBlock
 62
    0
370
   -2
100
AcDbLine
 10
1
 20
-20
 11
99.00000000000001
 21
-20
  0
SOLID
  5
D7
100
AcDbEntity
  8
rozmir
  6
ByBlock
 62
    0
370
   -2
100
AcDbTrace
 10
1
 20
-20
 30
0
 11
6
 21
-19.16743068445432
 31
0
 12
6
 22
-20.83256931554568
 32
0
 13
6
 23
-20.83256931554568
 33
0
  0
SOLID
  5
D8
100
AcDbEntity
  8
rozmir
  6
ByBlock
 62
    0
370
   -2
100
AcDbTrace
 10
99.00000000000001
 20
-20
 30
0
 11
94.00000000000001
 21
-20.83256931554568
 31
0
 12
94.00000000000001
 22
-19.16743068445432
 32
0
 13
94.00000000000001
 23
-19.16743068445432
 33
0
  0
MTEXT
  5
D9
100
AcDbEntity
  8
rozmir
  6
CONTINUOUS
 62
    0
370
   -2
100
AcDbMText
 10
50.00000000000001
 20
-17
 30
0
 40
4
 41
4.888888888889136
 71
    5
 72
    1
  1
98
  7
standard
210
0
220
0
230
1
 50
0
 73
    2
 44
1
  0
LINE
  5
DA
100
AcDbEntity
  8
rozmir
  6
ByBlock
 62
    0
370
   -2
100
AcDbLine
 10
1
 20
-25.3
 11
1
 21
-18
  0
LINE
  5
DB
100
AcDbEntity
  8
rozmir
  6
ByBlock
 62
    0
370
   -2
100
AcDbLine
 10
99.00000000000001
 20
-25.30000000000001
 11
99.00000000000001
 21
-18
  0
ENDBLK
  5
8B
330
89
100
AcDbEntity
  8
0
100
AcDbBlockEnd
  0
BLOCK
  5
8D
330
8C
100
AcDbEntity
  8
0
100
AcDbBlockBegin
  2
*D6
 70
    1
 10
0
 20
0
  3
*D6
  1

  0
LINE
  5
DC
100
AcDbEntity
  8
rozmir
  6
ByBlock
 62
    0
370
   -2
100
AcDbLine
 10
170
 20
206
 11
267.4
 21
206
  0
SOLID
  5
DD
100
AcDbEntity
  8
rozmir
  6
ByBlock
 62
    0
370
   -2
100
AcDbTrace
 10
170
 20
206
 30
0
 11
175
 21
206.8325693155457
 31
0
 12
175
 22
205.1674306844543
 32
0
 13
175
 23
205.1674306844543
 33
0
  0
SOLID
  5
DE
100
AcDbEntity
  8
rozmir
  6
ByBlock
 62
    0
370
   -2
100
AcDbTrace
 10
267.4
 20
206
 30
0
 11
262.4
 21
205.1674306844543
 31
0
 12
262.4
 22
206.8325693155457
 32
0
 13
262.4
 23
206.8325693155457
 33
0
  0
MTEXT
  5
DF
100
AcDbEntity
  8
rozmir
  6
CONTINUOUS
 62
    0
370
   -2
100
AcDbMText
 10
218.7
 20
209
 30
0
 40
4
 41
10.00000000000025
 71
    5
 72
    1
  1
97,4
  7
standard
210
0
220
0
230
1
 50
0
 73
    2
 44
1
  0
LINE
  5
E0
100
AcDbEntity
  8
rozmir
  6
ByBlock
 62
    0
370
   -2
100
AcDbLine
 10
170
 20
194.4
 11
170
 21
208
  0
LINE
  5
E1
100
AcDbEntity
  8
rozmir
  6
ByBlock
 62
    0
370
   -2
100
AcDbLine
 10
267.4
 20
194.4
 11
267.4
 21
208
  0
ENDBLK
  5
8E
330
8C
100
AcDbEntity
  8
0
100
AcDbBlockEnd
  0
BLOCK
  5
90
330
8F
100
AcDbEntity
  8
0
100
AcDbBlockBegin
  2
*D4
 70
    1
 10
0
 20
0
  3
*D4
  1

  0
LINE
  5
E2
100
AcDbEntity
  8
rozmir
  6
ByBlock
 62
    0
370
   -2
100
AcDbLine
 10
-10
 20
-3
 11
-10
 21
26
  0
SOLID
  5
E3
100
AcDbEntity
  8
rozmir
  6
ByBlock
 62
    0
370
   -2
100
AcDbTrace
 10
-10
 20
-3
 30
0
 11
-10.83256931554568
 21
2
 31
0
 12
-9.16743068445432
 22
2
 32
0
 13
-9.16743068445432
 23
2
 33
0
  0
SOLID
  5
E4
100
AcDbEntity
  8
rozmir
  6
ByBlock
 62
    0
370
   -2
100
AcDbTrace
 10
-10
 20
26
 30
0
 11
-9.167430684454319
 21
21
 31
0
 12
-10.83256931554568
 22
21
 32
0
 13
-10.83256931554568
 23
21
 33
0
  0
MTEXT
  5
E5
100
AcDbEntity
  8
rozmir
  6
CONTINUOUS
 62
    0
370
   -2
100
AcDbMText
 10
-13
 20
11.5
 30
0
 40
4
 41
4.888888888888888
 71
    5
 72
    1
  1
29
  7
standard
210
0
220
0
230
1
 50
90
 73
    2
 44
1
  0
LINE
  5
E6
100
AcDbEntity
  8
rozmir
  6
ByBlock
 62
    0
370
   -2
100
AcDbLine
 10
-5.999999999999986
 20
-3
 11
-12
 21
-3
  0
LINE
  5
E7
100
AcDbEntity
  8
rozmir
  6
ByBlock
 62
    0
370
   -2
100
AcDbLine
 10
-4
 20
26
 11
-12
 21
26
  0
ENDBLK
  5
91
330
8F
100
AcDbEntity
  8
0
100
AcDbBlockEnd
  0
ENDSEC
  0
SECTION
  2
ENTITIES
  0
HATCH
  5
E8
100
AcDbEntity
  8
ramka
  6
ByLayer
 62
  256
370
   -1
100
AcDbHatch
 10
0
 20
0
 30
0
210
0
220
0
230
1
  2
gost_metal
 70
    0
 71
    0
 91
    1
 92
    0
 93
   20
 72
    1
 10
0.6999999999999998
 20
-30
 11
-4.7
 21
-30
 72
    1
 10
-4.7
 20
-30
 11
-5
 21
-29.7
 72
    1
 10
-5
 20
-29.7
 11
-5
 21
-26.3
 72
    1
 10
-5
 20
-26.3
 11
-4.7
 21
-26
 72
    1
 10
-4.7
 20
-26
 11
0.7000000000000003
 21
-26
 72
    1
 10
0.7000000000000003
 20
-26
 11
1
 21
-26.3
 72
    1
 10
1
 20
-26.3
 11
1
 21
-27
 72
    1
 10
1
 20
-27
 11
0.7999999999999998
 21
-27
 72
    1
 10
0.7999999999999998
 20
-27
 11
0.8000000000000003
 21
-26.4
 72
    1
 10
0.8000000000000003
 20
-26.4
 11
0.6000000000000003
 21
-26.2
 72
    1
 10
0.6000000000000003
 20
-26.2
 11
-4.6
 21
-26.2
 72
    1
 10
-4.6
 20
-26.2
 11
-4.8
 21
-26.4
 72
    1
 10
-4.8
 20
-26.4
 11
-4.8
 21
-29.6
 72
    1
 10
-4.8
 20
-29.6
 11
-4.6
 21
-29.8
 72
    1
 10
-4.6
 20
-29.8
 11
0.6000000000000003
 21
-29.8
 72
    1
 10
0.6000000000000003
 20
-29.8
 11
0.8000000000000003
 21
-29.6
 72
    1
 10
0.8000000000000003
 20
-29.6
 11
0.7999999999999998
 21
-28.7
 72
    1
 10
0.7999999999999996
 20
-28.7
 11
0.9999999999999999
 21
-28.7
 72
    1
 10
0.9999999999999999
 20
-28.7
 11
0.9999999999999999
 21
-29.7
 72
    1
 10
0.9999999999999999
 20
-29.7
 11
0.6999999999999998
 21
-30
 97
    0
 75
    0
 76
    1
 52
1.570796326794897
 41
0.1
 77
    0
 78
    0
 98
    0
  0
HATCH
  5
E9
100
AcDbEntity
  8
dveri
  6
ByLayer
 62
  256
370
   -1
100
AcDbHatch
 10
0
 20
0
 30
0
210
0
220
0
230
1
  2
gost_metal
 70
    0
 71
    0
 91
    1
 92
    0
 93
    5
 72
    1
 10
1.7
 20
-26.2
 11
1.7
 21
-27.1
 72
    1
 10
1.7
 20
-27.1
 11
1.3
 21
-27.1
 72
    1
 10
1.3
 20
-27.1
 11
1.300000000000001
 21
-26
 72
    1
 10
1.300000000000001
 20
-26
 11
1.499999999999997
 21
-26
 72
    1
 10
1.499999999999997
 20
-26
 11
1.7
 21
-26.2
 97
    0
 75
    0
 76
    1
 52
0
 41
0.1
 77
    0
 78
    0
 98
    0
  0
HATCH
  5
EA
100
AcDbEntity
  8
dveri
  6
ByLayer
 62
  256
370
   -1
100
AcDbHatch
 10
0
 20
0
 30
0
210
0
220
0
230
1
  2
gost_metal
 70
    0
 71
    0
 91
    1
 92
    0
 93
    8
 72
    1
 10
5.100000000000001
 20
-29.6
 11
1.999999999999999
 21
-29.6
 72
    1
 10
1.999999999999999
 20
-29.6
 11
1.7
 21
-29.3
 72
    1
 10
1.7
 20
-29.3
 11
1.7
 21
-28.3
 72
    1
 10
1.7
 20
-28.3
 11
1.3
 21
-28.3
 72
    1
 10
1.3
 20
-28.3
 11
1.300000000000001
 21
-30
 72
    1
 10
1.300000000000001
 20
-30
 11
5.300000000000001
 21
-30
 72
    1
 10
5.300000000000001
 20
-30
 11
5.300000000000001
 21
-29.8
 72
    1
 10
5.300000000000001
 20
-29.8
 11
5.100000000000001
 21
-29.6
 97
    0
 75
    0
 76
    1
 52
0
 41
0.1
 77
    0
 78
    0
 98
    0
  0
HATCH
  5
EB
100
AcDbEntity
  8
dveri
  6
ByLayer
 62
  256
370
   -1
100
AcDbHatch
 10
0
 20
0
 30
0
210
0
220
0
230
1
  2
gost_metal
 70
    0
 71
    0
 91
    1
 92
    0
 93
   16
 72
    1
 10
126.0000000000001
 20
132.5
 11
126.2000000000001
 21
132.7
 72
    1
 10
126.2000000000001
 20
132.7
 11
129.8000000000001
 21
132.7
 72
    1
 10
129.8000000000001
 20
132.7
 11
130.0000000000001
 21
132.5
 72
    1
 10
130.0000000000001
 20
132.5
 11
130.0000000000001
 21
128.9
 72
    1
 10
130.0000000000001
 20
128.9
 11
129.8000000000001
 21
128.7
 72
    1
 10
129.8000000000001
 20
128.7
 11
126.2000000000001
 21
128.7
 72
    1
 10
126.2000000000001
 20
128.7
 11
126.0000000000001
 21
128.9
 72
    1
 10
126.0000000000001
 20
128.9
 11
126.0000000000001
 21
132.5
 72
    1
 10
126.4000000000001
 20
132.4
 11
129.6000000000001
 21
132.4
 72
    1
 10
129.6000000000001
 20
132.4
 11
129.7000000000001
 21
132.3
 72
    1
 10
129.7000000000001
 20
132.3
 11
129.7000000000001
 21
129.1
 72
    1
 10
129.7000000000001
 20
129.1
 11
129.6000000000001
 21
129
 72
    1
 10
129.6000000000001
 20
129
 11
126.4000000000001
 21
129
 72
    1
 10
126.4000000000001
 20
129
 11
126.3000000000001
 21
129.1
 72
    1
 10
126.3000000000001
 20
129.1
 11
126.3000000000001
 21
132.3
 72
    1
 10
126.3000000000001
 20
132.3
 11
126.4000000000001
 21
132.4
 97
    0
 75
    0
 76
    1
 52
0
 41
0.1
 77
    0
 78
    0
 98
    0
  0
HATCH
  5
EC
100
AcDbEntity
  8
dveri
  6
ByLayer
 62
  256
370
   -1
100
AcDbHatch
 10
0
 20
0
 30
0
210
0
220
0
230
1
  2
gost_metal
 70
    0
 71
    0
 91
    1
 92
    0
 93
   16
 72
    1
 10
126.2
 20
63.3
 11
126
 21
63.5
 72
    1
 10
126
 20
63.5
 11
126
 21
67.09999999999999
 72
    1
 10
126
 20
67.09999999999999
 11
126.2
 21
67.3
 72
    1
 10
126.2
 20
67.3
 11
129.8
 21
67.3
 72
    1
 10
129.8
 20
67.3
 11
130
 21
67.09999999999999
 72
    1
 10
130
 20
67.09999999999999
 11
130
 21
63.5
 72
    1
 10
130
 20
63.5
 11
129.8
 21
63.3
 72
    1
 10
129.8
 20
63.3
 11
126.2
 21
63.3
 72
    1
 10
126.4
 20
67
 11
129.6
 21
67
 72
    1
 10
129.6
 20
67
 11
129.7
 21
66.89999999999999
 72
    1
 10
129.7
 20
66.89999999999999
 11
129.7
 21
63.7
 72
    1
 10
129.7
 20
63.7
 11
129.6
 21
63.59999999999999
 72
    1
 10
129.6
 20
63.59999999999999
 11
126.4
 21
63.59999999999999
 72
    1
 10
126.4
 20
63.59999999999999
 11
126.3
 21
63.7
 72
    1
 10
126.3
 20
63.7
 11
126.3
 21
66.89999999999999
 72
    1
 10
126.3
 20
66.89999999999999
 11
126.4
 21
67
 97
    0
 75
    0
 76
    1
 52
0
 41
0.1
 77
    0
 78
    0
 98
    0
  0
HATCH
  5
ED
100
AcDbEntity
  8
ramka
  6
ByLayer
 62
  256
370
   -1
100
AcDbHatch
 10
0
 20
0
 30
0
210
0
220
0
230
1
  2
gost_metal
 70
    0
 71
    0
 91
    1
 92
    0
 93
   16
 72
    1
 10
130
 20
195.2999999999996
 11
129.7
 21
194.9999999999996
 72
    1
 10
129.7
 20
194.9999999999996
 11
126.3
 21
194.9999999999996
 72
    1
 10
126.3
 20
194.9999999999996
 11
126
 21
195.2999999999996
 72
    1
 10
126
 20
195.2999999999996
 11
126
 21
200.6999999999996
 72
    1
 10
126
 20
200.6999999999996
 11
126.3
 21
200.9999999999996
 72
    1
 10
126.3
 20
200.9999999999996
 11
129.7
 21
200.9999999999996
 72
    1
 10
129.7
 20
200.9999999999996
 11
130
 21
200.6999999999996
 72
    1
 10
130
 20
200.6999999999996
 11
130
 21
195.2999999999996
 72
    1
 10
129.6
 20
195.1999999999996
 11
126.4
 21
195.1999999999996
 72
    1
 10
126.4
 20
195.1999999999996
 11
126.2
 21
195.3999999999996
 72
    1
 10
126.2
 20
195.3999999999996
 11
126.2
 21
200.5999999999996
 72
    1
 10
126.2
 20
200.5999999999996
 11
126.4
 21
200.7999999999996
 72
    1
 10
126.4
 20
200.7999999999996
 11
129.6
 21
200.7999999999996
 72
    1
 10
129.6
 20
200.7999999999996
 11
129.8
 21
200.5999999999996
 72
    1
 10
129.8
 20
200.5999999999996
 11
129.8
 21
195.3999999999996
 72
    1
 10
129.8
 20
195.3999999999996
 11
129.6
 21
195.1999999999996
 97
    0
 75
    0
 76
    1
 52
1.570796326794897
 41
0.1
 77
    0
 78
    0
 98
    0
  0
HATCH
  5
EE
100
AcDbEntity
  8
dveri
  6
ByLayer
 62
  256
370
   -1
100
AcDbHatch
 10
0
 20
0
 30
0
210
0
220
0
230
1
  2
gost_metal
 70
    0
 71
    0
 91
    1
 92
    0
 93
    9
 72
    1
 10
130
 20
194.7
 11
130.0000000000001
 21
190.6999999999999
 72
    1
 10
130.0000000000001
 20
190.6999999999999
 11
129.8000000000001
 21
190.6999999999999
 72
    1
 10
129.8000000000001
 20
190.6999999999999
 11
129.6000000000001
 21
190.8999999999999
 72
    1
 10
129.6000000000001
 20
190.8999999999999
 11
129.6
 21
194
 72
    1
 10
129.6
 20
194
 11
129.3
 21
194.3
 72
    1
 10
129.3
 20
194.3
 11
126.2
 21
194.3
 72
    1
 10
126.2
 20
194.3
 11
126
 21
194.5
 72
    1
 10
126
 20
194.5
 11
126
 21
194.7
 72
    1
 10
126
 20
194.7
 11
130
 21
194.7
 97
    0
 75
    0
 76
    1
 52
0
 41
0.1
 77
    0
 78
    0
 98
    0
  0
HATCH
  5
EF
100
AcDbEntity
  8
dveri
  6
ByLayer
 62
  256
370
   -1
100
AcDbHatch
 10
0
 20
0
 30
0
210
0
220
0
230
1
  2
gost_metal
 70
    0
 71
    0
 91
    1
 92
    0
 93
    9
 72
    1
 10
130
 20
1.299999999999997
 11
130
 21
5.299999999999997
 72
    1
 10
130
 20
5.299999999999997
 11
129.8
 21
5.299999999999997
 72
    1
 10
129.8
 20
5.299999999999997
 11
129.6
 21
5.099999999999994
 72
    1
 10
129.6
 20
5.099999999999994
 11
129.6
 21
1.999999999999986
 72
    1
 10
129.6
 20
1.999999999999986
 11
129.3
 21
1.699999999999989
 72
    1
 10
129.3
 20
1.699999999999989
 11
126.2
 21
1.699999999999989
 72
    1
 10
126.2
 20
1.699999999999989
 11
126
 21
1.499999999999985
 72
    1
 10
126
 20
1.499999999999985
 11
126
 21
1.299999999999997
 72
    1
 10
126
 20
1.299999999999997
 11
130
 21
1.299999999999997
 97
    0
 75
    0
 76
    1
 52
0
 41
0.1
 77
    0
 78
    0
 98
    0
  0
HATCH
  5
F0
100
AcDbEntity
  8
ramka
  6
ByLayer
 62
  256
370
   -1
100
AcDbHatch
 10
0
 20
0
 30
0
210
0
220
0
230
1
  2
gost_metal
 70
    0
 71
    0
 91
    1
 92
    0
 93
   16
 72
    1
 10
126.2
 20
0.9999999999999998
 11
129.8
 21
0.9999999999999998
 72
    1
 10
129.8
 20
0.9999999999999998
 11
130
 21
0.7999999999999998
 72
    1
 10
130
 20
0.7999999999999998
 11
130
 21
-2.8
 72
    1
 10
130
 20
-2.8
 11
129.8
 21
-3
 72
    1
 10
129.8
 20
-3
 11
126.2
 21
-3
 72
    1
 10
126.2
 20
-3
 11
126
 21
-2.8
 72
    1
 10
126
 20
-2.8
 11
126
 21
0.7999999999999997
 72
    1
 10
126
 20
0.7999999999999997
 11
126.2
 21
0.9999999999999998
 72
    1
 10
126.4
 20
0.7000000000000001
 11
129.6
 21
0.7000000000000001
 72
    1
 10
129.6
 20
0.7000000000000001
 11
129.7
 21
0.6000000000000001
 72
    1
 10
129.7
 20
0.6000000000000001
 11
129.7
 21
-2.6
 72
    1
 10
129.7
 20
-2.6
 11
129.6
 21
-2.7
 72
    1
 10
129.6
 20
-2.7
 11
126.4
 21
-2.7
 72
    1
 10
126.4
 20
-2.7
 11
126.3
 21
-2.6
 72
    1
 10
126.3
 20
-2.6
 11
126.3
 21
0.6000000000000001
 72
    1
 10
126.3
 20
0.6000000000000001
 11
126.4
 21
0.7000000000000001
 97
    0
 75
    0
 76
    1
 52
1.570796326794897
 41
0.1
 77
    0
 78
    0
 98
    0
  0
HATCH
  5
F1
100
AcDbEntity
  8
ramka
  6
ByLayer
 62
  256
370
   -1
100
AcDbHatch
 10
0
 20
0
 30
0
210
0
220
0
230
1
  2
gost_metal
 70
    0
 71
    0
 91
    1
 92
    0
 93
   16
 72
    1
 10
99.30000000000001
 20
-30
 11
99.00000000000001
 21
-29.7
 72
    1
 10
99.00000000000001
 20
-29.7
 11
99.00000000000001
 21
-26.3
 72
    1
 10
99.00000000000001
 20
-26.3
 11
99.30000000000001
 21
-26
 72
    1
 10
99.30000000000001
 20
-26
 11
104.7
 21
-26
 72
    1
 10
104.7
 20
-26
 11
105
 21
-26.3
 72
    1
 10
105
 20
-26.3
 11
105
 21
-29.7
 72
    1
 10
105
 20
-29.7
 11
104.7
 21
-30
 72
    1
 10
104.7
 20
-30
 11
99.30000000000001
 21
-30
 72
    1
 10
99.20000000000002
 20
-29.6
 11
99.20000000000002
 21
-26.4
 72
    1
 10
99.20000000000002
 20
-26.4
 11
99.40000000000002
 21
-26.2
 72
    1
 10
99.40000000000002
 20
-26.2
 11
104.6
 21
-26.2
 72
    1
 10
104.6
 20
-26.2
 11
104.8
 21
-26.4
 72
    1
 10
104.8
 20
-26.4
 11
104.8
 21
-29.6
 72
    1
 10
104.8
 20
-29.6
 11
104.6
 21
-29.8
 72
    1
 10
104.6
 20
-29.8
 11
99.40000000000001
 21
-29.8
 72
    1
 10
99.40000000000001
 20
-29.8
 11
99.20000000000002
 21
-29.6
 97
    0
 75
    0
 76
    1
 52
1.570796326794897
 41
0.1
 77
    0
 78
    0
 98
    0
  0
HATCH
  5
F2
100
AcDbEntity
  8
dveri
  6
ByLayer
 62
  256
370
   -1
100
AcDbHatch
 10
0
 20
0
 30
0
210
0
220
0
230
1
  2
gost_metal
 70
    0
 71
    0
 91
    1
 92
    0
 93
    9
 72
    1
 10
94.90000000000002
 20
-29.60000000000001
 11
97.99999999999999
 21
-29.6
 72
    1
 10
97.99999999999999
 20
-29.6
 11
98.30000000000001
 21
-29.3
 72
    1
 10
98.30000000000001
 20
-29.3
 11
98.30000000000001
 21
-26.2
 72
    1
 10
98.30000000000001
 20
-26.2
 11
98.49999999999999
 21
-26
 72
    1
 10
98.49999999999999
 20
-26
 11
98.7
 21
-26
 72
    1
 10
98.7
 20
-26
 11
98.7
 21
-30
 72
    1
 10
98.7
 20
-30
 11
94.70000000000002
 21
-30.00000000000001
 72
    1
 10
94.70000000000002
 20
-30.00000000000001
 11
94.70000000000002
 21
-29.80000000000001
 72
    1
 10
94.70000000000002
 20
-29.80000000000001
 11
94.90000000000002
 21
-29.60000000000001
 97
    0
 75
    0
 76
    1
 52
3.141592653589793
 41
0.1
 77
    0
 78
    0
 98
    0
  0
LWPOLYLINE
  5
F3
100
AcDbEntity
  8
list
  6
DASHED2
 62
  256
370
   -1
100
AcDbPolyline
 90
    4
 70
    0
 43
0
 10
3.900000000000001
 20
-30.2
 10
0.5999999999999994
 20
-30.2
 10
0.5999999999999994
 20
-30
 10
3.900000000000001
 20
-30
  0
LWPOLYLINE
  5
F4
100
AcDbEntity
  8
list
  6
ByLayer
 62
  256
370
   -1
100
AcDbPolyline
 90
    4
 70
    0
 43
0
 10
3.900000000000001
 20
-30.2
 10
100
 20
-30.2
 10
100
 20
-30
 10
3.900000000000001
 20
-30
  0
LWPOLYLINE
  5
F5
100
AcDbEntity
  8
ramka
  6
ByLayer
 62
  256
370
   -1
100
AcDbPolyline
 90
    4
 70
    1
 43
0
 10
1
 20
1
 10
99
 20
1
 10
99.00000000000001
 20
-3
 10
1.000000000000014
 20
-3
  0
LWPOLYLINE
  5
F6
100
AcDbEntity
  8
list
  6
ByLayer
 62
  256
370
   -1
100
AcDbPolyline
 90
    4
 70
    1
 43
0
 10
130
 20
196.0000000000001
 10
130.2
 20
196.0000000000001
 10
130.2
 20
-1.387778780781446e-16
 10
130
 20
-1.387778780781446e-16
  0
LWPOLYLINE
  5
F7
100
AcDbEntity
  8
ramka
  6
ByLayer
 62
  256
370
   -1
100
AcDbPolyline
 90
    4
 70
    1
 43
0
 10
-1.300000000000001
 20
165.0000000000001
 10
0.8999999999999988
 20
165.0000000000001
 10
0.8999999999999988
 20
170.0000000000001
 10
-1.300000000000001
 20
170.0000000000001
  0
LWPOLYLINE
  5
F8
100
AcDbEntity
  8
dveri
  6
ByLayer
 62
  256
370
   -1
100
AcDbPolyline
 90
    4
 70
    1
 43
0
 10
-1.300000000000001
 20
170.0000000000001
 10
0.8999999999999988
 20
170.0000000000001
 10
0.8999999999999988
 20
175.0000000000001
 10
-1.300000000000001
 20
175.0000000000001
  0
LINE
  5
F9
100
AcDbEntity
  8
rozmir
  6
DASHDOT2
 62
  256
370
   -1
100
AcDbLine
 10
-0.1999999999999999
 20
164.0000000000001
 11
-0.1999999999999999
 21
176.0000000000001
  0
LWPOLYLINE
  5
FA
100
AcDbEntity
  8
dveri
  6
ByLayer
 62
  256
370
   -1
100
AcDbPolyline
 90
    4
 70
    1
 43
0
 10
0.8999999999999988
 20
175.0000000000001
 10
3.9
 20
175.0000000000001
 10
3.9
 20
170.0000000000001
 10
0.8999999999999988
 20
170.0000000000001
  0
LWPOLYLINE
  5
FB
100
AcDbEntity
  8
ramka
  6
ByLayer
 62
  256
370
   -1
100
AcDbPolyline
 90
    4
 70
    1
 43
0
 10
-1.300000000000001
 20
170.0000000000001
 10
-3
 20
170.0000000000001
 10
-3
 20
165.0000000000001
 10
-1.300000000000001
 20
165.0000000000001
  0
LWPOLYLINE
  5
FC
100
AcDbEntity
  8
dveri
  6
DASHED2
 62
  256
370
   -1
100
AcDbPolyline
 90
    5
 70
    1
 43
0
 10
1.299999999999997
 20
1.3
 10
98.70000000000002
 20
1.3
 10
98.70000000000002
 20
194.7
 10
1.299999999999996
 20
194.7
 10
1.299999999999996
 20
194.7
  0
LWPOLYLINE
  5
FD
100
AcDbEntity
  8
ramka
  6
ByLayer
 62
  256
370
   -1
100
AcDbPolyline
 90
    4
 70
    1
 43
0
 10
99.00000000000003
 20
195.0000000000001
 10
0.9999999999999996
 20
195.0000000000001
 10
0.9999999999999996
 20
201
 10
99
 20
201
  0
LWPOLYLINE
  5
FE
100
AcDbEntity
  8
ramka
  6
ByLayer
 62
  256
370
   -1
100
AcDbPolyline
 90
    4
 70
    1
 43
0
 10
0.9999999999999996
 20
201
 10
-5
 20
201
 10
-4.999999999999986
 20
-3
 10
1.000000000000014
 20
-3
  0
LWPOLYLINE
  5
FF
100
AcDbEntity
  8
ramka
  6
ByLayer
 62
  256
370
   -1
100
AcDbPolyline
 90
    4
 70
    1
 43
0
 10
105
 20
201
 10
99.00000000000003
 20
201
 10
99.00000000000001
 20
-3
 10
105
 20
-3
  0
LWPOLYLINE
  5
100
100
AcDbEntity
  8
fasad
  6
ByLayer
 62
  256
370
   -1
100
AcDbPolyline
 90
    4
 70
    1
 43
0
 10
-4
 20
-3
 10
104
 20
-3
 10
104
 20
199
 10
-4
 20
199
  0
LWPOLYLINE
  5
101
100
AcDbEntity
  8
dveri
  6
DASHED2
 62
  256
370
   -1
100
AcDbPolyline
 90
    5
 70
    1
 43
0
 10
5.300000000000001
 20
5.3
 10
94.70000000000002
 20
5.3
 10
94.7
 20
190.7
 10
5.3
 20
190.7
 10
5.3
 20
190.7
  0
LWPOLYLINE
  5
102
100
AcDbEntity
  8
dveri
  6
ByLayer
 62
  256
370
   -1
100
AcDbPolyline
 90
   10
 70
    0
 43
0
 10
98.7
 20
-30
 10
94.70000000000002
 20
-30.00000000000001
 10
94.70000000000002
 20
-29.80000000000001
 10
94.90000000000002
 20
-29.60000000000001
 10
97.99999999999999
 20
-29.6
 10
98.30000000000001
 20
-29.3
 10
98.30000000000001
 20
-26.2
 10
98.49999999999999
 20
-26
 10
98.7
 20
-26
 10
98.7
 20
-30
  0
LINE
  5
103
100
AcDbEntity
  8
dveri
  6
ByLayer
 62
  256
370
   -1
100
AcDbLine
 10
1.500000000000002
 20
-26
 11
98.49999999999999
 21
-26
  0
LINE
  5
104
100
AcDbEntity
  8
dveri
  6
ByLayer
 62
  256
370
   -1
100
AcDbLine
 10
5.300000000000001
 20
-30
 11
94.70000000000002
 21
-30.00000000000001
  0
LINE
  5
105
100
AcDbEntity
  8
dveri
  6
ByLayer
 62
  256
370
   -1
100
AcDbLine
 10
5.100000000000001
 20
-29.6
 11
94.90000000000002
 21
-29.60000000000001
  0
LWPOLYLINE
  5
106
100
AcDbEntity
  8
ramka
  6
ByLayer
 62
  256
370
   -1
100
AcDbPolyline
 90
    9
 70
    0
 43
0
 10
99.30000000000001
 20
-30
 10
99.00000000000001
 20
-29.7
 10
99.00000000000001
 20
-26.3
 10
99.30000000000001
 20
-26
 10
104.7
 20
-26
 10
105
 20
-26.3
 10
105
 20
-29.7
 10
104.7
 20
-30
 10
99.30000000000001
 20
-30
  0
LWPOLYLINE
  5
107
100
AcDbEntity
  8
ramka
  6
ByLayer
 62
  256
370
   -1
100
AcDbPolyline
 90
    9
 70
    0
 43
0
 10
99.20000000000002
 20
-29.6
 10
99.20000000000002
 20
-26.4
 10
99.40000000000002
 20
-26.2
 10
104.6
 20
-26.2
 10
104.8
 20
-26.4
 10
104.8
 20
-29.6
 10
104.6
 20
-29.8
 10
99.40000000000001
 20
-29.8
 10
99.20000000000002
 20
-29.6
  0
LINE
  5
108
100
AcDbEntity
  8
ramka
  6
ByLayer
 62
  256
370
   -1
100
AcDbLine
 10
99.30000000000003
 20
-26
 11
0.6999999999999993
 21
-26
  0
LINE
  5
109
100
AcDbEntity
  8
ramka
  6
ByLayer
 62
  256
370
   -1
100
AcDbLine
 10
0.7000000000000028
 20
-30
 11
99.30000000000001
 21
-30
  0
DIMENSION
  5
10A
100
AcDbEntity
  8
rozmir
  6
ByLayer
 62
  256
370
   -1
100
AcDbDimension
  2
*D1
 10
99.20000000000002
 20
-20
 30
0
 11
50.00000000000001
 21
-17
 31
0
 70
   32
 71
    5
 72
    0
  3
Standard
 53
0
210
0
220
0
230
1
100
AcDbAlignedDimension
 13
1
 23
-26.3
 33
0
 14
99.00000000000001
 24
-26.30000000000001
 34
0
100
AcDbRotatedDimension
  0
LWPOLYLINE
  5
10B
100
AcDbEntity
  8
ramka
  6
ByLayer
 62
  256
370
   -1
100
AcDbPolyline
 90
    9
 70
    0
 43
0
 10
130
 20
195.2999999999996
 10
129.7
 20
194.9999999999996
 10
126.3
 20
194.9999999999996
 10
126
 20
195.2999999999996
 10
126
 20
200.6999999999996
 10
126.3
 20
200.9999999999996
 10
129.7
 20
200.9999999999996
 10
130
 20
200.6999999999996
 10
130
 20
195.2999999999996
  0
LWPOLYLINE
  5
10C
100
AcDbEntity
  8
ramka
  6
ByLayer
 62
  256
370
   -1
100
AcDbPolyline
 90
    9
 70
    0
 43
0
 10
129.6
 20
195.1999999999996
 10
126.4
 20
195.1999999999996
 10
126.2
 20
195.3999999999996
 10
126.2
 20
200.5999999999996
 10
126.4
 20
200.7999999999996
 10
129.6
 20
200.7999999999996
 10
129.8
 20
200.5999999999996
 10
129.8
 20
195.3999999999996
 10
129.6
 20
195.1999999999996
  0
LINE
  5
10D
100
AcDbEntity
  8
dveri
  6
ByLayer
 62
  256
370
   -1
100
AcDbLine
 10
126
 20
1.499999999999985
 11
126
 21
194.5
  0
LINE
  5
10E
100
AcDbEntity
  8
dveri
  6
ByLayer
 62
  256
370
   -1
100
AcDbLine
 10
130
 20
5.299999999999997
 11
130.0000000000001
 21
190.6999999999999
  0
LINE
  5
10F
100
AcDbEntity
  8
dveri
  6
ByLayer
 62
  256
370
   -1
100
AcDbLine
 10
129.6
 20
5.099999999999994
 11
129.6000000000001
 21
190.8999999999999
  0
LWPOLYLINE
  5
110
100
AcDbEntity
  8
dveri
  6
ByLayer
 62
  256
370
   -1
100
AcDbPolyline
 90
   10
 70
    0
 43
0
 10
130
 20
194.7
 10
130.0000000000001
 20
190.6999999999999
 10
129.8000000000001
 20
190.6999999999999
 10
129.6000000000001
 20
190.8999999999999
 10
129.6
 20
194
 10
129.3
 20
194.3
 10
126.2
 20
194.3
 10
126
 20
194.5
 10
126
 20
194.7
 10
130
 20
194.7
  0
LINE
  5
111
100
AcDbEntity
  8
ramka
  6
ByLayer
 62
  256
370
   -1
100
AcDbLine
 10
126
 20
195.2
 11
126
 21
0.7999999999999999
  0
LINE
  5
112
100
AcDbEntity
  8
ramka
  6
ByLayer
 62
  256
370
   -1
100
AcDbLine
 10
130
 20
195.2
 11
130
 21
0.799999999999975
  0
LWPOLYLINE
  5
113
100
AcDbEntity
  8
ramka
  6
ByLayer
 62
  256
370
   -1
100
AcDbPolyline
 90
    9
 70
    0
 43
0
 10
126.2
 20
0.9999999999999998
 10
129.8
 20
0.9999999999999998
 10
130
 20
0.7999999999999998
 10
130
 20
-2.8
 10
129.8
 20
-3
 10
126.2
 20
-3
 10
126
 20
-2.8
 10
126
 20
0.7999999999999997
 10
126.2
 20
0.9999999999999998
  0
LWPOLYLINE
  5
114
100
AcDbEntity
  8
ramka
  6
ByLayer
 62
  256
370
   -1
100
AcDbPolyline
 90
    9
 70
    0
 43
0
 10
126.4
 20
0.7000000000000001
 10
129.6
 20
0.7000000000000001
 10
129.7
 20
0.6000000000000001
 10
129.7
 20
-2.6
 10
129.6
 20
-2.7
 10
126.4
 20
-2.7
 10
126.3
 20
-2.6
 10
126.3
 20
0.6000000000000001
 10
126.4
 20
0.7000000000000001
  0
LWPOLYLINE
  5
115
100
AcDbEntity
  8
dveri
  6
ByLayer
 62
  256
370
   -1
100
AcDbPolyline
 90
   10
 70
    0
 43
0
 10
130
 20
1.300000000000011
 10
125.9999999999999
 20
1.299999999999898
 10
125.9999999999999
 20
1.499999999999915
 10
126.1999999999999
 20
1.699999999999904
 10
129.3
 20
1.700000000000017
 10
129.6000000000001
 20
2
 10
129.6000000000001
 20
5.100000000000009
 10
129.8
 20
5.300000000000011
 10
130
 20
5.300000000000011
 10
130
 20
1.300000000000011
  0
LWPOLYLINE
  5
116
100
AcDbEntity
  8
list
  6
ByLayer
 62
  256
370
   -1
100
AcDbPolyline
 90
    6
 70
    1
 43
0
 10
0
 20
0
 10
100
 20
0
 10
100
 20
196.0000000000001
 10
0
 20
196.0000000000001
 10
0
 20
196.0000000000001
 10
0
 20
196.0000000000001
  0
LWPOLYLINE
  5
117
100
AcDbEntity
  8
dveri
  6
DASHED2
 62
  256
370
   -1
100
AcDbPolyline
 90
    4
 70
    1
 43
0
 10
1.3
 20
67.3
 10
98.70000000000002
 20
67.3
 10
98.70000000000002
 20
63.3
 10
1.3
 20
63.3
  0
LWPOLYLINE
  5
118
100
AcDbEntity
  8
dveri
  6
DASHED2
 62
  256
370
   -1
100
AcDbPolyline
 90
    4
 70
    1
 43
0
 10
1.3
 20
132.7
 10
98.70000000000002
 20
132.7
 10
98.70000000000002
 20
128.7
 10
1.3
 20
128.7
  0
LWPOLYLINE
  5
119
100
AcDbEntity
  8
dveri
  6
ByLayer
 62
  256
370
   -1
100
AcDbPolyline
 90
    9
 70
    0
 43
0
 10
126.2
 20
67.3
 10
129.8
 20
67.3
 10
130
 20
67.09999999999999
 10
130
 20
63.5
 10
129.8
 20
63.3
 10
126.2
 20
63.3
 10
126
 20
63.5
 10
126
 20
67.09999999999999
 10
126.2
 20
67.3
  0
LWPOLYLINE
  5
11A
100
AcDbEntity
  8
dveri
  6
ByLayer
 62
  256
370
   -1
100
AcDbPolyline
 90
    9
 70
    0
 43
0
 10
126.4
 20
67
 10
129.6
 20
67
 10
129.7
 20
66.89999999999999
 10
129.7
 20
63.7
 10
129.6
 20
63.59999999999999
 10
126.4
 20
63.59999999999999
 10
126.3
 20
63.7
 10
126.3
 20
66.89999999999999
 10
126.4
 20
67
  0
LWPOLYLINE
  5
11B
100
AcDbEntity
  8
dveri
  6
ByLayer
 62
  256
370
   -1
100
AcDbPolyline
 90
    9
 70
    0
 43
0
 10
126.2000000000001
 20
132.7
 10
129.8000000000001
 20
132.7
 10
130.0000000000001
 20
132.5
 10
130.0000000000001
 20
128.9
 10
129.8000000000001
 20
128.7
 10
126.2000000000001
 20
128.7
 10
126.0000000000001
 20
128.9
 10
126.0000000000001
 20
132.5
 10
126.2000000000001
 20
132.7
  0
LWPOLYLINE
  5
11C
100
AcDbEntity
  8
dveri
  6
ByLayer
 62
  256
370
   -1
100
AcDbPolyline
 90
    9
 70
    0
 43
0
 10
126.4000000000001
 20
132.4
 10
129.6000000000001
 20
132.4
 10
129.7000000000001
 20
132.3
 10
129.7000000000001
 20
129.1
 10
129.6000000000001
 20
129
 10
126.4000000000001
 20
129
 10
126.3000000000001
 20
129.1
 10
126.3000000000001
 20
132.3
 10
126.4000000000001
 20
132.4
  0
LWPOLYLINE
  5
11D
100
AcDbEntity
  8
ramka
  6
ByLayer
 62
  256
370
   -1
100
AcDbPolyline
 90
    4
 70
    1
 43
0
 10
-1.300000000000001
 20
21
 10
0.8999999999999995
 20
21
 10
0.8999999999999995
 20
26
 10
-1.300000000000001
 20
26
  0
LWPOLYLINE
  5
11E
100
AcDbEntity
  8
dveri
  6
ByLayer
 62
  256
370
   -1
100
AcDbPolyline
 90
    4
 70
    1
 43
0
 10
-1.300000000000001
 20
26
 10
0.8999999999999995
 20
26
 10
0.8999999999999995
 20
31
 10
-1.300000000000001
 20
31
  0
LINE
  5
11F
100
AcDbEntity
  8
rozmir
  6
DASHDOT2
 62
  256
370
   -1
100
AcDbLine
 10
-0.1999999999999993
 20
20
 11
-0.1999999999999993
 21
32
  0
LWPOLYLINE
  5
120
100
AcDbEntity
  8
dveri
  6
ByLayer
 62
  256
370
   -1
100
AcDbPolyline
 90
    4
 70
    1
 43
0
 10
0.8999999999999995
 20
31
 10
3.9
 20
31
 10
3.9
 20
26
 10
0.8999999999999995
 20
26
  0
LWPOLYLINE
  5
121
100
AcDbEntity
  8
ramka
  6
ByLayer
 62
  256
370
   -1
100
AcDbPolyline
 90
    4
 70
    1
 43
0
 10
-1.300000000000001
 20
26
 10
-3
 20
26
 10
-3
 20
21
 10
-1.300000000000001
 20
21
  0
LWPOLYLINE
  5
122
100
AcDbEntity
  8
dveri
  6
ByLayer
 62
  256
370
   -1
100
AcDbPolyline
 90
    4
 70
    1
 43
0
 10
98.20000000000002
 20
46.5
 10
98.70000000000003
 20
46.5
 10
98.70000000000003
 20
51.5
 10
98.20000000000002
 20
51.5
  0
LINE
  5
123
100
AcDbEntity
  8
dveri
  6
DASHED2
 62
  256
370
   -1
100
AcDbLine
 10
98.20000000000002
 20
49.8
 11
98.70000000000002
 21
49.8
  0
LINE
  5
124
100
AcDbEntity
  8
dveri
  6
DASHED2
 62
  256
370
   -1
100
AcDbLine
 10
98.20000000000002
 20
48.2
 11
98.70000000000002
 21
48.2
  0
LWPOLYLINE
  5
125
100
AcDbEntity
  8
ramka
  6
ByLayer
 62
  256
370
   -1
100
AcDbPolyline
 90
    4
 70
    1
 43
0
 10
99.00000000000003
 20
46.5
 10
99.50000000000004
 20
46.5
 10
99.50000000000004
 20
51.5
 10
99.00000000000003
 20
51.5
  0
LINE
  5
126
100
AcDbEntity
  8
ramka
  6
DASHED2
 62
  256
370
   -1
100
AcDbLine
 10
99.00000000000003
 20
49.8
 11
99.50000000000003
 21
49.8
  0
LINE
  5
127
100
AcDbEntity
  8
ramka
  6
DASHED2
 62
  256
370
   -1
100
AcDbLine
 10
99.00000000000003
 20
48.2
 11
99.50000000000003
 21
48.2
  0
LWPOLYLINE
  5
128
100
AcDbEntity
  8
dveri
  6
ByLayer
 62
  256
370
   -1
100
AcDbPolyline
 90
    4
 70
    1
 43
0
 10
98.2
 20
144.5
 10
98.70000000000002
 20
144.5
 10
98.70000000000002
 20
149.5
 10
98.2
 20
149.5
  0
LINE
  5
129
100
AcDbEntity
  8
dveri
  6
DASHED2
 62
  256
370
   -1
100
AcDbLine
 10
98.2
 20
147.8
 11
98.7
 21
147.8
  0
LINE
  5
12A
100
AcDbEntity
  8
dveri
  6
DASHED2
 62
  256
370
   -1
100
AcDbLine
 10
98.2
 20
146.2
 11
98.7
 21
146.2
  0
LWPOLYLINE
  5
12B
100
AcDbEntity
  8
ramka
  6
ByLayer
 62
  256
370
   -1
100
AcDbPolyline
 90
    4
 70
    1
 43
0
 10
99.00000000000001
 20
144.5
 10
99.50000000000003
 20
144.5
 10
99.50000000000003
 20
149.5
 10
99.00000000000001
 20
149.5
  0
LINE
  5
12C
100
AcDbEntity
  8
ramka
  6
DASHED2
 62
  256
370
   -1
100
AcDbLine
 10
99.00000000000001
 20
147.8
 11
99.50000000000001
 21
147.8
  0
LINE
  5
12D
100
AcDbEntity
  8
ramka
  6
DASHED2
 62
  256
370
   -1
100
AcDbLine
 10
99.00000000000001
 20
146.2
 11
99.50000000000001
 21
146.2
  0
LINE
  5
12E
100
AcDbEntity
  8
rozmir
  6
DASHDOT2
 62
  256
370
   -1
100
AcDbLine
 10
131
 20
49
 11
134
 21
49
  0
LINE
  5
12F
100
AcDbEntity
  8
rozmir
  6
DASHDOT2
 62
  256
370
   -1
100
AcDbLine
 10
132.5
 20
50.5
 11
132.5
 21
47.5
  0
LWPOLYLINE
  5
130
100
AcDbEntity
  8
dveri
  6
ByLayer
 62
  256
370
   -1
100
AcDbPolyline
 90
    6
 70
    1
 43
0
 10
134.5
 20
47.5
 10
134.5
 20
50.5
 42
0.414213562373095
 10
133.5
 20
51.5
 10
130
 20
51.5
 10
130
 20
46.5
 10
133.5
 20
46.5
 42
0.414213562373095
  0
CIRCLE
  5
131
100
AcDbEntity
  8
dveri
  6
ByLayer
 62
  256
370
   -1
100
AcDbCircle
 10
132.5
 20
49
 40
0.8000000000000043
  0
LINE
  5
132
100
AcDbEntity
  8
rozmir
  6
DASHDOT2
 62
  256
370
   -1
100
AcDbLine
 10
131
 20
147
 11
134
 21
147
  0
LWPOLYLINE
  5
133
100
AcDbEntity
  8
ramka
  6
ByLayer
 62
  256
370
   -1
100
AcDbPolyline
 90
    4
 70
    1
 43
0
 10
130
 20
21
 10
132.2
 20
21
 10
132.2
 20
26
 10
130
 20
26
  0
LWPOLYLINE
  5
134
100
AcDbEntity
  8
dveri
  6
ByLayer
 62
  256
370
   -1
100
AcDbPolyline
 90
    4
 70
    1
 43
0
 10
130
 20
26
 10
132.2
 20
26
 10
132.2
 20
31
 10
130
 20
31
  0
LINE
  5
135
100
AcDbEntity
  8
rozmir
  6
DASHDOT2
 62
  256
370
   -1
100
AcDbLine
 10
131.1
 20
20
 11
131.1
 21
32
  0
LWPOLYLINE
  5
136
100
AcDbEntity
  8
ramka
  6
ByLayer
 62
  256
370
   -1
100
AcDbPolyline
 90
    4
 70
    1
 43
0
 10
130
 20
165
 10
132.2
 20
165
 10
132.2
 20
170
 10
130
 20
170
  0
LWPOLYLINE
  5
137
100
AcDbEntity
  8
dveri
  6
ByLayer
 62
  256
370
   -1
100
AcDbPolyline
 90
    4
 70
    1
 43
0
 10
130
 20
170
 10
132.2
 20
170
 10
132.2
 20
175
 10
130
 20
175
  0
LINE
  5
138
100
AcDbEntity
  8
rozmir
  6
DASHDOT2
 62
  256
370
   -1
100
AcDbLine
 10
131.1
 20
164
 11
131.1
 21
176
  0
DIMENSION
  5
139
100
AcDbEntity
  8
rozmir
  6
ByLayer
 62
  256
370
   -1
100
AcDbDimension
  2
*D2
 10
0
 20
210
 30
0
 11
50
 21
213
 31
0
 70
   32
 71
    5
 72
    0
  3
Standard
 53
0
210
0
220
0
230
1
100
AcDbAlignedDimension
 13
105
 23
201
 33
0
 14
-5
 24
201
 34
0
100
AcDbRotatedDimension
  0
DIMENSION
  5
13A
100
AcDbEntity
  8
rozmir
  6
ByLayer
 62
  256
370
   -1
100
AcDbDimension
  2
*D3
 10
-10
 20
170.0000000000001
 30
0
 11
-13
 21
185.5000000000001
 31
0
 70
   32
 71
    5
 72
    0
  3
Standard
 53
0
210
0
220
0
230
1
100
AcDbAlignedDimension
 13
-5
 23
201
 33
0
 14
-3
 24
170.0000000000001
 34
0
 50
90
100
AcDbRotatedDimension
  0
DIMENSION
  5
13B
100
AcDbEntity
  8
rozmir
  6
ByLayer
 62
  256
370
   -1
100
AcDbDimension
  2
*D4
 10
-10
 20
26
 30
0
 11
-13
 21
11.5
 31
0
 70
   32
 71
    5
 72
    0
  3
Standard
 53
0
210
0
220
0
230
1
100
AcDbAlignedDimension
 13
-4.999999999999986
 23
-3
 33
0
 14
-3
 24
26
 34
0
 50
90
100
AcDbRotatedDimension
  0
DIMENSION
  5
13C
100
AcDbEntity
  8
rozmir
  6
ByLayer
 62
  256
370
   -1
100
AcDbDimension
  2
*D5
 10
-20
 20
-3
 30
0
 11
-22.99999999999999
 21
99
 31
0
 70
   32
 71
    5
 72
    0
  3
Standard
 53
0
210
0
220
0
230
1
100
AcDbAlignedDimension
 13
-5
 23
201
 33
0
 14
-4.999999999999986
 24
-3
 34
0
 50
90
100
AcDbRotatedDimension
  0
LWPOLYLINE
  5
13D
100
AcDbEntity
  8
dveri
  6
ByLayer
 62
  256
370
   -1
100
AcDbPolyline
 90
    6
 70
    1
 43
0
 10
170
 20
0
 10
267.4
 20
0
 10
267.4
 20
193.4
 10
170
 20
193.4
 10
170
 20
193.4
 10
170
 20
193.4
  0
LWPOLYLINE
  5
13E
100
AcDbEntity
  8
dveri
  6
ByLayer
 62
  256
370
   -1
100
AcDbPolyline
 90
    6
 70
    1
 43
0
 10
174
 20
4
 10
263.4
 20
4
 10
263.4
 20
189.4
 10
174
 20
189.4
 10
174
 20
189.4
 10
174
 20
189.4
  0
LWPOLYLINE
  5
13F
100
AcDbEntity
  8
dveri
  6
ByLayer
 62
  256
370
   -1
100
AcDbPolyline
 90
    6
 70
    1
 43
0
 10
174
 20
66
 10
263.4
 20
66
 10
263.4
 20
62
 10
174
 20
62
 10
174
 20
62
 10
174
 20
62
  0
LWPOLYLINE
  5
140
100
AcDbEntity
  8
dveri
  6
ByLayer
 62
  256
370
   -1
100
AcDbPolyline
 90
    5
 70
    1
 43
0
 10
174
 20
131.4
 10
263.4
 20
131.4
 10
263.4
 20
127.4
 10
174
 20
127.4
 10
174
 20
127.4
  0
DIMENSION
  5
141
100
AcDbEntity
  8
rozmir
  6
ByLayer
 62
  256
370
   -1
100
AcDbDimension
  2
*D6
 10
267.4
 20
206
 30
0
 11
218.7
 21
209
 31
0
 70
   32
 71
    5
 72
    0
  3
Standard
 53
0
210
0
220
0
230
1
100
AcDbAlignedDimension
 13
170
 23
193.4
 33
0
 14
267.4
 24
193.4
 34
0
100
AcDbRotatedDimension
  0
DIMENSION
  5
142
100
AcDbEntity
  8
rozmir
  6
ByLayer
 62
  256
370
   -1
100
AcDbDimension
  2
*D7
 10
280
 20
60
 30
0
 11
277
 21
31
 31
0
 70
   32
 71
    5
 72
    0
  3
Standard
 53
0
210
0
220
0
230
1
100
AcDbAlignedDimension
 13
267.4
 23
0
 33
0
 14
263.4
 24
62
 34
0
 50
90
100
AcDbRotatedDimension
  0
DIMENSION
  5
143
100
AcDbEntity
  8
rozmir
  6
ByLayer
 62
  256
370
   -1
100
AcDbDimension
  2
*D8
 10
280
 20
131.4
 30
0
 11
277
 21
162.4
 31
0
 70
   32
 71
    5
 72
    0
  3
Standard
 53
0
210
0
220
0
230
1
100
AcDbAlignedDimension
 13
267.4
 23
193.4
 33
0
 14
263.4
 24
131.4
 34
0
 50
90
100
AcDbRotatedDimension
  0
DIMENSION
  5
144
100
AcDbEntity
  8
rozmir
  6
ByLayer
 62
  256
370
   -1
100
AcDbDimension
  2
*D9
 10
290
 20
-2.767701766073014e-15
 30
0
 11
287
 21
96.69999999999997
 31
0
 70
   32
 71
    5
 72
    0
  3
Standard
 53
0
210
0
220
0
230
1
100
AcDbAlignedDimension
 13
267.4
 23
193.4
 33
0
 14
267.4
 24
0
 34
0
 50
90
100
AcDbRotatedDimension
  0
MTEXT
  5
145
100
AcDbEntity
  8
rozmir
  6
ByLayer
 62
  256
370
   -1
100
AcDbMText
 10
220
 20
90
 30
0
 40
5
 41
51.80555555555587
 71
    8
 72
    1
  1
 40403
  7
cyrillic_ii
210
0
220
0
230
1
 50
0
 73
    2
 44
1
  0
MTEXT
  5
146
100
AcDbEntity
  8
rozmir
  6
ByLayer
 62
  256
370
   -1
100
AcDbMText
 10
50
 20
30
 30
0
 40
5
 41
51.80555555555587
 71
    8
 72
    1
  1
 40403
  7
cyrillic_ii
210
0
220
0
230
1
 50
0
 73
    2
 44
1
  0
MTEXT
  5
147
100
AcDbEntity
  8
rozmir
  6
ByLayer
 62
  256
370
   -1
100
AcDbMText
 10
50
 20
170
 30
0
 40
5
 41
51.25000000000032
 71
    8
 72
    1
  1
 60402
  7
cyrillic_ii
210
0
220
0
230
1
 50
0
 73
    2
 44
1
  0
LEADER
  5
148
100
AcDbEntity
  8
rozmir
  6
ByLayer
 62
  256
370
   -1
100
AcDbLeader
  3
Standard
 71
    1
 72
    0
 73
    3
 74
    0
 75
    0
 40
1
 41
10
 76
4
 76
4
 10
-3
 20
158
 30
0
 10
20
 20
170
 30
0
 10
78
 20
170
 30
0
 10
78
 20
170
 30
0
  0
LEADER
  5
149
100
AcDbEntity
  8
rozmir
  6
ByLayer
 62
  256
370
   -1
100
AcDbLeader
  3
Standard
 71
    1
 72
    0
 73
    3
 74
    0
 75
    0
 40
1
 41
10
 76
2
 76
2
 10
103
 20
160
 30
0
 10
78
 20
170
 30
0
  0
LEADER
  5
14A
100
AcDbEntity
  8
rozmir
  6
ByLayer
 62
  256
370
   -1
100
AcDbLeader
  3
Standard
 71
    1
 72
    0
 73
    3
 74
    0
 75
    0
 40
1
 41
10
 76
2
 76
2
 10
9
 20
198
 30
0
 10
20
 20
170
 30
0
  0
LEADER
  5
14B
100
AcDbEntity
  8
rozmir
  6
ByLayer
 62
  256
370
   -1
100
AcDbLeader
  3
Standard
 71
    1
 72
    0
 73
    3
 74
    0
 75
    0
 40
1
 41
10
 76
3
 76
3
 10
11
 20
-1
 30
0
 10
23
 20
30
 30
0
 10
77
 20
30
 30
0
  0
LEADER
  5
14C
100
AcDbEntity
  8
rozmir
  6
ByLayer
 62
  256
370
   -1
100
AcDbLeader
  3
Standard
 71
    1
 72
    0
 73
    3
 74
    0
 75
    0
 40
1
 41
10
 76
3
 76
3
 10
180
 20
2
 30
0
 10
190
 20
39
 30
0
 10
250
 20
39
 30
0
  0
LEADER
  5
14D
100
AcDbEntity
  8
rozmir
  6
ByLayer
 62
  256
370
   -1
100
AcDbLeader
  3
Standard
 71
    1
 72
    0
 73
    3
 74
    0
 75
    0
 40
1
 41
10
 76
2
 76
2
 10
172
 20
30
 30
0
 10
190
 20
39
 30
0
  0
LEADER
  5
14E
100
AcDbEntity
  8
rozmir
  6
ByLayer
 62
  256
370
   -1
100
AcDbLeader
  3
Standard
 71
    1
 72
    0
 73
    3
 74
    0
 75
    0
 40
1
 41
10
 76
3
 76
3
 10
180
 20
64
 30
0
 10
193
 20
89
 30
0
 10
247
 20
89
 30
0
  0
LEADER
  5
14F
100
AcDbEntity
  8
rozmir
  6
ByLayer
 62
  256
370
   -1
100
AcDbLeader
  3
Standard
 71
    1
 72
    0
 73
    3
 74
    0
 75
    0
 40
1
 41
10
 76
2
 76
2
 10
183
 20
129
 30
0
 10
193
 20
89
 30
0
  0
LEADER
  5
150
100
AcDbEntity
  8
rozmir
  6
ByLayer
 62
  256
370
   -1
100
AcDbLeader
  3
Standard
 71
    1
 72
    0
 73
    3
 74
    0
 75
    0
 40
1
 41
10
 76
3
 76
3
 10
231
 20
192
 30
0
 10
243
 20
159
 30
0
 10
180
 20
159
 30
0
  0
LEADER
  5
151
100
AcDbEntity
  8
rozmir
  6
ByLayer
 62
  256
370
   -1
100
AcDbLeader
  3
Standard
 71
    1
 72
    0
 73
    3
 74
    0
 75
    0
 40
1
 41
10
 76
2
 76
2
 10
265
 20
147
 30
0
 10
243
 20
159
 30
0
  0
MTEXT
  5
152
100
AcDbEntity
  8
rozmir
  6
ByLayer
 62
  256
370
   -1
100
AcDbMText
 10
210
 20
160
 30
0
 40
5
 41
55.97222222222246
 71
    8
 72
    1
  1
 40404
  7
cyrillic_ii
210
0
220
0
230
1
 50
0
 73
    2
 44
1
  0
MTEXT
  5
153
100
AcDbEntity
  8
rozmir
  6
ByLayer
 62
  256
370
   -1
100
AcDbMText
 10
220
 20
40
 30
0
 40
5
 41
55.97222222222246
 71
    8
 72
    1
  1
 40404
  7
cyrillic_ii
210
0
220
0
230
1
 50
0
 73
    2
 44
1
  0
DIMENSION
  5
154
100
AcDbEntity
  8
rozmir
  6
ByLayer
 62
  256
370
   -1
100
AcDbDimension
  2
*D20
 10
-10
 20
145.0000000000001
 30
0
 11
-13
 21
134.0000000000001
 31
0
 70
   32
 71
    5
 72
    0
  3
Standard
 53
0
210
0
220
0
230
1
100
AcDbAlignedDimension
 13
-3
 23
170.0000000000001
 33
0
 14
-3
 24
98
 34
0
 50
90
100
AcDbRotatedDimension
  0
LWPOLYLINE
  5
155
100
AcDbEntity
  8
ramka
  6
ByLayer
 62
  256
370
   -1
100
AcDbPolyline
 90
    4
 70
    1
 43
0
 10
-1.300000000000001
 20
93
 10
0.8999999999999995
 20
93
 10
0.8999999999999995
 20
98
 10
-1.300000000000001
 20
98
  0
LWPOLYLINE
  5
156
100
AcDbEntity
  8
dveri
  6
ByLayer
 62
  256
370
   -1
100
AcDbPolyline
 90
    4
 70
    1
 43
0
 10
-1.300000000000001
 20
98
 10
0.8999999999999995
 20
98
 10
0.8999999999999995
 20
103
 10
-1.300000000000001
 20
103
  0
LINE
  5
157
100
AcDbEntity
  8
rozmir
  6
DASHDOT2
 62
  256
370
   -1
100
AcDbLine
 10
-0.1999999999999993
 20
92
 11
-0.1999999999999993
 21
104
  0
LWPOLYLINE
  5
158
100
AcDbEntity
  8
dveri
  6
ByLayer
 62
  256
370
   -1
100
AcDbPolyline
 90
    4
 70
    1
 43
0
 10
0.8999999999999995
 20
103
 10
3.9
 20
103
 10
3.9
 20
98
 10
0.8999999999999995
 20
98
  0
LWPOLYLINE
  5
159
100
AcDbEntity
  8
ramka
  6
ByLayer
 62
  256
370
   -1
100
AcDbPolyline
 90
    4
 70
    1
 43
0
 10
-1.300000000000001
 20
98
 10
-3
 20
98
 10
-3
 20
93
 10
-1.300000000000001
 20
93
  0
LWPOLYLINE
  5
15A
100
AcDbEntity
  8
ramka
  6
ByLayer
 62
  256
370
   -1
100
AcDbPolyline
 90
    4
 70
    1
 43
0
 10
130
 20
93.00000000000011
 10
132.2
 20
93.00000000000011
 10
132.2
 20
98.00000000000011
 10
130
 20
98.00000000000011
  0
LWPOLYLINE
  5
15B
100
AcDbEntity
  8
dveri
  6
ByLayer
 62
  256
370
   -1
100
AcDbPolyline
 90
    4
 70
    1
 43
0
 10
130
 20
98.00000000000011
 10
132.2
 20
98.00000000000011
 10
132.2
 20
103.0000000000001
 10
130
 20
103.0000000000001
  0
LINE
  5
15C
100
AcDbEntity
  8
rozmir
  6
DASHDOT2
 62
  256
370
   -1
100
AcDbLine
 10
131.1
 20
92.00000000000011
 11
131.1
 21
104.0000000000001
  0
LINE
  5
15D
100
AcDbEntity
  8
rozmir
  6
DASHDOT2
 62
  256
370
   -1
100
AcDbLine
 10
131
 20
147
 11
134
 21
147
  0
LINE
  5
15E
100
AcDbEntity
  8
rozmir
  6
DASHDOT2
 62
  256
370
   -1
100
AcDbLine
 10
132.5
 20
148.5
 11
132.5
 21
145.5
  0
LWPOLYLINE
  5
15F
100
AcDbEntity
  8
dveri
  6
ByLayer
 62
  256
370
   -1
100
AcDbPolyline
 90
    6
 70
    1
 43
0
 10
134.5
 20
145.5
 10
134.5
 20
148.5
 42
0.414213562373095
 10
133.5
 20
149.5
 10
130
 20
149.5
 10
130
 20
144.5
 10
133.5
 20
144.5
 42
0.414213562373095
  0
CIRCLE
  5
160
100
AcDbEntity
  8
dveri
  6
ByLayer
 62
  256
370
   -1
100
AcDbCircle
 10
132.5
 20
147
 40
0.8000000000000043
  0
LINE
  5
161
100
AcDbEntity
  8
rozmir
  6
DASHDOT2
 62
  256
370
   -1
100
AcDbLine
 10
-1.2
 20
-27.7
 11
2.199999999999999
 21
-27.7
  0
LINE
  5
162
100
AcDbEntity
  8
ramka
  6
ByLayer
 62
  256
370
   -1
100
AcDbLine
 10
1.000000000000001
 20
-28.7
 11
1.000000000000001
 21
-28.3
  0
LINE
  5
163
100
AcDbEntity
  8
ramka
  6
DASHED2
 62
  256
370
   -1
100
AcDbLine
 10
0.9999999999999978
 20
-27
 11
1.000000000000001
 21
-28.3
  0
LWPOLYLINE
  5
164
100
AcDbEntity
  8
ramka
  6
ByLayer
 62
  256
370
   -1
100
AcDbPolyline
 90
   21
 70
    0
 43
0
 10
0.7999999999999996
 20
-28.7
 10
0.9999999999999999
 20
-28.7
 10
0.9999999999999999
 20
-29.7
 10
0.6999999999999998
 20
-30
 10
-4.7
 20
-30
 10
-5
 20
-29.7
 10
-5
 20
-26.3
 10
-4.7
 20
-26
 10
0.7000000000000003
 20
-26
 10
1
 20
-26.3
 10
1
 20
-27
 10
0.7999999999999998
 20
-27
 10
0.8000000000000003
 20
-26.4
 10
0.6000000000000003
 20
-26.2
 10
-4.6
 20
-26.2
 10
-4.8
 20
-26.4
 10
-4.8
 20
-29.6
 10
-4.6
 20
-29.8
 10
0.6000000000000003
 20
-29.8
 10
0.8000000000000003
 20
-29.6
 10
0.7999999999999998
 20
-28.7
  0
LINE
  5
165
100
AcDbEntity
  8
ramka
  6
ByLayer
 62
  256
370
   -1
100
AcDbLine
 10
0.7999999999999998
 20
-28.7
 11
0.7999999999999999
 21
-28.3
  0
LINE
  5
166
100
AcDbEntity
  8
ramka
  6
DASHED2
 62
  256
370
   -1
100
AcDbLine
 10
0.7999999999999999
 20
-27
 11
0.7999999999999999
 21
-28.3
  0
LINE
  5
167
100
AcDbEntity
  8
dveri
  6
ByLayer
 62
  256
370
   -1
100
AcDbLine
 10
-0.4999999999999964
 20
-27.1
 11
-0.5
 21
-28.3
  0
LWPOLYLINE
  5
168
100
AcDbEntity
  8
dveri
  6
ByLayer
 62
  256
370
   -1
100
AcDbPolyline
 90
    7
 70
    0
 43
0
 10
1.7
 20
-28.3
 10
-0.5000000000000004
 20
-28.3
 10
-0.7000000000000008
 20
-28.1
 10
-0.7000000000000008
 20
-27.3
 10
-0.5000000000000004
 20
-27.1
 10
1.7
 20
-27.1
 10
1.7
 20
-28.3
  0
LWPOLYLINE
  5
169
100
AcDbEntity
  8
dveri
  6
CONTINUOUS
 62
   96
420
32768
370
   50
100
AcDbPolyline
 90
    9
 70
    0
 43
0
 10
1.300000000000001
 20
-30
 10
5.300000000000001
 20
-30
 10
5.300000000000001
 20
-29.8
 10
5.100000000000001
 20
-29.6
 10
1.999999999999999
 20
-29.6
 10
1.7
 20
-29.3
 10
1.7
 20
-28.3
 10
1.3
 20
-28.3
 10
1.300000000000001
 20
-30
  0
LWPOLYLINE
  5
16A
100
AcDbEntity
  8
dveri
  6
ByLayer
 62
  256
370
   -1
100
AcDbPolyline
 90
    6
 70
    0
 43
0
 10
1.3
 20
-27.1
 10
1.300000000000001
 20
-26
 10
1.499999999999997
 20
-26
 10
1.7
 20
-26.2
 10
1.7
 20
-27.1
 10
1.3
 20
-27.1
  0
LINE
  5
16B
100
AcDbEntity
  8
dveri
  6
DASHED2
 62
  256
370
   -1
100
AcDbLine
 10
1.3
 20
-27.1
 11
1.3
 21
-28.3
  0
CIRCLE
  5
16C
100
AcDbEntity
  8
ramka
  6
ByLayer
 62
  256
370
   -1
100
AcDbCircle
 10
-0.2999999999999985
 20
-31.2
 40
1.100000000000001
  0
LINE
  5
16D
100
AcDbEntity
  8
rozmir
  6
DASHDOT2
 62
  256
370
   -1
100
AcDbLine
 10
-0.2999999999999997
 20
-32.7
 11
-0.2999999999999997
 21
-29.7
  0
LINE
  5
16E
100
AcDbEntity
  8
rozmir
  6
DASHDOT2
 62
  256
370
   -1
100
AcDbLine
 10
-1.8
 20
-31.2
 11
1.2
 21
-31.2
  0
LWPOLYLINE
  5
16F
100
AcDbEntity
  8
ramka
  6
ByLayer
 62
  256
370
   -1
100
AcDbPolyline
 90
    4
 70
    1
 43
0
 10
-3.1
 20
-30.5
 10
-1.148528137423845
 20
-30.50000000000001
 10
-1.148528137423844
 20
-30
 10
-3.1
 20
-30
  0
LWPOLYLINE
  5
170
100
AcDbEntity
  8
dveri
  6
ByLayer
 62
  256
370
   -1
100
AcDbPolyline
 90
    4
 70
    1
 43
0
 10
3.800000000000001
 20
-30.5
 10
0.548528137423844
 20
-30.50000000000001
 10
0.5485281374241365
 20
-30
 10
3.800000000000001
 20
-30
  0
ARC
  5
171
100
AcDbEntity
  8
face
  6
ByLayer
 62
  256
370
   -1
100
AcDbCircle
 10
-114
 20
-81.12500000000011
 40
186.8750000000001
100
AcDbArc
 50
75.74996730219638
 51
104.2500326978036
  0
ENDSEC
  0
SECTION
  2
OBJECTS
  0
DICTIONARY
  5
C
330
0
100
AcDbDictionary
281
    1
  3
ACAD_GROUP
350
D
  0
DICTIONARY
  5
D
330
C
100
AcDbDictionary
281
    1
  0
ENDSEC
  0
EOF
