999
dxfrw 0.6.3
  0
SECTION
  2
HEADER
  9
$ACADVER
  1
AC1021
  9
$DWGCODEPAGE
  3
ANSI_1252
  9
$INSBASE
 10
0
 20
0
 30
0
  9
$EXTMIN
 10
-21.50000000000001
 20
-29.29999999999999
 30
0
  9
$EXTMAX
 10
289
 20
253.3359734018049
 30
0
  9
$LIMMIN
 10
0
 20
0
  9
$LIMMAX
 10
420
 20
297
  9
$ORTHOMODE
 70
    0
  9
$REGENMODE
 70
    1
  9
$FILLMODE
 70
    1
  9
$QTEXTMODE
 70
    0
  9
$MIRRTEXT
 70
    0
  9
$LTSCALE
 40
1
  9
$ATTMODE
 70
    0
  9
$TEXTSIZE
 40
2.5
  9
$TRACEWID
 40
15.68
  9
$TEXTSTYLE
  7
STANDARD
  9
$CLAYER
  8
rozmir
  9
$CELTYPE
  6
BYLAYER
  9
$CECOLOR
 62
  256
  9
$CELTSCALE
 40
1
  9
$DISPSILH
 70
    0
  9
$DIMSCALE
 40
1
  9
$DIMASZ
 40
5
  9
$DIMEXO
 40
1
  9
$DIMDLI
 40
3.75
  9
$DIMRND
 40
0
  9
$DIMDLE
 40
0
  9
$DIMEXE
 40
2
  9
$DIMTP
 40
0
  9
$DIMTM
 40
0
  9
$DIMTXT
 40
4
  9
$DIMCEN
 40
2.5
  9
$DIMTSZ
 40
0
  9
$DIMTOL
 70
    0
  9
$DIMLIM
 70
    0
  9
$DIMTIH
 70
    0
  9
$DIMTOH
 70
    0
  9
$DIMSE1
 70
    0
  9
$DIMSE2
 70
    0
  9
$DIMTAD
 70
    1
  9
$DIMZIN
 70
    8
  9
$DIMBLK
  1

  9
$DIMASO
 70
    1
  9
$DIMSHO
 70
    1
  9
$DIMPOST
  1

  9
$DIMAPOST
  1

  9
$DIMALT
 70
    0
  9
$DIMALTD
 70
    3
  9
$DIMALTF
 40
0.03937
  9
$DIMLFAC
 40
1
  9
$DIMTOFL
 70
    1
  9
$DIMTVP
 40
0
  9
$DIMTIX
 70
    0
  9
$DIMSOXD
 70
    0
  9
$DIMSAH
 70
    0
  9
$DIMBLK1
  1

  9
$DIMBLK2
  1

  9
$DIMSTYLE
  2
STANDARD
  9
$DIMCLRD
 70
    0
  9
$DIMCLRE
 70
    0
  9
$DIMCLRT
 70
    0
  9
$DIMTFAC
 40
1
  9
$DIMGAP
 40
1
  9
$DIMJUST
 70
    0
  9
$DIMSD1
 70
    0
  9
$DIMSD2
 70
    0
  9
$DIMTOLJ
 70
    0
  9
$DIMTZIN
 70
    8
  9
$DIMALTZ
 70
    0
  9
$DIMALTTZ
 70
    0
  9
$DIMUPT
 70
    0
  9
$DIMDEC
 70
    1
  9
$DIMTDEC
 70
    2
  9
$DIMALTU
 70
    2
  9
$DIMALTTD
 70
    3
  9
$DIMTXSTY
  7
standard
  9
$DIMAUNIT
 70
    0
  9
$DIMADEC
 70
    0
  9
$DIMALTRND
 40
0
  9
$DIMAZIN
 70
    0
  9
$DIMDSEP
 70
   44
  9
$DIMATFIT
 70
    3
  9
$DIMFRAC
 70
    0
  9
$DIMLDRBLK
  1
STANDARD
  9
$DIMLUNIT
 70
    2
  9
$DIMLWD
 70
   -2
  9
$DIMLWE
 70
   -2
  9
$DIMTMOVE
 70
    0
  9
$DIMFXL
 40
1
  9
$DIMFXLON
 70
    0
  9
$DIMJOGANG
 40
0.7854
  9
$DIMTFILL
 70
    0
  9
$DIMTFILLCLR
 70
    0
  9
$DIMARCSYM
 70
    0
  9
$DIMLTYPE
  6

  9
$DIMLTEX1
  6

  9
$DIMLTEX2
  6

  9
$LUNITS
 70
    2
  9
$LUPREC
 70
    2
  9
$SKETCHINC
 40
1
  9
$FILLETRAD
 40
0
  9
$AUNITS
 70
    0
  9
$AUPREC
 70
    2
  9
$MENU
  1
.
  9
$ELEVATION
 40
0
  9
$PELEVATION
 40
0
  9
$THICKNESS
 40
0
  9
$LIMCHECK
 70
    0
  9
$CHAMFERA
 40
0
  9
$CHAMFERB
 40
0
  9
$CHAMFERC
 40
0
  9
$CHAMFERD
 40
0
  9
$SKPOLY
 70
    0
  9
$USRTIMER
 70
    1
  9
$ANGBASE
 50
0
  9
$ANGDIR
 70
    0
  9
$PDMODE
 70
   34
  9
$PDSIZE
 40
0
  9
$PLINEWID
 40
0
  9
$SPLFRAME
 70
    0
  9
$SPLINETYPE
 70
    2
  9
$SPLINESEGS
 70
    8
  9
$HANDSEED
  5
20000
  9
$SURFTAB1
 70
    6
  9
$SURFTAB2
 70
    6
  9
$SURFTYPE
 70
    6
  9
$SURFU
 70
    6
  9
$SURFV
 70
    6
  9
$UCSBASE
  2

  9
$UCSNAME
  2

  9
$UCSORG
 10
0
 20
0
 30
0
  9
$UCSXDIR
 10
1
 20
0
 30
0
  9
$UCSYDIR
 10
0
 20
1
 30
0
  9
$UCSORTHOREF
  2

  9
$UCSORTHOVIEW
 70
    0
  9
$UCSORGTOP
 10
0
 20
0
 30
0
  9
$UCSORGBOTTOM
 10
0
 20
0
 30
0
  9
$UCSORGLEFT
 10
0
 20
0
 30
0
  9
$UCSORGRIGHT
 10
0
 20
0
 30
0
  9
$UCSORGFRONT
 10
0
 20
0
 30
0
  9
$UCSORGBACK
 10
0
 20
0
 30
0
  9
$PUCSBASE
  2

  9
$PUCSNAME
  2

  9
$PUCSORG
 10
0
 20
0
 30
0
  9
$PUCSXDIR
 10
1
 20
0
 30
0
  9
$PUCSYDIR
 10
0
 20
1
 30
0
  9
$PUCSORTHOREF
  2

  9
$PUCSORTHOVIEW
 70
    0
  9
$PUCSORGTOP
 10
0
 20
0
 30
0
  9
$PUCSORGBOTTOM
 10
0
 20
0
 30
0
  9
$PUCSORGLEFT
 10
0
 20
0
 30
0
  9
$PUCSORGRIGHT
 10
0
 20
0
 30
0
  9
$PUCSORGFRONT
 10
0
 20
0
 30
0
  9
$PUCSORGBACK
 10
0
 20
0
 30
0
  9
$USERI1
 70
    0
  9
$USERI2
 70
    0
  9
$USERI3
 70
    0
  9
$USERI4
 70
    0
  9
$USERI5
 70
    0
  9
$USERR1
 40
0
  9
$USERR2
 40
0
  9
$USERR3
 40
0
  9
$USERR4
 40
0
  9
$USERR5
 40
0
  9
$WORLDVIEW
 70
    1
  9
$SHADEDGE
 70
    3
  9
$SHADEDIF
 70
   70
  9
$TILEMODE
 70
    1
  9
$MAXACTVP
 70
   64
  9
$PINSBASE
 10
6.095364239313074
 20
3.167837964771042
 30
0
  9
$PLIMCHECK
 70
    0
  9
$PEXTMIN
 10
0
 20
0
 30
0
  9
$PEXTMAX
 10
0
 20
0
 30
0
  9
$GRIDMODE
 70
    1
  9
$SNAPSTYLE
 70
    0
  9
$GRIDUNIT
 10
0
 20
0
  9
$PLIMMIN
 10
0
 20
0
  9
$PLIMMAX
 10
29.7
 20
21
  9
$UNITMODE
 70
    0
  9
$VISRETAIN
 70
    1
  9
$PLINEGEN
 70
    0
  9
$PSLTSCALE
 70
    1
  9
$TREEDEPTH
 70
 3020
  9
$CMLSTYLE
  2
Standard
  9
$CMLJUST
 70
    0
  9
$CMLSCALE
 40
20
  9
$PROXYGRAPHICS
 70
    1
  9
$MEASUREMENT
 70
    1
  9
$CELWEIGHT
370
   -1
  9
$ENDCAPS
280
    0
  9
$JOINSTYLE
280
    0
  9
$LWDISPLAY
290
    0
  9
$INSUNITS
 70
    5
  9
$HYPERLINKBASE
  1

  9
$STYLESHEET
  1

  9
$XEDIT
290
    1
  9
$CEPSNTYPE
380
    0
  9
$PSTYLEMODE
290
    1
  9
$EXTNAMES
290
    1
  9
$PSVPSCALE
 40
0.06545530711630099
  9
$OLESTARTUP
290
    0
  9
$SORTENTS
280
  127
  9
$INDEXCTL
280
    0
  9
$HIDETEXT
280
    1
  9
$XCLIPFRAME
290
    0
  9
$HALOGAP
280
    0
  9
$OBSCOLOR
 70
  257
  9
$OBSLTYPE
280
    0
  9
$INTERSECTIONDISPLAY
280
    0
  9
$INTERSECTIONCOLOR
 70
  257
  9
$DIMASSOC
280
    1
  9
$PROJECTNAME
  1

  9
$CAMERADISPLAY
290
    0
  9
$LENSLENGTH
 40
50
  9
$CAMERAHEIGHT
 40
0
  9
$STEPSPERSEC
 40
2
  9
$STEPSIZE
 40
50
  9
$3DDWFPREC
 40
2
  9
$PSOLWIDTH
 40
5
  9
$PSOLHEIGHT
 40
80
  9
$LOFTANG1
 40
1.570796326794897
  9
$LOFTANG2
 40
1.570796326794897
  9
$LOFTMAG1
 40
0
  9
$LOFTMAG2
 40
0
  9
$LOFTPARAM
 70
    7
  9
$LOFTNORMALS
280
    1
  9
$LATITUDE
 40
1
  9
$LONGITUDE
 40
1
  9
$NORTHDIRECTION
 40
0
  9
$TIMEZONE
 70
-8000
  9
$LIGHTGLYPHDISPLAY
280
    1
  9
$TILEMODELIGHTSYNCH
280
    1
  9
$SOLIDHIST
280
    1
  9
$SHOWHIST
280
    1
  9
$DWFFRAME
280
    2
  9
$DGNFRAME
280
    0
  9
$REALWORLDSCALE
290
    1
  9
$INTERFERECOLOR
 62
    1
  9
$CSHADOW
280
    0
  9
$SHADOWPLANELOCATION
 40
0
  0
ENDSEC
  0
SECTION
  2
CLASSES
  0
ENDSEC
  0
SECTION
  2
TABLES
  0
TABLE
  2
VPORT
  5
8
330
0
100
AcDbSymbolTable
 70
    1
  0
VPORT
  5
31
330
2
100
AcDbSymbolTableRecord
100
AcDbViewportTableRecord
  2
*ACTIVE
 70
    0
 10
0
 20
0
 11
1
 21
1
 12
-124.87655888529
 22
7.046326206693478
 13
0
 23
0
 14
10
 24
10
 15
10
 25
10
 16
0
 26
0
 36
1
 17
0
 27
0
 37
0
 40
23.48775402231159
 41
1.65
 42
50
 43
0
 44
0
 50
0
 51
0
 71
    0
 72
  100
 73
    1
 74
    3
 75
    0
 76
    1
 77
    0
 78
    0
281
    0
 65
    1
110
0
120
0
130
0
111
1
121
0
131
0
112
0
122
1
132
0
 79
    0
146
0
348
10020
 60
    7
 61
    5
292
1
282
    1
141
0
142
0
 63
  250
421
3358443
  0
ENDTAB
  0
TABLE
  2
LTYPE
  5
5
330
0
100
AcDbSymbolTable
 70
    4
  0
LTYPE
  5
14
330
5
100
AcDbSymbolTableRecord
100
AcDbLinetypeTableRecord
  2
ByBlock
 70
    0
  3

 72
   65
 73
    0
 40
0
  0
LTYPE
  5
15
330
5
100
AcDbSymbolTableRecord
100
AcDbLinetypeTableRecord
  2
ByLayer
 70
    0
  3

 72
   65
 73
    0
 40
0
  0
LTYPE
  5
16
330
5
100
AcDbSymbolTableRecord
100
AcDbLinetypeTableRecord
  2
Continuous
 70
    0
  3
Solid line
 72
   65
 73
    0
 40
0
  0
LTYPE
  5
32
330
5
100
AcDbSymbolTableRecord
100
AcDbLinetypeTableRecord
  2
DOT
 70
    0
  3
Dot . . . . . . . . . . . . . . . . . . . . . .
 72
   65
 73
    2
 40
6.35
 49
0
 74
    0
 49
-6.35
 74
    0
  0
LTYPE
  5
33
330
5
100
AcDbSymbolTableRecord
100
AcDbLinetypeTableRecord
  2
DOTTINY
 70
    0
  3
Dot (.15x) .....................................
 72
   65
 73
    2
 40
0.9525
 49
0
 74
    0
 49
-0.9525
 74
    0
  0
LTYPE
  5
34
330
5
100
AcDbSymbolTableRecord
100
AcDbLinetypeTableRecord
  2
DOT2
 70
    0
  3
Dot (.5x) .....................................
 72
   65
 73
    2
 40
3.175
 49
0
 74
    0
 49
-3.175
 74
    0
  0
LTYPE
  5
35
330
5
100
AcDbSymbolTableRecord
100
AcDbLinetypeTableRecord
  2
DOTX2
 70
    0
  3
Dot (2x) .  .  .  .  .  .  .  .  .  .  .  .  .
 72
   65
 73
    2
 40
12.7
 49
0
 74
    0
 49
-12.7
 74
    0
  0
LTYPE
  5
36
330
5
100
AcDbSymbolTableRecord
100
AcDbLinetypeTableRecord
  2
DASHED
 70
    0
  3
Dashed _ _ _ _ _ _ _ _ _ _ _ _ _ _ _ _ _
 72
   65
 73
    2
 40
19.05
 49
12.7
 74
    0
 49
-6.35
 74
    0
  0
LTYPE
  5
37
330
5
100
AcDbSymbolTableRecord
100
AcDbLinetypeTableRecord
  2
DASHEDTINY
 70
    0
  3
Dashed (.15x) _ _ _ _ _ _ _ _ _ _ _ _ _ _ _ _ _
 72
   65
 73
    2
 40
2.8575
 49
1.905
 74
    0
 49
-0.9525
 74
    0
  0
LTYPE
  5
38
330
5
100
AcDbSymbolTableRecord
100
AcDbLinetypeTableRecord
  2
DASHED2
 70
    0
  3
Dashed (.5x) _ _ _ _ _ _ _ _ _ _ _ _ _ _ _ _ _
 72
   65
 73
    2
 40
9.524999999999999
 49
6.35
 74
    0
 49
-3.175
 74
    0
  0
LTYPE
  5
39
330
5
100
AcDbSymbolTableRecord
100
AcDbLinetypeTableRecord
  2
DASHEDX2
 70
    0
  3
Dashed (2x) ____  ____  ____  ____  ____  ___
 72
   65
 73
    2
 40
38.09999999999999
 49
25.4
 74
    0
 49
-12.7
 74
    0
  0
LTYPE
  5
3A
330
5
100
AcDbSymbolTableRecord
100
AcDbLinetypeTableRecord
  2
DASHDOT
 70
    0
  3
Dash dot __ . __ . __ . __ . __ . __ . __ . __
 72
   65
 73
    4
 40
25.4
 49
12.7
 74
    0
 49
-6.35
 74
    0
 49
0
 74
    0
 49
-6.35
 74
    0
  0
LTYPE
  5
3B
330
5
100
AcDbSymbolTableRecord
100
AcDbLinetypeTableRecord
  2
DASHDOTTINY
 70
    0
  3
Dash dot (.15x) _._._._._._._._._._._._._._._.
 72
   65
 73
    4
 40
3.81
 49
1.905
 74
    0
 49
-0.9525
 74
    0
 49
0
 74
    0
 49
-0.9525
 74
    0
  0
LTYPE
  5
3C
330
5
100
AcDbSymbolTableRecord
100
AcDbLinetypeTableRecord
  2
DASHDOT2
 70
    0
  3
Dash dot (.5x) _._._._._._._._._._._._._._._.
 72
   65
 73
    4
 40
12.7
 49
6.35
 74
    0
 49
-3.175
 74
    0
 49
0
 74
    0
 49
-3.175
 74
    0
  0
LTYPE
  5
3D
330
5
100
AcDbSymbolTableRecord
100
AcDbLinetypeTableRecord
  2
DASHDOTX2
 70
    0
  3
Dash dot (2x) ____  .  ____  .  ____  .  ___
 72
   65
 73
    4
 40
50.8
 49
25.4
 74
    0
 49
-12.7
 74
    0
 49
0
 74
    0
 49
-12.7
 74
    0
  0
LTYPE
  5
3E
330
5
100
AcDbSymbolTableRecord
100
AcDbLinetypeTableRecord
  2
DIVIDE
 70
    0
  3
Divide ____ . . ____ . . ____ . . ____ . . ____
 72
   65
 73
    6
 40
31.75
 49
12.7
 74
    0
 49
-6.35
 74
    0
 49
0
 74
    0
 49
-6.35
 74
    0
 49
0
 74
    0
 49
-6.35
 74
    0
  0
LTYPE
  5
3F
330
5
100
AcDbSymbolTableRecord
100
AcDbLinetypeTableRecord
  2
DIVIDETINY
 70
    0
  3
Divide (.15x) __..__..__..__..__..__..__..__.._
 72
   65
 73
    6
 40
4.7625
 49
1.905
 74
    0
 49
-0.9525
 74
    0
 49
0
 74
    0
 49
-0.9525
 74
    0
 49
0
 74
    0
 49
-0.9525
 74
    0
  0
LTYPE
  5
40
330
5
100
AcDbSymbolTableRecord
100
AcDbLinetypeTableRecord
  2
DIVIDE2
 70
    0
  3
Divide (.5x) __..__..__..__..__..__..__..__.._
 72
   65
 73
    6
 40
15.875
 49
6.35
 74
    0
 49
-3.175
 74
    0
 49
0
 74
    0
 49
-3.175
 74
    0
 49
0
 74
    0
 49
-3.175
 74
    0
  0
LTYPE
  5
41
330
5
100
AcDbSymbolTableRecord
100
AcDbLinetypeTableRecord
  2
DIVIDEX2
 70
    0
  3
Divide (2x) ________  .  .  ________  .  .  _
 72
   65
 73
    6
 40
63.5
 49
25.4
 74
    0
 49
-12.7
 74
    0
 49
0
 74
    0
 49
-12.7
 74
    0
 49
0
 74
    0
 49
-12.7
 74
    0
  0
LTYPE
  5
42
330
5
100
AcDbSymbolTableRecord
100
AcDbLinetypeTableRecord
  2
BORDER
 70
    0
  3
Border __ __ . __ __ . __ __ . __ __ . __ __ .
 72
   65
 73
    6
 40
44.45
 49
12.7
 74
    0
 49
-6.35
 74
    0
 49
12.7
 74
    0
 49
-6.35
 74
    0
 49
0
 74
    0
 49
-6.35
 74
    0
  0
LTYPE
  5
43
330
5
100
AcDbSymbolTableRecord
100
AcDbLinetypeTableRecord
  2
BORDERTINY
 70
    0
  3
Border (.15x) __.__.__.__.__.__.__.__.__.__.__.
 72
   65
 73
    6
 40
6.6675
 49
1.905
 74
    0
 49
-0.9525
 74
    0
 49
1.905
 74
    0
 49
-0.9525
 74
    0
 49
0
 74
    0
 49
-0.9525
 74
    0
  0
LTYPE
  5
44
330
5
100
AcDbSymbolTableRecord
100
AcDbLinetypeTableRecord
  2
BORDER2
 70
    0
  3
Border (.5x) __.__.__.__.__.__.__.__.__.__.__.
 72
   65
 73
    6
 40
22.225
 49
6.35
 74
    0
 49
-3.175
 74
    0
 49
6.35
 74
    0
 49
-3.175
 74
    0
 49
0
 74
    0
 49
-3.175
 74
    0
  0
LTYPE
  5
45
330
5
100
AcDbSymbolTableRecord
100
AcDbLinetypeTableRecord
  2
BORDERX2
 70
    0
  3
Border (2x) ____  ____  .  ____  ____  .  ___
 72
   65
 73
    6
 40
88.89999999999999
 49
25.4
 74
    0
 49
-12.7
 74
    0
 49
25.4
 74
    0
 49
-12.7
 74
    0
 49
0
 74
    0
 49
-12.7
 74
    0
  0
LTYPE
  5
46
330
5
100
AcDbSymbolTableRecord
100
AcDbLinetypeTableRecord
  2
CENTER
 70
    0
  3
Center ____ _ ____ _ ____ _ ____ _ ____ _ ____
 72
   65
 73
    4
 40
50.8
 49
31.75
 74
    0
 49
-6.35
 74
    0
 49
6.35
 74
    0
 49
-6.35
 74
    0
  0
LTYPE
  5
47
330
5
100
AcDbSymbolTableRecord
100
AcDbLinetypeTableRecord
  2
CENTERTINY
 70
    0
  3
Center (.15x) ___ _ ___ _ ___ _ ___ _ ___ _ ___
 72
   65
 73
    4
 40
7.619999999999999
 49
4.7625
 74
    0
 49
-0.9525
 74
    0
 49
0.9525
 74
    0
 49
-0.9525
 74
    0
  0
LTYPE
  5
48
330
5
100
AcDbSymbolTableRecord
100
AcDbLinetypeTableRecord
  2
CENTER2
 70
    0
  3
Center (.5x) ___ _ ___ _ ___ _ ___ _ ___ _ ___
 72
   65
 73
    4
 40
28.575
 49
19.05
 74
    0
 49
-3.175
 74
    0
 49
3.175
 74
    0
 49
-3.175
 74
    0
  0
LTYPE
  5
49
330
5
100
AcDbSymbolTableRecord
100
AcDbLinetypeTableRecord
  2
CENTERX2
 70
    0
  3
Center (2x) ________  __  ________  __  _____
 72
   65
 73
    4
 40
101.6
 49
63.5
 74
    0
 49
-12.7
 74
    0
 49
12.7
 74
    0
 49
-12.7
 74
    0
  0
ENDTAB
  0
TABLE
  2
LAYER
  5
2
330
0
100
AcDbSymbolTable
 70
    1
  0
LAYER
  5
10
330
2
100
AcDbSymbolTableRecord
100
AcDbLayerTableRecord
  2
0
 70
    0
 62
    7
  6
CONTINUOUS
370
   -3
390
F
1001
LibreCad
1070
    1
  0
LAYER
  5
4A
330
2
100
AcDbSymbolTableRecord
100
AcDbLayerTableRecord
  2
dveri
 70
    0
 62
   96
420
32768
  6
CONTINUOUS
370
   50
390
F
  0
LAYER
  5
4B
330
2
100
AcDbSymbolTableRecord
100
AcDbLayerTableRecord
  2
face
 70
    0
 62
    3
  6
CONTINUOUS
370
   50
390
F
  0
LAYER
  5
4C
330
2
100
AcDbSymbolTableRecord
100
AcDbLayerTableRecord
  2
list
 70
    0
 62
    2
  6
CONTINUOUS
370
   50
390
F
  0
LAYER
  5
4D
330
2
100
AcDbSymbolTableRecord
100
AcDbLayerTableRecord
  2
ramka
 70
    0
 62
  136
420
32896
  6
CONTINUOUS
370
   50
390
F
  0
LAYER
  5
4E
330
2
100
AcDbSymbolTableRecord
100
AcDbLayerTableRecord
  2
rozmir
 70
    0
 62
    4
  6
CONTINUOUS
370
   13
390
F
  0
LAYER
  5
4F
330
2
100
AcDbSymbolTableRecord
100
AcDbLayerTableRecord
  2
text
 70
    0
 62
  136
420
32896
  6
CONTINUOUS
370
   13
390
F
  0
LAYER
  5
50
330
2
100
AcDbSymbolTableRecord
100
AcDbLayerTableRecord
  2
wall
 70
    0
 62
   56
420
8421376
  6
CONTINUOUS
370
   50
390
F
  0
ENDTAB
  0
TABLE
  2
STYLE
  5
3
330
0
100
AcDbSymbolTable
 70
    3
  0
STYLE
  5
51
330
2
100
AcDbSymbolTableRecord
100
AcDbTextStyleTableRecord
  2
cyrillic_ii
 70
    0
 40
0
 41
1
 50
0
 71
    0
 42
1
  3
cyrillic_ii
  4

  0
STYLE
  5
52
330
2
100
AcDbSymbolTableRecord
100
AcDbTextStyleTableRecord
  2
Standard
 70
    0
 40
0
 41
1
 50
0
 71
    0
 42
1
  3
txt
  4

  0
ENDTAB
  0
TABLE
  2
VIEW
  5
6
330
0
100
AcDbSymbolTable
 70
    0
  0
ENDTAB
  0
TABLE
  2
UCS
  5
7
330
0
100
AcDbSymbolTable
 70
    0
  0
ENDTAB
  0
TABLE
  2
APPID
  5
9
330
0
100
AcDbSymbolTable
 70
    1
  0
APPID
  5
12
330
9
100
AcDbSymbolTableRecord
100
AcDbRegAppTableRecord
  2
ACAD
 70
    0
  0
APPID
  5
53
330
9
100
AcDbSymbolTableRecord
100
AcDbRegAppTableRecord
  2
LibreCad
 70
    0
  0
ENDTAB
  0
TABLE
  2
DIMSTYLE
  5
A
330
0
100
AcDbSymbolTable
 70
    1
100
AcDbDimStyleTable
 71
    1
  0
DIMSTYLE
105
54
330
A
100
AcDbSymbolTableRecord
100
AcDbDimStyleTableRecord
  2
Standard
 70
    0
 40
1
 41
5
 42
1
 43
0.38
 44
2
 45
0
 46
0
 47
0
 48
0
 49
1
140
4
141
0.09
142
0
143
25.4
144
1
145
0
146
1
147
1
148
0
 71
    0
 72
    0
 73
    0
 74
    1
 75
    0
 76
    0
 77
    0
 78
    8
 79
    0
170
    0
171
    2
172
    0
173
    0
174
    0
175
    0
176
    0
177
    0
178
    0
179
    0
271
    1
272
    4
273
    2
274
    2
275
    0
276
    0
277
    2
278
   44
279
    0
280
    0
281
    0
282
    0
283
    1
284
    0
285
    0
286
    0
288
    0
289
    3
340
standard
341

371
   -2
372
   -2
  0
ENDTAB
  0
TABLE
  2
BLOCK_RECORD
  5
1
330
0
100
AcDbSymbolTable
 70
    2
  0
BLOCK_RECORD
  5
1F
330
1
100
AcDbSymbolTableRecord
100
AcDbBlockTableRecord
  2
*Model_Space
 70
    0
280
    1
281
    0
  0
BLOCK_RECORD
  5
1E
330
1
100
AcDbSymbolTableRecord
100
AcDbBlockTableRecord
  2
*Paper_Space
 70
    0
280
    1
281
    0
  0
BLOCK_RECORD
  5
55
330
1
100
AcDbSymbolTableRecord
100
AcDbBlockTableRecord
  2
*D18
 70
    0
280
    1
281
    0
  0
BLOCK_RECORD
  5
58
330
1
100
AcDbSymbolTableRecord
100
AcDbBlockTableRecord
  2
*D20
 70
    0
280
    1
281
    0
  0
BLOCK_RECORD
  5
5B
330
1
100
AcDbSymbolTableRecord
100
AcDbBlockTableRecord
  2
*D17
 70
    0
280
    1
281
    0
  0
BLOCK_RECORD
  5
5E
330
1
100
AcDbSymbolTableRecord
100
AcDbBlockTableRecord
  2
*D8
 70
    0
280
    1
281
    0
  0
BLOCK_RECORD
  5
61
330
1
100
AcDbSymbolTableRecord
100
AcDbBlockTableRecord
  2
*D5
 70
    0
280
    1
281
    0
  0
BLOCK_RECORD
  5
64
330
1
100
AcDbSymbolTableRecord
100
AcDbBlockTableRecord
  2
*D2
 70
    0
280
    1
281
    0
  0
BLOCK_RECORD
  5
67
330
1
100
AcDbSymbolTableRecord
100
AcDbBlockTableRecord
  2
*D12
 70
    0
280
    1
281
    0
  0
BLOCK_RECORD
  5
6A
330
1
100
AcDbSymbolTableRecord
100
AcDbBlockTableRecord
  2
*D14
 70
    0
280
    1
281
    0
  0
BLOCK_RECORD
  5
6D
330
1
100
AcDbSymbolTableRecord
100
AcDbBlockTableRecord
  2
*D10
 70
    0
280
    1
281
    0
  0
BLOCK_RECORD
  5
70
330
1
100
AcDbSymbolTableRecord
100
AcDbBlockTableRecord
  2
*D13
 70
    0
280
    1
281
    0
  0
BLOCK_RECORD
  5
73
330
1
100
AcDbSymbolTableRecord
100
AcDbBlockTableRecord
  2
*D3
 70
    0
280
    1
281
    0
  0
BLOCK_RECORD
  5
76
330
1
100
AcDbSymbolTableRecord
100
AcDbBlockTableRecord
  2
*D9
 70
    0
280
    1
281
    0
  0
BLOCK_RECORD
  5
79
330
1
100
AcDbSymbolTableRecord
100
AcDbBlockTableRecord
  2
*D6
 70
    0
280
    1
281
    0
  0
BLOCK_RECORD
  5
7C
330
1
100
AcDbSymbolTableRecord
100
AcDbBlockTableRecord
  2
*D16
 70
    0
280
    1
281
    0
  0
BLOCK_RECORD
  5
7F
330
1
100
AcDbSymbolTableRecord
100
AcDbBlockTableRecord
  2
*D19
 70
    0
280
    1
281
    0
  0
BLOCK_RECORD
  5
82
330
1
100
AcDbSymbolTableRecord
100
AcDbBlockTableRecord
  2
*D4
 70
    0
280
    1
281
    0
  0
BLOCK_RECORD
  5
85
330
1
100
AcDbSymbolTableRecord
100
AcDbBlockTableRecord
  2
*D1
 70
    0
280
    1
281
    0
  0
BLOCK_RECORD
  5
88
330
1
100
AcDbSymbolTableRecord
100
AcDbBlockTableRecord
  2
*D7
 70
    0
280
    1
281
    0
  0
BLOCK_RECORD
  5
8B
330
1
100
AcDbSymbolTableRecord
100
AcDbBlockTableRecord
  2
*D15
 70
    0
280
    1
281
    0
  0
BLOCK_RECORD
  5
8E
330
1
100
AcDbSymbolTableRecord
100
AcDbBlockTableRecord
  2
*D11
 70
    0
280
    1
281
    0
  0
ENDTAB
  0
ENDSEC
  0
SECTION
  2
BLOCKS
  0
BLOCK
  5
20
330
1F
100
AcDbEntity
  8
0
100
AcDbBlockBegin
  2
*Model_Space
 70
    0
 10
0
 20
0
 30
0
  3
*Model_Space
  1

  0
ENDBLK
  5
21
330
1F
100
AcDbEntity
  8
0
100
AcDbBlockEnd
  0
BLOCK
  5
1C
330
1B
100
AcDbEntity
  8
0
100
AcDbBlockBegin
  2
*Paper_Space
 70
    0
 10
0
 20
0
 30
0
  3
*Paper_Space
  1

  0
ENDBLK
  5
1D
330
1F
100
AcDbEntity
  8
0
100
AcDbBlockEnd
  0
BLOCK
  5
56
330
55
100
AcDbEntity
  8
0
100
AcDbBlockBegin
  2
*D18
 70
    1
 10
0
 20
0
  3
*D18
  1

  0
LINE
  5
91
100
AcDbEntity
  8
text
  6
CONTINUOUS
 62
    7
370
    0
100
AcDbLine
 10
262
 20
147
 11
243
 21
159
  0
SOLID
  5
92
100
AcDbEntity
  8
text
  6
CONTINUOUS
 62
    7
370
    0
100
AcDbTrace
 10
262
 20
147
 30
0
 11
257.327969305499
 21
148.966036839642
 31
0
 12
258.2171416641912
 22
150.3738930742379
 32
0
 13
258.2171416641912
 23
150.3738930742379
 33
0
  0
ENDBLK
  5
57
330
55
100
AcDbEntity
  8
0
100
AcDbBlockEnd
  0
BLOCK
  5
59
330
58
100
AcDbEntity
  8
0
100
AcDbBlockBegin
  2
*D20
 70
    1
 10
0
 20
0
  3
*D20
  1

  0
LINE
  5
93
100
AcDbEntity
  8
rozmir
  6
ByBlock
 62
    0
370
   -2
100
AcDbLine
 10
-2.842170943040401e-14
 20
225
 11
107
 21
225
  0
SOLID
  5
94
100
AcDbEntity
  8
rozmir
  6
ByBlock
 62
    0
370
   -2
100
AcDbTrace
 10
-2.842170943040401e-14
 20
225
 30
0
 11
4.999999999999972
 21
225.8325693155457
 31
0
 12
4.999999999999972
 22
224.1674306844543
 32
0
 13
4.999999999999972
 23
224.1674306844543
 33
0
  0
SOLID
  5
95
100
AcDbEntity
  8
rozmir
  6
ByBlock
 62
    0
370
   -2
100
AcDbTrace
 10
107
 20
225
 30
0
 11
102
 21
224.1674306844543
 31
0
 12
102
 22
225.8325693155457
 32
0
 13
102
 23
225.8325693155457
 33
0
  0
MTEXT
  5
96
100
AcDbEntity
  8
rozmir
  6
CONTINUOUS
 62
    0
370
   -2
100
AcDbMText
 10
53.49999999999999
 20
228
 30
0
 40
4
 41
7.111111111111111
 71
    5
 72
    1
  1
107
  7
standard
210
0
220
0
230
1
 50
0
 73
    2
 44
1
  0
LINE
  5
97
100
AcDbEntity
  8
rozmir
  6
ByBlock
 62
    0
370
   -2
100
AcDbLine
 10
-1.548189000479483e-14
 20
211
 11
-3.007560158988952e-14
 21
227
  0
LINE
  5
98
100
AcDbEntity
  8
rozmir
  6
ByBlock
 62
    0
370
   -2
100
AcDbLine
 10
107
 20
211
 11
107
 21
227
  0
ENDBLK
  5
5A
330
58
100
AcDbEntity
  8
0
100
AcDbBlockEnd
  0
BLOCK
  5
5C
330
5B
100
AcDbEntity
  8
0
100
AcDbBlockBegin
  2
*D17
 70
    1
 10
0
 20
0
  3
*D17
  1

  0
LINE
  5
99
100
AcDbEntity
  8
rozmir
  6
ByBlock
 62
    0
370
   -2
100
AcDbLine
 10
287
 20
193.4
 11
287
 21
0
  0
SOLID
  5
9A
100
AcDbEntity
  8
rozmir
  6
ByBlock
 62
    0
370
   -2
100
AcDbTrace
 10
287
 20
193.4
 30
0
 11
287.8325693155457
 21
188.4
 31
0
 12
286.1674306844543
 22
188.4
 32
0
 13
286.1674306844543
 23
188.4
 33
0
  0
SOLID
  5
9B
100
AcDbEntity
  8
rozmir
  6
ByBlock
 62
    0
370
   -2
100
AcDbTrace
 10
287
 20
0
 30
0
 11
286.1674306844543
 21
5
 31
0
 12
287.8325693155457
 22
5
 32
0
 13
287.8325693155457
 23
5
 33
0
  0
MTEXT
  5
9C
100
AcDbEntity
  8
rozmir
  6
CONTINUOUS
 62
    0
370
   -2
100
AcDbMText
 10
284
 20
96.7
 30
0
 40
4
 41
12.22222222222247
 71
    5
 72
    1
  1
193,4
  7
standard
210
0
220
0
230
1
 50
90
 73
    2
 44
1
  0
LINE
  5
9D
100
AcDbEntity
  8
rozmir
  6
ByBlock
 62
    0
370
   -2
100
AcDbLine
 10
265.4
 20
193.4
 11
289
 21
193.4
  0
LINE
  5
9E
100
AcDbEntity
  8
rozmir
  6
ByBlock
 62
    0
370
   -2
100
AcDbLine
 10
265.4
 20
0
 11
289
 21
0
  0
ENDBLK
  5
5D
330
5B
100
AcDbEntity
  8
0
100
AcDbBlockEnd
  0
BLOCK
  5
5F
330
5E
100
AcDbEntity
  8
0
100
AcDbBlockBegin
  2
*D8
 70
    1
 10
0
 20
0
  3
*D8
  1

  0
LINE
  5
9F
100
AcDbEntity
  8
rozmir
  6
ByBlock
 62
    0
370
   -2
100
AcDbLine
 10
-16.5
 20
210
 11
-16.50000000000001
 21
1.172395514004166e-15
  0
SOLID
  5
A0
100
AcDbEntity
  8
rozmir
  6
ByBlock
 62
    0
370
   -2
100
AcDbTrace
 10
-16.5
 20
210
 30
0
 11
-15.66743068445431
 21
205
 31
0
 12
-17.33256931554568
 22
205
 32
0
 13
-17.33256931554568
 23
205
 33
0
  0
SOLID
  5
A1
100
AcDbEntity
  8
rozmir
  6
ByBlock
 62
    0
370
   -2
100
AcDbTrace
 10
-16.50000000000001
 20
1.172395514004166e-15
 30
0
 11
-17.33256931554569
 21
5.000000000000001
 31
0
 12
-15.66743068445433
 22
5.000000000000001
 32
0
 13
-15.66743068445433
 23
5.000000000000001
 33
0
  0
MTEXT
  5
A2
100
AcDbEntity
  8
rozmir
  6
CONTINUOUS
 62
    0
370
   -2
100
AcDbMText
 10
-19.50000000000001
 20
105
 30
0
 40
4
 41
7.111111111111111
 71
    5
 72
    1
  1
210
  7
standard
210
0
220
0
230
1
 50
90
 73
    2
 44
1
  0
LINE
  5
A3
100
AcDbEntity
  8
rozmir
  6
ByBlock
 62
    0
370
   -2
100
AcDbLine
 10
-1.000000000000014
 20
210
 11
-18.5
 21
210
  0
LINE
  5
A4
100
AcDbEntity
  8
rozmir
  6
ByBlock
 62
    0
370
   -2
100
AcDbLine
 10
-1
 20
1.224646799147353e-16
 11
-18.50000000000001
 21
1.417324873833637e-15
  0
ENDBLK
  5
60
330
5E
100
AcDbEntity
  8
0
100
AcDbBlockEnd
  0
BLOCK
  5
62
330
61
100
AcDbEntity
  8
0
100
AcDbBlockBegin
  2
*D5
 70
    1
 10
0
 20
0
  3
*D5
  1

  0
LINE
  5
A5
100
AcDbEntity
  8
text
  6
CONTINUOUS
 62
    7
370
    0
100
AcDbLine
 10
231
 20
192
 11
243
 21
159
  0
LINE
  5
A6
100
AcDbEntity
  8
text
  6
CONTINUOUS
 62
    7
370
    0
100
AcDbLine
 10
243
 20
159
 11
180
 21
159
  0
SOLID
  5
A7
100
AcDbEntity
  8
text
  6
CONTINUOUS
 62
    7
370
    0
100
AcDbTrace
 10
231
 20
192
 30
0
 11
233.4911584827816
 21
187.5855576706844
 31
0
 12
231.9262721480854
 22
187.0165080944312
 32
0
 13
231.9262721480854
 23
187.0165080944312
 33
0
  0
ENDBLK
  5
63
330
61
100
AcDbEntity
  8
0
100
AcDbBlockEnd
  0
BLOCK
  5
65
330
64
100
AcDbEntity
  8
0
100
AcDbBlockBegin
  2
*D2
 70
    1
 10
0
 20
0
  3
*D2
  1

  0
LINE
  5
A8
100
AcDbEntity
  8
text
  6
CONTINUOUS
 62
    7
370
    0
100
AcDbLine
 10
172
 20
30
 11
190
 21
39
  0
SOLID
  5
A9
100
AcDbEntity
  8
text
  6
CONTINUOUS
 62
    7
370
    0
100
AcDbTrace
 10
172
 20
30
 30
0
 11
176.0997996378915
 21
32.98074061171604
 31
0
 12
176.8444722721077
 22
31.49139534328354
 32
0
 13
176.8444722721077
 23
31.49139534328354
 33
0
  0
ENDBLK
  5
66
330
64
100
AcDbEntity
  8
0
100
AcDbBlockEnd
  0
BLOCK
  5
68
330
67
100
AcDbEntity
  8
0
100
AcDbBlockBegin
  2
*D12
 70
    1
 10
0
 20
0
  3
*D12
  1

  0
LINE
  5
AA
100
AcDbEntity
  8
text
  6
CONTINUOUS
 62
    7
370
    0
100
AcDbLine
 10
15.49999999999999
 20
201
 11
23.49999999999999
 21
173
  0
SOLID
  5
AB
100
AcDbEntity
  8
text
  6
CONTINUOUS
 62
    7
370
    0
100
AcDbTrace
 10
15.49999999999999
 20
201
 30
0
 11
17.67414097445498
 21
196.4211046432153
 31
0
 12
16.07307030451878
 22
195.9636558803764
 32
0
 13
16.07307030451878
 23
195.9636558803764
 33
0
  0
ENDBLK
  5
69
330
67
100
AcDbEntity
  8
0
100
AcDbBlockEnd
  0
BLOCK
  5
6B
330
6A
100
AcDbEntity
  8
0
100
AcDbBlockBegin
  2
*D14
 70
    1
 10
0
 20
0
  3
*D14
  1

  0
LINE
  5
AC
100
AcDbEntity
  8
rozmir
  6
ByBlock
 62
    0
370
   -2
100
AcDbLine
 10
170
 20
206
 11
264.4
 21
206
  0
SOLID
  5
AD
100
AcDbEntity
  8
rozmir
  6
ByBlock
 62
    0
370
   -2
100
AcDbTrace
 10
170
 20
206
 30
0
 11
175
 21
206.8325693155457
 31
0
 12
175
 22
205.1674306844543
 32
0
 13
175
 23
205.1674306844543
 33
0
  0
SOLID
  5
AE
100
AcDbEntity
  8
rozmir
  6
ByBlock
 62
    0
370
   -2
100
AcDbTrace
 10
264.4
 20
206
 30
0
 11
259.4
 21
205.1674306844543
 31
0
 12
259.4
 22
206.8325693155457
 32
0
 13
259.4
 23
206.8325693155457
 33
0
  0
MTEXT
  5
AF
100
AcDbEntity
  8
rozmir
  6
CONTINUOUS
 62
    0
370
   -2
100
AcDbMText
 10
217.2
 20
209
 30
0
 40
4
 41
10.44444444444469
 71
    5
 72
    1
  1
94,4
  7
standard
210
0
220
0
230
1
 50
0
 73
    2
 44
1
  0
LINE
  5
B0
100
AcDbEntity
  8
rozmir
  6
ByBlock
 62
    0
370
   -2
100
AcDbLine
 10
170
 20
194.4
 11
170
 21
208
  0
LINE
  5
B1
100
AcDbEntity
  8
rozmir
  6
ByBlock
 62
    0
370
   -2
100
AcDbLine
 10
264.4
 20
194.4
 11
264.4
 21
208
  0
ENDBLK
  5
6C
330
6A
100
AcDbEntity
  8
0
100
AcDbBlockEnd
  0
BLOCK
  5
6E
330
6D
100
AcDbEntity
  8
0
100
AcDbBlockBegin
  2
*D10
 70
    1
 10
0
 20
0
  3
*D10
  1

  0
LINE
  5
B2
100
AcDbEntity
  8
text
  6
CONTINUOUS
 62
    7
370
    0
100
AcDbLine
 10
17.49999999999999
 20
2
 11
29.49999999999999
 21
33
  0
LINE
  5
B3
100
AcDbEntity
  8
text
  6
CONTINUOUS
 62
    7
370
    0
100
AcDbLine
 10
29.49999999999999
 20
33
 11
83.49999999999999
 21
33
  0
SOLID
  5
B4
100
AcDbEntity
  8
text
  6
CONTINUOUS
 62
    7
370
    0
100
AcDbTrace
 10
17.49999999999999
 20
2
 30
0
 11
18.52854292950876
 21
6.963393104252949
 31
0
 12
20.08139809606835
 22
6.362287878487945
 32
0
 13
20.08139809606835
 23
6.362287878487945
 33
0
  0
ENDBLK
  5
6F
330
6D
100
AcDbEntity
  8
0
100
AcDbBlockEnd
  0
BLOCK
  5
71
330
70
100
AcDbEntity
  8
0
100
AcDbBlockBegin
  2
*D13
 70
    1
 10
0
 20
0
  3
*D13
  1

  0
LINE
  5
B5
100
AcDbEntity
  8
text
  6
CONTINUOUS
 62
    7
370
    0
100
AcDbLine
 10
103.5
 20
163
 11
81.49999999999999
 21
173
  0
SOLID
  5
B6
100
AcDbEntity
  8
text
  6
CONTINUOUS
 62
    7
370
    0
100
AcDbTrace
 10
103.5
 20
163
 30
0
 11
98.60364797857935
 21
164.3110715264691
 31
0
 12
99.2926872467946
 22
165.8269579165427
 32
0
 13
99.2926872467946
 23
165.8269579165427
 33
0
  0
ENDBLK
  5
72
330
70
100
AcDbEntity
  8
0
100
AcDbBlockEnd
  0
BLOCK
  5
74
330
73
100
AcDbEntity
  8
0
100
AcDbBlockBegin
  2
*D3
 70
    1
 10
0
 20
0
  3
*D3
  1

  0
LINE
  5
B7
100
AcDbEntity
  8
text
  6
CONTINUOUS
 62
    7
370
    0
100
AcDbLine
 10
180
 20
64
 11
193
 21
89
  0
LINE
  5
B8
100
AcDbEntity
  8
text
  6
CONTINUOUS
 62
    7
370
    0
100
AcDbLine
 10
193
 20
89
 11
247
 21
89
  0
SOLID
  5
B9
100
AcDbEntity
  8
text
  6
CONTINUOUS
 62
    7
370
    0
100
AcDbTrace
 10
180
 20
64
 30
0
 11
181.5680941982654
 21
68.82019213834413
 31
0
 12
183.0454331681545
 22
68.05197587400183
 32
0
 13
183.0454331681545
 23
68.05197587400183
 33
0
  0
ENDBLK
  5
75
330
73
100
AcDbEntity
  8
0
100
AcDbBlockEnd
  0
BLOCK
  5
77
330
76
100
AcDbEntity
  8
0
100
AcDbBlockBegin
  2
*D9
 70
    1
 10
0
 20
0
  3
*D9
  1

  0
LINE
  5
BA
100
AcDbEntity
  8
rozmir
  6
ByBlock
 62
    0
370
   -2
100
AcDbLine
 10
5.999999999999972
 20
-19
 11
101
 21
-19
  0
SOLID
  5
BB
100
AcDbEntity
  8
rozmir
  6
ByBlock
 62
    0
370
   -2
100
AcDbTrace
 10
5.999999999999972
 20
-19
 30
0
 11
10.99999999999997
 21
-18.16743068445432
 31
0
 12
10.99999999999997
 22
-19.83256931554568
 32
0
 13
10.99999999999997
 23
-19.83256931554568
 33
0
  0
SOLID
  5
BC
100
AcDbEntity
  8
rozmir
  6
ByBlock
 62
    0
370
   -2
100
AcDbTrace
 10
101
 20
-19
 30
0
 11
96
 21
-19.83256931554568
 31
0
 12
96
 22
-18.16743068445432
 32
0
 13
96
 23
-18.16743068445432
 33
0
  0
MTEXT
  5
BD
100
AcDbEntity
  8
rozmir
  6
CONTINUOUS
 62
    0
370
   -2
100
AcDbMText
 10
53.49999999999999
 20
-16
 30
0
 40
4
 41
4.888888888889385
 71
    5
 72
    1
  1
95
  7
standard
210
0
220
0
230
1
 50
0
 73
    2
 44
1
  0
LINE
  5
BE
100
AcDbEntity
  8
rozmir
  6
ByBlock
 62
    0
370
   -2
100
AcDbLine
 10
5.999999999999982
 20
-22.30000000000001
 11
5.999999999999965
 21
-17
  0
LINE
  5
BF
100
AcDbEntity
  8
rozmir
  6
ByBlock
 62
    0
370
   -2
100
AcDbLine
 10
101
 20
-22.30000000000001
 11
101
 21
-17
  0
ENDBLK
  5
78
330
76
100
AcDbEntity
  8
0
100
AcDbBlockEnd
  0
BLOCK
  5
7A
330
79
100
AcDbEntity
  8
0
100
AcDbBlockBegin
  2
*D6
 70
    1
 10
0
 20
0
  3
*D6
  1

  0
LINE
  5
C0
100
AcDbEntity
  8
rozmir
  6
ByBlock
 62
    0
370
   -2
100
AcDbLine
 10
-6.500000000000012
 20
210
 11
-6.500000000000014
 21
173.0000000000001
  0
SOLID
  5
C1
100
AcDbEntity
  8
rozmir
  6
ByBlock
 62
    0
370
   -2
100
AcDbTrace
 10
-6.500000000000012
 20
210
 30
0
 11
-5.667430684454331
 21
205
 31
0
 12
-7.332569315545693
 22
205
 32
0
 13
-7.332569315545693
 23
205
 33
0
  0
SOLID
  5
C2
100
AcDbEntity
  8
rozmir
  6
ByBlock
 62
    0
370
   -2
100
AcDbTrace
 10
-6.500000000000014
 20
173.0000000000001
 30
0
 11
-7.332569315545694
 21
178.0000000000001
 31
0
 12
-5.667430684454333
 22
178.0000000000001
 32
0
 13
-5.667430684454333
 23
178.0000000000001
 33
0
  0
MTEXT
  5
C3
100
AcDbEntity
  8
rozmir
  6
CONTINUOUS
 62
    0
370
   -2
100
AcDbMText
 10
-9.500000000000014
 20
191.5000000000001
 30
0
 40
4
 41
4.888888888889136
 71
    5
 72
    1
  1
37
  7
standard
210
0
220
0
230
1
 50
90
 73
    2
 44
1
  0
LINE
  5
C4
100
AcDbEntity
  8
rozmir
  6
ByBlock
 62
    0
370
   -2
100
AcDbLine
 10
-1.000000000000014
 20
210
 11
-8.500000000000011
 21
210
  0
LINE
  5
C5
100
AcDbEntity
  8
rozmir
  6
ByBlock
 62
    0
370
   -2
100
AcDbLine
 10
0.9999999999999349
 20
173.0000000000001
 11
-8.500000000000014
 21
173.0000000000001
  0
ENDBLK
  5
7B
330
79
100
AcDbEntity
  8
0
100
AcDbBlockEnd
  0
BLOCK
  5
7D
330
7C
100
AcDbEntity
  8
0
100
AcDbBlockBegin
  2
*D16
 70
    1
 10
0
 20
0
  3
*D16
  1

  0
LINE
  5
C6
100
AcDbEntity
  8
rozmir
  6
ByBlock
 62
    0
370
   -2
100
AcDbLine
 10
277
 20
193.4
 11
277
 21
131.4
  0
SOLID
  5
C7
100
AcDbEntity
  8
rozmir
  6
ByBlock
 62
    0
370
   -2
100
AcDbTrace
 10
277
 20
193.4
 30
0
 11
277.8325693155457
 21
188.4
 31
0
 12
276.1674306844543
 22
188.4
 32
0
 13
276.1674306844543
 23
188.4
 33
0
  0
SOLID
  5
C8
100
AcDbEntity
  8
rozmir
  6
ByBlock
 62
    0
370
   -2
100
AcDbTrace
 10
277
 20
131.4
 30
0
 11
276.1674306844543
 21
136.4
 31
0
 12
277.8325693155457
 22
136.4
 32
0
 13
277.8325693155457
 23
136.4
 33
0
  0
MTEXT
  5
C9
100
AcDbEntity
  8
rozmir
  6
CONTINUOUS
 62
    0
370
   -2
100
AcDbMText
 10
274
 20
162.4
 30
0
 40
4
 41
4.888888888889136
 71
    5
 72
    1
  1
62
  7
standard
210
0
220
0
230
1
 50
90
 73
    2
 44
1
  0
LINE
  5
CA
100
AcDbEntity
  8
rozmir
  6
ByBlock
 62
    0
370
   -2
100
AcDbLine
 10
265.4
 20
193.4
 11
279
 21
193.4
  0
LINE
  5
CB
100
AcDbEntity
  8
rozmir
  6
ByBlock
 62
    0
370
   -2
100
AcDbLine
 10
261.4
 20
131.4
 11
279
 21
131.4
  0
ENDBLK
  5
7E
330
7C
100
AcDbEntity
  8
0
100
AcDbBlockEnd
  0
BLOCK
  5
80
330
7F
100
AcDbEntity
  8
0
100
AcDbBlockBegin
  2
*D19
 70
    1
 10
0
 20
0
  3
*D19
  1

  0
LINE
  5
CC
100
AcDbEntity
  8
rozmir
  6
ByBlock
 62
    0
370
   -2
100
AcDbLine
 10
101
 20
216
 11
6
 21
216
  0
SOLID
  5
CD
100
AcDbEntity
  8
rozmir
  6
ByBlock
 62
    0
370
   -2
100
AcDbTrace
 10
101
 20
216
 30
0
 11
96
 21
215.1674306844543
 31
0
 12
96
 22
216.8325693155457
 32
0
 13
96
 23
216.8325693155457
 33
0
  0
SOLID
  5
CE
100
AcDbEntity
  8
rozmir
  6
ByBlock
 62
    0
370
   -2
100
AcDbTrace
 10
6
 20
216
 30
0
 11
11
 21
216.8325693155457
 31
0
 12
11
 22
215.1674306844543
 32
0
 13
11
 23
215.1674306844543
 33
0
  0
MTEXT
  5
CF
100
AcDbEntity
  8
rozmir
  6
CONTINUOUS
 62
    0
370
   -2
100
AcDbMText
 10
53.5
 20
219
 30
0
 40
4
 41
4.888888888889385
 71
    5
 72
    1
  1
95
  7
standard
210
0
220
0
230
1
 50
360
 73
    2
 44
1
  0
LINE
  5
D0
100
AcDbEntity
  8
rozmir
  6
ByBlock
 62
    0
370
   -2
100
AcDbLine
 10
101
 20
211
 11
101
 21
218
  0
LINE
  5
D1
100
AcDbEntity
  8
rozmir
  6
ByBlock
 62
    0
370
   -2
100
AcDbLine
 10
6
 20
210.9999999999999
 11
6
 21
218
  0
ENDBLK
  5
81
330
7F
100
AcDbEntity
  8
0
100
AcDbBlockEnd
  0
BLOCK
  5
83
330
82
100
AcDbEntity
  8
0
100
AcDbBlockBegin
  2
*D4
 70
    1
 10
0
 20
0
  3
*D4
  1

  0
LINE
  5
D2
100
AcDbEntity
  8
text
  6
CONTINUOUS
 62
    7
370
    0
100
AcDbLine
 10
183
 20
129
 11
193
 21
89
  0
SOLID
  5
D3
100
AcDbEntity
  8
text
  6
CONTINUOUS
 62
    7
370
    0
100
AcDbTrace
 10
183
 20
129
 30
0
 11
185.0203890025094
 21
124.3512152186053
 31
0
 12
183.4049672478539
 22
123.9473597799414
 32
0
 13
183.4049672478539
 23
123.9473597799414
 33
0
  0
ENDBLK
  5
84
330
82
100
AcDbEntity
  8
0
100
AcDbBlockEnd
  0
BLOCK
  5
86
330
85
100
AcDbEntity
  8
0
100
AcDbBlockBegin
  2
*D1
 70
    1
 10
0
 20
0
  3
*D1
  1

  0
LINE
  5
D4
100
AcDbEntity
  8
text
  6
CONTINUOUS
 62
    7
370
    0
100
AcDbLine
 10
180
 20
2
 11
190
 21
39
  0
LINE
  5
D5
100
AcDbEntity
  8
text
  6
CONTINUOUS
 62
    7
370
    0
100
AcDbLine
 10
190
 20
39
 11
250
 21
39
  0
SOLID
  5
D6
100
AcDbEntity
  8
text
  6
CONTINUOUS
 62
    7
370
    0
100
AcDbTrace
 10
180
 20
2
 30
0
 11
180.5008131863275
 21
7.044041813624142
 31
0
 12
182.1082770651003
 22
6.60959211665852
 32
0
 13
182.1082770651003
 23
6.60959211665852
 33
0
  0
ENDBLK
  5
87
330
85
100
AcDbEntity
  8
0
100
AcDbBlockEnd
  0
BLOCK
  5
89
330
88
100
AcDbEntity
  8
0
100
AcDbBlockBegin
  2
*D7
 70
    1
 10
0
 20
0
  3
*D7
  1

  0
LINE
  5
D7
100
AcDbEntity
  8
rozmir
  6
ByBlock
 62
    0
370
   -2
100
AcDbLine
 10
-6.500000000000016
 20
0
 11
-6.500000000000014
 21
29
  0
SOLID
  5
D8
100
AcDbEntity
  8
rozmir
  6
ByBlock
 62
    0
370
   -2
100
AcDbTrace
 10
-6.500000000000016
 20
0
 30
0
 11
-7.332569315545696
 21
5
 31
0
 12
-5.667430684454335
 22
5
 32
0
 13
-5.667430684454335
 23
5
 33
0
  0
SOLID
  5
D9
100
AcDbEntity
  8
rozmir
  6
ByBlock
 62
    0
370
   -2
100
AcDbTrace
 10
-6.500000000000014
 20
29
 30
0
 11
-5.667430684454334
 21
24
 31
0
 12
-7.332569315545696
 22
24
 32
0
 13
-7.332569315545696
 23
24
 33
0
  0
MTEXT
  5
DA
100
AcDbEntity
  8
rozmir
  6
CONTINUOUS
 62
    0
370
   -2
100
AcDbMText
 10
-9.500000000000014
 20
14.5
 30
0
 40
4
 41
4.888888888888888
 71
    5
 72
    1
  1
29
  7
standard
210
0
220
0
230
1
 50
90
 73
    2
 44
1
  0
LINE
  5
DB
100
AcDbEntity
  8
rozmir
  6
ByBlock
 62
    0
370
   -2
100
AcDbLine
 10
-1
 20
1.224646799147353e-16
 11
-8.500000000000016
 21
2.449293598294706e-16
  0
LINE
  5
DC
100
AcDbEntity
  8
rozmir
  6
ByBlock
 62
    0
370
   -2
100
AcDbLine
 10
0.999999999999986
 20
29
 11
-8.500000000000014
 21
29
  0
ENDBLK
  5
8A
330
88
100
AcDbEntity
  8
0
100
AcDbBlockEnd
  0
BLOCK
  5
8C
330
8B
100
AcDbEntity
  8
0
100
AcDbBlockBegin
  2
*D15
 70
    1
 10
0
 20
0
  3
*D15
  1

  0
LINE
  5
DD
100
AcDbEntity
  8
rozmir
  6
ByBlock
 62
    0
370
   -2
100
AcDbLine
 10
277
 20
0
 11
277
 21
62
  0
SOLID
  5
DE
100
AcDbEntity
  8
rozmir
  6
ByBlock
 62
    0
370
   -2
100
AcDbTrace
 10
277
 20
0
 30
0
 11
276.1674306844543
 21
5
 31
0
 12
277.8325693155457
 22
5
 32
0
 13
277.8325693155457
 23
5
 33
0
  0
SOLID
  5
DF
100
AcDbEntity
  8
rozmir
  6
ByBlock
 62
    0
370
   -2
100
AcDbTrace
 10
277
 20
62
 30
0
 11
277.8325693155457
 21
57
 31
0
 12
276.1674306844543
 22
57
 32
0
 13
276.1674306844543
 23
57
 33
0
  0
MTEXT
  5
E0
100
AcDbEntity
  8
rozmir
  6
CONTINUOUS
 62
    0
370
   -2
100
AcDbMText
 10
274
 20
31
 30
0
 40
4
 41
4.888888888889136
 71
    5
 72
    1
  1
62
  7
standard
210
0
220
0
230
1
 50
90
 73
    2
 44
1
  0
LINE
  5
E1
100
AcDbEntity
  8
rozmir
  6
ByBlock
 62
    0
370
   -2
100
AcDbLine
 10
265.4
 20
0
 11
279
 21
0
  0
LINE
  5
E2
100
AcDbEntity
  8
rozmir
  6
ByBlock
 62
    0
370
   -2
100
AcDbLine
 10
261.4
 20
62
 11
279
 21
62
  0
ENDBLK
  5
8D
330
8B
100
AcDbEntity
  8
0
100
AcDbBlockEnd
  0
BLOCK
  5
8F
330
8E
100
AcDbEntity
  8
0
100
AcDbBlockBegin
  2
*D11
 70
    1
 10
0
 20
0
  3
*D11
  1

  0
LINE
  5
E3
100
AcDbEntity
  8
text
  6
CONTINUOUS
 62
    7
370
    0
100
AcDbLine
 10
3.499999999999986
 20
161
 11
23.49999999999999
 21
173
  0
LINE
  5
E4
100
AcDbEntity
  8
text
  6
CONTINUOUS
 62
    7
370
    0
100
AcDbLine
 10
23.49999999999999
 20
173
 11
81.49999999999999
 21
173
  0
LINE
  5
E5
100
AcDbEntity
  8
text
  6
CONTINUOUS
 62
    7
370
    0
100
AcDbLine
 10
81.49999999999999
 20
173
 11
81.49999999999999
 21
173
  0
SOLID
  5
E6
100
AcDbEntity
  8
text
  6
CONTINUOUS
 62
    7
370
    0
100
AcDbTrace
 10
3.499999999999986
 20
161
 30
0
 11
7.359111249615253
 21
164.2864010753834
 31
0
 12
8.215818007510162
 22
162.8585564788919
 32
0
 13
8.215818007510162
 23
162.8585564788919
 33
0
  0
ENDBLK
  5
90
330
8E
100
AcDbEntity
  8
0
100
AcDbBlockEnd
  0
ENDSEC
  0
SECTION
  2
ENTITIES
  0
HATCH
  5
E7
100
AcDbEntity
  8
ramka
  6
ByLayer
 62
  256
370
   -1
100
AcDbHatch
 10
0
 20
0
 30
0
210
0
220
0
230
1
  2
gost_metal
 70
    0
 71
    0
 91
    1
 92
    0
 93
   20
 72
    1
 10
0.2999999999999856
 20
-23
 11
5.699999999999986
 21
-23
 72
    1
 10
5.699999999999986
 20
-23
 11
5.999999999999986
 21
-23.30000000000001
 72
    1
 10
5.999999999999986
 20
-23.30000000000001
 11
5.999999999999986
 21
-24
 72
    1
 10
5.999999999999986
 20
-24
 11
5.799999999999986
 21
-24
 72
    1
 10
5.799999999999986
 20
-24
 11
5.799999999999986
 21
-23.39999999999998
 72
    1
 10
5.799999999999986
 20
-23.39999999999998
 11
5.599999999999987
 21
-23.19999999999999
 72
    1
 10
5.599999999999987
 20
-23.19999999999999
 11
0.3999999999999857
 21
-23.19999999999999
 72
    1
 10
0.3999999999999857
 20
-23.19999999999999
 11
0.199999999999986
 21
-23.39999999999998
 72
    1
 10
0.199999999999986
 20
-23.39999999999998
 11
0.199999999999986
 21
-26.60000000000002
 72
    1
 10
0.199999999999986
 20
-26.60000000000002
 11
0.3999999999999857
 21
-26.80000000000001
 72
    1
 10
0.3999999999999857
 20
-26.80000000000001
 11
5.599999999999987
 21
-26.80000000000001
 72
    1
 10
5.599999999999987
 20
-26.80000000000001
 11
5.799999999999986
 21
-26.60000000000002
 72
    1
 10
5.799999999999986
 20
-26.60000000000002
 11
5.799999999999986
 21
-25.69999999999999
 72
    1
 10
5.799999999999986
 20
-25.69999999999999
 11
5.999999999999986
 21
-25.69999999999999
 72
    1
 10
5.999999999999986
 20
-25.69999999999999
 11
5.999999999999986
 21
-26.69999999999999
 72
    1
 10
5.999999999999986
 20
-26.69999999999999
 11
5.699999999999986
 21
-27
 72
    1
 10
5.699999999999986
 20
-27
 11
0.2999999999999856
 21
-27
 72
    1
 10
0.2999999999999856
 20
-27
 11
-1.4210854715202e-14
 21
-26.69999999999999
 72
    1
 10
-1.4210854715202e-14
 20
-26.69999999999999
 11
-1.4210854715202e-14
 21
-23.30000000000001
 72
    1
 10
-1.4210854715202e-14
 20
-23.30000000000001
 11
0.2999999999999856
 21
-23
 97
    0
 75
    0
 76
    1
 52
1.570796326794897
 41
0.1
 77
    0
 78
    0
 98
    0
  0
HATCH
  5
E8
100
AcDbEntity
  8
dveri
  6
ByLayer
 62
  256
370
   -1
100
AcDbHatch
 10
0
 20
0
 30
0
210
0
220
0
230
1
  2
gost_metal
 70
    0
 71
    0
 91
    1
 92
    0
 93
    5
 72
    1
 10
6.499999999999982
 20
-23
 11
6.699999999999986
 21
-23.19999999999999
 72
    1
 10
6.699999999999986
 20
-23.19999999999999
 11
6.699999999999986
 21
-24.10000000000002
 72
    1
 10
6.699999999999986
 20
-24.10000000000002
 11
6.299999999999986
 21
-24.10000000000002
 72
    1
 10
6.299999999999986
 20
-24.10000000000002
 11
6.299999999999986
 21
-23
 72
    1
 10
6.299999999999986
 20
-23
 11
6.499999999999982
 21
-23
 97
    0
 75
    0
 76
    1
 52
0
 41
0.1
 77
    0
 78
    0
 98
    0
  0
HATCH
  5
E9
100
AcDbEntity
  8
dveri
  6
ByLayer
 62
  256
370
   -1
100
AcDbHatch
 10
0
 20
0
 30
0
210
0
220
0
230
1
  2
gost_metal
 70
    0
 71
    0
 91
    1
 92
    0
 93
    8
 72
    1
 10
6.299999999999986
 20
-25.30000000000001
 11
6.299999999999986
 21
-27
 72
    1
 10
6.299999999999986
 20
-27
 11
10.29999999999999
 21
-27
 72
    1
 10
10.29999999999999
 20
-27
 11
10.29999999999999
 21
-26.80000000000001
 72
    1
 10
10.29999999999999
 20
-26.80000000000001
 11
10.09999999999999
 21
-26.60000000000002
 72
    1
 10
10.09999999999999
 20
-26.60000000000002
 11
6.999999999999985
 21
-26.60000000000002
 72
    1
 10
6.999999999999985
 20
-26.60000000000002
 11
6.699999999999986
 21
-26.30000000000001
 72
    1
 10
6.699999999999986
 20
-26.30000000000001
 11
6.699999999999986
 21
-25.30000000000001
 72
    1
 10
6.699999999999986
 20
-25.30000000000001
 11
6.299999999999986
 21
-25.30000000000001
 97
    0
 75
    0
 76
    1
 52
0
 41
0.1
 77
    0
 78
    0
 98
    0
  0
HATCH
  5
EA
100
AcDbEntity
  8
dveri
  6
ByLayer
 62
  256
370
   -1
100
AcDbHatch
 10
0
 20
0
 30
0
210
0
220
0
230
1
  2
gost_metal
 70
    0
 71
    0
 91
    1
 92
    0
 93
   16
 72
    1
 10
135.0000000000001
 20
131.9
 11
134.8000000000001
 21
131.7
 72
    1
 10
134.8000000000001
 20
131.7
 11
131.2000000000001
 21
131.7
 72
    1
 10
131.2000000000001
 20
131.7
 11
131.0000000000001
 21
131.9
 72
    1
 10
131.0000000000001
 20
131.9
 11
131.0000000000001
 21
135.5
 72
    1
 10
131.0000000000001
 20
135.5
 11
131.2000000000001
 21
135.7
 72
    1
 10
131.2000000000001
 20
135.7
 11
134.8000000000001
 21
135.7
 72
    1
 10
134.8000000000001
 20
135.7
 11
135.0000000000001
 21
135.5
 72
    1
 10
135.0000000000001
 20
135.5
 11
135.0000000000001
 21
131.9
 72
    1
 10
131.4000000000001
 20
135.4
 11
134.6000000000001
 21
135.4
 72
    1
 10
134.6000000000001
 20
135.4
 11
134.7000000000001
 21
135.3
 72
    1
 10
134.7000000000001
 20
135.3
 11
134.7000000000001
 21
132.1
 72
    1
 10
134.7000000000001
 20
132.1
 11
134.6000000000001
 21
132
 72
    1
 10
134.6000000000001
 20
132
 11
131.4000000000001
 21
132
 72
    1
 10
131.4000000000001
 20
132
 11
131.3000000000001
 21
132.1
 72
    1
 10
131.3000000000001
 20
132.1
 11
131.3000000000001
 21
135.3
 72
    1
 10
131.3000000000001
 20
135.3
 11
131.4000000000001
 21
135.4
 97
    0
 75
    0
 76
    1
 52
0
 41
0.1
 77
    0
 78
    0
 98
    0
  0
HATCH
  5
EB
100
AcDbEntity
  8
dveri
  6
ByLayer
 62
  256
370
   -1
100
AcDbHatch
 10
0
 20
0
 30
0
210
0
220
0
230
1
  2
gost_metal
 70
    0
 71
    0
 91
    1
 92
    0
 93
   16
 72
    1
 10
134.8
 20
70.30000000000001
 11
135
 21
70.10000000000002
 72
    1
 10
135
 20
70.10000000000002
 11
135
 21
66.5
 72
    1
 10
135
 20
66.5
 11
134.8
 21
66.30000000000001
 72
    1
 10
134.8
 20
66.30000000000001
 11
131.2
 21
66.30000000000001
 72
    1
 10
131.2
 20
66.30000000000001
 11
131
 21
66.5
 72
    1
 10
131
 20
66.5
 11
131
 21
70.10000000000002
 72
    1
 10
131
 20
70.10000000000002
 11
131.2
 21
70.30000000000001
 72
    1
 10
131.2
 20
70.30000000000001
 11
134.8
 21
70.30000000000001
 72
    1
 10
131.4
 20
70
 11
134.6
 21
70
 72
    1
 10
134.6
 20
70
 11
134.7
 21
69.89999999999998
 72
    1
 10
134.7
 20
69.89999999999998
 11
134.7
 21
66.69999999999999
 72
    1
 10
134.7
 20
66.69999999999999
 11
134.6
 21
66.60000000000002
 72
    1
 10
134.6
 20
66.60000000000002
 11
131.4
 21
66.60000000000002
 72
    1
 10
131.4
 20
66.60000000000002
 11
131.3
 21
66.69999999999999
 72
    1
 10
131.3
 20
66.69999999999999
 11
131.3
 21
69.89999999999998
 72
    1
 10
131.3
 20
69.89999999999998
 11
131.4
 21
70
 97
    0
 75
    0
 76
    1
 52
0
 41
0.1
 77
    0
 78
    0
 98
    0
  0
HATCH
  5
EC
100
AcDbEntity
  8
ramka
  6
ByLayer
 62
  256
370
   -1
100
AcDbHatch
 10
0
 20
0
 30
0
210
0
220
0
230
1
  2
gost_metal
 70
    0
 71
    0
 91
    1
 92
    0
 93
   16
 72
    1
 10
131
 20
203.6999999999996
 11
131.3
 21
203.9999999999996
 72
    1
 10
131.3
 20
203.9999999999996
 11
134.7
 21
203.9999999999996
 72
    1
 10
134.7
 20
203.9999999999996
 11
135
 21
203.6999999999996
 72
    1
 10
135
 20
203.6999999999996
 11
135
 21
198.2999999999996
 72
    1
 10
135
 20
198.2999999999996
 11
134.7
 21
197.9999999999996
 72
    1
 10
134.7
 20
197.9999999999996
 11
131.3
 21
197.9999999999996
 72
    1
 10
131.3
 20
197.9999999999996
 11
131
 21
198.2999999999996
 72
    1
 10
131
 20
198.2999999999996
 11
131
 21
203.6999999999996
 72
    1
 10
134.6
 20
198.1999999999996
 11
131.4
 21
198.1999999999996
 72
    1
 10
131.4
 20
198.1999999999996
 11
131.2
 21
198.3999999999996
 72
    1
 10
131.2
 20
198.3999999999996
 11
131.2
 21
203.5999999999996
 72
    1
 10
131.2
 20
203.5999999999996
 11
131.4
 21
203.7999999999996
 72
    1
 10
131.4
 20
203.7999999999996
 11
134.6
 21
203.7999999999996
 72
    1
 10
134.6
 20
203.7999999999996
 11
134.8
 21
203.5999999999996
 72
    1
 10
134.8
 20
203.5999999999996
 11
134.8
 21
198.3999999999996
 72
    1
 10
134.8
 20
198.3999999999996
 11
134.6
 21
198.1999999999996
 97
    0
 75
    0
 76
    1
 52
1.570796326794897
 41
0.1
 77
    0
 78
    0
 98
    0
  0
HATCH
  5
ED
100
AcDbEntity
  8
dveri
  6
ByLayer
 62
  256
370
   -1
100
AcDbHatch
 10
0
 20
0
 30
0
210
0
220
0
230
1
  2
gost_metal
 70
    0
 71
    0
 91
    1
 92
    0
 93
    9
 72
    1
 10
134.6
 20
197
 11
134.3
 21
197.3
 72
    1
 10
134.3
 20
197.3
 11
131.2
 21
197.3
 72
    1
 10
131.2
 20
197.3
 11
131
 21
197.5
 72
    1
 10
131
 20
197.5
 11
131
 21
197.7
 72
    1
 10
131
 20
197.7
 11
135
 21
197.7
 72
    1
 10
135
 20
197.7
 11
135.0000000000001
 21
193.6999999999999
 72
    1
 10
135.0000000000001
 20
193.6999999999999
 11
134.8000000000001
 21
193.6999999999999
 72
    1
 10
134.8000000000001
 20
193.6999999999999
 11
134.6000000000001
 21
193.8999999999999
 72
    1
 10
134.6000000000001
 20
193.8999999999999
 11
134.6
 21
197
 97
    0
 75
    0
 76
    1
 52
0
 41
0.1
 77
    0
 78
    0
 98
    0
  0
HATCH
  5
EE
100
AcDbEntity
  8
dveri
  6
ByLayer
 62
  256
370
   -1
100
AcDbHatch
 10
0
 20
0
 30
0
210
0
220
0
230
1
  2
gost_metal
 70
    0
 71
    0
 91
    1
 92
    0
 93
    9
 72
    1
 10
134.6
 20
5
 11
134.3
 21
4.699999999999989
 72
    1
 10
134.3
 20
4.699999999999989
 11
131.2
 21
4.699999999999989
 72
    1
 10
131.2
 20
4.699999999999989
 11
131
 21
4.5
 72
    1
 10
131
 20
4.5
 11
131
 21
4.300000000000011
 72
    1
 10
131
 20
4.300000000000011
 11
135
 21
4.300000000000011
 72
    1
 10
135
 20
4.300000000000011
 11
135
 21
8.300000000000011
 72
    1
 10
135
 20
8.300000000000011
 11
134.8
 21
8.300000000000011
 72
    1
 10
134.8
 20
8.300000000000011
 11
134.6
 21
8.100000000000023
 72
    1
 10
134.6
 20
8.100000000000023
 11
134.6
 21
5
 97
    0
 75
    0
 76
    1
 52
0
 41
0.1
 77
    0
 78
    0
 98
    0
  0
HATCH
  5
EF
100
AcDbEntity
  8
ramka
  6
ByLayer
 62
  256
370
   -1
100
AcDbHatch
 10
0
 20
0
 30
0
210
0
220
0
230
1
  2
gost_metal
 70
    0
 71
    0
 91
    1
 92
    0
 93
   16
 72
    1
 10
134.8
 20
0
 11
131.2
 21
0
 72
    1
 10
131.2
 20
0
 11
131
 21
0.1999999999999886
 72
    1
 10
131
 20
0.1999999999999886
 11
131
 21
3.800000000000011
 72
    1
 10
131
 20
3.800000000000011
 11
131.2
 21
4
 72
    1
 10
131.2
 20
4
 11
134.8
 21
4
 72
    1
 10
134.8
 20
4
 11
135
 21
3.800000000000011
 72
    1
 10
135
 20
3.800000000000011
 11
135
 21
0.1999999999999886
 72
    1
 10
135
 20
0.1999999999999886
 11
134.8
 21
0
 72
    1
 10
131.4
 20
3.699999999999989
 11
134.6
 21
3.699999999999989
 72
    1
 10
134.6
 20
3.699999999999989
 11
134.7
 21
3.600000000000023
 72
    1
 10
134.7
 20
3.600000000000023
 11
134.7
 21
0.3999999999999773
 72
    1
 10
134.7
 20
0.3999999999999773
 11
134.6
 21
0.3000000000000114
 72
    1
 10
134.6
 20
0.3000000000000114
 11
131.4
 21
0.3000000000000114
 72
    1
 10
131.4
 20
0.3000000000000114
 11
131.3
 21
0.3999999999999773
 72
    1
 10
131.3
 20
0.3999999999999773
 11
131.3
 21
3.600000000000023
 72
    1
 10
131.3
 20
3.600000000000023
 11
131.4
 21
3.699999999999989
 97
    0
 75
    0
 76
    1
 52
1.570796326794897
 41
0.1
 77
    0
 78
    0
 98
    0
  0
HATCH
  5
F0
100
AcDbEntity
  8
dveri
  6
ByLayer
 62
  256
370
   -1
100
AcDbHatch
 10
0
 20
0
 30
0
210
0
220
0
230
1
  2
gost_metal
 70
    0
 71
    0
 91
    1
 92
    0
 93
    9
 72
    1
 10
96.7
 20
-26.80000000000001
 11
96.90000000000001
 21
-26.60000000000002
 72
    1
 10
96.90000000000001
 20
-26.60000000000002
 11
99.99999999999997
 21
-26.60000000000002
 72
    1
 10
99.99999999999997
 20
-26.60000000000002
 11
100.3
 21
-26.30000000000001
 72
    1
 10
100.3
 20
-26.30000000000001
 11
100.3
 21
-23.19999999999999
 72
    1
 10
100.3
 20
-23.19999999999999
 11
100.5
 21
-23
 72
    1
 10
100.5
 20
-23
 11
100.7
 21
-23
 72
    1
 10
100.7
 20
-23
 11
100.7
 21
-27
 72
    1
 10
100.7
 20
-27
 11
96.7
 21
-27
 72
    1
 10
96.7
 20
-27
 11
96.7
 21
-26.80000000000001
 97
    0
 75
    0
 76
    1
 52
3.141592653589793
 41
0.1
 77
    0
 78
    0
 98
    0
  0
HATCH
  5
F1
100
AcDbEntity
  8
ramka
  6
ByLayer
 62
  256
370
   -1
100
AcDbHatch
 10
0
 20
0
 30
0
210
0
220
0
230
1
  2
gost_metal
 70
    0
 71
    0
 91
    1
 92
    0
 93
   16
 72
    1
 10
101.3
 20
-27
 11
101
 21
-26.69999999999999
 72
    1
 10
101
 20
-26.69999999999999
 11
101
 21
-23.30000000000001
 72
    1
 10
101
 20
-23.30000000000001
 11
101.3
 21
-23
 72
    1
 10
101.3
 20
-23
 11
106.7
 21
-23
 72
    1
 10
106.7
 20
-23
 11
107
 21
-23.30000000000001
 72
    1
 10
107
 20
-23.30000000000001
 11
107
 21
-26.69999999999999
 72
    1
 10
107
 20
-26.69999999999999
 11
106.7
 21
-27
 72
    1
 10
106.7
 20
-27
 11
101.3
 21
-27
 72
    1
 10
101.2
 20
-26.60000000000002
 11
101.2
 21
-23.39999999999998
 72
    1
 10
101.2
 20
-23.39999999999998
 11
101.4
 21
-23.19999999999999
 72
    1
 10
101.4
 20
-23.19999999999999
 11
106.6
 21
-23.19999999999999
 72
    1
 10
106.6
 20
-23.19999999999999
 11
106.8
 21
-23.39999999999998
 72
    1
 10
106.8
 20
-23.39999999999998
 11
106.8
 21
-26.60000000000002
 72
    1
 10
106.8
 20
-26.60000000000002
 11
106.6
 21
-26.80000000000001
 72
    1
 10
106.6
 20
-26.80000000000001
 11
101.4
 21
-26.80000000000001
 72
    1
 10
101.4
 20
-26.80000000000001
 11
101.2
 21
-26.60000000000002
 97
    0
 75
    0
 76
    1
 52
1.570796326794897
 41
0.1
 77
    0
 78
    0
 98
    0
  0
HATCH
  5
F2
100
AcDbEntity
  8
ramka
  6
ByLayer
 62
  256
370
   -1
100
AcDbHatch
 10
0
 20
0
 30
0
210
0
220
0
230
1
  2
gost_metal
 70
    0
 71
    0
 91
    1
 92
    0
 93
   16
 72
    1
 10
134.7
 20
209.9999999999996
 11
135
 21
209.6999999999996
 72
    1
 10
135
 20
209.6999999999996
 11
135
 21
204.2999999999996
 72
    1
 10
135
 20
204.2999999999996
 11
134.7
 21
203.9999999999996
 72
    1
 10
134.7
 20
203.9999999999996
 11
131.3
 21
203.9999999999996
 72
    1
 10
131.3
 20
203.9999999999996
 11
131
 21
204.2999999999996
 72
    1
 10
131
 20
204.2999999999996
 11
131
 21
209.6999999999996
 72
    1
 10
131
 20
209.6999999999996
 11
131.3
 21
209.9999999999996
 72
    1
 10
131.3
 20
209.9999999999996
 11
134.7
 21
209.9999999999996
 72
    1
 10
134.6
 20
204.1999999999996
 11
131.4
 21
204.1999999999996
 72
    1
 10
131.4
 20
204.1999999999996
 11
131.2
 21
204.3999999999996
 72
    1
 10
131.2
 20
204.3999999999996
 11
131.2
 21
209.5999999999996
 72
    1
 10
131.2
 20
209.5999999999996
 11
131.4
 21
209.7999999999996
 72
    1
 10
131.4
 20
209.7999999999996
 11
134.6
 21
209.7999999999996
 72
    1
 10
134.6
 20
209.7999999999996
 11
134.8
 21
209.5999999999996
 72
    1
 10
134.8
 20
209.5999999999996
 11
134.8
 21
204.3999999999996
 72
    1
 10
134.8
 20
204.3999999999996
 11
134.6
 21
204.1999999999996
 97
    0
 75
    0
 76
    1
 52
1.570796326794897
 41
0.1
 77
    0
 78
    0
 98
    0
  0
MTEXT
  5
F3
100
AcDbEntity
  8
text
  6
ByLayer
 62
  256
370
   -1
100
AcDbMText
 10
220
 20
90
 30
0
 40
5
 41
51.80555555555587
 71
    8
 72
    1
  1
 40403
  7
cyrillic_ii
210
0
220
0
230
1
 50
0
 73
    2
 44
1
  0
LEADER
  5
F4
100
AcDbEntity
  8
text
  6
ByLayer
 62
  256
370
   -1
100
AcDbLeader
  3
Standard
 71
    1
 72
    0
 73
    3
 74
    0
 75
    0
 40
1
 41
10
 76
3
 76
3
 10
180
 20
2
 30
0
 10
190
 20
39
 30
0
 10
250
 20
39
 30
0
  0
LEADER
  5
F5
100
AcDbEntity
  8
text
  6
ByLayer
 62
  256
370
   -1
100
AcDbLeader
  3
Standard
 71
    1
 72
    0
 73
    3
 74
    0
 75
    0
 40
1
 41
10
 76
2
 76
2
 10
172
 20
30
 30
0
 10
190
 20
39
 30
0
  0
LEADER
  5
F6
100
AcDbEntity
  8
text
  6
ByLayer
 62
  256
370
   -1
100
AcDbLeader
  3
Standard
 71
    1
 72
    0
 73
    3
 74
    0
 75
    0
 40
1
 41
10
 76
3
 76
3
 10
180
 20
64
 30
0
 10
193
 20
89
 30
0
 10
247
 20
89
 30
0
  0
LEADER
  5
F7
100
AcDbEntity
  8
text
  6
ByLayer
 62
  256
370
   -1
100
AcDbLeader
  3
Standard
 71
    1
 72
    0
 73
    3
 74
    0
 75
    0
 40
1
 41
10
 76
2
 76
2
 10
183
 20
129
 30
0
 10
193
 20
89
 30
0
  0
LEADER
  5
F8
100
AcDbEntity
  8
text
  6
ByLayer
 62
  256
370
   -1
100
AcDbLeader
  3
Standard
 71
    1
 72
    0
 73
    3
 74
    0
 75
    0
 40
1
 41
10
 76
3
 76
3
 10
231
 20
192
 30
0
 10
243
 20
159
 30
0
 10
180
 20
159
 30
0
  0
MTEXT
  5
F9
100
AcDbEntity
  8
text
  6
ByLayer
 62
  256
370
   -1
100
AcDbMText
 10
210
 20
160
 30
0
 40
5
 41
55.97222222222246
 71
    8
 72
    1
  1
 40404
  7
cyrillic_ii
210
0
220
0
230
1
 50
0
 73
    2
 44
1
  0
MTEXT
  5
FA
100
AcDbEntity
  8
text
  6
ByLayer
 62
  256
370
   -1
100
AcDbMText
 10
220
 20
40
 30
0
 40
5
 41
55.97222222222246
 71
    8
 72
    1
  1
 40404
  7
cyrillic_ii
210
0
220
0
230
1
 50
0
 73
    2
 44
1
  0
LWPOLYLINE
  5
FB
100
AcDbEntity
  8
face
  6
ByLayer
 62
  256
370
   -1
100
AcDbPolyline
 90
    5
 70
    1
 43
0
 10
105
 20
202
 42
0.125
 10
1.99999999999995
 20
202
 10
1.999999999999929
 20
1
 10
105
 20
1
 10
105
 20
1
  0
LWPOLYLINE
  5
FC
100
AcDbEntity
  8
list
  6
DASHED2
 62
  256
370
   -1
100
AcDbPolyline
 90
    4
 70
    0
 43
0
 10
8.899999999999986
 20
-27.19999999999999
 10
5.599999999999985
 20
-27.19999999999999
 10
5.599999999999985
 20
-27
 10
8.899999999999986
 20
-27
  0
LWPOLYLINE
  5
FD
100
AcDbEntity
  8
list
  6
ByLayer
 62
  256
370
   -1
100
AcDbPolyline
 90
    4
 70
    1
 43
0
 10
135
 20
199.0000000000001
 10
135.2
 20
199.0000000000001
 10
135.2
 20
3
 10
135
 20
3
  0
LWPOLYLINE
  5
FE
100
AcDbEntity
  8
ramka
  6
ByLayer
 62
  256
370
   -1
100
AcDbPolyline
 90
    4
 70
    1
 43
0
 10
3.699999999999985
 20
168.0000000000001
 10
5.899999999999984
 20
168.0000000000001
 10
5.899999999999984
 20
173.0000000000001
 10
3.699999999999985
 20
173.0000000000001
  0
LWPOLYLINE
  5
FF
100
AcDbEntity
  8
dveri
  6
ByLayer
 62
  256
370
   -1
100
AcDbPolyline
 90
    4
 70
    1
 43
0
 10
3.699999999999985
 20
173.0000000000001
 10
5.899999999999984
 20
173.0000000000001
 10
5.899999999999984
 20
178.0000000000001
 10
3.699999999999985
 20
178.0000000000001
  0
LWPOLYLINE
  5
100
100
AcDbEntity
  8
dveri
  6
ByLayer
 62
  256
370
   -1
100
AcDbPolyline
 90
    4
 70
    1
 43
0
 10
5.899999999999984
 20
178.0000000000001
 10
8.899999999999986
 20
178.0000000000001
 10
8.899999999999986
 20
173.0000000000001
 10
5.899999999999984
 20
173.0000000000001
  0
LWPOLYLINE
  5
101
100
AcDbEntity
  8
ramka
  6
ByLayer
 62
  256
370
   -1
100
AcDbPolyline
 90
    4
 70
    1
 43
0
 10
3.699999999999985
 20
173.0000000000001
 10
1.999999999999986
 20
173.0000000000001
 10
1.999999999999986
 20
168.0000000000001
 10
3.699999999999985
 20
168.0000000000001
  0
LWPOLYLINE
  5
102
100
AcDbEntity
  8
ramka
  6
ByLayer
 62
  256
370
   -1
100
AcDbPolyline
 90
    9
 70
    0
 43
0
 10
135
 20
198.2999999999996
 10
134.7
 20
197.9999999999996
 10
131.3
 20
197.9999999999996
 10
131
 20
198.2999999999996
 10
131
 20
203.6999999999996
 10
131.3
 20
203.9999999999996
 10
134.7
 20
203.9999999999996
 10
135
 20
203.6999999999996
 10
135
 20
198.2999999999996
  0
LWPOLYLINE
  5
103
100
AcDbEntity
  8
ramka
  6
ByLayer
 62
  256
370
   -1
100
AcDbPolyline
 90
    9
 70
    0
 43
0
 10
134.6
 20
198.1999999999996
 10
131.4
 20
198.1999999999996
 10
131.2
 20
198.3999999999996
 10
131.2
 20
203.5999999999996
 10
131.4
 20
203.7999999999996
 10
134.6
 20
203.7999999999996
 10
134.8
 20
203.5999999999996
 10
134.8
 20
198.3999999999996
 10
134.6
 20
198.1999999999996
  0
LINE
  5
104
100
AcDbEntity
  8
dveri
  6
ByLayer
 62
  256
370
   -1
100
AcDbLine
 10
131
 20
4.5
 11
131
 21
197.5
  0
LINE
  5
105
100
AcDbEntity
  8
dveri
  6
ByLayer
 62
  256
370
   -1
100
AcDbLine
 10
135
 20
8.300000000000011
 11
135.0000000000001
 21
193.6999999999999
  0
LINE
  5
106
100
AcDbEntity
  8
dveri
  6
ByLayer
 62
  256
370
   -1
100
AcDbLine
 10
134.6
 20
8.100000000000023
 11
134.6000000000001
 21
193.8999999999999
  0
LWPOLYLINE
  5
107
100
AcDbEntity
  8
dveri
  6
ByLayer
 62
  256
370
   -1
100
AcDbPolyline
 90
   10
 70
    0
 43
0
 10
135
 20
197.7
 10
135.0000000000001
 20
193.6999999999999
 10
134.8000000000001
 20
193.6999999999999
 10
134.6000000000001
 20
193.8999999999999
 10
134.6
 20
197
 10
134.3
 20
197.3
 10
131.2
 20
197.3
 10
131
 20
197.5
 10
131
 20
197.7
 10
135
 20
197.7
  0
LINE
  5
108
100
AcDbEntity
  8
ramka
  6
ByLayer
 62
  256
370
   -1
100
AcDbLine
 10
131
 20
198.2
 11
131
 21
3.800000000000011
  0
LINE
  5
109
100
AcDbEntity
  8
ramka
  6
ByLayer
 62
  256
370
   -1
100
AcDbLine
 10
135
 20
198.2
 11
135
 21
3.800000000000011
  0
LWPOLYLINE
  5
10A
100
AcDbEntity
  8
ramka
  6
ByLayer
 62
  256
370
   -1
100
AcDbPolyline
 90
    9
 70
    0
 43
0
 10
131.2
 20
4
 10
134.8
 20
4
 10
135
 20
3.800000000000011
 10
135
 20
0.1999999999999886
 10
134.8
 20
0
 10
131.2
 20
0
 10
131
 20
0.1999999999999886
 10
131
 20
3.800000000000011
 10
131.2
 20
4
  0
LWPOLYLINE
  5
10B
100
AcDbEntity
  8
ramka
  6
ByLayer
 62
  256
370
   -1
100
AcDbPolyline
 90
    9
 70
    0
 43
0
 10
131.4
 20
3.699999999999989
 10
134.6
 20
3.699999999999989
 10
134.7
 20
3.600000000000023
 10
134.7
 20
0.3999999999999773
 10
134.6
 20
0.3000000000000114
 10
131.4
 20
0.3000000000000114
 10
131.3
 20
0.3999999999999773
 10
131.3
 20
3.600000000000023
 10
131.4
 20
3.699999999999989
  0
LWPOLYLINE
  5
10C
100
AcDbEntity
  8
dveri
  6
ByLayer
 62
  256
370
   -1
100
AcDbPolyline
 90
   10
 70
    0
 43
0
 10
135
 20
4.300000000000011
 10
130.9999999999999
 20
4.299999999999898
 10
130.9999999999999
 20
4.499999999999886
 10
131.1999999999999
 20
4.699999999999875
 10
134.3
 20
4.699999999999989
 10
134.6000000000001
 20
5
 10
134.6000000000001
 20
8.100000000000023
 10
134.8
 20
8.300000000000011
 10
135
 20
8.300000000000011
 10
135
 20
4.300000000000011
  0
LWPOLYLINE
  5
10D
100
AcDbEntity
  8
dveri
  6
ByLayer
 62
  256
370
   -1
100
AcDbPolyline
 90
    9
 70
    0
 43
0
 10
131.2
 20
70.30000000000001
 10
134.8
 20
70.30000000000001
 10
135
 20
70.10000000000002
 10
135
 20
66.5
 10
134.8
 20
66.30000000000001
 10
131.2
 20
66.30000000000001
 10
131
 20
66.5
 10
131
 20
70.10000000000002
 10
131.2
 20
70.30000000000001
  0
LWPOLYLINE
  5
10E
100
AcDbEntity
  8
dveri
  6
ByLayer
 62
  256
370
   -1
100
AcDbPolyline
 90
    9
 70
    0
 43
0
 10
131.4
 20
70
 10
134.6
 20
70
 10
134.7
 20
69.89999999999998
 10
134.7
 20
66.69999999999999
 10
134.6
 20
66.60000000000002
 10
131.4
 20
66.60000000000002
 10
131.3
 20
66.69999999999999
 10
131.3
 20
69.89999999999998
 10
131.4
 20
70
  0
LWPOLYLINE
  5
10F
100
AcDbEntity
  8
dveri
  6
ByLayer
 62
  256
370
   -1
100
AcDbPolyline
 90
    9
 70
    0
 43
0
 10
131.2000000000001
 20
135.7
 10
134.8000000000001
 20
135.7
 10
135.0000000000001
 20
135.5
 10
135.0000000000001
 20
131.9
 10
134.8000000000001
 20
131.7
 10
131.2000000000001
 20
131.7
 10
131.0000000000001
 20
131.9
 10
131.0000000000001
 20
135.5
 10
131.2000000000001
 20
135.7
  0
LWPOLYLINE
  5
110
100
AcDbEntity
  8
dveri
  6
ByLayer
 62
  256
370
   -1
100
AcDbPolyline
 90
    9
 70
    0
 43
0
 10
131.4000000000001
 20
135.4
 10
134.6000000000001
 20
135.4
 10
134.7000000000001
 20
135.3
 10
134.7000000000001
 20
132.1
 10
134.6000000000001
 20
132
 10
131.4000000000001
 20
132
 10
131.3000000000001
 20
132.1
 10
131.3000000000001
 20
135.3
 10
131.4000000000001
 20
135.4
  0
LWPOLYLINE
  5
111
100
AcDbEntity
  8
ramka
  6
ByLayer
 62
  256
370
   -1
100
AcDbPolyline
 90
    4
 70
    1
 43
0
 10
3.699999999999985
 20
24
 10
5.899999999999984
 20
24
 10
5.899999999999984
 20
29
 10
3.699999999999985
 20
29
  0
LWPOLYLINE
  5
112
100
AcDbEntity
  8
dveri
  6
ByLayer
 62
  256
370
   -1
100
AcDbPolyline
 90
    4
 70
    1
 43
0
 10
3.699999999999985
 20
29
 10
5.899999999999984
 20
29
 10
5.899999999999984
 20
34
 10
3.699999999999985
 20
34
  0
LWPOLYLINE
  5
113
100
AcDbEntity
  8
dveri
  6
ByLayer
 62
  256
370
   -1
100
AcDbPolyline
 90
    4
 70
    1
 43
0
 10
5.899999999999984
 20
34
 10
8.899999999999986
 20
34
 10
8.899999999999986
 20
29
 10
5.899999999999984
 20
29
  0
LWPOLYLINE
  5
114
100
AcDbEntity
  8
ramka
  6
ByLayer
 62
  256
370
   -1
100
AcDbPolyline
 90
    4
 70
    1
 43
0
 10
3.699999999999985
 20
29
 10
1.999999999999986
 20
29
 10
1.999999999999986
 20
24
 10
3.699999999999985
 20
24
  0
LWPOLYLINE
  5
115
100
AcDbEntity
  8
ramka
  6
ByLayer
 62
  256
370
   -1
100
AcDbPolyline
 90
    4
 70
    1
 43
0
 10
135
 20
24
 10
137.2
 20
24
 10
137.2
 20
29
 10
135
 20
29
  0
LWPOLYLINE
  5
116
100
AcDbEntity
  8
dveri
  6
ByLayer
 62
  256
370
   -1
100
AcDbPolyline
 90
    4
 70
    1
 43
0
 10
135
 20
29
 10
137.2
 20
29
 10
137.2
 20
34
 10
135
 20
34
  0
LWPOLYLINE
  5
117
100
AcDbEntity
  8
ramka
  6
ByLayer
 62
  256
370
   -1
100
AcDbPolyline
 90
    4
 70
    1
 43
0
 10
135
 20
168
 10
137.2
 20
168
 10
137.2
 20
173
 10
135
 20
173
  0
LWPOLYLINE
  5
118
100
AcDbEntity
  8
dveri
  6
ByLayer
 62
  256
370
   -1
100
AcDbPolyline
 90
    4
 70
    1
 43
0
 10
135
 20
173
 10
137.2
 20
173
 10
137.2
 20
178
 10
135
 20
178
  0
LWPOLYLINE
  5
119
100
AcDbEntity
  8
ramka
  6
ByLayer
 62
  256
370
   -1
100
AcDbPolyline
 90
    4
 70
    1
 43
0
 10
135
 20
96.00000000000011
 10
137.2
 20
96.00000000000011
 10
137.2
 20
101.0000000000001
 10
135
 20
101.0000000000001
  0
LWPOLYLINE
  5
11A
100
AcDbEntity
  8
dveri
  6
ByLayer
 62
  256
370
   -1
100
AcDbPolyline
 90
    4
 70
    1
 43
0
 10
135
 20
101.0000000000001
 10
137.2
 20
101.0000000000001
 10
137.2
 20
106.0000000000001
 10
135
 20
106.0000000000001
  0
LINE
  5
11B
100
AcDbEntity
  8
ramka
  6
ByLayer
 62
  256
370
   -1
100
AcDbLine
 10
5.999999999999987
 20
-25.69999999999999
 11
5.999999999999987
 21
-25.30000000000001
  0
LINE
  5
11C
100
AcDbEntity
  8
ramka
  6
DASHED2
 62
  256
370
   -1
100
AcDbLine
 10
5.999999999999984
 20
-24
 11
5.999999999999987
 21
-25.30000000000001
  0
LWPOLYLINE
  5
11D
100
AcDbEntity
  8
ramka
  6
ByLayer
 62
  256
370
   -1
100
AcDbPolyline
 90
   21
 70
    0
 43
0
 10
5.799999999999986
 20
-25.69999999999999
 10
5.999999999999986
 20
-25.69999999999999
 10
5.999999999999986
 20
-26.69999999999999
 10
5.699999999999986
 20
-27
 10
0.2999999999999856
 20
-27
 10
-1.4210854715202e-14
 20
-26.69999999999999
 10
-1.4210854715202e-14
 20
-23.30000000000001
 10
0.2999999999999856
 20
-23
 10
5.699999999999986
 20
-23
 10
5.999999999999986
 20
-23.30000000000001
 10
5.999999999999986
 20
-24
 10
5.799999999999986
 20
-24
 10
5.799999999999986
 20
-23.39999999999998
 10
5.599999999999987
 20
-23.19999999999999
 10
0.3999999999999857
 20
-23.19999999999999
 10
0.199999999999986
 20
-23.39999999999998
 10
0.199999999999986
 20
-26.60000000000002
 10
0.3999999999999857
 20
-26.80000000000001
 10
5.599999999999987
 20
-26.80000000000001
 10
5.799999999999986
 20
-26.60000000000002
 10
5.799999999999986
 20
-25.69999999999999
  0
LINE
  5
11E
100
AcDbEntity
  8
ramka
  6
ByLayer
 62
  256
370
   -1
100
AcDbLine
 10
5.799999999999986
 20
-25.69999999999999
 11
5.799999999999986
 21
-25.30000000000001
  0
LINE
  5
11F
100
AcDbEntity
  8
ramka
  6
DASHED2
 62
  256
370
   -1
100
AcDbLine
 10
5.799999999999986
 20
-24
 11
5.799999999999986
 21
-25.30000000000001
  0
LINE
  5
120
100
AcDbEntity
  8
dveri
  6
ByLayer
 62
  256
370
   -1
100
AcDbLine
 10
4.499999999999989
 20
-24.10000000000002
 11
4.499999999999986
 21
-25.30000000000001
  0
LWPOLYLINE
  5
121
100
AcDbEntity
  8
dveri
  6
ByLayer
 62
  256
370
   -1
100
AcDbPolyline
 90
    7
 70
    0
 43
0
 10
6.699999999999986
 20
-25.30000000000001
 10
4.499999999999986
 20
-25.30000000000001
 10
4.299999999999985
 20
-25.10000000000002
 10
4.299999999999985
 20
-24.30000000000001
 10
4.499999999999986
 20
-24.10000000000002
 10
6.699999999999986
 20
-24.10000000000002
 10
6.699999999999986
 20
-25.30000000000001
  0
LWPOLYLINE
  5
122
100
AcDbEntity
  8
dveri
  6
CONTINUOUS
 62
   96
420
32768
370
   50
100
AcDbPolyline
 90
    9
 70
    0
 43
0
 10
6.299999999999986
 20
-27
 10
10.29999999999999
 20
-27
 10
10.29999999999999
 20
-26.80000000000001
 10
10.09999999999999
 20
-26.60000000000002
 10
6.999999999999985
 20
-26.60000000000002
 10
6.699999999999986
 20
-26.30000000000001
 10
6.699999999999986
 20
-25.30000000000001
 10
6.299999999999986
 20
-25.30000000000001
 10
6.299999999999986
 20
-27
  0
LWPOLYLINE
  5
123
100
AcDbEntity
  8
dveri
  6
ByLayer
 62
  256
370
   -1
100
AcDbPolyline
 90
    6
 70
    0
 43
0
 10
6.299999999999986
 20
-24.10000000000002
 10
6.299999999999986
 20
-23
 10
6.499999999999982
 20
-23
 10
6.699999999999986
 20
-23.19999999999999
 10
6.699999999999986
 20
-24.10000000000002
 10
6.299999999999986
 20
-24.10000000000002
  0
LINE
  5
124
100
AcDbEntity
  8
dveri
  6
DASHED2
 62
  256
370
   -1
100
AcDbLine
 10
6.299999999999986
 20
-24.10000000000002
 11
6.299999999999986
 21
-25.30000000000001
  0
CIRCLE
  5
125
100
AcDbEntity
  8
ramka
  6
ByLayer
 62
  256
370
   -1
100
AcDbCircle
 10
4.699999999999988
 20
-28.19999999999999
 40
1.100000000000001
  0
LWPOLYLINE
  5
126
100
AcDbEntity
  8
ramka
  6
ByLayer
 62
  256
370
   -1
100
AcDbPolyline
 90
    4
 70
    1
 43
0
 10
1.899999999999986
 20
-27.5
 10
3.851471862576141
 20
-27.5
 10
3.851471862576142
 20
-27
 10
1.899999999999986
 20
-27
  0
LWPOLYLINE
  5
127
100
AcDbEntity
  8
dveri
  6
ByLayer
 62
  256
370
   -1
100
AcDbPolyline
 90
    4
 70
    1
 43
0
 10
8.799999999999986
 20
-27.5
 10
5.54852813742383
 20
-27.5
 10
5.548528137424123
 20
-27
 10
8.799999999999986
 20
-27
  0
LWPOLYLINE
  5
128
100
AcDbEntity
  8
list
  6
ByLayer
 62
  256
370
   -1
100
AcDbPolyline
 90
    4
 70
    0
 43
0
 10
8.899999999999986
 20
-27.19999999999999
 10
102
 20
-27.19999999999999
 10
102
 20
-27
 10
8.899999999999986
 20
-27
  0
LWPOLYLINE
  5
129
100
AcDbEntity
  8
dveri
  6
DASHED2
 62
  256
370
   -1
100
AcDbPolyline
 90
    5
 70
    1
 43
0
 10
6.299999999999983
 20
4.300000000000011
 10
100.7
 20
4.300000000000011
 10
100.7
 20
197.7
 10
6.299999999999981
 20
197.7
 10
6.299999999999981
 20
197.7
  0
LWPOLYLINE
  5
12A
100
AcDbEntity
  8
ramka
  6
ByLayer
 62
  256
370
   -1
100
AcDbPolyline
 90
    4
 70
    1
 43
0
 10
101
 20
198.0000000000001
 10
5.999999999999986
 20
198.0000000000001
 10
5.999999999999986
 20
204
 10
101
 20
204
  0
LWPOLYLINE
  5
12B
100
AcDbEntity
  8
dveri
  6
DASHED2
 62
  256
370
   -1
100
AcDbPolyline
 90
    5
 70
    1
 43
0
 10
10.29999999999999
 20
8.300000000000011
 10
96.7
 20
8.300000000000011
 10
96.69999999999999
 20
193.7
 10
10.29999999999999
 20
193.7
 10
10.29999999999999
 20
193.7
  0
LWPOLYLINE
  5
12C
100
AcDbEntity
  8
dveri
  6
ByLayer
 62
  256
370
   -1
100
AcDbPolyline
 90
   10
 70
    0
 43
0
 10
100.7
 20
-27
 10
96.7
 20
-27
 10
96.7
 20
-26.80000000000001
 10
96.90000000000001
 20
-26.60000000000002
 10
99.99999999999997
 20
-26.60000000000002
 10
100.3
 20
-26.30000000000001
 10
100.3
 20
-23.19999999999999
 10
100.5
 20
-23
 10
100.7
 20
-23
 10
100.7
 20
-27
  0
LINE
  5
12D
100
AcDbEntity
  8
dveri
  6
ByLayer
 62
  256
370
   -1
100
AcDbLine
 10
6.499999999999988
 20
-23
 11
100.5
 21
-23
  0
LINE
  5
12E
100
AcDbEntity
  8
dveri
  6
ByLayer
 62
  256
370
   -1
100
AcDbLine
 10
10.29999999999999
 20
-27
 11
96.7
 21
-27
  0
LINE
  5
12F
100
AcDbEntity
  8
dveri
  6
ByLayer
 62
  256
370
   -1
100
AcDbLine
 10
10.09999999999999
 20
-26.60000000000002
 11
96.90000000000001
 21
-26.60000000000002
  0
LWPOLYLINE
  5
130
100
AcDbEntity
  8
ramka
  6
ByLayer
 62
  256
370
   -1
100
AcDbPolyline
 90
    9
 70
    0
 43
0
 10
101.3
 20
-27
 10
101
 20
-26.69999999999999
 10
101
 20
-23.30000000000001
 10
101.3
 20
-23
 10
106.7
 20
-23
 10
107
 20
-23.30000000000001
 10
107
 20
-26.69999999999999
 10
106.7
 20
-27
 10
101.3
 20
-27
  0
LWPOLYLINE
  5
131
100
AcDbEntity
  8
ramka
  6
ByLayer
 62
  256
370
   -1
100
AcDbPolyline
 90
    9
 70
    0
 43
0
 10
101.2
 20
-26.60000000000002
 10
101.2
 20
-23.39999999999998
 10
101.4
 20
-23.19999999999999
 10
106.6
 20
-23.19999999999999
 10
106.8
 20
-23.39999999999998
 10
106.8
 20
-26.60000000000002
 10
106.6
 20
-26.80000000000001
 10
101.4
 20
-26.80000000000001
 10
101.2
 20
-26.60000000000002
  0
LINE
  5
132
100
AcDbEntity
  8
ramka
  6
ByLayer
 62
  256
370
   -1
100
AcDbLine
 10
101.3
 20
-23
 11
5.699999999999985
 21
-23
  0
LINE
  5
133
100
AcDbEntity
  8
ramka
  6
ByLayer
 62
  256
370
   -1
100
AcDbLine
 10
5.699999999999989
 20
-27
 11
101.3
 21
-27
  0
LWPOLYLINE
  5
134
100
AcDbEntity
  8
list
  6
ByLayer
 62
  256
370
   -1
100
AcDbPolyline
 90
    6
 70
    1
 43
0
 10
4.999999999999986
 20
3
 10
102
 20
3
 10
102
 20
199.0000000000001
 10
4.999999999999986
 20
199.0000000000001
 10
4.999999999999986
 20
199.0000000000001
 10
4.999999999999986
 20
199.0000000000001
  0
LWPOLYLINE
  5
135
100
AcDbEntity
  8
dveri
  6
DASHED2
 62
  256
370
   -1
100
AcDbPolyline
 90
    4
 70
    1
 43
0
 10
6.299999999999986
 20
70.30000000000001
 10
100.7
 20
70.30000000000001
 10
100.7
 20
66.30000000000001
 10
6.299999999999986
 20
66.30000000000001
  0
LWPOLYLINE
  5
136
100
AcDbEntity
  8
dveri
  6
DASHED2
 62
  256
370
   -1
100
AcDbPolyline
 90
    4
 70
    1
 43
0
 10
6.299999999999986
 20
135.7
 10
100.7
 20
135.7
 10
100.7
 20
131.7
 10
6.299999999999986
 20
131.7
  0
LWPOLYLINE
  5
137
100
AcDbEntity
  8
ramka
  6
ByLayer
 62
  256
370
   -1
100
AcDbPolyline
 90
    4
 70
    1
 43
0
 10
101
 20
204
 10
5.999999999999986
 20
204
 10
5.999999999999986
 20
209.9999999999999
 10
101
 20
209.9999999999999
  0
LINE
  5
138
100
AcDbEntity
  8
wall
  6
DASHED2
 62
  256
370
   -1
100
AcDbLine
 10
1.999996050502873
 20
211
 11
104.9999960505029
 21
211
  0
LWPOLYLINE
  5
139
100
AcDbEntity
  8
ramka
  6
ByLayer
 62
  256
370
   -1
100
AcDbPolyline
 90
    9
 70
    0
 43
0
 10
135
 20
204.2999999999996
 10
134.7
 20
203.9999999999996
 10
131.3
 20
203.9999999999996
 10
131
 20
204.2999999999996
 10
131
 20
209.6999999999996
 10
131.3
 20
209.9999999999996
 10
134.7
 20
209.9999999999996
 10
135
 20
209.6999999999996
 10
135
 20
204.2999999999996
  0
LWPOLYLINE
  5
13A
100
AcDbEntity
  8
ramka
  6
ByLayer
 62
  256
370
   -1
100
AcDbPolyline
 90
    9
 70
    0
 43
0
 10
134.6
 20
204.1999999999996
 10
131.4
 20
204.1999999999996
 10
131.2
 20
204.3999999999996
 10
131.2
 20
209.5999999999996
 10
131.4
 20
209.7999999999996
 10
134.6
 20
209.7999999999996
 10
134.8
 20
209.5999999999996
 10
134.8
 20
204.3999999999996
 10
134.6
 20
204.1999999999996
  0
DIMENSION
  5
13B
100
AcDbEntity
  8
rozmir
  6
ByLayer
 62
  256
370
   -1
100
AcDbDimension
  2
*D6
 10
-6.500000000000014
 20
173.0000000000001
 30
0
 11
-9.500000000000014
 21
191.5000000000001
 31
0
 70
   32
 71
    5
 72
    0
  3
Standard
 53
0
210
0
220
0
230
1
100
AcDbAlignedDimension
 13
-1.4210854715202e-14
 23
210
 33
0
 14
1.999999999999935
 24
173.0000000000001
 34
0
 50
90
100
AcDbRotatedDimension
  0
DIMENSION
  5
13C
100
AcDbEntity
  8
rozmir
  6
ByLayer
 62
  256
370
   -1
100
AcDbDimension
  2
*D7
 10
-6.500000000000014
 20
29
 30
0
 11
-9.500000000000014
 21
14.5
 31
0
 70
   32
 71
    5
 72
    0
  3
Standard
 53
0
210
0
220
0
230
1
100
AcDbAlignedDimension
 13
-4.440892098500626e-16
 23
0
 33
0
 14
1.999999999999986
 24
29
 34
0
 50
90
100
AcDbRotatedDimension
  0
DIMENSION
  5
13D
100
AcDbEntity
  8
rozmir
  6
ByLayer
 62
  256
370
   -1
100
AcDbDimension
  2
*D8
 10
-16.50000000000001
 20
0
 30
0
 11
-19.50000000000001
 21
105
 31
0
 70
   32
 71
    5
 72
    0
  3
Standard
 53
0
210
0
220
0
230
1
100
AcDbAlignedDimension
 13
-1.4210854715202e-14
 23
210
 33
0
 14
-4.440892098500626e-16
 24
0
 34
0
 50
90
100
AcDbRotatedDimension
  0
DIMENSION
  5
13E
100
AcDbEntity
  8
rozmir
  6
ByLayer
 62
  256
370
   -1
100
AcDbDimension
  2
*D9
 10
101
 20
-19
 30
0
 11
53.49999999999999
 21
-16
 31
0
 70
   32
 71
    5
 72
    0
  3
Standard
 53
0
210
0
220
0
230
1
100
AcDbAlignedDimension
 13
5.999999999999986
 23
-23.30000000000001
 33
0
 14
101
 24
-23.30000000000001
 34
0
100
AcDbRotatedDimension
  0
MTEXT
  5
13F
100
AcDbEntity
  8
text
  6
ByLayer
 62
  256
370
   -1
100
AcDbMText
 10
56.49999999999999
 20
33
 30
0
 40
5
 41
51.80555555555587
 71
    8
 72
    1
  1
 40403
  7
cyrillic_ii
210
0
220
0
230
1
 50
0
 73
    2
 44
1
  0
LEADER
  5
140
100
AcDbEntity
  8
text
  6
ByLayer
 62
  256
370
   -1
100
AcDbLeader
  3
Standard
 71
    1
 72
    0
 73
    3
 74
    0
 75
    0
 40
1
 41
10
 76
3
 76
3
 10
17.49999999999999
 20
2
 30
0
 10
29.49999999999999
 20
33
 30
0
 10
83.49999999999999
 20
33
 30
0
  0
MTEXT
  5
141
100
AcDbEntity
  8
text
  6
ByLayer
 62
  256
370
   -1
100
AcDbMText
 10
53.49999999999999
 20
173
 30
0
 40
5
 41
51.25000000000032
 71
    8
 72
    1
  1
 60402
  7
cyrillic_ii
210
0
220
0
230
1
 50
0
 73
    2
 44
1
  0
LEADER
  5
142
100
AcDbEntity
  8
text
  6
ByLayer
 62
  256
370
   -1
100
AcDbLeader
  3
Standard
 71
    1
 72
    0
 73
    3
 74
    0
 75
    0
 40
1
 41
10
 76
4
 76
4
 10
3.499999999999986
 20
161
 30
0
 10
23.49999999999999
 20
173
 30
0
 10
81.49999999999999
 20
173
 30
0
 10
81.49999999999999
 20
173
 30
0
  0
LEADER
  5
143
100
AcDbEntity
  8
text
  6
ByLayer
 62
  256
370
   -1
100
AcDbLeader
  3
Standard
 71
    1
 72
    0
 73
    3
 74
    0
 75
    0
 40
1
 41
10
 76
2
 76
2
 10
15.49999999999999
 20
201
 30
0
 10
23.49999999999999
 20
173
 30
0
  0
LEADER
  5
144
100
AcDbEntity
  8
text
  6
ByLayer
 62
  256
370
   -1
100
AcDbLeader
  3
Standard
 71
    1
 72
    0
 73
    3
 74
    0
 75
    0
 40
1
 41
10
 76
2
 76
2
 10
103.5
 20
163
 30
0
 10
81.49999999999999
 20
173
 30
0
  0
LWPOLYLINE
  5
145
100
AcDbEntity
  8
dveri
  6
ByLayer
 62
  256
370
   -1
100
AcDbPolyline
 90
    6
 70
    1
 43
0
 10
170
 20
0
 10
264.4
 20
0
 10
264.4
 20
193.4
 10
170
 20
193.4
 10
170
 20
193.4
 10
170
 20
193.4
  0
LWPOLYLINE
  5
146
100
AcDbEntity
  8
dveri
  6
ByLayer
 62
  256
370
   -1
100
AcDbPolyline
 90
    6
 70
    1
 43
0
 10
174
 20
4
 10
260.4
 20
4
 10
260.4
 20
189.4
 10
174
 20
189.4
 10
174
 20
189.4
 10
174
 20
189.4
  0
LWPOLYLINE
  5
147
100
AcDbEntity
  8
dveri
  6
ByLayer
 62
  256
370
   -1
100
AcDbPolyline
 90
    6
 70
    1
 43
0
 10
174
 20
66
 10
260.4
 20
66
 10
260.4
 20
62
 10
174
 20
62
 10
174
 20
62
 10
174
 20
62
  0
LWPOLYLINE
  5
148
100
AcDbEntity
  8
dveri
  6
ByLayer
 62
  256
370
   -1
100
AcDbPolyline
 90
    5
 70
    1
 43
0
 10
174
 20
131.4
 10
260.4
 20
131.4
 10
260.4
 20
127.4
 10
174
 20
127.4
 10
174
 20
127.4
  0
DIMENSION
  5
149
100
AcDbEntity
  8
rozmir
  6
ByLayer
 62
  256
370
   -1
100
AcDbDimension
  2
*D14
 10
267.4
 20
206
 30
0
 11
217.2
 21
209
 31
0
 70
   32
 71
    5
  3
Standard
 53
0
210
0
220
0
230
1
100
AcDbAlignedDimension
 13
170
 23
193.4
 33
0
 14
264.4
 24
193.4
 34
0
100
AcDbRotatedDimension
  0
DIMENSION
  5
14A
100
AcDbEntity
  8
rozmir
  6
ByLayer
 62
  256
370
   -1
100
AcDbDimension
  2
*D15
 10
277
 20
60
 30
0
 11
274
 21
31
 31
0
 70
   32
 71
    5
  3
Standard
 53
0
210
0
220
0
230
1
100
AcDbAlignedDimension
 13
264.4
 23
0
 33
0
 14
260.4
 24
62
 34
0
 50
90
100
AcDbRotatedDimension
  0
DIMENSION
  5
14B
100
AcDbEntity
  8
rozmir
  6
ByLayer
 62
  256
370
   -1
100
AcDbDimension
  2
*D16
 10
277
 20
131.4
 30
0
 11
274
 21
162.4
 31
0
 70
   32
 71
    5
  3
Standard
 53
0
210
0
220
0
230
1
100
AcDbAlignedDimension
 13
264.4
 23
193.4
 33
0
 14
260.4
 24
131.4
 34
0
 50
90
100
AcDbRotatedDimension
  0
DIMENSION
  5
14C
100
AcDbEntity
  8
rozmir
  6
ByLayer
 62
  256
370
   -1
100
AcDbDimension
  2
*D17
 10
287
 20
-2.767701766073014e-15
 30
0
 11
284
 21
96.7
 31
0
 70
   32
 71
    5
  3
Standard
 53
0
210
0
220
0
230
1
100
AcDbAlignedDimension
 13
264.4
 23
193.4
 33
0
 14
264.4
 24
0
 34
0
 50
90
100
AcDbRotatedDimension
  0
LEADER
  5
14D
100
AcDbEntity
  8
text
  6
ByLayer
 62
  256
370
   -1
100
AcDbLeader
  3
Standard
 71
    1
 72
    0
 73
    3
 74
    0
 75
    0
 40
1
 41
10
 76
2
 76
2
 10
262
 20
147
 30
0
 10
243
 20
159
 30
0
  0
MTEXT
  5
14E
100
AcDbEntity
  8
text
  6
ByLayer
 62
  256
370
   -1
100
AcDbMText
 10
140
 20
240
 30
0
 40
10
 41
46.38888888888889
 71
    8
 72
    1
  1
 1
  7
cyrillic_ii
210
0
220
0
230
1
 50
0
 73
    2
 44
1
  0
LINE
  5
14F
100
AcDbEntity
  8
text
  6
ByLayer
 62
  256
370
   -1
100
AcDbLine
 10
115
 20
240
 11
167
 21
240
  0
DIMENSION
  5
150
100
AcDbEntity
  8
rozmir
  6
ByLayer
 62
  256
370
   -1
100
AcDbDimension
  2
*D19
 10
6
 20
216
 30
0
 11
53.5
 21
219
 31
0
 70
   32
 71
    5
 72
    0
  3
Standard
 53
0
210
0
220
0
230
1
100
AcDbAlignedDimension
 13
101
 23
210
 33
0
 14
6
 24
209.9999999999999
 34
0
100
AcDbRotatedDimension
  0
DIMENSION
  5
151
100
AcDbEntity
  8
rozmir
  6
ByLayer
 62
  256
370
   -1
100
AcDbDimension
  2
*D20
 10
107
 20
225
 30
0
 11
53.49999999999999
 21
228
 31
0
 70
   32
 71
    5
 72
    0
  3
Standard
 53
0
210
0
220
0
230
1
100
AcDbAlignedDimension
 13
-1.465494392505207e-14
 23
210
 33
0
 14
107
 24
210
 34
0
100
AcDbRotatedDimension
  0
LWPOLYLINE
  5
152
100
AcDbEntity
  8
ramka
  6
ByLayer
 62
  256
370
   -1
100
AcDbPolyline
 90
    4
 70
    1
 43
0
 10
5.999999999999986
 20
209.9999999999999
 10
-1.4210854715202e-14
 20
210
 10
0
 20
4.000000000000001
 10
5.999999999999986
 20
4
  0
LWPOLYLINE
  5
153
100
AcDbEntity
  8
ramka
  6
ByLayer
 62
  256
370
   -1
100
AcDbPolyline
 90
    4
 70
    1
 43
0
 10
107
 20
210
 10
101
 20
209.9999999999999
 10
101
 20
4
 10
107
 20
4
  0
LWPOLYLINE
  5
154
100
AcDbEntity
  8
ramka
  6
ByLayer
 62
  256
370
   -1
100
AcDbPolyline
 90
    4
 70
    1
 43
0
 10
0
 20
4.000000000000001
 10
107
 20
4
 10
107
 20
0
 10
0
 20
5.551115123125783e-17
  0
ENDSEC
  0
SECTION
  2
OBJECTS
  0
DICTIONARY
  5
C
330
0
100
AcDbDictionary
281
    1
  3
ACAD_GROUP
350
D
  0
DICTIONARY
  5
D
330
C
100
AcDbDictionary
281
    1
  0
ENDSEC
  0
EOF
