999
dxfrw 0.6.3
  0
SECTION
  2
HEADER
  9
$ACADVER
  1
AC1021
  9
$DWGCODEPAGE
  3
ANSI_1252
  9
$INSBASE
 10
0
 20
0
 30
0
  9
$EXTMIN
 10
-3.5
 20
-23.5
 30
0
  9
$EXTMAX
 10
37.5
 20
19.60031680821658
 30
0
  9
$LIMMIN
 10
0
 20
0
  9
$LIMMAX
 10
420
 20
297
  9
$ORTHOMODE
 70
    0
  9
$REGENMODE
 70
    1
  9
$FILLMODE
 70
    1
  9
$QTEXTMODE
 70
    0
  9
$MIRRTEXT
 70
    0
  9
$LTSCALE
 40
1
  9
$ATTMODE
 70
    0
  9
$TEXTSIZE
 40
2.5
  9
$TRACEWID
 40
15.68
  9
$TEXTSTYLE
  7
STANDARD
  9
$CLAYER
  8
rozmir
  9
$CELTYPE
  6
BYLAYER
  9
$CECOLOR
 62
  256
  9
$CELTSCALE
 40
1
  9
$DISPSILH
 70
    0
  9
$DIMSCALE
 40
1
  9
$DIMASZ
 40
1
  9
$DIMEXO
 40
0.5
  9
$DIMDLI
 40
3.75
  9
$DIMRND
 40
0
  9
$DIMDLE
 40
0
  9
$DIMEXE
 40
0.5
  9
$DIMTP
 40
0
  9
$DIMTM
 40
0
  9
$DIMTXT
 40
0.7
  9
$DIMCEN
 40
2.5
  9
$DIMTSZ
 40
0
  9
$DIMTOL
 70
    0
  9
$DIMLIM
 70
    0
  9
$DIMTIH
 70
    0
  9
$DIMTOH
 70
    0
  9
$DIMSE1
 70
    0
  9
$DIMSE2
 70
    0
  9
$DIMTAD
 70
    1
  9
$DIMZIN
 70
    8
  9
$DIMBLK
  1

  9
$DIMASO
 70
    1
  9
$DIMSHO
 70
    1
  9
$DIMPOST
  1

  9
$DIMAPOST
  1

  9
$DIMALT
 70
    0
  9
$DIMALTD
 70
    3
  9
$DIMALTF
 40
0.03937
  9
$DIMLFAC
 40
10
  9
$DIMTOFL
 70
    1
  9
$DIMTVP
 40
0
  9
$DIMTIX
 70
    0
  9
$DIMSOXD
 70
    0
  9
$DIMSAH
 70
    0
  9
$DIMBLK1
  1

  9
$DIMBLK2
  1

  9
$DIMSTYLE
  2
STANDARD
  9
$DIMCLRD
 70
    0
  9
$DIMCLRE
 70
    0
  9
$DIMCLRT
 70
    0
  9
$DIMTFAC
 40
1
  9
$DIMGAP
 40
0.3
  9
$DIMJUST
 70
    0
  9
$DIMSD1
 70
    0
  9
$DIMSD2
 70
    0
  9
$DIMTOLJ
 70
    0
  9
$DIMTZIN
 70
    8
  9
$DIMALTZ
 70
    0
  9
$DIMALTTZ
 70
    0
  9
$DIMUPT
 70
    0
  9
$DIMDEC
 70
    1
  9
$DIMTDEC
 70
    2
  9
$DIMALTU
 70
    2
  9
$DIMALTTD
 70
    3
  9
$DIMTXSTY
  7
standard
  9
$DIMAUNIT
 70
    0
  9
$DIMADEC
 70
    0
  9
$DIMALTRND
 40
0
  9
$DIMAZIN
 70
    0
  9
$DIMDSEP
 70
   44
  9
$DIMATFIT
 70
    3
  9
$DIMFRAC
 70
    0
  9
$DIMLDRBLK
  1
STANDARD
  9
$DIMLUNIT
 70
    2
  9
$DIMLWD
 70
   -2
  9
$DIMLWE
 70
   -2
  9
$DIMTMOVE
 70
    0
  9
$DIMFXL
 40
1
  9
$DIMFXLON
 70
    0
  9
$DIMJOGANG
 40
0.7854
  9
$DIMTFILL
 70
    0
  9
$DIMTFILLCLR
 70
    0
  9
$DIMARCSYM
 70
    0
  9
$DIMLTYPE
  6

  9
$DIMLTEX1
  6

  9
$DIMLTEX2
  6

  9
$LUNITS
 70
    2
  9
$LUPREC
 70
    2
  9
$SKETCHINC
 40
1
  9
$FILLETRAD
 40
0
  9
$AUNITS
 70
    0
  9
$AUPREC
 70
    2
  9
$MENU
  1
.
  9
$ELEVATION
 40
0
  9
$PELEVATION
 40
0
  9
$THICKNESS
 40
0
  9
$LIMCHECK
 70
    0
  9
$CHAMFERA
 40
0
  9
$CHAMFERB
 40
0
  9
$CHAMFERC
 40
0
  9
$CHAMFERD
 40
0
  9
$SKPOLY
 70
    0
  9
$USRTIMER
 70
    1
  9
$ANGBASE
 50
0
  9
$ANGDIR
 70
    0
  9
$PDMODE
 70
   34
  9
$PDSIZE
 40
0
  9
$PLINEWID
 40
0
  9
$SPLFRAME
 70
    0
  9
$SPLINETYPE
 70
    2
  9
$SPLINESEGS
 70
    8
  9
$HANDSEED
  5
20000
  9
$SURFTAB1
 70
    6
  9
$SURFTAB2
 70
    6
  9
$SURFTYPE
 70
    6
  9
$SURFU
 70
    6
  9
$SURFV
 70
    6
  9
$UCSBASE
  2

  9
$UCSNAME
  2

  9
$UCSORG
 10
0
 20
0
 30
0
  9
$UCSXDIR
 10
1
 20
0
 30
0
  9
$UCSYDIR
 10
0
 20
1
 30
0
  9
$UCSORTHOREF
  2

  9
$UCSORTHOVIEW
 70
    0
  9
$UCSORGTOP
 10
0
 20
0
 30
0
  9
$UCSORGBOTTOM
 10
0
 20
0
 30
0
  9
$UCSORGLEFT
 10
0
 20
0
 30
0
  9
$UCSORGRIGHT
 10
0
 20
0
 30
0
  9
$UCSORGFRONT
 10
0
 20
0
 30
0
  9
$UCSORGBACK
 10
0
 20
0
 30
0
  9
$PUCSBASE
  2

  9
$PUCSNAME
  2

  9
$PUCSORG
 10
0
 20
0
 30
0
  9
$PUCSXDIR
 10
1
 20
0
 30
0
  9
$PUCSYDIR
 10
0
 20
1
 30
0
  9
$PUCSORTHOREF
  2

  9
$PUCSORTHOVIEW
 70
    0
  9
$PUCSORGTOP
 10
0
 20
0
 30
0
  9
$PUCSORGBOTTOM
 10
0
 20
0
 30
0
  9
$PUCSORGLEFT
 10
0
 20
0
 30
0
  9
$PUCSORGRIGHT
 10
0
 20
0
 30
0
  9
$PUCSORGFRONT
 10
0
 20
0
 30
0
  9
$PUCSORGBACK
 10
0
 20
0
 30
0
  9
$USERI1
 70
    0
  9
$USERI2
 70
    0
  9
$USERI3
 70
    0
  9
$USERI4
 70
    0
  9
$USERI5
 70
    0
  9
$USERR1
 40
0
  9
$USERR2
 40
0
  9
$USERR3
 40
0
  9
$USERR4
 40
0
  9
$USERR5
 40
0
  9
$WORLDVIEW
 70
    1
  9
$SHADEDGE
 70
    3
  9
$SHADEDIF
 70
   70
  9
$TILEMODE
 70
    1
  9
$MAXACTVP
 70
   64
  9
$PINSBASE
 10
6.882448377581122
 20
9.108407079646017
 30
0
  9
$PLIMCHECK
 70
    0
  9
$PEXTMIN
 10
0
 20
0
 30
0
  9
$PEXTMAX
 10
0
 20
0
 30
0
  9
$GRIDMODE
 70
    1
  9
$SNAPSTYLE
 70
    0
  9
$GRIDUNIT
 10
0
 20
0
  9
$PLIMMIN
 10
0
 20
0
  9
$PLIMMAX
 10
29.7
 20
21
  9
$UNITMODE
 70
    0
  9
$VISRETAIN
 70
    1
  9
$PLINEGEN
 70
    0
  9
$PSLTSCALE
 70
    1
  9
$TREEDEPTH
 70
 3020
  9
$CMLSTYLE
  2
Standard
  9
$CMLJUST
 70
    0
  9
$CMLSCALE
 40
20
  9
$PROXYGRAPHICS
 70
    1
  9
$MEASUREMENT
 70
    1
  9
$CELWEIGHT
370
   -1
  9
$ENDCAPS
280
    0
  9
$JOINSTYLE
280
    0
  9
$LWDISPLAY
290
    0
  9
$INSUNITS
 70
    5
  9
$HYPERLINKBASE
  1

  9
$STYLESHEET
  1

  9
$XEDIT
290
    1
  9
$CEPSNTYPE
380
    0
  9
$PSTYLEMODE
290
    1
  9
$EXTNAMES
290
    1
  9
$PSVPSCALE
 40
0.3274340629655703
  9
$OLESTARTUP
290
    0
  9
$SORTENTS
280
  127
  9
$INDEXCTL
280
    0
  9
$HIDETEXT
280
    1
  9
$XCLIPFRAME
290
    0
  9
$HALOGAP
280
    0
  9
$OBSCOLOR
 70
  257
  9
$OBSLTYPE
280
    0
  9
$INTERSECTIONDISPLAY
280
    0
  9
$INTERSECTIONCOLOR
 70
  257
  9
$DIMASSOC
280
    1
  9
$PROJECTNAME
  1

  9
$CAMERADISPLAY
290
    0
  9
$LENSLENGTH
 40
50
  9
$CAMERAHEIGHT
 40
0
  9
$STEPSPERSEC
 40
2
  9
$STEPSIZE
 40
50
  9
$3DDWFPREC
 40
2
  9
$PSOLWIDTH
 40
5
  9
$PSOLHEIGHT
 40
80
  9
$LOFTANG1
 40
1.570796326794897
  9
$LOFTANG2
 40
1.570796326794897
  9
$LOFTMAG1
 40
0
  9
$LOFTMAG2
 40
0
  9
$LOFTPARAM
 70
    7
  9
$LOFTNORMALS
280
    1
  9
$LATITUDE
 40
1
  9
$LONGITUDE
 40
1
  9
$NORTHDIRECTION
 40
0
  9
$TIMEZONE
 70
-8000
  9
$LIGHTGLYPHDISPLAY
280
    1
  9
$TILEMODELIGHTSYNCH
280
    1
  9
$SOLIDHIST
280
    1
  9
$SHOWHIST
280
    1
  9
$DWFFRAME
280
    2
  9
$DGNFRAME
280
    0
  9
$REALWORLDSCALE
290
    1
  9
$INTERFERECOLOR
 62
    1
  9
$CSHADOW
280
    0
  9
$SHADOWPLANELOCATION
 40
0
  0
ENDSEC
  0
SECTION
  2
CLASSES
  0
ENDSEC
  0
SECTION
  2
TABLES
  0
TABLE
  2
VPORT
  5
8
330
0
100
AcDbSymbolTable
 70
    1
  0
VPORT
  5
31
330
2
100
AcDbSymbolTableRecord
100
AcDbViewportTableRecord
  2
*ACTIVE
 70
    0
 10
0
 20
0
 11
1
 21
1
 12
32.57954141447731
 22
11.13134331661308
 13
0
 23
0
 14
10
 24
10
 15
10
 25
10
 16
0
 26
0
 36
1
 17
0
 27
0
 37
0
 40
50.43041514782634
 41
1.985195154777927
 42
50
 43
0
 44
0
 50
0
 51
0
 71
    0
 72
  100
 73
    1
 74
    3
 75
    0
 76
    1
 77
    0
 78
    0
281
    0
 65
    1
110
0
120
0
130
0
111
1
121
0
131
0
112
0
122
1
132
0
 79
    0
146
0
348
10020
 60
    7
 61
    5
292
1
282
    1
141
0
142
0
 63
  250
421
3358443
  0
ENDTAB
  0
TABLE
  2
LTYPE
  5
5
330
0
100
AcDbSymbolTable
 70
    4
  0
LTYPE
  5
14
330
5
100
AcDbSymbolTableRecord
100
AcDbLinetypeTableRecord
  2
ByBlock
 70
    0
  3

 72
   65
 73
    0
 40
0
  0
LTYPE
  5
15
330
5
100
AcDbSymbolTableRecord
100
AcDbLinetypeTableRecord
  2
ByLayer
 70
    0
  3

 72
   65
 73
    0
 40
0
  0
LTYPE
  5
16
330
5
100
AcDbSymbolTableRecord
100
AcDbLinetypeTableRecord
  2
Continuous
 70
    0
  3
Solid line
 72
   65
 73
    0
 40
0
  0
LTYPE
  5
32
330
5
100
AcDbSymbolTableRecord
100
AcDbLinetypeTableRecord
  2
DOT
 70
    0
  3
Dot . . . . . . . . . . . . . . . . . . . . . .
 72
   65
 73
    2
 40
6.35
 49
0
 74
    0
 49
-6.35
 74
    0
  0
LTYPE
  5
33
330
5
100
AcDbSymbolTableRecord
100
AcDbLinetypeTableRecord
  2
DOTTINY
 70
    0
  3
Dot (.15x) .....................................
 72
   65
 73
    2
 40
0.9525
 49
0
 74
    0
 49
-0.9525
 74
    0
  0
LTYPE
  5
34
330
5
100
AcDbSymbolTableRecord
100
AcDbLinetypeTableRecord
  2
DOT2
 70
    0
  3
Dot (.5x) .....................................
 72
   65
 73
    2
 40
3.175
 49
0
 74
    0
 49
-3.175
 74
    0
  0
LTYPE
  5
35
330
5
100
AcDbSymbolTableRecord
100
AcDbLinetypeTableRecord
  2
DOTX2
 70
    0
  3
Dot (2x) .  .  .  .  .  .  .  .  .  .  .  .  .
 72
   65
 73
    2
 40
12.7
 49
0
 74
    0
 49
-12.7
 74
    0
  0
LTYPE
  5
36
330
5
100
AcDbSymbolTableRecord
100
AcDbLinetypeTableRecord
  2
DASHED
 70
    0
  3
Dashed _ _ _ _ _ _ _ _ _ _ _ _ _ _ _ _ _
 72
   65
 73
    2
 40
19.05
 49
12.7
 74
    0
 49
-6.35
 74
    0
  0
LTYPE
  5
37
330
5
100
AcDbSymbolTableRecord
100
AcDbLinetypeTableRecord
  2
DASHEDTINY
 70
    0
  3
Dashed (.15x) _ _ _ _ _ _ _ _ _ _ _ _ _ _ _ _ _
 72
   65
 73
    2
 40
2.8575
 49
1.905
 74
    0
 49
-0.9525
 74
    0
  0
LTYPE
  5
38
330
5
100
AcDbSymbolTableRecord
100
AcDbLinetypeTableRecord
  2
DASHED2
 70
    0
  3
Dashed (.5x) _ _ _ _ _ _ _ _ _ _ _ _ _ _ _ _ _
 72
   65
 73
    2
 40
9.524999999999999
 49
6.35
 74
    0
 49
-3.175
 74
    0
  0
LTYPE
  5
39
330
5
100
AcDbSymbolTableRecord
100
AcDbLinetypeTableRecord
  2
DASHEDX2
 70
    0
  3
Dashed (2x) ____  ____  ____  ____  ____  ___
 72
   65
 73
    2
 40
38.09999999999999
 49
25.4
 74
    0
 49
-12.7
 74
    0
  0
LTYPE
  5
3A
330
5
100
AcDbSymbolTableRecord
100
AcDbLinetypeTableRecord
  2
DASHDOT
 70
    0
  3
Dash dot __ . __ . __ . __ . __ . __ . __ . __
 72
   65
 73
    4
 40
25.4
 49
12.7
 74
    0
 49
-6.35
 74
    0
 49
0
 74
    0
 49
-6.35
 74
    0
  0
LTYPE
  5
3B
330
5
100
AcDbSymbolTableRecord
100
AcDbLinetypeTableRecord
  2
DASHDOTTINY
 70
    0
  3
Dash dot (.15x) _._._._._._._._._._._._._._._.
 72
   65
 73
    4
 40
3.81
 49
1.905
 74
    0
 49
-0.9525
 74
    0
 49
0
 74
    0
 49
-0.9525
 74
    0
  0
LTYPE
  5
3C
330
5
100
AcDbSymbolTableRecord
100
AcDbLinetypeTableRecord
  2
DASHDOT2
 70
    0
  3
Dash dot (.5x) _._._._._._._._._._._._._._._.
 72
   65
 73
    4
 40
12.7
 49
6.35
 74
    0
 49
-3.175
 74
    0
 49
0
 74
    0
 49
-3.175
 74
    0
  0
LTYPE
  5
3D
330
5
100
AcDbSymbolTableRecord
100
AcDbLinetypeTableRecord
  2
DASHDOTX2
 70
    0
  3
Dash dot (2x) ____  .  ____  .  ____  .  ___
 72
   65
 73
    4
 40
50.8
 49
25.4
 74
    0
 49
-12.7
 74
    0
 49
0
 74
    0
 49
-12.7
 74
    0
  0
LTYPE
  5
3E
330
5
100
AcDbSymbolTableRecord
100
AcDbLinetypeTableRecord
  2
DIVIDE
 70
    0
  3
Divide ____ . . ____ . . ____ . . ____ . . ____
 72
   65
 73
    6
 40
31.75
 49
12.7
 74
    0
 49
-6.35
 74
    0
 49
0
 74
    0
 49
-6.35
 74
    0
 49
0
 74
    0
 49
-6.35
 74
    0
  0
LTYPE
  5
3F
330
5
100
AcDbSymbolTableRecord
100
AcDbLinetypeTableRecord
  2
DIVIDETINY
 70
    0
  3
Divide (.15x) __..__..__..__..__..__..__..__.._
 72
   65
 73
    6
 40
4.7625
 49
1.905
 74
    0
 49
-0.9525
 74
    0
 49
0
 74
    0
 49
-0.9525
 74
    0
 49
0
 74
    0
 49
-0.9525
 74
    0
  0
LTYPE
  5
40
330
5
100
AcDbSymbolTableRecord
100
AcDbLinetypeTableRecord
  2
DIVIDE2
 70
    0
  3
Divide (.5x) __..__..__..__..__..__..__..__.._
 72
   65
 73
    6
 40
15.875
 49
6.35
 74
    0
 49
-3.175
 74
    0
 49
0
 74
    0
 49
-3.175
 74
    0
 49
0
 74
    0
 49
-3.175
 74
    0
  0
LTYPE
  5
41
330
5
100
AcDbSymbolTableRecord
100
AcDbLinetypeTableRecord
  2
DIVIDEX2
 70
    0
  3
Divide (2x) ________  .  .  ________  .  .  _
 72
   65
 73
    6
 40
63.5
 49
25.4
 74
    0
 49
-12.7
 74
    0
 49
0
 74
    0
 49
-12.7
 74
    0
 49
0
 74
    0
 49
-12.7
 74
    0
  0
LTYPE
  5
42
330
5
100
AcDbSymbolTableRecord
100
AcDbLinetypeTableRecord
  2
BORDER
 70
    0
  3
Border __ __ . __ __ . __ __ . __ __ . __ __ .
 72
   65
 73
    6
 40
44.45
 49
12.7
 74
    0
 49
-6.35
 74
    0
 49
12.7
 74
    0
 49
-6.35
 74
    0
 49
0
 74
    0
 49
-6.35
 74
    0
  0
LTYPE
  5
43
330
5
100
AcDbSymbolTableRecord
100
AcDbLinetypeTableRecord
  2
BORDERTINY
 70
    0
  3
Border (.15x) __.__.__.__.__.__.__.__.__.__.__.
 72
   65
 73
    6
 40
6.6675
 49
1.905
 74
    0
 49
-0.9525
 74
    0
 49
1.905
 74
    0
 49
-0.9525
 74
    0
 49
0
 74
    0
 49
-0.9525
 74
    0
  0
LTYPE
  5
44
330
5
100
AcDbSymbolTableRecord
100
AcDbLinetypeTableRecord
  2
BORDER2
 70
    0
  3
Border (.5x) __.__.__.__.__.__.__.__.__.__.__.
 72
   65
 73
    6
 40
22.225
 49
6.35
 74
    0
 49
-3.175
 74
    0
 49
6.35
 74
    0
 49
-3.175
 74
    0
 49
0
 74
    0
 49
-3.175
 74
    0
  0
LTYPE
  5
45
330
5
100
AcDbSymbolTableRecord
100
AcDbLinetypeTableRecord
  2
BORDERX2
 70
    0
  3
Border (2x) ____  ____  .  ____  ____  .  ___
 72
   65
 73
    6
 40
88.89999999999999
 49
25.4
 74
    0
 49
-12.7
 74
    0
 49
25.4
 74
    0
 49
-12.7
 74
    0
 49
0
 74
    0
 49
-12.7
 74
    0
  0
LTYPE
  5
46
330
5
100
AcDbSymbolTableRecord
100
AcDbLinetypeTableRecord
  2
CENTER
 70
    0
  3
Center ____ _ ____ _ ____ _ ____ _ ____ _ ____
 72
   65
 73
    4
 40
50.8
 49
31.75
 74
    0
 49
-6.35
 74
    0
 49
6.35
 74
    0
 49
-6.35
 74
    0
  0
LTYPE
  5
47
330
5
100
AcDbSymbolTableRecord
100
AcDbLinetypeTableRecord
  2
CENTERTINY
 70
    0
  3
Center (.15x) ___ _ ___ _ ___ _ ___ _ ___ _ ___
 72
   65
 73
    4
 40
7.619999999999999
 49
4.7625
 74
    0
 49
-0.9525
 74
    0
 49
0.9525
 74
    0
 49
-0.9525
 74
    0
  0
LTYPE
  5
48
330
5
100
AcDbSymbolTableRecord
100
AcDbLinetypeTableRecord
  2
CENTER2
 70
    0
  3
Center (.5x) ___ _ ___ _ ___ _ ___ _ ___ _ ___
 72
   65
 73
    4
 40
28.575
 49
19.05
 74
    0
 49
-3.175
 74
    0
 49
3.175
 74
    0
 49
-3.175
 74
    0
  0
LTYPE
  5
49
330
5
100
AcDbSymbolTableRecord
100
AcDbLinetypeTableRecord
  2
CENTERX2
 70
    0
  3
Center (2x) ________  __  ________  __  _____
 72
   65
 73
    4
 40
101.6
 49
63.5
 74
    0
 49
-12.7
 74
    0
 49
12.7
 74
    0
 49
-12.7
 74
    0
  0
ENDTAB
  0
TABLE
  2
LAYER
  5
2
330
0
100
AcDbSymbolTable
 70
    1
  0
LAYER
  5
10
330
2
100
AcDbSymbolTableRecord
100
AcDbLayerTableRecord
  2
0
 70
    0
 62
    7
  6
CONTINUOUS
370
   -3
390
F
1001
LibreCad
1070
    1
  0
LAYER
  5
4A
330
2
100
AcDbSymbolTableRecord
100
AcDbLayerTableRecord
  2
body
 70
    1
 62
   56
420
8421376
  6
CONTINUOUS
370
   50
390
F
  0
LAYER
  5
4B
330
2
100
AcDbSymbolTableRecord
100
AcDbLayerTableRecord
  2
face
 70
    0
 62
    3
  6
CONTINUOUS
370
   35
390
F
  0
LAYER
  5
4C
330
2
100
AcDbSymbolTableRecord
100
AcDbLayerTableRecord
  2
gratka
 70
    0
 62
    5
  6
CONTINUOUS
370
   25
390
F
  0
LAYER
  5
4D
330
2
100
AcDbSymbolTableRecord
100
AcDbLayerTableRecord
  2
kronshtein
 70
    0
 62
  176
420
  128
  6
CONTINUOUS
370
   25
390
F
  0
LAYER
  5
4E
330
2
100
AcDbSymbolTableRecord
100
AcDbLayerTableRecord
  2
rama
 70
    1
 62
  216
420
8388736
  6
CONTINUOUS
370
   50
390
F
  0
LAYER
  5
4F
330
2
100
AcDbSymbolTableRecord
100
AcDbLayerTableRecord
  2
rozmir
 70
    0
 62
    4
  6
CONTINUOUS
370
   13
390
F
  0
LAYER
  5
50
330
2
100
AcDbSymbolTableRecord
100
AcDbLayerTableRecord
  2
stvorka
 70
    1
 62
    6
  6
CONTINUOUS
370
   50
390
F
  0
LAYER
  5
51
330
2
100
AcDbSymbolTableRecord
100
AcDbLayerTableRecord
  2
tekst
 70
    0
 62
  136
420
32896
  6
CONTINUOUS
370
   13
390
F
  0
ENDTAB
  0
TABLE
  2
STYLE
  5
3
330
0
100
AcDbSymbolTable
 70
    3
  0
STYLE
  5
52
330
2
100
AcDbSymbolTableRecord
100
AcDbTextStyleTableRecord
  2
cyrillic_ii
 70
    0
 40
0
 41
1
 50
0
 71
    0
 42
1
  3
cyrillic_ii
  4

  0
STYLE
  5
53
330
2
100
AcDbSymbolTableRecord
100
AcDbTextStyleTableRecord
  2
Standard
 70
    0
 40
0
 41
1
 50
0
 71
    0
 42
1
  3
txt
  4

  0
ENDTAB
  0
TABLE
  2
VIEW
  5
6
330
0
100
AcDbSymbolTable
 70
    0
  0
ENDTAB
  0
TABLE
  2
UCS
  5
7
330
0
100
AcDbSymbolTable
 70
    0
  0
ENDTAB
  0
TABLE
  2
APPID
  5
9
330
0
100
AcDbSymbolTable
 70
    1
  0
APPID
  5
12
330
9
100
AcDbSymbolTableRecord
100
AcDbRegAppTableRecord
  2
ACAD
 70
    0
  0
APPID
  5
54
330
9
100
AcDbSymbolTableRecord
100
AcDbRegAppTableRecord
  2
LibreCad
 70
    0
  0
ENDTAB
  0
TABLE
  2
DIMSTYLE
  5
A
330
0
100
AcDbSymbolTable
 70
    1
100
AcDbDimStyleTable
 71
    1
  0
DIMSTYLE
105
55
330
A
100
AcDbSymbolTableRecord
100
AcDbDimStyleTableRecord
  2
Standard
 70
    0
 40
1
 41
1
 42
0.5
 43
0.38
 44
0.5
 45
0
 46
0
 47
0
 48
0
 49
1
140
0.7
141
0.09
142
0
143
25.4
144
10
145
0
146
1
147
0.3
148
0
 71
    0
 72
    0
 73
    0
 74
    1
 75
    0
 76
    0
 77
    0
 78
    8
 79
    0
170
    0
171
    2
172
    0
173
    0
174
    0
175
    0
176
    0
177
    0
178
    0
179
    0
271
    1
272
    4
273
    2
274
    2
275
    0
276
    0
277
    2
278
   44
279
    0
280
    0
281
    0
282
    0
283
    1
284
    0
285
    0
286
    0
288
    0
289
    3
340
standard
341

371
   -2
372
   -2
  0
ENDTAB
  0
TABLE
  2
BLOCK_RECORD
  5
1
330
0
100
AcDbSymbolTable
 70
    2
  0
BLOCK_RECORD
  5
1F
330
1
100
AcDbSymbolTableRecord
100
AcDbBlockTableRecord
  2
*Model_Space
 70
    0
280
    1
281
    0
  0
BLOCK_RECORD
  5
1E
330
1
100
AcDbSymbolTableRecord
100
AcDbBlockTableRecord
  2
*Paper_Space
 70
    0
280
    1
281
    0
  0
BLOCK_RECORD
  5
56
330
1
100
AcDbSymbolTableRecord
100
AcDbBlockTableRecord
  2
*D13
 70
    0
280
    1
281
    0
  0
BLOCK_RECORD
  5
59
330
1
100
AcDbSymbolTableRecord
100
AcDbBlockTableRecord
  2
*D23
 70
    0
280
    1
281
    0
  0
BLOCK_RECORD
  5
5C
330
1
100
AcDbSymbolTableRecord
100
AcDbBlockTableRecord
  2
*D10
 70
    0
280
    1
281
    0
  0
BLOCK_RECORD
  5
5F
330
1
100
AcDbSymbolTableRecord
100
AcDbBlockTableRecord
  2
*D33
 70
    0
280
    1
281
    0
  0
BLOCK_RECORD
  5
62
330
1
100
AcDbSymbolTableRecord
100
AcDbBlockTableRecord
  2
*D14
 70
    0
280
    1
281
    0
  0
BLOCK_RECORD
  5
65
330
1
100
AcDbSymbolTableRecord
100
AcDbBlockTableRecord
  2
*D1
 70
    0
280
    1
281
    0
  0
BLOCK_RECORD
  5
68
330
1
100
AcDbSymbolTableRecord
100
AcDbBlockTableRecord
  2
*D17
 70
    0
280
    1
281
    0
  0
BLOCK_RECORD
  5
6B
330
1
100
AcDbSymbolTableRecord
100
AcDbBlockTableRecord
  2
*D26
 70
    0
280
    1
281
    0
  0
BLOCK_RECORD
  5
6E
330
1
100
AcDbSymbolTableRecord
100
AcDbBlockTableRecord
  2
*D29
 70
    0
280
    1
281
    0
  0
BLOCK_RECORD
  5
71
330
1
100
AcDbSymbolTableRecord
100
AcDbBlockTableRecord
  2
*D19
 70
    0
280
    1
281
    0
  0
BLOCK_RECORD
  5
74
330
1
100
AcDbSymbolTableRecord
100
AcDbBlockTableRecord
  2
*D7
 70
    0
280
    1
281
    0
  0
BLOCK_RECORD
  5
77
330
1
100
AcDbSymbolTableRecord
100
AcDbBlockTableRecord
  2
*D27
 70
    0
280
    1
281
    0
  0
BLOCK_RECORD
  5
7A
330
1
100
AcDbSymbolTableRecord
100
AcDbBlockTableRecord
  2
*D31
 70
    0
280
    1
281
    0
  0
BLOCK_RECORD
  5
7D
330
1
100
AcDbSymbolTableRecord
100
AcDbBlockTableRecord
  2
*D3
 70
    0
280
    1
281
    0
  0
BLOCK_RECORD
  5
80
330
1
100
AcDbSymbolTableRecord
100
AcDbBlockTableRecord
  2
*D36
 70
    0
280
    1
281
    0
  0
BLOCK_RECORD
  5
83
330
1
100
AcDbSymbolTableRecord
100
AcDbBlockTableRecord
  2
*D2
 70
    0
280
    1
281
    0
  0
BLOCK_RECORD
  5
86
330
1
100
AcDbSymbolTableRecord
100
AcDbBlockTableRecord
  2
*D24
 70
    0
280
    1
281
    0
  0
BLOCK_RECORD
  5
89
330
1
100
AcDbSymbolTableRecord
100
AcDbBlockTableRecord
  2
*D38
 70
    0
280
    1
281
    0
  0
BLOCK_RECORD
  5
8C
330
1
100
AcDbSymbolTableRecord
100
AcDbBlockTableRecord
  2
*D8
 70
    0
280
    1
281
    0
  0
BLOCK_RECORD
  5
8F
330
1
100
AcDbSymbolTableRecord
100
AcDbBlockTableRecord
  2
*D4
 70
    0
280
    1
281
    0
  0
BLOCK_RECORD
  5
92
330
1
100
AcDbSymbolTableRecord
100
AcDbBlockTableRecord
  2
*D37
 70
    0
280
    1
281
    0
  0
BLOCK_RECORD
  5
95
330
1
100
AcDbSymbolTableRecord
100
AcDbBlockTableRecord
  2
*D20
 70
    0
280
    1
281
    0
  0
BLOCK_RECORD
  5
98
330
1
100
AcDbSymbolTableRecord
100
AcDbBlockTableRecord
  2
*D9
 70
    0
280
    1
281
    0
  0
BLOCK_RECORD
  5
9B
330
1
100
AcDbSymbolTableRecord
100
AcDbBlockTableRecord
  2
*D32
 70
    0
280
    1
281
    0
  0
BLOCK_RECORD
  5
9E
330
1
100
AcDbSymbolTableRecord
100
AcDbBlockTableRecord
  2
*D16
 70
    0
280
    1
281
    0
  0
BLOCK_RECORD
  5
A1
330
1
100
AcDbSymbolTableRecord
100
AcDbBlockTableRecord
  2
*D18
 70
    0
280
    1
281
    0
  0
BLOCK_RECORD
  5
A4
330
1
100
AcDbSymbolTableRecord
100
AcDbBlockTableRecord
  2
*D30
 70
    0
280
    1
281
    0
  0
BLOCK_RECORD
  5
A7
330
1
100
AcDbSymbolTableRecord
100
AcDbBlockTableRecord
  2
*D34
 70
    0
280
    1
281
    0
  0
BLOCK_RECORD
  5
AA
330
1
100
AcDbSymbolTableRecord
100
AcDbBlockTableRecord
  2
*D6
 70
    0
280
    1
281
    0
  0
BLOCK_RECORD
  5
AD
330
1
100
AcDbSymbolTableRecord
100
AcDbBlockTableRecord
  2
*D28
 70
    0
280
    1
281
    0
  0
BLOCK_RECORD
  5
B0
330
1
100
AcDbSymbolTableRecord
100
AcDbBlockTableRecord
  2
*D15
 70
    0
280
    1
281
    0
  0
BLOCK_RECORD
  5
B3
330
1
100
AcDbSymbolTableRecord
100
AcDbBlockTableRecord
  2
*D21
 70
    0
280
    1
281
    0
  0
BLOCK_RECORD
  5
B6
330
1
100
AcDbSymbolTableRecord
100
AcDbBlockTableRecord
  2
*D35
 70
    0
280
    1
281
    0
  0
BLOCK_RECORD
  5
B9
330
1
100
AcDbSymbolTableRecord
100
AcDbBlockTableRecord
  2
*D22
 70
    0
280
    1
281
    0
  0
BLOCK_RECORD
  5
BC
330
1
100
AcDbSymbolTableRecord
100
AcDbBlockTableRecord
  2
*D25
 70
    0
280
    1
281
    0
  0
BLOCK_RECORD
  5
BF
330
1
100
AcDbSymbolTableRecord
100
AcDbBlockTableRecord
  2
*D39
 70
    0
280
    1
281
    0
  0
BLOCK_RECORD
  5
C2
330
1
100
AcDbSymbolTableRecord
100
AcDbBlockTableRecord
  2
*D12
 70
    0
280
    1
281
    0
  0
BLOCK_RECORD
  5
C5
330
1
100
AcDbSymbolTableRecord
100
AcDbBlockTableRecord
  2
*D5
 70
    0
280
    1
281
    0
  0
BLOCK_RECORD
  5
C8
330
1
100
AcDbSymbolTableRecord
100
AcDbBlockTableRecord
  2
*D11
 70
    0
280
    1
281
    0
  0
ENDTAB
  0
ENDSEC
  0
SECTION
  2
BLOCKS
  0
BLOCK
  5
20
330
1F
100
AcDbEntity
  8
0
100
AcDbBlockBegin
  2
*Model_Space
 70
    0
 10
0
 20
0
 30
0
  3
*Model_Space
  1

  0
ENDBLK
  5
21
330
1F
100
AcDbEntity
  8
0
100
AcDbBlockEnd
  0
BLOCK
  5
1C
330
1B
100
AcDbEntity
  8
0
100
AcDbBlockBegin
  2
*Paper_Space
 70
    0
 10
0
 20
0
 30
0
  3
*Paper_Space
  1

  0
ENDBLK
  5
1D
330
1F
100
AcDbEntity
  8
0
100
AcDbBlockEnd
  0
BLOCK
  5
57
330
56
100
AcDbEntity
  8
0
100
AcDbBlockBegin
  2
*D13
 70
    1
 10
0
 20
0
  3
*D13
  1

  0
ENDBLK
  5
58
330
56
100
AcDbEntity
  8
0
100
AcDbBlockEnd
  0
BLOCK
  5
5A
330
59
100
AcDbEntity
  8
0
100
AcDbBlockBegin
  2
*D23
 70
    1
 10
0
 20
0
  3
*D23
  1

  0
LINE
  5
CB
100
AcDbEntity
  8
rozmir
  6
ByBlock
 62
    0
370
   -2
100
AcDbLine
 10
25.00000000000001
 20
16
 11
32.59999999999999
 21
16
  0
SOLID
  5
CC
100
AcDbEntity
  8
rozmir
  6
ByBlock
 62
    0
370
   -2
100
AcDbTrace
 10
25.00000000000001
 20
16
 30
0
 11
26.00000000000001
 21
16.16651386310913
 31
0
 12
26.00000000000001
 22
15.83348613689086
 32
0
 13
26.00000000000001
 23
15.83348613689086
 33
0
  0
SOLID
  5
CD
100
AcDbEntity
  8
rozmir
  6
ByBlock
 62
    0
370
   -2
100
AcDbTrace
 10
32.59999999999999
 20
16
 30
0
 11
31.59999999999999
 21
15.83348613689086
 31
0
 12
31.59999999999999
 22
16.16651386310913
 32
0
 13
31.59999999999999
 23
16.16651386310913
 33
0
  0
MTEXT
  5
CE
100
AcDbEntity
  8
rozmir
  6
CONTINUOUS
 62
    0
370
   -2
100
AcDbMText
 10
28.8
 20
16.65
 30
0
 40
0.7
 41
0.8555555555555989
 71
    5
 72
    1
  1
76
  7
standard
210
0
220
0
230
1
 50
0
 73
    2
 44
1
  0
LINE
  5
CF
100
AcDbEntity
  8
rozmir
  6
ByBlock
 62
    0
370
   -2
100
AcDbLine
 10
25.00000000000001
 20
13.69999999999999
 11
25.00000000000001
 21
16.5
  0
LINE
  5
D0
100
AcDbEntity
  8
rozmir
  6
ByBlock
 62
    0
370
   -2
100
AcDbLine
 10
32.59999999999999
 20
13.7
 11
32.59999999999999
 21
16.5
  0
ENDBLK
  5
5B
330
59
100
AcDbEntity
  8
0
100
AcDbBlockEnd
  0
BLOCK
  5
5D
330
5C
100
AcDbEntity
  8
0
100
AcDbBlockBegin
  2
*D10
 70
    1
 10
0
 20
0
  3
*D10
  1

  0
LINE
  5
D1
100
AcDbEntity
  8
rozmir
  6
ByBlock
 62
    0
370
   -2
100
AcDbLine
 10
20
 20
-16.8
 11
31.6
 21
-16.8
  0
SOLID
  5
D2
100
AcDbEntity
  8
rozmir
  6
ByBlock
 62
    0
370
   -2
100
AcDbTrace
 10
20
 20
-16.8
 30
0
 11
21
 21
-16.63348613689086
 31
0
 12
21
 22
-16.96651386310914
 32
0
 13
21
 23
-16.96651386310914
 33
0
  0
SOLID
  5
D3
100
AcDbEntity
  8
rozmir
  6
ByBlock
 62
    0
370
   -2
100
AcDbTrace
 10
31.6
 20
-16.8
 30
0
 11
30.6
 21
-16.96651386310913
 31
0
 12
30.6
 22
-16.63348613689086
 32
0
 13
30.6
 23
-16.63348613689086
 33
0
  0
MTEXT
  5
D4
100
AcDbEntity
  8
rozmir
  6
CONTINUOUS
 62
    0
370
   -2
100
AcDbMText
 10
25.8
 20
-16.15
 30
0
 40
0.7
 41
0.8555555555555556
 71
    5
 72
    1
  1
29
  7
standard
210
0
220
0
230
1
 50
0
 73
    2
 44
1
  0
LINE
  5
D5
100
AcDbEntity
  8
rozmir
  6
ByBlock
 62
    0
370
   -2
100
AcDbLine
 10
20
 20
-17.5
 11
20
 21
-16.3
  0
LINE
  5
D6
100
AcDbEntity
  8
rozmir
  6
ByBlock
 62
    0
370
   -2
100
AcDbLine
 10
31.6
 20
-17.5
 11
31.6
 21
-16.3
  0
ENDBLK
  5
5E
330
5C
100
AcDbEntity
  8
0
100
AcDbBlockEnd
  0
BLOCK
  5
60
330
5F
100
AcDbEntity
  8
0
100
AcDbBlockBegin
  2
*D33
 70
    1
 10
0
 20
0
  3
*D33
  1

  0
LINE
  5
D7
100
AcDbEntity
  8
rozmir
  6
ByBlock
 62
    0
370
   -2
100
AcDbLine
 10
0.04999999999999982
 20
-4.5
 11
5.96
 21
-4.5
  0
SOLID
  5
D8
100
AcDbEntity
  8
rozmir
  6
ByBlock
 62
    0
370
   -2
100
AcDbTrace
 10
0.04999999999999982
 20
-4.5
 30
0
 11
1.05
 21
-4.333486136890864
 31
0
 12
1.05
 22
-4.666513863109136
 32
0
 13
1.05
 23
-4.666513863109136
 33
0
  0
SOLID
  5
D9
100
AcDbEntity
  8
rozmir
  6
ByBlock
 62
    0
370
   -2
100
AcDbTrace
 10
5.96
 20
-4.5
 30
0
 11
4.96
 21
-4.666513863109136
 31
0
 12
4.96
 22
-4.333486136890864
 32
0
 13
4.96
 23
-4.333486136890864
 33
0
  0
MTEXT
  5
DA
100
AcDbEntity
  8
rozmir
  6
CONTINUOUS
 62
    0
370
   -2
100
AcDbMText
 10
3.005
 20
-3.850000000000001
 30
0
 40
0.7
 41
1.51666666666671
 71
    5
 72
    1
  1
59,1
  7
standard
210
0
220
0
230
1
 50
0
 73
    2
 44
1
  0
LINE
  5
DB
100
AcDbEntity
  8
rozmir
  6
ByBlock
 62
    0
370
   -2
100
AcDbLine
 10
0.04999999999999984
 20
0.1999999999999993
 11
0.04999999999999973
 21
-5
  0
LINE
  5
DC
100
AcDbEntity
  8
rozmir
  6
ByBlock
 62
    0
370
   -2
100
AcDbLine
 10
5.96
 20
0.1999999999999993
 11
5.96
 21
-5
  0
ENDBLK
  5
61
330
5F
100
AcDbEntity
  8
0
100
AcDbBlockEnd
  0
BLOCK
  5
63
330
62
100
AcDbEntity
  8
0
100
AcDbBlockBegin
  2
*D14
 70
    1
 10
0
 20
0
  3
*D14
  1

  0
ENDBLK
  5
64
330
62
100
AcDbEntity
  8
0
100
AcDbBlockEnd
  0
BLOCK
  5
66
330
65
100
AcDbEntity
  8
0
100
AcDbBlockBegin
  2
*D1
 70
    1
 10
0
 20
0
  3
*D1
  1

  0
LINE
  5
DD
100
AcDbEntity
  8
rozmir
  6
ByBlock
 62
    0
370
   -2
100
AcDbLine
 10
-1.450000000000002
 20
-20
 11
-1.450000000000001
 21
-12.15
  0
SOLID
  5
DE
100
AcDbEntity
  8
rozmir
  6
ByBlock
 62
    0
370
   -2
100
AcDbTrace
 10
-1.450000000000002
 20
-20
 30
0
 11
-1.616513863109138
 21
-19
 31
0
 12
-1.283486136890865
 22
-19
 32
0
 13
-1.283486136890865
 23
-19
 33
0
  0
SOLID
  5
DF
100
AcDbEntity
  8
rozmir
  6
ByBlock
 62
    0
370
   -2
100
AcDbTrace
 10
-1.450000000000001
 20
-12.15
 30
0
 11
-1.283486136890865
 21
-13.15
 31
0
 12
-1.616513863109137
 22
-13.15
 32
0
 13
-1.616513863109137
 23
-13.15
 33
0
  0
MTEXT
  5
E0
100
AcDbEntity
  8
rozmir
  6
CONTINUOUS
 62
    0
370
   -2
100
AcDbMText
 10
-2.100000000000001
 20
-16.075
 30
0
 40
0.7
 41
1.672222222222266
 71
    5
 72
    1
  1
78,5
  7
standard
210
0
220
0
230
1
 50
90
 73
    2
 44
1
  0
LINE
  5
E1
100
AcDbEntity
  8
rozmir
  6
ByBlock
 62
    0
370
   -2
100
AcDbLine
 10
-0.5
 20
-20
 11
-1.950000000000002
 21
-20
  0
LINE
  5
E2
100
AcDbEntity
  8
rozmir
  6
ByBlock
 62
    0
370
   -2
100
AcDbLine
 10
-0.5000000000000018
 20
-12.15
 11
-1.950000000000001
 21
-12.15
  0
ENDBLK
  5
67
330
65
100
AcDbEntity
  8
0
100
AcDbBlockEnd
  0
BLOCK
  5
69
330
68
100
AcDbEntity
  8
0
100
AcDbBlockBegin
  2
*D17
 70
    1
 10
0
 20
0
  3
*D17
  1

  0
LINE
  5
E3
100
AcDbEntity
  8
rozmir
  6
ByBlock
 62
    0
370
   -2
100
AcDbLine
 10
28.71
 20
-2
 11
34.55
 21
-2
  0
SOLID
  5
E4
100
AcDbEntity
  8
rozmir
  6
ByBlock
 62
    0
370
   -2
100
AcDbTrace
 10
30.71
 20
-2
 30
0
 11
29.71
 21
-2.166513863109136
 31
0
 12
29.71
 22
-1.833486136890864
 32
0
 13
29.71
 23
-1.833486136890864
 33
0
  0
SOLID
  5
E5
100
AcDbEntity
  8
rozmir
  6
ByBlock
 62
    0
370
   -2
100
AcDbTrace
 10
32.55
 20
-2
 30
0
 11
33.55
 21
-1.833486136890864
 31
0
 12
33.55
 22
-2.166513863109136
 32
0
 13
33.55
 23
-2.166513863109136
 33
0
  0
MTEXT
  5
E6
100
AcDbEntity
  8
rozmir
  6
CONTINUOUS
 62
    0
370
   -2
100
AcDbMText
 10
31.63
 20
-1.35
 30
0
 40
0.7
 41
1.594444444444445
 71
    5
 72
    1
  1
18,4
  7
standard
210
0
220
0
230
1
 50
0
 73
    2
 44
1
  0
LINE
  5
E7
100
AcDbEntity
  8
rozmir
  6
ByBlock
 62
    0
370
   -2
100
AcDbLine
 10
30.71
 20
0.1999999999999997
 11
30.71
 21
-2.5
  0
LINE
  5
E8
100
AcDbEntity
  8
rozmir
  6
ByBlock
 62
    0
370
   -2
100
AcDbLine
 10
32.55
 20
0.2
 11
32.55
 21
-2.5
  0
ENDBLK
  5
6A
330
68
100
AcDbEntity
  8
0
100
AcDbBlockEnd
  0
BLOCK
  5
6C
330
6B
100
AcDbEntity
  8
0
100
AcDbBlockBegin
  2
*D26
 70
    1
 10
0
 20
0
  3
*D26
  1

  0
LINE
  5
E9
100
AcDbEntity
  8
rozmir
  6
ByBlock
 62
    0
370
   -2
100
AcDbLine
 10
-1.000000000000001
 20
0.6999999999999993
 11
-0.9999999999999999
 21
13.1
  0
SOLID
  5
EA
100
AcDbEntity
  8
rozmir
  6
ByBlock
 62
    0
370
   -2
100
AcDbTrace
 10
-1.000000000000001
 20
0.6999999999999993
 30
0
 11
-1.166513863109137
 21
1.699999999999999
 31
0
 12
-0.8334861368908644
 22
1.699999999999999
 32
0
 13
-0.8334861368908644
 23
1.699999999999999
 33
0
  0
SOLID
  5
EB
100
AcDbEntity
  8
rozmir
  6
ByBlock
 62
    0
370
   -2
100
AcDbTrace
 10
-0.9999999999999999
 20
13.1
 30
0
 11
-0.8334861368908637
 21
12.1
 31
0
 12
-1.166513863109136
 22
12.1
 32
0
 13
-1.166513863109136
 23
12.1
 33
0
  0
MTEXT
  5
EC
100
AcDbEntity
  8
rozmir
  6
CONTINUOUS
 62
    0
370
   -2
100
AcDbMText
 10
-1.65
 20
6.899999999999999
 30
0
 40
0.7
 41
1.322222222222222
 71
    5
 72
    1
  1
124
  7
standard
210
0
220
0
230
1
 50
90
 73
    2
 44
1
  0
LINE
  5
ED
100
AcDbEntity
  8
rozmir
  6
ByBlock
 62
    0
370
   -2
100
AcDbLine
 10
-0.4500000000000001
 20
0.6999999999999994
 11
-1.500000000000001
 21
0.6999999999999994
  0
LINE
  5
EE
100
AcDbEntity
  8
rozmir
  6
ByBlock
 62
    0
370
   -2
100
AcDbLine
 10
-0.4500000000000001
 20
13.1
 11
-1.5
 21
13.1
  0
ENDBLK
  5
6D
330
6B
100
AcDbEntity
  8
0
100
AcDbBlockEnd
  0
BLOCK
  5
6F
330
6E
100
AcDbEntity
  8
0
100
AcDbBlockBegin
  2
*D29
 70
    1
 10
0
 20
0
  3
*D29
  1

  0
LINE
  5
EF
100
AcDbEntity
  8
rozmir
  6
ByBlock
 62
    0
370
   -2
100
AcDbLine
 10
16.4
 20
0.6999999999999993
 11
16.4
 21
3.779999999999998
  0
SOLID
  5
F0
100
AcDbEntity
  8
rozmir
  6
ByBlock
 62
    0
370
   -2
100
AcDbTrace
 10
16.4
 20
0.6999999999999993
 30
0
 11
16.23348613689086
 21
1.699999999999999
 31
0
 12
16.56651386310914
 22
1.699999999999999
 32
0
 13
16.56651386310914
 23
1.699999999999999
 33
0
  0
SOLID
  5
F1
100
AcDbEntity
  8
rozmir
  6
ByBlock
 62
    0
370
   -2
100
AcDbTrace
 10
16.4
 20
3.779999999999998
 30
0
 11
16.56651386310913
 21
2.779999999999998
 31
0
 12
16.23348613689086
 22
2.779999999999998
 32
0
 13
16.23348613689086
 23
2.779999999999998
 33
0
  0
MTEXT
  5
F2
100
AcDbEntity
  8
rozmir
  6
CONTINUOUS
 62
    0
370
   -2
100
AcDbMText
 10
15.75
 20
2.239999999999998
 30
0
 40
0.7
 41
1.672222222222266
 71
    5
 72
    1
  1
30,8
  7
standard
210
0
220
0
230
1
 50
90
 73
    2
 44
1
  0
LINE
  5
F3
100
AcDbEntity
  8
rozmir
  6
ByBlock
 62
    0
370
   -2
100
AcDbLine
 10
14.45
 20
0.6999999999999993
 11
16.9
 21
0.6999999999999993
  0
LINE
  5
F4
100
AcDbEntity
  8
rozmir
  6
ByBlock
 62
    0
370
   -2
100
AcDbLine
 10
14.45
 20
3.779999999999998
 11
16.9
 21
3.779999999999998
  0
ENDBLK
  5
70
330
6E
100
AcDbEntity
  8
0
100
AcDbBlockEnd
  0
BLOCK
  5
72
330
71
100
AcDbEntity
  8
0
100
AcDbBlockBegin
  2
*D19
 70
    1
 10
0
 20
0
  3
*D19
  1

  0
LINE
  5
F5
100
AcDbEntity
  8
rozmir
  6
ByBlock
 62
    0
370
   -2
100
AcDbLine
 10
37
 20
0.7000000000000002
 11
37
 21
6.84
  0
SOLID
  5
F6
100
AcDbEntity
  8
rozmir
  6
ByBlock
 62
    0
370
   -2
100
AcDbTrace
 10
37
 20
0.7000000000000002
 30
0
 11
36.83348613689086
 21
1.7
 31
0
 12
37.16651386310914
 22
1.7
 32
0
 13
37.16651386310914
 23
1.7
 33
0
  0
SOLID
  5
F7
100
AcDbEntity
  8
rozmir
  6
ByBlock
 62
    0
370
   -2
100
AcDbTrace
 10
37
 20
6.84
 30
0
 11
37.16651386310914
 21
5.84
 31
0
 12
36.83348613689086
 22
5.84
 32
0
 13
36.83348613689086
 23
5.84
 33
0
  0
MTEXT
  5
F8
100
AcDbEntity
  8
rozmir
  6
CONTINUOUS
 62
    0
370
   -2
100
AcDbMText
 10
36.35
 20
3.77
 30
0
 40
0.7
 41
1.594444444444488
 71
    5
 72
    1
  1
61,4
  7
standard
210
0
220
0
230
1
 50
90
 73
    2
 44
1
  0
LINE
  5
F9
100
AcDbEntity
  8
rozmir
  6
ByBlock
 62
    0
370
   -2
100
AcDbLine
 10
33.05
 20
0.7
 11
37.5
 21
0.7000000000000002
  0
LINE
  5
FA
100
AcDbEntity
  8
rozmir
  6
ByBlock
 62
    0
370
   -2
100
AcDbLine
 10
33.05
 20
6.84
 11
37.5
 21
6.84
  0
ENDBLK
  5
73
330
71
100
AcDbEntity
  8
0
100
AcDbBlockEnd
  0
BLOCK
  5
75
330
74
100
AcDbEntity
  8
0
100
AcDbBlockBegin
  2
*D7
 70
    1
 10
0
 20
0
  3
*D7
  1

  0
LINE
  5
FB
100
AcDbEntity
  8
rozmir
  6
ByBlock
 62
    0
370
   -2
100
AcDbLine
 10
19
 20
-8.799999999999997
 11
19
 21
-15.2
  0
SOLID
  5
FC
100
AcDbEntity
  8
rozmir
  6
ByBlock
 62
    0
370
   -2
100
AcDbTrace
 10
19
 20
-10.8
 30
0
 11
18.83348613689087
 21
-9.799999999999997
 31
0
 12
19.16651386310914
 22
-9.799999999999997
 32
0
 13
19.16651386310914
 23
-9.799999999999997
 33
0
  0
SOLID
  5
FD
100
AcDbEntity
  8
rozmir
  6
ByBlock
 62
    0
370
   -2
100
AcDbTrace
 10
19
 20
-13.2
 30
0
 11
19.16651386310913
 21
-14.2
 31
0
 12
18.83348613689087
 22
-14.2
 32
0
 13
18.83348613689087
 23
-14.2
 33
0
  0
MTEXT
  5
FE
100
AcDbEntity
  8
rozmir
  6
CONTINUOUS
 62
    0
370
   -2
100
AcDbMText
 10
18.35
 20
-12
 30
0
 40
0.7
 41
0.3111111111111545
 71
    5
 72
    1
  1
6
  7
standard
210
0
220
0
230
1
 50
90
 73
    2
 44
1
  0
LINE
  5
FF
100
AcDbEntity
  8
rozmir
  6
ByBlock
 62
    0
370
   -2
100
AcDbLine
 10
19.5
 20
-10.8
 11
18.5
 21
-10.8
  0
LINE
  5
100
100
AcDbEntity
  8
rozmir
  6
ByBlock
 62
    0
370
   -2
100
AcDbLine
 10
22.30000000000001
 20
-13.2
 11
18.5
 21
-13.2
  0
ENDBLK
  5
76
330
74
100
AcDbEntity
  8
0
100
AcDbBlockEnd
  0
BLOCK
  5
78
330
77
100
AcDbEntity
  8
0
100
AcDbBlockBegin
  2
*D27
 70
    1
 10
0
 20
0
  3
*D27
  1

  0
LINE
  5
101
100
AcDbEntity
  8
rozmir
  6
ByBlock
 62
    0
370
   -2
100
AcDbLine
 10
0.05000000000000071
 20
15
 11
13.95
 21
15
  0
SOLID
  5
102
100
AcDbEntity
  8
rozmir
  6
ByBlock
 62
    0
370
   -2
100
AcDbTrace
 10
0.05000000000000071
 20
15
 30
0
 11
1.050000000000001
 21
15.16651386310914
 31
0
 12
1.050000000000001
 22
14.83348613689086
 32
0
 13
1.050000000000001
 23
14.83348613689086
 33
0
  0
SOLID
  5
103
100
AcDbEntity
  8
rozmir
  6
ByBlock
 62
    0
370
   -2
100
AcDbTrace
 10
13.95
 20
15
 30
0
 11
12.95
 21
14.83348613689086
 31
0
 12
12.95
 22
15.16651386310914
 32
0
 13
12.95
 23
15.16651386310914
 33
0
  0
MTEXT
  5
104
100
AcDbEntity
  8
rozmir
  6
CONTINUOUS
 62
    0
370
   -2
100
AcDbMText
 10
7.000000000000001
 20
15.65
 30
0
 40
0.7
 41
1.244444444444488
 71
    5
 72
    1
  1
139
  7
standard
210
0
220
0
230
1
 50
0
 73
    2
 44
1
  0
LINE
  5
105
100
AcDbEntity
  8
rozmir
  6
ByBlock
 62
    0
370
   -2
100
AcDbLine
 10
0.05000000000000018
 20
13.6
 11
0.05000000000000096
 21
15.5
  0
LINE
  5
106
100
AcDbEntity
  8
rozmir
  6
ByBlock
 62
    0
370
   -2
100
AcDbLine
 10
13.95
 20
13.6
 11
13.95
 21
15.5
  0
ENDBLK
  5
79
330
77
100
AcDbEntity
  8
0
100
AcDbBlockEnd
  0
BLOCK
  5
7B
330
7A
100
AcDbEntity
  8
0
100
AcDbBlockBegin
  2
*D31
 70
    1
 10
0
 20
0
  3
*D31
  1

  0
LINE
  5
107
100
AcDbEntity
  8
rozmir
  6
ByBlock
 62
    0
370
   -2
100
AcDbLine
 10
16.4
 20
13.1
 11
16.4
 21
10.02
  0
SOLID
  5
108
100
AcDbEntity
  8
rozmir
  6
ByBlock
 62
    0
370
   -2
100
AcDbTrace
 10
16.4
 20
13.1
 30
0
 11
16.56651386310913
 21
12.1
 31
0
 12
16.23348613689086
 22
12.1
 32
0
 13
16.23348613689086
 23
12.1
 33
0
  0
SOLID
  5
109
100
AcDbEntity
  8
rozmir
  6
ByBlock
 62
    0
370
   -2
100
AcDbTrace
 10
16.4
 20
10.02
 30
0
 11
16.23348613689086
 21
11.02
 31
0
 12
16.56651386310914
 22
11.02
 32
0
 13
16.56651386310914
 23
11.02
 33
0
  0
MTEXT
  5
10A
100
AcDbEntity
  8
rozmir
  6
CONTINUOUS
 62
    0
370
   -2
100
AcDbMText
 10
15.75
 20
11.56
 30
0
 40
0.7
 41
1.672222222222266
 71
    5
 72
    1
  1
30,8
  7
standard
210
0
220
0
230
1
 50
90
 73
    2
 44
1
  0
LINE
  5
10B
100
AcDbEntity
  8
rozmir
  6
ByBlock
 62
    0
370
   -2
100
AcDbLine
 10
14.45
 20
13.1
 11
16.9
 21
13.1
  0
LINE
  5
10C
100
AcDbEntity
  8
rozmir
  6
ByBlock
 62
    0
370
   -2
100
AcDbLine
 10
14.45
 20
10.02
 11
16.9
 21
10.02
  0
ENDBLK
  5
7C
330
7A
100
AcDbEntity
  8
0
100
AcDbBlockEnd
  0
BLOCK
  5
7E
330
7D
100
AcDbEntity
  8
0
100
AcDbBlockBegin
  2
*D3
 70
    1
 10
0
 20
0
  3
*D3
  1

  0
LINE
  5
10D
100
AcDbEntity
  8
rozmir
  6
ByBlock
 62
    0
370
   -2
100
AcDbLine
 10
7
 20
-19.3
 11
7
 21
-15.82
  0
SOLID
  5
10E
100
AcDbEntity
  8
rozmir
  6
ByBlock
 62
    0
370
   -2
100
AcDbTrace
 10
7
 20
-19.3
 30
0
 11
6.833486136890864
 21
-18.3
 31
0
 12
7.166513863109136
 22
-18.3
 32
0
 13
7.166513863109136
 23
-18.3
 33
0
  0
SOLID
  5
10F
100
AcDbEntity
  8
rozmir
  6
ByBlock
 62
    0
370
   -2
100
AcDbTrace
 10
7
 20
-15.82
 30
0
 11
7.166513863109136
 21
-16.82
 31
0
 12
6.833486136890864
 22
-16.82
 32
0
 13
6.833486136890864
 23
-16.82
 33
0
  0
MTEXT
  5
110
100
AcDbEntity
  8
rozmir
  6
CONTINUOUS
 62
    0
370
   -2
100
AcDbMText
 10
6.35
 20
-17.56
 30
0
 40
0.7
 41
1.750000000000044
 71
    5
 72
    1
  1
34,8
  7
standard
210
0
220
0
230
1
 50
90
 73
    2
 44
1
  0
LINE
  5
111
100
AcDbEntity
  8
rozmir
  6
ByBlock
 62
    0
370
   -2
100
AcDbLine
 10
5.550000000000001
 20
-19.3
 11
7.5
 21
-19.3
  0
LINE
  5
112
100
AcDbEntity
  8
rozmir
  6
ByBlock
 62
    0
370
   -2
100
AcDbLine
 10
5.550000000000001
 20
-15.82
 11
7.5
 21
-15.82
  0
ENDBLK
  5
7F
330
7D
100
AcDbEntity
  8
0
100
AcDbBlockEnd
  0
BLOCK
  5
81
330
80
100
AcDbEntity
  8
0
100
AcDbBlockBegin
  2
*D36
 70
    1
 10
0
 20
0
  3
*D36
  1

  0
LINE
  5
113
100
AcDbEntity
  8
rozmir
  6
ByBlock
 62
    0
370
   -2
100
AcDbLine
 10
0.04999999999999938
 20
-3
 11
3.99
 21
-3
  0
SOLID
  5
114
100
AcDbEntity
  8
rozmir
  6
ByBlock
 62
    0
370
   -2
100
AcDbTrace
 10
0.04999999999999938
 20
-3
 30
0
 11
1.049999999999999
 21
-2.833486136890864
 31
0
 12
1.049999999999999
 22
-3.166513863109136
 32
0
 13
1.049999999999999
 23
-3.166513863109136
 33
0
  0
SOLID
  5
115
100
AcDbEntity
  8
rozmir
  6
ByBlock
 62
    0
370
   -2
100
AcDbTrace
 10
3.99
 20
-3
 30
0
 11
2.99
 21
-3.166513863109136
 31
0
 12
2.99
 22
-2.833486136890864
 32
0
 13
2.99
 23
-2.833486136890864
 33
0
  0
MTEXT
  5
116
100
AcDbEntity
  8
rozmir
  6
CONTINUOUS
 62
    0
370
   -2
100
AcDbMText
 10
2.02
 20
-2.350000000000001
 30
0
 40
0.7
 41
1.750000000000044
 71
    5
 72
    1
  1
39,4
  7
standard
210
0
220
0
230
1
 50
0
 73
    2
 44
1
  0
LINE
  5
117
100
AcDbEntity
  8
rozmir
  6
ByBlock
 62
    0
370
   -2
100
AcDbLine
 10
0.04999999999999984
 20
0.1999999999999993
 11
0.04999999999999929
 21
-3.5
  0
LINE
  5
118
100
AcDbEntity
  8
rozmir
  6
ByBlock
 62
    0
370
   -2
100
AcDbLine
 10
3.99
 20
0.1999999999999993
 11
3.99
 21
-3.5
  0
ENDBLK
  5
82
330
80
100
AcDbEntity
  8
0
100
AcDbBlockEnd
  0
BLOCK
  5
84
330
83
100
AcDbEntity
  8
0
100
AcDbBlockBegin
  2
*D2
 70
    1
 10
0
 20
0
  3
*D2
  1

  0
LINE
  5
119
100
AcDbEntity
  8
rozmir
  6
ByBlock
 62
    0
370
   -2
100
AcDbLine
 10
-2.664535259100376e-15
 20
-10.65
 11
5.1
 21
-10.65
  0
SOLID
  5
11A
100
AcDbEntity
  8
rozmir
  6
ByBlock
 62
    0
370
   -2
100
AcDbTrace
 10
-2.664535259100376e-15
 20
-10.65
 30
0
 11
0.9999999999999973
 21
-10.48348613689086
 31
0
 12
0.9999999999999973
 22
-10.81651386310913
 32
0
 13
0.9999999999999973
 23
-10.81651386310913
 33
0
  0
SOLID
  5
11B
100
AcDbEntity
  8
rozmir
  6
ByBlock
 62
    0
370
   -2
100
AcDbTrace
 10
5.1
 20
-10.65
 30
0
 11
4.1
 21
-10.81651386310913
 31
0
 12
4.1
 22
-10.48348613689086
 32
0
 13
4.1
 23
-10.48348613689086
 33
0
  0
MTEXT
  5
11C
100
AcDbEntity
  8
rozmir
  6
CONTINUOUS
 62
    0
370
   -2
100
AcDbMText
 10
2.549999999999999
 20
-9.999999999999996
 30
0
 40
0.7
 41
0.7000000000000434
 71
    5
 72
    1
  1
51
  7
standard
210
0
220
0
230
1
 50
0
 73
    2
 44
1
  0
LINE
  5
11D
100
AcDbEntity
  8
rozmir
  6
ByBlock
 62
    0
370
   -2
100
AcDbLine
 10
-2.078807576809114e-15
 20
-11.65
 11
-2.966985996509239e-15
 21
-10.15
  0
LINE
  5
11E
100
AcDbEntity
  8
rozmir
  6
ByBlock
 62
    0
370
   -2
100
AcDbLine
 10
5.1
 20
-11.64950153729738
 11
5.1
 21
-10.15
  0
ENDBLK
  5
85
330
83
100
AcDbEntity
  8
0
100
AcDbBlockEnd
  0
BLOCK
  5
87
330
86
100
AcDbEntity
  8
0
100
AcDbBlockBegin
  2
*D24
 70
    1
 10
0
 20
0
  3
*D24
  1

  0
LINE
  5
11F
100
AcDbEntity
  8
rozmir
  6
ByBlock
 62
    0
370
   -2
100
AcDbLine
 10
25.05
 20
14.5
 11
32.55
 21
14.5
  0
SOLID
  5
120
100
AcDbEntity
  8
rozmir
  6
ByBlock
 62
    0
370
   -2
100
AcDbTrace
 10
25.05
 20
14.5
 30
0
 11
26.05
 21
14.66651386310914
 31
0
 12
26.05
 22
14.33348613689087
 32
0
 13
26.05
 23
14.33348613689087
 33
0
  0
SOLID
  5
121
100
AcDbEntity
  8
rozmir
  6
ByBlock
 62
    0
370
   -2
100
AcDbTrace
 10
32.55
 20
14.5
 30
0
 11
31.55
 21
14.33348613689087
 31
0
 12
31.55
 22
14.66651386310914
 32
0
 13
31.55
 23
14.66651386310914
 33
0
  0
MTEXT
  5
122
100
AcDbEntity
  8
rozmir
  6
CONTINUOUS
 62
    0
370
   -2
100
AcDbMText
 10
28.8
 20
15.15
 30
0
 40
0.7
 41
0.8555555555555989
 71
    5
 72
    1
  1
75
  7
standard
210
0
220
0
230
1
 50
0
 73
    2
 44
1
  0
LINE
  5
123
100
AcDbEntity
  8
rozmir
  6
ByBlock
 62
    0
370
   -2
100
AcDbLine
 10
25.05
 20
13.6
 11
25.05
 21
15
  0
LINE
  5
124
100
AcDbEntity
  8
rozmir
  6
ByBlock
 62
    0
370
   -2
100
AcDbLine
 10
32.55
 20
13.6
 11
32.55
 21
15
  0
ENDBLK
  5
88
330
86
100
AcDbEntity
  8
0
100
AcDbBlockEnd
  0
BLOCK
  5
8A
330
89
100
AcDbEntity
  8
0
100
AcDbBlockBegin
  2
*D38
 70
    1
 10
0
 20
0
  3
*D38
  1

  0
LINE
  5
125
100
AcDbEntity
  8
rozmir
  6
ByBlock
 62
    0
370
   -2
100
AcDbLine
 10
19
 20
-16
 11
19
 21
-22
  0
SOLID
  5
126
100
AcDbEntity
  8
rozmir
  6
ByBlock
 62
    0
370
   -2
100
AcDbTrace
 10
19
 20
-18
 30
0
 11
18.83348613689087
 21
-17
 31
0
 12
19.16651386310914
 22
-17
 32
0
 13
19.16651386310914
 23
-17
 33
0
  0
SOLID
  5
127
100
AcDbEntity
  8
rozmir
  6
ByBlock
 62
    0
370
   -2
100
AcDbTrace
 10
19
 20
-20
 30
0
 11
19.16651386310913
 21
-21
 31
0
 12
18.83348613689087
 22
-21
 32
0
 13
18.83348613689087
 23
-21
 33
0
  0
MTEXT
  5
128
100
AcDbEntity
  8
rozmir
  6
CONTINUOUS
 62
    0
370
   -2
100
AcDbMText
 10
18.35
 20
-19
 30
0
 40
0.7
 41
0.3111111111111545
 71
    5
 72
    1
  1
5
  7
standard
210
0
220
0
230
1
 50
90
 73
    2
 44
1
  0
LINE
  5
129
100
AcDbEntity
  8
rozmir
  6
ByBlock
 62
    0
370
   -2
100
AcDbLine
 10
19.5
 20
-18
 11
18.5
 21
-18
  0
LINE
  5
12A
100
AcDbEntity
  8
rozmir
  6
ByBlock
 62
    0
370
   -2
100
AcDbLine
 10
19.5
 20
-20
 11
18.5
 21
-20
  0
ENDBLK
  5
8B
330
89
100
AcDbEntity
  8
0
100
AcDbBlockEnd
  0
BLOCK
  5
8D
330
8C
100
AcDbEntity
  8
0
100
AcDbBlockBegin
  2
*D8
 70
    1
 10
0
 20
0
  3
*D8
  1

  0
LINE
  5
12B
100
AcDbEntity
  8
rozmir
  6
ByBlock
 62
    0
370
   -2
100
AcDbLine
 10
20
 20
-8.799999999999997
 11
23
 21
-8.799999999999997
  0
SOLID
  5
12C
100
AcDbEntity
  8
rozmir
  6
ByBlock
 62
    0
370
   -2
100
AcDbTrace
 10
20
 20
-8.799999999999997
 30
0
 11
21
 21
-8.633486136890861
 31
0
 12
21
 22
-8.966513863109133
 32
0
 13
21
 23
-8.966513863109133
 33
0
  0
SOLID
  5
12D
100
AcDbEntity
  8
rozmir
  6
ByBlock
 62
    0
370
   -2
100
AcDbTrace
 10
23
 20
-8.799999999999997
 30
0
 11
22
 21
-8.966513863109133
 31
0
 12
22
 22
-8.633486136890861
 32
0
 13
22
 23
-8.633486136890861
 33
0
  0
MTEXT
  5
12E
100
AcDbEntity
  8
rozmir
  6
CONTINUOUS
 62
    0
370
   -2
100
AcDbMText
 10
21.5
 20
-8.149999999999997
 30
0
 40
0.7
 41
1.127777777777821
 71
    5
 72
    1
  1
7,5
  7
standard
210
0
220
0
230
1
 50
0
 73
    2
 44
1
  0
LINE
  5
12F
100
AcDbEntity
  8
rozmir
  6
ByBlock
 62
    0
370
   -2
100
AcDbLine
 10
20
 20
-10.3
 11
20
 21
-8.299999999999997
  0
LINE
  5
130
100
AcDbEntity
  8
rozmir
  6
ByBlock
 62
    0
370
   -2
100
AcDbLine
 10
23
 20
-10.3
 11
23
 21
-8.299999999999997
  0
ENDBLK
  5
8E
330
8C
100
AcDbEntity
  8
0
100
AcDbBlockEnd
  0
BLOCK
  5
90
330
8F
100
AcDbEntity
  8
0
100
AcDbBlockBegin
  2
*D4
 70
    1
 10
0
 20
0
  3
*D4
  1

  0
LINE
  5
131
100
AcDbEntity
  8
rozmir
  6
ByBlock
 62
    0
370
   -2
100
AcDbLine
 10
8
 20
-19.3
 11
8
 21
-12.2
  0
SOLID
  5
132
100
AcDbEntity
  8
rozmir
  6
ByBlock
 62
    0
370
   -2
100
AcDbTrace
 10
8
 20
-19.3
 30
0
 11
7.833486136890864
 21
-18.3
 31
0
 12
8.166513863109136
 22
-18.3
 32
0
 13
8.166513863109136
 23
-18.3
 33
0
  0
SOLID
  5
133
100
AcDbEntity
  8
rozmir
  6
ByBlock
 62
    0
370
   -2
100
AcDbTrace
 10
8
 20
-12.2
 30
0
 11
8.166513863109136
 21
-13.2
 31
0
 12
7.833486136890864
 22
-13.2
 32
0
 13
7.833486136890864
 23
-13.2
 33
0
  0
MTEXT
  5
134
100
AcDbEntity
  8
rozmir
  6
CONTINUOUS
 62
    0
370
   -2
100
AcDbMText
 10
7.4
 20
-15
 30
0
 40
0.7
 41
0.7
 71
    5
 72
    1
  1
71
  7
standard
210
0
220
0
230
1
 50
90
 73
    2
 44
1
  0
LINE
  5
135
100
AcDbEntity
  8
rozmir
  6
ByBlock
 62
    0
370
   -2
100
AcDbLine
 10
5.550000000000001
 20
-19.3
 11
8.5
 21
-19.3
  0
LINE
  5
136
100
AcDbEntity
  8
rozmir
  6
ByBlock
 62
    0
370
   -2
100
AcDbLine
 10
5.550000000000001
 20
-12.2
 11
8.5
 21
-12.2
  0
ENDBLK
  5
91
330
8F
100
AcDbEntity
  8
0
100
AcDbBlockEnd
  0
BLOCK
  5
93
330
92
100
AcDbEntity
  8
0
100
AcDbBlockBegin
  2
*D37
 70
    1
 10
0
 20
0
  3
*D37
  1

  0
LINE
  5
137
100
AcDbEntity
  8
rozmir
  6
ByBlock
 62
    0
370
   -2
100
AcDbLine
 10
13.95
 20
-4.5
 11
8.039999999999999
 21
-4.5
  0
SOLID
  5
138
100
AcDbEntity
  8
rozmir
  6
ByBlock
 62
    0
370
   -2
100
AcDbTrace
 10
13.95
 20
-4.5
 30
0
 11
12.95
 21
-4.666513863109136
 31
0
 12
12.95
 22
-4.333486136890864
 32
0
 13
12.95
 23
-4.333486136890864
 33
0
  0
SOLID
  5
139
100
AcDbEntity
  8
rozmir
  6
ByBlock
 62
    0
370
   -2
100
AcDbTrace
 10
8.039999999999999
 20
-4.5
 30
0
 11
9.039999999999999
 21
-4.333486136890864
 31
0
 12
9.039999999999999
 22
-4.666513863109136
 32
0
 13
9.039999999999999
 23
-4.666513863109136
 33
0
  0
MTEXT
  5
13A
100
AcDbEntity
  8
rozmir
  6
CONTINUOUS
 62
    0
370
   -2
100
AcDbMText
 10
10.995
 20
-3.850000000000001
 30
0
 40
0.7
 41
1.51666666666671
 71
    5
 72
    1
  1
59,1
  7
standard
210
0
220
0
230
1
 50
360
 73
    2
 44
1
  0
LINE
  5
13B
100
AcDbEntity
  8
rozmir
  6
ByBlock
 62
    0
370
   -2
100
AcDbLine
 10
13.95
 20
0.1999999999999993
 11
13.95
 21
-5
  0
LINE
  5
13C
100
AcDbEntity
  8
rozmir
  6
ByBlock
 62
    0
370
   -2
100
AcDbLine
 10
8.039999999999999
 20
0.1999999999999993
 11
8.039999999999999
 21
-5
  0
ENDBLK
  5
94
330
92
100
AcDbEntity
  8
0
100
AcDbBlockEnd
  0
BLOCK
  5
96
330
95
100
AcDbEntity
  8
0
100
AcDbBlockBegin
  2
*D20
 70
    1
 10
0
 20
0
  3
*D20
  1

  0
LINE
  5
13D
100
AcDbEntity
  8
rozmir
  6
ByBlock
 62
    0
370
   -2
100
AcDbLine
 10
35
 20
13.1
 11
35
 21
10.02
  0
SOLID
  5
13E
100
AcDbEntity
  8
rozmir
  6
ByBlock
 62
    0
370
   -2
100
AcDbTrace
 10
35
 20
13.1
 30
0
 11
35.16651386310914
 21
12.1
 31
0
 12
34.83348613689086
 22
12.1
 32
0
 13
34.83348613689086
 23
12.1
 33
0
  0
SOLID
  5
13F
100
AcDbEntity
  8
rozmir
  6
ByBlock
 62
    0
370
   -2
100
AcDbTrace
 10
35
 20
10.02
 30
0
 11
34.83348613689086
 21
11.02
 31
0
 12
35.16651386310914
 22
11.02
 32
0
 13
35.16651386310914
 23
11.02
 33
0
  0
MTEXT
  5
140
100
AcDbEntity
  8
rozmir
  6
CONTINUOUS
 62
    0
370
   -2
100
AcDbMText
 10
34.35
 20
11.56
 30
0
 40
0.7
 41
1.672222222222266
 71
    5
 72
    1
  1
30,8
  7
standard
210
0
220
0
230
1
 50
90
 73
    2
 44
1
  0
LINE
  5
141
100
AcDbEntity
  8
rozmir
  6
ByBlock
 62
    0
370
   -2
100
AcDbLine
 10
33.05
 20
13.1
 11
35.5
 21
13.1
  0
LINE
  5
142
100
AcDbEntity
  8
rozmir
  6
ByBlock
 62
    0
370
   -2
100
AcDbLine
 10
33.05
 20
10.02
 11
35.5
 21
10.02
  0
ENDBLK
  5
97
330
95
100
AcDbEntity
  8
0
100
AcDbBlockEnd
  0
BLOCK
  5
99
330
98
100
AcDbEntity
  8
0
100
AcDbBlockBegin
  2
*D9
 70
    1
 10
0
 20
0
  3
*D9
  1

  0
LINE
  5
143
100
AcDbEntity
  8
rozmir
  6
ByBlock
 62
    0
370
   -2
100
AcDbLine
 10
22.80000000000001
 20
-14.8
 11
31.60000000000001
 21
-14.8
  0
SOLID
  5
144
100
AcDbEntity
  8
rozmir
  6
ByBlock
 62
    0
370
   -2
100
AcDbTrace
 10
22.80000000000001
 20
-14.8
 30
0
 11
23.80000000000001
 21
-14.63348613689086
 31
0
 12
23.80000000000001
 22
-14.96651386310913
 32
0
 13
23.80000000000001
 23
-14.96651386310913
 33
0
  0
SOLID
  5
145
100
AcDbEntity
  8
rozmir
  6
ByBlock
 62
    0
370
   -2
100
AcDbTrace
 10
31.60000000000001
 20
-14.8
 30
0
 11
30.60000000000001
 21
-14.96651386310913
 31
0
 12
30.60000000000001
 22
-14.63348613689086
 32
0
 13
30.60000000000001
 23
-14.63348613689086
 33
0
  0
MTEXT
  5
146
100
AcDbEntity
  8
rozmir
  6
CONTINUOUS
 62
    0
370
   -2
100
AcDbMText
 10
27.20000000000001
 20
-14.15
 30
0
 40
0.7
 41
0.8555555555555555
 71
    5
 72
    1
  1
22
  7
standard
210
0
220
0
230
1
 50
0
 73
    2
 44
1
  0
LINE
  5
147
100
AcDbEntity
  8
rozmir
  6
ByBlock
 62
    0
370
   -2
100
AcDbLine
 10
22.80000000000001
 20
-13.7
 11
22.80000000000001
 21
-15.3
  0
LINE
  5
148
100
AcDbEntity
  8
rozmir
  6
ByBlock
 62
    0
370
   -2
100
AcDbLine
 10
31.60000000000001
 20
-13.70000000000001
 11
31.60000000000001
 21
-15.3
  0
ENDBLK
  5
9A
330
98
100
AcDbEntity
  8
0
100
AcDbBlockEnd
  0
BLOCK
  5
9C
330
9B
100
AcDbEntity
  8
0
100
AcDbBlockBegin
  2
*D32
 70
    1
 10
0
 20
0
  3
*D32
  1

  0
LINE
  5
149
100
AcDbEntity
  8
rozmir
  6
ByBlock
 62
    0
370
   -2
100
AcDbLine
 10
-1.95
 20
-1.5
 11
4.02
 21
-1.5
  0
SOLID
  5
14A
100
AcDbEntity
  8
rozmir
  6
ByBlock
 62
    0
370
   -2
100
AcDbTrace
 10
0.05000000000000004
 20
-1.5
 30
0
 11
-0.95
 21
-1.666513863109136
 31
0
 12
-0.95
 22
-1.333486136890864
 32
0
 13
-0.95
 23
-1.333486136890864
 33
0
  0
SOLID
  5
14B
100
AcDbEntity
  8
rozmir
  6
ByBlock
 62
    0
370
   -2
100
AcDbTrace
 10
2.02
 20
-1.5
 30
0
 11
3.02
 21
-1.333486136890864
 31
0
 12
3.02
 22
-1.666513863109136
 32
0
 13
3.02
 23
-1.666513863109136
 33
0
  0
MTEXT
  5
14C
100
AcDbEntity
  8
rozmir
  6
CONTINUOUS
 62
    0
370
   -2
100
AcDbMText
 10
1.035
 20
-0.8500000000000014
 30
0
 40
0.7
 41
1.516666666666667
 71
    5
 72
    1
  1
19,7
  7
standard
210
0
220
0
230
1
 50
0
 73
    2
 44
1
  0
LINE
  5
14D
100
AcDbEntity
  8
rozmir
  6
ByBlock
 62
    0
370
   -2
100
AcDbLine
 10
0.04999999999999995
 20
0.1999999999999993
 11
0.04999999999999995
 21
-2
  0
LINE
  5
14E
100
AcDbEntity
  8
rozmir
  6
ByBlock
 62
    0
370
   -2
100
AcDbLine
 10
2.02
 20
0.1999999999999993
 11
2.02
 21
-2
  0
ENDBLK
  5
9D
330
9B
100
AcDbEntity
  8
0
100
AcDbBlockEnd
  0
BLOCK
  5
9F
330
9E
100
AcDbEntity
  8
0
100
AcDbBlockBegin
  2
*D16
 70
    1
 10
0
 20
0
  3
*D16
  1

  0
LINE
  5
14F
100
AcDbEntity
  8
rozmir
  6
ByBlock
 62
    0
370
   -2
100
AcDbLine
 10
25.05
 20
-4
 11
28.73
 21
-4
  0
SOLID
  5
150
100
AcDbEntity
  8
rozmir
  6
ByBlock
 62
    0
370
   -2
100
AcDbTrace
 10
25.05
 20
-4
 30
0
 11
26.05
 21
-3.833486136890864
 31
0
 12
26.05
 22
-4.166513863109136
 32
0
 13
26.05
 23
-4.166513863109136
 33
0
  0
SOLID
  5
151
100
AcDbEntity
  8
rozmir
  6
ByBlock
 62
    0
370
   -2
100
AcDbTrace
 10
28.73
 20
-4
 30
0
 11
27.73
 21
-4.166513863109136
 31
0
 12
27.73
 22
-3.833486136890864
 32
0
 13
27.73
 23
-3.833486136890864
 33
0
  0
MTEXT
  5
152
100
AcDbEntity
  8
rozmir
  6
CONTINUOUS
 62
    0
370
   -2
100
AcDbMText
 10
26.89
 20
-3.35
 30
0
 40
0.7
 41
1.672222222222309
 71
    5
 72
    1
  1
36,8
  7
standard
210
0
220
0
230
1
 50
0
 73
    2
 44
1
  0
LINE
  5
153
100
AcDbEntity
  8
rozmir
  6
ByBlock
 62
    0
370
   -2
100
AcDbLine
 10
25.05
 20
0.199999999999999
 11
25.05
 21
-4.5
  0
LINE
  5
154
100
AcDbEntity
  8
rozmir
  6
ByBlock
 62
    0
370
   -2
100
AcDbLine
 10
28.73
 20
0.1999999999999995
 11
28.73
 21
-4.5
  0
ENDBLK
  5
A0
330
9E
100
AcDbEntity
  8
0
100
AcDbBlockEnd
  0
BLOCK
  5
A2
330
A1
100
AcDbEntity
  8
0
100
AcDbBlockBegin
  2
*D18
 70
    1
 10
0
 20
0
  3
*D18
  1

  0
LINE
  5
155
100
AcDbEntity
  8
rozmir
  6
ByBlock
 62
    0
370
   -2
100
AcDbLine
 10
35
 20
0.7000000000000002
 11
35
 21
3.779999999999999
  0
SOLID
  5
156
100
AcDbEntity
  8
rozmir
  6
ByBlock
 62
    0
370
   -2
100
AcDbTrace
 10
35
 20
0.7000000000000002
 30
0
 11
34.83348613689086
 21
1.7
 31
0
 12
35.16651386310914
 22
1.7
 32
0
 13
35.16651386310914
 23
1.7
 33
0
  0
SOLID
  5
157
100
AcDbEntity
  8
rozmir
  6
ByBlock
 62
    0
370
   -2
100
AcDbTrace
 10
35
 20
3.779999999999999
 30
0
 11
35.16651386310914
 21
2.779999999999999
 31
0
 12
34.83348613689086
 22
2.779999999999999
 32
0
 13
34.83348613689086
 23
2.779999999999999
 33
0
  0
MTEXT
  5
158
100
AcDbEntity
  8
rozmir
  6
CONTINUOUS
 62
    0
370
   -2
100
AcDbMText
 10
34.35
 20
2.239999999999999
 30
0
 40
0.7
 41
1.672222222222266
 71
    5
 72
    1
  1
30,8
  7
standard
210
0
220
0
230
1
 50
90
 73
    2
 44
1
  0
LINE
  5
159
100
AcDbEntity
  8
rozmir
  6
ByBlock
 62
    0
370
   -2
100
AcDbLine
 10
33.05
 20
0.7
 11
35.5
 21
0.7000000000000002
  0
LINE
  5
15A
100
AcDbEntity
  8
rozmir
  6
ByBlock
 62
    0
370
   -2
100
AcDbLine
 10
33.05
 20
3.779999999999999
 11
35.5
 21
3.779999999999999
  0
ENDBLK
  5
A3
330
A1
100
AcDbEntity
  8
0
100
AcDbBlockEnd
  0
BLOCK
  5
A5
330
A4
100
AcDbEntity
  8
0
100
AcDbBlockBegin
  2
*D30
 70
    1
 10
0
 20
0
  3
*D30
  1

  0
LINE
  5
15B
100
AcDbEntity
  8
rozmir
  6
ByBlock
 62
    0
370
   -2
100
AcDbLine
 10
18.4
 20
0.6999999999999984
 11
18.4
 21
6.84
  0
SOLID
  5
15C
100
AcDbEntity
  8
rozmir
  6
ByBlock
 62
    0
370
   -2
100
AcDbTrace
 10
18.4
 20
0.6999999999999984
 30
0
 11
18.23348613689086
 21
1.699999999999998
 31
0
 12
18.56651386310914
 22
1.699999999999998
 32
0
 13
18.56651386310914
 23
1.699999999999998
 33
0
  0
SOLID
  5
15D
100
AcDbEntity
  8
rozmir
  6
ByBlock
 62
    0
370
   -2
100
AcDbTrace
 10
18.4
 20
6.84
 30
0
 11
18.56651386310913
 21
5.84
 31
0
 12
18.23348613689086
 22
5.84
 32
0
 13
18.23348613689086
 23
5.84
 33
0
  0
MTEXT
  5
15E
100
AcDbEntity
  8
rozmir
  6
CONTINUOUS
 62
    0
370
   -2
100
AcDbMText
 10
17.75
 20
3.77
 30
0
 40
0.7
 41
1.594444444444488
 71
    5
 72
    1
  1
61,4
  7
standard
210
0
220
0
230
1
 50
90
 73
    2
 44
1
  0
LINE
  5
15F
100
AcDbEntity
  8
rozmir
  6
ByBlock
 62
    0
370
   -2
100
AcDbLine
 10
14.45
 20
0.6999999999999993
 11
18.9
 21
0.6999999999999984
  0
LINE
  5
160
100
AcDbEntity
  8
rozmir
  6
ByBlock
 62
    0
370
   -2
100
AcDbLine
 10
14.45
 20
6.84
 11
18.9
 21
6.84
  0
ENDBLK
  5
A6
330
A4
100
AcDbEntity
  8
0
100
AcDbBlockEnd
  0
BLOCK
  5
A8
330
A7
100
AcDbEntity
  8
0
100
AcDbBlockBegin
  2
*D34
 70
    1
 10
0
 20
0
  3
*D34
  1

  0
LINE
  5
161
100
AcDbEntity
  8
rozmir
  6
ByBlock
 62
    0
370
   -2
100
AcDbLine
 10
15.95
 20
-1.5
 11
9.98
 21
-1.5
  0
SOLID
  5
162
100
AcDbEntity
  8
rozmir
  6
ByBlock
 62
    0
370
   -2
100
AcDbTrace
 10
13.95
 20
-1.5
 30
0
 11
14.95
 21
-1.333486136890864
 31
0
 12
14.95
 22
-1.666513863109136
 32
0
 13
14.95
 23
-1.666513863109136
 33
0
  0
SOLID
  5
163
100
AcDbEntity
  8
rozmir
  6
ByBlock
 62
    0
370
   -2
100
AcDbTrace
 10
11.98
 20
-1.5
 30
0
 11
10.98
 21
-1.666513863109136
 31
0
 12
10.98
 22
-1.333486136890864
 32
0
 13
10.98
 23
-1.333486136890864
 33
0
  0
MTEXT
  5
164
100
AcDbEntity
  8
rozmir
  6
CONTINUOUS
 62
    0
370
   -2
100
AcDbMText
 10
12.965
 20
-0.8500000000000014
 30
0
 40
0.7
 41
1.516666666666667
 71
    5
 72
    1
  1
19,7
  7
standard
210
0
220
0
230
1
 50
360
 73
    2
 44
1
  0
LINE
  5
165
100
AcDbEntity
  8
rozmir
  6
ByBlock
 62
    0
370
   -2
100
AcDbLine
 10
13.95
 20
0.1999999999999993
 11
13.95
 21
-2
  0
LINE
  5
166
100
AcDbEntity
  8
rozmir
  6
ByBlock
 62
    0
370
   -2
100
AcDbLine
 10
11.98
 20
0.1999999999999993
 11
11.98
 21
-2
  0
ENDBLK
  5
A9
330
A7
100
AcDbEntity
  8
0
100
AcDbBlockEnd
  0
BLOCK
  5
AB
330
AA
100
AcDbEntity
  8
0
100
AcDbBlockBegin
  2
*D6
 70
    1
 10
0
 20
0
  3
*D6
  1

  0
LINE
  5
167
100
AcDbEntity
  8
rozmir
  6
ByBlock
 62
    0
370
   -2
100
AcDbLine
 10
0.04999999999999893
 20
-23
 11
5.050000000000001
 21
-23
  0
SOLID
  5
168
100
AcDbEntity
  8
rozmir
  6
ByBlock
 62
    0
370
   -2
100
AcDbTrace
 10
0.04999999999999893
 20
-23
 30
0
 11
1.049999999999999
 21
-22.83348613689087
 31
0
 12
1.049999999999999
 22
-23.16651386310914
 32
0
 13
1.049999999999999
 23
-23.16651386310914
 33
0
  0
SOLID
  5
169
100
AcDbEntity
  8
rozmir
  6
ByBlock
 62
    0
370
   -2
100
AcDbTrace
 10
5.050000000000001
 20
-23
 30
0
 11
4.050000000000001
 21
-23.16651386310913
 31
0
 12
4.050000000000001
 22
-22.83348613689087
 32
0
 13
4.050000000000001
 23
-22.83348613689087
 33
0
  0
MTEXT
  5
16A
100
AcDbEntity
  8
rozmir
  6
CONTINUOUS
 62
    0
370
   -2
100
AcDbMText
 10
2.55
 20
-22.35
 30
0
 40
0.7
 41
0.8555555555555989
 71
    5
 72
    1
  1
50
  7
standard
210
0
220
0
230
1
 50
0
 73
    2
 44
1
  0
LINE
  5
16B
100
AcDbEntity
  8
rozmir
  6
ByBlock
 62
    0
370
   -2
100
AcDbLine
 10
0.05000000000000007
 20
-19.8
 11
0.04999999999999884
 21
-23.5
  0
LINE
  5
16C
100
AcDbEntity
  8
rozmir
  6
ByBlock
 62
    0
370
   -2
100
AcDbLine
 10
5.050000000000001
 20
-19.8
 11
5.050000000000001
 21
-23.5
  0
ENDBLK
  5
AC
330
AA
100
AcDbEntity
  8
0
100
AcDbBlockEnd
  0
BLOCK
  5
AE
330
AD
100
AcDbEntity
  8
0
100
AcDbBlockBegin
  2
*D28
 70
    1
 10
0
 20
0
  3
*D28
  1

  0
LINE
  5
16D
100
AcDbEntity
  8
rozmir
  6
ByBlock
 62
    0
370
   -2
100
AcDbLine
 10
5.329070518200751e-15
 20
16.5
 11
14
 21
16.5
  0
SOLID
  5
16E
100
AcDbEntity
  8
rozmir
  6
ByBlock
 62
    0
370
   -2
100
AcDbTrace
 10
5.329070518200751e-15
 20
16.5
 30
0
 11
1.000000000000005
 21
16.66651386310913
 31
0
 12
1.000000000000005
 22
16.33348613689086
 32
0
 13
1.000000000000005
 23
16.33348613689086
 33
0
  0
SOLID
  5
16F
100
AcDbEntity
  8
rozmir
  6
ByBlock
 62
    0
370
   -2
100
AcDbTrace
 10
14
 20
16.5
 30
0
 11
13
 21
16.33348613689087
 31
0
 12
13
 22
16.66651386310913
 32
0
 13
13
 23
16.66651386310913
 33
0
  0
MTEXT
  5
170
100
AcDbEntity
  8
rozmir
  6
CONTINUOUS
 62
    0
370
   -2
100
AcDbMText
 10
7.000000000000004
 20
17.15
 30
0
 40
0.7
 41
1.322222222222222
 71
    5
 72
    1
  1
140
  7
standard
210
0
220
0
230
1
 50
0
 73
    2
 44
1
  0
LINE
  5
171
100
AcDbEntity
  8
rozmir
  6
ByBlock
 62
    0
370
   -2
100
AcDbLine
 10
3.888641180551103e-15
 20
13.69999999999999
 11
5.581731293104466e-15
 21
17
  0
LINE
  5
172
100
AcDbEntity
  8
rozmir
  6
ByBlock
 62
    0
370
   -2
100
AcDbLine
 10
14
 20
13.69999999999999
 11
14
 21
17
  0
ENDBLK
  5
AF
330
AD
100
AcDbEntity
  8
0
100
AcDbBlockEnd
  0
BLOCK
  5
B1
330
B0
100
AcDbEntity
  8
0
100
AcDbBlockBegin
  2
*D15
 70
    1
 10
0
 20
0
  3
*D15
  1

  0
LINE
  5
173
100
AcDbEntity
  8
rozmir
  6
ByBlock
 62
    0
370
   -2
100
AcDbLine
 10
23.05
 20
-2
 11
28.89
 21
-2
  0
SOLID
  5
174
100
AcDbEntity
  8
rozmir
  6
ByBlock
 62
    0
370
   -2
100
AcDbTrace
 10
25.05
 20
-2
 30
0
 11
24.05
 21
-2.166513863109136
 31
0
 12
24.05
 22
-1.833486136890864
 32
0
 13
24.05
 23
-1.833486136890864
 33
0
  0
SOLID
  5
175
100
AcDbEntity
  8
rozmir
  6
ByBlock
 62
    0
370
   -2
100
AcDbTrace
 10
26.89
 20
-2
 30
0
 11
27.89
 21
-1.833486136890864
 31
0
 12
27.89
 22
-2.166513863109136
 32
0
 13
27.89
 23
-2.166513863109136
 33
0
  0
MTEXT
  5
176
100
AcDbEntity
  8
rozmir
  6
CONTINUOUS
 62
    0
370
   -2
100
AcDbMText
 10
25.97
 20
-1.35
 30
0
 40
0.7
 41
1.594444444444445
 71
    5
 72
    1
  1
18,4
  7
standard
210
0
220
0
230
1
 50
0
 73
    2
 44
1
  0
LINE
  5
177
100
AcDbEntity
  8
rozmir
  6
ByBlock
 62
    0
370
   -2
100
AcDbLine
 10
25.05
 20
0.1999999999999998
 11
25.05
 21
-2.5
  0
LINE
  5
178
100
AcDbEntity
  8
rozmir
  6
ByBlock
 62
    0
370
   -2
100
AcDbLine
 10
26.89
 20
0.1999999999999993
 11
26.89
 21
-2.5
  0
ENDBLK
  5
B2
330
B0
100
AcDbEntity
  8
0
100
AcDbBlockEnd
  0
BLOCK
  5
B4
330
B3
100
AcDbEntity
  8
0
100
AcDbBlockBegin
  2
*D21
 70
    1
 10
0
 20
0
  3
*D21
  1

  0
LINE
  5
179
100
AcDbEntity
  8
rozmir
  6
ByBlock
 62
    0
370
   -2
100
AcDbLine
 10
24
 20
0.6999999999999993
 11
24
 21
13.1
  0
SOLID
  5
17A
100
AcDbEntity
  8
rozmir
  6
ByBlock
 62
    0
370
   -2
100
AcDbTrace
 10
24
 20
0.6999999999999993
 30
0
 11
23.83348613689087
 21
1.699999999999999
 31
0
 12
24.16651386310914
 22
1.699999999999999
 32
0
 13
24.16651386310914
 23
1.699999999999999
 33
0
  0
SOLID
  5
17B
100
AcDbEntity
  8
rozmir
  6
ByBlock
 62
    0
370
   -2
100
AcDbTrace
 10
24
 20
13.1
 30
0
 11
24.16651386310913
 21
12.1
 31
0
 12
23.83348613689087
 22
12.1
 32
0
 13
23.83348613689087
 23
12.1
 33
0
  0
MTEXT
  5
17C
100
AcDbEntity
  8
rozmir
  6
CONTINUOUS
 62
    0
370
   -2
100
AcDbMText
 10
23.35
 20
6.899999999999999
 30
0
 40
0.7
 41
1.322222222222222
 71
    5
 72
    1
  1
124
  7
standard
210
0
220
0
230
1
 50
90
 73
    2
 44
1
  0
LINE
  5
17D
100
AcDbEntity
  8
rozmir
  6
ByBlock
 62
    0
370
   -2
100
AcDbLine
 10
24.55
 20
0.7
 11
23.5
 21
0.6999999999999994
  0
LINE
  5
17E
100
AcDbEntity
  8
rozmir
  6
ByBlock
 62
    0
370
   -2
100
AcDbLine
 10
24.55
 20
13.1
 11
23.5
 21
13.1
  0
ENDBLK
  5
B5
330
B3
100
AcDbEntity
  8
0
100
AcDbBlockEnd
  0
BLOCK
  5
B7
330
B6
100
AcDbEntity
  8
0
100
AcDbBlockBegin
  2
*D35
 70
    1
 10
0
 20
0
  3
*D35
  1

  0
LINE
  5
17F
100
AcDbEntity
  8
rozmir
  6
ByBlock
 62
    0
370
   -2
100
AcDbLine
 10
13.95
 20
-3
 11
10.01
 21
-3
  0
SOLID
  5
180
100
AcDbEntity
  8
rozmir
  6
ByBlock
 62
    0
370
   -2
100
AcDbTrace
 10
13.95
 20
-3
 30
0
 11
12.95
 21
-3.166513863109136
 31
0
 12
12.95
 22
-2.833486136890864
 32
0
 13
12.95
 23
-2.833486136890864
 33
0
  0
SOLID
  5
181
100
AcDbEntity
  8
rozmir
  6
ByBlock
 62
    0
370
   -2
100
AcDbTrace
 10
10.01
 20
-3
 30
0
 11
11.01
 21
-2.833486136890864
 31
0
 12
11.01
 22
-3.166513863109136
 32
0
 13
11.01
 23
-3.166513863109136
 33
0
  0
MTEXT
  5
182
100
AcDbEntity
  8
rozmir
  6
CONTINUOUS
 62
    0
370
   -2
100
AcDbMText
 10
11.98
 20
-2.350000000000001
 30
0
 40
0.7
 41
1.750000000000044
 71
    5
 72
    1
  1
39,4
  7
standard
210
0
220
0
230
1
 50
360
 73
    2
 44
1
  0
LINE
  5
183
100
AcDbEntity
  8
rozmir
  6
ByBlock
 62
    0
370
   -2
100
AcDbLine
 10
13.95
 20
0.1999999999999993
 11
13.95
 21
-3.5
  0
LINE
  5
184
100
AcDbEntity
  8
rozmir
  6
ByBlock
 62
    0
370
   -2
100
AcDbLine
 10
10.01
 20
0.1999999999999993
 11
10.01
 21
-3.5
  0
ENDBLK
  5
B8
330
B6
100
AcDbEntity
  8
0
100
AcDbBlockEnd
  0
BLOCK
  5
BA
330
B9
100
AcDbEntity
  8
0
100
AcDbBlockBegin
  2
*D22
 70
    1
 10
0
 20
0
  3
*D22
  1

  0
LINE
  5
185
100
AcDbEntity
  8
rozmir
  6
ByBlock
 62
    0
370
   -2
100
AcDbLine
 10
22.5
 20
13.19999999999999
 11
22.5
 21
6.66133814775094e-17
  0
SOLID
  5
186
100
AcDbEntity
  8
rozmir
  6
ByBlock
 62
    0
370
   -2
100
AcDbTrace
 10
22.5
 20
13.19999999999999
 30
0
 11
22.66651386310913
 21
12.19999999999999
 31
0
 12
22.33348613689087
 22
12.19999999999999
 32
0
 13
22.33348613689087
 23
12.19999999999999
 33
0
  0
SOLID
  5
187
100
AcDbEntity
  8
rozmir
  6
ByBlock
 62
    0
370
   -2
100
AcDbTrace
 10
22.5
 20
6.66133814775094e-17
 30
0
 11
22.33348613689087
 21
1
 31
0
 12
22.66651386310914
 22
1
 32
0
 13
22.66651386310914
 23
1
 33
0
  0
MTEXT
  5
188
100
AcDbEntity
  8
rozmir
  6
CONTINUOUS
 62
    0
370
   -2
100
AcDbMText
 10
21.85
 20
6.599999999999995
 30
0
 40
0.7
 41
1.244444444444488
 71
    5
 72
    1
  1
132
  7
standard
210
0
220
0
230
1
 50
90
 73
    2
 44
1
  0
LINE
  5
189
100
AcDbEntity
  8
rozmir
  6
ByBlock
 62
    0
370
   -2
100
AcDbLine
 10
24.50000000000001
 20
13.19999999999999
 11
22
 21
13.19999999999999
  0
LINE
  5
18A
100
AcDbEntity
  8
rozmir
  6
ByBlock
 62
    0
370
   -2
100
AcDbLine
 10
24.5
 20
-4.978996250514799e-17
 11
22
 21
1.278457214348771e-16
  0
ENDBLK
  5
BB
330
B9
100
AcDbEntity
  8
0
100
AcDbBlockEnd
  0
BLOCK
  5
BD
330
BC
100
AcDbEntity
  8
0
100
AcDbBlockBegin
  2
*D25
 70
    1
 10
0
 20
0
  3
*D25
  1

  0
LINE
  5
18B
100
AcDbEntity
  8
rozmir
  6
ByBlock
 62
    0
370
   -2
100
AcDbLine
 10
-2.5
 20
1.77635683940025e-15
 11
-2.499999999999999
 21
13.2
  0
SOLID
  5
18C
100
AcDbEntity
  8
rozmir
  6
ByBlock
 62
    0
370
   -2
100
AcDbTrace
 10
-2.5
 20
1.77635683940025e-15
 30
0
 11
-2.666513863109136
 21
1.000000000000002
 31
0
 12
-2.333486136890864
 22
1.000000000000002
 32
0
 13
-2.333486136890864
 23
1.000000000000002
 33
0
  0
SOLID
  5
18D
100
AcDbEntity
  8
rozmir
  6
ByBlock
 62
    0
370
   -2
100
AcDbTrace
 10
-2.499999999999999
 20
13.2
 30
0
 11
-2.333486136890863
 21
12.2
 31
0
 12
-2.666513863109135
 22
12.2
 32
0
 13
-2.666513863109135
 23
12.2
 33
0
  0
MTEXT
  5
18E
100
AcDbEntity
  8
rozmir
  6
CONTINUOUS
 62
    0
370
   -2
100
AcDbMText
 10
-3.149999999999999
 20
6.599999999999998
 30
0
 40
0.7
 41
1.244444444444488
 71
    5
 72
    1
  1
132
  7
standard
210
0
220
0
230
1
 50
90
 73
    2
 44
1
  0
LINE
  5
18F
100
AcDbEntity
  8
rozmir
  6
ByBlock
 62
    0
370
   -2
100
AcDbLine
 10
-0.4999999999999999
 20
2.83276944882399e-16
 11
-3
 21
2.059633784282649e-15
  0
LINE
  5
190
100
AcDbEntity
  8
rozmir
  6
ByBlock
 62
    0
370
   -2
100
AcDbLine
 10
-0.4999999999999963
 20
13.2
 11
-2.999999999999999
 21
13.2
  0
ENDBLK
  5
BE
330
BC
100
AcDbEntity
  8
0
100
AcDbBlockEnd
  0
BLOCK
  5
C0
330
BF
100
AcDbEntity
  8
0
100
AcDbBlockBegin
  2
*D39
 70
    1
 10
0
 20
0
  3
*D39
  1

  0
LINE
  5
191
100
AcDbEntity
  8
rozmir
  6
ByBlock
 62
    0
370
   -2
100
AcDbLine
 10
32.08338339662066
 20
-17.40251018825467
 11
29.11661660337934
 21
-20.59748981174534
  0
SOLID
  5
192
100
AcDbEntity
  8
rozmir
  6
ByBlock
 62
    0
370
   -2
100
AcDbTrace
 10
30.72248119788611
 20
-18.86809717150727
 30
0
 11
31.28091202210146
 21
-18.02199913866847
 31
0
 12
31.52495257240532
 22
-18.24860822109348
 32
0
 13
31.52495257240532
 23
-18.24860822109348
 33
0
  0
SOLID
  5
193
100
AcDbEntity
  8
rozmir
  6
ByBlock
 62
    0
370
   -2
100
AcDbTrace
 10
30.47751880211389
 20
-19.13190282849274
 30
0
 11
29.91908797789854
 21
-19.97800086133154
 31
0
 12
29.67504742759469
 22
-19.75139177890654
 32
0
 13
29.67504742759469
 23
-19.75139177890654
 33
0
  0
MTEXT
  5
194
100
AcDbEntity
  8
rozmir
  6
CONTINUOUS
 62
    0
370
   -2
100
AcDbMText
 10
29.2706223612653
 20
-19.37779130325275
 30
0
 40
0.7
 41
1.011111111111111
 71
    5
 72
    1
  1
%%C9
  7
standard
210
0
220
0
230
1
 50
47.12109639666161
 73
    2
 44
1
  0
ENDBLK
  5
C1
330
BF
100
AcDbEntity
  8
0
100
AcDbBlockEnd
  0
BLOCK
  5
C3
330
C2
100
AcDbEntity
  8
0
100
AcDbBlockBegin
  2
*D12
 70
    1
 10
0
 20
0
  3
*D12
  1

  0
LINE
  5
195
100
AcDbEntity
  8
rozmir
  6
ByBlock
 62
    0
370
   -2
100
AcDbLine
 10
33
 20
-17
 11
33
 21
-22
  0
SOLID
  5
196
100
AcDbEntity
  8
rozmir
  6
ByBlock
 62
    0
370
   -2
100
AcDbTrace
 10
33
 20
-19
 30
0
 11
32.83348613689086
 21
-18
 31
0
 12
33.16651386310914
 22
-18
 32
0
 13
33.16651386310914
 23
-18
 33
0
  0
SOLID
  5
197
100
AcDbEntity
  8
rozmir
  6
ByBlock
 62
    0
370
   -2
100
AcDbTrace
 10
33
 20
-20
 30
0
 11
33.16651386310914
 21
-21
 31
0
 12
32.83348613689086
 22
-21
 32
0
 13
32.83348613689086
 23
-21
 33
0
  0
MTEXT
  5
198
100
AcDbEntity
  8
rozmir
  6
CONTINUOUS
 62
    0
370
   -2
100
AcDbMText
 10
32.35
 20
-18.13611111111109
 30
0
 40
0.7
 41
1.127777777777821
 71
    5
 72
    1
  1
2,5
  7
standard
210
0
220
0
230
1
 50
90
 73
    2
 44
1
  0
LINE
  5
199
100
AcDbEntity
  8
rozmir
  6
ByBlock
 62
    0
370
   -2
100
AcDbLine
 10
31.7
 20
-19
 11
33.5
 21
-19
  0
LINE
  5
19A
100
AcDbEntity
  8
rozmir
  6
ByBlock
 62
    0
370
   -2
100
AcDbLine
 10
32.1
 20
-20
 11
33.5
 21
-20
  0
ENDBLK
  5
C4
330
C2
100
AcDbEntity
  8
0
100
AcDbBlockEnd
  0
BLOCK
  5
C6
330
C5
100
AcDbEntity
  8
0
100
AcDbBlockBegin
  2
*D5
 70
    1
 10
0
 20
0
  3
*D5
  1

  0
LINE
  5
19B
100
AcDbEntity
  8
rozmir
  6
ByBlock
 62
    0
370
   -2
100
AcDbLine
 10
-1.95
 20
-21.5
 11
4.48
 21
-21.5
  0
SOLID
  5
19C
100
AcDbEntity
  8
rozmir
  6
ByBlock
 62
    0
370
   -2
100
AcDbTrace
 10
0.05000000000000027
 20
-21.5
 30
0
 11
-0.9499999999999997
 21
-21.66651386310914
 31
0
 12
-0.9499999999999997
 22
-21.33348613689087
 32
0
 13
-0.9499999999999997
 23
-21.33348613689087
 33
0
  0
SOLID
  5
19D
100
AcDbEntity
  8
rozmir
  6
ByBlock
 62
    0
370
   -2
100
AcDbTrace
 10
2.48
 20
-21.5
 30
0
 11
3.48
 21
-21.33348613689087
 31
0
 12
3.48
 22
-21.66651386310914
 32
0
 13
3.48
 23
-21.66651386310914
 33
0
  0
MTEXT
  5
19E
100
AcDbEntity
  8
rozmir
  6
CONTINUOUS
 62
    0
370
   -2
100
AcDbMText
 10
1.265
 20
-20.85
 30
0
 40
0.7
 41
1.750000000000044
 71
    5
 72
    1
  1
24,3
  7
standard
210
0
220
0
230
1
 50
0
 73
    2
 44
1
  0
LINE
  5
19F
100
AcDbEntity
  8
rozmir
  6
ByBlock
 62
    0
370
   -2
100
AcDbLine
 10
0.05000000000000007
 20
-19.8
 11
0.05000000000000018
 21
-22
  0
LINE
  5
1A0
100
AcDbEntity
  8
rozmir
  6
ByBlock
 62
    0
370
   -2
100
AcDbLine
 10
2.48
 20
-19.8
 11
2.48
 21
-22
  0
ENDBLK
  5
C7
330
C5
100
AcDbEntity
  8
0
100
AcDbBlockEnd
  0
BLOCK
  5
C9
330
C8
100
AcDbEntity
  8
0
100
AcDbBlockBegin
  2
*D11
 70
    1
 10
0
 20
0
  3
*D11
  1

  0
LINE
  5
1A1
100
AcDbEntity
  8
rozmir
  6
ByBlock
 62
    0
370
   -2
100
AcDbLine
 10
28.6
 20
-21.8
 11
33.6
 21
-21.8
  0
SOLID
  5
1A2
100
AcDbEntity
  8
rozmir
  6
ByBlock
 62
    0
370
   -2
100
AcDbTrace
 10
30.6
 20
-21.8
 30
0
 11
29.6
 21
-21.96651386310913
 31
0
 12
29.6
 22
-21.63348613689086
 32
0
 13
29.6
 23
-21.63348613689086
 33
0
  0
SOLID
  5
1A3
100
AcDbEntity
  8
rozmir
  6
ByBlock
 62
    0
370
   -2
100
AcDbTrace
 10
31.6
 20
-21.8
 30
0
 11
32.6
 21
-21.63348613689086
 31
0
 12
32.6
 22
-21.96651386310914
 32
0
 13
32.6
 23
-21.96651386310914
 33
0
  0
MTEXT
  5
1A4
100
AcDbEntity
  8
rozmir
  6
CONTINUOUS
 62
    0
370
   -2
100
AcDbMText
 10
32.46388888888891
 20
-21.15
 30
0
 40
0.7
 41
1.127777777777821
 71
    5
 72
    1
  1
2,5
  7
standard
210
0
220
0
230
1
 50
0
 73
    2
 44
1
  0
LINE
  5
1A5
100
AcDbEntity
  8
rozmir
  6
ByBlock
 62
    0
370
   -2
100
AcDbLine
 10
30.6
 20
-20.1
 11
30.6
 21
-22.3
  0
LINE
  5
1A6
100
AcDbEntity
  8
rozmir
  6
ByBlock
 62
    0
370
   -2
100
AcDbLine
 10
31.6
 20
-20.5
 11
31.6
 21
-22.3
  0
ENDBLK
  5
CA
330
C8
100
AcDbEntity
  8
0
100
AcDbBlockEnd
  0
ENDSEC
  0
SECTION
  2
ENTITIES
  0
LWPOLYLINE
  5
1A7
100
AcDbEntity
  8
rama
  6
ByLayer
 62
  256
370
   -1
100
AcDbPolyline
 90
    4
 70
    1
 43
0
 10
0.5000000000000018
 20
1.1
 10
7.500000000000002
 20
1.1
 10
7.500000000000002
 20
12.7
 10
0.5000000000000018
 20
12.7
  0
LWPOLYLINE
  5
1A8
100
AcDbEntity
  8
stvorka
  6
ByLayer
 62
  256
370
   -1
100
AcDbPolyline
 90
    4
 70
    1
 43
0
 10
1.000000000000002
 20
1.6
 10
7.000000000000002
 20
1.6
 10
7.000000000000002
 20
12.2
 10
1.000000000000002
 20
12.2
  0
LWPOLYLINE
  5
1A9
100
AcDbEntity
  8
stvorka
  6
ByLayer
 62
  256
370
   -1
100
AcDbPolyline
 90
   21
 70
    0
 43
0
 10
3.9
 20
12.2
 10
3.9
 20
8.800000000000001
 10
1
 20
8.800000000000001
 10
1
 20
8.600000000000001
 10
3.9
 20
8.600000000000001
 10
3.9
 20
5.2
 10
1
 20
5.2
 10
1
 20
5
 10
3.9
 20
5
 10
3.9
 20
1.6
 10
4.100000000000001
 20
1.6
 10
4.100000000000001
 20
5
 10
7
 20
5
 10
7
 20
5.2
 10
4.100000000000001
 20
5.2
 10
4.100000000000001
 20
8.600000000000001
 10
7
 20
8.600000000000001
 10
7
 20
8.800000000000001
 10
4.100000000000001
 20
8.800000000000001
 10
4.100000000000001
 20
12.2
 10
3.9
 20
12.2
  0
LWPOLYLINE
  5
1AA
100
AcDbEntity
  8
body
  6
ByLayer
 62
  256
370
   -1
100
AcDbPolyline
 90
    4
 70
    1
 43
0
 10
-0.6000000000000002
 20
-1.665334536937735e-16
 10
8.600000000000001
 20
-1.665334536937735e-16
 10
8.6
 20
14.2
 10
-0.6000000000000001
 20
14.2
  0
LWPOLYLINE
  5
1AB
100
AcDbEntity
  8
rama
  6
ByLayer
 62
  256
370
   -1
100
AcDbPolyline
 90
    4
 70
    1
 43
0
 10
-0.1999999999999999
 20
0.09999999999999992
 10
8.200000000000001
 20
0.09999999999999992
 10
8.199999999999999
 20
13.75
 10
-0.1999999999999993
 20
13.75
  0
LINE
  5
1AC
100
AcDbEntity
  8
rama
  6
ByLayer
 62
  256
370
   -1
100
AcDbLine
 10
-0.2
 20
0.3999999999999999
 11
8.200000000000001
 21
0.3999999999999999
  0
LINE
  5
1AD
100
AcDbEntity
  8
rama
  6
ByLayer
 62
  256
370
   -1
100
AcDbLine
 10
8.200000000000001
 20
13.4
 11
-0.1999999999999993
 21
13.4
  0
ARC
  5
1AE
100
AcDbEntity
  8
face
  6
ByLayer
 62
  256
370
   -1
100
AcDbCircle
 10
2.550981348445763
 20
-22.19037576864869
 40
10.35937504947987
100
AcDbArc
 50
75.75556726474804
 51
104.2556326603552
  0
LWPOLYLINE
  5
1AF
100
AcDbEntity
  8
face
  6
ByLayer
 62
  256
370
   -1
100
AcDbPolyline
 90
    4
 70
    0
 43
0
 10
-1.77635683940025e-15
 20
-12.15
 10
0
 20
-20
 10
5.099999999999999
 20
-20
 10
5.1
 20
-12.14950153729738
  0
DIMENSION
  5
1B0
100
AcDbEntity
  8
rozmir
  6
ByLayer
 62
  256
370
   -1
100
AcDbDimension
  2
*D1
 10
-1.450000000000001
 20
-12.15
 30
0
 11
-2.100000000000001
 21
-16.075
 31
0
 70
   32
 71
    5
  3
Standard
 53
0
210
0
220
0
230
1
100
AcDbAlignedDimension
 13
0
 23
-20
 33
0
 14
-1.77635683940025e-15
 24
-12.15
 34
0
 50
90
100
AcDbRotatedDimension
  0
DIMENSION
  5
1B1
100
AcDbEntity
  8
rozmir
  6
ByLayer
 62
  256
370
   -1
100
AcDbDimension
  2
*D2
 10
5.049999999999996
 20
-10.65
 30
0
 11
2.549999999999999
 21
-9.999999999999996
 31
0
 70
   32
 71
    5
  3
Standard
 53
0
210
0
220
0
230
1
100
AcDbAlignedDimension
 13
-1.77635683940025e-15
 23
-12.15
 33
0
 14
5.1
 24
-12.14950153729738
 34
0
100
AcDbRotatedDimension
  0
LWPOLYLINE
  5
1B2
100
AcDbEntity
  8
gratka
  6
ByLayer
 62
  256
370
   -1
100
AcDbPolyline
 90
    4
 70
    1
 43
0
 10
0.05000000000000016
 20
-19.16
 10
5.050000000000001
 20
-19.16
 10
5.050000000000001
 20
-19.3
 10
0.05000000000000016
 20
-19.3
  0
LWPOLYLINE
  5
1B3
100
AcDbEntity
  8
rozmir
  6
DASHDOT2
 62
  256
370
   -1
100
AcDbPolyline
 90
    2
 70
    0
 43
0
 10
2.55
 20
-11.2
 10
2.55
 20
-20.5
  0
LWPOLYLINE
  5
1B4
100
AcDbEntity
  8
gratka
  6
ByLayer
 62
  256
370
   -1
100
AcDbPolyline
 90
    4
 70
    1
 43
0
 10
0.04999999999999998
 20
-12.2
 10
0.1899999999999999
 20
-12.2
 10
0.1899999999999999
 20
-19.3
 10
0.05000000000000004
 20
-19.3
  0
LWPOLYLINE
  5
1B5
100
AcDbEntity
  8
gratka
  6
ByLayer
 62
  256
370
   -1
100
AcDbPolyline
 90
    4
 70
    1
 43
0
 10
0.05
 20
-12.2
 10
5.050000000000001
 20
-12.2
 10
5.050000000000001
 20
-12.34
 10
0.05
 20
-12.34
  0
LWPOLYLINE
  5
1B6
100
AcDbEntity
  8
gratka
  6
ByLayer
 62
  256
370
   -1
100
AcDbPolyline
 90
    4
 70
    1
 43
0
 10
4.91
 20
-12.2
 10
5.050000000000001
 20
-12.2
 10
5.050000000000001
 20
-19.3
 10
4.91
 20
-19.3
  0
LWPOLYLINE
  5
1B7
100
AcDbEntity
  8
gratka
  6
ByLayer
 62
  256
370
   -1
100
AcDbPolyline
 90
    4
 70
    1
 43
0
 10
2.48
 20
-12.2
 10
2.62
 20
-12.2
 10
2.62
 20
-19.3
 10
2.48
 20
-19.3
  0
LWPOLYLINE
  5
1B8
100
AcDbEntity
  8
gratka
  6
ByLayer
 62
  256
370
   -1
100
AcDbPolyline
 90
    4
 70
    1
 43
0
 10
0.05
 20
-15.68
 10
5.050000000000001
 20
-15.68
 10
5.050000000000001
 20
-15.82
 10
0.05
 20
-15.82
  0
DIMENSION
  5
1B9
100
AcDbEntity
  8
rozmir
  6
ByLayer
 62
  256
370
   -1
100
AcDbDimension
  2
*D3
 10
7
 20
-15.82
 30
0
 11
6.35
 21
-17.56
 31
0
 70
   32
 71
    5
  3
Standard
 53
0
210
0
220
0
230
1
100
AcDbAlignedDimension
 13
5.050000000000001
 23
-19.3
 33
0
 14
5.050000000000001
 24
-15.82
 34
0
 50
90
100
AcDbRotatedDimension
  0
DIMENSION
  5
1BA
100
AcDbEntity
  8
rozmir
  6
ByLayer
 62
  256
370
   -1
100
AcDbDimension
  2
*D4
 10
8
 20
-12.2
 30
0
 11
7.4
 21
-15
 31
0
 70
   32
 71
    5
  3
Standard
 53
0
210
0
220
0
230
1
100
AcDbAlignedDimension
 13
5.050000000000001
 23
-19.3
 33
0
 14
5.050000000000001
 24
-12.2
 34
0
 50
90
100
AcDbRotatedDimension
  0
DIMENSION
  5
1BB
100
AcDbEntity
  8
rozmir
  6
ByLayer
 62
  256
370
   -1
100
AcDbDimension
  2
*D5
 10
2.48
 20
-21.5
 30
0
 11
1.265
 21
-20.85
 31
0
 70
   32
 71
    5
  3
Standard
 53
0
210
0
220
0
230
1
100
AcDbAlignedDimension
 13
0.05000000000000016
 23
-19.3
 33
0
 14
2.48
 24
-19.3
 34
0
100
AcDbRotatedDimension
  0
DIMENSION
  5
1BC
100
AcDbEntity
  8
rozmir
  6
ByLayer
 62
  256
370
   -1
100
AcDbDimension
  2
*D6
 10
5.050000000000001
 20
-23
 30
0
 11
2.55
 21
-22.35
 31
0
 70
   32
 71
    5
  3
Standard
 53
0
210
0
220
0
230
1
100
AcDbAlignedDimension
 13
0.05000000000000016
 23
-19.3
 33
0
 14
5.050000000000001
 24
-19.3
 34
0
100
AcDbRotatedDimension
  0
LWPOLYLINE
  5
1BD
100
AcDbEntity
  8
kronshtein
  6
ByLayer
 62
  256
370
   -1
100
AcDbPolyline
 90
    9
 70
    0
 43
0
 10
20
 20
-10.80000000000001
 10
23.00000000000001
 20
-10.80000000000001
 10
23.00000000000001
 20
-12.96
 10
31.60000000000002
 20
-12.96
 10
31.60000000000001
 20
-13.20000000000001
 10
22.80000000000001
 20
-13.2
 10
22.8
 20
-11
 10
20
 20
-11
 10
20
 20
-10.8
  0
LWPOLYLINE
  5
1BE
100
AcDbEntity
  8
kronshtein
  6
ByLayer
 62
  256
370
   -1
100
AcDbPolyline
 90
    4
 70
    1
 43
0
 10
20
 20
-18
 10
31.6
 20
-18
 10
31.6
 20
-20
 10
20
 20
-20
  0
LINE
  5
1BF
100
AcDbEntity
  8
kronshtein
  6
ByLayer
 62
  256
370
   -1
100
AcDbLine
 10
23
 20
-18.00000000000001
 11
23
 21
-20
  0
LINE
  5
1C0
100
AcDbEntity
  8
rozmir
  6
DASHDOT2
 62
  256
370
   -1
100
AcDbLine
 10
30.6
 20
-18.40000000000001
 11
30.6
 21
-19.6
  0
LINE
  5
1C1
100
AcDbEntity
  8
rozmir
  6
DASHDOT2
 62
  256
370
   -1
100
AcDbLine
 10
31.2
 20
-19
 11
30
 21
-19
  0
CIRCLE
  5
1C2
100
AcDbEntity
  8
kronshtein
  6
ByLayer
 62
  256
370
   -1
100
AcDbCircle
 10
30.6
 20
-19.00000000000001
 40
0.18
  0
DIMENSION
  5
1C3
100
AcDbEntity
  8
rozmir
  6
ByLayer
 62
  256
370
   -1
100
AcDbDimension
  2
*D7
 10
19
 20
-13.2
 30
0
 11
18.35
 21
-12
 31
0
 70
   32
  1
6
 71
    5
  3
Standard
 53
0
210
0
220
0
230
1
100
AcDbAlignedDimension
 13
20
 23
-10.8
 33
0
 14
22.80000000000001
 24
-13.2
 34
0
 50
90
100
AcDbRotatedDimension
  0
DIMENSION
  5
1C4
100
AcDbEntity
  8
rozmir
  6
ByLayer
 62
  256
370
   -1
100
AcDbDimension
  2
*D8
 10
23
 20
-8.799999999999997
 30
0
 11
21.5
 21
-8.149999999999997
 31
0
 70
   32
  1
7,5
 71
    5
  3
Standard
 53
0
210
0
220
0
230
1
100
AcDbAlignedDimension
 13
20
 23
-10.8
 33
0
 14
23
 24
-10.8
 34
0
100
AcDbRotatedDimension
  0
DIMENSION
  5
1C5
100
AcDbEntity
  8
rozmir
  6
ByLayer
 62
  256
370
   -1
100
AcDbDimension
  2
*D9
 10
31.60000000000001
 20
-14.8
 30
0
 11
27.20000000000001
 21
-14.15
 31
0
 70
   32
  1
22
 71
    5
  3
Standard
 53
0
210
0
220
0
230
1
100
AcDbAlignedDimension
 13
22.80000000000001
 23
-13.2
 33
0
 14
31.60000000000001
 24
-13.20000000000001
 34
0
100
AcDbRotatedDimension
  0
DIMENSION
  5
1C6
100
AcDbEntity
  8
rozmir
  6
ByLayer
 62
  256
370
   -1
100
AcDbDimension
  2
*D10
 10
31.6
 20
-16.8
 30
0
 11
25.8
 21
-16.15
 31
0
 70
   32
  1
29
 71
    5
  3
Standard
 53
0
210
0
220
0
230
1
100
AcDbAlignedDimension
 13
20
 23
-18
 33
0
 14
31.6
 24
-18
 34
0
100
AcDbRotatedDimension
  0
DIMENSION
  5
1C7
100
AcDbEntity
  8
rozmir
  6
ByLayer
 62
  256
370
   -1
100
AcDbDimension
  2
*D11
 10
31.6
 20
-21.8
 30
0
 11
31.1
 21
-21.15
 31
0
 70
   32
  1
2,5
 71
    5
  3
Standard
 53
0
210
0
220
0
230
1
100
AcDbAlignedDimension
 13
30.6
 23
-19.6
 33
0
 14
31.6
 24
-20
 34
0
100
AcDbRotatedDimension
  0
DIMENSION
  5
1C8
100
AcDbEntity
  8
rozmir
  6
ByLayer
 62
  256
370
   -1
100
AcDbDimension
  2
*D12
 10
33
 20
-20
 30
0
 11
32.35
 21
-19.5
 31
0
 70
   32
  1
2,5
 71
    5
  3
Standard
 53
0
210
0
220
0
230
1
100
AcDbAlignedDimension
 13
31.2
 23
-19
 33
0
 14
31.6
 24
-20
 34
0
 50
90
100
AcDbRotatedDimension
  0
LEADER
  5
1C9
100
AcDbEntity
  8
rozmir
  6
ByLayer
 62
  256
370
   -1
100
AcDbLeader
  3
Standard
 71
    1
 72
    0
 73
    3
 74
    0
 75
    0
 40
1
 41
10
 76
0
 76
0
  0
LEADER
  5
1CA
100
AcDbEntity
  8
rozmir
  6
ByLayer
 62
  256
370
   -1
100
AcDbLeader
  3
Standard
 71
    1
 72
    0
 73
    3
 74
    0
 75
    0
 40
1
 41
10
 76
0
 76
0
  0
LWPOLYLINE
  5
1CB
100
AcDbEntity
  8
rozmir
  6
DASHDOT2
 62
  256
370
   -1
100
AcDbPolyline
 90
    2
 70
    0
 43
0
 10
28.8
 20
15
 10
28.8
 20
-1
  0
ARC
  5
1CC
100
AcDbEntity
  8
face
  6
ByLayer
 62
  256
370
   -1
100
AcDbCircle
 10
28.80000000000001
 20
-1.762499999999998
 40
15.43749999999999
100
AcDbArc
 50
75.74996730219645
 51
104.2500326978036
  0
LWPOLYLINE
  5
1CD
100
AcDbEntity
  8
face
  6
ByLayer
 62
  256
370
   -1
100
AcDbPolyline
 90
    4
 70
    0
 43
0
 10
25
 20
13.2
 10
25
 20
-1.110223024625157e-16
 10
32.6
 20
-1.110223024625157e-16
 10
32.6
 20
13.2
  0
ARC
  5
1CE
100
AcDbEntity
  8
face
  6
ByLayer
 62
  256
370
   -1
100
AcDbCircle
 10
28.80000000000001
 20
-1.762499999999988
 40
15.43749999999999
100
AcDbArc
 50
75.74996730219645
 51
104.2500326978036
  0
LWPOLYLINE
  5
1CF
100
AcDbEntity
  8
gratka
  6
ByLayer
 62
  256
370
   -1
100
AcDbPolyline
 90
    4
 70
    1
 43
0
 10
25.05
 20
13.1
 10
25.19
 20
13.1
 10
25.19
 20
0.6999999999999998
 10
25.05
 20
0.6999999999999998
  0
LWPOLYLINE
  5
1D0
100
AcDbEntity
  8
gratka
  6
ByLayer
 62
  256
370
   -1
100
AcDbPolyline
 90
    4
 70
    1
 43
0
 10
25.05
 20
13.1
 10
32.55
 20
13.1
 10
32.55
 20
12.96
 10
25.05
 20
12.96
  0
LWPOLYLINE
  5
1D1
100
AcDbEntity
  8
gratka
  6
ByLayer
 62
  256
370
   -1
100
AcDbPolyline
 90
    4
 70
    1
 43
0
 10
25.05
 20
6.98
 10
32.55
 20
6.98
 10
32.55
 20
6.84
 10
25.05
 20
6.84
  0
LWPOLYLINE
  5
1D2
100
AcDbEntity
  8
gratka
  6
ByLayer
 62
  256
370
   -1
100
AcDbPolyline
 90
    4
 70
    1
 43
0
 10
25.05
 20
3.919999999999999
 10
32.55
 20
3.919999999999999
 10
32.55
 20
3.779999999999999
 10
25.05
 20
3.779999999999999
  0
LWPOLYLINE
  5
1D3
100
AcDbEntity
  8
gratka
  6
ByLayer
 62
  256
370
   -1
100
AcDbPolyline
 90
    4
 70
    1
 43
0
 10
25.05
 20
0.8399999999999995
 10
32.55
 20
0.8400000000000004
 10
32.55
 20
0.6999999999999998
 10
25.05
 20
0.699999999999999
  0
LWPOLYLINE
  5
1D4
100
AcDbEntity
  8
gratka
  6
ByLayer
 62
  256
370
   -1
100
AcDbPolyline
 90
    4
 70
    1
 43
0
 10
32.41
 20
13.1
 10
32.55
 20
13.1
 10
32.55
 20
0.6999999999999991
 10
32.41
 20
0.6999999999999991
  0
LWPOLYLINE
  5
1D5
100
AcDbEntity
  8
gratka
  6
ByLayer
 62
  256
370
   -1
100
AcDbPolyline
 90
    4
 70
    1
 43
0
 10
25.05
 20
10.02
 10
32.55
 20
10.02
 10
32.55
 20
9.880000000000001
 10
25.05
 20
9.880000000000001
  0
LWPOLYLINE
  5
1D6
100
AcDbEntity
  8
gratka
  6
ByLayer
 62
  256
370
   -1
100
AcDbPolyline
 90
    4
 70
    1
 43
0
 10
28.73
 20
13.1
 10
28.87
 20
13.1
 10
28.87
 20
0.6999999999999994
 10
28.73
 20
0.6999999999999994
  0
LWPOLYLINE
  5
1D7
100
AcDbEntity
  8
gratka
  6
ByLayer
 62
  256
370
   -1
100
AcDbPolyline
 90
    4
 70
    1
 43
0
 10
26.89
 20
13.1
 10
27.03
 20
13.1
 10
27.03
 20
0.6999999999999998
 10
26.89
 20
0.6999999999999998
  0
LWPOLYLINE
  5
1D8
100
AcDbEntity
  8
gratka
  6
ByLayer
 62
  256
370
   -1
100
AcDbPolyline
 90
    4
 70
    1
 43
0
 10
30.57
 20
13.1
 10
30.71
 20
13.1
 10
30.71
 20
0.7000000000000001
 10
30.57
 20
0.7000000000000001
  0
DIMENSION
  5
1D9
100
AcDbEntity
  8
rozmir
  6
ByLayer
 62
  256
370
   -1
100
AcDbDimension
  2
*D15
 10
27.05
 20
-2
 30
0
 11
25.97
 21
-1.35
 31
0
 70
   32
 71
    5
 72
    0
  3
Standard
 53
0
210
0
220
0
230
1
100
AcDbAlignedDimension
 13
25.05
 23
0.6999999999999998
 33
0
 14
26.89
 24
0.6999999999999993
 34
0
100
AcDbRotatedDimension
  0
DIMENSION
  5
1DA
100
AcDbEntity
  8
rozmir
  6
ByLayer
 62
  256
370
   -1
100
AcDbDimension
  2
*D16
 10
29
 20
-4
 30
0
 11
26.89
 21
-3.35
 31
0
 70
   32
 71
    5
 72
    0
  3
Standard
 53
0
210
0
220
0
230
1
100
AcDbAlignedDimension
 13
25.05
 23
0.699999999999999
 33
0
 14
28.73
 24
0.6999999999999995
 34
0
100
AcDbRotatedDimension
  0
DIMENSION
  5
1DB
100
AcDbEntity
  8
rozmir
  6
ByLayer
 62
  256
370
   -1
100
AcDbDimension
  2
*D17
 10
32.85
 20
-2
 30
0
 11
31.63
 21
-1.35
 31
0
 70
   32
 71
    5
 72
    0
  3
Standard
 53
0
210
0
220
0
230
1
100
AcDbAlignedDimension
 13
30.71
 23
0.6999999999999997
 33
0
 14
32.55
 24
0.7
 34
0
100
AcDbRotatedDimension
  0
DIMENSION
  5
1DC
100
AcDbEntity
  8
rozmir
  6
ByLayer
 62
  256
370
   -1
100
AcDbDimension
  2
*D18
 10
35
 20
4
 30
0
 11
34.35
 21
2.239999999999999
 31
0
 70
   32
 71
    5
 72
    0
  3
Standard
 53
0
210
0
220
0
230
1
100
AcDbAlignedDimension
 13
32.55
 23
0.7
 33
0
 14
32.55
 24
3.779999999999999
 34
0
 50
90
100
AcDbRotatedDimension
  0
DIMENSION
  5
1DD
100
AcDbEntity
  8
rozmir
  6
ByLayer
 62
  256
370
   -1
100
AcDbDimension
  2
*D19
 10
37
 20
7
 30
0
 11
36.35
 21
3.77
 31
0
 70
   32
 71
    5
 72
    0
  3
Standard
 53
0
210
0
220
0
230
1
100
AcDbAlignedDimension
 13
32.55
 23
0.7
 33
0
 14
32.55
 24
6.84
 34
0
 50
90
100
AcDbRotatedDimension
  0
DIMENSION
  5
1DE
100
AcDbEntity
  8
rozmir
  6
ByLayer
 62
  256
370
   -1
100
AcDbDimension
  2
*D20
 10
35
 20
10
 30
0
 11
34.35
 21
11.56
 31
0
 70
   32
 71
    5
 72
    0
  3
Standard
 53
0
210
0
220
0
230
1
100
AcDbAlignedDimension
 13
32.55
 23
13.1
 33
0
 14
32.55
 24
10.02
 34
0
 50
90
100
AcDbRotatedDimension
  0
DIMENSION
  5
1DF
100
AcDbEntity
  8
rozmir
  6
ByLayer
 62
  256
370
   -1
100
AcDbDimension
  2
*D21
 10
24
 20
13.1
 30
0
 11
23.35
 21
6.899999999999999
 31
0
 70
   32
 71
    5
  3
Standard
 53
0
210
0
220
0
230
1
100
AcDbAlignedDimension
 13
25.05
 23
0.6999999999999998
 33
0
 14
25.05
 24
13.1
 34
0
 50
90
100
AcDbRotatedDimension
  0
DIMENSION
  5
1E0
100
AcDbEntity
  8
rozmir
  6
ByLayer
 62
  256
370
   -1
100
AcDbDimension
  2
*D22
 10
22.5
 20
-3.33066907387547e-16
 30
0
 11
21.85
 21
6.599999999999995
 31
0
 70
   32
 71
    5
 72
    0
  3
Standard
 53
0
210
0
220
0
230
1
100
AcDbAlignedDimension
 13
25.00000000000001
 23
13.19999999999999
 33
0
 14
25
 24
-1.110223024625157e-16
 34
0
 50
90
100
AcDbRotatedDimension
  0
DIMENSION
  5
1E1
100
AcDbEntity
  8
rozmir
  6
ByLayer
 62
  256
370
   -1
100
AcDbDimension
  2
*D23
 10
32.6
 20
16
 30
0
 11
28.8
 21
16.65
 31
0
 70
   32
 71
    5
 72
    0
  3
Standard
 53
0
210
0
220
0
230
1
100
AcDbAlignedDimension
 13
25.00000000000001
 23
13.19999999999999
 33
0
 14
32.59999999999999
 24
13.2
 34
0
100
AcDbRotatedDimension
  0
DIMENSION
  5
1E2
100
AcDbEntity
  8
rozmir
  6
ByLayer
 62
  256
370
   -1
100
AcDbDimension
  2
*D24
 10
32.55
 20
14.5
 30
0
 11
28.8
 21
15.15
 31
0
 70
   32
 71
    5
  3
Standard
 53
0
210
0
220
0
230
1
100
AcDbAlignedDimension
 13
25.05
 23
13.1
 33
0
 14
32.55
 24
13.1
 34
0
100
AcDbRotatedDimension
  0
LWPOLYLINE
  5
1E3
100
AcDbEntity
  8
face
  6
ByLayer
 62
  256
370
   -1
100
AcDbPolyline
 90
    4
 70
    0
 43
0
 10
3.635980405647388e-15
 20
13.2
 10
8.326672684688674e-17
 20
0
 10
14
 20
-7.105427357601002e-15
 10
14
 20
13.19999999999999
  0
ARC
  5
1E4
100
AcDbEntity
  8
face
  6
ByLayer
 62
  256
370
   -1
100
AcDbCircle
 10
6.999999999999996
 20
-14.36250000000001
 40
28.4375
100
AcDbArc
 50
75.74996730219638
 51
104.2500326978036
  0
LWPOLYLINE
  5
1E5
100
AcDbEntity
  8
gratka
  6
ByLayer
 62
  256
370
   -1
100
AcDbPolyline
 90
    4
 70
    1
 43
0
 10
0.04999999999999993
 20
13.1
 10
0.1899999999999998
 20
13.1
 10
0.1899999999999998
 20
0.6999999999999993
 10
0.04999999999999993
 20
0.6999999999999993
  0
LWPOLYLINE
  5
1E6
100
AcDbEntity
  8
gratka
  6
ByLayer
 62
  256
370
   -1
100
AcDbPolyline
 90
    4
 70
    1
 43
0
 10
0.04999999999999993
 20
13.1
 10
13.95
 20
13.1
 10
13.95
 20
12.96
 10
0.04999999999999993
 20
12.96
  0
LWPOLYLINE
  5
1E7
100
AcDbEntity
  8
gratka
  6
ByLayer
 62
  256
370
   -1
100
AcDbPolyline
 90
    4
 70
    1
 43
0
 10
0.04999999999999993
 20
6.98
 10
13.95
 20
6.98
 10
13.95
 20
6.84
 10
0.04999999999999993
 20
6.84
  0
LWPOLYLINE
  5
1E8
100
AcDbEntity
  8
gratka
  6
ByLayer
 62
  256
370
   -1
100
AcDbPolyline
 90
    4
 70
    1
 43
0
 10
0.04999999999999993
 20
3.919999999999998
 10
13.95
 20
3.919999999999998
 10
13.95
 20
3.779999999999998
 10
0.04999999999999993
 20
3.779999999999998
  0
LWPOLYLINE
  5
1E9
100
AcDbEntity
  8
gratka
  6
ByLayer
 62
  256
370
   -1
100
AcDbPolyline
 90
    4
 70
    1
 43
0
 10
0.05000000000000004
 20
0.8399999999999999
 10
13.95
 20
0.8399999999999999
 10
13.95
 20
0.6999999999999993
 10
0.05000000000000004
 20
0.6999999999999993
  0
LWPOLYLINE
  5
1EA
100
AcDbEntity
  8
gratka
  6
ByLayer
 62
  256
370
   -1
100
AcDbPolyline
 90
    4
 70
    1
 43
0
 10
13.81
 20
13.1
 10
13.95
 20
13.1
 10
13.95
 20
0.6999999999999993
 10
13.81
 20
0.6999999999999993
  0
LWPOLYLINE
  5
1EB
100
AcDbEntity
  8
gratka
  6
ByLayer
 62
  256
370
   -1
100
AcDbPolyline
 90
    4
 70
    1
 43
0
 10
0.04999999999999993
 20
10.02
 10
13.95
 20
10.02
 10
13.95
 20
9.880000000000003
 10
0.04999999999999993
 20
9.880000000000003
  0
LWPOLYLINE
  5
1EC
100
AcDbEntity
  8
gratka
  6
ByLayer
 62
  256
370
   -1
100
AcDbPolyline
 90
    4
 70
    1
 43
0
 10
2.02
 20
13.1
 10
2.16
 20
13.1
 10
2.16
 20
0.6999999999999993
 10
2.02
 20
0.6999999999999993
  0
LWPOLYLINE
  5
1ED
100
AcDbEntity
  8
gratka
  6
ByLayer
 62
  256
370
   -1
100
AcDbPolyline
 90
    4
 70
    1
 43
0
 10
3.99
 20
13.1
 10
4.13
 20
13.1
 10
4.13
 20
0.6999999999999993
 10
3.99
 20
0.6999999999999993
  0
LWPOLYLINE
  5
1EE
100
AcDbEntity
  8
gratka
  6
ByLayer
 62
  256
370
   -1
100
AcDbPolyline
 90
    4
 70
    1
 43
0
 10
5.96
 20
13.1
 10
6.1
 20
13.1
 10
6.1
 20
0.6999999999999993
 10
5.96
 20
0.6999999999999993
  0
LWPOLYLINE
  5
1EF
100
AcDbEntity
  8
gratka
  6
ByLayer
 62
  256
370
   -1
100
AcDbPolyline
 90
    4
 70
    1
 43
0
 10
11.84
 20
13.1
 10
11.98
 20
13.1
 10
11.98
 20
0.6999999999999993
 10
11.84
 20
0.6999999999999993
  0
LWPOLYLINE
  5
1F0
100
AcDbEntity
  8
gratka
  6
ByLayer
 62
  256
370
   -1
100
AcDbPolyline
 90
    4
 70
    1
 43
0
 10
9.869999999999999
 20
13.1
 10
10.01
 20
13.1
 10
10.01
 20
0.6999999999999993
 10
9.869999999999999
 20
0.6999999999999993
  0
LWPOLYLINE
  5
1F1
100
AcDbEntity
  8
gratka
  6
ByLayer
 62
  256
370
   -1
100
AcDbPolyline
 90
    4
 70
    1
 43
0
 10
7.899999999999999
 20
13.1
 10
8.039999999999999
 20
13.1
 10
8.039999999999999
 20
0.6999999999999993
 10
7.899999999999999
 20
0.6999999999999993
  0
LWPOLYLINE
  5
1F2
100
AcDbEntity
  8
rozmir
  6
DASHDOT2
 62
  256
370
   -1
100
AcDbPolyline
 90
    2
 70
    0
 43
0
 10
7
 20
15
 10
7
 20
-1
  0
DIMENSION
  5
1F3
100
AcDbEntity
  8
rozmir
  6
ByLayer
 62
  256
370
   -1
100
AcDbDimension
  2
*D25
 10
-2.499999999999999
 20
13.2
 30
0
 11
-3.149999999999999
 21
6.599999999999998
 31
0
 70
   32
 71
    5
  3
Standard
 53
0
210
0
220
0
230
1
100
AcDbAlignedDimension
 13
8.326672684688674e-17
 23
0
 33
0
 14
3.635980405647388e-15
 24
13.2
 34
0
 50
90
100
AcDbRotatedDimension
  0
DIMENSION
  5
1F4
100
AcDbEntity
  8
rozmir
  6
ByLayer
 62
  256
370
   -1
100
AcDbDimension
  2
*D26
 10
-0.9999999999999999
 20
13.1
 30
0
 11
-1.65
 21
6.899999999999999
 31
0
 70
   32
 71
    5
  3
Standard
 53
0
210
0
220
0
230
1
100
AcDbAlignedDimension
 13
0.04999999999999993
 23
0.6999999999999993
 33
0
 14
0.04999999999999993
 24
13.1
 34
0
 50
90
100
AcDbRotatedDimension
  0
DIMENSION
  5
1F5
100
AcDbEntity
  8
rozmir
  6
ByLayer
 62
  256
370
   -1
100
AcDbDimension
  2
*D27
 10
13.95
 20
15
 30
0
 11
7.000000000000001
 21
15.65
 31
0
 70
   32
 71
    5
  3
Standard
 53
0
210
0
220
0
230
1
100
AcDbAlignedDimension
 13
0.04999999999999993
 23
13.1
 33
0
 14
13.95
 24
13.1
 34
0
100
AcDbRotatedDimension
  0
DIMENSION
  5
1F6
100
AcDbEntity
  8
rozmir
  6
ByLayer
 62
  256
370
   -1
100
AcDbDimension
  2
*D28
 10
14
 20
16.5
 30
0
 11
7.000000000000004
 21
17.15
 31
0
 70
   32
 71
    5
  3
Standard
 53
0
210
0
220
0
230
1
100
AcDbAlignedDimension
 13
3.635980405647388e-15
 23
13.19999999999999
 33
0
 14
14
 24
13.19999999999999
 34
0
100
AcDbRotatedDimension
  0
DIMENSION
  5
1F7
100
AcDbEntity
  8
rozmir
  6
ByLayer
 62
  256
370
   -1
100
AcDbDimension
  2
*D29
 10
16.4
 20
4
 30
0
 11
15.75
 21
2.239999999999998
 31
0
 70
   32
 71
    5
 72
    0
  3
Standard
 53
0
210
0
220
0
230
1
100
AcDbAlignedDimension
 13
13.95
 23
0.6999999999999993
 33
0
 14
13.95
 24
3.779999999999998
 34
0
 50
90
100
AcDbRotatedDimension
  0
DIMENSION
  5
1F8
100
AcDbEntity
  8
rozmir
  6
ByLayer
 62
  256
370
   -1
100
AcDbDimension
  2
*D30
 10
18.4
 20
7
 30
0
 11
17.75
 21
3.77
 31
0
 70
   32
 71
    5
 72
    0
  3
Standard
 53
0
210
0
220
0
230
1
100
AcDbAlignedDimension
 13
13.95
 23
0.6999999999999993
 33
0
 14
13.95
 24
6.84
 34
0
 50
90
100
AcDbRotatedDimension
  0
DIMENSION
  5
1F9
100
AcDbEntity
  8
rozmir
  6
ByLayer
 62
  256
370
   -1
100
AcDbDimension
  2
*D31
 10
16.4
 20
10
 30
0
 11
15.75
 21
11.56
 31
0
 70
   32
 71
    5
 72
    0
  3
Standard
 53
0
210
0
220
0
230
1
100
AcDbAlignedDimension
 13
13.95
 23
13.1
 33
0
 14
13.95
 24
10.02
 34
0
 50
90
100
AcDbRotatedDimension
  0
DIMENSION
  5
1FA
100
AcDbEntity
  8
rozmir
  6
ByLayer
 62
  256
370
   -1
100
AcDbDimension
  2
*D32
 10
2.02
 20
-1.5
 30
0
 11
1.035
 21
-0.8500000000000014
 31
0
 70
   32
 71
    5
  3
Standard
 53
0
210
0
220
0
230
1
100
AcDbAlignedDimension
 13
0.05000000000000004
 23
0.6999999999999993
 33
0
 14
2.02
 24
0.6999999999999993
 34
0
100
AcDbRotatedDimension
  0
DIMENSION
  5
1FB
100
AcDbEntity
  8
rozmir
  6
ByLayer
 62
  256
370
   -1
100
AcDbDimension
  2
*D33
 10
5.96
 20
-4.5
 30
0
 11
3.005
 21
-3.850000000000001
 31
0
 70
   32
 71
    5
  3
Standard
 53
0
210
0
220
0
230
1
100
AcDbAlignedDimension
 13
0.04999999999999993
 23
0.6999999999999993
 33
0
 14
5.96
 24
0.6999999999999993
 34
0
100
AcDbRotatedDimension
  0
DIMENSION
  5
1FC
100
AcDbEntity
  8
rozmir
  6
ByLayer
 62
  256
370
   -1
100
AcDbDimension
  2
*D34
 10
11.98
 20
-1.5
 30
0
 11
12.965
 21
-0.8500000000000014
 31
0
 70
   32
 71
    5
  3
Standard
 53
0
210
0
220
0
230
1
100
AcDbAlignedDimension
 13
13.95
 23
0.6999999999999993
 33
0
 14
11.98
 24
0.6999999999999993
 34
0
100
AcDbRotatedDimension
  0
DIMENSION
  5
1FD
100
AcDbEntity
  8
rozmir
  6
ByLayer
 62
  256
370
   -1
100
AcDbDimension
  2
*D35
 10
10.01
 20
-3
 30
0
 11
11.98
 21
-2.350000000000001
 31
0
 70
   32
 71
    5
  3
Standard
 53
0
210
0
220
0
230
1
100
AcDbAlignedDimension
 13
13.95
 23
0.6999999999999993
 33
0
 14
10.01
 24
0.6999999999999993
 34
0
100
AcDbRotatedDimension
  0
DIMENSION
  5
1FE
100
AcDbEntity
  8
rozmir
  6
ByLayer
 62
  256
370
   -1
100
AcDbDimension
  2
*D36
 10
4
 20
-3
 30
0
 11
2.02
 21
-2.350000000000001
 31
0
 70
   32
 71
    5
  3
Standard
 53
0
210
0
220
0
230
1
100
AcDbAlignedDimension
 13
0.04999999999999993
 23
0.6999999999999993
 33
0
 14
3.99
 24
0.6999999999999993
 34
0
100
AcDbRotatedDimension
  0
DIMENSION
  5
1FF
100
AcDbEntity
  8
rozmir
  6
ByLayer
 62
  256
370
   -1
100
AcDbDimension
  2
*D37
 10
8.039999999999999
 20
-4.5
 30
0
 11
10.995
 21
-3.850000000000001
 31
0
 70
   32
 71
    5
  3
Standard
 53
0
210
0
220
0
230
1
100
AcDbAlignedDimension
 13
13.95
 23
0.6999999999999993
 33
0
 14
8.039999999999999
 24
0.6999999999999993
 34
0
100
AcDbRotatedDimension
  0
MTEXT
  5
200
100
AcDbEntity
  8
tekst
  6
ByLayer
 62
  256
370
   -1
100
AcDbMText
 10
7
 20
19
 30
0
 40
1.2
 41
12.70000000000006
 71
    5
 72
    1
  1
 
  7
cyrillic_ii
210
0
220
0
230
1
 50
0
 73
    2
 44
1
  0
LINE
  5
201
100
AcDbEntity
  8
tekst
  6
ByLayer
 62
  256
370
   -1
100
AcDbLine
 10
0.4
 20
18.00000000000001
 11
13.5
 21
18
  0
MTEXT
  5
202
100
AcDbEntity
  8
tekst
  6
ByLayer
 62
  256
370
   -1
100
AcDbMText
 10
28.8
 20
19
 30
0
 40
1.2
 41
13.30000000000006
 71
    5
 72
    1
  1
 
  7
cyrillic_ii
210
0
220
0
230
1
 50
0
 73
    2
 44
1
  0
LINE
  5
203
100
AcDbEntity
  8
tekst
  6
ByLayer
 62
  256
370
   -1
100
AcDbLine
 10
22
 20
18
 11
35.6
 21
18
  0
MTEXT
  5
204
100
AcDbEntity
  8
tekst
  6
ByLayer
 62
  256
370
   -1
100
AcDbMText
 10
2.6
 20
-8
 30
0
 40
1.2
 41
11.16666666666672
 71
    5
 72
    1
  1
 
  7
cyrillic_ii
210
0
220
0
230
1
 50
0
 73
    2
 44
1
  0
LINE
  5
205
100
AcDbEntity
  8
tekst
  6
ByLayer
 62
  256
370
   -1
100
AcDbLine
 10
-3.2
 20
-9.000000000000002
 11
8.4
 21
-9.000000000000002
  0
DIMENSION
  5
206
100
AcDbEntity
  8
rozmir
  6
ByLayer
 62
  256
370
   -1
100
AcDbDimension
  2
*D38
 10
19
 20
-20
 30
0
 11
18.35
 21
-19
 31
0
 70
   32
  1
5
 71
    5
  3
Standard
 53
0
210
0
220
0
230
1
100
AcDbAlignedDimension
 13
20
 23
-18
 33
0
 14
20
 24
-20
 34
0
 50
90
100
AcDbRotatedDimension
  0
DIMENSION
  5
207
100
AcDbEntity
  8
rozmir
  6
ByLayer
 62
  256
370
   -1
100
AcDbDimension
  2
*D39
 10
30.72248119788611
 20
-18.86809717150727
 30
0
 11
28.6
 21
-20.1
 31
0
 70
   35
  1
%%C9
 71
    5
  3
Standard
 53
0
210
0
220
0
230
1
100
AcDbDiametricDimension
 15
30.47751880211389
 25
-19.13190282849274
 35
0
 40
0
  0
ENDSEC
  0
SECTION
  2
OBJECTS
  0
DICTIONARY
  5
C
330
0
100
AcDbDictionary
281
    1
  3
ACAD_GROUP
350
D
  0
DICTIONARY
  5
D
330
C
100
AcDbDictionary
281
    1
  0
ENDSEC
  0
EOF
