999
dxfrw 0.6.3
  0
SECTION
  2
HEADER
  9
$ACADVER
  1
AC1021
  9
$DWGCODEPAGE
  3
ANSI_1252
  9
$INSBASE
 10
0
 20
0
 30
0
  9
$EXTMIN
 10
-600.0000000000002
 20
-800
 30
0
  9
$EXTMAX
 10
1600
 20
1866.666666666667
 30
0
  9
$LIMMIN
 10
0
 20
0
  9
$LIMMAX
 10
420
 20
297
  9
$ORTHOMODE
 70
    0
  9
$REGENMODE
 70
    1
  9
$FILLMODE
 70
    1
  9
$QTEXTMODE
 70
    0
  9
$MIRRTEXT
 70
    0
  9
$LTSCALE
 40
1
  9
$ATTMODE
 70
    0
  9
$TEXTSIZE
 40
2.5
  9
$TRACEWID
 40
15.68
  9
$TEXTSTYLE
  7
STANDARD
  9
$CLAYER
  8
segmenty
  9
$CELTYPE
  6
BYLAYER
  9
$CECOLOR
 62
  256
  9
$CELTSCALE
 40
1
  9
$DISPSILH
 70
    0
  9
$DIMSCALE
 40
10
  9
$DIMASZ
 40
2
  9
$DIMEXO
 40
1
  9
$DIMDLI
 40
3.75
  9
$DIMRND
 40
0
  9
$DIMDLE
 40
0
  9
$DIMEXE
 40
2
  9
$DIMTP
 40
0
  9
$DIMTM
 40
0
  9
$DIMTXT
 40
4
  9
$DIMCEN
 40
2.5
  9
$DIMTSZ
 40
2
  9
$DIMTOL
 70
    0
  9
$DIMLIM
 70
    0
  9
$DIMTIH
 70
    0
  9
$DIMTOH
 70
    0
  9
$DIMSE1
 70
    0
  9
$DIMSE2
 70
    0
  9
$DIMTAD
 70
    1
  9
$DIMZIN
 70
    8
  9
$DIMBLK
  1

  9
$DIMASO
 70
    1
  9
$DIMSHO
 70
    1
  9
$DIMPOST
  1

  9
$DIMAPOST
  1

  9
$DIMALT
 70
    0
  9
$DIMALTD
 70
    3
  9
$DIMALTF
 40
0.03937
  9
$DIMLFAC
 40
1
  9
$DIMTOFL
 70
    1
  9
$DIMTVP
 40
0
  9
$DIMTIX
 70
    0
  9
$DIMSOXD
 70
    0
  9
$DIMSAH
 70
    0
  9
$DIMBLK1
  1

  9
$DIMBLK2
  1

  9
$DIMSTYLE
  2
STANDARD
  9
$DIMCLRD
 70
    0
  9
$DIMCLRE
 70
    0
  9
$DIMCLRT
 70
    0
  9
$DIMTFAC
 40
1
  9
$DIMGAP
 40
2
  9
$DIMJUST
 70
    0
  9
$DIMSD1
 70
    0
  9
$DIMSD2
 70
    0
  9
$DIMTOLJ
 70
    0
  9
$DIMTZIN
 70
    8
  9
$DIMALTZ
 70
    0
  9
$DIMALTTZ
 70
    0
  9
$DIMUPT
 70
    0
  9
$DIMDEC
 70
    1
  9
$DIMTDEC
 70
    2
  9
$DIMALTU
 70
    2
  9
$DIMALTTD
 70
    3
  9
$DIMTXSTY
  7
standard
  9
$DIMAUNIT
 70
    0
  9
$DIMADEC
 70
    0
  9
$DIMALTRND
 40
0
  9
$DIMAZIN
 70
    0
  9
$DIMDSEP
 70
   44
  9
$DIMATFIT
 70
    3
  9
$DIMFRAC
 70
    0
  9
$DIMLDRBLK
  1
STANDARD
  9
$DIMLUNIT
 70
    2
  9
$DIMLWD
 70
   -2
  9
$DIMLWE
 70
   -2
  9
$DIMTMOVE
 70
    0
  9
$DIMFXL
 40
1
  9
$DIMFXLON
 70
    0
  9
$DIMJOGANG
 40
0.7854
  9
$DIMTFILL
 70
    0
  9
$DIMTFILLCLR
 70
    0
  9
$DIMARCSYM
 70
    0
  9
$DIMLTYPE
  6

  9
$DIMLTEX1
  6

  9
$DIMLTEX2
  6

  9
$LUNITS
 70
    2
  9
$LUPREC
 70
    2
  9
$SKETCHINC
 40
1
  9
$FILLETRAD
 40
0
  9
$AUNITS
 70
    0
  9
$AUPREC
 70
    2
  9
$MENU
  1
.
  9
$ELEVATION
 40
0
  9
$PELEVATION
 40
0
  9
$THICKNESS
 40
0
  9
$LIMCHECK
 70
    0
  9
$CHAMFERA
 40
0
  9
$CHAMFERB
 40
0
  9
$CHAMFERC
 40
0
  9
$CHAMFERD
 40
0
  9
$SKPOLY
 70
    0
  9
$USRTIMER
 70
    1
  9
$ANGBASE
 50
0
  9
$ANGDIR
 70
    0
  9
$PDMODE
 70
   34
  9
$PDSIZE
 40
0
  9
$PLINEWID
 40
0
  9
$SPLFRAME
 70
    0
  9
$SPLINETYPE
 70
    2
  9
$SPLINESEGS
 70
    8
  9
$HANDSEED
  5
20000
  9
$SURFTAB1
 70
    6
  9
$SURFTAB2
 70
    6
  9
$SURFTYPE
 70
    6
  9
$SURFU
 70
    6
  9
$SURFV
 70
    6
  9
$UCSBASE
  2

  9
$UCSNAME
  2

  9
$UCSORG
 10
0
 20
0
 30
0
  9
$UCSXDIR
 10
1
 20
0
 30
0
  9
$UCSYDIR
 10
0
 20
1
 30
0
  9
$UCSORTHOREF
  2

  9
$UCSORTHOVIEW
 70
    0
  9
$UCSORGTOP
 10
0
 20
0
 30
0
  9
$UCSORGBOTTOM
 10
0
 20
0
 30
0
  9
$UCSORGLEFT
 10
0
 20
0
 30
0
  9
$UCSORGRIGHT
 10
0
 20
0
 30
0
  9
$UCSORGFRONT
 10
0
 20
0
 30
0
  9
$UCSORGBACK
 10
0
 20
0
 30
0
  9
$PUCSBASE
  2

  9
$PUCSNAME
  2

  9
$PUCSORG
 10
0
 20
0
 30
0
  9
$PUCSXDIR
 10
1
 20
0
 30
0
  9
$PUCSYDIR
 10
0
 20
1
 30
0
  9
$PUCSORTHOREF
  2

  9
$PUCSORTHOVIEW
 70
    0
  9
$PUCSORGTOP
 10
0
 20
0
 30
0
  9
$PUCSORGBOTTOM
 10
0
 20
0
 30
0
  9
$PUCSORGLEFT
 10
0
 20
0
 30
0
  9
$PUCSORGRIGHT
 10
0
 20
0
 30
0
  9
$PUCSORGFRONT
 10
0
 20
0
 30
0
  9
$PUCSORGBACK
 10
0
 20
0
 30
0
  9
$USERI1
 70
    0
  9
$USERI2
 70
    0
  9
$USERI3
 70
    0
  9
$USERI4
 70
    0
  9
$USERI5
 70
    0
  9
$USERR1
 40
0
  9
$USERR2
 40
0
  9
$USERR3
 40
0
  9
$USERR4
 40
0
  9
$USERR5
 40
0
  9
$WORLDVIEW
 70
    1
  9
$SHADEDGE
 70
    3
  9
$SHADEDIF
 70
   70
  9
$TILEMODE
 70
    1
  9
$MAXACTVP
 70
   64
  9
$PINSBASE
 10
10.9650372311907
 20
7.180020354130225
 30
0
  9
$PLIMCHECK
 70
    0
  9
$PEXTMIN
 10
0
 20
0
 30
0
  9
$PEXTMAX
 10
0
 20
0
 30
0
  9
$GRIDMODE
 70
    1
  9
$SNAPSTYLE
 70
    0
  9
$GRIDUNIT
 10
0
 20
0
  9
$PLIMMIN
 10
0
 20
0
  9
$PLIMMAX
 10
29.7
 20
21
  9
$UNITMODE
 70
    0
  9
$VISRETAIN
 70
    1
  9
$PLINEGEN
 70
    0
  9
$PSLTSCALE
 70
    1
  9
$TREEDEPTH
 70
 3020
  9
$CMLSTYLE
  2
Standard
  9
$CMLJUST
 70
    0
  9
$CMLSCALE
 40
20
  9
$PROXYGRAPHICS
 70
    1
  9
$MEASUREMENT
 70
    1
  9
$CELWEIGHT
370
   -1
  9
$ENDCAPS
280
    0
  9
$JOINSTYLE
280
    0
  9
$LWDISPLAY
290
    0
  9
$INSUNITS
 70
    5
  9
$HYPERLINKBASE
  1

  9
$STYLESHEET
  1

  9
$XEDIT
290
    1
  9
$CEPSNTYPE
380
    0
  9
$PSTYLEMODE
290
    1
  9
$EXTNAMES
290
    1
  9
$PSVPSCALE
 40
0.006937506937506937
  9
$OLESTARTUP
290
    0
  9
$SORTENTS
280
  127
  9
$INDEXCTL
280
    0
  9
$HIDETEXT
280
    1
  9
$XCLIPFRAME
290
    0
  9
$HALOGAP
280
    0
  9
$OBSCOLOR
 70
  257
  9
$OBSLTYPE
280
    0
  9
$INTERSECTIONDISPLAY
280
    0
  9
$INTERSECTIONCOLOR
 70
  257
  9
$DIMASSOC
280
    1
  9
$PROJECTNAME
  1

  9
$CAMERADISPLAY
290
    0
  9
$LENSLENGTH
 40
50
  9
$CAMERAHEIGHT
 40
0
  9
$STEPSPERSEC
 40
2
  9
$STEPSIZE
 40
50
  9
$3DDWFPREC
 40
2
  9
$PSOLWIDTH
 40
5
  9
$PSOLHEIGHT
 40
80
  9
$LOFTANG1
 40
1.570796326794897
  9
$LOFTANG2
 40
1.570796326794897
  9
$LOFTMAG1
 40
0
  9
$LOFTMAG2
 40
0
  9
$LOFTPARAM
 70
    7
  9
$LOFTNORMALS
280
    1
  9
$LATITUDE
 40
1
  9
$LONGITUDE
 40
1
  9
$NORTHDIRECTION
 40
0
  9
$TIMEZONE
 70
-8000
  9
$LIGHTGLYPHDISPLAY
280
    1
  9
$TILEMODELIGHTSYNCH
280
    1
  9
$SOLIDHIST
280
    1
  9
$SHOWHIST
280
    1
  9
$DWFFRAME
280
    2
  9
$DGNFRAME
280
    0
  9
$REALWORLDSCALE
290
    1
  9
$INTERFERECOLOR
 62
    1
  9
$CSHADOW
280
    0
  9
$SHADOWPLANELOCATION
 40
0
  0
ENDSEC
  0
SECTION
  2
CLASSES
  0
ENDSEC
  0
SECTION
  2
TABLES
  0
TABLE
  2
VPORT
  5
8
330
0
100
AcDbSymbolTable
 70
    1
  0
VPORT
  5
31
330
2
100
AcDbSymbolTableRecord
100
AcDbViewportTableRecord
  2
*ACTIVE
 70
    0
 10
0
 20
0
 11
1
 21
1
 12
-683.1746031746032
 22
-271.7460317460318
 13
0
 23
0
 14
10
 24
10
 15
10
 25
10
 16
0
 26
0
 36
1
 17
0
 27
0
 37
0
 40
304.7619047619048
 41
1.65
 42
50
 43
0
 44
0
 50
0
 51
0
 71
    0
 72
  100
 73
    1
 74
    3
 75
    0
 76
    1
 77
    0
 78
    0
281
    0
 65
    1
110
0
120
0
130
0
111
1
121
0
131
0
112
0
122
1
132
0
 79
    0
146
0
348
10020
 60
    7
 61
    5
292
1
282
    1
141
0
142
0
 63
  250
421
3358443
  0
ENDTAB
  0
TABLE
  2
LTYPE
  5
5
330
0
100
AcDbSymbolTable
 70
    4
  0
LTYPE
  5
14
330
5
100
AcDbSymbolTableRecord
100
AcDbLinetypeTableRecord
  2
ByBlock
 70
    0
  3

 72
   65
 73
    0
 40
0
  0
LTYPE
  5
15
330
5
100
AcDbSymbolTableRecord
100
AcDbLinetypeTableRecord
  2
ByLayer
 70
    0
  3

 72
   65
 73
    0
 40
0
  0
LTYPE
  5
16
330
5
100
AcDbSymbolTableRecord
100
AcDbLinetypeTableRecord
  2
Continuous
 70
    0
  3
Solid line
 72
   65
 73
    0
 40
0
  0
LTYPE
  5
32
330
5
100
AcDbSymbolTableRecord
100
AcDbLinetypeTableRecord
  2
DOT
 70
    0
  3
Dot . . . . . . . . . . . . . . . . . . . . . .
 72
   65
 73
    2
 40
6.35
 49
0
 74
    0
 49
-6.35
 74
    0
  0
LTYPE
  5
33
330
5
100
AcDbSymbolTableRecord
100
AcDbLinetypeTableRecord
  2
DOTTINY
 70
    0
  3
Dot (.15x) .....................................
 72
   65
 73
    2
 40
0.9525
 49
0
 74
    0
 49
-0.9525
 74
    0
  0
LTYPE
  5
34
330
5
100
AcDbSymbolTableRecord
100
AcDbLinetypeTableRecord
  2
DOT2
 70
    0
  3
Dot (.5x) .....................................
 72
   65
 73
    2
 40
3.175
 49
0
 74
    0
 49
-3.175
 74
    0
  0
LTYPE
  5
35
330
5
100
AcDbSymbolTableRecord
100
AcDbLinetypeTableRecord
  2
DOTX2
 70
    0
  3
Dot (2x) .  .  .  .  .  .  .  .  .  .  .  .  .
 72
   65
 73
    2
 40
12.7
 49
0
 74
    0
 49
-12.7
 74
    0
  0
LTYPE
  5
36
330
5
100
AcDbSymbolTableRecord
100
AcDbLinetypeTableRecord
  2
DASHED
 70
    0
  3
Dashed _ _ _ _ _ _ _ _ _ _ _ _ _ _ _ _ _
 72
   65
 73
    2
 40
19.05
 49
12.7
 74
    0
 49
-6.35
 74
    0
  0
LTYPE
  5
37
330
5
100
AcDbSymbolTableRecord
100
AcDbLinetypeTableRecord
  2
DASHEDTINY
 70
    0
  3
Dashed (.15x) _ _ _ _ _ _ _ _ _ _ _ _ _ _ _ _ _
 72
   65
 73
    2
 40
2.8575
 49
1.905
 74
    0
 49
-0.9525
 74
    0
  0
LTYPE
  5
38
330
5
100
AcDbSymbolTableRecord
100
AcDbLinetypeTableRecord
  2
DASHED2
 70
    0
  3
Dashed (.5x) _ _ _ _ _ _ _ _ _ _ _ _ _ _ _ _ _
 72
   65
 73
    2
 40
9.524999999999999
 49
6.35
 74
    0
 49
-3.175
 74
    0
  0
LTYPE
  5
39
330
5
100
AcDbSymbolTableRecord
100
AcDbLinetypeTableRecord
  2
DASHEDX2
 70
    0
  3
Dashed (2x) ____  ____  ____  ____  ____  ___
 72
   65
 73
    2
 40
38.09999999999999
 49
25.4
 74
    0
 49
-12.7
 74
    0
  0
LTYPE
  5
3A
330
5
100
AcDbSymbolTableRecord
100
AcDbLinetypeTableRecord
  2
DASHDOT
 70
    0
  3
Dash dot __ . __ . __ . __ . __ . __ . __ . __
 72
   65
 73
    4
 40
25.4
 49
12.7
 74
    0
 49
-6.35
 74
    0
 49
0
 74
    0
 49
-6.35
 74
    0
  0
LTYPE
  5
3B
330
5
100
AcDbSymbolTableRecord
100
AcDbLinetypeTableRecord
  2
DASHDOTTINY
 70
    0
  3
Dash dot (.15x) _._._._._._._._._._._._._._._.
 72
   65
 73
    4
 40
3.81
 49
1.905
 74
    0
 49
-0.9525
 74
    0
 49
0
 74
    0
 49
-0.9525
 74
    0
  0
LTYPE
  5
3C
330
5
100
AcDbSymbolTableRecord
100
AcDbLinetypeTableRecord
  2
DASHDOT2
 70
    0
  3
Dash dot (.5x) _._._._._._._._._._._._._._._.
 72
   65
 73
    4
 40
12.7
 49
6.35
 74
    0
 49
-3.175
 74
    0
 49
0
 74
    0
 49
-3.175
 74
    0
  0
LTYPE
  5
3D
330
5
100
AcDbSymbolTableRecord
100
AcDbLinetypeTableRecord
  2
DASHDOTX2
 70
    0
  3
Dash dot (2x) ____  .  ____  .  ____  .  ___
 72
   65
 73
    4
 40
50.8
 49
25.4
 74
    0
 49
-12.7
 74
    0
 49
0
 74
    0
 49
-12.7
 74
    0
  0
LTYPE
  5
3E
330
5
100
AcDbSymbolTableRecord
100
AcDbLinetypeTableRecord
  2
DIVIDE
 70
    0
  3
Divide ____ . . ____ . . ____ . . ____ . . ____
 72
   65
 73
    6
 40
31.75
 49
12.7
 74
    0
 49
-6.35
 74
    0
 49
0
 74
    0
 49
-6.35
 74
    0
 49
0
 74
    0
 49
-6.35
 74
    0
  0
LTYPE
  5
3F
330
5
100
AcDbSymbolTableRecord
100
AcDbLinetypeTableRecord
  2
DIVIDETINY
 70
    0
  3
Divide (.15x) __..__..__..__..__..__..__..__.._
 72
   65
 73
    6
 40
4.7625
 49
1.905
 74
    0
 49
-0.9525
 74
    0
 49
0
 74
    0
 49
-0.9525
 74
    0
 49
0
 74
    0
 49
-0.9525
 74
    0
  0
LTYPE
  5
40
330
5
100
AcDbSymbolTableRecord
100
AcDbLinetypeTableRecord
  2
DIVIDE2
 70
    0
  3
Divide (.5x) __..__..__..__..__..__..__..__.._
 72
   65
 73
    6
 40
15.875
 49
6.35
 74
    0
 49
-3.175
 74
    0
 49
0
 74
    0
 49
-3.175
 74
    0
 49
0
 74
    0
 49
-3.175
 74
    0
  0
LTYPE
  5
41
330
5
100
AcDbSymbolTableRecord
100
AcDbLinetypeTableRecord
  2
DIVIDEX2
 70
    0
  3
Divide (2x) ________  .  .  ________  .  .  _
 72
   65
 73
    6
 40
63.5
 49
25.4
 74
    0
 49
-12.7
 74
    0
 49
0
 74
    0
 49
-12.7
 74
    0
 49
0
 74
    0
 49
-12.7
 74
    0
  0
LTYPE
  5
42
330
5
100
AcDbSymbolTableRecord
100
AcDbLinetypeTableRecord
  2
BORDER
 70
    0
  3
Border __ __ . __ __ . __ __ . __ __ . __ __ .
 72
   65
 73
    6
 40
44.45
 49
12.7
 74
    0
 49
-6.35
 74
    0
 49
12.7
 74
    0
 49
-6.35
 74
    0
 49
0
 74
    0
 49
-6.35
 74
    0
  0
LTYPE
  5
43
330
5
100
AcDbSymbolTableRecord
100
AcDbLinetypeTableRecord
  2
BORDERTINY
 70
    0
  3
Border (.15x) __.__.__.__.__.__.__.__.__.__.__.
 72
   65
 73
    6
 40
6.6675
 49
1.905
 74
    0
 49
-0.9525
 74
    0
 49
1.905
 74
    0
 49
-0.9525
 74
    0
 49
0
 74
    0
 49
-0.9525
 74
    0
  0
LTYPE
  5
44
330
5
100
AcDbSymbolTableRecord
100
AcDbLinetypeTableRecord
  2
BORDER2
 70
    0
  3
Border (.5x) __.__.__.__.__.__.__.__.__.__.__.
 72
   65
 73
    6
 40
22.225
 49
6.35
 74
    0
 49
-3.175
 74
    0
 49
6.35
 74
    0
 49
-3.175
 74
    0
 49
0
 74
    0
 49
-3.175
 74
    0
  0
LTYPE
  5
45
330
5
100
AcDbSymbolTableRecord
100
AcDbLinetypeTableRecord
  2
BORDERX2
 70
    0
  3
Border (2x) ____  ____  .  ____  ____  .  ___
 72
   65
 73
    6
 40
88.89999999999999
 49
25.4
 74
    0
 49
-12.7
 74
    0
 49
25.4
 74
    0
 49
-12.7
 74
    0
 49
0
 74
    0
 49
-12.7
 74
    0
  0
LTYPE
  5
46
330
5
100
AcDbSymbolTableRecord
100
AcDbLinetypeTableRecord
  2
CENTER
 70
    0
  3
Center ____ _ ____ _ ____ _ ____ _ ____ _ ____
 72
   65
 73
    4
 40
50.8
 49
31.75
 74
    0
 49
-6.35
 74
    0
 49
6.35
 74
    0
 49
-6.35
 74
    0
  0
LTYPE
  5
47
330
5
100
AcDbSymbolTableRecord
100
AcDbLinetypeTableRecord
  2
CENTERTINY
 70
    0
  3
Center (.15x) ___ _ ___ _ ___ _ ___ _ ___ _ ___
 72
   65
 73
    4
 40
7.619999999999999
 49
4.7625
 74
    0
 49
-0.9525
 74
    0
 49
0.9525
 74
    0
 49
-0.9525
 74
    0
  0
LTYPE
  5
48
330
5
100
AcDbSymbolTableRecord
100
AcDbLinetypeTableRecord
  2
CENTER2
 70
    0
  3
Center (.5x) ___ _ ___ _ ___ _ ___ _ ___ _ ___
 72
   65
 73
    4
 40
28.575
 49
19.05
 74
    0
 49
-3.175
 74
    0
 49
3.175
 74
    0
 49
-3.175
 74
    0
  0
LTYPE
  5
49
330
5
100
AcDbSymbolTableRecord
100
AcDbLinetypeTableRecord
  2
CENTERX2
 70
    0
  3
Center (2x) ________  __  ________  __  _____
 72
   65
 73
    4
 40
101.6
 49
63.5
 74
    0
 49
-12.7
 74
    0
 49
12.7
 74
    0
 49
-12.7
 74
    0
  0
ENDTAB
  0
TABLE
  2
LAYER
  5
2
330
0
100
AcDbSymbolTable
 70
    1
  0
LAYER
  5
10
330
2
100
AcDbSymbolTableRecord
100
AcDbLayerTableRecord
  2
0
 70
    1
 62
    7
  6
CONTINUOUS
370
   -3
390
F
1001
LibreCad
1070
    1
  0
LAYER
  5
4A
330
2
100
AcDbSymbolTableRecord
100
AcDbLayerTableRecord
  2
dimensions
 70
    0
 62
    4
  6
CONTINUOUS
370
   13
390
F
  0
LAYER
  5
4B
330
2
100
AcDbSymbolTableRecord
100
AcDbLayerTableRecord
  2
fundament
 70
    0
 62
  136
420
32896
  6
CONTINUOUS
370
   50
390
F
  0
LAYER
  5
4C
330
2
100
AcDbSymbolTableRecord
100
AcDbLayerTableRecord
  2
grunt
 70
    0
 62
   56
420
8421376
  6
CONTINUOUS
370
   50
390
F
  0
LAYER
  5
4D
330
2
100
AcDbSymbolTableRecord
100
AcDbLayerTableRecord
  2
otsypka
 70
    0
 62
   96
420
32768
  6
CONTINUOUS
370
   50
390
F
  0
LAYER
  5
4E
330
2
100
AcDbSymbolTableRecord
100
AcDbLayerTableRecord
  2
segmenty
 70
    1
 62
    1
  6
CONTINUOUS
370
   25
390
F
  0
LAYER
  5
4F
330
2
100
AcDbSymbolTableRecord
100
AcDbLayerTableRecord
  2
teloizol
 70
    0
 62
   16
420
8388608
  6
CONTINUOUS
370
   50
390
F
  0
LAYER
  5
50
330
2
100
AcDbSymbolTableRecord
100
AcDbLayerTableRecord
  2
zasypka
 70
    0
 62
    2
  6
CONTINUOUS
370
   50
390
F
  0
ENDTAB
  0
TABLE
  2
STYLE
  5
3
330
0
100
AcDbSymbolTable
 70
    3
  0
STYLE
  5
51
330
2
100
AcDbSymbolTableRecord
100
AcDbTextStyleTableRecord
  2
cyrillic_ii
 70
    0
 40
0
 41
1
 50
0
 71
    0
 42
1
  3
cyrillic_ii
  4

  0
STYLE
  5
52
330
2
100
AcDbSymbolTableRecord
100
AcDbTextStyleTableRecord
  2
Standard
 70
    0
 40
0
 41
1
 50
0
 71
    0
 42
1
  3
txt
  4

  0
ENDTAB
  0
TABLE
  2
VIEW
  5
6
330
0
100
AcDbSymbolTable
 70
    0
  0
ENDTAB
  0
TABLE
  2
UCS
  5
7
330
0
100
AcDbSymbolTable
 70
    0
  0
ENDTAB
  0
TABLE
  2
APPID
  5
9
330
0
100
AcDbSymbolTable
 70
    1
  0
APPID
  5
12
330
9
100
AcDbSymbolTableRecord
100
AcDbRegAppTableRecord
  2
ACAD
 70
    0
  0
APPID
  5
53
330
9
100
AcDbSymbolTableRecord
100
AcDbRegAppTableRecord
  2
LibreCad
 70
    0
  0
ENDTAB
  0
TABLE
  2
DIMSTYLE
  5
A
330
0
100
AcDbSymbolTable
 70
    1
100
AcDbDimStyleTable
 71
    1
  0
DIMSTYLE
105
54
330
A
100
AcDbSymbolTableRecord
100
AcDbDimStyleTableRecord
  2
Standard
 70
    0
 40
10
 41
2
 42
1
 43
0.38
 44
2
 45
0
 46
0
 47
0
 48
0
 49
1
140
4
141
0.09
142
2
143
25.4
144
1
145
0
146
1
147
2
148
0
 71
    0
 72
    0
 73
    0
 74
    1
 75
    0
 76
    0
 77
    0
 78
    8
 79
    0
170
    0
171
    2
172
    0
173
    0
174
    0
175
    0
176
    0
177
    0
178
    0
179
    0
271
    1
272
    4
273
    2
274
    2
275
    0
276
    0
277
    2
278
   44
279
    0
280
    0
281
    0
282
    0
283
    1
284
    0
285
    0
286
    0
288
    0
289
    3
340
standard
341

371
   -2
372
   -2
  0
ENDTAB
  0
TABLE
  2
BLOCK_RECORD
  5
1
330
0
100
AcDbSymbolTable
 70
    2
  0
BLOCK_RECORD
  5
1F
330
1
100
AcDbSymbolTableRecord
100
AcDbBlockTableRecord
  2
*Model_Space
 70
    0
280
    1
281
    0
  0
BLOCK_RECORD
  5
1E
330
1
100
AcDbSymbolTableRecord
100
AcDbBlockTableRecord
  2
*Paper_Space
 70
    0
280
    1
281
    0
  0
BLOCK_RECORD
  5
55
330
1
100
AcDbSymbolTableRecord
100
AcDbBlockTableRecord
  2
*D18
 70
    0
280
    1
281
    0
  0
BLOCK_RECORD
  5
58
330
1
100
AcDbSymbolTableRecord
100
AcDbBlockTableRecord
  2
*D5
 70
    0
280
    1
281
    0
  0
BLOCK_RECORD
  5
5B
330
1
100
AcDbSymbolTableRecord
100
AcDbBlockTableRecord
  2
*D21
 70
    0
280
    1
281
    0
  0
BLOCK_RECORD
  5
5E
330
1
100
AcDbSymbolTableRecord
100
AcDbBlockTableRecord
  2
*D16
 70
    0
280
    1
281
    0
  0
BLOCK_RECORD
  5
61
330
1
100
AcDbSymbolTableRecord
100
AcDbBlockTableRecord
  2
*D23
 70
    0
280
    1
281
    0
  0
BLOCK_RECORD
  5
64
330
1
100
AcDbSymbolTableRecord
100
AcDbBlockTableRecord
  2
*D15
 70
    0
280
    1
281
    0
  0
BLOCK_RECORD
  5
67
330
1
100
AcDbSymbolTableRecord
100
AcDbBlockTableRecord
  2
*D8
 70
    0
280
    1
281
    0
  0
BLOCK_RECORD
  5
6A
330
1
100
AcDbSymbolTableRecord
100
AcDbBlockTableRecord
  2
*D22
 70
    0
280
    1
281
    0
  0
BLOCK_RECORD
  5
6D
330
1
100
AcDbSymbolTableRecord
100
AcDbBlockTableRecord
  2
*D7
 70
    0
280
    1
281
    0
  0
BLOCK_RECORD
  5
70
330
1
100
AcDbSymbolTableRecord
100
AcDbBlockTableRecord
  2
*D1
 70
    0
280
    1
281
    0
  0
BLOCK_RECORD
  5
73
330
1
100
AcDbSymbolTableRecord
100
AcDbBlockTableRecord
  2
*D3
 70
    0
280
    1
281
    0
  0
BLOCK_RECORD
  5
76
330
1
100
AcDbSymbolTableRecord
100
AcDbBlockTableRecord
  2
*D4
 70
    0
280
    1
281
    0
  0
BLOCK_RECORD
  5
79
330
1
100
AcDbSymbolTableRecord
100
AcDbBlockTableRecord
  2
*D14
 70
    0
280
    1
281
    0
  0
BLOCK_RECORD
  5
7C
330
1
100
AcDbSymbolTableRecord
100
AcDbBlockTableRecord
  2
*D12
 70
    0
280
    1
281
    0
  0
BLOCK_RECORD
  5
7F
330
1
100
AcDbSymbolTableRecord
100
AcDbBlockTableRecord
  2
*D11
 70
    0
280
    1
281
    0
  0
BLOCK_RECORD
  5
82
330
1
100
AcDbSymbolTableRecord
100
AcDbBlockTableRecord
  2
*D13
 70
    0
280
    1
281
    0
  0
BLOCK_RECORD
  5
85
330
1
100
AcDbSymbolTableRecord
100
AcDbBlockTableRecord
  2
*D20
 70
    0
280
    1
281
    0
  0
BLOCK_RECORD
  5
88
330
1
100
AcDbSymbolTableRecord
100
AcDbBlockTableRecord
  2
*D17
 70
    0
280
    1
281
    0
  0
BLOCK_RECORD
  5
8B
330
1
100
AcDbSymbolTableRecord
100
AcDbBlockTableRecord
  2
*D6
 70
    0
280
    1
281
    0
  0
BLOCK_RECORD
  5
8E
330
1
100
AcDbSymbolTableRecord
100
AcDbBlockTableRecord
  2
*D2
 70
    0
280
    1
281
    0
  0
BLOCK_RECORD
  5
91
330
1
100
AcDbSymbolTableRecord
100
AcDbBlockTableRecord
  2
*D10
 70
    0
280
    1
281
    0
  0
BLOCK_RECORD
  5
94
330
1
100
AcDbSymbolTableRecord
100
AcDbBlockTableRecord
  2
*D19
 70
    0
280
    1
281
    0
  0
BLOCK_RECORD
  5
97
330
1
100
AcDbSymbolTableRecord
100
AcDbBlockTableRecord
  2
*D9
 70
    0
280
    1
281
    0
  0
ENDTAB
  0
ENDSEC
  0
SECTION
  2
BLOCKS
  0
BLOCK
  5
20
330
1F
100
AcDbEntity
  8
0
100
AcDbBlockBegin
  2
*Model_Space
 70
    0
 10
0
 20
0
 30
0
  3
*Model_Space
  1

  0
ENDBLK
  5
21
330
1F
100
AcDbEntity
  8
0
100
AcDbBlockEnd
  0
BLOCK
  5
1C
330
1B
100
AcDbEntity
  8
0
100
AcDbBlockBegin
  2
*Paper_Space
 70
    0
 10
0
 20
0
 30
0
  3
*Paper_Space
  1

  0
ENDBLK
  5
1D
330
1F
100
AcDbEntity
  8
0
100
AcDbBlockEnd
  0
BLOCK
  5
56
330
55
100
AcDbEntity
  8
0
100
AcDbBlockBegin
  2
*D18
 70
    1
 10
0
 20
0
  3
*D18
  1

  0
LINE
  5
9A
100
AcDbEntity
  8
dimensions
  6
ByBlock
 62
    0
370
   -2
100
AcDbLine
 10
300
 20
-100
 11
420
 21
-100
  0
LINE
  5
9B
100
AcDbEntity
  8
dimensions
  6
ByBlock
 62
    0
370
   -2
100
AcDbLine
 10
325.857864376269
 20
-114.142135623731
 11
354.142135623731
 21
-85.85786437626905
  0
LINE
  5
9C
100
AcDbEntity
  8
dimensions
  6
ByBlock
 62
    0
370
   -2
100
AcDbLine
 10
365.857864376269
 20
-114.142135623731
 11
394.142135623731
 21
-85.85786437626905
  0
MTEXT
  5
9D
100
AcDbEntity
  8
dimensions
  6
CONTINUOUS
 62
    0
370
   -2
100
AcDbMText
 10
296.6666666666667
 20
-60
 30
0
 40
40
 41
53.33333333333334
 71
    5
 72
    1
  1
40
  7
standard
210
0
220
0
230
1
 50
0
 73
    2
 44
1
  0
LINE
  5
9E
100
AcDbEntity
  8
dimensions
  6
ByBlock
 62
    0
370
   -2
100
AcDbLine
 10
340
 20
30.00003600000008
 11
340
 21
-120
  0
LINE
  5
9F
100
AcDbEntity
  8
dimensions
  6
ByBlock
 62
    0
370
   -2
100
AcDbLine
 10
380
 20
30.00003600000008
 11
380
 21
-120
  0
ENDBLK
  5
57
330
55
100
AcDbEntity
  8
0
100
AcDbBlockEnd
  0
BLOCK
  5
59
330
58
100
AcDbEntity
  8
0
100
AcDbBlockBegin
  2
*D5
 70
    1
 10
0
 20
0
  3
*D5
  1

  0
LINE
  5
A0
100
AcDbEntity
  8
dimensions
  6
ByBlock
 62
    0
370
   -2
100
AcDbLine
 10
920
 20
-100
 11
1040
 21
-100
  0
LINE
  5
A1
100
AcDbEntity
  8
dimensions
  6
ByBlock
 62
    0
370
   -2
100
AcDbLine
 10
945.857864376269
 20
-114.142135623731
 11
974.142135623731
 21
-85.85786437626905
  0
LINE
  5
A2
100
AcDbEntity
  8
dimensions
  6
ByBlock
 62
    0
370
   -2
100
AcDbLine
 10
985.857864376269
 20
-114.142135623731
 11
1014.142135623731
 21
-85.85786437626905
  0
MTEXT
  5
A3
100
AcDbEntity
  8
dimensions
  6
CONTINUOUS
 62
    0
370
   -2
100
AcDbMText
 10
1046.666666666667
 20
-60
 30
0
 40
40
 41
53.33333333333334
 71
    5
 72
    1
  1
40
  7
standard
210
0
220
0
230
1
 50
0
 73
    2
 44
1
  0
LINE
  5
A4
100
AcDbEntity
  8
dimensions
  6
ByBlock
 62
    0
370
   -2
100
AcDbLine
 10
960
 20
30.00000000000001
 11
960
 21
-120
  0
LINE
  5
A5
100
AcDbEntity
  8
dimensions
  6
ByBlock
 62
    0
370
   -2
100
AcDbLine
 10
1000
 20
-10
 11
1000
 21
-120
  0
ENDBLK
  5
5A
330
58
100
AcDbEntity
  8
0
100
AcDbBlockEnd
  0
BLOCK
  5
5C
330
5B
100
AcDbEntity
  8
0
100
AcDbBlockBegin
  2
*D21
 70
    1
 10
0
 20
0
  3
*D21
  1

  0
LINE
  5
A6
100
AcDbEntity
  8
dimensions
  6
ByBlock
 62
    0
370
   -2
100
AcDbLine
 10
1100
 20
40
 11
1100
 21
513
  0
LINE
  5
A7
100
AcDbEntity
  8
dimensions
  6
ByBlock
 62
    0
370
   -2
100
AcDbLine
 10
1085.857864376269
 20
54.14213562373095
 11
1114.142135623731
 21
25.85786437626905
  0
LINE
  5
A8
100
AcDbEntity
  8
dimensions
  6
ByBlock
 62
    0
370
   -2
100
AcDbLine
 10
1085.857864376269
 20
527.142135623731
 11
1114.142135623731
 21
498.857864376269
  0
MTEXT
  5
A9
100
AcDbEntity
  8
dimensions
  6
CONTINUOUS
 62
    0
370
   -2
100
AcDbMText
 10
1060
 20
276.5
 30
0
 40
40
 41
84.44444444444693
 71
    5
 72
    1
  1
473
  7
standard
210
0
220
0
230
1
 50
90
 73
    2
 44
1
  0
LINE
  5
AA
100
AcDbEntity
  8
dimensions
  6
ByBlock
 62
    0
370
   -2
100
AcDbLine
 10
970
 20
40.00000000000001
 11
1120
 21
40
  0
LINE
  5
AB
100
AcDbEntity
  8
dimensions
  6
ByBlock
 62
    0
370
   -2
100
AcDbLine
 10
970
 20
513
 11
1120
 21
513
  0
ENDBLK
  5
5D
330
5B
100
AcDbEntity
  8
0
100
AcDbBlockEnd
  0
BLOCK
  5
5F
330
5E
100
AcDbEntity
  8
0
100
AcDbBlockBegin
  2
*D16
 70
    1
 10
0
 20
0
  3
*D16
  1

  0
LINE
  5
AC
100
AcDbEntity
  8
dimensions
  6
ByBlock
 62
    0
370
   -2
100
AcDbLine
 10
380
 20
-100
 11
510
 21
-100
  0
LINE
  5
AD
100
AcDbEntity
  8
dimensions
  6
ByBlock
 62
    0
370
   -2
100
AcDbLine
 10
394.142135623731
 20
-85.85786437626905
 11
365.857864376269
 21
-114.142135623731
  0
LINE
  5
AE
100
AcDbEntity
  8
dimensions
  6
ByBlock
 62
    0
370
   -2
100
AcDbLine
 10
524.142135623731
 20
-85.85786437626905
 11
495.857864376269
 21
-114.142135623731
  0
MTEXT
  5
AF
100
AcDbEntity
  8
dimensions
  6
CONTINUOUS
 62
    0
370
   -2
100
AcDbMText
 10
445
 20
-60
 30
0
 40
40
 41
71.11111111111359
 71
    5
 72
    1
  1
130
  7
standard
210
0
220
0
230
1
 50
0
 73
    2
 44
1
  0
LINE
  5
B0
100
AcDbEntity
  8
dimensions
  6
ByBlock
 62
    0
370
   -2
100
AcDbLine
 10
380
 20
30.00003600000008
 11
380
 21
-120
  0
LINE
  5
B1
100
AcDbEntity
  8
dimensions
  6
ByBlock
 62
    0
370
   -2
100
AcDbLine
 10
510
 20
30.00003600000008
 11
510
 21
-120
  0
ENDBLK
  5
60
330
5E
100
AcDbEntity
  8
0
100
AcDbBlockEnd
  0
BLOCK
  5
62
330
61
100
AcDbEntity
  8
0
100
AcDbBlockBegin
  2
*D23
 70
    1
 10
0
 20
0
  3
*D23
  1

  0
LINE
  5
B2
100
AcDbEntity
  8
dimensions
  6
ByBlock
 62
    0
370
   -2
100
AcDbLine
 10
1100
 20
553
 11
1100
 21
1010
  0
LINE
  5
B3
100
AcDbEntity
  8
dimensions
  6
ByBlock
 62
    0
370
   -2
100
AcDbLine
 10
1085.857864376269
 20
567.142135623731
 11
1114.142135623731
 21
538.857864376269
  0
LINE
  5
B4
100
AcDbEntity
  8
dimensions
  6
ByBlock
 62
    0
370
   -2
100
AcDbLine
 10
1085.857864376269
 20
1024.142135623731
 11
1114.142135623731
 21
995.857864376269
  0
MTEXT
  5
B5
100
AcDbEntity
  8
dimensions
  6
CONTINUOUS
 62
    0
370
   -2
100
AcDbMText
 10
1060
 20
781.5
 30
0
 40
40
 41
84.44444444444693
 71
    5
 72
    1
  1
457
  7
standard
210
0
220
0
230
1
 50
90
 73
    2
 44
1
  0
LINE
  5
B6
100
AcDbEntity
  8
dimensions
  6
ByBlock
 62
    0
370
   -2
100
AcDbLine
 10
970
 20
553
 11
1120
 21
553
  0
LINE
  5
B7
100
AcDbEntity
  8
dimensions
  6
ByBlock
 62
    0
370
   -2
100
AcDbLine
 10
970
 20
1010
 11
1120
 21
1010
  0
ENDBLK
  5
63
330
61
100
AcDbEntity
  8
0
100
AcDbBlockEnd
  0
BLOCK
  5
65
330
64
100
AcDbEntity
  8
0
100
AcDbBlockBegin
  2
*D15
 70
    1
 10
0
 20
0
  3
*D15
  1

  0
LINE
  5
B8
100
AcDbEntity
  8
dimensions
  6
CONTINUOUS
 62
    7
370
    0
100
AcDbLine
 10
-460
 20
1460
 11
-460
 21
1530
  0
SOLID
  5
B9
100
AcDbEntity
  8
dimensions
  6
CONTINUOUS
 62
    7
370
    0
100
AcDbTrace
 10
-460
 20
1460
 30
0
 11
-463.3302772621827
 21
1480
 31
0
 12
-456.6697227378173
 22
1480
 32
0
 13
-456.6697227378173
 23
1480
 33
0
  0
ENDBLK
  5
66
330
64
100
AcDbEntity
  8
0
100
AcDbBlockEnd
  0
BLOCK
  5
68
330
67
100
AcDbEntity
  8
0
100
AcDbBlockBegin
  2
*D8
 70
    1
 10
0
 20
0
  3
*D8
  1

  0
LINE
  5
BA
100
AcDbEntity
  8
dimensions
  6
ByBlock
 62
    0
370
   -2
100
AcDbLine
 10
-350
 20
1400
 11
-350
 21
1500
  0
LINE
  5
BB
100
AcDbEntity
  8
dimensions
  6
ByBlock
 62
    0
370
   -2
100
AcDbLine
 10
-364.142135623731
 20
1414.142135623731
 11
-335.857864376269
 21
1385.857864376269
  0
LINE
  5
BC
100
AcDbEntity
  8
dimensions
  6
ByBlock
 62
    0
370
   -2
100
AcDbLine
 10
-364.142135623731
 20
1514.142135623731
 11
-335.857864376269
 21
1485.857864376269
  0
MTEXT
  5
BD
100
AcDbEntity
  8
dimensions
  6
CONTINUOUS
 62
    0
370
   -2
100
AcDbMText
 10
-390
 20
1450
 30
0
 40
40
 41
71.11111111111111
 71
    5
 72
    1
  1
100
  7
standard
210
0
220
0
230
1
 50
90
 73
    2
 44
1
  0
LINE
  5
BE
100
AcDbEntity
  8
dimensions
  6
ByBlock
 62
    0
370
   -2
100
AcDbLine
 10
-10
 20
1400
 11
-370
 21
1400
  0
LINE
  5
BF
100
AcDbEntity
  8
dimensions
  6
ByBlock
 62
    0
370
   -2
100
AcDbLine
 10
-10
 20
1500
 11
-370
 21
1500
  0
ENDBLK
  5
69
330
67
100
AcDbEntity
  8
0
100
AcDbBlockEnd
  0
BLOCK
  5
6B
330
6A
100
AcDbEntity
  8
0
100
AcDbBlockBegin
  2
*D22
 70
    1
 10
0
 20
0
  3
*D22
  1

  0
LINE
  5
C0
100
AcDbEntity
  8
dimensions
  6
ByBlock
 62
    0
370
   -2
100
AcDbLine
 10
1100
 20
473
 11
1100
 21
593
  0
LINE
  5
C1
100
AcDbEntity
  8
dimensions
  6
ByBlock
 62
    0
370
   -2
100
AcDbLine
 10
1114.142135623731
 20
498.857864376269
 11
1085.857864376269
 21
527.142135623731
  0
LINE
  5
C2
100
AcDbEntity
  8
dimensions
  6
ByBlock
 62
    0
370
   -2
100
AcDbLine
 10
1114.142135623731
 20
538.857864376269
 11
1085.857864376269
 21
567.142135623731
  0
MTEXT
  5
C3
100
AcDbEntity
  8
dimensions
  6
CONTINUOUS
 62
    0
370
   -2
100
AcDbMText
 10
1060
 20
599.6666666666666
 30
0
 40
40
 41
53.33333333333334
 71
    5
 72
    1
  1
40
  7
standard
210
0
220
0
230
1
 50
90
 73
    2
 44
1
  0
LINE
  5
C4
100
AcDbEntity
  8
dimensions
  6
ByBlock
 62
    0
370
   -2
100
AcDbLine
 10
970
 20
513
 11
1120
 21
513
  0
LINE
  5
C5
100
AcDbEntity
  8
dimensions
  6
ByBlock
 62
    0
370
   -2
100
AcDbLine
 10
970
 20
553
 11
1120
 21
553
  0
ENDBLK
  5
6C
330
6A
100
AcDbEntity
  8
0
100
AcDbBlockEnd
  0
BLOCK
  5
6E
330
6D
100
AcDbEntity
  8
0
100
AcDbBlockBegin
  2
*D7
 70
    1
 10
0
 20
0
  3
*D7
  1

  0
LINE
  5
C6
100
AcDbEntity
  8
dimensions
  6
ByBlock
 62
    0
370
   -2
100
AcDbLine
 10
1100
 20
970
 11
1100
 21
1090
  0
LINE
  5
C7
100
AcDbEntity
  8
dimensions
  6
ByBlock
 62
    0
370
   -2
100
AcDbLine
 10
1114.142135623731
 20
995.857864376269
 11
1085.857864376269
 21
1024.142135623731
  0
LINE
  5
C8
100
AcDbEntity
  8
dimensions
  6
ByBlock
 62
    0
370
   -2
100
AcDbLine
 10
1114.142135623731
 20
1035.857864376269
 11
1085.857864376269
 21
1064.142135623731
  0
MTEXT
  5
C9
100
AcDbEntity
  8
dimensions
  6
CONTINUOUS
 62
    0
370
   -2
100
AcDbMText
 10
1060
 20
1096.666666666667
 30
0
 40
40
 41
53.33333333333334
 71
    5
 72
    1
  1
40
  7
standard
210
0
220
0
230
1
 50
90
 73
    2
 44
1
  0
LINE
  5
CA
100
AcDbEntity
  8
dimensions
  6
ByBlock
 62
    0
370
   -2
100
AcDbLine
 10
970
 20
1010
 11
1120
 21
1010
  0
LINE
  5
CB
100
AcDbEntity
  8
dimensions
  6
ByBlock
 62
    0
370
   -2
100
AcDbLine
 10
1010
 20
1050
 11
1120
 21
1050
  0
ENDBLK
  5
6F
330
6D
100
AcDbEntity
  8
0
100
AcDbBlockEnd
  0
BLOCK
  5
71
330
70
100
AcDbEntity
  8
0
100
AcDbBlockBegin
  2
*D1
 70
    1
 10
0
 20
0
  3
*D1
  1

  0
LINE
  5
CC
100
AcDbEntity
  8
dimensions
  6
ByBlock
 62
    0
370
   -2
100
AcDbLine
 10
-99.99999999999999
 20
0
 11
-99.99999999999999
 21
1050
  0
LINE
  5
CD
100
AcDbEntity
  8
dimensions
  6
ByBlock
 62
    0
370
   -2
100
AcDbLine
 10
-114.1421356237309
 20
14.14213562373095
 11
-85.85786437626903
 21
-14.14213562373095
  0
LINE
  5
CE
100
AcDbEntity
  8
dimensions
  6
ByBlock
 62
    0
370
   -2
100
AcDbLine
 10
-114.1421356237309
 20
1064.142135623731
 11
-85.85786437626903
 21
1035.857864376269
  0
MTEXT
  5
CF
100
AcDbEntity
  8
dimensions
  6
CONTINUOUS
 62
    0
370
   -2
100
AcDbMText
 10
-140
 20
525
 30
0
 40
40
 41
102.2222222222247
 71
    5
 72
    1
  1
1050
  7
standard
210
0
220
0
230
1
 50
90
 73
    2
 44
1
  0
LINE
  5
D0
100
AcDbEntity
  8
dimensions
  6
ByBlock
 62
    0
370
   -2
100
AcDbLine
 10
-10
 20
3.36468379447228e-16
 11
-120
 21
2.449293598294707e-15
  0
LINE
  5
D1
100
AcDbEntity
  8
dimensions
  6
ByBlock
 62
    0
370
   -2
100
AcDbLine
 10
-10
 20
1050
 11
-120
 21
1050
  0
ENDBLK
  5
72
330
70
100
AcDbEntity
  8
0
100
AcDbBlockEnd
  0
BLOCK
  5
74
330
73
100
AcDbEntity
  8
0
100
AcDbBlockBegin
  2
*D3
 70
    1
 10
0
 20
0
  3
*D3
  1

  0
LINE
  5
D2
100
AcDbEntity
  8
dimensions
  6
ByBlock
 62
    0
370
   -2
100
AcDbLine
 10
470
 20
-100
 11
590
 21
-100
  0
LINE
  5
D3
100
AcDbEntity
  8
dimensions
  6
ByBlock
 62
    0
370
   -2
100
AcDbLine
 10
495.857864376269
 20
-114.142135623731
 11
524.142135623731
 21
-85.85786437626905
  0
LINE
  5
D4
100
AcDbEntity
  8
dimensions
  6
ByBlock
 62
    0
370
   -2
100
AcDbLine
 10
535.857864376269
 20
-114.142135623731
 11
564.142135623731
 21
-85.85786437626905
  0
MTEXT
  5
D5
100
AcDbEntity
  8
dimensions
  6
CONTINUOUS
 62
    0
370
   -2
100
AcDbMText
 10
596.6666666666666
 20
-60
 30
0
 40
40
 41
53.33333333333334
 71
    5
 72
    1
  1
40
  7
standard
210
0
220
0
230
1
 50
0
 73
    2
 44
1
  0
LINE
  5
D6
100
AcDbEntity
  8
dimensions
  6
ByBlock
 62
    0
370
   -2
100
AcDbLine
 10
510
 20
30.00000000000001
 11
510
 21
-120
  0
LINE
  5
D7
100
AcDbEntity
  8
dimensions
  6
ByBlock
 62
    0
370
   -2
100
AcDbLine
 10
550
 20
30.00000000000001
 11
550
 21
-120
  0
ENDBLK
  5
75
330
73
100
AcDbEntity
  8
0
100
AcDbBlockEnd
  0
BLOCK
  5
77
330
76
100
AcDbEntity
  8
0
100
AcDbBlockBegin
  2
*D4
 70
    1
 10
0
 20
0
  3
*D4
  1

  0
LINE
  5
D8
100
AcDbEntity
  8
dimensions
  6
ByBlock
 62
    0
370
   -2
100
AcDbLine
 10
550
 20
-100
 11
960
 21
-100
  0
LINE
  5
D9
100
AcDbEntity
  8
dimensions
  6
ByBlock
 62
    0
370
   -2
100
AcDbLine
 10
564.142135623731
 20
-85.85786437626905
 11
535.857864376269
 21
-114.142135623731
  0
LINE
  5
DA
100
AcDbEntity
  8
dimensions
  6
ByBlock
 62
    0
370
   -2
100
AcDbLine
 10
974.142135623731
 20
-85.85786437626905
 11
945.857864376269
 21
-114.142135623731
  0
MTEXT
  5
DB
100
AcDbEntity
  8
dimensions
  6
CONTINUOUS
 62
    0
370
   -2
100
AcDbMText
 10
755
 20
-60
 30
0
 40
40
 41
75.55555555555556
 71
    5
 72
    1
  1
410
  7
standard
210
0
220
0
230
1
 50
0
 73
    2
 44
1
  0
LINE
  5
DC
100
AcDbEntity
  8
dimensions
  6
ByBlock
 62
    0
370
   -2
100
AcDbLine
 10
550
 20
30.00000000000001
 11
550
 21
-120
  0
LINE
  5
DD
100
AcDbEntity
  8
dimensions
  6
ByBlock
 62
    0
370
   -2
100
AcDbLine
 10
960
 20
30.00000000000001
 11
960
 21
-120
  0
ENDBLK
  5
78
330
76
100
AcDbEntity
  8
0
100
AcDbBlockEnd
  0
BLOCK
  5
7A
330
79
100
AcDbEntity
  8
0
100
AcDbBlockBegin
  2
*D14
 70
    1
 10
0
 20
0
  3
*D14
  1

  0
LINE
  5
DE
100
AcDbEntity
  8
dimensions
  6
CONTINUOUS
 62
    7
370
    0
100
AcDbLine
 10
1430
 20
1460
 11
1430
 21
1530
  0
SOLID
  5
DF
100
AcDbEntity
  8
dimensions
  6
CONTINUOUS
 62
    7
370
    0
100
AcDbTrace
 10
1430
 20
1460
 30
0
 11
1426.669722737817
 21
1480
 31
0
 12
1433.330277262183
 22
1480
 32
0
 13
1433.330277262183
 23
1480
 33
0
  0
ENDBLK
  5
7B
330
79
100
AcDbEntity
  8
0
100
AcDbBlockEnd
  0
BLOCK
  5
7D
330
7C
100
AcDbEntity
  8
0
100
AcDbBlockBegin
  2
*D12
 70
    1
 10
0
 20
0
  3
*D12
  1

  0
LINE
  5
E0
100
AcDbEntity
  8
dimensions
  6
ByBlock
 62
    0
370
   -2
100
AcDbLine
 10
-350
 20
1490
 11
-350
 21
1600
  0
LINE
  5
E1
100
AcDbEntity
  8
dimensions
  6
ByBlock
 62
    0
370
   -2
100
AcDbLine
 10
-335.857864376269
 20
1515.857864376269
 11
-364.142135623731
 21
1544.142135623731
  0
LINE
  5
E2
100
AcDbEntity
  8
dimensions
  6
ByBlock
 62
    0
370
   -2
100
AcDbLine
 10
-335.857864376269
 20
1545.857864376269
 11
-364.142135623731
 21
1574.142135623731
  0
MTEXT
  5
E3
100
AcDbEntity
  8
dimensions
  6
CONTINUOUS
 62
    0
370
   -2
100
AcDbMText
 10
-390
 20
1604.444444444446
 30
0
 40
40
 41
48.88888888889137
 71
    5
 72
    1
  1
30
  7
standard
210
0
220
0
230
1
 50
90
 73
    2
 44
1
  0
LINE
  5
E4
100
AcDbEntity
  8
dimensions
  6
ByBlock
 62
    0
370
   -2
100
AcDbLine
 10
-10
 20
1530
 11
-370
 21
1530
  0
LINE
  5
E5
100
AcDbEntity
  8
dimensions
  6
ByBlock
 62
    0
370
   -2
100
AcDbLine
 10
-6.999999999999999
 20
1560
 11
-370
 21
1560
  0
ENDBLK
  5
7E
330
7C
100
AcDbEntity
  8
0
100
AcDbBlockEnd
  0
BLOCK
  5
80
330
7F
100
AcDbEntity
  8
0
100
AcDbBlockBegin
  2
*D11
 70
    1
 10
0
 20
0
  3
*D11
  1

  0
LINE
  5
E6
100
AcDbEntity
  8
dimensions
  6
CONTINUOUS
 62
    7
370
    0
100
AcDbLine
 10
-180
 20
800
 11
-180
 21
870
  0
SOLID
  5
E7
100
AcDbEntity
  8
dimensions
  6
CONTINUOUS
 62
    7
370
    0
100
AcDbTrace
 10
-180
 20
800
 30
0
 11
-183.3302772621827
 21
820
 31
0
 12
-176.6697227378173
 22
820
 32
0
 13
-176.6697227378173
 23
820
 33
0
  0
ENDBLK
  5
81
330
7F
100
AcDbEntity
  8
0
100
AcDbBlockEnd
  0
BLOCK
  5
83
330
82
100
AcDbEntity
  8
0
100
AcDbBlockBegin
  2
*D13
 70
    1
 10
0
 20
0
  3
*D13
  1

  0
LINE
  5
E8
100
AcDbEntity
  8
dimensions
  6
ByBlock
 62
    0
370
   -2
100
AcDbLine
 10
-350
 20
1460
 11
-350
 21
1570
  0
LINE
  5
E9
100
AcDbEntity
  8
dimensions
  6
ByBlock
 62
    0
370
   -2
100
AcDbLine
 10
-335.857864376269
 20
1485.857864376269
 11
-364.142135623731
 21
1514.142135623731
  0
LINE
  5
EA
100
AcDbEntity
  8
dimensions
  6
ByBlock
 62
    0
370
   -2
100
AcDbLine
 10
-335.857864376269
 20
1515.857864376269
 11
-364.142135623731
 21
1544.142135623731
  0
MTEXT
  5
EB
100
AcDbEntity
  8
dimensions
  6
CONTINUOUS
 62
    0
370
   -2
100
AcDbMText
 10
-390
 20
1574.444444444446
 30
0
 40
40
 41
48.88888888889137
 71
    5
 72
    1
  1
30
  7
standard
210
0
220
0
230
1
 50
90
 73
    2
 44
1
  0
LINE
  5
EC
100
AcDbEntity
  8
dimensions
  6
ByBlock
 62
    0
370
   -2
100
AcDbLine
 10
-10
 20
1500
 11
-370
 21
1500
  0
LINE
  5
ED
100
AcDbEntity
  8
dimensions
  6
ByBlock
 62
    0
370
   -2
100
AcDbLine
 10
-10
 20
1530
 11
-370
 21
1530
  0
ENDBLK
  5
84
330
82
100
AcDbEntity
  8
0
100
AcDbBlockEnd
  0
BLOCK
  5
86
330
85
100
AcDbEntity
  8
0
100
AcDbBlockBegin
  2
*D20
 70
    1
 10
0
 20
0
  3
*D20
  1

  0
LINE
  5
EE
100
AcDbEntity
  8
dimensions
  6
ByBlock
 62
    0
370
   -2
100
AcDbLine
 10
40
 20
890.0000400000001
 11
510
 21
890.0000400000001
  0
LINE
  5
EF
100
AcDbEntity
  8
dimensions
  6
ByBlock
 62
    0
370
   -2
100
AcDbLine
 10
54.14213562373095
 20
904.1421756237311
 11
25.85786437626905
 21
875.8579043762692
  0
LINE
  5
F0
100
AcDbEntity
  8
dimensions
  6
ByBlock
 62
    0
370
   -2
100
AcDbLine
 10
524.142135623731
 20
904.1421756237311
 11
495.857864376269
 21
875.8579043762692
  0
MTEXT
  5
F1
100
AcDbEntity
  8
dimensions
  6
CONTINUOUS
 62
    0
370
   -2
100
AcDbMText
 10
275
 20
930.0000400000001
 30
0
 40
40
 41
84.44444444444446
 71
    5
 72
    1
  1
470
  7
standard
210
0
220
0
230
1
 50
0
 73
    2
 44
1
  0
LINE
  5
F2
100
AcDbEntity
  8
dimensions
  6
ByBlock
 62
    0
370
   -2
100
AcDbLine
 10
40
 20
1000
 11
39.99999999999999
 21
870.0000400000001
  0
LINE
  5
F3
100
AcDbEntity
  8
dimensions
  6
ByBlock
 62
    0
370
   -2
100
AcDbLine
 10
510
 20
1000
 11
510
 21
870.0000400000001
  0
ENDBLK
  5
87
330
85
100
AcDbEntity
  8
0
100
AcDbBlockEnd
  0
BLOCK
  5
89
330
88
100
AcDbEntity
  8
0
100
AcDbBlockBegin
  2
*D17
 70
    1
 10
0
 20
0
  3
*D17
  1

  0
LINE
  5
F4
100
AcDbEntity
  8
dimensions
  6
ByBlock
 62
    0
370
   -2
100
AcDbLine
 10
-39.99999999999999
 20
-100
 11
80
 21
-100
  0
LINE
  5
F5
100
AcDbEntity
  8
dimensions
  6
ByBlock
 62
    0
370
   -2
100
AcDbLine
 10
-14.14213562373094
 20
-114.142135623731
 11
14.14213562373096
 21
-85.85786437626905
  0
LINE
  5
F6
100
AcDbEntity
  8
dimensions
  6
ByBlock
 62
    0
370
   -2
100
AcDbLine
 10
25.85786437626905
 20
-114.142135623731
 11
54.14213562373095
 21
-85.85786437626905
  0
MTEXT
  5
F7
100
AcDbEntity
  8
dimensions
  6
CONTINUOUS
 62
    0
370
   -2
100
AcDbMText
 10
-33.33333333333334
 20
-60
 30
0
 40
40
 41
53.33333333333334
 71
    5
 72
    1
  1
40
  7
standard
210
0
220
0
230
1
 50
0
 73
    2
 44
1
  0
LINE
  5
F8
100
AcDbEntity
  8
dimensions
  6
ByBlock
 62
    0
370
   -2
100
AcDbLine
 10
-1.836970209294582e-15
 20
-9.999959999999911
 11
3.431486960158943e-15
 21
-120
  0
LINE
  5
F9
100
AcDbEntity
  8
dimensions
  6
ByBlock
 62
    0
370
   -2
100
AcDbLine
 10
40
 20
30.00000000000001
 11
39.99999999999999
 21
-120
  0
ENDBLK
  5
8A
330
88
100
AcDbEntity
  8
0
100
AcDbBlockEnd
  0
BLOCK
  5
8C
330
8B
100
AcDbEntity
  8
0
100
AcDbBlockBegin
  2
*D6
 70
    1
 10
0
 20
0
  3
*D6
  1

  0
LINE
  5
FA
100
AcDbEntity
  8
dimensions
  6
ByBlock
 62
    0
370
   -2
100
AcDbLine
 10
1100
 20
-40
 11
1100
 21
80.00001999999995
  0
LINE
  5
FB
100
AcDbEntity
  8
dimensions
  6
ByBlock
 62
    0
370
   -2
100
AcDbLine
 10
1114.142135623731
 20
-14.14213562373095
 11
1085.857864376269
 21
14.14213562373095
  0
LINE
  5
FC
100
AcDbEntity
  8
dimensions
  6
ByBlock
 62
    0
370
   -2
100
AcDbLine
 10
1114.142135623731
 20
25.85788437626901
 11
1085.857864376269
 21
54.14215562373091
  0
MTEXT
  5
FD
100
AcDbEntity
  8
dimensions
  6
CONTINUOUS
 62
    0
370
   -2
100
AcDbMText
 10
1060
 20
86.66668666666662
 30
0
 40
40
 41
53.33333333333334
 71
    5
 72
    1
  1
40
  7
standard
210
0
220
0
230
1
 50
90
 73
    2
 44
1
  0
LINE
  5
FE
100
AcDbEntity
  8
dimensions
  6
ByBlock
 62
    0
370
   -2
100
AcDbLine
 10
1010
 20
-8.881784197001252e-16
 11
1120
 21
0
  0
LINE
  5
FF
100
AcDbEntity
  8
dimensions
  6
ByBlock
 62
    0
370
   -2
100
AcDbLine
 10
970
 20
40.00001999999996
 11
1120
 21
40.00001999999996
  0
ENDBLK
  5
8D
330
8B
100
AcDbEntity
  8
0
100
AcDbBlockEnd
  0
BLOCK
  5
8F
330
8E
100
AcDbEntity
  8
0
100
AcDbBlockBegin
  2
*D2
 70
    1
 10
0
 20
0
  3
*D2
  1

  0
LINE
  5
100
100
AcDbEntity
  8
dimensions
  6
ByBlock
 62
    0
370
   -2
100
AcDbLine
 10
0
 20
1150
 11
1000
 21
1150
  0
LINE
  5
101
100
AcDbEntity
  8
dimensions
  6
ByBlock
 62
    0
370
   -2
100
AcDbLine
 10
14.14213562373095
 20
1164.142135623731
 11
-14.14213562373095
 21
1135.857864376269
  0
LINE
  5
102
100
AcDbEntity
  8
dimensions
  6
ByBlock
 62
    0
370
   -2
100
AcDbLine
 10
1014.142135623731
 20
1164.142135623731
 11
985.857864376269
 21
1135.857864376269
  0
MTEXT
  5
103
100
AcDbEntity
  8
dimensions
  6
CONTINUOUS
 62
    0
370
   -2
100
AcDbMText
 10
500
 20
1190
 30
0
 40
40
 41
102.2222222222222
 71
    5
 72
    1
  1
1000
  7
standard
210
0
220
0
230
1
 50
0
 73
    2
 44
1
  0
LINE
  5
104
100
AcDbEntity
  8
dimensions
  6
ByBlock
 62
    0
370
   -2
100
AcDbLine
 10
3.347676434173875e-16
 20
1060
 11
1.224646799147353e-15
 21
1170
  0
LINE
  5
105
100
AcDbEntity
  8
dimensions
  6
ByBlock
 62
    0
370
   -2
100
AcDbLine
 10
1000
 20
1060
 11
1000
 21
1170
  0
ENDBLK
  5
90
330
8E
100
AcDbEntity
  8
0
100
AcDbBlockEnd
  0
BLOCK
  5
92
330
91
100
AcDbEntity
  8
0
100
AcDbBlockBegin
  2
*D10
 70
    1
 10
0
 20
0
  3
*D10
  1

  0
LINE
  5
106
100
AcDbEntity
  8
dimensions
  6
CONTINUOUS
 62
    7
370
    0
100
AcDbLine
 10
1180
 20
800
 11
1180
 21
870
  0
SOLID
  5
107
100
AcDbEntity
  8
dimensions
  6
CONTINUOUS
 62
    7
370
    0
100
AcDbTrace
 10
1180
 20
800
 30
0
 11
1176.669722737817
 21
820
 31
0
 12
1183.330277262183
 22
820
 32
0
 13
1183.330277262183
 23
820
 33
0
  0
ENDBLK
  5
93
330
91
100
AcDbEntity
  8
0
100
AcDbBlockEnd
  0
BLOCK
  5
95
330
94
100
AcDbEntity
  8
0
100
AcDbBlockBegin
  2
*D19
 70
    1
 10
0
 20
0
  3
*D19
  1

  0
LINE
  5
108
100
AcDbEntity
  8
dimensions
  6
ByBlock
 62
    0
370
   -2
100
AcDbLine
 10
40
 20
-100
 11
340
 21
-100
  0
LINE
  5
109
100
AcDbEntity
  8
dimensions
  6
ByBlock
 62
    0
370
   -2
100
AcDbLine
 10
54.14213562373095
 20
-85.85786437626905
 11
25.85786437626905
 21
-114.142135623731
  0
LINE
  5
10A
100
AcDbEntity
  8
dimensions
  6
ByBlock
 62
    0
370
   -2
100
AcDbLine
 10
354.142135623731
 20
-85.85786437626905
 11
325.857864376269
 21
-114.142135623731
  0
MTEXT
  5
10B
100
AcDbEntity
  8
dimensions
  6
CONTINUOUS
 62
    0
370
   -2
100
AcDbMText
 10
160
 20
-60
 30
0
 40
40
 41
80.00000000000247
 71
    5
 72
    1
  1
300
  7
standard
210
0
220
0
230
1
 50
0
 73
    2
 44
1
  0
LINE
  5
10C
100
AcDbEntity
  8
dimensions
  6
ByBlock
 62
    0
370
   -2
100
AcDbLine
 10
40
 20
30.00000000000001
 11
39.99999999999999
 21
-120
  0
LINE
  5
10D
100
AcDbEntity
  8
dimensions
  6
ByBlock
 62
    0
370
   -2
100
AcDbLine
 10
340
 20
30.00003600000008
 11
340
 21
-120
  0
ENDBLK
  5
96
330
94
100
AcDbEntity
  8
0
100
AcDbBlockEnd
  0
BLOCK
  5
98
330
97
100
AcDbEntity
  8
0
100
AcDbBlockBegin
  2
*D9
 70
    1
 10
0
 20
0
  3
*D9
  1

  0
LINE
  5
10E
100
AcDbEntity
  8
dimensions
  6
ByBlock
 62
    0
370
   -2
100
AcDbLine
 10
1350
 20
1470
 11
1350
 21
1530
  0
LINE
  5
10F
100
AcDbEntity
  8
dimensions
  6
ByBlock
 62
    0
370
   -2
100
AcDbLine
 10
1335.857864376269
 20
1484.142135623731
 11
1364.142135623731
 21
1455.857864376269
  0
LINE
  5
110
100
AcDbEntity
  8
dimensions
  6
ByBlock
 62
    0
370
   -2
100
AcDbLine
 10
1335.857864376269
 20
1544.142135623731
 11
1364.142135623731
 21
1515.857864376269
  0
MTEXT
  5
111
100
AcDbEntity
  8
dimensions
  6
CONTINUOUS
 62
    0
370
   -2
100
AcDbMText
 10
1310
 20
1621.111111111112
 30
0
 40
40
 41
142.2222222222247
 71
    5
 72
    1
  1
60~80
  7
standard
210
0
220
0
230
1
 50
90
 73
    2
 44
1
  0
LINE
  5
112
100
AcDbEntity
  8
dimensions
  6
ByBlock
 62
    0
370
   -2
100
AcDbLine
 10
970
 20
1470
 11
1370
 21
1470
  0
LINE
  5
113
100
AcDbEntity
  8
dimensions
  6
ByBlock
 62
    0
370
   -2
100
AcDbLine
 10
970
 20
1530
 11
1370
 21
1530
  0
ENDBLK
  5
99
330
97
100
AcDbEntity
  8
0
100
AcDbBlockEnd
  0
ENDSEC
  0
SECTION
  2
ENTITIES
  0
HATCH
  5
114
100
AcDbEntity
  8
fundament
  6
ByLayer
 62
  256
370
   -1
100
AcDbHatch
 10
0
 20
0
 30
0
210
0
220
0
230
1
  2
concrete
 70
    0
 71
    0
 91
    1
 92
    0
 93
   24
 72
    1
 10
550
 20
553
 11
960
 21
553
 72
    1
 10
960
 20
553
 11
960
 21
1010
 72
    1
 10
960
 20
1010
 11
550
 21
1010
 72
    1
 10
550
 20
1010
 11
550
 21
553
 72
    1
 10
40
 20
1010
 11
510
 21
1010
 72
    1
 10
510
 20
1010
 11
510
 21
553
 72
    1
 10
510
 20
553
 11
40
 21
553
 72
    1
 10
40
 20
553
 11
40
 21
1010
 72
    1
 10
40
 20
40.00000000000001
 11
340
 21
40.00003600000008
 72
    1
 10
340
 20
40.00003600000008
 11
340
 21
513
 72
    1
 10
340
 20
513
 11
40
 21
513
 72
    1
 10
40
 20
513
 11
40
 21
40.00000000000001
 72
    1
 10
380
 20
513
 11
510
 21
513
 72
    1
 10
510
 20
513
 11
510
 21
40.00003600000008
 72
    1
 10
510
 20
40.00003600000008
 11
380
 21
40.00003600000008
 72
    1
 10
380
 20
40.00003600000008
 11
380
 21
513
 72
    1
 10
-2.775557561562891e-16
 20
1050
 11
1000
 21
1050
 72
    1
 10
1000
 20
1050
 11
1000
 21
-8.881784197001252e-16
 72
    1
 10
1000
 20
-8.881784197001252e-16
 11
0
 21
-8.881784197001252e-16
 72
    1
 10
0
 20
-8.881784197001252e-16
 11
-2.775557561562891e-16
 21
1050
 72
    1
 10
960
 20
40.00000000000001
 11
550
 21
40.00000000000001
 72
    1
 10
550
 20
40.00000000000001
 11
550
 21
513
 72
    1
 10
550
 20
513
 11
960
 21
513
 72
    1
 10
960
 20
513
 11
960
 21
40.00000000000001
 97
    0
 75
    0
 76
    1
 52
0
 41
10
 77
    0
 78
    0
 98
    0
  0
HATCH
  5
115
100
AcDbEntity
  8
fundament
  6
ByLayer
 62
  256
370
   -1
100
AcDbHatch
 10
0
 20
0
 30
0
210
0
220
0
230
1
  2
concrete
 70
    0
 71
    0
 91
    1
 92
    0
 93
   12
 72
    1
 10
0
 20
1560
 11
1000
 21
1560
 72
    1
 10
1000
 20
1560
 11
1000
 21
1400
 72
    1
 10
1000
 20
1400
 11
960
 21
1400
 72
    1
 10
960
 20
1400
 11
960
 21
1530
 72
    1
 10
960
 20
1530
 11
550
 21
1530
 72
    1
 10
550
 20
1530
 11
550
 21
1400
 72
    1
 10
550
 20
1400
 11
510
 21
1400
 72
    1
 10
510
 20
1400
 11
510
 21
1530
 72
    1
 10
510
 20
1530
 11
40
 21
1530
 72
    1
 10
40
 20
1530
 11
40
 21
1400
 72
    1
 10
40
 20
1400
 11
0
 21
1400
 72
    1
 10
0
 20
1400
 11
0
 21
1560
 97
    0
 75
    0
 76
    1
 52
0
 41
10
 77
    0
 78
    0
 98
    0
  0
HATCH
  5
116
100
AcDbEntity
  8
otsypka
  6
ByLayer
 62
  256
370
   -1
100
AcDbHatch
 10
0
 20
0
 30
0
210
0
220
0
230
1
  2
sand
 70
    0
 71
    0
 91
    1
 92
    0
 93
    4
 72
    1
 10
-170
 20
1530
 11
4.440892098500626e-16
 21
1530
 72
    1
 10
4.440892098500626e-16
 20
1530
 11
4.440892098500626e-16
 21
1500
 72
    1
 10
4.440892098500626e-16
 20
1500
 11
-200
 21
1500
 72
    1
 10
-200
 20
1500
 11
-170
 21
1530
 97
    0
 75
    0
 76
    1
 52
0
 41
2
 77
    0
 78
    0
 98
    0
  0
HATCH
  5
117
100
AcDbEntity
  8
otsypka
  6
ByLayer
 62
  256
370
   -1
100
AcDbHatch
 10
0
 20
0
 30
0
210
0
220
0
230
1
  2
sand
 70
    0
 71
    0
 91
    1
 92
    0
 93
    4
 72
    1
 10
1170
 20
1530
 11
1000
 21
1530
 72
    1
 10
1000
 20
1530
 11
1000
 21
1500
 72
    1
 10
1000
 20
1500
 11
1200
 21
1500
 72
    1
 10
1200
 20
1500
 11
1170
 21
1530
 97
    0
 75
    0
 76
    1
 52
0
 41
2
 77
    0
 78
    0
 98
    0
  0
HATCH
  5
118
100
AcDbEntity
  8
zasypka
  6
ByLayer
 62
  256
370
   -1
100
AcDbHatch
 10
0
 20
0
 30
0
210
0
220
0
230
1
  2
sand
 70
    0
 71
    0
 91
    1
 92
    0
 93
    4
 72
    1
 10
510
 20
1470
 11
40
 21
1470
 72
    1
 10
40
 20
1470
 11
40
 21
1530
 72
    1
 10
40
 20
1530
 11
510
 21
1530
 72
    1
 10
510
 20
1530
 11
510
 21
1470
 97
    0
 75
    0
 76
    1
 52
0
 41
2
 77
    0
 78
    0
 98
    0
  0
HATCH
  5
119
100
AcDbEntity
  8
grunt
  6
ByLayer
 62
  256
370
   -1
100
AcDbHatch
 10
0
 20
0
 30
0
210
0
220
0
230
1
  2
sacncr
 70
    0
 71
    0
 91
    1
 92
    0
 93
   16
 72
    1
 10
40
 20
1400
 11
40
 21
1470
 72
    1
 10
40
 20
1470
 11
510
 21
1470
 72
    1
 10
510
 20
1470
 11
510
 21
1400
 72
    1
 10
510
 20
1400
 11
550
 21
1400
 72
    1
 10
550
 20
1400
 11
550
 21
1470
 72
    1
 10
550
 20
1470
 11
960
 21
1470
 72
    1
 10
960
 20
1470
 11
960
 21
1400
 72
    1
 10
960
 20
1400
 11
1000
 21
1400
 72
    1
 10
1000
 20
1400
 11
1000
 21
1500
 72
    1
 10
1000
 20
1500
 11
1250
 21
1500
 72
    1
 10
1250
 20
1500
 11
1250
 21
1370
 72
    1
 10
1250
 20
1370
 11
-260
 21
1370
 72
    1
 10
-260
 20
1370
 11
-260
 21
1500
 72
    1
 10
-260
 20
1500
 11
0
 21
1500
 72
    1
 10
0
 20
1500
 11
0
 21
1400
 72
    1
 10
0
 20
1400
 11
40
 21
1400
 97
    0
 75
    0
 76
    1
 52
0
 41
1
 77
    0
 78
    0
 98
    0
  0
HATCH
  5
11A
100
AcDbEntity
  8
zasypka
  6
ByLayer
 62
  256
370
   -1
100
AcDbHatch
 10
0
 20
0
 30
0
210
0
220
0
230
1
  2
sand
 70
    0
 71
    0
 91
    1
 92
    0
 93
    4
 72
    1
 10
960
 20
1470
 11
550
 21
1470
 72
    1
 10
550
 20
1470
 11
550
 21
1530
 72
    1
 10
550
 20
1530
 11
960
 21
1530
 72
    1
 10
960
 20
1530
 11
960
 21
1470
 97
    0
 75
    0
 76
    1
 52
0
 41
2
 77
    0
 78
    0
 98
    0
  0
LWPOLYLINE
  5
11B
100
AcDbEntity
  8
fundament
  6
ByLayer
 62
  256
370
   -1
100
AcDbPolyline
 90
    4
 70
    1
 43
0
 10
-2.775557561562891e-16
 20
1050
 10
1000
 20
1050
 10
1000
 20
-8.881784197001252e-16
 10
0
 20
-8.881784197001252e-16
  0
LWPOLYLINE
  5
11C
100
AcDbEntity
  8
zasypka
  6
ByLayer
 62
  256
370
   -1
100
AcDbPolyline
 90
    4
 70
    1
 43
0
 10
40
 20
1530
 10
510
 20
1530
 10
510
 20
1470
 10
40
 20
1470
  0
LWPOLYLINE
  5
11D
100
AcDbEntity
  8
zasypka
  6
ByLayer
 62
  256
370
   -1
100
AcDbPolyline
 90
    4
 70
    1
 43
0
 10
550
 20
1530
 10
960
 20
1530
 10
960
 20
1470
 10
550
 20
1470
  0
LWPOLYLINE
  5
11E
100
AcDbEntity
  8
grunt
  6
ByLayer
 62
  256
370
   -1
100
AcDbPolyline
 90
   17
 70
    0
 43
0
 10
-260
 20
1370
 10
-260
 20
1500
 10
0
 20
1500
 10
0
 20
1400
 10
40
 20
1400
 10
40
 20
1470
 10
510
 20
1470
 10
510
 20
1400
 10
550
 20
1400
 10
550
 20
1470
 10
960
 20
1470
 10
960
 20
1400
 10
1000
 20
1400
 10
1000
 20
1500
 10
1250
 20
1500
 10
1250
 20
1370
 10
-260
 20
1370
  0
DIMENSION
  5
11F
100
AcDbEntity
  8
dimensions
  6
ByLayer
 62
  256
370
   -1
100
AcDbDimension
  2
*D1
 10
-99.99999999999999
 20
1050
 30
0
 11
-140
 21
525
 31
0
 70
   32
 71
    5
  3
Standard
 53
0
210
0
220
0
230
1
100
AcDbAlignedDimension
 13
0
 23
-8.881784197001252e-16
 33
0
 14
-2.775557561562891e-16
 24
1050
 34
0
 50
90
100
AcDbRotatedDimension
  0
DIMENSION
  5
120
100
AcDbEntity
  8
dimensions
  6
ByLayer
 62
  256
370
   -1
100
AcDbDimension
  2
*D2
 10
1000
 20
1150
 30
0
 11
500
 21
1190
 31
0
 70
   32
 71
    5
  3
Standard
 53
0
210
0
220
0
230
1
100
AcDbAlignedDimension
 13
-2.775557561562891e-16
 23
1050
 33
0
 14
1000
 24
1050
 34
0
100
AcDbRotatedDimension
  0
DIMENSION
  5
121
100
AcDbEntity
  8
dimensions
  6
ByLayer
 62
  256
370
   -1
100
AcDbDimension
  2
*D3
 10
550
 20
-100
 30
0
 11
530
 21
-60
 31
0
 70
   32
 71
    5
  3
Standard
 53
0
210
0
220
0
230
1
100
AcDbAlignedDimension
 13
510
 23
40.00000000000001
 33
0
 14
550
 24
40.00000000000001
 34
0
100
AcDbRotatedDimension
  0
DIMENSION
  5
122
100
AcDbEntity
  8
dimensions
  6
ByLayer
 62
  256
370
   -1
100
AcDbDimension
  2
*D4
 10
960
 20
-100
 30
0
 11
755
 21
-60
 31
0
 70
   32
 71
    5
  3
Standard
 53
0
210
0
220
0
230
1
100
AcDbAlignedDimension
 13
550
 23
40.00000000000001
 33
0
 14
960
 24
40.00000000000001
 34
0
100
AcDbRotatedDimension
  0
DIMENSION
  5
123
100
AcDbEntity
  8
dimensions
  6
ByLayer
 62
  256
370
   -1
100
AcDbDimension
  2
*D5
 10
1000
 20
-100
 30
0
 11
980
 21
-60
 31
0
 70
   32
 71
    5
  3
Standard
 53
0
210
0
220
0
230
1
100
AcDbAlignedDimension
 13
960
 23
40.00000000000001
 33
0
 14
1000
 24
-8.881784197001252e-16
 34
0
100
AcDbRotatedDimension
  0
DIMENSION
  5
124
100
AcDbEntity
  8
dimensions
  6
ByLayer
 62
  256
370
   -1
100
AcDbDimension
  2
*D6
 10
1100
 20
40.00001999999994
 30
0
 11
1060
 21
20.00000999999998
 31
0
 70
   32
 71
    5
  3
Standard
 53
0
210
0
220
0
230
1
100
AcDbAlignedDimension
 13
1000
 23
-8.881784197001252e-16
 33
0
 14
960
 24
40.00001999999996
 34
0
 50
90
100
AcDbRotatedDimension
  0
DIMENSION
  5
125
100
AcDbEntity
  8
dimensions
  6
ByLayer
 62
  256
370
   -1
100
AcDbDimension
  2
*D7
 10
1100
 20
1050
 30
0
 11
1060
 21
1030
 31
0
 70
   32
 71
    5
  3
Standard
 53
0
210
0
220
0
230
1
100
AcDbAlignedDimension
 13
960
 23
1010
 33
0
 14
1000
 24
1050
 34
0
 50
90
100
AcDbRotatedDimension
  0
DIMENSION
  5
126
100
AcDbEntity
  8
dimensions
  6
ByLayer
 62
  256
370
   -1
100
AcDbDimension
  2
*D8
 10
-350
 20
1500
 30
0
 11
-390
 21
1450
 31
0
 70
   32
 71
    5
  3
Standard
 53
0
210
0
220
0
230
1
100
AcDbAlignedDimension
 13
0
 23
1400
 33
0
 14
0
 24
1500
 34
0
 50
90
100
AcDbRotatedDimension
  0
DIMENSION
  5
127
100
AcDbEntity
  8
dimensions
  6
ByLayer
 62
  256
370
   -1
100
AcDbDimension
  2
*D9
 10
1350
 20
1530
 30
0
 11
1310
 21
1500
 31
0
 70
   32
  1
60~80
 71
    5
  3
Standard
 53
0
210
0
220
0
230
1
100
AcDbAlignedDimension
 13
960
 23
1470
 33
0
 14
960
 24
1530
 34
0
 50
90
100
AcDbRotatedDimension
  0
LINE
  5
128
100
AcDbEntity
  8
dimensions
  6
ByLayer
 62
  256
370
   -1
100
AcDbLine
 10
430
 20
1250
 11
560
 21
1250
  0
MTEXT
  5
129
100
AcDbEntity
  8
dimensions
  6
ByLayer
 62
  256
370
   -1
100
AcDbMText
 10
440
 20
1290
 30
0
 40
50
 41
111.1111111111185
 71
    4
 72
    1
  1
-
  7
cyrillic_ii
210
0
220
0
230
1
 50
0
 73
    2
 44
1
  0
LINE
  5
12A
100
AcDbEntity
  8
dimensions
  6
ByLayer
 62
  256
370
  100
100
AcDbLine
 10
1150
 20
800
 11
1250
 21
800
  0
LEADER
  5
12B
100
AcDbEntity
  8
dimensions
  6
ByLayer
 62
  256
370
   -1
100
AcDbLeader
  3
Standard
 71
    1
 72
    0
 73
    3
 74
    0
 75
    0
 40
1
 41
10
 76
2
 76
2
 10
1180
 20
800
 30
0
 10
1180
 20
870
 30
0
  0
LINE
  5
12C
100
AcDbEntity
  8
dimensions
  6
ByLayer
 62
  256
370
  100
100
AcDbLine
 10
-150
 20
800
 11
-250
 21
800
  0
LEADER
  5
12D
100
AcDbEntity
  8
dimensions
  6
ByLayer
 62
  256
370
   -1
100
AcDbLeader
  3
Standard
 71
    1
 72
    0
 73
    3
 74
    0
 75
    0
 40
1
 41
10
 76
2
 76
2
 10
-180
 20
800
 30
0
 10
-180
 20
870
 30
0
  0
MTEXT
  5
12E
100
AcDbEntity
  8
dimensions
  6
ByLayer
 62
  256
370
   -1
100
AcDbMText
 10
-200
 20
840
 30
0
 40
40
 41
26.66666666666667
 71
    6
 72
    1
  1

  7
cyrillic_ii
210
0
220
0
230
1
 50
360
 73
    2
 44
1
  0
MTEXT
  5
12F
100
AcDbEntity
  8
dimensions
  6
ByLayer
 62
  256
370
   -1
100
AcDbMText
 10
1200
 20
840
 30
0
 40
40
 41
26.66666666666667
 71
    4
 72
    1
  1

  7
cyrillic_ii
210
0
220
0
230
1
 50
0
 73
    2
 44
1
  0
LINE
  5
130
100
AcDbEntity
  8
dimensions
  6
ByLayer
 62
  256
370
   -1
100
AcDbLine
 10
430
 20
1650
 11
560
 21
1650
  0
MTEXT
  5
131
100
AcDbEntity
  8
dimensions
  6
ByLayer
 62
  256
370
   -1
100
AcDbMText
 10
440
 20
1690
 30
0
 40
50
 41
122.2222222222222
 71
    4
 72
    1
  1
-
  7
cyrillic_ii
210
0
220
0
230
1
 50
0
 73
    2
 44
1
  0
LWPOLYLINE
  5
132
100
AcDbEntity
  8
fundament
  6
CONTINUOUS
 62
  136
420
32896
370
   50
100
AcDbPolyline
 90
   12
 70
    1
 43
0
 10
0
 20
1560
 10
1000
 20
1560
 10
1000
 20
1400
 10
960
 20
1400
 10
960
 20
1530
 10
550
 20
1530
 10
550
 20
1400
 10
510
 20
1400
 10
510
 20
1530
 10
40
 20
1530
 10
40
 20
1400
 10
0
 20
1400
  0
LWPOLYLINE
  5
133
100
AcDbEntity
  8
otsypka
  6
ByLayer
 62
  256
370
   -1
100
AcDbPolyline
 90
    5
 70
    0
 43
0
 10
1200
 20
1500
 10
1170
 20
1530
 10
1000
 20
1530
 10
1000
 20
1500
 10
1200
 20
1500
  0
LWPOLYLINE
  5
134
100
AcDbEntity
  8
otsypka
  6
ByLayer
 62
  256
370
   -1
100
AcDbPolyline
 90
    5
 70
    0
 43
0
 10
-200
 20
1500
 10
-170
 20
1530
 10
4.440892098500626e-16
 20
1530
 10
4.440892098500626e-16
 20
1500
 10
-200
 20
1500
  0
DIMENSION
  5
135
100
AcDbEntity
  8
dimensions
  6
ByLayer
 62
  256
370
   -1
100
AcDbDimension
  2
*D12
 10
-350
 20
1560
 30
0
 11
-390
 21
1545
 31
0
 70
   32
 71
    5
  3
Standard
 53
0
210
0
220
0
230
1
100
AcDbAlignedDimension
 13
4.440892098500626e-16
 23
1530
 33
0
 14
3.000000000000001
 24
1560
 34
0
 50
90
100
AcDbRotatedDimension
  0
DIMENSION
  5
136
100
AcDbEntity
  8
dimensions
  6
ByLayer
 62
  256
370
   -1
100
AcDbDimension
  2
*D13
 10
-350
 20
1530
 30
0
 11
-390
 21
1515
 31
0
 70
   32
 71
    5
  3
Standard
 53
0
210
0
220
0
230
1
100
AcDbAlignedDimension
 13
4.440892098500626e-16
 23
1500
 33
0
 14
4.440892098500626e-16
 24
1530
 34
0
 50
90
100
AcDbRotatedDimension
  0
LINE
  5
137
100
AcDbEntity
  8
dimensions
  6
ByLayer
 62
  256
370
  100
100
AcDbLine
 10
1400
 20
1460
 11
1500
 21
1460
  0
LEADER
  5
138
100
AcDbEntity
  8
dimensions
  6
ByLayer
 62
  256
370
   -1
100
AcDbLeader
  3
Standard
 71
    1
 72
    0
 73
    3
 74
    0
 75
    0
 40
1
 41
10
 76
2
 76
2
 10
1430
 20
1460
 30
0
 10
1430
 20
1530
 30
0
  0
LINE
  5
139
100
AcDbEntity
  8
dimensions
  6
ByLayer
 62
  256
370
  100
100
AcDbLine
 10
-430
 20
1460
 11
-530
 21
1460
  0
LEADER
  5
13A
100
AcDbEntity
  8
dimensions
  6
ByLayer
 62
  256
370
   -1
100
AcDbLeader
  3
Standard
 71
    1
 72
    0
 73
    3
 74
    0
 75
    0
 40
1
 41
10
 76
2
 76
2
 10
-460
 20
1460
 30
0
 10
-460
 20
1530
 30
0
  0
MTEXT
  5
13B
100
AcDbEntity
  8
dimensions
  6
ByLayer
 62
  256
370
   -1
100
AcDbMText
 10
-480
 20
1500
 30
0
 40
40
 41
22.2222222222252
 71
    6
 72
    1
  1

  7
cyrillic_ii
210
0
220
0
230
1
 50
360
 73
    2
 44
1
  0
MTEXT
  5
13C
100
AcDbEntity
  8
dimensions
  6
ByLayer
 62
  256
370
   -1
100
AcDbMText
 10
1450
 20
1500
 30
0
 40
40
 41
22.2222222222252
 71
    4
 72
    1
  1

  7
cyrillic_ii
210
0
220
0
230
1
 50
0
 73
    2
 44
1
  0
MTEXT
  5
13D
100
AcDbEntity
  8
dimensions
  6
ByLayer
 62
  256
370
   -1
100
AcDbMText
 10
500
 20
1800
 30
0
 40
50
 41
386.1111111111135
 71
    8
 72
    1
  1
.
  7
cyrillic_ii
210
0
220
0
230
1
 50
0
 73
    2
 44
1
  0
LINE
  5
13E
100
AcDbEntity
  8
dimensions
  6
ByLayer
 62
  256
370
   -1
100
AcDbLine
 10
300
 20
1800
 11
700
 21
1800
  0
MTEXT
  5
13F
100
AcDbEntity
  8
dimensions
  6
ByLayer
 62
  256
370
   -1
100
AcDbMText
 10
1600
 20
-800
 30
0
 40
50
 41
193.0555555555579
 71
    9
 72
    1
  1
. 1
  7
cyrillic_ii
210
0
220
0
230
1
 50
0
 73
    2
 44
1
  0
DIMENSION
  5
140
100
AcDbEntity
  8
dimensions
  6
ByLayer
 62
  256
370
   -1
100
AcDbDimension
  2
*D16
 10
510
 20
-100
 30
0
 11
445
 21
-60
 31
0
 70
   32
 71
    5
 72
    0
  3
Standard
 53
0
210
0
220
0
230
1
100
AcDbAlignedDimension
 13
380
 23
40.00003600000008
 33
0
 14
510
 24
40.00003600000008
 34
0
100
AcDbRotatedDimension
  0
DIMENSION
  5
141
100
AcDbEntity
  8
dimensions
  6
ByLayer
 62
  256
370
   -1
100
AcDbDimension
  2
*D17
 10
39.99999999999999
 20
-100
 30
0
 11
-100
 21
-60
 31
0
 70
   32
 71
    5
  3
Standard
 53
0
210
0
220
0
230
1
100
AcDbAlignedDimension
 13
-1.057355263714588e-23
 23
4.000000008996492e-05
 33
0
 14
40
 24
40.00000000000001
 34
0
100
AcDbRotatedDimension
  0
DIMENSION
  5
142
100
AcDbEntity
  8
dimensions
  6
ByLayer
 62
  256
370
   -1
100
AcDbDimension
  2
*D18
 10
380
 20
-100
 30
0
 11
230
 21
-60
 31
0
 70
   32
 71
    5
 72
    0
  3
Standard
 53
0
210
0
220
0
230
1
100
AcDbAlignedDimension
 13
340
 23
40.00003600000008
 33
0
 14
380
 24
40.00003600000008
 34
0
100
AcDbRotatedDimension
  0
DIMENSION
  5
143
100
AcDbEntity
  8
dimensions
  6
ByLayer
 62
  256
370
   -1
100
AcDbDimension
  2
*D19
 10
510
 20
-100
 30
0
 11
160
 21
-60
 31
0
 70
   32
 71
    5
  3
Standard
 53
0
210
0
220
0
230
1
100
AcDbAlignedDimension
 13
40
 23
40.00000000000001
 33
0
 14
340
 24
40.00003600000008
 34
0
100
AcDbRotatedDimension
  0
DIMENSION
  5
144
100
AcDbEntity
  8
dimensions
  6
ByLayer
 62
  256
370
   -1
100
AcDbDimension
  2
*D20
 10
510
 20
890.0000400000001
 30
0
 11
275
 21
930.0000400000001
 31
0
 70
   32
 71
    5
 72
    0
  3
Standard
 53
0
210
0
220
0
230
1
100
AcDbAlignedDimension
 13
40
 23
1010
 33
0
 14
510
 24
1010
 34
0
100
AcDbRotatedDimension
  0
LWPOLYLINE
  5
145
100
AcDbEntity
  8
fundament
  6
ByLayer
 62
  256
370
   -1
100
AcDbPolyline
 90
    4
 70
    1
 43
0
 10
960
 20
40.00000000000001
 10
550
 20
40.00000000000001
 10
550
 20
513
 10
960
 20
513
  0
LWPOLYLINE
  5
146
100
AcDbEntity
  8
fundament
  6
ByLayer
 62
  256
370
   -1
100
AcDbPolyline
 90
    4
 70
    1
 43
0
 10
960
 20
1010
 10
550
 20
1010
 10
550
 20
553
 10
960
 20
553
  0
LWPOLYLINE
  5
147
100
AcDbEntity
  8
fundament
  6
ByLayer
 62
  256
370
   -1
100
AcDbPolyline
 90
    4
 70
    1
 43
0
 10
40
 20
1010
 10
510
 20
1010
 10
510
 20
553
 10
40
 20
553
  0
DIMENSION
  5
148
100
AcDbEntity
  8
dimensions
  6
ByLayer
 62
  256
370
   -1
100
AcDbDimension
  2
*D21
 10
1100
 20
505
 30
0
 11
1060
 21
276.5
 31
0
 70
   32
 71
    5
  3
Standard
 53
0
210
0
220
0
230
1
100
AcDbAlignedDimension
 13
960
 23
40.00000000000001
 33
0
 14
960
 24
513
 34
0
 50
90
100
AcDbRotatedDimension
  0
DIMENSION
  5
149
100
AcDbEntity
  8
dimensions
  6
ByLayer
 62
  256
370
   -1
100
AcDbDimension
  2
*D22
 10
1100
 20
545
 30
0
 11
1060
 21
533
 31
0
 70
   32
 71
    5
  3
Standard
 53
0
210
0
220
0
230
1
100
AcDbAlignedDimension
 13
960
 23
513
 33
0
 14
960
 24
553
 34
0
 50
90
100
AcDbRotatedDimension
  0
DIMENSION
  5
14A
100
AcDbEntity
  8
dimensions
  6
ByLayer
 62
  256
370
   -1
100
AcDbDimension
  2
*D23
 10
1100
 20
1010
 30
0
 11
1060
 21
781.5
 31
0
 70
   32
 71
    5
  3
Standard
 53
0
210
0
220
0
230
1
100
AcDbAlignedDimension
 13
960
 23
553
 33
0
 14
960
 24
1010
 34
0
 50
90
100
AcDbRotatedDimension
  0
LWPOLYLINE
  5
14B
100
AcDbEntity
  8
fundament
  6
ByLayer
 62
  256
370
   -1
100
AcDbPolyline
 90
    4
 70
    1
 43
0
 10
40
 20
40.00000000000001
 10
340
 20
40.00003600000008
 10
340
 20
513
 10
40
 20
513
  0
LWPOLYLINE
  5
14C
100
AcDbEntity
  8
fundament
  6
ByLayer
 62
  256
370
   -1
100
AcDbPolyline
 90
    4
 70
    1
 43
0
 10
380
 20
513
 10
510
 20
513
 10
510
 20
40.00003600000008
 10
380
 20
40.00003600000008
  0
LWPOLYLINE
  5
14D
100
AcDbEntity
  8
segmenty
  6
ByLayer
 62
  256
370
   -1
100
AcDbPolyline
 90
    4
 70
    1
 43
0
 10
-2.775557561562891e-16
 20
1050
 10
1000
 20
1050
 10
1000
 20
1010
 10
-2.775557561562891e-16
 20
1010
  0
LWPOLYLINE
  5
14E
100
AcDbEntity
  8
segmenty
  6
ByLayer
 62
  256
370
   -1
100
AcDbPolyline
 90
    4
 70
    1
 43
0
 10
-1.05735631890303e-17
 20
40.00004000000001
 10
1000
 20
40.00004000000001
 10
1000
 20
4.000000001269655e-05
 10
-1.05735631890303e-17
 20
4.000000001269655e-05
  0
LWPOLYLINE
  5
14F
100
AcDbEntity
  8
segmenty
  6
ByLayer
 62
  256
370
   -1
100
AcDbPolyline
 90
    4
 70
    1
 43
0
 10
40
 20
553
 10
960
 20
553
 10
960
 20
513
 10
40
 20
513
  0
LWPOLYLINE
  5
150
100
AcDbEntity
  8
segmenty
  6
ByLayer
 62
  256
370
   -1
100
AcDbPolyline
 90
    4
 70
    1
 43
0
 10
960
 20
1010
 10
1000
 20
1010
 10
1000
 20
40
 10
960
 20
40
  0
LWPOLYLINE
  5
151
100
AcDbEntity
  8
segmenty
  6
ByLayer
 62
  256
370
   -1
100
AcDbPolyline
 90
    4
 70
    1
 43
0
 10
0
 20
1010
 10
40
 20
1010
 10
40
 20
40
 10
0
 20
40
  0
LWPOLYLINE
  5
152
100
AcDbEntity
  8
segmenty
  6
ByLayer
 62
  256
370
   -1
100
AcDbPolyline
 90
    4
 70
    1
 43
0
 10
340
 20
513
 10
380
 20
513
 10
380
 20
40.00004000000001
 10
340
 20
40.00004000000001
  0
LWPOLYLINE
  5
153
100
AcDbEntity
  8
segmenty
  6
ByLayer
 62
  256
370
   -1
100
AcDbPolyline
 90
    4
 70
    1
 43
0
 10
510
 20
513
 10
550
 20
513
 10
550
 20
40
 10
510
 20
40
  0
LWPOLYLINE
  5
154
100
AcDbEntity
  8
segmenty
  6
ByLayer
 62
  256
370
   -1
100
AcDbPolyline
 90
    4
 70
    1
 43
0
 10
510
 20
1010
 10
550
 20
1010
 10
550
 20
553
 10
510
 20
553
  0
MTEXT
  5
155
100
AcDbEntity
  8
segmenty
  6
ByLayer
 62
  256
370
   -1
100
AcDbMText
 10
450
 20
20
 30
0
 40
25
 41
77.77777777777932
 71
    5
 72
    1
  1
.3
  7
cyrillic_ii
210
0
220
0
230
1
 50
0
 73
    2
 44
1
  0
MTEXT
  5
156
100
AcDbEntity
  8
segmenty
  6
ByLayer
 62
  256
370
   -1
100
AcDbMText
 10
360
 20
280
 30
0
 40
25
 41
77.77777777777932
 71
    5
 72
    1
  1
.5
  7
cyrillic_ii
210
0
220
0
230
1
 50
90
 73
    2
 44
1
  0
MTEXT
  5
157
100
AcDbEntity
  8
segmenty
  6
ByLayer
 62
  256
370
   -1
100
AcDbMText
 10
530
 20
800
 30
0
 40
25
 41
77.77777777777932
 71
    5
 72
    1
  1
.6
  7
cyrillic_ii
210
0
220
0
230
1
 50
90
 73
    2
 44
1
  0
MTEXT
  5
158
100
AcDbEntity
  8
segmenty
  6
ByLayer
 62
  256
370
   -1
100
AcDbMText
 10
530
 20
280
 30
0
 40
25
 41
77.77777777777777
 71
    5
 72
    1
  1
.7
  7
cyrillic_ii
210
0
220
0
230
1
 50
90
 73
    2
 44
1
  0
MTEXT
  5
159
100
AcDbEntity
  8
segmenty
  6
ByLayer
 62
  256
370
   -1
100
AcDbMText
 10
20
 20
1030
 30
0
 40
25
 41
25.00000000000155
 71
    5
 72
    1
  1
61
  7
cyrillic_ii
210
0
220
0
230
1
 50
0
 73
    2
 44
1
  0
MTEXT
  5
15A
100
AcDbEntity
  8
segmenty
  6
ByLayer
 62
  256
370
   -1
100
AcDbMText
 10
410
 20
1030
 30
0
 40
25
 41
72.22222222222221
 71
    5
 72
    1
  1
.1
  7
cyrillic_ii
210
0
220
0
230
1
 50
0
 73
    2
 44
1
  0
MTEXT
  5
15B
100
AcDbEntity
  8
segmenty
  6
ByLayer
 62
  256
370
   -1
100
AcDbMText
 10
20
 20
650
 30
0
 40
25
 41
80.55555555555554
 71
    5
 72
    1
  1
.4
  7
cyrillic_ii
210
0
220
0
230
1
 50
90
 73
    2
 44
1
  0
MTEXT
  5
15C
100
AcDbEntity
  8
segmenty
  6
ByLayer
 62
  256
370
   -1
100
AcDbMText
 10
660
 20
530
 30
0
 40
25
 41
77.77777777777777
 71
    5
 72
    1
  1
.2
  7
cyrillic_ii
210
0
220
0
230
1
 50
0
 73
    2
 44
1
  0
MTEXT
  5
15D
100
AcDbEntity
  8
segmenty
  6
ByLayer
 62
  256
370
   -1
100
AcDbMText
 10
980
 20
630
 30
0
 40
25
 41
77.77777777777777
 71
    5
 72
    1
  1
.8
  7
cyrillic_ii
210
0
220
0
230
1
 50
90
 73
    2
 44
1
  0
MTEXT
  5
15E
100
AcDbEntity
  8
segmenty
  6
ByLayer
 62
  256
370
   -1
100
AcDbMText
 10
530
 20
1030
 30
0
 40
25
 41
33.33333333333333
 71
    5
 72
    1
  1
49
  7
cyrillic_ii
210
0
220
0
230
1
 50
0
 73
    2
 44
1
  0
MTEXT
  5
15F
100
AcDbEntity
  8
segmenty
  6
ByLayer
 62
  256
370
   -1
100
AcDbMText
 10
980
 20
1030
 30
0
 40
25
 41
33.33333333333333
 71
    5
 72
    1
  1
47
  7
cyrillic_ii
210
0
220
0
230
1
 50
0
 73
    2
 44
1
  0
MTEXT
  5
160
100
AcDbEntity
  8
segmenty
  6
ByLayer
 62
  256
370
   -1
100
AcDbMText
 10
20
 20
530
 30
0
 40
25
 41
33.33333333333488
 71
    5
 72
    1
  1
46
  7
cyrillic_ii
210
0
220
0
230
1
 50
90
 73
    2
 44
1
  0
MTEXT
  5
161
100
AcDbEntity
  8
segmenty
  6
ByLayer
 62
  256
370
   -1
100
AcDbMText
 10
360
 20
533
 30
0
 40
25
 41
36.11111111111111
 71
    5
 72
    1
  1
44
  7
cyrillic_ii
210
0
220
0
230
1
 50
0
 73
    2
 44
1
  0
MTEXT
  5
162
100
AcDbEntity
  8
segmenty
  6
ByLayer
 62
  256
370
   -1
100
AcDbMText
 10
530
 20
533
 30
0
 40
25
 41
30.55555555555711
 71
    5
 72
    1
  1
52
  7
cyrillic_ii
210
0
220
0
230
1
 50
0
 73
    2
 44
1
  0
MTEXT
  5
163
100
AcDbEntity
  8
segmenty
  6
ByLayer
 62
  256
370
   -1
100
AcDbMText
 10
980
 20
530
 30
0
 40
25
 41
33.33333333333333
 71
    5
 72
    1
  1
47
  7
cyrillic_ii
210
0
220
0
230
1
 50
90
 73
    2
 44
1
  0
MTEXT
  5
164
100
AcDbEntity
  8
segmenty
  6
ByLayer
 62
  256
370
   -1
100
AcDbMText
 10
20
 20
20
 30
0
 40
25
 41
27.77777777777778
 71
    5
 72
    1
  1
41
  7
cyrillic_ii
210
0
220
0
230
1
 50
0
 73
    2
 44
1
  0
MTEXT
  5
165
100
AcDbEntity
  8
segmenty
  6
ByLayer
 62
  256
370
   -1
100
AcDbMText
 10
360
 20
20
 30
0
 40
25
 41
33.33333333333333
 71
    5
 72
    1
  1
49
  7
cyrillic_ii
210
0
220
0
230
1
 50
0
 73
    2
 44
1
  0
MTEXT
  5
166
100
AcDbEntity
  8
segmenty
  6
ByLayer
 62
  256
370
   -1
100
AcDbMText
 10
530
 20
20
 30
0
 40
25
 41
30.55555555555711
 71
    5
 72
    1
  1
52
  7
cyrillic_ii
210
0
220
0
230
1
 50
0
 73
    2
 44
1
  0
MTEXT
  5
167
100
AcDbEntity
  8
segmenty
  6
ByLayer
 62
  256
370
   -1
100
AcDbMText
 10
980
 20
20
 30
0
 40
25
 41
33.33333333333488
 71
    5
 72
    1
  1
46
  7
cyrillic_ii
210
0
220
0
230
1
 50
0
 73
    2
 44
1
  0
MTEXT
  5
168
100
AcDbEntity
  8
dimensions
  6
ByLayer
 62
  256
370
   -1
100
AcDbMText
 10
-600
 20
-300
 30
0
 40
50
 41
2170.833327777792
 71
    1
 72
    1
  3
'    ( ) 25,02 2.\P'      11,3 2.\P'  31,5 2.\P'  
  1
  (  60 ) 48 2.
  7
cyrillic_ii
210
0
220
0
230
1
 50
0
 73
    2
 44
1
  0
ENDSEC
  0
SECTION
  2
OBJECTS
  0
DICTIONARY
  5
C
330
0
100
AcDbDictionary
281
    1
  3
ACAD_GROUP
350
D
  0
DICTIONARY
  5
D
330
C
100
AcDbDictionary
281
    1
  0
ENDSEC
  0
EOF
