999
dxfrw 0.6.3
  0
SECTION
  2
HEADER
  9
$ACADVER
  1
AC1021
  9
$DWGCODEPAGE
  3
ANSI_1252
  9
$INSBASE
 10
0
 20
0
 30
0
  9
$EXTMIN
 10
-74
 20
-66.22803772930864
 30
0
  9
$EXTMAX
 10
254.0416666666667
 20
63.33399335045122
 30
0
  9
$LIMMIN
 10
0
 20
0
  9
$LIMMAX
 10
420
 20
297
  9
$ORTHOMODE
 70
    0
  9
$REGENMODE
 70
    1
  9
$FILLMODE
 70
    1
  9
$QTEXTMODE
 70
    0
  9
$MIRRTEXT
 70
    0
  9
$LTSCALE
 40
1
  9
$ATTMODE
 70
    0
  9
$TEXTSIZE
 40
2.5
  9
$TRACEWID
 40
15.68
  9
$TEXTSTYLE
  7
STANDARD
  9
$CLAYER
  8
face
  9
$CELTYPE
  6
BYLAYER
  9
$CECOLOR
 62
  256
  9
$CELTSCALE
 40
1
  9
$DISPSILH
 70
    0
  9
$DIMSCALE
 40
1
  9
$DIMASZ
 40
2.5
  9
$DIMEXO
 40
0.5
  9
$DIMDLI
 40
3.75
  9
$DIMRND
 40
0
  9
$DIMDLE
 40
0
  9
$DIMEXE
 40
1
  9
$DIMTP
 40
0
  9
$DIMTM
 40
0
  9
$DIMTXT
 40
2.5
  9
$DIMCEN
 40
2.5
  9
$DIMTSZ
 40
0
  9
$DIMTOL
 70
    0
  9
$DIMLIM
 70
    0
  9
$DIMTIH
 70
    0
  9
$DIMTOH
 70
    0
  9
$DIMSE1
 70
    0
  9
$DIMSE2
 70
    0
  9
$DIMTAD
 70
    1
  9
$DIMZIN
 70
    8
  9
$DIMBLK
  1

  9
$DIMASO
 70
    1
  9
$DIMSHO
 70
    1
  9
$DIMPOST
  1

  9
$DIMAPOST
  1

  9
$DIMALT
 70
    0
  9
$DIMALTD
 70
    3
  9
$DIMALTF
 40
0.03937
  9
$DIMLFAC
 40
1
  9
$DIMTOFL
 70
    1
  9
$DIMTVP
 40
0
  9
$DIMTIX
 70
    0
  9
$DIMSOXD
 70
    0
  9
$DIMSAH
 70
    0
  9
$DIMBLK1
  1

  9
$DIMBLK2
  1

  9
$DIMSTYLE
  2
STANDARD
  9
$DIMCLRD
 70
    0
  9
$DIMCLRE
 70
    0
  9
$DIMCLRT
 70
    0
  9
$DIMTFAC
 40
1
  9
$DIMGAP
 40
1
  9
$DIMJUST
 70
    0
  9
$DIMSD1
 70
    0
  9
$DIMSD2
 70
    0
  9
$DIMTOLJ
 70
    0
  9
$DIMTZIN
 70
    8
  9
$DIMALTZ
 70
    0
  9
$DIMALTTZ
 70
    0
  9
$DIMUPT
 70
    0
  9
$DIMDEC
 70
    1
  9
$DIMTDEC
 70
    2
  9
$DIMALTU
 70
    2
  9
$DIMALTTD
 70
    3
  9
$DIMTXSTY
  7
standard
  9
$DIMAUNIT
 70
    0
  9
$DIMADEC
 70
    0
  9
$DIMALTRND
 40
0
  9
$DIMAZIN
 70
    0
  9
$DIMDSEP
 70
   44
  9
$DIMATFIT
 70
    3
  9
$DIMFRAC
 70
    0
  9
$DIMLDRBLK
  1
STANDARD
  9
$DIMLUNIT
 70
    2
  9
$DIMLWD
 70
   -2
  9
$DIMLWE
 70
   -2
  9
$DIMTMOVE
 70
    0
  9
$DIMFXL
 40
1
  9
$DIMFXLON
 70
    0
  9
$DIMJOGANG
 40
0.7854
  9
$DIMTFILL
 70
    0
  9
$DIMTFILLCLR
 70
    0
  9
$DIMARCSYM
 70
    0
  9
$DIMLTYPE
  6

  9
$DIMLTEX1
  6

  9
$DIMLTEX2
  6

  9
$LUNITS
 70
    2
  9
$LUPREC
 70
    2
  9
$SKETCHINC
 40
1
  9
$FILLETRAD
 40
0
  9
$AUNITS
 70
    0
  9
$AUPREC
 70
    2
  9
$MENU
  1
.
  9
$ELEVATION
 40
0
  9
$PELEVATION
 40
0
  9
$THICKNESS
 40
0
  9
$LIMCHECK
 70
    0
  9
$CHAMFERA
 40
0
  9
$CHAMFERB
 40
0
  9
$CHAMFERC
 40
0
  9
$CHAMFERD
 40
0
  9
$SKPOLY
 70
    0
  9
$USRTIMER
 70
    1
  9
$ANGBASE
 50
0
  9
$ANGDIR
 70
    0
  9
$PDMODE
 70
   34
  9
$PDSIZE
 40
0
  9
$PLINEWID
 40
0
  9
$SPLFRAME
 70
    0
  9
$SPLINETYPE
 70
    2
  9
$SPLINESEGS
 70
    8
  9
$HANDSEED
  5
20000
  9
$SURFTAB1
 70
    6
  9
$SURFTAB2
 70
    6
  9
$SURFTYPE
 70
    6
  9
$SURFU
 70
    6
  9
$SURFV
 70
    6
  9
$UCSBASE
  2

  9
$UCSNAME
  2

  9
$UCSORG
 10
0
 20
0
 30
0
  9
$UCSXDIR
 10
1
 20
0
 30
0
  9
$UCSYDIR
 10
0
 20
1
 30
0
  9
$UCSORTHOREF
  2

  9
$UCSORTHOVIEW
 70
    0
  9
$UCSORGTOP
 10
0
 20
0
 30
0
  9
$UCSORGBOTTOM
 10
0
 20
0
 30
0
  9
$UCSORGLEFT
 10
0
 20
0
 30
0
  9
$UCSORGRIGHT
 10
0
 20
0
 30
0
  9
$UCSORGFRONT
 10
0
 20
0
 30
0
  9
$UCSORGBACK
 10
0
 20
0
 30
0
  9
$PUCSBASE
  2

  9
$PUCSNAME
  2

  9
$PUCSORG
 10
0
 20
0
 30
0
  9
$PUCSXDIR
 10
1
 20
0
 30
0
  9
$PUCSYDIR
 10
0
 20
1
 30
0
  9
$PUCSORTHOREF
  2

  9
$PUCSORTHOVIEW
 70
    0
  9
$PUCSORGTOP
 10
0
 20
0
 30
0
  9
$PUCSORGBOTTOM
 10
0
 20
0
 30
0
  9
$PUCSORGLEFT
 10
0
 20
0
 30
0
  9
$PUCSORGRIGHT
 10
0
 20
0
 30
0
  9
$PUCSORGFRONT
 10
0
 20
0
 30
0
  9
$PUCSORGBACK
 10
0
 20
0
 30
0
  9
$USERI1
 70
    0
  9
$USERI2
 70
    0
  9
$USERI3
 70
    0
  9
$USERI4
 70
    0
  9
$USERI5
 70
    0
  9
$USERR1
 40
0
  9
$USERR2
 40
0
  9
$USERR3
 40
0
  9
$USERR4
 40
0
  9
$USERR5
 40
0
  9
$WORLDVIEW
 70
    1
  9
$SHADEDGE
 70
    3
  9
$SHADEDIF
 70
   70
  9
$TILEMODE
 70
    1
  9
$MAXACTVP
 70
   64
  9
$PINSBASE
 10
6.882448377581122
 20
9.108407079646017
 30
0
  9
$PLIMCHECK
 70
    0
  9
$PEXTMIN
 10
0
 20
0
 30
0
  9
$PEXTMAX
 10
0
 20
0
 30
0
  9
$GRIDMODE
 70
    1
  9
$SNAPSTYLE
 70
    0
  9
$GRIDUNIT
 10
0
 20
0
  9
$PLIMMIN
 10
0
 20
0
  9
$PLIMMAX
 10
29.7
 20
21
  9
$UNITMODE
 70
    0
  9
$VISRETAIN
 70
    1
  9
$PLINEGEN
 70
    0
  9
$PSLTSCALE
 70
    1
  9
$TREEDEPTH
 70
 3020
  9
$CMLSTYLE
  2
Standard
  9
$CMLJUST
 70
    0
  9
$CMLSCALE
 40
20
  9
$PROXYGRAPHICS
 70
    1
  9
$MEASUREMENT
 70
    1
  9
$CELWEIGHT
370
   -1
  9
$ENDCAPS
280
    0
  9
$JOINSTYLE
280
    0
  9
$LWDISPLAY
290
    0
  9
$INSUNITS
 70
    5
  9
$HYPERLINKBASE
  1

  9
$STYLESHEET
  1

  9
$XEDIT
290
    1
  9
$CEPSNTYPE
380
    0
  9
$PSTYLEMODE
290
    1
  9
$EXTNAMES
290
    1
  9
$PSVPSCALE
 40
0.3274340629655703
  9
$OLESTARTUP
290
    0
  9
$SORTENTS
280
  127
  9
$INDEXCTL
280
    0
  9
$HIDETEXT
280
    1
  9
$XCLIPFRAME
290
    0
  9
$HALOGAP
280
    0
  9
$OBSCOLOR
 70
  257
  9
$OBSLTYPE
280
    0
  9
$INTERSECTIONDISPLAY
280
    0
  9
$INTERSECTIONCOLOR
 70
  257
  9
$DIMASSOC
280
    1
  9
$PROJECTNAME
  1

  9
$CAMERADISPLAY
290
    0
  9
$LENSLENGTH
 40
50
  9
$CAMERAHEIGHT
 40
0
  9
$STEPSPERSEC
 40
2
  9
$STEPSIZE
 40
50
  9
$3DDWFPREC
 40
2
  9
$PSOLWIDTH
 40
5
  9
$PSOLHEIGHT
 40
80
  9
$LOFTANG1
 40
1.570796326794897
  9
$LOFTANG2
 40
1.570796326794897
  9
$LOFTMAG1
 40
0
  9
$LOFTMAG2
 40
0
  9
$LOFTPARAM
 70
    7
  9
$LOFTNORMALS
280
    1
  9
$LATITUDE
 40
1
  9
$LONGITUDE
 40
1
  9
$NORTHDIRECTION
 40
0
  9
$TIMEZONE
 70
-8000
  9
$LIGHTGLYPHDISPLAY
280
    1
  9
$TILEMODELIGHTSYNCH
280
    1
  9
$SOLIDHIST
280
    1
  9
$SHOWHIST
280
    1
  9
$DWFFRAME
280
    2
  9
$DGNFRAME
280
    0
  9
$REALWORLDSCALE
290
    1
  9
$INTERFERECOLOR
 62
    1
  9
$CSHADOW
280
    0
  9
$SHADOWPLANELOCATION
 40
0
  0
ENDSEC
  0
SECTION
  2
CLASSES
  0
ENDSEC
  0
SECTION
  2
TABLES
  0
TABLE
  2
VPORT
  5
8
330
0
100
AcDbSymbolTable
 70
    1
  0
VPORT
  5
31
330
2
100
AcDbSymbolTableRecord
100
AcDbViewportTableRecord
  2
*ACTIVE
 70
    0
 10
0
 20
0
 11
1
 21
1
 12
128.1729810996563
 22
41.1461197021764
 13
0
 23
0
 14
10
 24
10
 15
10
 25
10
 16
0
 26
0
 36
1
 17
0
 27
0
 37
0
 40
167.2899770904925
 41
1.987870619946092
 42
50
 43
0
 44
0
 50
0
 51
0
 71
    0
 72
  100
 73
    1
 74
    3
 75
    0
 76
    1
 77
    0
 78
    0
281
    0
 65
    1
110
0
120
0
130
0
111
1
121
0
131
0
112
0
122
1
132
0
 79
    0
146
0
348
10020
 60
    7
 61
    5
292
1
282
    1
141
0
142
0
 63
  250
421
3358443
  0
ENDTAB
  0
TABLE
  2
LTYPE
  5
5
330
0
100
AcDbSymbolTable
 70
    4
  0
LTYPE
  5
14
330
5
100
AcDbSymbolTableRecord
100
AcDbLinetypeTableRecord
  2
ByBlock
 70
    0
  3

 72
   65
 73
    0
 40
0
  0
LTYPE
  5
15
330
5
100
AcDbSymbolTableRecord
100
AcDbLinetypeTableRecord
  2
ByLayer
 70
    0
  3

 72
   65
 73
    0
 40
0
  0
LTYPE
  5
16
330
5
100
AcDbSymbolTableRecord
100
AcDbLinetypeTableRecord
  2
Continuous
 70
    0
  3
Solid line
 72
   65
 73
    0
 40
0
  0
LTYPE
  5
32
330
5
100
AcDbSymbolTableRecord
100
AcDbLinetypeTableRecord
  2
DOT
 70
    0
  3
Dot . . . . . . . . . . . . . . . . . . . . . .
 72
   65
 73
    2
 40
6.35
 49
0
 74
    0
 49
-6.35
 74
    0
  0
LTYPE
  5
33
330
5
100
AcDbSymbolTableRecord
100
AcDbLinetypeTableRecord
  2
DOTTINY
 70
    0
  3
Dot (.15x) .....................................
 72
   65
 73
    2
 40
0.9525
 49
0
 74
    0
 49
-0.9525
 74
    0
  0
LTYPE
  5
34
330
5
100
AcDbSymbolTableRecord
100
AcDbLinetypeTableRecord
  2
DOT2
 70
    0
  3
Dot (.5x) .....................................
 72
   65
 73
    2
 40
3.175
 49
0
 74
    0
 49
-3.175
 74
    0
  0
LTYPE
  5
35
330
5
100
AcDbSymbolTableRecord
100
AcDbLinetypeTableRecord
  2
DOTX2
 70
    0
  3
Dot (2x) .  .  .  .  .  .  .  .  .  .  .  .  .
 72
   65
 73
    2
 40
12.7
 49
0
 74
    0
 49
-12.7
 74
    0
  0
LTYPE
  5
36
330
5
100
AcDbSymbolTableRecord
100
AcDbLinetypeTableRecord
  2
DASHED
 70
    0
  3
Dashed _ _ _ _ _ _ _ _ _ _ _ _ _ _ _ _ _
 72
   65
 73
    2
 40
19.05
 49
12.7
 74
    0
 49
-6.35
 74
    0
  0
LTYPE
  5
37
330
5
100
AcDbSymbolTableRecord
100
AcDbLinetypeTableRecord
  2
DASHEDTINY
 70
    0
  3
Dashed (.15x) _ _ _ _ _ _ _ _ _ _ _ _ _ _ _ _ _
 72
   65
 73
    2
 40
2.8575
 49
1.905
 74
    0
 49
-0.9525
 74
    0
  0
LTYPE
  5
38
330
5
100
AcDbSymbolTableRecord
100
AcDbLinetypeTableRecord
  2
DASHED2
 70
    0
  3
Dashed (.5x) _ _ _ _ _ _ _ _ _ _ _ _ _ _ _ _ _
 72
   65
 73
    2
 40
9.524999999999999
 49
6.35
 74
    0
 49
-3.175
 74
    0
  0
LTYPE
  5
39
330
5
100
AcDbSymbolTableRecord
100
AcDbLinetypeTableRecord
  2
DASHEDX2
 70
    0
  3
Dashed (2x) ____  ____  ____  ____  ____  ___
 72
   65
 73
    2
 40
38.09999999999999
 49
25.4
 74
    0
 49
-12.7
 74
    0
  0
LTYPE
  5
3A
330
5
100
AcDbSymbolTableRecord
100
AcDbLinetypeTableRecord
  2
DASHDOT
 70
    0
  3
Dash dot __ . __ . __ . __ . __ . __ . __ . __
 72
   65
 73
    4
 40
25.4
 49
12.7
 74
    0
 49
-6.35
 74
    0
 49
0
 74
    0
 49
-6.35
 74
    0
  0
LTYPE
  5
3B
330
5
100
AcDbSymbolTableRecord
100
AcDbLinetypeTableRecord
  2
DASHDOTTINY
 70
    0
  3
Dash dot (.15x) _._._._._._._._._._._._._._._.
 72
   65
 73
    4
 40
3.81
 49
1.905
 74
    0
 49
-0.9525
 74
    0
 49
0
 74
    0
 49
-0.9525
 74
    0
  0
LTYPE
  5
3C
330
5
100
AcDbSymbolTableRecord
100
AcDbLinetypeTableRecord
  2
DASHDOT2
 70
    0
  3
Dash dot (.5x) _._._._._._._._._._._._._._._.
 72
   65
 73
    4
 40
12.7
 49
6.35
 74
    0
 49
-3.175
 74
    0
 49
0
 74
    0
 49
-3.175
 74
    0
  0
LTYPE
  5
3D
330
5
100
AcDbSymbolTableRecord
100
AcDbLinetypeTableRecord
  2
DASHDOTX2
 70
    0
  3
Dash dot (2x) ____  .  ____  .  ____  .  ___
 72
   65
 73
    4
 40
50.8
 49
25.4
 74
    0
 49
-12.7
 74
    0
 49
0
 74
    0
 49
-12.7
 74
    0
  0
LTYPE
  5
3E
330
5
100
AcDbSymbolTableRecord
100
AcDbLinetypeTableRecord
  2
DIVIDE
 70
    0
  3
Divide ____ . . ____ . . ____ . . ____ . . ____
 72
   65
 73
    6
 40
31.75
 49
12.7
 74
    0
 49
-6.35
 74
    0
 49
0
 74
    0
 49
-6.35
 74
    0
 49
0
 74
    0
 49
-6.35
 74
    0
  0
LTYPE
  5
3F
330
5
100
AcDbSymbolTableRecord
100
AcDbLinetypeTableRecord
  2
DIVIDETINY
 70
    0
  3
Divide (.15x) __..__..__..__..__..__..__..__.._
 72
   65
 73
    6
 40
4.7625
 49
1.905
 74
    0
 49
-0.9525
 74
    0
 49
0
 74
    0
 49
-0.9525
 74
    0
 49
0
 74
    0
 49
-0.9525
 74
    0
  0
LTYPE
  5
40
330
5
100
AcDbSymbolTableRecord
100
AcDbLinetypeTableRecord
  2
DIVIDE2
 70
    0
  3
Divide (.5x) __..__..__..__..__..__..__..__.._
 72
   65
 73
    6
 40
15.875
 49
6.35
 74
    0
 49
-3.175
 74
    0
 49
0
 74
    0
 49
-3.175
 74
    0
 49
0
 74
    0
 49
-3.175
 74
    0
  0
LTYPE
  5
41
330
5
100
AcDbSymbolTableRecord
100
AcDbLinetypeTableRecord
  2
DIVIDEX2
 70
    0
  3
Divide (2x) ________  .  .  ________  .  .  _
 72
   65
 73
    6
 40
63.5
 49
25.4
 74
    0
 49
-12.7
 74
    0
 49
0
 74
    0
 49
-12.7
 74
    0
 49
0
 74
    0
 49
-12.7
 74
    0
  0
LTYPE
  5
42
330
5
100
AcDbSymbolTableRecord
100
AcDbLinetypeTableRecord
  2
BORDER
 70
    0
  3
Border __ __ . __ __ . __ __ . __ __ . __ __ .
 72
   65
 73
    6
 40
44.45
 49
12.7
 74
    0
 49
-6.35
 74
    0
 49
12.7
 74
    0
 49
-6.35
 74
    0
 49
0
 74
    0
 49
-6.35
 74
    0
  0
LTYPE
  5
43
330
5
100
AcDbSymbolTableRecord
100
AcDbLinetypeTableRecord
  2
BORDERTINY
 70
    0
  3
Border (.15x) __.__.__.__.__.__.__.__.__.__.__.
 72
   65
 73
    6
 40
6.6675
 49
1.905
 74
    0
 49
-0.9525
 74
    0
 49
1.905
 74
    0
 49
-0.9525
 74
    0
 49
0
 74
    0
 49
-0.9525
 74
    0
  0
LTYPE
  5
44
330
5
100
AcDbSymbolTableRecord
100
AcDbLinetypeTableRecord
  2
BORDER2
 70
    0
  3
Border (.5x) __.__.__.__.__.__.__.__.__.__.__.
 72
   65
 73
    6
 40
22.225
 49
6.35
 74
    0
 49
-3.175
 74
    0
 49
6.35
 74
    0
 49
-3.175
 74
    0
 49
0
 74
    0
 49
-3.175
 74
    0
  0
LTYPE
  5
45
330
5
100
AcDbSymbolTableRecord
100
AcDbLinetypeTableRecord
  2
BORDERX2
 70
    0
  3
Border (2x) ____  ____  .  ____  ____  .  ___
 72
   65
 73
    6
 40
88.89999999999999
 49
25.4
 74
    0
 49
-12.7
 74
    0
 49
25.4
 74
    0
 49
-12.7
 74
    0
 49
0
 74
    0
 49
-12.7
 74
    0
  0
LTYPE
  5
46
330
5
100
AcDbSymbolTableRecord
100
AcDbLinetypeTableRecord
  2
CENTER
 70
    0
  3
Center ____ _ ____ _ ____ _ ____ _ ____ _ ____
 72
   65
 73
    4
 40
50.8
 49
31.75
 74
    0
 49
-6.35
 74
    0
 49
6.35
 74
    0
 49
-6.35
 74
    0
  0
LTYPE
  5
47
330
5
100
AcDbSymbolTableRecord
100
AcDbLinetypeTableRecord
  2
CENTERTINY
 70
    0
  3
Center (.15x) ___ _ ___ _ ___ _ ___ _ ___ _ ___
 72
   65
 73
    4
 40
7.619999999999999
 49
4.7625
 74
    0
 49
-0.9525
 74
    0
 49
0.9525
 74
    0
 49
-0.9525
 74
    0
  0
LTYPE
  5
48
330
5
100
AcDbSymbolTableRecord
100
AcDbLinetypeTableRecord
  2
CENTER2
 70
    0
  3
Center (.5x) ___ _ ___ _ ___ _ ___ _ ___ _ ___
 72
   65
 73
    4
 40
28.575
 49
19.05
 74
    0
 49
-3.175
 74
    0
 49
3.175
 74
    0
 49
-3.175
 74
    0
  0
LTYPE
  5
49
330
5
100
AcDbSymbolTableRecord
100
AcDbLinetypeTableRecord
  2
CENTERX2
 70
    0
  3
Center (2x) ________  __  ________  __  _____
 72
   65
 73
    4
 40
101.6
 49
63.5
 74
    0
 49
-12.7
 74
    0
 49
12.7
 74
    0
 49
-12.7
 74
    0
  0
ENDTAB
  0
TABLE
  2
LAYER
  5
2
330
0
100
AcDbSymbolTable
 70
    1
  0
LAYER
  5
10
330
2
100
AcDbSymbolTableRecord
100
AcDbLayerTableRecord
  2
0
 70
    1
 62
    7
  6
CONTINUOUS
370
   -3
390
F
1001
LibreCad
1070
    1
  0
LAYER
  5
4A
330
2
100
AcDbSymbolTableRecord
100
AcDbLayerTableRecord
  2
dimensions
 70
    0
 62
    4
  6
CONTINUOUS
370
   13
390
F
  0
LAYER
  5
4B
330
2
100
AcDbSymbolTableRecord
100
AcDbLayerTableRecord
  2
face
 70
    0
 62
   41
420
16310459
  6
CONTINUOUS
370
   25
390
F
  0
ENDTAB
  0
TABLE
  2
STYLE
  5
3
330
0
100
AcDbSymbolTable
 70
    3
  0
STYLE
  5
4C
330
2
100
AcDbSymbolTableRecord
100
AcDbTextStyleTableRecord
  2
unicode
 70
    0
 40
0
 41
1
 50
0
 71
    0
 42
1
  3
unicode
  4

  0
STYLE
  5
4D
330
2
100
AcDbSymbolTableRecord
100
AcDbTextStyleTableRecord
  2
cyrillic_ii
 70
    0
 40
0
 41
1
 50
0
 71
    0
 42
1
  3
cyrillic_ii
  4

  0
STYLE
  5
4E
330
2
100
AcDbSymbolTableRecord
100
AcDbTextStyleTableRecord
  2
Standard
 70
    0
 40
0
 41
1
 50
0
 71
    0
 42
1
  3
txt
  4

  0
ENDTAB
  0
TABLE
  2
VIEW
  5
6
330
0
100
AcDbSymbolTable
 70
    0
  0
ENDTAB
  0
TABLE
  2
UCS
  5
7
330
0
100
AcDbSymbolTable
 70
    0
  0
ENDTAB
  0
TABLE
  2
APPID
  5
9
330
0
100
AcDbSymbolTable
 70
    1
  0
APPID
  5
12
330
9
100
AcDbSymbolTableRecord
100
AcDbRegAppTableRecord
  2
ACAD
 70
    0
  0
APPID
  5
4F
330
9
100
AcDbSymbolTableRecord
100
AcDbRegAppTableRecord
  2
LibreCad
 70
    0
  0
ENDTAB
  0
TABLE
  2
DIMSTYLE
  5
A
330
0
100
AcDbSymbolTable
 70
    1
100
AcDbDimStyleTable
 71
    1
  0
DIMSTYLE
105
50
330
A
100
AcDbSymbolTableRecord
100
AcDbDimStyleTableRecord
  2
Standard
 70
    0
 40
1
 41
2.5
 42
0.5
 43
0.38
 44
1
 45
0
 46
0
 47
0
 48
0
 49
1
140
2.5
141
0.09
142
0
143
25.4
144
1
145
0
146
1
147
1
148
0
 71
    0
 72
    0
 73
    0
 74
    1
 75
    0
 76
    0
 77
    0
 78
    8
 79
    0
170
    0
171
    2
172
    0
173
    0
174
    0
175
    0
176
    0
177
    0
178
    0
179
    0
271
    1
272
    4
273
    2
274
    2
275
    0
276
    0
277
    2
278
   44
279
    0
280
    0
281
    0
282
    0
283
    1
284
    0
285
    0
286
    0
288
    0
289
    3
340
standard
341

371
   -2
372
   -2
  0
ENDTAB
  0
TABLE
  2
BLOCK_RECORD
  5
1
330
0
100
AcDbSymbolTable
 70
    2
  0
BLOCK_RECORD
  5
1F
330
1
100
AcDbSymbolTableRecord
100
AcDbBlockTableRecord
  2
*Model_Space
 70
    0
280
    1
281
    0
  0
BLOCK_RECORD
  5
1E
330
1
100
AcDbSymbolTableRecord
100
AcDbBlockTableRecord
  2
*Paper_Space
 70
    0
280
    1
281
    0
  0
BLOCK_RECORD
  5
51
330
1
100
AcDbSymbolTableRecord
100
AcDbBlockTableRecord
  2
*D25
 70
    0
280
    1
281
    0
  0
BLOCK_RECORD
  5
54
330
1
100
AcDbSymbolTableRecord
100
AcDbBlockTableRecord
  2
*D49
 70
    0
280
    1
281
    0
  0
BLOCK_RECORD
  5
57
330
1
100
AcDbSymbolTableRecord
100
AcDbBlockTableRecord
  2
*D30
 70
    0
280
    1
281
    0
  0
BLOCK_RECORD
  5
5A
330
1
100
AcDbSymbolTableRecord
100
AcDbBlockTableRecord
  2
*D22
 70
    0
280
    1
281
    0
  0
BLOCK_RECORD
  5
5D
330
1
100
AcDbSymbolTableRecord
100
AcDbBlockTableRecord
  2
*D47
 70
    0
280
    1
281
    0
  0
BLOCK_RECORD
  5
60
330
1
100
AcDbSymbolTableRecord
100
AcDbBlockTableRecord
  2
*D59
 70
    0
280
    1
281
    0
  0
BLOCK_RECORD
  5
63
330
1
100
AcDbSymbolTableRecord
100
AcDbBlockTableRecord
  2
*D26
 70
    0
280
    1
281
    0
  0
BLOCK_RECORD
  5
66
330
1
100
AcDbSymbolTableRecord
100
AcDbBlockTableRecord
  2
*D11
 70
    0
280
    1
281
    0
  0
BLOCK_RECORD
  5
69
330
1
100
AcDbSymbolTableRecord
100
AcDbBlockTableRecord
  2
*D20
 70
    0
280
    1
281
    0
  0
BLOCK_RECORD
  5
6C
330
1
100
AcDbSymbolTableRecord
100
AcDbBlockTableRecord
  2
*D19
 70
    0
280
    1
281
    0
  0
BLOCK_RECORD
  5
6F
330
1
100
AcDbSymbolTableRecord
100
AcDbBlockTableRecord
  2
*D64
 70
    0
280
    1
281
    0
  0
BLOCK_RECORD
  5
72
330
1
100
AcDbSymbolTableRecord
100
AcDbBlockTableRecord
  2
*D14
 70
    0
280
    1
281
    0
  0
BLOCK_RECORD
  5
75
330
1
100
AcDbSymbolTableRecord
100
AcDbBlockTableRecord
  2
*D13
 70
    0
280
    1
281
    0
  0
BLOCK_RECORD
  5
78
330
1
100
AcDbSymbolTableRecord
100
AcDbBlockTableRecord
  2
*D3
 70
    0
280
    1
281
    0
  0
BLOCK_RECORD
  5
7B
330
1
100
AcDbSymbolTableRecord
100
AcDbBlockTableRecord
  2
*D58
 70
    0
280
    1
281
    0
  0
BLOCK_RECORD
  5
7E
330
1
100
AcDbSymbolTableRecord
100
AcDbBlockTableRecord
  2
*D4
 70
    0
280
    1
281
    0
  0
BLOCK_RECORD
  5
81
330
1
100
AcDbSymbolTableRecord
100
AcDbBlockTableRecord
  2
*D41
 70
    0
280
    1
281
    0
  0
BLOCK_RECORD
  5
84
330
1
100
AcDbSymbolTableRecord
100
AcDbBlockTableRecord
  2
*D60
 70
    0
280
    1
281
    0
  0
BLOCK_RECORD
  5
87
330
1
100
AcDbSymbolTableRecord
100
AcDbBlockTableRecord
  2
*D5
 70
    0
280
    1
281
    0
  0
BLOCK_RECORD
  5
8A
330
1
100
AcDbSymbolTableRecord
100
AcDbBlockTableRecord
  2
*D44
 70
    0
280
    1
281
    0
  0
BLOCK_RECORD
  5
8D
330
1
100
AcDbSymbolTableRecord
100
AcDbBlockTableRecord
  2
*D16
 70
    0
280
    1
281
    0
  0
BLOCK_RECORD
  5
90
330
1
100
AcDbSymbolTableRecord
100
AcDbBlockTableRecord
  2
*D50
 70
    0
280
    1
281
    0
  0
BLOCK_RECORD
  5
93
330
1
100
AcDbSymbolTableRecord
100
AcDbBlockTableRecord
  2
*D51
 70
    0
280
    1
281
    0
  0
BLOCK_RECORD
  5
96
330
1
100
AcDbSymbolTableRecord
100
AcDbBlockTableRecord
  2
*D62
 70
    0
280
    1
281
    0
  0
BLOCK_RECORD
  5
99
330
1
100
AcDbSymbolTableRecord
100
AcDbBlockTableRecord
  2
*D43
 70
    0
280
    1
281
    0
  0
BLOCK_RECORD
  5
9C
330
1
100
AcDbSymbolTableRecord
100
AcDbBlockTableRecord
  2
*D28
 70
    0
280
    1
281
    0
  0
BLOCK_RECORD
  5
9F
330
1
100
AcDbSymbolTableRecord
100
AcDbBlockTableRecord
  2
*D55
 70
    0
280
    1
281
    0
  0
BLOCK_RECORD
  5
A2
330
1
100
AcDbSymbolTableRecord
100
AcDbBlockTableRecord
  2
*D38
 70
    0
280
    1
281
    0
  0
BLOCK_RECORD
  5
A5
330
1
100
AcDbSymbolTableRecord
100
AcDbBlockTableRecord
  2
*D48
 70
    0
280
    1
281
    0
  0
BLOCK_RECORD
  5
A8
330
1
100
AcDbSymbolTableRecord
100
AcDbBlockTableRecord
  2
*D17
 70
    0
280
    1
281
    0
  0
BLOCK_RECORD
  5
AB
330
1
100
AcDbSymbolTableRecord
100
AcDbBlockTableRecord
  2
*D40
 70
    0
280
    1
281
    0
  0
BLOCK_RECORD
  5
AE
330
1
100
AcDbSymbolTableRecord
100
AcDbBlockTableRecord
  2
*D37
 70
    0
280
    1
281
    0
  0
BLOCK_RECORD
  5
B1
330
1
100
AcDbSymbolTableRecord
100
AcDbBlockTableRecord
  2
*D24
 70
    0
280
    1
281
    0
  0
BLOCK_RECORD
  5
B4
330
1
100
AcDbSymbolTableRecord
100
AcDbBlockTableRecord
  2
*D8
 70
    0
280
    1
281
    0
  0
BLOCK_RECORD
  5
B7
330
1
100
AcDbSymbolTableRecord
100
AcDbBlockTableRecord
  2
*D9
 70
    0
280
    1
281
    0
  0
BLOCK_RECORD
  5
BA
330
1
100
AcDbSymbolTableRecord
100
AcDbBlockTableRecord
  2
*D21
 70
    0
280
    1
281
    0
  0
BLOCK_RECORD
  5
BD
330
1
100
AcDbSymbolTableRecord
100
AcDbBlockTableRecord
  2
*D12
 70
    0
280
    1
281
    0
  0
BLOCK_RECORD
  5
C0
330
1
100
AcDbSymbolTableRecord
100
AcDbBlockTableRecord
  2
*D18
 70
    0
280
    1
281
    0
  0
BLOCK_RECORD
  5
C3
330
1
100
AcDbSymbolTableRecord
100
AcDbBlockTableRecord
  2
*D57
 70
    0
280
    1
281
    0
  0
BLOCK_RECORD
  5
C6
330
1
100
AcDbSymbolTableRecord
100
AcDbBlockTableRecord
  2
*D7
 70
    0
280
    1
281
    0
  0
BLOCK_RECORD
  5
C9
330
1
100
AcDbSymbolTableRecord
100
AcDbBlockTableRecord
  2
*D39
 70
    0
280
    1
281
    0
  0
BLOCK_RECORD
  5
CC
330
1
100
AcDbSymbolTableRecord
100
AcDbBlockTableRecord
  2
*D34
 70
    0
280
    1
281
    0
  0
BLOCK_RECORD
  5
CF
330
1
100
AcDbSymbolTableRecord
100
AcDbBlockTableRecord
  2
*D2
 70
    0
280
    1
281
    0
  0
BLOCK_RECORD
  5
D2
330
1
100
AcDbSymbolTableRecord
100
AcDbBlockTableRecord
  2
*D42
 70
    0
280
    1
281
    0
  0
BLOCK_RECORD
  5
D5
330
1
100
AcDbSymbolTableRecord
100
AcDbBlockTableRecord
  2
*D32
 70
    0
280
    1
281
    0
  0
BLOCK_RECORD
  5
D8
330
1
100
AcDbSymbolTableRecord
100
AcDbBlockTableRecord
  2
*D15
 70
    0
280
    1
281
    0
  0
BLOCK_RECORD
  5
DB
330
1
100
AcDbSymbolTableRecord
100
AcDbBlockTableRecord
  2
*D6
 70
    0
280
    1
281
    0
  0
BLOCK_RECORD
  5
DE
330
1
100
AcDbSymbolTableRecord
100
AcDbBlockTableRecord
  2
*D23
 70
    0
280
    1
281
    0
  0
BLOCK_RECORD
  5
E1
330
1
100
AcDbSymbolTableRecord
100
AcDbBlockTableRecord
  2
*D54
 70
    0
280
    1
281
    0
  0
BLOCK_RECORD
  5
E4
330
1
100
AcDbSymbolTableRecord
100
AcDbBlockTableRecord
  2
*D27
 70
    0
280
    1
281
    0
  0
BLOCK_RECORD
  5
E7
330
1
100
AcDbSymbolTableRecord
100
AcDbBlockTableRecord
  2
*D63
 70
    0
280
    1
281
    0
  0
BLOCK_RECORD
  5
EA
330
1
100
AcDbSymbolTableRecord
100
AcDbBlockTableRecord
  2
*D45
 70
    0
280
    1
281
    0
  0
BLOCK_RECORD
  5
ED
330
1
100
AcDbSymbolTableRecord
100
AcDbBlockTableRecord
  2
*D46
 70
    0
280
    1
281
    0
  0
BLOCK_RECORD
  5
F0
330
1
100
AcDbSymbolTableRecord
100
AcDbBlockTableRecord
  2
*D10
 70
    0
280
    1
281
    0
  0
BLOCK_RECORD
  5
F3
330
1
100
AcDbSymbolTableRecord
100
AcDbBlockTableRecord
  2
*D52
 70
    0
280
    1
281
    0
  0
BLOCK_RECORD
  5
F6
330
1
100
AcDbSymbolTableRecord
100
AcDbBlockTableRecord
  2
*D53
 70
    0
280
    1
281
    0
  0
BLOCK_RECORD
  5
F9
330
1
100
AcDbSymbolTableRecord
100
AcDbBlockTableRecord
  2
*D61
 70
    0
280
    1
281
    0
  0
BLOCK_RECORD
  5
FC
330
1
100
AcDbSymbolTableRecord
100
AcDbBlockTableRecord
  2
*D36
 70
    0
280
    1
281
    0
  0
BLOCK_RECORD
  5
FF
330
1
100
AcDbSymbolTableRecord
100
AcDbBlockTableRecord
  2
*D33
 70
    0
280
    1
281
    0
  0
BLOCK_RECORD
  5
102
330
1
100
AcDbSymbolTableRecord
100
AcDbBlockTableRecord
  2
*D1
 70
    0
280
    1
281
    0
  0
BLOCK_RECORD
  5
105
330
1
100
AcDbSymbolTableRecord
100
AcDbBlockTableRecord
  2
*D56
 70
    0
280
    1
281
    0
  0
BLOCK_RECORD
  5
108
330
1
100
AcDbSymbolTableRecord
100
AcDbBlockTableRecord
  2
*D35
 70
    0
280
    1
281
    0
  0
BLOCK_RECORD
  5
10B
330
1
100
AcDbSymbolTableRecord
100
AcDbBlockTableRecord
  2
*D31
 70
    0
280
    1
281
    0
  0
BLOCK_RECORD
  5
10E
330
1
100
AcDbSymbolTableRecord
100
AcDbBlockTableRecord
  2
*D29
 70
    0
280
    1
281
    0
  0
ENDTAB
  0
ENDSEC
  0
SECTION
  2
BLOCKS
  0
BLOCK
  5
20
330
1F
100
AcDbEntity
  8
0
100
AcDbBlockBegin
  2
*Model_Space
 70
    0
 10
0
 20
0
 30
0
  3
*Model_Space
  1

  0
ENDBLK
  5
21
330
1F
100
AcDbEntity
  8
0
100
AcDbBlockEnd
  0
BLOCK
  5
1C
330
1B
100
AcDbEntity
  8
0
100
AcDbBlockBegin
  2
*Paper_Space
 70
    0
 10
0
 20
0
 30
0
  3
*Paper_Space
  1

  0
ENDBLK
  5
1D
330
1F
100
AcDbEntity
  8
0
100
AcDbBlockEnd
  0
BLOCK
  5
52
330
51
100
AcDbEntity
  8
0
100
AcDbBlockBegin
  2
*D25
 70
    1
 10
0
 20
0
  3
*D25
  1

  0
LINE
  5
111
100
AcDbEntity
  8
dimensions
  6
ByBlock
 62
    0
370
   -2
100
AcDbLine
 10
30
 20
40
 11
30
 21
47.45747111906235
  0
SOLID
  5
112
100
AcDbEntity
  8
dimensions
  6
ByBlock
 62
    0
370
   -2
100
AcDbTrace
 10
30
 20
40
 30
0
 11
29.58371534222716
 21
42.5
 31
0
 12
30.41628465777284
 22
42.5
 32
0
 13
30.41628465777284
 23
42.5
 33
0
  0
SOLID
  5
113
100
AcDbEntity
  8
dimensions
  6
ByBlock
 62
    0
370
   -2
100
AcDbTrace
 10
30
 20
47.45747111906235
 30
0
 11
30.41628465777284
 21
44.95747111906235
 31
0
 12
29.58371534222716
 22
44.95747111906235
 32
0
 13
29.58371534222716
 23
44.95747111906235
 33
0
  0
MTEXT
  5
114
100
AcDbEntity
  8
dimensions
  6
CONTINUOUS
 62
    0
370
   -2
100
AcDbMText
 10
27.75
 20
43.72873555953117
 30
0
 40
2.5
 41
4.027777777777933
 71
    5
 72
    1
  1
7,5
  7
standard
210
0
220
0
230
1
 50
90
 73
    2
 44
1
  0
LINE
  5
115
100
AcDbEntity
  8
dimensions
  6
ByBlock
 62
    0
370
   -2
100
AcDbLine
 10
29.49999999999999
 20
40
 11
29
 21
40
  0
LINE
  5
116
100
AcDbEntity
  8
dimensions
  6
ByBlock
 62
    0
370
   -2
100
AcDbLine
 10
29.5
 20
47.45747111906235
 11
29
 21
47.45747111906235
  0
ENDBLK
  5
53
330
51
100
AcDbEntity
  8
0
100
AcDbBlockEnd
  0
BLOCK
  5
55
330
54
100
AcDbEntity
  8
0
100
AcDbBlockBegin
  2
*D49
 70
    1
 10
0
 20
0
  3
*D49
  1

  0
LINE
  5
117
100
AcDbEntity
  8
dimensions
  6
ByBlock
 62
    0
370
   -2
100
AcDbLine
 10
220
 20
-66.22803772930864
 11
220
 21
-50.60936248927945
  0
SOLID
  5
118
100
AcDbEntity
  8
dimensions
  6
ByBlock
 62
    0
370
   -2
100
AcDbTrace
 10
220
 20
-61.22803772930864
 30
0
 11
220.4162846577728
 21
-63.72803772930864
 31
0
 12
219.5837153422272
 22
-63.72803772930864
 32
0
 13
219.5837153422272
 23
-63.72803772930864
 33
0
  0
SOLID
  5
119
100
AcDbEntity
  8
dimensions
  6
ByBlock
 62
    0
370
   -2
100
AcDbTrace
 10
220
 20
-55.60936248927945
 30
0
 11
219.5837153422272
 21
-53.10936248927945
 31
0
 12
220.4162846577728
 22
-53.10936248927945
 32
0
 13
220.4162846577728
 23
-53.10936248927945
 33
0
  0
MTEXT
  5
11A
100
AcDbEntity
  8
dimensions
  6
CONTINUOUS
 62
    0
370
   -2
100
AcDbMText
 10
217.75
 20
-58.41870010929404
 30
0
 40
2.5
 41
4.027777777778088
 71
    5
 72
    1
  1
5,6
  7
standard
210
0
220
0
230
1
 50
90
 73
    2
 44
1
  0
LINE
  5
11B
100
AcDbEntity
  8
dimensions
  6
ByBlock
 62
    0
370
   -2
100
AcDbLine
 10
219.5
 20
-61.22803772930864
 11
219
 21
-61.22803772930864
  0
LINE
  5
11C
100
AcDbEntity
  8
dimensions
  6
ByBlock
 62
    0
370
   -2
100
AcDbLine
 10
219.5
 20
-55.60936248927945
 11
219
 21
-55.60936248927945
  0
ENDBLK
  5
56
330
54
100
AcDbEntity
  8
0
100
AcDbBlockEnd
  0
BLOCK
  5
58
330
57
100
AcDbEntity
  8
0
100
AcDbBlockBegin
  2
*D30
 70
    1
 10
0
 20
0
  3
*D30
  1

  0
LINE
  5
11D
100
AcDbEntity
  8
dimensions
  6
ByBlock
 62
    0
370
   -2
100
AcDbLine
 10
110
 20
35
 11
110
 21
46.4188731510866
  0
SOLID
  5
11E
100
AcDbEntity
  8
dimensions
  6
ByBlock
 62
    0
370
   -2
100
AcDbTrace
 10
110
 20
40
 30
0
 11
110.4162846577728
 21
37.5
 31
0
 12
109.5837153422272
 22
37.5
 32
0
 13
109.5837153422272
 23
37.5
 33
0
  0
SOLID
  5
11F
100
AcDbEntity
  8
dimensions
  6
ByBlock
 62
    0
370
   -2
100
AcDbTrace
 10
110
 20
41.4188731510866
 30
0
 11
109.5837153422272
 21
43.9188731510866
 31
0
 12
110.4162846577728
 22
43.9188731510866
 32
0
 13
110.4162846577728
 23
43.9188731510866
 33
0
  0
MTEXT
  5
120
100
AcDbEntity
  8
dimensions
  6
CONTINUOUS
 62
    0
370
   -2
100
AcDbMText
 10
107.75
 20
44.2938731510866
 30
0
 40
2.5
 41
3.75
 71
    5
 72
    1
  1
1,4
  7
standard
210
0
220
0
230
1
 50
90
 73
    2
 44
1
  0
LINE
  5
121
100
AcDbEntity
  8
dimensions
  6
ByBlock
 62
    0
370
   -2
100
AcDbLine
 10
109.5
 20
40
 11
109
 21
40
  0
LINE
  5
122
100
AcDbEntity
  8
dimensions
  6
ByBlock
 62
    0
370
   -2
100
AcDbLine
 10
109.5
 20
41.4188731510866
 11
109
 21
41.4188731510866
  0
ENDBLK
  5
59
330
57
100
AcDbEntity
  8
0
100
AcDbBlockEnd
  0
BLOCK
  5
5B
330
5A
100
AcDbEntity
  8
0
100
AcDbBlockBegin
  2
*D22
 70
    1
 10
0
 20
0
  3
*D22
  1

  0
LINE
  5
123
100
AcDbEntity
  8
dimensions
  6
ByBlock
 62
    0
370
   -2
100
AcDbLine
 10
-5.51091059616309e-16
 20
40
 11
0
 21
49
  0
SOLID
  5
124
100
AcDbEntity
  8
dimensions
  6
ByBlock
 62
    0
370
   -2
100
AcDbTrace
 10
-5.51091059616309e-16
 20
40
 30
0
 11
-0.4162846577728406
 21
42.5
 31
0
 12
0.4162846577728403
 22
42.5
 32
0
 13
0.4162846577728403
 23
42.5
 33
0
  0
SOLID
  5
125
100
AcDbEntity
  8
dimensions
  6
ByBlock
 62
    0
370
   -2
100
AcDbTrace
 10
0
 20
49
 30
0
 11
0.4162846577728403
 21
46.5
 31
0
 12
-0.4162846577728406
 22
46.5
 32
0
 13
-0.4162846577728406
 23
46.5
 33
0
  0
MTEXT
  5
126
100
AcDbEntity
  8
dimensions
  6
CONTINUOUS
 62
    0
370
   -2
100
AcDbMText
 10
-2.25
 20
44.5
 30
0
 40
2.5
 41
1.111111111111266
 71
    5
 72
    1
  1
9
  7
standard
210
0
220
0
230
1
 50
90
 73
    2
 44
1
  0
LINE
  5
127
100
AcDbEntity
  8
dimensions
  6
ByBlock
 62
    0
370
   -2
100
AcDbLine
 10
-0.5000000000000132
 20
40
 11
-1
 21
40
  0
LINE
  5
128
100
AcDbEntity
  8
dimensions
  6
ByBlock
 62
    0
370
   -2
100
AcDbLine
 10
-0.5
 20
49
 11
-1
 21
49
  0
ENDBLK
  5
5C
330
5A
100
AcDbEntity
  8
0
100
AcDbBlockEnd
  0
BLOCK
  5
5E
330
5D
100
AcDbEntity
  8
0
100
AcDbBlockBegin
  2
*D47
 70
    1
 10
0
 20
0
  3
*D47
  1

  0
LINE
  5
129
100
AcDbEntity
  8
dimensions
  6
ByBlock
 62
    0
370
   -2
100
AcDbLine
 10
180
 20
-5
 11
180
 21
9.442069286065689
  0
SOLID
  5
12A
100
AcDbEntity
  8
dimensions
  6
ByBlock
 62
    0
370
   -2
100
AcDbTrace
 10
180
 20
0
 30
0
 11
180.4162846577728
 21
-2.5
 31
0
 12
179.5837153422272
 22
-2.5
 32
0
 13
179.5837153422272
 23
-2.5
 33
0
  0
SOLID
  5
12B
100
AcDbEntity
  8
dimensions
  6
ByBlock
 62
    0
370
   -2
100
AcDbTrace
 10
180
 20
4.442069286065689
 30
0
 11
179.5837153422272
 21
6.942069286065689
 31
0
 12
180.4162846577728
 22
6.942069286065689
 32
0
 13
180.4162846577728
 23
6.942069286065689
 33
0
  0
MTEXT
  5
12C
100
AcDbEntity
  8
dimensions
  6
CONTINUOUS
 62
    0
370
   -2
100
AcDbMText
 10
177.75
 20
7.733735952732357
 30
0
 40
2.5
 41
4.583333333333334
 71
    5
 72
    1
  1
4,4
  7
standard
210
0
220
0
230
1
 50
90
 73
    2
 44
1
  0
LINE
  5
12D
100
AcDbEntity
  8
dimensions
  6
ByBlock
 62
    0
370
   -2
100
AcDbLine
 10
179.5
 20
6.123233995736766e-17
 11
179
 21
1.224646799147353e-16
  0
LINE
  5
12E
100
AcDbEntity
  8
dimensions
  6
ByBlock
 62
    0
370
   -2
100
AcDbLine
 10
179.5
 20
4.442069286065689
 11
179
 21
4.442069286065689
  0
ENDBLK
  5
5F
330
5D
100
AcDbEntity
  8
0
100
AcDbBlockEnd
  0
BLOCK
  5
61
330
60
100
AcDbEntity
  8
0
100
AcDbBlockBegin
  2
*D59
 70
    1
 10
0
 20
0
  3
*D59
  1

  0
LINE
  5
12F
100
AcDbEntity
  8
dimensions
  6
ByBlock
 62
    0
370
   -2
100
AcDbLine
 10
170
 20
-61.2
 11
170
 21
-37.68143448425779
  0
SOLID
  5
130
100
AcDbEntity
  8
dimensions
  6
ByBlock
 62
    0
370
   -2
100
AcDbTrace
 10
170
 20
-61.2
 30
0
 11
169.5837153422272
 21
-58.7
 31
0
 12
170.4162846577728
 22
-58.7
 32
0
 13
170.4162846577728
 23
-58.7
 33
0
  0
SOLID
  5
131
100
AcDbEntity
  8
dimensions
  6
ByBlock
 62
    0
370
   -2
100
AcDbTrace
 10
170
 20
-37.68143448425779
 30
0
 11
170.4162846577728
 21
-40.18143448425779
 31
0
 12
169.5837153422272
 22
-40.18143448425779
 32
0
 13
169.5837153422272
 23
-40.18143448425779
 33
0
  0
MTEXT
  5
132
100
AcDbEntity
  8
dimensions
  6
CONTINUOUS
 62
    0
370
   -2
100
AcDbMText
 10
167.75
 20
-49.44071724212888
 30
0
 40
2.5
 41
5.972222222222534
 71
    5
 72
    1
  1
23,5
  7
standard
210
0
220
0
230
1
 50
90
 73
    2
 44
1
  0
LINE
  5
133
100
AcDbEntity
  8
dimensions
  6
ByBlock
 62
    0
370
   -2
100
AcDbLine
 10
169.5
 20
-61.2
 11
169
 21
-61.2
  0
LINE
  5
134
100
AcDbEntity
  8
dimensions
  6
ByBlock
 62
    0
370
   -2
100
AcDbLine
 10
169.5
 20
-37.68143448425779
 11
169
 21
-37.68143448425779
  0
ENDBLK
  5
62
330
60
100
AcDbEntity
  8
0
100
AcDbBlockEnd
  0
BLOCK
  5
64
330
63
100
AcDbEntity
  8
0
100
AcDbBlockBegin
  2
*D26
 70
    1
 10
0
 20
0
  3
*D26
  1

  0
LINE
  5
135
100
AcDbEntity
  8
dimensions
  6
ByBlock
 62
    0
370
   -2
100
AcDbLine
 10
40
 20
40
 11
40
 21
46.25204917308181
  0
SOLID
  5
136
100
AcDbEntity
  8
dimensions
  6
ByBlock
 62
    0
370
   -2
100
AcDbTrace
 10
40
 20
40
 30
0
 11
39.58371534222716
 21
42.5
 31
0
 12
40.41628465777284
 22
42.5
 32
0
 13
40.41628465777284
 23
42.5
 33
0
  0
SOLID
  5
137
100
AcDbEntity
  8
dimensions
  6
ByBlock
 62
    0
370
   -2
100
AcDbTrace
 10
40
 20
46.25204917308181
 30
0
 11
40.41628465777284
 21
43.75204917308181
 31
0
 12
39.58371534222716
 22
43.75204917308181
 32
0
 13
39.58371534222716
 23
43.75204917308181
 33
0
  0
MTEXT
  5
138
100
AcDbEntity
  8
dimensions
  6
CONTINUOUS
 62
    0
370
   -2
100
AcDbMText
 10
37.75
 20
43.12602458654091
 30
0
 40
2.5
 41
4.027777777778088
 71
    5
 72
    1
  1
6,3
  7
standard
210
0
220
0
230
1
 50
90
 73
    2
 44
1
  0
LINE
  5
139
100
AcDbEntity
  8
dimensions
  6
ByBlock
 62
    0
370
   -2
100
AcDbLine
 10
39.5
 20
40
 11
39
 21
40
  0
LINE
  5
13A
100
AcDbEntity
  8
dimensions
  6
ByBlock
 62
    0
370
   -2
100
AcDbLine
 10
39.5
 20
46.25204917308181
 11
39
 21
46.25204917308181
  0
ENDBLK
  5
65
330
63
100
AcDbEntity
  8
0
100
AcDbBlockEnd
  0
BLOCK
  5
67
330
66
100
AcDbEntity
  8
0
100
AcDbBlockBegin
  2
*D11
 70
    1
 10
0
 20
0
  3
*D11
  1

  0
LINE
  5
13B
100
AcDbEntity
  8
dimensions
  6
ByBlock
 62
    0
370
   -2
100
AcDbLine
 10
-10
 20
-45
 11
-9.999999999999998
 21
-32.15294739052934
  0
SOLID
  5
13C
100
AcDbEntity
  8
dimensions
  6
ByBlock
 62
    0
370
   -2
100
AcDbTrace
 10
-10
 20
-40
 30
0
 11
-9.58371534222716
 21
-42.5
 31
0
 12
-10.41628465777284
 22
-42.5
 32
0
 13
-10.41628465777284
 23
-42.5
 33
0
  0
SOLID
  5
13D
100
AcDbEntity
  8
dimensions
  6
ByBlock
 62
    0
370
   -2
100
AcDbTrace
 10
-10
 20
-37.15294739052934
 30
0
 11
-10.41628465777284
 21
-34.65294739052934
 31
0
 12
-9.583715342227158
 22
-34.65294739052934
 32
0
 13
-9.583715342227158
 23
-34.65294739052934
 33
0
  0
MTEXT
  5
13E
100
AcDbEntity
  8
dimensions
  6
CONTINUOUS
 62
    0
370
   -2
100
AcDbMText
 10
-12.25
 20
-34.13905850164045
 30
0
 40
2.5
 41
4.027777777777779
 71
    5
 72
    1
  1
2,8
  7
standard
210
0
220
0
230
1
 50
89.99999999999999
 73
    2
 44
1
  0
LINE
  5
13F
100
AcDbEntity
  8
dimensions
  6
ByBlock
 62
    0
370
   -2
100
AcDbLine
 10
-10.5
 20
-40
 11
-11
 21
-40
  0
LINE
  5
140
100
AcDbEntity
  8
dimensions
  6
ByBlock
 62
    0
370
   -2
100
AcDbLine
 10
-10.5
 20
-37.15294739052934
 11
-11
 21
-37.15294739052934
  0
ENDBLK
  5
68
330
66
100
AcDbEntity
  8
0
100
AcDbBlockEnd
  0
BLOCK
  5
6A
330
69
100
AcDbEntity
  8
0
100
AcDbBlockBegin
  2
*D20
 70
    1
 10
0
 20
0
  3
*D20
  1

  0
LINE
  5
141
100
AcDbEntity
  8
dimensions
  6
ByBlock
 62
    0
370
   -2
100
AcDbLine
 10
-30
 20
40
 11
-30
 21
47.45747111906235
  0
SOLID
  5
142
100
AcDbEntity
  8
dimensions
  6
ByBlock
 62
    0
370
   -2
100
AcDbTrace
 10
-30
 20
40
 30
0
 11
-30.41628465777284
 21
42.5
 31
0
 12
-29.58371534222716
 22
42.5
 32
0
 13
-29.58371534222716
 23
42.5
 33
0
  0
SOLID
  5
143
100
AcDbEntity
  8
dimensions
  6
ByBlock
 62
    0
370
   -2
100
AcDbTrace
 10
-30
 20
47.45747111906235
 30
0
 11
-29.58371534222716
 21
44.95747111906235
 31
0
 12
-30.41628465777284
 22
44.95747111906235
 32
0
 13
-30.41628465777284
 23
44.95747111906235
 33
0
  0
MTEXT
  5
144
100
AcDbEntity
  8
dimensions
  6
CONTINUOUS
 62
    0
370
   -2
100
AcDbMText
 10
-32.25
 20
43.72873555953117
 30
0
 40
2.5
 41
4.027777777777933
 71
    5
 72
    1
  1
7,5
  7
standard
210
0
220
0
230
1
 50
90
 73
    2
 44
1
  0
LINE
  5
145
100
AcDbEntity
  8
dimensions
  6
ByBlock
 62
    0
370
   -2
100
AcDbLine
 10
-30.50000000000001
 20
40
 11
-31
 21
40
  0
LINE
  5
146
100
AcDbEntity
  8
dimensions
  6
ByBlock
 62
    0
370
   -2
100
AcDbLine
 10
-30.5
 20
47.45747111906235
 11
-31
 21
47.45747111906235
  0
ENDBLK
  5
6B
330
69
100
AcDbEntity
  8
0
100
AcDbBlockEnd
  0
BLOCK
  5
6D
330
6C
100
AcDbEntity
  8
0
100
AcDbBlockBegin
  2
*D19
 70
    1
 10
0
 20
0
  3
*D19
  1

  0
LINE
  5
147
100
AcDbEntity
  8
dimensions
  6
ByBlock
 62
    0
370
   -2
100
AcDbLine
 10
-20
 20
40
 11
-20
 21
48.3154382482188
  0
SOLID
  5
148
100
AcDbEntity
  8
dimensions
  6
ByBlock
 62
    0
370
   -2
100
AcDbTrace
 10
-20
 20
40
 30
0
 11
-20.41628465777284
 21
42.5
 31
0
 12
-19.58371534222716
 22
42.5
 32
0
 13
-19.58371534222716
 23
42.5
 33
0
  0
SOLID
  5
149
100
AcDbEntity
  8
dimensions
  6
ByBlock
 62
    0
370
   -2
100
AcDbTrace
 10
-20
 20
48.3154382482188
 30
0
 11
-19.58371534222716
 21
45.8154382482188
 31
0
 12
-20.41628465777284
 22
45.8154382482188
 32
0
 13
-20.41628465777284
 23
45.8154382482188
 33
0
  0
MTEXT
  5
14A
100
AcDbEntity
  8
dimensions
  6
CONTINUOUS
 62
    0
370
   -2
100
AcDbMText
 10
-22.25
 20
44.15771912410941
 30
0
 40
2.5
 41
4.027777777777933
 71
    5
 72
    1
  1
8,3
  7
standard
210
0
220
0
230
1
 50
90
 73
    2
 44
1
  0
LINE
  5
14B
100
AcDbEntity
  8
dimensions
  6
ByBlock
 62
    0
370
   -2
100
AcDbLine
 10
-20.50000000000001
 20
40
 11
-21
 21
40
  0
LINE
  5
14C
100
AcDbEntity
  8
dimensions
  6
ByBlock
 62
    0
370
   -2
100
AcDbLine
 10
-20.5
 20
48.3154382482188
 11
-21
 21
48.3154382482188
  0
ENDBLK
  5
6E
330
6C
100
AcDbEntity
  8
0
100
AcDbBlockEnd
  0
BLOCK
  5
70
330
6F
100
AcDbEntity
  8
0
100
AcDbBlockBegin
  2
*D64
 70
    1
 10
0
 20
0
  3
*D64
  1

  0
LINE
  5
14D
100
AcDbEntity
  8
dimensions
  6
ByBlock
 62
    0
370
   -2
100
AcDbLine
 10
71.5
 20
-30
 11
228.5
 21
-30
  0
SOLID
  5
14E
100
AcDbEntity
  8
dimensions
  6
ByBlock
 62
    0
370
   -2
100
AcDbTrace
 10
71.5
 20
-30
 30
0
 11
74
 21
-29.58371534222716
 31
0
 12
74
 22
-30.41628465777284
 32
0
 13
74
 23
-30.41628465777284
 33
0
  0
SOLID
  5
14F
100
AcDbEntity
  8
dimensions
  6
ByBlock
 62
    0
370
   -2
100
AcDbTrace
 10
228.5
 20
-30
 30
0
 11
226
 21
-30.41628465777284
 31
0
 12
226
 22
-29.58371534222716
 32
0
 13
226
 23
-29.58371534222716
 33
0
  0
MTEXT
  5
150
100
AcDbEntity
  8
dimensions
  6
CONTINUOUS
 62
    0
370
   -2
100
AcDbMText
 10
150
 20
-27.75
 30
0
 40
2.5
 41
4.444444444444599
 71
    5
 72
    1
  1
157
  7
standard
210
0
220
0
230
1
 50
0
 73
    2
 44
1
  0
LINE
  5
151
100
AcDbEntity
  8
dimensions
  6
ByBlock
 62
    0
370
   -2
100
AcDbLine
 10
71.50000000000001
 20
-59.50000000000001
 11
71.5
 21
-29
  0
LINE
  5
152
100
AcDbEntity
  8
dimensions
  6
ByBlock
 62
    0
370
   -2
100
AcDbLine
 10
228.5
 20
-59.49999999999999
 11
228.5
 21
-29
  0
ENDBLK
  5
71
330
6F
100
AcDbEntity
  8
0
100
AcDbBlockEnd
  0
BLOCK
  5
73
330
72
100
AcDbEntity
  8
0
100
AcDbBlockBegin
  2
*D14
 70
    1
 10
0
 20
0
  3
*D14
  1

  0
LINE
  5
153
100
AcDbEntity
  8
dimensions
  6
ByBlock
 62
    0
370
   -2
100
AcDbLine
 10
20
 20
-45
 11
20
 21
-33.56157681348194
  0
SOLID
  5
154
100
AcDbEntity
  8
dimensions
  6
ByBlock
 62
    0
370
   -2
100
AcDbTrace
 10
20
 20
-40
 30
0
 11
20.41628465777284
 21
-42.5
 31
0
 12
19.58371534222716
 22
-42.5
 32
0
 13
19.58371534222716
 23
-42.5
 33
0
  0
SOLID
  5
155
100
AcDbEntity
  8
dimensions
  6
ByBlock
 62
    0
370
   -2
100
AcDbTrace
 10
20
 20
-38.56157681348194
 30
0
 11
19.58371534222716
 21
-36.06157681348194
 31
0
 12
20.41628465777284
 22
-36.06157681348194
 32
0
 13
20.41628465777284
 23
-36.06157681348194
 33
0
  0
MTEXT
  5
156
100
AcDbEntity
  8
dimensions
  6
CONTINUOUS
 62
    0
370
   -2
100
AcDbMText
 10
17.75
 20
-35.68657681348193
 30
0
 40
2.5
 41
3.75
 71
    5
 72
    1
  1
1,4
  7
standard
210
0
220
0
230
1
 50
90
 73
    2
 44
1
  0
LINE
  5
157
100
AcDbEntity
  8
dimensions
  6
ByBlock
 62
    0
370
   -2
100
AcDbLine
 10
19.5
 20
-40
 11
19
 21
-40
  0
LINE
  5
158
100
AcDbEntity
  8
dimensions
  6
ByBlock
 62
    0
370
   -2
100
AcDbLine
 10
19.5
 20
-38.56157681348194
 11
19
 21
-38.56157681348194
  0
ENDBLK
  5
74
330
72
100
AcDbEntity
  8
0
100
AcDbBlockEnd
  0
BLOCK
  5
76
330
75
100
AcDbEntity
  8
0
100
AcDbBlockBegin
  2
*D13
 70
    1
 10
0
 20
0
  3
*D13
  1

  0
LINE
  5
159
100
AcDbEntity
  8
dimensions
  6
ByBlock
 62
    0
370
   -2
100
AcDbLine
 10
9.999999999999998
 20
-45
 11
10
 21
-32.15294739052934
  0
SOLID
  5
15A
100
AcDbEntity
  8
dimensions
  6
ByBlock
 62
    0
370
   -2
100
AcDbTrace
 10
10
 20
-40
 30
0
 11
10.41628465777284
 21
-42.5
 31
0
 12
9.58371534222716
 22
-42.5
 32
0
 13
9.58371534222716
 23
-42.5
 33
0
  0
SOLID
  5
15B
100
AcDbEntity
  8
dimensions
  6
ByBlock
 62
    0
370
   -2
100
AcDbTrace
 10
10
 20
-37.15294739052934
 30
0
 11
9.58371534222716
 21
-34.65294739052934
 31
0
 12
10.41628465777284
 22
-34.65294739052934
 32
0
 13
10.41628465777284
 23
-34.65294739052934
 33
0
  0
MTEXT
  5
15C
100
AcDbEntity
  8
dimensions
  6
CONTINUOUS
 62
    0
370
   -2
100
AcDbMText
 10
7.750000000000005
 20
-34.13905850164045
 30
0
 40
2.5
 41
4.027777777777779
 71
    5
 72
    1
  1
2,8
  7
standard
210
0
220
0
230
1
 50
89.99999999999999
 73
    2
 44
1
  0
LINE
  5
15D
100
AcDbEntity
  8
dimensions
  6
ByBlock
 62
    0
370
   -2
100
AcDbLine
 10
9.5
 20
-40
 11
9
 21
-40
  0
LINE
  5
15E
100
AcDbEntity
  8
dimensions
  6
ByBlock
 62
    0
370
   -2
100
AcDbLine
 10
9.5
 20
-37.15294739052934
 11
9
 21
-37.15294739052934
  0
ENDBLK
  5
77
330
75
100
AcDbEntity
  8
0
100
AcDbBlockEnd
  0
BLOCK
  5
79
330
78
100
AcDbEntity
  8
0
100
AcDbBlockBegin
  2
*D3
 70
    1
 10
0
 20
0
  3
*D3
  1

  0
LINE
  5
15F
100
AcDbEntity
  8
dimensions
  6
ByBlock
 62
    0
370
   -2
100
AcDbLine
 10
-10
 20
-5
 11
-9.999999999999998
 21
9.625609754936805
  0
SOLID
  5
160
100
AcDbEntity
  8
dimensions
  6
ByBlock
 62
    0
370
   -2
100
AcDbTrace
 10
-10
 20
0
 30
0
 11
-9.58371534222716
 21
-2.5
 31
0
 12
-10.41628465777284
 22
-2.5
 32
0
 13
-10.41628465777284
 23
-2.5
 33
0
  0
SOLID
  5
161
100
AcDbEntity
  8
dimensions
  6
ByBlock
 62
    0
370
   -2
100
AcDbTrace
 10
-10
 20
4.625609754936805
 30
0
 11
-10.41628465777284
 21
7.125609754936805
 31
0
 12
-9.583715342227158
 22
7.125609754936805
 32
0
 13
-9.583715342227158
 23
7.125609754936805
 33
0
  0
MTEXT
  5
162
100
AcDbEntity
  8
dimensions
  6
CONTINUOUS
 62
    0
370
   -2
100
AcDbMText
 10
-12.25
 20
2.312804877468403
 30
0
 40
2.5
 41
4.30555555555571
 71
    5
 72
    1
  1
4,6
  7
standard
210
0
220
0
230
1
 50
89.99999999999999
 73
    2
 44
1
  0
LINE
  5
163
100
AcDbEntity
  8
dimensions
  6
ByBlock
 62
    0
370
   -2
100
AcDbLine
 10
-10.5
 20
6.123233995736766e-17
 11
-11
 21
1.224646799147353e-16
  0
LINE
  5
164
100
AcDbEntity
  8
dimensions
  6
ByBlock
 62
    0
370
   -2
100
AcDbLine
 10
-10.5
 20
4.625609754936805
 11
-11
 21
4.625609754936805
  0
ENDBLK
  5
7A
330
78
100
AcDbEntity
  8
0
100
AcDbBlockEnd
  0
BLOCK
  5
7C
330
7B
100
AcDbEntity
  8
0
100
AcDbBlockBegin
  2
*D58
 70
    1
 10
0
 20
0
  3
*D58
  1

  0
LINE
  5
165
100
AcDbEntity
  8
dimensions
  6
ByBlock
 62
    0
370
   -2
100
AcDbLine
 10
160
 20
-61.2
 11
160
 21
-36.56883878614373
  0
SOLID
  5
166
100
AcDbEntity
  8
dimensions
  6
ByBlock
 62
    0
370
   -2
100
AcDbTrace
 10
160
 20
-61.2
 30
0
 11
159.5837153422272
 21
-58.7
 31
0
 12
160.4162846577728
 22
-58.7
 32
0
 13
160.4162846577728
 23
-58.7
 33
0
  0
SOLID
  5
167
100
AcDbEntity
  8
dimensions
  6
ByBlock
 62
    0
370
   -2
100
AcDbTrace
 10
160
 20
-36.56883878614373
 30
0
 11
160.4162846577728
 21
-39.06883878614373
 31
0
 12
159.5837153422272
 22
-39.06883878614373
 32
0
 13
159.5837153422272
 23
-39.06883878614373
 33
0
  0
MTEXT
  5
168
100
AcDbEntity
  8
dimensions
  6
CONTINUOUS
 62
    0
370
   -2
100
AcDbMText
 10
157.75
 20
-48.88441939307186
 30
0
 40
2.5
 41
6.250000000000156
 71
    5
 72
    1
  1
24,6
  7
standard
210
0
220
0
230
1
 50
90
 73
    2
 44
1
  0
LINE
  5
169
100
AcDbEntity
  8
dimensions
  6
ByBlock
 62
    0
370
   -2
100
AcDbLine
 10
159.5
 20
-61.2
 11
159
 21
-61.2
  0
LINE
  5
16A
100
AcDbEntity
  8
dimensions
  6
ByBlock
 62
    0
370
   -2
100
AcDbLine
 10
159.5
 20
-36.56883878614373
 11
159
 21
-36.56883878614373
  0
ENDBLK
  5
7D
330
7B
100
AcDbEntity
  8
0
100
AcDbBlockEnd
  0
BLOCK
  5
7F
330
7E
100
AcDbEntity
  8
0
100
AcDbBlockBegin
  2
*D4
 70
    1
 10
0
 20
0
  3
*D4
  1

  0
LINE
  5
16B
100
AcDbEntity
  8
dimensions
  6
ByBlock
 62
    0
370
   -2
100
AcDbLine
 10
-1.722026714179423e-15
 20
-5
 11
4.211051843284446e-16
 21
10
  0
SOLID
  5
16C
100
AcDbEntity
  8
dimensions
  6
ByBlock
 62
    0
370
   -2
100
AcDbTrace
 10
-8.035416148189084e-16
 20
0
 30
0
 11
0.4162846577728396
 21
-2.5
 31
0
 12
-0.4162846577728414
 22
-2.5
 32
0
 13
-0.4162846577728414
 23
-2.5
 33
0
  0
SOLID
  5
16D
100
AcDbEntity
  8
dimensions
  6
ByBlock
 62
    0
370
   -2
100
AcDbTrace
 10
-4.973799150320702e-16
 20
5
 30
0
 11
-0.4162846577728405
 21
7.5
 31
0
 12
0.4162846577728404
 22
7.5
 32
0
 13
0.4162846577728404
 23
7.5
 33
0
  0
MTEXT
  5
16E
100
AcDbEntity
  8
dimensions
  6
CONTINUOUS
 62
    0
370
   -2
100
AcDbMText
 10
-2.25
 20
2.5
 30
0
 40
2.5
 41
1.111111111111266
 71
    5
 72
    1
  1
5
  7
standard
210
0
220
0
230
1
 50
90
 73
    2
 44
1
  0
LINE
  5
16F
100
AcDbEntity
  8
dimensions
  6
ByBlock
 62
    0
370
   -2
100
AcDbLine
 10
-0.5
 20
6.123233995736766e-17
 11
-1.000000000000001
 21
1.224646799147353e-16
  0
LINE
  5
170
100
AcDbEntity
  8
dimensions
  6
ByBlock
 62
    0
370
   -2
100
AcDbLine
 10
-0.5
 20
5
 11
-1
 21
5
  0
ENDBLK
  5
80
330
7E
100
AcDbEntity
  8
0
100
AcDbBlockEnd
  0
BLOCK
  5
82
330
81
100
AcDbEntity
  8
0
100
AcDbBlockBegin
  2
*D41
 70
    1
 10
0
 20
0
  3
*D41
  1

  0
LINE
  5
171
100
AcDbEntity
  8
dimensions
  6
ByBlock
 62
    0
370
   -2
100
AcDbLine
 10
120
 20
-5
 11
120
 21
9.442069286065689
  0
SOLID
  5
172
100
AcDbEntity
  8
dimensions
  6
ByBlock
 62
    0
370
   -2
100
AcDbTrace
 10
120
 20
0
 30
0
 11
120.4162846577728
 21
-2.5
 31
0
 12
119.5837153422272
 22
-2.5
 32
0
 13
119.5837153422272
 23
-2.5
 33
0
  0
SOLID
  5
173
100
AcDbEntity
  8
dimensions
  6
ByBlock
 62
    0
370
   -2
100
AcDbTrace
 10
120
 20
4.442069286065689
 30
0
 11
119.5837153422272
 21
6.942069286065689
 31
0
 12
120.4162846577728
 22
6.942069286065689
 32
0
 13
120.4162846577728
 23
6.942069286065689
 33
0
  0
MTEXT
  5
174
100
AcDbEntity
  8
dimensions
  6
CONTINUOUS
 62
    0
370
   -2
100
AcDbMText
 10
117.75
 20
7.733735952732357
 30
0
 40
2.5
 41
4.583333333333334
 71
    5
 72
    1
  1
4,4
  7
standard
210
0
220
0
230
1
 50
90
 73
    2
 44
1
  0
LINE
  5
175
100
AcDbEntity
  8
dimensions
  6
ByBlock
 62
    0
370
   -2
100
AcDbLine
 10
119.5
 20
6.123233995736766e-17
 11
119
 21
1.224646799147353e-16
  0
LINE
  5
176
100
AcDbEntity
  8
dimensions
  6
ByBlock
 62
    0
370
   -2
100
AcDbLine
 10
119.5
 20
4.442069286065689
 11
119
 21
4.442069286065689
  0
ENDBLK
  5
83
330
81
100
AcDbEntity
  8
0
100
AcDbBlockEnd
  0
BLOCK
  5
85
330
84
100
AcDbEntity
  8
0
100
AcDbBlockBegin
  2
*D60
 70
    1
 10
0
 20
0
  3
*D60
  1

  0
LINE
  5
177
100
AcDbEntity
  8
dimensions
  6
ByBlock
 62
    0
370
   -2
100
AcDbLine
 10
180
 20
-61.2
 11
180
 21
-39.55653741734135
  0
SOLID
  5
178
100
AcDbEntity
  8
dimensions
  6
ByBlock
 62
    0
370
   -2
100
AcDbTrace
 10
180
 20
-61.2
 30
0
 11
179.5837153422272
 21
-58.7
 31
0
 12
180.4162846577728
 22
-58.7
 32
0
 13
180.4162846577728
 23
-58.7
 33
0
  0
SOLID
  5
179
100
AcDbEntity
  8
dimensions
  6
ByBlock
 62
    0
370
   -2
100
AcDbTrace
 10
180
 20
-39.55653741734135
 30
0
 11
180.4162846577728
 21
-42.05653741734135
 31
0
 12
179.5837153422272
 22
-42.05653741734135
 32
0
 13
179.5837153422272
 23
-42.05653741734135
 33
0
  0
MTEXT
  5
17A
100
AcDbEntity
  8
dimensions
  6
CONTINUOUS
 62
    0
370
   -2
100
AcDbMText
 10
177.75
 20
-50.37826870867067
 30
0
 40
2.5
 41
5.416666666666822
 71
    5
 72
    1
  1
21,6
  7
standard
210
0
220
0
230
1
 50
90
 73
    2
 44
1
  0
LINE
  5
17B
100
AcDbEntity
  8
dimensions
  6
ByBlock
 62
    0
370
   -2
100
AcDbLine
 10
179.5
 20
-61.2
 11
179
 21
-61.2
  0
LINE
  5
17C
100
AcDbEntity
  8
dimensions
  6
ByBlock
 62
    0
370
   -2
100
AcDbLine
 10
179.5
 20
-39.55653741734135
 11
179
 21
-39.55653741734135
  0
ENDBLK
  5
86
330
84
100
AcDbEntity
  8
0
100
AcDbBlockEnd
  0
BLOCK
  5
88
330
87
100
AcDbEntity
  8
0
100
AcDbBlockBegin
  2
*D5
 70
    1
 10
0
 20
0
  3
*D5
  1

  0
LINE
  5
17D
100
AcDbEntity
  8
dimensions
  6
ByBlock
 62
    0
370
   -2
100
AcDbLine
 10
9.999999999999998
 20
-5
 11
10
 21
9.625609754936804
  0
SOLID
  5
17E
100
AcDbEntity
  8
dimensions
  6
ByBlock
 62
    0
370
   -2
100
AcDbTrace
 10
10
 20
0
 30
0
 11
10.41628465777284
 21
-2.5
 31
0
 12
9.58371534222716
 22
-2.5
 32
0
 13
9.58371534222716
 23
-2.5
 33
0
  0
SOLID
  5
17F
100
AcDbEntity
  8
dimensions
  6
ByBlock
 62
    0
370
   -2
100
AcDbTrace
 10
10
 20
4.625609754936804
 30
0
 11
9.58371534222716
 21
7.125609754936804
 31
0
 12
10.41628465777284
 22
7.125609754936804
 32
0
 13
10.41628465777284
 23
7.125609754936804
 33
0
  0
MTEXT
  5
180
100
AcDbEntity
  8
dimensions
  6
CONTINUOUS
 62
    0
370
   -2
100
AcDbMText
 10
7.75
 20
2.312804877468402
 30
0
 40
2.5
 41
4.30555555555571
 71
    5
 72
    1
  1
4,6
  7
standard
210
0
220
0
230
1
 50
89.99999999999999
 73
    2
 44
1
  0
LINE
  5
181
100
AcDbEntity
  8
dimensions
  6
ByBlock
 62
    0
370
   -2
100
AcDbLine
 10
9.5
 20
6.123233995736766e-17
 11
9
 21
1.224646799147353e-16
  0
LINE
  5
182
100
AcDbEntity
  8
dimensions
  6
ByBlock
 62
    0
370
   -2
100
AcDbLine
 10
9.5
 20
4.625609754936804
 11
9
 21
4.625609754936804
  0
ENDBLK
  5
89
330
87
100
AcDbEntity
  8
0
100
AcDbBlockEnd
  0
BLOCK
  5
8B
330
8A
100
AcDbEntity
  8
0
100
AcDbBlockBegin
  2
*D44
 70
    1
 10
0
 20
0
  3
*D44
  1

  0
LINE
  5
183
100
AcDbEntity
  8
dimensions
  6
ByBlock
 62
    0
370
   -2
100
AcDbLine
 10
150
 20
8.881784197001252e-16
 11
150
 21
6.500829250002997
  0
SOLID
  5
184
100
AcDbEntity
  8
dimensions
  6
ByBlock
 62
    0
370
   -2
100
AcDbTrace
 10
150
 20
8.881784197001252e-16
 30
0
 11
149.5837153422272
 21
2.500000000000001
 31
0
 12
150.4162846577728
 22
2.500000000000001
 32
0
 13
150.4162846577728
 23
2.500000000000001
 33
0
  0
SOLID
  5
185
100
AcDbEntity
  8
dimensions
  6
ByBlock
 62
    0
370
   -2
100
AcDbTrace
 10
150
 20
6.500829250002997
 30
0
 11
150.4162846577728
 21
4.000829250002997
 31
0
 12
149.5837153422272
 22
4.000829250002997
 32
0
 13
149.5837153422272
 23
4.000829250002997
 33
0
  0
MTEXT
  5
186
100
AcDbEntity
  8
dimensions
  6
CONTINUOUS
 62
    0
370
   -2
100
AcDbMText
 10
147.75
 20
3.2504146250015
 30
0
 40
2.5
 41
4.027777777778088
 71
    5
 72
    1
  1
6,5
  7
standard
210
0
220
0
230
1
 50
90
 73
    2
 44
1
  0
LINE
  5
187
100
AcDbEntity
  8
dimensions
  6
ByBlock
 62
    0
370
   -2
100
AcDbLine
 10
149.5
 20
6.123233995736766e-17
 11
149
 21
1.010643099614861e-15
  0
LINE
  5
188
100
AcDbEntity
  8
dimensions
  6
ByBlock
 62
    0
370
   -2
100
AcDbLine
 10
149.5421279770807
 20
6.500829250002997
 11
149
 21
6.500829250002997
  0
ENDBLK
  5
8C
330
8A
100
AcDbEntity
  8
0
100
AcDbBlockEnd
  0
BLOCK
  5
8E
330
8D
100
AcDbEntity
  8
0
100
AcDbBlockBegin
  2
*D16
 70
    1
 10
0
 20
0
  3
*D16
  1

  0
LINE
  5
189
100
AcDbEntity
  8
dimensions
  6
ByBlock
 62
    0
370
   -2
100
AcDbLine
 10
-60
 20
35
 11
-60
 21
47.7800202598847
  0
SOLID
  5
18A
100
AcDbEntity
  8
dimensions
  6
ByBlock
 62
    0
370
   -2
100
AcDbTrace
 10
-60
 20
40
 30
0
 11
-59.58371534222716
 21
37.5
 31
0
 12
-60.41628465777284
 22
37.5
 32
0
 13
-60.41628465777284
 23
37.5
 33
0
  0
SOLID
  5
18B
100
AcDbEntity
  8
dimensions
  6
ByBlock
 62
    0
370
   -2
100
AcDbTrace
 10
-60
 20
42.7800202598847
 30
0
 11
-60.41628465777284
 21
45.2800202598847
 31
0
 12
-59.58371534222716
 22
45.2800202598847
 32
0
 13
-59.58371534222716
 23
45.2800202598847
 33
0
  0
MTEXT
  5
18C
100
AcDbEntity
  8
dimensions
  6
CONTINUOUS
 62
    0
370
   -2
100
AcDbMText
 10
-62.25
 20
45.79390914877359
 30
0
 40
2.5
 41
4.027777777777779
 71
    5
 72
    1
  1
2,8
  7
standard
210
0
220
0
230
1
 50
90
 73
    2
 44
1
  0
LINE
  5
18D
100
AcDbEntity
  8
dimensions
  6
ByBlock
 62
    0
370
   -2
100
AcDbLine
 10
-60.5
 20
40
 11
-61
 21
40
  0
LINE
  5
18E
100
AcDbEntity
  8
dimensions
  6
ByBlock
 62
    0
370
   -2
100
AcDbLine
 10
-60.5
 20
42.7800202598847
 11
-61
 21
42.7800202598847
  0
ENDBLK
  5
8F
330
8D
100
AcDbEntity
  8
0
100
AcDbBlockEnd
  0
BLOCK
  5
91
330
90
100
AcDbEntity
  8
0
100
AcDbBlockBegin
  2
*D50
 70
    1
 10
0
 20
0
  3
*D50
  1

  0
LINE
  5
18F
100
AcDbEntity
  8
dimensions
  6
ByBlock
 62
    0
370
   -2
100
AcDbLine
 10
210
 20
-61.22803772930865
 11
210
 21
-50.20807961327264
  0
SOLID
  5
190
100
AcDbEntity
  8
dimensions
  6
ByBlock
 62
    0
370
   -2
100
AcDbTrace
 10
210
 20
-61.22803772930865
 30
0
 11
209.5837153422272
 21
-58.72803772930865
 31
0
 12
210.4162846577728
 22
-58.72803772930865
 32
0
 13
210.4162846577728
 23
-58.72803772930865
 33
0
  0
SOLID
  5
191
100
AcDbEntity
  8
dimensions
  6
ByBlock
 62
    0
370
   -2
100
AcDbTrace
 10
210
 20
-50.20807961327264
 30
0
 11
210.4162846577728
 21
-52.70807961327264
 31
0
 12
209.5837153422272
 22
-52.70807961327264
 32
0
 13
209.5837153422272
 23
-52.70807961327264
 33
0
  0
MTEXT
  5
192
100
AcDbEntity
  8
dimensions
  6
CONTINUOUS
 62
    0
370
   -2
100
AcDbMText
 10
207.75
 20
-55.71805867129066
 30
0
 40
2.5
 41
1.944444444444444
 71
    5
 72
    1
  1
11
  7
standard
210
0
220
0
230
1
 50
90
 73
    2
 44
1
  0
LINE
  5
193
100
AcDbEntity
  8
dimensions
  6
ByBlock
 62
    0
370
   -2
100
AcDbLine
 10
209.5
 20
-61.22803772930865
 11
209
 21
-61.22803772930865
  0
LINE
  5
194
100
AcDbEntity
  8
dimensions
  6
ByBlock
 62
    0
370
   -2
100
AcDbLine
 10
209.5
 20
-50.20807961327264
 11
209
 21
-50.20807961327264
  0
ENDBLK
  5
92
330
90
100
AcDbEntity
  8
0
100
AcDbBlockEnd
  0
BLOCK
  5
94
330
93
100
AcDbEntity
  8
0
100
AcDbBlockBegin
  2
*D51
 70
    1
 10
0
 20
0
  3
*D51
  1

  0
LINE
  5
195
100
AcDbEntity
  8
dimensions
  6
ByBlock
 62
    0
370
   -2
100
AcDbLine
 10
80
 20
-66.2
 11
80
 21
-50.64063625985479
  0
SOLID
  5
196
100
AcDbEntity
  8
dimensions
  6
ByBlock
 62
    0
370
   -2
100
AcDbTrace
 10
80
 20
-61.2
 30
0
 11
80.41628465777283
 21
-63.7
 31
0
 12
79.58371534222717
 22
-63.7
 32
0
 13
79.58371534222717
 23
-63.7
 33
0
  0
SOLID
  5
197
100
AcDbEntity
  8
dimensions
  6
ByBlock
 62
    0
370
   -2
100
AcDbTrace
 10
80
 20
-55.64063625985479
 30
0
 11
79.58371534222717
 21
-53.14063625985479
 31
0
 12
80.41628465777283
 22
-53.14063625985479
 32
0
 13
80.41628465777283
 23
-53.14063625985479
 33
0
  0
MTEXT
  5
198
100
AcDbEntity
  8
dimensions
  6
CONTINUOUS
 62
    0
370
   -2
100
AcDbMText
 10
77.75
 20
-58.42031812992741
 30
0
 40
2.5
 41
4.027777777778088
 71
    5
 72
    1
  1
5,6
  7
standard
210
0
220
0
230
1
 50
90
 73
    2
 44
1
  0
LINE
  5
199
100
AcDbEntity
  8
dimensions
  6
ByBlock
 62
    0
370
   -2
100
AcDbLine
 10
79.5
 20
-61.2
 11
79
 21
-61.2
  0
LINE
  5
19A
100
AcDbEntity
  8
dimensions
  6
ByBlock
 62
    0
370
   -2
100
AcDbLine
 10
79.5
 20
-55.64063625985479
 11
79
 21
-55.64063625985479
  0
ENDBLK
  5
95
330
93
100
AcDbEntity
  8
0
100
AcDbBlockEnd
  0
BLOCK
  5
97
330
96
100
AcDbEntity
  8
0
100
AcDbBlockBegin
  2
*D62
 70
    1
 10
0
 20
0
  3
*D62
  1

  0
LINE
  5
19B
100
AcDbEntity
  8
dimensions
  6
ByBlock
 62
    0
370
   -2
100
AcDbLine
 10
200
 20
-61.2
 11
200
 21
-45.74394998455836
  0
SOLID
  5
19C
100
AcDbEntity
  8
dimensions
  6
ByBlock
 62
    0
370
   -2
100
AcDbTrace
 10
200
 20
-61.2
 30
0
 11
199.5837153422272
 21
-58.7
 31
0
 12
200.4162846577728
 22
-58.7
 32
0
 13
200.4162846577728
 23
-58.7
 33
0
  0
SOLID
  5
19D
100
AcDbEntity
  8
dimensions
  6
ByBlock
 62
    0
370
   -2
100
AcDbTrace
 10
200
 20
-45.74394998455836
 30
0
 11
200.4162846577728
 21
-48.24394998455836
 31
0
 12
199.5837153422272
 22
-48.24394998455836
 32
0
 13
199.5837153422272
 23
-48.24394998455836
 33
0
  0
MTEXT
  5
19E
100
AcDbEntity
  8
dimensions
  6
CONTINUOUS
 62
    0
370
   -2
100
AcDbMText
 10
197.75
 20
-53.47197499227918
 30
0
 40
2.5
 41
5.416666666666977
 71
    5
 72
    1
  1
15,5
  7
standard
210
0
220
0
230
1
 50
90
 73
    2
 44
1
  0
LINE
  5
19F
100
AcDbEntity
  8
dimensions
  6
ByBlock
 62
    0
370
   -2
100
AcDbLine
 10
199.5
 20
-61.2
 11
199
 21
-61.2
  0
LINE
  5
1A0
100
AcDbEntity
  8
dimensions
  6
ByBlock
 62
    0
370
   -2
100
AcDbLine
 10
199.5
 20
-45.74394998455836
 11
199
 21
-45.74394998455836
  0
ENDBLK
  5
98
330
96
100
AcDbEntity
  8
0
100
AcDbBlockEnd
  0
BLOCK
  5
9A
330
99
100
AcDbEntity
  8
0
100
AcDbBlockBegin
  2
*D43
 70
    1
 10
0
 20
0
  3
*D43
  1

  0
LINE
  5
1A1
100
AcDbEntity
  8
dimensions
  6
ByBlock
 62
    0
370
   -2
100
AcDbLine
 10
140
 20
8.881784197001252e-16
 11
140
 21
6.327938783380276
  0
SOLID
  5
1A2
100
AcDbEntity
  8
dimensions
  6
ByBlock
 62
    0
370
   -2
100
AcDbTrace
 10
140
 20
8.881784197001252e-16
 30
0
 11
139.5837153422272
 21
2.500000000000001
 31
0
 12
140.4162846577728
 22
2.500000000000001
 32
0
 13
140.4162846577728
 23
2.500000000000001
 33
0
  0
SOLID
  5
1A3
100
AcDbEntity
  8
dimensions
  6
ByBlock
 62
    0
370
   -2
100
AcDbTrace
 10
140
 20
6.327938783380276
 30
0
 11
140.4162846577728
 21
3.827938783380276
 31
0
 12
139.5837153422272
 22
3.827938783380276
 32
0
 13
139.5837153422272
 23
3.827938783380276
 33
0
  0
MTEXT
  5
1A4
100
AcDbEntity
  8
dimensions
  6
CONTINUOUS
 62
    0
370
   -2
100
AcDbMText
 10
137.75
 20
3.163969391690139
 30
0
 40
2.5
 41
4.027777777778088
 71
    5
 72
    1
  1
6,3
  7
standard
210
0
220
0
230
1
 50
90
 73
    2
 44
1
  0
LINE
  5
1A5
100
AcDbEntity
  8
dimensions
  6
ByBlock
 62
    0
370
   -2
100
AcDbLine
 10
139.5
 20
6.123233995736766e-17
 11
139
 21
1.010643099614861e-15
  0
LINE
  5
1A6
100
AcDbEntity
  8
dimensions
  6
ByBlock
 62
    0
370
   -2
100
AcDbLine
 10
139.5
 20
6.327938783380276
 11
139
 21
6.327938783380276
  0
ENDBLK
  5
9B
330
99
100
AcDbEntity
  8
0
100
AcDbBlockEnd
  0
BLOCK
  5
9D
330
9C
100
AcDbEntity
  8
0
100
AcDbBlockBegin
  2
*D28
 70
    1
 10
0
 20
0
  3
*D28
  1

  0
LINE
  5
1A7
100
AcDbEntity
  8
dimensions
  6
ByBlock
 62
    0
370
   -2
100
AcDbLine
 10
60.00000000000001
 20
35
 11
60.00000000000001
 21
47.78002025988474
  0
SOLID
  5
1A8
100
AcDbEntity
  8
dimensions
  6
ByBlock
 62
    0
370
   -2
100
AcDbTrace
 10
60.00000000000001
 20
40
 30
0
 11
60.41628465777285
 21
37.5
 31
0
 12
59.58371534222717
 22
37.5
 32
0
 13
59.58371534222717
 23
37.5
 33
0
  0
SOLID
  5
1A9
100
AcDbEntity
  8
dimensions
  6
ByBlock
 62
    0
370
   -2
100
AcDbTrace
 10
60.00000000000001
 20
42.78002025988474
 30
0
 11
59.58371534222717
 21
45.28002025988474
 31
0
 12
60.41628465777285
 22
45.28002025988474
 32
0
 13
60.41628465777285
 23
45.28002025988474
 33
0
  0
MTEXT
  5
1AA
100
AcDbEntity
  8
dimensions
  6
CONTINUOUS
 62
    0
370
   -2
100
AcDbMText
 10
57.75000000000001
 20
45.79390914877363
 30
0
 40
2.5
 41
4.027777777777779
 71
    5
 72
    1
  1
2,8
  7
standard
210
0
220
0
230
1
 50
90
 73
    2
 44
1
  0
LINE
  5
1AB
100
AcDbEntity
  8
dimensions
  6
ByBlock
 62
    0
370
   -2
100
AcDbLine
 10
59.5
 20
40
 11
59.00000000000001
 21
40
  0
LINE
  5
1AC
100
AcDbEntity
  8
dimensions
  6
ByBlock
 62
    0
370
   -2
100
AcDbLine
 10
59.50000000000001
 20
42.78002025988474
 11
59.00000000000001
 21
42.78002025988474
  0
ENDBLK
  5
9E
330
9C
100
AcDbEntity
  8
0
100
AcDbBlockEnd
  0
BLOCK
  5
A0
330
9F
100
AcDbEntity
  8
0
100
AcDbBlockBegin
  2
*D55
 70
    1
 10
0
 20
0
  3
*D55
  1

  0
LINE
  5
1AD
100
AcDbEntity
  8
dimensions
  6
ByBlock
 62
    0
370
   -2
100
AcDbLine
 10
120
 20
-39.55653741734142
 11
120
 21
-61.2
  0
SOLID
  5
1AE
100
AcDbEntity
  8
dimensions
  6
ByBlock
 62
    0
370
   -2
100
AcDbTrace
 10
120
 20
-39.55653741734142
 30
0
 11
120.4162846577728
 21
-42.05653741734142
 31
0
 12
119.5837153422272
 22
-42.05653741734142
 32
0
 13
119.5837153422272
 23
-42.05653741734142
 33
0
  0
SOLID
  5
1AF
100
AcDbEntity
  8
dimensions
  6
ByBlock
 62
    0
370
   -2
100
AcDbTrace
 10
120
 20
-61.2
 30
0
 11
119.5837153422272
 21
-58.7
 31
0
 12
120.4162846577728
 22
-58.7
 32
0
 13
120.4162846577728
 23
-58.7
 33
0
  0
MTEXT
  5
1B0
100
AcDbEntity
  8
dimensions
  6
CONTINUOUS
 62
    0
370
   -2
100
AcDbMText
 10
117.75
 20
-50.3782687086707
 30
0
 40
2.5
 41
5.416666666666822
 71
    5
 72
    1
  1
21,6
  7
standard
210
0
220
0
230
1
 50
90
 73
    2
 44
1
  0
LINE
  5
1B1
100
AcDbEntity
  8
dimensions
  6
ByBlock
 62
    0
370
   -2
100
AcDbLine
 10
119.5
 20
-39.55653741734142
 11
119
 21
-39.55653741734142
  0
LINE
  5
1B2
100
AcDbEntity
  8
dimensions
  6
ByBlock
 62
    0
370
   -2
100
AcDbLine
 10
119.5
 20
-61.2
 11
119
 21
-61.2
  0
ENDBLK
  5
A1
330
9F
100
AcDbEntity
  8
0
100
AcDbBlockEnd
  0
BLOCK
  5
A3
330
A2
100
AcDbEntity
  8
0
100
AcDbBlockBegin
  2
*D38
 70
    1
 10
0
 20
0
  3
*D38
  1

  0
LINE
  5
1B3
100
AcDbEntity
  8
dimensions
  6
ByBlock
 62
    0
370
   -2
100
AcDbLine
 10
190
 20
35
 11
190
 21
46.4188731510866
  0
SOLID
  5
1B4
100
AcDbEntity
  8
dimensions
  6
ByBlock
 62
    0
370
   -2
100
AcDbTrace
 10
190
 20
40
 30
0
 11
190.4162846577728
 21
37.5
 31
0
 12
189.5837153422272
 22
37.5
 32
0
 13
189.5837153422272
 23
37.5
 33
0
  0
SOLID
  5
1B5
100
AcDbEntity
  8
dimensions
  6
ByBlock
 62
    0
370
   -2
100
AcDbTrace
 10
190
 20
41.4188731510866
 30
0
 11
189.5837153422272
 21
43.9188731510866
 31
0
 12
190.4162846577728
 22
43.9188731510866
 32
0
 13
190.4162846577728
 23
43.9188731510866
 33
0
  0
MTEXT
  5
1B6
100
AcDbEntity
  8
dimensions
  6
CONTINUOUS
 62
    0
370
   -2
100
AcDbMText
 10
187.75
 20
44.2938731510866
 30
0
 40
2.5
 41
3.75
 71
    5
 72
    1
  1
1,4
  7
standard
210
0
220
0
230
1
 50
90
 73
    2
 44
1
  0
LINE
  5
1B7
100
AcDbEntity
  8
dimensions
  6
ByBlock
 62
    0
370
   -2
100
AcDbLine
 10
189.5
 20
40
 11
189
 21
40
  0
LINE
  5
1B8
100
AcDbEntity
  8
dimensions
  6
ByBlock
 62
    0
370
   -2
100
AcDbLine
 10
189.5
 20
41.4188731510866
 11
189
 21
41.4188731510866
  0
ENDBLK
  5
A4
330
A2
100
AcDbEntity
  8
0
100
AcDbBlockEnd
  0
BLOCK
  5
A6
330
A5
100
AcDbEntity
  8
0
100
AcDbBlockBegin
  2
*D48
 70
    1
 10
0
 20
0
  3
*D48
  1

  0
LINE
  5
1B9
100
AcDbEntity
  8
dimensions
  6
ByBlock
 62
    0
370
   -2
100
AcDbLine
 10
190
 20
-5
 11
190
 21
7.778007973870558
  0
SOLID
  5
1BA
100
AcDbEntity
  8
dimensions
  6
ByBlock
 62
    0
370
   -2
100
AcDbTrace
 10
190
 20
0
 30
0
 11
190.4162846577728
 21
-2.5
 31
0
 12
189.5837153422272
 22
-2.5
 32
0
 13
189.5837153422272
 23
-2.5
 33
0
  0
SOLID
  5
1BB
100
AcDbEntity
  8
dimensions
  6
ByBlock
 62
    0
370
   -2
100
AcDbTrace
 10
190
 20
2.778007973870558
 30
0
 11
189.5837153422272
 21
5.278007973870558
 31
0
 12
190.4162846577728
 22
5.278007973870558
 32
0
 13
190.4162846577728
 23
5.278007973870558
 33
0
  0
MTEXT
  5
1BC
100
AcDbEntity
  8
dimensions
  6
CONTINUOUS
 62
    0
370
   -2
100
AcDbMText
 10
187.75
 20
5.791896862759447
 30
0
 40
2.5
 41
4.027777777777779
 71
    5
 72
    1
  1
2,8
  7
standard
210
0
220
0
230
1
 50
90
 73
    2
 44
1
  0
LINE
  5
1BD
100
AcDbEntity
  8
dimensions
  6
ByBlock
 62
    0
370
   -2
100
AcDbLine
 10
189.5
 20
6.123233995736766e-17
 11
189
 21
1.224646799147353e-16
  0
LINE
  5
1BE
100
AcDbEntity
  8
dimensions
  6
ByBlock
 62
    0
370
   -2
100
AcDbLine
 10
189.5
 20
2.778007973870558
 11
189
 21
2.778007973870558
  0
ENDBLK
  5
A7
330
A5
100
AcDbEntity
  8
0
100
AcDbBlockEnd
  0
BLOCK
  5
A9
330
A8
100
AcDbEntity
  8
0
100
AcDbBlockBegin
  2
*D17
 70
    1
 10
0
 20
0
  3
*D17
  1

  0
LINE
  5
1BF
100
AcDbEntity
  8
dimensions
  6
ByBlock
 62
    0
370
   -2
100
AcDbLine
 10
-50.00000000000001
 20
34.99999999999997
 11
-50.00000000000001
 21
49.69481258343288
  0
SOLID
  5
1C0
100
AcDbEntity
  8
dimensions
  6
ByBlock
 62
    0
370
   -2
100
AcDbTrace
 10
-50.00000000000001
 20
39.99999999999997
 30
0
 11
-49.58371534222717
 21
37.49999999999997
 31
0
 12
-50.41628465777285
 22
37.49999999999997
 32
0
 13
-50.41628465777285
 23
37.49999999999997
 33
0
  0
SOLID
  5
1C1
100
AcDbEntity
  8
dimensions
  6
ByBlock
 62
    0
370
   -2
100
AcDbTrace
 10
-50.00000000000001
 20
44.69481258343288
 30
0
 11
-50.41628465777285
 21
47.19481258343288
 31
0
 12
-49.58371534222717
 22
47.19481258343288
 32
0
 13
-49.58371534222717
 23
47.19481258343288
 33
0
  0
MTEXT
  5
1C2
100
AcDbEntity
  8
dimensions
  6
CONTINUOUS
 62
    0
370
   -2
100
AcDbMText
 10
-52.25000000000001
 20
42.34740629171642
 30
0
 40
2.5
 41
4.305555555555555
 71
    5
 72
    1
  1
4,7
  7
standard
210
0
220
0
230
1
 50
90
 73
    2
 44
1
  0
LINE
  5
1C3
100
AcDbEntity
  8
dimensions
  6
ByBlock
 62
    0
370
   -2
100
AcDbLine
 10
-50.5
 20
39.99999999999997
 11
-51.00000000000001
 21
39.99999999999997
  0
LINE
  5
1C4
100
AcDbEntity
  8
dimensions
  6
ByBlock
 62
    0
370
   -2
100
AcDbLine
 10
-50.50000000000001
 20
44.69481258343288
 11
-51.00000000000001
 21
44.69481258343288
  0
ENDBLK
  5
AA
330
A8
100
AcDbEntity
  8
0
100
AcDbBlockEnd
  0
BLOCK
  5
AC
330
AB
100
AcDbEntity
  8
0
100
AcDbBlockBegin
  2
*D40
 70
    1
 10
0
 20
0
  3
*D40
  1

  0
LINE
  5
1C5
100
AcDbEntity
  8
dimensions
  6
ByBlock
 62
    0
370
   -2
100
AcDbLine
 10
110
 20
-5
 11
110
 21
7.778007973870565
  0
SOLID
  5
1C6
100
AcDbEntity
  8
dimensions
  6
ByBlock
 62
    0
370
   -2
100
AcDbTrace
 10
110
 20
4.440892098500626e-16
 30
0
 11
110.4162846577728
 21
-2.5
 31
0
 12
109.5837153422272
 22
-2.5
 32
0
 13
109.5837153422272
 23
-2.5
 33
0
  0
SOLID
  5
1C7
100
AcDbEntity
  8
dimensions
  6
ByBlock
 62
    0
370
   -2
100
AcDbTrace
 10
110
 20
2.778007973870565
 30
0
 11
109.5837153422272
 21
5.278007973870565
 31
0
 12
110.4162846577728
 22
5.278007973870565
 32
0
 13
110.4162846577728
 23
5.278007973870565
 33
0
  0
MTEXT
  5
1C8
100
AcDbEntity
  8
dimensions
  6
CONTINUOUS
 62
    0
370
   -2
100
AcDbMText
 10
107.75
 20
5.791896862759454
 30
0
 40
2.5
 41
4.027777777777779
 71
    5
 72
    1
  1
2,8
  7
standard
210
0
220
0
230
1
 50
90
 73
    2
 44
1
  0
LINE
  5
1C9
100
AcDbEntity
  8
dimensions
  6
ByBlock
 62
    0
370
   -2
100
AcDbLine
 10
109.5
 20
6.123233995736766e-17
 11
109
 21
5.66553889764798e-16
  0
LINE
  5
1CA
100
AcDbEntity
  8
dimensions
  6
ByBlock
 62
    0
370
   -2
100
AcDbLine
 10
109.5
 20
2.778007973870565
 11
109
 21
2.778007973870565
  0
ENDBLK
  5
AD
330
AB
100
AcDbEntity
  8
0
100
AcDbBlockEnd
  0
BLOCK
  5
AF
330
AE
100
AcDbEntity
  8
0
100
AcDbBlockBegin
  2
*D37
 70
    1
 10
0
 20
0
  3
*D37
  1

  0
LINE
  5
1CB
100
AcDbEntity
  8
dimensions
  6
ByBlock
 62
    0
370
   -2
100
AcDbLine
 10
170
 20
35
 11
170
 21
49.67668359032704
  0
SOLID
  5
1CC
100
AcDbEntity
  8
dimensions
  6
ByBlock
 62
    0
370
   -2
100
AcDbTrace
 10
170
 20
40
 30
0
 11
170.4162846577728
 21
37.5
 31
0
 12
169.5837153422272
 22
37.5
 32
0
 13
169.5837153422272
 23
37.5
 33
0
  0
SOLID
  5
1CD
100
AcDbEntity
  8
dimensions
  6
ByBlock
 62
    0
370
   -2
100
AcDbTrace
 10
170
 20
44.67668359032704
 30
0
 11
169.5837153422272
 21
47.17668359032704
 31
0
 12
170.4162846577728
 22
47.17668359032704
 32
0
 13
170.4162846577728
 23
47.17668359032704
 33
0
  0
MTEXT
  5
1CE
100
AcDbEntity
  8
dimensions
  6
CONTINUOUS
 62
    0
370
   -2
100
AcDbMText
 10
167.75
 20
42.33834179516352
 30
0
 40
2.5
 41
4.305555555555555
 71
    5
 72
    1
  1
4,7
  7
standard
210
0
220
0
230
1
 50
90
 73
    2
 44
1
  0
LINE
  5
1CF
100
AcDbEntity
  8
dimensions
  6
ByBlock
 62
    0
370
   -2
100
AcDbLine
 10
169.5
 20
40
 11
169
 21
40
  0
LINE
  5
1D0
100
AcDbEntity
  8
dimensions
  6
ByBlock
 62
    0
370
   -2
100
AcDbLine
 10
169.5
 20
44.67668359032704
 11
169
 21
44.67668359032704
  0
ENDBLK
  5
B0
330
AE
100
AcDbEntity
  8
0
100
AcDbBlockEnd
  0
BLOCK
  5
B2
330
B1
100
AcDbEntity
  8
0
100
AcDbBlockBegin
  2
*D24
 70
    1
 10
0
 20
0
  3
*D24
  1

  0
LINE
  5
1D1
100
AcDbEntity
  8
dimensions
  6
ByBlock
 62
    0
370
   -2
100
AcDbLine
 10
19.99999999999999
 20
40
 11
19.99999999999999
 21
48.31543824821881
  0
SOLID
  5
1D2
100
AcDbEntity
  8
dimensions
  6
ByBlock
 62
    0
370
   -2
100
AcDbTrace
 10
19.99999999999999
 20
40
 30
0
 11
19.58371534222715
 21
42.5
 31
0
 12
20.41628465777283
 22
42.5
 32
0
 13
20.41628465777283
 23
42.5
 33
0
  0
SOLID
  5
1D3
100
AcDbEntity
  8
dimensions
  6
ByBlock
 62
    0
370
   -2
100
AcDbTrace
 10
19.99999999999999
 20
48.31543824821881
 30
0
 11
20.41628465777283
 21
45.81543824821881
 31
0
 12
19.58371534222715
 22
45.81543824821881
 32
0
 13
19.58371534222715
 23
45.81543824821881
 33
0
  0
MTEXT
  5
1D4
100
AcDbEntity
  8
dimensions
  6
CONTINUOUS
 62
    0
370
   -2
100
AcDbMText
 10
17.74999999999999
 20
44.15771912410941
 30
0
 40
2.5
 41
4.027777777777933
 71
    5
 72
    1
  1
8,3
  7
standard
210
0
220
0
230
1
 50
90
 73
    2
 44
1
  0
LINE
  5
1D5
100
AcDbEntity
  8
dimensions
  6
ByBlock
 62
    0
370
   -2
100
AcDbLine
 10
19.49999999999999
 20
40
 11
18.99999999999999
 21
40
  0
LINE
  5
1D6
100
AcDbEntity
  8
dimensions
  6
ByBlock
 62
    0
370
   -2
100
AcDbLine
 10
19.5
 20
48.31543824821881
 11
18.99999999999999
 21
48.31543824821881
  0
ENDBLK
  5
B3
330
B1
100
AcDbEntity
  8
0
100
AcDbBlockEnd
  0
BLOCK
  5
B5
330
B4
100
AcDbEntity
  8
0
100
AcDbBlockBegin
  2
*D8
 70
    1
 10
0
 20
0
  3
*D8
  1

  0
LINE
  5
1D7
100
AcDbEntity
  8
dimensions
  6
ByBlock
 62
    0
370
   -2
100
AcDbLine
 10
-39.49999999999996
 20
11
 11
39.49999999999996
 21
11
  0
SOLID
  5
1D8
100
AcDbEntity
  8
dimensions
  6
ByBlock
 62
    0
370
   -2
100
AcDbTrace
 10
-39.49999999999996
 20
11
 30
0
 11
-36.99999999999996
 21
11.41628465777284
 31
0
 12
-36.99999999999996
 22
10.58371534222716
 32
0
 13
-36.99999999999996
 23
10.58371534222716
 33
0
  0
SOLID
  5
1D9
100
AcDbEntity
  8
dimensions
  6
ByBlock
 62
    0
370
   -2
100
AcDbTrace
 10
39.49999999999996
 20
11
 30
0
 11
36.99999999999996
 21
10.58371534222716
 31
0
 12
36.99999999999996
 22
11.41628465777284
 32
0
 13
36.99999999999996
 23
11.41628465777284
 33
0
  0
MTEXT
  5
1DA
100
AcDbEntity
  8
dimensions
  6
CONTINUOUS
 62
    0
370
   -2
100
AcDbMText
 10
1.434862748010608e-14
 20
13.25
 30
0
 40
2.5
 41
3.055555555555556
 71
    5
 72
    1
  1
79
  7
standard
210
0
220
0
230
1
 50
0
 73
    2
 44
1
  0
LINE
  5
1DB
100
AcDbEntity
  8
dimensions
  6
ByBlock
 62
    0
370
   -2
100
AcDbLine
 10
-39.49999999999994
 20
0.5
 11
-39.49999999999996
 21
12
  0
LINE
  5
1DC
100
AcDbEntity
  8
dimensions
  6
ByBlock
 62
    0
370
   -2
100
AcDbLine
 10
39.49999999999996
 20
0.5000000000000036
 11
39.49999999999996
 21
12
  0
ENDBLK
  5
B6
330
B4
100
AcDbEntity
  8
0
100
AcDbBlockEnd
  0
BLOCK
  5
B8
330
B7
100
AcDbEntity
  8
0
100
AcDbBlockBegin
  2
*D9
 70
    1
 10
0
 20
0
  3
*D9
  1

  0
LINE
  5
1DD
100
AcDbEntity
  8
dimensions
  6
ByBlock
 62
    0
370
   -2
100
AcDbLine
 10
-26.49999999999993
 20
-29
 11
26.49999999999993
 21
-29
  0
SOLID
  5
1DE
100
AcDbEntity
  8
dimensions
  6
ByBlock
 62
    0
370
   -2
100
AcDbTrace
 10
-26.49999999999993
 20
-29
 30
0
 11
-23.99999999999993
 21
-28.58371534222716
 31
0
 12
-23.99999999999993
 22
-29.41628465777284
 32
0
 13
-23.99999999999993
 23
-29.41628465777284
 33
0
  0
SOLID
  5
1DF
100
AcDbEntity
  8
dimensions
  6
ByBlock
 62
    0
370
   -2
100
AcDbTrace
 10
26.49999999999993
 20
-29
 30
0
 11
23.99999999999993
 21
-29.41628465777284
 31
0
 12
23.99999999999993
 22
-28.58371534222716
 32
0
 13
23.99999999999993
 23
-28.58371534222716
 33
0
  0
MTEXT
  5
1E0
100
AcDbEntity
  8
dimensions
  6
CONTINUOUS
 62
    0
370
   -2
100
AcDbMText
 10
-3.414940913896424e-15
 20
-26.75
 30
0
 40
2.5
 41
3.055555555555866
 71
    5
 72
    1
  1
53
  7
standard
210
0
220
0
230
1
 50
0
 73
    2
 44
1
  0
LINE
  5
1E1
100
AcDbEntity
  8
dimensions
  6
ByBlock
 62
    0
370
   -2
100
AcDbLine
 10
-26.49999999999993
 20
-39.50000000000001
 11
-26.49999999999993
 21
-28
  0
LINE
  5
1E2
100
AcDbEntity
  8
dimensions
  6
ByBlock
 62
    0
370
   -2
100
AcDbLine
 10
26.49999999999993
 20
-39.5
 11
26.49999999999993
 21
-28
  0
ENDBLK
  5
B9
330
B7
100
AcDbEntity
  8
0
100
AcDbBlockEnd
  0
BLOCK
  5
BB
330
BA
100
AcDbEntity
  8
0
100
AcDbBlockBegin
  2
*D21
 70
    1
 10
0
 20
0
  3
*D21
  1

  0
LINE
  5
1E3
100
AcDbEntity
  8
dimensions
  6
ByBlock
 62
    0
370
   -2
100
AcDbLine
 10
-9.999999999999996
 20
40
 11
-9.999999999999996
 21
48.82900985020287
  0
SOLID
  5
1E4
100
AcDbEntity
  8
dimensions
  6
ByBlock
 62
    0
370
   -2
100
AcDbTrace
 10
-9.999999999999996
 20
40
 30
0
 11
-10.41628465777284
 21
42.5
 31
0
 12
-9.583715342227155
 22
42.5
 32
0
 13
-9.583715342227155
 23
42.5
 33
0
  0
SOLID
  5
1E5
100
AcDbEntity
  8
dimensions
  6
ByBlock
 62
    0
370
   -2
100
AcDbTrace
 10
-9.999999999999996
 20
48.82900985020287
 30
0
 11
-9.583715342227157
 21
46.32900985020287
 31
0
 12
-10.41628465777284
 22
46.32900985020287
 32
0
 13
-10.41628465777284
 23
46.32900985020287
 33
0
  0
MTEXT
  5
1E6
100
AcDbEntity
  8
dimensions
  6
CONTINUOUS
 62
    0
370
   -2
100
AcDbMText
 10
-12.25
 20
44.41450492510143
 30
0
 40
2.5
 41
4.027777777777779
 71
    5
 72
    1
  1
8,8
  7
standard
210
0
220
0
230
1
 50
90
 73
    2
 44
1
  0
LINE
  5
1E7
100
AcDbEntity
  8
dimensions
  6
ByBlock
 62
    0
370
   -2
100
AcDbLine
 10
-10.50000000000001
 20
40
 11
-11
 21
40
  0
LINE
  5
1E8
100
AcDbEntity
  8
dimensions
  6
ByBlock
 62
    0
370
   -2
100
AcDbLine
 10
-10.5
 20
48.82900985020287
 11
-11
 21
48.82900985020287
  0
ENDBLK
  5
BC
330
BA
100
AcDbEntity
  8
0
100
AcDbBlockEnd
  0
BLOCK
  5
BE
330
BD
100
AcDbEntity
  8
0
100
AcDbBlockBegin
  2
*D12
 70
    1
 10
0
 20
0
  3
*D12
  1

  0
LINE
  5
1E9
100
AcDbEntity
  8
dimensions
  6
ByBlock
 62
    0
370
   -2
100
AcDbLine
 10
-5.171410819301868e-15
 20
-45
 11
-3.131608494472058e-15
 21
-31.6875
  0
SOLID
  5
1EA
100
AcDbEntity
  8
dimensions
  6
ByBlock
 62
    0
370
   -2
100
AcDbTrace
 10
-4.252925719941353e-15
 20
-40
 30
0
 11
0.4162846577728361
 21
-42.5
 31
0
 12
-0.4162846577728449
 22
-42.5
 32
0
 13
-0.4162846577728449
 23
-42.5
 33
0
  0
SOLID
  5
1EB
100
AcDbEntity
  8
dimensions
  6
ByBlock
 62
    0
370
   -2
100
AcDbTrace
 10
-4.050093593832573e-15
 20
-36.6875
 30
0
 11
-0.4162846577728441
 21
-34.1875
 31
0
 12
0.4162846577728369
 22
-34.1875
 32
0
 13
0.4162846577728369
 23
-34.1875
 33
0
  0
MTEXT
  5
1EC
100
AcDbEntity
  8
dimensions
  6
CONTINUOUS
 62
    0
370
   -2
100
AcDbMText
 10
-2.250000000000004
 20
-33.67361111111096
 30
0
 40
2.5
 41
4.027777777778088
 71
    5
 72
    1
  1
3,3
  7
standard
210
0
220
0
230
1
 50
90
 73
    2
 44
1
  0
LINE
  5
1ED
100
AcDbEntity
  8
dimensions
  6
ByBlock
 62
    0
370
   -2
100
AcDbLine
 10
-0.5
 20
-40
 11
-1.000000000000004
 21
-40
  0
LINE
  5
1EE
100
AcDbEntity
  8
dimensions
  6
ByBlock
 62
    0
370
   -2
100
AcDbLine
 10
-0.4999999999999959
 20
-36.6875
 11
-1.000000000000004
 21
-36.6875
  0
ENDBLK
  5
BF
330
BD
100
AcDbEntity
  8
0
100
AcDbBlockEnd
  0
BLOCK
  5
C1
330
C0
100
AcDbEntity
  8
0
100
AcDbBlockBegin
  2
*D18
 70
    1
 10
0
 20
0
  3
*D18
  1

  0
LINE
  5
1EF
100
AcDbEntity
  8
dimensions
  6
ByBlock
 62
    0
370
   -2
100
AcDbLine
 10
-40
 20
40
 11
-40
 21
46.25204917308178
  0
SOLID
  5
1F0
100
AcDbEntity
  8
dimensions
  6
ByBlock
 62
    0
370
   -2
100
AcDbTrace
 10
-40
 20
40
 30
0
 11
-40.41628465777284
 21
42.5
 31
0
 12
-39.58371534222716
 22
42.5
 32
0
 13
-39.58371534222716
 23
42.5
 33
0
  0
SOLID
  5
1F1
100
AcDbEntity
  8
dimensions
  6
ByBlock
 62
    0
370
   -2
100
AcDbTrace
 10
-40
 20
46.25204917308178
 30
0
 11
-39.58371534222716
 21
43.75204917308178
 31
0
 12
-40.41628465777284
 22
43.75204917308178
 32
0
 13
-40.41628465777284
 23
43.75204917308178
 33
0
  0
MTEXT
  5
1F2
100
AcDbEntity
  8
dimensions
  6
CONTINUOUS
 62
    0
370
   -2
100
AcDbMText
 10
-42.25
 20
43.12602458654089
 30
0
 40
2.5
 41
4.027777777778088
 71
    5
 72
    1
  1
6,3
  7
standard
210
0
220
0
230
1
 50
90
 73
    2
 44
1
  0
LINE
  5
1F3
100
AcDbEntity
  8
dimensions
  6
ByBlock
 62
    0
370
   -2
100
AcDbLine
 10
-40.5
 20
40
 11
-41
 21
40
  0
LINE
  5
1F4
100
AcDbEntity
  8
dimensions
  6
ByBlock
 62
    0
370
   -2
100
AcDbLine
 10
-40.5
 20
46.25204917308178
 11
-41
 21
46.25204917308178
  0
ENDBLK
  5
C2
330
C0
100
AcDbEntity
  8
0
100
AcDbBlockEnd
  0
BLOCK
  5
C4
330
C3
100
AcDbEntity
  8
0
100
AcDbBlockBegin
  2
*D57
 70
    1
 10
0
 20
0
  3
*D57
  1

  0
LINE
  5
1F5
100
AcDbEntity
  8
dimensions
  6
ByBlock
 62
    0
370
   -2
100
AcDbLine
 10
140
 20
-61.2
 11
140
 21
-36.56883878614374
  0
SOLID
  5
1F6
100
AcDbEntity
  8
dimensions
  6
ByBlock
 62
    0
370
   -2
100
AcDbTrace
 10
140
 20
-61.2
 30
0
 11
139.5837153422272
 21
-58.7
 31
0
 12
140.4162846577728
 22
-58.7
 32
0
 13
140.4162846577728
 23
-58.7
 33
0
  0
SOLID
  5
1F7
100
AcDbEntity
  8
dimensions
  6
ByBlock
 62
    0
370
   -2
100
AcDbTrace
 10
140
 20
-36.56883878614374
 30
0
 11
140.4162846577728
 21
-39.06883878614374
 31
0
 12
139.5837153422272
 22
-39.06883878614374
 32
0
 13
139.5837153422272
 23
-39.06883878614374
 33
0
  0
MTEXT
  5
1F8
100
AcDbEntity
  8
dimensions
  6
CONTINUOUS
 62
    0
370
   -2
100
AcDbMText
 10
137.75
 20
-48.88441939307187
 30
0
 40
2.5
 41
6.250000000000156
 71
    5
 72
    1
  1
24,6
  7
standard
210
0
220
0
230
1
 50
90
 73
    2
 44
1
  0
LINE
  5
1F9
100
AcDbEntity
  8
dimensions
  6
ByBlock
 62
    0
370
   -2
100
AcDbLine
 10
139.5
 20
-61.2
 11
139
 21
-61.2
  0
LINE
  5
1FA
100
AcDbEntity
  8
dimensions
  6
ByBlock
 62
    0
370
   -2
100
AcDbLine
 10
139.5
 20
-36.56883878614374
 11
139
 21
-36.56883878614374
  0
ENDBLK
  5
C5
330
C3
100
AcDbEntity
  8
0
100
AcDbBlockEnd
  0
BLOCK
  5
C7
330
C6
100
AcDbEntity
  8
0
100
AcDbBlockBegin
  2
*D7
 70
    1
 10
0
 20
0
  3
*D7
  1

  0
LINE
  5
1FB
100
AcDbEntity
  8
dimensions
  6
ByBlock
 62
    0
370
   -2
100
AcDbLine
 10
30
 20
-5
 11
30
 21
7.108274633140459
  0
SOLID
  5
1FC
100
AcDbEntity
  8
dimensions
  6
ByBlock
 62
    0
370
   -2
100
AcDbTrace
 10
30
 20
0
 30
0
 11
30.41628465777284
 21
-2.5
 31
0
 12
29.58371534222716
 22
-2.5
 32
0
 13
29.58371534222716
 23
-2.5
 33
0
  0
SOLID
  5
1FD
100
AcDbEntity
  8
dimensions
  6
ByBlock
 62
    0
370
   -2
100
AcDbTrace
 10
30
 20
2.108274633140459
 30
0
 11
29.58371534222716
 21
4.608274633140459
 31
0
 12
30.41628465777284
 22
4.608274633140459
 32
0
 13
30.41628465777284
 23
4.608274633140459
 33
0
  0
MTEXT
  5
1FE
100
AcDbEntity
  8
dimensions
  6
CONTINUOUS
 62
    0
370
   -2
100
AcDbMText
 10
27.75
 20
4.844385744251571
 30
0
 40
2.5
 41
3.472222222222222
 71
    5
 72
    1
  1
2,1
  7
standard
210
0
220
0
230
1
 50
90
 73
    2
 44
1
  0
LINE
  5
1FF
100
AcDbEntity
  8
dimensions
  6
ByBlock
 62
    0
370
   -2
100
AcDbLine
 10
29.5
 20
6.123233995736766e-17
 11
29
 21
1.224646799147353e-16
  0
LINE
  5
200
100
AcDbEntity
  8
dimensions
  6
ByBlock
 62
    0
370
   -2
100
AcDbLine
 10
29.5
 20
2.108274633140459
 11
29
 21
2.108274633140459
  0
ENDBLK
  5
C8
330
C6
100
AcDbEntity
  8
0
100
AcDbBlockEnd
  0
BLOCK
  5
CA
330
C9
100
AcDbEntity
  8
0
100
AcDbBlockBegin
  2
*D39
 70
    1
 10
0
 20
0
  3
*D39
  1

  0
LINE
  5
201
100
AcDbEntity
  8
dimensions
  6
ByBlock
 62
    0
370
   -2
100
AcDbLine
 10
97.50000000000001
 20
11
 11
202.5
 21
11
  0
SOLID
  5
202
100
AcDbEntity
  8
dimensions
  6
ByBlock
 62
    0
370
   -2
100
AcDbTrace
 10
97.50000000000001
 20
11
 30
0
 11
100
 21
11.41628465777284
 31
0
 12
100
 22
10.58371534222716
 32
0
 13
100
 23
10.58371534222716
 33
0
  0
SOLID
  5
203
100
AcDbEntity
  8
dimensions
  6
ByBlock
 62
    0
370
   -2
100
AcDbTrace
 10
202.5
 20
11
 30
0
 11
200
 21
10.58371534222716
 31
0
 12
200
 22
11.41628465777284
 32
0
 13
200
 23
11.41628465777284
 33
0
  0
MTEXT
  5
204
100
AcDbEntity
  8
dimensions
  6
CONTINUOUS
 62
    0
370
   -2
100
AcDbMText
 10
150
 20
13.25
 30
0
 40
2.5
 41
4.444444444444599
 71
    5
 72
    1
  1
105
  7
standard
210
0
220
0
230
1
 50
0
 73
    2
 44
1
  0
LINE
  5
205
100
AcDbEntity
  8
dimensions
  6
ByBlock
 62
    0
370
   -2
100
AcDbLine
 10
97.50000000000001
 20
0.4999999999999999
 11
97.50000000000001
 21
12
  0
LINE
  5
206
100
AcDbEntity
  8
dimensions
  6
ByBlock
 62
    0
370
   -2
100
AcDbLine
 10
202.5
 20
0.4999999999999998
 11
202.5
 21
12
  0
ENDBLK
  5
CB
330
C9
100
AcDbEntity
  8
0
100
AcDbBlockEnd
  0
BLOCK
  5
CD
330
CC
100
AcDbEntity
  8
0
100
AcDbBlockBegin
  2
*D34
 70
    1
 10
0
 20
0
  3
*D34
  1

  0
LINE
  5
207
100
AcDbEntity
  8
dimensions
  6
ByBlock
 62
    0
370
   -2
100
AcDbLine
 10
150
 20
35
 11
150
 21
50.74999999999998
  0
SOLID
  5
208
100
AcDbEntity
  8
dimensions
  6
ByBlock
 62
    0
370
   -2
100
AcDbTrace
 10
150
 20
40
 30
0
 11
150.4162846577728
 21
37.5
 31
0
 12
149.5837153422272
 22
37.5
 32
0
 13
149.5837153422272
 23
37.5
 33
0
  0
SOLID
  5
209
100
AcDbEntity
  8
dimensions
  6
ByBlock
 62
    0
370
   -2
100
AcDbTrace
 10
150
 20
45.74999999999998
 30
0
 11
149.5837153422272
 21
48.24999999999998
 31
0
 12
150.4162846577728
 22
48.24999999999998
 32
0
 13
150.4162846577728
 23
48.24999999999998
 33
0
  0
MTEXT
  5
20A
100
AcDbEntity
  8
dimensions
  6
CONTINUOUS
 62
    0
370
   -2
100
AcDbMText
 10
147.75
 20
42.87499999999999
 30
0
 40
2.5
 41
4.027777777777933
 71
    5
 72
    1
  1
5,7
  7
standard
210
0
220
0
230
1
 50
90
 73
    2
 44
1
  0
LINE
  5
20B
100
AcDbEntity
  8
dimensions
  6
ByBlock
 62
    0
370
   -2
100
AcDbLine
 10
149.5
 20
40
 11
149
 21
40
  0
LINE
  5
20C
100
AcDbEntity
  8
dimensions
  6
ByBlock
 62
    0
370
   -2
100
AcDbLine
 10
149.5
 20
45.74999999999998
 11
149
 21
45.74999999999998
  0
ENDBLK
  5
CE
330
CC
100
AcDbEntity
  8
0
100
AcDbBlockEnd
  0
BLOCK
  5
D0
330
CF
100
AcDbEntity
  8
0
100
AcDbBlockBegin
  2
*D2
 70
    1
 10
0
 20
0
  3
*D2
  1

  0
LINE
  5
20D
100
AcDbEntity
  8
dimensions
  6
ByBlock
 62
    0
370
   -2
100
AcDbLine
 10
-20
 20
-5
 11
-20
 21
8.686273302438343
  0
SOLID
  5
20E
100
AcDbEntity
  8
dimensions
  6
ByBlock
 62
    0
370
   -2
100
AcDbTrace
 10
-20
 20
4.440892098500626e-16
 30
0
 11
-19.58371534222716
 21
-2.5
 31
0
 12
-20.41628465777284
 22
-2.5
 32
0
 13
-20.41628465777284
 23
-2.5
 33
0
  0
SOLID
  5
20F
100
AcDbEntity
  8
dimensions
  6
ByBlock
 62
    0
370
   -2
100
AcDbTrace
 10
-20
 20
3.686273302438343
 30
0
 11
-20.41628465777284
 21
6.186273302438343
 31
0
 12
-19.58371534222716
 22
6.186273302438343
 32
0
 13
-19.58371534222716
 23
6.186273302438343
 33
0
  0
MTEXT
  5
210
100
AcDbEntity
  8
dimensions
  6
CONTINUOUS
 62
    0
370
   -2
100
AcDbMText
 10
-22.25
 20
6.70016219132731
 30
0
 40
2.5
 41
4.027777777777933
 71
    5
 72
    1
  1
3,7
  7
standard
210
0
220
0
230
1
 50
90
 73
    2
 44
1
  0
LINE
  5
211
100
AcDbEntity
  8
dimensions
  6
ByBlock
 62
    0
370
   -2
100
AcDbLine
 10
-20.5
 20
6.123233995736766e-17
 11
-21
 21
5.66553889764798e-16
  0
LINE
  5
212
100
AcDbEntity
  8
dimensions
  6
ByBlock
 62
    0
370
   -2
100
AcDbLine
 10
-20.5
 20
3.686273302438343
 11
-21
 21
3.686273302438343
  0
ENDBLK
  5
D1
330
CF
100
AcDbEntity
  8
0
100
AcDbBlockEnd
  0
BLOCK
  5
D3
330
D2
100
AcDbEntity
  8
0
100
AcDbBlockBegin
  2
*D42
 70
    1
 10
0
 20
0
  3
*D42
  1

  0
LINE
  5
213
100
AcDbEntity
  8
dimensions
  6
ByBlock
 62
    0
370
   -2
100
AcDbLine
 10
130
 20
-5
 11
130
 21
10.62270050263387
  0
SOLID
  5
214
100
AcDbEntity
  8
dimensions
  6
ByBlock
 62
    0
370
   -2
100
AcDbTrace
 10
130
 20
0
 30
0
 11
130.4162846577728
 21
-2.5
 31
0
 12
129.5837153422272
 22
-2.5
 32
0
 13
129.5837153422272
 23
-2.5
 33
0
  0
SOLID
  5
215
100
AcDbEntity
  8
dimensions
  6
ByBlock
 62
    0
370
   -2
100
AcDbTrace
 10
130
 20
5.622700502633869
 30
0
 11
129.5837153422272
 21
8.122700502633869
 31
0
 12
130.4162846577728
 22
8.122700502633869
 32
0
 13
130.4162846577728
 23
8.122700502633869
 33
0
  0
MTEXT
  5
216
100
AcDbEntity
  8
dimensions
  6
CONTINUOUS
 62
    0
370
   -2
100
AcDbMText
 10
127.75
 20
2.811350251316935
 30
0
 40
2.5
 41
4.027777777778088
 71
    5
 72
    1
  1
5,6
  7
standard
210
0
220
0
230
1
 50
90
 73
    2
 44
1
  0
LINE
  5
217
100
AcDbEntity
  8
dimensions
  6
ByBlock
 62
    0
370
   -2
100
AcDbLine
 10
129.5
 20
6.123233995736766e-17
 11
129
 21
1.224646799147353e-16
  0
LINE
  5
218
100
AcDbEntity
  8
dimensions
  6
ByBlock
 62
    0
370
   -2
100
AcDbLine
 10
129.5
 20
5.622700502633869
 11
129
 21
5.622700502633869
  0
ENDBLK
  5
D4
330
D2
100
AcDbEntity
  8
0
100
AcDbBlockEnd
  0
BLOCK
  5
D6
330
D5
100
AcDbEntity
  8
0
100
AcDbBlockBegin
  2
*D32
 70
    1
 10
0
 20
0
  3
*D32
  1

  0
LINE
  5
219
100
AcDbEntity
  8
dimensions
  6
ByBlock
 62
    0
370
   -2
100
AcDbLine
 10
130
 20
35
 11
130
 21
49.67668359032701
  0
SOLID
  5
21A
100
AcDbEntity
  8
dimensions
  6
ByBlock
 62
    0
370
   -2
100
AcDbTrace
 10
130
 20
40
 30
0
 11
130.4162846577728
 21
37.5
 31
0
 12
129.5837153422272
 22
37.5
 32
0
 13
129.5837153422272
 23
37.5
 33
0
  0
SOLID
  5
21B
100
AcDbEntity
  8
dimensions
  6
ByBlock
 62
    0
370
   -2
100
AcDbTrace
 10
130
 20
44.67668359032701
 30
0
 11
129.5837153422272
 21
47.17668359032701
 31
0
 12
130.4162846577728
 22
47.17668359032701
 32
0
 13
130.4162846577728
 23
47.17668359032701
 33
0
  0
MTEXT
  5
21C
100
AcDbEntity
  8
dimensions
  6
CONTINUOUS
 62
    0
370
   -2
100
AcDbMText
 10
127.75
 20
42.3383417951635
 30
0
 40
2.5
 41
4.305555555555555
 71
    5
 72
    1
  1
4,7
  7
standard
210
0
220
0
230
1
 50
90
 73
    2
 44
1
  0
LINE
  5
21D
100
AcDbEntity
  8
dimensions
  6
ByBlock
 62
    0
370
   -2
100
AcDbLine
 10
129.5
 20
40
 11
129
 21
40
  0
LINE
  5
21E
100
AcDbEntity
  8
dimensions
  6
ByBlock
 62
    0
370
   -2
100
AcDbLine
 10
129.5
 20
44.67668359032701
 11
129
 21
44.67668359032701
  0
ENDBLK
  5
D7
330
D5
100
AcDbEntity
  8
0
100
AcDbBlockEnd
  0
BLOCK
  5
D9
330
D8
100
AcDbEntity
  8
0
100
AcDbBlockBegin
  2
*D15
 70
    1
 10
0
 20
0
  3
*D15
  1

  0
LINE
  5
21F
100
AcDbEntity
  8
dimensions
  6
ByBlock
 62
    0
370
   -2
100
AcDbLine
 10
-71.99999999999991
 20
51
 11
72
 21
51
  0
SOLID
  5
220
100
AcDbEntity
  8
dimensions
  6
ByBlock
 62
    0
370
   -2
100
AcDbTrace
 10
-71.99999999999991
 20
51
 30
0
 11
-69.49999999999991
 21
51.41628465777284
 31
0
 12
-69.49999999999991
 22
50.58371534222716
 32
0
 13
-69.49999999999991
 23
50.58371534222716
 33
0
  0
SOLID
  5
221
100
AcDbEntity
  8
dimensions
  6
ByBlock
 62
    0
370
   -2
100
AcDbTrace
 10
72
 20
51
 30
0
 11
69.5
 21
50.58371534222716
 31
0
 12
69.5
 22
51.41628465777284
 32
0
 13
69.5
 23
51.41628465777284
 33
0
  0
MTEXT
  5
222
100
AcDbEntity
  8
dimensions
  6
CONTINUOUS
 62
    0
370
   -2
100
AcDbMText
 10
4.277033691051009e-14
 20
53.25
 30
0
 40
2.5
 41
5
 71
    5
 72
    1
  1
144
  7
standard
210
0
220
0
230
1
 50
0
 73
    2
 44
1
  0
LINE
  5
223
100
AcDbEntity
  8
dimensions
  6
ByBlock
 62
    0
370
   -2
100
AcDbLine
 10
-71.9999999999999
 20
40.49999999999997
 11
-71.99999999999991
 21
52
  0
LINE
  5
224
100
AcDbEntity
  8
dimensions
  6
ByBlock
 62
    0
370
   -2
100
AcDbLine
 10
72
 20
40.5
 11
72
 21
52
  0
ENDBLK
  5
DA
330
D8
100
AcDbEntity
  8
0
100
AcDbBlockEnd
  0
BLOCK
  5
DC
330
DB
100
AcDbEntity
  8
0
100
AcDbBlockBegin
  2
*D6
 70
    1
 10
0
 20
0
  3
*D6
  1

  0
LINE
  5
225
100
AcDbEntity
  8
dimensions
  6
ByBlock
 62
    0
370
   -2
100
AcDbLine
 10
20
 20
-5
 11
20
 21
8.686273302438341
  0
SOLID
  5
226
100
AcDbEntity
  8
dimensions
  6
ByBlock
 62
    0
370
   -2
100
AcDbTrace
 10
20
 20
0
 30
0
 11
20.41628465777284
 21
-2.5
 31
0
 12
19.58371534222716
 22
-2.5
 32
0
 13
19.58371534222716
 23
-2.5
 33
0
  0
SOLID
  5
227
100
AcDbEntity
  8
dimensions
  6
ByBlock
 62
    0
370
   -2
100
AcDbTrace
 10
20
 20
3.686273302438341
 30
0
 11
19.58371534222716
 21
6.186273302438341
 31
0
 12
20.41628465777284
 22
6.186273302438341
 32
0
 13
20.41628465777284
 23
6.186273302438341
 33
0
  0
MTEXT
  5
228
100
AcDbEntity
  8
dimensions
  6
CONTINUOUS
 62
    0
370
   -2
100
AcDbMText
 10
17.75
 20
6.700162191327308
 30
0
 40
2.5
 41
4.027777777777933
 71
    5
 72
    1
  1
3,7
  7
standard
210
0
220
0
230
1
 50
90
 73
    2
 44
1
  0
LINE
  5
229
100
AcDbEntity
  8
dimensions
  6
ByBlock
 62
    0
370
   -2
100
AcDbLine
 10
19.5
 20
6.123233995736766e-17
 11
19
 21
1.224646799147353e-16
  0
LINE
  5
22A
100
AcDbEntity
  8
dimensions
  6
ByBlock
 62
    0
370
   -2
100
AcDbLine
 10
19.5
 20
3.686273302438341
 11
19
 21
3.686273302438341
  0
ENDBLK
  5
DD
330
DB
100
AcDbEntity
  8
0
100
AcDbBlockEnd
  0
BLOCK
  5
DF
330
DE
100
AcDbEntity
  8
0
100
AcDbBlockBegin
  2
*D23
 70
    1
 10
0
 20
0
  3
*D23
  1

  0
LINE
  5
22B
100
AcDbEntity
  8
dimensions
  6
ByBlock
 62
    0
370
   -2
100
AcDbLine
 10
10
 20
40
 11
10
 21
48.82900985020288
  0
SOLID
  5
22C
100
AcDbEntity
  8
dimensions
  6
ByBlock
 62
    0
370
   -2
100
AcDbTrace
 10
10
 20
40
 30
0
 11
9.58371534222716
 21
42.5
 31
0
 12
10.41628465777284
 22
42.5
 32
0
 13
10.41628465777284
 23
42.5
 33
0
  0
SOLID
  5
22D
100
AcDbEntity
  8
dimensions
  6
ByBlock
 62
    0
370
   -2
100
AcDbTrace
 10
10
 20
48.82900985020288
 30
0
 11
10.41628465777284
 21
46.32900985020288
 31
0
 12
9.58371534222716
 22
46.32900985020288
 32
0
 13
9.58371534222716
 23
46.32900985020288
 33
0
  0
MTEXT
  5
22E
100
AcDbEntity
  8
dimensions
  6
CONTINUOUS
 62
    0
370
   -2
100
AcDbMText
 10
7.750000000000004
 20
44.41450492510144
 30
0
 40
2.5
 41
4.027777777777779
 71
    5
 72
    1
  1
8,8
  7
standard
210
0
220
0
230
1
 50
90
 73
    2
 44
1
  0
LINE
  5
22F
100
AcDbEntity
  8
dimensions
  6
ByBlock
 62
    0
370
   -2
100
AcDbLine
 10
9.499999999999988
 20
40
 11
9
 21
40
  0
LINE
  5
230
100
AcDbEntity
  8
dimensions
  6
ByBlock
 62
    0
370
   -2
100
AcDbLine
 10
9.5
 20
48.82900985020288
 11
9
 21
48.82900985020288
  0
ENDBLK
  5
E0
330
DE
100
AcDbEntity
  8
0
100
AcDbBlockEnd
  0
BLOCK
  5
E2
330
E1
100
AcDbEntity
  8
0
100
AcDbBlockBegin
  2
*D54
 70
    1
 10
0
 20
0
  3
*D54
  1

  0
LINE
  5
231
100
AcDbEntity
  8
dimensions
  6
ByBlock
 62
    0
370
   -2
100
AcDbLine
 10
110
 20
-61.2
 11
110
 21
-42.22721006739287
  0
SOLID
  5
232
100
AcDbEntity
  8
dimensions
  6
ByBlock
 62
    0
370
   -2
100
AcDbTrace
 10
110
 20
-61.2
 30
0
 11
109.5837153422272
 21
-58.7
 31
0
 12
110.4162846577728
 22
-58.7
 32
0
 13
110.4162846577728
 23
-58.7
 33
0
  0
SOLID
  5
233
100
AcDbEntity
  8
dimensions
  6
ByBlock
 62
    0
370
   -2
100
AcDbTrace
 10
110
 20
-42.22721006739287
 30
0
 11
110.4162846577728
 21
-44.72721006739287
 31
0
 12
109.5837153422272
 22
-44.72721006739287
 32
0
 13
109.5837153422272
 23
-44.72721006739287
 33
0
  0
MTEXT
  5
234
100
AcDbEntity
  8
dimensions
  6
CONTINUOUS
 62
    0
370
   -2
100
AcDbMText
 10
107.75
 20
-51.71360503369644
 30
0
 40
2.5
 41
2.5
 71
    5
 72
    1
  1
19
  7
standard
210
0
220
0
230
1
 50
90
 73
    2
 44
1
  0
LINE
  5
235
100
AcDbEntity
  8
dimensions
  6
ByBlock
 62
    0
370
   -2
100
AcDbLine
 10
109.5
 20
-61.2
 11
109
 21
-61.2
  0
LINE
  5
236
100
AcDbEntity
  8
dimensions
  6
ByBlock
 62
    0
370
   -2
100
AcDbLine
 10
109.5
 20
-42.22721006739287
 11
109
 21
-42.22721006739287
  0
ENDBLK
  5
E3
330
E1
100
AcDbEntity
  8
0
100
AcDbBlockEnd
  0
BLOCK
  5
E5
330
E4
100
AcDbEntity
  8
0
100
AcDbBlockBegin
  2
*D27
 70
    1
 10
0
 20
0
  3
*D27
  1

  0
LINE
  5
237
100
AcDbEntity
  8
dimensions
  6
ByBlock
 62
    0
370
   -2
100
AcDbLine
 10
50
 20
35
 11
50
 21
49.6948125834329
  0
SOLID
  5
238
100
AcDbEntity
  8
dimensions
  6
ByBlock
 62
    0
370
   -2
100
AcDbTrace
 10
50
 20
40
 30
0
 11
50.41628465777284
 21
37.5
 31
0
 12
49.58371534222716
 22
37.5
 32
0
 13
49.58371534222716
 23
37.5
 33
0
  0
SOLID
  5
239
100
AcDbEntity
  8
dimensions
  6
ByBlock
 62
    0
370
   -2
100
AcDbTrace
 10
50
 20
44.6948125834329
 30
0
 11
49.58371534222716
 21
47.1948125834329
 31
0
 12
50.41628465777284
 22
47.1948125834329
 32
0
 13
50.41628465777284
 23
47.1948125834329
 33
0
  0
MTEXT
  5
23A
100
AcDbEntity
  8
dimensions
  6
CONTINUOUS
 62
    0
370
   -2
100
AcDbMText
 10
47.75
 20
42.34740629171645
 30
0
 40
2.5
 41
4.305555555555555
 71
    5
 72
    1
  1
4,7
  7
standard
210
0
220
0
230
1
 50
90
 73
    2
 44
1
  0
LINE
  5
23B
100
AcDbEntity
  8
dimensions
  6
ByBlock
 62
    0
370
   -2
100
AcDbLine
 10
49.5
 20
40
 11
49
 21
40
  0
LINE
  5
23C
100
AcDbEntity
  8
dimensions
  6
ByBlock
 62
    0
370
   -2
100
AcDbLine
 10
49.5
 20
44.6948125834329
 11
49
 21
44.6948125834329
  0
ENDBLK
  5
E6
330
E4
100
AcDbEntity
  8
0
100
AcDbBlockEnd
  0
BLOCK
  5
E8
330
E7
100
AcDbEntity
  8
0
100
AcDbBlockBegin
  2
*D63
 70
    1
 10
0
 20
0
  3
*D63
  1

  0
LINE
  5
23D
100
AcDbEntity
  8
dimensions
  6
ByBlock
 62
    0
370
   -2
100
AcDbLine
 10
150
 20
-61.19999999999999
 11
150
 21
-36.19999999999997
  0
SOLID
  5
23E
100
AcDbEntity
  8
dimensions
  6
ByBlock
 62
    0
370
   -2
100
AcDbTrace
 10
150
 20
-61.19999999999999
 30
0
 11
149.5837153422272
 21
-58.69999999999999
 31
0
 12
150.4162846577728
 22
-58.69999999999999
 32
0
 13
150.4162846577728
 23
-58.69999999999999
 33
0
  0
SOLID
  5
23F
100
AcDbEntity
  8
dimensions
  6
ByBlock
 62
    0
370
   -2
100
AcDbTrace
 10
150
 20
-36.19999999999997
 30
0
 11
150.4162846577728
 21
-38.69999999999997
 31
0
 12
149.5837153422272
 22
-38.69999999999997
 32
0
 13
149.5837153422272
 23
-38.69999999999997
 33
0
  0
MTEXT
  5
240
100
AcDbEntity
  8
dimensions
  6
CONTINUOUS
 62
    0
370
   -2
100
AcDbMText
 10
147.75
 20
-48.69999999999999
 30
0
 40
2.5
 41
3.055555555555711
 71
    5
 72
    1
  1
25
  7
standard
210
0
220
0
230
1
 50
90
 73
    2
 44
1
  0
LINE
  5
241
100
AcDbEntity
  8
dimensions
  6
ByBlock
 62
    0
370
   -2
100
AcDbLine
 10
149.5
 20
-61.2
 11
149
 21
-61.19999999999999
  0
LINE
  5
242
100
AcDbEntity
  8
dimensions
  6
ByBlock
 62
    0
370
   -2
100
AcDbLine
 10
149.5
 20
-36.19999999999997
 11
149
 21
-36.19999999999997
  0
ENDBLK
  5
E9
330
E7
100
AcDbEntity
  8
0
100
AcDbBlockEnd
  0
BLOCK
  5
EB
330
EA
100
AcDbEntity
  8
0
100
AcDbBlockBegin
  2
*D45
 70
    1
 10
0
 20
0
  3
*D45
  1

  0
LINE
  5
243
100
AcDbEntity
  8
dimensions
  6
ByBlock
 62
    0
370
   -2
100
AcDbLine
 10
160.054899465591
 20
0
 11
160.054899465591
 21
6.327938783380318
  0
SOLID
  5
244
100
AcDbEntity
  8
dimensions
  6
ByBlock
 62
    0
370
   -2
100
AcDbTrace
 10
160.054899465591
 20
0
 30
0
 11
159.6386148078182
 21
2.5
 31
0
 12
160.4711841233639
 22
2.5
 32
0
 13
160.4711841233639
 23
2.5
 33
0
  0
SOLID
  5
245
100
AcDbEntity
  8
dimensions
  6
ByBlock
 62
    0
370
   -2
100
AcDbTrace
 10
160.054899465591
 20
6.327938783380318
 30
0
 11
160.4711841233639
 21
3.827938783380318
 31
0
 12
159.6386148078182
 22
3.827938783380318
 32
0
 13
159.6386148078182
 23
3.827938783380318
 33
0
  0
MTEXT
  5
246
100
AcDbEntity
  8
dimensions
  6
CONTINUOUS
 62
    0
370
   -2
100
AcDbMText
 10
157.804899465591
 20
3.16396939169016
 30
0
 40
2.5
 41
4.027777777778088
 71
    5
 72
    1
  1
6,3
  7
standard
210
0
220
0
230
1
 50
90
 73
    2
 44
1
  0
LINE
  5
247
100
AcDbEntity
  8
dimensions
  6
ByBlock
 62
    0
370
   -2
100
AcDbLine
 10
160.5
 20
0
 11
161.054899465591
 21
0
  0
LINE
  5
248
100
AcDbEntity
  8
dimensions
  6
ByBlock
 62
    0
370
   -2
100
AcDbLine
 10
160.5
 20
6.327938783380318
 11
161.054899465591
 21
6.327938783380318
  0
ENDBLK
  5
EC
330
EA
100
AcDbEntity
  8
0
100
AcDbBlockEnd
  0
BLOCK
  5
EE
330
ED
100
AcDbEntity
  8
0
100
AcDbBlockBegin
  2
*D46
 70
    1
 10
0
 20
0
  3
*D46
  1

  0
LINE
  5
249
100
AcDbEntity
  8
dimensions
  6
ByBlock
 62
    0
370
   -2
100
AcDbLine
 10
170
 20
-5.000000000000001
 11
170
 21
10.62270050263383
  0
SOLID
  5
24A
100
AcDbEntity
  8
dimensions
  6
ByBlock
 62
    0
370
   -2
100
AcDbTrace
 10
170
 20
-8.881784197001252e-16
 30
0
 11
170.4162846577728
 21
-2.500000000000001
 31
0
 12
169.5837153422272
 22
-2.500000000000001
 32
0
 13
169.5837153422272
 23
-2.500000000000001
 33
0
  0
SOLID
  5
24B
100
AcDbEntity
  8
dimensions
  6
ByBlock
 62
    0
370
   -2
100
AcDbTrace
 10
170
 20
5.622700502633833
 30
0
 11
169.5837153422272
 21
8.122700502633833
 31
0
 12
170.4162846577728
 22
8.122700502633833
 32
0
 13
170.4162846577728
 23
8.122700502633833
 33
0
  0
MTEXT
  5
24C
100
AcDbEntity
  8
dimensions
  6
CONTINUOUS
 62
    0
370
   -2
100
AcDbMText
 10
167.75
 20
2.811350251316917
 30
0
 40
2.5
 41
4.027777777778088
 71
    5
 72
    1
  1
5,6
  7
standard
210
0
220
0
230
1
 50
90
 73
    2
 44
1
  0
LINE
  5
24D
100
AcDbEntity
  8
dimensions
  6
ByBlock
 62
    0
370
   -2
100
AcDbLine
 10
169.5
 20
6.123233995736766e-17
 11
169
 21
-7.657137397853899e-16
  0
LINE
  5
24E
100
AcDbEntity
  8
dimensions
  6
ByBlock
 62
    0
370
   -2
100
AcDbLine
 10
169.5
 20
5.622700502633833
 11
169
 21
5.622700502633833
  0
ENDBLK
  5
EF
330
ED
100
AcDbEntity
  8
0
100
AcDbBlockEnd
  0
BLOCK
  5
F1
330
F0
100
AcDbEntity
  8
0
100
AcDbBlockBegin
  2
*D10
 70
    1
 10
0
 20
0
  3
*D10
  1

  0
LINE
  5
24F
100
AcDbEntity
  8
dimensions
  6
ByBlock
 62
    0
370
   -2
100
AcDbLine
 10
-20
 20
-45
 11
-20
 21
-33.56157681348196
  0
SOLID
  5
250
100
AcDbEntity
  8
dimensions
  6
ByBlock
 62
    0
370
   -2
100
AcDbTrace
 10
-20
 20
-40
 30
0
 11
-19.58371534222716
 21
-42.5
 31
0
 12
-20.41628465777284
 22
-42.5
 32
0
 13
-20.41628465777284
 23
-42.5
 33
0
  0
SOLID
  5
251
100
AcDbEntity
  8
dimensions
  6
ByBlock
 62
    0
370
   -2
100
AcDbTrace
 10
-20
 20
-38.56157681348196
 30
0
 11
-20.41628465777284
 21
-36.06157681348196
 31
0
 12
-19.58371534222716
 22
-36.06157681348196
 32
0
 13
-19.58371534222716
 23
-36.06157681348196
 33
0
  0
MTEXT
  5
252
100
AcDbEntity
  8
dimensions
  6
CONTINUOUS
 62
    0
370
   -2
100
AcDbMText
 10
-22.25
 20
-35.68657681348196
 30
0
 40
2.5
 41
3.75
 71
    5
 72
    1
  1
1,4
  7
standard
210
0
220
0
230
1
 50
90
 73
    2
 44
1
  0
LINE
  5
253
100
AcDbEntity
  8
dimensions
  6
ByBlock
 62
    0
370
   -2
100
AcDbLine
 10
-20.5
 20
-40
 11
-21
 21
-40
  0
LINE
  5
254
100
AcDbEntity
  8
dimensions
  6
ByBlock
 62
    0
370
   -2
100
AcDbLine
 10
-20.5
 20
-38.56157681348196
 11
-21
 21
-38.56157681348196
  0
ENDBLK
  5
F2
330
F0
100
AcDbEntity
  8
0
100
AcDbBlockEnd
  0
BLOCK
  5
F4
330
F3
100
AcDbEntity
  8
0
100
AcDbBlockBegin
  2
*D52
 70
    1
 10
0
 20
0
  3
*D52
  1

  0
LINE
  5
255
100
AcDbEntity
  8
dimensions
  6
ByBlock
 62
    0
370
   -2
100
AcDbLine
 10
90
 20
-61.2
 11
90
 21
-50.18004188396399
  0
SOLID
  5
256
100
AcDbEntity
  8
dimensions
  6
ByBlock
 62
    0
370
   -2
100
AcDbTrace
 10
90
 20
-61.2
 30
0
 11
89.58371534222717
 21
-58.7
 31
0
 12
90.41628465777283
 22
-58.7
 32
0
 13
90.41628465777283
 23
-58.7
 33
0
  0
SOLID
  5
257
100
AcDbEntity
  8
dimensions
  6
ByBlock
 62
    0
370
   -2
100
AcDbTrace
 10
90
 20
-50.18004188396399
 30
0
 11
90.41628465777283
 21
-52.68004188396399
 31
0
 12
89.58371534222717
 22
-52.68004188396399
 32
0
 13
89.58371534222717
 23
-52.68004188396399
 33
0
  0
MTEXT
  5
258
100
AcDbEntity
  8
dimensions
  6
CONTINUOUS
 62
    0
370
   -2
100
AcDbMText
 10
87.75
 20
-55.690020941982
 30
0
 40
2.5
 41
1.944444444444444
 71
    5
 72
    1
  1
11
  7
standard
210
0
220
0
230
1
 50
90
 73
    2
 44
1
  0
LINE
  5
259
100
AcDbEntity
  8
dimensions
  6
ByBlock
 62
    0
370
   -2
100
AcDbLine
 10
89.5
 20
-61.2
 11
89
 21
-61.2
  0
LINE
  5
25A
100
AcDbEntity
  8
dimensions
  6
ByBlock
 62
    0
370
   -2
100
AcDbLine
 10
89.5
 20
-50.18004188396399
 11
89
 21
-50.18004188396399
  0
ENDBLK
  5
F5
330
F3
100
AcDbEntity
  8
0
100
AcDbBlockEnd
  0
BLOCK
  5
F7
330
F6
100
AcDbEntity
  8
0
100
AcDbBlockBegin
  2
*D53
 70
    1
 10
0
 20
0
  3
*D53
  1

  0
LINE
  5
25B
100
AcDbEntity
  8
dimensions
  6
ByBlock
 62
    0
370
   -2
100
AcDbLine
 10
100
 20
-61.2
 11
100
 21
-45.7439499845584
  0
SOLID
  5
25C
100
AcDbEntity
  8
dimensions
  6
ByBlock
 62
    0
370
   -2
100
AcDbTrace
 10
100
 20
-61.2
 30
0
 11
99.58371534222717
 21
-58.7
 31
0
 12
100.4162846577728
 22
-58.7
 32
0
 13
100.4162846577728
 23
-58.7
 33
0
  0
SOLID
  5
25D
100
AcDbEntity
  8
dimensions
  6
ByBlock
 62
    0
370
   -2
100
AcDbTrace
 10
100
 20
-45.7439499845584
 30
0
 11
100.4162846577728
 21
-48.2439499845584
 31
0
 12
99.58371534222717
 22
-48.2439499845584
 32
0
 13
99.58371534222717
 23
-48.2439499845584
 33
0
  0
MTEXT
  5
25E
100
AcDbEntity
  8
dimensions
  6
CONTINUOUS
 62
    0
370
   -2
100
AcDbMText
 10
97.75
 20
-53.47197499227919
 30
0
 40
2.5
 41
5.416666666666977
 71
    5
 72
    1
  1
15,5
  7
standard
210
0
220
0
230
1
 50
90
 73
    2
 44
1
  0
LINE
  5
25F
100
AcDbEntity
  8
dimensions
  6
ByBlock
 62
    0
370
   -2
100
AcDbLine
 10
99.5
 20
-61.2
 11
99
 21
-61.2
  0
LINE
  5
260
100
AcDbEntity
  8
dimensions
  6
ByBlock
 62
    0
370
   -2
100
AcDbLine
 10
99.5
 20
-45.7439499845584
 11
99
 21
-45.7439499845584
  0
ENDBLK
  5
F8
330
F6
100
AcDbEntity
  8
0
100
AcDbBlockEnd
  0
BLOCK
  5
FA
330
F9
100
AcDbEntity
  8
0
100
AcDbBlockBegin
  2
*D61
 70
    1
 10
0
 20
0
  3
*D61
  1

  0
LINE
  5
261
100
AcDbEntity
  8
dimensions
  6
ByBlock
 62
    0
370
   -2
100
AcDbLine
 10
190
 20
-61.2
 11
190
 21
-42.22721006739282
  0
SOLID
  5
262
100
AcDbEntity
  8
dimensions
  6
ByBlock
 62
    0
370
   -2
100
AcDbTrace
 10
190
 20
-61.2
 30
0
 11
189.5837153422272
 21
-58.7
 31
0
 12
190.4162846577728
 22
-58.7
 32
0
 13
190.4162846577728
 23
-58.7
 33
0
  0
SOLID
  5
263
100
AcDbEntity
  8
dimensions
  6
ByBlock
 62
    0
370
   -2
100
AcDbTrace
 10
190
 20
-42.22721006739282
 30
0
 11
190.4162846577728
 21
-44.72721006739282
 31
0
 12
189.5837153422272
 22
-44.72721006739282
 32
0
 13
189.5837153422272
 23
-44.72721006739282
 33
0
  0
MTEXT
  5
264
100
AcDbEntity
  8
dimensions
  6
CONTINUOUS
 62
    0
370
   -2
100
AcDbMText
 10
187.75
 20
-51.7136050336964
 30
0
 40
2.5
 41
2.5
 71
    5
 72
    1
  1
19
  7
standard
210
0
220
0
230
1
 50
90
 73
    2
 44
1
  0
LINE
  5
265
100
AcDbEntity
  8
dimensions
  6
ByBlock
 62
    0
370
   -2
100
AcDbLine
 10
189.5
 20
-61.2
 11
189
 21
-61.2
  0
LINE
  5
266
100
AcDbEntity
  8
dimensions
  6
ByBlock
 62
    0
370
   -2
100
AcDbLine
 10
189.5
 20
-42.22721006739282
 11
189
 21
-42.22721006739282
  0
ENDBLK
  5
FB
330
F9
100
AcDbEntity
  8
0
100
AcDbBlockEnd
  0
BLOCK
  5
FD
330
FC
100
AcDbEntity
  8
0
100
AcDbBlockBegin
  2
*D36
 70
    1
 10
0
 20
0
  3
*D36
  1

  0
LINE
  5
267
100
AcDbEntity
  8
dimensions
  6
ByBlock
 62
    0
370
   -2
100
AcDbLine
 10
180
 20
35
 11
180
 21
48.32625541725108
  0
SOLID
  5
268
100
AcDbEntity
  8
dimensions
  6
ByBlock
 62
    0
370
   -2
100
AcDbTrace
 10
180
 20
40
 30
0
 11
180.4162846577728
 21
37.5
 31
0
 12
179.5837153422272
 22
37.5
 32
0
 13
179.5837153422272
 23
37.5
 33
0
  0
SOLID
  5
269
100
AcDbEntity
  8
dimensions
  6
ByBlock
 62
    0
370
   -2
100
AcDbTrace
 10
180
 20
43.32625541725108
 30
0
 11
179.5837153422272
 21
45.82625541725108
 31
0
 12
180.4162846577728
 22
45.82625541725108
 32
0
 13
180.4162846577728
 23
45.82625541725108
 33
0
  0
MTEXT
  5
26A
100
AcDbEntity
  8
dimensions
  6
CONTINUOUS
 62
    0
370
   -2
100
AcDbMText
 10
177.75
 20
46.34014430614013
 30
0
 40
2.5
 41
4.027777777778088
 71
    5
 72
    1
  1
3,3
  7
standard
210
0
220
0
230
1
 50
90
 73
    2
 44
1
  0
LINE
  5
26B
100
AcDbEntity
  8
dimensions
  6
ByBlock
 62
    0
370
   -2
100
AcDbLine
 10
179.5
 20
40
 11
179
 21
40
  0
LINE
  5
26C
100
AcDbEntity
  8
dimensions
  6
ByBlock
 62
    0
370
   -2
100
AcDbLine
 10
179.5
 20
43.32625541725108
 11
179
 21
43.32625541725108
  0
ENDBLK
  5
FE
330
FC
100
AcDbEntity
  8
0
100
AcDbBlockEnd
  0
BLOCK
  5
100
330
FF
100
AcDbEntity
  8
0
100
AcDbBlockBegin
  2
*D33
 70
    1
 10
0
 20
0
  3
*D33
  1

  0
LINE
  5
26D
100
AcDbEntity
  8
dimensions
  6
ByBlock
 62
    0
370
   -2
100
AcDbLine
 10
140
 20
35
 11
140
 21
50.4822496582059
  0
SOLID
  5
26E
100
AcDbEntity
  8
dimensions
  6
ByBlock
 62
    0
370
   -2
100
AcDbTrace
 10
140
 20
40
 30
0
 11
140.4162846577728
 21
37.5
 31
0
 12
139.5837153422272
 22
37.5
 32
0
 13
139.5837153422272
 23
37.5
 33
0
  0
SOLID
  5
26F
100
AcDbEntity
  8
dimensions
  6
ByBlock
 62
    0
370
   -2
100
AcDbTrace
 10
140
 20
45.4822496582059
 30
0
 11
139.5837153422272
 21
47.9822496582059
 31
0
 12
140.4162846577728
 22
47.9822496582059
 32
0
 13
140.4162846577728
 23
47.9822496582059
 33
0
  0
MTEXT
  5
270
100
AcDbEntity
  8
dimensions
  6
CONTINUOUS
 62
    0
370
   -2
100
AcDbMText
 10
137.75
 20
42.74112482910295
 30
0
 40
2.5
 41
4.027777777778088
 71
    5
 72
    1
  1
5,5
  7
standard
210
0
220
0
230
1
 50
90
 73
    2
 44
1
  0
LINE
  5
271
100
AcDbEntity
  8
dimensions
  6
ByBlock
 62
    0
370
   -2
100
AcDbLine
 10
139.5
 20
40
 11
139
 21
40
  0
LINE
  5
272
100
AcDbEntity
  8
dimensions
  6
ByBlock
 62
    0
370
   -2
100
AcDbLine
 10
139.5
 20
45.4822496582059
 11
139
 21
45.4822496582059
  0
ENDBLK
  5
101
330
FF
100
AcDbEntity
  8
0
100
AcDbBlockEnd
  0
BLOCK
  5
103
330
102
100
AcDbEntity
  8
0
100
AcDbBlockBegin
  2
*D1
 70
    1
 10
0
 20
0
  3
*D1
  1

  0
LINE
  5
273
100
AcDbEntity
  8
dimensions
  6
ByBlock
 62
    0
370
   -2
100
AcDbLine
 10
-30
 20
-5
 11
-30
 21
7.108274633140446
  0
SOLID
  5
274
100
AcDbEntity
  8
dimensions
  6
ByBlock
 62
    0
370
   -2
100
AcDbTrace
 10
-30
 20
4.440892098500626e-16
 30
0
 11
-29.58371534222716
 21
-2.5
 31
0
 12
-30.41628465777284
 22
-2.5
 32
0
 13
-30.41628465777284
 23
-2.5
 33
0
  0
SOLID
  5
275
100
AcDbEntity
  8
dimensions
  6
ByBlock
 62
    0
370
   -2
100
AcDbTrace
 10
-30
 20
2.108274633140446
 30
0
 11
-30.41628465777284
 21
4.608274633140446
 31
0
 12
-29.58371534222716
 22
4.608274633140446
 32
0
 13
-29.58371534222716
 23
4.608274633140446
 33
0
  0
MTEXT
  5
276
100
AcDbEntity
  8
dimensions
  6
CONTINUOUS
 62
    0
370
   -2
100
AcDbMText
 10
-32.25
 20
4.844385744251557
 30
0
 40
2.5
 41
3.472222222222222
 71
    5
 72
    1
  1
2,1
  7
standard
210
0
220
0
230
1
 50
90
 73
    2
 44
1
  0
LINE
  5
277
100
AcDbEntity
  8
dimensions
  6
ByBlock
 62
    0
370
   -2
100
AcDbLine
 10
-30.5
 20
6.123233995736766e-17
 11
-31
 21
5.66553889764798e-16
  0
LINE
  5
278
100
AcDbEntity
  8
dimensions
  6
ByBlock
 62
    0
370
   -2
100
AcDbLine
 10
-30.5
 20
2.108274633140446
 11
-31
 21
2.108274633140446
  0
ENDBLK
  5
104
330
102
100
AcDbEntity
  8
0
100
AcDbBlockEnd
  0
BLOCK
  5
106
330
105
100
AcDbEntity
  8
0
100
AcDbBlockBegin
  2
*D56
 70
    1
 10
0
 20
0
  3
*D56
  1

  0
LINE
  5
279
100
AcDbEntity
  8
dimensions
  6
ByBlock
 62
    0
370
   -2
100
AcDbLine
 10
130
 20
-61.2
 11
130
 21
-37.68143448425785
  0
SOLID
  5
27A
100
AcDbEntity
  8
dimensions
  6
ByBlock
 62
    0
370
   -2
100
AcDbTrace
 10
130
 20
-61.2
 30
0
 11
129.5837153422272
 21
-58.7
 31
0
 12
130.4162846577728
 22
-58.7
 32
0
 13
130.4162846577728
 23
-58.7
 33
0
  0
SOLID
  5
27B
100
AcDbEntity
  8
dimensions
  6
ByBlock
 62
    0
370
   -2
100
AcDbTrace
 10
130
 20
-37.68143448425785
 30
0
 11
130.4162846577728
 21
-40.18143448425785
 31
0
 12
129.5837153422272
 22
-40.18143448425785
 32
0
 13
129.5837153422272
 23
-40.18143448425785
 33
0
  0
MTEXT
  5
27C
100
AcDbEntity
  8
dimensions
  6
CONTINUOUS
 62
    0
370
   -2
100
AcDbMText
 10
127.75
 20
-49.44071724212892
 30
0
 40
2.5
 41
5.972222222222534
 71
    5
 72
    1
  1
23,5
  7
standard
210
0
220
0
230
1
 50
90
 73
    2
 44
1
  0
LINE
  5
27D
100
AcDbEntity
  8
dimensions
  6
ByBlock
 62
    0
370
   -2
100
AcDbLine
 10
129.5
 20
-61.2
 11
129
 21
-61.2
  0
LINE
  5
27E
100
AcDbEntity
  8
dimensions
  6
ByBlock
 62
    0
370
   -2
100
AcDbLine
 10
129.5
 20
-37.68143448425785
 11
129
 21
-37.68143448425785
  0
ENDBLK
  5
107
330
105
100
AcDbEntity
  8
0
100
AcDbBlockEnd
  0
BLOCK
  5
109
330
108
100
AcDbEntity
  8
0
100
AcDbBlockBegin
  2
*D35
 70
    1
 10
0
 20
0
  3
*D35
  1

  0
LINE
  5
27F
100
AcDbEntity
  8
dimensions
  6
ByBlock
 62
    0
370
   -2
100
AcDbLine
 10
160
 20
35
 11
160
 21
50.48224965820595
  0
SOLID
  5
280
100
AcDbEntity
  8
dimensions
  6
ByBlock
 62
    0
370
   -2
100
AcDbTrace
 10
160
 20
40
 30
0
 11
160.4162846577728
 21
37.5
 31
0
 12
159.5837153422272
 22
37.5
 32
0
 13
159.5837153422272
 23
37.5
 33
0
  0
SOLID
  5
281
100
AcDbEntity
  8
dimensions
  6
ByBlock
 62
    0
370
   -2
100
AcDbTrace
 10
160
 20
45.48224965820595
 30
0
 11
159.5837153422272
 21
47.98224965820595
 31
0
 12
160.4162846577728
 22
47.98224965820595
 32
0
 13
160.4162846577728
 23
47.98224965820595
 33
0
  0
MTEXT
  5
282
100
AcDbEntity
  8
dimensions
  6
CONTINUOUS
 62
    0
370
   -2
100
AcDbMText
 10
157.75
 20
42.74112482910297
 30
0
 40
2.5
 41
4.027777777778088
 71
    5
 72
    1
  1
5,5
  7
standard
210
0
220
0
230
1
 50
90
 73
    2
 44
1
  0
LINE
  5
283
100
AcDbEntity
  8
dimensions
  6
ByBlock
 62
    0
370
   -2
100
AcDbLine
 10
159.5
 20
40
 11
159
 21
40
  0
LINE
  5
284
100
AcDbEntity
  8
dimensions
  6
ByBlock
 62
    0
370
   -2
100
AcDbLine
 10
159.5
 20
45.48224965820595
 11
159
 21
45.48224965820595
  0
ENDBLK
  5
10A
330
108
100
AcDbEntity
  8
0
100
AcDbBlockEnd
  0
BLOCK
  5
10C
330
10B
100
AcDbEntity
  8
0
100
AcDbBlockBegin
  2
*D31
 70
    1
 10
0
 20
0
  3
*D31
  1

  0
LINE
  5
285
100
AcDbEntity
  8
dimensions
  6
ByBlock
 62
    0
370
   -2
100
AcDbLine
 10
120
 20
35
 11
120
 21
48.32625541725109
  0
SOLID
  5
286
100
AcDbEntity
  8
dimensions
  6
ByBlock
 62
    0
370
   -2
100
AcDbTrace
 10
120
 20
40
 30
0
 11
120.4162846577728
 21
37.5
 31
0
 12
119.5837153422272
 22
37.5
 32
0
 13
119.5837153422272
 23
37.5
 33
0
  0
SOLID
  5
287
100
AcDbEntity
  8
dimensions
  6
ByBlock
 62
    0
370
   -2
100
AcDbTrace
 10
120
 20
43.32625541725109
 30
0
 11
119.5837153422272
 21
45.82625541725109
 31
0
 12
120.4162846577728
 22
45.82625541725109
 32
0
 13
120.4162846577728
 23
45.82625541725109
 33
0
  0
MTEXT
  5
288
100
AcDbEntity
  8
dimensions
  6
CONTINUOUS
 62
    0
370
   -2
100
AcDbMText
 10
117.75
 20
46.34014430614014
 30
0
 40
2.5
 41
4.027777777778088
 71
    5
 72
    1
  1
3,3
  7
standard
210
0
220
0
230
1
 50
90
 73
    2
 44
1
  0
LINE
  5
289
100
AcDbEntity
  8
dimensions
  6
ByBlock
 62
    0
370
   -2
100
AcDbLine
 10
119.5
 20
40
 11
119
 21
40
  0
LINE
  5
28A
100
AcDbEntity
  8
dimensions
  6
ByBlock
 62
    0
370
   -2
100
AcDbLine
 10
119.5
 20
43.32625541725109
 11
119
 21
43.32625541725109
  0
ENDBLK
  5
10D
330
10B
100
AcDbEntity
  8
0
100
AcDbBlockEnd
  0
BLOCK
  5
10F
330
10E
100
AcDbEntity
  8
0
100
AcDbBlockBegin
  2
*D29
 70
    1
 10
0
 20
0
  3
*D29
  1

  0
LINE
  5
28B
100
AcDbEntity
  8
dimensions
  6
ByBlock
 62
    0
370
   -2
100
AcDbLine
 10
104.0000000000001
 20
51
 11
196
 21
51
  0
SOLID
  5
28C
100
AcDbEntity
  8
dimensions
  6
ByBlock
 62
    0
370
   -2
100
AcDbTrace
 10
104.0000000000001
 20
51
 30
0
 11
106.5000000000001
 21
51.41628465777284
 31
0
 12
106.5000000000001
 22
50.58371534222716
 32
0
 13
106.5000000000001
 23
50.58371534222716
 33
0
  0
SOLID
  5
28D
100
AcDbEntity
  8
dimensions
  6
ByBlock
 62
    0
370
   -2
100
AcDbTrace
 10
196
 20
51
 30
0
 11
193.5
 21
50.58371534222716
 31
0
 12
193.5
 22
51.41628465777284
 32
0
 13
193.5
 23
51.41628465777284
 33
0
  0
MTEXT
  5
28E
100
AcDbEntity
  8
dimensions
  6
CONTINUOUS
 62
    0
370
   -2
100
AcDbMText
 10
150
 20
53.25
 30
0
 40
2.5
 41
3.055555555555711
 71
    5
 72
    1
  1
92
  7
standard
210
0
220
0
230
1
 50
0
 73
    2
 44
1
  0
LINE
  5
28F
100
AcDbEntity
  8
dimensions
  6
ByBlock
 62
    0
370
   -2
100
AcDbLine
 10
104.0000000000001
 20
40.5
 11
104.0000000000001
 21
52
  0
LINE
  5
290
100
AcDbEntity
  8
dimensions
  6
ByBlock
 62
    0
370
   -2
100
AcDbLine
 10
196
 20
40.5
 11
196
 21
52
  0
ENDBLK
  5
110
330
10E
100
AcDbEntity
  8
0
100
AcDbBlockEnd
  0
ENDSEC
  0
SECTION
  2
ENTITIES
  0
MTEXT
  5
291
100
AcDbEntity
  8
dimensions
  6
ByLayer
 62
  256
370
   -1
100
AcDbMText
 10
-74
 20
15
 30
0
 40
5
 41
22.08333333333333
 71
    7
 72
    1
  1
. 11
  7
unicode
210
0
220
0
230
1
 50
360
 73
    2
 44
1
  0
ARC
  5
292
100
AcDbEntity
  8
face
  6
ByLayer
 62
  256
370
   -1
100
AcDbCircle
 10
1.662896973159534e-14
 20
-155.53125
 40
160.46875
100
AcDbArc
 50
75.7499673021964
 51
104.2500326978036
  0
LINE
  5
293
100
AcDbEntity
  8
dimensions
  6
ByLayer
 62
  256
370
   -1
100
AcDbLine
 10
-39.50000000000001
 20
0
 11
39.50000000000004
 21
0
  0
LINE
  5
294
100
AcDbEntity
  8
0
  6
ByLayer
 62
  256
370
   -1
100
AcDbLine
 10
-30
 20
10
 11
-30
 21
-5
  0
LINE
  5
295
100
AcDbEntity
  8
0
  6
ByLayer
 62
  256
370
   -1
100
AcDbLine
 10
-20
 20
10
 11
-20
 21
-5
  0
LINE
  5
296
100
AcDbEntity
  8
0
  6
ByLayer
 62
  256
370
   -1
100
AcDbLine
 10
-10
 20
10
 11
-10
 21
-5
  0
LINE
  5
297
100
AcDbEntity
  8
0
  6
ByLayer
 62
  256
370
   -1
100
AcDbLine
 10
0
 20
10
 11
0
 21
-5
  0
LINE
  5
298
100
AcDbEntity
  8
0
  6
ByLayer
 62
  256
370
   -1
100
AcDbLine
 10
10
 20
10
 11
10
 21
-5
  0
LINE
  5
299
100
AcDbEntity
  8
0
  6
ByLayer
 62
  256
370
   -1
100
AcDbLine
 10
20
 20
10
 11
20
 21
-5
  0
LINE
  5
29A
100
AcDbEntity
  8
0
  6
ByLayer
 62
  256
370
   -1
100
AcDbLine
 10
30
 20
10
 11
30
 21
-5
  0
DIMENSION
  5
29B
100
AcDbEntity
  8
dimensions
  6
ByLayer
 62
  256
370
   -1
100
AcDbDimension
  2
*D1
 10
-30
 20
2.108274633140446
 30
0
 11
-32.25
 21
1.054137316570223
 31
0
 70
   32
 71
    5
  3
Standard
 53
0
210
0
220
0
230
1
100
AcDbAlignedDimension
 13
-30
 23
0
 33
0
 14
-30
 24
2.108274633140446
 34
0
 50
90
100
AcDbRotatedDimension
  0
DIMENSION
  5
29C
100
AcDbEntity
  8
dimensions
  6
ByLayer
 62
  256
370
   -1
100
AcDbDimension
  2
*D2
 10
-20
 20
3.686273302438343
 30
0
 11
-22.25
 21
1.843136651219172
 31
0
 70
   32
 71
    5
  3
Standard
 53
0
210
0
220
0
230
1
100
AcDbAlignedDimension
 13
-20
 23
0
 33
0
 14
-20
 24
3.686273302438343
 34
0
 50
90
100
AcDbRotatedDimension
  0
DIMENSION
  5
29D
100
AcDbEntity
  8
dimensions
  6
ByLayer
 62
  256
370
   -1
100
AcDbDimension
  2
*D3
 10
-10
 20
4.625609754936805
 30
0
 11
-12.25
 21
2.312804877468403
 31
0
 70
   32
 71
    5
  3
Standard
 53
0
210
0
220
0
230
1
100
AcDbAlignedDimension
 13
-10
 23
0
 33
0
 14
-10
 24
4.625609754936805
 34
0
 50
90
100
AcDbRotatedDimension
  0
DIMENSION
  5
29E
100
AcDbEntity
  8
dimensions
  6
ByLayer
 62
  256
370
   -1
100
AcDbDimension
  2
*D4
 10
-4.973799150320702e-16
 20
5
 30
0
 11
-2.25
 21
2.5
 31
0
 70
   32
 71
    5
  3
Standard
 53
0
210
0
220
0
230
1
100
AcDbAlignedDimension
 13
0
 23
0
 33
0
 14
0
 24
5
 34
0
 50
90
100
AcDbRotatedDimension
  0
DIMENSION
  5
29F
100
AcDbEntity
  8
dimensions
  6
ByLayer
 62
  256
370
   -1
100
AcDbDimension
  2
*D5
 10
10
 20
4.625609754936804
 30
0
 11
7.75
 21
2.312804877468402
 31
0
 70
   32
 71
    5
  3
Standard
 53
0
210
0
220
0
230
1
100
AcDbAlignedDimension
 13
10
 23
0
 33
0
 14
10
 24
4.625609754936804
 34
0
 50
90
100
AcDbRotatedDimension
  0
DIMENSION
  5
2A0
100
AcDbEntity
  8
dimensions
  6
ByLayer
 62
  256
370
   -1
100
AcDbDimension
  2
*D6
 10
20
 20
3.686273302438341
 30
0
 11
17.75
 21
1.843136651219171
 31
0
 70
   32
 71
    5
  3
Standard
 53
0
210
0
220
0
230
1
100
AcDbAlignedDimension
 13
20
 23
0
 33
0
 14
20
 24
3.686273302438341
 34
0
 50
90
100
AcDbRotatedDimension
  0
DIMENSION
  5
2A1
100
AcDbEntity
  8
dimensions
  6
ByLayer
 62
  256
370
   -1
100
AcDbDimension
  2
*D7
 10
30
 20
2.108274633140459
 30
0
 11
27.75
 21
1.05413731657023
 31
0
 70
   32
 71
    5
  3
Standard
 53
0
210
0
220
0
230
1
100
AcDbAlignedDimension
 13
30
 23
0
 33
0
 14
30
 24
2.108274633140459
 34
0
 50
90
100
AcDbRotatedDimension
  0
DIMENSION
  5
2A2
100
AcDbEntity
  8
dimensions
  6
ByLayer
 62
  256
370
   -1
100
AcDbDimension
  2
*D8
 10
39.49999999999996
 20
11
 30
0
 11
1.434862748010608e-14
 21
13.25
 31
0
 70
   32
 71
    5
  3
Standard
 53
0
210
0
220
0
230
1
100
AcDbAlignedDimension
 13
-39.49999999999994
 23
0
 33
0
 14
39.49999999999996
 24
3.552713678800501e-15
 34
0
100
AcDbRotatedDimension
  0
MTEXT
  5
2A3
100
AcDbEntity
  8
dimensions
  6
ByLayer
 62
  256
370
   -1
100
AcDbMText
 10
0
 20
20
 30
0
 40
2.5
 41
54.51388888888901
 71
    8
 72
    1
  1
  i i 
  7
cyrillic_ii
210
0
220
0
230
1
 50
0
 73
    2
 44
1
  0
LINE
  5
2A4
100
AcDbEntity
  8
dimensions
  6
ByLayer
 62
  256
370
   -1
100
AcDbLine
 10
-28
 20
20
 11
28
 21
20
  0
MTEXT
  5
2A5
100
AcDbEntity
  8
dimensions
  6
ByLayer
 62
  256
370
   -1
100
AcDbMText
 10
0
 20
-20
 30
0
 40
2.5
 41
41.6666666666669
 71
    8
 72
    1
  1
  i 
  7
cyrillic_ii
210
0
220
0
230
1
 50
0
 73
    2
 44
1
  0
LINE
  5
2A6
100
AcDbEntity
  8
dimensions
  6
ByLayer
 62
  256
370
   -1
100
AcDbLine
 10
-21
 20
-20
 11
21
 21
-20
  0
LINE
  5
2A7
100
AcDbEntity
  8
dimensions
  6
ByLayer
 62
  256
370
   -1
100
AcDbLine
 10
-26.5
 20
-40.00000000000001
 11
26.5
 21
-40
  0
DIMENSION
  5
2A8
100
AcDbEntity
  8
dimensions
  6
ByLayer
 62
  256
370
   -1
100
AcDbDimension
  2
*D9
 10
39.49999999999996
 20
-29
 30
0
 11
-3.414940913896424e-15
 21
-26.75
 31
0
 70
   32
 71
    5
  3
Standard
 53
0
210
0
220
0
230
1
100
AcDbAlignedDimension
 13
-26.49999999999993
 23
-40.00000000000001
 33
0
 14
26.49999999999993
 24
-40
 34
0
100
AcDbRotatedDimension
  0
ARC
  5
2A9
100
AcDbEntity
  8
face
  6
ByLayer
 62
  256
370
   -1
100
AcDbCircle
 10
-2.492572224574674e-15
 20
-144.3437499999999
 40
107.6562499999999
100
AcDbArc
 50
75.7499673021964
 51
104.2500326978036
  0
DIMENSION
  5
2AA
100
AcDbEntity
  8
dimensions
  6
ByLayer
 62
  256
370
   -1
100
AcDbDimension
  2
*D10
 10
-20
 20
-38.56157681348195
 30
0
 11
-22.25
 21
-39.28078840674098
 31
0
 70
   32
 71
    5
  3
Standard
 53
0
210
0
220
0
230
1
100
AcDbAlignedDimension
 13
-20
 23
-40
 33
0
 14
-20
 24
-38.56157681348196
 34
0
 50
90
100
AcDbRotatedDimension
  0
DIMENSION
  5
2AB
100
AcDbEntity
  8
dimensions
  6
ByLayer
 62
  256
370
   -1
100
AcDbDimension
  2
*D11
 10
-10
 20
-37.15294739052934
 30
0
 11
-12.25
 21
-38.57647369526467
 31
0
 70
   32
 71
    5
  3
Standard
 53
0
210
0
220
0
230
1
100
AcDbAlignedDimension
 13
-10
 23
-40
 33
0
 14
-10
 24
-37.15294739052934
 34
0
 50
90
100
AcDbRotatedDimension
  0
DIMENSION
  5
2AC
100
AcDbEntity
  8
dimensions
  6
ByLayer
 62
  256
370
   -1
100
AcDbDimension
  2
*D12
 10
-4.050093593832572e-15
 20
-36.68749999999999
 30
0
 11
-2.250000000000004
 21
-38.34375
 31
0
 70
   32
 71
    5
  3
Standard
 53
0
210
0
220
0
230
1
100
AcDbAlignedDimension
 13
0
 23
-40
 33
0
 14
4.099471873960685e-15
 24
-36.6875
 34
0
 50
90
100
AcDbRotatedDimension
  0
DIMENSION
  5
2AD
100
AcDbEntity
  8
dimensions
  6
ByLayer
 62
  256
370
   -1
100
AcDbDimension
  2
*D13
 10
10
 20
-37.15294739052934
 30
0
 11
7.750000000000004
 21
-38.57647369526467
 31
0
 70
   32
 71
    5
  3
Standard
 53
0
210
0
220
0
230
1
100
AcDbAlignedDimension
 13
10
 23
-40
 33
0
 14
10
 24
-37.15294739052934
 34
0
 50
90
100
AcDbRotatedDimension
  0
DIMENSION
  5
2AE
100
AcDbEntity
  8
dimensions
  6
ByLayer
 62
  256
370
   -1
100
AcDbDimension
  2
*D14
 10
20
 20
-38.56157681348194
 30
0
 11
17.75
 21
-39.28078840674097
 31
0
 70
   32
 71
    5
  3
Standard
 53
0
210
0
220
0
230
1
100
AcDbAlignedDimension
 13
20
 23
-40
 33
0
 14
20
 24
-38.56157681348194
 34
0
 50
90
100
AcDbRotatedDimension
  0
MTEXT
  5
2AF
100
AcDbEntity
  8
dimensions
  6
ByLayer
 62
  256
370
   -1
100
AcDbMText
 10
0
 20
60
 30
0
 40
2.5
 41
57.70833333333346
 71
    8
 72
    1
  1
  i i 
  7
cyrillic_ii
210
0
220
0
230
1
 50
0
 73
    2
 44
1
  0
LINE
  5
2B0
100
AcDbEntity
  8
dimensions
  6
ByLayer
 62
  256
370
   -1
100
AcDbLine
 10
-30
 20
60
 11
30
 21
60
  0
ARC
  5
2B1
100
AcDbEntity
  8
face
  6
ByLayer
 62
  256
370
   -1
100
AcDbCircle
 10
5.999193252351975e-14
 20
-243.5000000000001
 40
292.5000000000001
100
AcDbArc
 50
75.74996730219641
 51
104.2500326978036
  0
LINE
  5
2B2
100
AcDbEntity
  8
dimensions
  6
ByLayer
 62
  256
370
   -1
100
AcDbLine
 10
-71.99999999999997
 20
39.99999999999997
 11
72.00000000000007
 21
40
  0
DIMENSION
  5
2B3
100
AcDbEntity
  8
dimensions
  6
ByLayer
 62
  256
370
   -1
100
AcDbDimension
  2
*D15
 10
39.49999999999995
 20
51
 30
0
 11
4.277033691051009e-14
 21
53.25
 31
0
 70
   32
 71
    5
  3
Standard
 53
0
210
0
220
0
230
1
100
AcDbAlignedDimension
 13
-71.9999999999999
 23
39.99999999999997
 33
0
 14
72
 24
40
 34
0
100
AcDbRotatedDimension
  0
LINE
  5
2B4
100
AcDbEntity
  8
0
  6
ByLayer
 62
  256
370
   -1
100
AcDbLine
 10
-40
 20
10
 11
-40
 21
-5
  0
LINE
  5
2B5
100
AcDbEntity
  8
0
  6
ByLayer
 62
  256
370
   -1
100
AcDbLine
 10
-50
 20
10
 11
-50
 21
-5
  0
LINE
  5
2B6
100
AcDbEntity
  8
0
  6
ByLayer
 62
  256
370
   -1
100
AcDbLine
 10
-60
 20
10
 11
-60
 21
-5
  0
LINE
  5
2B7
100
AcDbEntity
  8
0
  6
ByLayer
 62
  256
370
   -1
100
AcDbLine
 10
-70
 20
10
 11
-70
 21
-5
  0
LINE
  5
2B8
100
AcDbEntity
  8
0
  6
ByLayer
 62
  256
370
   -1
100
AcDbLine
 10
40
 20
10
 11
40
 21
-5
  0
LINE
  5
2B9
100
AcDbEntity
  8
0
  6
ByLayer
 62
  256
370
   -1
100
AcDbLine
 10
50
 20
10
 11
50
 21
-5
  0
LINE
  5
2BA
100
AcDbEntity
  8
0
  6
ByLayer
 62
  256
370
   -1
100
AcDbLine
 10
60
 20
10
 11
60
 21
-5
  0
LINE
  5
2BB
100
AcDbEntity
  8
0
  6
ByLayer
 62
  256
370
   -1
100
AcDbLine
 10
70
 20
10
 11
70
 21
-5
  0
MTEXT
  5
2BC
100
AcDbEntity
  8
dimensions
  6
ByLayer
 62
  256
370
   -1
100
AcDbMText
 10
35
 20
-40
 30
0
 40
3.5
 41
16.04166666666667
 71
    7
 72
    1
  1
R 107,7
  7
unicode
210
0
220
0
230
1
 50
360
 73
    2
 44
1
  0
MTEXT
  5
2BD
100
AcDbEntity
  8
dimensions
  6
ByLayer
 62
  256
370
   -1
100
AcDbMText
 10
49
 20
0
 30
0
 40
3.5
 41
16.04166666666667
 71
    7
 72
    1
  1
R 160,5
  7
unicode
210
0
220
0
230
1
 50
360
 73
    2
 44
1
  0
MTEXT
  5
2BE
100
AcDbEntity
  8
dimensions
  6
ByLayer
 62
  256
370
   -1
100
AcDbMText
 10
80
 20
40
 30
0
 40
3.5
 41
16.81944444444445
 71
    7
 72
    1
  1
R 292,5
  7
unicode
210
0
220
0
230
1
 50
360
 73
    2
 44
1
  0
DIMENSION
  5
2BF
100
AcDbEntity
  8
dimensions
  6
ByLayer
 62
  256
370
   -1
100
AcDbDimension
  2
*D16
 10
-60
 20
42.7800202598847
 30
0
 11
-62.25
 21
41.39001012994235
 31
0
 70
   32
 71
    5
 72
    0
  3
Standard
 53
0
210
0
220
0
230
1
100
AcDbAlignedDimension
 13
-60
 23
40
 33
0
 14
-60
 24
42.7800202598847
 34
0
 50
90
100
AcDbRotatedDimension
  0
DIMENSION
  5
2C0
100
AcDbEntity
  8
dimensions
  6
ByLayer
 62
  256
370
   -1
100
AcDbDimension
  2
*D17
 10
-50.00000000000001
 20
44.69481258343288
 30
0
 11
-52.25000000000001
 21
42.34740629171642
 31
0
 70
   32
 71
    5
 72
    0
  3
Standard
 53
0
210
0
220
0
230
1
100
AcDbAlignedDimension
 13
-50
 23
39.99999999999997
 33
0
 14
-50.00000000000001
 24
44.69481258343288
 34
0
 50
90
100
AcDbRotatedDimension
  0
DIMENSION
  5
2C1
100
AcDbEntity
  8
dimensions
  6
ByLayer
 62
  256
370
   -1
100
AcDbDimension
  2
*D18
 10
-40
 20
46.25204917308178
 30
0
 11
-42.25
 21
43.12602458654089
 31
0
 70
   32
 71
    5
 72
    0
  3
Standard
 53
0
210
0
220
0
230
1
100
AcDbAlignedDimension
 13
-40
 23
40
 33
0
 14
-40
 24
46.25204917308178
 34
0
 50
90
100
AcDbRotatedDimension
  0
DIMENSION
  5
2C2
100
AcDbEntity
  8
dimensions
  6
ByLayer
 62
  256
370
   -1
100
AcDbDimension
  2
*D19
 10
-20
 20
48.3154382482188
 30
0
 11
-22.25
 21
44.15771912410941
 31
0
 70
   32
 71
    5
  3
Standard
 53
0
210
0
220
0
230
1
100
AcDbAlignedDimension
 13
-20.00000000000001
 23
40
 33
0
 14
-20
 24
48.3154382482188
 34
0
 50
90
100
AcDbRotatedDimension
  0
DIMENSION
  5
2C3
100
AcDbEntity
  8
dimensions
  6
ByLayer
 62
  256
370
   -1
100
AcDbDimension
  2
*D20
 10
-30
 20
47.45747111906235
 30
0
 11
-32.25
 21
43.72873555953117
 31
0
 70
   32
 71
    5
  3
Standard
 53
0
210
0
220
0
230
1
100
AcDbAlignedDimension
 13
-30.00000000000001
 23
40
 33
0
 14
-30
 24
47.45747111906235
 34
0
 50
90
100
AcDbRotatedDimension
  0
DIMENSION
  5
2C4
100
AcDbEntity
  8
dimensions
  6
ByLayer
 62
  256
370
   -1
100
AcDbDimension
  2
*D21
 10
-9.999999999999996
 20
48.82900985020287
 30
0
 11
-12.25
 21
44.41450492510143
 31
0
 70
   32
 71
    5
  3
Standard
 53
0
210
0
220
0
230
1
100
AcDbAlignedDimension
 13
-10.00000000000001
 23
40
 33
0
 14
-9.999999999999996
 24
48.82900985020287
 34
0
 50
90
100
AcDbRotatedDimension
  0
DIMENSION
  5
2C5
100
AcDbEntity
  8
dimensions
  6
ByLayer
 62
  256
370
   -1
100
AcDbDimension
  2
*D22
 10
0
 20
49
 30
0
 11
-2.25
 21
44.5
 31
0
 70
   32
 71
    5
  3
Standard
 53
0
210
0
220
0
230
1
100
AcDbAlignedDimension
 13
-1.32032053005252e-14
 23
40
 33
0
 14
0
 24
49
 34
0
 50
90
100
AcDbRotatedDimension
  0
DIMENSION
  5
2C6
100
AcDbEntity
  8
dimensions
  6
ByLayer
 62
  256
370
   -1
100
AcDbDimension
  2
*D23
 10
10
 20
48.82900985020288
 30
0
 11
7.750000000000004
 21
44.41450492510144
 31
0
 70
   32
 71
    5
  3
Standard
 53
0
210
0
220
0
230
1
100
AcDbAlignedDimension
 13
9.999999999999988
 23
40
 33
0
 14
10
 24
48.82900985020288
 34
0
 50
90
100
AcDbRotatedDimension
  0
DIMENSION
  5
2C7
100
AcDbEntity
  8
dimensions
  6
ByLayer
 62
  256
370
   -1
100
AcDbDimension
  2
*D24
 10
19.99999999999999
 20
48.31543824821882
 30
0
 11
17.74999999999999
 21
44.15771912410941
 31
0
 70
   32
 71
    5
  3
Standard
 53
0
210
0
220
0
230
1
100
AcDbAlignedDimension
 13
19.99999999999999
 23
40
 33
0
 14
20
 24
48.31543824821881
 34
0
 50
90
100
AcDbRotatedDimension
  0
DIMENSION
  5
2C8
100
AcDbEntity
  8
dimensions
  6
ByLayer
 62
  256
370
   -1
100
AcDbDimension
  2
*D25
 10
30
 20
47.45747111906235
 30
0
 11
27.75
 21
43.72873555953117
 31
0
 70
   32
 71
    5
  3
Standard
 53
0
210
0
220
0
230
1
100
AcDbAlignedDimension
 13
29.99999999999999
 23
40
 33
0
 14
30
 24
47.45747111906235
 34
0
 50
90
100
AcDbRotatedDimension
  0
DIMENSION
  5
2C9
100
AcDbEntity
  8
dimensions
  6
ByLayer
 62
  256
370
   -1
100
AcDbDimension
  2
*D26
 10
40
 20
46.25204917308181
 30
0
 11
37.75
 21
43.12602458654091
 31
0
 70
   32
 71
    5
 72
    0
  3
Standard
 53
0
210
0
220
0
230
1
100
AcDbAlignedDimension
 13
40
 23
40
 33
0
 14
40
 24
46.25204917308181
 34
0
 50
90
100
AcDbRotatedDimension
  0
DIMENSION
  5
2CA
100
AcDbEntity
  8
dimensions
  6
ByLayer
 62
  256
370
   -1
100
AcDbDimension
  2
*D27
 10
50
 20
44.6948125834329
 30
0
 11
47.75
 21
42.34740629171645
 31
0
 70
   32
 71
    5
 72
    0
  3
Standard
 53
0
210
0
220
0
230
1
100
AcDbAlignedDimension
 13
50
 23
40
 33
0
 14
50
 24
44.6948125834329
 34
0
 50
90
100
AcDbRotatedDimension
  0
DIMENSION
  5
2CB
100
AcDbEntity
  8
dimensions
  6
ByLayer
 62
  256
370
   -1
100
AcDbDimension
  2
*D28
 10
60.00000000000001
 20
42.78002025988474
 30
0
 11
57.75000000000001
 21
41.39001012994237
 31
0
 70
   32
 71
    5
 72
    0
  3
Standard
 53
0
210
0
220
0
230
1
100
AcDbAlignedDimension
 13
60
 23
40
 33
0
 14
60.00000000000001
 24
42.78002025988474
 34
0
 50
90
100
AcDbRotatedDimension
  0
MTEXT
  5
2CC
100
AcDbEntity
  8
dimensions
  6
ByLayer
 62
  256
370
   -1
100
AcDbMText
 10
150
 20
60
 30
0
 40
2.5
 41
42.50000000000011
 71
    8
 72
    1
  1
  
  7
cyrillic_ii
210
0
220
0
230
1
 50
0
 73
    2
 44
1
  0
LINE
  5
2CD
100
AcDbEntity
  8
dimensions
  6
ByLayer
 62
  256
370
   -1
100
AcDbLine
 10
128
 20
60
 11
172
 21
60
  0
ARC
  5
2CE
100
AcDbEntity
  8
face
  6
ByLayer
 62
  256
370
   -1
100
AcDbCircle
 10
150
 20
-141.1250000000001
 40
186.8750000000001
100
AcDbArc
 50
75.74996730219638
 51
104.2500326978036
  0
LINE
  5
2CF
100
AcDbEntity
  8
dimensions
  6
ByLayer
 62
  256
370
   -1
100
AcDbLine
 10
104
 20
40
 11
196.0000000000001
 21
40
  0
DIMENSION
  5
2D0
100
AcDbEntity
  8
dimensions
  6
ByLayer
 62
  256
370
   -1
100
AcDbDimension
  2
*D29
 10
189.4999999999999
 20
51
 30
0
 11
150
 21
53.25
 31
0
 70
   32
 71
    5
  3
Standard
 53
0
210
0
220
0
230
1
100
AcDbAlignedDimension
 13
104.0000000000001
 23
40
 33
0
 14
196
 24
40
 34
0
100
AcDbRotatedDimension
  0
LINE
  5
2D1
100
AcDbEntity
  8
0
  6
ByLayer
 62
  256
370
   -1
100
AcDbLine
 10
120
 20
50
 11
120
 21
35
  0
LINE
  5
2D2
100
AcDbEntity
  8
0
  6
ByLayer
 62
  256
370
   -1
100
AcDbLine
 10
130
 20
50
 11
130
 21
35
  0
LINE
  5
2D3
100
AcDbEntity
  8
0
  6
ByLayer
 62
  256
370
   -1
100
AcDbLine
 10
140
 20
50
 11
140
 21
35
  0
LINE
  5
2D4
100
AcDbEntity
  8
0
  6
ByLayer
 62
  256
370
   -1
100
AcDbLine
 10
150
 20
50
 11
150
 21
35
  0
LINE
  5
2D5
100
AcDbEntity
  8
0
  6
ByLayer
 62
  256
370
   -1
100
AcDbLine
 10
160
 20
50
 11
160
 21
35
  0
LINE
  5
2D6
100
AcDbEntity
  8
0
  6
ByLayer
 62
  256
370
   -1
100
AcDbLine
 10
170
 20
50
 11
170
 21
35
  0
LINE
  5
2D7
100
AcDbEntity
  8
0
  6
ByLayer
 62
  256
370
   -1
100
AcDbLine
 10
180
 20
50
 11
180
 21
35
  0
LINE
  5
2D8
100
AcDbEntity
  8
0
  6
ByLayer
 62
  256
370
   -1
100
AcDbLine
 10
110
 20
50
 11
110
 21
35
  0
LINE
  5
2D9
100
AcDbEntity
  8
0
  6
ByLayer
 62
  256
370
   -1
100
AcDbLine
 10
190
 20
50
 11
190
 21
35
  0
DIMENSION
  5
2DA
100
AcDbEntity
  8
dimensions
  6
ByLayer
 62
  256
370
   -1
100
AcDbDimension
  2
*D30
 10
110
 20
41.4188731510866
 30
0
 11
107.75
 21
40.7094365755433
 31
0
 70
   32
 71
    5
 72
    0
  3
Standard
 53
0
210
0
220
0
230
1
100
AcDbAlignedDimension
 13
110
 23
40
 33
0
 14
110
 24
41.4188731510866
 34
0
 50
90
100
AcDbRotatedDimension
  0
DIMENSION
  5
2DB
100
AcDbEntity
  8
dimensions
  6
ByLayer
 62
  256
370
   -1
100
AcDbDimension
  2
*D31
 10
120
 20
43.32625541725109
 30
0
 11
117.75
 21
41.66312770862555
 31
0
 70
   32
 71
    5
  3
Standard
 53
0
210
0
220
0
230
1
100
AcDbAlignedDimension
 13
120
 23
40
 33
0
 14
120
 24
43.32625541725109
 34
0
 50
90
100
AcDbRotatedDimension
  0
DIMENSION
  5
2DC
100
AcDbEntity
  8
dimensions
  6
ByLayer
 62
  256
370
   -1
100
AcDbDimension
  2
*D32
 10
130
 20
44.67668359032701
 30
0
 11
127.75
 21
42.3383417951635
 31
0
 70
   32
 71
    5
  3
Standard
 53
0
210
0
220
0
230
1
100
AcDbAlignedDimension
 13
130
 23
40
 33
0
 14
130
 24
44.67668359032701
 34
0
 50
90
100
AcDbRotatedDimension
  0
DIMENSION
  5
2DD
100
AcDbEntity
  8
dimensions
  6
ByLayer
 62
  256
370
   -1
100
AcDbDimension
  2
*D33
 10
140
 20
50
 30
0
 11
137.75
 21
42.74112482910295
 31
0
 70
   32
 71
    5
  3
Standard
 53
0
210
0
220
0
230
1
100
AcDbAlignedDimension
 13
140
 23
40
 33
0
 14
140
 24
45.4822496582059
 34
0
 50
90
100
AcDbRotatedDimension
  0
DIMENSION
  5
2DE
100
AcDbEntity
  8
dimensions
  6
ByLayer
 62
  256
370
   -1
100
AcDbDimension
  2
*D34
 10
150
 20
45.74999999999998
 30
0
 11
147.75
 21
42.87499999999999
 31
0
 70
   32
 71
    5
  3
Standard
 53
0
210
0
220
0
230
1
100
AcDbAlignedDimension
 13
150
 23
40
 33
0
 14
150
 24
45.74999999999998
 34
0
 50
90
100
AcDbRotatedDimension
  0
DIMENSION
  5
2DF
100
AcDbEntity
  8
dimensions
  6
ByLayer
 62
  256
370
   -1
100
AcDbDimension
  2
*D35
 10
160
 20
45.48224965820595
 30
0
 11
157.75
 21
42.74112482910297
 31
0
 70
   32
 71
    5
  3
Standard
 53
0
210
0
220
0
230
1
100
AcDbAlignedDimension
 13
160
 23
40
 33
0
 14
160
 24
45.48224965820595
 34
0
 50
90
100
AcDbRotatedDimension
  0
DIMENSION
  5
2E0
100
AcDbEntity
  8
dimensions
  6
ByLayer
 62
  256
370
   -1
100
AcDbDimension
  2
*D36
 10
180
 20
43.32625541725108
 30
0
 11
177.75
 21
41.66312770862554
 31
0
 70
   32
 71
    5
  3
Standard
 53
0
210
0
220
0
230
1
100
AcDbAlignedDimension
 13
180
 23
40
 33
0
 14
180
 24
43.32625541725108
 34
0
 50
90
100
AcDbRotatedDimension
  0
DIMENSION
  5
2E1
100
AcDbEntity
  8
dimensions
  6
ByLayer
 62
  256
370
   -1
100
AcDbDimension
  2
*D37
 10
170
 20
44.67668359032704
 30
0
 11
167.75
 21
42.33834179516352
 31
0
 70
   32
 71
    5
  3
Standard
 53
0
210
0
220
0
230
1
100
AcDbAlignedDimension
 13
170
 23
40
 33
0
 14
170
 24
44.67668359032704
 34
0
 50
90
100
AcDbRotatedDimension
  0
DIMENSION
  5
2E2
100
AcDbEntity
  8
dimensions
  6
ByLayer
 62
  256
370
   -1
100
AcDbDimension
  2
*D38
 10
190
 20
41.4188731510866
 30
0
 11
187.75
 21
40.7094365755433
 31
0
 70
   32
 71
    5
 72
    0
  3
Standard
 53
0
210
0
220
0
230
1
100
AcDbAlignedDimension
 13
190
 23
40
 33
0
 14
190
 24
41.4188731510866
 34
0
 50
90
100
AcDbRotatedDimension
  0
MTEXT
  5
2E3
100
AcDbEntity
  8
dimensions
  6
ByLayer
 62
  256
370
   -1
100
AcDbMText
 10
205
 20
40
 30
0
 40
3.5
 41
16.04166666666667
 71
    7
 72
    1
  1
R 186,9
  7
unicode
210
0
220
0
230
1
 50
360
 73
    2
 44
1
  0
LINE
  5
2E4
100
AcDbEntity
  8
0
  6
ByLayer
 62
  256
370
   -1
100
AcDbLine
 10
100
 20
50
 11
100
 21
35
  0
LINE
  5
2E5
100
AcDbEntity
  8
0
  6
ByLayer
 62
  256
370
   -1
100
AcDbLine
 10
90
 20
50
 11
90
 21
35
  0
LINE
  5
2E6
100
AcDbEntity
  8
0
  6
ByLayer
 62
  256
370
   -1
100
AcDbLine
 10
80
 20
50
 11
80
 21
35
  0
LINE
  5
2E7
100
AcDbEntity
  8
0
  6
ByLayer
 62
  256
370
   -1
100
AcDbLine
 10
200
 20
50
 11
200
 21
35
  0
LINE
  5
2E8
100
AcDbEntity
  8
0
  6
ByLayer
 62
  256
370
   -1
100
AcDbLine
 10
210
 20
50
 11
210
 21
35
  0
LINE
  5
2E9
100
AcDbEntity
  8
0
  6
ByLayer
 62
  256
370
   -1
100
AcDbLine
 10
220
 20
50
 11
220
 21
35
  0
ARC
  5
2EA
100
AcDbEntity
  8
face
  6
ByLayer
 62
  256
370
   -1
100
AcDbCircle
 10
150.0000000000001
 20
-170.7450000000003
 40
135.7450000000003
100
AcDbArc
 50
54.66962759684158
 51
125.3303724031584
  0
LINE
  5
2EB
100
AcDbEntity
  8
dimensions
  6
ByLayer
 62
  256
370
   -1
100
AcDbLine
 10
138
 20
-20
 11
162
 21
-20
  0
MTEXT
  5
2EC
100
AcDbEntity
  8
dimensions
  6
ByLayer
 62
  256
370
   -1
100
AcDbMText
 10
238
 20
-60
 30
0
 40
3.5
 41
16.04166666666667
 71
    7
 72
    1
  1
R 135,7
  7
unicode
210
0
220
0
230
1
 50
360
 73
    2
 44
1
  0
MTEXT
  5
2ED
100
AcDbEntity
  8
dimensions
  6
ByLayer
 62
  256
370
   -1
100
AcDbMText
 10
150
 20
-20
 30
0
 40
2.5
 41
23.40277777777789
 71
    8
 72
    1
  1
 
  7
cyrillic_ii
210
0
220
0
230
1
 50
0
 73
    2
 44
1
  0
MTEXT
  5
2EE
100
AcDbEntity
  8
dimensions
  6
ByLayer
 62
  256
370
   -1
100
AcDbMText
 10
205
 20
0
 30
0
 40
3.5
 41
16.04166666666667
 71
    7
 72
    1
  1
R 186,9
  7
unicode
210
0
220
0
230
1
 50
360
 73
    2
 44
1
  0
LINE
  5
2EF
100
AcDbEntity
  8
dimensions
  6
ByLayer
 62
  256
370
   -1
100
AcDbLine
 10
131
 20
20
 11
169
 21
20
  0
MTEXT
  5
2F0
100
AcDbEntity
  8
dimensions
  6
ByLayer
 62
  256
370
   -1
100
AcDbMText
 10
150
 20
20
 30
0
 40
2.5
 41
35.83333333333334
 71
    8
 72
    1
  1
  
  7
cyrillic_ii
210
0
220
0
230
1
 50
0
 73
    2
 44
1
  0
ARC
  5
2F1
100
AcDbEntity
  8
face
  6
ByLayer
 62
  256
370
   -1
100
AcDbCircle
 10
150
 20
-206.7187500000004
 40
213.2812500000004
100
AcDbArc
 50
75.7499673021964
 51
104.2500326978036
  0
LINE
  5
2F2
100
AcDbEntity
  8
dimensions
  6
ByLayer
 62
  256
370
   -1
100
AcDbLine
 10
97.49999999999991
 20
-1.110223024625157e-16
 11
202.5000000000001
 21
-1.387778780781446e-16
  0
DIMENSION
  5
2F3
100
AcDbEntity
  8
dimensions
  6
ByLayer
 62
  256
370
   -1
100
AcDbDimension
  2
*D39
 10
189.4999999999999
 20
11
 30
0
 11
150
 21
13.25
 31
0
 70
   32
 71
    5
  3
Standard
 53
0
210
0
220
0
230
1
100
AcDbAlignedDimension
 13
97.50000000000001
 23
-1.110223024625157e-16
 33
0
 14
202.5
 24
-1.387778780781446e-16
 34
0
100
AcDbRotatedDimension
  0
DIMENSION
  5
2F4
100
AcDbEntity
  8
dimensions
  6
ByLayer
 62
  256
370
   -1
100
AcDbDimension
  2
*D40
 10
110
 20
2.778007973870565
 30
0
 11
107.75
 21
1.389003986935283
 31
0
 70
   32
 71
    5
 72
    0
  3
Standard
 53
0
210
0
220
0
230
1
100
AcDbAlignedDimension
 13
110
 23
0
 33
0
 14
110
 24
2.778007973870565
 34
0
 50
90
100
AcDbRotatedDimension
  0
DIMENSION
  5
2F5
100
AcDbEntity
  8
dimensions
  6
ByLayer
 62
  256
370
   -1
100
AcDbDimension
  2
*D41
 10
120
 20
4.442069286065689
 30
0
 11
117.75
 21
2.221034643032845
 31
0
 70
   32
 71
    5
  3
Standard
 53
0
210
0
220
0
230
1
100
AcDbAlignedDimension
 13
120
 23
0
 33
0
 14
120
 24
4.442069286065689
 34
0
 50
90
100
AcDbRotatedDimension
  0
DIMENSION
  5
2F6
100
AcDbEntity
  8
dimensions
  6
ByLayer
 62
  256
370
   -1
100
AcDbDimension
  2
*D42
 10
130
 20
5.622700502633869
 30
0
 11
127.75
 21
2.811350251316935
 31
0
 70
   32
 71
    5
  3
Standard
 53
0
210
0
220
0
230
1
100
AcDbAlignedDimension
 13
130
 23
0
 33
0
 14
130
 24
5.622700502633869
 34
0
 50
90
100
AcDbRotatedDimension
  0
DIMENSION
  5
2F7
100
AcDbEntity
  8
dimensions
  6
ByLayer
 62
  256
370
   -1
100
AcDbDimension
  2
*D43
 10
140
 20
6.327938783380276
 30
0
 11
137.75
 21
3.163969391690139
 31
0
 70
   32
 71
    5
  3
Standard
 53
0
210
0
220
0
230
1
100
AcDbAlignedDimension
 13
140
 23
0
 33
0
 14
140
 24
6.327938783380276
 34
0
 50
90
100
AcDbRotatedDimension
  0
DIMENSION
  5
2F8
100
AcDbEntity
  8
dimensions
  6
ByLayer
 62
  256
370
   -1
100
AcDbDimension
  2
*D44
 10
150
 20
6.562499999999957
 30
0
 11
147.75
 21
3.2504146250015
 31
0
 70
   32
 71
    5
  3
Standard
 53
0
210
0
220
0
230
1
100
AcDbAlignedDimension
 13
150
 23
0
 33
0
 14
150.0421279770807
 24
6.500829250002997
 34
0
 50
90
100
AcDbRotatedDimension
  0
DIMENSION
  5
2F9
100
AcDbEntity
  8
dimensions
  6
ByLayer
 62
  256
370
   -1
100
AcDbDimension
  2
*D45
 10
160.054899465591
 20
6.31402381178452
 30
0
 11
157.804899465591
 21
3.16396939169016
 31
0
 70
   32
 71
    5
  3
Standard
 53
0
210
0
220
0
230
1
100
AcDbAlignedDimension
 13
160
 23
0
 33
0
 14
160
 24
6.327938783380318
 34
0
 50
90
100
AcDbRotatedDimension
  0
DIMENSION
  5
2FA
100
AcDbEntity
  8
dimensions
  6
ByLayer
 62
  256
370
   -1
100
AcDbDimension
  2
*D46
 10
170
 20
5.622700502633833
 30
0
 11
167.75
 21
2.811350251316917
 31
0
 70
   32
 71
    5
  3
Standard
 53
0
210
0
220
0
230
1
100
AcDbAlignedDimension
 13
170
 23
0
 33
0
 14
170
 24
5.622700502633833
 34
0
 50
90
100
AcDbRotatedDimension
  0
DIMENSION
  5
2FB
100
AcDbEntity
  8
dimensions
  6
ByLayer
 62
  256
370
   -1
100
AcDbDimension
  2
*D47
 10
180
 20
4.442069286065689
 30
0
 11
177.75
 21
2.221034643032845
 31
0
 70
   32
 71
    5
  3
Standard
 53
0
210
0
220
0
230
1
100
AcDbAlignedDimension
 13
180
 23
0
 33
0
 14
180
 24
4.442069286065689
 34
0
 50
90
100
AcDbRotatedDimension
  0
DIMENSION
  5
2FC
100
AcDbEntity
  8
dimensions
  6
ByLayer
 62
  256
370
   -1
100
AcDbDimension
  2
*D48
 10
190
 20
2.778007973870558
 30
0
 11
187.75
 21
1.389003986935279
 31
0
 70
   32
 71
    5
 72
    0
  3
Standard
 53
0
210
0
220
0
230
1
100
AcDbAlignedDimension
 13
190
 23
0
 33
0
 14
190
 24
2.778007973870558
 34
0
 50
90
100
AcDbRotatedDimension
  0
LINE
  5
2FD
100
AcDbEntity
  8
face
  6
ByLayer
 62
  256
370
   -1
100
AcDbLine
 10
228.5
 20
-60.00000000000001
 11
228.5000000000001
 21
-61.22803772930862
  0
LINE
  5
2FE
100
AcDbEntity
  8
face
  6
ByLayer
 62
  256
370
   -1
100
AcDbLine
 10
71.49999999999996
 20
-60.00000000000001
 11
71.50000000000001
 21
-61.22803772930877
  0
ARC
  5
2FF
100
AcDbEntity
  8
face
  6
ByLayer
 62
  256
370
   -1
100
AcDbCircle
 10
150.0000000000001
 20
-170.7450000000003
 40
134.7450000000003
100
AcDbArc
 50
54.36765362648789
 51
125.6323463735122
  0
LINE
  5
300
100
AcDbEntity
  8
dimensions
  6
ByLayer
 62
  256
370
   -1
100
AcDbLine
 10
71.50000000000004
 20
-61.22803772930878
 11
228.5000000000001
 21
-61.22803772930862
  0
DIMENSION
  5
301
100
AcDbEntity
  8
dimensions
  6
ByLayer
 62
  256
370
   -1
100
AcDbDimension
  2
*D49
 10
220
 20
-55.60936248927945
 30
0
 11
217.75
 21
-58.41870010929404
 31
0
 70
   32
 71
    5
  3
Standard
 53
0
210
0
220
0
230
1
100
AcDbAlignedDimension
 13
220
 23
-61.22803772930864
 33
0
 14
220
 24
-55.60936248927945
 34
0
 50
90
100
AcDbRotatedDimension
  0
DIMENSION
  5
302
100
AcDbEntity
  8
dimensions
  6
ByLayer
 62
  256
370
   -1
100
AcDbDimension
  2
*D50
 10
210
 20
-50.20807961327264
 30
0
 11
207.75
 21
-55.71805867129066
 31
0
 70
   32
 71
    5
  3
Standard
 53
0
210
0
220
0
230
1
100
AcDbAlignedDimension
 13
210
 23
-61.22803772930865
 33
0
 14
210
 24
-50.20807961327264
 34
0
 50
90
100
AcDbRotatedDimension
  0
DIMENSION
  5
303
100
AcDbEntity
  8
dimensions
  6
ByLayer
 62
  256
370
   -1
100
AcDbDimension
  2
*D51
 10
80
 20
-55.64063625985479
 30
0
 11
77.75
 21
-58.42031812992741
 31
0
 70
   32
 71
    5
  3
Standard
 53
0
210
0
220
0
230
1
100
AcDbAlignedDimension
 13
80
 23
-61.2
 33
0
 14
80
 24
-55.64063625985479
 34
0
 50
90
100
AcDbRotatedDimension
  0
DIMENSION
  5
304
100
AcDbEntity
  8
dimensions
  6
ByLayer
 62
  256
370
   -1
100
AcDbDimension
  2
*D52
 10
90
 20
-50.18004188396399
 30
0
 11
87.75
 21
-55.690020941982
 31
0
 70
   32
 71
    5
  3
Standard
 53
0
210
0
220
0
230
1
100
AcDbAlignedDimension
 13
90
 23
-61.2
 33
0
 14
90
 24
-50.18004188396399
 34
0
 50
90
100
AcDbRotatedDimension
  0
DIMENSION
  5
305
100
AcDbEntity
  8
dimensions
  6
ByLayer
 62
  256
370
   -1
100
AcDbDimension
  2
*D53
 10
100
 20
-45.7439499845584
 30
0
 11
97.75
 21
-53.47197499227919
 31
0
 70
   32
 71
    5
  3
Standard
 53
0
210
0
220
0
230
1
100
AcDbAlignedDimension
 13
100
 23
-61.2
 33
0
 14
100
 24
-45.7439499845584
 34
0
 50
90
100
AcDbRotatedDimension
  0
DIMENSION
  5
306
100
AcDbEntity
  8
dimensions
  6
ByLayer
 62
  256
370
   -1
100
AcDbDimension
  2
*D54
 10
110
 20
-42.22721006739287
 30
0
 11
107.75
 21
-51.71360503369644
 31
0
 70
   32
 71
    5
  3
Standard
 53
0
210
0
220
0
230
1
100
AcDbAlignedDimension
 13
110
 23
-61.2
 33
0
 14
110
 24
-42.22721006739287
 34
0
 50
90
100
AcDbRotatedDimension
  0
DIMENSION
  5
307
100
AcDbEntity
  8
dimensions
  6
ByLayer
 62
  256
370
   -1
100
AcDbDimension
  2
*D55
 10
120
 20
-61.2
 30
0
 11
117.75
 21
-50.3782687086707
 31
0
 70
   32
 71
    5
  3
Standard
 53
0
210
0
220
0
230
1
100
AcDbAlignedDimension
 13
120
 23
-39.55653741734142
 33
0
 14
120
 24
-61.2
 34
0
 50
90
100
AcDbRotatedDimension
  0
DIMENSION
  5
308
100
AcDbEntity
  8
dimensions
  6
ByLayer
 62
  256
370
   -1
100
AcDbDimension
  2
*D56
 10
130
 20
-37.68143448425785
 30
0
 11
127.75
 21
-49.44071724212892
 31
0
 70
   32
 71
    5
  3
Standard
 53
0
210
0
220
0
230
1
100
AcDbAlignedDimension
 13
130
 23
-61.2
 33
0
 14
130
 24
-37.68143448425785
 34
0
 50
90
100
AcDbRotatedDimension
  0
DIMENSION
  5
309
100
AcDbEntity
  8
dimensions
  6
ByLayer
 62
  256
370
   -1
100
AcDbDimension
  2
*D57
 10
140
 20
-36.56883878614374
 30
0
 11
137.75
 21
-48.88441939307187
 31
0
 70
   32
 71
    5
  3
Standard
 53
0
210
0
220
0
230
1
100
AcDbAlignedDimension
 13
140
 23
-61.2
 33
0
 14
140
 24
-36.56883878614374
 34
0
 50
90
100
AcDbRotatedDimension
  0
DIMENSION
  5
30A
100
AcDbEntity
  8
dimensions
  6
ByLayer
 62
  256
370
   -1
100
AcDbDimension
  2
*D58
 10
160
 20
-36.56883878614373
 30
0
 11
157.75
 21
-48.88441939307186
 31
0
 70
   32
 71
    5
  3
Standard
 53
0
210
0
220
0
230
1
100
AcDbAlignedDimension
 13
160
 23
-61.2
 33
0
 14
160
 24
-36.56883878614373
 34
0
 50
90
100
AcDbRotatedDimension
  0
DIMENSION
  5
30B
100
AcDbEntity
  8
dimensions
  6
ByLayer
 62
  256
370
   -1
100
AcDbDimension
  2
*D59
 10
170
 20
-37.68143448425779
 30
0
 11
167.75
 21
-49.44071724212888
 31
0
 70
   32
 71
    5
  3
Standard
 53
0
210
0
220
0
230
1
100
AcDbAlignedDimension
 13
170
 23
-61.2
 33
0
 14
170
 24
-37.68143448425779
 34
0
 50
90
100
AcDbRotatedDimension
  0
DIMENSION
  5
30C
100
AcDbEntity
  8
dimensions
  6
ByLayer
 62
  256
370
   -1
100
AcDbDimension
  2
*D60
 10
180
 20
-39.55653741734135
 30
0
 11
177.75
 21
-50.37826870867067
 31
0
 70
   32
 71
    5
  3
Standard
 53
0
210
0
220
0
230
1
100
AcDbAlignedDimension
 13
180
 23
-61.2
 33
0
 14
180
 24
-39.55653741734135
 34
0
 50
90
100
AcDbRotatedDimension
  0
DIMENSION
  5
30D
100
AcDbEntity
  8
dimensions
  6
ByLayer
 62
  256
370
   -1
100
AcDbDimension
  2
*D61
 10
190
 20
-42.22721006739282
 30
0
 11
187.75
 21
-51.7136050336964
 31
0
 70
   32
 71
    5
  3
Standard
 53
0
210
0
220
0
230
1
100
AcDbAlignedDimension
 13
190
 23
-61.2
 33
0
 14
190
 24
-42.22721006739282
 34
0
 50
90
100
AcDbRotatedDimension
  0
DIMENSION
  5
30E
100
AcDbEntity
  8
dimensions
  6
ByLayer
 62
  256
370
   -1
100
AcDbDimension
  2
*D62
 10
200
 20
-45.74394998455836
 30
0
 11
197.75
 21
-53.47197499227918
 31
0
 70
   32
 71
    5
  3
Standard
 53
0
210
0
220
0
230
1
100
AcDbAlignedDimension
 13
200
 23
-61.2
 33
0
 14
200
 24
-45.74394998455836
 34
0
 50
90
100
AcDbRotatedDimension
  0
DIMENSION
  5
30F
100
AcDbEntity
  8
dimensions
  6
ByLayer
 62
  256
370
   -1
100
AcDbDimension
  2
*D63
 10
150
 20
-36.19999999999997
 30
0
 11
147.75
 21
-48.69999999999999
 31
0
 70
   32
 71
    5
 72
    0
  3
Standard
 53
0
210
0
220
0
230
1
100
AcDbAlignedDimension
 13
150
 23
-61.2
 33
0
 14
150
 24
-36.19999999999997
 34
0
 50
90
100
AcDbRotatedDimension
  0
DIMENSION
  5
310
100
AcDbEntity
  8
dimensions
  6
ByLayer
 62
  256
370
   -1
100
AcDbDimension
  2
*D64
 10
228
 20
-30
 30
0
 11
150
 21
-27.75
 31
0
 70
   32
 71
    5
  3
Standard
 53
0
210
0
220
0
230
1
100
AcDbAlignedDimension
 13
71.50000000000001
 23
-60.00000000000001
 33
0
 14
228.5
 24
-59.99999999999999
 34
0
100
AcDbRotatedDimension
  0
ENDSEC
  0
SECTION
  2
OBJECTS
  0
DICTIONARY
  5
C
330
0
100
AcDbDictionary
281
    1
  3
ACAD_GROUP
350
D
  0
DICTIONARY
  5
D
330
C
100
AcDbDictionary
281
    1
  0
ENDSEC
  0
EOF
