999
dxfrw 0.6.3
  0
SECTION
  2
HEADER
  9
$ACADVER
  1
AC1021
  9
$DWGCODEPAGE
  3
ANSI_1252
  9
$INSBASE
 10
0
 20
0
 30
0
  9
$EXTMIN
 10
-14.50000000000001
 20
-9.999999999999991
 30
0
  9
$EXTMAX
 10
256.3333333333335
 20
342.5013200342358
 30
0
  9
$LIMMIN
 10
0
 20
0
  9
$LIMMAX
 10
420
 20
297
  9
$ORTHOMODE
 70
    0
  9
$REGENMODE
 70
    1
  9
$FILLMODE
 70
    1
  9
$QTEXTMODE
 70
    0
  9
$MIRRTEXT
 70
    0
  9
$LTSCALE
 40
1
  9
$ATTMODE
 70
    0
  9
$TEXTSIZE
 40
2.5
  9
$TRACEWID
 40
15.68
  9
$TEXTSTYLE
  7
STANDARD
  9
$CLAYER
  8
rozmir_zagib
  9
$CELTYPE
  6
BYLAYER
  9
$CECOLOR
 62
  256
  9
$CELTSCALE
 40
1
  9
$DISPSILH
 70
    0
  9
$DIMSCALE
 40
1
  9
$DIMASZ
 40
3
  9
$DIMEXO
 40
1
  9
$DIMDLI
 40
3.75
  9
$DIMRND
 40
0
  9
$DIMDLE
 40
0
  9
$DIMEXE
 40
2
  9
$DIMTP
 40
0
  9
$DIMTM
 40
0
  9
$DIMTXT
 40
3.5
  9
$DIMCEN
 40
2.5
  9
$DIMTSZ
 40
0
  9
$DIMTOL
 70
    0
  9
$DIMLIM
 70
    0
  9
$DIMTIH
 70
    0
  9
$DIMTOH
 70
    0
  9
$DIMSE1
 70
    0
  9
$DIMSE2
 70
    0
  9
$DIMTAD
 70
    1
  9
$DIMZIN
 70
    8
  9
$DIMBLK
  1

  9
$DIMASO
 70
    1
  9
$DIMSHO
 70
    1
  9
$DIMPOST
  1

  9
$DIMAPOST
  1

  9
$DIMALT
 70
    0
  9
$DIMALTD
 70
    3
  9
$DIMALTF
 40
0.03937
  9
$DIMLFAC
 40
1
  9
$DIMTOFL
 70
    1
  9
$DIMTVP
 40
0
  9
$DIMTIX
 70
    0
  9
$DIMSOXD
 70
    0
  9
$DIMSAH
 70
    0
  9
$DIMBLK1
  1

  9
$DIMBLK2
  1

  9
$DIMSTYLE
  2
STANDARD
  9
$DIMCLRD
 70
    0
  9
$DIMCLRE
 70
    0
  9
$DIMCLRT
 70
    0
  9
$DIMTFAC
 40
1
  9
$DIMGAP
 40
1
  9
$DIMJUST
 70
    0
  9
$DIMSD1
 70
    0
  9
$DIMSD2
 70
    0
  9
$DIMTOLJ
 70
    0
  9
$DIMTZIN
 70
    8
  9
$DIMALTZ
 70
    0
  9
$DIMALTTZ
 70
    0
  9
$DIMUPT
 70
    0
  9
$DIMDEC
 70
    1
  9
$DIMTDEC
 70
    2
  9
$DIMALTU
 70
    2
  9
$DIMALTTD
 70
    3
  9
$DIMTXSTY
  7
standard
  9
$DIMAUNIT
 70
    0
  9
$DIMADEC
 70
    0
  9
$DIMALTRND
 40
0
  9
$DIMAZIN
 70
    0
  9
$DIMDSEP
 70
   44
  9
$DIMATFIT
 70
    3
  9
$DIMFRAC
 70
    0
  9
$DIMLDRBLK
  1
STANDARD
  9
$DIMLUNIT
 70
    2
  9
$DIMLWD
 70
   -2
  9
$DIMLWE
 70
   -2
  9
$DIMTMOVE
 70
    0
  9
$DIMFXL
 40
1
  9
$DIMFXLON
 70
    0
  9
$DIMJOGANG
 40
0.7854
  9
$DIMTFILL
 70
    0
  9
$DIMTFILLCLR
 70
    0
  9
$DIMARCSYM
 70
    0
  9
$DIMLTYPE
  6

  9
$DIMLTEX1
  6

  9
$DIMLTEX2
  6

  9
$LUNITS
 70
    2
  9
$LUPREC
 70
    2
  9
$SKETCHINC
 40
1
  9
$FILLETRAD
 40
0
  9
$AUNITS
 70
    0
  9
$AUPREC
 70
    2
  9
$MENU
  1
.
  9
$ELEVATION
 40
0
  9
$PELEVATION
 40
0
  9
$THICKNESS
 40
0
  9
$LIMCHECK
 70
    0
  9
$CHAMFERA
 40
0
  9
$CHAMFERB
 40
0
  9
$CHAMFERC
 40
0
  9
$CHAMFERD
 40
0
  9
$SKPOLY
 70
    0
  9
$USRTIMER
 70
    1
  9
$ANGBASE
 50
0
  9
$ANGDIR
 70
    0
  9
$PDMODE
 70
   34
  9
$PDSIZE
 40
0
  9
$PLINEWID
 40
0
  9
$SPLFRAME
 70
    0
  9
$SPLINETYPE
 70
    2
  9
$SPLINESEGS
 70
    8
  9
$HANDSEED
  5
20000
  9
$SURFTAB1
 70
    6
  9
$SURFTAB2
 70
    6
  9
$SURFTYPE
 70
    6
  9
$SURFU
 70
    6
  9
$SURFV
 70
    6
  9
$UCSBASE
  2

  9
$UCSNAME
  2

  9
$UCSORG
 10
0
 20
0
 30
0
  9
$UCSXDIR
 10
1
 20
0
 30
0
  9
$UCSYDIR
 10
0
 20
1
 30
0
  9
$UCSORTHOREF
  2

  9
$UCSORTHOVIEW
 70
    0
  9
$UCSORGTOP
 10
0
 20
0
 30
0
  9
$UCSORGBOTTOM
 10
0
 20
0
 30
0
  9
$UCSORGLEFT
 10
0
 20
0
 30
0
  9
$UCSORGRIGHT
 10
0
 20
0
 30
0
  9
$UCSORGFRONT
 10
0
 20
0
 30
0
  9
$UCSORGBACK
 10
0
 20
0
 30
0
  9
$PUCSBASE
  2

  9
$PUCSNAME
  2

  9
$PUCSORG
 10
0
 20
0
 30
0
  9
$PUCSXDIR
 10
1
 20
0
 30
0
  9
$PUCSYDIR
 10
0
 20
1
 30
0
  9
$PUCSORTHOREF
  2

  9
$PUCSORTHOVIEW
 70
    0
  9
$PUCSORGTOP
 10
0
 20
0
 30
0
  9
$PUCSORGBOTTOM
 10
0
 20
0
 30
0
  9
$PUCSORGLEFT
 10
0
 20
0
 30
0
  9
$PUCSORGRIGHT
 10
0
 20
0
 30
0
  9
$PUCSORGFRONT
 10
0
 20
0
 30
0
  9
$PUCSORGBACK
 10
0
 20
0
 30
0
  9
$USERI1
 70
    0
  9
$USERI2
 70
    0
  9
$USERI3
 70
    0
  9
$USERI4
 70
    0
  9
$USERI5
 70
    0
  9
$USERR1
 40
0
  9
$USERR2
 40
0
  9
$USERR3
 40
0
  9
$USERR4
 40
0
  9
$USERR5
 40
0
  9
$WORLDVIEW
 70
    1
  9
$SHADEDGE
 70
    3
  9
$SHADEDIF
 70
   70
  9
$TILEMODE
 70
    1
  9
$MAXACTVP
 70
   64
  9
$PINSBASE
 10
10.59564102564103
 20
8.181025641025641
 30
0
  9
$PLIMCHECK
 70
    0
  9
$PEXTMIN
 10
0
 20
0
 30
0
  9
$PEXTMAX
 10
0
 20
0
 30
0
  9
$GRIDMODE
 70
    1
  9
$SNAPSTYLE
 70
    0
  9
$GRIDUNIT
 10
0
 20
0
  9
$PLIMMIN
 10
0
 20
0
  9
$PLIMMAX
 10
29.7
 20
21
  9
$UNITMODE
 70
    0
  9
$VISRETAIN
 70
    1
  9
$PLINEGEN
 70
    0
  9
$PSLTSCALE
 70
    1
  9
$TREEDEPTH
 70
 3020
  9
$CMLSTYLE
  2
Standard
  9
$CMLJUST
 70
    0
  9
$CMLSCALE
 40
20
  9
$PROXYGRAPHICS
 70
    1
  9
$MEASUREMENT
 70
    1
  9
$CELWEIGHT
370
   -1
  9
$ENDCAPS
280
    0
  9
$JOINSTYLE
280
    0
  9
$LWDISPLAY
290
    0
  9
$INSUNITS
 70
    5
  9
$HYPERLINKBASE
  1

  9
$STYLESHEET
  1

  9
$XEDIT
290
    1
  9
$CEPSNTYPE
380
    0
  9
$PSTYLEMODE
290
    1
  9
$EXTNAMES
290
    1
  9
$PSVPSCALE
 40
0.1394871337067869
  9
$OLESTARTUP
290
    0
  9
$SORTENTS
280
  127
  9
$INDEXCTL
280
    0
  9
$HIDETEXT
280
    1
  9
$XCLIPFRAME
290
    0
  9
$HALOGAP
280
    0
  9
$OBSCOLOR
 70
  257
  9
$OBSLTYPE
280
    0
  9
$INTERSECTIONDISPLAY
280
    0
  9
$INTERSECTIONCOLOR
 70
  257
  9
$DIMASSOC
280
    1
  9
$PROJECTNAME
  1

  9
$CAMERADISPLAY
290
    0
  9
$LENSLENGTH
 40
50
  9
$CAMERAHEIGHT
 40
0
  9
$STEPSPERSEC
 40
2
  9
$STEPSIZE
 40
50
  9
$3DDWFPREC
 40
2
  9
$PSOLWIDTH
 40
5
  9
$PSOLHEIGHT
 40
80
  9
$LOFTANG1
 40
1.570796326794897
  9
$LOFTANG2
 40
1.570796326794897
  9
$LOFTMAG1
 40
0
  9
$LOFTMAG2
 40
0
  9
$LOFTPARAM
 70
    7
  9
$LOFTNORMALS
280
    1
  9
$LATITUDE
 40
1
  9
$LONGITUDE
 40
1
  9
$NORTHDIRECTION
 40
0
  9
$TIMEZONE
 70
-8000
  9
$LIGHTGLYPHDISPLAY
280
    1
  9
$TILEMODELIGHTSYNCH
280
    1
  9
$SOLIDHIST
280
    1
  9
$SHOWHIST
280
    1
  9
$DWFFRAME
280
    2
  9
$DGNFRAME
280
    0
  9
$REALWORLDSCALE
290
    1
  9
$INTERFERECOLOR
 62
    1
  9
$CSHADOW
280
    0
  9
$SHADOWPLANELOCATION
 40
0
  0
ENDSEC
  0
SECTION
  2
CLASSES
  0
ENDSEC
  0
SECTION
  2
TABLES
  0
TABLE
  2
VPORT
  5
8
330
0
100
AcDbSymbolTable
 70
    1
  0
VPORT
  5
31
330
2
100
AcDbSymbolTableRecord
100
AcDbViewportTableRecord
  2
*ACTIVE
 70
    0
 10
0
 20
0
 11
1
 21
1
 12
217.2079562496672
 22
174.9077978455589
 13
0
 23
0
 14
10
 24
10
 15
10
 25
10
 16
0
 26
0
 36
1
 17
0
 27
0
 37
0
 40
365.9299417498257
 41
1.711926605504587
 42
50
 43
0
 44
0
 50
0
 51
0
 71
    0
 72
  100
 73
    1
 74
    3
 75
    0
 76
    1
 77
    0
 78
    0
281
    0
 65
    1
110
0
120
0
130
0
111
1
121
0
131
0
112
0
122
1
132
0
 79
    0
146
0
348
10020
 60
    7
 61
    5
292
1
282
    1
141
0
142
0
 63
  250
421
3358443
  0
ENDTAB
  0
TABLE
  2
LTYPE
  5
5
330
0
100
AcDbSymbolTable
 70
    4
  0
LTYPE
  5
14
330
5
100
AcDbSymbolTableRecord
100
AcDbLinetypeTableRecord
  2
ByBlock
 70
    0
  3

 72
   65
 73
    0
 40
0
  0
LTYPE
  5
15
330
5
100
AcDbSymbolTableRecord
100
AcDbLinetypeTableRecord
  2
ByLayer
 70
    0
  3

 72
   65
 73
    0
 40
0
  0
LTYPE
  5
16
330
5
100
AcDbSymbolTableRecord
100
AcDbLinetypeTableRecord
  2
Continuous
 70
    0
  3
Solid line
 72
   65
 73
    0
 40
0
  0
LTYPE
  5
32
330
5
100
AcDbSymbolTableRecord
100
AcDbLinetypeTableRecord
  2
DOT
 70
    0
  3
Dot . . . . . . . . . . . . . . . . . . . . . .
 72
   65
 73
    2
 40
6.35
 49
0
 74
    0
 49
-6.35
 74
    0
  0
LTYPE
  5
33
330
5
100
AcDbSymbolTableRecord
100
AcDbLinetypeTableRecord
  2
DOTTINY
 70
    0
  3
Dot (.15x) .....................................
 72
   65
 73
    2
 40
0.9525
 49
0
 74
    0
 49
-0.9525
 74
    0
  0
LTYPE
  5
34
330
5
100
AcDbSymbolTableRecord
100
AcDbLinetypeTableRecord
  2
DOT2
 70
    0
  3
Dot (.5x) .....................................
 72
   65
 73
    2
 40
3.175
 49
0
 74
    0
 49
-3.175
 74
    0
  0
LTYPE
  5
35
330
5
100
AcDbSymbolTableRecord
100
AcDbLinetypeTableRecord
  2
DOTX2
 70
    0
  3
Dot (2x) .  .  .  .  .  .  .  .  .  .  .  .  .
 72
   65
 73
    2
 40
12.7
 49
0
 74
    0
 49
-12.7
 74
    0
  0
LTYPE
  5
36
330
5
100
AcDbSymbolTableRecord
100
AcDbLinetypeTableRecord
  2
DASHED
 70
    0
  3
Dashed _ _ _ _ _ _ _ _ _ _ _ _ _ _ _ _ _
 72
   65
 73
    2
 40
19.05
 49
12.7
 74
    0
 49
-6.35
 74
    0
  0
LTYPE
  5
37
330
5
100
AcDbSymbolTableRecord
100
AcDbLinetypeTableRecord
  2
DASHEDTINY
 70
    0
  3
Dashed (.15x) _ _ _ _ _ _ _ _ _ _ _ _ _ _ _ _ _
 72
   65
 73
    2
 40
2.8575
 49
1.905
 74
    0
 49
-0.9525
 74
    0
  0
LTYPE
  5
38
330
5
100
AcDbSymbolTableRecord
100
AcDbLinetypeTableRecord
  2
DASHED2
 70
    0
  3
Dashed (.5x) _ _ _ _ _ _ _ _ _ _ _ _ _ _ _ _ _
 72
   65
 73
    2
 40
9.524999999999999
 49
6.35
 74
    0
 49
-3.175
 74
    0
  0
LTYPE
  5
39
330
5
100
AcDbSymbolTableRecord
100
AcDbLinetypeTableRecord
  2
DASHEDX2
 70
    0
  3
Dashed (2x) ____  ____  ____  ____  ____  ___
 72
   65
 73
    2
 40
38.09999999999999
 49
25.4
 74
    0
 49
-12.7
 74
    0
  0
LTYPE
  5
3A
330
5
100
AcDbSymbolTableRecord
100
AcDbLinetypeTableRecord
  2
DASHDOT
 70
    0
  3
Dash dot __ . __ . __ . __ . __ . __ . __ . __
 72
   65
 73
    4
 40
25.4
 49
12.7
 74
    0
 49
-6.35
 74
    0
 49
0
 74
    0
 49
-6.35
 74
    0
  0
LTYPE
  5
3B
330
5
100
AcDbSymbolTableRecord
100
AcDbLinetypeTableRecord
  2
DASHDOTTINY
 70
    0
  3
Dash dot (.15x) _._._._._._._._._._._._._._._.
 72
   65
 73
    4
 40
3.81
 49
1.905
 74
    0
 49
-0.9525
 74
    0
 49
0
 74
    0
 49
-0.9525
 74
    0
  0
LTYPE
  5
3C
330
5
100
AcDbSymbolTableRecord
100
AcDbLinetypeTableRecord
  2
DASHDOT2
 70
    0
  3
Dash dot (.5x) _._._._._._._._._._._._._._._.
 72
   65
 73
    4
 40
12.7
 49
6.35
 74
    0
 49
-3.175
 74
    0
 49
0
 74
    0
 49
-3.175
 74
    0
  0
LTYPE
  5
3D
330
5
100
AcDbSymbolTableRecord
100
AcDbLinetypeTableRecord
  2
DASHDOTX2
 70
    0
  3
Dash dot (2x) ____  .  ____  .  ____  .  ___
 72
   65
 73
    4
 40
50.8
 49
25.4
 74
    0
 49
-12.7
 74
    0
 49
0
 74
    0
 49
-12.7
 74
    0
  0
LTYPE
  5
3E
330
5
100
AcDbSymbolTableRecord
100
AcDbLinetypeTableRecord
  2
DIVIDE
 70
    0
  3
Divide ____ . . ____ . . ____ . . ____ . . ____
 72
   65
 73
    6
 40
31.75
 49
12.7
 74
    0
 49
-6.35
 74
    0
 49
0
 74
    0
 49
-6.35
 74
    0
 49
0
 74
    0
 49
-6.35
 74
    0
  0
LTYPE
  5
3F
330
5
100
AcDbSymbolTableRecord
100
AcDbLinetypeTableRecord
  2
DIVIDETINY
 70
    0
  3
Divide (.15x) __..__..__..__..__..__..__..__.._
 72
   65
 73
    6
 40
4.7625
 49
1.905
 74
    0
 49
-0.9525
 74
    0
 49
0
 74
    0
 49
-0.9525
 74
    0
 49
0
 74
    0
 49
-0.9525
 74
    0
  0
LTYPE
  5
40
330
5
100
AcDbSymbolTableRecord
100
AcDbLinetypeTableRecord
  2
DIVIDE2
 70
    0
  3
Divide (.5x) __..__..__..__..__..__..__..__.._
 72
   65
 73
    6
 40
15.875
 49
6.35
 74
    0
 49
-3.175
 74
    0
 49
0
 74
    0
 49
-3.175
 74
    0
 49
0
 74
    0
 49
-3.175
 74
    0
  0
LTYPE
  5
41
330
5
100
AcDbSymbolTableRecord
100
AcDbLinetypeTableRecord
  2
DIVIDEX2
 70
    0
  3
Divide (2x) ________  .  .  ________  .  .  _
 72
   65
 73
    6
 40
63.5
 49
25.4
 74
    0
 49
-12.7
 74
    0
 49
0
 74
    0
 49
-12.7
 74
    0
 49
0
 74
    0
 49
-12.7
 74
    0
  0
LTYPE
  5
42
330
5
100
AcDbSymbolTableRecord
100
AcDbLinetypeTableRecord
  2
BORDER
 70
    0
  3
Border __ __ . __ __ . __ __ . __ __ . __ __ .
 72
   65
 73
    6
 40
44.45
 49
12.7
 74
    0
 49
-6.35
 74
    0
 49
12.7
 74
    0
 49
-6.35
 74
    0
 49
0
 74
    0
 49
-6.35
 74
    0
  0
LTYPE
  5
43
330
5
100
AcDbSymbolTableRecord
100
AcDbLinetypeTableRecord
  2
BORDERTINY
 70
    0
  3
Border (.15x) __.__.__.__.__.__.__.__.__.__.__.
 72
   65
 73
    6
 40
6.6675
 49
1.905
 74
    0
 49
-0.9525
 74
    0
 49
1.905
 74
    0
 49
-0.9525
 74
    0
 49
0
 74
    0
 49
-0.9525
 74
    0
  0
LTYPE
  5
44
330
5
100
AcDbSymbolTableRecord
100
AcDbLinetypeTableRecord
  2
BORDER2
 70
    0
  3
Border (.5x) __.__.__.__.__.__.__.__.__.__.__.
 72
   65
 73
    6
 40
22.225
 49
6.35
 74
    0
 49
-3.175
 74
    0
 49
6.35
 74
    0
 49
-3.175
 74
    0
 49
0
 74
    0
 49
-3.175
 74
    0
  0
LTYPE
  5
45
330
5
100
AcDbSymbolTableRecord
100
AcDbLinetypeTableRecord
  2
BORDERX2
 70
    0
  3
Border (2x) ____  ____  .  ____  ____  .  ___
 72
   65
 73
    6
 40
88.89999999999999
 49
25.4
 74
    0
 49
-12.7
 74
    0
 49
25.4
 74
    0
 49
-12.7
 74
    0
 49
0
 74
    0
 49
-12.7
 74
    0
  0
LTYPE
  5
46
330
5
100
AcDbSymbolTableRecord
100
AcDbLinetypeTableRecord
  2
CENTER
 70
    0
  3
Center ____ _ ____ _ ____ _ ____ _ ____ _ ____
 72
   65
 73
    4
 40
50.8
 49
31.75
 74
    0
 49
-6.35
 74
    0
 49
6.35
 74
    0
 49
-6.35
 74
    0
  0
LTYPE
  5
47
330
5
100
AcDbSymbolTableRecord
100
AcDbLinetypeTableRecord
  2
CENTERTINY
 70
    0
  3
Center (.15x) ___ _ ___ _ ___ _ ___ _ ___ _ ___
 72
   65
 73
    4
 40
7.619999999999999
 49
4.7625
 74
    0
 49
-0.9525
 74
    0
 49
0.9525
 74
    0
 49
-0.9525
 74
    0
  0
LTYPE
  5
48
330
5
100
AcDbSymbolTableRecord
100
AcDbLinetypeTableRecord
  2
CENTER2
 70
    0
  3
Center (.5x) ___ _ ___ _ ___ _ ___ _ ___ _ ___
 72
   65
 73
    4
 40
28.575
 49
19.05
 74
    0
 49
-3.175
 74
    0
 49
3.175
 74
    0
 49
-3.175
 74
    0
  0
LTYPE
  5
49
330
5
100
AcDbSymbolTableRecord
100
AcDbLinetypeTableRecord
  2
CENTERX2
 70
    0
  3
Center (2x) ________  __  ________  __  _____
 72
   65
 73
    4
 40
101.6
 49
63.5
 74
    0
 49
-12.7
 74
    0
 49
12.7
 74
    0
 49
-12.7
 74
    0
  0
ENDTAB
  0
TABLE
  2
LAYER
  5
2
330
0
100
AcDbSymbolTable
 70
    1
  0
LAYER
  5
10
330
2
100
AcDbSymbolTableRecord
100
AcDbLayerTableRecord
  2
0
 70
    0
 62
    7
  6
CONTINUOUS
370
   -3
390
F
1001
LibreCad
1070
    1
  0
LAYER
  5
4A
330
2
100
AcDbSymbolTableRecord
100
AcDbLayerTableRecord
  2
concreet
 70
    0
 62
    6
  6
CONTINUOUS
370
   50
390
F
  0
LAYER
  5
4B
330
2
100
AcDbSymbolTableRecord
100
AcDbLayerTableRecord
  2
fasad
 70
    0
 62
    3
  6
CONTINUOUS
370
   50
390
F
  0
LAYER
  5
4C
330
2
100
AcDbSymbolTableRecord
100
AcDbLayerTableRecord
  2
metal
 70
    0
 62
    5
  6
CONTINUOUS
370
   50
390
F
  0
LAYER
  5
4D
330
2
100
AcDbSymbolTableRecord
100
AcDbLayerTableRecord
  2
rozmir
 70
    0
 62
    4
  6
CONTINUOUS
370
   13
390
F
  0
LAYER
  5
4E
330
2
100
AcDbSymbolTableRecord
100
AcDbLayerTableRecord
  2
rozmir_zagib
 70
    0
 62
  136
420
32896
  6
CONTINUOUS
370
   13
390
F
  0
LAYER
  5
4F
330
2
100
AcDbSymbolTableRecord
100
AcDbLayerTableRecord
  2
tekst
 70
    0
 62
  136
420
32896
  6
CONTINUOUS
370
   13
390
F
  0
LAYER
  5
50
330
2
100
AcDbSymbolTableRecord
100
AcDbLayerTableRecord
  2
wall
 70
    0
 62
   56
420
8421376
  6
CONTINUOUS
370
   50
390
F
  0
ENDTAB
  0
TABLE
  2
STYLE
  5
3
330
0
100
AcDbSymbolTable
 70
    3
  0
STYLE
  5
51
330
2
100
AcDbSymbolTableRecord
100
AcDbTextStyleTableRecord
  2
cyrillic_ii
 70
    0
 40
0
 41
1
 50
0
 71
    0
 42
1
  3
cyrillic_ii
  4

  0
STYLE
  5
52
330
2
100
AcDbSymbolTableRecord
100
AcDbTextStyleTableRecord
  2
Standard
 70
    0
 40
0
 41
1
 50
0
 71
    0
 42
1
  3
txt
  4

  0
ENDTAB
  0
TABLE
  2
VIEW
  5
6
330
0
100
AcDbSymbolTable
 70
    0
  0
ENDTAB
  0
TABLE
  2
UCS
  5
7
330
0
100
AcDbSymbolTable
 70
    0
  0
ENDTAB
  0
TABLE
  2
APPID
  5
9
330
0
100
AcDbSymbolTable
 70
    1
  0
APPID
  5
12
330
9
100
AcDbSymbolTableRecord
100
AcDbRegAppTableRecord
  2
ACAD
 70
    0
  0
APPID
  5
53
330
9
100
AcDbSymbolTableRecord
100
AcDbRegAppTableRecord
  2
LibreCad
 70
    0
  0
ENDTAB
  0
TABLE
  2
DIMSTYLE
  5
A
330
0
100
AcDbSymbolTable
 70
    1
100
AcDbDimStyleTable
 71
    1
  0
DIMSTYLE
105
54
330
A
100
AcDbSymbolTableRecord
100
AcDbDimStyleTableRecord
  2
Standard
 70
    0
 40
1
 41
3
 42
1
 43
0.38
 44
2
 45
0
 46
0
 47
0
 48
0
 49
1
140
3.5
141
0.09
142
0
143
25.4
144
1
145
0
146
1
147
1
148
0
 71
    0
 72
    0
 73
    0
 74
    1
 75
    0
 76
    0
 77
    0
 78
    8
 79
    0
170
    0
171
    2
172
    0
173
    0
174
    0
175
    0
176
    0
177
    0
178
    0
179
    0
271
    1
272
    4
273
    2
274
    2
275
    0
276
    0
277
    2
278
   44
279
    0
280
    0
281
    0
282
    0
283
    1
284
    0
285
    0
286
    0
288
    0
289
    3
340
standard
341

371
   -2
372
   -2
  0
ENDTAB
  0
TABLE
  2
BLOCK_RECORD
  5
1
330
0
100
AcDbSymbolTable
 70
    2
  0
BLOCK_RECORD
  5
1F
330
1
100
AcDbSymbolTableRecord
100
AcDbBlockTableRecord
  2
*Model_Space
 70
    0
280
    1
281
    0
  0
BLOCK_RECORD
  5
1E
330
1
100
AcDbSymbolTableRecord
100
AcDbBlockTableRecord
  2
*Paper_Space
 70
    0
280
    1
281
    0
  0
BLOCK_RECORD
  5
55
330
1
100
AcDbSymbolTableRecord
100
AcDbBlockTableRecord
  2
*D37
 70
    0
280
    1
281
    0
  0
BLOCK_RECORD
  5
58
330
1
100
AcDbSymbolTableRecord
100
AcDbBlockTableRecord
  2
*D32
 70
    0
280
    1
281
    0
  0
BLOCK_RECORD
  5
5B
330
1
100
AcDbSymbolTableRecord
100
AcDbBlockTableRecord
  2
*D4
 70
    0
280
    1
281
    0
  0
BLOCK_RECORD
  5
5E
330
1
100
AcDbSymbolTableRecord
100
AcDbBlockTableRecord
  2
*D8
 70
    0
280
    1
281
    0
  0
BLOCK_RECORD
  5
61
330
1
100
AcDbSymbolTableRecord
100
AcDbBlockTableRecord
  2
*D18
 70
    0
280
    1
281
    0
  0
BLOCK_RECORD
  5
64
330
1
100
AcDbSymbolTableRecord
100
AcDbBlockTableRecord
  2
*D20
 70
    0
280
    1
281
    0
  0
BLOCK_RECORD
  5
67
330
1
100
AcDbSymbolTableRecord
100
AcDbBlockTableRecord
  2
*D9
 70
    0
280
    1
281
    0
  0
BLOCK_RECORD
  5
6A
330
1
100
AcDbSymbolTableRecord
100
AcDbBlockTableRecord
  2
*D31
 70
    0
280
    1
281
    0
  0
BLOCK_RECORD
  5
6D
330
1
100
AcDbSymbolTableRecord
100
AcDbBlockTableRecord
  2
*D35
 70
    0
280
    1
281
    0
  0
BLOCK_RECORD
  5
70
330
1
100
AcDbSymbolTableRecord
100
AcDbBlockTableRecord
  2
*D41
 70
    0
280
    1
281
    0
  0
BLOCK_RECORD
  5
73
330
1
100
AcDbSymbolTableRecord
100
AcDbBlockTableRecord
  2
*D21
 70
    0
280
    1
281
    0
  0
BLOCK_RECORD
  5
76
330
1
100
AcDbSymbolTableRecord
100
AcDbBlockTableRecord
  2
*D34
 70
    0
280
    1
281
    0
  0
BLOCK_RECORD
  5
79
330
1
100
AcDbSymbolTableRecord
100
AcDbBlockTableRecord
  2
*D19
 70
    0
280
    1
281
    0
  0
BLOCK_RECORD
  5
7C
330
1
100
AcDbSymbolTableRecord
100
AcDbBlockTableRecord
  2
*D17
 70
    0
280
    1
281
    0
  0
BLOCK_RECORD
  5
7F
330
1
100
AcDbSymbolTableRecord
100
AcDbBlockTableRecord
  2
*D11
 70
    0
280
    1
281
    0
  0
BLOCK_RECORD
  5
82
330
1
100
AcDbSymbolTableRecord
100
AcDbBlockTableRecord
  2
*D42
 70
    0
280
    1
281
    0
  0
BLOCK_RECORD
  5
85
330
1
100
AcDbSymbolTableRecord
100
AcDbBlockTableRecord
  2
*D2
 70
    0
280
    1
281
    0
  0
BLOCK_RECORD
  5
88
330
1
100
AcDbSymbolTableRecord
100
AcDbBlockTableRecord
  2
*D40
 70
    0
280
    1
281
    0
  0
BLOCK_RECORD
  5
8B
330
1
100
AcDbSymbolTableRecord
100
AcDbBlockTableRecord
  2
*D14
 70
    0
280
    1
281
    0
  0
BLOCK_RECORD
  5
8E
330
1
100
AcDbSymbolTableRecord
100
AcDbBlockTableRecord
  2
*D23
 70
    0
280
    1
281
    0
  0
BLOCK_RECORD
  5
91
330
1
100
AcDbSymbolTableRecord
100
AcDbBlockTableRecord
  2
*D3
 70
    0
280
    1
281
    0
  0
BLOCK_RECORD
  5
94
330
1
100
AcDbSymbolTableRecord
100
AcDbBlockTableRecord
  2
*D15
 70
    0
280
    1
281
    0
  0
BLOCK_RECORD
  5
97
330
1
100
AcDbSymbolTableRecord
100
AcDbBlockTableRecord
  2
*D26
 70
    0
280
    1
281
    0
  0
BLOCK_RECORD
  5
9A
330
1
100
AcDbSymbolTableRecord
100
AcDbBlockTableRecord
  2
*D12
 70
    0
280
    1
281
    0
  0
BLOCK_RECORD
  5
9D
330
1
100
AcDbSymbolTableRecord
100
AcDbBlockTableRecord
  2
*D28
 70
    0
280
    1
281
    0
  0
BLOCK_RECORD
  5
A0
330
1
100
AcDbSymbolTableRecord
100
AcDbBlockTableRecord
  2
*D5
 70
    0
280
    1
281
    0
  0
BLOCK_RECORD
  5
A3
330
1
100
AcDbSymbolTableRecord
100
AcDbBlockTableRecord
  2
*D33
 70
    0
280
    1
281
    0
  0
BLOCK_RECORD
  5
A6
330
1
100
AcDbSymbolTableRecord
100
AcDbBlockTableRecord
  2
*D25
 70
    0
280
    1
281
    0
  0
BLOCK_RECORD
  5
A9
330
1
100
AcDbSymbolTableRecord
100
AcDbBlockTableRecord
  2
*D6
 70
    0
280
    1
281
    0
  0
BLOCK_RECORD
  5
AC
330
1
100
AcDbSymbolTableRecord
100
AcDbBlockTableRecord
  2
*D36
 70
    0
280
    1
281
    0
  0
BLOCK_RECORD
  5
AF
330
1
100
AcDbSymbolTableRecord
100
AcDbBlockTableRecord
  2
*D1
 70
    0
280
    1
281
    0
  0
BLOCK_RECORD
  5
B2
330
1
100
AcDbSymbolTableRecord
100
AcDbBlockTableRecord
  2
*D7
 70
    0
280
    1
281
    0
  0
BLOCK_RECORD
  5
B5
330
1
100
AcDbSymbolTableRecord
100
AcDbBlockTableRecord
  2
*D38
 70
    0
280
    1
281
    0
  0
BLOCK_RECORD
  5
B8
330
1
100
AcDbSymbolTableRecord
100
AcDbBlockTableRecord
  2
*D29
 70
    0
280
    1
281
    0
  0
BLOCK_RECORD
  5
BB
330
1
100
AcDbSymbolTableRecord
100
AcDbBlockTableRecord
  2
*D16
 70
    0
280
    1
281
    0
  0
BLOCK_RECORD
  5
BE
330
1
100
AcDbSymbolTableRecord
100
AcDbBlockTableRecord
  2
*D13
 70
    0
280
    1
281
    0
  0
BLOCK_RECORD
  5
C1
330
1
100
AcDbSymbolTableRecord
100
AcDbBlockTableRecord
  2
*D30
 70
    0
280
    1
281
    0
  0
BLOCK_RECORD
  5
C4
330
1
100
AcDbSymbolTableRecord
100
AcDbBlockTableRecord
  2
*D24
 70
    0
280
    1
281
    0
  0
BLOCK_RECORD
  5
C7
330
1
100
AcDbSymbolTableRecord
100
AcDbBlockTableRecord
  2
*D22
 70
    0
280
    1
281
    0
  0
BLOCK_RECORD
  5
CA
330
1
100
AcDbSymbolTableRecord
100
AcDbBlockTableRecord
  2
*D10
 70
    0
280
    1
281
    0
  0
BLOCK_RECORD
  5
CD
330
1
100
AcDbSymbolTableRecord
100
AcDbBlockTableRecord
  2
*D27
 70
    0
280
    1
281
    0
  0
BLOCK_RECORD
  5
D0
330
1
100
AcDbSymbolTableRecord
100
AcDbBlockTableRecord
  2
*D39
 70
    0
280
    1
281
    0
  0
ENDTAB
  0
ENDSEC
  0
SECTION
  2
BLOCKS
  0
BLOCK
  5
20
330
1F
100
AcDbEntity
  8
0
100
AcDbBlockBegin
  2
*Model_Space
 70
    0
 10
0
 20
0
 30
0
  3
*Model_Space
  1

  0
ENDBLK
  5
21
330
1F
100
AcDbEntity
  8
0
100
AcDbBlockEnd
  0
BLOCK
  5
1C
330
1B
100
AcDbEntity
  8
0
100
AcDbBlockBegin
  2
*Paper_Space
 70
    0
 10
0
 20
0
 30
0
  3
*Paper_Space
  1

  0
ENDBLK
  5
1D
330
1F
100
AcDbEntity
  8
0
100
AcDbBlockEnd
  0
BLOCK
  5
56
330
55
100
AcDbEntity
  8
0
100
AcDbBlockBegin
  2
*D37
 70
    1
 10
0
 20
0
  3
*D37
  1

  0
LINE
  5
D3
100
AcDbEntity
  8
rozmir
  6
ByBlock
 62
    0
370
   -2
100
AcDbLine
 10
-9.999999999999998
 20
23
 11
-10
 21
6.235012506294873e-16
  0
SOLID
  5
D4
100
AcDbEntity
  8
rozmir
  6
ByBlock
 62
    0
370
   -2
100
AcDbTrace
 10
-9.999999999999998
 20
23
 30
0
 11
-9.500458410672589
 21
20
 31
0
 12
-10.49954158932741
 22
20
 32
0
 13
-10.49954158932741
 23
20
 33
0
  0
SOLID
  5
D5
100
AcDbEntity
  8
rozmir
  6
ByBlock
 62
    0
370
   -2
100
AcDbTrace
 10
-10
 20
6.235012506294873e-16
 30
0
 11
-10.49954158932741
 21
3
 31
0
 12
-9.500458410672591
 22
3
 32
0
 13
-9.500458410672591
 23
3
 33
0
  0
MTEXT
  5
D6
100
AcDbEntity
  8
rozmir
  6
CONTINUOUS
 62
    0
370
   -2
100
AcDbMText
 10
-12.75
 20
11.5
 30
0
 40
3.5
 41
4.277777777777995
 71
    5
 72
    1
  1
23
  7
standard
210
0
220
0
230
1
 50
90
 73
    2
 44
1
  0
LINE
  5
D7
100
AcDbEntity
  8
rozmir
  6
ByBlock
 62
    0
370
   -2
100
AcDbLine
 10
0.6999999999999886
 20
23
 11
-12
 21
23
  0
LINE
  5
D8
100
AcDbEntity
  8
rozmir
  6
ByBlock
 62
    0
370
   -2
100
AcDbLine
 10
0.6999999999999886
 20
1.224646799147353e-16
 11
-12
 21
8.68430610458958e-16
  0
ENDBLK
  5
57
330
55
100
AcDbEntity
  8
0
100
AcDbBlockEnd
  0
BLOCK
  5
59
330
58
100
AcDbEntity
  8
0
100
AcDbBlockBegin
  2
*D32
 70
    1
 10
0
 20
0
  3
*D32
  1

  0
LINE
  5
D9
100
AcDbEntity
  8
rozmir_zagib
  6
ByBlock
 62
    0
370
   -2
100
AcDbLine
 10
-3.100000000000021
 20
78
 11
-3.100000000000023
 21
51.59999999999999
  0
SOLID
  5
DA
100
AcDbEntity
  8
rozmir_zagib
  6
ByBlock
 62
    0
370
   -2
100
AcDbTrace
 10
-3.100000000000021
 20
78
 30
0
 11
-2.600458410672613
 21
75
 31
0
 12
-3.59954158932743
 22
75
 32
0
 13
-3.59954158932743
 23
75
 33
0
  0
SOLID
  5
DB
100
AcDbEntity
  8
rozmir_zagib
  6
ByBlock
 62
    0
370
   -2
100
AcDbTrace
 10
-3.100000000000023
 20
51.59999999999999
 30
0
 11
-3.599541589327431
 21
54.59999999999999
 31
0
 12
-2.600458410672614
 22
54.59999999999999
 32
0
 13
-2.600458410672614
 23
54.59999999999999
 33
0
  0
MTEXT
  5
DC
100
AcDbEntity
  8
rozmir_zagib
  6
CONTINUOUS
 62
    0
370
   -2
100
AcDbMText
 10
-5.850000000000023
 20
64.80000000000001
 30
0
 40
3.5
 41
8.750000000000218
 71
    5
 72
    1
  1
26,4
  7
standard
210
0
220
0
230
1
 50
90
 73
    2
 44
1
  0
LINE
  5
DD
100
AcDbEntity
  8
rozmir_zagib
  6
ByBlock
 62
    0
370
   -2
100
AcDbLine
 10
0.5999999999999943
 20
78
 11
-5.100000000000021
 21
78
  0
LINE
  5
DE
100
AcDbEntity
  8
rozmir_zagib
  6
ByBlock
 62
    0
370
   -2
100
AcDbLine
 10
-1
 20
51.59999999999999
 11
-5.100000000000023
 21
51.59999999999999
  0
ENDBLK
  5
5A
330
58
100
AcDbEntity
  8
0
100
AcDbBlockEnd
  0
BLOCK
  5
5C
330
5B
100
AcDbEntity
  8
0
100
AcDbBlockBegin
  2
*D4
 70
    1
 10
0
 20
0
  3
*D4
  1

  0
LINE
  5
DF
100
AcDbEntity
  8
rozmir
  6
ByBlock
 62
    0
370
   -2
100
AcDbLine
 10
-2.842170943040401e-14
 20
281
 11
18
 21
281
  0
SOLID
  5
E0
100
AcDbEntity
  8
rozmir
  6
ByBlock
 62
    0
370
   -2
100
AcDbTrace
 10
-2.842170943040401e-14
 20
281
 30
0
 11
2.999999999999972
 21
281.4995415893274
 31
0
 12
2.999999999999972
 22
280.5004584106726
 32
0
 13
2.999999999999972
 23
280.5004584106726
 33
0
  0
SOLID
  5
E1
100
AcDbEntity
  8
rozmir
  6
ByBlock
 62
    0
370
   -2
100
AcDbTrace
 10
18
 20
281
 30
0
 11
15
 21
280.5004584106726
 31
0
 12
15
 22
281.4995415893274
 32
0
 13
15
 23
281.4995415893274
 33
0
  0
MTEXT
  5
E2
100
AcDbEntity
  8
rozmir
  6
CONTINUOUS
 62
    0
370
   -2
100
AcDbMText
 10
8.999999999999986
 20
283.75
 30
0
 40
3.5
 41
3.5
 71
    5
 72
    1
  1
18
  7
standard
210
0
220
0
230
1
 50
0
 73
    2
 44
1
  0
LINE
  5
E3
100
AcDbEntity
  8
rozmir
  6
ByBlock
 62
    0
370
   -2
100
AcDbLine
 10
-2.836047709044664e-14
 20
271.2999998201383
 11
-2.829924475048927e-14
 21
283
  0
LINE
  5
E4
100
AcDbEntity
  8
rozmir
  6
ByBlock
 62
    0
370
   -2
100
AcDbLine
 10
18
 20
271.3999961013792
 11
18
 21
283
  0
ENDBLK
  5
5D
330
5B
100
AcDbEntity
  8
0
100
AcDbBlockEnd
  0
BLOCK
  5
5F
330
5E
100
AcDbEntity
  8
0
100
AcDbBlockBegin
  2
*D8
 70
    1
 10
0
 20
0
  3
*D8
  1

  0
LINE
  5
E5
100
AcDbEntity
  8
rozmir
  6
ByBlock
 62
    0
370
   -2
100
AcDbLine
 10
-10
 20
300
 11
-10
 21
311
  0
SOLID
  5
E6
100
AcDbEntity
  8
rozmir
  6
ByBlock
 62
    0
370
   -2
100
AcDbTrace
 10
-10
 20
300
 30
0
 11
-10.49954158932741
 21
303
 31
0
 12
-9.500458410672591
 22
303
 32
0
 13
-9.500458410672591
 23
303
 33
0
  0
SOLID
  5
E7
100
AcDbEntity
  8
rozmir
  6
ByBlock
 62
    0
370
   -2
100
AcDbTrace
 10
-10
 20
311
 30
0
 11
-9.500458410672591
 21
308
 31
0
 12
-10.49954158932741
 22
308
 32
0
 13
-10.49954158932741
 23
308
 33
0
  0
MTEXT
  5
E8
100
AcDbEntity
  8
rozmir
  6
CONTINUOUS
 62
    0
370
   -2
100
AcDbMText
 10
-12.75
 20
305.5
 30
0
 40
3.5
 41
2.722222222222222
 71
    5
 72
    1
  1
11
  7
standard
210
0
220
0
230
1
 50
90
 73
    2
 44
1
  0
LINE
  5
E9
100
AcDbEntity
  8
rozmir
  6
ByBlock
 62
    0
370
   -2
100
AcDbLine
 10
0.5999988667722391
 20
300
 11
-12
 21
300
  0
LINE
  5
EA
100
AcDbEntity
  8
rozmir
  6
ByBlock
 62
    0
370
   -2
100
AcDbLine
 10
0.5999974256851601
 20
311
 11
-12
 21
311
  0
ENDBLK
  5
60
330
5E
100
AcDbEntity
  8
0
100
AcDbBlockEnd
  0
BLOCK
  5
62
330
61
100
AcDbEntity
  8
0
100
AcDbBlockBegin
  2
*D18
 70
    1
 10
0
 20
0
  3
*D18
  1

  0
LINE
  5
EB
100
AcDbEntity
  8
rozmir_zagib
  6
ByBlock
 62
    0
370
   -2
100
AcDbLine
 10
24.29999999999995
 20
210
 11
24.29999999999995
 21
228.4
  0
SOLID
  5
EC
100
AcDbEntity
  8
rozmir_zagib
  6
ByBlock
 62
    0
370
   -2
100
AcDbTrace
 10
24.29999999999995
 20
210
 30
0
 11
23.80045841067255
 21
213
 31
0
 12
24.79954158932737
 22
213
 32
0
 13
24.79954158932737
 23
213
 33
0
  0
SOLID
  5
ED
100
AcDbEntity
  8
rozmir_zagib
  6
ByBlock
 62
    0
370
   -2
100
AcDbTrace
 10
24.29999999999995
 20
228.4
 30
0
 11
24.79954158932736
 21
225.4
 31
0
 12
23.80045841067255
 22
225.4
 32
0
 13
23.80045841067255
 23
225.4
 33
0
  0
MTEXT
  5
EE
100
AcDbEntity
  8
rozmir_zagib
  6
CONTINUOUS
 62
    0
370
   -2
100
AcDbMText
 10
21.54999999999995
 20
219.2
 30
0
 40
3.5
 41
7.972222222222221
 71
    5
 72
    1
  1
18,4
  7
standard
210
0
220
0
230
1
 50
90
 73
    2
 44
1
  0
LINE
  5
EF
100
AcDbEntity
  8
rozmir_zagib
  6
ByBlock
 62
    0
370
   -2
100
AcDbLine
 10
17.40000000000003
 20
210
 11
26.29999999999995
 21
210
  0
LINE
  5
F0
100
AcDbEntity
  8
rozmir_zagib
  6
ByBlock
 62
    0
370
   -2
100
AcDbLine
 10
19
 20
228.4
 11
26.29999999999995
 21
228.4
  0
ENDBLK
  5
63
330
61
100
AcDbEntity
  8
0
100
AcDbBlockEnd
  0
BLOCK
  5
65
330
64
100
AcDbEntity
  8
0
100
AcDbBlockBegin
  2
*D20
 70
    1
 10
0
 20
0
  3
*D20
  1

  0
LINE
  5
F1
100
AcDbEntity
  8
rozmir_zagib
  6
ByBlock
 62
    0
370
   -2
100
AcDbLine
 10
-3.100000000000022
 20
177
 11
-3.100000000000023
 21
161.6
  0
SOLID
  5
F2
100
AcDbEntity
  8
rozmir_zagib
  6
ByBlock
 62
    0
370
   -2
100
AcDbTrace
 10
-3.100000000000022
 20
177
 30
0
 11
-2.600458410672613
 21
174
 31
0
 12
-3.599541589327431
 22
174
 32
0
 13
-3.599541589327431
 23
174
 33
0
  0
SOLID
  5
F3
100
AcDbEntity
  8
rozmir_zagib
  6
ByBlock
 62
    0
370
   -2
100
AcDbTrace
 10
-3.100000000000023
 20
161.6
 30
0
 11
-3.599541589327431
 21
164.6
 31
0
 12
-2.600458410672614
 22
164.6
 32
0
 13
-2.600458410672614
 23
164.6
 33
0
  0
MTEXT
  5
F4
100
AcDbEntity
  8
rozmir_zagib
  6
CONTINUOUS
 62
    0
370
   -2
100
AcDbMText
 10
-5.850000000000023
 20
169.3
 30
0
 40
3.5
 41
7.97222222222244
 71
    5
 72
    1
  1
15,4
  7
standard
210
0
220
0
230
1
 50
90
 73
    2
 44
1
  0
LINE
  5
F5
100
AcDbEntity
  8
rozmir_zagib
  6
ByBlock
 62
    0
370
   -2
100
AcDbLine
 10
0.6000000000000227
 20
177
 11
-5.100000000000022
 21
177
  0
LINE
  5
F6
100
AcDbEntity
  8
rozmir_zagib
  6
ByBlock
 62
    0
370
   -2
100
AcDbLine
 10
-1
 20
161.6
 11
-5.100000000000023
 21
161.6
  0
ENDBLK
  5
66
330
64
100
AcDbEntity
  8
0
100
AcDbBlockEnd
  0
BLOCK
  5
68
330
67
100
AcDbEntity
  8
0
100
AcDbBlockBegin
  2
*D9
 70
    1
 10
0
 20
0
  3
*D9
  1

  0
LINE
  5
F7
100
AcDbEntity
  8
rozmir_zagib
  6
ByBlock
 62
    0
370
   -2
100
AcDbLine
 10
0
 20
293.7
 11
12.39999886677219
 21
293.7
  0
SOLID
  5
F8
100
AcDbEntity
  8
rozmir_zagib
  6
ByBlock
 62
    0
370
   -2
100
AcDbTrace
 10
0
 20
293.7
 30
0
 11
3
 21
294.1995415893274
 31
0
 12
3
 22
293.2004584106726
 32
0
 13
3
 23
293.2004584106726
 33
0
  0
SOLID
  5
F9
100
AcDbEntity
  8
rozmir_zagib
  6
ByBlock
 62
    0
370
   -2
100
AcDbTrace
 10
12.39999886677219
 20
293.7
 30
0
 11
9.399998866772194
 21
293.2004584106726
 31
0
 12
9.399998866772194
 22
294.1995415893274
 32
0
 13
9.399998866772194
 23
294.1995415893274
 33
0
  0
MTEXT
  5
FA
100
AcDbEntity
  8
rozmir_zagib
  6
CONTINUOUS
 62
    0
370
   -2
100
AcDbMText
 10
6.199999433386097
 20
296.45
 30
0
 40
3.5
 41
7.972222222222221
 71
    5
 72
    1
  1
12,4
  7
standard
210
0
220
0
230
1
 50
0
 73
    2
 44
1
  0
LINE
  5
FB
100
AcDbEntity
  8
rozmir_zagib
  6
ByBlock
 62
    0
370
   -2
100
AcDbLine
 10
-1.83697019872103e-16
 20
300.7
 11
-3.673940397442059e-16
 21
291.7
  0
LINE
  5
FC
100
AcDbEntity
  8
rozmir_zagib
  6
ByBlock
 62
    0
370
   -2
100
AcDbLine
 10
12.39999886677219
 20
299
 11
12.39999886677219
 21
291.7
  0
ENDBLK
  5
69
330
67
100
AcDbEntity
  8
0
100
AcDbBlockEnd
  0
BLOCK
  5
6B
330
6A
100
AcDbEntity
  8
0
100
AcDbBlockBegin
  2
*D31
 70
    1
 10
0
 20
0
  3
*D31
  1

  0
LINE
  5
FD
100
AcDbEntity
  8
rozmir
  6
ByBlock
 62
    0
370
   -2
100
AcDbLine
 10
-9.999999999999998
 20
77.99999999999999
 11
-10
 21
50
  0
SOLID
  5
FE
100
AcDbEntity
  8
rozmir
  6
ByBlock
 62
    0
370
   -2
100
AcDbTrace
 10
-9.999999999999998
 20
77.99999999999999
 30
0
 11
-9.500458410672589
 21
74.99999999999999
 31
0
 12
-10.49954158932741
 22
74.99999999999999
 32
0
 13
-10.49954158932741
 23
74.99999999999999
 33
0
  0
SOLID
  5
FF
100
AcDbEntity
  8
rozmir
  6
ByBlock
 62
    0
370
   -2
100
AcDbTrace
 10
-10
 20
50
 30
0
 11
-10.49954158932741
 21
53
 31
0
 12
-9.500458410672591
 22
53
 32
0
 13
-9.500458410672591
 23
53
 33
0
  0
MTEXT
  5
100
100
AcDbEntity
  8
rozmir
  6
CONTINUOUS
 62
    0
370
   -2
100
AcDbMText
 10
-12.75
 20
64
 30
0
 40
3.5
 41
4.277777777777778
 71
    5
 72
    1
  1
28
  7
standard
210
0
220
0
230
1
 50
90
 73
    2
 44
1
  0
LINE
  5
101
100
AcDbEntity
  8
rozmir
  6
ByBlock
 62
    0
370
   -2
100
AcDbLine
 10
0.6999999999999886
 20
77.99999999999999
 11
-12
 21
77.99999999999999
  0
LINE
  5
102
100
AcDbEntity
  8
rozmir
  6
ByBlock
 62
    0
370
   -2
100
AcDbLine
 10
0.6999999999999886
 20
50
 11
-12
 21
50
  0
ENDBLK
  5
6C
330
6A
100
AcDbEntity
  8
0
100
AcDbBlockEnd
  0
BLOCK
  5
6E
330
6D
100
AcDbEntity
  8
0
100
AcDbBlockBegin
  2
*D35
 70
    1
 10
0
 20
0
  3
*D35
  1

  0
LINE
  5
103
100
AcDbEntity
  8
rozmir_zagib
  6
ByBlock
 62
    0
370
   -2
100
AcDbLine
 10
40
 20
50
 11
40
 21
76.40000000000001
  0
SOLID
  5
104
100
AcDbEntity
  8
rozmir_zagib
  6
ByBlock
 62
    0
370
   -2
100
AcDbTrace
 10
40
 20
50
 30
0
 11
39.50045841067259
 21
53
 31
0
 12
40.49954158932741
 22
53
 32
0
 13
40.49954158932741
 23
53
 33
0
  0
SOLID
  5
105
100
AcDbEntity
  8
rozmir_zagib
  6
ByBlock
 62
    0
370
   -2
100
AcDbTrace
 10
40
 20
76.40000000000001
 30
0
 11
40.49954158932741
 21
73.40000000000001
 31
0
 12
39.50045841067259
 22
73.40000000000001
 32
0
 13
39.50045841067259
 23
73.40000000000001
 33
0
  0
MTEXT
  5
106
100
AcDbEntity
  8
rozmir_zagib
  6
CONTINUOUS
 62
    0
370
   -2
100
AcDbMText
 10
37.25
 20
63.19999999999999
 30
0
 40
3.5
 41
8.750000000000218
 71
    5
 72
    1
  1
26,4
  7
standard
210
0
220
0
230
1
 50
90
 73
    2
 44
1
  0
LINE
  5
107
100
AcDbEntity
  8
rozmir_zagib
  6
ByBlock
 62
    0
370
   -2
100
AcDbLine
 10
32.40000000000001
 20
50
 11
42
 21
50
  0
LINE
  5
108
100
AcDbEntity
  8
rozmir_zagib
  6
ByBlock
 62
    0
370
   -2
100
AcDbLine
 10
34
 20
76.40000000000001
 11
42
 21
76.40000000000001
  0
ENDBLK
  5
6F
330
6D
100
AcDbEntity
  8
0
100
AcDbBlockEnd
  0
BLOCK
  5
71
330
70
100
AcDbEntity
  8
0
100
AcDbBlockBegin
  2
*D41
 70
    1
 10
0
 20
0
  3
*D41
  1

  0
LINE
  5
109
100
AcDbEntity
  8
rozmir_zagib
  6
ByBlock
 62
    0
370
   -2
100
AcDbLine
 10
30
 20
-1.77635683940025e-15
 11
30
 21
21.40000000000001
  0
SOLID
  5
10A
100
AcDbEntity
  8
rozmir_zagib
  6
ByBlock
 62
    0
370
   -2
100
AcDbTrace
 10
30
 20
-1.77635683940025e-15
 30
0
 11
29.50045841067259
 21
2.999999999999998
 31
0
 12
30.49954158932741
 22
2.999999999999998
 32
0
 13
30.49954158932741
 23
2.999999999999998
 33
0
  0
SOLID
  5
10B
100
AcDbEntity
  8
rozmir_zagib
  6
ByBlock
 62
    0
370
   -2
100
AcDbTrace
 10
30
 20
21.40000000000001
 30
0
 11
30.49954158932741
 21
18.40000000000001
 31
0
 12
29.50045841067259
 22
18.40000000000001
 32
0
 13
29.50045841067259
 23
18.40000000000001
 33
0
  0
MTEXT
  5
10C
100
AcDbEntity
  8
rozmir_zagib
  6
CONTINUOUS
 62
    0
370
   -2
100
AcDbMText
 10
27.25
 20
10.69999999999999
 30
0
 40
3.5
 41
7.972222222222221
 71
    5
 72
    1
  1
21,4
  7
standard
210
0
220
0
230
1
 50
90
 73
    2
 44
1
  0
LINE
  5
10D
100
AcDbEntity
  8
rozmir_zagib
  6
ByBlock
 62
    0
370
   -2
100
AcDbLine
 10
22.40000000000001
 20
0
 11
32
 21
-1.77635683940025e-15
  0
LINE
  5
10E
100
AcDbEntity
  8
rozmir_zagib
  6
ByBlock
 62
    0
370
   -2
100
AcDbLine
 10
24
 20
21.40000000000001
 11
32
 21
21.40000000000001
  0
ENDBLK
  5
72
330
70
100
AcDbEntity
  8
0
100
AcDbBlockEnd
  0
BLOCK
  5
74
330
73
100
AcDbEntity
  8
0
100
AcDbBlockBegin
  2
*D21
 70
    1
 10
0
 20
0
  3
*D21
  1

  0
LINE
  5
10F
100
AcDbEntity
  8
rozmir_zagib
  6
ByBlock
 62
    0
370
   -2
100
AcDbLine
 10
0
 20
153.7
 11
11.39999999999998
 21
153.7
  0
SOLID
  5
110
100
AcDbEntity
  8
rozmir_zagib
  6
ByBlock
 62
    0
370
   -2
100
AcDbTrace
 10
0
 20
153.7
 30
0
 11
3
 21
154.1995415893274
 31
0
 12
3
 22
153.2004584106726
 32
0
 13
3
 23
153.2004584106726
 33
0
  0
SOLID
  5
111
100
AcDbEntity
  8
rozmir_zagib
  6
ByBlock
 62
    0
370
   -2
100
AcDbTrace
 10
11.39999999999998
 20
153.7
 30
0
 11
8.399999999999977
 21
153.2004584106726
 31
0
 12
8.399999999999977
 22
154.1995415893274
 32
0
 13
8.399999999999977
 23
154.1995415893274
 33
0
  0
MTEXT
  5
112
100
AcDbEntity
  8
rozmir_zagib
  6
CONTINUOUS
 62
    0
370
   -2
100
AcDbMText
 10
5.699999999999989
 20
156.45
 30
0
 40
3.5
 41
7.194444444444445
 71
    5
 72
    1
  1
11,4
  7
standard
210
0
220
0
230
1
 50
0
 73
    2
 44
1
  0
LINE
  5
113
100
AcDbEntity
  8
rozmir_zagib
  6
ByBlock
 62
    0
370
   -2
100
AcDbLine
 10
-1.83697019872103e-16
 20
160.7
 11
-3.673940397442059e-16
 21
151.7
  0
LINE
  5
114
100
AcDbEntity
  8
rozmir_zagib
  6
ByBlock
 62
    0
370
   -2
100
AcDbLine
 10
11.39999999999998
 20
159
 11
11.39999999999998
 21
151.7
  0
ENDBLK
  5
75
330
73
100
AcDbEntity
  8
0
100
AcDbBlockEnd
  0
BLOCK
  5
77
330
76
100
AcDbEntity
  8
0
100
AcDbBlockBegin
  2
*D34
 70
    1
 10
0
 20
0
  3
*D34
  1

  0
LINE
  5
115
100
AcDbEntity
  8
rozmir
  6
ByBlock
 62
    0
370
   -2
100
AcDbLine
 10
-2.842170943040401e-14
 20
87
 11
33
 21
87
  0
SOLID
  5
116
100
AcDbEntity
  8
rozmir
  6
ByBlock
 62
    0
370
   -2
100
AcDbTrace
 10
-2.842170943040401e-14
 20
87
 30
0
 11
2.999999999999972
 21
87.49954158932741
 31
0
 12
2.999999999999972
 22
86.50045841067259
 32
0
 13
2.999999999999972
 23
86.50045841067259
 33
0
  0
SOLID
  5
117
100
AcDbEntity
  8
rozmir
  6
ByBlock
 62
    0
370
   -2
100
AcDbTrace
 10
33
 20
87
 30
0
 11
30
 21
86.50045841067259
 31
0
 12
30
 22
87.49954158932741
 32
0
 13
30
 23
87.49954158932741
 33
0
  0
MTEXT
  5
118
100
AcDbEntity
  8
rozmir
  6
CONTINUOUS
 62
    0
370
   -2
100
AcDbMText
 10
16.5
 20
89.75
 30
0
 40
3.5
 41
4.277777777778212
 71
    5
 72
    1
  1
33
  7
standard
210
0
220
0
230
1
 50
0
 73
    2
 44
1
  0
LINE
  5
119
100
AcDbEntity
  8
rozmir
  6
ByBlock
 62
    0
370
   -2
100
AcDbLine
 10
-2.836047709044664e-14
 20
77.29999982013832
 11
-2.829924475048927e-14
 21
89
  0
LINE
  5
11A
100
AcDbEntity
  8
rozmir
  6
ByBlock
 62
    0
370
   -2
100
AcDbLine
 10
33
 20
77.39999610137923
 11
33
 21
89
  0
ENDBLK
  5
78
330
76
100
AcDbEntity
  8
0
100
AcDbBlockEnd
  0
BLOCK
  5
7A
330
79
100
AcDbEntity
  8
0
100
AcDbBlockBegin
  2
*D19
 70
    1
 10
0
 20
0
  3
*D19
  1

  0
LINE
  5
11B
100
AcDbEntity
  8
rozmir
  6
ByBlock
 62
    0
370
   -2
100
AcDbLine
 10
-9.999999999999998
 20
177
 11
-10
 21
160
  0
SOLID
  5
11C
100
AcDbEntity
  8
rozmir
  6
ByBlock
 62
    0
370
   -2
100
AcDbTrace
 10
-9.999999999999998
 20
177
 30
0
 11
-9.500458410672589
 21
174
 31
0
 12
-10.49954158932741
 22
174
 32
0
 13
-10.49954158932741
 23
174
 33
0
  0
SOLID
  5
11D
100
AcDbEntity
  8
rozmir
  6
ByBlock
 62
    0
370
   -2
100
AcDbTrace
 10
-10
 20
160
 30
0
 11
-10.49954158932741
 21
163
 31
0
 12
-9.500458410672591
 22
163
 32
0
 13
-9.500458410672591
 23
163
 33
0
  0
MTEXT
  5
11E
100
AcDbEntity
  8
rozmir
  6
CONTINUOUS
 62
    0
370
   -2
100
AcDbMText
 10
-12.75
 20
168.5
 30
0
 40
3.5
 41
3.5
 71
    5
 72
    1
  1
17
  7
standard
210
0
220
0
230
1
 50
90
 73
    2
 44
1
  0
LINE
  5
11F
100
AcDbEntity
  8
rozmir
  6
ByBlock
 62
    0
370
   -2
100
AcDbLine
 10
0.6999999999999886
 20
177
 11
-12
 21
177
  0
LINE
  5
120
100
AcDbEntity
  8
rozmir
  6
ByBlock
 62
    0
370
   -2
100
AcDbLine
 10
0.6999999999999886
 20
160
 11
-12
 21
160
  0
ENDBLK
  5
7B
330
79
100
AcDbEntity
  8
0
100
AcDbBlockEnd
  0
BLOCK
  5
7D
330
7C
100
AcDbEntity
  8
0
100
AcDbBlockBegin
  2
*D17
 70
    1
 10
0
 20
0
  3
*D17
  1

  0
LINE
  5
121
100
AcDbEntity
  8
rozmir
  6
ByBlock
 62
    0
370
   -2
100
AcDbLine
 10
0
 20
239
 11
18
 21
239
  0
SOLID
  5
122
100
AcDbEntity
  8
rozmir
  6
ByBlock
 62
    0
370
   -2
100
AcDbTrace
 10
0
 20
239
 30
0
 11
3
 21
239.4995415893274
 31
0
 12
3
 22
238.5004584106726
 32
0
 13
3
 23
238.5004584106726
 33
0
  0
SOLID
  5
123
100
AcDbEntity
  8
rozmir
  6
ByBlock
 62
    0
370
   -2
100
AcDbTrace
 10
18
 20
239
 30
0
 11
15
 21
238.5004584106726
 31
0
 12
15
 22
239.4995415893274
 32
0
 13
15
 23
239.4995415893274
 33
0
  0
MTEXT
  5
124
100
AcDbEntity
  8
rozmir
  6
CONTINUOUS
 62
    0
370
   -2
100
AcDbMText
 10
9
 20
241.75
 30
0
 40
3.5
 41
3.5
 71
    5
 72
    1
  1
18
  7
standard
210
0
220
0
230
1
 50
0
 73
    2
 44
1
  0
LINE
  5
125
100
AcDbEntity
  8
rozmir
  6
ByBlock
 62
    0
370
   -2
100
AcDbLine
 10
6.123233995736766e-17
 20
229.2999998201383
 11
1.224646799147353e-16
 21
241
  0
LINE
  5
126
100
AcDbEntity
  8
rozmir
  6
ByBlock
 62
    0
370
   -2
100
AcDbLine
 10
18
 20
229.3999961013792
 11
18
 21
241
  0
ENDBLK
  5
7E
330
7C
100
AcDbEntity
  8
0
100
AcDbBlockEnd
  0
BLOCK
  5
80
330
7F
100
AcDbEntity
  8
0
100
AcDbBlockBegin
  2
*D11
 70
    1
 10
0
 20
0
  3
*D11
  1

  0
LINE
  5
127
100
AcDbEntity
  8
rozmir
  6
ByBlock
 62
    0
370
   -2
100
AcDbLine
 10
-1.133227783611801e-06
 20
321
 11
13.99999886677222
 21
321
  0
SOLID
  5
128
100
AcDbEntity
  8
rozmir
  6
ByBlock
 62
    0
370
   -2
100
AcDbTrace
 10
-1.133227783611801e-06
 20
321
 30
0
 11
2.999998866772216
 21
321.4995415893274
 31
0
 12
2.999998866772216
 22
320.5004584106726
 32
0
 13
2.999998866772216
 23
320.5004584106726
 33
0
  0
SOLID
  5
129
100
AcDbEntity
  8
rozmir
  6
ByBlock
 62
    0
370
   -2
100
AcDbTrace
 10
13.99999886677222
 20
321
 30
0
 11
10.99999886677222
 21
320.5004584106726
 31
0
 12
10.99999886677222
 22
321.4995415893274
 32
0
 13
10.99999886677222
 23
321.4995415893274
 33
0
  0
MTEXT
  5
12A
100
AcDbEntity
  8
rozmir
  6
CONTINUOUS
 62
    0
370
   -2
100
AcDbMText
 10
6.999998866772216
 20
323.75
 30
0
 40
3.5
 41
3.888888888888889
 71
    5
 72
    1
  1
14
  7
standard
210
0
220
0
230
1
 50
0
 73
    2
 44
1
  0
LINE
  5
12B
100
AcDbEntity
  8
rozmir
  6
ByBlock
 62
    0
370
   -2
100
AcDbLine
 10
-1.133227783550569e-06
 20
310.400000737932
 11
-1.133227783489336e-06
 21
323
  0
LINE
  5
12C
100
AcDbEntity
  8
rozmir
  6
ByBlock
 62
    0
370
   -2
100
AcDbLine
 10
13.99999886677222
 20
310.400000526783
 11
13.99999886677222
 21
323
  0
ENDBLK
  5
81
330
7F
100
AcDbEntity
  8
0
100
AcDbBlockEnd
  0
BLOCK
  5
83
330
82
100
AcDbEntity
  8
0
100
AcDbBlockBegin
  2
*D42
 70
    1
 10
0
 20
0
  3
*D42
  1

  0
LINE
  5
12D
100
AcDbEntity
  8
rozmir
  6
ByBlock
 62
    0
370
   -2
100
AcDbLine
 10
-2.486899575160351e-14
 20
32
 11
23
 21
32
  0
SOLID
  5
12E
100
AcDbEntity
  8
rozmir
  6
ByBlock
 62
    0
370
   -2
100
AcDbTrace
 10
-2.486899575160351e-14
 20
32
 30
0
 11
2.999999999999975
 21
32.49954158932741
 31
0
 12
2.999999999999975
 22
31.50045841067259
 32
0
 13
2.999999999999975
 23
31.50045841067259
 33
0
  0
SOLID
  5
12F
100
AcDbEntity
  8
rozmir
  6
ByBlock
 62
    0
370
   -2
100
AcDbTrace
 10
23
 20
32
 30
0
 11
20
 21
31.50045841067259
 31
0
 12
20
 22
32.49954158932741
 32
0
 13
20
 23
32.49954158932741
 33
0
  0
MTEXT
  5
130
100
AcDbEntity
  8
rozmir
  6
CONTINUOUS
 62
    0
370
   -2
100
AcDbMText
 10
11.5
 20
34.75
 30
0
 40
3.5
 41
4.277777777777995
 71
    5
 72
    1
  1
23
  7
standard
210
0
220
0
230
1
 50
0
 73
    2
 44
1
  0
LINE
  5
131
100
AcDbEntity
  8
rozmir
  6
ByBlock
 62
    0
370
   -2
100
AcDbLine
 10
-2.813843248552161e-14
 20
22.29999982013831
 11
-2.430244186183871e-14
 21
34
  0
LINE
  5
132
100
AcDbEntity
  8
rozmir
  6
ByBlock
 62
    0
370
   -2
100
AcDbLine
 10
23
 20
22.39999610137923
 11
23
 21
34
  0
ENDBLK
  5
84
330
82
100
AcDbEntity
  8
0
100
AcDbBlockEnd
  0
BLOCK
  5
86
330
85
100
AcDbEntity
  8
0
100
AcDbBlockBegin
  2
*D2
 70
    1
 10
0
 20
0
  3
*D2
  1

  0
LINE
  5
133
100
AcDbEntity
  8
rozmir
  6
ByBlock
 62
    0
370
   -2
100
AcDbLine
 10
-10
 20
272
 11
-10
 21
260
  0
SOLID
  5
134
100
AcDbEntity
  8
rozmir
  6
ByBlock
 62
    0
370
   -2
100
AcDbTrace
 10
-10
 20
272
 30
0
 11
-9.500458410672591
 21
269
 31
0
 12
-10.49954158932741
 22
269
 32
0
 13
-10.49954158932741
 23
269
 33
0
  0
SOLID
  5
135
100
AcDbEntity
  8
rozmir
  6
ByBlock
 62
    0
370
   -2
100
AcDbTrace
 10
-10
 20
260
 30
0
 11
-10.49954158932741
 21
263
 31
0
 12
-9.500458410672591
 22
263
 32
0
 13
-9.500458410672591
 23
263
 33
0
  0
MTEXT
  5
136
100
AcDbEntity
  8
rozmir
  6
CONTINUOUS
 62
    0
370
   -2
100
AcDbMText
 10
-12.75
 20
266
 30
0
 40
3.5
 41
3.5
 71
    5
 72
    1
  1
12
  7
standard
210
0
220
0
230
1
 50
90
 73
    2
 44
1
  0
LINE
  5
137
100
AcDbEntity
  8
rozmir
  6
ByBlock
 62
    0
370
   -2
100
AcDbLine
 10
0.6999999999999891
 20
272
 11
-12
 21
272
  0
LINE
  5
138
100
AcDbEntity
  8
rozmir
  6
ByBlock
 62
    0
370
   -2
100
AcDbLine
 10
0.6999999999999891
 20
260
 11
-12
 21
260
  0
ENDBLK
  5
87
330
85
100
AcDbEntity
  8
0
100
AcDbBlockEnd
  0
BLOCK
  5
89
330
88
100
AcDbEntity
  8
0
100
AcDbBlockBegin
  2
*D40
 70
    1
 10
0
 20
0
  3
*D40
  1

  0
LINE
  5
139
100
AcDbEntity
  8
rozmir_zagib
  6
ByBlock
 62
    0
370
   -2
100
AcDbLine
 10
14
 20
25.69999999999999
 11
1.700004301932466
 21
25.69999999999999
  0
SOLID
  5
13A
100
AcDbEntity
  8
rozmir_zagib
  6
ByBlock
 62
    0
370
   -2
100
AcDbTrace
 10
14
 20
25.69999999999999
 30
0
 11
11
 21
25.20045841067258
 31
0
 12
11
 22
26.1995415893274
 32
0
 13
11
 23
26.1995415893274
 33
0
  0
SOLID
  5
13B
100
AcDbEntity
  8
rozmir_zagib
  6
ByBlock
 62
    0
370
   -2
100
AcDbTrace
 10
1.700004301932466
 20
25.69999999999999
 30
0
 11
4.700004301932466
 21
26.1995415893274
 31
0
 12
4.700004301932466
 22
25.20045841067258
 32
0
 13
4.700004301932466
 23
25.20045841067258
 33
0
  0
MTEXT
  5
13C
100
AcDbEntity
  8
rozmir_zagib
  6
CONTINUOUS
 62
    0
370
   -2
100
AcDbMText
 10
7.850002150966247
 20
28.44999999999999
 30
0
 40
3.5
 41
7.583333333333551
 71
    5
 72
    1
  1
12,3
  7
standard
210
0
220
0
230
1
 50
360
 73
    2
 44
1
  0
LINE
  5
13D
100
AcDbEntity
  8
rozmir_zagib
  6
ByBlock
 62
    0
370
   -2
100
AcDbLine
 10
14
 20
24
 11
14
 21
27.69999999999999
  0
LINE
  5
13E
100
AcDbEntity
  8
rozmir_zagib
  6
ByBlock
 62
    0
370
   -2
100
AcDbLine
 10
1.700004301932466
 20
24.00000000000003
 11
1.700004301932467
 21
27.69999999999999
  0
ENDBLK
  5
8A
330
88
100
AcDbEntity
  8
0
100
AcDbBlockEnd
  0
BLOCK
  5
8C
330
8B
100
AcDbEntity
  8
0
100
AcDbBlockBegin
  2
*D14
 70
    1
 10
0
 20
0
  3
*D14
  1

  0
LINE
  5
13F
100
AcDbEntity
  8
rozmir_zagib
  6
ByBlock
 62
    0
370
   -2
100
AcDbLine
 10
11.5
 20
232.7
 11
1.700004301932495
 21
232.7
  0
SOLID
  5
140
100
AcDbEntity
  8
rozmir_zagib
  6
ByBlock
 62
    0
370
   -2
100
AcDbTrace
 10
11.5
 20
232.7
 30
0
 11
8.5
 21
232.2004584106726
 31
0
 12
8.5
 22
233.1995415893274
 32
0
 13
8.5
 23
233.1995415893274
 33
0
  0
SOLID
  5
141
100
AcDbEntity
  8
rozmir_zagib
  6
ByBlock
 62
    0
370
   -2
100
AcDbTrace
 10
1.700004301932495
 20
232.7
 30
0
 11
4.700004301932495
 21
233.1995415893274
 31
0
 12
4.700004301932495
 22
232.2004584106726
 32
0
 13
4.700004301932495
 23
232.2004584106726
 33
0
  0
MTEXT
  5
142
100
AcDbEntity
  8
rozmir_zagib
  6
CONTINUOUS
 62
    0
370
   -2
100
AcDbMText
 10
6.600002150966247
 20
235.45
 30
0
 40
3.5
 41
5.638888888889106
 71
    5
 72
    1
  1
9,8
  7
standard
210
0
220
0
230
1
 50
360
 73
    2
 44
1
  0
LINE
  5
143
100
AcDbEntity
  8
rozmir_zagib
  6
ByBlock
 62
    0
370
   -2
100
AcDbLine
 10
11.5
 20
231
 11
11.5
 21
234.7
  0
LINE
  5
144
100
AcDbEntity
  8
rozmir_zagib
  6
ByBlock
 62
    0
370
   -2
100
AcDbLine
 10
1.700004301932495
 20
231
 11
1.700004301932495
 21
234.7
  0
ENDBLK
  5
8D
330
8B
100
AcDbEntity
  8
0
100
AcDbBlockEnd
  0
BLOCK
  5
8F
330
8E
100
AcDbEntity
  8
0
100
AcDbBlockBegin
  2
*D23
 70
    1
 10
0
 20
0
  3
*D23
  1

  0
LINE
  5
145
100
AcDbEntity
  8
rozmir_zagib
  6
ByBlock
 62
    0
370
   -2
100
AcDbLine
 10
19.30000000000001
 20
160
 11
19.30000000000001
 21
175.4
  0
SOLID
  5
146
100
AcDbEntity
  8
rozmir_zagib
  6
ByBlock
 62
    0
370
   -2
100
AcDbTrace
 10
19.30000000000001
 20
160
 30
0
 11
18.8004584106726
 21
163
 31
0
 12
19.79954158932742
 22
163
 32
0
 13
19.79954158932742
 23
163
 33
0
  0
SOLID
  5
147
100
AcDbEntity
  8
rozmir_zagib
  6
ByBlock
 62
    0
370
   -2
100
AcDbTrace
 10
19.30000000000001
 20
175.4
 30
0
 11
19.79954158932742
 21
172.4
 31
0
 12
18.8004584106726
 22
172.4
 32
0
 13
18.8004584106726
 23
172.4
 33
0
  0
MTEXT
  5
148
100
AcDbEntity
  8
rozmir_zagib
  6
CONTINUOUS
 62
    0
370
   -2
100
AcDbMText
 10
16.55000000000001
 20
167.7
 30
0
 40
3.5
 41
7.97222222222244
 71
    5
 72
    1
  1
15,4
  7
standard
210
0
220
0
230
1
 50
90
 73
    2
 44
1
  0
LINE
  5
149
100
AcDbEntity
  8
rozmir_zagib
  6
ByBlock
 62
    0
370
   -2
100
AcDbLine
 10
12.39999999999998
 20
160
 11
21.30000000000001
 21
160
  0
LINE
  5
14A
100
AcDbEntity
  8
rozmir_zagib
  6
ByBlock
 62
    0
370
   -2
100
AcDbLine
 10
14
 20
175.4
 11
21.30000000000001
 21
175.4
  0
ENDBLK
  5
90
330
8E
100
AcDbEntity
  8
0
100
AcDbBlockEnd
  0
BLOCK
  5
92
330
91
100
AcDbEntity
  8
0
100
AcDbBlockBegin
  2
*D3
 70
    1
 10
0
 20
0
  3
*D3
  1

  0
LINE
  5
14B
100
AcDbEntity
  8
rozmir_zagib
  6
ByBlock
 62
    0
370
   -2
100
AcDbLine
 10
-3.100000000000023
 20
272
 11
-3.100000000000023
 21
261.6
  0
SOLID
  5
14C
100
AcDbEntity
  8
rozmir_zagib
  6
ByBlock
 62
    0
370
   -2
100
AcDbTrace
 10
-3.100000000000023
 20
272
 30
0
 11
-2.600458410672614
 21
269
 31
0
 12
-3.599541589327432
 22
269
 32
0
 13
-3.599541589327432
 23
269
 33
0
  0
SOLID
  5
14D
100
AcDbEntity
  8
rozmir_zagib
  6
ByBlock
 62
    0
370
   -2
100
AcDbTrace
 10
-3.100000000000023
 20
261.6
 30
0
 11
-3.599541589327431
 21
264.6
 31
0
 12
-2.600458410672614
 22
264.6
 32
0
 13
-2.600458410672614
 23
264.6
 33
0
  0
MTEXT
  5
14E
100
AcDbEntity
  8
rozmir_zagib
  6
CONTINUOUS
 62
    0
370
   -2
100
AcDbMText
 10
-5.850000000000023
 20
266.8
 30
0
 40
3.5
 41
7.972222222222221
 71
    5
 72
    1
  1
10,4
  7
standard
210
0
220
0
230
1
 50
90
 73
    2
 44
1
  0
LINE
  5
14F
100
AcDbEntity
  8
rozmir_zagib
  6
ByBlock
 62
    0
370
   -2
100
AcDbLine
 10
0.6000000000000001
 20
272
 11
-5.100000000000023
 21
272
  0
LINE
  5
150
100
AcDbEntity
  8
rozmir_zagib
  6
ByBlock
 62
    0
370
   -2
100
AcDbLine
 10
-1
 20
261.6
 11
-5.100000000000023
 21
261.6
  0
ENDBLK
  5
93
330
91
100
AcDbEntity
  8
0
100
AcDbBlockEnd
  0
BLOCK
  5
95
330
94
100
AcDbEntity
  8
0
100
AcDbBlockBegin
  2
*D15
 70
    1
 10
0
 20
0
  3
*D15
  1

  0
LINE
  5
151
100
AcDbEntity
  8
rozmir
  6
ByBlock
 62
    0
370
   -2
100
AcDbLine
 10
-9.999999999999998
 20
230
 11
-10
 21
210
  0
SOLID
  5
152
100
AcDbEntity
  8
rozmir
  6
ByBlock
 62
    0
370
   -2
100
AcDbTrace
 10
-9.999999999999998
 20
230
 30
0
 11
-9.500458410672589
 21
227
 31
0
 12
-10.49954158932741
 22
227
 32
0
 13
-10.49954158932741
 23
227
 33
0
  0
SOLID
  5
153
100
AcDbEntity
  8
rozmir
  6
ByBlock
 62
    0
370
   -2
100
AcDbTrace
 10
-10
 20
210
 30
0
 11
-10.49954158932741
 21
213
 31
0
 12
-9.500458410672591
 22
213
 32
0
 13
-9.500458410672591
 23
213
 33
0
  0
MTEXT
  5
154
100
AcDbEntity
  8
rozmir
  6
CONTINUOUS
 62
    0
370
   -2
100
AcDbMText
 10
-12.75
 20
220
 30
0
 40
3.5
 41
4.277777777777779
 71
    5
 72
    1
  1
20
  7
standard
210
0
220
0
230
1
 50
90
 73
    2
 44
1
  0
LINE
  5
155
100
AcDbEntity
  8
rozmir
  6
ByBlock
 62
    0
370
   -2
100
AcDbLine
 10
0.6999999999999886
 20
230
 11
-12
 21
230
  0
LINE
  5
156
100
AcDbEntity
  8
rozmir
  6
ByBlock
 62
    0
370
   -2
100
AcDbLine
 10
0.6999999999999886
 20
210
 11
-12
 21
210
  0
ENDBLK
  5
96
330
94
100
AcDbEntity
  8
0
100
AcDbBlockEnd
  0
BLOCK
  5
98
330
97
100
AcDbEntity
  8
0
100
AcDbBlockBegin
  2
*D26
 70
    1
 10
0
 20
0
  3
*D26
  1

  0
LINE
  5
157
100
AcDbEntity
  8
rozmir
  6
ByBlock
 62
    0
370
   -2
100
AcDbLine
 10
-10
 20
125
 11
-10
 21
110
  0
SOLID
  5
158
100
AcDbEntity
  8
rozmir
  6
ByBlock
 62
    0
370
   -2
100
AcDbTrace
 10
-10
 20
125
 30
0
 11
-9.500458410672591
 21
122
 31
0
 12
-10.49954158932741
 22
122
 32
0
 13
-10.49954158932741
 23
122
 33
0
  0
SOLID
  5
159
100
AcDbEntity
  8
rozmir
  6
ByBlock
 62
    0
370
   -2
100
AcDbTrace
 10
-10
 20
110
 30
0
 11
-10.49954158932741
 21
113
 31
0
 12
-9.500458410672591
 22
113
 32
0
 13
-9.500458410672591
 23
113
 33
0
  0
MTEXT
  5
15A
100
AcDbEntity
  8
rozmir
  6
CONTINUOUS
 62
    0
370
   -2
100
AcDbMText
 10
-12.75
 20
117.5
 30
0
 40
3.5
 41
3.500000000000217
 71
    5
 72
    1
  1
15
  7
standard
210
0
220
0
230
1
 50
90
 73
    2
 44
1
  0
LINE
  5
15B
100
AcDbEntity
  8
rozmir
  6
ByBlock
 62
    0
370
   -2
100
AcDbLine
 10
0.6999999999999886
 20
125
 11
-12
 21
125
  0
LINE
  5
15C
100
AcDbEntity
  8
rozmir
  6
ByBlock
 62
    0
370
   -2
100
AcDbLine
 10
0.6999999999999886
 20
110
 11
-12
 21
110
  0
ENDBLK
  5
99
330
97
100
AcDbEntity
  8
0
100
AcDbBlockEnd
  0
BLOCK
  5
9B
330
9A
100
AcDbEntity
  8
0
100
AcDbBlockBegin
  2
*D12
 70
    1
 10
0
 20
0
  3
*D12
  1

  0
LINE
  5
15D
100
AcDbEntity
  8
rozmir_zagib
  6
ByBlock
 62
    0
370
   -2
100
AcDbLine
 10
9.599999999999966
 20
314.7
 11
1.59999742568516
 21
314.7
  0
SOLID
  5
15E
100
AcDbEntity
  8
rozmir_zagib
  6
ByBlock
 62
    0
370
   -2
100
AcDbTrace
 10
9.599999999999966
 20
314.7
 30
0
 11
6.599999999999966
 21
314.2004584106726
 31
0
 12
6.599999999999966
 22
315.1995415893274
 32
0
 13
6.599999999999966
 23
315.1995415893274
 33
0
  0
SOLID
  5
15F
100
AcDbEntity
  8
rozmir_zagib
  6
ByBlock
 62
    0
370
   -2
100
AcDbTrace
 10
1.59999742568516
 20
314.7
 30
0
 11
4.59999742568516
 21
315.1995415893274
 31
0
 12
4.59999742568516
 22
314.2004584106726
 32
0
 13
4.59999742568516
 23
314.2004584106726
 33
0
  0
MTEXT
  5
160
100
AcDbEntity
  8
rozmir_zagib
  6
CONTINUOUS
 62
    0
370
   -2
100
AcDbMText
 10
5.599998712842591
 20
317.45
 30
0
 40
3.5
 41
1.555555555555556
 71
    5
 72
    1
  1
8
  7
standard
210
0
220
0
230
1
 50
360
 73
    2
 44
1
  0
LINE
  5
161
100
AcDbEntity
  8
rozmir_zagib
  6
ByBlock
 62
    0
370
   -2
100
AcDbLine
 10
9.599999999999966
 20
312
 11
9.599999999999966
 21
316.7
  0
LINE
  5
162
100
AcDbEntity
  8
rozmir_zagib
  6
ByBlock
 62
    0
370
   -2
100
AcDbLine
 10
1.59999742568516
 20
312
 11
1.59999742568516
 21
316.7
  0
ENDBLK
  5
9C
330
9A
100
AcDbEntity
  8
0
100
AcDbBlockEnd
  0
BLOCK
  5
9E
330
9D
100
AcDbEntity
  8
0
100
AcDbBlockBegin
  2
*D28
 70
    1
 10
0
 20
0
  3
*D28
  1

  0
LINE
  5
163
100
AcDbEntity
  8
rozmir
  6
ByBlock
 62
    0
370
   -2
100
AcDbLine
 10
0
 20
134
 11
33
 21
134
  0
SOLID
  5
164
100
AcDbEntity
  8
rozmir
  6
ByBlock
 62
    0
370
   -2
100
AcDbTrace
 10
0
 20
134
 30
0
 11
3
 21
134.4995415893274
 31
0
 12
3
 22
133.5004584106726
 32
0
 13
3
 23
133.5004584106726
 33
0
  0
SOLID
  5
165
100
AcDbEntity
  8
rozmir
  6
ByBlock
 62
    0
370
   -2
100
AcDbTrace
 10
33
 20
134
 30
0
 11
30
 21
133.5004584106726
 31
0
 12
30
 22
134.4995415893274
 32
0
 13
30
 23
134.4995415893274
 33
0
  0
MTEXT
  5
166
100
AcDbEntity
  8
rozmir
  6
CONTINUOUS
 62
    0
370
   -2
100
AcDbMText
 10
16.5
 20
136.75
 30
0
 40
3.5
 41
4.277777777778212
 71
    5
 72
    1
  1
33
  7
standard
210
0
220
0
230
1
 50
0
 73
    2
 44
1
  0
LINE
  5
167
100
AcDbEntity
  8
rozmir
  6
ByBlock
 62
    0
370
   -2
100
AcDbLine
 10
6.123233995736766e-17
 20
124.2999998201383
 11
1.224646799147353e-16
 21
136
  0
LINE
  5
168
100
AcDbEntity
  8
rozmir
  6
ByBlock
 62
    0
370
   -2
100
AcDbLine
 10
33
 20
124.3999961013792
 11
33
 21
136
  0
ENDBLK
  5
9F
330
9D
100
AcDbEntity
  8
0
100
AcDbBlockEnd
  0
BLOCK
  5
A1
330
A0
100
AcDbEntity
  8
0
100
AcDbBlockBegin
  2
*D5
 70
    1
 10
0
 20
0
  3
*D5
  1

  0
LINE
  5
169
100
AcDbEntity
  8
rozmir_zagib
  6
ByBlock
 62
    0
370
   -2
100
AcDbLine
 10
-2.842170943040401e-14
 20
253.7
 11
16.4
 21
253.7
  0
SOLID
  5
16A
100
AcDbEntity
  8
rozmir_zagib
  6
ByBlock
 62
    0
370
   -2
100
AcDbTrace
 10
-2.842170943040401e-14
 20
253.7
 30
0
 11
2.999999999999972
 21
254.1995415893274
 31
0
 12
2.999999999999972
 22
253.2004584106726
 32
0
 13
2.999999999999972
 23
253.2004584106726
 33
0
  0
SOLID
  5
16B
100
AcDbEntity
  8
rozmir_zagib
  6
ByBlock
 62
    0
370
   -2
100
AcDbTrace
 10
16.4
 20
253.7
 30
0
 11
13.4
 21
253.2004584106726
 31
0
 12
13.4
 22
254.1995415893274
 32
0
 13
13.4
 23
254.1995415893274
 33
0
  0
MTEXT
  5
16C
100
AcDbEntity
  8
rozmir_zagib
  6
CONTINUOUS
 62
    0
370
   -2
100
AcDbMText
 10
8.199999999999989
 20
256.45
 30
0
 40
3.5
 41
7.97222222222244
 71
    5
 72
    1
  1
16,4
  7
standard
210
0
220
0
230
1
 50
0
 73
    2
 44
1
  0
LINE
  5
16D
100
AcDbEntity
  8
rozmir_zagib
  6
ByBlock
 62
    0
370
   -2
100
AcDbLine
 10
-2.860540645027611e-14
 20
260.7
 11
-2.878910347014821e-14
 21
251.7
  0
LINE
  5
16E
100
AcDbEntity
  8
rozmir_zagib
  6
ByBlock
 62
    0
370
   -2
100
AcDbLine
 10
16.4
 20
259
 11
16.4
 21
251.7
  0
ENDBLK
  5
A2
330
A0
100
AcDbEntity
  8
0
100
AcDbBlockEnd
  0
BLOCK
  5
A4
330
A3
100
AcDbEntity
  8
0
100
AcDbBlockBegin
  2
*D33
 70
    1
 10
0
 20
0
  3
*D33
  1

  0
LINE
  5
16F
100
AcDbEntity
  8
rozmir_zagib
  6
ByBlock
 62
    0
370
   -2
100
AcDbLine
 10
-2.664535259100376e-14
 20
43.69999999999999
 11
31.4
 21
43.69999999999999
  0
SOLID
  5
170
100
AcDbEntity
  8
rozmir_zagib
  6
ByBlock
 62
    0
370
   -2
100
AcDbTrace
 10
-2.664535259100376e-14
 20
43.69999999999999
 30
0
 11
2.999999999999973
 21
44.1995415893274
 31
0
 12
2.999999999999973
 22
43.20045841067258
 32
0
 13
2.999999999999973
 23
43.20045841067258
 33
0
  0
SOLID
  5
171
100
AcDbEntity
  8
rozmir_zagib
  6
ByBlock
 62
    0
370
   -2
100
AcDbTrace
 10
31.4
 20
43.69999999999999
 30
0
 11
28.4
 21
43.20045841067258
 31
0
 12
28.4
 22
44.1995415893274
 32
0
 13
28.4
 23
44.1995415893274
 33
0
  0
MTEXT
  5
172
100
AcDbEntity
  8
rozmir_zagib
  6
CONTINUOUS
 62
    0
370
   -2
100
AcDbMText
 10
15.69999999999999
 20
46.44999999999999
 30
0
 40
3.5
 41
7.97222222222244
 71
    5
 72
    1
  1
31,4
  7
standard
210
0
220
0
230
1
 50
0
 73
    2
 44
1
  0
LINE
  5
173
100
AcDbEntity
  8
rozmir_zagib
  6
ByBlock
 62
    0
370
   -2
100
AcDbLine
 10
-2.860540645027611e-14
 20
50.69999999999999
 11
-2.701274663074796e-14
 21
41.69999999999999
  0
LINE
  5
174
100
AcDbEntity
  8
rozmir_zagib
  6
ByBlock
 62
    0
370
   -2
100
AcDbLine
 10
31.40000000000001
 20
49
 11
31.4
 21
41.69999999999999
  0
ENDBLK
  5
A5
330
A3
100
AcDbEntity
  8
0
100
AcDbBlockEnd
  0
BLOCK
  5
A7
330
A6
100
AcDbEntity
  8
0
100
AcDbBlockBegin
  2
*D25
 70
    1
 10
0
 20
0
  3
*D25
  1

  0
LINE
  5
175
100
AcDbEntity
  8
rozmir_zagib
  6
ByBlock
 62
    0
370
   -2
100
AcDbLine
 10
0
 20
103.7
 11
31.39999999999998
 21
103.7
  0
SOLID
  5
176
100
AcDbEntity
  8
rozmir_zagib
  6
ByBlock
 62
    0
370
   -2
100
AcDbTrace
 10
0
 20
103.7
 30
0
 11
3
 21
104.1995415893274
 31
0
 12
3
 22
103.2004584106726
 32
0
 13
3
 23
103.2004584106726
 33
0
  0
SOLID
  5
177
100
AcDbEntity
  8
rozmir_zagib
  6
ByBlock
 62
    0
370
   -2
100
AcDbTrace
 10
31.39999999999998
 20
103.7
 30
0
 11
28.39999999999998
 21
103.2004584106726
 31
0
 12
28.39999999999998
 22
104.1995415893274
 32
0
 13
28.39999999999998
 23
104.1995415893274
 33
0
  0
MTEXT
  5
178
100
AcDbEntity
  8
rozmir_zagib
  6
CONTINUOUS
 62
    0
370
   -2
100
AcDbMText
 10
15.69999999999999
 20
106.45
 30
0
 40
3.5
 41
7.97222222222244
 71
    5
 72
    1
  1
31,4
  7
standard
210
0
220
0
230
1
 50
0
 73
    2
 44
1
  0
LINE
  5
179
100
AcDbEntity
  8
rozmir_zagib
  6
ByBlock
 62
    0
370
   -2
100
AcDbLine
 10
-1.83697019872103e-16
 20
110.7
 11
-3.673940397442059e-16
 21
101.7
  0
LINE
  5
17A
100
AcDbEntity
  8
rozmir_zagib
  6
ByBlock
 62
    0
370
   -2
100
AcDbLine
 10
31.39999999999998
 20
109
 11
31.39999999999998
 21
101.7
  0
ENDBLK
  5
A8
330
A6
100
AcDbEntity
  8
0
100
AcDbBlockEnd
  0
BLOCK
  5
AA
330
A9
100
AcDbEntity
  8
0
100
AcDbBlockBegin
  2
*D6
 70
    1
 10
0
 20
0
  3
*D6
  1

  0
LINE
  5
17B
100
AcDbEntity
  8
rozmir_zagib
  6
ByBlock
 62
    0
370
   -2
100
AcDbLine
 10
24.29999999999998
 20
260
 11
24.29999999999998
 21
270.4
  0
SOLID
  5
17C
100
AcDbEntity
  8
rozmir_zagib
  6
ByBlock
 62
    0
370
   -2
100
AcDbTrace
 10
24.29999999999998
 20
260
 30
0
 11
23.80045841067257
 21
263
 31
0
 12
24.79954158932739
 22
263
 32
0
 13
24.79954158932739
 23
263
 33
0
  0
SOLID
  5
17D
100
AcDbEntity
  8
rozmir_zagib
  6
ByBlock
 62
    0
370
   -2
100
AcDbTrace
 10
24.29999999999998
 20
270.4
 30
0
 11
24.79954158932739
 21
267.4
 31
0
 12
23.80045841067257
 22
267.4
 32
0
 13
23.80045841067257
 23
267.4
 33
0
  0
MTEXT
  5
17E
100
AcDbEntity
  8
rozmir_zagib
  6
CONTINUOUS
 62
    0
370
   -2
100
AcDbMText
 10
21.54999999999998
 20
265.2
 30
0
 40
3.5
 41
7.972222222222221
 71
    5
 72
    1
  1
10,4
  7
standard
210
0
220
0
230
1
 50
90
 73
    2
 44
1
  0
LINE
  5
17F
100
AcDbEntity
  8
rozmir_zagib
  6
ByBlock
 62
    0
370
   -2
100
AcDbLine
 10
17.4
 20
260
 11
26.29999999999998
 21
260
  0
LINE
  5
180
100
AcDbEntity
  8
rozmir_zagib
  6
ByBlock
 62
    0
370
   -2
100
AcDbLine
 10
19
 20
270.4
 11
26.29999999999998
 21
270.4
  0
ENDBLK
  5
AB
330
A9
100
AcDbEntity
  8
0
100
AcDbBlockEnd
  0
BLOCK
  5
AD
330
AC
100
AcDbEntity
  8
0
100
AcDbBlockBegin
  2
*D36
 70
    1
 10
0
 20
0
  3
*D36
  1

  0
LINE
  5
181
100
AcDbEntity
  8
rozmir_zagib
  6
ByBlock
 62
    0
370
   -2
100
AcDbLine
 10
19
 20
80.7
 11
1.700004301932466
 21
80.7
  0
SOLID
  5
182
100
AcDbEntity
  8
rozmir_zagib
  6
ByBlock
 62
    0
370
   -2
100
AcDbTrace
 10
19
 20
80.7
 30
0
 11
16
 21
80.2004584106726
 31
0
 12
16
 22
81.19954158932741
 32
0
 13
16
 23
81.19954158932741
 33
0
  0
SOLID
  5
183
100
AcDbEntity
  8
rozmir_zagib
  6
ByBlock
 62
    0
370
   -2
100
AcDbTrace
 10
1.700004301932466
 20
80.7
 30
0
 11
4.700004301932466
 21
81.19954158932741
 31
0
 12
4.700004301932466
 22
80.2004584106726
 32
0
 13
4.700004301932466
 23
80.2004584106726
 33
0
  0
MTEXT
  5
184
100
AcDbEntity
  8
rozmir_zagib
  6
CONTINUOUS
 62
    0
370
   -2
100
AcDbMText
 10
10.35000215096622
 20
83.45
 30
0
 40
3.5
 41
7.583333333333551
 71
    5
 72
    1
  1
17,3
  7
standard
210
0
220
0
230
1
 50
360
 73
    2
 44
1
  0
LINE
  5
185
100
AcDbEntity
  8
rozmir_zagib
  6
ByBlock
 62
    0
370
   -2
100
AcDbLine
 10
19
 20
79
 11
18.99999999999999
 21
82.7
  0
LINE
  5
186
100
AcDbEntity
  8
rozmir_zagib
  6
ByBlock
 62
    0
370
   -2
100
AcDbLine
 10
1.700004301932466
 20
79.00000000000003
 11
1.700004301932467
 21
82.7
  0
ENDBLK
  5
AE
330
AC
100
AcDbEntity
  8
0
100
AcDbBlockEnd
  0
BLOCK
  5
B0
330
AF
100
AcDbEntity
  8
0
100
AcDbBlockBegin
  2
*D1
 70
    1
 10
0
 20
0
  3
*D1
  1

  0
LINE
  5
187
100
AcDbEntity
  8
rozmir_zagib
  6
ByBlock
 62
    0
370
   -2
100
AcDbLine
 10
11.5
 20
274.7
 11
1.700004301932466
 21
274.7
  0
SOLID
  5
188
100
AcDbEntity
  8
rozmir_zagib
  6
ByBlock
 62
    0
370
   -2
100
AcDbTrace
 10
11.5
 20
274.7
 30
0
 11
8.5
 21
274.2004584106726
 31
0
 12
8.5
 22
275.1995415893274
 32
0
 13
8.5
 23
275.1995415893274
 33
0
  0
SOLID
  5
189
100
AcDbEntity
  8
rozmir_zagib
  6
ByBlock
 62
    0
370
   -2
100
AcDbTrace
 10
1.700004301932466
 20
274.7
 30
0
 11
4.700004301932466
 21
275.1995415893274
 31
0
 12
4.700004301932466
 22
274.2004584106726
 32
0
 13
4.700004301932466
 23
274.2004584106726
 33
0
  0
MTEXT
  5
18A
100
AcDbEntity
  8
rozmir_zagib
  6
CONTINUOUS
 62
    0
370
   -2
100
AcDbMText
 10
6.600002150966234
 20
277.45
 30
0
 40
3.5
 41
5.638888888889106
 71
    5
 72
    1
  1
9,8
  7
standard
210
0
220
0
230
1
 50
360
 73
    2
 44
1
  0
LINE
  5
18B
100
AcDbEntity
  8
rozmir_zagib
  6
ByBlock
 62
    0
370
   -2
100
AcDbLine
 10
11.5
 20
273
 11
11.5
 21
276.7
  0
LINE
  5
18C
100
AcDbEntity
  8
rozmir_zagib
  6
ByBlock
 62
    0
370
   -2
100
AcDbLine
 10
1.700004301932466
 20
273
 11
1.700004301932466
 21
276.7
  0
ENDBLK
  5
B1
330
AF
100
AcDbEntity
  8
0
100
AcDbBlockEnd
  0
BLOCK
  5
B3
330
B2
100
AcDbEntity
  8
0
100
AcDbBlockBegin
  2
*D7
 70
    1
 10
0
 20
0
  3
*D7
  1

  0
LINE
  5
18D
100
AcDbEntity
  8
rozmir_zagib
  6
ByBlock
 62
    0
370
   -2
100
AcDbLine
 10
-3.100000000000022
 20
311
 11
-3.100000000000023
 21
301.6
  0
SOLID
  5
18E
100
AcDbEntity
  8
rozmir_zagib
  6
ByBlock
 62
    0
370
   -2
100
AcDbTrace
 10
-3.100000000000022
 20
311
 30
0
 11
-2.600458410672614
 21
308
 31
0
 12
-3.599541589327431
 22
308
 32
0
 13
-3.599541589327431
 23
308
 33
0
  0
SOLID
  5
18F
100
AcDbEntity
  8
rozmir_zagib
  6
ByBlock
 62
    0
370
   -2
100
AcDbTrace
 10
-3.100000000000023
 20
301.6
 30
0
 11
-3.599541589327431
 21
304.6
 31
0
 12
-2.600458410672614
 22
304.6
 32
0
 13
-2.600458410672614
 23
304.6
 33
0
  0
MTEXT
  5
190
100
AcDbEntity
  8
rozmir_zagib
  6
CONTINUOUS
 62
    0
370
   -2
100
AcDbMText
 10
-5.850000000000023
 20
306.3
 30
0
 40
3.5
 41
6.027777777777995
 71
    5
 72
    1
  1
9,4
  7
standard
210
0
220
0
230
1
 50
90
 73
    2
 44
1
  0
LINE
  5
191
100
AcDbEntity
  8
rozmir_zagib
  6
ByBlock
 62
    0
370
   -2
100
AcDbLine
 10
0.6999956980675393
 20
311
 11
-5.100000000000023
 21
311
  0
LINE
  5
192
100
AcDbEntity
  8
rozmir_zagib
  6
ByBlock
 62
    0
370
   -2
100
AcDbLine
 10
-1
 20
301.6
 11
-5.100000000000023
 21
301.6
  0
ENDBLK
  5
B4
330
B2
100
AcDbEntity
  8
0
100
AcDbBlockEnd
  0
BLOCK
  5
B6
330
B5
100
AcDbEntity
  8
0
100
AcDbBlockBegin
  2
*D38
 70
    1
 10
0
 20
0
  3
*D38
  1

  0
LINE
  5
193
100
AcDbEntity
  8
rozmir_zagib
  6
ByBlock
 62
    0
370
   -2
100
AcDbLine
 10
-3.100000000000021
 20
23
 11
-3.100000000000023
 21
1.599999999999995
  0
SOLID
  5
194
100
AcDbEntity
  8
rozmir_zagib
  6
ByBlock
 62
    0
370
   -2
100
AcDbTrace
 10
-3.100000000000021
 20
23
 30
0
 11
-2.600458410672613
 21
20
 31
0
 12
-3.59954158932743
 22
20
 32
0
 13
-3.59954158932743
 23
20
 33
0
  0
SOLID
  5
195
100
AcDbEntity
  8
rozmir_zagib
  6
ByBlock
 62
    0
370
   -2
100
AcDbTrace
 10
-3.100000000000023
 20
1.599999999999995
 30
0
 11
-3.599541589327431
 21
4.599999999999994
 31
0
 12
-2.600458410672614
 22
4.599999999999994
 32
0
 13
-2.600458410672614
 23
4.599999999999994
 33
0
  0
MTEXT
  5
196
100
AcDbEntity
  8
rozmir_zagib
  6
CONTINUOUS
 62
    0
370
   -2
100
AcDbMText
 10
-5.850000000000023
 20
12.30000000000001
 30
0
 40
3.5
 41
7.972222222222221
 71
    5
 72
    1
  1
21,4
  7
standard
210
0
220
0
230
1
 50
90
 73
    2
 44
1
  0
LINE
  5
197
100
AcDbEntity
  8
rozmir_zagib
  6
ByBlock
 62
    0
370
   -2
100
AcDbLine
 10
0.5999999999999943
 20
23
 11
-5.100000000000021
 21
23
  0
LINE
  5
198
100
AcDbEntity
  8
rozmir_zagib
  6
ByBlock
 62
    0
370
   -2
100
AcDbLine
 10
-1
 20
1.599999999999995
 11
-5.100000000000023
 21
1.599999999999995
  0
ENDBLK
  5
B7
330
B5
100
AcDbEntity
  8
0
100
AcDbBlockEnd
  0
BLOCK
  5
B9
330
B8
100
AcDbEntity
  8
0
100
AcDbBlockBegin
  2
*D29
 70
    1
 10
0
 20
0
  3
*D29
  1

  0
LINE
  5
199
100
AcDbEntity
  8
rozmir_zagib
  6
ByBlock
 62
    0
370
   -2
100
AcDbLine
 10
40
 20
110
 11
40
 21
123.4
  0
SOLID
  5
19A
100
AcDbEntity
  8
rozmir_zagib
  6
ByBlock
 62
    0
370
   -2
100
AcDbTrace
 10
40
 20
110
 30
0
 11
39.50045841067259
 21
113
 31
0
 12
40.49954158932741
 22
113
 32
0
 13
40.49954158932741
 23
113
 33
0
  0
SOLID
  5
19B
100
AcDbEntity
  8
rozmir_zagib
  6
ByBlock
 62
    0
370
   -2
100
AcDbTrace
 10
40
 20
123.4
 30
0
 11
40.49954158932741
 21
120.4
 31
0
 12
39.50045841067259
 22
120.4
 32
0
 13
39.50045841067259
 23
120.4
 33
0
  0
MTEXT
  5
19C
100
AcDbEntity
  8
rozmir_zagib
  6
CONTINUOUS
 62
    0
370
   -2
100
AcDbMText
 10
37.25
 20
116.7
 30
0
 40
3.5
 41
7.97222222222244
 71
    5
 72
    1
  1
13,4
  7
standard
210
0
220
0
230
1
 50
90
 73
    2
 44
1
  0
LINE
  5
19D
100
AcDbEntity
  8
rozmir_zagib
  6
ByBlock
 62
    0
370
   -2
100
AcDbLine
 10
32.39999999999998
 20
110
 11
42
 21
110
  0
LINE
  5
19E
100
AcDbEntity
  8
rozmir_zagib
  6
ByBlock
 62
    0
370
   -2
100
AcDbLine
 10
34
 20
123.4
 11
42
 21
123.4
  0
ENDBLK
  5
BA
330
B8
100
AcDbEntity
  8
0
100
AcDbBlockEnd
  0
BLOCK
  5
BC
330
BB
100
AcDbEntity
  8
0
100
AcDbBlockBegin
  2
*D16
 70
    1
 10
0
 20
0
  3
*D16
  1

  0
LINE
  5
19F
100
AcDbEntity
  8
rozmir_zagib
  6
ByBlock
 62
    0
370
   -2
100
AcDbLine
 10
-3.100000000000021
 20
230
 11
-3.100000000000023
 21
211.6
  0
SOLID
  5
1A0
100
AcDbEntity
  8
rozmir_zagib
  6
ByBlock
 62
    0
370
   -2
100
AcDbTrace
 10
-3.100000000000021
 20
230
 30
0
 11
-2.600458410672613
 21
227
 31
0
 12
-3.59954158932743
 22
227
 32
0
 13
-3.59954158932743
 23
227
 33
0
  0
SOLID
  5
1A1
100
AcDbEntity
  8
rozmir_zagib
  6
ByBlock
 62
    0
370
   -2
100
AcDbTrace
 10
-3.100000000000023
 20
211.6
 30
0
 11
-3.599541589327431
 21
214.6
 31
0
 12
-2.600458410672614
 22
214.6
 32
0
 13
-2.600458410672614
 23
214.6
 33
0
  0
MTEXT
  5
1A2
100
AcDbEntity
  8
rozmir_zagib
  6
CONTINUOUS
 62
    0
370
   -2
100
AcDbMText
 10
-5.850000000000023
 20
220.8
 30
0
 40
3.5
 41
7.972222222222221
 71
    5
 72
    1
  1
18,4
  7
standard
210
0
220
0
230
1
 50
90
 73
    2
 44
1
  0
LINE
  5
1A3
100
AcDbEntity
  8
rozmir_zagib
  6
ByBlock
 62
    0
370
   -2
100
AcDbLine
 10
0.6000000000000227
 20
230
 11
-5.100000000000021
 21
230
  0
LINE
  5
1A4
100
AcDbEntity
  8
rozmir_zagib
  6
ByBlock
 62
    0
370
   -2
100
AcDbLine
 10
-1
 20
211.6
 11
-5.100000000000023
 21
211.6
  0
ENDBLK
  5
BD
330
BB
100
AcDbEntity
  8
0
100
AcDbBlockEnd
  0
BLOCK
  5
BF
330
BE
100
AcDbEntity
  8
0
100
AcDbBlockBegin
  2
*D13
 70
    1
 10
0
 20
0
  3
*D13
  1

  0
LINE
  5
1A5
100
AcDbEntity
  8
rozmir_zagib
  6
ByBlock
 62
    0
370
   -2
100
AcDbLine
 10
0
 20
203.7
 11
16.40000000000003
 21
203.7
  0
SOLID
  5
1A6
100
AcDbEntity
  8
rozmir_zagib
  6
ByBlock
 62
    0
370
   -2
100
AcDbTrace
 10
0
 20
203.7
 30
0
 11
3
 21
204.1995415893274
 31
0
 12
3
 22
203.2004584106726
 32
0
 13
3
 23
203.2004584106726
 33
0
  0
SOLID
  5
1A7
100
AcDbEntity
  8
rozmir_zagib
  6
ByBlock
 62
    0
370
   -2
100
AcDbTrace
 10
16.40000000000003
 20
203.7
 30
0
 11
13.40000000000003
 21
203.2004584106726
 31
0
 12
13.40000000000003
 22
204.1995415893274
 32
0
 13
13.40000000000003
 23
204.1995415893274
 33
0
  0
MTEXT
  5
1A8
100
AcDbEntity
  8
rozmir_zagib
  6
CONTINUOUS
 62
    0
370
   -2
100
AcDbMText
 10
8.199999999999989
 20
206.45
 30
0
 40
3.5
 41
7.97222222222244
 71
    5
 72
    1
  1
16,4
  7
standard
210
0
220
0
230
1
 50
0
 73
    2
 44
1
  0
LINE
  5
1A9
100
AcDbEntity
  8
rozmir_zagib
  6
ByBlock
 62
    0
370
   -2
100
AcDbLine
 10
-1.83697019872103e-16
 20
210.7
 11
-3.673940397442059e-16
 21
201.7
  0
LINE
  5
1AA
100
AcDbEntity
  8
rozmir_zagib
  6
ByBlock
 62
    0
370
   -2
100
AcDbLine
 10
16.40000000000003
 20
209
 11
16.40000000000003
 21
201.7
  0
ENDBLK
  5
C0
330
BE
100
AcDbEntity
  8
0
100
AcDbBlockEnd
  0
BLOCK
  5
C2
330
C1
100
AcDbEntity
  8
0
100
AcDbBlockBegin
  2
*D30
 70
    1
 10
0
 20
0
  3
*D30
  1

  0
LINE
  5
1AB
100
AcDbEntity
  8
rozmir_zagib
  6
ByBlock
 62
    0
370
   -2
100
AcDbLine
 10
19
 20
127.7
 11
1.700004301932495
 21
127.7
  0
SOLID
  5
1AC
100
AcDbEntity
  8
rozmir_zagib
  6
ByBlock
 62
    0
370
   -2
100
AcDbTrace
 10
19
 20
127.7
 30
0
 11
16
 21
127.2004584106726
 31
0
 12
16
 22
128.1995415893274
 32
0
 13
16
 23
128.1995415893274
 33
0
  0
SOLID
  5
1AD
100
AcDbEntity
  8
rozmir_zagib
  6
ByBlock
 62
    0
370
   -2
100
AcDbTrace
 10
1.700004301932495
 20
127.7
 30
0
 11
4.700004301932495
 21
128.1995415893274
 31
0
 12
4.700004301932495
 22
127.2004584106726
 32
0
 13
4.700004301932495
 23
127.2004584106726
 33
0
  0
MTEXT
  5
1AE
100
AcDbEntity
  8
rozmir_zagib
  6
CONTINUOUS
 62
    0
370
   -2
100
AcDbMText
 10
10.35000215096625
 20
130.45
 30
0
 40
3.5
 41
7.583333333333551
 71
    5
 72
    1
  1
17,3
  7
standard
210
0
220
0
230
1
 50
360
 73
    2
 44
1
  0
LINE
  5
1AF
100
AcDbEntity
  8
rozmir_zagib
  6
ByBlock
 62
    0
370
   -2
100
AcDbLine
 10
19
 20
126
 11
19
 21
129.7
  0
LINE
  5
1B0
100
AcDbEntity
  8
rozmir_zagib
  6
ByBlock
 62
    0
370
   -2
100
AcDbLine
 10
1.700004301932495
 20
126
 11
1.700004301932495
 21
129.7
  0
ENDBLK
  5
C3
330
C1
100
AcDbEntity
  8
0
100
AcDbBlockEnd
  0
BLOCK
  5
C5
330
C4
100
AcDbEntity
  8
0
100
AcDbBlockBegin
  2
*D24
 70
    1
 10
0
 20
0
  3
*D24
  1

  0
LINE
  5
1B1
100
AcDbEntity
  8
rozmir_zagib
  6
ByBlock
 62
    0
370
   -2
100
AcDbLine
 10
15.20000000000005
 20
179.7
 11
-4.299995698067505
 21
179.7
  0
SOLID
  5
1B2
100
AcDbEntity
  8
rozmir_zagib
  6
ByBlock
 62
    0
370
   -2
100
AcDbTrace
 10
9.200000000000045
 20
179.7
 30
0
 11
12.20000000000005
 21
180.1995415893274
 31
0
 12
12.20000000000005
 22
179.2004584106726
 32
0
 13
12.20000000000005
 23
179.2004584106726
 33
0
  0
SOLID
  5
1B3
100
AcDbEntity
  8
rozmir_zagib
  6
ByBlock
 62
    0
370
   -2
100
AcDbTrace
 10
1.700004301932495
 20
179.7
 30
0
 11
-1.299995698067505
 21
179.2004584106726
 31
0
 12
-1.299995698067505
 22
180.1995415893274
 32
0
 13
-1.299995698067505
 23
180.1995415893274
 33
0
  0
MTEXT
  5
1B4
100
AcDbEntity
  8
rozmir_zagib
  6
CONTINUOUS
 62
    0
370
   -2
100
AcDbMText
 10
5.45000215096627
 20
182.45
 30
0
 40
3.5
 41
5.638888888889106
 71
    5
 72
    1
  1
7,5
  7
standard
210
0
220
0
230
1
 50
360
 73
    2
 44
1
  0
LINE
  5
1B5
100
AcDbEntity
  8
rozmir_zagib
  6
ByBlock
 62
    0
370
   -2
100
AcDbLine
 10
9.200000000000045
 20
178
 11
9.200000000000045
 21
181.7
  0
LINE
  5
1B6
100
AcDbEntity
  8
rozmir_zagib
  6
ByBlock
 62
    0
370
   -2
100
AcDbLine
 10
1.700004301932495
 20
178
 11
1.700004301932495
 21
181.7
  0
ENDBLK
  5
C6
330
C4
100
AcDbEntity
  8
0
100
AcDbBlockEnd
  0
BLOCK
  5
C8
330
C7
100
AcDbEntity
  8
0
100
AcDbBlockBegin
  2
*D22
 70
    1
 10
0
 20
0
  3
*D22
  1

  0
LINE
  5
1B7
100
AcDbEntity
  8
rozmir
  6
ByBlock
 62
    0
370
   -2
100
AcDbLine
 10
0
 20
186
 11
13
 21
186
  0
SOLID
  5
1B8
100
AcDbEntity
  8
rozmir
  6
ByBlock
 62
    0
370
   -2
100
AcDbTrace
 10
0
 20
186
 30
0
 11
3
 21
186.4995415893274
 31
0
 12
3
 22
185.5004584106726
 32
0
 13
3
 23
185.5004584106726
 33
0
  0
SOLID
  5
1B9
100
AcDbEntity
  8
rozmir
  6
ByBlock
 62
    0
370
   -2
100
AcDbTrace
 10
13
 20
186
 30
0
 11
10
 21
185.5004584106726
 31
0
 12
10
 22
186.4995415893274
 32
0
 13
10
 23
186.4995415893274
 33
0
  0
MTEXT
  5
1BA
100
AcDbEntity
  8
rozmir
  6
CONTINUOUS
 62
    0
370
   -2
100
AcDbMText
 10
6.5
 20
188.75
 30
0
 40
3.5
 41
3.500000000000217
 71
    5
 72
    1
  1
13
  7
standard
210
0
220
0
230
1
 50
0
 73
    2
 44
1
  0
LINE
  5
1BB
100
AcDbEntity
  8
rozmir
  6
ByBlock
 62
    0
370
   -2
100
AcDbLine
 10
6.123233995736766e-17
 20
176.2999998201383
 11
1.224646799147353e-16
 21
188
  0
LINE
  5
1BC
100
AcDbEntity
  8
rozmir
  6
ByBlock
 62
    0
370
   -2
100
AcDbLine
 10
13
 20
176.3999961013792
 11
13
 21
188
  0
ENDBLK
  5
C9
330
C7
100
AcDbEntity
  8
0
100
AcDbBlockEnd
  0
BLOCK
  5
CB
330
CA
100
AcDbEntity
  8
0
100
AcDbBlockBegin
  2
*D10
 70
    1
 10
0
 20
0
  3
*D10
  1

  0
LINE
  5
1BD
100
AcDbEntity
  8
rozmir_zagib
  6
ByBlock
 62
    0
370
   -2
100
AcDbLine
 10
20.89999999999998
 20
300
 11
20.89999999999998
 21
309.400000526783
  0
SOLID
  5
1BE
100
AcDbEntity
  8
rozmir_zagib
  6
ByBlock
 62
    0
370
   -2
100
AcDbTrace
 10
20.89999999999998
 20
300
 30
0
 11
20.40045841067257
 21
303
 31
0
 12
21.39954158932739
 22
303
 32
0
 13
21.39954158932739
 23
303
 33
0
  0
SOLID
  5
1BF
100
AcDbEntity
  8
rozmir_zagib
  6
ByBlock
 62
    0
370
   -2
100
AcDbTrace
 10
20.89999999999998
 20
309.400000526783
 30
0
 11
21.39954158932738
 21
306.400000526783
 31
0
 12
20.40045841067257
 22
306.400000526783
 32
0
 13
20.40045841067257
 23
306.400000526783
 33
0
  0
MTEXT
  5
1C0
100
AcDbEntity
  8
rozmir_zagib
  6
CONTINUOUS
 62
    0
370
   -2
100
AcDbMText
 10
18.14999999999998
 20
304.7000002633915
 30
0
 40
3.5
 41
6.027777777777995
 71
    5
 72
    1
  1
9,4
  7
standard
210
0
220
0
230
1
 50
90
 73
    2
 44
1
  0
LINE
  5
1C1
100
AcDbEntity
  8
rozmir_zagib
  6
ByBlock
 62
    0
370
   -2
100
AcDbLine
 10
13.29999999999995
 20
300
 11
22.89999999999998
 21
300
  0
LINE
  5
1C2
100
AcDbEntity
  8
rozmir_zagib
  6
ByBlock
 62
    0
370
   -2
100
AcDbLine
 10
14.99999886677222
 20
309.400000526783
 11
22.89999999999998
 21
309.400000526783
  0
ENDBLK
  5
CC
330
CA
100
AcDbEntity
  8
0
100
AcDbBlockEnd
  0
BLOCK
  5
CE
330
CD
100
AcDbEntity
  8
0
100
AcDbBlockBegin
  2
*D27
 70
    1
 10
0
 20
0
  3
*D27
  1

  0
LINE
  5
1C3
100
AcDbEntity
  8
rozmir_zagib
  6
ByBlock
 62
    0
370
   -2
100
AcDbLine
 10
-3.100000000000022
 20
125
 11
-3.100000000000023
 21
111.6
  0
SOLID
  5
1C4
100
AcDbEntity
  8
rozmir_zagib
  6
ByBlock
 62
    0
370
   -2
100
AcDbTrace
 10
-3.100000000000022
 20
125
 30
0
 11
-2.600458410672613
 21
122
 31
0
 12
-3.599541589327431
 22
122
 32
0
 13
-3.599541589327431
 23
122
 33
0
  0
SOLID
  5
1C5
100
AcDbEntity
  8
rozmir_zagib
  6
ByBlock
 62
    0
370
   -2
100
AcDbTrace
 10
-3.100000000000023
 20
111.6
 30
0
 11
-3.599541589327431
 21
114.6
 31
0
 12
-2.600458410672614
 22
114.6
 32
0
 13
-2.600458410672614
 23
114.6
 33
0
  0
MTEXT
  5
1C6
100
AcDbEntity
  8
rozmir_zagib
  6
CONTINUOUS
 62
    0
370
   -2
100
AcDbMText
 10
-5.850000000000023
 20
118.3
 30
0
 40
3.5
 41
7.97222222222244
 71
    5
 72
    1
  1
13,4
  7
standard
210
0
220
0
230
1
 50
90
 73
    2
 44
1
  0
LINE
  5
1C7
100
AcDbEntity
  8
rozmir_zagib
  6
ByBlock
 62
    0
370
   -2
100
AcDbLine
 10
0.6000000000000227
 20
125
 11
-5.100000000000022
 21
125
  0
LINE
  5
1C8
100
AcDbEntity
  8
rozmir_zagib
  6
ByBlock
 62
    0
370
   -2
100
AcDbLine
 10
-1
 20
111.6
 11
-5.100000000000023
 21
111.6
  0
ENDBLK
  5
CF
330
CD
100
AcDbEntity
  8
0
100
AcDbBlockEnd
  0
BLOCK
  5
D1
330
D0
100
AcDbEntity
  8
0
100
AcDbBlockBegin
  2
*D39
 70
    1
 10
0
 20
0
  3
*D39
  1

  0
LINE
  5
1C9
100
AcDbEntity
  8
rozmir_zagib
  6
ByBlock
 62
    0
370
   -2
100
AcDbLine
 10
-2.664535259100376e-14
 20
-6.300000000000011
 11
21.40000000000001
 21
-6.300000000000011
  0
SOLID
  5
1CA
100
AcDbEntity
  8
rozmir_zagib
  6
ByBlock
 62
    0
370
   -2
100
AcDbTrace
 10
-2.664535259100376e-14
 20
-6.300000000000011
 30
0
 11
2.999999999999973
 21
-5.800458410672603
 31
0
 12
2.999999999999973
 22
-6.79954158932742
 32
0
 13
2.999999999999973
 23
-6.79954158932742
 33
0
  0
SOLID
  5
1CB
100
AcDbEntity
  8
rozmir_zagib
  6
ByBlock
 62
    0
370
   -2
100
AcDbTrace
 10
21.40000000000001
 20
-6.300000000000011
 30
0
 11
18.40000000000001
 21
-6.79954158932742
 31
0
 12
18.40000000000001
 22
-5.800458410672602
 32
0
 13
18.40000000000001
 23
-5.800458410672602
 33
0
  0
MTEXT
  5
1CC
100
AcDbEntity
  8
rozmir_zagib
  6
CONTINUOUS
 62
    0
370
   -2
100
AcDbMText
 10
10.69999999999999
 20
-3.550000000000011
 30
0
 40
3.5
 41
7.972222222222221
 71
    5
 72
    1
  1
21,4
  7
standard
210
0
220
0
230
1
 50
0
 73
    2
 44
1
  0
LINE
  5
1CD
100
AcDbEntity
  8
rozmir_zagib
  6
ByBlock
 62
    0
370
   -2
100
AcDbLine
 10
-2.860540645027611e-14
 20
0.6999999999999886
 11
-2.701274663074796e-14
 21
-8.300000000000011
  0
LINE
  5
1CE
100
AcDbEntity
  8
rozmir_zagib
  6
ByBlock
 62
    0
370
   -2
100
AcDbLine
 10
21.40000000000001
 20
-1
 11
21.40000000000001
 21
-8.300000000000011
  0
ENDBLK
  5
D2
330
D0
100
AcDbEntity
  8
0
100
AcDbBlockEnd
  0
ENDSEC
  0
SECTION
  2
ENTITIES
  0
HATCH
  5
1CF
100
AcDbEntity
  8
metal
  6
ByLayer
 62
  256
370
   -1
100
AcDbHatch
 10
0
 20
0
 30
0
210
0
220
0
230
1
  2
SOLID
 70
    1
 71
    0
 91
    1
 92
    0
 93
    1
 72
    2
 10
1.199999999999989
 20
270.8
 40
0.4000000000000021
 50
0
 51
360
 73
    1
 97
    0
 75
    0
 76
    1
 98
    0
  0
HATCH
  5
1D0
100
AcDbEntity
  8
metal
  6
ByLayer
 62
  256
370
   -1
100
AcDbHatch
 10
0
 20
0
 30
0
210
0
220
0
230
1
  2
SOLID
 70
    1
 71
    0
 91
    1
 92
    0
 93
    1
 72
    2
 10
16.79999999999998
 20
270.8
 40
0.4000000000000021
 50
0
 51
360
 73
    1
 97
    0
 75
    0
 76
    1
 98
    0
  0
HATCH
  5
1D1
100
AcDbEntity
  8
metal
  6
ByLayer
 62
  256
370
   -1
100
AcDbHatch
 10
0
 20
0
 30
0
210
0
220
0
230
1
  2
SOLID
 70
    1
 71
    0
 91
    1
 92
    0
 93
    1
 72
    2
 10
16.79999999999998
 20
261.2
 40
0.4000000000000004
 50
0
 51
360
 73
    1
 97
    0
 75
    0
 76
    1
 98
    0
  0
HATCH
  5
1D2
100
AcDbEntity
  8
metal
  6
ByLayer
 62
  256
370
   -1
100
AcDbHatch
 10
0
 20
0
 30
0
210
0
220
0
230
1
  2
SOLID
 70
    1
 71
    0
 91
    1
 92
    0
 93
    1
 72
    2
 10
1.199999999999989
 20
261.2
 40
0.4000000000000004
 50
0
 51
360
 73
    1
 97
    0
 75
    0
 76
    1
 98
    0
  0
HATCH
  5
1D3
100
AcDbEntity
  8
metal
  6
ByLayer
 62
  256
370
   -1
100
AcDbHatch
 10
0
 20
0
 30
0
210
0
220
0
230
1
  2
SOLID
 70
    1
 71
    0
 91
    1
 92
    0
 93
    1
 72
    2
 10
1.199999999999989
 20
301.2
 40
0.4000000000000004
 50
0
 51
360
 73
    1
 97
    0
 75
    0
 76
    1
 98
    0
  0
HATCH
  5
1D4
100
AcDbEntity
  8
metal
  6
ByLayer
 62
  256
370
   -1
100
AcDbHatch
 10
0
 20
0
 30
0
210
0
220
0
230
1
  2
SOLID
 70
    1
 71
    0
 91
    1
 92
    0
 93
    1
 72
    2
 10
1.199999999999989
 20
309.8
 40
0.4000000000000021
 50
0
 51
360
 73
    1
 97
    0
 75
    0
 76
    1
 98
    0
  0
HATCH
  5
1D5
100
AcDbEntity
  8
metal
  6
ByLayer
 62
  256
370
   -1
100
AcDbHatch
 10
0
 20
0
 30
0
210
0
220
0
230
1
  2
SOLID
 70
    1
 71
    0
 91
    1
 92
    0
 93
    1
 72
    2
 10
12.79999999999995
 20
309.8
 40
0.4000000000000021
 50
0
 51
360
 73
    1
 97
    0
 75
    0
 76
    1
 98
    0
  0
HATCH
  5
1D6
100
AcDbEntity
  8
metal
  6
ByLayer
 62
  256
370
   -1
100
AcDbHatch
 10
0
 20
0
 30
0
210
0
220
0
230
1
  2
SOLID
 70
    1
 71
    0
 91
    1
 92
    0
 93
    1
 72
    2
 10
12.79999999999995
 20
301.2
 40
0.4000000000000004
 50
0
 51
360
 73
    1
 97
    0
 75
    0
 76
    1
 98
    0
  0
HATCH
  5
1D7
100
AcDbEntity
  8
metal
  6
ByLayer
 62
  256
370
   -1
100
AcDbHatch
 10
0
 20
0
 30
0
210
0
220
0
230
1
  2
SOLID
 70
    1
 71
    0
 91
    1
 92
    0
 93
    1
 72
    2
 10
16.79999999999995
 20
211.2
 40
0.4000000000000004
 50
0
 51
360
 73
    1
 97
    0
 75
    0
 76
    1
 98
    0
  0
HATCH
  5
1D8
100
AcDbEntity
  8
metal
  6
ByLayer
 62
  256
370
   -1
100
AcDbHatch
 10
0
 20
0
 30
0
210
0
220
0
230
1
  2
SOLID
 70
    1
 71
    0
 91
    1
 92
    0
 93
    1
 72
    2
 10
1.199999999999989
 20
211.2
 40
0.4000000000000004
 50
0
 51
360
 73
    1
 97
    0
 75
    0
 76
    1
 98
    0
  0
HATCH
  5
1D9
100
AcDbEntity
  8
metal
  6
ByLayer
 62
  256
370
   -1
100
AcDbHatch
 10
0
 20
0
 30
0
210
0
220
0
230
1
  2
SOLID
 70
    1
 71
    0
 91
    1
 92
    0
 93
    1
 72
    2
 10
16.79999999999995
 20
228.8
 40
0.4000000000000021
 50
0
 51
360
 73
    1
 97
    0
 75
    0
 76
    1
 98
    0
  0
HATCH
  5
1DA
100
AcDbEntity
  8
metal
  6
ByLayer
 62
  256
370
   -1
100
AcDbHatch
 10
0
 20
0
 30
0
210
0
220
0
230
1
  2
SOLID
 70
    1
 71
    0
 91
    1
 92
    0
 93
    1
 72
    2
 10
1.199999999999989
 20
228.8
 40
0.4000000000000021
 50
0
 51
360
 73
    1
 97
    0
 75
    0
 76
    1
 98
    0
  0
HATCH
  5
1DB
100
AcDbEntity
  8
metal
  6
ByLayer
 62
  256
370
   -1
100
AcDbHatch
 10
0
 20
0
 30
0
210
0
220
0
230
1
  2
SOLID
 70
    1
 71
    0
 91
    1
 92
    0
 93
    1
 72
    2
 10
11.80000000000001
 20
161.2
 40
0.4000000000000004
 50
0
 51
360
 73
    1
 97
    0
 75
    0
 76
    1
 98
    0
  0
HATCH
  5
1DC
100
AcDbEntity
  8
metal
  6
ByLayer
 62
  256
370
   -1
100
AcDbHatch
 10
0
 20
0
 30
0
210
0
220
0
230
1
  2
SOLID
 70
    1
 71
    0
 91
    1
 92
    0
 93
    1
 72
    2
 10
11.80000000000001
 20
175.8
 40
0.4000000000000021
 50
0
 51
360
 73
    1
 97
    0
 75
    0
 76
    1
 98
    0
  0
HATCH
  5
1DD
100
AcDbEntity
  8
metal
  6
ByLayer
 62
  256
370
   -1
100
AcDbHatch
 10
0
 20
0
 30
0
210
0
220
0
230
1
  2
SOLID
 70
    1
 71
    0
 91
    1
 92
    0
 93
    1
 72
    2
 10
1.199999999999989
 20
175.8
 40
0.4000000000000021
 50
0
 51
360
 73
    1
 97
    0
 75
    0
 76
    1
 98
    0
  0
HATCH
  5
1DE
100
AcDbEntity
  8
metal
  6
ByLayer
 62
  256
370
   -1
100
AcDbHatch
 10
0
 20
0
 30
0
210
0
220
0
230
1
  2
SOLID
 70
    1
 71
    0
 91
    1
 92
    0
 93
    1
 72
    2
 10
1.199999999999989
 20
161.2
 40
0.4000000000000004
 50
0
 51
360
 73
    1
 97
    0
 75
    0
 76
    1
 98
    0
  0
HATCH
  5
1DF
100
AcDbEntity
  8
metal
  6
ByLayer
 62
  256
370
   -1
100
AcDbHatch
 10
0
 20
0
 30
0
210
0
220
0
230
1
  2
SOLID
 70
    1
 71
    0
 91
    1
 92
    0
 93
    1
 72
    2
 10
31.79999999999995
 20
111.2
 40
0.4000000000000004
 50
0
 51
360
 73
    1
 97
    0
 75
    0
 76
    1
 98
    0
  0
HATCH
  5
1E0
100
AcDbEntity
  8
metal
  6
ByLayer
 62
  256
370
   -1
100
AcDbHatch
 10
0
 20
0
 30
0
210
0
220
0
230
1
  2
SOLID
 70
    1
 71
    0
 91
    1
 92
    0
 93
    1
 72
    2
 10
1.199999999999989
 20
111.2
 40
0.4000000000000004
 50
0
 51
360
 73
    1
 97
    0
 75
    0
 76
    1
 98
    0
  0
HATCH
  5
1E1
100
AcDbEntity
  8
metal
  6
ByLayer
 62
  256
370
   -1
100
AcDbHatch
 10
0
 20
0
 30
0
210
0
220
0
230
1
  2
SOLID
 70
    1
 71
    0
 91
    1
 92
    0
 93
    1
 72
    2
 10
31.79999999999995
 20
123.8
 40
0.4000000000000021
 50
0
 51
360
 73
    1
 97
    0
 75
    0
 76
    1
 98
    0
  0
HATCH
  5
1E2
100
AcDbEntity
  8
metal
  6
ByLayer
 62
  256
370
   -1
100
AcDbHatch
 10
0
 20
0
 30
0
210
0
220
0
230
1
  2
SOLID
 70
    1
 71
    0
 91
    1
 92
    0
 93
    1
 72
    2
 10
1.199999999999989
 20
123.8
 40
0.4000000000000021
 50
0
 51
360
 73
    1
 97
    0
 75
    0
 76
    1
 98
    0
  0
HATCH
  5
1E3
100
AcDbEntity
  8
metal
  6
ByLayer
 62
  256
370
   -1
100
AcDbHatch
 10
0
 20
0
 30
0
210
0
220
0
230
1
  2
SOLID
 70
    1
 71
    0
 91
    1
 92
    0
 93
    1
 72
    2
 10
1.199999999999989
 20
51.19999999999999
 40
0.4000000000000004
 50
0
 51
360
 73
    1
 97
    0
 75
    0
 76
    1
 98
    0
  0
HATCH
  5
1E4
100
AcDbEntity
  8
metal
  6
ByLayer
 62
  256
370
   -1
100
AcDbHatch
 10
0
 20
0
 30
0
210
0
220
0
230
1
  2
SOLID
 70
    1
 71
    0
 91
    1
 92
    0
 93
    1
 72
    2
 10
1.199999999999989
 20
76.80000000000001
 40
0.4000000000000021
 50
0
 51
360
 73
    1
 97
    0
 75
    0
 76
    1
 98
    0
  0
HATCH
  5
1E5
100
AcDbEntity
  8
metal
  6
ByLayer
 62
  256
370
   -1
100
AcDbHatch
 10
0
 20
0
 30
0
210
0
220
0
230
1
  2
SOLID
 70
    1
 71
    0
 91
    1
 92
    0
 93
    1
 72
    2
 10
31.79999999999998
 20
76.8
 40
0.4000000000000021
 50
0
 51
360
 73
    1
 97
    0
 75
    0
 76
    1
 98
    0
  0
HATCH
  5
1E6
100
AcDbEntity
  8
metal
  6
ByLayer
 62
  256
370
   -1
100
AcDbHatch
 10
0
 20
0
 30
0
210
0
220
0
230
1
  2
SOLID
 70
    1
 71
    0
 91
    1
 92
    0
 93
    1
 72
    2
 10
31.79999999999998
 20
51.19999999999999
 40
0.4000000000000004
 50
0
 51
360
 73
    1
 97
    0
 75
    0
 76
    1
 98
    0
  0
HATCH
  5
1E7
100
AcDbEntity
  8
metal
  6
ByLayer
 62
  256
370
   -1
100
AcDbHatch
 10
0
 20
0
 30
0
210
0
220
0
230
1
  2
SOLID
 70
    1
 71
    0
 91
    1
 92
    0
 93
    1
 72
    2
 10
21.79999999999998
 20
1.199999999999989
 40
0.4000000000000004
 50
0
 51
360
 73
    1
 97
    0
 75
    0
 76
    1
 98
    0
  0
HATCH
  5
1E8
100
AcDbEntity
  8
metal
  6
ByLayer
 62
  256
370
   -1
100
AcDbHatch
 10
0
 20
0
 30
0
210
0
220
0
230
1
  2
SOLID
 70
    1
 71
    0
 91
    1
 92
    0
 93
    1
 72
    2
 10
21.79999999999998
 20
21.80000000000001
 40
0.4000000000000021
 50
0
 51
360
 73
    1
 97
    0
 75
    0
 76
    1
 98
    0
  0
HATCH
  5
1E9
100
AcDbEntity
  8
metal
  6
ByLayer
 62
  256
370
   -1
100
AcDbHatch
 10
0
 20
0
 30
0
210
0
220
0
230
1
  2
SOLID
 70
    1
 71
    0
 91
    1
 92
    0
 93
    1
 72
    2
 10
1.199999999999989
 20
21.80000000000001
 40
0.4000000000000021
 50
0
 51
360
 73
    1
 97
    0
 75
    0
 76
    1
 98
    0
  0
HATCH
  5
1EA
100
AcDbEntity
  8
metal
  6
ByLayer
 62
  256
370
   -1
100
AcDbHatch
 10
0
 20
0
 30
0
210
0
220
0
230
1
  2
SOLID
 70
    1
 71
    0
 91
    1
 92
    0
 93
    1
 72
    2
 10
1.199999999999989
 20
1.199999999999989
 40
0.4000000000000004
 50
0
 51
360
 73
    1
 97
    0
 75
    0
 76
    1
 98
    0
  0
CIRCLE
  5
1EB
100
AcDbEntity
  8
metal
  6
ByLayer
 62
  256
370
   -1
100
AcDbCircle
 10
1.199999999999989
 20
261.2
 40
0.4000000000000004
  0
CIRCLE
  5
1EC
100
AcDbEntity
  8
metal
  6
ByLayer
 62
  256
370
   -1
100
AcDbCircle
 10
16.79999999999998
 20
261.2
 40
0.4000000000000004
  0
CIRCLE
  5
1ED
100
AcDbEntity
  8
metal
  6
ByLayer
 62
  256
370
   -1
100
AcDbCircle
 10
1.199999999999989
 20
270.8
 40
0.4000000000000021
  0
CIRCLE
  5
1EE
100
AcDbEntity
  8
metal
  6
ByLayer
 62
  256
370
   -1
100
AcDbCircle
 10
16.79999999999998
 20
270.8
 40
0.4000000000000021
  0
LINE
  5
1EF
100
AcDbEntity
  8
metal
  6
ByLayer
 62
  256
370
   -1
100
AcDbLine
 10
6.500000000000002
 20
272
 11
6.500000000000002
 21
271.4
  0
LINE
  5
1F0
100
AcDbEntity
  8
metal
  6
ByLayer
 62
  256
370
   -1
100
AcDbLine
 10
11.5
 20
272
 11
11.5
 21
271.4
  0
DIMENSION
  5
1F1
100
AcDbEntity
  8
rozmir_zagib
  6
ByLayer
 62
  256
370
   -1
100
AcDbDimension
  2
*D1
 10
1.700004301932466
 20
274.7
 30
0
 11
6.600002150966234
 21
277.45
 31
0
 70
   32
 71
    5
  3
Standard
 53
0
210
0
220
0
230
1
100
AcDbAlignedDimension
 13
11.5
 23
272
 33
0
 14
1.700004301932466
 24
272
 34
0
100
AcDbRotatedDimension
  0
DIMENSION
  5
1F2
100
AcDbEntity
  8
rozmir
  6
ByLayer
 62
  256
370
   -1
100
AcDbDimension
  2
*D2
 10
-10
 20
260
 30
0
 11
-12.75
 21
266
 31
0
 70
   32
 71
    5
  3
Standard
 53
0
210
0
220
0
230
1
100
AcDbAlignedDimension
 13
1.699999999999989
 23
272
 33
0
 14
1.699999999999989
 24
260
 34
0
 50
90
100
AcDbRotatedDimension
  0
DIMENSION
  5
1F3
100
AcDbEntity
  8
rozmir_zagib
  6
ByLayer
 62
  256
370
   -1
100
AcDbDimension
  2
*D3
 10
-3.100000000000023
 20
261.7
 30
0
 11
-5.850000000000023
 21
266.8
 31
0
 70
   32
 71
    5
  3
Standard
 53
0
210
0
220
0
230
1
100
AcDbAlignedDimension
 13
1.6
 23
272
 33
0
 14
-2.775557561562891e-16
 24
261.6
 34
0
 50
90
100
AcDbRotatedDimension
  0
DIMENSION
  5
1F4
100
AcDbEntity
  8
rozmir
  6
ByLayer
 62
  256
370
   -1
100
AcDbDimension
  2
*D4
 10
17.99999999999996
 20
281
 30
0
 11
8.999999999999986
 21
283.75
 31
0
 70
   32
 71
    5
  3
Standard
 53
0
210
0
220
0
230
1
100
AcDbAlignedDimension
 13
-2.842170943040401e-14
 23
270.2999998201383
 33
0
 14
18
 24
270.3999961013792
 34
0
100
AcDbRotatedDimension
  0
DIMENSION
  5
1F5
100
AcDbEntity
  8
rozmir_zagib
  6
ByLayer
 62
  256
370
   -1
100
AcDbDimension
  2
*D5
 10
12.89999999999998
 20
253.7
 30
0
 11
8.199999999999989
 21
256.45
 31
0
 70
   32
 71
    5
  3
Standard
 53
0
210
0
220
0
230
1
100
AcDbAlignedDimension
 13
-2.842170943040401e-14
 23
261.7
 33
0
 14
16.4
 24
260
 34
0
100
AcDbRotatedDimension
  0
DIMENSION
  5
1F6
100
AcDbEntity
  8
rozmir_zagib
  6
ByLayer
 62
  256
370
   -1
100
AcDbDimension
  2
*D6
 10
24.29999999999998
 20
270.1000042071852
 30
0
 11
21.54999999999998
 21
265.2
 31
0
 70
   32
 71
    5
  3
Standard
 53
0
210
0
220
0
230
1
100
AcDbAlignedDimension
 13
16.4
 23
260
 33
0
 14
18
 24
270.4
 34
0
 50
90
100
AcDbRotatedDimension
  0
LWPOLYLINE
  5
1F7
100
AcDbEntity
  8
metal
  6
ByLayer
 62
  256
370
   -1
100
AcDbPolyline
 90
    8
 70
    1
 43
0
 10
16.4
 20
260.6
 42
0.4142135623730971
 10
17.39999999999999
 20
261.6
 10
17.40000000000001
 20
270.4
 42
0.4142135623731003
 10
16.4
 20
271.4
 10
1.6
 20
271.4
 42
0.4142135623730963
 10
0.599999999999995
 20
270.4
 10
0.6000000000000036
 20
261.6
 42
0.4142135623730898
 10
1.6
 20
260.6
  0
LWPOLYLINE
  5
1F8
100
AcDbEntity
  8
metal
  6
ByLayer
 62
  256
370
   -1
100
AcDbPolyline
 90
    8
 70
    1
 43
0
 10
16.4
 20
260
 42
0.4142135623730989
 10
18
 20
261.6
 10
17.99999999999999
 20
270.3999957928148
 42
0.4142135623731003
 10
16.4
 20
272
 10
1.600004301932421
 20
272
 42
0.4142135623730978
 10
5.995204332975845e-15
 20
270.4
 10
-6.661338147750939e-16
 20
261.6
 42
0.414213562373101
 10
1.599999999999998
 20
260
  0
MTEXT
  5
1F9
100
AcDbEntity
  8
rozmir_zagib
  6
ByLayer
 62
  256
370
   -1
100
AcDbMText
 10
40
 20
260
 30
0
 40
4
 41
17.11111111111136
 71
    7
 72
    1
  1
L = 60
  7
cyrillic_ii
210
0
220
0
230
1
 50
0
 73
    2
 44
1
  0
CIRCLE
  5
1FA
100
AcDbEntity
  8
metal
  6
ByLayer
 62
  256
370
   -1
100
AcDbCircle
 10
1.199999999999989
 20
301.2
 40
0.4000000000000004
  0
CIRCLE
  5
1FB
100
AcDbEntity
  8
metal
  6
ByLayer
 62
  256
370
   -1
100
AcDbCircle
 10
1.199999999999989
 20
309.8
 40
0.4000000000000021
  0
DIMENSION
  5
1FC
100
AcDbEntity
  8
rozmir_zagib
  6
ByLayer
 62
  256
370
   -1
100
AcDbDimension
  2
*D7
 10
-3.100000000000023
 20
301.7
 30
0
 11
-5.850000000000023
 21
306.3
 31
0
 70
   32
 71
    5
  3
Standard
 53
0
210
0
220
0
230
1
100
AcDbAlignedDimension
 13
1.699995698067539
 23
311
 33
0
 14
0
 24
301.6
 34
0
 50
90
100
AcDbRotatedDimension
  0
DIMENSION
  5
1FD
100
AcDbEntity
  8
rozmir
  6
ByLayer
 62
  256
370
   -1
100
AcDbDimension
  2
*D8
 10
-10
 20
311.8
 30
0
 11
-12.75
 21
305.5
 31
0
 70
   32
 71
    5
 72
    0
  3
Standard
 53
0
210
0
220
0
230
1
100
AcDbAlignedDimension
 13
1.599998866772239
 23
300
 33
0
 14
1.59999742568516
 24
311
 34
0
 50
90
100
AcDbRotatedDimension
  0
CIRCLE
  5
1FE
100
AcDbEntity
  8
metal
  6
ByLayer
 62
  256
370
   -1
100
AcDbCircle
 10
12.79999999999995
 20
301.2
 40
0.4000000000000004
  0
DIMENSION
  5
1FF
100
AcDbEntity
  8
rozmir_zagib
  6
ByLayer
 62
  256
370
   -1
100
AcDbDimension
  2
*D9
 10
12.89999999999998
 20
293.7
 30
0
 11
6.199999433386097
 21
296.45
 31
0
 70
   32
 71
    5
  3
Standard
 53
0
210
0
220
0
230
1
100
AcDbAlignedDimension
 13
0
 23
301.7
 33
0
 14
12.39999886677219
 24
300
 34
0
100
AcDbRotatedDimension
  0
CIRCLE
  5
200
100
AcDbEntity
  8
metal
  6
ByLayer
 62
  256
370
   -1
100
AcDbCircle
 10
12.79999999999995
 20
309.8
 40
0.4000000000000021
  0
LWPOLYLINE
  5
201
100
AcDbEntity
  8
metal
  6
ByLayer
 62
  256
370
   -1
100
AcDbPolyline
 90
    8
 70
    1
 43
0
 10
12.39999999999998
 20
300.6
 42
0.414213562373095
 10
13.39999999999998
 20
301.6
 10
13.39999999999998
 20
309.4
 42
0.414213562373095
 10
12.39999999999998
 20
310.4
 10
1.599999999999973
 20
310.4
 42
0.4142135623730929
 10
0.5999999999999659
 20
309.4
 10
0.6000000000000121
 20
301.6
 42
0.4142135623730929
 10
1.600000000000023
 20
300.6
  0
DIMENSION
  5
202
100
AcDbEntity
  8
rozmir_zagib
  6
ByLayer
 62
  256
370
   -1
100
AcDbDimension
  2
*D10
 10
20.89999999999998
 20
310.1000042071852
 30
0
 11
18.14999999999998
 21
304.7000002633915
 31
0
 70
   32
 71
    5
  3
Standard
 53
0
210
0
220
0
230
1
100
AcDbAlignedDimension
 13
12.29999999999995
 23
300
 33
0
 14
13.99999886677222
 24
309.400000526783
 34
0
 50
90
100
AcDbRotatedDimension
  0
LWPOLYLINE
  5
203
100
AcDbEntity
  8
metal
  6
ByLayer
 62
  256
370
   -1
100
AcDbPolyline
 90
    8
 70
    1
 43
0
 10
12.39999886677222
 20
300
 42
0.4142135623731015
 10
13.99999886677222
 20
301.6
 10
13.9999988667722
 20
309.4
 42
0.4142135623730963
 10
12.39999886677219
 20
311
 10
1.599998866772196
 20
310.9999999999999
 42
0.4142135623730976
 10
-1.133227783611801e-06
 20
309.4
 10
-1.133227733651765e-06
 20
301.6
 42
0.4142135623731029
 10
1.599998866772239
 20
300
  0
DIMENSION
  5
204
100
AcDbEntity
  8
rozmir
  6
ByLayer
 62
  256
370
   -1
100
AcDbDimension
  2
*D11
 10
14.59999886677224
 20
321
 30
0
 11
6.999998866772216
 21
323.75
 31
0
 70
   32
 71
    5
 72
    0
  3
Standard
 53
0
210
0
220
0
230
1
100
AcDbAlignedDimension
 13
-1.133227783611801e-06
 23
309.400000737932
 33
0
 14
13.99999886677222
 24
309.400000526783
 34
0
100
AcDbRotatedDimension
  0
LINE
  5
205
100
AcDbEntity
  8
metal
  6
ByLayer
 62
  256
370
   -1
100
AcDbLine
 10
4.599999999999966
 20
311
 11
4.599999999999966
 21
310.4
  0
LINE
  5
206
100
AcDbEntity
  8
metal
  6
ByLayer
 62
  256
370
   -1
100
AcDbLine
 10
9.599999999999966
 20
311
 11
9.599999999999966
 21
310.4
  0
DIMENSION
  5
207
100
AcDbEntity
  8
rozmir_zagib
  6
ByLayer
 62
  256
370
   -1
100
AcDbDimension
  2
*D12
 10
1.700004301932495
 20
314.7
 30
0
 11
5.599998712842591
 21
317.45
 31
0
 70
   32
 71
    5
  3
Standard
 53
0
210
0
220
0
230
1
100
AcDbAlignedDimension
 13
9.599999999999966
 23
311
 33
0
 14
1.59999742568516
 24
311
 34
0
100
AcDbRotatedDimension
  0
MTEXT
  5
208
100
AcDbEntity
  8
rozmir_zagib
  6
ByLayer
 62
  256
370
   -1
100
AcDbMText
 10
40
 20
300
 30
0
 40
4
 41
17.11111111111136
 71
    7
 72
    1
  1
L = 50
  7
cyrillic_ii
210
0
220
0
230
1
 50
0
 73
    2
 44
1
  0
MTEXT
  5
209
100
AcDbEntity
  8
tekst
  6
ByLayer
 62
  256
370
   -1
100
AcDbMText
 10
70
 20
300
 30
0
 40
5
 41
172.6388888888899
 71
    7
 72
    1
  1
  u-\P  25 ,   %%C10 
  7
cyrillic_ii
210
0
220
0
230
1
 50
0
 73
    2
 44
1
  0
MTEXT
  5
20A
100
AcDbEntity
  8
tekst
  6
ByLayer
 62
  256
370
   -1
100
AcDbMText
 10
70
 20
260
 30
0
 40
5
 41
172.6388888888899
 71
    7
 72
    1
  1
    25 \P  25 ,   %%C10 
  7
cyrillic_ii
210
0
220
0
230
1
 50
0
 73
    2
 44
1
  0
CIRCLE
  5
20B
100
AcDbEntity
  8
metal
  6
ByLayer
 62
  256
370
   -1
100
AcDbCircle
 10
1.199999999999989
 20
211.2
 40
0.4000000000000004
  0
CIRCLE
  5
20C
100
AcDbEntity
  8
metal
  6
ByLayer
 62
  256
370
   -1
100
AcDbCircle
 10
16.79999999999995
 20
211.2
 40
0.4000000000000004
  0
DIMENSION
  5
20D
100
AcDbEntity
  8
rozmir_zagib
  6
ByLayer
 62
  256
370
   -1
100
AcDbDimension
  2
*D13
 10
12.89999999999998
 20
203.7
 30
0
 11
8.199999999999989
 21
206.45
 31
0
 70
   32
 71
    5
  3
Standard
 53
0
210
0
220
0
230
1
100
AcDbAlignedDimension
 13
0
 23
211.7
 33
0
 14
16.40000000000003
 24
210
 34
0
100
AcDbRotatedDimension
  0
CIRCLE
  5
20E
100
AcDbEntity
  8
metal
  6
ByLayer
 62
  256
370
   -1
100
AcDbCircle
 10
1.199999999999989
 20
228.8
 40
0.4000000000000021
  0
CIRCLE
  5
20F
100
AcDbEntity
  8
metal
  6
ByLayer
 62
  256
370
   -1
100
AcDbCircle
 10
16.79999999999995
 20
228.8
 40
0.4000000000000021
  0
LINE
  5
210
100
AcDbEntity
  8
metal
  6
ByLayer
 62
  256
370
   -1
100
AcDbLine
 10
6.5
 20
230
 11
6.5
 21
229.4
  0
LINE
  5
211
100
AcDbEntity
  8
metal
  6
ByLayer
 62
  256
370
   -1
100
AcDbLine
 10
11.5
 20
230
 11
11.5
 21
229.4
  0
DIMENSION
  5
212
100
AcDbEntity
  8
rozmir_zagib
  6
ByLayer
 62
  256
370
   -1
100
AcDbDimension
  2
*D14
 10
1.700004301932495
 20
232.7
 30
0
 11
6.600002150966247
 21
235.45
 31
0
 70
   32
 71
    5
  3
Standard
 53
0
210
0
220
0
230
1
100
AcDbAlignedDimension
 13
11.5
 23
230
 33
0
 14
1.700004301932495
 24
230
 34
0
100
AcDbRotatedDimension
  0
DIMENSION
  5
213
100
AcDbEntity
  8
rozmir
  6
ByLayer
 62
  256
370
   -1
100
AcDbDimension
  2
*D15
 10
-10
 20
210
 30
0
 11
-12.75
 21
220
 31
0
 70
   32
 71
    5
  3
Standard
 53
0
210
0
220
0
230
1
100
AcDbAlignedDimension
 13
1.699999999999989
 23
230
 33
0
 14
1.699999999999989
 24
210
 34
0
 50
90
100
AcDbRotatedDimension
  0
DIMENSION
  5
214
100
AcDbEntity
  8
rozmir_zagib
  6
ByLayer
 62
  256
370
   -1
100
AcDbDimension
  2
*D16
 10
-3.100000000000023
 20
211.7
 30
0
 11
-5.850000000000023
 21
220.8
 31
0
 70
   32
 71
    5
  3
Standard
 53
0
210
0
220
0
230
1
100
AcDbAlignedDimension
 13
1.600000000000023
 23
230
 33
0
 14
0
 24
211.6
 34
0
 50
90
100
AcDbRotatedDimension
  0
DIMENSION
  5
215
100
AcDbEntity
  8
rozmir
  6
ByLayer
 62
  256
370
   -1
100
AcDbDimension
  2
*D17
 10
17.99999999999994
 20
239
 30
0
 11
9
 21
241.75
 31
0
 70
   32
 71
    5
  3
Standard
 53
0
210
0
220
0
230
1
100
AcDbAlignedDimension
 13
0
 23
228.2999998201383
 33
0
 14
18
 24
228.3999961013792
 34
0
100
AcDbRotatedDimension
  0
DIMENSION
  5
216
100
AcDbEntity
  8
rozmir_zagib
  6
ByLayer
 62
  256
370
   -1
100
AcDbDimension
  2
*D18
 10
24.29999999999995
 20
220.1000042071852
 30
0
 11
21.54999999999995
 21
219.2
 31
0
 70
   32
 71
    5
  3
Standard
 53
0
210
0
220
0
230
1
100
AcDbAlignedDimension
 13
16.40000000000003
 23
210
 33
0
 14
18
 24
228.4
 34
0
 50
90
100
AcDbRotatedDimension
  0
LWPOLYLINE
  5
217
100
AcDbEntity
  8
metal
  6
ByLayer
 62
  256
370
   -1
100
AcDbPolyline
 90
    8
 70
    1
 43
0
 10
16.39999999999998
 20
210.6
 42
0.4142135623730971
 10
17.39999999999998
 20
211.6
 10
17.40000000000003
 20
228.4
 42
0.414213562373095
 10
16.40000000000003
 20
229.4
 10
1.60000000000003
 20
229.4
 42
0.4142135623730929
 10
0.5999999999999659
 20
228.4
 10
0.6000000000000156
 20
211.6
 42
0.4142135623730909
 10
1.600000000000023
 20
210.6
  0
LWPOLYLINE
  5
218
100
AcDbEntity
  8
metal
  6
ByLayer
 62
  256
370
   -1
100
AcDbPolyline
 90
    8
 70
    1
 43
0
 10
16.40000000000002
 20
210
 42
0.4142135623731003
 10
18
 20
211.6
 10
18
 20
228.3999957928148
 42
0.4142135623730976
 10
16.40000000000003
 20
230
 10
1.600004301932443
 20
230
 42
0.4142135623731029
 10
0
 20
228.4
 10
-7.327471962526033e-15
 20
211.6
 42
0.4142135623731015
 10
1.600000000000023
 20
210
  0
MTEXT
  5
219
100
AcDbEntity
  8
rozmir_zagib
  6
ByLayer
 62
  256
370
   -1
100
AcDbMText
 10
40
 20
210
 30
0
 40
4
 41
17.11111111111136
 71
    7
 72
    1
  1
L = 76
  7
cyrillic_ii
210
0
220
0
230
1
 50
0
 73
    2
 44
1
  0
CIRCLE
  5
21A
100
AcDbEntity
  8
metal
  6
ByLayer
 62
  256
370
   -1
100
AcDbCircle
 10
1.199999999999989
 20
161.2
 40
0.4000000000000004
  0
CIRCLE
  5
21B
100
AcDbEntity
  8
metal
  6
ByLayer
 62
  256
370
   -1
100
AcDbCircle
 10
1.199999999999989
 20
175.8
 40
0.4000000000000021
  0
DIMENSION
  5
21C
100
AcDbEntity
  8
rozmir
  6
ByLayer
 62
  256
370
   -1
100
AcDbDimension
  2
*D19
 10
-10
 20
160
 30
0
 11
-12.75
 21
168.5
 31
0
 70
   32
 71
    5
  3
Standard
 53
0
210
0
220
0
230
1
100
AcDbAlignedDimension
 13
1.699999999999989
 23
177
 33
0
 14
1.699999999999989
 24
160
 34
0
 50
90
100
AcDbRotatedDimension
  0
DIMENSION
  5
21D
100
AcDbEntity
  8
rozmir_zagib
  6
ByLayer
 62
  256
370
   -1
100
AcDbDimension
  2
*D20
 10
-3.100000000000023
 20
161.7
 30
0
 11
-5.850000000000023
 21
169.3
 31
0
 70
   32
 71
    5
  3
Standard
 53
0
210
0
220
0
230
1
100
AcDbAlignedDimension
 13
1.600000000000023
 23
177
 33
0
 14
0
 24
161.6
 34
0
 50
90
100
AcDbRotatedDimension
  0
CIRCLE
  5
21E
100
AcDbEntity
  8
metal
  6
ByLayer
 62
  256
370
   -1
100
AcDbCircle
 10
11.80000000000001
 20
161.2
 40
0.4000000000000004
  0
DIMENSION
  5
21F
100
AcDbEntity
  8
rozmir_zagib
  6
ByLayer
 62
  256
370
   -1
100
AcDbDimension
  2
*D21
 10
12.89999999999998
 20
153.7
 30
0
 11
5.699999999999989
 21
156.45
 31
0
 70
   32
 71
    5
  3
Standard
 53
0
210
0
220
0
230
1
100
AcDbAlignedDimension
 13
0
 23
161.7
 33
0
 14
11.39999999999998
 24
160
 34
0
100
AcDbRotatedDimension
  0
CIRCLE
  5
220
100
AcDbEntity
  8
metal
  6
ByLayer
 62
  256
370
   -1
100
AcDbCircle
 10
11.80000000000001
 20
175.8
 40
0.4000000000000021
  0
DIMENSION
  5
221
100
AcDbEntity
  8
rozmir
  6
ByLayer
 62
  256
370
   -1
100
AcDbDimension
  2
*D22
 10
18
 20
186
 30
0
 11
6.5
 21
188.75
 31
0
 70
   32
 71
    5
  3
Standard
 53
0
210
0
220
0
230
1
100
AcDbAlignedDimension
 13
0
 23
175.2999998201383
 33
0
 14
13
 24
175.3999961013792
 34
0
100
AcDbRotatedDimension
  0
DIMENSION
  5
222
100
AcDbEntity
  8
rozmir_zagib
  6
ByLayer
 62
  256
370
   -1
100
AcDbDimension
  2
*D23
 10
19.30000000000001
 20
170.1000042071852
 30
0
 11
16.55000000000001
 21
167.7
 31
0
 70
   32
 71
    5
  3
Standard
 53
0
210
0
220
0
230
1
100
AcDbAlignedDimension
 13
11.39999999999998
 23
160
 33
0
 14
13
 24
175.4
 34
0
 50
90
100
AcDbRotatedDimension
  0
LWPOLYLINE
  5
223
100
AcDbEntity
  8
metal
  6
ByLayer
 62
  256
370
   -1
100
AcDbPolyline
 90
    8
 70
    1
 43
0
 10
11.39999999999998
 20
160.6
 42
0.414213562373095
 10
12.39999999999998
 20
161.6
 10
12.39999999999998
 20
175.4
 42
0.414213562373095
 10
11.39999999999998
 20
176.4
 10
1.600000000000037
 20
176.4
 42
0.414213562373095
 10
0.5999999999999659
 20
175.4
 10
0.6000000000000225
 20
161.6
 42
0.414213562373095
 10
1.600000000000023
 20
160.6
  0
LWPOLYLINE
  5
224
100
AcDbEntity
  8
metal
  6
ByLayer
 62
  256
370
   -1
100
AcDbPolyline
 90
    8
 70
    1
 43
0
 10
11.39999999999998
 20
160
 42
0.4142135623730976
 10
13
 20
161.6
 10
13.00000000000001
 20
175.3999957928148
 42
0.414213562373095
 10
11.39999999999998
 20
177
 10
1.600004301932429
 20
177
 42
0.4142135623731003
 10
0
 20
175.4
 10
2.220446049250313e-16
 20
161.6
 42
0.4142135623731029
 10
1.600000000000023
 20
160
  0
LINE
  5
225
100
AcDbEntity
  8
metal
  6
ByLayer
 62
  256
370
   -1
100
AcDbLine
 10
4.200000000000045
 20
177
 11
4.200000000000045
 21
176.4
  0
LINE
  5
226
100
AcDbEntity
  8
metal
  6
ByLayer
 62
  256
370
   -1
100
AcDbLine
 10
9.200000000000045
 20
177
 11
9.200000000000045
 21
176.4
  0
DIMENSION
  5
227
100
AcDbEntity
  8
rozmir_zagib
  6
ByLayer
 62
  256
370
   -1
100
AcDbDimension
  2
*D24
 10
1.700004301932495
 20
179.7
 30
0
 11
5.45000215096627
 21
182.45
 31
0
 70
   32
 71
    5
  3
Standard
 53
0
210
0
220
0
230
1
100
AcDbAlignedDimension
 13
9.200000000000045
 23
177
 33
0
 14
1.700004301932495
 24
177
 34
0
100
AcDbRotatedDimension
  0
MTEXT
  5
228
100
AcDbEntity
  8
rozmir_zagib
  6
ByLayer
 62
  256
370
   -1
100
AcDbMText
 10
40
 20
160
 30
0
 40
4
 41
17.11111111111136
 71
    7
 72
    1
  1
L = 60
  7
cyrillic_ii
210
0
220
0
230
1
 50
0
 73
    2
 44
1
  0
MTEXT
  5
229
100
AcDbEntity
  8
tekst
  6
ByLayer
 62
  256
370
   -1
100
AcDbMText
 10
70
 20
210
 30
0
 40
5
 41
172.6388888888899
 71
    7
 72
    1
  1
   \P  25 ,   %%C10 
  7
cyrillic_ii
210
0
220
0
230
1
 50
0
 73
    2
 44
1
  0
MTEXT
  5
22A
100
AcDbEntity
  8
tekst
  6
ByLayer
 62
  256
370
   -1
100
AcDbMText
 10
70
 20
160
 30
0
 40
5
 41
172.6388888888899
 71
    7
 72
    1
  1
    20 \P  25 ,   %%C10 
  7
cyrillic_ii
210
0
220
0
230
1
 50
0
 73
    2
 44
1
  0
CIRCLE
  5
22B
100
AcDbEntity
  8
metal
  6
ByLayer
 62
  256
370
   -1
100
AcDbCircle
 10
1.199999999999989
 20
111.2
 40
0.4000000000000004
  0
CIRCLE
  5
22C
100
AcDbEntity
  8
metal
  6
ByLayer
 62
  256
370
   -1
100
AcDbCircle
 10
31.79999999999995
 20
111.2
 40
0.4000000000000004
  0
DIMENSION
  5
22D
100
AcDbEntity
  8
rozmir_zagib
  6
ByLayer
 62
  256
370
   -1
100
AcDbDimension
  2
*D25
 10
12.89999999999998
 20
103.7
 30
0
 11
15.69999999999999
 21
106.45
 31
0
 70
   32
 71
    5
  3
Standard
 53
0
210
0
220
0
230
1
100
AcDbAlignedDimension
 13
0
 23
111.7
 33
0
 14
31.39999999999998
 24
110
 34
0
100
AcDbRotatedDimension
  0
CIRCLE
  5
22E
100
AcDbEntity
  8
metal
  6
ByLayer
 62
  256
370
   -1
100
AcDbCircle
 10
1.199999999999989
 20
123.8
 40
0.4000000000000021
  0
DIMENSION
  5
22F
100
AcDbEntity
  8
rozmir
  6
ByLayer
 62
  256
370
   -1
100
AcDbDimension
  2
*D26
 10
-10
 20
110
 30
0
 11
-12.75
 21
117.5
 31
0
 70
   32
 71
    5
  3
Standard
 53
0
210
0
220
0
230
1
100
AcDbAlignedDimension
 13
1.699999999999989
 23
125
 33
0
 14
1.699999999999989
 24
110
 34
0
 50
90
100
AcDbRotatedDimension
  0
DIMENSION
  5
230
100
AcDbEntity
  8
rozmir_zagib
  6
ByLayer
 62
  256
370
   -1
100
AcDbDimension
  2
*D27
 10
-3.100000000000023
 20
111.7
 30
0
 11
-5.850000000000023
 21
118.3
 31
0
 70
   32
 71
    5
  3
Standard
 53
0
210
0
220
0
230
1
100
AcDbAlignedDimension
 13
1.600000000000023
 23
125
 33
0
 14
0
 24
111.6
 34
0
 50
90
100
AcDbRotatedDimension
  0
CIRCLE
  5
231
100
AcDbEntity
  8
metal
  6
ByLayer
 62
  256
370
   -1
100
AcDbCircle
 10
31.79999999999995
 20
123.8
 40
0.4000000000000021
  0
DIMENSION
  5
232
100
AcDbEntity
  8
rozmir
  6
ByLayer
 62
  256
370
   -1
100
AcDbDimension
  2
*D28
 10
18
 20
134
 30
0
 11
16.5
 21
136.75
 31
0
 70
   32
 71
    5
  3
Standard
 53
0
210
0
220
0
230
1
100
AcDbAlignedDimension
 13
0
 23
123.2999998201383
 33
0
 14
33
 24
123.3999961013792
 34
0
100
AcDbRotatedDimension
  0
LWPOLYLINE
  5
233
100
AcDbEntity
  8
metal
  6
ByLayer
 62
  256
370
   -1
100
AcDbPolyline
 90
    8
 70
    1
 43
0
 10
31.39999999999998
 20
110.6
 42
0.4142135623730984
 10
32.39999999999998
 20
111.6
 10
32.39999999999998
 20
123.4
 42
0.414213562373095
 10
31.39999999999998
 20
124.4
 10
1.60000000000003
 20
124.4
 42
0.4142135623730929
 10
0.5999999999999659
 20
123.4
 10
0.6000000000000152
 20
111.6
 42
0.4142135623730914
 10
1.600000000000023
 20
110.6
  0
LWPOLYLINE
  5
234
100
AcDbEntity
  8
metal
  6
ByLayer
 62
  256
370
   -1
100
AcDbPolyline
 90
    8
 70
    1
 43
0
 10
31.39999999999998
 20
110
 42
0.4142135623730955
 10
33
 20
111.6
 10
33.00000000000001
 20
123.3999957928147
 42
0.4142135623730971
 10
31.39999999999998
 20
125
 10
1.600004301932429
 20
125
 42
0.4142135623731003
 10
0
 20
123.4
 10
-1.48769885299771e-14
 20
111.6
 42
0.4142135623731023
 10
1.600000000000023
 20
110
  0
DIMENSION
  5
235
100
AcDbEntity
  8
rozmir_zagib
  6
ByLayer
 62
  256
370
   -1
100
AcDbDimension
  2
*D29
 10
40
 20
119
 30
0
 11
37.25
 21
116.7
 31
0
 70
   32
 71
    5
  3
Standard
 53
0
210
0
220
0
230
1
100
AcDbAlignedDimension
 13
31.39999999999998
 23
110
 33
0
 14
33
 24
123.4
 34
0
 50
90
100
AcDbRotatedDimension
  0
LINE
  5
236
100
AcDbEntity
  8
metal
  6
ByLayer
 62
  256
370
   -1
100
AcDbLine
 10
14
 20
125
 11
14
 21
124.4
  0
LINE
  5
237
100
AcDbEntity
  8
metal
  6
ByLayer
 62
  256
370
   -1
100
AcDbLine
 10
19
 20
125
 11
19
 21
124.4
  0
DIMENSION
  5
238
100
AcDbEntity
  8
rozmir_zagib
  6
ByLayer
 62
  256
370
   -1
100
AcDbDimension
  2
*D30
 10
1.700004301932495
 20
127.7
 30
0
 11
10.35000215096625
 21
130.45
 31
0
 70
   32
 71
    5
  3
Standard
 53
0
210
0
220
0
230
1
100
AcDbAlignedDimension
 13
19
 23
125
 33
0
 14
1.700004301932495
 24
125
 34
0
100
AcDbRotatedDimension
  0
MTEXT
  5
239
100
AcDbEntity
  8
rozmir_zagib
  6
ByLayer
 62
  256
370
   -1
100
AcDbMText
 10
50
 20
110
 30
0
 40
4
 41
17.11111111111136
 71
    7
 72
    1
  1
L = 96
  7
cyrillic_ii
210
0
220
0
230
1
 50
0
 73
    2
 44
1
  0
MTEXT
  5
23A
100
AcDbEntity
  8
tekst
  6
ByLayer
 62
  256
370
   -1
100
AcDbMText
 10
80
 20
110
 30
0
 40
5
 41
172.6388888888899
 71
    7
 72
    1
  1
    37 \P  25 ,   %%C10 
  7
cyrillic_ii
210
0
220
0
230
1
 50
0
 73
    2
 44
1
  0
CIRCLE
  5
23B
100
AcDbEntity
  8
metal
  6
ByLayer
 62
  256
370
   -1
100
AcDbCircle
 10
1.199999999999989
 20
51.19999999999999
 40
0.4000000000000004
  0
CIRCLE
  5
23C
100
AcDbEntity
  8
metal
  6
ByLayer
 62
  256
370
   -1
100
AcDbCircle
 10
1.199999999999989
 20
76.80000000000001
 40
0.4000000000000021
  0
DIMENSION
  5
23D
100
AcDbEntity
  8
rozmir
  6
ByLayer
 62
  256
370
   -1
100
AcDbDimension
  2
*D31
 10
-10
 20
50
 30
0
 11
-12.75
 21
64
 31
0
 70
   32
 71
    5
  3
Standard
 53
0
210
0
220
0
230
1
100
AcDbAlignedDimension
 13
1.699999999999989
 23
77.99999999999999
 33
0
 14
1.699999999999989
 24
50
 34
0
 50
90
100
AcDbRotatedDimension
  0
DIMENSION
  5
23E
100
AcDbEntity
  8
rozmir_zagib
  6
ByLayer
 62
  256
370
   -1
100
AcDbDimension
  2
*D32
 10
-3.100000000000023
 20
51.69999999999999
 30
0
 11
-5.850000000000023
 21
64.80000000000001
 31
0
 70
   32
 71
    5
  3
Standard
 53
0
210
0
220
0
230
1
100
AcDbAlignedDimension
 13
1.599999999999994
 23
78
 33
0
 14
0
 24
51.59999999999999
 34
0
 50
90
100
AcDbRotatedDimension
  0
CIRCLE
  5
23F
100
AcDbEntity
  8
metal
  6
ByLayer
 62
  256
370
   -1
100
AcDbCircle
 10
31.79999999999998
 20
51.19999999999999
 40
0.4000000000000004
  0
DIMENSION
  5
240
100
AcDbEntity
  8
rozmir_zagib
  6
ByLayer
 62
  256
370
   -1
100
AcDbDimension
  2
*D33
 10
12.89999999999998
 20
43.69999999999999
 30
0
 11
15.69999999999999
 21
46.44999999999999
 31
0
 70
   32
 71
    5
  3
Standard
 53
0
210
0
220
0
230
1
100
AcDbAlignedDimension
 13
-2.842170943040401e-14
 23
51.69999999999999
 33
0
 14
31.40000000000001
 24
50
 34
0
100
AcDbRotatedDimension
  0
CIRCLE
  5
241
100
AcDbEntity
  8
metal
  6
ByLayer
 62
  256
370
   -1
100
AcDbCircle
 10
31.79999999999998
 20
76.8
 40
0.4000000000000021
  0
DIMENSION
  5
242
100
AcDbEntity
  8
rozmir
  6
ByLayer
 62
  256
370
   -1
100
AcDbDimension
  2
*D34
 10
17.99999999999997
 20
87
 30
0
 11
16.5
 21
89.75
 31
0
 70
   32
 71
    5
  3
Standard
 53
0
210
0
220
0
230
1
100
AcDbAlignedDimension
 13
-2.842170943040401e-14
 23
76.29999982013832
 33
0
 14
33
 24
76.39999610137923
 34
0
100
AcDbRotatedDimension
  0
LWPOLYLINE
  5
243
100
AcDbEntity
  8
metal
  6
ByLayer
 62
  256
370
   -1
100
AcDbPolyline
 90
    8
 70
    1
 43
0
 10
31.40000000000002
 20
50.6
 42
0.4142135623730935
 10
32.39999999999998
 20
51.59999999999999
 10
32.40000000000001
 20
76.40000000000001
 42
0.4142135623730981
 10
31.40000000000001
 20
77.40000000000001
 10
1.599999999999992
 20
77.40000000000002
 42
0.4142135623730944
 10
0.5999999999999943
 20
76.40000000000001
 10
0.6000000000000145
 20
51.60000000000002
 42
0.4142135623730904
 10
1.599999999999994
 20
50.59999999999999
  0
LWPOLYLINE
  5
244
100
AcDbEntity
  8
metal
  6
ByLayer
 62
  256
370
   -1
100
AcDbPolyline
 90
    8
 70
    1
 43
0
 10
31.39999999999999
 20
50
 42
0.4142135623730987
 10
33
 20
51.59999999999999
 10
33.00000000000001
 20
76.39999579281475
 42
0.4142135623730997
 10
31.40000000000001
 20
78.00000000000001
 10
1.600004301932419
 20
77.99999999999999
 42
0.4142135623730989
 10
0
 20
76.40000000000001
 10
1.154631945610163e-14
 20
51.59999999999998
 42
0.4142135623731013
 10
1.599999999999994
 20
50
  0
DIMENSION
  5
245
100
AcDbEntity
  8
rozmir_zagib
  6
ByLayer
 62
  256
370
   -1
100
AcDbDimension
  2
*D35
 10
40
 20
59
 30
0
 11
37.25
 21
63.19999999999999
 31
0
 70
   32
 71
    5
  3
Standard
 53
0
210
0
220
0
230
1
100
AcDbAlignedDimension
 13
31.40000000000001
 23
50
 33
0
 14
33
 24
76.40000000000001
 34
0
 50
90
100
AcDbRotatedDimension
  0
LINE
  5
246
100
AcDbEntity
  8
metal
  6
ByLayer
 62
  256
370
   -1
100
AcDbLine
 10
14
 20
77.99999999999999
 11
14
 21
77.40000000000001
  0
LINE
  5
247
100
AcDbEntity
  8
metal
  6
ByLayer
 62
  256
370
   -1
100
AcDbLine
 10
19
 20
77.99999999999999
 11
19
 21
77.40000000000001
  0
DIMENSION
  5
248
100
AcDbEntity
  8
rozmir_zagib
  6
ByLayer
 62
  256
370
   -1
100
AcDbDimension
  2
*D36
 10
1.700004301932466
 20
80.7
 30
0
 11
10.35000215096622
 21
83.45
 31
0
 70
   32
 71
    5
  3
Standard
 53
0
210
0
220
0
230
1
100
AcDbAlignedDimension
 13
19
 23
78
 33
0
 14
1.700004301932466
 24
78.00000000000003
 34
0
100
AcDbRotatedDimension
  0
MTEXT
  5
249
100
AcDbEntity
  8
rozmir_zagib
  6
ByLayer
 62
  256
370
   -1
100
AcDbMText
 10
50
 20
50
 30
0
 40
4
 41
19.33333333333333
 71
    7
 72
    1
  1
L = 122
  7
cyrillic_ii
210
0
220
0
230
1
 50
0
 73
    2
 44
1
  0
MTEXT
  5
24A
100
AcDbEntity
  8
tekst
  6
ByLayer
 62
  256
370
   -1
100
AcDbMText
 10
80
 20
50
 30
0
 40
5
 41
172.6388888888899
 71
    7
 72
    1
  1
   \P  25 ,   %%C12 \P2  , 3   
  7
cyrillic_ii
210
0
220
0
230
1
 50
0
 73
    2
 44
1
  0
CIRCLE
  5
24B
100
AcDbEntity
  8
metal
  6
ByLayer
 62
  256
370
   -1
100
AcDbCircle
 10
1.199999999999989
 20
1.199999999999989
 40
0.4000000000000004
  0
CIRCLE
  5
24C
100
AcDbEntity
  8
metal
  6
ByLayer
 62
  256
370
   -1
100
AcDbCircle
 10
1.199999999999989
 20
21.80000000000001
 40
0.4000000000000021
  0
DIMENSION
  5
24D
100
AcDbEntity
  8
rozmir
  6
ByLayer
 62
  256
370
   -1
100
AcDbDimension
  2
*D37
 10
-10
 20
0
 30
0
 11
-12.75
 21
11.5
 31
0
 70
   32
 71
    5
  3
Standard
 53
0
210
0
220
0
230
1
100
AcDbAlignedDimension
 13
1.699999999999989
 23
23
 33
0
 14
1.699999999999989
 24
0
 34
0
 50
90
100
AcDbRotatedDimension
  0
DIMENSION
  5
24E
100
AcDbEntity
  8
rozmir_zagib
  6
ByLayer
 62
  256
370
   -1
100
AcDbDimension
  2
*D38
 10
-3.100000000000023
 20
1.699999999999989
 30
0
 11
-5.850000000000023
 21
12.30000000000001
 31
0
 70
   32
 71
    5
  3
Standard
 53
0
210
0
220
0
230
1
100
AcDbAlignedDimension
 13
1.599999999999994
 23
23
 33
0
 14
0
 24
1.599999999999994
 34
0
 50
90
100
AcDbRotatedDimension
  0
CIRCLE
  5
24F
100
AcDbEntity
  8
metal
  6
ByLayer
 62
  256
370
   -1
100
AcDbCircle
 10
21.79999999999998
 20
1.199999999999989
 40
0.4000000000000004
  0
DIMENSION
  5
250
100
AcDbEntity
  8
rozmir_zagib
  6
ByLayer
 62
  256
370
   -1
100
AcDbDimension
  2
*D39
 10
12.89999999999998
 20
-6.300000000000011
 30
0
 11
10.69999999999999
 21
-3.550000000000011
 31
0
 70
   32
 71
    5
  3
Standard
 53
0
210
0
220
0
230
1
100
AcDbAlignedDimension
 13
-2.842170943040401e-14
 23
1.699999999999989
 33
0
 14
21.40000000000001
 24
0
 34
0
100
AcDbRotatedDimension
  0
CIRCLE
  5
251
100
AcDbEntity
  8
metal
  6
ByLayer
 62
  256
370
   -1
100
AcDbCircle
 10
21.79999999999998
 20
21.80000000000001
 40
0.4000000000000021
  0
LWPOLYLINE
  5
252
100
AcDbEntity
  8
metal
  6
ByLayer
 62
  256
370
   -1
100
AcDbPolyline
 90
    8
 70
    1
 43
0
 10
21.40000000000002
 20
0.6000000000000014
 42
0.414213562373094
 10
22.39999999999998
 20
1.599999999999994
 10
22.4
 20
21.4
 42
0.4142135623730981
 10
21.40000000000001
 20
22.40000000000001
 10
1.600000000000017
 20
22.40000000000002
 42
0.4142135623730934
 10
0.5999999999999943
 20
21.40000000000001
 10
0.6000000000000154
 20
1.600000000000016
 42
0.4142135623730904
 10
1.599999999999994
 20
0.5999999999999943
  0
LWPOLYLINE
  5
253
100
AcDbEntity
  8
metal
  6
ByLayer
 62
  256
370
   -1
100
AcDbPolyline
 90
    8
 70
    1
 43
0
 10
21.39999999999999
 20
-1.998401444325282e-15
 42
0.4142135623730989
 10
23
 20
1.599999999999994
 10
22.99999999999998
 20
21.39999579281475
 42
0.4142135623730989
 10
21.40000000000001
 20
23
 10
1.600004301932421
 20
22.99999999999999
 42
0.4142135623731001
 10
0
 20
21.40000000000001
 10
-1.354472090042691e-14
 20
1.599999999999973
 42
0.4142135623731003
 10
1.599999999999994
 20
0
  0
LINE
  5
254
100
AcDbEntity
  8
metal
  6
ByLayer
 62
  256
370
   -1
100
AcDbLine
 10
9
 20
23
 11
9
 21
22.40000000000001
  0
LINE
  5
255
100
AcDbEntity
  8
metal
  6
ByLayer
 62
  256
370
   -1
100
AcDbLine
 10
14
 20
23
 11
14
 21
22.40000000000001
  0
DIMENSION
  5
256
100
AcDbEntity
  8
rozmir_zagib
  6
ByLayer
 62
  256
370
   -1
100
AcDbDimension
  2
*D40
 10
1.700004301932466
 20
25.69999999999999
 30
0
 11
7.850002150966247
 21
28.44999999999999
 31
0
 70
   32
 71
    5
  3
Standard
 53
0
210
0
220
0
230
1
100
AcDbAlignedDimension
 13
14
 23
23
 33
0
 14
1.700004301932466
 24
23.00000000000003
 34
0
100
AcDbRotatedDimension
  0
DIMENSION
  5
257
100
AcDbEntity
  8
rozmir_zagib
  6
ByLayer
 62
  256
370
   -1
100
AcDbDimension
  2
*D41
 10
30
 20
9
 30
0
 11
27.25
 21
10.69999999999999
 31
0
 70
   32
 71
    5
  3
Standard
 53
0
210
0
220
0
230
1
100
AcDbAlignedDimension
 13
21.40000000000001
 23
0
 33
0
 14
23
 24
21.40000000000001
 34
0
 50
90
100
AcDbRotatedDimension
  0
DIMENSION
  5
258
100
AcDbEntity
  8
rozmir
  6
ByLayer
 62
  256
370
   -1
100
AcDbDimension
  2
*D42
 10
23
 20
32
 30
0
 11
11.5
 21
34.75
 31
0
 70
   32
 71
    5
  3
Standard
 53
0
210
0
220
0
230
1
100
AcDbAlignedDimension
 13
-2.842170943040401e-14
 23
21.29999982013831
 33
0
 14
23
 24
21.39999610137923
 34
0
100
AcDbRotatedDimension
  0
MTEXT
  5
259
100
AcDbEntity
  8
rozmir_zagib
  6
ByLayer
 62
  256
370
   -1
100
AcDbMText
 10
50
 20
0
 30
0
 40
4
 41
19.33333333333333
 71
    7
 72
    1
  1
L = 122
  7
cyrillic_ii
210
0
220
0
230
1
 50
0
 73
    2
 44
1
  0
MTEXT
  5
25A
100
AcDbEntity
  8
tekst
  6
ByLayer
 62
  256
370
   -1
100
AcDbMText
 10
80
 20
0
 30
0
 40
5
 41
172.6388888888899
 71
    7
 72
    1
  1
  \P  25 ,   %%C12 \P2  , 3   
  7
cyrillic_ii
210
0
220
0
230
1
 50
0
 73
    2
 44
1
  0
MTEXT
  5
25B
100
AcDbEntity
  8
tekst
  6
ByLayer
 62
  256
370
   -1
100
AcDbMText
 10
240
 20
-10
 30
0
 40
4
 41
16.33333333333352
 71
    7
 72
    1
  1
. 7
  7
cyrillic_ii
210
0
220
0
230
1
 50
360
 73
    2
 44
1
  0
MTEXT
  5
25C
100
AcDbEntity
  8
tekst
  6
ByLayer
 62
  256
370
   -1
100
AcDbMText
 10
130
 20
340
 30
0
 40
5
 41
141.9444444444451
 71
    5
 72
    1
  1
    1
  7
cyrillic_ii
210
0
220
0
230
1
 50
0
 73
    2
 44
1
  0
LINE
  5
25D
100
AcDbEntity
  8
tekst
  6
ByLayer
 62
  256
370
   -1
100
AcDbLine
 10
58
 20
336
 11
202
 21
336
  0
ENDSEC
  0
SECTION
  2
OBJECTS
  0
DICTIONARY
  5
C
330
0
100
AcDbDictionary
281
    1
  3
ACAD_GROUP
350
D
  0
DICTIONARY
  5
D
330
C
100
AcDbDictionary
281
    1
  0
ENDSEC
  0
EOF
