999
dxfrw 0.6.3
  0
SECTION
  2
HEADER
  9
$ACADVER
  1
AC1021
  9
$DWGCODEPAGE
  3
ANSI_1252
  9
$INSBASE
 10
0
 20
0
 30
0
  9
$EXTMIN
 10
10000000000
 20
10000000000
 30
0
  9
$EXTMAX
 10
-10000000000
 20
-10000000000
 30
0
  9
$LIMMIN
 10
0
 20
0
  9
$LIMMAX
 10
420
 20
297
  9
$ORTHOMODE
 70
    0
  9
$REGENMODE
 70
    1
  9
$FILLMODE
 70
    1
  9
$QTEXTMODE
 70
    0
  9
$MIRRTEXT
 70
    0
  9
$LTSCALE
 40
1
  9
$ATTMODE
 70
    0
  9
$TEXTSIZE
 40
2.5
  9
$TRACEWID
 40
15.68
  9
$TEXTSTYLE
  7
STANDARD
  9
$CLAYER
  8
lyce
  9
$CELTYPE
  6
BYLAYER
  9
$CECOLOR
 62
  256
  9
$CELTSCALE
 40
1
  9
$DISPSILH
 70
    0
  9
$DIMSCALE
 40
5
  9
$DIMASZ
 40
1
  9
$DIMEXO
 40
0.2
  9
$DIMDLI
 40
3.75
  9
$DIMRND
 40
0
  9
$DIMDLE
 40
0
  9
$DIMEXE
 40
0.5
  9
$DIMTP
 40
0
  9
$DIMTM
 40
0
  9
$DIMTXT
 40
1
  9
$DIMCEN
 40
2.5
  9
$DIMTSZ
 40
0
  9
$DIMTOL
 70
    0
  9
$DIMLIM
 70
    0
  9
$DIMTIH
 70
    0
  9
$DIMTOH
 70
    0
  9
$DIMSE1
 70
    0
  9
$DIMSE2
 70
    0
  9
$DIMTAD
 70
    1
  9
$DIMZIN
 70
    8
  9
$DIMBLK
  1

  9
$DIMASO
 70
    1
  9
$DIMSHO
 70
    1
  9
$DIMPOST
  1

  9
$DIMAPOST
  1

  9
$DIMALT
 70
    0
  9
$DIMALTD
 70
    3
  9
$DIMALTF
 40
0.03937
  9
$DIMLFAC
 40
1
  9
$DIMTOFL
 70
    1
  9
$DIMTVP
 40
0
  9
$DIMTIX
 70
    0
  9
$DIMSOXD
 70
    0
  9
$DIMSAH
 70
    0
  9
$DIMBLK1
  1

  9
$DIMBLK2
  1

  9
$DIMSTYLE
  2
STANDARD
  9
$DIMCLRD
 70
    0
  9
$DIMCLRE
 70
    0
  9
$DIMCLRT
 70
    0
  9
$DIMTFAC
 40
1
  9
$DIMGAP
 40
0.5
  9
$DIMJUST
 70
    0
  9
$DIMSD1
 70
    0
  9
$DIMSD2
 70
    0
  9
$DIMTOLJ
 70
    0
  9
$DIMTZIN
 70
    8
  9
$DIMALTZ
 70
    0
  9
$DIMALTTZ
 70
    0
  9
$DIMUPT
 70
    0
  9
$DIMDEC
 70
    1
  9
$DIMTDEC
 70
    2
  9
$DIMALTU
 70
    2
  9
$DIMALTTD
 70
    3
  9
$DIMTXSTY
  7
standard
  9
$DIMAUNIT
 70
    0
  9
$DIMADEC
 70
    0
  9
$DIMALTRND
 40
0
  9
$DIMAZIN
 70
    0
  9
$DIMDSEP
 70
   44
  9
$DIMATFIT
 70
    3
  9
$DIMFRAC
 70
    0
  9
$DIMLDRBLK
  1
STANDARD
  9
$DIMLUNIT
 70
    2
  9
$DIMLWD
 70
   -2
  9
$DIMLWE
 70
   -2
  9
$DIMTMOVE
 70
    0
  9
$DIMFXL
 40
1
  9
$DIMFXLON
 70
    0
  9
$DIMJOGANG
 40
0.7854
  9
$DIMTFILL
 70
    0
  9
$DIMTFILLCLR
 70
    0
  9
$DIMARCSYM
 70
    0
  9
$DIMLTYPE
  6

  9
$DIMLTEX1
  6

  9
$DIMLTEX2
  6

  9
$LUNITS
 70
    2
  9
$LUPREC
 70
    2
  9
$SKETCHINC
 40
1
  9
$FILLETRAD
 40
0
  9
$AUNITS
 70
    0
  9
$AUPREC
 70
    2
  9
$MENU
  1
.
  9
$ELEVATION
 40
0
  9
$PELEVATION
 40
0
  9
$THICKNESS
 40
0
  9
$LIMCHECK
 70
    0
  9
$CHAMFERA
 40
0
  9
$CHAMFERB
 40
0
  9
$CHAMFERC
 40
0
  9
$CHAMFERD
 40
0
  9
$SKPOLY
 70
    0
  9
$USRTIMER
 70
    1
  9
$ANGBASE
 50
0
  9
$ANGDIR
 70
    0
  9
$PDMODE
 70
   34
  9
$PDSIZE
 40
0
  9
$PLINEWID
 40
0
  9
$SPLFRAME
 70
    0
  9
$SPLINETYPE
 70
    2
  9
$SPLINESEGS
 70
    8
  9
$HANDSEED
  5
20000
  9
$SURFTAB1
 70
    6
  9
$SURFTAB2
 70
    6
  9
$SURFTYPE
 70
    6
  9
$SURFU
 70
    6
  9
$SURFV
 70
    6
  9
$UCSBASE
  2

  9
$UCSNAME
  2

  9
$UCSORG
 10
0
 20
0
 30
0
  9
$UCSXDIR
 10
1
 20
0
 30
0
  9
$UCSYDIR
 10
0
 20
1
 30
0
  9
$UCSORTHOREF
  2

  9
$UCSORTHOVIEW
 70
    0
  9
$UCSORGTOP
 10
0
 20
0
 30
0
  9
$UCSORGBOTTOM
 10
0
 20
0
 30
0
  9
$UCSORGLEFT
 10
0
 20
0
 30
0
  9
$UCSORGRIGHT
 10
0
 20
0
 30
0
  9
$UCSORGFRONT
 10
0
 20
0
 30
0
  9
$UCSORGBACK
 10
0
 20
0
 30
0
  9
$PUCSBASE
  2

  9
$PUCSNAME
  2

  9
$PUCSORG
 10
0
 20
0
 30
0
  9
$PUCSXDIR
 10
1
 20
0
 30
0
  9
$PUCSYDIR
 10
0
 20
1
 30
0
  9
$PUCSORTHOREF
  2

  9
$PUCSORTHOVIEW
 70
    0
  9
$PUCSORGTOP
 10
0
 20
0
 30
0
  9
$PUCSORGBOTTOM
 10
0
 20
0
 30
0
  9
$PUCSORGLEFT
 10
0
 20
0
 30
0
  9
$PUCSORGRIGHT
 10
0
 20
0
 30
0
  9
$PUCSORGFRONT
 10
0
 20
0
 30
0
  9
$PUCSORGBACK
 10
0
 20
0
 30
0
  9
$USERI1
 70
    0
  9
$USERI2
 70
    0
  9
$USERI3
 70
    0
  9
$USERI4
 70
    0
  9
$USERI5
 70
    0
  9
$USERR1
 40
0
  9
$USERR2
 40
0
  9
$USERR3
 40
0
  9
$USERR4
 40
0
  9
$USERR5
 40
0
  9
$WORLDVIEW
 70
    1
  9
$SHADEDGE
 70
    3
  9
$SHADEDIF
 70
   70
  9
$TILEMODE
 70
    1
  9
$MAXACTVP
 70
   64
  9
$PINSBASE
 10
10.32063559322034
 20
4.463983050847458
 30
0
  9
$PLIMCHECK
 70
    0
  9
$PEXTMIN
 10
0
 20
0
 30
0
  9
$PEXTMAX
 10
0
 20
0
 30
0
  9
$GRIDMODE
 70
    1
  9
$SNAPSTYLE
 70
    0
  9
$GRIDUNIT
 10
0
 20
0
  9
$PLIMMIN
 10
0
 20
0
  9
$PLIMMAX
 10
29.7
 20
21
  9
$UNITMODE
 70
    0
  9
$VISRETAIN
 70
    1
  9
$PLINEGEN
 70
    0
  9
$PSLTSCALE
 70
    1
  9
$TREEDEPTH
 70
 3020
  9
$CMLSTYLE
  2
Standard
  9
$CMLJUST
 70
    0
  9
$CMLSCALE
 40
20
  9
$PROXYGRAPHICS
 70
    1
  9
$MEASUREMENT
 70
    1
  9
$CELWEIGHT
370
   -1
  9
$ENDCAPS
280
    0
  9
$JOINSTYLE
280
    0
  9
$LWDISPLAY
290
    0
  9
$INSUNITS
 70
    5
  9
$HYPERLINKBASE
  1

  9
$STYLESHEET
  1

  9
$XEDIT
290
    1
  9
$CEPSNTYPE
380
    0
  9
$PSTYLEMODE
290
    1
  9
$EXTNAMES
290
    1
  9
$PSVPSCALE
 40
0.009406806765375426
  9
$OLESTARTUP
290
    0
  9
$SORTENTS
280
  127
  9
$INDEXCTL
280
    0
  9
$HIDETEXT
280
    1
  9
$XCLIPFRAME
290
    0
  9
$HALOGAP
280
    0
  9
$OBSCOLOR
 70
  257
  9
$OBSLTYPE
280
    0
  9
$INTERSECTIONDISPLAY
280
    0
  9
$INTERSECTIONCOLOR
 70
  257
  9
$DIMASSOC
280
    1
  9
$PROJECTNAME
  1

  9
$CAMERADISPLAY
290
    0
  9
$LENSLENGTH
 40
50
  9
$CAMERAHEIGHT
 40
0
  9
$STEPSPERSEC
 40
2
  9
$STEPSIZE
 40
50
  9
$3DDWFPREC
 40
2
  9
$PSOLWIDTH
 40
5
  9
$PSOLHEIGHT
 40
80
  9
$LOFTANG1
 40
1.570796326794897
  9
$LOFTANG2
 40
1.570796326794897
  9
$LOFTMAG1
 40
0
  9
$LOFTMAG2
 40
0
  9
$LOFTPARAM
 70
    7
  9
$LOFTNORMALS
280
    1
  9
$LATITUDE
 40
1
  9
$LONGITUDE
 40
1
  9
$NORTHDIRECTION
 40
0
  9
$TIMEZONE
 70
-8000
  9
$LIGHTGLYPHDISPLAY
280
    1
  9
$TILEMODELIGHTSYNCH
280
    1
  9
$SOLIDHIST
280
    1
  9
$SHOWHIST
280
    1
  9
$DWFFRAME
280
    2
  9
$DGNFRAME
280
    0
  9
$REALWORLDSCALE
290
    1
  9
$INTERFERECOLOR
 62
    1
  9
$CSHADOW
280
    0
  9
$SHADOWPLANELOCATION
 40
0
  0
ENDSEC
  0
SECTION
  2
CLASSES
  0
ENDSEC
  0
SECTION
  2
TABLES
  0
TABLE
  2
VPORT
  5
8
330
0
100
AcDbSymbolTable
 70
    1
  0
VPORT
  5
31
330
2
100
AcDbSymbolTableRecord
100
AcDbViewportTableRecord
  2
*ACTIVE
 70
    0
 10
0
 20
0
 11
1
 21
1
 12
464.8426105052706
 22
-8.940062445245172
 13
0
 23
0
 14
10
 24
10
 15
10
 25
10
 16
0
 26
0
 36
1
 17
0
 27
0
 37
0
 40
4.876397697406458
 41
1.65
 42
50
 43
0
 44
0
 50
0
 51
0
 71
    0
 72
  100
 73
    1
 74
    3
 75
    0
 76
    1
 77
    0
 78
    0
281
    0
 65
    1
110
0
120
0
130
0
111
1
121
0
131
0
112
0
122
1
132
0
 79
    0
146
0
348
10020
 60
    7
 61
    5
292
1
282
    1
141
0
142
0
 63
  250
421
3358443
  0
ENDTAB
  0
TABLE
  2
LTYPE
  5
5
330
0
100
AcDbSymbolTable
 70
    4
  0
LTYPE
  5
14
330
5
100
AcDbSymbolTableRecord
100
AcDbLinetypeTableRecord
  2
ByBlock
 70
    0
  3

 72
   65
 73
    0
 40
0
  0
LTYPE
  5
15
330
5
100
AcDbSymbolTableRecord
100
AcDbLinetypeTableRecord
  2
ByLayer
 70
    0
  3

 72
   65
 73
    0
 40
0
  0
LTYPE
  5
16
330
5
100
AcDbSymbolTableRecord
100
AcDbLinetypeTableRecord
  2
Continuous
 70
    0
  3
Solid line
 72
   65
 73
    0
 40
0
  0
LTYPE
  5
32
330
5
100
AcDbSymbolTableRecord
100
AcDbLinetypeTableRecord
  2
DOT
 70
    0
  3
Dot . . . . . . . . . . . . . . . . . . . . . .
 72
   65
 73
    2
 40
6.35
 49
0
 74
    0
 49
-6.35
 74
    0
  0
LTYPE
  5
33
330
5
100
AcDbSymbolTableRecord
100
AcDbLinetypeTableRecord
  2
DOTTINY
 70
    0
  3
Dot (.15x) .....................................
 72
   65
 73
    2
 40
0.9525
 49
0
 74
    0
 49
-0.9525
 74
    0
  0
LTYPE
  5
34
330
5
100
AcDbSymbolTableRecord
100
AcDbLinetypeTableRecord
  2
DOT2
 70
    0
  3
Dot (.5x) .....................................
 72
   65
 73
    2
 40
3.175
 49
0
 74
    0
 49
-3.175
 74
    0
  0
LTYPE
  5
35
330
5
100
AcDbSymbolTableRecord
100
AcDbLinetypeTableRecord
  2
DOTX2
 70
    0
  3
Dot (2x) .  .  .  .  .  .  .  .  .  .  .  .  .
 72
   65
 73
    2
 40
12.7
 49
0
 74
    0
 49
-12.7
 74
    0
  0
LTYPE
  5
36
330
5
100
AcDbSymbolTableRecord
100
AcDbLinetypeTableRecord
  2
DASHED
 70
    0
  3
Dashed _ _ _ _ _ _ _ _ _ _ _ _ _ _ _ _ _
 72
   65
 73
    2
 40
19.05
 49
12.7
 74
    0
 49
-6.35
 74
    0
  0
LTYPE
  5
37
330
5
100
AcDbSymbolTableRecord
100
AcDbLinetypeTableRecord
  2
DASHEDTINY
 70
    0
  3
Dashed (.15x) _ _ _ _ _ _ _ _ _ _ _ _ _ _ _ _ _
 72
   65
 73
    2
 40
2.8575
 49
1.905
 74
    0
 49
-0.9525
 74
    0
  0
LTYPE
  5
38
330
5
100
AcDbSymbolTableRecord
100
AcDbLinetypeTableRecord
  2
DASHED2
 70
    0
  3
Dashed (.5x) _ _ _ _ _ _ _ _ _ _ _ _ _ _ _ _ _
 72
   65
 73
    2
 40
9.524999999999999
 49
6.35
 74
    0
 49
-3.175
 74
    0
  0
LTYPE
  5
39
330
5
100
AcDbSymbolTableRecord
100
AcDbLinetypeTableRecord
  2
DASHEDX2
 70
    0
  3
Dashed (2x) ____  ____  ____  ____  ____  ___
 72
   65
 73
    2
 40
38.09999999999999
 49
25.4
 74
    0
 49
-12.7
 74
    0
  0
LTYPE
  5
3A
330
5
100
AcDbSymbolTableRecord
100
AcDbLinetypeTableRecord
  2
DASHDOT
 70
    0
  3
Dash dot __ . __ . __ . __ . __ . __ . __ . __
 72
   65
 73
    4
 40
25.4
 49
12.7
 74
    0
 49
-6.35
 74
    0
 49
0
 74
    0
 49
-6.35
 74
    0
  0
LTYPE
  5
3B
330
5
100
AcDbSymbolTableRecord
100
AcDbLinetypeTableRecord
  2
DASHDOTTINY
 70
    0
  3
Dash dot (.15x) _._._._._._._._._._._._._._._.
 72
   65
 73
    4
 40
3.81
 49
1.905
 74
    0
 49
-0.9525
 74
    0
 49
0
 74
    0
 49
-0.9525
 74
    0
  0
LTYPE
  5
3C
330
5
100
AcDbSymbolTableRecord
100
AcDbLinetypeTableRecord
  2
DASHDOT2
 70
    0
  3
Dash dot (.5x) _._._._._._._._._._._._._._._.
 72
   65
 73
    4
 40
12.7
 49
6.35
 74
    0
 49
-3.175
 74
    0
 49
0
 74
    0
 49
-3.175
 74
    0
  0
LTYPE
  5
3D
330
5
100
AcDbSymbolTableRecord
100
AcDbLinetypeTableRecord
  2
DASHDOTX2
 70
    0
  3
Dash dot (2x) ____  .  ____  .  ____  .  ___
 72
   65
 73
    4
 40
50.8
 49
25.4
 74
    0
 49
-12.7
 74
    0
 49
0
 74
    0
 49
-12.7
 74
    0
  0
LTYPE
  5
3E
330
5
100
AcDbSymbolTableRecord
100
AcDbLinetypeTableRecord
  2
DIVIDE
 70
    0
  3
Divide ____ . . ____ . . ____ . . ____ . . ____
 72
   65
 73
    6
 40
31.75
 49
12.7
 74
    0
 49
-6.35
 74
    0
 49
0
 74
    0
 49
-6.35
 74
    0
 49
0
 74
    0
 49
-6.35
 74
    0
  0
LTYPE
  5
3F
330
5
100
AcDbSymbolTableRecord
100
AcDbLinetypeTableRecord
  2
DIVIDETINY
 70
    0
  3
Divide (.15x) __..__..__..__..__..__..__..__.._
 72
   65
 73
    6
 40
4.7625
 49
1.905
 74
    0
 49
-0.9525
 74
    0
 49
0
 74
    0
 49
-0.9525
 74
    0
 49
0
 74
    0
 49
-0.9525
 74
    0
  0
LTYPE
  5
40
330
5
100
AcDbSymbolTableRecord
100
AcDbLinetypeTableRecord
  2
DIVIDE2
 70
    0
  3
Divide (.5x) __..__..__..__..__..__..__..__.._
 72
   65
 73
    6
 40
15.875
 49
6.35
 74
    0
 49
-3.175
 74
    0
 49
0
 74
    0
 49
-3.175
 74
    0
 49
0
 74
    0
 49
-3.175
 74
    0
  0
LTYPE
  5
41
330
5
100
AcDbSymbolTableRecord
100
AcDbLinetypeTableRecord
  2
DIVIDEX2
 70
    0
  3
Divide (2x) ________  .  .  ________  .  .  _
 72
   65
 73
    6
 40
63.5
 49
25.4
 74
    0
 49
-12.7
 74
    0
 49
0
 74
    0
 49
-12.7
 74
    0
 49
0
 74
    0
 49
-12.7
 74
    0
  0
LTYPE
  5
42
330
5
100
AcDbSymbolTableRecord
100
AcDbLinetypeTableRecord
  2
BORDER
 70
    0
  3
Border __ __ . __ __ . __ __ . __ __ . __ __ .
 72
   65
 73
    6
 40
44.45
 49
12.7
 74
    0
 49
-6.35
 74
    0
 49
12.7
 74
    0
 49
-6.35
 74
    0
 49
0
 74
    0
 49
-6.35
 74
    0
  0
LTYPE
  5
43
330
5
100
AcDbSymbolTableRecord
100
AcDbLinetypeTableRecord
  2
BORDERTINY
 70
    0
  3
Border (.15x) __.__.__.__.__.__.__.__.__.__.__.
 72
   65
 73
    6
 40
6.6675
 49
1.905
 74
    0
 49
-0.9525
 74
    0
 49
1.905
 74
    0
 49
-0.9525
 74
    0
 49
0
 74
    0
 49
-0.9525
 74
    0
  0
LTYPE
  5
44
330
5
100
AcDbSymbolTableRecord
100
AcDbLinetypeTableRecord
  2
BORDER2
 70
    0
  3
Border (.5x) __.__.__.__.__.__.__.__.__.__.__.
 72
   65
 73
    6
 40
22.225
 49
6.35
 74
    0
 49
-3.175
 74
    0
 49
6.35
 74
    0
 49
-3.175
 74
    0
 49
0
 74
    0
 49
-3.175
 74
    0
  0
LTYPE
  5
45
330
5
100
AcDbSymbolTableRecord
100
AcDbLinetypeTableRecord
  2
BORDERX2
 70
    0
  3
Border (2x) ____  ____  .  ____  ____  .  ___
 72
   65
 73
    6
 40
88.89999999999999
 49
25.4
 74
    0
 49
-12.7
 74
    0
 49
25.4
 74
    0
 49
-12.7
 74
    0
 49
0
 74
    0
 49
-12.7
 74
    0
  0
LTYPE
  5
46
330
5
100
AcDbSymbolTableRecord
100
AcDbLinetypeTableRecord
  2
CENTER
 70
    0
  3
Center ____ _ ____ _ ____ _ ____ _ ____ _ ____
 72
   65
 73
    4
 40
50.8
 49
31.75
 74
    0
 49
-6.35
 74
    0
 49
6.35
 74
    0
 49
-6.35
 74
    0
  0
LTYPE
  5
47
330
5
100
AcDbSymbolTableRecord
100
AcDbLinetypeTableRecord
  2
CENTERTINY
 70
    0
  3
Center (.15x) ___ _ ___ _ ___ _ ___ _ ___ _ ___
 72
   65
 73
    4
 40
7.619999999999999
 49
4.7625
 74
    0
 49
-0.9525
 74
    0
 49
0.9525
 74
    0
 49
-0.9525
 74
    0
  0
LTYPE
  5
48
330
5
100
AcDbSymbolTableRecord
100
AcDbLinetypeTableRecord
  2
CENTER2
 70
    0
  3
Center (.5x) ___ _ ___ _ ___ _ ___ _ ___ _ ___
 72
   65
 73
    4
 40
28.575
 49
19.05
 74
    0
 49
-3.175
 74
    0
 49
3.175
 74
    0
 49
-3.175
 74
    0
  0
LTYPE
  5
49
330
5
100
AcDbSymbolTableRecord
100
AcDbLinetypeTableRecord
  2
CENTERX2
 70
    0
  3
Center (2x) ________  __  ________  __  _____
 72
   65
 73
    4
 40
101.6
 49
63.5
 74
    0
 49
-12.7
 74
    0
 49
12.7
 74
    0
 49
-12.7
 74
    0
  0
ENDTAB
  0
TABLE
  2
LAYER
  5
2
330
0
100
AcDbSymbolTable
 70
    1
  0
LAYER
  5
10
330
2
100
AcDbSymbolTableRecord
100
AcDbLayerTableRecord
  2
0
 70
    0
 62
    7
  6
CONTINUOUS
370
   -3
390
F
1001
LibreCad
1070
    1
  0
LAYER
  5
4A
330
2
100
AcDbSymbolTableRecord
100
AcDbLayerTableRecord
  2
dveri
 70
    0
 62
   96
420
32768
  6
CONTINUOUS
370
   25
390
F
  0
LAYER
  5
4B
330
2
100
AcDbSymbolTableRecord
100
AcDbLayerTableRecord
  2
fundament
 70
    0
 62
  136
420
32896
  6
CONTINUOUS
370
   25
390
F
  0
LAYER
  5
4C
330
2
100
AcDbSymbolTableRecord
100
AcDbLayerTableRecord
  2
klei
 70
    0
 62
    5
  6
CONTINUOUS
370
   25
390
F
  0
LAYER
  5
4D
330
2
100
AcDbSymbolTableRecord
100
AcDbLayerTableRecord
  2
lyce
 70
    0
 62
   41
420
16376252
  6
CONTINUOUS
370
   25
390
F
  0
LAYER
  5
4E
330
2
100
AcDbSymbolTableRecord
100
AcDbLayerTableRecord
  2
pisok
 70
    0
 62
  176
420
  128
  6
CONTINUOUS
370
   25
390
F
  0
LAYER
  5
4F
330
2
100
AcDbSymbolTableRecord
100
AcDbLayerTableRecord
  2
plytka3
 70
    0
 62
    2
  6
CONTINUOUS
370
   25
390
F
  0
LAYER
  5
50
330
2
100
AcDbSymbolTableRecord
100
AcDbLayerTableRecord
  2
plytka6
 70
    0
 62
   56
420
8421376
  6
CONTINUOUS
370
   25
390
F
  0
LAYER
  5
51
330
2
100
AcDbSymbolTableRecord
100
AcDbLayerTableRecord
  2
rozmir
 70
    0
 62
    4
  6
CONTINUOUS
370
   13
390
F
  0
LAYER
  5
52
330
2
100
AcDbSymbolTableRecord
100
AcDbLayerTableRecord
  2
skhody
 70
    0
 62
    8
  6
CONTINUOUS
370
   25
390
F
  0
LAYER
  5
53
330
2
100
AcDbSymbolTableRecord
100
AcDbLayerTableRecord
  2
sterodur
 70
    0
 62
    3
  6
CONTINUOUS
370
   25
390
F
  0
LAYER
  5
54
330
2
100
AcDbSymbolTableRecord
100
AcDbLayerTableRecord
  2
tekst
 70
    0
 62
  136
420
32896
  6
CONTINUOUS
370
   13
390
F
  0
ENDTAB
  0
TABLE
  2
STYLE
  5
3
330
0
100
AcDbSymbolTable
 70
    3
  0
STYLE
  5
55
330
2
100
AcDbSymbolTableRecord
100
AcDbTextStyleTableRecord
  2
cyrillic_ii
 70
    0
 40
0
 41
1
 50
0
 71
    0
 42
1
  3
cyrillic_ii
  4

  0
STYLE
  5
56
330
2
100
AcDbSymbolTableRecord
100
AcDbTextStyleTableRecord
  2
Standard
 70
    0
 40
0
 41
1
 50
0
 71
    0
 42
1
  3
txt
  4

  0
ENDTAB
  0
TABLE
  2
VIEW
  5
6
330
0
100
AcDbSymbolTable
 70
    0
  0
ENDTAB
  0
TABLE
  2
UCS
  5
7
330
0
100
AcDbSymbolTable
 70
    0
  0
ENDTAB
  0
TABLE
  2
APPID
  5
9
330
0
100
AcDbSymbolTable
 70
    1
  0
APPID
  5
12
330
9
100
AcDbSymbolTableRecord
100
AcDbRegAppTableRecord
  2
ACAD
 70
    0
  0
APPID
  5
57
330
9
100
AcDbSymbolTableRecord
100
AcDbRegAppTableRecord
  2
LibreCad
 70
    0
  0
ENDTAB
  0
TABLE
  2
DIMSTYLE
  5
A
330
0
100
AcDbSymbolTable
 70
    1
100
AcDbDimStyleTable
 71
    1
  0
DIMSTYLE
105
58
330
A
100
AcDbSymbolTableRecord
100
AcDbDimStyleTableRecord
  2
Standard
 70
    0
 40
5
 41
1
 42
0.2
 43
0.38
 44
0.5
 45
0
 46
0
 47
0
 48
0
 49
1
140
1
141
0.09
142
0
143
25.4
144
1
145
0
146
1
147
0.5
148
0
 71
    0
 72
    0
 73
    0
 74
    1
 75
    0
 76
    0
 77
    0
 78
    8
 79
    0
170
    0
171
    2
172
    0
173
    0
174
    0
175
    0
176
    0
177
    0
178
    0
179
    0
271
    1
272
    4
273
    2
274
    2
275
    0
276
    0
277
    2
278
   44
279
    0
280
    0
281
    0
282
    0
283
    1
284
    0
285
    0
286
    0
288
    0
289
    3
340
standard
341

371
   -2
372
   -2
  0
ENDTAB
  0
TABLE
  2
BLOCK_RECORD
  5
1
330
0
100
AcDbSymbolTable
 70
    2
  0
BLOCK_RECORD
  5
1F
330
1
100
AcDbSymbolTableRecord
100
AcDbBlockTableRecord
  2
*Model_Space
 70
    0
280
    1
281
    0
  0
BLOCK_RECORD
  5
1E
330
1
100
AcDbSymbolTableRecord
100
AcDbBlockTableRecord
  2
*Paper_Space
 70
    0
280
    1
281
    0
  0
BLOCK_RECORD
  5
59
330
1
100
AcDbSymbolTableRecord
100
AcDbBlockTableRecord
  2
*D17
 70
    0
280
    1
281
    0
  0
BLOCK_RECORD
  5
5C
330
1
100
AcDbSymbolTableRecord
100
AcDbBlockTableRecord
  2
*D29
 70
    0
280
    1
281
    0
  0
BLOCK_RECORD
  5
5F
330
1
100
AcDbSymbolTableRecord
100
AcDbBlockTableRecord
  2
*D33
 70
    0
280
    1
281
    0
  0
BLOCK_RECORD
  5
62
330
1
100
AcDbSymbolTableRecord
100
AcDbBlockTableRecord
  2
*D14
 70
    0
280
    1
281
    0
  0
BLOCK_RECORD
  5
65
330
1
100
AcDbSymbolTableRecord
100
AcDbBlockTableRecord
  2
*D37
 70
    0
280
    1
281
    0
  0
BLOCK_RECORD
  5
68
330
1
100
AcDbSymbolTableRecord
100
AcDbBlockTableRecord
  2
*D20
 70
    0
280
    1
281
    0
  0
BLOCK_RECORD
  5
6B
330
1
100
AcDbSymbolTableRecord
100
AcDbBlockTableRecord
  2
*D16
 70
    0
280
    1
281
    0
  0
BLOCK_RECORD
  5
6E
330
1
100
AcDbSymbolTableRecord
100
AcDbBlockTableRecord
  2
*D36
 70
    0
280
    1
281
    0
  0
BLOCK_RECORD
  5
71
330
1
100
AcDbSymbolTableRecord
100
AcDbBlockTableRecord
  2
*D26
 70
    0
280
    1
281
    0
  0
BLOCK_RECORD
  5
74
330
1
100
AcDbSymbolTableRecord
100
AcDbBlockTableRecord
  2
*D9
 70
    0
280
    1
281
    0
  0
BLOCK_RECORD
  5
77
330
1
100
AcDbSymbolTableRecord
100
AcDbBlockTableRecord
  2
*D32
 70
    0
280
    1
281
    0
  0
BLOCK_RECORD
  5
7A
330
1
100
AcDbSymbolTableRecord
100
AcDbBlockTableRecord
  2
*D30
 70
    0
280
    1
281
    0
  0
BLOCK_RECORD
  5
7D
330
1
100
AcDbSymbolTableRecord
100
AcDbBlockTableRecord
  2
*D11
 70
    0
280
    1
281
    0
  0
BLOCK_RECORD
  5
80
330
1
100
AcDbSymbolTableRecord
100
AcDbBlockTableRecord
  2
*D31
 70
    0
280
    1
281
    0
  0
BLOCK_RECORD
  5
83
330
1
100
AcDbSymbolTableRecord
100
AcDbBlockTableRecord
  2
*D34
 70
    0
280
    1
281
    0
  0
BLOCK_RECORD
  5
86
330
1
100
AcDbSymbolTableRecord
100
AcDbBlockTableRecord
  2
*D38
 70
    0
280
    1
281
    0
  0
BLOCK_RECORD
  5
89
330
1
100
AcDbSymbolTableRecord
100
AcDbBlockTableRecord
  2
*D27
 70
    0
280
    1
281
    0
  0
BLOCK_RECORD
  5
8C
330
1
100
AcDbSymbolTableRecord
100
AcDbBlockTableRecord
  2
*D5
 70
    0
280
    1
281
    0
  0
BLOCK_RECORD
  5
8F
330
1
100
AcDbSymbolTableRecord
100
AcDbBlockTableRecord
  2
*D1
 70
    0
280
    1
281
    0
  0
BLOCK_RECORD
  5
92
330
1
100
AcDbSymbolTableRecord
100
AcDbBlockTableRecord
  2
*D39
 70
    0
280
    1
281
    0
  0
BLOCK_RECORD
  5
95
330
1
100
AcDbSymbolTableRecord
100
AcDbBlockTableRecord
  2
*D4
 70
    0
280
    1
281
    0
  0
BLOCK_RECORD
  5
98
330
1
100
AcDbSymbolTableRecord
100
AcDbBlockTableRecord
  2
*D21
 70
    0
280
    1
281
    0
  0
BLOCK_RECORD
  5
9B
330
1
100
AcDbSymbolTableRecord
100
AcDbBlockTableRecord
  2
*D24
 70
    0
280
    1
281
    0
  0
BLOCK_RECORD
  5
9E
330
1
100
AcDbSymbolTableRecord
100
AcDbBlockTableRecord
  2
*D10
 70
    0
280
    1
281
    0
  0
BLOCK_RECORD
  5
A1
330
1
100
AcDbSymbolTableRecord
100
AcDbBlockTableRecord
  2
*D8
 70
    0
280
    1
281
    0
  0
BLOCK_RECORD
  5
A4
330
1
100
AcDbSymbolTableRecord
100
AcDbBlockTableRecord
  2
*D22
 70
    0
280
    1
281
    0
  0
BLOCK_RECORD
  5
A7
330
1
100
AcDbSymbolTableRecord
100
AcDbBlockTableRecord
  2
*D13
 70
    0
280
    1
281
    0
  0
BLOCK_RECORD
  5
AA
330
1
100
AcDbSymbolTableRecord
100
AcDbBlockTableRecord
  2
*D25
 70
    0
280
    1
281
    0
  0
BLOCK_RECORD
  5
AD
330
1
100
AcDbSymbolTableRecord
100
AcDbBlockTableRecord
  2
*D19
 70
    0
280
    1
281
    0
  0
BLOCK_RECORD
  5
B0
330
1
100
AcDbSymbolTableRecord
100
AcDbBlockTableRecord
  2
*D3
 70
    0
280
    1
281
    0
  0
BLOCK_RECORD
  5
B3
330
1
100
AcDbSymbolTableRecord
100
AcDbBlockTableRecord
  2
*D28
 70
    0
280
    1
281
    0
  0
BLOCK_RECORD
  5
B6
330
1
100
AcDbSymbolTableRecord
100
AcDbBlockTableRecord
  2
*D2
 70
    0
280
    1
281
    0
  0
BLOCK_RECORD
  5
B9
330
1
100
AcDbSymbolTableRecord
100
AcDbBlockTableRecord
  2
*D15
 70
    0
280
    1
281
    0
  0
BLOCK_RECORD
  5
BC
330
1
100
AcDbSymbolTableRecord
100
AcDbBlockTableRecord
  2
*D12
 70
    0
280
    1
281
    0
  0
BLOCK_RECORD
  5
BF
330
1
100
AcDbSymbolTableRecord
100
AcDbBlockTableRecord
  2
*D18
 70
    0
280
    1
281
    0
  0
BLOCK_RECORD
  5
C2
330
1
100
AcDbSymbolTableRecord
100
AcDbBlockTableRecord
  2
*D23
 70
    0
280
    1
281
    0
  0
BLOCK_RECORD
  5
C5
330
1
100
AcDbSymbolTableRecord
100
AcDbBlockTableRecord
  2
*D6
 70
    0
280
    1
281
    0
  0
BLOCK_RECORD
  5
C8
330
1
100
AcDbSymbolTableRecord
100
AcDbBlockTableRecord
  2
*D7
 70
    0
280
    1
281
    0
  0
BLOCK_RECORD
  5
CB
330
1
100
AcDbSymbolTableRecord
100
AcDbBlockTableRecord
  2
*D35
 70
    0
280
    1
281
    0
  0
BLOCK_RECORD
  5
CE
330
1
100
AcDbSymbolTableRecord
100
AcDbBlockTableRecord
  2
block10
 70
    0
280
    1
281
    0
  0
ENDTAB
  0
ENDSEC
  0
SECTION
  2
BLOCKS
  0
BLOCK
  5
20
330
1F
100
AcDbEntity
  8
0
100
AcDbBlockBegin
  2
*Model_Space
 70
    0
 10
0
 20
0
 30
0
  3
*Model_Space
  1

  0
ENDBLK
  5
21
330
1F
100
AcDbEntity
  8
0
100
AcDbBlockEnd
  0
BLOCK
  5
1C
330
1B
100
AcDbEntity
  8
0
100
AcDbBlockBegin
  2
*Paper_Space
 70
    0
 10
0
 20
0
 30
0
  3
*Paper_Space
  1

  0
ENDBLK
  5
1D
330
1F
100
AcDbEntity
  8
0
100
AcDbBlockEnd
  0
BLOCK
  5
5A
330
59
100
AcDbEntity
  8
0
100
AcDbBlockBegin
  2
*D17
 70
    1
 10
0
 20
0
  3
*D17
  1

  0
LINE
  5
D1
100
AcDbEntity
  8
rozmir
  6
ByBlock
 62
    0
370
   -2
100
AcDbLine
 10
774
 20
-60.00000000000002
 11
604
 21
-60
  0
SOLID
  5
D2
100
AcDbEntity
  8
rozmir
  6
ByBlock
 62
    0
370
   -2
100
AcDbTrace
 10
774
 20
-60.00000000000002
 30
0
 11
769
 21
-60.8325693155457
 31
0
 12
769
 22
-59.16743068445434
 32
0
 13
769
 23
-59.16743068445434
 33
0
  0
SOLID
  5
D3
100
AcDbEntity
  8
rozmir
  6
ByBlock
 62
    0
370
   -2
100
AcDbTrace
 10
604
 20
-60
 30
0
 11
609
 21
-59.16743068445432
 31
0
 12
609
 22
-60.83256931554568
 32
0
 13
609
 23
-60.83256931554568
 33
0
  0
MTEXT
  5
D4
100
AcDbEntity
  8
rozmir
  6
CONTINUOUS
 62
    0
370
   -2
100
AcDbMText
 10
689
 20
-55
 30
0
 40
5
 41
8.888888888888889
 71
    5
 72
    1
  1
170
  7
standard
210
0
220
0
230
1
 50
360
 73
    2
 44
1
  0
LINE
  5
D5
100
AcDbEntity
  8
rozmir
  6
ByBlock
 62
    0
370
   -2
100
AcDbLine
 10
774
 20
-111
 11
774
 21
-57.50000000000002
  0
LINE
  5
D6
100
AcDbEntity
  8
rozmir
  6
ByBlock
 62
    0
370
   -2
100
AcDbLine
 10
604
 20
-111
 11
604
 21
-57.5
  0
ENDBLK
  5
5B
330
59
100
AcDbEntity
  8
0
100
AcDbBlockEnd
  0
BLOCK
  5
5D
330
5C
100
AcDbEntity
  8
0
100
AcDbBlockBegin
  2
*D29
 70
    1
 10
0
 20
0
  3
*D29
  1

  0
LINE
  5
D7
100
AcDbEntity
  8
tekst
  6
CONTINUOUS
 62
    7
370
    0
100
AcDbLine
 10
1011
 20
1.999999999999998
 11
1046
 21
40
  0
LINE
  5
D8
100
AcDbEntity
  8
tekst
  6
CONTINUOUS
 62
    7
370
    0
100
AcDbLine
 10
1046
 20
40
 11
1056
 21
40
  0
SOLID
  5
D9
100
AcDbEntity
  8
tekst
  6
CONTINUOUS
 62
    7
370
    0
100
AcDbTrace
 10
1011
 20
1.999999999999998
 30
0
 11
1013.774986489004
 21
6.241771051227923
 31
0
 12
1014.999771058514
 22
5.113680000362939
 32
0
 13
1014.999771058514
 23
5.113680000362939
 33
0
  0
ENDBLK
  5
5E
330
5C
100
AcDbEntity
  8
0
100
AcDbBlockEnd
  0
BLOCK
  5
60
330
5F
100
AcDbEntity
  8
0
100
AcDbBlockBegin
  2
*D33
 70
    1
 10
0
 20
0
  3
*D33
  1

  0
LINE
  5
DA
100
AcDbEntity
  8
rozmir
  6
ByBlock
 62
    0
370
   -2
100
AcDbLine
 10
958
 20
49.99999999999999
 11
910
 21
50
  0
SOLID
  5
DB
100
AcDbEntity
  8
rozmir
  6
ByBlock
 62
    0
370
   -2
100
AcDbTrace
 10
958
 20
49.99999999999999
 30
0
 11
953
 21
49.16743068445431
 31
0
 12
953
 22
50.83256931554568
 32
0
 13
953
 23
50.83256931554568
 33
0
  0
SOLID
  5
DC
100
AcDbEntity
  8
rozmir
  6
ByBlock
 62
    0
370
   -2
100
AcDbTrace
 10
910
 20
50
 30
0
 11
915
 21
50.83256931554568
 31
0
 12
915
 22
49.16743068445432
 32
0
 13
915
 23
49.16743068445432
 33
0
  0
MTEXT
  5
DD
100
AcDbEntity
  8
rozmir
  6
CONTINUOUS
 62
    0
370
   -2
100
AcDbMText
 10
934
 20
55
 30
0
 40
5
 41
6.666666666666667
 71
    5
 72
    1
  1
48
  7
standard
210
0
220
0
230
1
 50
360
 73
    2
 44
1
  0
LINE
  5
DE
100
AcDbEntity
  8
rozmir
  6
ByBlock
 62
    0
370
   -2
100
AcDbLine
 10
958
 20
49
 11
958
 21
52.49999999999999
  0
LINE
  5
DF
100
AcDbEntity
  8
rozmir
  6
ByBlock
 62
    0
370
   -2
100
AcDbLine
 10
910
 20
49
 11
910
 21
52.5
  0
ENDBLK
  5
61
330
5F
100
AcDbEntity
  8
0
100
AcDbBlockEnd
  0
BLOCK
  5
63
330
62
100
AcDbEntity
  8
0
100
AcDbBlockBegin
  2
*D14
 70
    1
 10
0
 20
0
  3
*D14
  1

  0
LINE
  5
E0
100
AcDbEntity
  8
rozmir
  6
ByBlock
 62
    0
370
   -2
100
AcDbLine
 10
681
 20
-90
 11
650
 21
-90
  0
SOLID
  5
E1
100
AcDbEntity
  8
rozmir
  6
ByBlock
 62
    0
370
   -2
100
AcDbTrace
 10
671
 20
-90
 30
0
 11
676
 21
-89.16743068445432
 31
0
 12
676
 22
-90.83256931554568
 32
0
 13
676
 23
-90.83256931554568
 33
0
  0
SOLID
  5
E2
100
AcDbEntity
  8
rozmir
  6
ByBlock
 62
    0
370
   -2
100
AcDbTrace
 10
660
 20
-90
 30
0
 11
655
 21
-90.83256931554568
 31
0
 12
655
 22
-89.16743068445432
 32
0
 13
655
 23
-89.16743068445432
 33
0
  0
MTEXT
  5
E3
100
AcDbEntity
  8
rozmir
  6
CONTINUOUS
 62
    0
370
   -2
100
AcDbMText
 10
665.5
 20
-85
 30
0
 40
5
 41
3.888888888888889
 71
    5
 72
    1
  1
11
  7
standard
210
0
220
0
230
1
 50
360
 73
    2
 44
1
  0
LINE
  5
E4
100
AcDbEntity
  8
rozmir
  6
ByBlock
 62
    0
370
   -2
100
AcDbLine
 10
671
 20
-111
 11
671
 21
-87.5
  0
LINE
  5
E5
100
AcDbEntity
  8
rozmir
  6
ByBlock
 62
    0
370
   -2
100
AcDbLine
 10
660
 20
-111
 11
660
 21
-87.5
  0
ENDBLK
  5
64
330
62
100
AcDbEntity
  8
0
100
AcDbBlockEnd
  0
BLOCK
  5
66
330
65
100
AcDbEntity
  8
0
100
AcDbBlockBegin
  2
*D37
 70
    1
 10
0
 20
0
  3
*D37
  1

  0
LINE
  5
E6
100
AcDbEntity
  8
tekst
  6
CONTINUOUS
 62
    7
370
    0
100
AcDbLine
 10
906.0901623236047
 20
51.252983426903
 11
886
 21
70
  0
LINE
  5
E7
100
AcDbEntity
  8
tekst
  6
CONTINUOUS
 62
    7
370
    0
100
AcDbLine
 10
886
 20
70
 11
876
 21
70
  0
SOLID
  5
E8
100
AcDbEntity
  8
tekst
  6
CONTINUOUS
 62
    7
370
    0
100
AcDbTrace
 10
906.0901623236047
 20
51.252983426903
 30
0
 11
901.866525275639
 21
54.05549332915847
 31
0
 12
903.0025566283673
 22
55.27291660245783
 32
0
 13
903.0025566283673
 23
55.27291660245783
 33
0
  0
ENDBLK
  5
67
330
65
100
AcDbEntity
  8
0
100
AcDbBlockEnd
  0
BLOCK
  5
69
330
68
100
AcDbEntity
  8
0
100
AcDbBlockBegin
  2
*D20
 70
    1
 10
0
 20
0
  3
*D20
  1

  0
LINE
  5
E9
100
AcDbEntity
  8
rozmir
  6
ByBlock
 62
    0
370
   -2
100
AcDbLine
 10
778
 20
-250
 11
600
 21
-250
  0
SOLID
  5
EA
100
AcDbEntity
  8
rozmir
  6
ByBlock
 62
    0
370
   -2
100
AcDbTrace
 10
778
 20
-250
 30
0
 11
773
 21
-250.8325693155457
 31
0
 12
773
 22
-249.1674306844543
 32
0
 13
773
 23
-249.1674306844543
 33
0
  0
SOLID
  5
EB
100
AcDbEntity
  8
rozmir
  6
ByBlock
 62
    0
370
   -2
100
AcDbTrace
 10
600
 20
-250
 30
0
 11
605
 21
-249.1674306844543
 31
0
 12
605
 22
-250.8325693155457
 32
0
 13
605
 23
-250.8325693155457
 33
0
  0
MTEXT
  5
EC
100
AcDbEntity
  8
rozmir
  6
CONTINUOUS
 62
    0
370
   -2
100
AcDbMText
 10
689
 20
-245
 30
0
 40
5
 41
8.888888888888889
 71
    5
 72
    1
  1
178
  7
standard
210
0
220
0
230
1
 50
360
 73
    2
 44
1
  0
LINE
  5
ED
100
AcDbEntity
  8
rozmir
  6
ByBlock
 62
    0
370
   -2
100
AcDbLine
 10
778
 20
-205
 11
778
 21
-252.5
  0
LINE
  5
EE
100
AcDbEntity
  8
rozmir
  6
ByBlock
 62
    0
370
   -2
100
AcDbLine
 10
600
 20
-205
 11
600
 21
-252.5
  0
ENDBLK
  5
6A
330
68
100
AcDbEntity
  8
0
100
AcDbBlockEnd
  0
BLOCK
  5
6C
330
6B
100
AcDbEntity
  8
0
100
AcDbBlockBegin
  2
*D16
 70
    1
 10
0
 20
0
  3
*D16
  1

  0
LINE
  5
EF
100
AcDbEntity
  8
rozmir
  6
ByBlock
 62
    0
370
   -2
100
AcDbLine
 10
774
 20
-70.00000000000001
 11
632
 21
-70
  0
SOLID
  5
F0
100
AcDbEntity
  8
rozmir
  6
ByBlock
 62
    0
370
   -2
100
AcDbTrace
 10
774
 20
-70.00000000000001
 30
0
 11
769
 21
-70.8325693155457
 31
0
 12
769
 22
-69.16743068445433
 32
0
 13
769
 23
-69.16743068445433
 33
0
  0
SOLID
  5
F1
100
AcDbEntity
  8
rozmir
  6
ByBlock
 62
    0
370
   -2
100
AcDbTrace
 10
632
 20
-70
 30
0
 11
637
 21
-69.16743068445432
 31
0
 12
637
 22
-70.83256931554568
 32
0
 13
637
 23
-70.83256931554568
 33
0
  0
MTEXT
  5
F2
100
AcDbEntity
  8
rozmir
  6
CONTINUOUS
 62
    0
370
   -2
100
AcDbMText
 10
703
 20
-65
 30
0
 40
5
 41
9.444444444444445
 71
    5
 72
    1
  1
142
  7
standard
210
0
220
0
230
1
 50
360
 73
    2
 44
1
  0
LINE
  5
F3
100
AcDbEntity
  8
rozmir
  6
ByBlock
 62
    0
370
   -2
100
AcDbLine
 10
774
 20
-111
 11
774
 21
-67.50000000000001
  0
LINE
  5
F4
100
AcDbEntity
  8
rozmir
  6
ByBlock
 62
    0
370
   -2
100
AcDbLine
 10
632
 20
-111
 11
632
 21
-67.5
  0
ENDBLK
  5
6D
330
6B
100
AcDbEntity
  8
0
100
AcDbBlockEnd
  0
BLOCK
  5
6F
330
6E
100
AcDbEntity
  8
0
100
AcDbBlockBegin
  2
*D36
 70
    1
 10
0
 20
0
  3
*D36
  1

  0
LINE
  5
F5
100
AcDbEntity
  8
rozmir
  6
ByBlock
 62
    0
370
   -2
100
AcDbLine
 10
1014
 20
39.99999999999999
 11
986
 21
40
  0
SOLID
  5
F6
100
AcDbEntity
  8
rozmir
  6
ByBlock
 62
    0
370
   -2
100
AcDbTrace
 10
1014
 20
39.99999999999999
 30
0
 11
1009
 21
39.16743068445432
 31
0
 12
1009
 22
40.83256931554568
 32
0
 13
1009
 23
40.83256931554568
 33
0
  0
SOLID
  5
F7
100
AcDbEntity
  8
rozmir
  6
ByBlock
 62
    0
370
   -2
100
AcDbTrace
 10
986
 20
40
 30
0
 11
991
 21
40.83256931554568
 31
0
 12
991
 22
39.16743068445432
 32
0
 13
991
 23
39.16743068445432
 33
0
  0
MTEXT
  5
F8
100
AcDbEntity
  8
rozmir
  6
CONTINUOUS
 62
    0
370
   -2
100
AcDbMText
 10
1000
 20
45
 30
0
 40
5
 41
6.111111111111112
 71
    5
 72
    1
  1
28
  7
standard
210
0
220
0
230
1
 50
360
 73
    2
 44
1
  0
LINE
  5
F9
100
AcDbEntity
  8
rozmir
  6
ByBlock
 62
    0
370
   -2
100
AcDbLine
 10
1014
 20
17.00000000000002
 11
1014
 21
42.49999999999999
  0
LINE
  5
FA
100
AcDbEntity
  8
rozmir
  6
ByBlock
 62
    0
370
   -2
100
AcDbLine
 10
986
 20
33
 11
986
 21
42.5
  0
ENDBLK
  5
70
330
6E
100
AcDbEntity
  8
0
100
AcDbBlockEnd
  0
BLOCK
  5
72
330
71
100
AcDbEntity
  8
0
100
AcDbBlockBegin
  2
*D26
 70
    1
 10
0
 20
0
  3
*D26
  1

  0
LINE
  5
FB
100
AcDbEntity
  8
rozmir
  6
ByBlock
 62
    0
370
   -2
100
AcDbLine
 10
578
 20
-127
 11
578
 21
-102
  0
SOLID
  5
FC
100
AcDbEntity
  8
rozmir
  6
ByBlock
 62
    0
370
   -2
100
AcDbTrace
 10
578
 20
-117
 30
0
 11
578.8325693155457
 21
-122
 31
0
 12
577.1674306844543
 22
-122
 32
0
 13
577.1674306844543
 23
-122
 33
0
  0
SOLID
  5
FD
100
AcDbEntity
  8
rozmir
  6
ByBlock
 62
    0
370
   -2
100
AcDbTrace
 10
578
 20
-112
 30
0
 11
577.1674306844543
 21
-107
 31
0
 12
578.8325693155457
 22
-107
 32
0
 13
578.8325693155457
 23
-107
 33
0
  0
MTEXT
  5
FE
100
AcDbEntity
  8
rozmir
  6
CONTINUOUS
 62
    0
370
   -2
100
AcDbMText
 10
583
 20
-114.5
 30
0
 40
5
 41
2.222222222222532
 71
    5
 72
    1
  1
5
  7
standard
210
0
220
0
230
1
 50
90
 73
    2
 44
1
  0
LINE
  5
FF
100
AcDbEntity
  8
rozmir
  6
ByBlock
 62
    0
370
   -2
100
AcDbLine
 10
588
 20
-117
 11
575.5
 21
-117
  0
LINE
  5
100
100
AcDbEntity
  8
rozmir
  6
ByBlock
 62
    0
370
   -2
100
AcDbLine
 10
589
 20
-112
 11
575.5
 21
-112
  0
ENDBLK
  5
73
330
71
100
AcDbEntity
  8
0
100
AcDbBlockEnd
  0
BLOCK
  5
75
330
74
100
AcDbEntity
  8
0
100
AcDbBlockBegin
  2
*D9
 70
    1
 10
0
 20
0
  3
*D9
  1

  0
LINE
  5
101
100
AcDbEntity
  8
rozmir
  6
ByBlock
 62
    0
370
   -2
100
AcDbLine
 10
568
 20
-176
 11
568
 21
-204
  0
SOLID
  5
102
100
AcDbEntity
  8
rozmir
  6
ByBlock
 62
    0
370
   -2
100
AcDbTrace
 10
568
 20
-176
 30
0
 11
568.8325693155457
 21
-181
 31
0
 12
567.1674306844543
 22
-181
 32
0
 13
567.1674306844543
 23
-181
 33
0
  0
SOLID
  5
103
100
AcDbEntity
  8
rozmir
  6
ByBlock
 62
    0
370
   -2
100
AcDbTrace
 10
568
 20
-204
 30
0
 11
567.1674306844543
 21
-199
 31
0
 12
568.8325693155457
 22
-199
 32
0
 13
568.8325693155457
 23
-199
 33
0
  0
MTEXT
  5
104
100
AcDbEntity
  8
rozmir
  6
CONTINUOUS
 62
    0
370
   -2
100
AcDbMText
 10
573
 20
-190
 30
0
 40
5
 41
6.111111111111112
 71
    5
 72
    1
  1
28
  7
standard
210
0
220
0
230
1
 50
90
 73
    2
 44
1
  0
LINE
  5
105
100
AcDbEntity
  8
rozmir
  6
ByBlock
 62
    0
370
   -2
100
AcDbLine
 10
627
 20
-176
 11
565.5
 21
-176
  0
LINE
  5
106
100
AcDbEntity
  8
rozmir
  6
ByBlock
 62
    0
370
   -2
100
AcDbLine
 10
599
 20
-204
 11
565.5
 21
-204
  0
ENDBLK
  5
76
330
74
100
AcDbEntity
  8
0
100
AcDbBlockEnd
  0
BLOCK
  5
78
330
77
100
AcDbEntity
  8
0
100
AcDbBlockBegin
  2
*D32
 70
    1
 10
0
 20
0
  3
*D32
  1

  0
LINE
  5
107
100
AcDbEntity
  8
tekst
  6
CONTINUOUS
 62
    7
370
    0
100
AcDbLine
 10
1036
 20
-9.000000000000002
 11
1046
 21
9.999999999999998
  0
LINE
  5
108
100
AcDbEntity
  8
tekst
  6
CONTINUOUS
 62
    7
370
    0
100
AcDbLine
 10
1046
 20
9.999999999999998
 11
1056
 21
9.999999999999998
  0
SOLID
  5
109
100
AcDbEntity
  8
tekst
  6
CONTINUOUS
 62
    7
370
    0
100
AcDbTrace
 10
1036
 20
-9.000000000000002
 30
0
 11
1037.591976405441
 21
-4.187642699288792
 31
0
 12
1039.065487922885
 22
-4.96317507689139
 32
0
 13
1039.065487922885
 23
-4.96317507689139
 33
0
  0
ENDBLK
  5
79
330
77
100
AcDbEntity
  8
0
100
AcDbBlockEnd
  0
BLOCK
  5
7B
330
7A
100
AcDbEntity
  8
0
100
AcDbBlockBegin
  2
*D30
 70
    1
 10
0
 20
0
  3
*D30
  1

  0
LINE
  5
10A
100
AcDbEntity
  8
tekst
  6
CONTINUOUS
 62
    7
370
    0
100
AcDbLine
 10
926
 20
-1.77635683940025e-15
 11
886
 21
9.999999999999998
  0
LINE
  5
10B
100
AcDbEntity
  8
tekst
  6
CONTINUOUS
 62
    7
370
    0
100
AcDbLine
 10
886
 20
9.999999999999998
 11
876
 21
9.999999999999998
  0
SOLID
  5
10C
100
AcDbEntity
  8
tekst
  6
CONTINUOUS
 62
    7
370
    0
100
AcDbTrace
 10
926
 20
-1.77635683940025e-15
 30
0
 11
920.9473597799414
 21
0.40496724785389
 31
0
 12
921.3512152186053
 22
2.020389002509439
 32
0
 13
921.3512152186053
 23
2.020389002509439
 33
0
  0
ENDBLK
  5
7C
330
7A
100
AcDbEntity
  8
0
100
AcDbBlockEnd
  0
BLOCK
  5
7E
330
7D
100
AcDbEntity
  8
0
100
AcDbBlockBegin
  2
*D11
 70
    1
 10
0
 20
0
  3
*D11
  1

  0
LINE
  5
10D
100
AcDbEntity
  8
rozmir
  6
ByBlock
 62
    0
370
   -2
100
AcDbLine
 10
808
 20
-144
 11
808
 21
-172
  0
SOLID
  5
10E
100
AcDbEntity
  8
rozmir
  6
ByBlock
 62
    0
370
   -2
100
AcDbTrace
 10
808
 20
-144
 30
0
 11
808.8325693155457
 21
-149
 31
0
 12
807.1674306844543
 22
-149
 32
0
 13
807.1674306844543
 23
-149
 33
0
  0
SOLID
  5
10F
100
AcDbEntity
  8
rozmir
  6
ByBlock
 62
    0
370
   -2
100
AcDbTrace
 10
808
 20
-172
 30
0
 11
807.1674306844543
 21
-167
 31
0
 12
808.8325693155457
 22
-167
 32
0
 13
808.8325693155457
 23
-167
 33
0
  0
MTEXT
  5
110
100
AcDbEntity
  8
rozmir
  6
CONTINUOUS
 62
    0
370
   -2
100
AcDbMText
 10
813
 20
-158
 30
0
 40
5
 41
6.111111111111112
 71
    5
 72
    1
  1
28
  7
standard
210
0
220
0
230
1
 50
90
 73
    2
 44
1
  0
LINE
  5
111
100
AcDbEntity
  8
rozmir
  6
ByBlock
 62
    0
370
   -2
100
AcDbLine
 10
775
 20
-144
 11
810.5
 21
-144
  0
LINE
  5
112
100
AcDbEntity
  8
rozmir
  6
ByBlock
 62
    0
370
   -2
100
AcDbLine
 10
775
 20
-172
 11
810.5
 21
-172
  0
ENDBLK
  5
7F
330
7D
100
AcDbEntity
  8
0
100
AcDbBlockEnd
  0
BLOCK
  5
81
330
80
100
AcDbEntity
  8
0
100
AcDbBlockBegin
  2
*D31
 70
    1
 10
0
 20
0
  3
*D31
  1

  0
LINE
  5
113
100
AcDbEntity
  8
tekst
  6
CONTINUOUS
 62
    7
370
    0
100
AcDbLine
 10
906
 20
-5.000000000000002
 11
886
 21
-1.77635683940025e-15
  0
LINE
  5
114
100
AcDbEntity
  8
tekst
  6
CONTINUOUS
 62
    7
370
    0
100
AcDbLine
 10
886
 20
-1.77635683940025e-15
 11
876
 21
-1.77635683940025e-15
  0
SOLID
  5
115
100
AcDbEntity
  8
tekst
  6
CONTINUOUS
 62
    7
370
    0
100
AcDbTrace
 10
906
 20
-5.000000000000002
 30
0
 11
900.9473597799414
 21
-4.59503275214611
 31
0
 12
901.3512152186053
 22
-2.979610997490561
 32
0
 13
901.3512152186053
 23
-2.979610997490561
 33
0
  0
ENDBLK
  5
82
330
80
100
AcDbEntity
  8
0
100
AcDbBlockEnd
  0
BLOCK
  5
84
330
83
100
AcDbEntity
  8
0
100
AcDbBlockBegin
  2
*D34
 70
    1
 10
0
 20
0
  3
*D34
  1

  0
LINE
  5
116
100
AcDbEntity
  8
rozmir
  6
ByBlock
 62
    0
370
   -2
100
AcDbLine
 10
886
 20
30
 11
886
 21
54.5
  0
SOLID
  5
117
100
AcDbEntity
  8
rozmir
  6
ByBlock
 62
    0
370
   -2
100
AcDbTrace
 10
886
 20
40
 30
0
 11
886.8325693155457
 21
35
 31
0
 12
885.1674306844543
 22
35
 32
0
 13
885.1674306844543
 23
35
 33
0
  0
SOLID
  5
118
100
AcDbEntity
  8
rozmir
  6
ByBlock
 62
    0
370
   -2
100
AcDbTrace
 10
886
 20
44.5
 30
0
 11
885.1674306844543
 21
49.5
 31
0
 12
886.8325693155457
 22
49.5
 32
0
 13
886.8325693155457
 23
49.5
 33
0
  0
MTEXT
  5
119
100
AcDbEntity
  8
rozmir
  6
CONTINUOUS
 62
    0
370
   -2
100
AcDbMText
 10
881
 20
51.3055555555557
 30
0
 40
5
 41
8.611111111111422
 71
    5
 72
    1
  1
4,5
  7
standard
210
0
220
0
230
1
 50
90
 73
    2
 44
1
  0
LINE
  5
11A
100
AcDbEntity
  8
rozmir
  6
ByBlock
 62
    0
370
   -2
100
AcDbLine
 10
921
 20
40
 11
883.5
 21
40
  0
LINE
  5
11B
100
AcDbEntity
  8
rozmir
  6
ByBlock
 62
    0
370
   -2
100
AcDbLine
 10
921
 20
44.5
 11
883.5
 21
44.5
  0
ENDBLK
  5
85
330
83
100
AcDbEntity
  8
0
100
AcDbBlockEnd
  0
BLOCK
  5
87
330
86
100
AcDbEntity
  8
0
100
AcDbBlockBegin
  2
*D38
 70
    1
 10
0
 20
0
  3
*D38
  1

  0
LINE
  5
11C
100
AcDbEntity
  8
tekst
  6
CONTINUOUS
 62
    7
370
    0
100
AcDbLine
 10
904.0000000000001
 20
47
 11
886
 21
60
  0
LINE
  5
11D
100
AcDbEntity
  8
tekst
  6
CONTINUOUS
 62
    7
370
    0
100
AcDbLine
 10
886
 20
60
 11
876
 21
60
  0
SOLID
  5
11E
100
AcDbEntity
  8
tekst
  6
CONTINUOUS
 62
    7
370
    0
100
AcDbTrace
 10
904.0000000000001
 20
47
 30
0
 11
899.459142388328
 21
49.25250611890579
 31
0
 12
900.4340653276734
 22
50.60239941953778
 32
0
 13
900.4340653276734
 23
50.60239941953778
 33
0
  0
ENDBLK
  5
88
330
86
100
AcDbEntity
  8
0
100
AcDbBlockEnd
  0
BLOCK
  5
8A
330
89
100
AcDbEntity
  8
0
100
AcDbBlockBegin
  2
*D27
 70
    1
 10
0
 20
0
  3
*D27
  1

  0
LINE
  5
11F
100
AcDbEntity
  8
tekst
  6
CONTINUOUS
 62
    7
370
    0
100
AcDbLine
 10
1029
 20
-5.000000000000002
 11
1046
 21
20
  0
LINE
  5
120
100
AcDbEntity
  8
tekst
  6
CONTINUOUS
 62
    7
370
    0
100
AcDbLine
 10
1046
 20
20
 11
1056
 21
20
  0
SOLID
  5
121
100
AcDbEntity
  8
tekst
  6
CONTINUOUS
 62
    7
370
    0
100
AcDbTrace
 10
1029
 20
-5.000000000000002
 30
0
 11
1031.123076475202
 21
-0.3972054200048252
 31
0
 12
1032.500023738871
 22
-1.333529559299897
 32
0
 13
1032.500023738871
 23
-1.333529559299897
 33
0
  0
ENDBLK
  5
8B
330
89
100
AcDbEntity
  8
0
100
AcDbBlockEnd
  0
BLOCK
  5
8D
330
8C
100
AcDbEntity
  8
0
100
AcDbBlockBegin
  2
*D5
 70
    1
 10
0
 20
0
  3
*D5
  1

  0
LINE
  5
122
100
AcDbEntity
  8
rozmir
  6
ByBlock
 62
    0
370
   -2
100
AcDbLine
 10
798
 20
-8
 11
798
 21
11
  0
SOLID
  5
123
100
AcDbEntity
  8
rozmir
  6
ByBlock
 62
    0
370
   -2
100
AcDbTrace
 10
798
 20
-8
 30
0
 11
797.1674306844543
 21
-3
 31
0
 12
798.8325693155457
 22
-3
 32
0
 13
798.8325693155457
 23
-3
 33
0
  0
SOLID
  5
124
100
AcDbEntity
  8
rozmir
  6
ByBlock
 62
    0
370
   -2
100
AcDbTrace
 10
798
 20
11
 30
0
 11
798.8325693155457
 21
6
 31
0
 12
797.1674306844543
 22
6
 32
0
 13
797.1674306844543
 23
6
 33
0
  0
MTEXT
  5
125
100
AcDbEntity
  8
rozmir
  6
CONTINUOUS
 62
    0
370
   -2
100
AcDbMText
 10
803
 20
1.499999999999998
 30
0
 40
5
 41
5
 71
    5
 72
    1
  1
19
  7
standard
210
0
220
0
230
1
 50
90
 73
    2
 44
1
  0
LINE
  5
126
100
AcDbEntity
  8
rozmir
  6
ByBlock
 62
    0
370
   -2
100
AcDbLine
 10
775
 20
-8
 11
800.5
 21
-8
  0
LINE
  5
127
100
AcDbEntity
  8
rozmir
  6
ByBlock
 62
    0
370
   -2
100
AcDbLine
 10
775
 20
11
 11
800.5
 21
11
  0
ENDBLK
  5
8E
330
8C
100
AcDbEntity
  8
0
100
AcDbBlockEnd
  0
BLOCK
  5
90
330
8F
100
AcDbEntity
  8
0
100
AcDbBlockBegin
  2
*D1
 70
    1
 10
0
 20
0
  3
*D1
  1

  0
LINE
  5
128
100
AcDbEntity
  8
rozmir
  6
ByBlock
 62
    0
370
   -2
100
AcDbLine
 10
568
 20
-18
 11
568
 21
10
  0
SOLID
  5
129
100
AcDbEntity
  8
rozmir
  6
ByBlock
 62
    0
370
   -2
100
AcDbTrace
 10
568
 20
-8
 30
0
 11
568.8325693155457
 21
-13
 31
0
 12
567.1674306844543
 22
-13
 32
0
 13
567.1674306844543
 23
-13
 33
0
  0
SOLID
  5
12A
100
AcDbEntity
  8
rozmir
  6
ByBlock
 62
    0
370
   -2
100
AcDbTrace
 10
568
 20
0
 30
0
 11
567.1674306844543
 21
5
 31
0
 12
568.8325693155457
 22
5
 32
0
 13
568.8325693155457
 23
5
 33
0
  0
MTEXT
  5
12B
100
AcDbEntity
  8
rozmir
  6
CONTINUOUS
 62
    0
370
   -2
100
AcDbMText
 10
573
 20
-4
 30
0
 40
5
 41
2.222222222222222
 71
    5
 72
    1
  1
8
  7
standard
210
0
220
0
230
1
 50
90
 73
    2
 44
1
  0
LINE
  5
12C
100
AcDbEntity
  8
rozmir
  6
ByBlock
 62
    0
370
   -2
100
AcDbLine
 10
589
 20
-8
 11
565.5
 21
-8
  0
LINE
  5
12D
100
AcDbEntity
  8
rozmir
  6
ByBlock
 62
    0
370
   -2
100
AcDbLine
 10
589
 20
1.224646799147353e-16
 11
565.5
 21
3.061616997868383e-16
  0
ENDBLK
  5
91
330
8F
100
AcDbEntity
  8
0
100
AcDbBlockEnd
  0
BLOCK
  5
93
330
92
100
AcDbEntity
  8
0
100
AcDbBlockBegin
  2
*D39
 70
    1
 10
0
 20
0
  3
*D39
  1

  0
LINE
  5
12E
100
AcDbEntity
  8
rozmir
  6
ByBlock
 62
    0
370
   -2
100
AcDbLine
 10
876
 20
30
 11
876
 21
57
  0
SOLID
  5
12F
100
AcDbEntity
  8
rozmir
  6
ByBlock
 62
    0
370
   -2
100
AcDbTrace
 10
876
 20
40
 30
0
 11
876.8325693155457
 21
35
 31
0
 12
875.1674306844543
 22
35
 32
0
 13
875.1674306844543
 23
35
 33
0
  0
SOLID
  5
130
100
AcDbEntity
  8
rozmir
  6
ByBlock
 62
    0
370
   -2
100
AcDbTrace
 10
876
 20
47
 30
0
 11
875.1674306844543
 21
52
 31
0
 12
876.8325693155457
 22
52
 32
0
 13
876.8325693155457
 23
52
 33
0
  0
MTEXT
  5
131
100
AcDbEntity
  8
rozmir
  6
CONTINUOUS
 62
    0
370
   -2
100
AcDbMText
 10
871
 20
43.49999999999999
 30
0
 40
5
 41
2.222222222222222
 71
    5
 72
    1
  1
7
  7
standard
210
0
220
0
230
1
 50
90
 73
    2
 44
1
  0
LINE
  5
132
100
AcDbEntity
  8
rozmir
  6
ByBlock
 62
    0
370
   -2
100
AcDbLine
 10
899
 20
40
 11
873.5
 21
40
  0
LINE
  5
133
100
AcDbEntity
  8
rozmir
  6
ByBlock
 62
    0
370
   -2
100
AcDbLine
 10
899
 20
47
 11
873.5
 21
47
  0
ENDBLK
  5
94
330
92
100
AcDbEntity
  8
0
100
AcDbBlockEnd
  0
BLOCK
  5
96
330
95
100
AcDbEntity
  8
0
100
AcDbBlockBegin
  2
*D4
 70
    1
 10
0
 20
0
  3
*D4
  1

  0
LINE
  5
134
100
AcDbEntity
  8
rozmir
  6
ByBlock
 62
    0
370
   -2
100
AcDbLine
 10
568
 20
30
 11
568
 21
45
  0
SOLID
  5
135
100
AcDbEntity
  8
rozmir
  6
ByBlock
 62
    0
370
   -2
100
AcDbTrace
 10
568
 20
30
 30
0
 11
567.1674306844543
 21
35
 31
0
 12
568.8325693155457
 22
35
 32
0
 13
568.8325693155457
 23
35
 33
0
  0
SOLID
  5
136
100
AcDbEntity
  8
rozmir
  6
ByBlock
 62
    0
370
   -2
100
AcDbTrace
 10
568
 20
45
 30
0
 11
568.8325693155457
 21
40
 31
0
 12
567.1674306844543
 22
40
 32
0
 13
567.1674306844543
 23
40
 33
0
  0
MTEXT
  5
137
100
AcDbEntity
  8
rozmir
  6
CONTINUOUS
 62
    0
370
   -2
100
AcDbMText
 10
573
 20
37.5
 30
0
 40
5
 41
5.000000000000311
 71
    5
 72
    1
  1
15
  7
standard
210
0
220
0
230
1
 50
90
 73
    2
 44
1
  0
LINE
  5
138
100
AcDbEntity
  8
rozmir
  6
ByBlock
 62
    0
370
   -2
100
AcDbLine
 10
627
 20
30
 11
565.5
 21
30
  0
LINE
  5
139
100
AcDbEntity
  8
rozmir
  6
ByBlock
 62
    0
370
   -2
100
AcDbLine
 10
655
 20
45
 11
565.5
 21
45
  0
ENDBLK
  5
97
330
95
100
AcDbEntity
  8
0
100
AcDbBlockEnd
  0
BLOCK
  5
99
330
98
100
AcDbEntity
  8
0
100
AcDbBlockBegin
  2
*D21
 70
    1
 10
0
 20
0
  3
*D21
  1

  0
LINE
  5
13A
100
AcDbEntity
  8
rozmir
  6
ByBlock
 62
    0
370
   -2
100
AcDbLine
 10
568
 20
-112
 11
568
 21
-148
  0
SOLID
  5
13B
100
AcDbEntity
  8
rozmir
  6
ByBlock
 62
    0
370
   -2
100
AcDbTrace
 10
568
 20
-112
 30
0
 11
568.8325693155457
 21
-117
 31
0
 12
567.1674306844543
 22
-117
 32
0
 13
567.1674306844543
 23
-117
 33
0
  0
SOLID
  5
13C
100
AcDbEntity
  8
rozmir
  6
ByBlock
 62
    0
370
   -2
100
AcDbTrace
 10
568
 20
-148
 30
0
 11
567.1674306844543
 21
-143
 31
0
 12
568.8325693155457
 22
-143
 32
0
 13
568.8325693155457
 23
-143
 33
0
  0
MTEXT
  5
13D
100
AcDbEntity
  8
rozmir
  6
CONTINUOUS
 62
    0
370
   -2
100
AcDbMText
 10
573
 20
-130
 30
0
 40
5
 41
6.111111111111732
 71
    5
 72
    1
  1
36
  7
standard
210
0
220
0
230
1
 50
90
 73
    2
 44
1
  0
LINE
  5
13E
100
AcDbEntity
  8
rozmir
  6
ByBlock
 62
    0
370
   -2
100
AcDbLine
 10
589
 20
-112
 11
565.5
 21
-112
  0
LINE
  5
13F
100
AcDbEntity
  8
rozmir
  6
ByBlock
 62
    0
370
   -2
100
AcDbLine
 10
655
 20
-148
 11
565.5
 21
-148
  0
ENDBLK
  5
9A
330
98
100
AcDbEntity
  8
0
100
AcDbBlockEnd
  0
BLOCK
  5
9C
330
9B
100
AcDbEntity
  8
0
100
AcDbBlockBegin
  2
*D24
 70
    1
 10
0
 20
0
  3
*D24
  1

  0
LINE
  5
140
100
AcDbEntity
  8
tekst
  6
CONTINUOUS
 62
    7
370
    0
100
AcDbLine
 10
597
 20
-115
 11
588
 21
-90
  0
LINE
  5
141
100
AcDbEntity
  8
tekst
  6
CONTINUOUS
 62
    7
370
    0
100
AcDbLine
 10
588
 20
-90
 11
578
 21
-90
  0
SOLID
  5
142
100
AcDbEntity
  8
tekst
  6
CONTINUOUS
 62
    7
370
    0
100
AcDbTrace
 10
597
 20
-115
 30
0
 11
594.5230486701312
 21
-110.5775703765182
 31
0
 12
596.0897566471414
 22
-110.0135555047945
 32
0
 13
596.0897566471414
 23
-110.0135555047945
 33
0
  0
ENDBLK
  5
9D
330
9B
100
AcDbEntity
  8
0
100
AcDbBlockEnd
  0
BLOCK
  5
9F
330
9E
100
AcDbEntity
  8
0
100
AcDbBlockBegin
  2
*D10
 70
    1
 10
0
 20
0
  3
*D10
  1

  0
LINE
  5
143
100
AcDbEntity
  8
rozmir
  6
ByBlock
 62
    0
370
   -2
100
AcDbLine
 10
808
 20
-112
 11
808
 21
-144
  0
SOLID
  5
144
100
AcDbEntity
  8
rozmir
  6
ByBlock
 62
    0
370
   -2
100
AcDbTrace
 10
808
 20
-112
 30
0
 11
808.8325693155457
 21
-117
 31
0
 12
807.1674306844543
 22
-117
 32
0
 13
807.1674306844543
 23
-117
 33
0
  0
SOLID
  5
145
100
AcDbEntity
  8
rozmir
  6
ByBlock
 62
    0
370
   -2
100
AcDbTrace
 10
808
 20
-144
 30
0
 11
807.1674306844543
 21
-139
 31
0
 12
808.8325693155457
 22
-139
 32
0
 13
808.8325693155457
 23
-139
 33
0
  0
MTEXT
  5
146
100
AcDbEntity
  8
rozmir
  6
CONTINUOUS
 62
    0
370
   -2
100
AcDbMText
 10
813
 20
-128
 30
0
 40
5
 41
6.111111111111422
 71
    5
 72
    1
  1
32
  7
standard
210
0
220
0
230
1
 50
90
 73
    2
 44
1
  0
LINE
  5
147
100
AcDbEntity
  8
rozmir
  6
ByBlock
 62
    0
370
   -2
100
AcDbLine
 10
775
 20
-112
 11
810.5
 21
-112
  0
LINE
  5
148
100
AcDbEntity
  8
rozmir
  6
ByBlock
 62
    0
370
   -2
100
AcDbLine
 10
775
 20
-144
 11
810.5
 21
-144
  0
ENDBLK
  5
A0
330
9E
100
AcDbEntity
  8
0
100
AcDbBlockEnd
  0
BLOCK
  5
A2
330
A1
100
AcDbEntity
  8
0
100
AcDbBlockBegin
  2
*D8
 70
    1
 10
0
 20
0
  3
*D8
  1

  0
LINE
  5
149
100
AcDbEntity
  8
rozmir
  6
ByBlock
 62
    0
370
   -2
100
AcDbLine
 10
568
 20
-148
 11
568
 21
-176
  0
SOLID
  5
14A
100
AcDbEntity
  8
rozmir
  6
ByBlock
 62
    0
370
   -2
100
AcDbTrace
 10
568
 20
-148
 30
0
 11
568.8325693155457
 21
-153
 31
0
 12
567.1674306844543
 22
-153
 32
0
 13
567.1674306844543
 23
-153
 33
0
  0
SOLID
  5
14B
100
AcDbEntity
  8
rozmir
  6
ByBlock
 62
    0
370
   -2
100
AcDbTrace
 10
568
 20
-176
 30
0
 11
567.1674306844543
 21
-171
 31
0
 12
568.8325693155457
 22
-171
 32
0
 13
568.8325693155457
 23
-171
 33
0
  0
MTEXT
  5
14C
100
AcDbEntity
  8
rozmir
  6
CONTINUOUS
 62
    0
370
   -2
100
AcDbMText
 10
573
 20
-162
 30
0
 40
5
 41
6.111111111111112
 71
    5
 72
    1
  1
28
  7
standard
210
0
220
0
230
1
 50
90
 73
    2
 44
1
  0
LINE
  5
14D
100
AcDbEntity
  8
rozmir
  6
ByBlock
 62
    0
370
   -2
100
AcDbLine
 10
655
 20
-148
 11
565.5
 21
-148
  0
LINE
  5
14E
100
AcDbEntity
  8
rozmir
  6
ByBlock
 62
    0
370
   -2
100
AcDbLine
 10
627
 20
-176
 11
565.5
 21
-176
  0
ENDBLK
  5
A3
330
A1
100
AcDbEntity
  8
0
100
AcDbBlockEnd
  0
BLOCK
  5
A5
330
A4
100
AcDbEntity
  8
0
100
AcDbBlockBegin
  2
*D22
 70
    1
 10
0
 20
0
  3
*D22
  1

  0
LINE
  5
14F
100
AcDbEntity
  8
rozmir
  6
ByBlock
 62
    0
370
   -2
100
AcDbLine
 10
568
 20
-122
 11
568
 21
-90
  0
SOLID
  5
150
100
AcDbEntity
  8
rozmir
  6
ByBlock
 62
    0
370
   -2
100
AcDbTrace
 10
568
 20
-112
 30
0
 11
568.8325693155457
 21
-117
 31
0
 12
567.1674306844543
 22
-117
 32
0
 13
567.1674306844543
 23
-117
 33
0
  0
SOLID
  5
151
100
AcDbEntity
  8
rozmir
  6
ByBlock
 62
    0
370
   -2
100
AcDbTrace
 10
568
 20
-100
 30
0
 11
567.1674306844543
 21
-95
 31
0
 12
568.8325693155457
 22
-95
 32
0
 13
568.8325693155457
 23
-95
 33
0
  0
MTEXT
  5
152
100
AcDbEntity
  8
rozmir
  6
CONTINUOUS
 62
    0
370
   -2
100
AcDbMText
 10
573
 20
-106
 30
0
 40
5
 41
5
 71
    5
 72
    1
  1
12
  7
standard
210
0
220
0
230
1
 50
90
 73
    2
 44
1
  0
LINE
  5
153
100
AcDbEntity
  8
rozmir
  6
ByBlock
 62
    0
370
   -2
100
AcDbLine
 10
589
 20
-112
 11
565.5
 21
-112
  0
LINE
  5
154
100
AcDbEntity
  8
rozmir
  6
ByBlock
 62
    0
370
   -2
100
AcDbLine
 10
589
 20
-100
 11
565.5
 21
-100
  0
ENDBLK
  5
A6
330
A4
100
AcDbEntity
  8
0
100
AcDbBlockEnd
  0
BLOCK
  5
A8
330
A7
100
AcDbEntity
  8
0
100
AcDbBlockBegin
  2
*D13
 70
    1
 10
0
 20
0
  3
*D13
  1

  0
LINE
  5
155
100
AcDbEntity
  8
rozmir
  6
ByBlock
 62
    0
370
   -2
100
AcDbLine
 10
784
 20
-90
 11
753
 21
-90
  0
SOLID
  5
156
100
AcDbEntity
  8
rozmir
  6
ByBlock
 62
    0
370
   -2
100
AcDbTrace
 10
774
 20
-90
 30
0
 11
779
 21
-89.16743068445432
 31
0
 12
779
 22
-90.83256931554568
 32
0
 13
779
 23
-90.83256931554568
 33
0
  0
SOLID
  5
157
100
AcDbEntity
  8
rozmir
  6
ByBlock
 62
    0
370
   -2
100
AcDbTrace
 10
763
 20
-90
 30
0
 11
758
 21
-90.83256931554568
 31
0
 12
758
 22
-89.16743068445432
 32
0
 13
758
 23
-89.16743068445432
 33
0
  0
MTEXT
  5
158
100
AcDbEntity
  8
rozmir
  6
CONTINUOUS
 62
    0
370
   -2
100
AcDbMText
 10
768.5
 20
-85
 30
0
 40
5
 41
3.888888888888889
 71
    5
 72
    1
  1
11
  7
standard
210
0
220
0
230
1
 50
360
 73
    2
 44
1
  0
LINE
  5
159
100
AcDbEntity
  8
rozmir
  6
ByBlock
 62
    0
370
   -2
100
AcDbLine
 10
774
 20
-111
 11
774
 21
-87.5
  0
LINE
  5
15A
100
AcDbEntity
  8
rozmir
  6
ByBlock
 62
    0
370
   -2
100
AcDbLine
 10
763
 20
-111
 11
763
 21
-87.5
  0
ENDBLK
  5
A9
330
A7
100
AcDbEntity
  8
0
100
AcDbBlockEnd
  0
BLOCK
  5
AB
330
AA
100
AcDbEntity
  8
0
100
AcDbBlockBegin
  2
*D25
 70
    1
 10
0
 20
0
  3
*D25
  1

  0
LINE
  5
15B
100
AcDbEntity
  8
rozmir
  6
ByBlock
 62
    0
370
   -2
100
AcDbLine
 10
798
 20
-102
 11
798
 21
-127
  0
SOLID
  5
15C
100
AcDbEntity
  8
rozmir
  6
ByBlock
 62
    0
370
   -2
100
AcDbTrace
 10
798
 20
-112
 30
0
 11
797.1674306844543
 21
-107
 31
0
 12
798.8325693155457
 22
-107
 32
0
 13
798.8325693155457
 23
-107
 33
0
  0
SOLID
  5
15D
100
AcDbEntity
  8
rozmir
  6
ByBlock
 62
    0
370
   -2
100
AcDbTrace
 10
798
 20
-117
 30
0
 11
798.8325693155457
 21
-122
 31
0
 12
797.1674306844543
 22
-122
 32
0
 13
797.1674306844543
 23
-122
 33
0
  0
MTEXT
  5
15E
100
AcDbEntity
  8
rozmir
  6
CONTINUOUS
 62
    0
370
   -2
100
AcDbMText
 10
803
 20
-114.5
 30
0
 40
5
 41
2.222222222222532
 71
    5
 72
    1
  1
5
  7
standard
210
0
220
0
230
1
 50
90
 73
    2
 44
1
  0
LINE
  5
15F
100
AcDbEntity
  8
rozmir
  6
ByBlock
 62
    0
370
   -2
100
AcDbLine
 10
789
 20
-112
 11
800.5
 21
-112
  0
LINE
  5
160
100
AcDbEntity
  8
rozmir
  6
ByBlock
 62
    0
370
   -2
100
AcDbLine
 10
790
 20
-117
 11
800.5
 21
-117
  0
ENDBLK
  5
AC
330
AA
100
AcDbEntity
  8
0
100
AcDbBlockEnd
  0
BLOCK
  5
AE
330
AD
100
AcDbEntity
  8
0
100
AcDbBlockBegin
  2
*D19
 70
    1
 10
0
 20
0
  3
*D19
  1

  0
LINE
  5
161
100
AcDbEntity
  8
rozmir
  6
ByBlock
 62
    0
370
   -2
100
AcDbLine
 10
778
 20
-240
 11
628
 21
-240
  0
SOLID
  5
162
100
AcDbEntity
  8
rozmir
  6
ByBlock
 62
    0
370
   -2
100
AcDbTrace
 10
778
 20
-240
 30
0
 11
773
 21
-240.8325693155457
 31
0
 12
773
 22
-239.1674306844543
 32
0
 13
773
 23
-239.1674306844543
 33
0
  0
SOLID
  5
163
100
AcDbEntity
  8
rozmir
  6
ByBlock
 62
    0
370
   -2
100
AcDbTrace
 10
628
 20
-240
 30
0
 11
633
 21
-239.1674306844543
 31
0
 12
633
 22
-240.8325693155457
 32
0
 13
633
 23
-240.8325693155457
 33
0
  0
MTEXT
  5
164
100
AcDbEntity
  8
rozmir
  6
CONTINUOUS
 62
    0
370
   -2
100
AcDbMText
 10
703
 20
-235
 30
0
 40
5
 41
8.888888888889198
 71
    5
 72
    1
  1
150
  7
standard
210
0
220
0
230
1
 50
360
 73
    2
 44
1
  0
LINE
  5
165
100
AcDbEntity
  8
rozmir
  6
ByBlock
 62
    0
370
   -2
100
AcDbLine
 10
778
 20
-205
 11
778
 21
-242.5
  0
LINE
  5
166
100
AcDbEntity
  8
rozmir
  6
ByBlock
 62
    0
370
   -2
100
AcDbLine
 10
628
 20
-177
 11
628
 21
-242.5
  0
ENDBLK
  5
AF
330
AD
100
AcDbEntity
  8
0
100
AcDbBlockEnd
  0
BLOCK
  5
B1
330
B0
100
AcDbEntity
  8
0
100
AcDbBlockBegin
  2
*D3
 70
    1
 10
0
 20
0
  3
*D3
  1

  0
LINE
  5
167
100
AcDbEntity
  8
rozmir
  6
ByBlock
 62
    0
370
   -2
100
AcDbLine
 10
568
 20
15
 11
568
 21
30
  0
SOLID
  5
168
100
AcDbEntity
  8
rozmir
  6
ByBlock
 62
    0
370
   -2
100
AcDbTrace
 10
568
 20
15
 30
0
 11
567.1674306844543
 21
20
 31
0
 12
568.8325693155457
 22
20
 32
0
 13
568.8325693155457
 23
20
 33
0
  0
SOLID
  5
169
100
AcDbEntity
  8
rozmir
  6
ByBlock
 62
    0
370
   -2
100
AcDbTrace
 10
568
 20
30
 30
0
 11
568.8325693155457
 21
25
 31
0
 12
567.1674306844543
 22
25
 32
0
 13
567.1674306844543
 23
25
 33
0
  0
MTEXT
  5
16A
100
AcDbEntity
  8
rozmir
  6
CONTINUOUS
 62
    0
370
   -2
100
AcDbMText
 10
573
 20
22.5
 30
0
 40
5
 41
5.000000000000311
 71
    5
 72
    1
  1
15
  7
standard
210
0
220
0
230
1
 50
90
 73
    2
 44
1
  0
LINE
  5
16B
100
AcDbEntity
  8
rozmir
  6
ByBlock
 62
    0
370
   -2
100
AcDbLine
 10
599
 20
15
 11
565.5
 21
15
  0
LINE
  5
16C
100
AcDbEntity
  8
rozmir
  6
ByBlock
 62
    0
370
   -2
100
AcDbLine
 10
627
 20
30
 11
565.5
 21
30
  0
ENDBLK
  5
B2
330
B0
100
AcDbEntity
  8
0
100
AcDbBlockEnd
  0
BLOCK
  5
B4
330
B3
100
AcDbEntity
  8
0
100
AcDbBlockBegin
  2
*D28
 70
    1
 10
0
 20
0
  3
*D28
  1

  0
LINE
  5
16D
100
AcDbEntity
  8
tekst
  6
CONTINUOUS
 62
    7
370
    0
100
AcDbLine
 10
1026
 20
-1.77635683940025e-15
 11
1046
 21
30
  0
LINE
  5
16E
100
AcDbEntity
  8
tekst
  6
CONTINUOUS
 62
    7
370
    0
100
AcDbLine
 10
1046
 20
30
 11
1056
 21
30
  0
SOLID
  5
16F
100
AcDbEntity
  8
tekst
  6
CONTINUOUS
 62
    7
370
    0
100
AcDbTrace
 10
1026
 20
-1.77635683940025e-15
 30
0
 11
1028.08076143707
 21
4.622077834393512
 31
0
 12
1029.466240525183
 22
3.698425108984924
 32
0
 13
1029.466240525183
 23
3.698425108984924
 33
0
  0
ENDBLK
  5
B5
330
B3
100
AcDbEntity
  8
0
100
AcDbBlockEnd
  0
BLOCK
  5
B7
330
B6
100
AcDbEntity
  8
0
100
AcDbBlockBegin
  2
*D2
 70
    1
 10
0
 20
0
  3
*D2
  1

  0
LINE
  5
170
100
AcDbEntity
  8
rozmir
  6
ByBlock
 62
    0
370
   -2
100
AcDbLine
 10
568
 20
0
 11
568
 21
15
  0
SOLID
  5
171
100
AcDbEntity
  8
rozmir
  6
ByBlock
 62
    0
370
   -2
100
AcDbTrace
 10
568
 20
0
 30
0
 11
567.1674306844543
 21
5
 31
0
 12
568.8325693155457
 22
5
 32
0
 13
568.8325693155457
 23
5
 33
0
  0
SOLID
  5
172
100
AcDbEntity
  8
rozmir
  6
ByBlock
 62
    0
370
   -2
100
AcDbTrace
 10
568
 20
15
 30
0
 11
568.8325693155457
 21
10
 31
0
 12
567.1674306844543
 22
10
 32
0
 13
567.1674306844543
 23
10
 33
0
  0
MTEXT
  5
173
100
AcDbEntity
  8
rozmir
  6
CONTINUOUS
 62
    0
370
   -2
100
AcDbMText
 10
573
 20
7.499999999999998
 30
0
 40
5
 41
5.000000000000311
 71
    5
 72
    1
  1
15
  7
standard
210
0
220
0
230
1
 50
90
 73
    2
 44
1
  0
LINE
  5
174
100
AcDbEntity
  8
rozmir
  6
ByBlock
 62
    0
370
   -2
100
AcDbLine
 10
589
 20
1.224646799147353e-16
 11
565.5
 21
3.061616997868383e-16
  0
LINE
  5
175
100
AcDbEntity
  8
rozmir
  6
ByBlock
 62
    0
370
   -2
100
AcDbLine
 10
599
 20
15
 11
565.5
 21
15
  0
ENDBLK
  5
B8
330
B6
100
AcDbEntity
  8
0
100
AcDbBlockEnd
  0
BLOCK
  5
BA
330
B9
100
AcDbEntity
  8
0
100
AcDbBlockBegin
  2
*D15
 70
    1
 10
0
 20
0
  3
*D15
  1

  0
LINE
  5
176
100
AcDbEntity
  8
rozmir
  6
ByBlock
 62
    0
370
   -2
100
AcDbLine
 10
774
 20
-80.00000000000001
 11
660
 21
-80
  0
SOLID
  5
177
100
AcDbEntity
  8
rozmir
  6
ByBlock
 62
    0
370
   -2
100
AcDbTrace
 10
774
 20
-80.00000000000001
 30
0
 11
769
 21
-80.8325693155457
 31
0
 12
769
 22
-79.16743068445433
 32
0
 13
769
 23
-79.16743068445433
 33
0
  0
SOLID
  5
178
100
AcDbEntity
  8
rozmir
  6
ByBlock
 62
    0
370
   -2
100
AcDbTrace
 10
660
 20
-80
 30
0
 11
665
 21
-79.16743068445432
 31
0
 12
665
 22
-80.83256931554568
 32
0
 13
665
 23
-80.83256931554568
 33
0
  0
MTEXT
  5
179
100
AcDbEntity
  8
rozmir
  6
CONTINUOUS
 62
    0
370
   -2
100
AcDbMText
 10
717
 20
-75
 30
0
 40
5
 41
8.333333333333332
 71
    5
 72
    1
  1
114
  7
standard
210
0
220
0
230
1
 50
360
 73
    2
 44
1
  0
LINE
  5
17A
100
AcDbEntity
  8
rozmir
  6
ByBlock
 62
    0
370
   -2
100
AcDbLine
 10
774
 20
-111
 11
774
 21
-77.50000000000001
  0
LINE
  5
17B
100
AcDbEntity
  8
rozmir
  6
ByBlock
 62
    0
370
   -2
100
AcDbLine
 10
660
 20
-111
 11
660
 21
-77.5
  0
ENDBLK
  5
BB
330
B9
100
AcDbEntity
  8
0
100
AcDbBlockEnd
  0
BLOCK
  5
BD
330
BC
100
AcDbEntity
  8
0
100
AcDbBlockBegin
  2
*D12
 70
    1
 10
0
 20
0
  3
*D12
  1

  0
LINE
  5
17C
100
AcDbEntity
  8
rozmir
  6
ByBlock
 62
    0
370
   -2
100
AcDbLine
 10
808
 20
-172
 11
808
 21
-200
  0
SOLID
  5
17D
100
AcDbEntity
  8
rozmir
  6
ByBlock
 62
    0
370
   -2
100
AcDbTrace
 10
808
 20
-172
 30
0
 11
808.8325693155457
 21
-177
 31
0
 12
807.1674306844543
 22
-177
 32
0
 13
807.1674306844543
 23
-177
 33
0
  0
SOLID
  5
17E
100
AcDbEntity
  8
rozmir
  6
ByBlock
 62
    0
370
   -2
100
AcDbTrace
 10
808
 20
-200
 30
0
 11
807.1674306844543
 21
-195
 31
0
 12
808.8325693155457
 22
-195
 32
0
 13
808.8325693155457
 23
-195
 33
0
  0
MTEXT
  5
17F
100
AcDbEntity
  8
rozmir
  6
CONTINUOUS
 62
    0
370
   -2
100
AcDbMText
 10
813
 20
-186
 30
0
 40
5
 41
6.111111111111112
 71
    5
 72
    1
  1
28
  7
standard
210
0
220
0
230
1
 50
90
 73
    2
 44
1
  0
LINE
  5
180
100
AcDbEntity
  8
rozmir
  6
ByBlock
 62
    0
370
   -2
100
AcDbLine
 10
775
 20
-172
 11
810.5
 21
-172
  0
LINE
  5
181
100
AcDbEntity
  8
rozmir
  6
ByBlock
 62
    0
370
   -2
100
AcDbLine
 10
775
 20
-200
 11
810.5
 21
-200
  0
ENDBLK
  5
BE
330
BC
100
AcDbEntity
  8
0
100
AcDbBlockEnd
  0
BLOCK
  5
C0
330
BF
100
AcDbEntity
  8
0
100
AcDbBlockBegin
  2
*D18
 70
    1
 10
0
 20
0
  3
*D18
  1

  0
LINE
  5
182
100
AcDbEntity
  8
rozmir
  6
ByBlock
 62
    0
370
   -2
100
AcDbLine
 10
778
 20
-230
 11
656
 21
-230
  0
SOLID
  5
183
100
AcDbEntity
  8
rozmir
  6
ByBlock
 62
    0
370
   -2
100
AcDbTrace
 10
778
 20
-230
 30
0
 11
773
 21
-230.8325693155457
 31
0
 12
773
 22
-229.1674306844543
 32
0
 13
773
 23
-229.1674306844543
 33
0
  0
SOLID
  5
184
100
AcDbEntity
  8
rozmir
  6
ByBlock
 62
    0
370
   -2
100
AcDbTrace
 10
656
 20
-230
 30
0
 11
661
 21
-229.1674306844543
 31
0
 12
661
 22
-230.8325693155457
 32
0
 13
661
 23
-230.8325693155457
 33
0
  0
MTEXT
  5
185
100
AcDbEntity
  8
rozmir
  6
CONTINUOUS
 62
    0
370
   -2
100
AcDbMText
 10
717
 20
-225
 30
0
 40
5
 41
8.888888888888889
 71
    5
 72
    1
  1
122
  7
standard
210
0
220
0
230
1
 50
360
 73
    2
 44
1
  0
LINE
  5
186
100
AcDbEntity
  8
rozmir
  6
ByBlock
 62
    0
370
   -2
100
AcDbLine
 10
778
 20
-205
 11
778
 21
-232.5
  0
LINE
  5
187
100
AcDbEntity
  8
rozmir
  6
ByBlock
 62
    0
370
   -2
100
AcDbLine
 10
656
 20
-149
 11
656
 21
-232.5
  0
ENDBLK
  5
C1
330
BF
100
AcDbEntity
  8
0
100
AcDbBlockEnd
  0
BLOCK
  5
C3
330
C2
100
AcDbEntity
  8
0
100
AcDbBlockBegin
  2
*D23
 70
    1
 10
0
 20
0
  3
*D23
  1

  0
LINE
  5
188
100
AcDbEntity
  8
tekst
  6
CONTINUOUS
 62
    7
370
    0
100
AcDbLine
 10
602
 20
-105
 11
588
 21
-80
  0
LINE
  5
189
100
AcDbEntity
  8
tekst
  6
CONTINUOUS
 62
    7
370
    0
100
AcDbLine
 10
588
 20
-80
 11
578
 21
-80
  0
SOLID
  5
18A
100
AcDbEntity
  8
tekst
  6
CONTINUOUS
 62
    7
370
    0
100
AcDbTrace
 10
602
 20
-105
 30
0
 11
598.8305614188321
 21
-101.0442660926963
 31
0
 12
600.2834048918495
 22
-100.2306737478065
 32
0
 13
600.2834048918495
 23
-100.2306737478065
 33
0
  0
ENDBLK
  5
C4
330
C2
100
AcDbEntity
  8
0
100
AcDbBlockEnd
  0
BLOCK
  5
C6
330
C5
100
AcDbEntity
  8
0
100
AcDbBlockBegin
  2
*D6
 70
    1
 10
0
 20
0
  3
*D6
  1

  0
LINE
  5
18B
100
AcDbEntity
  8
rozmir
  6
ByBlock
 62
    0
370
   -2
100
AcDbLine
 10
798
 20
11
 11
798
 21
26
  0
SOLID
  5
18C
100
AcDbEntity
  8
rozmir
  6
ByBlock
 62
    0
370
   -2
100
AcDbTrace
 10
798
 20
11
 30
0
 11
797.1674306844543
 21
16
 31
0
 12
798.8325693155457
 22
16
 32
0
 13
798.8325693155457
 23
16
 33
0
  0
SOLID
  5
18D
100
AcDbEntity
  8
rozmir
  6
ByBlock
 62
    0
370
   -2
100
AcDbTrace
 10
798
 20
26
 30
0
 11
798.8325693155457
 21
21
 31
0
 12
797.1674306844543
 22
21
 32
0
 13
797.1674306844543
 23
21
 33
0
  0
MTEXT
  5
18E
100
AcDbEntity
  8
rozmir
  6
CONTINUOUS
 62
    0
370
   -2
100
AcDbMText
 10
803
 20
18.5
 30
0
 40
5
 41
5.000000000000311
 71
    5
 72
    1
  1
15
  7
standard
210
0
220
0
230
1
 50
90
 73
    2
 44
1
  0
LINE
  5
18F
100
AcDbEntity
  8
rozmir
  6
ByBlock
 62
    0
370
   -2
100
AcDbLine
 10
775
 20
11
 11
800.5
 21
11
  0
LINE
  5
190
100
AcDbEntity
  8
rozmir
  6
ByBlock
 62
    0
370
   -2
100
AcDbLine
 10
775
 20
26
 11
800.5
 21
26
  0
ENDBLK
  5
C7
330
C5
100
AcDbEntity
  8
0
100
AcDbBlockEnd
  0
BLOCK
  5
C9
330
C8
100
AcDbEntity
  8
0
100
AcDbBlockBegin
  2
*D7
 70
    1
 10
0
 20
0
  3
*D7
  1

  0
LINE
  5
191
100
AcDbEntity
  8
rozmir
  6
ByBlock
 62
    0
370
   -2
100
AcDbLine
 10
798
 20
26
 11
798
 21
41
  0
SOLID
  5
192
100
AcDbEntity
  8
rozmir
  6
ByBlock
 62
    0
370
   -2
100
AcDbTrace
 10
798
 20
26
 30
0
 11
797.1674306844543
 21
31
 31
0
 12
798.8325693155457
 22
31
 32
0
 13
798.8325693155457
 23
31
 33
0
  0
SOLID
  5
193
100
AcDbEntity
  8
rozmir
  6
ByBlock
 62
    0
370
   -2
100
AcDbTrace
 10
798
 20
41
 30
0
 11
798.8325693155457
 21
36
 31
0
 12
797.1674306844543
 22
36
 32
0
 13
797.1674306844543
 23
36
 33
0
  0
MTEXT
  5
194
100
AcDbEntity
  8
rozmir
  6
CONTINUOUS
 62
    0
370
   -2
100
AcDbMText
 10
803
 20
33.5
 30
0
 40
5
 41
5.000000000000311
 71
    5
 72
    1
  1
15
  7
standard
210
0
220
0
230
1
 50
90
 73
    2
 44
1
  0
LINE
  5
195
100
AcDbEntity
  8
rozmir
  6
ByBlock
 62
    0
370
   -2
100
AcDbLine
 10
775
 20
26
 11
800.5
 21
26
  0
LINE
  5
196
100
AcDbEntity
  8
rozmir
  6
ByBlock
 62
    0
370
   -2
100
AcDbLine
 10
775
 20
41
 11
800.5
 21
41
  0
ENDBLK
  5
CA
330
C8
100
AcDbEntity
  8
0
100
AcDbBlockEnd
  0
BLOCK
  5
CC
330
CB
100
AcDbEntity
  8
0
100
AcDbBlockBegin
  2
*D35
 70
    1
 10
0
 20
0
  3
*D35
  1

  0
LINE
  5
197
100
AcDbEntity
  8
rozmir
  6
ByBlock
 62
    0
370
   -2
100
AcDbLine
 10
986
 20
49.99999999999999
 11
958
 21
50
  0
SOLID
  5
198
100
AcDbEntity
  8
rozmir
  6
ByBlock
 62
    0
370
   -2
100
AcDbTrace
 10
986
 20
49.99999999999999
 30
0
 11
981
 21
49.16743068445432
 31
0
 12
981
 22
50.83256931554568
 32
0
 13
981
 23
50.83256931554568
 33
0
  0
SOLID
  5
199
100
AcDbEntity
  8
rozmir
  6
ByBlock
 62
    0
370
   -2
100
AcDbTrace
 10
958
 20
50
 30
0
 11
963
 21
50.83256931554568
 31
0
 12
963
 22
49.16743068445432
 32
0
 13
963
 23
49.16743068445432
 33
0
  0
MTEXT
  5
19A
100
AcDbEntity
  8
rozmir
  6
CONTINUOUS
 62
    0
370
   -2
100
AcDbMText
 10
972
 20
55
 30
0
 40
5
 41
6.111111111111112
 71
    5
 72
    1
  1
28
  7
standard
210
0
220
0
230
1
 50
360
 73
    2
 44
1
  0
LINE
  5
19B
100
AcDbEntity
  8
rozmir
  6
ByBlock
 62
    0
370
   -2
100
AcDbLine
 10
986
 20
33
 11
986
 21
52.49999999999999
  0
LINE
  5
19C
100
AcDbEntity
  8
rozmir
  6
ByBlock
 62
    0
370
   -2
100
AcDbLine
 10
958
 20
49
 11
958
 21
52.5
  0
ENDBLK
  5
CD
330
CB
100
AcDbEntity
  8
0
100
AcDbBlockEnd
  0
BLOCK
  5
CF
330
CE
100
AcDbEntity
  8
0
100
AcDbBlockBegin
  2
block10
 70
    0
 10
0
 20
0
  3
block10
  1

  0
LWPOLYLINE
  5
19D
100
AcDbEntity
  8
0
  6
CONTINUOUS
 62
    7
370
   70
100
AcDbPolyline
 90
   12
 70
    1
 43
0
 10
-0.6062178
 20
1
 10
0
 20
0
 10
0.6062178
 20
1
 10
1.8186533
 20
1
 10
1.2124356
 20
2
 10
1.8186533
 20
3
 10
0.6062178
 20
3
 10
0
 20
4
 10
-0.6062178
 20
3
 10
-1.8186533
 20
3
 10
-1.2124356
 20
2
 10
-1.8186533
 20
1
  0
ENDBLK
  5
D0
330
CE
100
AcDbEntity
  8
0
100
AcDbBlockEnd
  0
ENDSEC
  0
SECTION
  2
ENTITIES
  0
HATCH
  5
19E
100
AcDbEntity
  8
plytka3
  6
ByLayer
 62
  256
370
   -1
100
AcDbHatch
 10
0
 20
0
 30
0
210
0
220
0
230
1
  2
gost_stone
 70
    0
 71
    0
 91
    1
 92
    0
 93
    6
 72
    1
 10
22
 20
8.000000000000002
 11
23
 21
9.000000000000002
 72
    1
 10
23
 20
9.000000000000002
 11
22
 21
10
 72
    1
 10
22
 20
10
 11
23
 21
11
 72
    1
 10
23
 20
11
 11
10
 21
11
 72
    1
 10
10
 20
11
 11
10
 21
8.000000000000002
 72
    1
 10
10
 20
8.000000000000002
 11
22
 21
8.000000000000002
 97
    0
 75
    0
 76
    1
 52
0
 41
1
 77
    0
 78
    0
 98
    0
  0
HATCH
  5
19F
100
AcDbEntity
  8
skhody
  6
ByLayer
 62
  256
370
   -1
100
AcDbHatch
 10
0
 20
0
 30
0
210
0
220
0
230
1
  2
gost_concrete
 70
    0
 71
    0
 91
    1
 92
    0
 93
    8
 72
    1
 10
10
 20
0
 11
10
 21
7.500000000000001
 72
    1
 10
10
 20
7.500000000000001
 11
22
 21
7.500000000000001
 72
    1
 10
22
 20
7.500000000000001
 11
22
 21
6
 72
    1
 10
22
 20
6
 11
20
 21
5
 72
    1
 10
20
 20
5
 11
24
 21
3.000000000000007
 72
    1
 10
24
 20
3.000000000000007
 11
22
 21
2.000000000000007
 72
    1
 10
22
 20
2.000000000000007
 11
22
 21
0
 72
    1
 10
22
 20
0
 11
10
 21
0
 97
    0
 75
    0
 76
    1
 52
0
 41
1
 77
    0
 78
    0
 98
    0
  0
HATCH
  5
1A0
100
AcDbEntity
  8
skhody
  6
ByLayer
 62
  256
370
   -1
100
AcDbHatch
 10
0
 20
0
 30
0
210
0
220
0
230
1
  2
gost_concrete
 70
    0
 71
    0
 91
    1
 92
    0
 93
    8
 72
    1
 10
10
 20
0
 11
10
 21
10
 72
    1
 10
10
 20
10
 11
0
 21
10
 72
    1
 10
0
 20
10
 11
0
 21
7.999999999999993
 72
    1
 10
0
 20
7.999999999999993
 11
2
 21
6.999999999999993
 72
    1
 10
2
 20
6.999999999999993
 11
-2
 21
5
 72
    1
 10
-2
 20
5
 11
0
 21
4
 72
    1
 10
0
 20
4
 11
0
 21
0
 72
    1
 10
0
 20
0
 11
10
 21
0
 97
    0
 75
    0
 76
    1
 52
1.570796326794897
 41
1
 77
    0
 78
    0
 98
    0
  0
HATCH
  5
1A1
100
AcDbEntity
  8
fundament
  6
ByLayer
 62
  256
370
   -1
100
AcDbHatch
 10
0
 20
0
 30
0
210
0
220
0
230
1
  2
gost_concrete
 70
    0
 71
    0
 91
    1
 92
    0
 93
    8
 72
    1
 10
22
 20
0
 11
22
 21
-10
 72
    1
 10
22
 20
-10
 11
13
 21
-10
 72
    1
 10
13
 20
-10
 11
12
 21
-8
 72
    1
 10
12
 20
-8
 11
10
 21
-12
 72
    1
 10
10
 20
-12
 11
9
 21
-10
 72
    1
 10
9
 20
-10
 11
0
 21
-10
 72
    1
 10
0
 20
-10
 11
0
 21
0
 72
    1
 10
0
 20
0
 11
22
 21
0
 97
    0
 75
    0
 76
    1
 52
0
 41
1
 77
    0
 78
    0
 98
    0
  0
HATCH
  5
1A2
100
AcDbEntity
  8
dveri
  6
ByLayer
 62
  256
370
   -1
100
AcDbHatch
 10
0
 20
0
 30
0
210
0
220
0
230
1
  2
gost_metal
 70
    0
 71
    0
 91
    1
 92
    0
 93
    4
 72
    1
 10
9
 20
10
 11
9
 21
10.40000000000001
 72
    1
 10
9
 20
10.40000000000001
 11
0
 21
10.40000000000001
 72
    1
 10
0
 20
10.40000000000001
 11
0
 21
10
 72
    1
 10
0
 20
10
 11
9
 21
10
 97
    0
 75
    0
 76
    1
 52
3.141592653589793
 41
0.1
 77
    0
 78
    0
 98
    0
  0
HATCH
  5
1A3
100
AcDbEntity
  8
dveri
  6
ByLayer
 62
  256
370
   -1
100
AcDbHatch
 10
0
 20
0
 30
0
210
0
220
0
230
1
  2
gost_metal
 70
    0
 71
    0
 91
    1
 92
    0
 93
   16
 72
    1
 10
10
 20
14
 11
10
 21
10.8
 72
    2
 10
9.600000000000023
 20
10.79999999999998
 40
0.3999999999999879
 50
359.999999999998
 51
90
 73
    0
 72
    1
 10
9.600000000000023
 20
10.40000000000001
 11
6.399999999999977
 21
10.40000000000001
 72
    2
 10
6.399999999999977
 20
10.79999999999998
 40
0.3999999999999879
 50
90
 51
180.000000000002
 73
    0
 72
    1
 10
6
 20
10.8
 11
6
 21
14
 72
    2
 10
6.399999999999977
 20
14.00000000000001
 40
0.3999999999999879
 50
179.999999999998
 51
270
 73
    0
 72
    1
 10
6.399999999999977
 20
14.40000000000001
 11
9.600000000000023
 21
14.40000000000001
 72
    2
 10
9.600000000000023
 20
14.00000000000001
 40
0.3999999999999879
 50
270
 51
2.035554996136651e-12
 73
    0
 72
    2
 10
9.600000000000023
 20
10.80000000000001
 40
0.1000000000000121
 50
8.142219984546603e-12
 51
90
 73
    0
 72
    1
 10
9.600000000000023
 20
10.69999999999999
 11
6.399999999999977
 21
10.69999999999999
 72
    2
 10
6.400000000000091
 20
10.79999999999998
 40
0.09999999999998721
 50
90.00000000003257
 51
180.0000000000122
 73
    0
 72
    1
 10
6.299999999999955
 20
10.80000000000001
 11
6.299999999999955
 21
14
 72
    2
 10
6.399999999999977
 20
13.99999999999999
 40
0.1000000000000085
 50
180.0000000000081
 51
270
 73
    0
 72
    1
 10
6.399999999999977
 20
14.09999999999999
 11
9.600000000000023
 21
14.09999999999999
 72
    2
 10
9.599999999999909
 20
14.00000000000001
 40
0.09999999999998366
 50
270.0000000000326
 51
8.142219984546603e-12
 73
    0
 72
    1
 10
9.700000000000045
 20
14
 11
9.700000000000045
 21
10.8
 97
    0
 75
    0
 76
    1
 52
3.141592653589793
 41
0.1
 77
    0
 78
    0
 98
    0
  0
HATCH
  5
1A4
100
AcDbEntity
  8
plytka3
  6
ByLayer
 62
  256
370
   -1
100
AcDbHatch
 10
0
 20
0
 30
0
210
0
220
0
230
1
  2
gost_stone
 70
    0
 71
    0
 91
    1
 92
    0
 93
    4
 72
    1
 10
1011
 20
0
 11
1011
 21
-3
 72
    1
 10
1011
 20
-3
 11
1046
 21
-3.000000000000003
 72
    1
 10
1046
 20
-3.000000000000003
 11
1046
 21
-1.77635683940025e-15
 72
    1
 10
1046
 20
-1.77635683940025e-15
 11
1011
 21
0
 97
    0
 75
    0
 76
    1
 52
3.141592653589793
 41
1
 77
    0
 78
    0
 98
    0
  0
HATCH
  5
1A5
100
AcDbEntity
  8
tekst
  6
DASHED2
 62
  256
370
   -1
100
AcDbHatch
 10
0
 20
0
 30
0
210
0
220
0
230
1
  2
gost_concrete
 70
    0
 71
    0
 91
    1
 92
    0
 93
   16
 72
    1
 10
1044
 20
-11
 11
1048
 21
-13
 72
    1
 10
1048
 20
-13
 11
1046
 21
-14
 72
    1
 10
1046
 20
-14
 11
1046
 21
-17
 72
    1
 10
1046
 20
-17
 11
1016
 21
-17
 72
    1
 10
1016
 20
-17
 11
1015
 21
-15
 72
    1
 10
1015
 20
-15
 11
1013
 21
-19
 72
    1
 10
1013
 20
-19
 11
1012
 21
-17
 72
    1
 10
1012
 20
-17
 11
959
 21
-17
 72
    1
 10
959
 20
-17
 11
958
 21
-15
 72
    1
 10
958
 20
-15
 11
956
 21
-19
 72
    1
 10
956
 20
-19
 11
955
 21
-17
 72
    1
 10
955
 20
-17
 11
922
 21
-17
 72
    1
 10
922
 20
-17
 11
922
 21
-7.000000000000002
 72
    1
 10
922
 20
-7.000000000000002
 11
1046
 21
-7.000000000000002
 72
    1
 10
1046
 20
-7.000000000000002
 11
1046
 21
-10
 72
    1
 10
1046
 20
-10
 11
1044
 21
-11
 97
    0
 75
    0
 76
    1
 52
3.141592653589793
 41
2
 77
    0
 78
    0
 98
    0
  0
HATCH
  5
1A6
100
AcDbEntity
  8
tekst
  6
DASHED2
 62
  256
370
   -1
100
AcDbHatch
 10
0
 20
0
 30
0
210
0
220
0
230
1
  2
gost_concrete
 70
    0
 71
    0
 91
    1
 92
    0
 93
   12
 72
    1
 10
902
 20
8.999999999999998
 11
898
 21
11
 72
    1
 10
898
 20
11
 11
900
 21
12
 72
    1
 10
900
 20
12
 11
900
 21
40
 72
    1
 10
900
 20
40
 11
922
 21
40
 72
    1
 10
922
 20
40
 11
922
 21
-17
 72
    1
 10
922
 20
-17
 11
913
 21
-17
 72
    1
 10
913
 20
-17
 11
912
 21
-15
 72
    1
 10
912
 20
-15
 11
910
 21
-19
 72
    1
 10
910
 20
-19
 11
909
 21
-17
 72
    1
 10
909
 20
-17
 11
900
 21
-17
 72
    1
 10
900
 20
-17
 11
900
 21
7.999999999999998
 72
    1
 10
900
 20
7.999999999999998
 11
902
 21
8.999999999999998
 97
    0
 75
    0
 76
    1
 52
4.71238898038469
 41
2
 77
    0
 78
    0
 98
    0
  0
HATCH
  5
1A7
100
AcDbEntity
  8
plytka3
  6
ByLayer
 62
  256
370
   -1
100
AcDbHatch
 10
0
 20
0
 30
0
210
0
220
0
230
1
  2
gost_stone
 70
    0
 71
    0
 91
    1
 92
    0
 93
    4
 72
    1
 10
910
 20
45
 11
910
 21
48
 72
    1
 10
910
 20
48
 11
958
 21
48
 72
    1
 10
958
 20
48
 11
958
 21
45
 72
    1
 10
958
 20
45
 11
910
 21
45
 97
    0
 75
    0
 76
    1
 52
3.141592653589793
 41
1
 77
    0
 78
    0
 98
    0
  0
HATCH
  5
1A8
100
AcDbEntity
  8
plytka3
  6
ByLayer
 62
  256
370
   -1
100
AcDbHatch
 10
0
 20
0
 30
0
210
0
220
0
230
1
  2
gost_stone
 70
    0
 71
    0
 91
    1
 92
    0
 93
    4
 72
    1
 10
958
 20
32
 11
958
 21
45
 72
    1
 10
958
 20
45
 11
955
 21
45
 72
    1
 10
955
 20
45
 11
955
 21
32
 72
    1
 10
955
 20
32
 11
958
 21
32
 97
    0
 75
    0
 76
    1
 52
3.141592653589793
 41
1
 77
    0
 78
    0
 98
    0
  0
HATCH
  5
1A9
100
AcDbEntity
  8
plytka3
  6
ByLayer
 62
  256
370
   -1
100
AcDbHatch
 10
0
 20
0
 30
0
210
0
220
0
230
1
  2
gost_stone
 70
    0
 71
    0
 91
    1
 92
    0
 93
    4
 72
    1
 10
956
 20
32
 11
956
 21
29
 72
    1
 10
956
 20
29
 11
986
 21
29
 72
    1
 10
986
 20
29
 11
986
 21
32
 72
    1
 10
986
 20
32
 11
956
 21
32
 97
    0
 75
    0
 76
    1
 52
3.141592653589793
 41
1
 77
    0
 78
    0
 98
    0
  0
HATCH
  5
1AA
100
AcDbEntity
  8
plytka3
  6
ByLayer
 62
  256
370
   -1
100
AcDbHatch
 10
0
 20
0
 30
0
210
0
220
0
230
1
  2
gost_stone
 70
    0
 71
    0
 91
    1
 92
    0
 93
    4
 72
    1
 10
986
 20
16
 11
986
 21
29
 72
    1
 10
986
 20
29
 11
983
 21
29
 72
    1
 10
983
 20
29
 11
983
 21
16
 72
    1
 10
983
 20
16
 11
986
 21
16
 97
    0
 75
    0
 76
    1
 52
3.141592653589793
 41
1
 77
    0
 78
    0
 98
    0
  0
HATCH
  5
1AB
100
AcDbEntity
  8
plytka3
  6
ByLayer
 62
  256
370
   -1
100
AcDbHatch
 10
0
 20
0
 30
0
210
0
220
0
230
1
  2
gost_stone
 70
    0
 71
    0
 91
    1
 92
    0
 93
    4
 72
    1
 10
984
 20
16
 11
984
 21
13
 72
    1
 10
984
 20
13
 11
1014
 21
13.00000000000002
 72
    1
 10
1014
 20
13.00000000000002
 11
1014
 21
16.00000000000002
 72
    1
 10
1014
 20
16.00000000000002
 11
984
 21
16
 97
    0
 75
    0
 76
    1
 52
3.141592653589793
 41
1
 77
    0
 78
    0
 98
    0
  0
HATCH
  5
1AC
100
AcDbEntity
  8
plytka3
  6
ByLayer
 62
  256
370
   -1
100
AcDbHatch
 10
0
 20
0
 30
0
210
0
220
0
230
1
  2
gost_stone
 70
    0
 71
    0
 91
    1
 92
    0
 93
    4
 72
    1
 10
1014
 20
13.00000000000002
 11
1011
 21
13.00000000000002
 72
    1
 10
1011
 20
13.00000000000002
 11
1011
 21
0
 72
    1
 10
1011
 20
0
 11
1014
 21
0
 72
    1
 10
1014
 20
0
 11
1014
 21
13.00000000000002
 97
    0
 75
    0
 76
    1
 52
3.141592653589793
 41
1
 77
    0
 78
    0
 98
    0
  0
HATCH
  5
1AD
100
AcDbEntity
  8
skhody
  6
DASHED2
 62
  256
370
   -1
100
AcDbHatch
 10
0
 20
0
 30
0
210
0
220
0
230
1
  2
gost_concrete
 70
    0
 71
    0
 91
    1
 92
    0
 93
    8
 72
    1
 10
982.5
 20
12.50000000000002
 11
982.5
 21
28.50000000000002
 72
    1
 10
982.5
 20
28.50000000000002
 11
954.5
 21
28.5
 72
    1
 10
954.5
 20
28.5
 11
954.5
 21
44.5
 72
    1
 10
954.5
 20
44.5
 11
922
 21
44.5
 72
    1
 10
922
 20
44.5
 11
922
 21
-7.000000000000002
 72
    1
 10
922
 20
-7.000000000000002
 11
1010.5
 21
-7
 72
    1
 10
1010.5
 20
-7
 11
1010.5
 21
12.50000000000002
 72
    1
 10
1010.5
 20
12.50000000000002
 11
982.5
 21
12.50000000000002
 97
    0
 75
    0
 76
    1
 52
4.71238898038469
 41
1
 77
    0
 78
    0
 98
    0
  0
HATCH
  5
1AE
100
AcDbEntity
  8
pisok
  6
DASHED2
 62
  256
370
   -1
100
AcDbHatch
 10
0
 20
0
 30
0
210
0
220
0
230
1
  2
gost_sand
 70
    0
 71
    0
 91
    1
 92
    0
 93
    8
 72
    1
 10
1045
 20
-6.000000000000002
 11
1046
 21
-5.000000000000002
 72
    1
 10
1046
 20
-5.000000000000002
 11
1045
 21
-4
 72
    1
 10
1045
 20
-4
 11
1046
 21
-3
 72
    1
 10
1046
 20
-3
 11
1010.5
 21
-3
 72
    1
 10
1010.5
 20
-3
 11
1010.5
 21
-7
 72
    1
 10
1010.5
 20
-7
 11
1046
 21
-7.000000000000002
 72
    1
 10
1046
 20
-7.000000000000002
 11
1046
 21
-7.000000000000002
 72
    1
 10
1046
 20
-7.000000000000002
 11
1045
 21
-6.000000000000002
 97
    0
 75
    0
 76
    1
 52
1.570796326794897
 41
1
 77
    0
 78
    0
 98
    0
  0
HATCH
  5
1AF
100
AcDbEntity
  8
dveri
  6
ByLayer
 62
  256
370
   -1
100
AcDbHatch
 10
0
 20
0
 30
0
210
0
220
0
230
1
  2
gost_metal
 70
    0
 71
    0
 91
    1
 92
    0
 93
   16
 72
    2
 10
906.4
 20
47.79999999999998
 40
0.3999999999999879
 50
90
 51
180.000000000002
 73
    0
 72
    1
 10
906
 20
47.8
 11
906
 21
51
 72
    2
 10
906.4
 20
51.00000000000001
 40
0.3999999999999879
 50
179.999999999998
 51
270
 73
    0
 72
    1
 10
906.4
 20
51.40000000000001
 11
909.6
 21
51.40000000000001
 72
    2
 10
909.6
 20
51.00000000000001
 40
0.3999999999999879
 50
270
 51
2.035554996136651e-12
 73
    0
 72
    1
 10
910
 20
51
 11
910
 21
47.8
 72
    2
 10
909.6
 20
47.79999999999998
 40
0.3999999999999879
 50
359.999999999998
 51
90
 73
    0
 72
    1
 10
909.6
 20
47.40000000000001
 11
906.4
 21
47.40000000000001
 72
    2
 10
909.6
 20
47.80000000000001
 40
0.1000000000000121
 50
8.142219984546603e-12
 51
90
 73
    0
 72
    1
 10
909.6
 20
47.69999999999999
 11
906.4
 21
47.69999999999999
 72
    2
 10
906.4000000000001
 20
47.79999999999998
 40
0.09999999999998721
 50
90.00000000003257
 51
180.0000000000122
 73
    0
 72
    1
 10
906.3
 20
47.80000000000001
 11
906.3
 21
51
 72
    2
 10
906.4
 20
50.99999999999999
 40
0.1000000000000085
 50
180.0000000000081
 51
270
 73
    0
 72
    1
 10
906.4
 20
51.09999999999999
 11
909.6
 21
51.09999999999999
 72
    2
 10
909.5999999999999
 20
51.00000000000001
 40
0.09999999999998366
 50
270.0000000000326
 51
8.142219984546603e-12
 73
    0
 72
    1
 10
909.7
 20
51
 11
909.7
 21
47.8
 97
    0
 75
    0
 76
    1
 52
3.141592653589793
 41
0.1
 77
    0
 78
    0
 98
    0
  0
HATCH
  5
1B0
100
AcDbEntity
  8
dveri
  6
ByLayer
 62
  256
370
   -1
100
AcDbHatch
 10
0
 20
0
 30
0
210
0
220
0
230
1
  2
gost_metal
 70
    0
 71
    0
 91
    1
 92
    0
 93
    4
 72
    1
 10
900
 20
47
 11
909
 21
47
 72
    1
 10
909
 20
47
 11
909
 21
47.40000000000001
 72
    1
 10
909
 20
47.40000000000001
 11
900
 21
47.40000000000001
 72
    1
 10
900
 20
47.40000000000001
 11
900
 21
47
 97
    0
 75
    0
 76
    1
 52
3.141592653589793
 41
0.1
 77
    0
 78
    0
 98
    0
  0
HATCH
  5
1B1
100
AcDbEntity
  8
skhody
  6
ByLayer
 62
  256
370
   -1
100
AcDbHatch
 10
0
 20
0
 30
0
210
0
220
0
230
1
  2
gost_concrete
 70
    0
 71
    0
 91
    1
 92
    0
 93
   10
 72
    1
 10
922
 20
44.5
 11
910
 21
44.5
 72
    1
 10
910
 20
44.5
 11
910
 21
47
 72
    1
 10
910
 20
47
 11
900
 21
47
 72
    1
 10
900
 20
47
 11
900
 21
44.99999999999999
 72
    1
 10
900
 20
44.99999999999999
 11
902
 21
43.99999999999999
 72
    1
 10
902
 20
43.99999999999999
 11
898
 21
42
 72
    1
 10
898
 20
42
 11
900
 21
41
 72
    1
 10
900
 20
41
 11
900
 21
40
 72
    1
 10
900
 20
40
 11
922
 21
40
 72
    1
 10
922
 20
40
 11
922
 21
44.5
 97
    0
 75
    0
 76
    1
 52
0
 41
1
 77
    0
 78
    0
 98
    0
  0
HATCH
  5
1B2
100
AcDbEntity
  8
plytka3
  6
ByLayer
 62
  256
370
   -1
100
AcDbHatch
 10
0
 20
0
 30
0
210
0
220
0
230
1
  2
gost_stone
 70
    0
 71
    0
 91
    1
 92
    0
 93
    9
 72
    1
 10
787
 20
-2
 11
788
 21
-1
 72
    1
 10
788
 20
-1
 11
787
 21
0
 72
    1
 10
787
 20
0
 11
787
 21
0
 72
    1
 10
787
 20
0
 11
590
 21
0
 72
    1
 10
590
 20
0
 11
591
 21
-1
 72
    1
 10
591
 20
-1
 11
590
 21
-2
 72
    1
 10
590
 20
-2
 11
591
 21
-3
 72
    1
 10
591
 20
-3
 11
788
 21
-3
 72
    1
 10
788
 20
-3
 11
787
 21
-2
 97
    0
 75
    0
 76
    1
 52
3.141592653589793
 41
1
 77
    0
 78
    0
 98
    0
  0
HATCH
  5
1B3
100
AcDbEntity
  8
pisok
  6
ByLayer
 62
  256
370
   -1
100
AcDbHatch
 10
0
 20
0
 30
0
210
0
220
0
230
1
  2
gost_sand
 70
    0
 71
    0
 91
    1
 92
    0
 93
   12
 72
    1
 10
590
 20
-8
 11
787
 21
-8
 72
    1
 10
787
 20
-8
 11
788
 21
-7
 72
    1
 10
788
 20
-7
 11
787
 21
-6
 72
    1
 10
787
 20
-6
 11
788
 21
-5
 72
    1
 10
788
 20
-5
 11
787
 21
-4
 72
    1
 10
787
 20
-4
 11
788
 21
-3
 72
    1
 10
788
 20
-3
 11
591
 21
-3
 72
    1
 10
591
 20
-3
 11
590
 21
-4
 72
    1
 10
590
 20
-4
 11
591
 21
-5
 72
    1
 10
591
 20
-5
 11
590
 21
-6
 72
    1
 10
590
 20
-6
 11
591
 21
-7
 72
    1
 10
591
 20
-7
 11
590
 21
-8
 97
    0
 75
    0
 76
    1
 52
3.141592653589793
 41
1
 77
    0
 78
    0
 98
    0
  0
HATCH
  5
1B4
100
AcDbEntity
  8
lyce
  6
ByLayer
 62
  256
370
   -1
100
AcDbHatch
 10
0
 20
0
 30
0
210
0
220
0
230
1
  2
gost_ceramics
 70
    0
 71
    0
 91
    1
 92
    0
 93
    8
 72
    1
 10
786
 20
-105
 11
788
 21
-104
 72
    1
 10
788
 20
-104
 11
788
 21
-100
 72
    1
 10
788
 20
-100
 11
763
 21
-100
 72
    1
 10
763
 20
-100
 11
763
 21
-112
 72
    1
 10
763
 20
-112
 11
788
 21
-112
 72
    1
 10
788
 20
-112
 11
788
 21
-108
 72
    1
 10
788
 20
-108
 11
790
 21
-107
 72
    1
 10
790
 20
-107
 11
786
 21
-105
 97
    0
 75
    0
 76
    1
 52
3.141592653589793
 41
1
 77
    0
 78
    0
 98
    0
  0
HATCH
  5
1B5
100
AcDbEntity
  8
sterodur
  6
ByLayer
 62
  256
370
   -1
100
AcDbHatch
 10
0
 20
0
 30
0
210
0
220
0
230
1
  2
gost_non-metal
 70
    0
 71
    0
 91
    1
 92
    0
 93
    8
 72
    1
 10
788
 20
-114
 11
789
 21
-113
 72
    1
 10
789
 20
-113
 11
788
 21
-112
 72
    1
 10
788
 20
-112
 11
778
 21
-112
 72
    1
 10
778
 20
-112
 11
778
 21
-117
 72
    1
 10
778
 20
-117
 11
789
 21
-117
 72
    1
 10
789
 20
-117
 11
788
 21
-116
 72
    1
 10
788
 20
-116
 11
789
 21
-115
 72
    1
 10
789
 20
-115
 11
788
 21
-114
 97
    0
 75
    0
 76
    1
 52
3.141592653589793
 41
2
 77
    0
 78
    0
 98
    0
  0
HATCH
  5
1B6
100
AcDbEntity
  8
sterodur
  6
ByLayer
 62
  256
370
   -1
100
AcDbHatch
 10
0
 20
0
 30
0
210
0
220
0
230
1
  2
gost_non-metal
 70
    0
 71
    0
 91
    1
 92
    0
 93
    8
 72
    1
 10
590
 20
-112
 11
656
 21
-112
 72
    1
 10
656
 20
-112
 11
656
 21
-117
 72
    1
 10
656
 20
-117
 11
589
 21
-117
 72
    1
 10
589
 20
-117
 11
590
 21
-116
 72
    1
 10
590
 20
-116
 11
589
 21
-115
 72
    1
 10
589
 20
-115
 11
590
 21
-114
 72
    1
 10
590
 20
-114
 11
589
 21
-113
 72
    1
 10
589
 20
-113
 11
590
 21
-112
 97
    0
 75
    0
 76
    1
 52
0
 41
2
 77
    0
 78
    0
 98
    0
  0
HATCH
  5
1B7
100
AcDbEntity
  8
lyce
  6
ByLayer
 62
  256
370
   -1
100
AcDbHatch
 10
0
 20
0
 30
0
210
0
220
0
230
1
  2
gost_ceramics
 70
    0
 71
    0
 91
    1
 92
    0
 93
    8
 72
    1
 10
588
 20
-107
 11
592
 21
-105
 72
    1
 10
592
 20
-105
 11
590
 21
-104
 72
    1
 10
590
 20
-104
 11
590
 21
-100
 72
    1
 10
590
 20
-100
 11
671
 21
-100
 72
    1
 10
671
 20
-100
 11
671
 21
-112
 72
    1
 10
671
 20
-112
 11
590
 21
-112
 72
    1
 10
590
 20
-112
 11
590
 21
-108
 72
    1
 10
590
 20
-108
 11
588
 21
-107
 97
    0
 75
    0
 76
    1
 52
0
 41
1
 77
    0
 78
    0
 98
    0
  0
HATCH
  5
1B8
100
AcDbEntity
  8
fundament
  6
ByLayer
 62
  256
370
   -1
100
AcDbHatch
 10
0
 20
0
 30
0
210
0
220
0
230
1
  2
gost_concrete
 70
    0
 71
    0
 91
    1
 92
    0
 93
   20
 72
    1
 10
740
 20
-18
 11
739
 21
-16
 72
    1
 10
739
 20
-16
 11
737
 21
-20
 72
    1
 10
737
 20
-20
 11
736
 21
-18
 72
    1
 10
736
 20
-18
 11
638
 21
-18
 72
    1
 10
638
 20
-18
 11
637
 21
-16
 72
    1
 10
637
 20
-16
 11
635
 21
-20
 72
    1
 10
635
 20
-20
 11
634
 21
-18
 72
    1
 10
634
 20
-18
 11
590
 21
-18
 72
    1
 10
590
 20
-18
 11
590
 21
-16
 72
    1
 10
590
 20
-16
 11
588
 21
-15
 72
    1
 10
588
 20
-15
 11
592
 21
-13
 72
    1
 10
592
 20
-13
 11
590
 21
-12
 72
    1
 10
590
 20
-12
 11
590
 21
-8
 72
    1
 10
590
 20
-8
 11
788
 21
-8
 72
    1
 10
788
 20
-8
 11
788
 21
-11
 72
    1
 10
788
 20
-11
 11
786
 21
-12
 72
    1
 10
786
 20
-12
 11
790
 21
-14
 72
    1
 10
790
 20
-14
 11
788
 21
-15
 72
    1
 10
788
 20
-15
 11
788
 21
-18
 72
    1
 10
788
 20
-18
 11
740
 21
-18
 97
    0
 75
    0
 76
    1
 52
3.141592653589793
 41
2
 77
    0
 78
    0
 98
    0
  0
MTEXT
  5
1B9
100
AcDbEntity
  8
tekst
  6
ByLayer
 62
  256
370
   -1
100
AcDbMText
 10
200
 20
100
 30
0
 40
10
 41
48.61111111111111
 71
    5
 72
    1
  1
 1
  7
cyrillic_ii
210
0
220
0
230
1
 50
0
 73
    2
 44
1
  0
LINE
  5
1BA
100
AcDbEntity
  8
tekst
  6
ByLayer
 62
  256
370
   -1
100
AcDbLine
 10
174
 20
93
 11
226
 21
93
  0
MTEXT
  5
1BB
100
AcDbEntity
  8
tekst
  6
ByLayer
 62
  256
370
   -1
100
AcDbMText
 10
1030
 20
-250
 30
0
 40
10
 41
48.6111111111122
 71
    6
 72
    1
  1
. 23
  7
cyrillic_ii
210
0
220
0
230
1
 50
0
 73
    2
 44
1
  0
MTEXT
  5
1BC
100
AcDbEntity
  8
tekst
  6
ByLayer
 62
  256
370
   -1
100
AcDbMText
 10
840
 20
-60
 30
0
 40
10
 41
190.5555555555575
 71
    1
 72
    1
  3
1. \P2.   3 \P3. \P4.  \P5.  \P6.  \P7.  \P8. . \P9. 
  1

  7
cyrillic_ii
210
0
220
0
230
1
 50
0
 73
    2
 44
1
  0
LWPOLYLINE
  5
1BD
100
AcDbEntity
  8
plytka3
  6
ByLayer
 62
  256
370
   -1
100
AcDbPolyline
 90
    9
 70
    0
 43
0
 10
778
 20
-148
 10
778
 20
-112
 10
763
 20
-112
 10
763
 20
-100
 10
671
 20
-100
 10
671
 20
-112
 10
656
 20
-112
 10
656
 20
-148
 10
778
 20
-148
  0
LWPOLYLINE
  5
1BE
100
AcDbEntity
  8
plytka3
  6
CONTINUOUS
 62
  256
370
   25
100
AcDbPolyline
 90
    5
 70
    0
 43
0
 10
656
 20
-117
 10
628
 20
-117
 10
628
 20
-176
 10
778
 20
-176
 10
778
 20
-148
  0
LWPOLYLINE
  5
1BF
100
AcDbEntity
  8
plytka3
  6
CONTINUOUS
 62
  256
370
   25
100
AcDbPolyline
 90
    5
 70
    0
 43
0
 10
628
 20
-117
 10
600
 20
-117
 10
600
 20
-204
 10
778
 20
-204
 10
778
 20
-176
  0
LWPOLYLINE
  5
1C0
100
AcDbEntity
  8
plytka3
  6
ByLayer
 62
  256
370
   -1
100
AcDbPolyline
 90
    9
 70
    1
 43
0
 10
787
 20
0
 10
590
 20
0
 10
591
 20
-1
 10
590
 20
-2
 10
591
 20
-3
 10
788
 20
-3
 10
787
 20
-2
 10
788
 20
-1
 10
787
 20
0
  0
LWPOLYLINE
  5
1C1
100
AcDbEntity
  8
pisok
  6
ByLayer
 62
  256
370
   -1
100
AcDbPolyline
 90
   13
 70
    0
 43
0
 10
788
 20
-3
 10
591
 20
-3
 10
590
 20
-4
 10
591
 20
-5
 10
590
 20
-6
 10
591
 20
-7
 10
590
 20
-8
 10
787
 20
-8
 10
788
 20
-7
 10
787
 20
-6
 10
788
 20
-5
 10
787
 20
-4
 10
788
 20
-3
  0
LWPOLYLINE
  5
1C2
100
AcDbEntity
  8
plytka3
  6
ByLayer
 62
  256
370
   -1
100
AcDbPolyline
 90
    4
 70
    0
 43
0
 10
778
 20
0
 10
778
 20
15
 10
600
 20
15
 10
600
 20
0
  0
LWPOLYLINE
  5
1C3
100
AcDbEntity
  8
plytka3
  6
ByLayer
 62
  256
370
   -1
100
AcDbPolyline
 90
    4
 70
    0
 43
0
 10
778
 20
15
 10
778
 20
30
 10
628
 20
30
 10
628
 20
15
  0
LWPOLYLINE
  5
1C4
100
AcDbEntity
  8
plytka3
  6
ByLayer
 62
  256
370
   -1
100
AcDbPolyline
 90
    4
 70
    0
 43
0
 10
656
 20
30
 10
656
 20
45
 10
778
 20
45
 10
778
 20
30
  0
LWPOLYLINE
  5
1C5
100
AcDbEntity
  8
lyce
  6
CONTINUOUS
 62
   41
420
16376252
370
   25
100
AcDbPolyline
 90
    8
 70
    1
 43
0
 10
788
 20
-100
 10
763
 20
-100
 10
763
 20
-112
 10
788
 20
-112
 10
788
 20
-108
 10
790
 20
-107
 10
786
 20
-105
 10
788
 20
-104
  0
LWPOLYLINE
  5
1C6
100
AcDbEntity
  8
sterodur
  6
ByLayer
 62
  256
370
   -1
100
AcDbPolyline
 90
    9
 70
    0
 43
0
 10
788
 20
-112
 10
778
 20
-112
 10
778
 20
-117
 10
789
 20
-117
 10
788
 20
-116
 10
789
 20
-115
 10
788
 20
-114
 10
789
 20
-113
 10
788
 20
-112
  0
LINE
  5
1C7
100
AcDbEntity
  8
fundament
  6
DASHED2
 62
  256
370
   -1
100
AcDbLine
 10
763
 20
-112
 11
671
 21
-112
  0
LWPOLYLINE
  5
1C8
100
AcDbEntity
  8
plytka3
  6
CONTINUOUS
 62
    2
370
   25
100
AcDbPolyline
 90
   30
 70
    0
 43
0
 10
778
 20
-117
 10
788
 20
-117
 10
788
 20
-149
 10
786
 20
-150
 10
790
 20
-152
 10
788
 20
-153
 10
788
 20
-182
 10
786
 20
-183
 10
790
 20
-185
 10
788
 20
-186
 10
788
 20
-214
 10
743
 20
-214
 10
742
 20
-212
 10
740
 20
-216
 10
739
 20
-214
 10
648
 20
-214
 10
647
 20
-212
 10
645
 20
-216
 10
644
 20
-214
 10
590
 20
-214
 10
590
 20
-186
 10
588
 20
-185
 10
592
 20
-183
 10
590
 20
-182
 10
590
 20
-154
 10
588
 20
-153
 10
592
 20
-151
 10
590
 20
-150
 10
590
 20
-117
 10
600
 20
-117
  0
LWPOLYLINE
  5
1C9
100
AcDbEntity
  8
sterodur
  6
ByLayer
 62
  256
370
   -1
100
AcDbPolyline
 90
    9
 70
    0
 43
0
 10
590
 20
-112
 10
656
 20
-112
 10
656
 20
-117
 10
589
 20
-117
 10
590
 20
-116
 10
589
 20
-115
 10
590
 20
-114
 10
589
 20
-113
 10
590
 20
-112
  0
LWPOLYLINE
  5
1CA
100
AcDbEntity
  8
lyce
  6
CONTINUOUS
 62
   41
420
16376252
370
   25
100
AcDbPolyline
 90
    8
 70
    1
 43
0
 10
590
 20
-100
 10
671
 20
-100
 10
671
 20
-112
 10
590
 20
-112
 10
590
 20
-108
 10
588
 20
-107
 10
592
 20
-105
 10
590
 20
-104
  0
LWPOLYLINE
  5
1CB
100
AcDbEntity
  8
lyce
  6
ByLayer
 62
  256
370
   -1
100
AcDbPolyline
 90
   13
 70
    0
 43
0
 10
778
 20
45
 10
778
 20
51
 10
776
 20
52
 10
780
 20
54
 10
778
 20
55
 10
778
 20
60
 10
773
 20
60
 10
772
 20
62
 10
770
 20
58
 10
769
 20
60
 10
763
 20
60
 10
763
 20
45
 10
778
 20
45
  0
LWPOLYLINE
  5
1CC
100
AcDbEntity
  8
lyce
  6
CONTINUOUS
 62
   41
420
16376252
370
   25
100
AcDbPolyline
 90
   17
 70
    0
 43
0
 10
590
 20
45
 10
590
 20
51
 10
592
 20
52
 10
588
 20
54
 10
590
 20
55
 10
590
 20
60
 10
611
 20
60
 10
612
 20
62
 10
614
 20
58
 10
615
 20
60
 10
646
 20
60
 10
647
 20
62
 10
649
 20
58
 10
650
 20
60
 10
671
 20
60
 10
671
 20
45
 10
590
 20
45
  0
LWPOLYLINE
  5
1CD
100
AcDbEntity
  8
sterodur
  6
ByLayer
 62
  256
370
   -1
100
AcDbPolyline
 90
   13
 70
    0
 43
0
 10
590
 20
45
 10
656
 20
45
 10
656
 20
30
 10
628
 20
30
 10
628
 20
15
 10
600
 20
15
 10
600
 20
0
 10
590
 20
0
 10
590
 20
19
 10
592
 20
20
 10
588
 20
22
 10
590
 20
23
 10
590
 20
45
  0
LWPOLYLINE
  5
1CE
100
AcDbEntity
  8
fundament
  6
CONTINUOUS
 62
  136
420
32896
370
   25
100
AcDbPolyline
 90
   20
 70
    1
 43
0
 10
788
 20
-8
 10
788
 20
-11
 10
786
 20
-12
 10
790
 20
-14
 10
788
 20
-15
 10
788
 20
-18
 10
740
 20
-18
 10
739
 20
-16
 10
737
 20
-20
 10
736
 20
-18
 10
638
 20
-18
 10
637
 20
-16
 10
635
 20
-20
 10
634
 20
-18
 10
590
 20
-18
 10
590
 20
-16
 10
588
 20
-15
 10
592
 20
-13
 10
590
 20
-12
 10
590
 20
-8
  0
LWPOLYLINE
  5
1CF
100
AcDbEntity
  8
skhody
  6
DASHED2
 62
  256
370
   -1
100
AcDbPolyline
 90
    4
 70
    0
 43
0
 10
774
 20
11
 10
774
 20
26
 10
632
 20
26
 10
632
 20
11
  0
LWPOLYLINE
  5
1D0
100
AcDbEntity
  8
skhody
  6
DASHED2
 62
  256
370
   -1
100
AcDbPolyline
 90
    4
 70
    0
 43
0
 10
774
 20
26
 10
774
 20
41
 10
660
 20
41
 10
660
 20
26
  0
LWPOLYLINE
  5
1D1
100
AcDbEntity
  8
skhody
  6
DASHED2
 62
  256
370
   -1
100
AcDbPolyline
 90
    4
 70
    1
 43
0
 10
774
 20
11
 10
604
 20
11
 10
604
 20
-8
 10
774
 20
-8
  0
LWPOLYLINE
  5
1D2
100
AcDbEntity
  8
skhody
  6
DASHED2
 62
  256
370
   -1
100
AcDbPolyline
 90
    4
 70
    1
 43
0
 10
774
 20
-112
 10
660
 20
-112
 10
660
 20
-144
 10
774
 20
-144
  0
LWPOLYLINE
  5
1D3
100
AcDbEntity
  8
skhody
  6
DASHED2
 62
  256
370
   -1
100
AcDbPolyline
 90
    5
 70
    0
 43
0
 10
774
 20
-144
 10
774
 20
-172
 10
632
 20
-172
 10
632
 20
-112
 10
660
 20
-112
  0
LWPOLYLINE
  5
1D4
100
AcDbEntity
  8
skhody
  6
DASHED2
 62
  256
370
   -1
100
AcDbPolyline
 90
    5
 70
    0
 43
0
 10
632
 20
-112
 10
604
 20
-112
 10
604
 20
-200
 10
774
 20
-200
 10
774
 20
-172
  0
DIMENSION
  5
1D5
100
AcDbEntity
  8
rozmir
  6
ByLayer
 62
  256
370
   -1
100
AcDbDimension
  2
*D1
 10
568
 20
2.694222958124177e-15
 30
0
 11
573
 21
-4
 31
0
 70
   32
 71
    5
  3
Standard
 53
0
210
0
220
0
230
1
100
AcDbAlignedDimension
 13
590
 23
-8
 33
0
 14
590
 24
0
 34
0
 50
90.00000000000001
100
AcDbRotatedDimension
  0
DIMENSION
  5
1D6
100
AcDbEntity
  8
rozmir
  6
ByLayer
 62
  256
370
   -1
100
AcDbDimension
  2
*D2
 10
568
 20
15
 30
0
 11
573
 21
7.499999999999998
 31
0
 70
   32
 71
    5
  3
Standard
 53
0
210
0
220
0
230
1
100
AcDbAlignedDimension
 13
590
 23
0
 33
0
 14
600
 24
15
 34
0
 50
90.00000000000001
100
AcDbRotatedDimension
  0
DIMENSION
  5
1D7
100
AcDbEntity
  8
rozmir
  6
ByLayer
 62
  256
370
   -1
100
AcDbDimension
  2
*D3
 10
568
 20
29.99999999999998
 30
0
 11
573
 21
22.5
 31
0
 70
   32
 71
    5
  3
Standard
 53
0
210
0
220
0
230
1
100
AcDbAlignedDimension
 13
600
 23
15
 33
0
 14
628
 24
30
 34
0
 50
90.00000000000001
100
AcDbRotatedDimension
  0
DIMENSION
  5
1D8
100
AcDbEntity
  8
rozmir
  6
ByLayer
 62
  256
370
   -1
100
AcDbDimension
  2
*D4
 10
568
 20
44.99999999999999
 30
0
 11
573
 21
37.5
 31
0
 70
   32
 71
    5
  3
Standard
 53
0
210
0
220
0
230
1
100
AcDbAlignedDimension
 13
628
 23
30
 33
0
 14
656
 24
45
 34
0
 50
90.00000000000001
100
AcDbRotatedDimension
  0
DIMENSION
  5
1D9
100
AcDbEntity
  8
rozmir
  6
ByLayer
 62
  256
370
   -1
100
AcDbDimension
  2
*D5
 10
798
 20
11
 30
0
 11
803
 21
1.499999999999998
 31
0
 70
   32
 71
    5
  3
Standard
 53
0
210
0
220
0
230
1
100
AcDbAlignedDimension
 13
774
 23
-8
 33
0
 14
774
 24
11
 34
0
 50
90.00000000000001
100
AcDbRotatedDimension
  0
DIMENSION
  5
1DA
100
AcDbEntity
  8
rozmir
  6
ByLayer
 62
  256
370
   -1
100
AcDbDimension
  2
*D6
 10
798
 20
26
 30
0
 11
803
 21
18.5
 31
0
 70
   32
 71
    5
  3
Standard
 53
0
210
0
220
0
230
1
100
AcDbAlignedDimension
 13
774
 23
11
 33
0
 14
774
 24
26
 34
0
 50
90.00000000000001
100
AcDbRotatedDimension
  0
DIMENSION
  5
1DB
100
AcDbEntity
  8
rozmir
  6
ByLayer
 62
  256
370
   -1
100
AcDbDimension
  2
*D7
 10
798
 20
41
 30
0
 11
803
 21
33.5
 31
0
 70
   32
 71
    5
  3
Standard
 53
0
210
0
220
0
230
1
100
AcDbAlignedDimension
 13
774
 23
26
 33
0
 14
774
 24
41
 34
0
 50
90.00000000000001
100
AcDbRotatedDimension
  0
DIMENSION
  5
1DC
100
AcDbEntity
  8
rozmir
  6
ByLayer
 62
  256
370
   -1
100
AcDbDimension
  2
*D8
 10
568
 20
-176
 30
0
 11
573
 21
-162
 31
0
 70
   32
 71
    5
  3
Standard
 53
0
210
0
220
0
230
1
100
AcDbAlignedDimension
 13
656
 23
-148
 33
0
 14
628
 24
-176
 34
0
 50
90.00000000000001
100
AcDbRotatedDimension
  0
DIMENSION
  5
1DD
100
AcDbEntity
  8
rozmir
  6
ByLayer
 62
  256
370
   -1
100
AcDbDimension
  2
*D9
 10
568
 20
-204
 30
0
 11
573
 21
-190
 31
0
 70
   32
 71
    5
  3
Standard
 53
0
210
0
220
0
230
1
100
AcDbAlignedDimension
 13
628
 23
-176
 33
0
 14
600
 24
-204
 34
0
 50
90.00000000000001
100
AcDbRotatedDimension
  0
DIMENSION
  5
1DE
100
AcDbEntity
  8
rozmir
  6
ByLayer
 62
  256
370
   -1
100
AcDbDimension
  2
*D10
 10
808
 20
-144
 30
0
 11
813
 21
-128
 31
0
 70
   32
 71
    5
  3
Standard
 53
0
210
0
220
0
230
1
100
AcDbAlignedDimension
 13
774
 23
-112
 33
0
 14
774
 24
-144
 34
0
 50
90.00000000000001
100
AcDbRotatedDimension
  0
DIMENSION
  5
1DF
100
AcDbEntity
  8
rozmir
  6
ByLayer
 62
  256
370
   -1
100
AcDbDimension
  2
*D11
 10
808
 20
-172
 30
0
 11
813
 21
-158
 31
0
 70
   32
 71
    5
  3
Standard
 53
0
210
0
220
0
230
1
100
AcDbAlignedDimension
 13
774
 23
-144
 33
0
 14
774
 24
-172
 34
0
 50
90.00000000000001
100
AcDbRotatedDimension
  0
DIMENSION
  5
1E0
100
AcDbEntity
  8
rozmir
  6
ByLayer
 62
  256
370
   -1
100
AcDbDimension
  2
*D12
 10
808
 20
-200
 30
0
 11
813
 21
-186
 31
0
 70
   32
 71
    5
  3
Standard
 53
0
210
0
220
0
230
1
100
AcDbAlignedDimension
 13
774
 23
-172
 33
0
 14
774
 24
-200
 34
0
 50
90.00000000000001
100
AcDbRotatedDimension
  0
DIMENSION
  5
1E1
100
AcDbEntity
  8
rozmir
  6
ByLayer
 62
  256
370
   -1
100
AcDbDimension
  2
*D13
 10
763
 20
-90
 30
0
 11
768.5
 21
-85
 31
0
 70
   32
 71
    5
  3
Standard
 53
0
210
0
220
0
230
1
100
AcDbAlignedDimension
 13
774
 23
-112
 33
0
 14
763
 24
-112
 34
0
 50
180
100
AcDbRotatedDimension
  0
DIMENSION
  5
1E2
100
AcDbEntity
  8
rozmir
  6
ByLayer
 62
  256
370
   -1
100
AcDbDimension
  2
*D14
 10
660
 20
-90
 30
0
 11
665.5
 21
-85
 31
0
 70
   32
 71
    5
  3
Standard
 53
0
210
0
220
0
230
1
100
AcDbAlignedDimension
 13
671
 23
-112
 33
0
 14
660
 24
-112
 34
0
 50
180
100
AcDbRotatedDimension
  0
DIMENSION
  5
1E3
100
AcDbEntity
  8
rozmir
  6
ByLayer
 62
  256
370
   -1
100
AcDbDimension
  2
*D15
 10
658
 20
-80
 30
0
 11
717
 21
-75
 31
0
 70
   32
 71
    5
  3
Standard
 53
0
210
0
220
0
230
1
100
AcDbAlignedDimension
 13
774
 23
-112
 33
0
 14
660
 24
-112
 34
0
 50
180
100
AcDbRotatedDimension
  0
DIMENSION
  5
1E4
100
AcDbEntity
  8
rozmir
  6
ByLayer
 62
  256
370
   -1
100
AcDbDimension
  2
*D16
 10
628
 20
-70
 30
0
 11
703
 21
-65
 31
0
 70
   32
 71
    5
  3
Standard
 53
0
210
0
220
0
230
1
100
AcDbAlignedDimension
 13
774
 23
-112
 33
0
 14
632
 24
-112
 34
0
 50
180
100
AcDbRotatedDimension
  0
DIMENSION
  5
1E5
100
AcDbEntity
  8
rozmir
  6
ByLayer
 62
  256
370
   -1
100
AcDbDimension
  2
*D17
 10
608
 20
-60
 30
0
 11
689
 21
-55
 31
0
 70
   32
 71
    5
  3
Standard
 53
0
210
0
220
0
230
1
100
AcDbAlignedDimension
 13
774
 23
-112
 33
0
 14
604
 24
-112
 34
0
 50
180
100
AcDbRotatedDimension
  0
DIMENSION
  5
1E6
100
AcDbEntity
  8
rozmir
  6
ByLayer
 62
  256
370
   -1
100
AcDbDimension
  2
*D18
 10
656
 20
-230
 30
0
 11
717
 21
-225
 31
0
 70
   32
 71
    5
  3
Standard
 53
0
210
0
220
0
230
1
100
AcDbAlignedDimension
 13
778
 23
-204
 33
0
 14
656
 24
-148
 34
0
 50
180
100
AcDbRotatedDimension
  0
DIMENSION
  5
1E7
100
AcDbEntity
  8
rozmir
  6
ByLayer
 62
  256
370
   -1
100
AcDbDimension
  2
*D19
 10
628
 20
-240
 30
0
 11
703
 21
-235
 31
0
 70
   32
 71
    5
  3
Standard
 53
0
210
0
220
0
230
1
100
AcDbAlignedDimension
 13
778
 23
-204
 33
0
 14
628
 24
-176
 34
0
 50
180
100
AcDbRotatedDimension
  0
DIMENSION
  5
1E8
100
AcDbEntity
  8
rozmir
  6
ByLayer
 62
  256
370
   -1
100
AcDbDimension
  2
*D20
 10
600
 20
-250
 30
0
 11
689
 21
-245
 31
0
 70
   32
 71
    5
  3
Standard
 53
0
210
0
220
0
230
1
100
AcDbAlignedDimension
 13
778
 23
-204
 33
0
 14
600
 24
-204
 34
0
 50
180
100
AcDbRotatedDimension
  0
DIMENSION
  5
1E9
100
AcDbEntity
  8
rozmir
  6
ByLayer
 62
  256
370
   -1
100
AcDbDimension
  2
*D21
 10
568
 20
-148
 30
0
 11
573
 21
-130
 31
0
 70
   32
 71
    5
  3
Standard
 53
0
210
0
220
0
230
1
100
AcDbAlignedDimension
 13
590
 23
-112
 33
0
 14
656
 24
-148
 34
0
 50
90.00000000000001
100
AcDbRotatedDimension
  0
DIMENSION
  5
1EA
100
AcDbEntity
  8
rozmir
  6
ByLayer
 62
  256
370
   -1
100
AcDbDimension
  2
*D22
 10
568
 20
-100
 30
0
 11
573
 21
-106
 31
0
 70
   32
 71
    5
  3
Standard
 53
0
210
0
220
0
230
1
100
AcDbAlignedDimension
 13
590
 23
-112
 33
0
 14
590
 24
-100
 34
0
 50
90.00000000000001
100
AcDbRotatedDimension
  0
LEADER
  5
1EB
100
AcDbEntity
  8
tekst
  6
ByLayer
 62
  256
370
   -1
100
AcDbLeader
  3
Standard
 71
    1
 72
    0
 73
    3
 74
    0
 75
    0
 40
1
 41
10
 76
3
 76
3
 10
602
 20
-105
 30
0
 10
588
 20
-80
 30
0
 10
578
 20
-80
 30
0
  0
LEADER
  5
1EC
100
AcDbEntity
  8
tekst
  6
ByLayer
 62
  256
370
   -1
100
AcDbLeader
  3
Standard
 71
    1
 72
    0
 73
    3
 74
    0
 75
    0
 40
1
 41
10
 76
3
 76
3
 10
597
 20
-115
 30
0
 10
588
 20
-90
 30
0
 10
578
 20
-90
 30
0
  0
MTEXT
  5
1ED
100
AcDbEntity
  8
tekst
  6
ByLayer
 62
  256
370
   -1
100
AcDbMText
 10
583
 20
-78
 30
0
 40
5
 41
2.222222222222222
 71
    8
 72
    1
  1
8
  7
cyrillic_ii
210
0
220
0
230
1
 50
360
 73
    2
 44
1
  0
MTEXT
  5
1EE
100
AcDbEntity
  8
tekst
  6
ByLayer
 62
  256
370
   -1
100
AcDbMText
 10
583
 20
-88
 30
0
 40
5
 41
2.222222222222532
 71
    8
 72
    1
  1
9
  7
cyrillic_ii
210
0
220
0
230
1
 50
360
 73
    2
 44
1
  0
DIMENSION
  5
1EF
100
AcDbEntity
  8
rozmir
  6
ByLayer
 62
  256
370
   -1
100
AcDbDimension
  2
*D25
 10
798
 20
-117
 30
0
 11
803
 21
-114.5
 31
0
 70
   32
 71
    5
 72
    0
  3
Standard
 53
0
210
0
220
0
230
1
100
AcDbAlignedDimension
 13
788
 23
-112
 33
0
 14
789
 24
-117
 34
0
 50
90.00000000000001
100
AcDbRotatedDimension
  0
DIMENSION
  5
1F0
100
AcDbEntity
  8
rozmir
  6
ByLayer
 62
  256
370
   -1
100
AcDbDimension
  2
*D26
 10
578
 20
-112
 30
0
 11
583
 21
-114.5
 31
0
 70
   32
 71
    5
 72
    0
  3
Standard
 53
0
210
0
220
0
230
1
100
AcDbAlignedDimension
 13
589
 23
-117
 33
0
 14
590
 24
-112
 34
0
 50
90.00000000000001
100
AcDbRotatedDimension
  0
LWPOLYLINE
  5
1F1
100
AcDbEntity
  8
plytka3
  6
ByLayer
 62
  256
370
   -1
100
AcDbPolyline
 90
    7
 70
    0
 43
0
 10
-232
 20
-308
 10
-266
 20
-308
 10
-266
 20
-366
 10
297
 20
-366
 10
297
 20
-11
 10
239
 20
-11
 10
239
 20
-45
  0
LWPOLYLINE
  5
1F2
100
AcDbEntity
  8
plytka3
  6
ByLayer
 62
  256
370
   -1
100
AcDbPolyline
 90
    7
 70
    0
 43
0
 10
239
 20
-11
 10
239
 20
23
 10
331
 20
23
 10
331
 20
-400
 10
-300
 20
-400
 10
-300
 20
-308
 10
-266
 20
-308
  0
LWPOLYLINE
  5
1F3
100
AcDbEntity
  8
plytka3
  6
CONTINUOUS
 62
    2
370
   25
100
AcDbPolyline
 90
    6
 70
    1
 43
0
 10
1045
 20
-3.000000000000002
 10
1046
 20
-2.000000000000002
 10
1045
 20
-1.000000000000002
 10
1046
 20
-1.77635683940025e-15
 10
1011
 20
0
 10
1011
 20
-3
  0
LEADER
  5
1F4
100
AcDbEntity
  8
tekst
  6
ByLayer
 62
  256
370
   -1
100
AcDbLeader
  3
Standard
 71
    1
 72
    0
 73
    3
 74
    0
 75
    0
 40
1
 41
10
 76
3
 76
3
 10
1029
 20
-5.000000000000002
 30
0
 10
1046
 20
20
 30
0
 10
1056
 20
20
 30
0
  0
LEADER
  5
1F5
100
AcDbEntity
  8
tekst
  6
ByLayer
 62
  256
370
   -1
100
AcDbLeader
  3
Standard
 71
    1
 72
    0
 73
    3
 74
    0
 75
    0
 40
1
 41
10
 76
3
 76
3
 10
1026
 20
-1.77635683940025e-15
 30
0
 10
1046
 20
30
 30
0
 10
1056
 20
30
 30
0
  0
LEADER
  5
1F6
100
AcDbEntity
  8
tekst
  6
ByLayer
 62
  256
370
   -1
100
AcDbLeader
  3
Standard
 71
    1
 72
    0
 73
    3
 74
    0
 75
    0
 40
1
 41
10
 76
3
 76
3
 10
1011
 20
1.999999999999998
 30
0
 10
1046
 20
40
 30
0
 10
1056
 20
40
 30
0
  0
LEADER
  5
1F7
100
AcDbEntity
  8
tekst
  6
ByLayer
 62
  256
370
   -1
100
AcDbLeader
  3
Standard
 71
    1
 72
    0
 73
    3
 74
    0
 75
    0
 40
1
 41
10
 76
3
 76
3
 10
926
 20
-1.77635683940025e-15
 30
0
 10
886
 20
9.999999999999998
 30
0
 10
876
 20
9.999999999999998
 30
0
  0
LEADER
  5
1F8
100
AcDbEntity
  8
tekst
  6
ByLayer
 62
  256
370
   -1
100
AcDbLeader
  3
Standard
 71
    1
 72
    0
 73
    3
 74
    0
 75
    0
 40
1
 41
10
 76
3
 76
3
 10
906
 20
-5.000000000000002
 30
0
 10
886
 20
-1.77635683940025e-15
 30
0
 10
876
 20
-1.77635683940025e-15
 30
0
  0
MTEXT
  5
1F9
100
AcDbEntity
  8
tekst
  6
ByLayer
 62
  256
370
   -1
100
AcDbMText
 10
1051
 20
42
 30
0
 40
5
 41
1.111111111111111
 71
    8
 72
    1
  1
1
  7
cyrillic_ii
210
0
220
0
230
1
 50
360
 73
    2
 44
1
  0
MTEXT
  5
1FA
100
AcDbEntity
  8
tekst
  6
ByLayer
 62
  256
370
   -1
100
AcDbMText
 10
1051
 20
32
 30
0
 40
5
 41
2.222222222222222
 71
    8
 72
    1
  1
2
  7
cyrillic_ii
210
0
220
0
230
1
 50
360
 73
    2
 44
1
  0
MTEXT
  5
1FB
100
AcDbEntity
  8
tekst
  6
ByLayer
 62
  256
370
   -1
100
AcDbMText
 10
1051
 20
22
 30
0
 40
5
 41
2.222222222222532
 71
    8
 72
    1
  1
3
  7
cyrillic_ii
210
0
220
0
230
1
 50
360
 73
    2
 44
1
  0
MTEXT
  5
1FC
100
AcDbEntity
  8
tekst
  6
ByLayer
 62
  256
370
   -1
100
AcDbMText
 10
1051
 20
12
 30
0
 40
5
 41
2.777777777777778
 71
    8
 72
    1
  1
4
  7
cyrillic_ii
210
0
220
0
230
1
 50
360
 73
    2
 44
1
  0
LWPOLYLINE
  5
1FD
100
AcDbEntity
  8
fundament
  6
CONTINUOUS
 62
  136
420
32896
370
   25
100
AcDbPolyline
 90
   16
 70
    1
 43
0
 10
1046
 20
-7.000000000000002
 10
1046
 20
-10
 10
1044
 20
-11
 10
1048
 20
-13
 10
1046
 20
-14
 10
1046
 20
-17
 10
1016
 20
-17
 10
1015
 20
-15
 10
1013
 20
-19
 10
1012
 20
-17
 10
959
 20
-17
 10
958
 20
-15
 10
956
 20
-19
 10
955
 20
-17
 10
922
 20
-17
 10
922
 20
-7.000000000000002
  0
LEADER
  5
1FE
100
AcDbEntity
  8
tekst
  6
ByLayer
 62
  256
370
   -1
100
AcDbLeader
  3
Standard
 71
    1
 72
    0
 73
    3
 74
    0
 75
    0
 40
1
 41
10
 76
3
 76
3
 10
1036
 20
-9.000000000000002
 30
0
 10
1046
 20
9.999999999999998
 30
0
 10
1056
 20
9.999999999999998
 30
0
  0
LWPOLYLINE
  5
1FF
100
AcDbEntity
  8
fundament
  6
CONTINUOUS
 62
  136
420
32896
370
   25
100
AcDbPolyline
 90
   12
 70
    1
 43
0
 10
922
 20
40
 10
922
 20
-17
 10
913
 20
-17
 10
912
 20
-15
 10
910
 20
-19
 10
909
 20
-17
 10
900
 20
-17
 10
900
 20
7.999999999999998
 10
902
 20
8.999999999999998
 10
898
 20
11
 10
900
 20
12
 10
900
 20
40
  0
LWPOLYLINE
  5
200
100
AcDbEntity
  8
plytka3
  6
ByLayer
 62
  256
370
   -1
100
AcDbPolyline
 90
    4
 70
    1
 43
0
 10
958
 20
48
 10
958
 20
45
 10
910
 20
45
 10
910
 20
48
  0
DIMENSION
  5
201
100
AcDbEntity
  8
rozmir
  6
ByLayer
 62
  256
370
   -1
100
AcDbDimension
  2
*D33
 10
910
 20
50
 30
0
 11
934
 21
55
 31
0
 70
   32
 71
    5
  3
Standard
 53
0
210
0
220
0
230
1
100
AcDbAlignedDimension
 13
958
 23
48
 33
0
 14
910
 24
48
 34
0
 50
180
100
AcDbRotatedDimension
  0
DIMENSION
  5
202
100
AcDbEntity
  8
rozmir
  6
ByLayer
 62
  256
370
   -1
100
AcDbDimension
  2
*D34
 10
886
 20
40.99999999999999
 30
0
 11
881
 21
42.24999999999999
 31
0
 70
   32
 71
    5
  3
Standard
 53
0
210
0
220
0
230
1
100
AcDbAlignedDimension
 13
922
 23
40
 33
0
 14
922
 24
44.5
 34
0
 50
90.00000000000001
100
AcDbRotatedDimension
  0
LWPOLYLINE
  5
203
100
AcDbEntity
  8
plytka3
  6
ByLayer
 62
  256
370
   -1
100
AcDbPolyline
 90
    4
 70
    1
 43
0
 10
986
 20
29
 10
986
 20
32
 10
956
 20
32
 10
956
 20
29
  0
LWPOLYLINE
  5
204
100
AcDbEntity
  8
plytka3
  6
ByLayer
 62
  256
370
   -1
100
AcDbPolyline
 90
    4
 70
    1
 43
0
 10
958
 20
32
 10
958
 20
45
 10
955
 20
45
 10
955
 20
32
  0
DIMENSION
  5
205
100
AcDbEntity
  8
rozmir
  6
ByLayer
 62
  256
370
   -1
100
AcDbDimension
  2
*D35
 10
958
 20
50
 30
0
 11
972
 21
55
 31
0
 70
   32
 71
    5
  3
Standard
 53
0
210
0
220
0
230
1
100
AcDbAlignedDimension
 13
986
 23
32
 33
0
 14
958
 24
48
 34
0
 50
180
100
AcDbRotatedDimension
  0
LWPOLYLINE
  5
206
100
AcDbEntity
  8
plytka3
  6
ByLayer
 62
  256
370
   -1
100
AcDbPolyline
 90
    4
 70
    1
 43
0
 10
1014
 20
0
 10
1014
 20
13.00000000000002
 10
1011
 20
13.00000000000002
 10
1011
 20
0
  0
LWPOLYLINE
  5
207
100
AcDbEntity
  8
plytka3
  6
ByLayer
 62
  256
370
   -1
100
AcDbPolyline
 90
    4
 70
    1
 43
0
 10
1014
 20
13.00000000000002
 10
1014
 20
16.00000000000002
 10
984
 20
16
 10
984
 20
13
  0
LWPOLYLINE
  5
208
100
AcDbEntity
  8
plytka3
  6
ByLayer
 62
  256
370
   -1
100
AcDbPolyline
 90
    4
 70
    1
 43
0
 10
986
 20
16
 10
986
 20
29
 10
983
 20
29
 10
983
 20
16
  0
DIMENSION
  5
209
100
AcDbEntity
  8
rozmir
  6
ByLayer
 62
  256
370
   -1
100
AcDbDimension
  2
*D36
 10
986
 20
40
 30
0
 11
1000
 21
45
 31
0
 70
   32
 71
    5
  3
Standard
 53
0
210
0
220
0
230
1
100
AcDbAlignedDimension
 13
1014
 23
16.00000000000002
 33
0
 14
986
 24
32
 34
0
 50
180
100
AcDbRotatedDimension
  0
LWPOLYLINE
  5
20A
100
AcDbEntity
  8
pisok
  6
CONTINUOUS
 62
  176
420
  128
370
   25
100
AcDbPolyline
 90
    8
 70
    1
 43
0
 10
1046
 20
-7.000000000000002
 10
1045
 20
-6.000000000000002
 10
1046
 20
-5.000000000000002
 10
1045
 20
-4
 10
1046
 20
-3
 10
1010.5
 20
-3
 10
1010.5
 20
-7
 10
1046
 20
-7.000000000000002
  0
LWPOLYLINE
  5
20B
100
AcDbEntity
  8
klei
  6
ByLayer
 62
  256
370
   -1
100
AcDbPolyline
 90
   18
 70
    0
 43
0
 10
1011
 20
-3
 10
1011
 20
13.00000000000002
 10
984
 20
13
 10
984
 20
16
 10
983
 20
16
 10
983
 20
29
 10
956
 20
29
 10
956
 20
32
 10
955
 20
32
 10
955
 20
45
 10
910
 20
45
 10
910
 20
44.5
 10
954.5
 20
44.5
 10
954.5
 20
28.5
 10
982.5
 20
28.50000000000002
 10
982.5
 20
12.50000000000002
 10
1010.5
 20
12.50000000000002
 10
1010.5
 20
-3
  0
LWPOLYLINE
  5
20C
100
AcDbEntity
  8
rozmir
  6
CONTINUOUS
 62
    8
370
   25
100
AcDbPolyline
 90
    9
 70
    0
 43
0
 10
1010.5
 20
-7
 10
1010.5
 20
12.50000000000002
 10
982.5
 20
12.50000000000002
 10
982.5
 20
28.50000000000002
 10
954.5
 20
28.5
 10
954.5
 20
44.5
 10
922
 20
44.5
 10
922
 20
-7.000000000000002
 10
1010.5
 20
-7
  0
LWPOLYLINE
  5
20D
100
AcDbEntity
  8
dveri
  6
ByLayer
 62
  256
370
   -1
100
AcDbPolyline
 90
    4
 70
    1
 43
0
 10
909
 20
47.40000000000001
 10
900
 20
47.40000000000001
 10
900
 20
47
 10
909
 20
47
  0
LWPOLYLINE
  5
20E
100
AcDbEntity
  8
dveri
  6
ByLayer
 62
  256
370
   -1
100
AcDbPolyline
 90
    8
 70
    1
 43
0
 10
906.4
 20
47.7
 42
-0.4142135623730534
 10
906.3
 20
47.80000000000001
 10
906.2999999999998
 20
51
 42
-0.4142135623733656
 10
906.4
 20
51.09999999999999
 10
909.6
 20
51.09999999999999
 42
-0.4142135623730118
 10
909.7
 20
51
 10
909.7000000000002
 20
47.8
 42
-0.4142135623733864
 10
909.6
 20
47.69999999999999
  0
LWPOLYLINE
  5
20F
100
AcDbEntity
  8
dveri
  6
ByLayer
 62
  256
370
   -1
100
AcDbPolyline
 90
    8
 70
    1
 43
0
 10
906.4
 20
47.39999999999999
 42
-0.4142135623730326
 10
906.0000000000001
 20
47.8
 10
906.0000000000001
 20
51
 42
-0.4142135623730326
 10
906.4
 20
51.40000000000001
 10
909.6
 20
51.40000000000001
 42
-0.4142135623730326
 10
909.9999999999999
 20
51
 10
910
 20
47.8
 42
-0.4142135623731003
 10
909.6
 20
47.40000000000002
  0
LEADER
  5
210
100
AcDbEntity
  8
tekst
  6
ByLayer
 62
  136
420
32896
370
   -1
100
AcDbLeader
  3
Standard
 71
    1
 72
    0
 73
    3
 74
    0
 75
    0
 40
1
 41
10
 76
3
 76
3
 10
906.0901623236047
 20
51.252983426903
 30
0
 10
886
 20
70
 30
0
 10
876
 20
70
 30
0
  0
MTEXT
  5
211
100
AcDbEntity
  8
tekst
  6
ByLayer
 62
  256
370
   -1
100
AcDbMText
 10
881
 20
72
 30
0
 40
5
 41
2.222222222222532
 71
    8
 72
    1
  1
5
  7
cyrillic_ii
210
0
220
0
230
1
 50
360
 73
    2
 44
1
  0
LEADER
  5
212
100
AcDbEntity
  8
tekst
  6
ByLayer
 62
  256
370
   -1
100
AcDbLeader
  3
Standard
 71
    1
 72
    0
 73
    3
 74
    0
 75
    0
 40
1
 41
10
 76
3
 76
3
 10
904.0000000000001
 20
47
 30
0
 10
886
 20
60
 30
0
 10
876
 20
60
 30
0
  0
DIMENSION
  5
213
100
AcDbEntity
  8
rozmir
  6
ByLayer
 62
  256
370
   -1
100
AcDbDimension
  2
*D39
 10
876
 20
44
 30
0
 11
871
 21
43.49999999999999
 31
0
 70
   32
 71
    5
  3
Standard
 53
0
210
0
220
0
230
1
100
AcDbAlignedDimension
 13
900
 23
40
 33
0
 14
900
 24
47
 34
0
 50
90.00000000000001
100
AcDbRotatedDimension
  0
LWPOLYLINE
  5
214
100
AcDbEntity
  8
skhody
  6
CONTINUOUS
 62
    8
370
   25
100
AcDbPolyline
 90
   11
 70
    0
 43
0
 10
922
 20
40
 10
922
 20
44.5
 10
910
 20
44.5
 10
910
 20
47
 10
900
 20
47
 10
900
 20
44.99999999999999
 10
902
 20
43.99999999999999
 10
898
 20
42
 10
900
 20
41
 10
900
 20
40
 10
922
 20
40
  0
MTEXT
  5
215
100
AcDbEntity
  8
tekst
  6
ByLayer
 62
  256
370
   -1
100
AcDbMText
 10
881
 20
62
 30
0
 40
5
 41
2.222222222222532
 71
    8
 72
    1
  1
6
  7
cyrillic_ii
210
0
220
0
230
1
 50
360
 73
    2
 44
1
  0
MTEXT
  5
216
100
AcDbEntity
  8
tekst
  6
ByLayer
 62
  256
370
   -1
100
AcDbMText
 10
881
 20
12
 30
0
 40
5
 41
2.222222222222222
 71
    8
 72
    1
  1
7
  7
cyrillic_ii
210
0
220
0
230
1
 50
360
 73
    2
 44
1
  0
MTEXT
  5
217
100
AcDbEntity
  8
tekst
  6
ByLayer
 62
  256
370
   -1
100
AcDbMText
 10
881
 20
1.999999999999998
 30
0
 40
5
 41
2.222222222222222
 71
    8
 72
    1
  1
8
  7
cyrillic_ii
210
0
220
0
230
1
 50
360
 73
    2
 44
1
  0
LWPOLYLINE
  5
218
100
AcDbEntity
  8
fundament
  6
CONTINUOUS
 62
  136
420
32896
370
   25
100
AcDbPolyline
 90
    8
 70
    1
 43
0
 10
22
 20
0
 10
22
 20
-10
 10
13
 20
-10
 10
12
 20
-8
 10
10
 20
-12
 10
9
 20
-10
 10
0
 20
-10
 10
0
 20
0
  0
LWPOLYLINE
  5
219
100
AcDbEntity
  8
dveri
  6
ByLayer
 62
  256
370
   -1
100
AcDbPolyline
 90
    4
 70
    1
 43
0
 10
9
 20
10.40000000000001
 10
0
 20
10.40000000000001
 10
0
 20
10
 10
9
 20
10
  0
LWPOLYLINE
  5
21A
100
AcDbEntity
  8
dveri
  6
ByLayer
 62
  256
370
   -1
100
AcDbPolyline
 90
    8
 70
    1
 43
0
 10
6.400000000000034
 20
10.7
 42
-0.4142135623729936
 10
6.299999999999955
 20
10.80000000000001
 10
6.299999999999969
 20
14
 42
-0.4142135623730534
 10
6.399999999999977
 20
14.09999999999999
 10
9.599999999999966
 20
14.1
 42
-0.4142135623729702
 10
9.700000000000044
 20
14
 10
9.700000000000035
 20
10.8
 42
-0.4142135623730534
 10
9.600000000000023
 20
10.69999999999999
  0
LWPOLYLINE
  5
21B
100
AcDbEntity
  8
dveri
  6
ByLayer
 62
  256
370
   -1
100
AcDbPolyline
 90
    8
 70
    1
 43
0
 10
6.399999999999977
 20
10.4
 42
-0.4142135623731049
 10
6
 20
10.8
 10
5.999999999999989
 20
14
 42
-0.4142135623731054
 10
6.399999999999977
 20
14.40000000000001
 10
9.600000000000023
 20
14.4
 42
-0.4142135623731041
 10
10
 20
14
 10
10.00000000000001
 20
10.8
 42
-0.4142135623731054
 10
9.600000000000023
 20
10.40000000000001
  0
LWPOLYLINE
  5
21C
100
AcDbEntity
  8
skhody
  6
CONTINUOUS
 62
    8
370
   25
100
AcDbPolyline
 90
    9
 70
    0
 43
0
 10
10
 20
0
 10
10
 20
10
 10
0
 20
10
 10
0
 20
7.999999999999993
 10
2
 20
6.999999999999993
 10
-2
 20
5
 10
0
 20
4
 10
0
 20
0
 10
10
 20
0
  0
LWPOLYLINE
  5
21D
100
AcDbEntity
  8
plytka3
  6
CONTINUOUS
 62
    2
370
   25
100
AcDbPolyline
 90
    6
 70
    1
 43
0
 10
22
 20
8.000000000000002
 10
23
 20
9.000000000000002
 10
22
 20
10
 10
23
 20
11
 10
10
 20
11
 10
10
 20
8.000000000000002
  0
LWPOLYLINE
  5
21E
100
AcDbEntity
  8
skhody
  6
CONTINUOUS
 62
    8
370
   25
100
AcDbPolyline
 90
    9
 70
    0
 43
0
 10
10
 20
0
 10
10
 20
7.500000000000001
 10
22
 20
7.500000000000001
 10
22
 20
6
 10
20
 20
5
 10
24
 20
3.000000000000007
 10
22
 20
2.000000000000007
 10
22
 20
0
 10
10
 20
0
  0
LWPOLYLINE
  5
21F
100
AcDbEntity
  8
skhody
  6
CONTINUOUS
 62
    8
370
   25
100
AcDbPolyline
 90
    7
 70
    0
 43
0
 10
-232
 20
-303
 10
-232
 20
-332
 10
263
 20
-332
 10
263
 20
-45
 10
234
 20
-45
 10
234
 20
-303
 10
-232
 20
-303
  0
LWPOLYLINE
  5
220
100
AcDbEntity
  8
lyce
  6
ByLayer
 62
  256
370
   -1
100
AcDbPolyline
 90
    8
 70
    0
 43
0
 10
234
 20
-303
 10
157
 20
-303
 10
157
 20
-239
 10
170
 20
-239
 10
170
 20
-226
 10
170
 20
-226
 10
234
 20
-226
 10
234
 20
-303
  0
LWPOLYLINE
  5
221
100
AcDbEntity
  8
lyce
  6
ByLayer
 62
  256
370
   -1
100
AcDbPolyline
 90
    4
 70
    1
 43
0
 10
-51
 20
-303
 10
0
 20
-303
 10
0
 20
-239
 10
-51
 20
-239
  0
LWPOLYLINE
  5
222
100
AcDbEntity
  8
lyce
  6
CONTINUOUS
 62
   41
420
16376252
370
   25
100
AcDbPolyline
 90
   11
 70
    0
 43
0
 10
-116
 20
737
 10
-116
 20
749
 10
234
 20
749
 10
234
 20
-69
 10
-208
 20
-69
 10
-208
 20
-108
 10
-220
 20
-108
 10
-220
 20
-57
 10
222
 20
-57
 10
222
 20
737
 10
-116
 20
737
  0
LWPOLYLINE
  5
223
100
AcDbEntity
  8
lyce
  6
ByLayer
 62
  256
370
   -1
100
AcDbPolyline
 90
    7
 70
    0
 43
0
 10
222
 20
-291
 10
169
 20
-291
 10
169
 20
-251
 10
182
 20
-251
 10
182
 20
-238
 10
222
 20
-238
 10
222
 20
-291
  0
LWPOLYLINE
  5
224
100
AcDbEntity
  8
lyce
  6
ByLayer
 62
  256
370
   -1
100
AcDbPolyline
 90
    4
 70
    1
 43
0
 10
-39
 20
-291
 10
-12
 20
-291
 10
-12
 20
-251
 10
-39
 20
-251
  0
LWPOLYLINE
  5
225
100
AcDbEntity
  8
lyce
  6
CONTINUOUS
 62
   41
420
16376252
370
   25
100
AcDbPolyline
 90
    6
 70
    0
 43
0
 10
-317
 20
-303
 10
-208
 20
-303
 10
-208
 20
-289
 10
-220
 20
-289
 10
-220
 20
-291
 10
-305
 20
-291
  0
LWPOLYLINE
  5
226
100
AcDbEntity
  8
plytka3
  6
CONTINUOUS
 62
    2
370
   25
100
AcDbPolyline
 90
   39
 70
    0
 43
0
 10
239
 20
23
 10
239
 20
33
 10
263
 20
33
 10
264
 20
31
 10
266
 20
35
 10
267
 20
33
 10
304
 20
33
 10
305
 20
31
 10
307
 20
35
 10
308
 20
33
 10
341
 20
33
 10
341
 20
1
 10
339
 20
0
 10
343
 20
-2
 10
341
 20
-3
 10
341
 20
-32
 10
339
 20
-33
 10
343
 20
-35
 10
341
 20
-36
 10
341
 20
-410
 10
-157
 20
-410
 10
-158
 20
-408
 10
-160
 20
-412
 10
-161
 20
-410
 10
-252
 20
-410
 10
-253
 20
-408
 10
-255
 20
-412
 10
-256
 20
-410
 10
-310
 20
-410
 10
-310
 20
-377
 10
-312
 20
-376
 10
-308
 20
-374
 10
-310
 20
-373
 10
-310
 20
-345
 10
-312
 20
-344
 10
-308
 20
-342
 10
-310
 20
-341
 10
-310
 20
-308
 10
-300
 20
-308
  0
ENDSEC
  0
SECTION
  2
OBJECTS
  0
DICTIONARY
  5
C
330
0
100
AcDbDictionary
281
    1
  3
ACAD_GROUP
350
D
  0
DICTIONARY
  5
D
330
C
100
AcDbDictionary
281
    1
  0
ENDSEC
  0
EOF
