999
dxfrw 0.6.3
  0
SECTION
  2
HEADER
  9
$ACADVER
  1
AC1021
  9
$DWGCODEPAGE
  3
ANSI_1252
  9
$INSBASE
 10
0
 20
0
 30
0
  9
$EXTMIN
 10
10000000000
 20
10000000000
 30
0
  9
$EXTMAX
 10
-10000000000
 20
-10000000000
 30
0
  9
$LIMMIN
 10
0
 20
0
  9
$LIMMAX
 10
420
 20
297
  9
$ORTHOMODE
 70
    0
  9
$REGENMODE
 70
    1
  9
$FILLMODE
 70
    1
  9
$QTEXTMODE
 70
    0
  9
$MIRRTEXT
 70
    0
  9
$LTSCALE
 40
1
  9
$ATTMODE
 70
    0
  9
$TEXTSIZE
 40
2.5
  9
$TRACEWID
 40
15.68
  9
$TEXTSTYLE
  7
STANDARD
  9
$CLAYER
  8
dveri
  9
$CELTYPE
  6
BYLAYER
  9
$CECOLOR
 62
  256
  9
$CELTSCALE
 40
1
  9
$DISPSILH
 70
    0
  9
$DIMSCALE
 40
5
  9
$DIMASZ
 40
1
  9
$DIMEXO
 40
0.2
  9
$DIMDLI
 40
3.75
  9
$DIMRND
 40
0
  9
$DIMDLE
 40
0
  9
$DIMEXE
 40
0.5
  9
$DIMTP
 40
0
  9
$DIMTM
 40
0
  9
$DIMTXT
 40
1
  9
$DIMCEN
 40
2.5
  9
$DIMTSZ
 40
0
  9
$DIMTOL
 70
    0
  9
$DIMLIM
 70
    0
  9
$DIMTIH
 70
    0
  9
$DIMTOH
 70
    0
  9
$DIMSE1
 70
    0
  9
$DIMSE2
 70
    0
  9
$DIMTAD
 70
    1
  9
$DIMZIN
 70
    8
  9
$DIMBLK
  1

  9
$DIMASO
 70
    1
  9
$DIMSHO
 70
    1
  9
$DIMPOST
  1

  9
$DIMAPOST
  1

  9
$DIMALT
 70
    0
  9
$DIMALTD
 70
    3
  9
$DIMALTF
 40
0.03937
  9
$DIMLFAC
 40
1
  9
$DIMTOFL
 70
    1
  9
$DIMTVP
 40
0
  9
$DIMTIX
 70
    0
  9
$DIMSOXD
 70
    0
  9
$DIMSAH
 70
    0
  9
$DIMBLK1
  1

  9
$DIMBLK2
  1

  9
$DIMSTYLE
  2
STANDARD
  9
$DIMCLRD
 70
    0
  9
$DIMCLRE
 70
    0
  9
$DIMCLRT
 70
    0
  9
$DIMTFAC
 40
1
  9
$DIMGAP
 40
0.5
  9
$DIMJUST
 70
    0
  9
$DIMSD1
 70
    0
  9
$DIMSD2
 70
    0
  9
$DIMTOLJ
 70
    0
  9
$DIMTZIN
 70
    8
  9
$DIMALTZ
 70
    0
  9
$DIMALTTZ
 70
    0
  9
$DIMUPT
 70
    0
  9
$DIMDEC
 70
    1
  9
$DIMTDEC
 70
    2
  9
$DIMALTU
 70
    2
  9
$DIMALTTD
 70
    3
  9
$DIMTXSTY
  7
standard
  9
$DIMAUNIT
 70
    0
  9
$DIMADEC
 70
    0
  9
$DIMALTRND
 40
0
  9
$DIMAZIN
 70
    0
  9
$DIMDSEP
 70
   44
  9
$DIMATFIT
 70
    3
  9
$DIMFRAC
 70
    0
  9
$DIMLDRBLK
  1
STANDARD
  9
$DIMLUNIT
 70
    2
  9
$DIMLWD
 70
   -2
  9
$DIMLWE
 70
   -2
  9
$DIMTMOVE
 70
    0
  9
$DIMFXL
 40
1
  9
$DIMFXLON
 70
    0
  9
$DIMJOGANG
 40
0.7854
  9
$DIMTFILL
 70
    0
  9
$DIMTFILLCLR
 70
    0
  9
$DIMARCSYM
 70
    0
  9
$DIMLTYPE
  6

  9
$DIMLTEX1
  6

  9
$DIMLTEX2
  6

  9
$LUNITS
 70
    2
  9
$LUPREC
 70
    2
  9
$SKETCHINC
 40
1
  9
$FILLETRAD
 40
0
  9
$AUNITS
 70
    0
  9
$AUPREC
 70
    2
  9
$MENU
  1
.
  9
$ELEVATION
 40
0
  9
$PELEVATION
 40
0
  9
$THICKNESS
 40
0
  9
$LIMCHECK
 70
    0
  9
$CHAMFERA
 40
0
  9
$CHAMFERB
 40
0
  9
$CHAMFERC
 40
0
  9
$CHAMFERD
 40
0
  9
$SKPOLY
 70
    0
  9
$USRTIMER
 70
    1
  9
$ANGBASE
 50
0
  9
$ANGDIR
 70
    0
  9
$PDMODE
 70
   34
  9
$PDSIZE
 40
0
  9
$PLINEWID
 40
0
  9
$SPLFRAME
 70
    0
  9
$SPLINETYPE
 70
    2
  9
$SPLINESEGS
 70
    8
  9
$HANDSEED
  5
20000
  9
$SURFTAB1
 70
    6
  9
$SURFTAB2
 70
    6
  9
$SURFTYPE
 70
    6
  9
$SURFU
 70
    6
  9
$SURFV
 70
    6
  9
$UCSBASE
  2

  9
$UCSNAME
  2

  9
$UCSORG
 10
0
 20
0
 30
0
  9
$UCSXDIR
 10
1
 20
0
 30
0
  9
$UCSYDIR
 10
0
 20
1
 30
0
  9
$UCSORTHOREF
  2

  9
$UCSORTHOVIEW
 70
    0
  9
$UCSORGTOP
 10
0
 20
0
 30
0
  9
$UCSORGBOTTOM
 10
0
 20
0
 30
0
  9
$UCSORGLEFT
 10
0
 20
0
 30
0
  9
$UCSORGRIGHT
 10
0
 20
0
 30
0
  9
$UCSORGFRONT
 10
0
 20
0
 30
0
  9
$UCSORGBACK
 10
0
 20
0
 30
0
  9
$PUCSBASE
  2

  9
$PUCSNAME
  2

  9
$PUCSORG
 10
0
 20
0
 30
0
  9
$PUCSXDIR
 10
1
 20
0
 30
0
  9
$PUCSYDIR
 10
0
 20
1
 30
0
  9
$PUCSORTHOREF
  2

  9
$PUCSORTHOVIEW
 70
    0
  9
$PUCSORGTOP
 10
0
 20
0
 30
0
  9
$PUCSORGBOTTOM
 10
0
 20
0
 30
0
  9
$PUCSORGLEFT
 10
0
 20
0
 30
0
  9
$PUCSORGRIGHT
 10
0
 20
0
 30
0
  9
$PUCSORGFRONT
 10
0
 20
0
 30
0
  9
$PUCSORGBACK
 10
0
 20
0
 30
0
  9
$USERI1
 70
    0
  9
$USERI2
 70
    0
  9
$USERI3
 70
    0
  9
$USERI4
 70
    0
  9
$USERI5
 70
    0
  9
$USERR1
 40
0
  9
$USERR2
 40
0
  9
$USERR3
 40
0
  9
$USERR4
 40
0
  9
$USERR5
 40
0
  9
$WORLDVIEW
 70
    1
  9
$SHADEDGE
 70
    3
  9
$SHADEDIF
 70
   70
  9
$TILEMODE
 70
    1
  9
$MAXACTVP
 70
   64
  9
$PINSBASE
 10
10.32063559322034
 20
4.463983050847458
 30
0
  9
$PLIMCHECK
 70
    0
  9
$PEXTMIN
 10
0
 20
0
 30
0
  9
$PEXTMAX
 10
0
 20
0
 30
0
  9
$GRIDMODE
 70
    1
  9
$SNAPSTYLE
 70
    0
  9
$GRIDUNIT
 10
0
 20
0
  9
$PLIMMIN
 10
0
 20
0
  9
$PLIMMAX
 10
29.7
 20
21
  9
$UNITMODE
 70
    0
  9
$VISRETAIN
 70
    1
  9
$PLINEGEN
 70
    0
  9
$PSLTSCALE
 70
    1
  9
$TREEDEPTH
 70
 3020
  9
$CMLSTYLE
  2
Standard
  9
$CMLJUST
 70
    0
  9
$CMLSCALE
 40
20
  9
$PROXYGRAPHICS
 70
    1
  9
$MEASUREMENT
 70
    1
  9
$CELWEIGHT
370
   -1
  9
$ENDCAPS
280
    0
  9
$JOINSTYLE
280
    0
  9
$LWDISPLAY
290
    0
  9
$INSUNITS
 70
    5
  9
$HYPERLINKBASE
  1

  9
$STYLESHEET
  1

  9
$XEDIT
290
    1
  9
$CEPSNTYPE
380
    0
  9
$PSTYLEMODE
290
    1
  9
$EXTNAMES
290
    1
  9
$PSVPSCALE
 40
0.009406806765375426
  9
$OLESTARTUP
290
    0
  9
$SORTENTS
280
  127
  9
$INDEXCTL
280
    0
  9
$HIDETEXT
280
    1
  9
$XCLIPFRAME
290
    0
  9
$HALOGAP
280
    0
  9
$OBSCOLOR
 70
  257
  9
$OBSLTYPE
280
    0
  9
$INTERSECTIONDISPLAY
280
    0
  9
$INTERSECTIONCOLOR
 70
  257
  9
$DIMASSOC
280
    1
  9
$PROJECTNAME
  1

  9
$CAMERADISPLAY
290
    0
  9
$LENSLENGTH
 40
50
  9
$CAMERAHEIGHT
 40
0
  9
$STEPSPERSEC
 40
2
  9
$STEPSIZE
 40
50
  9
$3DDWFPREC
 40
2
  9
$PSOLWIDTH
 40
5
  9
$PSOLHEIGHT
 40
80
  9
$LOFTANG1
 40
1.570796326794897
  9
$LOFTANG2
 40
1.570796326794897
  9
$LOFTMAG1
 40
0
  9
$LOFTMAG2
 40
0
  9
$LOFTPARAM
 70
    7
  9
$LOFTNORMALS
280
    1
  9
$LATITUDE
 40
1
  9
$LONGITUDE
 40
1
  9
$NORTHDIRECTION
 40
0
  9
$TIMEZONE
 70
-8000
  9
$LIGHTGLYPHDISPLAY
280
    1
  9
$TILEMODELIGHTSYNCH
280
    1
  9
$SOLIDHIST
280
    1
  9
$SHOWHIST
280
    1
  9
$DWFFRAME
280
    2
  9
$DGNFRAME
280
    0
  9
$REALWORLDSCALE
290
    1
  9
$INTERFERECOLOR
 62
    1
  9
$CSHADOW
280
    0
  9
$SHADOWPLANELOCATION
 40
0
  0
ENDSEC
  0
SECTION
  2
CLASSES
  0
ENDSEC
  0
SECTION
  2
TABLES
  0
TABLE
  2
VPORT
  5
8
330
0
100
AcDbSymbolTable
 70
    1
  0
VPORT
  5
31
330
2
100
AcDbSymbolTableRecord
100
AcDbViewportTableRecord
  2
*ACTIVE
 70
    0
 10
0
 20
0
 11
1
 21
1
 12
29.43264052832174
 22
-59.52917520389885
 13
0
 23
0
 14
10
 24
10
 15
10
 25
10
 16
0
 26
0
 36
1
 17
0
 27
0
 37
0
 40
26.5557658902151
 41
1.65
 42
50
 43
0
 44
0
 50
0
 51
0
 71
    0
 72
  100
 73
    1
 74
    3
 75
    0
 76
    1
 77
    0
 78
    0
281
    0
 65
    1
110
0
120
0
130
0
111
1
121
0
131
0
112
0
122
1
132
0
 79
    0
146
0
348
10020
 60
    7
 61
    5
292
1
282
    1
141
0
142
0
 63
  250
421
3358443
  0
ENDTAB
  0
TABLE
  2
LTYPE
  5
5
330
0
100
AcDbSymbolTable
 70
    4
  0
LTYPE
  5
14
330
5
100
AcDbSymbolTableRecord
100
AcDbLinetypeTableRecord
  2
ByBlock
 70
    0
  3

 72
   65
 73
    0
 40
0
  0
LTYPE
  5
15
330
5
100
AcDbSymbolTableRecord
100
AcDbLinetypeTableRecord
  2
ByLayer
 70
    0
  3

 72
   65
 73
    0
 40
0
  0
LTYPE
  5
16
330
5
100
AcDbSymbolTableRecord
100
AcDbLinetypeTableRecord
  2
Continuous
 70
    0
  3
Solid line
 72
   65
 73
    0
 40
0
  0
LTYPE
  5
32
330
5
100
AcDbSymbolTableRecord
100
AcDbLinetypeTableRecord
  2
DOT
 70
    0
  3
Dot . . . . . . . . . . . . . . . . . . . . . .
 72
   65
 73
    2
 40
6.35
 49
0
 74
    0
 49
-6.35
 74
    0
  0
LTYPE
  5
33
330
5
100
AcDbSymbolTableRecord
100
AcDbLinetypeTableRecord
  2
DOTTINY
 70
    0
  3
Dot (.15x) .....................................
 72
   65
 73
    2
 40
0.9525
 49
0
 74
    0
 49
-0.9525
 74
    0
  0
LTYPE
  5
34
330
5
100
AcDbSymbolTableRecord
100
AcDbLinetypeTableRecord
  2
DOT2
 70
    0
  3
Dot (.5x) .....................................
 72
   65
 73
    2
 40
3.175
 49
0
 74
    0
 49
-3.175
 74
    0
  0
LTYPE
  5
35
330
5
100
AcDbSymbolTableRecord
100
AcDbLinetypeTableRecord
  2
DOTX2
 70
    0
  3
Dot (2x) .  .  .  .  .  .  .  .  .  .  .  .  .
 72
   65
 73
    2
 40
12.7
 49
0
 74
    0
 49
-12.7
 74
    0
  0
LTYPE
  5
36
330
5
100
AcDbSymbolTableRecord
100
AcDbLinetypeTableRecord
  2
DASHED
 70
    0
  3
Dashed _ _ _ _ _ _ _ _ _ _ _ _ _ _ _ _ _
 72
   65
 73
    2
 40
19.05
 49
12.7
 74
    0
 49
-6.35
 74
    0
  0
LTYPE
  5
37
330
5
100
AcDbSymbolTableRecord
100
AcDbLinetypeTableRecord
  2
DASHEDTINY
 70
    0
  3
Dashed (.15x) _ _ _ _ _ _ _ _ _ _ _ _ _ _ _ _ _
 72
   65
 73
    2
 40
2.8575
 49
1.905
 74
    0
 49
-0.9525
 74
    0
  0
LTYPE
  5
38
330
5
100
AcDbSymbolTableRecord
100
AcDbLinetypeTableRecord
  2
DASHED2
 70
    0
  3
Dashed (.5x) _ _ _ _ _ _ _ _ _ _ _ _ _ _ _ _ _
 72
   65
 73
    2
 40
9.524999999999999
 49
6.35
 74
    0
 49
-3.175
 74
    0
  0
LTYPE
  5
39
330
5
100
AcDbSymbolTableRecord
100
AcDbLinetypeTableRecord
  2
DASHEDX2
 70
    0
  3
Dashed (2x) ____  ____  ____  ____  ____  ___
 72
   65
 73
    2
 40
38.09999999999999
 49
25.4
 74
    0
 49
-12.7
 74
    0
  0
LTYPE
  5
3A
330
5
100
AcDbSymbolTableRecord
100
AcDbLinetypeTableRecord
  2
DASHDOT
 70
    0
  3
Dash dot __ . __ . __ . __ . __ . __ . __ . __
 72
   65
 73
    4
 40
25.4
 49
12.7
 74
    0
 49
-6.35
 74
    0
 49
0
 74
    0
 49
-6.35
 74
    0
  0
LTYPE
  5
3B
330
5
100
AcDbSymbolTableRecord
100
AcDbLinetypeTableRecord
  2
DASHDOTTINY
 70
    0
  3
Dash dot (.15x) _._._._._._._._._._._._._._._.
 72
   65
 73
    4
 40
3.81
 49
1.905
 74
    0
 49
-0.9525
 74
    0
 49
0
 74
    0
 49
-0.9525
 74
    0
  0
LTYPE
  5
3C
330
5
100
AcDbSymbolTableRecord
100
AcDbLinetypeTableRecord
  2
DASHDOT2
 70
    0
  3
Dash dot (.5x) _._._._._._._._._._._._._._._.
 72
   65
 73
    4
 40
12.7
 49
6.35
 74
    0
 49
-3.175
 74
    0
 49
0
 74
    0
 49
-3.175
 74
    0
  0
LTYPE
  5
3D
330
5
100
AcDbSymbolTableRecord
100
AcDbLinetypeTableRecord
  2
DASHDOTX2
 70
    0
  3
Dash dot (2x) ____  .  ____  .  ____  .  ___
 72
   65
 73
    4
 40
50.8
 49
25.4
 74
    0
 49
-12.7
 74
    0
 49
0
 74
    0
 49
-12.7
 74
    0
  0
LTYPE
  5
3E
330
5
100
AcDbSymbolTableRecord
100
AcDbLinetypeTableRecord
  2
DIVIDE
 70
    0
  3
Divide ____ . . ____ . . ____ . . ____ . . ____
 72
   65
 73
    6
 40
31.75
 49
12.7
 74
    0
 49
-6.35
 74
    0
 49
0
 74
    0
 49
-6.35
 74
    0
 49
0
 74
    0
 49
-6.35
 74
    0
  0
LTYPE
  5
3F
330
5
100
AcDbSymbolTableRecord
100
AcDbLinetypeTableRecord
  2
DIVIDETINY
 70
    0
  3
Divide (.15x) __..__..__..__..__..__..__..__.._
 72
   65
 73
    6
 40
4.7625
 49
1.905
 74
    0
 49
-0.9525
 74
    0
 49
0
 74
    0
 49
-0.9525
 74
    0
 49
0
 74
    0
 49
-0.9525
 74
    0
  0
LTYPE
  5
40
330
5
100
AcDbSymbolTableRecord
100
AcDbLinetypeTableRecord
  2
DIVIDE2
 70
    0
  3
Divide (.5x) __..__..__..__..__..__..__..__.._
 72
   65
 73
    6
 40
15.875
 49
6.35
 74
    0
 49
-3.175
 74
    0
 49
0
 74
    0
 49
-3.175
 74
    0
 49
0
 74
    0
 49
-3.175
 74
    0
  0
LTYPE
  5
41
330
5
100
AcDbSymbolTableRecord
100
AcDbLinetypeTableRecord
  2
DIVIDEX2
 70
    0
  3
Divide (2x) ________  .  .  ________  .  .  _
 72
   65
 73
    6
 40
63.5
 49
25.4
 74
    0
 49
-12.7
 74
    0
 49
0
 74
    0
 49
-12.7
 74
    0
 49
0
 74
    0
 49
-12.7
 74
    0
  0
LTYPE
  5
42
330
5
100
AcDbSymbolTableRecord
100
AcDbLinetypeTableRecord
  2
BORDER
 70
    0
  3
Border __ __ . __ __ . __ __ . __ __ . __ __ .
 72
   65
 73
    6
 40
44.45
 49
12.7
 74
    0
 49
-6.35
 74
    0
 49
12.7
 74
    0
 49
-6.35
 74
    0
 49
0
 74
    0
 49
-6.35
 74
    0
  0
LTYPE
  5
43
330
5
100
AcDbSymbolTableRecord
100
AcDbLinetypeTableRecord
  2
BORDERTINY
 70
    0
  3
Border (.15x) __.__.__.__.__.__.__.__.__.__.__.
 72
   65
 73
    6
 40
6.6675
 49
1.905
 74
    0
 49
-0.9525
 74
    0
 49
1.905
 74
    0
 49
-0.9525
 74
    0
 49
0
 74
    0
 49
-0.9525
 74
    0
  0
LTYPE
  5
44
330
5
100
AcDbSymbolTableRecord
100
AcDbLinetypeTableRecord
  2
BORDER2
 70
    0
  3
Border (.5x) __.__.__.__.__.__.__.__.__.__.__.
 72
   65
 73
    6
 40
22.225
 49
6.35
 74
    0
 49
-3.175
 74
    0
 49
6.35
 74
    0
 49
-3.175
 74
    0
 49
0
 74
    0
 49
-3.175
 74
    0
  0
LTYPE
  5
45
330
5
100
AcDbSymbolTableRecord
100
AcDbLinetypeTableRecord
  2
BORDERX2
 70
    0
  3
Border (2x) ____  ____  .  ____  ____  .  ___
 72
   65
 73
    6
 40
88.89999999999999
 49
25.4
 74
    0
 49
-12.7
 74
    0
 49
25.4
 74
    0
 49
-12.7
 74
    0
 49
0
 74
    0
 49
-12.7
 74
    0
  0
LTYPE
  5
46
330
5
100
AcDbSymbolTableRecord
100
AcDbLinetypeTableRecord
  2
CENTER
 70
    0
  3
Center ____ _ ____ _ ____ _ ____ _ ____ _ ____
 72
   65
 73
    4
 40
50.8
 49
31.75
 74
    0
 49
-6.35
 74
    0
 49
6.35
 74
    0
 49
-6.35
 74
    0
  0
LTYPE
  5
47
330
5
100
AcDbSymbolTableRecord
100
AcDbLinetypeTableRecord
  2
CENTERTINY
 70
    0
  3
Center (.15x) ___ _ ___ _ ___ _ ___ _ ___ _ ___
 72
   65
 73
    4
 40
7.619999999999999
 49
4.7625
 74
    0
 49
-0.9525
 74
    0
 49
0.9525
 74
    0
 49
-0.9525
 74
    0
  0
LTYPE
  5
48
330
5
100
AcDbSymbolTableRecord
100
AcDbLinetypeTableRecord
  2
CENTER2
 70
    0
  3
Center (.5x) ___ _ ___ _ ___ _ ___ _ ___ _ ___
 72
   65
 73
    4
 40
28.575
 49
19.05
 74
    0
 49
-3.175
 74
    0
 49
3.175
 74
    0
 49
-3.175
 74
    0
  0
LTYPE
  5
49
330
5
100
AcDbSymbolTableRecord
100
AcDbLinetypeTableRecord
  2
CENTERX2
 70
    0
  3
Center (2x) ________  __  ________  __  _____
 72
   65
 73
    4
 40
101.6
 49
63.5
 74
    0
 49
-12.7
 74
    0
 49
12.7
 74
    0
 49
-12.7
 74
    0
  0
ENDTAB
  0
TABLE
  2
LAYER
  5
2
330
0
100
AcDbSymbolTable
 70
    1
  0
LAYER
  5
10
330
2
100
AcDbSymbolTableRecord
100
AcDbLayerTableRecord
  2
0
 70
    0
 62
    7
  6
CONTINUOUS
370
   -3
390
F
1001
LibreCad
1070
    1
  0
LAYER
  5
4A
330
2
100
AcDbSymbolTableRecord
100
AcDbLayerTableRecord
  2
dveri
 70
    0
 62
   96
420
32768
  6
CONTINUOUS
370
   25
390
F
  0
LAYER
  5
4B
330
2
100
AcDbSymbolTableRecord
100
AcDbLayerTableRecord
  2
fundament
 70
    0
 62
  136
420
32896
  6
CONTINUOUS
370
   25
390
F
  0
LAYER
  5
4C
330
2
100
AcDbSymbolTableRecord
100
AcDbLayerTableRecord
  2
klei
 70
    0
 62
    5
  6
CONTINUOUS
370
   25
390
F
  0
LAYER
  5
4D
330
2
100
AcDbSymbolTableRecord
100
AcDbLayerTableRecord
  2
lyce
 70
    0
 62
   41
420
16376252
  6
CONTINUOUS
370
   25
390
F
  0
LAYER
  5
4E
330
2
100
AcDbSymbolTableRecord
100
AcDbLayerTableRecord
  2
pisok
 70
    0
 62
  176
420
  128
  6
CONTINUOUS
370
   25
390
F
  0
LAYER
  5
4F
330
2
100
AcDbSymbolTableRecord
100
AcDbLayerTableRecord
  2
plytka3
 70
    0
 62
    2
  6
CONTINUOUS
370
   25
390
F
  0
LAYER
  5
50
330
2
100
AcDbSymbolTableRecord
100
AcDbLayerTableRecord
  2
plytka6
 70
    0
 62
   56
420
8421376
  6
CONTINUOUS
370
   25
390
F
  0
LAYER
  5
51
330
2
100
AcDbSymbolTableRecord
100
AcDbLayerTableRecord
  2
rozmir
 70
    0
 62
    4
  6
CONTINUOUS
370
   13
390
F
  0
LAYER
  5
52
330
2
100
AcDbSymbolTableRecord
100
AcDbLayerTableRecord
  2
skhody
 70
    0
 62
    8
  6
CONTINUOUS
370
   25
390
F
  0
LAYER
  5
53
330
2
100
AcDbSymbolTableRecord
100
AcDbLayerTableRecord
  2
sterodur
 70
    0
 62
    3
  6
CONTINUOUS
370
   25
390
F
  0
LAYER
  5
54
330
2
100
AcDbSymbolTableRecord
100
AcDbLayerTableRecord
  2
tekst
 70
    0
 62
  136
420
32896
  6
CONTINUOUS
370
   13
390
F
  0
ENDTAB
  0
TABLE
  2
STYLE
  5
3
330
0
100
AcDbSymbolTable
 70
    3
  0
STYLE
  5
55
330
2
100
AcDbSymbolTableRecord
100
AcDbTextStyleTableRecord
  2
cyrillic_ii
 70
    0
 40
0
 41
1
 50
0
 71
    0
 42
1
  3
cyrillic_ii
  4

  0
STYLE
  5
56
330
2
100
AcDbSymbolTableRecord
100
AcDbTextStyleTableRecord
  2
Standard
 70
    0
 40
0
 41
1
 50
0
 71
    0
 42
1
  3
txt
  4

  0
ENDTAB
  0
TABLE
  2
VIEW
  5
6
330
0
100
AcDbSymbolTable
 70
    0
  0
ENDTAB
  0
TABLE
  2
UCS
  5
7
330
0
100
AcDbSymbolTable
 70
    0
  0
ENDTAB
  0
TABLE
  2
APPID
  5
9
330
0
100
AcDbSymbolTable
 70
    1
  0
APPID
  5
12
330
9
100
AcDbSymbolTableRecord
100
AcDbRegAppTableRecord
  2
ACAD
 70
    0
  0
APPID
  5
57
330
9
100
AcDbSymbolTableRecord
100
AcDbRegAppTableRecord
  2
LibreCad
 70
    0
  0
ENDTAB
  0
TABLE
  2
DIMSTYLE
  5
A
330
0
100
AcDbSymbolTable
 70
    1
100
AcDbDimStyleTable
 71
    1
  0
DIMSTYLE
105
58
330
A
100
AcDbSymbolTableRecord
100
AcDbDimStyleTableRecord
  2
Standard
 70
    0
 40
5
 41
1
 42
0.2
 43
0.38
 44
0.5
 45
0
 46
0
 47
0
 48
0
 49
1
140
1
141
0.09
142
0
143
25.4
144
1
145
0
146
1
147
0.5
148
0
 71
    0
 72
    0
 73
    0
 74
    1
 75
    0
 76
    0
 77
    0
 78
    8
 79
    0
170
    0
171
    2
172
    0
173
    0
174
    0
175
    0
176
    0
177
    0
178
    0
179
    0
271
    1
272
    4
273
    2
274
    2
275
    0
276
    0
277
    2
278
   44
279
    0
280
    0
281
    0
282
    0
283
    1
284
    0
285
    0
286
    0
288
    0
289
    3
340
standard
341

371
   -2
372
   -2
  0
ENDTAB
  0
TABLE
  2
BLOCK_RECORD
  5
1
330
0
100
AcDbSymbolTable
 70
    2
  0
BLOCK_RECORD
  5
1F
330
1
100
AcDbSymbolTableRecord
100
AcDbBlockTableRecord
  2
*Model_Space
 70
    0
280
    1
281
    0
  0
BLOCK_RECORD
  5
1E
330
1
100
AcDbSymbolTableRecord
100
AcDbBlockTableRecord
  2
*Paper_Space
 70
    0
280
    1
281
    0
  0
BLOCK_RECORD
  5
59
330
1
100
AcDbSymbolTableRecord
100
AcDbBlockTableRecord
  2
*D35
 70
    0
280
    1
281
    0
  0
BLOCK_RECORD
  5
5C
330
1
100
AcDbSymbolTableRecord
100
AcDbBlockTableRecord
  2
*D29
 70
    0
280
    1
281
    0
  0
BLOCK_RECORD
  5
5F
330
1
100
AcDbSymbolTableRecord
100
AcDbBlockTableRecord
  2
*D5
 70
    0
280
    1
281
    0
  0
BLOCK_RECORD
  5
62
330
1
100
AcDbSymbolTableRecord
100
AcDbBlockTableRecord
  2
*D9
 70
    0
280
    1
281
    0
  0
BLOCK_RECORD
  5
65
330
1
100
AcDbSymbolTableRecord
100
AcDbBlockTableRecord
  2
*D31
 70
    0
280
    1
281
    0
  0
BLOCK_RECORD
  5
68
330
1
100
AcDbSymbolTableRecord
100
AcDbBlockTableRecord
  2
*D27
 70
    0
280
    1
281
    0
  0
BLOCK_RECORD
  5
6B
330
1
100
AcDbSymbolTableRecord
100
AcDbBlockTableRecord
  2
*D22
 70
    0
280
    1
281
    0
  0
BLOCK_RECORD
  5
6E
330
1
100
AcDbSymbolTableRecord
100
AcDbBlockTableRecord
  2
*D17
 70
    0
280
    1
281
    0
  0
BLOCK_RECORD
  5
71
330
1
100
AcDbSymbolTableRecord
100
AcDbBlockTableRecord
  2
*D12
 70
    0
280
    1
281
    0
  0
BLOCK_RECORD
  5
74
330
1
100
AcDbSymbolTableRecord
100
AcDbBlockTableRecord
  2
*D21
 70
    0
280
    1
281
    0
  0
BLOCK_RECORD
  5
77
330
1
100
AcDbSymbolTableRecord
100
AcDbBlockTableRecord
  2
*D19
 70
    0
280
    1
281
    0
  0
BLOCK_RECORD
  5
7A
330
1
100
AcDbSymbolTableRecord
100
AcDbBlockTableRecord
  2
*D24
 70
    0
280
    1
281
    0
  0
BLOCK_RECORD
  5
7D
330
1
100
AcDbSymbolTableRecord
100
AcDbBlockTableRecord
  2
*D28
 70
    0
280
    1
281
    0
  0
BLOCK_RECORD
  5
80
330
1
100
AcDbSymbolTableRecord
100
AcDbBlockTableRecord
  2
*D32
 70
    0
280
    1
281
    0
  0
BLOCK_RECORD
  5
83
330
1
100
AcDbSymbolTableRecord
100
AcDbBlockTableRecord
  2
*D23
 70
    0
280
    1
281
    0
  0
BLOCK_RECORD
  5
86
330
1
100
AcDbSymbolTableRecord
100
AcDbBlockTableRecord
  2
*D8
 70
    0
280
    1
281
    0
  0
BLOCK_RECORD
  5
89
330
1
100
AcDbSymbolTableRecord
100
AcDbBlockTableRecord
  2
*D39
 70
    0
280
    1
281
    0
  0
BLOCK_RECORD
  5
8C
330
1
100
AcDbSymbolTableRecord
100
AcDbBlockTableRecord
  2
*D18
 70
    0
280
    1
281
    0
  0
BLOCK_RECORD
  5
8F
330
1
100
AcDbSymbolTableRecord
100
AcDbBlockTableRecord
  2
*D1
 70
    0
280
    1
281
    0
  0
BLOCK_RECORD
  5
92
330
1
100
AcDbSymbolTableRecord
100
AcDbBlockTableRecord
  2
*D3
 70
    0
280
    1
281
    0
  0
BLOCK_RECORD
  5
95
330
1
100
AcDbSymbolTableRecord
100
AcDbBlockTableRecord
  2
*D26
 70
    0
280
    1
281
    0
  0
BLOCK_RECORD
  5
98
330
1
100
AcDbSymbolTableRecord
100
AcDbBlockTableRecord
  2
*D33
 70
    0
280
    1
281
    0
  0
BLOCK_RECORD
  5
9B
330
1
100
AcDbSymbolTableRecord
100
AcDbBlockTableRecord
  2
*D30
 70
    0
280
    1
281
    0
  0
BLOCK_RECORD
  5
9E
330
1
100
AcDbSymbolTableRecord
100
AcDbBlockTableRecord
  2
*D34
 70
    0
280
    1
281
    0
  0
BLOCK_RECORD
  5
A1
330
1
100
AcDbSymbolTableRecord
100
AcDbBlockTableRecord
  2
*D13
 70
    0
280
    1
281
    0
  0
BLOCK_RECORD
  5
A4
330
1
100
AcDbSymbolTableRecord
100
AcDbBlockTableRecord
  2
*D37
 70
    0
280
    1
281
    0
  0
BLOCK_RECORD
  5
A7
330
1
100
AcDbSymbolTableRecord
100
AcDbBlockTableRecord
  2
*D38
 70
    0
280
    1
281
    0
  0
BLOCK_RECORD
  5
AA
330
1
100
AcDbSymbolTableRecord
100
AcDbBlockTableRecord
  2
*D4
 70
    0
280
    1
281
    0
  0
BLOCK_RECORD
  5
AD
330
1
100
AcDbSymbolTableRecord
100
AcDbBlockTableRecord
  2
*D11
 70
    0
280
    1
281
    0
  0
BLOCK_RECORD
  5
B0
330
1
100
AcDbSymbolTableRecord
100
AcDbBlockTableRecord
  2
*D10
 70
    0
280
    1
281
    0
  0
BLOCK_RECORD
  5
B3
330
1
100
AcDbSymbolTableRecord
100
AcDbBlockTableRecord
  2
*D2
 70
    0
280
    1
281
    0
  0
BLOCK_RECORD
  5
B6
330
1
100
AcDbSymbolTableRecord
100
AcDbBlockTableRecord
  2
*D14
 70
    0
280
    1
281
    0
  0
BLOCK_RECORD
  5
B9
330
1
100
AcDbSymbolTableRecord
100
AcDbBlockTableRecord
  2
*D15
 70
    0
280
    1
281
    0
  0
BLOCK_RECORD
  5
BC
330
1
100
AcDbSymbolTableRecord
100
AcDbBlockTableRecord
  2
*D6
 70
    0
280
    1
281
    0
  0
BLOCK_RECORD
  5
BF
330
1
100
AcDbSymbolTableRecord
100
AcDbBlockTableRecord
  2
*D16
 70
    0
280
    1
281
    0
  0
BLOCK_RECORD
  5
C2
330
1
100
AcDbSymbolTableRecord
100
AcDbBlockTableRecord
  2
*D7
 70
    0
280
    1
281
    0
  0
BLOCK_RECORD
  5
C5
330
1
100
AcDbSymbolTableRecord
100
AcDbBlockTableRecord
  2
*D20
 70
    0
280
    1
281
    0
  0
BLOCK_RECORD
  5
C8
330
1
100
AcDbSymbolTableRecord
100
AcDbBlockTableRecord
  2
*D25
 70
    0
280
    1
281
    0
  0
BLOCK_RECORD
  5
CB
330
1
100
AcDbSymbolTableRecord
100
AcDbBlockTableRecord
  2
*D36
 70
    0
280
    1
281
    0
  0
BLOCK_RECORD
  5
CE
330
1
100
AcDbSymbolTableRecord
100
AcDbBlockTableRecord
  2
block10
 70
    0
280
    1
281
    0
  0
ENDTAB
  0
ENDSEC
  0
SECTION
  2
BLOCKS
  0
BLOCK
  5
20
330
1F
100
AcDbEntity
  8
0
100
AcDbBlockBegin
  2
*Model_Space
 70
    0
 10
0
 20
0
 30
0
  3
*Model_Space
  1

  0
ENDBLK
  5
21
330
1F
100
AcDbEntity
  8
0
100
AcDbBlockEnd
  0
BLOCK
  5
1C
330
1B
100
AcDbEntity
  8
0
100
AcDbBlockBegin
  2
*Paper_Space
 70
    0
 10
0
 20
0
 30
0
  3
*Paper_Space
  1

  0
ENDBLK
  5
1D
330
1F
100
AcDbEntity
  8
0
100
AcDbBlockEnd
  0
BLOCK
  5
5A
330
59
100
AcDbEntity
  8
0
100
AcDbBlockBegin
  2
*D35
 70
    1
 10
0
 20
0
  3
*D35
  1

  0
LINE
  5
D1
100
AcDbEntity
  8
rozmir
  6
ByBlock
 62
    0
370
   -2
100
AcDbLine
 10
-30
 20
-112
 11
-30
 21
-144.5
  0
SOLID
  5
D2
100
AcDbEntity
  8
rozmir
  6
ByBlock
 62
    0
370
   -2
100
AcDbTrace
 10
-30
 20
-112
 30
0
 11
-29.16743068445432
 21
-117
 31
0
 12
-30.83256931554568
 22
-117
 32
0
 13
-30.83256931554568
 23
-117
 33
0
  0
SOLID
  5
D3
100
AcDbEntity
  8
rozmir
  6
ByBlock
 62
    0
370
   -2
100
AcDbTrace
 10
-30
 20
-144.5
 30
0
 11
-30.83256931554568
 21
-139.5
 31
0
 12
-29.16743068445432
 22
-139.5
 32
0
 13
-29.16743068445432
 23
-139.5
 33
0
  0
MTEXT
  5
D4
100
AcDbEntity
  8
rozmir
  6
CONTINUOUS
 62
    0
370
   -2
100
AcDbMText
 10
-35
 20
-128.25
 30
0
 40
5
 41
11.94444444444506
 71
    5
 72
    1
  1
32,5
  7
standard
210
0
220
0
230
1
 50
90
 73
    2
 44
1
  0
LINE
  5
D5
100
AcDbEntity
  8
rozmir
  6
ByBlock
 62
    0
370
   -2
100
AcDbLine
 10
2.5
 20
-112
 11
-32.5
 21
-112
  0
LINE
  5
D6
100
AcDbEntity
  8
rozmir
  6
ByBlock
 62
    0
370
   -2
100
AcDbLine
 10
2.5
 20
-144.5
 11
-32.5
 21
-144.5
  0
ENDBLK
  5
5B
330
59
100
AcDbEntity
  8
0
100
AcDbBlockEnd
  0
BLOCK
  5
5D
330
5C
100
AcDbEntity
  8
0
100
AcDbBlockBegin
  2
*D29
 70
    1
 10
0
 20
0
  3
*D29
  1

  0
LINE
  5
D7
100
AcDbEntity
  8
rozmir
  6
ByBlock
 62
    0
370
   -2
100
AcDbLine
 10
-20
 20
13.5
 11
-20
 21
30.5
  0
SOLID
  5
D8
100
AcDbEntity
  8
rozmir
  6
ByBlock
 62
    0
370
   -2
100
AcDbTrace
 10
-20
 20
13.5
 30
0
 11
-20.83256931554568
 21
18.5
 31
0
 12
-19.16743068445432
 22
18.5
 32
0
 13
-19.16743068445432
 23
18.5
 33
0
  0
SOLID
  5
D9
100
AcDbEntity
  8
rozmir
  6
ByBlock
 62
    0
370
   -2
100
AcDbTrace
 10
-20
 20
30.5
 30
0
 11
-19.16743068445432
 21
25.5
 31
0
 12
-20.83256931554568
 22
25.5
 32
0
 13
-20.83256931554568
 23
25.5
 33
0
  0
MTEXT
  5
DA
100
AcDbEntity
  8
rozmir
  6
CONTINUOUS
 62
    0
370
   -2
100
AcDbMText
 10
-25
 20
22
 30
0
 40
5
 41
5
 71
    5
 72
    1
  1
17
  7
standard
210
0
220
0
230
1
 50
90
 73
    2
 44
1
  0
LINE
  5
DB
100
AcDbEntity
  8
rozmir
  6
ByBlock
 62
    0
370
   -2
100
AcDbLine
 10
2.5
 20
13.5
 11
-22.5
 21
13.5
  0
LINE
  5
DC
100
AcDbEntity
  8
rozmir
  6
ByBlock
 62
    0
370
   -2
100
AcDbLine
 10
2.5
 20
30.5
 11
-22.5
 21
30.5
  0
ENDBLK
  5
5E
330
5C
100
AcDbEntity
  8
0
100
AcDbBlockEnd
  0
BLOCK
  5
60
330
5F
100
AcDbEntity
  8
0
100
AcDbBlockBegin
  2
*D5
 70
    1
 10
0
 20
0
  3
*D5
  1

  0
LINE
  5
DD
100
AcDbEntity
  8
rozmir
  6
ByBlock
 62
    0
370
   -2
100
AcDbLine
 10
0
 20
-250
 11
178
 21
-250
  0
SOLID
  5
DE
100
AcDbEntity
  8
rozmir
  6
ByBlock
 62
    0
370
   -2
100
AcDbTrace
 10
0
 20
-250
 30
0
 11
5
 21
-249.1674306844543
 31
0
 12
5
 22
-250.8325693155457
 32
0
 13
5
 23
-250.8325693155457
 33
0
  0
SOLID
  5
DF
100
AcDbEntity
  8
rozmir
  6
ByBlock
 62
    0
370
   -2
100
AcDbTrace
 10
178
 20
-250
 30
0
 11
173
 21
-250.8325693155457
 31
0
 12
173
 22
-249.1674306844543
 32
0
 13
173
 23
-249.1674306844543
 33
0
  0
MTEXT
  5
E0
100
AcDbEntity
  8
rozmir
  6
CONTINUOUS
 62
    0
370
   -2
100
AcDbMText
 10
89
 20
-245
 30
0
 40
5
 41
8.888888888888889
 71
    5
 72
    1
  1
178
  7
standard
210
0
220
0
230
1
 50
0
 73
    2
 44
1
  0
LINE
  5
E1
100
AcDbEntity
  8
rozmir
  6
ByBlock
 62
    0
370
   -2
100
AcDbLine
 10
-1.83697019872103e-16
 20
-205
 11
-4.592425496802574e-16
 21
-252.5
  0
LINE
  5
E2
100
AcDbEntity
  8
rozmir
  6
ByBlock
 62
    0
370
   -2
100
AcDbLine
 10
178
 20
-205
 11
178
 21
-252.5
  0
ENDBLK
  5
61
330
5F
100
AcDbEntity
  8
0
100
AcDbBlockEnd
  0
BLOCK
  5
63
330
62
100
AcDbEntity
  8
0
100
AcDbBlockBegin
  2
*D9
 70
    1
 10
0
 20
0
  3
*D9
  1

  0
LINE
  5
E3
100
AcDbEntity
  8
tekst
  6
CONTINUOUS
 62
    7
370
    0
100
AcDbLine
 10
270
 20
0
 11
250
 21
30
  0
LINE
  5
E4
100
AcDbEntity
  8
tekst
  6
CONTINUOUS
 62
    7
370
    0
100
AcDbLine
 10
250
 20
30
 11
240
 21
30
  0
SOLID
  5
E5
100
AcDbEntity
  8
tekst
  6
CONTINUOUS
 62
    7
370
    0
100
AcDbTrace
 10
270
 20
0
 30
0
 11
266.5337594748174
 21
3.698425108984924
 31
0
 12
267.9192385629303
 22
4.622077834393512
 32
0
 13
267.9192385629303
 23
4.622077834393512
 33
0
  0
ENDBLK
  5
64
330
62
100
AcDbEntity
  8
0
100
AcDbBlockEnd
  0
BLOCK
  5
66
330
65
100
AcDbEntity
  8
0
100
AcDbBlockBegin
  2
*D31
 70
    1
 10
0
 20
0
  3
*D31
  1

  0
LINE
  5
E6
100
AcDbEntity
  8
rozmir
  6
ByBlock
 62
    0
370
   -2
100
AcDbLine
 10
3.5
 20
-80
 11
118.5
 21
-80
  0
SOLID
  5
E7
100
AcDbEntity
  8
rozmir
  6
ByBlock
 62
    0
370
   -2
100
AcDbTrace
 10
3.5
 20
-80
 30
0
 11
8.5
 21
-79.16743068445432
 31
0
 12
8.5
 22
-80.83256931554568
 32
0
 13
8.5
 23
-80.83256931554568
 33
0
  0
SOLID
  5
E8
100
AcDbEntity
  8
rozmir
  6
ByBlock
 62
    0
370
   -2
100
AcDbTrace
 10
118.5
 20
-80
 30
0
 11
113.5
 21
-80.83256931554568
 31
0
 12
113.5
 22
-79.16743068445432
 32
0
 13
113.5
 23
-79.16743068445432
 33
0
  0
MTEXT
  5
E9
100
AcDbEntity
  8
rozmir
  6
CONTINUOUS
 62
    0
370
   -2
100
AcDbMText
 10
61
 20
-75
 30
0
 40
5
 41
7.777777777778089
 71
    5
 72
    1
  1
115
  7
standard
210
0
220
0
230
1
 50
0
 73
    2
 44
1
  0
LINE
  5
EA
100
AcDbEntity
  8
rozmir
  6
ByBlock
 62
    0
370
   -2
100
AcDbLine
 10
3.5
 20
-111
 11
3.5
 21
-77.5
  0
LINE
  5
EB
100
AcDbEntity
  8
rozmir
  6
ByBlock
 62
    0
370
   -2
100
AcDbLine
 10
118.5
 20
-111
 11
118.5
 21
-77.5
  0
ENDBLK
  5
67
330
65
100
AcDbEntity
  8
0
100
AcDbBlockEnd
  0
BLOCK
  5
69
330
68
100
AcDbEntity
  8
0
100
AcDbBlockBegin
  2
*D27
 70
    1
 10
0
 20
0
  3
*D27
  1

  0
LINE
  5
EC
100
AcDbEntity
  8
rozmir
  6
ByBlock
 62
    0
370
   -2
100
AcDbLine
 10
-20
 20
30.5
 11
-20
 21
47.5
  0
SOLID
  5
ED
100
AcDbEntity
  8
rozmir
  6
ByBlock
 62
    0
370
   -2
100
AcDbTrace
 10
-20
 20
30.5
 30
0
 11
-20.83256931554568
 21
35.5
 31
0
 12
-19.16743068445432
 22
35.5
 32
0
 13
-19.16743068445432
 23
35.5
 33
0
  0
SOLID
  5
EE
100
AcDbEntity
  8
rozmir
  6
ByBlock
 62
    0
370
   -2
100
AcDbTrace
 10
-20
 20
47.5
 30
0
 11
-19.16743068445432
 21
42.5
 31
0
 12
-20.83256931554568
 22
42.5
 32
0
 13
-20.83256931554568
 23
42.5
 33
0
  0
MTEXT
  5
EF
100
AcDbEntity
  8
rozmir
  6
CONTINUOUS
 62
    0
370
   -2
100
AcDbMText
 10
-25
 20
39
 30
0
 40
5
 41
5
 71
    5
 72
    1
  1
17
  7
standard
210
0
220
0
230
1
 50
90
 73
    2
 44
1
  0
LINE
  5
F0
100
AcDbEntity
  8
rozmir
  6
ByBlock
 62
    0
370
   -2
100
AcDbLine
 10
2.5
 20
30.5
 11
-22.5
 21
30.5
  0
LINE
  5
F1
100
AcDbEntity
  8
rozmir
  6
ByBlock
 62
    0
370
   -2
100
AcDbLine
 10
2.500000000000015
 20
47.5
 11
-22.5
 21
47.5
  0
ENDBLK
  5
6A
330
68
100
AcDbEntity
  8
0
100
AcDbBlockEnd
  0
BLOCK
  5
6C
330
6B
100
AcDbEntity
  8
0
100
AcDbBlockBegin
  2
*D22
 70
    1
 10
0
 20
0
  3
*D22
  1

  0
LINE
  5
F2
100
AcDbEntity
  8
rozmir
  6
ByBlock
 62
    0
370
   -2
100
AcDbLine
 10
310
 20
56
 11
338
 21
56
  0
SOLID
  5
F3
100
AcDbEntity
  8
rozmir
  6
ByBlock
 62
    0
370
   -2
100
AcDbTrace
 10
310
 20
56
 30
0
 11
315
 21
56.83256931554568
 31
0
 12
315
 22
55.16743068445432
 32
0
 13
315
 23
55.16743068445432
 33
0
  0
SOLID
  5
F4
100
AcDbEntity
  8
rozmir
  6
ByBlock
 62
    0
370
   -2
100
AcDbTrace
 10
338
 20
56
 30
0
 11
333
 21
55.16743068445432
 31
0
 12
333
 22
56.83256931554568
 32
0
 13
333
 23
56.83256931554568
 33
0
  0
MTEXT
  5
F5
100
AcDbEntity
  8
rozmir
  6
CONTINUOUS
 62
    0
370
   -2
100
AcDbMText
 10
324
 20
61
 30
0
 40
5
 41
6.111111111111112
 71
    5
 72
    1
  1
28
  7
standard
210
0
220
0
230
1
 50
0
 73
    2
 44
1
  0
LINE
  5
F6
100
AcDbEntity
  8
rozmir
  6
ByBlock
 62
    0
370
   -2
100
AcDbLine
 10
310
 20
35
 11
310
 21
58.5
  0
LINE
  5
F7
100
AcDbEntity
  8
rozmir
  6
ByBlock
 62
    0
370
   -2
100
AcDbLine
 10
338
 20
52
 11
338
 21
58.5
  0
ENDBLK
  5
6D
330
6B
100
AcDbEntity
  8
0
100
AcDbBlockEnd
  0
BLOCK
  5
6F
330
6E
100
AcDbEntity
  8
0
100
AcDbBlockBegin
  2
*D17
 70
    1
 10
0
 20
0
  3
*D17
  1

  0
LINE
  5
F8
100
AcDbEntity
  8
tekst
  6
CONTINUOUS
 62
    7
370
    0
100
AcDbLine
 10
260
 20
-9
 11
250
 21
10
  0
LINE
  5
F9
100
AcDbEntity
  8
tekst
  6
CONTINUOUS
 62
    7
370
    0
100
AcDbLine
 10
250
 20
10
 11
240
 21
10
  0
SOLID
  5
FA
100
AcDbEntity
  8
tekst
  6
CONTINUOUS
 62
    7
370
    0
100
AcDbTrace
 10
260
 20
-9
 30
0
 11
256.9345120771144
 21
-4.963175076891387
 31
0
 12
258.4080235945594
 22
-4.187642699288789
 32
0
 13
258.4080235945594
 23
-4.187642699288789
 33
0
  0
ENDBLK
  5
70
330
6E
100
AcDbEntity
  8
0
100
AcDbBlockEnd
  0
BLOCK
  5
72
330
71
100
AcDbEntity
  8
0
100
AcDbBlockBegin
  2
*D12
 70
    1
 10
0
 20
0
  3
*D12
  1

  0
LINE
  5
FB
100
AcDbEntity
  8
tekst
  6
CONTINUOUS
 62
    7
370
    0
100
AcDbLine
 10
176
 20
-105
 11
190
 21
-80
  0
LINE
  5
FC
100
AcDbEntity
  8
tekst
  6
CONTINUOUS
 62
    7
370
    0
100
AcDbLine
 10
190
 20
-80
 11
200
 21
-80
  0
SOLID
  5
FD
100
AcDbEntity
  8
tekst
  6
CONTINUOUS
 62
    7
370
    0
100
AcDbTrace
 10
176
 20
-105
 30
0
 11
177.7165951081505
 21
-100.2306737478065
 31
0
 12
179.169438581168
 22
-101.0442660926963
 32
0
 13
179.169438581168
 23
-101.0442660926963
 33
0
  0
ENDBLK
  5
73
330
71
100
AcDbEntity
  8
0
100
AcDbBlockEnd
  0
BLOCK
  5
75
330
74
100
AcDbEntity
  8
0
100
AcDbBlockBegin
  2
*D21
 70
    1
 10
0
 20
0
  3
*D21
  1

  0
LINE
  5
FE
100
AcDbEntity
  8
rozmir
  6
ByBlock
 62
    0
370
   -2
100
AcDbLine
 10
282
 20
39
 11
310
 21
39
  0
SOLID
  5
FF
100
AcDbEntity
  8
rozmir
  6
ByBlock
 62
    0
370
   -2
100
AcDbTrace
 10
282
 20
39
 30
0
 11
287
 21
39.83256931554568
 31
0
 12
287
 22
38.16743068445432
 32
0
 13
287
 23
38.16743068445432
 33
0
  0
SOLID
  5
100
100
AcDbEntity
  8
rozmir
  6
ByBlock
 62
    0
370
   -2
100
AcDbTrace
 10
310
 20
39
 30
0
 11
305
 21
38.16743068445432
 31
0
 12
305
 22
39.83256931554568
 32
0
 13
305
 23
39.83256931554568
 33
0
  0
MTEXT
  5
101
100
AcDbEntity
  8
rozmir
  6
CONTINUOUS
 62
    0
370
   -2
100
AcDbMText
 10
296
 20
44
 30
0
 40
5
 41
6.111111111111112
 71
    5
 72
    1
  1
28
  7
standard
210
0
220
0
230
1
 50
0
 73
    2
 44
1
  0
LINE
  5
102
100
AcDbEntity
  8
rozmir
  6
ByBlock
 62
    0
370
   -2
100
AcDbLine
 10
282
 20
18
 11
282
 21
41.5
  0
LINE
  5
103
100
AcDbEntity
  8
rozmir
  6
ByBlock
 62
    0
370
   -2
100
AcDbLine
 10
310
 20
35
 11
310
 21
41.5
  0
ENDBLK
  5
76
330
74
100
AcDbEntity
  8
0
100
AcDbBlockEnd
  0
BLOCK
  5
78
330
77
100
AcDbEntity
  8
0
100
AcDbBlockBegin
  2
*D19
 70
    1
 10
0
 20
0
  3
*D19
  1

  0
LINE
  5
104
100
AcDbEntity
  8
tekst
  6
CONTINUOUS
 62
    7
370
    0
100
AcDbLine
 10
390
 20
-4
 11
410
 21
0
  0
LINE
  5
105
100
AcDbEntity
  8
tekst
  6
CONTINUOUS
 62
    7
370
    0
100
AcDbLine
 10
410
 20
0
 11
420
 21
0
  0
SOLID
  5
106
100
AcDbEntity
  8
tekst
  6
CONTINUOUS
 62
    7
370
    0
100
AcDbTrace
 10
390
 20
-4
 30
0
 11
394.7396231020551
 21
-2.203017942311771
 31
0
 12
395.0661836548541
 22
-3.835820706306393
 32
0
 13
395.0661836548541
 23
-3.835820706306393
 33
0
  0
ENDBLK
  5
79
330
77
100
AcDbEntity
  8
0
100
AcDbBlockEnd
  0
BLOCK
  5
7B
330
7A
100
AcDbEntity
  8
0
100
AcDbBlockBegin
  2
*D24
 70
    1
 10
0
 20
0
  3
*D24
  1

  0
LINE
  5
107
100
AcDbEntity
  8
rozmir
  6
ByBlock
 62
    0
370
   -2
100
AcDbLine
 10
210
 20
17
 11
210
 21
34
  0
SOLID
  5
108
100
AcDbEntity
  8
rozmir
  6
ByBlock
 62
    0
370
   -2
100
AcDbTrace
 10
210
 20
17
 30
0
 11
209.1674306844543
 21
22
 31
0
 12
210.8325693155457
 22
22
 32
0
 13
210.8325693155457
 23
22
 33
0
  0
SOLID
  5
109
100
AcDbEntity
  8
rozmir
  6
ByBlock
 62
    0
370
   -2
100
AcDbTrace
 10
210
 20
34
 30
0
 11
210.8325693155457
 21
29
 31
0
 12
209.1674306844543
 22
29
 32
0
 13
209.1674306844543
 23
29
 33
0
  0
MTEXT
  5
10A
100
AcDbEntity
  8
rozmir
  6
CONTINUOUS
 62
    0
370
   -2
100
AcDbMText
 10
205
 20
25.5
 30
0
 40
5
 41
5
 71
    5
 72
    1
  1
17
  7
standard
210
0
220
0
230
1
 50
90
 73
    2
 44
1
  0
LINE
  5
10B
100
AcDbEntity
  8
rozmir
  6
ByBlock
 62
    0
370
   -2
100
AcDbLine
 10
179
 20
17
 11
212.5
 21
17
  0
LINE
  5
10C
100
AcDbEntity
  8
rozmir
  6
ByBlock
 62
    0
370
   -2
100
AcDbLine
 10
151
 20
34
 11
212.5
 21
34
  0
ENDBLK
  5
7C
330
7A
100
AcDbEntity
  8
0
100
AcDbBlockEnd
  0
BLOCK
  5
7E
330
7D
100
AcDbEntity
  8
0
100
AcDbBlockBegin
  2
*D28
 70
    1
 10
0
 20
0
  3
*D28
  1

  0
LINE
  5
10D
100
AcDbEntity
  8
rozmir
  6
ByBlock
 62
    0
370
   -2
100
AcDbLine
 10
-20
 20
-6.999999999999996
 11
-20
 21
13.5
  0
SOLID
  5
10E
100
AcDbEntity
  8
rozmir
  6
ByBlock
 62
    0
370
   -2
100
AcDbTrace
 10
-20
 20
-6.999999999999996
 30
0
 11
-20.83256931554568
 21
-1.999999999999996
 31
0
 12
-19.16743068445432
 22
-1.999999999999996
 32
0
 13
-19.16743068445432
 23
-1.999999999999996
 33
0
  0
SOLID
  5
10F
100
AcDbEntity
  8
rozmir
  6
ByBlock
 62
    0
370
   -2
100
AcDbTrace
 10
-20
 20
13.5
 30
0
 11
-19.16743068445432
 21
8.500000000000002
 31
0
 12
-20.83256931554568
 22
8.500000000000002
 32
0
 13
-20.83256931554568
 23
8.500000000000002
 33
0
  0
MTEXT
  5
110
100
AcDbEntity
  8
rozmir
  6
CONTINUOUS
 62
    0
370
   -2
100
AcDbMText
 10
-25
 20
3.250000000000003
 30
0
 40
5
 41
11.94444444444476
 71
    5
 72
    1
  1
20,5
  7
standard
210
0
220
0
230
1
 50
90
 73
    2
 44
1
  0
LINE
  5
111
100
AcDbEntity
  8
rozmir
  6
ByBlock
 62
    0
370
   -2
100
AcDbLine
 10
2.5
 20
-7
 11
-22.5
 21
-6.999999999999996
  0
LINE
  5
112
100
AcDbEntity
  8
rozmir
  6
ByBlock
 62
    0
370
   -2
100
AcDbLine
 10
2.5
 20
13.5
 11
-22.5
 21
13.5
  0
ENDBLK
  5
7F
330
7D
100
AcDbEntity
  8
0
100
AcDbBlockEnd
  0
BLOCK
  5
81
330
80
100
AcDbEntity
  8
0
100
AcDbBlockBegin
  2
*D32
 70
    1
 10
0
 20
0
  3
*D32
  1

  0
LINE
  5
113
100
AcDbEntity
  8
rozmir
  6
ByBlock
 62
    0
370
   -2
100
AcDbLine
 10
3.5
 20
-70
 11
146.5
 21
-70
  0
SOLID
  5
114
100
AcDbEntity
  8
rozmir
  6
ByBlock
 62
    0
370
   -2
100
AcDbTrace
 10
3.5
 20
-70
 30
0
 11
8.5
 21
-69.16743068445432
 31
0
 12
8.5
 22
-70.83256931554568
 32
0
 13
8.5
 23
-70.83256931554568
 33
0
  0
SOLID
  5
115
100
AcDbEntity
  8
rozmir
  6
ByBlock
 62
    0
370
   -2
100
AcDbTrace
 10
146.5
 20
-70
 30
0
 11
141.5
 21
-70.83256931554568
 31
0
 12
141.5
 22
-69.16743068445432
 32
0
 13
141.5
 23
-69.16743068445432
 33
0
  0
MTEXT
  5
116
100
AcDbEntity
  8
rozmir
  6
CONTINUOUS
 62
    0
370
   -2
100
AcDbMText
 10
75
 20
-65
 30
0
 40
5
 41
9.444444444444756
 71
    5
 72
    1
  1
143
  7
standard
210
0
220
0
230
1
 50
0
 73
    2
 44
1
  0
LINE
  5
117
100
AcDbEntity
  8
rozmir
  6
ByBlock
 62
    0
370
   -2
100
AcDbLine
 10
3.5
 20
-111
 11
3.5
 21
-67.5
  0
LINE
  5
118
100
AcDbEntity
  8
rozmir
  6
ByBlock
 62
    0
370
   -2
100
AcDbLine
 10
146.5
 20
-111
 11
146.5
 21
-67.5
  0
ENDBLK
  5
82
330
80
100
AcDbEntity
  8
0
100
AcDbBlockEnd
  0
BLOCK
  5
84
330
83
100
AcDbEntity
  8
0
100
AcDbBlockBegin
  2
*D23
 70
    1
 10
0
 20
0
  3
*D23
  1

  0
LINE
  5
119
100
AcDbEntity
  8
rozmir
  6
ByBlock
 62
    0
370
   -2
100
AcDbLine
 10
210
 20
0
 11
210
 21
17
  0
SOLID
  5
11A
100
AcDbEntity
  8
rozmir
  6
ByBlock
 62
    0
370
   -2
100
AcDbTrace
 10
210
 20
0
 30
0
 11
209.1674306844543
 21
5
 31
0
 12
210.8325693155457
 22
5
 32
0
 13
210.8325693155457
 23
5
 33
0
  0
SOLID
  5
11B
100
AcDbEntity
  8
rozmir
  6
ByBlock
 62
    0
370
   -2
100
AcDbTrace
 10
210
 20
17
 30
0
 11
210.8325693155457
 21
12
 31
0
 12
209.1674306844543
 22
12
 32
0
 13
209.1674306844543
 23
12
 33
0
  0
MTEXT
  5
11C
100
AcDbEntity
  8
rozmir
  6
CONTINUOUS
 62
    0
370
   -2
100
AcDbMText
 10
205
 20
8.5
 30
0
 40
5
 41
5
 71
    5
 72
    1
  1
17
  7
standard
210
0
220
0
230
1
 50
90
 73
    2
 44
1
  0
LINE
  5
11D
100
AcDbEntity
  8
rozmir
  6
ByBlock
 62
    0
370
   -2
100
AcDbLine
 10
189
 20
0
 11
212.5
 21
0
  0
LINE
  5
11E
100
AcDbEntity
  8
rozmir
  6
ByBlock
 62
    0
370
   -2
100
AcDbLine
 10
179
 20
17
 11
212.5
 21
17
  0
ENDBLK
  5
85
330
83
100
AcDbEntity
  8
0
100
AcDbBlockEnd
  0
BLOCK
  5
87
330
86
100
AcDbEntity
  8
0
100
AcDbBlockBegin
  2
*D8
 70
    1
 10
0
 20
0
  3
*D8
  1

  0
LINE
  5
11F
100
AcDbEntity
  8
tekst
  6
CONTINUOUS
 62
    7
370
    0
100
AcDbLine
 10
392
 20
43
 11
410
 21
60
  0
LINE
  5
120
100
AcDbEntity
  8
tekst
  6
CONTINUOUS
 62
    7
370
    0
100
AcDbLine
 10
410
 20
60
 11
420
 21
60
  0
SOLID
  5
121
100
AcDbEntity
  8
tekst
  6
CONTINUOUS
 62
    7
370
    0
100
AcDbTrace
 10
392
 20
43
 30
0
 11
395.063404077872
 21
47.03840650762969
 31
0
 12
396.2067274476262
 22
45.82782882200747
 32
0
 13
396.2067274476262
 23
45.82782882200747
 33
0
  0
ENDBLK
  5
88
330
86
100
AcDbEntity
  8
0
100
AcDbBlockEnd
  0
BLOCK
  5
8A
330
89
100
AcDbEntity
  8
0
100
AcDbBlockBegin
  2
*D39
 70
    1
 10
0
 20
0
  3
*D39
  1

  0
LINE
  5
122
100
AcDbEntity
  8
tekst
  6
CONTINUOUS
 62
    7
370
    0
100
AcDbLine
 10
389.9098376763953
 20
54.25298342690299
 11
410
 21
70
  0
LINE
  5
123
100
AcDbEntity
  8
tekst
  6
CONTINUOUS
 62
    7
370
    0
100
AcDbLine
 10
410
 20
70
 11
420
 21
70
  0
SOLID
  5
124
100
AcDbEntity
  8
tekst
  6
CONTINUOUS
 62
    7
370
    0
100
AcDbTrace
 10
389.9098376763953
 20
54.25298342690299
 30
0
 11
393.3314428906151
 21
57.99274136334917
 31
0
 12
394.3586635790745
 22
56.68220547373996
 32
0
 13
394.3586635790745
 23
56.68220547373996
 33
0
  0
ENDBLK
  5
8B
330
89
100
AcDbEntity
  8
0
100
AcDbBlockEnd
  0
BLOCK
  5
8D
330
8C
100
AcDbEntity
  8
0
100
AcDbBlockBegin
  2
*D18
 70
    1
 10
0
 20
0
  3
*D18
  1

  0
LINE
  5
125
100
AcDbEntity
  8
tekst
  6
CONTINUOUS
 62
    7
370
    0
100
AcDbLine
 10
267
 20
-4
 11
250
 21
20
  0
LINE
  5
126
100
AcDbEntity
  8
tekst
  6
CONTINUOUS
 62
    7
370
    0
100
AcDbLine
 10
250
 20
20
 11
240
 21
20
  0
SOLID
  5
127
100
AcDbEntity
  8
tekst
  6
CONTINUOUS
 62
    7
370
    0
100
AcDbTrace
 10
267
 20
-4
 30
0
 11
263.430516352399
 21
-0.4011170962787451
 31
0
 12
264.7893102397977
 22
0.5613619072952973
 32
0
 13
264.7893102397977
 23
0.5613619072952973
 33
0
  0
ENDBLK
  5
8E
330
8C
100
AcDbEntity
  8
0
100
AcDbBlockEnd
  0
BLOCK
  5
90
330
8F
100
AcDbEntity
  8
0
100
AcDbBlockBegin
  2
*D1
 70
    1
 10
0
 20
0
  3
*D1
  1

  0
LINE
  5
128
100
AcDbEntity
  8
rozmir
  6
ByBlock
 62
    0
370
   -2
100
AcDbLine
 10
210
 20
-148
 11
210
 21
-176
  0
SOLID
  5
129
100
AcDbEntity
  8
rozmir
  6
ByBlock
 62
    0
370
   -2
100
AcDbTrace
 10
210
 20
-148
 30
0
 11
210.8325693155457
 21
-153
 31
0
 12
209.1674306844543
 22
-153
 32
0
 13
209.1674306844543
 23
-153
 33
0
  0
SOLID
  5
12A
100
AcDbEntity
  8
rozmir
  6
ByBlock
 62
    0
370
   -2
100
AcDbTrace
 10
210
 20
-176
 30
0
 11
209.1674306844543
 21
-171
 31
0
 12
210.8325693155457
 22
-171
 32
0
 13
210.8325693155457
 23
-171
 33
0
  0
MTEXT
  5
12B
100
AcDbEntity
  8
rozmir
  6
CONTINUOUS
 62
    0
370
   -2
100
AcDbMText
 10
205
 20
-162
 30
0
 40
5
 41
6.111111111111112
 71
    5
 72
    1
  1
28
  7
standard
210
0
220
0
230
1
 50
90
 73
    2
 44
1
  0
LINE
  5
12C
100
AcDbEntity
  8
rozmir
  6
ByBlock
 62
    0
370
   -2
100
AcDbLine
 10
123
 20
-148
 11
212.5
 21
-148
  0
LINE
  5
12D
100
AcDbEntity
  8
rozmir
  6
ByBlock
 62
    0
370
   -2
100
AcDbLine
 10
151
 20
-176
 11
212.5
 21
-176
  0
ENDBLK
  5
91
330
8F
100
AcDbEntity
  8
0
100
AcDbBlockEnd
  0
BLOCK
  5
93
330
92
100
AcDbEntity
  8
0
100
AcDbBlockBegin
  2
*D3
 70
    1
 10
0
 20
0
  3
*D3
  1

  0
LINE
  5
12E
100
AcDbEntity
  8
rozmir
  6
ByBlock
 62
    0
370
   -2
100
AcDbLine
 10
0
 20
-230
 11
122
 21
-230
  0
SOLID
  5
12F
100
AcDbEntity
  8
rozmir
  6
ByBlock
 62
    0
370
   -2
100
AcDbTrace
 10
0
 20
-230
 30
0
 11
5
 21
-229.1674306844543
 31
0
 12
5
 22
-230.8325693155457
 32
0
 13
5
 23
-230.8325693155457
 33
0
  0
SOLID
  5
130
100
AcDbEntity
  8
rozmir
  6
ByBlock
 62
    0
370
   -2
100
AcDbTrace
 10
122
 20
-230
 30
0
 11
117
 21
-230.8325693155457
 31
0
 12
117
 22
-229.1674306844543
 32
0
 13
117
 23
-229.1674306844543
 33
0
  0
MTEXT
  5
131
100
AcDbEntity
  8
rozmir
  6
CONTINUOUS
 62
    0
370
   -2
100
AcDbMText
 10
61
 20
-225
 30
0
 40
5
 41
8.888888888888889
 71
    5
 72
    1
  1
122
  7
standard
210
0
220
0
230
1
 50
0
 73
    2
 44
1
  0
LINE
  5
132
100
AcDbEntity
  8
rozmir
  6
ByBlock
 62
    0
370
   -2
100
AcDbLine
 10
-1.83697019872103e-16
 20
-205
 11
-4.592425496802574e-16
 21
-232.5
  0
LINE
  5
133
100
AcDbEntity
  8
rozmir
  6
ByBlock
 62
    0
370
   -2
100
AcDbLine
 10
122
 20
-149
 11
122
 21
-232.5
  0
ENDBLK
  5
94
330
92
100
AcDbEntity
  8
0
100
AcDbBlockEnd
  0
BLOCK
  5
96
330
95
100
AcDbEntity
  8
0
100
AcDbBlockBegin
  2
*D26
 70
    1
 10
0
 20
0
  3
*D26
  1

  0
LINE
  5
134
100
AcDbEntity
  8
rozmir
  6
ByBlock
 62
    0
370
   -2
100
AcDbLine
 10
-6.5
 20
-90
 11
25
 21
-90
  0
SOLID
  5
135
100
AcDbEntity
  8
rozmir
  6
ByBlock
 62
    0
370
   -2
100
AcDbTrace
 10
3.5
 20
-90
 30
0
 11
-1.5
 21
-90.83256931554568
 31
0
 12
-1.5
 22
-89.16743068445432
 32
0
 13
-1.5
 23
-89.16743068445432
 33
0
  0
SOLID
  5
136
100
AcDbEntity
  8
rozmir
  6
ByBlock
 62
    0
370
   -2
100
AcDbTrace
 10
15
 20
-90
 30
0
 11
20
 21
-89.16743068445432
 31
0
 12
20
 22
-90.83256931554568
 32
0
 13
20
 23
-90.83256931554568
 33
0
  0
MTEXT
  5
137
100
AcDbEntity
  8
rozmir
  6
CONTINUOUS
 62
    0
370
   -2
100
AcDbMText
 10
9.25
 20
-85
 30
0
 40
5
 41
9.722222222222534
 71
    5
 72
    1
  1
11,5
  7
standard
210
0
220
0
230
1
 50
0
 73
    2
 44
1
  0
LINE
  5
138
100
AcDbEntity
  8
rozmir
  6
ByBlock
 62
    0
370
   -2
100
AcDbLine
 10
3.5
 20
-111
 11
3.5
 21
-87.5
  0
LINE
  5
139
100
AcDbEntity
  8
rozmir
  6
ByBlock
 62
    0
370
   -2
100
AcDbLine
 10
15
 20
-111
 11
15
 21
-87.5
  0
ENDBLK
  5
97
330
95
100
AcDbEntity
  8
0
100
AcDbBlockEnd
  0
BLOCK
  5
99
330
98
100
AcDbEntity
  8
0
100
AcDbBlockBegin
  2
*D33
 70
    1
 10
0
 20
0
  3
*D33
  1

  0
LINE
  5
13A
100
AcDbEntity
  8
rozmir
  6
ByBlock
 62
    0
370
   -2
100
AcDbLine
 10
3.5
 20
-60
 11
174.5
 21
-60
  0
SOLID
  5
13B
100
AcDbEntity
  8
rozmir
  6
ByBlock
 62
    0
370
   -2
100
AcDbTrace
 10
3.5
 20
-60
 30
0
 11
8.5
 21
-59.16743068445432
 31
0
 12
8.5
 22
-60.83256931554568
 32
0
 13
8.5
 23
-60.83256931554568
 33
0
  0
SOLID
  5
13C
100
AcDbEntity
  8
rozmir
  6
ByBlock
 62
    0
370
   -2
100
AcDbTrace
 10
174.5
 20
-60
 30
0
 11
169.5
 21
-60.83256931554568
 31
0
 12
169.5
 22
-59.16743068445432
 32
0
 13
169.5
 23
-59.16743068445432
 33
0
  0
MTEXT
  5
13D
100
AcDbEntity
  8
rozmir
  6
CONTINUOUS
 62
    0
370
   -2
100
AcDbMText
 10
89.00000000000001
 20
-55
 30
0
 40
5
 41
7.777777777777779
 71
    5
 72
    1
  1
171
  7
standard
210
0
220
0
230
1
 50
0
 73
    2
 44
1
  0
LINE
  5
13E
100
AcDbEntity
  8
rozmir
  6
ByBlock
 62
    0
370
   -2
100
AcDbLine
 10
3.5
 20
-111
 11
3.5
 21
-57.5
  0
LINE
  5
13F
100
AcDbEntity
  8
rozmir
  6
ByBlock
 62
    0
370
   -2
100
AcDbLine
 10
174.5
 20
-111
 11
174.5
 21
-57.5
  0
ENDBLK
  5
9A
330
98
100
AcDbEntity
  8
0
100
AcDbBlockEnd
  0
BLOCK
  5
9C
330
9B
100
AcDbEntity
  8
0
100
AcDbBlockBegin
  2
*D30
 70
    1
 10
0
 20
0
  3
*D30
  1

  0
LINE
  5
140
100
AcDbEntity
  8
rozmir
  6
ByBlock
 62
    0
370
   -2
100
AcDbLine
 10
97
 20
-90
 11
128.5
 21
-90
  0
SOLID
  5
141
100
AcDbEntity
  8
rozmir
  6
ByBlock
 62
    0
370
   -2
100
AcDbTrace
 10
107
 20
-90
 30
0
 11
102
 21
-90.83256931554568
 31
0
 12
102
 22
-89.16743068445432
 32
0
 13
102
 23
-89.16743068445432
 33
0
  0
SOLID
  5
142
100
AcDbEntity
  8
rozmir
  6
ByBlock
 62
    0
370
   -2
100
AcDbTrace
 10
118.5
 20
-90
 30
0
 11
123.5
 21
-89.16743068445432
 31
0
 12
123.5
 22
-90.83256931554568
 32
0
 13
123.5
 23
-90.83256931554568
 33
0
  0
MTEXT
  5
143
100
AcDbEntity
  8
rozmir
  6
CONTINUOUS
 62
    0
370
   -2
100
AcDbMText
 10
112.75
 20
-85
 30
0
 40
5
 41
9.722222222222534
 71
    5
 72
    1
  1
11,5
  7
standard
210
0
220
0
230
1
 50
0
 73
    2
 44
1
  0
LINE
  5
144
100
AcDbEntity
  8
rozmir
  6
ByBlock
 62
    0
370
   -2
100
AcDbLine
 10
107
 20
-111
 11
107
 21
-87.5
  0
LINE
  5
145
100
AcDbEntity
  8
rozmir
  6
ByBlock
 62
    0
370
   -2
100
AcDbLine
 10
118.5
 20
-111
 11
118.5
 21
-87.5
  0
ENDBLK
  5
9D
330
9B
100
AcDbEntity
  8
0
100
AcDbBlockEnd
  0
BLOCK
  5
9F
330
9E
100
AcDbEntity
  8
0
100
AcDbBlockBegin
  2
*D34
 70
    1
 10
0
 20
0
  3
*D34
  1

  0
LINE
  5
146
100
AcDbEntity
  8
rozmir
  6
ByBlock
 62
    0
370
   -2
100
AcDbLine
 10
-30
 20
-172.5
 11
-30
 21
-200.5
  0
SOLID
  5
147
100
AcDbEntity
  8
rozmir
  6
ByBlock
 62
    0
370
   -2
100
AcDbTrace
 10
-30
 20
-172.5
 30
0
 11
-29.16743068445432
 21
-177.5
 31
0
 12
-30.83256931554568
 22
-177.5
 32
0
 13
-30.83256931554568
 23
-177.5
 33
0
  0
SOLID
  5
148
100
AcDbEntity
  8
rozmir
  6
ByBlock
 62
    0
370
   -2
100
AcDbTrace
 10
-30
 20
-200.5
 30
0
 11
-30.83256931554568
 21
-195.5
 31
0
 12
-29.16743068445432
 22
-195.5
 32
0
 13
-29.16743068445432
 23
-195.5
 33
0
  0
MTEXT
  5
149
100
AcDbEntity
  8
rozmir
  6
CONTINUOUS
 62
    0
370
   -2
100
AcDbMText
 10
-35
 20
-186.5
 30
0
 40
5
 41
6.111111111111112
 71
    5
 72
    1
  1
28
  7
standard
210
0
220
0
230
1
 50
90
 73
    2
 44
1
  0
LINE
  5
14A
100
AcDbEntity
  8
rozmir
  6
ByBlock
 62
    0
370
   -2
100
AcDbLine
 10
2.5
 20
-172.5
 11
-32.5
 21
-172.5
  0
LINE
  5
14B
100
AcDbEntity
  8
rozmir
  6
ByBlock
 62
    0
370
   -2
100
AcDbLine
 10
2.5
 20
-200.5
 11
-32.5
 21
-200.5
  0
ENDBLK
  5
A0
330
9E
100
AcDbEntity
  8
0
100
AcDbBlockEnd
  0
BLOCK
  5
A2
330
A1
100
AcDbEntity
  8
0
100
AcDbBlockBegin
  2
*D13
 70
    1
 10
0
 20
0
  3
*D13
  1

  0
LINE
  5
14C
100
AcDbEntity
  8
tekst
  6
CONTINUOUS
 62
    7
370
    0
100
AcDbLine
 10
181
 20
-115
 11
190
 21
-90
  0
LINE
  5
14D
100
AcDbEntity
  8
tekst
  6
CONTINUOUS
 62
    7
370
    0
100
AcDbLine
 10
190
 20
-90
 11
200
 21
-90
  0
SOLID
  5
14E
100
AcDbEntity
  8
tekst
  6
CONTINUOUS
 62
    7
370
    0
100
AcDbTrace
 10
181
 20
-115
 30
0
 11
181.9102433528586
 21
-110.0135555047945
 31
0
 12
183.4769513298688
 22
-110.5775703765182
 32
0
 13
183.4769513298688
 23
-110.5775703765182
 33
0
  0
ENDBLK
  5
A3
330
A1
100
AcDbEntity
  8
0
100
AcDbBlockEnd
  0
BLOCK
  5
A5
330
A4
100
AcDbEntity
  8
0
100
AcDbBlockBegin
  2
*D37
 70
    1
 10
0
 20
0
  3
*D37
  1

  0
LINE
  5
14F
100
AcDbEntity
  8
rozmir
  6
ByBlock
 62
    0
370
   -2
100
AcDbLine
 10
410
 20
30
 11
410
 21
57.5
  0
SOLID
  5
150
100
AcDbEntity
  8
rozmir
  6
ByBlock
 62
    0
370
   -2
100
AcDbTrace
 10
410
 20
40
 30
0
 11
410.8325693155457
 21
35
 31
0
 12
409.1674306844543
 22
35
 32
0
 13
409.1674306844543
 23
35
 33
0
  0
SOLID
  5
151
100
AcDbEntity
  8
rozmir
  6
ByBlock
 62
    0
370
   -2
100
AcDbTrace
 10
410
 20
47.5
 30
0
 11
409.1674306844543
 21
52.5
 31
0
 12
410.8325693155457
 22
52.5
 32
0
 13
410.8325693155457
 23
52.5
 33
0
  0
MTEXT
  5
152
100
AcDbEntity
  8
rozmir
  6
CONTINUOUS
 62
    0
370
   -2
100
AcDbMText
 10
405
 20
33.27777777777793
 30
0
 40
5
 41
8.055555555555866
 71
    5
 72
    1
  1
7,5
  7
standard
210
0
220
0
230
1
 50
90
 73
    2
 44
1
  0
LINE
  5
153
100
AcDbEntity
  8
rozmir
  6
ByBlock
 62
    0
370
   -2
100
AcDbLine
 10
375
 20
40
 11
412.5
 21
40
  0
LINE
  5
154
100
AcDbEntity
  8
rozmir
  6
ByBlock
 62
    0
370
   -2
100
AcDbLine
 10
375
 20
47.5
 11
412.5
 21
47.5
  0
ENDBLK
  5
A6
330
A4
100
AcDbEntity
  8
0
100
AcDbBlockEnd
  0
BLOCK
  5
A8
330
A7
100
AcDbEntity
  8
0
100
AcDbBlockBegin
  2
*D38
 70
    1
 10
0
 20
0
  3
*D38
  1

  0
LINE
  5
155
100
AcDbEntity
  8
rozmir
  6
ByBlock
 62
    0
370
   -2
100
AcDbLine
 10
420
 20
30
 11
420
 21
60
  0
SOLID
  5
156
100
AcDbEntity
  8
rozmir
  6
ByBlock
 62
    0
370
   -2
100
AcDbTrace
 10
420
 20
40
 30
0
 11
420.8325693155457
 21
35
 31
0
 12
419.1674306844543
 22
35
 32
0
 13
419.1674306844543
 23
35
 33
0
  0
SOLID
  5
157
100
AcDbEntity
  8
rozmir
  6
ByBlock
 62
    0
370
   -2
100
AcDbTrace
 10
420
 20
50
 30
0
 11
419.1674306844543
 21
55
 31
0
 12
420.8325693155457
 22
55
 32
0
 13
420.8325693155457
 23
55
 33
0
  0
MTEXT
  5
158
100
AcDbEntity
  8
rozmir
  6
CONTINUOUS
 62
    0
370
   -2
100
AcDbMText
 10
415
 20
45
 30
0
 40
5
 41
5
 71
    5
 72
    1
  1
10
  7
standard
210
0
220
0
230
1
 50
90
 73
    2
 44
1
  0
LINE
  5
159
100
AcDbEntity
  8
rozmir
  6
ByBlock
 62
    0
370
   -2
100
AcDbLine
 10
397
 20
40
 11
422.5
 21
40
  0
LINE
  5
15A
100
AcDbEntity
  8
rozmir
  6
ByBlock
 62
    0
370
   -2
100
AcDbLine
 10
397
 20
50
 11
422.5
 21
50
  0
ENDBLK
  5
A9
330
A7
100
AcDbEntity
  8
0
100
AcDbBlockEnd
  0
BLOCK
  5
AB
330
AA
100
AcDbEntity
  8
0
100
AcDbBlockBegin
  2
*D4
 70
    1
 10
0
 20
0
  3
*D4
  1

  0
LINE
  5
15B
100
AcDbEntity
  8
rozmir
  6
ByBlock
 62
    0
370
   -2
100
AcDbLine
 10
0
 20
-240
 11
150
 21
-240
  0
SOLID
  5
15C
100
AcDbEntity
  8
rozmir
  6
ByBlock
 62
    0
370
   -2
100
AcDbTrace
 10
0
 20
-240
 30
0
 11
5
 21
-239.1674306844543
 31
0
 12
5
 22
-240.8325693155457
 32
0
 13
5
 23
-240.8325693155457
 33
0
  0
SOLID
  5
15D
100
AcDbEntity
  8
rozmir
  6
ByBlock
 62
    0
370
   -2
100
AcDbTrace
 10
150
 20
-240
 30
0
 11
145
 21
-240.8325693155457
 31
0
 12
145
 22
-239.1674306844543
 32
0
 13
145
 23
-239.1674306844543
 33
0
  0
MTEXT
  5
15E
100
AcDbEntity
  8
rozmir
  6
CONTINUOUS
 62
    0
370
   -2
100
AcDbMText
 10
75
 20
-235
 30
0
 40
5
 41
8.888888888889198
 71
    5
 72
    1
  1
150
  7
standard
210
0
220
0
230
1
 50
0
 73
    2
 44
1
  0
LINE
  5
15F
100
AcDbEntity
  8
rozmir
  6
ByBlock
 62
    0
370
   -2
100
AcDbLine
 10
-1.83697019872103e-16
 20
-205
 11
-4.592425496802574e-16
 21
-242.5
  0
LINE
  5
160
100
AcDbEntity
  8
rozmir
  6
ByBlock
 62
    0
370
   -2
100
AcDbLine
 10
150
 20
-177
 11
150
 21
-242.5
  0
ENDBLK
  5
AC
330
AA
100
AcDbEntity
  8
0
100
AcDbBlockEnd
  0
BLOCK
  5
AE
330
AD
100
AcDbEntity
  8
0
100
AcDbBlockBegin
  2
*D11
 70
    1
 10
0
 20
0
  3
*D11
  1

  0
LINE
  5
161
100
AcDbEntity
  8
tekst
  6
CONTINUOUS
 62
    7
370
    0
100
AcDbLine
 10
370
 20
0
 11
410
 21
10
  0
LINE
  5
162
100
AcDbEntity
  8
tekst
  6
CONTINUOUS
 62
    7
370
    0
100
AcDbLine
 10
410
 20
10
 11
420
 21
10
  0
SOLID
  5
163
100
AcDbEntity
  8
tekst
  6
CONTINUOUS
 62
    7
370
    0
100
AcDbTrace
 10
370
 20
0
 30
0
 11
374.6487847813947
 21
2.02038900250944
 31
0
 12
375.0526402200586
 22
0.40496724785389
 32
0
 13
375.0526402200586
 23
0.40496724785389
 33
0
  0
ENDBLK
  5
AF
330
AD
100
AcDbEntity
  8
0
100
AcDbBlockEnd
  0
BLOCK
  5
B1
330
B0
100
AcDbEntity
  8
0
100
AcDbBlockBegin
  2
*D10
 70
    1
 10
0
 20
0
  3
*D10
  1

  0
LINE
  5
164
100
AcDbEntity
  8
tekst
  6
CONTINUOUS
 62
    7
370
    0
100
AcDbLine
 10
285
 20
2
 11
250
 21
40
  0
LINE
  5
165
100
AcDbEntity
  8
tekst
  6
CONTINUOUS
 62
    7
370
    0
100
AcDbLine
 10
250
 20
40
 11
240
 21
40
  0
SOLID
  5
166
100
AcDbEntity
  8
tekst
  6
CONTINUOUS
 62
    7
370
    0
100
AcDbTrace
 10
285
 20
2
 30
0
 11
281.0002289414858
 21
5.113680000362943
 31
0
 12
282.2250135109963
 22
6.241771051227926
 32
0
 13
282.2250135109963
 23
6.241771051227926
 33
0
  0
ENDBLK
  5
B2
330
B0
100
AcDbEntity
  8
0
100
AcDbBlockEnd
  0
BLOCK
  5
B4
330
B3
100
AcDbEntity
  8
0
100
AcDbBlockBegin
  2
*D2
 70
    1
 10
0
 20
0
  3
*D2
  1

  0
LINE
  5
167
100
AcDbEntity
  8
rozmir
  6
ByBlock
 62
    0
370
   -2
100
AcDbLine
 10
210
 20
-176
 11
210
 21
-204
  0
SOLID
  5
168
100
AcDbEntity
  8
rozmir
  6
ByBlock
 62
    0
370
   -2
100
AcDbTrace
 10
210
 20
-176
 30
0
 11
210.8325693155457
 21
-181
 31
0
 12
209.1674306844543
 22
-181
 32
0
 13
209.1674306844543
 23
-181
 33
0
  0
SOLID
  5
169
100
AcDbEntity
  8
rozmir
  6
ByBlock
 62
    0
370
   -2
100
AcDbTrace
 10
210
 20
-204
 30
0
 11
209.1674306844543
 21
-199
 31
0
 12
210.8325693155457
 22
-199
 32
0
 13
210.8325693155457
 23
-199
 33
0
  0
MTEXT
  5
16A
100
AcDbEntity
  8
rozmir
  6
CONTINUOUS
 62
    0
370
   -2
100
AcDbMText
 10
205
 20
-190
 30
0
 40
5
 41
6.111111111111112
 71
    5
 72
    1
  1
28
  7
standard
210
0
220
0
230
1
 50
90
 73
    2
 44
1
  0
LINE
  5
16B
100
AcDbEntity
  8
rozmir
  6
ByBlock
 62
    0
370
   -2
100
AcDbLine
 10
151
 20
-176
 11
212.5
 21
-176
  0
LINE
  5
16C
100
AcDbEntity
  8
rozmir
  6
ByBlock
 62
    0
370
   -2
100
AcDbLine
 10
179
 20
-204
 11
212.5
 21
-204
  0
ENDBLK
  5
B5
330
B3
100
AcDbEntity
  8
0
100
AcDbBlockEnd
  0
BLOCK
  5
B7
330
B6
100
AcDbEntity
  8
0
100
AcDbBlockBegin
  2
*D14
 70
    1
 10
0
 20
0
  3
*D14
  1

  0
LINE
  5
16D
100
AcDbEntity
  8
rozmir
  6
ByBlock
 62
    0
370
   -2
100
AcDbLine
 10
-20
 20
-102
 11
-20
 21
-127
  0
SOLID
  5
16E
100
AcDbEntity
  8
rozmir
  6
ByBlock
 62
    0
370
   -2
100
AcDbTrace
 10
-20
 20
-112
 30
0
 11
-20.83256931554568
 21
-107
 31
0
 12
-19.16743068445432
 22
-107
 32
0
 13
-19.16743068445432
 23
-107
 33
0
  0
SOLID
  5
16F
100
AcDbEntity
  8
rozmir
  6
ByBlock
 62
    0
370
   -2
100
AcDbTrace
 10
-20
 20
-117
 30
0
 11
-19.16743068445432
 21
-122
 31
0
 12
-20.83256931554568
 22
-122
 32
0
 13
-20.83256931554568
 23
-122
 33
0
  0
MTEXT
  5
170
100
AcDbEntity
  8
rozmir
  6
CONTINUOUS
 62
    0
370
   -2
100
AcDbMText
 10
-25
 20
-114.5
 30
0
 40
5
 41
2.222222222222532
 71
    5
 72
    1
  1
5
  7
standard
210
0
220
0
230
1
 50
90
 73
    2
 44
1
  0
LINE
  5
171
100
AcDbEntity
  8
rozmir
  6
ByBlock
 62
    0
370
   -2
100
AcDbLine
 10
-11
 20
-112
 11
-22.5
 21
-112
  0
LINE
  5
172
100
AcDbEntity
  8
rozmir
  6
ByBlock
 62
    0
370
   -2
100
AcDbLine
 10
-12
 20
-117
 11
-22.5
 21
-117
  0
ENDBLK
  5
B8
330
B6
100
AcDbEntity
  8
0
100
AcDbBlockEnd
  0
BLOCK
  5
BA
330
B9
100
AcDbEntity
  8
0
100
AcDbBlockBegin
  2
*D15
 70
    1
 10
0
 20
0
  3
*D15
  1

  0
LINE
  5
173
100
AcDbEntity
  8
rozmir
  6
ByBlock
 62
    0
370
   -2
100
AcDbLine
 10
200
 20
-127
 11
200
 21
-102
  0
SOLID
  5
174
100
AcDbEntity
  8
rozmir
  6
ByBlock
 62
    0
370
   -2
100
AcDbTrace
 10
200
 20
-117
 30
0
 11
200.8325693155457
 21
-122
 31
0
 12
199.1674306844543
 22
-122
 32
0
 13
199.1674306844543
 23
-122
 33
0
  0
SOLID
  5
175
100
AcDbEntity
  8
rozmir
  6
ByBlock
 62
    0
370
   -2
100
AcDbTrace
 10
200
 20
-112
 30
0
 11
199.1674306844543
 21
-107
 31
0
 12
200.8325693155457
 22
-107
 32
0
 13
200.8325693155457
 23
-107
 33
0
  0
MTEXT
  5
176
100
AcDbEntity
  8
rozmir
  6
CONTINUOUS
 62
    0
370
   -2
100
AcDbMText
 10
195
 20
-114.5
 30
0
 40
5
 41
2.222222222222532
 71
    5
 72
    1
  1
5
  7
standard
210
0
220
0
230
1
 50
90
 73
    2
 44
1
  0
LINE
  5
177
100
AcDbEntity
  8
rozmir
  6
ByBlock
 62
    0
370
   -2
100
AcDbLine
 10
190
 20
-117
 11
202.5
 21
-117
  0
LINE
  5
178
100
AcDbEntity
  8
rozmir
  6
ByBlock
 62
    0
370
   -2
100
AcDbLine
 10
189
 20
-112
 11
202.5
 21
-112
  0
ENDBLK
  5
BB
330
B9
100
AcDbEntity
  8
0
100
AcDbBlockEnd
  0
BLOCK
  5
BD
330
BC
100
AcDbEntity
  8
0
100
AcDbBlockBegin
  2
*D6
 70
    1
 10
0
 20
0
  3
*D6
  1

  0
LINE
  5
179
100
AcDbEntity
  8
rozmir
  6
ByBlock
 62
    0
370
   -2
100
AcDbLine
 10
210
 20
-112
 11
210
 21
-148
  0
SOLID
  5
17A
100
AcDbEntity
  8
rozmir
  6
ByBlock
 62
    0
370
   -2
100
AcDbTrace
 10
210
 20
-112
 30
0
 11
210.8325693155457
 21
-117
 31
0
 12
209.1674306844543
 22
-117
 32
0
 13
209.1674306844543
 23
-117
 33
0
  0
SOLID
  5
17B
100
AcDbEntity
  8
rozmir
  6
ByBlock
 62
    0
370
   -2
100
AcDbTrace
 10
210
 20
-148
 30
0
 11
209.1674306844543
 21
-143
 31
0
 12
210.8325693155457
 22
-143
 32
0
 13
210.8325693155457
 23
-143
 33
0
  0
MTEXT
  5
17C
100
AcDbEntity
  8
rozmir
  6
CONTINUOUS
 62
    0
370
   -2
100
AcDbMText
 10
205
 20
-130
 30
0
 40
5
 41
6.111111111111732
 71
    5
 72
    1
  1
36
  7
standard
210
0
220
0
230
1
 50
90
 73
    2
 44
1
  0
LINE
  5
17D
100
AcDbEntity
  8
rozmir
  6
ByBlock
 62
    0
370
   -2
100
AcDbLine
 10
189
 20
-112
 11
212.5
 21
-112
  0
LINE
  5
17E
100
AcDbEntity
  8
rozmir
  6
ByBlock
 62
    0
370
   -2
100
AcDbLine
 10
123
 20
-148
 11
212.5
 21
-148
  0
ENDBLK
  5
BE
330
BC
100
AcDbEntity
  8
0
100
AcDbBlockEnd
  0
BLOCK
  5
C0
330
BF
100
AcDbEntity
  8
0
100
AcDbBlockBegin
  2
*D16
 70
    1
 10
0
 20
0
  3
*D16
  1

  0
LINE
  5
17F
100
AcDbEntity
  8
rozmir
  6
ByBlock
 62
    0
370
   -2
100
AcDbLine
 10
210
 20
-17
 11
210
 21
10
  0
SOLID
  5
180
100
AcDbEntity
  8
rozmir
  6
ByBlock
 62
    0
370
   -2
100
AcDbTrace
 10
210
 20
-7
 30
0
 11
210.8325693155457
 21
-12
 31
0
 12
209.1674306844543
 22
-12
 32
0
 13
209.1674306844543
 23
-12
 33
0
  0
SOLID
  5
181
100
AcDbEntity
  8
rozmir
  6
ByBlock
 62
    0
370
   -2
100
AcDbTrace
 10
210
 20
0
 30
0
 11
209.1674306844543
 21
5
 31
0
 12
210.8325693155457
 22
5
 32
0
 13
210.8325693155457
 23
5
 33
0
  0
MTEXT
  5
182
100
AcDbEntity
  8
rozmir
  6
CONTINUOUS
 62
    0
370
   -2
100
AcDbMText
 10
205
 20
-3.5
 30
0
 40
5
 41
2.222222222222222
 71
    5
 72
    1
  1
7
  7
standard
210
0
220
0
230
1
 50
90
 73
    2
 44
1
  0
LINE
  5
183
100
AcDbEntity
  8
rozmir
  6
ByBlock
 62
    0
370
   -2
100
AcDbLine
 10
189
 20
-7
 11
212.5
 21
-7
  0
LINE
  5
184
100
AcDbEntity
  8
rozmir
  6
ByBlock
 62
    0
370
   -2
100
AcDbLine
 10
189
 20
0
 11
212.5
 21
0
  0
ENDBLK
  5
C1
330
BF
100
AcDbEntity
  8
0
100
AcDbBlockEnd
  0
BLOCK
  5
C3
330
C2
100
AcDbEntity
  8
0
100
AcDbBlockBegin
  2
*D7
 70
    1
 10
0
 20
0
  3
*D7
  1

  0
LINE
  5
185
100
AcDbEntity
  8
rozmir
  6
ByBlock
 62
    0
370
   -2
100
AcDbLine
 10
210
 20
-122
 11
210
 21
-90
  0
SOLID
  5
186
100
AcDbEntity
  8
rozmir
  6
ByBlock
 62
    0
370
   -2
100
AcDbTrace
 10
210
 20
-112
 30
0
 11
210.8325693155457
 21
-117
 31
0
 12
209.1674306844543
 22
-117
 32
0
 13
209.1674306844543
 23
-117
 33
0
  0
SOLID
  5
187
100
AcDbEntity
  8
rozmir
  6
ByBlock
 62
    0
370
   -2
100
AcDbTrace
 10
210
 20
-100
 30
0
 11
209.1674306844543
 21
-95
 31
0
 12
210.8325693155457
 22
-95
 32
0
 13
210.8325693155457
 23
-95
 33
0
  0
MTEXT
  5
188
100
AcDbEntity
  8
rozmir
  6
CONTINUOUS
 62
    0
370
   -2
100
AcDbMText
 10
205
 20
-106
 30
0
 40
5
 41
5
 71
    5
 72
    1
  1
12
  7
standard
210
0
220
0
230
1
 50
90
 73
    2
 44
1
  0
LINE
  5
189
100
AcDbEntity
  8
rozmir
  6
ByBlock
 62
    0
370
   -2
100
AcDbLine
 10
189
 20
-112
 11
212.5
 21
-112
  0
LINE
  5
18A
100
AcDbEntity
  8
rozmir
  6
ByBlock
 62
    0
370
   -2
100
AcDbLine
 10
189
 20
-100
 11
212.5
 21
-100
  0
ENDBLK
  5
C4
330
C2
100
AcDbEntity
  8
0
100
AcDbBlockEnd
  0
BLOCK
  5
C6
330
C5
100
AcDbEntity
  8
0
100
AcDbBlockBegin
  2
*D20
 70
    1
 10
0
 20
0
  3
*D20
  1

  0
LINE
  5
18B
100
AcDbEntity
  8
rozmir
  6
ByBlock
 62
    0
370
   -2
100
AcDbLine
 10
338
 20
56
 11
386
 21
56
  0
SOLID
  5
18C
100
AcDbEntity
  8
rozmir
  6
ByBlock
 62
    0
370
   -2
100
AcDbTrace
 10
338
 20
56
 30
0
 11
343
 21
56.83256931554568
 31
0
 12
343
 22
55.16743068445432
 32
0
 13
343
 23
55.16743068445432
 33
0
  0
SOLID
  5
18D
100
AcDbEntity
  8
rozmir
  6
ByBlock
 62
    0
370
   -2
100
AcDbTrace
 10
386
 20
56
 30
0
 11
381
 21
55.16743068445432
 31
0
 12
381
 22
56.83256931554568
 32
0
 13
381
 23
56.83256931554568
 33
0
  0
MTEXT
  5
18E
100
AcDbEntity
  8
rozmir
  6
CONTINUOUS
 62
    0
370
   -2
100
AcDbMText
 10
362
 20
61
 30
0
 40
5
 41
6.666666666666667
 71
    5
 72
    1
  1
48
  7
standard
210
0
220
0
230
1
 50
0
 73
    2
 44
1
  0
LINE
  5
18F
100
AcDbEntity
  8
rozmir
  6
ByBlock
 62
    0
370
   -2
100
AcDbLine
 10
338
 20
52
 11
338
 21
58.5
  0
LINE
  5
190
100
AcDbEntity
  8
rozmir
  6
ByBlock
 62
    0
370
   -2
100
AcDbLine
 10
386
 20
51
 11
386
 21
58.5
  0
ENDBLK
  5
C7
330
C5
100
AcDbEntity
  8
0
100
AcDbBlockEnd
  0
BLOCK
  5
C9
330
C8
100
AcDbEntity
  8
0
100
AcDbBlockBegin
  2
*D25
 70
    1
 10
0
 20
0
  3
*D25
  1

  0
LINE
  5
191
100
AcDbEntity
  8
rozmir
  6
ByBlock
 62
    0
370
   -2
100
AcDbLine
 10
210
 20
34
 11
210
 21
51
  0
SOLID
  5
192
100
AcDbEntity
  8
rozmir
  6
ByBlock
 62
    0
370
   -2
100
AcDbTrace
 10
210
 20
34
 30
0
 11
209.1674306844543
 21
39
 31
0
 12
210.8325693155457
 22
39
 32
0
 13
210.8325693155457
 23
39
 33
0
  0
SOLID
  5
193
100
AcDbEntity
  8
rozmir
  6
ByBlock
 62
    0
370
   -2
100
AcDbTrace
 10
210
 20
51
 30
0
 11
210.8325693155457
 21
46
 31
0
 12
209.1674306844543
 22
46
 32
0
 13
209.1674306844543
 23
46
 33
0
  0
MTEXT
  5
194
100
AcDbEntity
  8
rozmir
  6
CONTINUOUS
 62
    0
370
   -2
100
AcDbMText
 10
205
 20
42.5
 30
0
 40
5
 41
5
 71
    5
 72
    1
  1
17
  7
standard
210
0
220
0
230
1
 50
90
 73
    2
 44
1
  0
LINE
  5
195
100
AcDbEntity
  8
rozmir
  6
ByBlock
 62
    0
370
   -2
100
AcDbLine
 10
151
 20
34
 11
212.5
 21
34
  0
LINE
  5
196
100
AcDbEntity
  8
rozmir
  6
ByBlock
 62
    0
370
   -2
100
AcDbLine
 10
123
 20
51
 11
212.5
 21
51
  0
ENDBLK
  5
CA
330
C8
100
AcDbEntity
  8
0
100
AcDbBlockEnd
  0
BLOCK
  5
CC
330
CB
100
AcDbEntity
  8
0
100
AcDbBlockBegin
  2
*D36
 70
    1
 10
0
 20
0
  3
*D36
  1

  0
LINE
  5
197
100
AcDbEntity
  8
rozmir
  6
ByBlock
 62
    0
370
   -2
100
AcDbLine
 10
-30
 20
-144.5
 11
-30
 21
-172.5
  0
SOLID
  5
198
100
AcDbEntity
  8
rozmir
  6
ByBlock
 62
    0
370
   -2
100
AcDbTrace
 10
-30
 20
-144.5
 30
0
 11
-29.16743068445432
 21
-149.5
 31
0
 12
-30.83256931554568
 22
-149.5
 32
0
 13
-30.83256931554568
 23
-149.5
 33
0
  0
SOLID
  5
199
100
AcDbEntity
  8
rozmir
  6
ByBlock
 62
    0
370
   -2
100
AcDbTrace
 10
-30
 20
-172.5
 30
0
 11
-30.83256931554568
 21
-167.5
 31
0
 12
-29.16743068445432
 22
-167.5
 32
0
 13
-29.16743068445432
 23
-167.5
 33
0
  0
MTEXT
  5
19A
100
AcDbEntity
  8
rozmir
  6
CONTINUOUS
 62
    0
370
   -2
100
AcDbMText
 10
-35
 20
-158.5
 30
0
 40
5
 41
6.111111111111112
 71
    5
 72
    1
  1
28
  7
standard
210
0
220
0
230
1
 50
90
 73
    2
 44
1
  0
LINE
  5
19B
100
AcDbEntity
  8
rozmir
  6
ByBlock
 62
    0
370
   -2
100
AcDbLine
 10
2.5
 20
-144.5
 11
-32.5
 21
-144.5
  0
LINE
  5
19C
100
AcDbEntity
  8
rozmir
  6
ByBlock
 62
    0
370
   -2
100
AcDbLine
 10
2.5
 20
-172.5
 11
-32.5
 21
-172.5
  0
ENDBLK
  5
CD
330
CB
100
AcDbEntity
  8
0
100
AcDbBlockEnd
  0
BLOCK
  5
CF
330
CE
100
AcDbEntity
  8
0
100
AcDbBlockBegin
  2
block10
 70
    0
 10
0
 20
0
  3
block10
  1

  0
LWPOLYLINE
  5
19D
100
AcDbEntity
  8
0
  6
CONTINUOUS
 62
    7
370
   70
100
AcDbPolyline
 90
   12
 70
    1
 43
0
 10
-0.6062178
 20
1
 10
0
 20
0
 10
0.6062178
 20
1
 10
1.8186533
 20
1
 10
1.2124356
 20
2
 10
1.8186533
 20
3
 10
0.6062178
 20
3
 10
0
 20
4
 10
-0.6062178
 20
3
 10
-1.8186533
 20
3
 10
-1.2124356
 20
2
 10
-1.8186533
 20
1
  0
ENDBLK
  5
D0
330
CE
100
AcDbEntity
  8
0
100
AcDbBlockEnd
  0
ENDSEC
  0
SECTION
  2
ENTITIES
  0
HATCH
  5
19E
100
AcDbEntity
  8
dveri
  6
ByLayer
 62
  256
370
   -1
100
AcDbHatch
 10
0
 20
0
 30
0
210
0
220
0
230
1
  2
gost_metal
 70
    0
 71
    0
 91
    1
 92
    0
 93
    4
 72
    1
 10
387
 20
50.4
 11
396
 21
50.4
 72
    1
 10
396
 20
50.4
 11
396
 21
50
 72
    1
 10
396
 20
50
 11
387
 21
50
 72
    1
 10
387
 20
50
 11
387
 21
50.4
 97
    0
 75
    0
 76
    1
 52
0
 41
0.1
 77
    0
 78
    0
 98
    0
  0
HATCH
  5
19F
100
AcDbEntity
  8
dveri
  6
ByLayer
 62
  256
370
   -1
100
AcDbHatch
 10
0
 20
0
 30
0
210
0
220
0
230
1
  2
gost_metal
 70
    0
 71
    0
 91
    1
 92
    0
 93
   16
 72
    2
 10
389.6
 20
50.79999999999998
 40
0.09999999999998721
 50
270.0000000000326
 51
1.22133299768199e-11
 73
    1
 72
    1
 10
389.7
 20
50.8
 11
389.7
 21
54
 72
    2
 10
389.6
 20
53.99999999999999
 40
0.1000000000000085
 50
8.142219984546603e-12
 51
90
 73
    1
 72
    1
 10
389.6
 20
54.09999999999999
 11
386.4
 21
54.1
 72
    2
 10
386.4
 20
54.00000000000001
 40
0.09999999999998366
 50
90.00000000003257
 51
180.0000000000081
 73
    1
 72
    1
 10
386.3
 20
54
 11
386.3
 21
50.8
 72
    2
 10
386.4
 20
50.80000000000001
 40
0.1000000000000121
 50
180.0000000000081
 51
270
 73
    1
 72
    1
 10
386.4
 20
50.7
 11
389.6
 21
50.7
 72
    2
 10
389.6
 20
50.79999999999998
 40
0.3999999999999879
 50
270
 51
2.035554996136651e-12
 73
    1
 72
    1
 10
390
 20
50.8
 11
390
 21
54
 72
    2
 10
389.6
 20
54.00000000000001
 40
0.3999999999999879
 50
359.999999999998
 51
90
 73
    1
 72
    1
 10
389.6
 20
54.4
 11
386.4
 21
54.4
 72
    2
 10
386.4
 20
54.00000000000001
 40
0.3999999999999879
 50
90
 51
180.000000000002
 73
    1
 72
    1
 10
386
 20
54
 11
386
 21
50.8
 72
    2
 10
386.4
 20
50.79999999999998
 40
0.3999999999999879
 50
179.999999999998
 51
270
 73
    1
 72
    1
 10
386.4
 20
50.4
 11
389.6
 21
50.4
 97
    0
 75
    0
 76
    1
 52
0
 41
0.1
 77
    0
 78
    0
 98
    0
  0
HATCH
  5
1A0
100
AcDbEntity
  8
skhody
  6
DASHED2
 62
  256
370
   -1
100
AcDbHatch
 10
0
 20
0
 30
0
210
0
220
0
230
1
  2
gost_concrete
 70
    0
 71
    0
 91
    1
 92
    0
 93
   10
 72
    1
 10
394
 20
45
 11
398
 21
43
 72
    1
 10
398
 20
43
 11
396
 21
42
 72
    1
 10
396
 20
42
 11
396
 21
40
 72
    1
 10
396
 20
40
 11
374
 21
40
 72
    1
 10
374
 20
40
 11
374
 21
47.5
 72
    1
 10
374
 20
47.5
 11
386
 21
47.5
 72
    1
 10
386
 20
47.5
 11
386
 21
50
 72
    1
 10
386
 20
50
 11
396
 21
50
 72
    1
 10
396
 20
50
 11
396
 21
46
 72
    1
 10
396
 20
46
 11
394
 21
45
 97
    0
 75
    0
 76
    1
 52
0
 41
1
 77
    0
 78
    0
 98
    0
  0
HATCH
  5
1A1
100
AcDbEntity
  8
pisok
  6
DASHED2
 62
  256
370
   -1
100
AcDbHatch
 10
0
 20
0
 30
0
210
0
220
0
230
1
  2
gost_sand
 70
    0
 71
    0
 91
    1
 92
    0
 93
   10
 72
    1
 10
-10
 20
-3
 11
188
 21
-3
 72
    1
 10
188
 20
-3
 11
187
 21
-4
 72
    1
 10
187
 20
-4
 11
188
 21
-5
 72
    1
 10
188
 20
-5
 11
187
 21
-6
 72
    1
 10
187
 20
-6
 11
188
 21
-7
 72
    1
 10
188
 20
-7
 11
-10
 21
-6.999999999999999
 72
    1
 10
-10
 20
-6.999999999999999
 11
-9
 21
-6
 72
    1
 10
-9
 20
-6
 11
-10
 21
-5
 72
    1
 10
-10
 20
-5
 11
-9
 21
-4
 72
    1
 10
-9
 20
-4
 11
-10
 21
-3
 97
    0
 75
    0
 76
    1
 52
1.570796326794897
 41
1
 77
    0
 78
    0
 98
    0
  0
HATCH
  5
1A2
100
AcDbEntity
  8
pisok
  6
DASHED2
 62
  256
370
   -1
100
AcDbHatch
 10
0
 20
0
 30
0
210
0
220
0
230
1
  2
gost_sand
 70
    0
 71
    0
 91
    1
 92
    0
 93
    7
 72
    1
 10
251
 20
-7
 11
250
 21
-6
 72
    1
 10
250
 20
-6
 11
251
 21
-5
 72
    1
 10
251
 20
-5
 11
250
 21
-4
 72
    1
 10
250
 20
-4
 11
251
 21
-3
 72
    1
 10
251
 20
-3
 11
285.5
 21
-3.000000000000002
 72
    1
 10
285.5
 20
-3.000000000000002
 11
285.5
 21
-7.000000000000002
 72
    1
 10
285.5
 20
-7.000000000000002
 11
251
 21
-7
 97
    0
 75
    0
 76
    1
 52
1.570796326794897
 41
1
 77
    0
 78
    0
 98
    0
  0
HATCH
  5
1A3
100
AcDbEntity
  8
lyce
  6
ByLayer
 62
  256
370
   -1
100
AcDbHatch
 10
0
 20
0
 30
0
210
0
220
0
230
1
  2
gost_ceramics
 70
    0
 71
    0
 91
    1
 92
    0
 93
    8
 72
    1
 10
190
 20
-107
 11
186
 21
-105
 72
    1
 10
186
 20
-105
 11
188
 21
-104
 72
    1
 10
188
 20
-104
 11
188
 21
-100
 72
    1
 10
188
 20
-100
 11
107
 21
-100
 72
    1
 10
107
 20
-100
 11
107
 21
-112
 72
    1
 10
107
 20
-112
 11
188
 21
-112
 72
    1
 10
188
 20
-112
 11
188
 21
-108
 72
    1
 10
188
 20
-108
 11
190
 21
-107
 97
    0
 75
    0
 76
    1
 52
3.141592653589793
 41
1
 77
    0
 78
    0
 98
    0
  0
HATCH
  5
1A4
100
AcDbEntity
  8
skhody
  6
DASHED2
 62
  256
370
   -1
100
AcDbHatch
 10
0
 20
0
 30
0
210
0
220
0
230
1
  2
gost_concrete
 70
    0
 71
    0
 91
    1
 92
    0
 93
    8
 72
    1
 10
285.5
 20
-7.000000000000002
 11
285.5
 21
13.50000000000001
 72
    1
 10
285.5
 20
13.50000000000001
 11
313.5
 21
13.5
 72
    1
 10
313.5
 20
13.5
 11
313.5
 21
30.5
 72
    1
 10
313.5
 20
30.5
 11
341.5
 21
30.5
 72
    1
 10
341.5
 20
30.5
 11
341.5
 21
47.5
 72
    1
 10
341.5
 20
47.5
 11
374
 21
47.5
 72
    1
 10
374
 20
47.5
 11
374
 21
-7
 72
    1
 10
374
 20
-7
 11
285.5
 21
-7.000000000000002
 97
    0
 75
    0
 76
    1
 52
1.570796326794897
 41
1
 77
    0
 78
    0
 98
    0
  0
HATCH
  5
1A5
100
AcDbEntity
  8
plytka3
  6
ByLayer
 62
  256
370
   -1
100
AcDbHatch
 10
0
 20
0
 30
0
210
0
220
0
230
1
  2
gost_stone
 70
    0
 71
    0
 91
    1
 92
    0
 93
    4
 72
    1
 10
386
 20
48
 11
386
 21
51
 72
    1
 10
386
 20
51
 11
338
 21
51
 72
    1
 10
338
 20
51
 11
338
 21
48
 72
    1
 10
338
 20
48
 11
386
 21
48
 97
    0
 75
    0
 76
    1
 52
0
 41
1
 77
    0
 78
    0
 98
    0
  0
HATCH
  5
1A6
100
AcDbEntity
  8
plytka3
  6
ByLayer
 62
  256
370
   -1
100
AcDbHatch
 10
0
 20
0
 30
0
210
0
220
0
230
1
  2
gost_stone
 70
    0
 71
    0
 91
    1
 92
    0
 93
    4
 72
    1
 10
338
 20
48
 11
341
 21
48
 72
    1
 10
341
 20
48
 11
341
 21
34
 72
    1
 10
341
 20
34
 11
338
 21
34
 72
    1
 10
338
 20
34
 11
338
 21
48
 97
    0
 75
    0
 76
    1
 52
0
 41
1
 77
    0
 78
    0
 98
    0
  0
HATCH
  5
1A7
100
AcDbEntity
  8
fundament
  6
DASHED2
 62
  256
370
   -1
100
AcDbHatch
 10
0
 20
0
 30
0
210
0
220
0
230
1
  2
gost_concrete
 70
    0
 71
    0
 91
    1
 92
    0
 93
   12
 72
    1
 10
384
 20
-15
 11
386
 21
-19
 72
    1
 10
386
 20
-19
 11
387
 21
-17
 72
    1
 10
387
 20
-17
 11
396
 21
-17
 72
    1
 10
396
 20
-17
 11
396
 21
10
 72
    1
 10
396
 20
10
 11
394
 21
11
 72
    1
 10
394
 20
11
 11
398
 21
13
 72
    1
 10
398
 20
13
 11
396
 21
14
 72
    1
 10
396
 20
14
 11
396
 21
40
 72
    1
 10
396
 20
40
 11
374
 21
40
 72
    1
 10
374
 20
40
 11
374
 21
-17
 72
    1
 10
374
 20
-17
 11
383
 21
-17
 72
    1
 10
383
 20
-17
 11
384
 21
-15
 97
    0
 75
    0
 76
    1
 52
1.570796326794897
 41
2
 77
    0
 78
    0
 98
    0
  0
HATCH
  5
1A8
100
AcDbEntity
  8
plytka3
  6
ByLayer
 62
  256
370
   -1
100
AcDbHatch
 10
0
 20
0
 30
0
210
0
220
0
230
1
  2
gost_stone
 70
    0
 71
    0
 91
    1
 92
    0
 93
    4
 72
    1
 10
310
 20
31
 11
313
 21
31
 72
    1
 10
313
 20
31
 11
313
 21
16.99999999999999
 72
    1
 10
313
 20
16.99999999999999
 11
310
 21
16.99999999999999
 72
    1
 10
310
 20
16.99999999999999
 11
310
 21
31
 97
    0
 75
    0
 76
    1
 52
0
 41
1
 77
    0
 78
    0
 98
    0
  0
HATCH
  5
1A9
100
AcDbEntity
  8
plytka3
  6
ByLayer
 62
  256
370
   -1
100
AcDbHatch
 10
0
 20
0
 30
0
210
0
220
0
230
1
  2
gost_stone
 70
    0
 71
    0
 91
    1
 92
    0
 93
    4
 72
    1
 10
340
 20
34
 11
340
 21
31
 72
    1
 10
340
 20
31
 11
310
 21
31
 72
    1
 10
310
 20
31
 11
310
 21
34
 72
    1
 10
310
 20
34
 11
340
 21
34
 97
    0
 75
    0
 76
    1
 52
0
 41
1
 77
    0
 78
    0
 98
    0
  0
HATCH
  5
1AA
100
AcDbEntity
  8
plytka3
  6
ByLayer
 62
  256
370
   -1
100
AcDbHatch
 10
0
 20
0
 30
0
210
0
220
0
230
1
  2
gost_stone
 70
    0
 71
    0
 91
    1
 92
    0
 93
    4
 72
    1
 10
312
 20
16.99999999999999
 11
312
 21
13.99999999999999
 72
    1
 10
312
 20
13.99999999999999
 11
282
 21
14
 72
    1
 10
282
 20
14
 11
282
 21
17
 72
    1
 10
282
 20
17
 11
312
 21
16.99999999999999
 97
    0
 75
    0
 76
    1
 52
0
 41
1
 77
    0
 78
    0
 98
    0
  0
HATCH
  5
1AB
100
AcDbEntity
  8
plytka3
  6
ByLayer
 62
  256
370
   -1
100
AcDbHatch
 10
0
 20
0
 30
0
210
0
220
0
230
1
  2
gost_stone
 70
    0
 71
    0
 91
    1
 92
    0
 93
    4
 72
    1
 10
282
 20
14
 11
285
 21
14
 72
    1
 10
285
 20
14
 11
285
 21
-1.77635683940025e-15
 72
    1
 10
285
 20
-1.77635683940025e-15
 11
282
 21
-1.77635683940025e-15
 72
    1
 10
282
 20
-1.77635683940025e-15
 11
282
 21
14
 97
    0
 75
    0
 76
    1
 52
0
 41
1
 77
    0
 78
    0
 98
    0
  0
HATCH
  5
1AC
100
AcDbEntity
  8
fundament
  6
ByLayer
 62
  256
370
   -1
100
AcDbHatch
 10
0
 20
0
 30
0
210
0
220
0
230
1
  2
gost_concrete
 70
    0
 71
    0
 91
    1
 92
    0
 93
   20
 72
    1
 10
-10
 20
-14
 11
-10
 21
-17
 72
    1
 10
-10
 20
-17
 11
38
 21
-17
 72
    1
 10
38
 20
-17
 11
39
 21
-15
 72
    1
 10
39
 20
-15
 11
41
 21
-19
 72
    1
 10
41
 20
-19
 11
42
 21
-17
 72
    1
 10
42
 20
-17
 11
140
 21
-17
 72
    1
 10
140
 20
-17
 11
141
 21
-15
 72
    1
 10
141
 20
-15
 11
143
 21
-19
 72
    1
 10
143
 20
-19
 11
144
 21
-17
 72
    1
 10
144
 20
-17
 11
188
 21
-17
 72
    1
 10
188
 20
-17
 11
188
 21
-15
 72
    1
 10
188
 20
-15
 11
190
 21
-14
 72
    1
 10
190
 20
-14
 11
186
 21
-12
 72
    1
 10
186
 20
-12
 11
188
 21
-11
 72
    1
 10
188
 20
-11
 11
188
 21
-7
 72
    1
 10
188
 20
-7
 11
-10
 21
-7
 72
    1
 10
-10
 20
-7
 11
-10
 21
-10
 72
    1
 10
-10
 20
-10
 11
-8
 21
-11
 72
    1
 10
-8
 20
-11
 11
-12
 21
-13
 72
    1
 10
-12
 20
-13
 11
-10
 21
-14
 97
    0
 75
    0
 76
    1
 52
0
 41
2
 77
    0
 78
    0
 98
    0
  0
HATCH
  5
1AD
100
AcDbEntity
  8
fundament
  6
DASHED2
 62
  256
370
   -1
100
AcDbHatch
 10
0
 20
0
 30
0
210
0
220
0
230
1
  2
gost_concrete
 70
    0
 71
    0
 91
    1
 92
    0
 93
   16
 72
    1
 10
281
 20
-15
 11
283
 21
-19
 72
    1
 10
283
 20
-19
 11
284
 21
-17
 72
    1
 10
284
 20
-17
 11
337
 21
-17
 72
    1
 10
337
 20
-17
 11
338
 21
-15
 72
    1
 10
338
 20
-15
 11
340
 21
-19
 72
    1
 10
340
 20
-19
 11
341
 21
-17
 72
    1
 10
341
 20
-17
 11
374
 21
-17
 72
    1
 10
374
 20
-17
 11
374
 21
-7
 72
    1
 10
374
 20
-7
 11
250
 21
-6.999999999999999
 72
    1
 10
250
 20
-6.999999999999999
 11
250
 21
-10
 72
    1
 10
250
 20
-10
 11
252
 21
-11
 72
    1
 10
252
 20
-11
 11
248
 21
-13
 72
    1
 10
248
 20
-13
 11
250
 21
-14
 72
    1
 10
250
 20
-14
 11
250
 21
-17
 72
    1
 10
250
 20
-17
 11
280
 21
-17
 72
    1
 10
280
 20
-17
 11
281
 21
-15
 97
    0
 75
    0
 76
    1
 52
0
 41
2
 77
    0
 78
    0
 98
    0
  0
HATCH
  5
1AE
100
AcDbEntity
  8
plytka3
  6
ByLayer
 62
  256
370
   -1
100
AcDbHatch
 10
0
 20
0
 30
0
210
0
220
0
230
1
  2
gost_stone
 70
    0
 71
    0
 91
    1
 92
    0
 93
    4
 72
    1
 10
285
 20
-1.77635683940025e-15
 11
285
 21
-3.000000000000002
 72
    1
 10
285
 20
-3.000000000000002
 11
250
 21
-2.999999999999999
 72
    1
 10
250
 20
-2.999999999999999
 11
250
 21
0
 72
    1
 10
250
 20
0
 11
285
 21
-1.77635683940025e-15
 97
    0
 75
    0
 76
    1
 52
0
 41
1
 77
    0
 78
    0
 98
    0
  0
HATCH
  5
1AF
100
AcDbEntity
  8
sterodur
  6
ByLayer
 62
  256
370
   -1
100
AcDbHatch
 10
0
 20
0
 30
0
210
0
220
0
230
1
  2
gost_non-metal
 70
    0
 71
    0
 91
    1
 92
    0
 93
    8
 72
    1
 10
122
 20
-117
 11
189
 21
-117
 72
    1
 10
189
 20
-117
 11
188
 21
-116
 72
    1
 10
188
 20
-116
 11
189
 21
-115
 72
    1
 10
189
 20
-115
 11
188
 21
-114
 72
    1
 10
188
 20
-114
 11
189
 21
-113
 72
    1
 10
189
 20
-113
 11
188
 21
-112
 72
    1
 10
188
 20
-112
 11
122
 21
-112
 72
    1
 10
122
 20
-112
 11
122
 21
-117
 97
    0
 75
    0
 76
    1
 52
3.141592653589793
 41
2
 77
    0
 78
    0
 98
    0
  0
HATCH
  5
1B0
100
AcDbEntity
  8
sterodur
  6
ByLayer
 62
  256
370
   -1
100
AcDbHatch
 10
0
 20
0
 30
0
210
0
220
0
230
1
  2
gost_non-metal
 70
    0
 71
    0
 91
    1
 92
    0
 93
    8
 72
    1
 10
-10
 20
-112
 11
0
 21
-112
 72
    1
 10
0
 20
-112
 11
0
 21
-117
 72
    1
 10
0
 20
-117
 11
-11
 21
-117
 72
    1
 10
-11
 20
-117
 11
-10
 21
-116
 72
    1
 10
-10
 20
-116
 11
-11
 21
-115
 72
    1
 10
-11
 20
-115
 11
-10
 21
-114
 72
    1
 10
-10
 20
-114
 11
-11
 21
-113
 72
    1
 10
-11
 20
-113
 11
-10
 21
-112
 97
    0
 75
    0
 76
    1
 52
0
 41
2
 77
    0
 78
    0
 98
    0
  0
HATCH
  5
1B1
100
AcDbEntity
  8
lyce
  6
ByLayer
 62
  256
370
   -1
100
AcDbHatch
 10
0
 20
0
 30
0
210
0
220
0
230
1
  2
gost_ceramics
 70
    0
 71
    0
 91
    1
 92
    0
 93
    8
 72
    1
 10
-10
 20
-100
 11
15
 21
-100
 72
    1
 10
15
 20
-100
 11
15
 21
-112
 72
    1
 10
15
 20
-112
 11
-10
 21
-112
 72
    1
 10
-10
 20
-112
 11
-10
 21
-108
 72
    1
 10
-10
 20
-108
 11
-12
 21
-107
 72
    1
 10
-12
 20
-107
 11
-8
 21
-105
 72
    1
 10
-8
 20
-105
 11
-10
 21
-104
 72
    1
 10
-10
 20
-104
 11
-10
 21
-100
 97
    0
 75
    0
 76
    1
 52
0
 41
1
 77
    0
 78
    0
 98
    0
  0
HATCH
  5
1B2
100
AcDbEntity
  8
plytka3
  6
ByLayer
 62
  256
370
   -1
100
AcDbHatch
 10
0
 20
0
 30
0
210
0
220
0
230
1
  2
gost_stone
 70
    0
 71
    0
 91
    1
 92
    0
 93
    9
 72
    1
 10
-9
 20
0
 11
188
 21
0
 72
    1
 10
188
 20
0
 11
187
 21
-1
 72
    1
 10
187
 20
-1
 11
188
 21
-2
 72
    1
 10
188
 20
-2
 11
187
 21
-3
 72
    1
 10
187
 20
-3
 11
-10
 21
-3
 72
    1
 10
-10
 20
-3
 11
-9
 21
-2
 72
    1
 10
-9
 20
-2
 11
-10
 21
-1
 72
    1
 10
-10
 20
-1
 11
-9
 21
0
 72
    1
 10
-9
 20
0
 11
-9
 21
0
 97
    0
 75
    0
 76
    1
 52
0
 41
1
 77
    0
 78
    0
 98
    0
  0
LWPOLYLINE
  5
1B3
100
AcDbEntity
  8
plytka3
  6
ByLayer
 62
  256
370
   -1
100
AcDbPolyline
 90
    9
 70
    0
 43
0
 10
0
 20
-148
 10
0
 20
-112
 10
15
 20
-112
 10
15
 20
-100
 10
107
 20
-100
 10
107
 20
-112
 10
122
 20
-112
 10
122
 20
-148
 10
0
 20
-148
  0
LWPOLYLINE
  5
1B4
100
AcDbEntity
  8
plytka3
  6
CONTINUOUS
 62
  256
370
   25
100
AcDbPolyline
 90
    5
 70
    0
 43
0
 10
122
 20
-117
 10
150
 20
-117
 10
150
 20
-176
 10
0
 20
-176
 10
0
 20
-148
  0
LWPOLYLINE
  5
1B5
100
AcDbEntity
  8
plytka3
  6
CONTINUOUS
 62
  256
370
   25
100
AcDbPolyline
 90
    5
 70
    0
 43
0
 10
150
 20
-117
 10
178
 20
-117
 10
178
 20
-204
 10
0
 20
-204
 10
0
 20
-176
  0
LWPOLYLINE
  5
1B6
100
AcDbEntity
  8
plytka3
  6
ByLayer
 62
  256
370
   -1
100
AcDbPolyline
 90
    9
 70
    1
 43
0
 10
-9
 20
0
 10
188
 20
0
 10
187
 20
-1
 10
188
 20
-2
 10
187
 20
-3
 10
-10
 20
-3
 10
-9
 20
-2
 10
-10
 20
-1
 10
-9
 20
0
  0
LWPOLYLINE
  5
1B7
100
AcDbEntity
  8
lyce
  6
CONTINUOUS
 62
   41
420
16376252
370
   25
100
AcDbPolyline
 90
    8
 70
    1
 43
0
 10
-10
 20
-100
 10
15
 20
-100
 10
15
 20
-112
 10
-10
 20
-112
 10
-10
 20
-108
 10
-12
 20
-107
 10
-8
 20
-105
 10
-10
 20
-104
  0
LWPOLYLINE
  5
1B8
100
AcDbEntity
  8
sterodur
  6
ByLayer
 62
  256
370
   -1
100
AcDbPolyline
 90
    9
 70
    0
 43
0
 10
-10
 20
-112
 10
0
 20
-112
 10
0
 20
-117
 10
-11
 20
-117
 10
-10
 20
-116
 10
-11
 20
-115
 10
-10
 20
-114
 10
-11
 20
-113
 10
-10
 20
-112
  0
LINE
  5
1B9
100
AcDbEntity
  8
fundament
  6
DASHED2
 62
  256
370
   -1
100
AcDbLine
 10
15
 20
-112
 11
107
 21
-112
  0
LWPOLYLINE
  5
1BA
100
AcDbEntity
  8
plytka3
  6
CONTINUOUS
 62
    2
370
   25
100
AcDbPolyline
 90
   30
 70
    0
 43
0
 10
0
 20
-117
 10
-10
 20
-117
 10
-10
 20
-149
 10
-8
 20
-150
 10
-12
 20
-152
 10
-10
 20
-153
 10
-10
 20
-182
 10
-8
 20
-183
 10
-12
 20
-185
 10
-10
 20
-186
 10
-10
 20
-214
 10
35
 20
-214
 10
36
 20
-212
 10
38
 20
-216
 10
39
 20
-214
 10
130
 20
-214
 10
131
 20
-212
 10
133
 20
-216
 10
134
 20
-214
 10
188
 20
-214
 10
188
 20
-186
 10
190
 20
-185
 10
186
 20
-183
 10
188
 20
-182
 10
188
 20
-154
 10
190
 20
-153
 10
186
 20
-151
 10
188
 20
-150
 10
188
 20
-117
 10
178
 20
-117
  0
LWPOLYLINE
  5
1BB
100
AcDbEntity
  8
sterodur
  6
ByLayer
 62
  256
370
   -1
100
AcDbPolyline
 90
    9
 70
    0
 43
0
 10
188
 20
-112
 10
122
 20
-112
 10
122
 20
-117
 10
189
 20
-117
 10
188
 20
-116
 10
189
 20
-115
 10
188
 20
-114
 10
189
 20
-113
 10
188
 20
-112
  0
LWPOLYLINE
  5
1BC
100
AcDbEntity
  8
lyce
  6
CONTINUOUS
 62
   41
420
16376252
370
   25
100
AcDbPolyline
 90
    8
 70
    1
 43
0
 10
188
 20
-100
 10
107
 20
-100
 10
107
 20
-112
 10
188
 20
-112
 10
188
 20
-108
 10
190
 20
-107
 10
186
 20
-105
 10
188
 20
-104
  0
DIMENSION
  5
1BD
100
AcDbEntity
  8
rozmir
  6
ByLayer
 62
  256
370
   -1
100
AcDbDimension
  2
*D1
 10
210
 20
-176
 30
0
 11
205
 21
-162
 31
0
 70
   32
 71
    5
  3
Standard
 53
0
210
0
220
0
230
1
100
AcDbAlignedDimension
 13
122
 23
-148
 33
0
 14
150
 24
-176
 34
0
 50
90
100
AcDbRotatedDimension
  0
DIMENSION
  5
1BE
100
AcDbEntity
  8
rozmir
  6
ByLayer
 62
  256
370
   -1
100
AcDbDimension
  2
*D2
 10
210
 20
-204
 30
0
 11
205
 21
-190
 31
0
 70
   32
 71
    5
  3
Standard
 53
0
210
0
220
0
230
1
100
AcDbAlignedDimension
 13
150
 23
-176
 33
0
 14
178
 24
-204
 34
0
 50
90
100
AcDbRotatedDimension
  0
DIMENSION
  5
1BF
100
AcDbEntity
  8
rozmir
  6
ByLayer
 62
  256
370
   -1
100
AcDbDimension
  2
*D3
 10
122
 20
-230
 30
0
 11
61
 21
-225
 31
0
 70
   32
 71
    5
  3
Standard
 53
0
210
0
220
0
230
1
100
AcDbAlignedDimension
 13
0
 23
-204
 33
0
 14
122
 24
-148
 34
0
100
AcDbRotatedDimension
  0
DIMENSION
  5
1C0
100
AcDbEntity
  8
rozmir
  6
ByLayer
 62
  256
370
   -1
100
AcDbDimension
  2
*D4
 10
150
 20
-240
 30
0
 11
75
 21
-235
 31
0
 70
   32
 71
    5
  3
Standard
 53
0
210
0
220
0
230
1
100
AcDbAlignedDimension
 13
0
 23
-204
 33
0
 14
150
 24
-176
 34
0
100
AcDbRotatedDimension
  0
DIMENSION
  5
1C1
100
AcDbEntity
  8
rozmir
  6
ByLayer
 62
  256
370
   -1
100
AcDbDimension
  2
*D5
 10
178
 20
-250
 30
0
 11
89
 21
-245
 31
0
 70
   32
 71
    5
  3
Standard
 53
0
210
0
220
0
230
1
100
AcDbAlignedDimension
 13
0
 23
-204
 33
0
 14
178
 24
-204
 34
0
100
AcDbRotatedDimension
  0
LWPOLYLINE
  5
1C2
100
AcDbEntity
  8
plytka3
  6
CONTINUOUS
 62
    2
370
   25
100
AcDbPolyline
 90
    6
 70
    1
 43
0
 10
251
 20
-3
 10
250
 20
-2
 10
251
 20
-1
 10
250
 20
0
 10
285
 20
-1.77635683940025e-15
 10
285
 20
-3.000000000000002
  0
DIMENSION
  5
1C3
100
AcDbEntity
  8
rozmir
  6
ByLayer
 62
  256
370
   -1
100
AcDbDimension
  2
*D6
 10
210
 20
-148
 30
0
 11
205
 21
-130
 31
0
 70
   32
 71
    5
  3
Standard
 53
0
210
0
220
0
230
1
100
AcDbAlignedDimension
 13
188
 23
-112
 33
0
 14
122
 24
-148
 34
0
 50
90
100
AcDbRotatedDimension
  0
DIMENSION
  5
1C4
100
AcDbEntity
  8
rozmir
  6
ByLayer
 62
  256
370
   -1
100
AcDbDimension
  2
*D7
 10
210
 20
-100
 30
0
 11
205
 21
-106
 31
0
 70
   32
 71
    5
  3
Standard
 53
0
210
0
220
0
230
1
100
AcDbAlignedDimension
 13
188
 23
-112
 33
0
 14
188
 24
-100
 34
0
 50
90
100
AcDbRotatedDimension
  0
LEADER
  5
1C5
100
AcDbEntity
  8
tekst
  6
ByLayer
 62
  256
370
   -1
100
AcDbLeader
  3
Standard
 71
    1
 72
    0
 73
    3
 74
    0
 75
    0
 40
1
 41
10
 76
3
 76
3
 10
392
 20
43
 30
0
 10
410
 20
60
 30
0
 10
420
 20
60
 30
0
  0
LEADER
  5
1C6
100
AcDbEntity
  8
tekst
  6
ByLayer
 62
  256
370
   -1
100
AcDbLeader
  3
Standard
 71
    1
 72
    0
 73
    3
 74
    0
 75
    0
 40
1
 41
10
 76
3
 76
3
 10
270
 20
0
 30
0
 10
250
 20
30
 30
0
 10
240
 20
30
 30
0
  0
LEADER
  5
1C7
100
AcDbEntity
  8
tekst
  6
ByLayer
 62
  256
370
   -1
100
AcDbLeader
  3
Standard
 71
    1
 72
    0
 73
    3
 74
    0
 75
    0
 40
1
 41
10
 76
3
 76
3
 10
285
 20
2
 30
0
 10
250
 20
40
 30
0
 10
240
 20
40
 30
0
  0
LEADER
  5
1C8
100
AcDbEntity
  8
tekst
  6
ByLayer
 62
  256
370
   -1
100
AcDbLeader
  3
Standard
 71
    1
 72
    0
 73
    3
 74
    0
 75
    0
 40
1
 41
10
 76
3
 76
3
 10
370
 20
0
 30
0
 10
410
 20
10
 30
0
 10
420
 20
10
 30
0
  0
MTEXT
  5
1C9
100
AcDbEntity
  8
tekst
  6
ByLayer
 62
  256
370
   -1
100
AcDbMText
 10
245
 20
42
 30
0
 40
5
 41
1.111111111111111
 71
    8
 72
    1
  1
1
  7
cyrillic_ii
210
0
220
0
230
1
 50
0
 73
    2
 44
1
  0
MTEXT
  5
1CA
100
AcDbEntity
  8
tekst
  6
ByLayer
 62
  256
370
   -1
100
AcDbMText
 10
245
 20
32
 30
0
 40
5
 41
2.222222222222222
 71
    8
 72
    1
  1
2
  7
cyrillic_ii
210
0
220
0
230
1
 50
0
 73
    2
 44
1
  0
MTEXT
  5
1CB
100
AcDbEntity
  8
tekst
  6
ByLayer
 62
  256
370
   -1
100
AcDbMText
 10
245
 20
22
 30
0
 40
5
 41
2.222222222222532
 71
    8
 72
    1
  1
3
  7
cyrillic_ii
210
0
220
0
230
1
 50
0
 73
    2
 44
1
  0
MTEXT
  5
1CC
100
AcDbEntity
  8
tekst
  6
ByLayer
 62
  256
370
   -1
100
AcDbMText
 10
245
 20
12
 30
0
 40
5
 41
2.777777777777778
 71
    8
 72
    1
  1
4
  7
cyrillic_ii
210
0
220
0
230
1
 50
0
 73
    2
 44
1
  0
LEADER
  5
1CD
100
AcDbEntity
  8
tekst
  6
ByLayer
 62
  256
370
   -1
100
AcDbLeader
  3
Standard
 71
    1
 72
    0
 73
    3
 74
    0
 75
    0
 40
1
 41
10
 76
3
 76
3
 10
176
 20
-105
 30
0
 10
190
 20
-80
 30
0
 10
200
 20
-80
 30
0
  0
LEADER
  5
1CE
100
AcDbEntity
  8
tekst
  6
ByLayer
 62
  256
370
   -1
100
AcDbLeader
  3
Standard
 71
    1
 72
    0
 73
    3
 74
    0
 75
    0
 40
1
 41
10
 76
3
 76
3
 10
181
 20
-115
 30
0
 10
190
 20
-90
 30
0
 10
200
 20
-90
 30
0
  0
MTEXT
  5
1CF
100
AcDbEntity
  8
tekst
  6
ByLayer
 62
  256
370
   -1
100
AcDbMText
 10
200
 20
100
 30
0
 40
10
 41
51.94444444444445
 71
    5
 72
    1
  1
 4
  7
cyrillic_ii
210
0
220
0
230
1
 50
0
 73
    2
 44
1
  0
LINE
  5
1D0
100
AcDbEntity
  8
tekst
  6
ByLayer
 62
  256
370
   -1
100
AcDbLine
 10
172
 20
93
 11
228
 21
93
  0
DIMENSION
  5
1D1
100
AcDbEntity
  8
rozmir
  6
ByLayer
 62
  256
370
   -1
100
AcDbDimension
  2
*D14
 10
-20
 20
-117
 30
0
 11
-25
 21
-114.5
 31
0
 70
   32
 71
    5
 72
    0
  3
Standard
 53
0
210
0
220
0
230
1
100
AcDbAlignedDimension
 13
-10
 23
-112
 33
0
 14
-11
 24
-117
 34
0
 50
90
100
AcDbRotatedDimension
  0
DIMENSION
  5
1D2
100
AcDbEntity
  8
rozmir
  6
ByLayer
 62
  256
370
   -1
100
AcDbDimension
  2
*D15
 10
200
 20
-112
 30
0
 11
195
 21
-114.5
 31
0
 70
   32
 71
    5
 72
    0
  3
Standard
 53
0
210
0
220
0
230
1
100
AcDbAlignedDimension
 13
189
 23
-117
 33
0
 14
188
 24
-112
 34
0
 50
90
100
AcDbRotatedDimension
  0
LWPOLYLINE
  5
1D3
100
AcDbEntity
  8
fundament
  6
CONTINUOUS
 62
  136
420
32896
370
   25
100
AcDbPolyline
 90
   20
 70
    1
 43
0
 10
-10
 20
-7
 10
-10
 20
-10
 10
-8
 20
-11
 10
-12
 20
-13
 10
-10
 20
-14
 10
-10
 20
-17
 10
38
 20
-17
 10
39
 20
-15
 10
41
 20
-19
 10
42
 20
-17
 10
140
 20
-17
 10
141
 20
-15
 10
143
 20
-19
 10
144
 20
-17
 10
188
 20
-17
 10
188
 20
-15
 10
190
 20
-14
 10
186
 20
-12
 10
188
 20
-11
 10
188
 20
-7
  0
DIMENSION
  5
1D4
100
AcDbEntity
  8
rozmir
  6
ByLayer
 62
  256
370
   -1
100
AcDbDimension
  2
*D16
 10
210
 20
-2.694222958124177e-15
 30
0
 11
205
 21
-3.5
 31
0
 70
   32
 71
    5
  3
Standard
 53
0
210
0
220
0
230
1
100
AcDbAlignedDimension
 13
188
 23
-7
 33
0
 14
188
 24
0
 34
0
 50
90
100
AcDbRotatedDimension
  0
LWPOLYLINE
  5
1D5
100
AcDbEntity
  8
fundament
  6
CONTINUOUS
 62
  136
420
32896
370
   25
100
AcDbPolyline
 90
   16
 70
    1
 43
0
 10
250
 20
-6.999999999999999
 10
250
 20
-10
 10
252
 20
-11
 10
248
 20
-13
 10
250
 20
-14
 10
250
 20
-17
 10
280
 20
-17
 10
281
 20
-15
 10
283
 20
-19
 10
284
 20
-17
 10
337
 20
-17
 10
338
 20
-15
 10
340
 20
-19
 10
341
 20
-17
 10
374
 20
-17
 10
374
 20
-7
  0
LEADER
  5
1D6
100
AcDbEntity
  8
tekst
  6
ByLayer
 62
  256
370
   -1
100
AcDbLeader
  3
Standard
 71
    1
 72
    0
 73
    3
 74
    0
 75
    0
 40
1
 41
10
 76
3
 76
3
 10
260
 20
-9
 30
0
 10
250
 20
10
 30
0
 10
240
 20
10
 30
0
  0
LEADER
  5
1D7
100
AcDbEntity
  8
tekst
  6
ByLayer
 62
  256
370
   -1
100
AcDbLeader
  3
Standard
 71
    1
 72
    0
 73
    3
 74
    0
 75
    0
 40
1
 41
10
 76
3
 76
3
 10
267
 20
-4
 30
0
 10
250
 20
20
 30
0
 10
240
 20
20
 30
0
  0
LEADER
  5
1D8
100
AcDbEntity
  8
tekst
  6
ByLayer
 62
  256
370
   -1
100
AcDbLeader
  3
Standard
 71
    1
 72
    0
 73
    3
 74
    0
 75
    0
 40
1
 41
10
 76
3
 76
3
 10
390
 20
-4
 30
0
 10
410
 20
0
 30
0
 10
420
 20
0
 30
0
  0
LWPOLYLINE
  5
1D9
100
AcDbEntity
  8
plytka3
  6
ByLayer
 62
  256
370
   -1
100
AcDbPolyline
 90
    4
 70
    1
 43
0
 10
282
 20
-1.77635683940025e-15
 10
282
 20
14
 10
285
 20
14
 10
285
 20
-1.77635683940025e-15
  0
LWPOLYLINE
  5
1DA
100
AcDbEntity
  8
plytka3
  6
ByLayer
 62
  256
370
   -1
100
AcDbPolyline
 90
    4
 70
    1
 43
0
 10
282
 20
14
 10
282
 20
17
 10
312
 20
16.99999999999999
 10
312
 20
13.99999999999999
  0
LWPOLYLINE
  5
1DB
100
AcDbEntity
  8
plytka3
  6
ByLayer
 62
  256
370
   -1
100
AcDbPolyline
 90
    4
 70
    1
 43
0
 10
310
 20
16.99999999999999
 10
310
 20
31
 10
313
 20
31
 10
313
 20
16.99999999999999
  0
LWPOLYLINE
  5
1DC
100
AcDbEntity
  8
plytka3
  6
ByLayer
 62
  256
370
   -1
100
AcDbPolyline
 90
    4
 70
    1
 43
0
 10
310
 20
31
 10
310
 20
34
 10
340
 20
34
 10
340
 20
31
  0
LWPOLYLINE
  5
1DD
100
AcDbEntity
  8
plytka3
  6
ByLayer
 62
  256
370
   -1
100
AcDbPolyline
 90
    4
 70
    1
 43
0
 10
338
 20
51
 10
338
 20
48
 10
386
 20
48
 10
386
 20
51
  0
LWPOLYLINE
  5
1DE
100
AcDbEntity
  8
plytka3
  6
ByLayer
 62
  256
370
   -1
100
AcDbPolyline
 90
    4
 70
    1
 43
0
 10
338
 20
34
 10
338
 20
48
 10
341
 20
48
 10
341
 20
34
  0
LWPOLYLINE
  5
1DF
100
AcDbEntity
  8
fundament
  6
CONTINUOUS
 62
  136
420
32896
370
   25
100
AcDbPolyline
 90
   12
 70
    1
 43
0
 10
374
 20
40
 10
374
 20
-17
 10
383
 20
-17
 10
384
 20
-15
 10
386
 20
-19
 10
387
 20
-17
 10
396
 20
-17
 10
396
 20
10
 10
394
 20
11
 10
398
 20
13
 10
396
 20
14
 10
396
 20
40
  0
DIMENSION
  5
1E0
100
AcDbEntity
  8
rozmir
  6
ByLayer
 62
  256
370
   -1
100
AcDbDimension
  2
*D20
 10
386
 20
56
 30
0
 11
362
 21
61
 31
0
 70
   32
 71
    5
  3
Standard
 53
0
210
0
220
0
230
1
100
AcDbAlignedDimension
 13
338
 23
51
 33
0
 14
386
 24
50
 34
0
100
AcDbRotatedDimension
  0
DIMENSION
  5
1E1
100
AcDbEntity
  8
rozmir
  6
ByLayer
 62
  256
370
   -1
100
AcDbDimension
  2
*D21
 10
310
 20
39
 30
0
 11
296
 21
44
 31
0
 70
   32
 71
    5
  3
Standard
 53
0
210
0
220
0
230
1
100
AcDbAlignedDimension
 13
282
 23
17
 33
0
 14
310
 24
34
 34
0
100
AcDbRotatedDimension
  0
DIMENSION
  5
1E2
100
AcDbEntity
  8
rozmir
  6
ByLayer
 62
  256
370
   -1
100
AcDbDimension
  2
*D22
 10
338
 20
56
 30
0
 11
324
 21
61
 31
0
 70
   32
 71
    5
  3
Standard
 53
0
210
0
220
0
230
1
100
AcDbAlignedDimension
 13
310
 23
34
 33
0
 14
338
 24
51
 34
0
100
AcDbRotatedDimension
  0
LWPOLYLINE
  5
1E3
100
AcDbEntity
  8
plytka3
  6
ByLayer
 62
  256
370
   -1
100
AcDbPolyline
 90
    4
 70
    0
 43
0
 10
0
 20
0
 10
0
 20
17
 10
178
 20
17
 10
178
 20
0
  0
DIMENSION
  5
1E4
100
AcDbEntity
  8
rozmir
  6
ByLayer
 62
  256
370
   -1
100
AcDbDimension
  2
*D23
 10
210
 20
15
 30
0
 11
205
 21
8.5
 31
0
 70
   32
 71
    5
  3
Standard
 53
0
210
0
220
0
230
1
100
AcDbAlignedDimension
 13
188
 23
0
 33
0
 14
178
 24
17
 34
0
 50
90
100
AcDbRotatedDimension
  0
LWPOLYLINE
  5
1E5
100
AcDbEntity
  8
plytka3
  6
ByLayer
 62
  256
370
   -1
100
AcDbPolyline
 90
    4
 70
    0
 43
0
 10
0
 20
17
 10
0
 20
34
 10
150
 20
34
 10
150
 20
17
  0
DIMENSION
  5
1E6
100
AcDbEntity
  8
rozmir
  6
ByLayer
 62
  256
370
   -1
100
AcDbDimension
  2
*D24
 10
210
 20
31.99999999999999
 30
0
 11
205
 21
25.5
 31
0
 70
   32
 71
    5
  3
Standard
 53
0
210
0
220
0
230
1
100
AcDbAlignedDimension
 13
178
 23
17
 33
0
 14
150
 24
34
 34
0
 50
90
100
AcDbRotatedDimension
  0
LWPOLYLINE
  5
1E7
100
AcDbEntity
  8
plytka3
  6
ByLayer
 62
  256
370
   -1
100
AcDbPolyline
 90
    4
 70
    0
 43
0
 10
122
 20
34
 10
122
 20
51
 10
0
 20
51
 10
0
 20
34
  0
LWPOLYLINE
  5
1E8
100
AcDbEntity
  8
lyce
  6
ByLayer
 62
  256
370
   -1
100
AcDbPolyline
 90
   13
 70
    0
 43
0
 10
0
 20
51
 10
0
 20
57
 10
2
 20
58
 10
-2
 20
60
 10
0
 20
61
 10
0
 20
66
 10
5
 20
66
 10
6
 20
68
 10
8
 20
64
 10
9
 20
66
 10
15
 20
66
 10
15
 20
51
 10
0
 20
51
  0
DIMENSION
  5
1E9
100
AcDbEntity
  8
rozmir
  6
ByLayer
 62
  256
370
   -1
100
AcDbDimension
  2
*D25
 10
210
 20
48.99999999999999
 30
0
 11
205
 21
42.5
 31
0
 70
   32
 71
    5
  3
Standard
 53
0
210
0
220
0
230
1
100
AcDbAlignedDimension
 13
150
 23
34
 33
0
 14
122
 24
51
 34
0
 50
90
100
AcDbRotatedDimension
  0
LINE
  5
1EA
100
AcDbEntity
  8
fundament
  6
DASHDOT2
 62
  256
370
   -1
100
AcDbLine
 10
-9
 20
40
 11
188
 21
40
  0
LWPOLYLINE
  5
1EB
100
AcDbEntity
  8
sterodur
  6
ByLayer
 62
  256
370
   -1
100
AcDbPolyline
 90
   13
 70
    0
 43
0
 10
188
 20
40
 10
122
 20
40
 10
122
 20
34
 10
150
 20
34
 10
150
 20
17
 10
178
 20
17
 10
178
 20
0
 10
188
 20
0
 10
188
 20
21
 10
186
 20
22
 10
190
 20
24
 10
188
 20
25
 10
188
 20
40
  0
LWPOLYLINE
  5
1EC
100
AcDbEntity
  8
lyce
  6
DASHED2
 62
  256
370
   -1
100
AcDbPolyline
 90
    4
 70
    1
 43
0
 10
0
 20
51
 10
15
 20
51
 10
15
 20
40
 10
0
 20
40
  0
LWPOLYLINE
  5
1ED
100
AcDbEntity
  8
lyce
  6
DASHED2
 62
  256
370
   -1
100
AcDbPolyline
 90
    4
 70
    1
 43
0
 10
107
 20
51
 10
122
 20
51
 10
122
 20
40
 10
107
 20
40
  0
LWPOLYLINE
  5
1EE
100
AcDbEntity
  8
lyce
  6
CONTINUOUS
 62
   41
420
16376252
370
   25
100
AcDbPolyline
 90
   20
 70
    0
 43
0
 10
188
 20
40
 10
188
 20
51
 10
186
 20
52
 10
190
 20
54
 10
188
 20
55
 10
188
 20
66
 10
167
 20
66
 10
166
 20
68
 10
164
 20
64
 10
163
 20
66
 10
132
 20
66
 10
131
 20
68
 10
129
 20
64
 10
128
 20
66
 10
107
 20
66
 10
107
 20
51
 10
122
 20
51
 10
122
 20
51
 10
122
 20
40
 10
188
 20
40
  0
LWPOLYLINE
  5
1EF
100
AcDbEntity
  8
klei
  6
ByLayer
 62
  256
370
   -1
100
AcDbPolyline
 90
   18
 70
    0
 43
0
 10
285
 20
-3.000000000000002
 10
285
 20
14
 10
312
 20
13.99999999999999
 10
312
 20
16.99999999999999
 10
313
 20
16.99999999999999
 10
313
 20
31
 10
340
 20
31
 10
340
 20
34
 10
341
 20
34
 10
341
 20
48
 10
386
 20
48
 10
386
 20
47.5
 10
341.5
 20
47.5
 10
341.5
 20
30.5
 10
313.5
 20
30.5
 10
313.5
 20
13.5
 10
285.5
 20
13.50000000000001
 10
285.5
 20
-3.000000000000002
  0
LWPOLYLINE
  5
1F0
100
AcDbEntity
  8
rozmir
  6
CONTINUOUS
 62
    8
370
   25
100
AcDbPolyline
 90
    9
 70
    0
 43
0
 10
285.5
 20
-7.000000000000002
 10
285.5
 20
13.50000000000001
 10
313.5
 20
13.5
 10
313.5
 20
30.5
 10
341.5
 20
30.5
 10
341.5
 20
47.5
 10
374
 20
47.5
 10
374
 20
-7
 10
285.5
 20
-7.000000000000002
  0
DIMENSION
  5
1F1
100
AcDbEntity
  8
rozmir
  6
ByLayer
 62
  256
370
   -1
100
AcDbDimension
  2
*D26
 10
15
 20
-90
 30
0
 11
9.25
 21
-85
 31
0
 70
   32
 71
    5
  3
Standard
 53
0
210
0
220
0
230
1
100
AcDbAlignedDimension
 13
3.5
 23
-112
 33
0
 14
15
 24
-112
 34
0
100
AcDbRotatedDimension
  0
DIMENSION
  5
1F2
100
AcDbEntity
  8
rozmir
  6
ByLayer
 62
  256
370
   -1
100
AcDbDimension
  2
*D27
 10
-20
 20
45
 30
0
 11
-25
 21
39
 31
0
 70
   32
 71
    5
  3
Standard
 53
0
210
0
220
0
230
1
100
AcDbAlignedDimension
 13
3.5
 23
30.5
 33
0
 14
3.500000000000015
 24
47.5
 34
0
 50
90
100
AcDbRotatedDimension
  0
LWPOLYLINE
  5
1F3
100
AcDbEntity
  8
skhody
  6
DASHED2
 62
  256
370
   -1
100
AcDbPolyline
 90
    4
 70
    0
 43
0
 10
3.5
 20
30.5
 10
3.500000000000015
 20
47.5
 10
118.5
 20
47.5
 10
118.5
 20
30.5
  0
DIMENSION
  5
1F4
100
AcDbEntity
  8
rozmir
  6
ByLayer
 62
  256
370
   -1
100
AcDbDimension
  2
*D28
 10
-20
 20
11
 30
0
 11
-25
 21
3.250000000000003
 31
0
 70
   32
 71
    5
  3
Standard
 53
0
210
0
220
0
230
1
100
AcDbAlignedDimension
 13
3.5
 23
-7
 33
0
 14
3.5
 24
13.5
 34
0
 50
90
100
AcDbRotatedDimension
  0
LWPOLYLINE
  5
1F5
100
AcDbEntity
  8
skhody
  6
DASHED2
 62
  256
370
   -1
100
AcDbPolyline
 90
    4
 70
    1
 43
0
 10
3.5
 20
13.5
 10
174.5
 20
13.5
 10
174.5
 20
-7
 10
3.5
 20
-7
  0
DIMENSION
  5
1F6
100
AcDbEntity
  8
rozmir
  6
ByLayer
 62
  256
370
   -1
100
AcDbDimension
  2
*D29
 10
-20
 20
28
 30
0
 11
-25
 21
22
 31
0
 70
   32
 71
    5
  3
Standard
 53
0
210
0
220
0
230
1
100
AcDbAlignedDimension
 13
3.5
 23
13.5
 33
0
 14
3.5
 24
30.5
 34
0
 50
90
100
AcDbRotatedDimension
  0
LWPOLYLINE
  5
1F7
100
AcDbEntity
  8
skhody
  6
DASHED2
 62
  256
370
   -1
100
AcDbPolyline
 90
    4
 70
    0
 43
0
 10
3.5
 20
13.5
 10
3.5
 20
30.5
 10
146.5
 20
30.5
 10
146.5
 20
13.5
  0
DIMENSION
  5
1F8
100
AcDbEntity
  8
rozmir
  6
ByLayer
 62
  256
370
   -1
100
AcDbDimension
  2
*D30
 10
118
 20
-90
 30
0
 11
112.75
 21
-85
 31
0
 70
   32
 71
    5
  3
Standard
 53
0
210
0
220
0
230
1
100
AcDbAlignedDimension
 13
107
 23
-112
 33
0
 14
118.5
 24
-112
 34
0
100
AcDbRotatedDimension
  0
DIMENSION
  5
1F9
100
AcDbEntity
  8
rozmir
  6
ByLayer
 62
  256
370
   -1
100
AcDbDimension
  2
*D31
 10
120
 20
-80
 30
0
 11
61
 21
-75
 31
0
 70
   32
 71
    5
  3
Standard
 53
0
210
0
220
0
230
1
100
AcDbAlignedDimension
 13
3.5
 23
-112
 33
0
 14
118.5
 24
-112
 34
0
100
AcDbRotatedDimension
  0
DIMENSION
  5
1FA
100
AcDbEntity
  8
rozmir
  6
ByLayer
 62
  256
370
   -1
100
AcDbDimension
  2
*D32
 10
150
 20
-70
 30
0
 11
75
 21
-65
 31
0
 70
   32
 71
    5
  3
Standard
 53
0
210
0
220
0
230
1
100
AcDbAlignedDimension
 13
3.5
 23
-112
 33
0
 14
146.5
 24
-112
 34
0
100
AcDbRotatedDimension
  0
DIMENSION
  5
1FB
100
AcDbEntity
  8
rozmir
  6
ByLayer
 62
  256
370
   -1
100
AcDbDimension
  2
*D33
 10
170
 20
-60
 30
0
 11
89.00000000000001
 21
-55
 31
0
 70
   32
 71
    5
  3
Standard
 53
0
210
0
220
0
230
1
100
AcDbAlignedDimension
 13
3.5
 23
-112
 33
0
 14
174.5
 24
-112
 34
0
100
AcDbRotatedDimension
  0
DIMENSION
  5
1FC
100
AcDbEntity
  8
rozmir
  6
ByLayer
 62
  256
370
   -1
100
AcDbDimension
  2
*D34
 10
-30
 20
-200
 30
0
 11
-35
 21
-186.5
 31
0
 70
   32
 71
    5
  3
Standard
 53
0
210
0
220
0
230
1
100
AcDbAlignedDimension
 13
3.5
 23
-172.5
 33
0
 14
3.5
 24
-200.5
 34
0
 50
90
100
AcDbRotatedDimension
  0
LWPOLYLINE
  5
1FD
100
AcDbEntity
  8
skhody
  6
DASHED2
 62
  256
370
   -1
100
AcDbPolyline
 90
    5
 70
    0
 43
0
 10
146.5
 20
-112
 10
174.5
 20
-112
 10
174.5
 20
-200.5
 10
3.5
 20
-200.5
 10
3.5
 20
-172.5
  0
DIMENSION
  5
1FE
100
AcDbEntity
  8
rozmir
  6
ByLayer
 62
  256
370
   -1
100
AcDbDimension
  2
*D35
 10
-30
 20
-144
 30
0
 11
-35
 21
-128.25
 31
0
 70
   32
 71
    5
  3
Standard
 53
0
210
0
220
0
230
1
100
AcDbAlignedDimension
 13
3.5
 23
-112
 33
0
 14
3.5
 24
-144.5
 34
0
 50
90
100
AcDbRotatedDimension
  0
LWPOLYLINE
  5
1FF
100
AcDbEntity
  8
skhody
  6
DASHED2
 62
  256
370
   -1
100
AcDbPolyline
 90
    4
 70
    1
 43
0
 10
3.5
 20
-112
 10
118.5
 20
-112
 10
118.5
 20
-144.5
 10
3.5
 20
-144.5
  0
DIMENSION
  5
200
100
AcDbEntity
  8
rozmir
  6
ByLayer
 62
  256
370
   -1
100
AcDbDimension
  2
*D36
 10
-30
 20
-172
 30
0
 11
-35
 21
-158.5
 31
0
 70
   32
 71
    5
  3
Standard
 53
0
210
0
220
0
230
1
100
AcDbAlignedDimension
 13
3.5
 23
-144.5
 33
0
 14
3.5
 24
-172.5
 34
0
 50
90
100
AcDbRotatedDimension
  0
LWPOLYLINE
  5
201
100
AcDbEntity
  8
skhody
  6
DASHED2
 62
  256
370
   -1
100
AcDbPolyline
 90
    5
 70
    0
 43
0
 10
3.5
 20
-144.5
 10
3.5
 20
-172.5
 10
146.5
 20
-172.5
 10
146.5
 20
-112
 10
118.5
 20
-112
  0
DIMENSION
  5
202
100
AcDbEntity
  8
rozmir
  6
ByLayer
 62
  256
370
   -1
100
AcDbDimension
  2
*D37
 10
410
 20
44.99999999999999
 30
0
 11
405
 21
23
 31
0
 70
   32
 71
    5
  3
Standard
 53
0
210
0
220
0
230
1
100
AcDbAlignedDimension
 13
374
 23
40
 33
0
 14
374
 24
47.5
 34
0
 50
90
100
AcDbRotatedDimension
  0
MTEXT
  5
203
100
AcDbEntity
  8
tekst
  6
ByLayer
 62
  256
370
   -1
100
AcDbMText
 10
430
 20
-250
 30
0
 40
10
 41
48.6111111111122
 71
    6
 72
    1
  1
. 26
  7
cyrillic_ii
210
0
220
0
230
1
 50
0
 73
    2
 44
1
  0
LWPOLYLINE
  5
204
100
AcDbEntity
  8
pisok
  6
CONTINUOUS
 62
  176
420
  128
370
   25
100
AcDbPolyline
 90
    7
 70
    1
 43
0
 10
251
 20
-7
 10
250
 20
-6
 10
251
 20
-5
 10
250
 20
-4
 10
251
 20
-3
 10
285.5
 20
-3.000000000000002
 10
285.5
 20
-7.000000000000002
  0
LWPOLYLINE
  5
205
100
AcDbEntity
  8
pisok
  6
CONTINUOUS
 62
  176
420
  128
370
   25
100
AcDbPolyline
 90
   11
 70
    0
 43
0
 10
-10
 20
-3
 10
188
 20
-3
 10
187
 20
-4
 10
188
 20
-5
 10
187
 20
-6
 10
188
 20
-7
 10
-10
 20
-6.999999999999999
 10
-9
 20
-6
 10
-10
 20
-5
 10
-9
 20
-4
 10
-10
 20
-3
  0
DIMENSION
  5
206
100
AcDbEntity
  8
rozmir
  6
ByLayer
 62
  256
370
   -1
100
AcDbDimension
  2
*D38
 10
420
 20
48
 30
0
 11
415
 21
45
 31
0
 70
   32
 71
    5
  3
Standard
 53
0
210
0
220
0
230
1
100
AcDbAlignedDimension
 13
396
 23
40
 33
0
 14
396
 24
50
 34
0
 50
90
100
AcDbRotatedDimension
  0
LWPOLYLINE
  5
207
100
AcDbEntity
  8
skhody
  6
CONTINUOUS
 62
    8
370
   25
100
AcDbPolyline
 90
   11
 70
    0
 43
0
 10
374
 20
40
 10
374
 20
47.5
 10
386
 20
47.5
 10
386
 20
50
 10
396
 20
50
 10
396
 20
46
 10
394
 20
45
 10
398
 20
43
 10
396
 20
42
 10
396
 20
40
 10
374
 20
40
  0
LWPOLYLINE
  5
208
100
AcDbEntity
  8
dveri
  6
ByLayer
 62
  256
370
   -1
100
AcDbPolyline
 90
    4
 70
    1
 43
0
 10
387
 20
50.4
 10
396
 20
50.4
 10
396
 20
50
 10
387
 20
50
  0
LWPOLYLINE
  5
209
100
AcDbEntity
  8
dveri
  6
ByLayer
 62
  256
370
   -1
100
AcDbPolyline
 90
    8
 70
    1
 43
0
 10
389.6
 20
50.7
 42
0.4142135623729077
 10
389.7
 20
50.8
 10
389.6999999999999
 20
54
 42
0.4142135623729494
 10
389.6
 20
54.09999999999999
 10
386.4
 20
54.09999999999999
 42
0.4142135623729077
 10
386.3
 20
54
 10
386.3000000000001
 20
50.8
 42
0.4142135623729494
 10
386.4
 20
50.7
  0
LWPOLYLINE
  5
20A
100
AcDbEntity
  8
dveri
  6
ByLayer
 62
  256
370
   -1
100
AcDbPolyline
 90
    8
 70
    1
 43
0
 10
389.6
 20
50.39999999999999
 42
0.4142135623731106
 10
390
 20
50.8
 10
390
 20
54
 42
0.4142135623731106
 10
389.6
 20
54.4
 10
386.4
 20
54.40000000000001
 42
0.4142135623731106
 10
386
 20
54
 10
386
 20
50.8
 42
0.4142135623731106
 10
386.4
 20
50.4
  0
MTEXT
  5
20B
100
AcDbEntity
  8
tekst
  6
ByLayer
 62
  256
370
   -1
100
AcDbMText
 10
415
 20
72
 30
0
 40
5
 41
2.222222222222532
 71
    8
 72
    1
  1
5
  7
cyrillic_ii
210
0
220
0
230
1
 50
0
 73
    2
 44
1
  0
LEADER
  5
20C
100
AcDbEntity
  8
tekst
  6
ByLayer
 62
  256
370
   -1
100
AcDbLeader
  3
Standard
 71
    1
 72
    0
 73
    3
 74
    0
 75
    0
 40
1
 41
10
 76
3
 76
3
 10
389.9098376763953
 20
54.25298342690299
 30
0
 10
410
 20
70
 30
0
 10
420
 20
70
 30
0
  0
MTEXT
  5
20D
100
AcDbEntity
  8
tekst
  6
ByLayer
 62
  256
370
   -1
100
AcDbMText
 10
415
 20
62
 30
0
 40
5
 41
2.222222222222532
 71
    8
 72
    1
  1
6
  7
cyrillic_ii
210
0
220
0
230
1
 50
0
 73
    2
 44
1
  0
MTEXT
  5
20E
100
AcDbEntity
  8
tekst
  6
ByLayer
 62
  256
370
   -1
100
AcDbMText
 10
415
 20
12
 30
0
 40
5
 41
2.222222222222222
 71
    8
 72
    1
  1
7
  7
cyrillic_ii
210
0
220
0
230
1
 50
0
 73
    2
 44
1
  0
MTEXT
  5
20F
100
AcDbEntity
  8
tekst
  6
ByLayer
 62
  256
370
   -1
100
AcDbMText
 10
415
 20
2
 30
0
 40
5
 41
2.222222222222222
 71
    8
 72
    1
  1
8
  7
cyrillic_ii
210
0
220
0
230
1
 50
0
 73
    2
 44
1
  0
MTEXT
  5
210
100
AcDbEntity
  8
tekst
  6
ByLayer
 62
  256
370
   -1
100
AcDbMText
 10
195
 20
-78
 30
0
 40
5
 41
2.222222222222532
 71
    8
 72
    1
  1
9
  7
cyrillic_ii
210
0
220
0
230
1
 50
0
 73
    2
 44
1
  0
MTEXT
  5
211
100
AcDbEntity
  8
tekst
  6
ByLayer
 62
  256
370
   -1
100
AcDbMText
 10
195
 20
-88
 30
0
 40
5
 41
5
 71
    8
 72
    1
  1
10
  7
cyrillic_ii
210
0
220
0
230
1
 50
0
 73
    2
 44
1
  0
MTEXT
  5
212
100
AcDbEntity
  8
tekst
  6
ByLayer
 62
  256
370
   -1
100
AcDbMText
 10
240
 20
-60
 30
0
 40
10
 41
190.5555555555575
 71
    1
 72
    1
  3
1. \P2.   3 \P3. \P4.  \P5.  \P6. \P7.  \P8.  \P9. . 
  1
\P10. 
  7
cyrillic_ii
210
0
220
0
230
1
 50
0
 73
    2
 44
1
  0
ENDSEC
  0
SECTION
  2
OBJECTS
  0
DICTIONARY
  5
C
330
0
100
AcDbDictionary
281
    1
  3
ACAD_GROUP
350
D
  0
DICTIONARY
  5
D
330
C
100
AcDbDictionary
281
    1
  0
ENDSEC
  0
EOF
