999
dxfrw 0.6.3
  0
SECTION
  2
HEADER
  9
$ACADVER
  1
AC1021
  9
$DWGCODEPAGE
  3
ANSI_1252
  9
$INSBASE
 10
0
 20
0
 30
0
  9
$EXTMIN
 10
-37.5
 20
-258.3333333333333
 30
0
  9
$EXTMAX
 10
430.5555555555575
 20
105
 30
0
  9
$LIMMIN
 10
0
 20
0
  9
$LIMMAX
 10
420
 20
297
  9
$ORTHOMODE
 70
    0
  9
$REGENMODE
 70
    1
  9
$FILLMODE
 70
    1
  9
$QTEXTMODE
 70
    0
  9
$MIRRTEXT
 70
    0
  9
$LTSCALE
 40
1
  9
$ATTMODE
 70
    0
  9
$TEXTSIZE
 40
2.5
  9
$TRACEWID
 40
15.68
  9
$TEXTSTYLE
  7
STANDARD
  9
$CLAYER
  8
rozmir
  9
$CELTYPE
  6
BYLAYER
  9
$CECOLOR
 62
  256
  9
$CELTSCALE
 40
1
  9
$DISPSILH
 70
    0
  9
$DIMSCALE
 40
5
  9
$DIMASZ
 40
1
  9
$DIMEXO
 40
0.2
  9
$DIMDLI
 40
3.75
  9
$DIMRND
 40
0
  9
$DIMDLE
 40
0
  9
$DIMEXE
 40
0.5
  9
$DIMTP
 40
0
  9
$DIMTM
 40
0
  9
$DIMTXT
 40
1
  9
$DIMCEN
 40
2.5
  9
$DIMTSZ
 40
0
  9
$DIMTOL
 70
    0
  9
$DIMLIM
 70
    0
  9
$DIMTIH
 70
    0
  9
$DIMTOH
 70
    0
  9
$DIMSE1
 70
    0
  9
$DIMSE2
 70
    0
  9
$DIMTAD
 70
    1
  9
$DIMZIN
 70
    8
  9
$DIMBLK
  1

  9
$DIMASO
 70
    1
  9
$DIMSHO
 70
    1
  9
$DIMPOST
  1

  9
$DIMAPOST
  1

  9
$DIMALT
 70
    0
  9
$DIMALTD
 70
    3
  9
$DIMALTF
 40
0.03937
  9
$DIMLFAC
 40
1
  9
$DIMTOFL
 70
    1
  9
$DIMTVP
 40
0
  9
$DIMTIX
 70
    0
  9
$DIMSOXD
 70
    0
  9
$DIMSAH
 70
    0
  9
$DIMBLK1
  1

  9
$DIMBLK2
  1

  9
$DIMSTYLE
  2
STANDARD
  9
$DIMCLRD
 70
    0
  9
$DIMCLRE
 70
    0
  9
$DIMCLRT
 70
    0
  9
$DIMTFAC
 40
1
  9
$DIMGAP
 40
0.5
  9
$DIMJUST
 70
    0
  9
$DIMSD1
 70
    0
  9
$DIMSD2
 70
    0
  9
$DIMTOLJ
 70
    0
  9
$DIMTZIN
 70
    8
  9
$DIMALTZ
 70
    0
  9
$DIMALTTZ
 70
    0
  9
$DIMUPT
 70
    0
  9
$DIMDEC
 70
    1
  9
$DIMTDEC
 70
    2
  9
$DIMALTU
 70
    2
  9
$DIMALTTD
 70
    3
  9
$DIMTXSTY
  7
standard
  9
$DIMAUNIT
 70
    0
  9
$DIMADEC
 70
    0
  9
$DIMALTRND
 40
0
  9
$DIMAZIN
 70
    0
  9
$DIMDSEP
 70
   44
  9
$DIMATFIT
 70
    3
  9
$DIMFRAC
 70
    0
  9
$DIMLDRBLK
  1
STANDARD
  9
$DIMLUNIT
 70
    2
  9
$DIMLWD
 70
   -2
  9
$DIMLWE
 70
   -2
  9
$DIMTMOVE
 70
    0
  9
$DIMFXL
 40
1
  9
$DIMFXLON
 70
    0
  9
$DIMJOGANG
 40
0.7854
  9
$DIMTFILL
 70
    0
  9
$DIMTFILLCLR
 70
    0
  9
$DIMARCSYM
 70
    0
  9
$DIMLTYPE
  6

  9
$DIMLTEX1
  6

  9
$DIMLTEX2
  6

  9
$LUNITS
 70
    2
  9
$LUPREC
 70
    2
  9
$SKETCHINC
 40
1
  9
$FILLETRAD
 40
0
  9
$AUNITS
 70
    0
  9
$AUPREC
 70
    2
  9
$MENU
  1
.
  9
$ELEVATION
 40
0
  9
$PELEVATION
 40
0
  9
$THICKNESS
 40
0
  9
$LIMCHECK
 70
    0
  9
$CHAMFERA
 40
0
  9
$CHAMFERB
 40
0
  9
$CHAMFERC
 40
0
  9
$CHAMFERD
 40
0
  9
$SKPOLY
 70
    0
  9
$USRTIMER
 70
    1
  9
$ANGBASE
 50
0
  9
$ANGDIR
 70
    0
  9
$PDMODE
 70
   34
  9
$PDSIZE
 40
0
  9
$PLINEWID
 40
0
  9
$SPLFRAME
 70
    0
  9
$SPLINETYPE
 70
    2
  9
$SPLINESEGS
 70
    8
  9
$HANDSEED
  5
20000
  9
$SURFTAB1
 70
    6
  9
$SURFTAB2
 70
    6
  9
$SURFTYPE
 70
    6
  9
$SURFU
 70
    6
  9
$SURFV
 70
    6
  9
$UCSBASE
  2

  9
$UCSNAME
  2

  9
$UCSORG
 10
0
 20
0
 30
0
  9
$UCSXDIR
 10
1
 20
0
 30
0
  9
$UCSYDIR
 10
0
 20
1
 30
0
  9
$UCSORTHOREF
  2

  9
$UCSORTHOVIEW
 70
    0
  9
$UCSORGTOP
 10
0
 20
0
 30
0
  9
$UCSORGBOTTOM
 10
0
 20
0
 30
0
  9
$UCSORGLEFT
 10
0
 20
0
 30
0
  9
$UCSORGRIGHT
 10
0
 20
0
 30
0
  9
$UCSORGFRONT
 10
0
 20
0
 30
0
  9
$UCSORGBACK
 10
0
 20
0
 30
0
  9
$PUCSBASE
  2

  9
$PUCSNAME
  2

  9
$PUCSORG
 10
0
 20
0
 30
0
  9
$PUCSXDIR
 10
1
 20
0
 30
0
  9
$PUCSYDIR
 10
0
 20
1
 30
0
  9
$PUCSORTHOREF
  2

  9
$PUCSORTHOVIEW
 70
    0
  9
$PUCSORGTOP
 10
0
 20
0
 30
0
  9
$PUCSORGBOTTOM
 10
0
 20
0
 30
0
  9
$PUCSORGLEFT
 10
0
 20
0
 30
0
  9
$PUCSORGRIGHT
 10
0
 20
0
 30
0
  9
$PUCSORGFRONT
 10
0
 20
0
 30
0
  9
$PUCSORGBACK
 10
0
 20
0
 30
0
  9
$USERI1
 70
    0
  9
$USERI2
 70
    0
  9
$USERI3
 70
    0
  9
$USERI4
 70
    0
  9
$USERI5
 70
    0
  9
$USERR1
 40
0
  9
$USERR2
 40
0
  9
$USERR3
 40
0
  9
$USERR4
 40
0
  9
$USERR5
 40
0
  9
$WORLDVIEW
 70
    1
  9
$SHADEDGE
 70
    3
  9
$SHADEDIF
 70
   70
  9
$TILEMODE
 70
    1
  9
$MAXACTVP
 70
   64
  9
$PINSBASE
 10
10.32063559322034
 20
4.463983050847458
 30
0
  9
$PLIMCHECK
 70
    0
  9
$PEXTMIN
 10
0
 20
0
 30
0
  9
$PEXTMAX
 10
0
 20
0
 30
0
  9
$GRIDMODE
 70
    1
  9
$SNAPSTYLE
 70
    0
  9
$GRIDUNIT
 10
0
 20
0
  9
$PLIMMIN
 10
0
 20
0
  9
$PLIMMAX
 10
29.7
 20
21
  9
$UNITMODE
 70
    0
  9
$VISRETAIN
 70
    1
  9
$PLINEGEN
 70
    0
  9
$PSLTSCALE
 70
    1
  9
$TREEDEPTH
 70
 3020
  9
$CMLSTYLE
  2
Standard
  9
$CMLJUST
 70
    0
  9
$CMLSCALE
 40
20
  9
$PROXYGRAPHICS
 70
    1
  9
$MEASUREMENT
 70
    1
  9
$CELWEIGHT
370
   -1
  9
$ENDCAPS
280
    0
  9
$JOINSTYLE
280
    0
  9
$LWDISPLAY
290
    0
  9
$INSUNITS
 70
    5
  9
$HYPERLINKBASE
  1

  9
$STYLESHEET
  1

  9
$XEDIT
290
    1
  9
$CEPSNTYPE
380
    0
  9
$PSTYLEMODE
290
    1
  9
$EXTNAMES
290
    1
  9
$PSVPSCALE
 40
0.009406806765375426
  9
$OLESTARTUP
290
    0
  9
$SORTENTS
280
  127
  9
$INDEXCTL
280
    0
  9
$HIDETEXT
280
    1
  9
$XCLIPFRAME
290
    0
  9
$HALOGAP
280
    0
  9
$OBSCOLOR
 70
  257
  9
$OBSLTYPE
280
    0
  9
$INTERSECTIONDISPLAY
280
    0
  9
$INTERSECTIONCOLOR
 70
  257
  9
$DIMASSOC
280
    1
  9
$PROJECTNAME
  1

  9
$CAMERADISPLAY
290
    0
  9
$LENSLENGTH
 40
50
  9
$CAMERAHEIGHT
 40
0
  9
$STEPSPERSEC
 40
2
  9
$STEPSIZE
 40
50
  9
$3DDWFPREC
 40
2
  9
$PSOLWIDTH
 40
5
  9
$PSOLHEIGHT
 40
80
  9
$LOFTANG1
 40
1.570796326794897
  9
$LOFTANG2
 40
1.570796326794897
  9
$LOFTMAG1
 40
0
  9
$LOFTMAG2
 40
0
  9
$LOFTPARAM
 70
    7
  9
$LOFTNORMALS
280
    1
  9
$LATITUDE
 40
1
  9
$LONGITUDE
 40
1
  9
$NORTHDIRECTION
 40
0
  9
$TIMEZONE
 70
-8000
  9
$LIGHTGLYPHDISPLAY
280
    1
  9
$TILEMODELIGHTSYNCH
280
    1
  9
$SOLIDHIST
280
    1
  9
$SHOWHIST
280
    1
  9
$DWFFRAME
280
    2
  9
$DGNFRAME
280
    0
  9
$REALWORLDSCALE
290
    1
  9
$INTERFERECOLOR
 62
    1
  9
$CSHADOW
280
    0
  9
$SHADOWPLANELOCATION
 40
0
  0
ENDSEC
  0
SECTION
  2
CLASSES
  0
ENDSEC
  0
SECTION
  2
TABLES
  0
TABLE
  2
VPORT
  5
8
330
0
100
AcDbSymbolTable
 70
    1
  0
VPORT
  5
31
330
2
100
AcDbSymbolTableRecord
100
AcDbViewportTableRecord
  2
*ACTIVE
 70
    0
 10
0
 20
0
 11
1
 21
1
 12
284.0743305632502
 22
55.10387811634349
 13
0
 23
0
 14
10
 24
10
 15
10
 25
10
 16
0
 26
0
 36
1
 17
0
 27
0
 37
0
 40
373.3979686057248
 41
1.987870619946092
 42
50
 43
0
 44
0
 50
0
 51
0
 71
    0
 72
  100
 73
    1
 74
    3
 75
    0
 76
    1
 77
    0
 78
    0
281
    0
 65
    1
110
0
120
0
130
0
111
1
121
0
131
0
112
0
122
1
132
0
 79
    0
146
0
348
10020
 60
    7
 61
    5
292
1
282
    1
141
0
142
0
 63
  250
421
3358443
  0
ENDTAB
  0
TABLE
  2
LTYPE
  5
5
330
0
100
AcDbSymbolTable
 70
    4
  0
LTYPE
  5
14
330
5
100
AcDbSymbolTableRecord
100
AcDbLinetypeTableRecord
  2
ByBlock
 70
    0
  3

 72
   65
 73
    0
 40
0
  0
LTYPE
  5
15
330
5
100
AcDbSymbolTableRecord
100
AcDbLinetypeTableRecord
  2
ByLayer
 70
    0
  3

 72
   65
 73
    0
 40
0
  0
LTYPE
  5
16
330
5
100
AcDbSymbolTableRecord
100
AcDbLinetypeTableRecord
  2
Continuous
 70
    0
  3
Solid line
 72
   65
 73
    0
 40
0
  0
LTYPE
  5
32
330
5
100
AcDbSymbolTableRecord
100
AcDbLinetypeTableRecord
  2
DOT
 70
    0
  3
Dot . . . . . . . . . . . . . . . . . . . . . .
 72
   65
 73
    2
 40
6.35
 49
0
 74
    0
 49
-6.35
 74
    0
  0
LTYPE
  5
33
330
5
100
AcDbSymbolTableRecord
100
AcDbLinetypeTableRecord
  2
DOTTINY
 70
    0
  3
Dot (.15x) .....................................
 72
   65
 73
    2
 40
0.9525
 49
0
 74
    0
 49
-0.9525
 74
    0
  0
LTYPE
  5
34
330
5
100
AcDbSymbolTableRecord
100
AcDbLinetypeTableRecord
  2
DOT2
 70
    0
  3
Dot (.5x) .....................................
 72
   65
 73
    2
 40
3.175
 49
0
 74
    0
 49
-3.175
 74
    0
  0
LTYPE
  5
35
330
5
100
AcDbSymbolTableRecord
100
AcDbLinetypeTableRecord
  2
DOTX2
 70
    0
  3
Dot (2x) .  .  .  .  .  .  .  .  .  .  .  .  .
 72
   65
 73
    2
 40
12.7
 49
0
 74
    0
 49
-12.7
 74
    0
  0
LTYPE
  5
36
330
5
100
AcDbSymbolTableRecord
100
AcDbLinetypeTableRecord
  2
DASHED
 70
    0
  3
Dashed _ _ _ _ _ _ _ _ _ _ _ _ _ _ _ _ _
 72
   65
 73
    2
 40
19.05
 49
12.7
 74
    0
 49
-6.35
 74
    0
  0
LTYPE
  5
37
330
5
100
AcDbSymbolTableRecord
100
AcDbLinetypeTableRecord
  2
DASHEDTINY
 70
    0
  3
Dashed (.15x) _ _ _ _ _ _ _ _ _ _ _ _ _ _ _ _ _
 72
   65
 73
    2
 40
2.8575
 49
1.905
 74
    0
 49
-0.9525
 74
    0
  0
LTYPE
  5
38
330
5
100
AcDbSymbolTableRecord
100
AcDbLinetypeTableRecord
  2
DASHED2
 70
    0
  3
Dashed (.5x) _ _ _ _ _ _ _ _ _ _ _ _ _ _ _ _ _
 72
   65
 73
    2
 40
9.524999999999999
 49
6.35
 74
    0
 49
-3.175
 74
    0
  0
LTYPE
  5
39
330
5
100
AcDbSymbolTableRecord
100
AcDbLinetypeTableRecord
  2
DASHEDX2
 70
    0
  3
Dashed (2x) ____  ____  ____  ____  ____  ___
 72
   65
 73
    2
 40
38.09999999999999
 49
25.4
 74
    0
 49
-12.7
 74
    0
  0
LTYPE
  5
3A
330
5
100
AcDbSymbolTableRecord
100
AcDbLinetypeTableRecord
  2
DASHDOT
 70
    0
  3
Dash dot __ . __ . __ . __ . __ . __ . __ . __
 72
   65
 73
    4
 40
25.4
 49
12.7
 74
    0
 49
-6.35
 74
    0
 49
0
 74
    0
 49
-6.35
 74
    0
  0
LTYPE
  5
3B
330
5
100
AcDbSymbolTableRecord
100
AcDbLinetypeTableRecord
  2
DASHDOTTINY
 70
    0
  3
Dash dot (.15x) _._._._._._._._._._._._._._._.
 72
   65
 73
    4
 40
3.81
 49
1.905
 74
    0
 49
-0.9525
 74
    0
 49
0
 74
    0
 49
-0.9525
 74
    0
  0
LTYPE
  5
3C
330
5
100
AcDbSymbolTableRecord
100
AcDbLinetypeTableRecord
  2
DASHDOT2
 70
    0
  3
Dash dot (.5x) _._._._._._._._._._._._._._._.
 72
   65
 73
    4
 40
12.7
 49
6.35
 74
    0
 49
-3.175
 74
    0
 49
0
 74
    0
 49
-3.175
 74
    0
  0
LTYPE
  5
3D
330
5
100
AcDbSymbolTableRecord
100
AcDbLinetypeTableRecord
  2
DASHDOTX2
 70
    0
  3
Dash dot (2x) ____  .  ____  .  ____  .  ___
 72
   65
 73
    4
 40
50.8
 49
25.4
 74
    0
 49
-12.7
 74
    0
 49
0
 74
    0
 49
-12.7
 74
    0
  0
LTYPE
  5
3E
330
5
100
AcDbSymbolTableRecord
100
AcDbLinetypeTableRecord
  2
DIVIDE
 70
    0
  3
Divide ____ . . ____ . . ____ . . ____ . . ____
 72
   65
 73
    6
 40
31.75
 49
12.7
 74
    0
 49
-6.35
 74
    0
 49
0
 74
    0
 49
-6.35
 74
    0
 49
0
 74
    0
 49
-6.35
 74
    0
  0
LTYPE
  5
3F
330
5
100
AcDbSymbolTableRecord
100
AcDbLinetypeTableRecord
  2
DIVIDETINY
 70
    0
  3
Divide (.15x) __..__..__..__..__..__..__..__.._
 72
   65
 73
    6
 40
4.7625
 49
1.905
 74
    0
 49
-0.9525
 74
    0
 49
0
 74
    0
 49
-0.9525
 74
    0
 49
0
 74
    0
 49
-0.9525
 74
    0
  0
LTYPE
  5
40
330
5
100
AcDbSymbolTableRecord
100
AcDbLinetypeTableRecord
  2
DIVIDE2
 70
    0
  3
Divide (.5x) __..__..__..__..__..__..__..__.._
 72
   65
 73
    6
 40
15.875
 49
6.35
 74
    0
 49
-3.175
 74
    0
 49
0
 74
    0
 49
-3.175
 74
    0
 49
0
 74
    0
 49
-3.175
 74
    0
  0
LTYPE
  5
41
330
5
100
AcDbSymbolTableRecord
100
AcDbLinetypeTableRecord
  2
DIVIDEX2
 70
    0
  3
Divide (2x) ________  .  .  ________  .  .  _
 72
   65
 73
    6
 40
63.5
 49
25.4
 74
    0
 49
-12.7
 74
    0
 49
0
 74
    0
 49
-12.7
 74
    0
 49
0
 74
    0
 49
-12.7
 74
    0
  0
LTYPE
  5
42
330
5
100
AcDbSymbolTableRecord
100
AcDbLinetypeTableRecord
  2
BORDER
 70
    0
  3
Border __ __ . __ __ . __ __ . __ __ . __ __ .
 72
   65
 73
    6
 40
44.45
 49
12.7
 74
    0
 49
-6.35
 74
    0
 49
12.7
 74
    0
 49
-6.35
 74
    0
 49
0
 74
    0
 49
-6.35
 74
    0
  0
LTYPE
  5
43
330
5
100
AcDbSymbolTableRecord
100
AcDbLinetypeTableRecord
  2
BORDERTINY
 70
    0
  3
Border (.15x) __.__.__.__.__.__.__.__.__.__.__.
 72
   65
 73
    6
 40
6.6675
 49
1.905
 74
    0
 49
-0.9525
 74
    0
 49
1.905
 74
    0
 49
-0.9525
 74
    0
 49
0
 74
    0
 49
-0.9525
 74
    0
  0
LTYPE
  5
44
330
5
100
AcDbSymbolTableRecord
100
AcDbLinetypeTableRecord
  2
BORDER2
 70
    0
  3
Border (.5x) __.__.__.__.__.__.__.__.__.__.__.
 72
   65
 73
    6
 40
22.225
 49
6.35
 74
    0
 49
-3.175
 74
    0
 49
6.35
 74
    0
 49
-3.175
 74
    0
 49
0
 74
    0
 49
-3.175
 74
    0
  0
LTYPE
  5
45
330
5
100
AcDbSymbolTableRecord
100
AcDbLinetypeTableRecord
  2
BORDERX2
 70
    0
  3
Border (2x) ____  ____  .  ____  ____  .  ___
 72
   65
 73
    6
 40
88.89999999999999
 49
25.4
 74
    0
 49
-12.7
 74
    0
 49
25.4
 74
    0
 49
-12.7
 74
    0
 49
0
 74
    0
 49
-12.7
 74
    0
  0
LTYPE
  5
46
330
5
100
AcDbSymbolTableRecord
100
AcDbLinetypeTableRecord
  2
CENTER
 70
    0
  3
Center ____ _ ____ _ ____ _ ____ _ ____ _ ____
 72
   65
 73
    4
 40
50.8
 49
31.75
 74
    0
 49
-6.35
 74
    0
 49
6.35
 74
    0
 49
-6.35
 74
    0
  0
LTYPE
  5
47
330
5
100
AcDbSymbolTableRecord
100
AcDbLinetypeTableRecord
  2
CENTERTINY
 70
    0
  3
Center (.15x) ___ _ ___ _ ___ _ ___ _ ___ _ ___
 72
   65
 73
    4
 40
7.619999999999999
 49
4.7625
 74
    0
 49
-0.9525
 74
    0
 49
0.9525
 74
    0
 49
-0.9525
 74
    0
  0
LTYPE
  5
48
330
5
100
AcDbSymbolTableRecord
100
AcDbLinetypeTableRecord
  2
CENTER2
 70
    0
  3
Center (.5x) ___ _ ___ _ ___ _ ___ _ ___ _ ___
 72
   65
 73
    4
 40
28.575
 49
19.05
 74
    0
 49
-3.175
 74
    0
 49
3.175
 74
    0
 49
-3.175
 74
    0
  0
LTYPE
  5
49
330
5
100
AcDbSymbolTableRecord
100
AcDbLinetypeTableRecord
  2
CENTERX2
 70
    0
  3
Center (2x) ________  __  ________  __  _____
 72
   65
 73
    4
 40
101.6
 49
63.5
 74
    0
 49
-12.7
 74
    0
 49
12.7
 74
    0
 49
-12.7
 74
    0
  0
ENDTAB
  0
TABLE
  2
LAYER
  5
2
330
0
100
AcDbSymbolTable
 70
    1
  0
LAYER
  5
10
330
2
100
AcDbSymbolTableRecord
100
AcDbLayerTableRecord
  2
0
 70
    0
 62
    7
  6
CONTINUOUS
370
   -3
390
F
1001
LibreCad
1070
    1
  0
LAYER
  5
4A
330
2
100
AcDbSymbolTableRecord
100
AcDbLayerTableRecord
  2
fundament
 70
    0
 62
  136
420
32896
  6
CONTINUOUS
370
   25
390
F
  0
LAYER
  5
4B
330
2
100
AcDbSymbolTableRecord
100
AcDbLayerTableRecord
  2
klei
 70
    0
 62
    5
  6
CONTINUOUS
370
   25
390
F
  0
LAYER
  5
4C
330
2
100
AcDbSymbolTableRecord
100
AcDbLayerTableRecord
  2
lyce
 70
    0
 62
   41
420
16376252
  6
CONTINUOUS
370
   25
390
F
  0
LAYER
  5
4D
330
2
100
AcDbSymbolTableRecord
100
AcDbLayerTableRecord
  2
pisok
 70
    0
 62
  176
420
  128
  6
CONTINUOUS
370
   25
390
F
  0
LAYER
  5
4E
330
2
100
AcDbSymbolTableRecord
100
AcDbLayerTableRecord
  2
plytka3
 70
    0
 62
    2
  6
CONTINUOUS
370
   25
390
F
  0
LAYER
  5
4F
330
2
100
AcDbSymbolTableRecord
100
AcDbLayerTableRecord
  2
plytka6
 70
    0
 62
   56
420
8421376
  6
CONTINUOUS
370
   25
390
F
  0
LAYER
  5
50
330
2
100
AcDbSymbolTableRecord
100
AcDbLayerTableRecord
  2
rozmir
 70
    0
 62
    4
  6
CONTINUOUS
370
   13
390
F
  0
LAYER
  5
51
330
2
100
AcDbSymbolTableRecord
100
AcDbLayerTableRecord
  2
skhody
 70
    0
 62
    8
  6
CONTINUOUS
370
   25
390
F
  0
LAYER
  5
52
330
2
100
AcDbSymbolTableRecord
100
AcDbLayerTableRecord
  2
sterodur
 70
    0
 62
    3
  6
CONTINUOUS
370
   25
390
F
  0
LAYER
  5
53
330
2
100
AcDbSymbolTableRecord
100
AcDbLayerTableRecord
  2
tekst
 70
    0
 62
  136
420
32896
  6
CONTINUOUS
370
   13
390
F
  0
ENDTAB
  0
TABLE
  2
STYLE
  5
3
330
0
100
AcDbSymbolTable
 70
    3
  0
STYLE
  5
54
330
2
100
AcDbSymbolTableRecord
100
AcDbTextStyleTableRecord
  2
cyrillic_ii
 70
    0
 40
0
 41
1
 50
0
 71
    0
 42
1
  3
cyrillic_ii
  4

  0
STYLE
  5
55
330
2
100
AcDbSymbolTableRecord
100
AcDbTextStyleTableRecord
  2
Standard
 70
    0
 40
0
 41
1
 50
0
 71
    0
 42
1
  3
txt
  4

  0
ENDTAB
  0
TABLE
  2
VIEW
  5
6
330
0
100
AcDbSymbolTable
 70
    0
  0
ENDTAB
  0
TABLE
  2
UCS
  5
7
330
0
100
AcDbSymbolTable
 70
    0
  0
ENDTAB
  0
TABLE
  2
APPID
  5
9
330
0
100
AcDbSymbolTable
 70
    1
  0
APPID
  5
12
330
9
100
AcDbSymbolTableRecord
100
AcDbRegAppTableRecord
  2
ACAD
 70
    0
  0
APPID
  5
56
330
9
100
AcDbSymbolTableRecord
100
AcDbRegAppTableRecord
  2
LibreCad
 70
    0
  0
ENDTAB
  0
TABLE
  2
DIMSTYLE
  5
A
330
0
100
AcDbSymbolTable
 70
    1
100
AcDbDimStyleTable
 71
    1
  0
DIMSTYLE
105
57
330
A
100
AcDbSymbolTableRecord
100
AcDbDimStyleTableRecord
  2
Standard
 70
    0
 40
5
 41
1
 42
0.2
 43
0.38
 44
0.5
 45
0
 46
0
 47
0
 48
0
 49
1
140
1
141
0.09
142
0
143
25.4
144
1
145
0
146
1
147
0.5
148
0
 71
    0
 72
    0
 73
    0
 74
    1
 75
    0
 76
    0
 77
    0
 78
    8
 79
    0
170
    0
171
    2
172
    0
173
    0
174
    0
175
    0
176
    0
177
    0
178
    0
179
    0
271
    1
272
    4
273
    2
274
    2
275
    0
276
    0
277
    2
278
   44
279
    0
280
    0
281
    0
282
    0
283
    1
284
    0
285
    0
286
    0
288
    0
289
    3
340
standard
341

371
   -2
372
   -2
  0
ENDTAB
  0
TABLE
  2
BLOCK_RECORD
  5
1
330
0
100
AcDbSymbolTable
 70
    2
  0
BLOCK_RECORD
  5
1F
330
1
100
AcDbSymbolTableRecord
100
AcDbBlockTableRecord
  2
*Model_Space
 70
    0
280
    1
281
    0
  0
BLOCK_RECORD
  5
1E
330
1
100
AcDbSymbolTableRecord
100
AcDbBlockTableRecord
  2
*Paper_Space
 70
    0
280
    1
281
    0
  0
BLOCK_RECORD
  5
58
330
1
100
AcDbSymbolTableRecord
100
AcDbBlockTableRecord
  2
*D15
 70
    0
280
    1
281
    0
  0
BLOCK_RECORD
  5
5B
330
1
100
AcDbSymbolTableRecord
100
AcDbBlockTableRecord
  2
*D5
 70
    0
280
    1
281
    0
  0
BLOCK_RECORD
  5
5E
330
1
100
AcDbSymbolTableRecord
100
AcDbBlockTableRecord
  2
*D9
 70
    0
280
    1
281
    0
  0
BLOCK_RECORD
  5
61
330
1
100
AcDbSymbolTableRecord
100
AcDbBlockTableRecord
  2
*D11
 70
    0
280
    1
281
    0
  0
BLOCK_RECORD
  5
64
330
1
100
AcDbSymbolTableRecord
100
AcDbBlockTableRecord
  2
*D34
 70
    0
280
    1
281
    0
  0
BLOCK_RECORD
  5
67
330
1
100
AcDbSymbolTableRecord
100
AcDbBlockTableRecord
  2
*D29
 70
    0
280
    1
281
    0
  0
BLOCK_RECORD
  5
6A
330
1
100
AcDbSymbolTableRecord
100
AcDbBlockTableRecord
  2
*D26
 70
    0
280
    1
281
    0
  0
BLOCK_RECORD
  5
6D
330
1
100
AcDbSymbolTableRecord
100
AcDbBlockTableRecord
  2
*D2
 70
    0
280
    1
281
    0
  0
BLOCK_RECORD
  5
70
330
1
100
AcDbSymbolTableRecord
100
AcDbBlockTableRecord
  2
*D4
 70
    0
280
    1
281
    0
  0
BLOCK_RECORD
  5
73
330
1
100
AcDbSymbolTableRecord
100
AcDbBlockTableRecord
  2
*D24
 70
    0
280
    1
281
    0
  0
BLOCK_RECORD
  5
76
330
1
100
AcDbSymbolTableRecord
100
AcDbBlockTableRecord
  2
*D33
 70
    0
280
    1
281
    0
  0
BLOCK_RECORD
  5
79
330
1
100
AcDbSymbolTableRecord
100
AcDbBlockTableRecord
  2
*D31
 70
    0
280
    1
281
    0
  0
BLOCK_RECORD
  5
7C
330
1
100
AcDbSymbolTableRecord
100
AcDbBlockTableRecord
  2
*D27
 70
    0
280
    1
281
    0
  0
BLOCK_RECORD
  5
7F
330
1
100
AcDbSymbolTableRecord
100
AcDbBlockTableRecord
  2
*D36
 70
    0
280
    1
281
    0
  0
BLOCK_RECORD
  5
82
330
1
100
AcDbSymbolTableRecord
100
AcDbBlockTableRecord
  2
*D16
 70
    0
280
    1
281
    0
  0
BLOCK_RECORD
  5
85
330
1
100
AcDbSymbolTableRecord
100
AcDbBlockTableRecord
  2
*D38
 70
    0
280
    1
281
    0
  0
BLOCK_RECORD
  5
88
330
1
100
AcDbSymbolTableRecord
100
AcDbBlockTableRecord
  2
*D8
 70
    0
280
    1
281
    0
  0
BLOCK_RECORD
  5
8B
330
1
100
AcDbSymbolTableRecord
100
AcDbBlockTableRecord
  2
*D28
 70
    0
280
    1
281
    0
  0
BLOCK_RECORD
  5
8E
330
1
100
AcDbSymbolTableRecord
100
AcDbBlockTableRecord
  2
*D25
 70
    0
280
    1
281
    0
  0
BLOCK_RECORD
  5
91
330
1
100
AcDbSymbolTableRecord
100
AcDbBlockTableRecord
  2
*D20
 70
    0
280
    1
281
    0
  0
BLOCK_RECORD
  5
94
330
1
100
AcDbSymbolTableRecord
100
AcDbBlockTableRecord
  2
*D13
 70
    0
280
    1
281
    0
  0
BLOCK_RECORD
  5
97
330
1
100
AcDbSymbolTableRecord
100
AcDbBlockTableRecord
  2
*D3
 70
    0
280
    1
281
    0
  0
BLOCK_RECORD
  5
9A
330
1
100
AcDbSymbolTableRecord
100
AcDbBlockTableRecord
  2
*D6
 70
    0
280
    1
281
    0
  0
BLOCK_RECORD
  5
9D
330
1
100
AcDbSymbolTableRecord
100
AcDbBlockTableRecord
  2
*D7
 70
    0
280
    1
281
    0
  0
BLOCK_RECORD
  5
A0
330
1
100
AcDbSymbolTableRecord
100
AcDbBlockTableRecord
  2
*D10
 70
    0
280
    1
281
    0
  0
BLOCK_RECORD
  5
A3
330
1
100
AcDbSymbolTableRecord
100
AcDbBlockTableRecord
  2
*D22
 70
    0
280
    1
281
    0
  0
BLOCK_RECORD
  5
A6
330
1
100
AcDbSymbolTableRecord
100
AcDbBlockTableRecord
  2
*D21
 70
    0
280
    1
281
    0
  0
BLOCK_RECORD
  5
A9
330
1
100
AcDbSymbolTableRecord
100
AcDbBlockTableRecord
  2
*D30
 70
    0
280
    1
281
    0
  0
BLOCK_RECORD
  5
AC
330
1
100
AcDbSymbolTableRecord
100
AcDbBlockTableRecord
  2
*D19
 70
    0
280
    1
281
    0
  0
BLOCK_RECORD
  5
AF
330
1
100
AcDbSymbolTableRecord
100
AcDbBlockTableRecord
  2
*D37
 70
    0
280
    1
281
    0
  0
BLOCK_RECORD
  5
B2
330
1
100
AcDbSymbolTableRecord
100
AcDbBlockTableRecord
  2
*D32
 70
    0
280
    1
281
    0
  0
BLOCK_RECORD
  5
B5
330
1
100
AcDbSymbolTableRecord
100
AcDbBlockTableRecord
  2
*D18
 70
    0
280
    1
281
    0
  0
BLOCK_RECORD
  5
B8
330
1
100
AcDbSymbolTableRecord
100
AcDbBlockTableRecord
  2
*D35
 70
    0
280
    1
281
    0
  0
BLOCK_RECORD
  5
BB
330
1
100
AcDbSymbolTableRecord
100
AcDbBlockTableRecord
  2
*D23
 70
    0
280
    1
281
    0
  0
BLOCK_RECORD
  5
BE
330
1
100
AcDbSymbolTableRecord
100
AcDbBlockTableRecord
  2
*D1
 70
    0
280
    1
281
    0
  0
BLOCK_RECORD
  5
C1
330
1
100
AcDbSymbolTableRecord
100
AcDbBlockTableRecord
  2
*D17
 70
    0
280
    1
281
    0
  0
BLOCK_RECORD
  5
C4
330
1
100
AcDbSymbolTableRecord
100
AcDbBlockTableRecord
  2
*D12
 70
    0
280
    1
281
    0
  0
BLOCK_RECORD
  5
C7
330
1
100
AcDbSymbolTableRecord
100
AcDbBlockTableRecord
  2
*D14
 70
    0
280
    1
281
    0
  0
BLOCK_RECORD
  5
CA
330
1
100
AcDbSymbolTableRecord
100
AcDbBlockTableRecord
  2
block10
 70
    0
280
    1
281
    0
  0
ENDTAB
  0
ENDSEC
  0
SECTION
  2
BLOCKS
  0
BLOCK
  5
20
330
1F
100
AcDbEntity
  8
0
100
AcDbBlockBegin
  2
*Model_Space
 70
    0
 10
0
 20
0
 30
0
  3
*Model_Space
  1

  0
ENDBLK
  5
21
330
1F
100
AcDbEntity
  8
0
100
AcDbBlockEnd
  0
BLOCK
  5
1C
330
1B
100
AcDbEntity
  8
0
100
AcDbBlockBegin
  2
*Paper_Space
 70
    0
 10
0
 20
0
 30
0
  3
*Paper_Space
  1

  0
ENDBLK
  5
1D
330
1F
100
AcDbEntity
  8
0
100
AcDbBlockEnd
  0
BLOCK
  5
59
330
58
100
AcDbEntity
  8
0
100
AcDbBlockBegin
  2
*D15
 70
    1
 10
0
 20
0
  3
*D15
  1

  0
LINE
  5
CD
100
AcDbEntity
  8
rozmir
  6
ByBlock
 62
    0
370
   -2
100
AcDbLine
 10
4
 20
-80
 11
118
 21
-80
  0
SOLID
  5
CE
100
AcDbEntity
  8
rozmir
  6
ByBlock
 62
    0
370
   -2
100
AcDbTrace
 10
4
 20
-80
 30
0
 11
9
 21
-79.16743068445432
 31
0
 12
9
 22
-80.83256931554568
 32
0
 13
9
 23
-80.83256931554568
 33
0
  0
SOLID
  5
CF
100
AcDbEntity
  8
rozmir
  6
ByBlock
 62
    0
370
   -2
100
AcDbTrace
 10
118
 20
-80
 30
0
 11
113
 21
-80.83256931554568
 31
0
 12
113
 22
-79.16743068445432
 32
0
 13
113
 23
-79.16743068445432
 33
0
  0
MTEXT
  5
D0
100
AcDbEntity
  8
rozmir
  6
CONTINUOUS
 62
    0
370
   -2
100
AcDbMText
 10
61
 20
-75
 30
0
 40
5
 41
8.333333333333332
 71
    5
 72
    1
  1
114
  7
standard
210
0
220
0
230
1
 50
0
 73
    2
 44
1
  0
LINE
  5
D1
100
AcDbEntity
  8
rozmir
  6
ByBlock
 62
    0
370
   -2
100
AcDbLine
 10
4
 20
-111
 11
4
 21
-77.5
  0
LINE
  5
D2
100
AcDbEntity
  8
rozmir
  6
ByBlock
 62
    0
370
   -2
100
AcDbLine
 10
118
 20
-111
 11
118
 21
-77.5
  0
ENDBLK
  5
5A
330
58
100
AcDbEntity
  8
0
100
AcDbBlockEnd
  0
BLOCK
  5
5C
330
5B
100
AcDbEntity
  8
0
100
AcDbBlockBegin
  2
*D5
 70
    1
 10
0
 20
0
  3
*D5
  1

  0
LINE
  5
D3
100
AcDbEntity
  8
rozmir
  6
ByBlock
 62
    0
370
   -2
100
AcDbLine
 10
-20
 20
-7.999999999999996
 11
-20
 21
11
  0
SOLID
  5
D4
100
AcDbEntity
  8
rozmir
  6
ByBlock
 62
    0
370
   -2
100
AcDbTrace
 10
-20
 20
-7.999999999999996
 30
0
 11
-20.83256931554568
 21
-2.999999999999996
 31
0
 12
-19.16743068445432
 22
-2.999999999999996
 32
0
 13
-19.16743068445432
 23
-2.999999999999996
 33
0
  0
SOLID
  5
D5
100
AcDbEntity
  8
rozmir
  6
ByBlock
 62
    0
370
   -2
100
AcDbTrace
 10
-20
 20
11
 30
0
 11
-19.16743068445432
 21
6.000000000000002
 31
0
 12
-20.83256931554568
 22
6.000000000000002
 32
0
 13
-20.83256931554568
 23
6.000000000000002
 33
0
  0
MTEXT
  5
D6
100
AcDbEntity
  8
rozmir
  6
CONTINUOUS
 62
    0
370
   -2
100
AcDbMText
 10
-25
 20
1.500000000000002
 30
0
 40
5
 41
5
 71
    5
 72
    1
  1
19
  7
standard
210
0
220
0
230
1
 50
90
 73
    2
 44
1
  0
LINE
  5
D7
100
AcDbEntity
  8
rozmir
  6
ByBlock
 62
    0
370
   -2
100
AcDbLine
 10
3
 20
-8
 11
-22.5
 21
-7.999999999999996
  0
LINE
  5
D8
100
AcDbEntity
  8
rozmir
  6
ByBlock
 62
    0
370
   -2
100
AcDbLine
 10
3
 20
11
 11
-22.5
 21
11
  0
ENDBLK
  5
5D
330
5B
100
AcDbEntity
  8
0
100
AcDbBlockEnd
  0
BLOCK
  5
5F
330
5E
100
AcDbEntity
  8
0
100
AcDbBlockBegin
  2
*D9
 70
    1
 10
0
 20
0
  3
*D9
  1

  0
LINE
  5
D9
100
AcDbEntity
  8
rozmir
  6
ByBlock
 62
    0
370
   -2
100
AcDbLine
 10
210
 20
-176
 11
210
 21
-204
  0
SOLID
  5
DA
100
AcDbEntity
  8
rozmir
  6
ByBlock
 62
    0
370
   -2
100
AcDbTrace
 10
210
 20
-176
 30
0
 11
210.8325693155457
 21
-181
 31
0
 12
209.1674306844543
 22
-181
 32
0
 13
209.1674306844543
 23
-181
 33
0
  0
SOLID
  5
DB
100
AcDbEntity
  8
rozmir
  6
ByBlock
 62
    0
370
   -2
100
AcDbTrace
 10
210
 20
-204
 30
0
 11
209.1674306844543
 21
-199
 31
0
 12
210.8325693155457
 22
-199
 32
0
 13
210.8325693155457
 23
-199
 33
0
  0
MTEXT
  5
DC
100
AcDbEntity
  8
rozmir
  6
CONTINUOUS
 62
    0
370
   -2
100
AcDbMText
 10
205
 20
-190
 30
0
 40
5
 41
6.111111111111112
 71
    5
 72
    1
  1
28
  7
standard
210
0
220
0
230
1
 50
90
 73
    2
 44
1
  0
LINE
  5
DD
100
AcDbEntity
  8
rozmir
  6
ByBlock
 62
    0
370
   -2
100
AcDbLine
 10
151
 20
-176
 11
212.5
 21
-176
  0
LINE
  5
DE
100
AcDbEntity
  8
rozmir
  6
ByBlock
 62
    0
370
   -2
100
AcDbLine
 10
179
 20
-204
 11
212.5
 21
-204
  0
ENDBLK
  5
60
330
5E
100
AcDbEntity
  8
0
100
AcDbBlockEnd
  0
BLOCK
  5
62
330
61
100
AcDbEntity
  8
0
100
AcDbBlockBegin
  2
*D11
 70
    1
 10
0
 20
0
  3
*D11
  1

  0
LINE
  5
DF
100
AcDbEntity
  8
rozmir
  6
ByBlock
 62
    0
370
   -2
100
AcDbLine
 10
-30
 20
-144
 11
-30
 21
-172
  0
SOLID
  5
E0
100
AcDbEntity
  8
rozmir
  6
ByBlock
 62
    0
370
   -2
100
AcDbTrace
 10
-30
 20
-144
 30
0
 11
-29.16743068445432
 21
-149
 31
0
 12
-30.83256931554568
 22
-149
 32
0
 13
-30.83256931554568
 23
-149
 33
0
  0
SOLID
  5
E1
100
AcDbEntity
  8
rozmir
  6
ByBlock
 62
    0
370
   -2
100
AcDbTrace
 10
-30
 20
-172
 30
0
 11
-30.83256931554568
 21
-167
 31
0
 12
-29.16743068445432
 22
-167
 32
0
 13
-29.16743068445432
 23
-167
 33
0
  0
MTEXT
  5
E2
100
AcDbEntity
  8
rozmir
  6
CONTINUOUS
 62
    0
370
   -2
100
AcDbMText
 10
-35
 20
-158
 30
0
 40
5
 41
6.111111111111112
 71
    5
 72
    1
  1
28
  7
standard
210
0
220
0
230
1
 50
90
 73
    2
 44
1
  0
LINE
  5
E3
100
AcDbEntity
  8
rozmir
  6
ByBlock
 62
    0
370
   -2
100
AcDbLine
 10
3
 20
-144
 11
-32.5
 21
-144
  0
LINE
  5
E4
100
AcDbEntity
  8
rozmir
  6
ByBlock
 62
    0
370
   -2
100
AcDbLine
 10
3
 20
-172
 11
-32.5
 21
-172
  0
ENDBLK
  5
63
330
61
100
AcDbEntity
  8
0
100
AcDbBlockEnd
  0
BLOCK
  5
65
330
64
100
AcDbEntity
  8
0
100
AcDbBlockBegin
  2
*D34
 70
    1
 10
0
 20
0
  3
*D34
  1

  0
LINE
  5
E5
100
AcDbEntity
  8
tekst
  6
CONTINUOUS
 62
    7
370
    0
100
AcDbLine
 10
390
 20
-5
 11
410
 21
0
  0
LINE
  5
E6
100
AcDbEntity
  8
tekst
  6
CONTINUOUS
 62
    7
370
    0
100
AcDbLine
 10
410
 20
0
 11
420
 21
0
  0
SOLID
  5
E7
100
AcDbEntity
  8
tekst
  6
CONTINUOUS
 62
    7
370
    0
100
AcDbTrace
 10
390
 20
-5
 30
0
 11
394.6487847813947
 21
-2.97961099749056
 31
0
 12
395.0526402200586
 22
-4.59503275214611
 32
0
 13
395.0526402200586
 23
-4.59503275214611
 33
0
  0
ENDBLK
  5
66
330
64
100
AcDbEntity
  8
0
100
AcDbBlockEnd
  0
BLOCK
  5
68
330
67
100
AcDbEntity
  8
0
100
AcDbBlockBegin
  2
*D29
 70
    1
 10
0
 20
0
  3
*D29
  1

  0
LINE
  5
E8
100
AcDbEntity
  8
tekst
  6
CONTINUOUS
 62
    7
370
    0
100
AcDbLine
 10
260
 20
-10
 11
250
 21
10
  0
LINE
  5
E9
100
AcDbEntity
  8
tekst
  6
CONTINUOUS
 62
    7
370
    0
100
AcDbLine
 10
250
 20
10
 11
240
 21
10
  0
SOLID
  5
EA
100
AcDbEntity
  8
tekst
  6
CONTINUOUS
 62
    7
370
    0
100
AcDbTrace
 10
260
 20
-10
 30
0
 11
257.019259388284
 21
-5.900200362108543
 31
0
 12
258.5086046567164
 22
-5.155527727892297
 32
0
 13
258.5086046567164
 23
-5.155527727892297
 33
0
  0
ENDBLK
  5
69
330
67
100
AcDbEntity
  8
0
100
AcDbBlockEnd
  0
BLOCK
  5
6B
330
6A
100
AcDbEntity
  8
0
100
AcDbBlockBegin
  2
*D26
 70
    1
 10
0
 20
0
  3
*D26
  1

  0
LINE
  5
EB
100
AcDbEntity
  8
rozmir
  6
ByBlock
 62
    0
370
   -2
100
AcDbLine
 10
310
 20
50
 11
338
 21
50
  0
SOLID
  5
EC
100
AcDbEntity
  8
rozmir
  6
ByBlock
 62
    0
370
   -2
100
AcDbTrace
 10
310
 20
50
 30
0
 11
315
 21
50.83256931554568
 31
0
 12
315
 22
49.16743068445432
 32
0
 13
315
 23
49.16743068445432
 33
0
  0
SOLID
  5
ED
100
AcDbEntity
  8
rozmir
  6
ByBlock
 62
    0
370
   -2
100
AcDbTrace
 10
338
 20
50
 30
0
 11
333
 21
49.16743068445432
 31
0
 12
333
 22
50.83256931554568
 32
0
 13
333
 23
50.83256931554568
 33
0
  0
MTEXT
  5
EE
100
AcDbEntity
  8
rozmir
  6
CONTINUOUS
 62
    0
370
   -2
100
AcDbMText
 10
324
 20
55
 30
0
 40
5
 41
6.111111111111112
 71
    5
 72
    1
  1
28
  7
standard
210
0
220
0
230
1
 50
0
 73
    2
 44
1
  0
LINE
  5
EF
100
AcDbEntity
  8
rozmir
  6
ByBlock
 62
    0
370
   -2
100
AcDbLine
 10
310
 20
31
 11
310
 21
52.5
  0
LINE
  5
F0
100
AcDbEntity
  8
rozmir
  6
ByBlock
 62
    0
370
   -2
100
AcDbLine
 10
338
 20
46
 11
338
 21
52.5
  0
ENDBLK
  5
6C
330
6A
100
AcDbEntity
  8
0
100
AcDbBlockEnd
  0
BLOCK
  5
6E
330
6D
100
AcDbEntity
  8
0
100
AcDbBlockBegin
  2
*D2
 70
    1
 10
0
 20
0
  3
*D2
  1

  0
LINE
  5
F1
100
AcDbEntity
  8
rozmir
  6
ByBlock
 62
    0
370
   -2
100
AcDbLine
 10
210
 20
0
 11
210
 21
15
  0
SOLID
  5
F2
100
AcDbEntity
  8
rozmir
  6
ByBlock
 62
    0
370
   -2
100
AcDbTrace
 10
210
 20
0
 30
0
 11
209.1674306844543
 21
5
 31
0
 12
210.8325693155457
 22
5
 32
0
 13
210.8325693155457
 23
5
 33
0
  0
SOLID
  5
F3
100
AcDbEntity
  8
rozmir
  6
ByBlock
 62
    0
370
   -2
100
AcDbTrace
 10
210
 20
15
 30
0
 11
210.8325693155457
 21
10
 31
0
 12
209.1674306844543
 22
10
 32
0
 13
209.1674306844543
 23
10
 33
0
  0
MTEXT
  5
F4
100
AcDbEntity
  8
rozmir
  6
CONTINUOUS
 62
    0
370
   -2
100
AcDbMText
 10
205
 20
7.500000000000002
 30
0
 40
5
 41
5.000000000000311
 71
    5
 72
    1
  1
15
  7
standard
210
0
220
0
230
1
 50
90
 73
    2
 44
1
  0
LINE
  5
F5
100
AcDbEntity
  8
rozmir
  6
ByBlock
 62
    0
370
   -2
100
AcDbLine
 10
189
 20
0
 11
212.5
 21
0
  0
LINE
  5
F6
100
AcDbEntity
  8
rozmir
  6
ByBlock
 62
    0
370
   -2
100
AcDbLine
 10
179
 20
15
 11
212.5
 21
15
  0
ENDBLK
  5
6F
330
6D
100
AcDbEntity
  8
0
100
AcDbBlockEnd
  0
BLOCK
  5
71
330
70
100
AcDbEntity
  8
0
100
AcDbBlockBegin
  2
*D4
 70
    1
 10
0
 20
0
  3
*D4
  1

  0
LINE
  5
F7
100
AcDbEntity
  8
rozmir
  6
ByBlock
 62
    0
370
   -2
100
AcDbLine
 10
210
 20
30
 11
210
 21
45
  0
SOLID
  5
F8
100
AcDbEntity
  8
rozmir
  6
ByBlock
 62
    0
370
   -2
100
AcDbTrace
 10
210
 20
30
 30
0
 11
209.1674306844543
 21
35
 31
0
 12
210.8325693155457
 22
35
 32
0
 13
210.8325693155457
 23
35
 33
0
  0
SOLID
  5
F9
100
AcDbEntity
  8
rozmir
  6
ByBlock
 62
    0
370
   -2
100
AcDbTrace
 10
210
 20
45
 30
0
 11
210.8325693155457
 21
40
 31
0
 12
209.1674306844543
 22
40
 32
0
 13
209.1674306844543
 23
40
 33
0
  0
MTEXT
  5
FA
100
AcDbEntity
  8
rozmir
  6
CONTINUOUS
 62
    0
370
   -2
100
AcDbMText
 10
205
 20
37.5
 30
0
 40
5
 41
5.000000000000311
 71
    5
 72
    1
  1
15
  7
standard
210
0
220
0
230
1
 50
90
 73
    2
 44
1
  0
LINE
  5
FB
100
AcDbEntity
  8
rozmir
  6
ByBlock
 62
    0
370
   -2
100
AcDbLine
 10
151
 20
30
 11
212.5
 21
30
  0
LINE
  5
FC
100
AcDbEntity
  8
rozmir
  6
ByBlock
 62
    0
370
   -2
100
AcDbLine
 10
123
 20
45
 11
212.5
 21
45
  0
ENDBLK
  5
72
330
70
100
AcDbEntity
  8
0
100
AcDbBlockEnd
  0
BLOCK
  5
74
330
73
100
AcDbEntity
  8
0
100
AcDbBlockBegin
  2
*D24
 70
    1
 10
0
 20
0
  3
*D24
  1

  0
LINE
  5
FD
100
AcDbEntity
  8
rozmir
  6
ByBlock
 62
    0
370
   -2
100
AcDbLine
 10
210
 20
-122
 11
210
 21
-90
  0
SOLID
  5
FE
100
AcDbEntity
  8
rozmir
  6
ByBlock
 62
    0
370
   -2
100
AcDbTrace
 10
210
 20
-112
 30
0
 11
210.8325693155457
 21
-117
 31
0
 12
209.1674306844543
 22
-117
 32
0
 13
209.1674306844543
 23
-117
 33
0
  0
SOLID
  5
FF
100
AcDbEntity
  8
rozmir
  6
ByBlock
 62
    0
370
   -2
100
AcDbTrace
 10
210
 20
-100
 30
0
 11
209.1674306844543
 21
-95
 31
0
 12
210.8325693155457
 22
-95
 32
0
 13
210.8325693155457
 23
-95
 33
0
  0
MTEXT
  5
100
100
AcDbEntity
  8
rozmir
  6
CONTINUOUS
 62
    0
370
   -2
100
AcDbMText
 10
205
 20
-106
 30
0
 40
5
 41
5
 71
    5
 72
    1
  1
12
  7
standard
210
0
220
0
230
1
 50
90
 73
    2
 44
1
  0
LINE
  5
101
100
AcDbEntity
  8
rozmir
  6
ByBlock
 62
    0
370
   -2
100
AcDbLine
 10
189
 20
-112
 11
212.5
 21
-112
  0
LINE
  5
102
100
AcDbEntity
  8
rozmir
  6
ByBlock
 62
    0
370
   -2
100
AcDbLine
 10
189
 20
-100
 11
212.5
 21
-100
  0
ENDBLK
  5
75
330
73
100
AcDbEntity
  8
0
100
AcDbBlockEnd
  0
BLOCK
  5
77
330
76
100
AcDbEntity
  8
0
100
AcDbBlockBegin
  2
*D33
 70
    1
 10
0
 20
0
  3
*D33
  1

  0
LINE
  5
103
100
AcDbEntity
  8
tekst
  6
CONTINUOUS
 62
    7
370
    0
100
AcDbLine
 10
370
 20
0
 11
410
 21
10
  0
LINE
  5
104
100
AcDbEntity
  8
tekst
  6
CONTINUOUS
 62
    7
370
    0
100
AcDbLine
 10
410
 20
10
 11
420
 21
10
  0
SOLID
  5
105
100
AcDbEntity
  8
tekst
  6
CONTINUOUS
 62
    7
370
    0
100
AcDbTrace
 10
370
 20
0
 30
0
 11
374.6487847813947
 21
2.02038900250944
 31
0
 12
375.0526402200586
 22
0.40496724785389
 32
0
 13
375.0526402200586
 23
0.40496724785389
 33
0
  0
ENDBLK
  5
78
330
76
100
AcDbEntity
  8
0
100
AcDbBlockEnd
  0
BLOCK
  5
7A
330
79
100
AcDbEntity
  8
0
100
AcDbBlockBegin
  2
*D31
 70
    1
 10
0
 20
0
  3
*D31
  1

  0
LINE
  5
106
100
AcDbEntity
  8
tekst
  6
CONTINUOUS
 62
    7
370
    0
100
AcDbLine
 10
270
 20
0
 11
250
 21
30
  0
LINE
  5
107
100
AcDbEntity
  8
tekst
  6
CONTINUOUS
 62
    7
370
    0
100
AcDbLine
 10
250
 20
30
 11
240
 21
30
  0
SOLID
  5
108
100
AcDbEntity
  8
tekst
  6
CONTINUOUS
 62
    7
370
    0
100
AcDbTrace
 10
270
 20
0
 30
0
 11
266.5337594748174
 21
3.698425108984924
 31
0
 12
267.9192385629303
 22
4.622077834393512
 32
0
 13
267.9192385629303
 23
4.622077834393512
 33
0
  0
ENDBLK
  5
7B
330
79
100
AcDbEntity
  8
0
100
AcDbBlockEnd
  0
BLOCK
  5
7D
330
7C
100
AcDbEntity
  8
0
100
AcDbBlockBegin
  2
*D27
 70
    1
 10
0
 20
0
  3
*D27
  1

  0
LINE
  5
109
100
AcDbEntity
  8
rozmir
  6
ByBlock
 62
    0
370
   -2
100
AcDbLine
 10
338
 20
50
 11
386
 21
50
  0
SOLID
  5
10A
100
AcDbEntity
  8
rozmir
  6
ByBlock
 62
    0
370
   -2
100
AcDbTrace
 10
338
 20
50
 30
0
 11
343
 21
50.83256931554568
 31
0
 12
343
 22
49.16743068445432
 32
0
 13
343
 23
49.16743068445432
 33
0
  0
SOLID
  5
10B
100
AcDbEntity
  8
rozmir
  6
ByBlock
 62
    0
370
   -2
100
AcDbTrace
 10
386
 20
50
 30
0
 11
381
 21
49.16743068445432
 31
0
 12
381
 22
50.83256931554568
 32
0
 13
381
 23
50.83256931554568
 33
0
  0
MTEXT
  5
10C
100
AcDbEntity
  8
rozmir
  6
CONTINUOUS
 62
    0
370
   -2
100
AcDbMText
 10
362
 20
55
 30
0
 40
5
 41
6.666666666666667
 71
    5
 72
    1
  1
48
  7
standard
210
0
220
0
230
1
 50
0
 73
    2
 44
1
  0
LINE
  5
10D
100
AcDbEntity
  8
rozmir
  6
ByBlock
 62
    0
370
   -2
100
AcDbLine
 10
338
 20
46
 11
338
 21
52.5
  0
LINE
  5
10E
100
AcDbEntity
  8
rozmir
  6
ByBlock
 62
    0
370
   -2
100
AcDbLine
 10
386
 20
46
 11
386
 21
52.5
  0
ENDBLK
  5
7E
330
7C
100
AcDbEntity
  8
0
100
AcDbBlockEnd
  0
BLOCK
  5
80
330
7F
100
AcDbEntity
  8
0
100
AcDbBlockBegin
  2
*D36
 70
    1
 10
0
 20
0
  3
*D36
  1

  0
LINE
  5
10F
100
AcDbEntity
  8
tekst
  6
CONTINUOUS
 62
    7
370
    0
100
AcDbLine
 10
181
 20
-115
 11
190
 21
-90
  0
LINE
  5
110
100
AcDbEntity
  8
tekst
  6
CONTINUOUS
 62
    7
370
    0
100
AcDbLine
 10
190
 20
-90
 11
200
 21
-90
  0
SOLID
  5
111
100
AcDbEntity
  8
tekst
  6
CONTINUOUS
 62
    7
370
    0
100
AcDbTrace
 10
181
 20
-115
 30
0
 11
181.9102433528586
 21
-110.0135555047945
 31
0
 12
183.4769513298688
 22
-110.5775703765182
 32
0
 13
183.4769513298688
 23
-110.5775703765182
 33
0
  0
ENDBLK
  5
81
330
7F
100
AcDbEntity
  8
0
100
AcDbBlockEnd
  0
BLOCK
  5
83
330
82
100
AcDbEntity
  8
0
100
AcDbBlockBegin
  2
*D16
 70
    1
 10
0
 20
0
  3
*D16
  1

  0
LINE
  5
112
100
AcDbEntity
  8
rozmir
  6
ByBlock
 62
    0
370
   -2
100
AcDbLine
 10
4
 20
-70
 11
146
 21
-70
  0
SOLID
  5
113
100
AcDbEntity
  8
rozmir
  6
ByBlock
 62
    0
370
   -2
100
AcDbTrace
 10
4
 20
-70
 30
0
 11
9
 21
-69.16743068445432
 31
0
 12
9
 22
-70.83256931554568
 32
0
 13
9
 23
-70.83256931554568
 33
0
  0
SOLID
  5
114
100
AcDbEntity
  8
rozmir
  6
ByBlock
 62
    0
370
   -2
100
AcDbTrace
 10
146
 20
-70
 30
0
 11
141
 21
-70.83256931554568
 31
0
 12
141
 22
-69.16743068445432
 32
0
 13
141
 23
-69.16743068445432
 33
0
  0
MTEXT
  5
115
100
AcDbEntity
  8
rozmir
  6
CONTINUOUS
 62
    0
370
   -2
100
AcDbMText
 10
75
 20
-65
 30
0
 40
5
 41
9.444444444444445
 71
    5
 72
    1
  1
142
  7
standard
210
0
220
0
230
1
 50
0
 73
    2
 44
1
  0
LINE
  5
116
100
AcDbEntity
  8
rozmir
  6
ByBlock
 62
    0
370
   -2
100
AcDbLine
 10
4
 20
-111
 11
4
 21
-67.5
  0
LINE
  5
117
100
AcDbEntity
  8
rozmir
  6
ByBlock
 62
    0
370
   -2
100
AcDbLine
 10
146
 20
-111
 11
146
 21
-67.5
  0
ENDBLK
  5
84
330
82
100
AcDbEntity
  8
0
100
AcDbBlockEnd
  0
BLOCK
  5
86
330
85
100
AcDbEntity
  8
0
100
AcDbBlockBegin
  2
*D38
 70
    1
 10
0
 20
0
  3
*D38
  1

  0
LINE
  5
118
100
AcDbEntity
  8
rozmir
  6
ByBlock
 62
    0
370
   -2
100
AcDbLine
 10
200
 20
-127
 11
200
 21
-102
  0
SOLID
  5
119
100
AcDbEntity
  8
rozmir
  6
ByBlock
 62
    0
370
   -2
100
AcDbTrace
 10
200
 20
-117
 30
0
 11
200.8325693155457
 21
-122
 31
0
 12
199.1674306844543
 22
-122
 32
0
 13
199.1674306844543
 23
-122
 33
0
  0
SOLID
  5
11A
100
AcDbEntity
  8
rozmir
  6
ByBlock
 62
    0
370
   -2
100
AcDbTrace
 10
200
 20
-112
 30
0
 11
199.1674306844543
 21
-107
 31
0
 12
200.8325693155457
 22
-107
 32
0
 13
200.8325693155457
 23
-107
 33
0
  0
MTEXT
  5
11B
100
AcDbEntity
  8
rozmir
  6
CONTINUOUS
 62
    0
370
   -2
100
AcDbMText
 10
195
 20
-114.5
 30
0
 40
5
 41
2.222222222222532
 71
    5
 72
    1
  1
5
  7
standard
210
0
220
0
230
1
 50
90
 73
    2
 44
1
  0
LINE
  5
11C
100
AcDbEntity
  8
rozmir
  6
ByBlock
 62
    0
370
   -2
100
AcDbLine
 10
190
 20
-117
 11
202.5
 21
-117
  0
LINE
  5
11D
100
AcDbEntity
  8
rozmir
  6
ByBlock
 62
    0
370
   -2
100
AcDbLine
 10
189
 20
-112
 11
202.5
 21
-112
  0
ENDBLK
  5
87
330
85
100
AcDbEntity
  8
0
100
AcDbBlockEnd
  0
BLOCK
  5
89
330
88
100
AcDbEntity
  8
0
100
AcDbBlockBegin
  2
*D8
 70
    1
 10
0
 20
0
  3
*D8
  1

  0
LINE
  5
11E
100
AcDbEntity
  8
rozmir
  6
ByBlock
 62
    0
370
   -2
100
AcDbLine
 10
210
 20
-148
 11
210
 21
-176
  0
SOLID
  5
11F
100
AcDbEntity
  8
rozmir
  6
ByBlock
 62
    0
370
   -2
100
AcDbTrace
 10
210
 20
-148
 30
0
 11
210.8325693155457
 21
-153
 31
0
 12
209.1674306844543
 22
-153
 32
0
 13
209.1674306844543
 23
-153
 33
0
  0
SOLID
  5
120
100
AcDbEntity
  8
rozmir
  6
ByBlock
 62
    0
370
   -2
100
AcDbTrace
 10
210
 20
-176
 30
0
 11
209.1674306844543
 21
-171
 31
0
 12
210.8325693155457
 22
-171
 32
0
 13
210.8325693155457
 23
-171
 33
0
  0
MTEXT
  5
121
100
AcDbEntity
  8
rozmir
  6
CONTINUOUS
 62
    0
370
   -2
100
AcDbMText
 10
205
 20
-162
 30
0
 40
5
 41
6.111111111111112
 71
    5
 72
    1
  1
28
  7
standard
210
0
220
0
230
1
 50
90
 73
    2
 44
1
  0
LINE
  5
122
100
AcDbEntity
  8
rozmir
  6
ByBlock
 62
    0
370
   -2
100
AcDbLine
 10
123
 20
-148
 11
212.5
 21
-148
  0
LINE
  5
123
100
AcDbEntity
  8
rozmir
  6
ByBlock
 62
    0
370
   -2
100
AcDbLine
 10
151
 20
-176
 11
212.5
 21
-176
  0
ENDBLK
  5
8A
330
88
100
AcDbEntity
  8
0
100
AcDbBlockEnd
  0
BLOCK
  5
8C
330
8B
100
AcDbEntity
  8
0
100
AcDbBlockBegin
  2
*D28
 70
    1
 10
0
 20
0
  3
*D28
  1

  0
LINE
  5
124
100
AcDbEntity
  8
tekst
  6
CONTINUOUS
 62
    7
370
    0
100
AcDbLine
 10
392
 20
43
 11
410
 21
60
  0
LINE
  5
125
100
AcDbEntity
  8
tekst
  6
CONTINUOUS
 62
    7
370
    0
100
AcDbLine
 10
410
 20
60
 11
420
 21
60
  0
SOLID
  5
126
100
AcDbEntity
  8
tekst
  6
CONTINUOUS
 62
    7
370
    0
100
AcDbTrace
 10
392
 20
43
 30
0
 11
395.063404077872
 21
47.03840650762969
 31
0
 12
396.2067274476262
 22
45.82782882200747
 32
0
 13
396.2067274476262
 23
45.82782882200747
 33
0
  0
ENDBLK
  5
8D
330
8B
100
AcDbEntity
  8
0
100
AcDbBlockEnd
  0
BLOCK
  5
8F
330
8E
100
AcDbEntity
  8
0
100
AcDbBlockBegin
  2
*D25
 70
    1
 10
0
 20
0
  3
*D25
  1

  0
LINE
  5
127
100
AcDbEntity
  8
rozmir
  6
ByBlock
 62
    0
370
   -2
100
AcDbLine
 10
282
 20
40
 11
310
 21
40
  0
SOLID
  5
128
100
AcDbEntity
  8
rozmir
  6
ByBlock
 62
    0
370
   -2
100
AcDbTrace
 10
282
 20
40
 30
0
 11
287
 21
40.83256931554568
 31
0
 12
287
 22
39.16743068445432
 32
0
 13
287
 23
39.16743068445432
 33
0
  0
SOLID
  5
129
100
AcDbEntity
  8
rozmir
  6
ByBlock
 62
    0
370
   -2
100
AcDbTrace
 10
310
 20
40
 30
0
 11
305
 21
39.16743068445432
 31
0
 12
305
 22
40.83256931554568
 32
0
 13
305
 23
40.83256931554568
 33
0
  0
MTEXT
  5
12A
100
AcDbEntity
  8
rozmir
  6
CONTINUOUS
 62
    0
370
   -2
100
AcDbMText
 10
296
 20
45
 30
0
 40
5
 41
6.111111111111112
 71
    5
 72
    1
  1
28
  7
standard
210
0
220
0
230
1
 50
0
 73
    2
 44
1
  0
LINE
  5
12B
100
AcDbEntity
  8
rozmir
  6
ByBlock
 62
    0
370
   -2
100
AcDbLine
 10
282
 20
16
 11
282
 21
42.5
  0
LINE
  5
12C
100
AcDbEntity
  8
rozmir
  6
ByBlock
 62
    0
370
   -2
100
AcDbLine
 10
310
 20
31
 11
310
 21
42.5
  0
ENDBLK
  5
90
330
8E
100
AcDbEntity
  8
0
100
AcDbBlockEnd
  0
BLOCK
  5
92
330
91
100
AcDbEntity
  8
0
100
AcDbBlockBegin
  2
*D20
 70
    1
 10
0
 20
0
  3
*D20
  1

  0
LINE
  5
12D
100
AcDbEntity
  8
rozmir
  6
ByBlock
 62
    0
370
   -2
100
AcDbLine
 10
0
 20
-250
 11
178
 21
-250
  0
SOLID
  5
12E
100
AcDbEntity
  8
rozmir
  6
ByBlock
 62
    0
370
   -2
100
AcDbTrace
 10
0
 20
-250
 30
0
 11
5
 21
-249.1674306844543
 31
0
 12
5
 22
-250.8325693155457
 32
0
 13
5
 23
-250.8325693155457
 33
0
  0
SOLID
  5
12F
100
AcDbEntity
  8
rozmir
  6
ByBlock
 62
    0
370
   -2
100
AcDbTrace
 10
178
 20
-250
 30
0
 11
173
 21
-250.8325693155457
 31
0
 12
173
 22
-249.1674306844543
 32
0
 13
173
 23
-249.1674306844543
 33
0
  0
MTEXT
  5
130
100
AcDbEntity
  8
rozmir
  6
CONTINUOUS
 62
    0
370
   -2
100
AcDbMText
 10
89
 20
-245
 30
0
 40
5
 41
8.888888888888889
 71
    5
 72
    1
  1
178
  7
standard
210
0
220
0
230
1
 50
0
 73
    2
 44
1
  0
LINE
  5
131
100
AcDbEntity
  8
rozmir
  6
ByBlock
 62
    0
370
   -2
100
AcDbLine
 10
-1.83697019872103e-16
 20
-205
 11
-4.592425496802574e-16
 21
-252.5
  0
LINE
  5
132
100
AcDbEntity
  8
rozmir
  6
ByBlock
 62
    0
370
   -2
100
AcDbLine
 10
178
 20
-205
 11
178
 21
-252.5
  0
ENDBLK
  5
93
330
91
100
AcDbEntity
  8
0
100
AcDbBlockEnd
  0
BLOCK
  5
95
330
94
100
AcDbEntity
  8
0
100
AcDbBlockBegin
  2
*D13
 70
    1
 10
0
 20
0
  3
*D13
  1

  0
LINE
  5
133
100
AcDbEntity
  8
rozmir
  6
ByBlock
 62
    0
370
   -2
100
AcDbLine
 10
-6
 20
-90
 11
25
 21
-90
  0
SOLID
  5
134
100
AcDbEntity
  8
rozmir
  6
ByBlock
 62
    0
370
   -2
100
AcDbTrace
 10
4
 20
-90
 30
0
 11
-1
 21
-90.83256931554568
 31
0
 12
-1
 22
-89.16743068445432
 32
0
 13
-1
 23
-89.16743068445432
 33
0
  0
SOLID
  5
135
100
AcDbEntity
  8
rozmir
  6
ByBlock
 62
    0
370
   -2
100
AcDbTrace
 10
15
 20
-90
 30
0
 11
20
 21
-89.16743068445432
 31
0
 12
20
 22
-90.83256931554568
 32
0
 13
20
 23
-90.83256931554568
 33
0
  0
MTEXT
  5
136
100
AcDbEntity
  8
rozmir
  6
CONTINUOUS
 62
    0
370
   -2
100
AcDbMText
 10
9.5
 20
-85
 30
0
 40
5
 41
3.888888888888889
 71
    5
 72
    1
  1
11
  7
standard
210
0
220
0
230
1
 50
0
 73
    2
 44
1
  0
LINE
  5
137
100
AcDbEntity
  8
rozmir
  6
ByBlock
 62
    0
370
   -2
100
AcDbLine
 10
4
 20
-111
 11
4
 21
-87.5
  0
LINE
  5
138
100
AcDbEntity
  8
rozmir
  6
ByBlock
 62
    0
370
   -2
100
AcDbLine
 10
15
 20
-111
 11
15
 21
-87.5
  0
ENDBLK
  5
96
330
94
100
AcDbEntity
  8
0
100
AcDbBlockEnd
  0
BLOCK
  5
98
330
97
100
AcDbEntity
  8
0
100
AcDbBlockBegin
  2
*D3
 70
    1
 10
0
 20
0
  3
*D3
  1

  0
LINE
  5
139
100
AcDbEntity
  8
rozmir
  6
ByBlock
 62
    0
370
   -2
100
AcDbLine
 10
210
 20
15
 11
210
 21
30
  0
SOLID
  5
13A
100
AcDbEntity
  8
rozmir
  6
ByBlock
 62
    0
370
   -2
100
AcDbTrace
 10
210
 20
15
 30
0
 11
209.1674306844543
 21
20
 31
0
 12
210.8325693155457
 22
20
 32
0
 13
210.8325693155457
 23
20
 33
0
  0
SOLID
  5
13B
100
AcDbEntity
  8
rozmir
  6
ByBlock
 62
    0
370
   -2
100
AcDbTrace
 10
210
 20
30
 30
0
 11
210.8325693155457
 21
25
 31
0
 12
209.1674306844543
 22
25
 32
0
 13
209.1674306844543
 23
25
 33
0
  0
MTEXT
  5
13C
100
AcDbEntity
  8
rozmir
  6
CONTINUOUS
 62
    0
370
   -2
100
AcDbMText
 10
205
 20
22.5
 30
0
 40
5
 41
5.000000000000311
 71
    5
 72
    1
  1
15
  7
standard
210
0
220
0
230
1
 50
90
 73
    2
 44
1
  0
LINE
  5
13D
100
AcDbEntity
  8
rozmir
  6
ByBlock
 62
    0
370
   -2
100
AcDbLine
 10
179
 20
15
 11
212.5
 21
15
  0
LINE
  5
13E
100
AcDbEntity
  8
rozmir
  6
ByBlock
 62
    0
370
   -2
100
AcDbLine
 10
151
 20
30
 11
212.5
 21
30
  0
ENDBLK
  5
99
330
97
100
AcDbEntity
  8
0
100
AcDbBlockEnd
  0
BLOCK
  5
9B
330
9A
100
AcDbEntity
  8
0
100
AcDbBlockBegin
  2
*D6
 70
    1
 10
0
 20
0
  3
*D6
  1

  0
LINE
  5
13F
100
AcDbEntity
  8
rozmir
  6
ByBlock
 62
    0
370
   -2
100
AcDbLine
 10
-20
 20
11
 11
-20
 21
26
  0
SOLID
  5
140
100
AcDbEntity
  8
rozmir
  6
ByBlock
 62
    0
370
   -2
100
AcDbTrace
 10
-20
 20
11
 30
0
 11
-20.83256931554568
 21
16
 31
0
 12
-19.16743068445432
 22
16
 32
0
 13
-19.16743068445432
 23
16
 33
0
  0
SOLID
  5
141
100
AcDbEntity
  8
rozmir
  6
ByBlock
 62
    0
370
   -2
100
AcDbTrace
 10
-20
 20
26
 30
0
 11
-19.16743068445432
 21
21
 31
0
 12
-20.83256931554568
 22
21
 32
0
 13
-20.83256931554568
 23
21
 33
0
  0
MTEXT
  5
142
100
AcDbEntity
  8
rozmir
  6
CONTINUOUS
 62
    0
370
   -2
100
AcDbMText
 10
-25
 20
18.5
 30
0
 40
5
 41
5.000000000000311
 71
    5
 72
    1
  1
15
  7
standard
210
0
220
0
230
1
 50
90
 73
    2
 44
1
  0
LINE
  5
143
100
AcDbEntity
  8
rozmir
  6
ByBlock
 62
    0
370
   -2
100
AcDbLine
 10
3
 20
11
 11
-22.5
 21
11
  0
LINE
  5
144
100
AcDbEntity
  8
rozmir
  6
ByBlock
 62
    0
370
   -2
100
AcDbLine
 10
3
 20
26
 11
-22.5
 21
26
  0
ENDBLK
  5
9C
330
9A
100
AcDbEntity
  8
0
100
AcDbBlockEnd
  0
BLOCK
  5
9E
330
9D
100
AcDbEntity
  8
0
100
AcDbBlockBegin
  2
*D7
 70
    1
 10
0
 20
0
  3
*D7
  1

  0
LINE
  5
145
100
AcDbEntity
  8
rozmir
  6
ByBlock
 62
    0
370
   -2
100
AcDbLine
 10
-20
 20
26
 11
-20
 21
41
  0
SOLID
  5
146
100
AcDbEntity
  8
rozmir
  6
ByBlock
 62
    0
370
   -2
100
AcDbTrace
 10
-20
 20
26
 30
0
 11
-20.83256931554568
 21
31
 31
0
 12
-19.16743068445432
 22
31
 32
0
 13
-19.16743068445432
 23
31
 33
0
  0
SOLID
  5
147
100
AcDbEntity
  8
rozmir
  6
ByBlock
 62
    0
370
   -2
100
AcDbTrace
 10
-20
 20
41
 30
0
 11
-19.16743068445432
 21
36
 31
0
 12
-20.83256931554568
 22
36
 32
0
 13
-20.83256931554568
 23
36
 33
0
  0
MTEXT
  5
148
100
AcDbEntity
  8
rozmir
  6
CONTINUOUS
 62
    0
370
   -2
100
AcDbMText
 10
-25
 20
33.5
 30
0
 40
5
 41
5.000000000000311
 71
    5
 72
    1
  1
15
  7
standard
210
0
220
0
230
1
 50
90
 73
    2
 44
1
  0
LINE
  5
149
100
AcDbEntity
  8
rozmir
  6
ByBlock
 62
    0
370
   -2
100
AcDbLine
 10
3
 20
26
 11
-22.5
 21
26
  0
LINE
  5
14A
100
AcDbEntity
  8
rozmir
  6
ByBlock
 62
    0
370
   -2
100
AcDbLine
 10
3
 20
41
 11
-22.5
 21
41
  0
ENDBLK
  5
9F
330
9D
100
AcDbEntity
  8
0
100
AcDbBlockEnd
  0
BLOCK
  5
A1
330
A0
100
AcDbEntity
  8
0
100
AcDbBlockBegin
  2
*D10
 70
    1
 10
0
 20
0
  3
*D10
  1

  0
LINE
  5
14B
100
AcDbEntity
  8
rozmir
  6
ByBlock
 62
    0
370
   -2
100
AcDbLine
 10
-30
 20
-112
 11
-30
 21
-144
  0
SOLID
  5
14C
100
AcDbEntity
  8
rozmir
  6
ByBlock
 62
    0
370
   -2
100
AcDbTrace
 10
-30
 20
-112
 30
0
 11
-29.16743068445432
 21
-117
 31
0
 12
-30.83256931554568
 22
-117
 32
0
 13
-30.83256931554568
 23
-117
 33
0
  0
SOLID
  5
14D
100
AcDbEntity
  8
rozmir
  6
ByBlock
 62
    0
370
   -2
100
AcDbTrace
 10
-30
 20
-144
 30
0
 11
-30.83256931554568
 21
-139
 31
0
 12
-29.16743068445432
 22
-139
 32
0
 13
-29.16743068445432
 23
-139
 33
0
  0
MTEXT
  5
14E
100
AcDbEntity
  8
rozmir
  6
CONTINUOUS
 62
    0
370
   -2
100
AcDbMText
 10
-35
 20
-128
 30
0
 40
5
 41
6.111111111111422
 71
    5
 72
    1
  1
32
  7
standard
210
0
220
0
230
1
 50
90
 73
    2
 44
1
  0
LINE
  5
14F
100
AcDbEntity
  8
rozmir
  6
ByBlock
 62
    0
370
   -2
100
AcDbLine
 10
3
 20
-112
 11
-32.5
 21
-112
  0
LINE
  5
150
100
AcDbEntity
  8
rozmir
  6
ByBlock
 62
    0
370
   -2
100
AcDbLine
 10
3
 20
-144
 11
-32.5
 21
-144
  0
ENDBLK
  5
A2
330
A0
100
AcDbEntity
  8
0
100
AcDbBlockEnd
  0
BLOCK
  5
A4
330
A3
100
AcDbEntity
  8
0
100
AcDbBlockBegin
  2
*D22
 70
    1
 10
0
 20
0
  3
*D22
  1

  0
LINE
  5
151
100
AcDbEntity
  8
rozmir
  6
ByBlock
 62
    0
370
   -2
100
AcDbLine
 10
420
 20
24
 11
420
 21
54
  0
SOLID
  5
152
100
AcDbEntity
  8
rozmir
  6
ByBlock
 62
    0
370
   -2
100
AcDbTrace
 10
420
 20
34
 30
0
 11
420.8325693155457
 21
29
 31
0
 12
419.1674306844543
 22
29
 32
0
 13
419.1674306844543
 23
29
 33
0
  0
SOLID
  5
153
100
AcDbEntity
  8
rozmir
  6
ByBlock
 62
    0
370
   -2
100
AcDbTrace
 10
420
 20
44
 30
0
 11
419.1674306844543
 21
49
 31
0
 12
420.8325693155457
 22
49
 32
0
 13
420.8325693155457
 23
49
 33
0
  0
MTEXT
  5
154
100
AcDbEntity
  8
rozmir
  6
CONTINUOUS
 62
    0
370
   -2
100
AcDbMText
 10
415
 20
39
 30
0
 40
5
 41
5
 71
    5
 72
    1
  1
10
  7
standard
210
0
220
0
230
1
 50
90
 73
    2
 44
1
  0
LINE
  5
155
100
AcDbEntity
  8
rozmir
  6
ByBlock
 62
    0
370
   -2
100
AcDbLine
 10
397
 20
34
 11
422.5
 21
34
  0
LINE
  5
156
100
AcDbEntity
  8
rozmir
  6
ByBlock
 62
    0
370
   -2
100
AcDbLine
 10
397
 20
44
 11
422.5
 21
44
  0
ENDBLK
  5
A5
330
A3
100
AcDbEntity
  8
0
100
AcDbBlockEnd
  0
BLOCK
  5
A7
330
A6
100
AcDbEntity
  8
0
100
AcDbBlockBegin
  2
*D21
 70
    1
 10
0
 20
0
  3
*D21
  1

  0
LINE
  5
157
100
AcDbEntity
  8
rozmir
  6
ByBlock
 62
    0
370
   -2
100
AcDbLine
 10
410
 20
24
 11
410
 21
51
  0
SOLID
  5
158
100
AcDbEntity
  8
rozmir
  6
ByBlock
 62
    0
370
   -2
100
AcDbTrace
 10
410
 20
34
 30
0
 11
410.8325693155457
 21
29
 31
0
 12
409.1674306844543
 22
29
 32
0
 13
409.1674306844543
 23
29
 33
0
  0
SOLID
  5
159
100
AcDbEntity
  8
rozmir
  6
ByBlock
 62
    0
370
   -2
100
AcDbTrace
 10
410
 20
41
 30
0
 11
409.1674306844543
 21
46
 31
0
 12
410.8325693155457
 22
46
 32
0
 13
410.8325693155457
 23
46
 33
0
  0
MTEXT
  5
15A
100
AcDbEntity
  8
rozmir
  6
CONTINUOUS
 62
    0
370
   -2
100
AcDbMText
 10
405
 20
37.5
 30
0
 40
5
 41
2.222222222222222
 71
    5
 72
    1
  1
7
  7
standard
210
0
220
0
230
1
 50
90
 73
    2
 44
1
  0
LINE
  5
15B
100
AcDbEntity
  8
rozmir
  6
ByBlock
 62
    0
370
   -2
100
AcDbLine
 10
375
 20
34
 11
412.5
 21
34
  0
LINE
  5
15C
100
AcDbEntity
  8
rozmir
  6
ByBlock
 62
    0
370
   -2
100
AcDbLine
 10
375
 20
41
 11
412.5
 21
41
  0
ENDBLK
  5
A8
330
A6
100
AcDbEntity
  8
0
100
AcDbBlockEnd
  0
BLOCK
  5
AA
330
A9
100
AcDbEntity
  8
0
100
AcDbBlockBegin
  2
*D30
 70
    1
 10
0
 20
0
  3
*D30
  1

  0
LINE
  5
15D
100
AcDbEntity
  8
tekst
  6
CONTINUOUS
 62
    7
370
    0
100
AcDbLine
 10
267
 20
-5
 11
250
 21
20
  0
LINE
  5
15E
100
AcDbEntity
  8
tekst
  6
CONTINUOUS
 62
    7
370
    0
100
AcDbLine
 10
250
 20
20
 11
240
 21
20
  0
SOLID
  5
15F
100
AcDbEntity
  8
tekst
  6
CONTINUOUS
 62
    7
370
    0
100
AcDbTrace
 10
267
 20
-5
 30
0
 11
263.499976261129
 21
-1.333529559299893
 31
0
 12
264.8769235247982
 22
-0.3972054200048225
 32
0
 13
264.8769235247982
 23
-0.3972054200048225
 33
0
  0
ENDBLK
  5
AB
330
A9
100
AcDbEntity
  8
0
100
AcDbBlockEnd
  0
BLOCK
  5
AD
330
AC
100
AcDbEntity
  8
0
100
AcDbBlockBegin
  2
*D19
 70
    1
 10
0
 20
0
  3
*D19
  1

  0
LINE
  5
160
100
AcDbEntity
  8
rozmir
  6
ByBlock
 62
    0
370
   -2
100
AcDbLine
 10
0
 20
-240
 11
150
 21
-240
  0
SOLID
  5
161
100
AcDbEntity
  8
rozmir
  6
ByBlock
 62
    0
370
   -2
100
AcDbTrace
 10
0
 20
-240
 30
0
 11
5
 21
-239.1674306844543
 31
0
 12
5
 22
-240.8325693155457
 32
0
 13
5
 23
-240.8325693155457
 33
0
  0
SOLID
  5
162
100
AcDbEntity
  8
rozmir
  6
ByBlock
 62
    0
370
   -2
100
AcDbTrace
 10
150
 20
-240
 30
0
 11
145
 21
-240.8325693155457
 31
0
 12
145
 22
-239.1674306844543
 32
0
 13
145
 23
-239.1674306844543
 33
0
  0
MTEXT
  5
163
100
AcDbEntity
  8
rozmir
  6
CONTINUOUS
 62
    0
370
   -2
100
AcDbMText
 10
75
 20
-235
 30
0
 40
5
 41
8.888888888889198
 71
    5
 72
    1
  1
150
  7
standard
210
0
220
0
230
1
 50
0
 73
    2
 44
1
  0
LINE
  5
164
100
AcDbEntity
  8
rozmir
  6
ByBlock
 62
    0
370
   -2
100
AcDbLine
 10
-1.83697019872103e-16
 20
-205
 11
-4.592425496802574e-16
 21
-242.5
  0
LINE
  5
165
100
AcDbEntity
  8
rozmir
  6
ByBlock
 62
    0
370
   -2
100
AcDbLine
 10
150
 20
-177
 11
150
 21
-242.5
  0
ENDBLK
  5
AE
330
AC
100
AcDbEntity
  8
0
100
AcDbBlockEnd
  0
BLOCK
  5
B0
330
AF
100
AcDbEntity
  8
0
100
AcDbBlockBegin
  2
*D37
 70
    1
 10
0
 20
0
  3
*D37
  1

  0
LINE
  5
166
100
AcDbEntity
  8
rozmir
  6
ByBlock
 62
    0
370
   -2
100
AcDbLine
 10
-20
 20
-102
 11
-20
 21
-127
  0
SOLID
  5
167
100
AcDbEntity
  8
rozmir
  6
ByBlock
 62
    0
370
   -2
100
AcDbTrace
 10
-20
 20
-112
 30
0
 11
-20.83256931554568
 21
-107
 31
0
 12
-19.16743068445432
 22
-107
 32
0
 13
-19.16743068445432
 23
-107
 33
0
  0
SOLID
  5
168
100
AcDbEntity
  8
rozmir
  6
ByBlock
 62
    0
370
   -2
100
AcDbTrace
 10
-20
 20
-117
 30
0
 11
-19.16743068445432
 21
-122
 31
0
 12
-20.83256931554568
 22
-122
 32
0
 13
-20.83256931554568
 23
-122
 33
0
  0
MTEXT
  5
169
100
AcDbEntity
  8
rozmir
  6
CONTINUOUS
 62
    0
370
   -2
100
AcDbMText
 10
-25
 20
-114.5
 30
0
 40
5
 41
2.222222222222532
 71
    5
 72
    1
  1
5
  7
standard
210
0
220
0
230
1
 50
90
 73
    2
 44
1
  0
LINE
  5
16A
100
AcDbEntity
  8
rozmir
  6
ByBlock
 62
    0
370
   -2
100
AcDbLine
 10
-11
 20
-112
 11
-22.5
 21
-112
  0
LINE
  5
16B
100
AcDbEntity
  8
rozmir
  6
ByBlock
 62
    0
370
   -2
100
AcDbLine
 10
-12
 20
-117
 11
-22.5
 21
-117
  0
ENDBLK
  5
B1
330
AF
100
AcDbEntity
  8
0
100
AcDbBlockEnd
  0
BLOCK
  5
B3
330
B2
100
AcDbEntity
  8
0
100
AcDbBlockBegin
  2
*D32
 70
    1
 10
0
 20
0
  3
*D32
  1

  0
LINE
  5
16C
100
AcDbEntity
  8
tekst
  6
CONTINUOUS
 62
    7
370
    0
100
AcDbLine
 10
285
 20
2
 11
250
 21
40
  0
LINE
  5
16D
100
AcDbEntity
  8
tekst
  6
CONTINUOUS
 62
    7
370
    0
100
AcDbLine
 10
250
 20
40
 11
240
 21
40
  0
SOLID
  5
16E
100
AcDbEntity
  8
tekst
  6
CONTINUOUS
 62
    7
370
    0
100
AcDbTrace
 10
285
 20
2
 30
0
 11
281.0002289414858
 21
5.113680000362943
 31
0
 12
282.2250135109963
 22
6.241771051227926
 32
0
 13
282.2250135109963
 23
6.241771051227926
 33
0
  0
ENDBLK
  5
B4
330
B2
100
AcDbEntity
  8
0
100
AcDbBlockEnd
  0
BLOCK
  5
B6
330
B5
100
AcDbEntity
  8
0
100
AcDbBlockBegin
  2
*D18
 70
    1
 10
0
 20
0
  3
*D18
  1

  0
LINE
  5
16F
100
AcDbEntity
  8
rozmir
  6
ByBlock
 62
    0
370
   -2
100
AcDbLine
 10
0
 20
-230
 11
122
 21
-230
  0
SOLID
  5
170
100
AcDbEntity
  8
rozmir
  6
ByBlock
 62
    0
370
   -2
100
AcDbTrace
 10
0
 20
-230
 30
0
 11
5
 21
-229.1674306844543
 31
0
 12
5
 22
-230.8325693155457
 32
0
 13
5
 23
-230.8325693155457
 33
0
  0
SOLID
  5
171
100
AcDbEntity
  8
rozmir
  6
ByBlock
 62
    0
370
   -2
100
AcDbTrace
 10
122
 20
-230
 30
0
 11
117
 21
-230.8325693155457
 31
0
 12
117
 22
-229.1674306844543
 32
0
 13
117
 23
-229.1674306844543
 33
0
  0
MTEXT
  5
172
100
AcDbEntity
  8
rozmir
  6
CONTINUOUS
 62
    0
370
   -2
100
AcDbMText
 10
61
 20
-225
 30
0
 40
5
 41
8.888888888888889
 71
    5
 72
    1
  1
122
  7
standard
210
0
220
0
230
1
 50
0
 73
    2
 44
1
  0
LINE
  5
173
100
AcDbEntity
  8
rozmir
  6
ByBlock
 62
    0
370
   -2
100
AcDbLine
 10
-1.83697019872103e-16
 20
-205
 11
-4.592425496802574e-16
 21
-232.5
  0
LINE
  5
174
100
AcDbEntity
  8
rozmir
  6
ByBlock
 62
    0
370
   -2
100
AcDbLine
 10
122
 20
-149
 11
122
 21
-232.5
  0
ENDBLK
  5
B7
330
B5
100
AcDbEntity
  8
0
100
AcDbBlockEnd
  0
BLOCK
  5
B9
330
B8
100
AcDbEntity
  8
0
100
AcDbBlockBegin
  2
*D35
 70
    1
 10
0
 20
0
  3
*D35
  1

  0
LINE
  5
175
100
AcDbEntity
  8
tekst
  6
CONTINUOUS
 62
    7
370
    0
100
AcDbLine
 10
176
 20
-105
 11
190
 21
-80
  0
LINE
  5
176
100
AcDbEntity
  8
tekst
  6
CONTINUOUS
 62
    7
370
    0
100
AcDbLine
 10
190
 20
-80
 11
200
 21
-80
  0
SOLID
  5
177
100
AcDbEntity
  8
tekst
  6
CONTINUOUS
 62
    7
370
    0
100
AcDbTrace
 10
176
 20
-105
 30
0
 11
177.7165951081505
 21
-100.2306737478065
 31
0
 12
179.169438581168
 22
-101.0442660926963
 32
0
 13
179.169438581168
 23
-101.0442660926963
 33
0
  0
ENDBLK
  5
BA
330
B8
100
AcDbEntity
  8
0
100
AcDbBlockEnd
  0
BLOCK
  5
BC
330
BB
100
AcDbEntity
  8
0
100
AcDbBlockBegin
  2
*D23
 70
    1
 10
0
 20
0
  3
*D23
  1

  0
LINE
  5
178
100
AcDbEntity
  8
rozmir
  6
ByBlock
 62
    0
370
   -2
100
AcDbLine
 10
210
 20
-112
 11
210
 21
-148
  0
SOLID
  5
179
100
AcDbEntity
  8
rozmir
  6
ByBlock
 62
    0
370
   -2
100
AcDbTrace
 10
210
 20
-112
 30
0
 11
210.8325693155457
 21
-117
 31
0
 12
209.1674306844543
 22
-117
 32
0
 13
209.1674306844543
 23
-117
 33
0
  0
SOLID
  5
17A
100
AcDbEntity
  8
rozmir
  6
ByBlock
 62
    0
370
   -2
100
AcDbTrace
 10
210
 20
-148
 30
0
 11
209.1674306844543
 21
-143
 31
0
 12
210.8325693155457
 22
-143
 32
0
 13
210.8325693155457
 23
-143
 33
0
  0
MTEXT
  5
17B
100
AcDbEntity
  8
rozmir
  6
CONTINUOUS
 62
    0
370
   -2
100
AcDbMText
 10
205
 20
-130
 30
0
 40
5
 41
6.111111111111732
 71
    5
 72
    1
  1
36
  7
standard
210
0
220
0
230
1
 50
90
 73
    2
 44
1
  0
LINE
  5
17C
100
AcDbEntity
  8
rozmir
  6
ByBlock
 62
    0
370
   -2
100
AcDbLine
 10
189
 20
-112
 11
212.5
 21
-112
  0
LINE
  5
17D
100
AcDbEntity
  8
rozmir
  6
ByBlock
 62
    0
370
   -2
100
AcDbLine
 10
123
 20
-148
 11
212.5
 21
-148
  0
ENDBLK
  5
BD
330
BB
100
AcDbEntity
  8
0
100
AcDbBlockEnd
  0
BLOCK
  5
BF
330
BE
100
AcDbEntity
  8
0
100
AcDbBlockBegin
  2
*D1
 70
    1
 10
0
 20
0
  3
*D1
  1

  0
LINE
  5
17E
100
AcDbEntity
  8
rozmir
  6
ByBlock
 62
    0
370
   -2
100
AcDbLine
 10
210
 20
-18
 11
210
 21
10
  0
SOLID
  5
17F
100
AcDbEntity
  8
rozmir
  6
ByBlock
 62
    0
370
   -2
100
AcDbTrace
 10
210
 20
-8
 30
0
 11
210.8325693155457
 21
-13
 31
0
 12
209.1674306844543
 22
-13
 32
0
 13
209.1674306844543
 23
-13
 33
0
  0
SOLID
  5
180
100
AcDbEntity
  8
rozmir
  6
ByBlock
 62
    0
370
   -2
100
AcDbTrace
 10
210
 20
0
 30
0
 11
209.1674306844543
 21
5
 31
0
 12
210.8325693155457
 22
5
 32
0
 13
210.8325693155457
 23
5
 33
0
  0
MTEXT
  5
181
100
AcDbEntity
  8
rozmir
  6
CONTINUOUS
 62
    0
370
   -2
100
AcDbMText
 10
205
 20
-4
 30
0
 40
5
 41
2.222222222222222
 71
    5
 72
    1
  1
8
  7
standard
210
0
220
0
230
1
 50
90
 73
    2
 44
1
  0
LINE
  5
182
100
AcDbEntity
  8
rozmir
  6
ByBlock
 62
    0
370
   -2
100
AcDbLine
 10
189
 20
-8
 11
212.5
 21
-8
  0
LINE
  5
183
100
AcDbEntity
  8
rozmir
  6
ByBlock
 62
    0
370
   -2
100
AcDbLine
 10
189
 20
0
 11
212.5
 21
0
  0
ENDBLK
  5
C0
330
BE
100
AcDbEntity
  8
0
100
AcDbBlockEnd
  0
BLOCK
  5
C2
330
C1
100
AcDbEntity
  8
0
100
AcDbBlockBegin
  2
*D17
 70
    1
 10
0
 20
0
  3
*D17
  1

  0
LINE
  5
184
100
AcDbEntity
  8
rozmir
  6
ByBlock
 62
    0
370
   -2
100
AcDbLine
 10
4
 20
-60
 11
174
 21
-60
  0
SOLID
  5
185
100
AcDbEntity
  8
rozmir
  6
ByBlock
 62
    0
370
   -2
100
AcDbTrace
 10
4
 20
-60
 30
0
 11
9
 21
-59.16743068445432
 31
0
 12
9
 22
-60.83256931554568
 32
0
 13
9
 23
-60.83256931554568
 33
0
  0
SOLID
  5
186
100
AcDbEntity
  8
rozmir
  6
ByBlock
 62
    0
370
   -2
100
AcDbTrace
 10
174
 20
-60
 30
0
 11
169
 21
-60.83256931554568
 31
0
 12
169
 22
-59.16743068445432
 32
0
 13
169
 23
-59.16743068445432
 33
0
  0
MTEXT
  5
187
100
AcDbEntity
  8
rozmir
  6
CONTINUOUS
 62
    0
370
   -2
100
AcDbMText
 10
89
 20
-55
 30
0
 40
5
 41
8.888888888888889
 71
    5
 72
    1
  1
170
  7
standard
210
0
220
0
230
1
 50
0
 73
    2
 44
1
  0
LINE
  5
188
100
AcDbEntity
  8
rozmir
  6
ByBlock
 62
    0
370
   -2
100
AcDbLine
 10
4
 20
-111
 11
4
 21
-57.5
  0
LINE
  5
189
100
AcDbEntity
  8
rozmir
  6
ByBlock
 62
    0
370
   -2
100
AcDbLine
 10
174
 20
-111
 11
174
 21
-57.5
  0
ENDBLK
  5
C3
330
C1
100
AcDbEntity
  8
0
100
AcDbBlockEnd
  0
BLOCK
  5
C5
330
C4
100
AcDbEntity
  8
0
100
AcDbBlockBegin
  2
*D12
 70
    1
 10
0
 20
0
  3
*D12
  1

  0
LINE
  5
18A
100
AcDbEntity
  8
rozmir
  6
ByBlock
 62
    0
370
   -2
100
AcDbLine
 10
-30
 20
-172
 11
-30
 21
-200
  0
SOLID
  5
18B
100
AcDbEntity
  8
rozmir
  6
ByBlock
 62
    0
370
   -2
100
AcDbTrace
 10
-30
 20
-172
 30
0
 11
-29.16743068445432
 21
-177
 31
0
 12
-30.83256931554568
 22
-177
 32
0
 13
-30.83256931554568
 23
-177
 33
0
  0
SOLID
  5
18C
100
AcDbEntity
  8
rozmir
  6
ByBlock
 62
    0
370
   -2
100
AcDbTrace
 10
-30
 20
-200
 30
0
 11
-30.83256931554568
 21
-195
 31
0
 12
-29.16743068445432
 22
-195
 32
0
 13
-29.16743068445432
 23
-195
 33
0
  0
MTEXT
  5
18D
100
AcDbEntity
  8
rozmir
  6
CONTINUOUS
 62
    0
370
   -2
100
AcDbMText
 10
-35
 20
-186
 30
0
 40
5
 41
6.111111111111112
 71
    5
 72
    1
  1
28
  7
standard
210
0
220
0
230
1
 50
90
 73
    2
 44
1
  0
LINE
  5
18E
100
AcDbEntity
  8
rozmir
  6
ByBlock
 62
    0
370
   -2
100
AcDbLine
 10
3
 20
-172
 11
-32.5
 21
-172
  0
LINE
  5
18F
100
AcDbEntity
  8
rozmir
  6
ByBlock
 62
    0
370
   -2
100
AcDbLine
 10
3
 20
-200
 11
-32.5
 21
-200
  0
ENDBLK
  5
C6
330
C4
100
AcDbEntity
  8
0
100
AcDbBlockEnd
  0
BLOCK
  5
C8
330
C7
100
AcDbEntity
  8
0
100
AcDbBlockBegin
  2
*D14
 70
    1
 10
0
 20
0
  3
*D14
  1

  0
LINE
  5
190
100
AcDbEntity
  8
rozmir
  6
ByBlock
 62
    0
370
   -2
100
AcDbLine
 10
97
 20
-90
 11
128
 21
-90
  0
SOLID
  5
191
100
AcDbEntity
  8
rozmir
  6
ByBlock
 62
    0
370
   -2
100
AcDbTrace
 10
107
 20
-90
 30
0
 11
102
 21
-90.83256931554568
 31
0
 12
102
 22
-89.16743068445432
 32
0
 13
102
 23
-89.16743068445432
 33
0
  0
SOLID
  5
192
100
AcDbEntity
  8
rozmir
  6
ByBlock
 62
    0
370
   -2
100
AcDbTrace
 10
118
 20
-90
 30
0
 11
123
 21
-89.16743068445432
 31
0
 12
123
 22
-90.83256931554568
 32
0
 13
123
 23
-90.83256931554568
 33
0
  0
MTEXT
  5
193
100
AcDbEntity
  8
rozmir
  6
CONTINUOUS
 62
    0
370
   -2
100
AcDbMText
 10
112.5
 20
-85
 30
0
 40
5
 41
3.888888888888889
 71
    5
 72
    1
  1
11
  7
standard
210
0
220
0
230
1
 50
0
 73
    2
 44
1
  0
LINE
  5
194
100
AcDbEntity
  8
rozmir
  6
ByBlock
 62
    0
370
   -2
100
AcDbLine
 10
107
 20
-111
 11
107
 21
-87.5
  0
LINE
  5
195
100
AcDbEntity
  8
rozmir
  6
ByBlock
 62
    0
370
   -2
100
AcDbLine
 10
118
 20
-111
 11
118
 21
-87.5
  0
ENDBLK
  5
C9
330
C7
100
AcDbEntity
  8
0
100
AcDbBlockEnd
  0
BLOCK
  5
CB
330
CA
100
AcDbEntity
  8
0
100
AcDbBlockBegin
  2
block10
 70
    0
 10
0
 20
0
  3
block10
  1

  0
LWPOLYLINE
  5
196
100
AcDbEntity
  8
0
  6
CONTINUOUS
 62
    7
370
   70
100
AcDbPolyline
 90
   12
 70
    1
 43
0
 10
-0.6062178
 20
1
 10
0
 20
0
 10
0.6062178
 20
1
 10
1.8186533
 20
1
 10
1.2124356
 20
2
 10
1.8186533
 20
3
 10
0.6062178
 20
3
 10
0
 20
4
 10
-0.6062178
 20
3
 10
-1.8186533
 20
3
 10
-1.2124356
 20
2
 10
-1.8186533
 20
1
  0
ENDBLK
  5
CC
330
CA
100
AcDbEntity
  8
0
100
AcDbBlockEnd
  0
ENDSEC
  0
SECTION
  2
ENTITIES
  0
HATCH
  5
197
100
AcDbEntity
  8
plytka3
  6
ByLayer
 62
  256
370
   -1
100
AcDbHatch
 10
0
 20
0
 30
0
210
0
220
0
230
1
  2
gost_stone
 70
    0
 71
    0
 91
    1
 92
    0
 93
    4
 72
    1
 10
285
 20
-1.77635683940025e-15
 11
285
 21
-3.000000000000002
 72
    1
 10
285
 20
-3.000000000000002
 11
250
 21
-2.999999999999999
 72
    1
 10
250
 20
-2.999999999999999
 11
250
 21
0
 72
    1
 10
250
 20
0
 11
285
 21
-1.77635683940025e-15
 97
    0
 75
    0
 76
    1
 52
0
 41
1
 77
    0
 78
    0
 98
    0
  0
HATCH
  5
198
100
AcDbEntity
  8
plytka3
  6
ByLayer
 62
  256
370
   -1
100
AcDbHatch
 10
0
 20
0
 30
0
210
0
220
0
230
1
  2
gost_stone
 70
    0
 71
    0
 91
    1
 92
    0
 93
    4
 72
    1
 10
285
 20
12
 11
285
 21
-1.77635683940025e-15
 72
    1
 10
285
 20
-1.77635683940025e-15
 11
282
 21
-1.77635683940025e-15
 72
    1
 10
282
 20
-1.77635683940025e-15
 11
282
 21
12
 72
    1
 10
282
 20
12
 11
285
 21
12
 97
    0
 75
    0
 76
    1
 52
0
 41
1
 77
    0
 78
    0
 98
    0
  0
HATCH
  5
199
100
AcDbEntity
  8
plytka3
  6
ByLayer
 62
  256
370
   -1
100
AcDbHatch
 10
0
 20
0
 30
0
210
0
220
0
230
1
  2
gost_stone
 70
    0
 71
    0
 91
    1
 92
    0
 93
    4
 72
    1
 10
312
 20
14.99999999999999
 11
312
 21
11.99999999999999
 72
    1
 10
312
 20
11.99999999999999
 11
282
 21
12
 72
    1
 10
282
 20
12
 11
282
 21
15
 72
    1
 10
282
 20
15
 11
312
 21
14.99999999999999
 97
    0
 75
    0
 76
    1
 52
0
 41
1
 77
    0
 78
    0
 98
    0
  0
HATCH
  5
19A
100
AcDbEntity
  8
plytka3
  6
ByLayer
 62
  256
370
   -1
100
AcDbHatch
 10
0
 20
0
 30
0
210
0
220
0
230
1
  2
gost_stone
 70
    0
 71
    0
 91
    1
 92
    0
 93
    4
 72
    1
 10
313
 20
27
 11
313
 21
14.99999999999999
 72
    1
 10
313
 20
14.99999999999999
 11
310
 21
14.99999999999999
 72
    1
 10
310
 20
14.99999999999999
 11
310
 21
27
 72
    1
 10
310
 20
27
 11
313
 21
27
 97
    0
 75
    0
 76
    1
 52
0
 41
1
 77
    0
 78
    0
 98
    0
  0
HATCH
  5
19B
100
AcDbEntity
  8
plytka3
  6
ByLayer
 62
  256
370
   -1
100
AcDbHatch
 10
0
 20
0
 30
0
210
0
220
0
230
1
  2
gost_stone
 70
    0
 71
    0
 91
    1
 92
    0
 93
    4
 72
    1
 10
340
 20
30
 11
340
 21
27
 72
    1
 10
340
 20
27
 11
310
 21
27
 72
    1
 10
310
 20
27
 11
310
 21
30
 72
    1
 10
310
 20
30
 11
340
 21
30
 97
    0
 75
    0
 76
    1
 52
0
 41
1
 77
    0
 78
    0
 98
    0
  0
HATCH
  5
19C
100
AcDbEntity
  8
plytka3
  6
ByLayer
 62
  256
370
   -1
100
AcDbHatch
 10
0
 20
0
 30
0
210
0
220
0
230
1
  2
gost_stone
 70
    0
 71
    0
 91
    1
 92
    0
 93
    4
 72
    1
 10
341
 20
42
 11
341
 21
30
 72
    1
 10
341
 20
30
 11
338
 21
30
 72
    1
 10
338
 20
30
 11
338
 21
42
 72
    1
 10
338
 20
42
 11
341
 21
42
 97
    0
 75
    0
 76
    1
 52
0
 41
1
 77
    0
 78
    0
 98
    0
  0
HATCH
  5
19D
100
AcDbEntity
  8
plytka3
  6
ByLayer
 62
  256
370
   -1
100
AcDbHatch
 10
0
 20
0
 30
0
210
0
220
0
230
1
  2
gost_stone
 70
    0
 71
    0
 91
    1
 92
    0
 93
    4
 72
    1
 10
386
 20
42
 11
386
 21
45
 72
    1
 10
386
 20
45
 11
338
 21
45
 72
    1
 10
338
 20
45
 11
338
 21
42
 72
    1
 10
338
 20
42
 11
386
 21
42
 97
    0
 75
    0
 76
    1
 52
0
 41
1
 77
    0
 78
    0
 98
    0
  0
HATCH
  5
19E
100
AcDbEntity
  8
tekst
  6
DASHED2
 62
  256
370
   -1
100
AcDbHatch
 10
0
 20
0
 30
0
210
0
220
0
230
1
  2
gost_concrete
 70
    0
 71
    0
 91
    1
 92
    0
 93
   16
 72
    1
 10
252
 20
-12
 11
248
 21
-14
 72
    1
 10
248
 20
-14
 11
250
 21
-15
 72
    1
 10
250
 20
-15
 11
250
 21
-18
 72
    1
 10
250
 20
-18
 11
280
 21
-18
 72
    1
 10
280
 20
-18
 11
281
 21
-16
 72
    1
 10
281
 20
-16
 11
283
 21
-20
 72
    1
 10
283
 20
-20
 11
284
 21
-18
 72
    1
 10
284
 20
-18
 11
337
 21
-18
 72
    1
 10
337
 20
-18
 11
338
 21
-16
 72
    1
 10
338
 20
-16
 11
340
 21
-20
 72
    1
 10
340
 20
-20
 11
341
 21
-18
 72
    1
 10
341
 20
-18
 11
374
 21
-18
 72
    1
 10
374
 20
-18
 11
374
 21
-8
 72
    1
 10
374
 20
-8
 11
250
 21
-7.999999999999999
 72
    1
 10
250
 20
-7.999999999999999
 11
250
 21
-11
 72
    1
 10
250
 20
-11
 11
252
 21
-12
 97
    0
 75
    0
 76
    1
 52
0
 41
2
 77
    0
 78
    0
 98
    0
  0
HATCH
  5
19F
100
AcDbEntity
  8
tekst
  6
DASHED2
 62
  256
370
   -1
100
AcDbHatch
 10
0
 20
0
 30
0
210
0
220
0
230
1
  2
gost_concrete
 70
    0
 71
    0
 91
    1
 92
    0
 93
   12
 72
    1
 10
383
 20
-18
 11
384
 21
-16
 72
    1
 10
384
 20
-16
 11
386
 21
-20
 72
    1
 10
386
 20
-20
 11
387
 21
-18
 72
    1
 10
387
 20
-18
 11
396
 21
-18
 72
    1
 10
396
 20
-18
 11
396
 21
8
 72
    1
 10
396
 20
8
 11
394
 21
9
 72
    1
 10
394
 20
9
 11
398
 21
11
 72
    1
 10
398
 20
11
 11
396
 21
12
 72
    1
 10
396
 20
12
 11
396
 21
34
 72
    1
 10
396
 20
34
 11
374
 21
34
 72
    1
 10
374
 20
34
 11
374
 21
-18
 72
    1
 10
374
 20
-18
 11
383
 21
-18
 97
    0
 75
    0
 76
    1
 52
1.570796326794897
 41
2
 77
    0
 78
    0
 98
    0
  0
HATCH
  5
1A0
100
AcDbEntity
  8
skhody
  6
DASHED2
 62
  256
370
   -1
100
AcDbHatch
 10
0
 20
0
 30
0
210
0
220
0
230
1
  2
gost_concrete
 70
    0
 71
    0
 91
    1
 92
    0
 93
   10
 72
    1
 10
386
 20
41
 11
386
 21
44
 72
    1
 10
386
 20
44
 11
396
 21
44
 72
    1
 10
396
 20
44
 11
396
 21
41
 72
    1
 10
396
 20
41
 11
394
 21
40
 72
    1
 10
394
 20
40
 11
398
 21
38
 72
    1
 10
398
 20
38
 11
396
 21
37
 72
    1
 10
396
 20
37
 11
396
 21
34
 72
    1
 10
396
 20
34
 11
374
 21
34
 72
    1
 10
374
 20
34
 11
374
 21
41
 72
    1
 10
374
 20
41
 11
386
 21
41
 97
    0
 75
    0
 76
    1
 52
0
 41
1
 77
    0
 78
    0
 98
    0
  0
HATCH
  5
1A1
100
AcDbEntity
  8
skhody
  6
DASHED2
 62
  256
370
   -1
100
AcDbHatch
 10
0
 20
0
 30
0
210
0
220
0
230
1
  2
gost_concrete
 70
    0
 71
    0
 91
    1
 92
    0
 93
    8
 72
    1
 10
314
 20
10.99999999999999
 11
314
 21
26
 72
    1
 10
314
 20
26
 11
342
 21
26
 72
    1
 10
342
 20
26
 11
342
 21
41
 72
    1
 10
342
 20
41
 11
374
 21
41
 72
    1
 10
374
 20
41
 11
374
 21
-8
 72
    1
 10
374
 20
-8
 11
286
 21
-8.000000000000002
 72
    1
 10
286
 20
-8.000000000000002
 11
286
 21
11
 72
    1
 10
286
 20
11
 11
314
 21
10.99999999999999
 97
    0
 75
    0
 76
    1
 52
1.570796326794897
 41
1
 77
    0
 78
    0
 98
    0
  0
HATCH
  5
1A2
100
AcDbEntity
  8
fundament
  6
ByLayer
 62
  256
370
   -1
100
AcDbHatch
 10
0
 20
0
 30
0
210
0
220
0
230
1
  2
gost_concrete
 70
    0
 71
    0
 91
    1
 92
    0
 93
   20
 72
    1
 10
-10
 20
-8
 11
-10
 21
-11
 72
    1
 10
-10
 20
-11
 11
-8
 21
-12
 72
    1
 10
-8
 20
-12
 11
-12
 21
-14
 72
    1
 10
-12
 20
-14
 11
-10
 21
-15
 72
    1
 10
-10
 20
-15
 11
-10
 21
-18
 72
    1
 10
-10
 20
-18
 11
38
 21
-18
 72
    1
 10
38
 20
-18
 11
39
 21
-16
 72
    1
 10
39
 20
-16
 11
41
 21
-20
 72
    1
 10
41
 20
-20
 11
42
 21
-18
 72
    1
 10
42
 20
-18
 11
140
 21
-18
 72
    1
 10
140
 20
-18
 11
141
 21
-16
 72
    1
 10
141
 20
-16
 11
143
 21
-20
 72
    1
 10
143
 20
-20
 11
144
 21
-18
 72
    1
 10
144
 20
-18
 11
188
 21
-18
 72
    1
 10
188
 20
-18
 11
188
 21
-16
 72
    1
 10
188
 20
-16
 11
190
 21
-15
 72
    1
 10
190
 20
-15
 11
186
 21
-13
 72
    1
 10
186
 20
-13
 11
188
 21
-12
 72
    1
 10
188
 20
-12
 11
188
 21
-8
 72
    1
 10
188
 20
-8
 11
-10
 21
-8
 97
    0
 75
    0
 76
    1
 52
0
 41
2
 77
    0
 78
    0
 98
    0
  0
HATCH
  5
1A3
100
AcDbEntity
  8
lyce
  6
ByLayer
 62
  256
370
   -1
100
AcDbHatch
 10
0
 20
0
 30
0
210
0
220
0
230
1
  2
gost_ceramics
 70
    0
 71
    0
 91
    1
 92
    0
 93
    8
 72
    1
 10
188
 20
-104
 11
188
 21
-100
 72
    1
 10
188
 20
-100
 11
107
 21
-100
 72
    1
 10
107
 20
-100
 11
107
 21
-112
 72
    1
 10
107
 20
-112
 11
188
 21
-112
 72
    1
 10
188
 20
-112
 11
188
 21
-108
 72
    1
 10
188
 20
-108
 11
190
 21
-107
 72
    1
 10
190
 20
-107
 11
186
 21
-105
 72
    1
 10
186
 20
-105
 11
188
 21
-104
 97
    0
 75
    0
 76
    1
 52
3.141592653589793
 41
1
 77
    0
 78
    0
 98
    0
  0
HATCH
  5
1A4
100
AcDbEntity
  8
sterodur
  6
ByLayer
 62
  256
370
   -1
100
AcDbHatch
 10
0
 20
0
 30
0
210
0
220
0
230
1
  2
gost_non-metal
 70
    0
 71
    0
 91
    1
 92
    0
 93
    8
 72
    1
 10
122
 20
-117
 11
189
 21
-117
 72
    1
 10
189
 20
-117
 11
188
 21
-116
 72
    1
 10
188
 20
-116
 11
189
 21
-115
 72
    1
 10
189
 20
-115
 11
188
 21
-114
 72
    1
 10
188
 20
-114
 11
189
 21
-113
 72
    1
 10
189
 20
-113
 11
188
 21
-112
 72
    1
 10
188
 20
-112
 11
122
 21
-112
 72
    1
 10
122
 20
-112
 11
122
 21
-117
 97
    0
 75
    0
 76
    1
 52
3.141592653589793
 41
2
 77
    0
 78
    0
 98
    0
  0
HATCH
  5
1A5
100
AcDbEntity
  8
sterodur
  6
ByLayer
 62
  256
370
   -1
100
AcDbHatch
 10
0
 20
0
 30
0
210
0
220
0
230
1
  2
gost_non-metal
 70
    0
 71
    0
 91
    1
 92
    0
 93
    8
 72
    1
 10
-10
 20
-112
 11
0
 21
-112
 72
    1
 10
0
 20
-112
 11
0
 21
-117
 72
    1
 10
0
 20
-117
 11
-11
 21
-117
 72
    1
 10
-11
 20
-117
 11
-10
 21
-116
 72
    1
 10
-10
 20
-116
 11
-11
 21
-115
 72
    1
 10
-11
 20
-115
 11
-10
 21
-114
 72
    1
 10
-10
 20
-114
 11
-11
 21
-113
 72
    1
 10
-11
 20
-113
 11
-10
 21
-112
 97
    0
 75
    0
 76
    1
 52
0
 41
2
 77
    0
 78
    0
 98
    0
  0
HATCH
  5
1A6
100
AcDbEntity
  8
lyce
  6
ByLayer
 62
  256
370
   -1
100
AcDbHatch
 10
0
 20
0
 30
0
210
0
220
0
230
1
  2
gost_ceramics
 70
    0
 71
    0
 91
    1
 92
    0
 93
    8
 72
    1
 10
-10
 20
-100
 11
15
 21
-100
 72
    1
 10
15
 20
-100
 11
15
 21
-112
 72
    1
 10
15
 20
-112
 11
-10
 21
-112
 72
    1
 10
-10
 20
-112
 11
-10
 21
-108
 72
    1
 10
-10
 20
-108
 11
-12
 21
-107
 72
    1
 10
-12
 20
-107
 11
-8
 21
-105
 72
    1
 10
-8
 20
-105
 11
-10
 21
-104
 72
    1
 10
-10
 20
-104
 11
-10
 21
-100
 97
    0
 75
    0
 76
    1
 52
0
 41
1
 77
    0
 78
    0
 98
    0
  0
HATCH
  5
1A7
100
AcDbEntity
  8
pisok
  6
ByLayer
 62
  256
370
   -1
100
AcDbHatch
 10
0
 20
0
 30
0
210
0
220
0
230
1
  2
gost_sand
 70
    0
 71
    0
 91
    1
 92
    0
 93
   12
 72
    1
 10
-10
 20
-3
 11
187
 21
-3
 72
    1
 10
187
 20
-3
 11
188
 21
-4
 72
    1
 10
188
 20
-4
 11
187
 21
-5
 72
    1
 10
187
 20
-5
 11
188
 21
-6
 72
    1
 10
188
 20
-6
 11
187
 21
-7
 72
    1
 10
187
 20
-7
 11
188
 21
-8
 72
    1
 10
188
 20
-8
 11
-9
 21
-8
 72
    1
 10
-9
 20
-8
 11
-10
 21
-7
 72
    1
 10
-10
 20
-7
 11
-9
 21
-6
 72
    1
 10
-9
 20
-6
 11
-10
 21
-5
 72
    1
 10
-10
 20
-5
 11
-9
 21
-4
 72
    1
 10
-9
 20
-4
 11
-10
 21
-3
 97
    0
 75
    0
 76
    1
 52
0
 41
1
 77
    0
 78
    0
 98
    0
  0
HATCH
  5
1A8
100
AcDbEntity
  8
plytka3
  6
ByLayer
 62
  256
370
   -1
100
AcDbHatch
 10
0
 20
0
 30
0
210
0
220
0
230
1
  2
gost_stone
 70
    0
 71
    0
 91
    1
 92
    0
 93
    9
 72
    1
 10
-9
 20
0
 11
188
 21
0
 72
    1
 10
188
 20
0
 11
187
 21
-1
 72
    1
 10
187
 20
-1
 11
188
 21
-2
 72
    1
 10
188
 20
-2
 11
187
 21
-3
 72
    1
 10
187
 20
-3
 11
-10
 21
-3
 72
    1
 10
-10
 20
-3
 11
-9
 21
-2
 72
    1
 10
-9
 20
-2
 11
-10
 21
-1
 72
    1
 10
-10
 20
-1
 11
-9
 21
0
 72
    1
 10
-9
 20
0
 11
-9
 21
0
 97
    0
 75
    0
 76
    1
 52
0
 41
1
 77
    0
 78
    0
 98
    0
  0
LWPOLYLINE
  5
1A9
100
AcDbEntity
  8
plytka3
  6
ByLayer
 62
  256
370
   -1
100
AcDbPolyline
 90
    9
 70
    0
 43
0
 10
0
 20
-148
 10
0
 20
-112
 10
15
 20
-112
 10
15
 20
-100
 10
107
 20
-100
 10
107
 20
-112
 10
122
 20
-112
 10
122
 20
-148
 10
0
 20
-148
  0
LWPOLYLINE
  5
1AA
100
AcDbEntity
  8
plytka3
  6
CONTINUOUS
 62
  256
370
   25
100
AcDbPolyline
 90
    5
 70
    0
 43
0
 10
122
 20
-117
 10
150
 20
-117
 10
150
 20
-176
 10
0
 20
-176
 10
0
 20
-148
  0
LWPOLYLINE
  5
1AB
100
AcDbEntity
  8
plytka3
  6
CONTINUOUS
 62
  256
370
   25
100
AcDbPolyline
 90
    5
 70
    0
 43
0
 10
150
 20
-117
 10
178
 20
-117
 10
178
 20
-204
 10
0
 20
-204
 10
0
 20
-176
  0
LWPOLYLINE
  5
1AC
100
AcDbEntity
  8
plytka3
  6
ByLayer
 62
  256
370
   -1
100
AcDbPolyline
 90
    9
 70
    1
 43
0
 10
-9
 20
0
 10
188
 20
0
 10
187
 20
-1
 10
188
 20
-2
 10
187
 20
-3
 10
-10
 20
-3
 10
-9
 20
-2
 10
-10
 20
-1
 10
-9
 20
0
  0
LWPOLYLINE
  5
1AD
100
AcDbEntity
  8
pisok
  6
ByLayer
 62
  256
370
   -1
100
AcDbPolyline
 90
   13
 70
    0
 43
0
 10
-10
 20
-3
 10
187
 20
-3
 10
188
 20
-4
 10
187
 20
-5
 10
188
 20
-6
 10
187
 20
-7
 10
188
 20
-8
 10
-9
 20
-8
 10
-10
 20
-7
 10
-9
 20
-6
 10
-10
 20
-5
 10
-9
 20
-4
 10
-10
 20
-3
  0
LWPOLYLINE
  5
1AE
100
AcDbEntity
  8
plytka3
  6
ByLayer
 62
  256
370
   -1
100
AcDbPolyline
 90
    4
 70
    0
 43
0
 10
0
 20
0
 10
0
 20
15
 10
178
 20
15
 10
178
 20
0
  0
LWPOLYLINE
  5
1AF
100
AcDbEntity
  8
plytka3
  6
ByLayer
 62
  256
370
   -1
100
AcDbPolyline
 90
    4
 70
    0
 43
0
 10
0
 20
15
 10
0
 20
30
 10
150
 20
30
 10
150
 20
15
  0
LWPOLYLINE
  5
1B0
100
AcDbEntity
  8
plytka3
  6
ByLayer
 62
  256
370
   -1
100
AcDbPolyline
 90
    4
 70
    0
 43
0
 10
122
 20
30
 10
122
 20
45
 10
0
 20
45
 10
0
 20
30
  0
LWPOLYLINE
  5
1B1
100
AcDbEntity
  8
lyce
  6
CONTINUOUS
 62
   41
420
16376252
370
   25
100
AcDbPolyline
 90
    8
 70
    1
 43
0
 10
-10
 20
-100
 10
15
 20
-100
 10
15
 20
-112
 10
-10
 20
-112
 10
-10
 20
-108
 10
-12
 20
-107
 10
-8
 20
-105
 10
-10
 20
-104
  0
LWPOLYLINE
  5
1B2
100
AcDbEntity
  8
sterodur
  6
ByLayer
 62
  256
370
   -1
100
AcDbPolyline
 90
    9
 70
    0
 43
0
 10
-10
 20
-112
 10
0
 20
-112
 10
0
 20
-117
 10
-11
 20
-117
 10
-10
 20
-116
 10
-11
 20
-115
 10
-10
 20
-114
 10
-11
 20
-113
 10
-10
 20
-112
  0
LINE
  5
1B3
100
AcDbEntity
  8
fundament
  6
DASHED2
 62
  256
370
   -1
100
AcDbLine
 10
15
 20
-112
 11
107
 21
-112
  0
LWPOLYLINE
  5
1B4
100
AcDbEntity
  8
plytka3
  6
CONTINUOUS
 62
    2
370
   25
100
AcDbPolyline
 90
   30
 70
    0
 43
0
 10
0
 20
-117
 10
-10
 20
-117
 10
-10
 20
-149
 10
-8
 20
-150
 10
-12
 20
-152
 10
-10
 20
-153
 10
-10
 20
-182
 10
-8
 20
-183
 10
-12
 20
-185
 10
-10
 20
-186
 10
-10
 20
-214
 10
35
 20
-214
 10
36
 20
-212
 10
38
 20
-216
 10
39
 20
-214
 10
130
 20
-214
 10
131
 20
-212
 10
133
 20
-216
 10
134
 20
-214
 10
188
 20
-214
 10
188
 20
-186
 10
190
 20
-185
 10
186
 20
-183
 10
188
 20
-182
 10
188
 20
-154
 10
190
 20
-153
 10
186
 20
-151
 10
188
 20
-150
 10
188
 20
-117
 10
178
 20
-117
  0
LWPOLYLINE
  5
1B5
100
AcDbEntity
  8
sterodur
  6
ByLayer
 62
  256
370
   -1
100
AcDbPolyline
 90
    9
 70
    0
 43
0
 10
188
 20
-112
 10
122
 20
-112
 10
122
 20
-117
 10
189
 20
-117
 10
188
 20
-116
 10
189
 20
-115
 10
188
 20
-114
 10
189
 20
-113
 10
188
 20
-112
  0
LWPOLYLINE
  5
1B6
100
AcDbEntity
  8
lyce
  6
CONTINUOUS
 62
   41
420
16376252
370
   25
100
AcDbPolyline
 90
    8
 70
    1
 43
0
 10
188
 20
-100
 10
107
 20
-100
 10
107
 20
-112
 10
188
 20
-112
 10
188
 20
-108
 10
190
 20
-107
 10
186
 20
-105
 10
188
 20
-104
  0
LWPOLYLINE
  5
1B7
100
AcDbEntity
  8
lyce
  6
ByLayer
 62
  256
370
   -1
100
AcDbPolyline
 90
   13
 70
    0
 43
0
 10
0
 20
45
 10
0
 20
51
 10
2
 20
52
 10
-2
 20
54
 10
0
 20
55
 10
0
 20
60
 10
5
 20
60
 10
6
 20
62
 10
8
 20
58
 10
9
 20
60
 10
15
 20
60
 10
15
 20
45
 10
0
 20
45
  0
LWPOLYLINE
  5
1B8
100
AcDbEntity
  8
lyce
  6
CONTINUOUS
 62
   41
420
16376252
370
   25
100
AcDbPolyline
 90
   17
 70
    0
 43
0
 10
188
 20
45
 10
188
 20
51
 10
186
 20
52
 10
190
 20
54
 10
188
 20
55
 10
188
 20
60
 10
167
 20
60
 10
166
 20
62
 10
164
 20
58
 10
163
 20
60
 10
132
 20
60
 10
131
 20
62
 10
129
 20
58
 10
128
 20
60
 10
107
 20
60
 10
107
 20
45
 10
188
 20
45
  0
LWPOLYLINE
  5
1B9
100
AcDbEntity
  8
sterodur
  6
ByLayer
 62
  256
370
   -1
100
AcDbPolyline
 90
   13
 70
    0
 43
0
 10
188
 20
45
 10
122
 20
45
 10
122
 20
30
 10
150
 20
30
 10
150
 20
15
 10
178
 20
15
 10
178
 20
0
 10
188
 20
0
 10
188
 20
19
 10
186
 20
20
 10
190
 20
22
 10
188
 20
23
 10
188
 20
45
  0
LWPOLYLINE
  5
1BA
100
AcDbEntity
  8
fundament
  6
CONTINUOUS
 62
  136
420
32896
370
   25
100
AcDbPolyline
 90
   20
 70
    1
 43
0
 10
-10
 20
-8
 10
-10
 20
-11
 10
-8
 20
-12
 10
-12
 20
-14
 10
-10
 20
-15
 10
-10
 20
-18
 10
38
 20
-18
 10
39
 20
-16
 10
41
 20
-20
 10
42
 20
-18
 10
140
 20
-18
 10
141
 20
-16
 10
143
 20
-20
 10
144
 20
-18
 10
188
 20
-18
 10
188
 20
-16
 10
190
 20
-15
 10
186
 20
-13
 10
188
 20
-12
 10
188
 20
-8
  0
LWPOLYLINE
  5
1BB
100
AcDbEntity
  8
skhody
  6
DASHED2
 62
  256
370
   -1
100
AcDbPolyline
 90
    4
 70
    0
 43
0
 10
4
 20
11
 10
4
 20
26
 10
146
 20
26
 10
146
 20
11
  0
LWPOLYLINE
  5
1BC
100
AcDbEntity
  8
skhody
  6
DASHED2
 62
  256
370
   -1
100
AcDbPolyline
 90
    4
 70
    0
 43
0
 10
4
 20
26
 10
4
 20
41
 10
118
 20
41
 10
118
 20
26
  0
LWPOLYLINE
  5
1BD
100
AcDbEntity
  8
skhody
  6
DASHED2
 62
  256
370
   -1
100
AcDbPolyline
 90
    4
 70
    1
 43
0
 10
4
 20
11
 10
174
 20
11
 10
174
 20
-8
 10
4
 20
-8
  0
LWPOLYLINE
  5
1BE
100
AcDbEntity
  8
skhody
  6
DASHED2
 62
  256
370
   -1
100
AcDbPolyline
 90
    4
 70
    1
 43
0
 10
4
 20
-112
 10
118
 20
-112
 10
118
 20
-144
 10
4
 20
-144
  0
LWPOLYLINE
  5
1BF
100
AcDbEntity
  8
skhody
  6
DASHED2
 62
  256
370
   -1
100
AcDbPolyline
 90
    5
 70
    0
 43
0
 10
4
 20
-144
 10
4
 20
-172
 10
146
 20
-172
 10
146
 20
-112
 10
118
 20
-112
  0
LWPOLYLINE
  5
1C0
100
AcDbEntity
  8
skhody
  6
DASHED2
 62
  256
370
   -1
100
AcDbPolyline
 90
    5
 70
    0
 43
0
 10
146
 20
-112
 10
174
 20
-112
 10
174
 20
-200
 10
4
 20
-200
 10
4
 20
-172
  0
DIMENSION
  5
1C1
100
AcDbEntity
  8
rozmir
  6
ByLayer
 62
  256
370
   -1
100
AcDbDimension
  2
*D1
 10
210
 20
-2.694222958124177e-15
 30
0
 11
205
 21
-4
 31
0
 70
   32
 71
    5
 72
    0
  3
Standard
 53
0
210
0
220
0
230
1
100
AcDbAlignedDimension
 13
188
 23
-8
 33
0
 14
188
 24
0
 34
0
 50
90
100
AcDbRotatedDimension
  0
DIMENSION
  5
1C2
100
AcDbEntity
  8
rozmir
  6
ByLayer
 62
  256
370
   -1
100
AcDbDimension
  2
*D2
 10
210
 20
15
 30
0
 11
205
 21
7.500000000000002
 31
0
 70
   32
 71
    5
 72
    0
  3
Standard
 53
0
210
0
220
0
230
1
100
AcDbAlignedDimension
 13
188
 23
0
 33
0
 14
178
 24
15
 34
0
 50
90
100
AcDbRotatedDimension
  0
DIMENSION
  5
1C3
100
AcDbEntity
  8
rozmir
  6
ByLayer
 62
  256
370
   -1
100
AcDbDimension
  2
*D3
 10
210
 20
29.99999999999999
 30
0
 11
205
 21
22.5
 31
0
 70
   32
 71
    5
 72
    0
  3
Standard
 53
0
210
0
220
0
230
1
100
AcDbAlignedDimension
 13
178
 23
15
 33
0
 14
150
 24
30
 34
0
 50
90
100
AcDbRotatedDimension
  0
DIMENSION
  5
1C4
100
AcDbEntity
  8
rozmir
  6
ByLayer
 62
  256
370
   -1
100
AcDbDimension
  2
*D4
 10
210
 20
44.99999999999999
 30
0
 11
205
 21
37.5
 31
0
 70
   32
 71
    5
 72
    0
  3
Standard
 53
0
210
0
220
0
230
1
100
AcDbAlignedDimension
 13
150
 23
30
 33
0
 14
122
 24
45
 34
0
 50
90
100
AcDbRotatedDimension
  0
DIMENSION
  5
1C5
100
AcDbEntity
  8
rozmir
  6
ByLayer
 62
  256
370
   -1
100
AcDbDimension
  2
*D5
 10
-20
 20
11
 30
0
 11
-25
 21
1.500000000000002
 31
0
 70
   32
 71
    5
 72
    0
  3
Standard
 53
0
210
0
220
0
230
1
100
AcDbAlignedDimension
 13
4
 23
-8
 33
0
 14
4
 24
11
 34
0
 50
90
100
AcDbRotatedDimension
  0
DIMENSION
  5
1C6
100
AcDbEntity
  8
rozmir
  6
ByLayer
 62
  256
370
   -1
100
AcDbDimension
  2
*D6
 10
-20
 20
26
 30
0
 11
-25
 21
18.5
 31
0
 70
   32
 71
    5
 72
    0
  3
Standard
 53
0
210
0
220
0
230
1
100
AcDbAlignedDimension
 13
4
 23
11
 33
0
 14
4
 24
26
 34
0
 50
90
100
AcDbRotatedDimension
  0
DIMENSION
  5
1C7
100
AcDbEntity
  8
rozmir
  6
ByLayer
 62
  256
370
   -1
100
AcDbDimension
  2
*D7
 10
-20
 20
41
 30
0
 11
-25
 21
33.5
 31
0
 70
   32
 71
    5
 72
    0
  3
Standard
 53
0
210
0
220
0
230
1
100
AcDbAlignedDimension
 13
4
 23
26
 33
0
 14
4
 24
41
 34
0
 50
90
100
AcDbRotatedDimension
  0
DIMENSION
  5
1C8
100
AcDbEntity
  8
rozmir
  6
ByLayer
 62
  256
370
   -1
100
AcDbDimension
  2
*D8
 10
210
 20
-176
 30
0
 11
205
 21
-162
 31
0
 70
   32
 71
    5
 72
    0
  3
Standard
 53
0
210
0
220
0
230
1
100
AcDbAlignedDimension
 13
122
 23
-148
 33
0
 14
150
 24
-176
 34
0
 50
90
100
AcDbRotatedDimension
  0
DIMENSION
  5
1C9
100
AcDbEntity
  8
rozmir
  6
ByLayer
 62
  256
370
   -1
100
AcDbDimension
  2
*D9
 10
210
 20
-204
 30
0
 11
205
 21
-190
 31
0
 70
   32
 71
    5
 72
    0
  3
Standard
 53
0
210
0
220
0
230
1
100
AcDbAlignedDimension
 13
150
 23
-176
 33
0
 14
178
 24
-204
 34
0
 50
90
100
AcDbRotatedDimension
  0
DIMENSION
  5
1CA
100
AcDbEntity
  8
rozmir
  6
ByLayer
 62
  256
370
   -1
100
AcDbDimension
  2
*D10
 10
-30
 20
-144
 30
0
 11
-35
 21
-128
 31
0
 70
   32
 71
    5
 72
    0
  3
Standard
 53
0
210
0
220
0
230
1
100
AcDbAlignedDimension
 13
4
 23
-112
 33
0
 14
4
 24
-144
 34
0
 50
90
100
AcDbRotatedDimension
  0
DIMENSION
  5
1CB
100
AcDbEntity
  8
rozmir
  6
ByLayer
 62
  256
370
   -1
100
AcDbDimension
  2
*D11
 10
-30
 20
-172
 30
0
 11
-35
 21
-158
 31
0
 70
   32
 71
    5
 72
    0
  3
Standard
 53
0
210
0
220
0
230
1
100
AcDbAlignedDimension
 13
4
 23
-144
 33
0
 14
4
 24
-172
 34
0
 50
90
100
AcDbRotatedDimension
  0
DIMENSION
  5
1CC
100
AcDbEntity
  8
rozmir
  6
ByLayer
 62
  256
370
   -1
100
AcDbDimension
  2
*D12
 10
-30
 20
-200
 30
0
 11
-35
 21
-186
 31
0
 70
   32
 71
    5
 72
    0
  3
Standard
 53
0
210
0
220
0
230
1
100
AcDbAlignedDimension
 13
4
 23
-172
 33
0
 14
4
 24
-200
 34
0
 50
90
100
AcDbRotatedDimension
  0
DIMENSION
  5
1CD
100
AcDbEntity
  8
rozmir
  6
ByLayer
 62
  256
370
   -1
100
AcDbDimension
  2
*D13
 10
15
 20
-90
 30
0
 11
9.5
 21
-85
 31
0
 70
   32
 71
    5
 72
    0
  3
Standard
 53
0
210
0
220
0
230
1
100
AcDbAlignedDimension
 13
4
 23
-112
 33
0
 14
15
 24
-112
 34
0
100
AcDbRotatedDimension
  0
DIMENSION
  5
1CE
100
AcDbEntity
  8
rozmir
  6
ByLayer
 62
  256
370
   -1
100
AcDbDimension
  2
*D14
 10
118
 20
-90
 30
0
 11
112.5
 21
-85
 31
0
 70
   32
 71
    5
 72
    0
  3
Standard
 53
0
210
0
220
0
230
1
100
AcDbAlignedDimension
 13
107
 23
-112
 33
0
 14
118
 24
-112
 34
0
100
AcDbRotatedDimension
  0
DIMENSION
  5
1CF
100
AcDbEntity
  8
rozmir
  6
ByLayer
 62
  256
370
   -1
100
AcDbDimension
  2
*D15
 10
120
 20
-80
 30
0
 11
61
 21
-75
 31
0
 70
   32
 71
    5
 72
    0
  3
Standard
 53
0
210
0
220
0
230
1
100
AcDbAlignedDimension
 13
4
 23
-112
 33
0
 14
118
 24
-112
 34
0
100
AcDbRotatedDimension
  0
DIMENSION
  5
1D0
100
AcDbEntity
  8
rozmir
  6
ByLayer
 62
  256
370
   -1
100
AcDbDimension
  2
*D16
 10
150
 20
-70
 30
0
 11
75
 21
-65
 31
0
 70
   32
 71
    5
 72
    0
  3
Standard
 53
0
210
0
220
0
230
1
100
AcDbAlignedDimension
 13
4
 23
-112
 33
0
 14
146
 24
-112
 34
0
100
AcDbRotatedDimension
  0
DIMENSION
  5
1D1
100
AcDbEntity
  8
rozmir
  6
ByLayer
 62
  256
370
   -1
100
AcDbDimension
  2
*D17
 10
170
 20
-60
 30
0
 11
89
 21
-55
 31
0
 70
   32
 71
    5
 72
    0
  3
Standard
 53
0
210
0
220
0
230
1
100
AcDbAlignedDimension
 13
4
 23
-112
 33
0
 14
174
 24
-112
 34
0
100
AcDbRotatedDimension
  0
DIMENSION
  5
1D2
100
AcDbEntity
  8
rozmir
  6
ByLayer
 62
  256
370
   -1
100
AcDbDimension
  2
*D18
 10
122
 20
-230
 30
0
 11
61
 21
-225
 31
0
 70
   32
 71
    5
 72
    0
  3
Standard
 53
0
210
0
220
0
230
1
100
AcDbAlignedDimension
 13
0
 23
-204
 33
0
 14
122
 24
-148
 34
0
100
AcDbRotatedDimension
  0
DIMENSION
  5
1D3
100
AcDbEntity
  8
rozmir
  6
ByLayer
 62
  256
370
   -1
100
AcDbDimension
  2
*D19
 10
150
 20
-240
 30
0
 11
75
 21
-235
 31
0
 70
   32
 71
    5
 72
    0
  3
Standard
 53
0
210
0
220
0
230
1
100
AcDbAlignedDimension
 13
0
 23
-204
 33
0
 14
150
 24
-176
 34
0
100
AcDbRotatedDimension
  0
DIMENSION
  5
1D4
100
AcDbEntity
  8
rozmir
  6
ByLayer
 62
  256
370
   -1
100
AcDbDimension
  2
*D20
 10
178
 20
-250
 30
0
 11
89
 21
-245
 31
0
 70
   32
 71
    5
 72
    0
  3
Standard
 53
0
210
0
220
0
230
1
100
AcDbAlignedDimension
 13
0
 23
-204
 33
0
 14
178
 24
-204
 34
0
100
AcDbRotatedDimension
  0
LWPOLYLINE
  5
1D5
100
AcDbEntity
  8
plytka3
  6
ByLayer
 62
  256
370
   -1
100
AcDbPolyline
 90
    4
 70
    1
 43
0
 10
338
 20
45
 10
338
 20
42
 10
386
 20
42
 10
386
 20
45
  0
LWPOLYLINE
  5
1D6
100
AcDbEntity
  8
plytka3
  6
ByLayer
 62
  256
370
   -1
100
AcDbPolyline
 90
    4
 70
    1
 43
0
 10
338
 20
30
 10
338
 20
42
 10
341
 20
42
 10
341
 20
30
  0
LWPOLYLINE
  5
1D7
100
AcDbEntity
  8
plytka3
  6
ByLayer
 62
  256
370
   -1
100
AcDbPolyline
 90
    4
 70
    1
 43
0
 10
310
 20
14.99999999999999
 10
310
 20
27
 10
313
 20
27
 10
313
 20
14.99999999999999
  0
LWPOLYLINE
  5
1D8
100
AcDbEntity
  8
plytka3
  6
ByLayer
 62
  256
370
   -1
100
AcDbPolyline
 90
    4
 70
    1
 43
0
 10
282
 20
-1.77635683940025e-15
 10
282
 20
12
 10
285
 20
12
 10
285
 20
-1.77635683940025e-15
  0
LWPOLYLINE
  5
1D9
100
AcDbEntity
  8
plytka3
  6
ByLayer
 62
  256
370
   -1
100
AcDbPolyline
 90
    4
 70
    1
 43
0
 10
282
 20
12
 10
282
 20
15
 10
312
 20
14.99999999999999
 10
312
 20
11.99999999999999
  0
LWPOLYLINE
  5
1DA
100
AcDbEntity
  8
plytka3
  6
ByLayer
 62
  256
370
   -1
100
AcDbPolyline
 90
    4
 70
    1
 43
0
 10
310
 20
27
 10
310
 20
30
 10
340
 20
30
 10
340
 20
27
  0
LWPOLYLINE
  5
1DB
100
AcDbEntity
  8
klei
  6
ByLayer
 62
  256
370
   -1
100
AcDbPolyline
 90
   18
 70
    0
 43
0
 10
285
 20
-3.000000000000002
 10
285
 20
12
 10
312
 20
11.99999999999999
 10
312
 20
14.99999999999999
 10
313
 20
14.99999999999999
 10
313
 20
27
 10
340
 20
27
 10
340
 20
30
 10
341
 20
30
 10
341
 20
42
 10
386
 20
42
 10
386
 20
41
 10
342
 20
41
 10
342
 20
26
 10
314
 20
26
 10
314
 20
10.99999999999999
 10
286
 20
11
 10
286
 20
-3.000000000000002
  0
LWPOLYLINE
  5
1DC
100
AcDbEntity
  8
rozmir
  6
CONTINUOUS
 62
    8
370
   25
100
AcDbPolyline
 90
    9
 70
    0
 43
0
 10
286
 20
-8.000000000000002
 10
286
 20
11
 10
314
 20
10.99999999999999
 10
314
 20
26
 10
342
 20
26
 10
342
 20
41
 10
374
 20
41
 10
374
 20
-8
 10
286
 20
-8.000000000000002
  0
LWPOLYLINE
  5
1DD
100
AcDbEntity
  8
skhody
  6
CONTINUOUS
 62
    8
370
   25
100
AcDbPolyline
 90
   11
 70
    0
 43
0
 10
374
 20
34
 10
374
 20
41
 10
386
 20
41
 10
386
 20
44
 10
396
 20
44
 10
396
 20
41
 10
394
 20
40
 10
398
 20
38
 10
396
 20
37
 10
396
 20
34
 10
374
 20
34
  0
LWPOLYLINE
  5
1DE
100
AcDbEntity
  8
fundament
  6
CONTINUOUS
 62
  136
420
32896
370
   25
100
AcDbPolyline
 90
   12
 70
    1
 43
0
 10
374
 20
34
 10
374
 20
-18
 10
383
 20
-18
 10
384
 20
-16
 10
386
 20
-20
 10
387
 20
-18
 10
396
 20
-18
 10
396
 20
8
 10
394
 20
9
 10
398
 20
11
 10
396
 20
12
 10
396
 20
34
  0
LWPOLYLINE
  5
1DF
100
AcDbEntity
  8
fundament
  6
CONTINUOUS
 62
  136
420
32896
370
   25
100
AcDbPolyline
 90
   16
 70
    1
 43
0
 10
250
 20
-7.999999999999999
 10
250
 20
-11
 10
252
 20
-12
 10
248
 20
-14
 10
250
 20
-15
 10
250
 20
-18
 10
280
 20
-18
 10
281
 20
-16
 10
283
 20
-20
 10
284
 20
-18
 10
337
 20
-18
 10
338
 20
-16
 10
340
 20
-20
 10
341
 20
-18
 10
374
 20
-18
 10
374
 20
-8
  0
LWPOLYLINE
  5
1E0
100
AcDbEntity
  8
plytka3
  6
CONTINUOUS
 62
    2
370
   25
100
AcDbPolyline
 90
    6
 70
    1
 43
0
 10
251
 20
-3
 10
250
 20
-2
 10
251
 20
-1
 10
250
 20
0
 10
285
 20
-1.77635683940025e-15
 10
285
 20
-3.000000000000002
  0
LWPOLYLINE
  5
1E1
100
AcDbEntity
  8
pisok
  6
CONTINUOUS
 62
  176
420
  128
370
   25
100
AcDbPolyline
 90
    9
 70
    1
 43
0
 10
250
 20
-7.999999999999999
 10
251
 20
-7
 10
250
 20
-6
 10
251
 20
-5
 10
250
 20
-4
 10
251
 20
-3
 10
286
 20
-3.000000000000002
 10
286
 20
-8.000000000000002
 10
250
 20
-7.999999999999999
  0
DIMENSION
  5
1E2
100
AcDbEntity
  8
rozmir
  6
ByLayer
 62
  256
370
   -1
100
AcDbDimension
  2
*D21
 10
410
 20
40.99999999999999
 30
0
 11
405
 21
37.5
 31
0
 70
   32
 71
    5
 72
    0
  3
Standard
 53
0
210
0
220
0
230
1
100
AcDbAlignedDimension
 13
374
 23
34
 33
0
 14
374
 24
41
 34
0
 50
90
100
AcDbRotatedDimension
  0
DIMENSION
  5
1E3
100
AcDbEntity
  8
rozmir
  6
ByLayer
 62
  256
370
   -1
100
AcDbDimension
  2
*D22
 10
420
 20
44
 30
0
 11
415
 21
39
 31
0
 70
   32
 71
    5
 72
    0
  3
Standard
 53
0
210
0
220
0
230
1
100
AcDbAlignedDimension
 13
396
 23
34
 33
0
 14
396
 24
44
 34
0
 50
90
100
AcDbRotatedDimension
  0
DIMENSION
  5
1E4
100
AcDbEntity
  8
rozmir
  6
ByLayer
 62
  256
370
   -1
100
AcDbDimension
  2
*D23
 10
210
 20
-148
 30
0
 11
205
 21
-130
 31
0
 70
   32
 71
    5
 72
    0
  3
Standard
 53
0
210
0
220
0
230
1
100
AcDbAlignedDimension
 13
188
 23
-112
 33
0
 14
122
 24
-148
 34
0
 50
90
100
AcDbRotatedDimension
  0
DIMENSION
  5
1E5
100
AcDbEntity
  8
rozmir
  6
ByLayer
 62
  256
370
   -1
100
AcDbDimension
  2
*D24
 10
210
 20
-100
 30
0
 11
205
 21
-106
 31
0
 70
   32
 71
    5
 72
    0
  3
Standard
 53
0
210
0
220
0
230
1
100
AcDbAlignedDimension
 13
188
 23
-112
 33
0
 14
188
 24
-100
 34
0
 50
90
100
AcDbRotatedDimension
  0
DIMENSION
  5
1E6
100
AcDbEntity
  8
rozmir
  6
ByLayer
 62
  256
370
   -1
100
AcDbDimension
  2
*D25
 10
310
 20
40
 30
0
 11
296
 21
45
 31
0
 70
   32
 71
    5
 72
    0
  3
Standard
 53
0
210
0
220
0
230
1
100
AcDbAlignedDimension
 13
282
 23
15
 33
0
 14
310
 24
30
 34
0
100
AcDbRotatedDimension
  0
DIMENSION
  5
1E7
100
AcDbEntity
  8
rozmir
  6
ByLayer
 62
  256
370
   -1
100
AcDbDimension
  2
*D26
 10
338
 20
50
 30
0
 11
324
 21
55
 31
0
 70
   32
 71
    5
 72
    0
  3
Standard
 53
0
210
0
220
0
230
1
100
AcDbAlignedDimension
 13
310
 23
30
 33
0
 14
338
 24
45
 34
0
100
AcDbRotatedDimension
  0
DIMENSION
  5
1E8
100
AcDbEntity
  8
rozmir
  6
ByLayer
 62
  256
370
   -1
100
AcDbDimension
  2
*D27
 10
386
 20
50
 30
0
 11
362
 21
55
 31
0
 70
   32
 71
    5
 72
    0
  3
Standard
 53
0
210
0
220
0
230
1
100
AcDbAlignedDimension
 13
338
 23
45
 33
0
 14
386
 24
45
 34
0
100
AcDbRotatedDimension
  0
LEADER
  5
1E9
100
AcDbEntity
  8
tekst
  6
ByLayer
 62
  256
370
   -1
100
AcDbLeader
  3
Standard
 71
    1
 72
    0
 73
    3
 74
    0
 75
    0
 40
1
 41
10
 76
3
 76
3
 10
392
 20
43
 30
0
 10
410
 20
60
 30
0
 10
420
 20
60
 30
0
  0
LEADER
  5
1EA
100
AcDbEntity
  8
tekst
  6
ByLayer
 62
  256
370
   -1
100
AcDbLeader
  3
Standard
 71
    1
 72
    0
 73
    3
 74
    0
 75
    0
 40
1
 41
10
 76
3
 76
3
 10
260
 20
-10
 30
0
 10
250
 20
10
 30
0
 10
240
 20
10
 30
0
  0
LEADER
  5
1EB
100
AcDbEntity
  8
tekst
  6
ByLayer
 62
  256
370
   -1
100
AcDbLeader
  3
Standard
 71
    1
 72
    0
 73
    3
 74
    0
 75
    0
 40
1
 41
10
 76
3
 76
3
 10
267
 20
-5
 30
0
 10
250
 20
20
 30
0
 10
240
 20
20
 30
0
  0
LEADER
  5
1EC
100
AcDbEntity
  8
tekst
  6
ByLayer
 62
  256
370
   -1
100
AcDbLeader
  3
Standard
 71
    1
 72
    0
 73
    3
 74
    0
 75
    0
 40
1
 41
10
 76
3
 76
3
 10
270
 20
0
 30
0
 10
250
 20
30
 30
0
 10
240
 20
30
 30
0
  0
LEADER
  5
1ED
100
AcDbEntity
  8
tekst
  6
ByLayer
 62
  256
370
   -1
100
AcDbLeader
  3
Standard
 71
    1
 72
    0
 73
    3
 74
    0
 75
    0
 40
1
 41
10
 76
3
 76
3
 10
285
 20
2
 30
0
 10
250
 20
40
 30
0
 10
240
 20
40
 30
0
  0
LEADER
  5
1EE
100
AcDbEntity
  8
tekst
  6
ByLayer
 62
  256
370
   -1
100
AcDbLeader
  3
Standard
 71
    1
 72
    0
 73
    3
 74
    0
 75
    0
 40
1
 41
10
 76
3
 76
3
 10
370
 20
0
 30
0
 10
410
 20
10
 30
0
 10
420
 20
10
 30
0
  0
LEADER
  5
1EF
100
AcDbEntity
  8
tekst
  6
ByLayer
 62
  256
370
   -1
100
AcDbLeader
  3
Standard
 71
    1
 72
    0
 73
    3
 74
    0
 75
    0
 40
1
 41
10
 76
3
 76
3
 10
390
 20
-5
 30
0
 10
410
 20
0
 30
0
 10
420
 20
0
 30
0
  0
MTEXT
  5
1F0
100
AcDbEntity
  8
tekst
  6
ByLayer
 62
  256
370
   -1
100
AcDbMText
 10
245
 20
42
 30
0
 40
5
 41
1.111111111111111
 71
    8
 72
    1
  1
1
  7
cyrillic_ii
210
0
220
0
230
1
 50
0
 73
    2
 44
1
  0
MTEXT
  5
1F1
100
AcDbEntity
  8
tekst
  6
ByLayer
 62
  256
370
   -1
100
AcDbMText
 10
245
 20
32
 30
0
 40
5
 41
2.222222222222222
 71
    8
 72
    1
  1
2
  7
cyrillic_ii
210
0
220
0
230
1
 50
0
 73
    2
 44
1
  0
MTEXT
  5
1F2
100
AcDbEntity
  8
tekst
  6
ByLayer
 62
  256
370
   -1
100
AcDbMText
 10
245
 20
22
 30
0
 40
5
 41
2.222222222222532
 71
    8
 72
    1
  1
3
  7
cyrillic_ii
210
0
220
0
230
1
 50
0
 73
    2
 44
1
  0
MTEXT
  5
1F3
100
AcDbEntity
  8
tekst
  6
ByLayer
 62
  256
370
   -1
100
AcDbMText
 10
245
 20
12
 30
0
 40
5
 41
2.777777777777778
 71
    8
 72
    1
  1
4
  7
cyrillic_ii
210
0
220
0
230
1
 50
0
 73
    2
 44
1
  0
MTEXT
  5
1F4
100
AcDbEntity
  8
tekst
  6
ByLayer
 62
  256
370
   -1
100
AcDbMText
 10
415
 20
62
 30
0
 40
5
 41
2.222222222222532
 71
    8
 72
    1
  1
5
  7
cyrillic_ii
210
0
220
0
230
1
 50
0
 73
    2
 44
1
  0
MTEXT
  5
1F5
100
AcDbEntity
  8
tekst
  6
ByLayer
 62
  256
370
   -1
100
AcDbMText
 10
415
 20
12
 30
0
 40
5
 41
2.222222222222532
 71
    8
 72
    1
  1
6
  7
cyrillic_ii
210
0
220
0
230
1
 50
0
 73
    2
 44
1
  0
MTEXT
  5
1F6
100
AcDbEntity
  8
tekst
  6
ByLayer
 62
  256
370
   -1
100
AcDbMText
 10
415
 20
2
 30
0
 40
5
 41
2.222222222222222
 71
    8
 72
    1
  1
7
  7
cyrillic_ii
210
0
220
0
230
1
 50
0
 73
    2
 44
1
  0
LEADER
  5
1F7
100
AcDbEntity
  8
tekst
  6
ByLayer
 62
  256
370
   -1
100
AcDbLeader
  3
Standard
 71
    1
 72
    0
 73
    3
 74
    0
 75
    0
 40
1
 41
10
 76
3
 76
3
 10
176
 20
-105
 30
0
 10
190
 20
-80
 30
0
 10
200
 20
-80
 30
0
  0
LEADER
  5
1F8
100
AcDbEntity
  8
tekst
  6
ByLayer
 62
  256
370
   -1
100
AcDbLeader
  3
Standard
 71
    1
 72
    0
 73
    3
 74
    0
 75
    0
 40
1
 41
10
 76
3
 76
3
 10
181
 20
-115
 30
0
 10
190
 20
-90
 30
0
 10
200
 20
-90
 30
0
  0
MTEXT
  5
1F9
100
AcDbEntity
  8
tekst
  6
ByLayer
 62
  256
370
   -1
100
AcDbMText
 10
195
 20
-78
 30
0
 40
5
 41
2.222222222222222
 71
    8
 72
    1
  1
8
  7
cyrillic_ii
210
0
220
0
230
1
 50
0
 73
    2
 44
1
  0
MTEXT
  5
1FA
100
AcDbEntity
  8
tekst
  6
ByLayer
 62
  256
370
   -1
100
AcDbMText
 10
195
 20
-88
 30
0
 40
5
 41
2.222222222222532
 71
    8
 72
    1
  1
9
  7
cyrillic_ii
210
0
220
0
230
1
 50
0
 73
    2
 44
1
  0
MTEXT
  5
1FB
100
AcDbEntity
  8
tekst
  6
ByLayer
 62
  256
370
   -1
100
AcDbMText
 10
200
 20
100
 30
0
 40
10
 41
51.94444444444445
 71
    5
 72
    1
  1
 4
  7
cyrillic_ii
210
0
220
0
230
1
 50
0
 73
    2
 44
1
  0
MTEXT
  5
1FC
100
AcDbEntity
  8
tekst
  6
ByLayer
 62
  256
370
   -1
100
AcDbMText
 10
430
 20
-250
 30
0
 40
10
 41
49.72222222222269
 71
    6
 72
    1
  1
. 24
  7
cyrillic_ii
210
0
220
0
230
1
 50
0
 73
    2
 44
1
  0
LINE
  5
1FD
100
AcDbEntity
  8
tekst
  6
ByLayer
 62
  256
370
   -1
100
AcDbLine
 10
172
 20
93
 11
228
 21
93
  0
DIMENSION
  5
1FE
100
AcDbEntity
  8
rozmir
  6
ByLayer
 62
  256
370
   -1
100
AcDbDimension
  2
*D37
 10
-20
 20
-117
 30
0
 11
-25
 21
-114.5
 31
0
 70
   32
 71
    5
  3
Standard
 53
0
210
0
220
0
230
1
100
AcDbAlignedDimension
 13
-10
 23
-112
 33
0
 14
-11
 24
-117
 34
0
 50
90
100
AcDbRotatedDimension
  0
DIMENSION
  5
1FF
100
AcDbEntity
  8
rozmir
  6
ByLayer
 62
  256
370
   -1
100
AcDbDimension
  2
*D38
 10
200
 20
-112
 30
0
 11
195
 21
-114.5
 31
0
 70
   32
 71
    5
  3
Standard
 53
0
210
0
220
0
230
1
100
AcDbAlignedDimension
 13
189
 23
-117
 33
0
 14
188
 24
-112
 34
0
 50
90
100
AcDbRotatedDimension
  0
MTEXT
  5
200
100
AcDbEntity
  8
tekst
  6
ByLayer
 62
  256
370
   -1
100
AcDbMText
 10
240
 20
-60
 30
0
 40
10
 41
190.5555555555575
 71
    1
 72
    1
  3
1. \P2.   3 \P3. \P4.  \P5.  \P6.  \P7.  \P8. . \P9. 
  1

  7
cyrillic_ii
210
0
220
0
230
1
 50
0
 73
    2
 44
1
  0
ENDSEC
  0
SECTION
  2
OBJECTS
  0
DICTIONARY
  5
C
330
0
100
AcDbDictionary
281
    1
  3
ACAD_GROUP
350
D
  0
DICTIONARY
  5
D
330
C
100
AcDbDictionary
281
    1
  0
ENDSEC
  0
EOF
