999
dxfrw 0.6.3
  0
SECTION
  2
HEADER
  9
$ACADVER
  1
AC1021
  9
$DWGCODEPAGE
  3
ANSI_1252
  9
$INSBASE
 10
0
 20
0
 30
0
  9
$EXTMIN
 10
-140
 20
-341.6666666666667
 30
0
  9
$EXTMAX
 10
1100
 20
1325.013200342358
 30
0
  9
$LIMMIN
 10
0
 20
0
  9
$LIMMAX
 10
420
 20
297
  9
$ORTHOMODE
 70
    0
  9
$REGENMODE
 70
    1
  9
$FILLMODE
 70
    1
  9
$QTEXTMODE
 70
    0
  9
$MIRRTEXT
 70
    0
  9
$LTSCALE
 40
1
  9
$ATTMODE
 70
    0
  9
$TEXTSIZE
 40
2.5
  9
$TRACEWID
 40
15.68
  9
$TEXTSTYLE
  7
STANDARD
  9
$CLAYER
  8
brick
  9
$CELTYPE
  6
BYLAYER
  9
$CECOLOR
 62
  256
  9
$CELTSCALE
 40
1
  9
$DISPSILH
 70
    0
  9
$DIMSCALE
 40
10
  9
$DIMASZ
 40
1
  9
$DIMEXO
 40
0.2
  9
$DIMDLI
 40
3.75
  9
$DIMRND
 40
0
  9
$DIMDLE
 40
0
  9
$DIMEXE
 40
0.5
  9
$DIMTP
 40
0
  9
$DIMTM
 40
0
  9
$DIMTXT
 40
2
  9
$DIMCEN
 40
2.5
  9
$DIMTSZ
 40
1
  9
$DIMTOL
 70
    0
  9
$DIMLIM
 70
    0
  9
$DIMTIH
 70
    0
  9
$DIMTOH
 70
    0
  9
$DIMSE1
 70
    0
  9
$DIMSE2
 70
    0
  9
$DIMTAD
 70
    1
  9
$DIMZIN
 70
    8
  9
$DIMBLK
  1

  9
$DIMASO
 70
    1
  9
$DIMSHO
 70
    1
  9
$DIMPOST
  1

  9
$DIMAPOST
  1

  9
$DIMALT
 70
    0
  9
$DIMALTD
 70
    3
  9
$DIMALTF
 40
0.03937
  9
$DIMLFAC
 40
1
  9
$DIMTOFL
 70
    1
  9
$DIMTVP
 40
0
  9
$DIMTIX
 70
    0
  9
$DIMSOXD
 70
    0
  9
$DIMSAH
 70
    0
  9
$DIMBLK1
  1

  9
$DIMBLK2
  1

  9
$DIMSTYLE
  2
STANDARD
  9
$DIMCLRD
 70
    0
  9
$DIMCLRE
 70
    0
  9
$DIMCLRT
 70
    0
  9
$DIMTFAC
 40
1
  9
$DIMGAP
 40
0.5
  9
$DIMJUST
 70
    0
  9
$DIMSD1
 70
    0
  9
$DIMSD2
 70
    0
  9
$DIMTOLJ
 70
    0
  9
$DIMTZIN
 70
    8
  9
$DIMALTZ
 70
    0
  9
$DIMALTTZ
 70
    0
  9
$DIMUPT
 70
    0
  9
$DIMDEC
 70
    1
  9
$DIMTDEC
 70
    2
  9
$DIMALTU
 70
    2
  9
$DIMALTTD
 70
    3
  9
$DIMTXSTY
  7
standard
  9
$DIMAUNIT
 70
    0
  9
$DIMADEC
 70
    0
  9
$DIMALTRND
 40
0
  9
$DIMAZIN
 70
    0
  9
$DIMDSEP
 70
   44
  9
$DIMATFIT
 70
    3
  9
$DIMFRAC
 70
    0
  9
$DIMLDRBLK
  1
STANDARD
  9
$DIMLUNIT
 70
    2
  9
$DIMLWD
 70
   -2
  9
$DIMLWE
 70
   -2
  9
$DIMTMOVE
 70
    0
  9
$DIMFXL
 40
1
  9
$DIMFXLON
 70
    0
  9
$DIMJOGANG
 40
0.7854
  9
$DIMTFILL
 70
    0
  9
$DIMTFILLCLR
 70
    0
  9
$DIMARCSYM
 70
    0
  9
$DIMLTYPE
  6

  9
$DIMLTEX1
  6

  9
$DIMLTEX2
  6

  9
$LUNITS
 70
    2
  9
$LUPREC
 70
    2
  9
$SKETCHINC
 40
1
  9
$FILLETRAD
 40
0
  9
$AUNITS
 70
    0
  9
$AUPREC
 70
    2
  9
$MENU
  1
.
  9
$ELEVATION
 40
0
  9
$PELEVATION
 40
0
  9
$THICKNESS
 40
0
  9
$LIMCHECK
 70
    0
  9
$CHAMFERA
 40
0
  9
$CHAMFERB
 40
0
  9
$CHAMFERC
 40
0
  9
$CHAMFERD
 40
0
  9
$SKPOLY
 70
    0
  9
$USRTIMER
 70
    1
  9
$ANGBASE
 50
0
  9
$ANGDIR
 70
    0
  9
$PDMODE
 70
   34
  9
$PDSIZE
 40
0
  9
$PLINEWID
 40
0
  9
$SPLFRAME
 70
    0
  9
$SPLINETYPE
 70
    2
  9
$SPLINESEGS
 70
    8
  9
$HANDSEED
  5
20000
  9
$SURFTAB1
 70
    6
  9
$SURFTAB2
 70
    6
  9
$SURFTYPE
 70
    6
  9
$SURFU
 70
    6
  9
$SURFV
 70
    6
  9
$UCSBASE
  2

  9
$UCSNAME
  2

  9
$UCSORG
 10
0
 20
0
 30
0
  9
$UCSXDIR
 10
1
 20
0
 30
0
  9
$UCSYDIR
 10
0
 20
1
 30
0
  9
$UCSORTHOREF
  2

  9
$UCSORTHOVIEW
 70
    0
  9
$UCSORGTOP
 10
0
 20
0
 30
0
  9
$UCSORGBOTTOM
 10
0
 20
0
 30
0
  9
$UCSORGLEFT
 10
0
 20
0
 30
0
  9
$UCSORGRIGHT
 10
0
 20
0
 30
0
  9
$UCSORGFRONT
 10
0
 20
0
 30
0
  9
$UCSORGBACK
 10
0
 20
0
 30
0
  9
$PUCSBASE
  2

  9
$PUCSNAME
  2

  9
$PUCSORG
 10
0
 20
0
 30
0
  9
$PUCSXDIR
 10
1
 20
0
 30
0
  9
$PUCSYDIR
 10
0
 20
1
 30
0
  9
$PUCSORTHOREF
  2

  9
$PUCSORTHOVIEW
 70
    0
  9
$PUCSORGTOP
 10
0
 20
0
 30
0
  9
$PUCSORGBOTTOM
 10
0
 20
0
 30
0
  9
$PUCSORGLEFT
 10
0
 20
0
 30
0
  9
$PUCSORGRIGHT
 10
0
 20
0
 30
0
  9
$PUCSORGFRONT
 10
0
 20
0
 30
0
  9
$PUCSORGBACK
 10
0
 20
0
 30
0
  9
$USERI1
 70
    0
  9
$USERI2
 70
    0
  9
$USERI3
 70
    0
  9
$USERI4
 70
    0
  9
$USERI5
 70
    0
  9
$USERR1
 40
0
  9
$USERR2
 40
0
  9
$USERR3
 40
0
  9
$USERR4
 40
0
  9
$USERR5
 40
0
  9
$WORLDVIEW
 70
    1
  9
$SHADEDGE
 70
    3
  9
$SHADEDIF
 70
   70
  9
$TILEMODE
 70
    1
  9
$MAXACTVP
 70
   64
  9
$PINSBASE
 10
2.454352785835763
 20
7.436539518299872
 30
0
  9
$PLIMCHECK
 70
    0
  9
$PEXTMIN
 10
0
 20
0
 30
0
  9
$PEXTMAX
 10
0
 20
0
 30
0
  9
$GRIDMODE
 70
    1
  9
$SNAPSTYLE
 70
    0
  9
$GRIDUNIT
 10
0
 20
0
  9
$PLIMMIN
 10
0
 20
0
  9
$PLIMMAX
 10
21
 20
29.7
  9
$UNITMODE
 70
    0
  9
$VISRETAIN
 70
    1
  9
$PLINEGEN
 70
    0
  9
$PSLTSCALE
 70
    1
  9
$TREEDEPTH
 70
 3020
  9
$CMLSTYLE
  2
Standard
  9
$CMLJUST
 70
    0
  9
$CMLSCALE
 40
20
  9
$PROXYGRAPHICS
 70
    1
  9
$MEASUREMENT
 70
    1
  9
$CELWEIGHT
370
   -1
  9
$ENDCAPS
280
    0
  9
$JOINSTYLE
280
    0
  9
$LWDISPLAY
290
    0
  9
$INSUNITS
 70
    5
  9
$HYPERLINKBASE
  1

  9
$STYLESHEET
  1

  9
$XEDIT
290
    1
  9
$CEPSNTYPE
380
    0
  9
$PSTYLEMODE
290
    1
  9
$EXTNAMES
290
    1
  9
$PSVPSCALE
 40
0.01605804018042814
  9
$OLESTARTUP
290
    0
  9
$SORTENTS
280
  127
  9
$INDEXCTL
280
    0
  9
$HIDETEXT
280
    1
  9
$XCLIPFRAME
290
    0
  9
$HALOGAP
280
    0
  9
$OBSCOLOR
 70
  257
  9
$OBSLTYPE
280
    0
  9
$INTERSECTIONDISPLAY
280
    0
  9
$INTERSECTIONCOLOR
 70
  257
  9
$DIMASSOC
280
    1
  9
$PROJECTNAME
  1

  9
$CAMERADISPLAY
290
    0
  9
$LENSLENGTH
 40
50
  9
$CAMERAHEIGHT
 40
0
  9
$STEPSPERSEC
 40
2
  9
$STEPSIZE
 40
50
  9
$3DDWFPREC
 40
2
  9
$PSOLWIDTH
 40
5
  9
$PSOLHEIGHT
 40
80
  9
$LOFTANG1
 40
1.570796326794897
  9
$LOFTANG2
 40
1.570796326794897
  9
$LOFTMAG1
 40
0
  9
$LOFTMAG2
 40
0
  9
$LOFTPARAM
 70
    7
  9
$LOFTNORMALS
280
    1
  9
$LATITUDE
 40
1
  9
$LONGITUDE
 40
1
  9
$NORTHDIRECTION
 40
0
  9
$TIMEZONE
 70
-8000
  9
$LIGHTGLYPHDISPLAY
280
    1
  9
$TILEMODELIGHTSYNCH
280
    1
  9
$SOLIDHIST
280
    1
  9
$SHOWHIST
280
    1
  9
$DWFFRAME
280
    2
  9
$DGNFRAME
280
    0
  9
$REALWORLDSCALE
290
    1
  9
$INTERFERECOLOR
 62
    1
  9
$CSHADOW
280
    0
  9
$SHADOWPLANELOCATION
 40
0
  0
ENDSEC
  0
SECTION
  2
CLASSES
  0
ENDSEC
  0
SECTION
  2
TABLES
  0
TABLE
  2
VPORT
  5
8
330
0
100
AcDbSymbolTable
 70
    1
  0
VPORT
  5
31
330
2
100
AcDbSymbolTableRecord
100
AcDbViewportTableRecord
  2
*ACTIVE
 70
    0
 10
0
 20
0
 11
1
 21
1
 12
1091.88307076907
 22
674.0588935825973
 13
0
 23
0
 14
10
 24
10
 15
10
 25
10
 16
0
 26
0
 36
1
 17
0
 27
0
 37
0
 40
1712.848284377696
 41
1.987870619946092
 42
50
 43
0
 44
0
 50
0
 51
0
 71
    0
 72
  100
 73
    1
 74
    3
 75
    0
 76
    1
 77
    0
 78
    0
281
    0
 65
    1
110
0
120
0
130
0
111
1
121
0
131
0
112
0
122
1
132
0
 79
    0
146
0
348
10020
 60
    7
 61
    5
292
1
282
    1
141
0
142
0
 63
  250
421
3358443
  0
ENDTAB
  0
TABLE
  2
LTYPE
  5
5
330
0
100
AcDbSymbolTable
 70
    4
  0
LTYPE
  5
14
330
5
100
AcDbSymbolTableRecord
100
AcDbLinetypeTableRecord
  2
ByBlock
 70
    0
  3

 72
   65
 73
    0
 40
0
  0
LTYPE
  5
15
330
5
100
AcDbSymbolTableRecord
100
AcDbLinetypeTableRecord
  2
ByLayer
 70
    0
  3

 72
   65
 73
    0
 40
0
  0
LTYPE
  5
16
330
5
100
AcDbSymbolTableRecord
100
AcDbLinetypeTableRecord
  2
Continuous
 70
    0
  3
Solid line
 72
   65
 73
    0
 40
0
  0
LTYPE
  5
32
330
5
100
AcDbSymbolTableRecord
100
AcDbLinetypeTableRecord
  2
DOT
 70
    0
  3
Dot . . . . . . . . . . . . . . . . . . . . . .
 72
   65
 73
    2
 40
6.35
 49
0
 74
    0
 49
-6.35
 74
    0
  0
LTYPE
  5
33
330
5
100
AcDbSymbolTableRecord
100
AcDbLinetypeTableRecord
  2
DOTTINY
 70
    0
  3
Dot (.15x) .....................................
 72
   65
 73
    2
 40
0.9525
 49
0
 74
    0
 49
-0.9525
 74
    0
  0
LTYPE
  5
34
330
5
100
AcDbSymbolTableRecord
100
AcDbLinetypeTableRecord
  2
DOT2
 70
    0
  3
Dot (.5x) .....................................
 72
   65
 73
    2
 40
3.175
 49
0
 74
    0
 49
-3.175
 74
    0
  0
LTYPE
  5
35
330
5
100
AcDbSymbolTableRecord
100
AcDbLinetypeTableRecord
  2
DOTX2
 70
    0
  3
Dot (2x) .  .  .  .  .  .  .  .  .  .  .  .  .
 72
   65
 73
    2
 40
12.7
 49
0
 74
    0
 49
-12.7
 74
    0
  0
LTYPE
  5
36
330
5
100
AcDbSymbolTableRecord
100
AcDbLinetypeTableRecord
  2
DASHED
 70
    0
  3
Dashed _ _ _ _ _ _ _ _ _ _ _ _ _ _ _ _ _
 72
   65
 73
    2
 40
19.05
 49
12.7
 74
    0
 49
-6.35
 74
    0
  0
LTYPE
  5
37
330
5
100
AcDbSymbolTableRecord
100
AcDbLinetypeTableRecord
  2
DASHEDTINY
 70
    0
  3
Dashed (.15x) _ _ _ _ _ _ _ _ _ _ _ _ _ _ _ _ _
 72
   65
 73
    2
 40
2.8575
 49
1.905
 74
    0
 49
-0.9525
 74
    0
  0
LTYPE
  5
38
330
5
100
AcDbSymbolTableRecord
100
AcDbLinetypeTableRecord
  2
DASHED2
 70
    0
  3
Dashed (.5x) _ _ _ _ _ _ _ _ _ _ _ _ _ _ _ _ _
 72
   65
 73
    2
 40
9.524999999999999
 49
6.35
 74
    0
 49
-3.175
 74
    0
  0
LTYPE
  5
39
330
5
100
AcDbSymbolTableRecord
100
AcDbLinetypeTableRecord
  2
DASHEDX2
 70
    0
  3
Dashed (2x) ____  ____  ____  ____  ____  ___
 72
   65
 73
    2
 40
38.09999999999999
 49
25.4
 74
    0
 49
-12.7
 74
    0
  0
LTYPE
  5
3A
330
5
100
AcDbSymbolTableRecord
100
AcDbLinetypeTableRecord
  2
DASHDOT
 70
    0
  3
Dash dot __ . __ . __ . __ . __ . __ . __ . __
 72
   65
 73
    4
 40
25.4
 49
12.7
 74
    0
 49
-6.35
 74
    0
 49
0
 74
    0
 49
-6.35
 74
    0
  0
LTYPE
  5
3B
330
5
100
AcDbSymbolTableRecord
100
AcDbLinetypeTableRecord
  2
DASHDOTTINY
 70
    0
  3
Dash dot (.15x) _._._._._._._._._._._._._._._.
 72
   65
 73
    4
 40
3.81
 49
1.905
 74
    0
 49
-0.9525
 74
    0
 49
0
 74
    0
 49
-0.9525
 74
    0
  0
LTYPE
  5
3C
330
5
100
AcDbSymbolTableRecord
100
AcDbLinetypeTableRecord
  2
DASHDOT2
 70
    0
  3
Dash dot (.5x) _._._._._._._._._._._._._._._.
 72
   65
 73
    4
 40
12.7
 49
6.35
 74
    0
 49
-3.175
 74
    0
 49
0
 74
    0
 49
-3.175
 74
    0
  0
LTYPE
  5
3D
330
5
100
AcDbSymbolTableRecord
100
AcDbLinetypeTableRecord
  2
DASHDOTX2
 70
    0
  3
Dash dot (2x) ____  .  ____  .  ____  .  ___
 72
   65
 73
    4
 40
50.8
 49
25.4
 74
    0
 49
-12.7
 74
    0
 49
0
 74
    0
 49
-12.7
 74
    0
  0
LTYPE
  5
3E
330
5
100
AcDbSymbolTableRecord
100
AcDbLinetypeTableRecord
  2
DIVIDE
 70
    0
  3
Divide ____ . . ____ . . ____ . . ____ . . ____
 72
   65
 73
    6
 40
31.75
 49
12.7
 74
    0
 49
-6.35
 74
    0
 49
0
 74
    0
 49
-6.35
 74
    0
 49
0
 74
    0
 49
-6.35
 74
    0
  0
LTYPE
  5
3F
330
5
100
AcDbSymbolTableRecord
100
AcDbLinetypeTableRecord
  2
DIVIDETINY
 70
    0
  3
Divide (.15x) __..__..__..__..__..__..__..__.._
 72
   65
 73
    6
 40
4.7625
 49
1.905
 74
    0
 49
-0.9525
 74
    0
 49
0
 74
    0
 49
-0.9525
 74
    0
 49
0
 74
    0
 49
-0.9525
 74
    0
  0
LTYPE
  5
40
330
5
100
AcDbSymbolTableRecord
100
AcDbLinetypeTableRecord
  2
DIVIDE2
 70
    0
  3
Divide (.5x) __..__..__..__..__..__..__..__.._
 72
   65
 73
    6
 40
15.875
 49
6.35
 74
    0
 49
-3.175
 74
    0
 49
0
 74
    0
 49
-3.175
 74
    0
 49
0
 74
    0
 49
-3.175
 74
    0
  0
LTYPE
  5
41
330
5
100
AcDbSymbolTableRecord
100
AcDbLinetypeTableRecord
  2
DIVIDEX2
 70
    0
  3
Divide (2x) ________  .  .  ________  .  .  _
 72
   65
 73
    6
 40
63.5
 49
25.4
 74
    0
 49
-12.7
 74
    0
 49
0
 74
    0
 49
-12.7
 74
    0
 49
0
 74
    0
 49
-12.7
 74
    0
  0
LTYPE
  5
42
330
5
100
AcDbSymbolTableRecord
100
AcDbLinetypeTableRecord
  2
BORDER
 70
    0
  3
Border __ __ . __ __ . __ __ . __ __ . __ __ .
 72
   65
 73
    6
 40
44.45
 49
12.7
 74
    0
 49
-6.35
 74
    0
 49
12.7
 74
    0
 49
-6.35
 74
    0
 49
0
 74
    0
 49
-6.35
 74
    0
  0
LTYPE
  5
43
330
5
100
AcDbSymbolTableRecord
100
AcDbLinetypeTableRecord
  2
BORDERTINY
 70
    0
  3
Border (.15x) __.__.__.__.__.__.__.__.__.__.__.
 72
   65
 73
    6
 40
6.6675
 49
1.905
 74
    0
 49
-0.9525
 74
    0
 49
1.905
 74
    0
 49
-0.9525
 74
    0
 49
0
 74
    0
 49
-0.9525
 74
    0
  0
LTYPE
  5
44
330
5
100
AcDbSymbolTableRecord
100
AcDbLinetypeTableRecord
  2
BORDER2
 70
    0
  3
Border (.5x) __.__.__.__.__.__.__.__.__.__.__.
 72
   65
 73
    6
 40
22.225
 49
6.35
 74
    0
 49
-3.175
 74
    0
 49
6.35
 74
    0
 49
-3.175
 74
    0
 49
0
 74
    0
 49
-3.175
 74
    0
  0
LTYPE
  5
45
330
5
100
AcDbSymbolTableRecord
100
AcDbLinetypeTableRecord
  2
BORDERX2
 70
    0
  3
Border (2x) ____  ____  .  ____  ____  .  ___
 72
   65
 73
    6
 40
88.89999999999999
 49
25.4
 74
    0
 49
-12.7
 74
    0
 49
25.4
 74
    0
 49
-12.7
 74
    0
 49
0
 74
    0
 49
-12.7
 74
    0
  0
LTYPE
  5
46
330
5
100
AcDbSymbolTableRecord
100
AcDbLinetypeTableRecord
  2
CENTER
 70
    0
  3
Center ____ _ ____ _ ____ _ ____ _ ____ _ ____
 72
   65
 73
    4
 40
50.8
 49
31.75
 74
    0
 49
-6.35
 74
    0
 49
6.35
 74
    0
 49
-6.35
 74
    0
  0
LTYPE
  5
47
330
5
100
AcDbSymbolTableRecord
100
AcDbLinetypeTableRecord
  2
CENTERTINY
 70
    0
  3
Center (.15x) ___ _ ___ _ ___ _ ___ _ ___ _ ___
 72
   65
 73
    4
 40
7.619999999999999
 49
4.7625
 74
    0
 49
-0.9525
 74
    0
 49
0.9525
 74
    0
 49
-0.9525
 74
    0
  0
LTYPE
  5
48
330
5
100
AcDbSymbolTableRecord
100
AcDbLinetypeTableRecord
  2
CENTER2
 70
    0
  3
Center (.5x) ___ _ ___ _ ___ _ ___ _ ___ _ ___
 72
   65
 73
    4
 40
28.575
 49
19.05
 74
    0
 49
-3.175
 74
    0
 49
3.175
 74
    0
 49
-3.175
 74
    0
  0
LTYPE
  5
49
330
5
100
AcDbSymbolTableRecord
100
AcDbLinetypeTableRecord
  2
CENTERX2
 70
    0
  3
Center (2x) ________  __  ________  __  _____
 72
   65
 73
    4
 40
101.6
 49
63.5
 74
    0
 49
-12.7
 74
    0
 49
12.7
 74
    0
 49
-12.7
 74
    0
  0
ENDTAB
  0
TABLE
  2
LAYER
  5
2
330
0
100
AcDbSymbolTable
 70
    1
  0
LAYER
  5
10
330
2
100
AcDbSymbolTableRecord
100
AcDbLayerTableRecord
  2
0
 70
    0
 62
    7
  6
CONTINUOUS
370
   -3
390
F
1001
LibreCad
1070
    1
  0
LAYER
  5
4A
330
2
100
AcDbSymbolTableRecord
100
AcDbLayerTableRecord
  2
brick
 70
    0
 62
   16
420
8388608
  6
CONTINUOUS
370
   35
390
F
  0
LAYER
  5
4B
330
2
100
AcDbSymbolTableRecord
100
AcDbLayerTableRecord
  2
derevo
 70
    0
 62
    2
  6
CONTINUOUS
370
   35
390
F
  0
LAYER
  5
4C
330
2
100
AcDbSymbolTableRecord
100
AcDbLayerTableRecord
  2
muerlat
 70
    0
 62
    3
  6
CONTINUOUS
370
   35
390
F
  0
LAYER
  5
4D
330
2
100
AcDbSymbolTableRecord
100
AcDbLayerTableRecord
  2
plyty
 70
    1
 62
  253
420
10526884
  6
CONTINUOUS
370
   35
390
F
  0
LAYER
  5
4E
330
2
100
AcDbSymbolTableRecord
100
AcDbLayerTableRecord
  2
rozmir
 70
    0
 62
    4
  6
CONTINUOUS
370
   13
390
F
  0
LAYER
  5
4F
330
2
100
AcDbSymbolTableRecord
100
AcDbLayerTableRecord
  2
styny
 70
    0
 62
   41
420
16376252
  6
CONTINUOUS
370
   35
390
F
  0
LAYER
  5
50
330
2
100
AcDbSymbolTableRecord
100
AcDbLayerTableRecord
  2
tekst
 70
    0
 62
  136
420
32896
  6
CONTINUOUS
370
   13
390
F
  0
ENDTAB
  0
TABLE
  2
STYLE
  5
3
330
0
100
AcDbSymbolTable
 70
    3
  0
STYLE
  5
51
330
2
100
AcDbSymbolTableRecord
100
AcDbTextStyleTableRecord
  2
cyrillic_ii
 70
    0
 40
0
 41
1
 50
0
 71
    0
 42
1
  3
cyrillic_ii
  4

  0
STYLE
  5
52
330
2
100
AcDbSymbolTableRecord
100
AcDbTextStyleTableRecord
  2
Standard
 70
    0
 40
0
 41
1
 50
0
 71
    0
 42
1
  3
txt
  4

  0
ENDTAB
  0
TABLE
  2
VIEW
  5
6
330
0
100
AcDbSymbolTable
 70
    0
  0
ENDTAB
  0
TABLE
  2
UCS
  5
7
330
0
100
AcDbSymbolTable
 70
    0
  0
ENDTAB
  0
TABLE
  2
APPID
  5
9
330
0
100
AcDbSymbolTable
 70
    1
  0
APPID
  5
12
330
9
100
AcDbSymbolTableRecord
100
AcDbRegAppTableRecord
  2
ACAD
 70
    0
  0
APPID
  5
53
330
9
100
AcDbSymbolTableRecord
100
AcDbRegAppTableRecord
  2
LibreCad
 70
    0
  0
ENDTAB
  0
TABLE
  2
DIMSTYLE
  5
A
330
0
100
AcDbSymbolTable
 70
    1
100
AcDbDimStyleTable
 71
    1
  0
DIMSTYLE
105
54
330
A
100
AcDbSymbolTableRecord
100
AcDbDimStyleTableRecord
  2
Standard
 70
    0
 40
10
 41
1
 42
0.2
 43
0.38
 44
0.5
 45
0
 46
0
 47
0
 48
0
 49
1
140
2
141
0.09
142
1
143
25.4
144
1
145
0
146
1
147
0.5
148
0
 71
    0
 72
    0
 73
    0
 74
    1
 75
    0
 76
    0
 77
    0
 78
    8
 79
    0
170
    0
171
    2
172
    0
173
    0
174
    0
175
    0
176
    0
177
    0
178
    0
179
    0
271
    1
272
    4
273
    2
274
    2
275
    0
276
    0
277
    2
278
   44
279
    0
280
    0
281
    0
282
    0
283
    1
284
    0
285
    0
286
    0
288
    0
289
    3
340
standard
341

371
   -2
372
   -2
  0
ENDTAB
  0
TABLE
  2
BLOCK_RECORD
  5
1
330
0
100
AcDbSymbolTable
 70
    2
  0
BLOCK_RECORD
  5
1F
330
1
100
AcDbSymbolTableRecord
100
AcDbBlockTableRecord
  2
*Model_Space
 70
    0
280
    1
281
    0
  0
BLOCK_RECORD
  5
1E
330
1
100
AcDbSymbolTableRecord
100
AcDbBlockTableRecord
  2
*Paper_Space
 70
    0
280
    1
281
    0
  0
BLOCK_RECORD
  5
55
330
1
100
AcDbSymbolTableRecord
100
AcDbBlockTableRecord
  2
block10
 70
    0
280
    1
281
    0
  0
ENDTAB
  0
ENDSEC
  0
SECTION
  2
BLOCKS
  0
BLOCK
  5
20
330
1F
100
AcDbEntity
  8
0
100
AcDbBlockBegin
  2
*Model_Space
 70
    0
 10
0
 20
0
 30
0
  3
*Model_Space
  1

  0
ENDBLK
  5
21
330
1F
100
AcDbEntity
  8
0
100
AcDbBlockEnd
  0
BLOCK
  5
1C
330
1B
100
AcDbEntity
  8
0
100
AcDbBlockBegin
  2
*Paper_Space
 70
    0
 10
0
 20
0
 30
0
  3
*Paper_Space
  1

  0
ENDBLK
  5
1D
330
1F
100
AcDbEntity
  8
0
100
AcDbBlockEnd
  0
BLOCK
  5
56
330
55
100
AcDbEntity
  8
0
100
AcDbBlockBegin
  2
block10
 70
    0
 10
0
 20
0
  3
block10
  1

  0
LWPOLYLINE
  5
58
100
AcDbEntity
  8
0
  6
CONTINUOUS
 62
    7
370
   70
100
AcDbPolyline
 90
   12
 70
    1
 43
0
 10
-0.6062178
 20
1
 10
0
 20
0
 10
0.6062178
 20
1
 10
1.8186533
 20
1
 10
1.2124356
 20
2
 10
1.8186533
 20
3
 10
0.6062178
 20
3
 10
0
 20
4
 10
-0.6062178
 20
3
 10
-1.8186533
 20
3
 10
-1.2124356
 20
2
 10
-1.8186533
 20
1
  0
ENDBLK
  5
57
330
55
100
AcDbEntity
  8
0
100
AcDbBlockEnd
  0
ENDSEC
  0
SECTION
  2
ENTITIES
  0
HATCH
  5
59
100
AcDbEntity
  8
styny
  6
ByLayer
 62
  256
370
   -1
100
AcDbHatch
 10
0
 20
0
 30
0
210
0
220
0
230
1
  2
gost_stone
 70
    0
 71
    0
 91
    1
 92
    0
 93
    8
 72
    1
 10
1000
 20
0
 11
0
 21
0
 72
    1
 10
0
 20
0
 11
-1.13686837721616e-13
 21
1050
 72
    1
 10
-1.13686837721616e-13
 20
1050
 11
1000
 21
1050
 72
    1
 10
988
 20
1038
 11
988
 21
12
 72
    1
 10
988
 20
12
 11
12
 21
12
 72
    1
 10
12
 20
12
 11
11.99999999999989
 21
1038
 72
    1
 10
11.99999999999989
 20
1038
 11
988
 21
1038
 72
    1
 10
1000
 20
1050
 11
1000
 21
0
 97
    0
 75
    0
 76
    1
 52
4.71238898038469
 41
1
 77
    0
 78
    0
 98
    0
  0
LWPOLYLINE
  5
5A
100
AcDbEntity
  8
plyty
  6
ByLayer
 62
  256
370
   -1
100
AcDbPolyline
 90
    6
 70
    1
 43
0
 10
1003
 20
30
 10
1003
 20
528
 10
854
 20
528
 10
854
 20
30
 10
854
 20
30
 10
854
 20
30
  0
LWPOLYLINE
  5
5B
100
AcDbEntity
  8
plyty
  6
ByLayer
 62
  256
370
   -1
100
AcDbPolyline
 90
    6
 70
    1
 43
0
 10
703
 20
30
 10
703
 20
528
 10
554
 20
528
 10
554
 20
30
 10
554
 20
30
 10
554
 20
30
  0
LWPOLYLINE
  5
5C
100
AcDbEntity
  8
plyty
  6
ByLayer
 62
  256
370
   -1
100
AcDbPolyline
 90
    5
 70
    1
 43
0
 10
853
 20
30
 10
853
 20
358
 10
704
 20
358
 10
704
 20
30
 10
704
 20
30
  0
LWPOLYLINE
  5
5D
100
AcDbEntity
  8
plyty
  6
ByLayer
 62
  256
370
   -1
100
AcDbPolyline
 90
    5
 70
    1
 43
0
 10
853
 20
360
 10
853
 20
528
 10
704
 20
528
 10
704
 20
360
 10
704
 20
360
  0
LWPOLYLINE
  5
5E
100
AcDbEntity
  8
plyty
  6
ByLayer
 62
  256
370
   -1
100
AcDbPolyline
 90
    5
 70
    1
 43
0
 10
831
 20
405
 10
831
 20
479
 10
726
 20
479
 10
726
 20
405
 10
726
 20
405
  0
LWPOLYLINE
  5
5F
100
AcDbEntity
  8
plyty
  6
ByLayer
 62
  256
370
   -1
100
AcDbPolyline
 90
    6
 70
    1
 43
0
 10
1003
 20
30
 10
1003
 20
528
 10
854
 20
528
 10
854
 20
30
 10
854
 20
30
 10
854
 20
30
  0
LWPOLYLINE
  5
60
100
AcDbEntity
  8
plyty
  6
ByLayer
 62
  256
370
   -1
100
AcDbPolyline
 90
    6
 70
    1
 43
0
 10
703
 20
30
 10
703
 20
528
 10
554
 20
528
 10
554
 20
30
 10
554
 20
30
 10
554
 20
30
  0
LWPOLYLINE
  5
61
100
AcDbEntity
  8
plyty
  6
ByLayer
 62
  256
370
   -1
100
AcDbPolyline
 90
    5
 70
    1
 43
0
 10
853
 20
30
 10
853
 20
358
 10
704
 20
358
 10
704
 20
30
 10
704
 20
30
  0
LWPOLYLINE
  5
62
100
AcDbEntity
  8
plyty
  6
ByLayer
 62
  256
370
   -1
100
AcDbPolyline
 90
    5
 70
    1
 43
0
 10
853
 20
360
 10
853
 20
528
 10
704
 20
528
 10
704
 20
360
 10
704
 20
360
  0
LWPOLYLINE
  5
63
100
AcDbEntity
  8
plyty
  6
ByLayer
 62
  256
370
   -1
100
AcDbPolyline
 90
    5
 70
    1
 43
0
 10
831
 20
405
 10
831
 20
479
 10
726
 20
479
 10
726
 20
405
 10
726
 20
405
  0
LWPOLYLINE
  5
64
100
AcDbEntity
  8
derevo
  6
ByLayer
 62
  256
370
   -1
100
AcDbPolyline
 90
    4
 70
    1
 43
0
 10
-50.00000000000006
 20
1100
 10
-50.00000000000006
 20
-50
 10
1050
 20
-50
 10
1050
 20
1100
  0
LWPOLYLINE
  5
65
100
AcDbEntity
  8
derevo
  6
ByLayer
 62
  256
370
   -1
100
AcDbPolyline
 90
    4
 70
    1
 43
0
 10
1047.5
 20
1097.5
 10
1047.5
 20
-47.5
 10
-47.50000000000006
 20
-47.5
 10
-47.50000000000017
 20
1097.5
  0
LWPOLYLINE
  5
66
100
AcDbEntity
  8
derevo
  6
ByLayer
 62
  256
370
   -1
100
AcDbPolyline
 90
    4
 70
    1
 43
0
 10
-47.50000000000028
 20
558
 10
-47.50000000000028
 20
553
 10
499.9999999999999
 20
553
 10
499.9999999999999
 20
558
  0
LWPOLYLINE
  5
67
100
AcDbEntity
  8
derevo
  6
ByLayer
 62
  256
370
   -1
100
AcDbPolyline
 90
    4
 70
    1
 43
0
 10
499.9999999999999
 20
558
 10
499.9999999999999
 20
553
 10
1047.5
 20
553
 10
1047.5
 20
558
  0
LWPOLYLINE
  5
68
100
AcDbEntity
  8
derevo
  6
ByLayer
 62
  256
370
   -1
100
AcDbPolyline
 90
    4
 70
    1
 43
0
 10
502.4999999999998
 20
1097.5
 10
502.4999999999998
 20
558
 10
497.4999999999998
 20
558
 10
497.4999999999998
 20
1097.5
  0
LWPOLYLINE
  5
69
100
AcDbEntity
  8
derevo
  6
ByLayer
 62
  256
370
   -1
100
AcDbPolyline
 90
    4
 70
    1
 43
0
 10
502.4999999999998
 20
492
 10
502.4999999999998
 20
-47.5
 10
497.4999999999998
 20
-47.5
 10
497.4999999999998
 20
492
  0
LWPOLYLINE
  5
6A
100
AcDbEntity
  8
derevo
  6
ByLayer
 62
  256
370
   -1
100
AcDbPolyline
 90
    7
 70
    0
 43
0
 10
509.6072026488568
 20
558
 10
502.4999999999999
 20
558
 10
502.4999999999998
 20
565.0354785854281
 10
1040.392797351143
 20
1097.5
 10
1047.5
 20
1097.5
 10
1047.5
 20
1090.464521414572
 10
509.6072026488568
 20
558
  0
LWPOLYLINE
  5
6B
100
AcDbEntity
  8
derevo
  6
ByLayer
 62
  256
370
   -1
100
AcDbPolyline
 90
    7
 70
    0
 43
0
 10
490.392797351143
 20
558
 10
497.4999999999999
 20
558
 10
497.5000000000001
 20
565.0354785854281
 10
-40.39279735114332
 20
1097.5
 10
-47.50000000000006
 20
1097.5
 10
-47.50000000000006
 20
1090.464521414572
 10
490.392797351143
 20
558
  0
LWPOLYLINE
  5
6C
100
AcDbEntity
  8
derevo
  6
ByLayer
 62
  256
370
   -1
100
AcDbPolyline
 90
    7
 70
    0
 43
0
 10
509.6072026488569
 20
492
 10
502.4999999999999
 20
492
 10
502.4999999999998
 20
484.9645214145721
 10
1040.392797351143
 20
-47.5
 10
1047.5
 20
-47.5
 10
1047.5
 20
-40.46452141457189
 10
509.6072026488569
 20
492
  0
LWPOLYLINE
  5
6D
100
AcDbEntity
  8
derevo
  6
ByLayer
 62
  256
370
   -1
100
AcDbPolyline
 90
    7
 70
    0
 43
0
 10
490.3927973511431
 20
492
 10
497.4999999999999
 20
492
 10
497.5000000000001
 20
484.9645214145721
 10
-40.39279735114332
 20
-47.5
 10
-47.50000000000006
 20
-47.5
 10
-47.50000000000006
 20
-40.46452141457189
 10
490.3927973511431
 20
492
  0
LINE
  5
6E
100
AcDbEntity
  8
rozmir
  6
DASHDOT2
 62
  256
370
   -1
100
AcDbLine
 10
1070
 20
525
 11
-70.00000000000006
 21
525
  0
LINE
  5
6F
100
AcDbEntity
  8
rozmir
  6
DASHDOT2
 62
  256
370
   -1
100
AcDbLine
 10
499.9999999999999
 20
1120
 11
499.9999999999999
 21
-70
  0
LWPOLYLINE
  5
70
100
AcDbEntity
  8
derevo
  6
ByLayer
 62
  256
370
   -1
100
AcDbPolyline
 90
    5
 70
    0
 43
0
 10
412.4999999999998
 20
649.17768042029
 10
417.4999999999998
 20
644.228139135887
 10
417.4999999999998
 20
1097.5
 10
412.4999999999998
 20
1097.5
 10
412.4999999999998
 20
649.17768042029
  0
LWPOLYLINE
  5
71
100
AcDbEntity
  8
derevo
  6
ByLayer
 62
  256
370
   -1
100
AcDbPolyline
 90
    5
 70
    0
 43
0
 10
409.5772273789462
 20
638
 10
404.5262542556843
 20
643
 10
-47.50000000000028
 20
643
 10
-47.50000000000028
 20
638
 10
409.5772273789462
 20
638
  0
LWPOLYLINE
  5
72
100
AcDbEntity
  8
derevo
  6
ByLayer
 62
  256
370
   -1
100
AcDbPolyline
 90
    5
 70
    0
 43
0
 10
323.7106842834875
 20
723
 10
318.6597111602254
 20
728
 10
-47.50000000000006
 20
728
 10
-47.50000000000006
 20
723
 10
323.7106842834875
 20
723
  0
LWPOLYLINE
  5
73
100
AcDbEntity
  8
derevo
  6
ByLayer
 62
  256
370
   -1
100
AcDbPolyline
 90
    5
 70
    0
 43
0
 10
327.4999999999999
 20
733.3198822551531
 10
332.4999999999999
 20
728.3703409707491
 10
332.4999999999999
 20
1097.5
 10
327.4999999999999
 20
1097.5
 10
327.4999999999999
 20
733.3198822551531
  0
LWPOLYLINE
  5
74
100
AcDbEntity
  8
derevo
  6
ByLayer
 62
  256
370
   -1
100
AcDbPolyline
 90
    5
 70
    0
 43
0
 10
242.4999999999998
 20
817.462084090015
 10
247.4999999999998
 20
812.512542805611
 10
247.4999999999998
 20
1097.499999999999
 10
242.4999999999998
 20
1097.499999999999
 10
242.4999999999998
 20
817.462084090015
  0
LWPOLYLINE
  5
75
100
AcDbEntity
  8
derevo
  6
ByLayer
 62
  256
370
   -1
100
AcDbPolyline
 90
    5
 70
    0
 43
0
 10
237.8441411880289
 20
808
 10
232.7931680647666
 20
813
 10
-47.50000000000006
 20
813
 10
-47.50000000000006
 20
808
 10
237.8441411880289
 20
808
  0
LWPOLYLINE
  5
76
100
AcDbEntity
  8
derevo
  6
ByLayer
 62
  256
370
   -1
100
AcDbPolyline
 90
    5
 70
    0
 43
0
 10
151.9775980925696
 20
893
 10
146.9266249693077
 20
898
 10
-47.50000000000006
 20
898
 10
-47.50000000000006
 20
893
 10
151.9775980925696
 20
893
  0
LWPOLYLINE
  5
77
100
AcDbEntity
  8
derevo
  6
ByLayer
 62
  256
370
   -1
100
AcDbPolyline
 90
    5
 70
    0
 43
0
 10
157.4999999999998
 20
901.6042859248771
 10
162.4999999999998
 20
896.6547446404741
 10
162.4999999999998
 20
1097.499999999999
 10
157.4999999999998
 20
1097.499999999999
 10
157.4999999999998
 20
901.6042859248771
  0
LWPOLYLINE
  5
78
100
AcDbEntity
  8
derevo
  6
ByLayer
 62
  256
370
   -1
100
AcDbPolyline
 90
    5
 70
    0
 43
0
 10
72.49999999999983
 20
985.7464877597399
 10
77.49999999999994
 20
980.796946475336
 10
77.49999999999977
 20
1097.5
 10
72.49999999999977
 20
1097.5
 10
72.49999999999983
 20
985.7464877597399
  0
LWPOLYLINE
  5
79
100
AcDbEntity
  8
derevo
  6
ByLayer
 62
  256
370
   -1
100
AcDbPolyline
 90
    5
 70
    0
 43
0
 10
66.1110549971109
 20
978
 10
61.06008187384879
 20
983
 10
-47.50000000000006
 20
983
 10
-47.50000000000006
 20
978
 10
66.1110549971109
 20
978
  0
LWPOLYLINE
  5
7A
100
AcDbEntity
  8
derevo
  6
ByLayer
 62
  256
370
   -1
100
AcDbPolyline
 90
    5
 70
    0
 43
0
 10
587.5
 20
649.17768042029
 10
582.5
 20
644.228139135887
 10
582.5
 20
1097.5
 10
587.5
 20
1097.5
 10
587.5
 20
649.17768042029
  0
LWPOLYLINE
  5
7B
100
AcDbEntity
  8
derevo
  6
ByLayer
 62
  256
370
   -1
100
AcDbPolyline
 90
    5
 70
    0
 43
0
 10
590.4227726210536
 20
638
 10
595.4737457443157
 20
643
 10
1047.5
 20
643
 10
1047.5
 20
638
 10
590.4227726210536
 20
638
  0
LWPOLYLINE
  5
7C
100
AcDbEntity
  8
derevo
  6
ByLayer
 62
  256
370
   -1
100
AcDbPolyline
 90
    5
 70
    0
 43
0
 10
676.2893157165124
 20
723
 10
681.3402888397745
 20
728
 10
1047.5
 20
728
 10
1047.5
 20
723
 10
676.2893157165124
 20
723
  0
LWPOLYLINE
  5
7D
100
AcDbEntity
  8
derevo
  6
ByLayer
 62
  256
370
   -1
100
AcDbPolyline
 90
    5
 70
    0
 43
0
 10
672.5
 20
733.3198822551531
 10
667.5
 20
728.3703409707491
 10
667.5
 20
1097.5
 10
672.5
 20
1097.5
 10
672.5
 20
733.3198822551531
  0
LWPOLYLINE
  5
7E
100
AcDbEntity
  8
derevo
  6
ByLayer
 62
  256
370
   -1
100
AcDbPolyline
 90
    5
 70
    0
 43
0
 10
757.5
 20
817.462084090015
 10
752.5
 20
812.512542805611
 10
752.5
 20
1097.499999999999
 10
757.5
 20
1097.499999999999
 10
757.5
 20
817.462084090015
  0
LWPOLYLINE
  5
7F
100
AcDbEntity
  8
derevo
  6
ByLayer
 62
  256
370
   -1
100
AcDbPolyline
 90
    5
 70
    0
 43
0
 10
762.155858811971
 20
808
 10
767.2068319352334
 20
813
 10
1047.5
 20
813
 10
1047.5
 20
808
 10
762.155858811971
 20
808
  0
LWPOLYLINE
  5
80
100
AcDbEntity
  8
derevo
  6
ByLayer
 62
  256
370
   -1
100
AcDbPolyline
 90
    5
 70
    0
 43
0
 10
848.0224019074303
 20
893
 10
853.0733750306922
 20
898
 10
1047.5
 20
898
 10
1047.5
 20
893
 10
848.0224019074303
 20
893
  0
LWPOLYLINE
  5
81
100
AcDbEntity
  8
derevo
  6
ByLayer
 62
  256
370
   -1
100
AcDbPolyline
 90
    5
 70
    0
 43
0
 10
842.5
 20
901.6042859248771
 10
837.5
 20
896.6547446404741
 10
837.5
 20
1097.499999999999
 10
842.5
 20
1097.499999999999
 10
842.5
 20
901.6042859248771
  0
LWPOLYLINE
  5
82
100
AcDbEntity
  8
derevo
  6
ByLayer
 62
  256
370
   -1
100
AcDbPolyline
 90
    5
 70
    0
 43
0
 10
927.5
 20
985.7464877597399
 10
922.5
 20
980.796946475336
 10
922.5
 20
1097.5
 10
927.5
 20
1097.5
 10
927.5
 20
985.7464877597399
  0
LWPOLYLINE
  5
83
100
AcDbEntity
  8
derevo
  6
ByLayer
 62
  256
370
   -1
100
AcDbPolyline
 90
    5
 70
    0
 43
0
 10
933.8889450028889
 20
978
 10
938.939918126151
 20
983
 10
1047.5
 20
983
 10
1047.5
 20
978
 10
933.8889450028889
 20
978
  0
LWPOLYLINE
  5
84
100
AcDbEntity
  8
derevo
  6
ByLayer
 62
  256
370
   -1
100
AcDbPolyline
 90
    5
 70
    0
 43
0
 10
412.4999999999998
 20
400.82231957971
 10
417.4999999999998
 20
405.771860864113
 10
417.4999999999998
 20
-47.5
 10
412.4999999999998
 20
-47.5
 10
412.4999999999998
 20
400.82231957971
  0
LWPOLYLINE
  5
85
100
AcDbEntity
  8
derevo
  6
ByLayer
 62
  256
370
   -1
100
AcDbPolyline
 90
    5
 70
    0
 43
0
 10
409.5772273789462
 20
412
 10
404.5262542556843
 20
407
 10
-47.50000000000028
 20
407
 10
-47.50000000000028
 20
412
 10
409.5772273789462
 20
412
  0
LWPOLYLINE
  5
86
100
AcDbEntity
  8
derevo
  6
ByLayer
 62
  256
370
   -1
100
AcDbPolyline
 90
    5
 70
    0
 43
0
 10
323.7106842834875
 20
327
 10
318.6597111602254
 20
322
 10
-47.50000000000006
 20
322
 10
-47.50000000000006
 20
327
 10
323.7106842834875
 20
327
  0
LWPOLYLINE
  5
87
100
AcDbEntity
  8
derevo
  6
ByLayer
 62
  256
370
   -1
100
AcDbPolyline
 90
    5
 70
    0
 43
0
 10
327.4999999999999
 20
316.6801177448469
 10
332.4999999999999
 20
321.6296590292509
 10
332.4999999999999
 20
-47.5
 10
327.4999999999999
 20
-47.5
 10
327.4999999999999
 20
316.6801177448469
  0
LWPOLYLINE
  5
88
100
AcDbEntity
  8
derevo
  6
ByLayer
 62
  256
370
   -1
100
AcDbPolyline
 90
    5
 70
    0
 43
0
 10
242.4999999999998
 20
232.5379159099848
 10
247.4999999999998
 20
237.4874571943878
 10
247.4999999999998
 20
-47.49999999999909
 10
242.4999999999999
 20
-47.49999999999909
 10
242.4999999999998
 20
232.5379159099848
  0
LWPOLYLINE
  5
89
100
AcDbEntity
  8
derevo
  6
ByLayer
 62
  256
370
   -1
100
AcDbPolyline
 90
    5
 70
    0
 43
0
 10
237.8441411880289
 20
242
 10
232.7931680647666
 20
237
 10
-47.50000000000006
 20
236.9999999999999
 10
-47.50000000000006
 20
241.9999999999999
 10
237.8441411880289
 20
242
  0
LWPOLYLINE
  5
8A
100
AcDbEntity
  8
derevo
  6
ByLayer
 62
  256
370
   -1
100
AcDbPolyline
 90
    5
 70
    0
 43
0
 10
151.9775980925696
 20
157
 10
146.9266249693077
 20
152
 10
-47.50000000000006
 20
151.9999999999999
 10
-47.50000000000006
 20
156.9999999999999
 10
151.9775980925696
 20
157
  0
LWPOLYLINE
  5
8B
100
AcDbEntity
  8
derevo
  6
ByLayer
 62
  256
370
   -1
100
AcDbPolyline
 90
    5
 70
    0
 43
0
 10
157.4999999999996
 20
148.3957140751231
 10
162.4999999999996
 20
153.3452553595262
 10
162.4999999999997
 20
-47.49999999999909
 10
157.4999999999997
 20
-47.49999999999909
 10
157.4999999999996
 20
148.3957140751231
  0
LWPOLYLINE
  5
8C
100
AcDbEntity
  8
derevo
  6
ByLayer
 62
  256
370
   -1
100
AcDbPolyline
 90
    5
 70
    0
 43
0
 10
72.4999999999996
 20
64.25351224026008
 10
77.49999999999994
 20
69.20305352466403
 10
77.49999999999966
 20
-47.5
 10
72.49999999999966
 20
-47.5
 10
72.4999999999996
 20
64.25351224026008
  0
LWPOLYLINE
  5
8D
100
AcDbEntity
  8
derevo
  6
ByLayer
 62
  256
370
   -1
100
AcDbPolyline
 90
    5
 70
    0
 43
0
 10
66.11105499711113
 20
72
 10
61.06008187384879
 20
67
 10
-47.50000000000006
 20
66.99999999999994
 10
-47.50000000000006
 20
71.99999999999994
 10
66.11105499711113
 20
72
  0
LWPOLYLINE
  5
8E
100
AcDbEntity
  8
derevo
  6
ByLayer
 62
  256
370
   -1
100
AcDbPolyline
 90
    5
 70
    0
 43
0
 10
587.5
 20
400.82231957971
 10
582.5
 20
405.771860864113
 10
582.5
 20
-47.5
 10
587.5
 20
-47.5
 10
587.5
 20
400.82231957971
  0
LWPOLYLINE
  5
8F
100
AcDbEntity
  8
derevo
  6
ByLayer
 62
  256
370
   -1
100
AcDbPolyline
 90
    5
 70
    0
 43
0
 10
590.4227726210536
 20
412
 10
595.4737457443157
 20
407
 10
1047.5
 20
407
 10
1047.5
 20
412
 10
590.4227726210536
 20
412
  0
LWPOLYLINE
  5
90
100
AcDbEntity
  8
derevo
  6
ByLayer
 62
  256
370
   -1
100
AcDbPolyline
 90
    5
 70
    0
 43
0
 10
676.2893157165124
 20
327
 10
681.3402888397745
 20
322
 10
1047.5
 20
322
 10
1047.5
 20
327
 10
676.2893157165124
 20
327
  0
LWPOLYLINE
  5
91
100
AcDbEntity
  8
derevo
  6
ByLayer
 62
  256
370
   -1
100
AcDbPolyline
 90
    5
 70
    0
 43
0
 10
672.5
 20
316.6801177448469
 10
667.5
 20
321.6296590292509
 10
667.5
 20
-47.5
 10
672.5
 20
-47.5
 10
672.5
 20
316.6801177448469
  0
LWPOLYLINE
  5
92
100
AcDbEntity
  8
derevo
  6
ByLayer
 62
  256
370
   -1
100
AcDbPolyline
 90
    5
 70
    0
 43
0
 10
757.5000000000002
 20
232.5379159099848
 10
752.5000000000002
 20
237.4874571943878
 10
752.5000000000002
 20
-47.49999999999909
 10
757.5000000000002
 20
-47.49999999999909
 10
757.5000000000002
 20
232.5379159099848
  0
LWPOLYLINE
  5
93
100
AcDbEntity
  8
derevo
  6
ByLayer
 62
  256
370
   -1
100
AcDbPolyline
 90
    5
 70
    0
 43
0
 10
762.155858811971
 20
242
 10
767.2068319352334
 20
237
 10
1047.5
 20
237.0000000000001
 10
1047.5
 20
242.0000000000001
 10
762.155858811971
 20
242
  0
LWPOLYLINE
  5
94
100
AcDbEntity
  8
derevo
  6
ByLayer
 62
  256
370
   -1
100
AcDbPolyline
 90
    5
 70
    0
 43
0
 10
848.0224019074303
 20
157
 10
853.0733750306922
 20
152
 10
1047.5
 20
152.0000000000001
 10
1047.5
 20
157.0000000000001
 10
848.0224019074303
 20
157
  0
LWPOLYLINE
  5
95
100
AcDbEntity
  8
derevo
  6
ByLayer
 62
  256
370
   -1
100
AcDbPolyline
 90
    5
 70
    0
 43
0
 10
842.5
 20
148.3957140751231
 10
837.5000000000002
 20
153.3452553595262
 10
837.5000000000002
 20
-47.49999999999909
 10
842.5000000000002
 20
-47.49999999999909
 10
842.5
 20
148.3957140751231
  0
LWPOLYLINE
  5
96
100
AcDbEntity
  8
derevo
  6
ByLayer
 62
  256
370
   -1
100
AcDbPolyline
 90
    5
 70
    0
 43
0
 10
927.5
 20
64.25351224026008
 10
922.5
 20
69.20305352466403
 10
922.5000000000002
 20
-47.5
 10
927.5000000000002
 20
-47.5
 10
927.5
 20
64.25351224026008
  0
LWPOLYLINE
  5
97
100
AcDbEntity
  8
derevo
  6
ByLayer
 62
  256
370
   -1
100
AcDbPolyline
 90
    5
 70
    0
 43
0
 10
933.8889450028889
 20
72
 10
938.939918126151
 20
67
 10
1047.5
 20
67.00000000000006
 10
1047.5
 20
72.00000000000006
 10
933.8889450028889
 20
72
  0
LWPOLYLINE
  5
98
100
AcDbEntity
  8
derevo
  6
ByLayer
 62
  256
370
   -1
100
AcDbPolyline
 90
    4
 70
    1
 43
0
 10
-47.50000000000028
 20
491.9999999999999
 10
-47.50000000000028
 20
496.9999999999999
 10
499.9999999999999
 20
497
 10
499.9999999999999
 20
492
  0
LWPOLYLINE
  5
99
100
AcDbEntity
  8
derevo
  6
ByLayer
 62
  256
370
   -1
100
AcDbPolyline
 90
    4
 70
    1
 43
0
 10
499.9999999999999
 20
492
 10
499.9999999999999
 20
497
 10
1047.5
 20
497.0000000000001
 10
1047.5
 20
492.0000000000001
  0
LWPOLYLINE
  5
9A
100
AcDbEntity
  8
derevo
  6
ByLayer
 62
  256
370
   -1
100
AcDbPolyline
 90
    4
 70
    1
 43
0
 10
507.4999999999998
 20
497
 10
507.4999999999998
 20
482
 10
492.4999999999998
 20
482
 10
492.4999999999998
 20
497
  0
LWPOLYLINE
  5
9B
100
AcDbEntity
  8
derevo
  6
ByLayer
 62
  256
370
   -1
100
AcDbPolyline
 90
    4
 70
    1
 43
0
 10
507.4999999999998
 20
553
 10
507.4999999999998
 20
568
 10
492.4999999999998
 20
568
 10
492.4999999999998
 20
553
  0
LWPOLYLINE
  5
9C
100
AcDbEntity
  8
muerlat
  6
ByLayer
 62
  256
370
   -1
100
AcDbPolyline
 90
    4
 70
    1
 43
0
 10
983
 20
1033.99999999999
 10
983
 20
1019
 10
16.99999999999989
 20
1019
 10
16.99999999999989
 20
1033.99999999999
  0
LWPOLYLINE
  5
9D
100
AcDbEntity
  8
muerlat
  6
ByLayer
 62
  256
370
   -1
100
AcDbPolyline
 90
    4
 70
    1
 43
0
 10
17
 20
15.99999999999994
 10
17
 20
30.99999999999994
 10
983
 20
31.00000000000006
 10
983
 20
16.00000000000006
  0
LWPOLYLINE
  5
9E
100
AcDbEntity
  8
muerlat
  6
ByLayer
 62
  256
370
   -1
100
AcDbPolyline
 90
    4
 70
    1
 43
0
 10
983
 20
31.00000000000006
 10
983
 20
1019
 10
968
 20
1019
 10
968
 20
31.00000000000006
  0
LWPOLYLINE
  5
9F
100
AcDbEntity
  8
muerlat
  6
ByLayer
 62
  256
370
   -1
100
AcDbPolyline
 90
    4
 70
    1
 43
0
 10
16.99999999999989
 20
1019
 10
17
 20
30.99999999999994
 10
32
 20
30.99999999999994
 10
31.99999999999989
 20
1019
  0
LWPOLYLINE
  5
A0
100
AcDbEntity
  8
styny
  6
ByLayer
 62
  256
370
   -1
100
AcDbPolyline
 90
    4
 70
    1
 43
0
 10
1000
 20
1050
 10
1000
 20
0
 10
0
 20
0
 10
-1.13686837721616e-13
 20
1050
  0
LWPOLYLINE
  5
A1
100
AcDbEntity
  8
styny
  6
ByLayer
 62
  256
370
   -1
100
AcDbPolyline
 90
    4
 70
    1
 43
0
 10
12
 20
12
 10
11.99999999999989
 20
1038
 10
988
 20
1038
 10
988
 20
12
  0
LWPOLYLINE
  5
A2
100
AcDbEntity
  8
muerlat
  6
ByLayer
 62
  256
370
   -1
100
AcDbPolyline
 90
    4
 70
    1
 43
0
 10
649
 20
345
 10
649
 20
705
 10
659
 20
705
 10
659
 20
345
  0
LWPOLYLINE
  5
A3
100
AcDbEntity
  8
muerlat
  6
ByLayer
 62
  256
370
   -1
100
AcDbPolyline
 90
    4
 70
    1
 43
0
 10
340.9999999999999
 20
345
 10
340.9999999999999
 20
705
 10
350.9999999999999
 20
705
 10
350.9999999999999
 20
345
  0
LWPOLYLINE
  5
A4
100
AcDbEntity
  8
muerlat
  6
ByLayer
 62
  256
370
   -1
100
AcDbPolyline
 90
    4
 70
    1
 43
0
 10
659
 20
715
 10
659
 20
705
 10
340.9999999999999
 20
705
 10
340.9999999999999
 20
715
  0
LWPOLYLINE
  5
A5
100
AcDbEntity
  8
muerlat
  6
ByLayer
 62
  256
370
   -1
100
AcDbPolyline
 90
    4
 70
    1
 43
0
 10
659
 20
345
 10
659
 20
335
 10
340.9999999999999
 20
335
 10
340.9999999999999
 20
345
  0
LWPOLYLINE
  5
A6
100
AcDbEntity
  8
muerlat
  6
ByLayer
 62
  256
370
   -1
100
AcDbPolyline
 90
    4
 70
    1
 43
0
 10
822
 20
185
 10
822
 20
865
 10
812
 20
865
 10
812
 20
185
  0
LWPOLYLINE
  5
A7
100
AcDbEntity
  8
muerlat
  6
ByLayer
 62
  256
370
   -1
100
AcDbPolyline
 90
    4
 70
    1
 43
0
 10
187.9999999999999
 20
185
 10
187.9999999999999
 20
865
 10
177.9999999999999
 20
865
 10
177.9999999999999
 20
185
  0
LWPOLYLINE
  5
A8
100
AcDbEntity
  8
muerlat
  6
ByLayer
 62
  256
370
   -1
100
AcDbPolyline
 90
    4
 70
    1
 43
0
 10
822
 20
875
 10
822
 20
865
 10
177.9999999999999
 20
865
 10
177.9999999999999
 20
875
  0
LWPOLYLINE
  5
A9
100
AcDbEntity
  8
muerlat
  6
ByLayer
 62
  256
370
   -1
100
AcDbPolyline
 90
    4
 70
    1
 43
0
 10
177.9999999999999
 20
175
 10
177.9999999999999
 20
185
 10
822
 20
185
 10
822
 20
175
  0
LWPOLYLINE
  5
AA
100
AcDbEntity
  8
brick
  6
ByLayer
 62
  256
370
   -1
100
AcDbPolyline
 90
    7
 70
    0
 43
0
 10
467.9999999999999
 20
550.5
 10
546
 20
550.5
 10
546
 20
486.5
 10
507.9999999999999
 20
486.5
 10
507.9999999999999
 20
499.5
 10
467.9999999999999
 20
499.5
 10
467.9999999999999
 20
550.5
  0
LWPOLYLINE
  5
AB
100
AcDbEntity
  8
brick
  6
ByLayer
 62
  256
370
   -1
100
AcDbPolyline
 90
    4
 70
    1
 43
0
 10
467.9999999999999
 20
550.5
 10
467.9999999999999
 20
499.5
 10
532
 20
499.5
 10
532
 20
550.5
  0
CIRCLE
  5
AC
100
AcDbEntity
  8
rozmir
  6
ByLayer
 62
  256
370
   -1
100
AcDbCircle
 10
670
 20
870
 40
8
  0
CIRCLE
  5
AD
100
AcDbEntity
  8
rozmir
  6
ByLayer
 62
  256
370
   -1
100
AcDbCircle
 10
817
 20
870
 40
8
  0
CIRCLE
  5
AE
100
AcDbEntity
  8
rozmir
  6
ByLayer
 62
  256
370
   -1
100
AcDbCircle
 10
585
 20
870
 40
8
  0
CIRCLE
  5
AF
100
AcDbEntity
  8
rozmir
  6
ByLayer
 62
  256
370
   -1
100
AcDbCircle
 10
499.9999999999999
 20
870
 40
8
  0
CIRCLE
  5
B0
100
AcDbEntity
  8
rozmir
  6
ByLayer
 62
  256
370
   -1
100
AcDbCircle
 10
414.9999999999999
 20
870
 40
8
  0
CIRCLE
  5
B1
100
AcDbEntity
  8
rozmir
  6
ByLayer
 62
  256
370
   -1
100
AcDbCircle
 10
329.9999999999999
 20
870
 40
8
  0
CIRCLE
  5
B2
100
AcDbEntity
  8
rozmir
  6
ByLayer
 62
  256
370
   -1
100
AcDbCircle
 10
182.9999999999999
 20
870
 40
8
  0
CIRCLE
  5
B3
100
AcDbEntity
  8
rozmir
  6
ByLayer
 62
  256
370
   -1
100
AcDbCircle
 10
182.9999999999999
 20
725
 40
8
  0
CIRCLE
  5
B4
100
AcDbEntity
  8
rozmir
  6
ByLayer
 62
  256
370
   -1
100
AcDbCircle
 10
182.9999999999999
 20
640
 40
8
  0
CIRCLE
  5
B5
100
AcDbEntity
  8
rozmir
  6
ByLayer
 62
  256
370
   -1
100
AcDbCircle
 10
182.9999999999999
 20
555
 40
8
  0
CIRCLE
  5
B6
100
AcDbEntity
  8
rozmir
  6
ByLayer
 62
  256
370
   -1
100
AcDbCircle
 10
182.9999999999999
 20
494
 40
8
  0
CIRCLE
  5
B7
100
AcDbEntity
  8
rozmir
  6
ByLayer
 62
  256
370
   -1
100
AcDbCircle
 10
182.9999999999999
 20
410
 40
8
  0
CIRCLE
  5
B8
100
AcDbEntity
  8
rozmir
  6
ByLayer
 62
  256
370
   -1
100
AcDbCircle
 10
182.9999999999999
 20
325
 40
8
  0
CIRCLE
  5
B9
100
AcDbEntity
  8
rozmir
  6
ByLayer
 62
  256
370
   -1
100
AcDbCircle
 10
182.9999999999999
 20
180
 40
8
  0
CIRCLE
  5
BA
100
AcDbEntity
  8
rozmir
  6
ByLayer
 62
  256
370
   -1
100
AcDbCircle
 10
329.9999999999999
 20
180
 40
8
  0
CIRCLE
  5
BB
100
AcDbEntity
  8
rozmir
  6
ByLayer
 62
  256
370
   -1
100
AcDbCircle
 10
414.9999999999999
 20
180
 40
8
  0
CIRCLE
  5
BC
100
AcDbEntity
  8
rozmir
  6
ByLayer
 62
  256
370
   -1
100
AcDbCircle
 10
499.9999999999999
 20
180
 40
8
  0
CIRCLE
  5
BD
100
AcDbEntity
  8
rozmir
  6
ByLayer
 62
  256
370
   -1
100
AcDbCircle
 10
585
 20
180
 40
8
  0
CIRCLE
  5
BE
100
AcDbEntity
  8
rozmir
  6
ByLayer
 62
  256
370
   -1
100
AcDbCircle
 10
670
 20
180
 40
8
  0
CIRCLE
  5
BF
100
AcDbEntity
  8
rozmir
  6
ByLayer
 62
  256
370
   -1
100
AcDbCircle
 10
817
 20
725
 40
8
  0
CIRCLE
  5
C0
100
AcDbEntity
  8
rozmir
  6
ByLayer
 62
  256
370
   -1
100
AcDbCircle
 10
817
 20
640
 40
8
  0
CIRCLE
  5
C1
100
AcDbEntity
  8
rozmir
  6
ByLayer
 62
  256
370
   -1
100
AcDbCircle
 10
817
 20
555
 40
8
  0
CIRCLE
  5
C2
100
AcDbEntity
  8
rozmir
  6
ByLayer
 62
  256
370
   -1
100
AcDbCircle
 10
817
 20
494
 40
8
  0
CIRCLE
  5
C3
100
AcDbEntity
  8
rozmir
  6
ByLayer
 62
  256
370
   -1
100
AcDbCircle
 10
817
 20
410
 40
8
  0
CIRCLE
  5
C4
100
AcDbEntity
  8
rozmir
  6
ByLayer
 62
  256
370
   -1
100
AcDbCircle
 10
817
 20
325
 40
8
  0
CIRCLE
  5
C5
100
AcDbEntity
  8
rozmir
  6
ByLayer
 62
  256
370
   -1
100
AcDbCircle
 10
817
 20
180
 40
8
  0
CIRCLE
  5
C6
100
AcDbEntity
  8
tekst
  6
ByLayer
 62
  256
370
   -1
100
AcDbCircle
 10
500
 20
1160
 40
30
  0
MTEXT
  5
C7
100
AcDbEntity
  8
tekst
  6
ByLayer
 62
  256
370
   -1
100
AcDbMText
 10
500
 20
1160
 30
0
 40
40
 41
8.888888888888889
 71
    5
 72
    1
  1
1
  7
cyrillic_ii
210
0
220
0
230
1
 50
360
 73
    2
 44
1
  0
CIRCLE
  5
C8
100
AcDbEntity
  8
tekst
  6
ByLayer
 62
  256
370
   -1
100
AcDbCircle
 10
410
 20
1160
 40
30
  0
MTEXT
  5
C9
100
AcDbEntity
  8
tekst
  6
ByLayer
 62
  256
370
   -1
100
AcDbMText
 10
410
 20
1160
 30
0
 40
40
 41
17.77777777777778
 71
    5
 72
    1
  1
2
  7
cyrillic_ii
210
0
220
0
230
1
 50
360
 73
    2
 44
1
  0
CIRCLE
  5
CA
100
AcDbEntity
  8
tekst
  6
ByLayer
 62
  256
370
   -1
100
AcDbCircle
 10
330
 20
1160
 40
30
  0
MTEXT
  5
CB
100
AcDbEntity
  8
tekst
  6
ByLayer
 62
  256
370
   -1
100
AcDbMText
 10
330
 20
1160
 30
0
 40
40
 41
17.77777777778026
 71
    5
 72
    1
  1
3
  7
cyrillic_ii
210
0
220
0
230
1
 50
360
 73
    2
 44
1
  0
CIRCLE
  5
CC
100
AcDbEntity
  8
tekst
  6
ByLayer
 62
  256
370
   -1
100
AcDbCircle
 10
240
 20
1160
 40
30
  0
MTEXT
  5
CD
100
AcDbEntity
  8
tekst
  6
ByLayer
 62
  256
370
   -1
100
AcDbMText
 10
240
 20
1160
 30
0
 40
40
 41
22.22222222222222
 71
    5
 72
    1
  1
4
  7
cyrillic_ii
210
0
220
0
230
1
 50
360
 73
    2
 44
1
  0
CIRCLE
  5
CE
100
AcDbEntity
  8
tekst
  6
ByLayer
 62
  256
370
   -1
100
AcDbCircle
 10
160
 20
1160
 40
30
  0
MTEXT
  5
CF
100
AcDbEntity
  8
tekst
  6
ByLayer
 62
  256
370
   -1
100
AcDbMText
 10
160
 20
1160
 30
0
 40
40
 41
17.77777777778026
 71
    5
 72
    1
  1
5
  7
cyrillic_ii
210
0
220
0
230
1
 50
360
 73
    2
 44
1
  0
CIRCLE
  5
D0
100
AcDbEntity
  8
tekst
  6
ByLayer
 62
  256
370
   -1
100
AcDbCircle
 10
70
 20
1160
 40
30
  0
MTEXT
  5
D1
100
AcDbEntity
  8
tekst
  6
ByLayer
 62
  256
370
   -1
100
AcDbMText
 10
70
 20
1160
 30
0
 40
40
 41
17.77777777778026
 71
    5
 72
    1
  1
6
  7
cyrillic_ii
210
0
220
0
230
1
 50
360
 73
    2
 44
1
  0
CIRCLE
  5
D2
100
AcDbEntity
  8
tekst
  6
ByLayer
 62
  256
370
   -1
100
AcDbCircle
 10
-110
 20
1160
 40
30
  0
MTEXT
  5
D3
100
AcDbEntity
  8
tekst
  6
ByLayer
 62
  256
370
   -1
100
AcDbMText
 10
-110
 20
1160
 30
0
 40
40
 41
17.77777777777778
 71
    5
 72
    1
  1
7
  7
cyrillic_ii
210
0
220
0
230
1
 50
360
 73
    2
 44
1
  0
CIRCLE
  5
D4
100
AcDbEntity
  8
tekst
  6
ByLayer
 62
  256
370
   -1
100
AcDbCircle
 10
-110
 20
980
 40
30
  0
MTEXT
  5
D5
100
AcDbEntity
  8
tekst
  6
ByLayer
 62
  256
370
   -1
100
AcDbMText
 10
-110
 20
980
 30
0
 40
40
 41
17.77777777777778
 71
    5
 72
    1
  1
8
  7
cyrillic_ii
210
0
220
0
230
1
 50
360
 73
    2
 44
1
  0
CIRCLE
  5
D6
100
AcDbEntity
  8
tekst
  6
ByLayer
 62
  256
370
   -1
100
AcDbCircle
 10
-110
 20
890
 40
30
  0
MTEXT
  5
D7
100
AcDbEntity
  8
tekst
  6
ByLayer
 62
  256
370
   -1
100
AcDbMText
 10
-110
 20
890
 30
0
 40
40
 41
17.77777777778026
 71
    5
 72
    1
  1
9
  7
cyrillic_ii
210
0
220
0
230
1
 50
360
 73
    2
 44
1
  0
CIRCLE
  5
D8
100
AcDbEntity
  8
tekst
  6
ByLayer
 62
  256
370
   -1
100
AcDbCircle
 10
-110
 20
810
 40
30
  0
MTEXT
  5
D9
100
AcDbEntity
  8
tekst
  6
ByLayer
 62
  256
370
   -1
100
AcDbMText
 10
-110
 20
810
 30
0
 40
40
 41
40
 71
    5
 72
    1
  1
10
  7
cyrillic_ii
210
0
220
0
230
1
 50
360
 73
    2
 44
1
  0
CIRCLE
  5
DA
100
AcDbEntity
  8
tekst
  6
ByLayer
 62
  256
370
   -1
100
AcDbCircle
 10
-110
 20
720
 40
30
  0
MTEXT
  5
DB
100
AcDbEntity
  8
tekst
  6
ByLayer
 62
  256
370
   -1
100
AcDbMText
 10
-110
 20
720
 30
0
 40
40
 41
31.11111111111112
 71
    5
 72
    1
  1
11
  7
cyrillic_ii
210
0
220
0
230
1
 50
360
 73
    2
 44
1
  0
CIRCLE
  5
DC
100
AcDbEntity
  8
tekst
  6
ByLayer
 62
  256
370
   -1
100
AcDbCircle
 10
-110
 20
640
 40
30
  0
MTEXT
  5
DD
100
AcDbEntity
  8
tekst
  6
ByLayer
 62
  256
370
   -1
100
AcDbMText
 10
-110
 20
640
 30
0
 40
40
 41
40
 71
    5
 72
    1
  1
12
  7
cyrillic_ii
210
0
220
0
230
1
 50
360
 73
    2
 44
1
  0
CIRCLE
  5
DE
100
AcDbEntity
  8
tekst
  6
ByLayer
 62
  256
370
   -1
100
AcDbCircle
 10
-110
 20
550
 40
30
  0
MTEXT
  5
DF
100
AcDbEntity
  8
tekst
  6
ByLayer
 62
  256
370
   -1
100
AcDbMText
 10
-110
 20
550
 30
0
 40
40
 41
40.00000000000249
 71
    5
 72
    1
  1
13
  7
cyrillic_ii
210
0
220
0
230
1
 50
360
 73
    2
 44
1
  0
MTEXT
  5
E0
100
AcDbEntity
  8
tekst
  6
ByLayer
 62
  256
370
   -1
100
AcDbMText
 10
500
 20
1300
 30
0
 40
50
 41
765.2777777777801
 71
    5
 72
    1
  1
Розташування кроков
  7
cyrillic_ii
210
0
220
0
230
1
 50
0
 73
    2
 44
1
  0
LINE
  5
E1
100
AcDbEntity
  8
tekst
  6
ByLayer
 62
  256
370
   -1
100
AcDbLine
 10
110
 20
1260
 11
890
 21
1260
  0
MTEXT
  5
E2
100
AcDbEntity
  8
tekst
  6
ByLayer
 62
  256
370
   -1
100
AcDbMText
 10
1100
 20
-300
 30
0
 40
50
 41
231.9444444444499
 71
    6
 72
    1
  1
Стр. 15
  7
cyrillic_ii
210
0
220
0
230
1
 50
0
 73
    2
 44
1
  0
MTEXT
  5
E3
100
AcDbEntity
  8
tekst
  6
ByLayer
 62
  256
370
   -1
100
AcDbMText
 10
-100
 20
-200
 30
0
 40
30
 41
931.6666666666707
 71
    7
 72
    1
  1
Колами позначені місця встановлення опор.\P
  7
cyrillic_ii
210
0
220
0
230
1
 50
0
 73
    2
 44
1
  0
ENDSEC
  0
SECTION
  2
OBJECTS
  0
DICTIONARY
  5
C
330
0
100
AcDbDictionary
281
    1
  3
ACAD_GROUP
350
D
  0
DICTIONARY
  5
D
330
C
100
AcDbDictionary
281
    1
  0
ENDSEC
  0
EOF
