999
dxfrw 0.6.3
  0
SECTION
  2
HEADER
  9
$ACADVER
  1
AC1021
  9
$DWGCODEPAGE
  3
ANSI_1252
  9
$INSBASE
 10
0
 20
0
 30
0
  9
$EXTMIN
 10
-39.5
 20
-258.3333333333333
 30
0
  9
$EXTMAX
 10
430.5555555555575
 20
105
 30
0
  9
$LIMMIN
 10
0
 20
0
  9
$LIMMAX
 10
420
 20
297
  9
$ORTHOMODE
 70
    0
  9
$REGENMODE
 70
    1
  9
$FILLMODE
 70
    1
  9
$QTEXTMODE
 70
    0
  9
$MIRRTEXT
 70
    0
  9
$LTSCALE
 40
1
  9
$ATTMODE
 70
    0
  9
$TEXTSIZE
 40
2.5
  9
$TRACEWID
 40
15.68
  9
$TEXTSTYLE
  7
STANDARD
  9
$CLAYER
  8
skhody
  9
$CELTYPE
  6
BYLAYER
  9
$CECOLOR
 62
  256
  9
$CELTSCALE
 40
1
  9
$DISPSILH
 70
    0
  9
$DIMSCALE
 40
5
  9
$DIMASZ
 40
1
  9
$DIMEXO
 40
0.2
  9
$DIMDLI
 40
3.75
  9
$DIMRND
 40
0
  9
$DIMDLE
 40
0
  9
$DIMEXE
 40
0.5
  9
$DIMTP
 40
0
  9
$DIMTM
 40
0
  9
$DIMTXT
 40
1
  9
$DIMCEN
 40
2.5
  9
$DIMTSZ
 40
0
  9
$DIMTOL
 70
    0
  9
$DIMLIM
 70
    0
  9
$DIMTIH
 70
    0
  9
$DIMTOH
 70
    0
  9
$DIMSE1
 70
    0
  9
$DIMSE2
 70
    0
  9
$DIMTAD
 70
    1
  9
$DIMZIN
 70
    8
  9
$DIMBLK
  1

  9
$DIMASO
 70
    1
  9
$DIMSHO
 70
    1
  9
$DIMPOST
  1

  9
$DIMAPOST
  1

  9
$DIMALT
 70
    0
  9
$DIMALTD
 70
    3
  9
$DIMALTF
 40
0.03937
  9
$DIMLFAC
 40
1
  9
$DIMTOFL
 70
    1
  9
$DIMTVP
 40
0
  9
$DIMTIX
 70
    0
  9
$DIMSOXD
 70
    0
  9
$DIMSAH
 70
    0
  9
$DIMBLK1
  1

  9
$DIMBLK2
  1

  9
$DIMSTYLE
  2
STANDARD
  9
$DIMCLRD
 70
    0
  9
$DIMCLRE
 70
    0
  9
$DIMCLRT
 70
    0
  9
$DIMTFAC
 40
1
  9
$DIMGAP
 40
0.5
  9
$DIMJUST
 70
    0
  9
$DIMSD1
 70
    0
  9
$DIMSD2
 70
    0
  9
$DIMTOLJ
 70
    0
  9
$DIMTZIN
 70
    8
  9
$DIMALTZ
 70
    0
  9
$DIMALTTZ
 70
    0
  9
$DIMUPT
 70
    0
  9
$DIMDEC
 70
    1
  9
$DIMTDEC
 70
    2
  9
$DIMALTU
 70
    2
  9
$DIMALTTD
 70
    3
  9
$DIMTXSTY
  7
standard
  9
$DIMAUNIT
 70
    0
  9
$DIMADEC
 70
    0
  9
$DIMALTRND
 40
0
  9
$DIMAZIN
 70
    0
  9
$DIMDSEP
 70
   44
  9
$DIMATFIT
 70
    3
  9
$DIMFRAC
 70
    0
  9
$DIMLDRBLK
  1
STANDARD
  9
$DIMLUNIT
 70
    2
  9
$DIMLWD
 70
   -2
  9
$DIMLWE
 70
   -2
  9
$DIMTMOVE
 70
    0
  9
$DIMFXL
 40
1
  9
$DIMFXLON
 70
    0
  9
$DIMJOGANG
 40
0.7854
  9
$DIMTFILL
 70
    0
  9
$DIMTFILLCLR
 70
    0
  9
$DIMARCSYM
 70
    0
  9
$DIMLTYPE
  6

  9
$DIMLTEX1
  6

  9
$DIMLTEX2
  6

  9
$LUNITS
 70
    2
  9
$LUPREC
 70
    2
  9
$SKETCHINC
 40
1
  9
$FILLETRAD
 40
0
  9
$AUNITS
 70
    0
  9
$AUPREC
 70
    2
  9
$MENU
  1
.
  9
$ELEVATION
 40
0
  9
$PELEVATION
 40
0
  9
$THICKNESS
 40
0
  9
$LIMCHECK
 70
    0
  9
$CHAMFERA
 40
0
  9
$CHAMFERB
 40
0
  9
$CHAMFERC
 40
0
  9
$CHAMFERD
 40
0
  9
$SKPOLY
 70
    0
  9
$USRTIMER
 70
    1
  9
$ANGBASE
 50
0
  9
$ANGDIR
 70
    0
  9
$PDMODE
 70
   34
  9
$PDSIZE
 40
0
  9
$PLINEWID
 40
0
  9
$SPLFRAME
 70
    0
  9
$SPLINETYPE
 70
    2
  9
$SPLINESEGS
 70
    8
  9
$HANDSEED
  5
20000
  9
$SURFTAB1
 70
    6
  9
$SURFTAB2
 70
    6
  9
$SURFTYPE
 70
    6
  9
$SURFU
 70
    6
  9
$SURFV
 70
    6
  9
$UCSBASE
  2

  9
$UCSNAME
  2

  9
$UCSORG
 10
0
 20
0
 30
0
  9
$UCSXDIR
 10
1
 20
0
 30
0
  9
$UCSYDIR
 10
0
 20
1
 30
0
  9
$UCSORTHOREF
  2

  9
$UCSORTHOVIEW
 70
    0
  9
$UCSORGTOP
 10
0
 20
0
 30
0
  9
$UCSORGBOTTOM
 10
0
 20
0
 30
0
  9
$UCSORGLEFT
 10
0
 20
0
 30
0
  9
$UCSORGRIGHT
 10
0
 20
0
 30
0
  9
$UCSORGFRONT
 10
0
 20
0
 30
0
  9
$UCSORGBACK
 10
0
 20
0
 30
0
  9
$PUCSBASE
  2

  9
$PUCSNAME
  2

  9
$PUCSORG
 10
0
 20
0
 30
0
  9
$PUCSXDIR
 10
1
 20
0
 30
0
  9
$PUCSYDIR
 10
0
 20
1
 30
0
  9
$PUCSORTHOREF
  2

  9
$PUCSORTHOVIEW
 70
    0
  9
$PUCSORGTOP
 10
0
 20
0
 30
0
  9
$PUCSORGBOTTOM
 10
0
 20
0
 30
0
  9
$PUCSORGLEFT
 10
0
 20
0
 30
0
  9
$PUCSORGRIGHT
 10
0
 20
0
 30
0
  9
$PUCSORGFRONT
 10
0
 20
0
 30
0
  9
$PUCSORGBACK
 10
0
 20
0
 30
0
  9
$USERI1
 70
    0
  9
$USERI2
 70
    0
  9
$USERI3
 70
    0
  9
$USERI4
 70
    0
  9
$USERI5
 70
    0
  9
$USERR1
 40
0
  9
$USERR2
 40
0
  9
$USERR3
 40
0
  9
$USERR4
 40
0
  9
$USERR5
 40
0
  9
$WORLDVIEW
 70
    1
  9
$SHADEDGE
 70
    3
  9
$SHADEDIF
 70
   70
  9
$TILEMODE
 70
    1
  9
$MAXACTVP
 70
   64
  9
$PINSBASE
 10
10.32063559322034
 20
4.463983050847458
 30
0
  9
$PLIMCHECK
 70
    0
  9
$PEXTMIN
 10
0
 20
0
 30
0
  9
$PEXTMAX
 10
0
 20
0
 30
0
  9
$GRIDMODE
 70
    1
  9
$SNAPSTYLE
 70
    0
  9
$GRIDUNIT
 10
0
 20
0
  9
$PLIMMIN
 10
0
 20
0
  9
$PLIMMAX
 10
29.7
 20
21
  9
$UNITMODE
 70
    0
  9
$VISRETAIN
 70
    1
  9
$PLINEGEN
 70
    0
  9
$PSLTSCALE
 70
    1
  9
$TREEDEPTH
 70
 3020
  9
$CMLSTYLE
  2
Standard
  9
$CMLJUST
 70
    0
  9
$CMLSCALE
 40
20
  9
$PROXYGRAPHICS
 70
    1
  9
$MEASUREMENT
 70
    1
  9
$CELWEIGHT
370
   -1
  9
$ENDCAPS
280
    0
  9
$JOINSTYLE
280
    0
  9
$LWDISPLAY
290
    0
  9
$INSUNITS
 70
    5
  9
$HYPERLINKBASE
  1

  9
$STYLESHEET
  1

  9
$XEDIT
290
    1
  9
$CEPSNTYPE
380
    0
  9
$PSTYLEMODE
290
    1
  9
$EXTNAMES
290
    1
  9
$PSVPSCALE
 40
0.009406806765375426
  9
$OLESTARTUP
290
    0
  9
$SORTENTS
280
  127
  9
$INDEXCTL
280
    0
  9
$HIDETEXT
280
    1
  9
$XCLIPFRAME
290
    0
  9
$HALOGAP
280
    0
  9
$OBSCOLOR
 70
  257
  9
$OBSLTYPE
280
    0
  9
$INTERSECTIONDISPLAY
280
    0
  9
$INTERSECTIONCOLOR
 70
  257
  9
$DIMASSOC
280
    1
  9
$PROJECTNAME
  1

  9
$CAMERADISPLAY
290
    0
  9
$LENSLENGTH
 40
50
  9
$CAMERAHEIGHT
 40
0
  9
$STEPSPERSEC
 40
2
  9
$STEPSIZE
 40
50
  9
$3DDWFPREC
 40
2
  9
$PSOLWIDTH
 40
5
  9
$PSOLHEIGHT
 40
80
  9
$LOFTANG1
 40
1.570796326794897
  9
$LOFTANG2
 40
1.570796326794897
  9
$LOFTMAG1
 40
0
  9
$LOFTMAG2
 40
0
  9
$LOFTPARAM
 70
    7
  9
$LOFTNORMALS
280
    1
  9
$LATITUDE
 40
1
  9
$LONGITUDE
 40
1
  9
$NORTHDIRECTION
 40
0
  9
$TIMEZONE
 70
-8000
  9
$LIGHTGLYPHDISPLAY
280
    1
  9
$TILEMODELIGHTSYNCH
280
    1
  9
$SOLIDHIST
280
    1
  9
$SHOWHIST
280
    1
  9
$DWFFRAME
280
    2
  9
$DGNFRAME
280
    0
  9
$REALWORLDSCALE
290
    1
  9
$INTERFERECOLOR
 62
    1
  9
$CSHADOW
280
    0
  9
$SHADOWPLANELOCATION
 40
0
  0
ENDSEC
  0
SECTION
  2
CLASSES
  0
ENDSEC
  0
SECTION
  2
TABLES
  0
TABLE
  2
VPORT
  5
8
330
0
100
AcDbSymbolTable
 70
    1
  0
VPORT
  5
31
330
2
100
AcDbSymbolTableRecord
100
AcDbViewportTableRecord
  2
*ACTIVE
 70
    0
 10
0
 20
0
 11
1
 21
1
 12
283.5710987996306
 22
55.10387811634349
 13
0
 23
0
 14
10
 24
10
 15
10
 25
10
 16
0
 26
0
 36
1
 17
0
 27
0
 37
0
 40
373.3979686057248
 41
1.987870619946092
 42
50
 43
0
 44
0
 50
0
 51
0
 71
    0
 72
  100
 73
    1
 74
    3
 75
    0
 76
    1
 77
    0
 78
    0
281
    0
 65
    1
110
0
120
0
130
0
111
1
121
0
131
0
112
0
122
1
132
0
 79
    0
146
0
348
10020
 60
    7
 61
    5
292
1
282
    1
141
0
142
0
 63
  250
421
3358443
  0
ENDTAB
  0
TABLE
  2
LTYPE
  5
5
330
0
100
AcDbSymbolTable
 70
    4
  0
LTYPE
  5
14
330
5
100
AcDbSymbolTableRecord
100
AcDbLinetypeTableRecord
  2
ByBlock
 70
    0
  3

 72
   65
 73
    0
 40
0
  0
LTYPE
  5
15
330
5
100
AcDbSymbolTableRecord
100
AcDbLinetypeTableRecord
  2
ByLayer
 70
    0
  3

 72
   65
 73
    0
 40
0
  0
LTYPE
  5
16
330
5
100
AcDbSymbolTableRecord
100
AcDbLinetypeTableRecord
  2
Continuous
 70
    0
  3
Solid line
 72
   65
 73
    0
 40
0
  0
LTYPE
  5
32
330
5
100
AcDbSymbolTableRecord
100
AcDbLinetypeTableRecord
  2
DOT
 70
    0
  3
Dot . . . . . . . . . . . . . . . . . . . . . .
 72
   65
 73
    2
 40
6.35
 49
0
 74
    0
 49
-6.35
 74
    0
  0
LTYPE
  5
33
330
5
100
AcDbSymbolTableRecord
100
AcDbLinetypeTableRecord
  2
DOTTINY
 70
    0
  3
Dot (.15x) .....................................
 72
   65
 73
    2
 40
0.9525
 49
0
 74
    0
 49
-0.9525
 74
    0
  0
LTYPE
  5
34
330
5
100
AcDbSymbolTableRecord
100
AcDbLinetypeTableRecord
  2
DOT2
 70
    0
  3
Dot (.5x) .....................................
 72
   65
 73
    2
 40
3.175
 49
0
 74
    0
 49
-3.175
 74
    0
  0
LTYPE
  5
35
330
5
100
AcDbSymbolTableRecord
100
AcDbLinetypeTableRecord
  2
DOTX2
 70
    0
  3
Dot (2x) .  .  .  .  .  .  .  .  .  .  .  .  .
 72
   65
 73
    2
 40
12.7
 49
0
 74
    0
 49
-12.7
 74
    0
  0
LTYPE
  5
36
330
5
100
AcDbSymbolTableRecord
100
AcDbLinetypeTableRecord
  2
DASHED
 70
    0
  3
Dashed _ _ _ _ _ _ _ _ _ _ _ _ _ _ _ _ _
 72
   65
 73
    2
 40
19.05
 49
12.7
 74
    0
 49
-6.35
 74
    0
  0
LTYPE
  5
37
330
5
100
AcDbSymbolTableRecord
100
AcDbLinetypeTableRecord
  2
DASHEDTINY
 70
    0
  3
Dashed (.15x) _ _ _ _ _ _ _ _ _ _ _ _ _ _ _ _ _
 72
   65
 73
    2
 40
2.8575
 49
1.905
 74
    0
 49
-0.9525
 74
    0
  0
LTYPE
  5
38
330
5
100
AcDbSymbolTableRecord
100
AcDbLinetypeTableRecord
  2
DASHED2
 70
    0
  3
Dashed (.5x) _ _ _ _ _ _ _ _ _ _ _ _ _ _ _ _ _
 72
   65
 73
    2
 40
9.524999999999999
 49
6.35
 74
    0
 49
-3.175
 74
    0
  0
LTYPE
  5
39
330
5
100
AcDbSymbolTableRecord
100
AcDbLinetypeTableRecord
  2
DASHEDX2
 70
    0
  3
Dashed (2x) ____  ____  ____  ____  ____  ___
 72
   65
 73
    2
 40
38.09999999999999
 49
25.4
 74
    0
 49
-12.7
 74
    0
  0
LTYPE
  5
3A
330
5
100
AcDbSymbolTableRecord
100
AcDbLinetypeTableRecord
  2
DASHDOT
 70
    0
  3
Dash dot __ . __ . __ . __ . __ . __ . __ . __
 72
   65
 73
    4
 40
25.4
 49
12.7
 74
    0
 49
-6.35
 74
    0
 49
0
 74
    0
 49
-6.35
 74
    0
  0
LTYPE
  5
3B
330
5
100
AcDbSymbolTableRecord
100
AcDbLinetypeTableRecord
  2
DASHDOTTINY
 70
    0
  3
Dash dot (.15x) _._._._._._._._._._._._._._._.
 72
   65
 73
    4
 40
3.81
 49
1.905
 74
    0
 49
-0.9525
 74
    0
 49
0
 74
    0
 49
-0.9525
 74
    0
  0
LTYPE
  5
3C
330
5
100
AcDbSymbolTableRecord
100
AcDbLinetypeTableRecord
  2
DASHDOT2
 70
    0
  3
Dash dot (.5x) _._._._._._._._._._._._._._._.
 72
   65
 73
    4
 40
12.7
 49
6.35
 74
    0
 49
-3.175
 74
    0
 49
0
 74
    0
 49
-3.175
 74
    0
  0
LTYPE
  5
3D
330
5
100
AcDbSymbolTableRecord
100
AcDbLinetypeTableRecord
  2
DASHDOTX2
 70
    0
  3
Dash dot (2x) ____  .  ____  .  ____  .  ___
 72
   65
 73
    4
 40
50.8
 49
25.4
 74
    0
 49
-12.7
 74
    0
 49
0
 74
    0
 49
-12.7
 74
    0
  0
LTYPE
  5
3E
330
5
100
AcDbSymbolTableRecord
100
AcDbLinetypeTableRecord
  2
DIVIDE
 70
    0
  3
Divide ____ . . ____ . . ____ . . ____ . . ____
 72
   65
 73
    6
 40
31.75
 49
12.7
 74
    0
 49
-6.35
 74
    0
 49
0
 74
    0
 49
-6.35
 74
    0
 49
0
 74
    0
 49
-6.35
 74
    0
  0
LTYPE
  5
3F
330
5
100
AcDbSymbolTableRecord
100
AcDbLinetypeTableRecord
  2
DIVIDETINY
 70
    0
  3
Divide (.15x) __..__..__..__..__..__..__..__.._
 72
   65
 73
    6
 40
4.7625
 49
1.905
 74
    0
 49
-0.9525
 74
    0
 49
0
 74
    0
 49
-0.9525
 74
    0
 49
0
 74
    0
 49
-0.9525
 74
    0
  0
LTYPE
  5
40
330
5
100
AcDbSymbolTableRecord
100
AcDbLinetypeTableRecord
  2
DIVIDE2
 70
    0
  3
Divide (.5x) __..__..__..__..__..__..__..__.._
 72
   65
 73
    6
 40
15.875
 49
6.35
 74
    0
 49
-3.175
 74
    0
 49
0
 74
    0
 49
-3.175
 74
    0
 49
0
 74
    0
 49
-3.175
 74
    0
  0
LTYPE
  5
41
330
5
100
AcDbSymbolTableRecord
100
AcDbLinetypeTableRecord
  2
DIVIDEX2
 70
    0
  3
Divide (2x) ________  .  .  ________  .  .  _
 72
   65
 73
    6
 40
63.5
 49
25.4
 74
    0
 49
-12.7
 74
    0
 49
0
 74
    0
 49
-12.7
 74
    0
 49
0
 74
    0
 49
-12.7
 74
    0
  0
LTYPE
  5
42
330
5
100
AcDbSymbolTableRecord
100
AcDbLinetypeTableRecord
  2
BORDER
 70
    0
  3
Border __ __ . __ __ . __ __ . __ __ . __ __ .
 72
   65
 73
    6
 40
44.45
 49
12.7
 74
    0
 49
-6.35
 74
    0
 49
12.7
 74
    0
 49
-6.35
 74
    0
 49
0
 74
    0
 49
-6.35
 74
    0
  0
LTYPE
  5
43
330
5
100
AcDbSymbolTableRecord
100
AcDbLinetypeTableRecord
  2
BORDERTINY
 70
    0
  3
Border (.15x) __.__.__.__.__.__.__.__.__.__.__.
 72
   65
 73
    6
 40
6.6675
 49
1.905
 74
    0
 49
-0.9525
 74
    0
 49
1.905
 74
    0
 49
-0.9525
 74
    0
 49
0
 74
    0
 49
-0.9525
 74
    0
  0
LTYPE
  5
44
330
5
100
AcDbSymbolTableRecord
100
AcDbLinetypeTableRecord
  2
BORDER2
 70
    0
  3
Border (.5x) __.__.__.__.__.__.__.__.__.__.__.
 72
   65
 73
    6
 40
22.225
 49
6.35
 74
    0
 49
-3.175
 74
    0
 49
6.35
 74
    0
 49
-3.175
 74
    0
 49
0
 74
    0
 49
-3.175
 74
    0
  0
LTYPE
  5
45
330
5
100
AcDbSymbolTableRecord
100
AcDbLinetypeTableRecord
  2
BORDERX2
 70
    0
  3
Border (2x) ____  ____  .  ____  ____  .  ___
 72
   65
 73
    6
 40
88.89999999999999
 49
25.4
 74
    0
 49
-12.7
 74
    0
 49
25.4
 74
    0
 49
-12.7
 74
    0
 49
0
 74
    0
 49
-12.7
 74
    0
  0
LTYPE
  5
46
330
5
100
AcDbSymbolTableRecord
100
AcDbLinetypeTableRecord
  2
CENTER
 70
    0
  3
Center ____ _ ____ _ ____ _ ____ _ ____ _ ____
 72
   65
 73
    4
 40
50.8
 49
31.75
 74
    0
 49
-6.35
 74
    0
 49
6.35
 74
    0
 49
-6.35
 74
    0
  0
LTYPE
  5
47
330
5
100
AcDbSymbolTableRecord
100
AcDbLinetypeTableRecord
  2
CENTERTINY
 70
    0
  3
Center (.15x) ___ _ ___ _ ___ _ ___ _ ___ _ ___
 72
   65
 73
    4
 40
7.619999999999999
 49
4.7625
 74
    0
 49
-0.9525
 74
    0
 49
0.9525
 74
    0
 49
-0.9525
 74
    0
  0
LTYPE
  5
48
330
5
100
AcDbSymbolTableRecord
100
AcDbLinetypeTableRecord
  2
CENTER2
 70
    0
  3
Center (.5x) ___ _ ___ _ ___ _ ___ _ ___ _ ___
 72
   65
 73
    4
 40
28.575
 49
19.05
 74
    0
 49
-3.175
 74
    0
 49
3.175
 74
    0
 49
-3.175
 74
    0
  0
LTYPE
  5
49
330
5
100
AcDbSymbolTableRecord
100
AcDbLinetypeTableRecord
  2
CENTERX2
 70
    0
  3
Center (2x) ________  __  ________  __  _____
 72
   65
 73
    4
 40
101.6
 49
63.5
 74
    0
 49
-12.7
 74
    0
 49
12.7
 74
    0
 49
-12.7
 74
    0
  0
ENDTAB
  0
TABLE
  2
LAYER
  5
2
330
0
100
AcDbSymbolTable
 70
    1
  0
LAYER
  5
10
330
2
100
AcDbSymbolTableRecord
100
AcDbLayerTableRecord
  2
0
 70
    0
 62
    7
  6
CONTINUOUS
370
   -3
390
F
1001
LibreCad
1070
    1
  0
LAYER
  5
4A
330
2
100
AcDbSymbolTableRecord
100
AcDbLayerTableRecord
  2
dveri
 70
    0
 62
   96
420
32768
  6
CONTINUOUS
370
   25
390
F
  0
LAYER
  5
4B
330
2
100
AcDbSymbolTableRecord
100
AcDbLayerTableRecord
  2
fundament
 70
    0
 62
  136
420
32896
  6
CONTINUOUS
370
   25
390
F
  0
LAYER
  5
4C
330
2
100
AcDbSymbolTableRecord
100
AcDbLayerTableRecord
  2
klei
 70
    0
 62
    5
  6
CONTINUOUS
370
   25
390
F
  0
LAYER
  5
4D
330
2
100
AcDbSymbolTableRecord
100
AcDbLayerTableRecord
  2
lyce
 70
    0
 62
   41
420
16376252
  6
CONTINUOUS
370
   25
390
F
  0
LAYER
  5
4E
330
2
100
AcDbSymbolTableRecord
100
AcDbLayerTableRecord
  2
pisok
 70
    0
 62
  176
420
  128
  6
CONTINUOUS
370
   25
390
F
  0
LAYER
  5
4F
330
2
100
AcDbSymbolTableRecord
100
AcDbLayerTableRecord
  2
plytka3
 70
    0
 62
    2
  6
CONTINUOUS
370
   25
390
F
  0
LAYER
  5
50
330
2
100
AcDbSymbolTableRecord
100
AcDbLayerTableRecord
  2
plytka6
 70
    0
 62
   56
420
8421376
  6
CONTINUOUS
370
   25
390
F
  0
LAYER
  5
51
330
2
100
AcDbSymbolTableRecord
100
AcDbLayerTableRecord
  2
rozmir
 70
    0
 62
    4
  6
CONTINUOUS
370
   13
390
F
  0
LAYER
  5
52
330
2
100
AcDbSymbolTableRecord
100
AcDbLayerTableRecord
  2
skhody
 70
    0
 62
    8
  6
CONTINUOUS
370
   25
390
F
  0
LAYER
  5
53
330
2
100
AcDbSymbolTableRecord
100
AcDbLayerTableRecord
  2
sterodur
 70
    0
 62
    3
  6
CONTINUOUS
370
   25
390
F
  0
LAYER
  5
54
330
2
100
AcDbSymbolTableRecord
100
AcDbLayerTableRecord
  2
tekst
 70
    0
 62
  136
420
32896
  6
CONTINUOUS
370
   13
390
F
  0
ENDTAB
  0
TABLE
  2
STYLE
  5
3
330
0
100
AcDbSymbolTable
 70
    3
  0
STYLE
  5
55
330
2
100
AcDbSymbolTableRecord
100
AcDbTextStyleTableRecord
  2
cyrillic_ii
 70
    0
 40
0
 41
1
 50
0
 71
    0
 42
1
  3
cyrillic_ii
  4

  0
STYLE
  5
56
330
2
100
AcDbSymbolTableRecord
100
AcDbTextStyleTableRecord
  2
Standard
 70
    0
 40
0
 41
1
 50
0
 71
    0
 42
1
  3
txt
  4

  0
ENDTAB
  0
TABLE
  2
VIEW
  5
6
330
0
100
AcDbSymbolTable
 70
    0
  0
ENDTAB
  0
TABLE
  2
UCS
  5
7
330
0
100
AcDbSymbolTable
 70
    0
  0
ENDTAB
  0
TABLE
  2
APPID
  5
9
330
0
100
AcDbSymbolTable
 70
    1
  0
APPID
  5
12
330
9
100
AcDbSymbolTableRecord
100
AcDbRegAppTableRecord
  2
ACAD
 70
    0
  0
APPID
  5
57
330
9
100
AcDbSymbolTableRecord
100
AcDbRegAppTableRecord
  2
LibreCad
 70
    0
  0
ENDTAB
  0
TABLE
  2
DIMSTYLE
  5
A
330
0
100
AcDbSymbolTable
 70
    1
100
AcDbDimStyleTable
 71
    1
  0
DIMSTYLE
105
58
330
A
100
AcDbSymbolTableRecord
100
AcDbDimStyleTableRecord
  2
Standard
 70
    0
 40
5
 41
1
 42
0.2
 43
0.38
 44
0.5
 45
0
 46
0
 47
0
 48
0
 49
1
140
1
141
0.09
142
0
143
25.4
144
1
145
0
146
1
147
0.5
148
0
 71
    0
 72
    0
 73
    0
 74
    1
 75
    0
 76
    0
 77
    0
 78
    8
 79
    0
170
    0
171
    2
172
    0
173
    0
174
    0
175
    0
176
    0
177
    0
178
    0
179
    0
271
    1
272
    4
273
    2
274
    2
275
    0
276
    0
277
    2
278
   44
279
    0
280
    0
281
    0
282
    0
283
    1
284
    0
285
    0
286
    0
288
    0
289
    3
340
standard
341

371
   -2
372
   -2
  0
ENDTAB
  0
TABLE
  2
BLOCK_RECORD
  5
1
330
0
100
AcDbSymbolTable
 70
    2
  0
BLOCK_RECORD
  5
1F
330
1
100
AcDbSymbolTableRecord
100
AcDbBlockTableRecord
  2
*Model_Space
 70
    0
280
    1
281
    0
  0
BLOCK_RECORD
  5
1E
330
1
100
AcDbSymbolTableRecord
100
AcDbBlockTableRecord
  2
*Paper_Space
 70
    0
280
    1
281
    0
  0
BLOCK_RECORD
  5
59
330
1
100
AcDbSymbolTableRecord
100
AcDbBlockTableRecord
  2
*D10
 70
    0
280
    1
281
    0
  0
BLOCK_RECORD
  5
5C
330
1
100
AcDbSymbolTableRecord
100
AcDbBlockTableRecord
  2
*D14
 70
    0
280
    1
281
    0
  0
BLOCK_RECORD
  5
5F
330
1
100
AcDbSymbolTableRecord
100
AcDbBlockTableRecord
  2
*D19
 70
    0
280
    1
281
    0
  0
BLOCK_RECORD
  5
62
330
1
100
AcDbSymbolTableRecord
100
AcDbBlockTableRecord
  2
*D8
 70
    0
280
    1
281
    0
  0
BLOCK_RECORD
  5
65
330
1
100
AcDbSymbolTableRecord
100
AcDbBlockTableRecord
  2
*D38
 70
    0
280
    1
281
    0
  0
BLOCK_RECORD
  5
68
330
1
100
AcDbSymbolTableRecord
100
AcDbBlockTableRecord
  2
*D1
 70
    0
280
    1
281
    0
  0
BLOCK_RECORD
  5
6B
330
1
100
AcDbSymbolTableRecord
100
AcDbBlockTableRecord
  2
*D2
 70
    0
280
    1
281
    0
  0
BLOCK_RECORD
  5
6E
330
1
100
AcDbSymbolTableRecord
100
AcDbBlockTableRecord
  2
*D13
 70
    0
280
    1
281
    0
  0
BLOCK_RECORD
  5
71
330
1
100
AcDbSymbolTableRecord
100
AcDbBlockTableRecord
  2
*D9
 70
    0
280
    1
281
    0
  0
BLOCK_RECORD
  5
74
330
1
100
AcDbSymbolTableRecord
100
AcDbBlockTableRecord
  2
*D15
 70
    0
280
    1
281
    0
  0
BLOCK_RECORD
  5
77
330
1
100
AcDbSymbolTableRecord
100
AcDbBlockTableRecord
  2
*D18
 70
    0
280
    1
281
    0
  0
BLOCK_RECORD
  5
7A
330
1
100
AcDbSymbolTableRecord
100
AcDbBlockTableRecord
  2
*D17
 70
    0
280
    1
281
    0
  0
BLOCK_RECORD
  5
7D
330
1
100
AcDbSymbolTableRecord
100
AcDbBlockTableRecord
  2
*D3
 70
    0
280
    1
281
    0
  0
BLOCK_RECORD
  5
80
330
1
100
AcDbSymbolTableRecord
100
AcDbBlockTableRecord
  2
*D28
 70
    0
280
    1
281
    0
  0
BLOCK_RECORD
  5
83
330
1
100
AcDbSymbolTableRecord
100
AcDbBlockTableRecord
  2
*D35
 70
    0
280
    1
281
    0
  0
BLOCK_RECORD
  5
86
330
1
100
AcDbSymbolTableRecord
100
AcDbBlockTableRecord
  2
*D36
 70
    0
280
    1
281
    0
  0
BLOCK_RECORD
  5
89
330
1
100
AcDbSymbolTableRecord
100
AcDbBlockTableRecord
  2
*D33
 70
    0
280
    1
281
    0
  0
BLOCK_RECORD
  5
8C
330
1
100
AcDbSymbolTableRecord
100
AcDbBlockTableRecord
  2
*D23
 70
    0
280
    1
281
    0
  0
BLOCK_RECORD
  5
8F
330
1
100
AcDbSymbolTableRecord
100
AcDbBlockTableRecord
  2
*D5
 70
    0
280
    1
281
    0
  0
BLOCK_RECORD
  5
92
330
1
100
AcDbSymbolTableRecord
100
AcDbBlockTableRecord
  2
*D7
 70
    0
280
    1
281
    0
  0
BLOCK_RECORD
  5
95
330
1
100
AcDbSymbolTableRecord
100
AcDbBlockTableRecord
  2
*D29
 70
    0
280
    1
281
    0
  0
BLOCK_RECORD
  5
98
330
1
100
AcDbSymbolTableRecord
100
AcDbBlockTableRecord
  2
*D11
 70
    0
280
    1
281
    0
  0
BLOCK_RECORD
  5
9B
330
1
100
AcDbSymbolTableRecord
100
AcDbBlockTableRecord
  2
*D12
 70
    0
280
    1
281
    0
  0
BLOCK_RECORD
  5
9E
330
1
100
AcDbSymbolTableRecord
100
AcDbBlockTableRecord
  2
*D32
 70
    0
280
    1
281
    0
  0
BLOCK_RECORD
  5
A1
330
1
100
AcDbSymbolTableRecord
100
AcDbBlockTableRecord
  2
*D31
 70
    0
280
    1
281
    0
  0
BLOCK_RECORD
  5
A4
330
1
100
AcDbSymbolTableRecord
100
AcDbBlockTableRecord
  2
*D22
 70
    0
280
    1
281
    0
  0
BLOCK_RECORD
  5
A7
330
1
100
AcDbSymbolTableRecord
100
AcDbBlockTableRecord
  2
*D6
 70
    0
280
    1
281
    0
  0
BLOCK_RECORD
  5
AA
330
1
100
AcDbSymbolTableRecord
100
AcDbBlockTableRecord
  2
*D25
 70
    0
280
    1
281
    0
  0
BLOCK_RECORD
  5
AD
330
1
100
AcDbSymbolTableRecord
100
AcDbBlockTableRecord
  2
*D30
 70
    0
280
    1
281
    0
  0
BLOCK_RECORD
  5
B0
330
1
100
AcDbSymbolTableRecord
100
AcDbBlockTableRecord
  2
*D16
 70
    0
280
    1
281
    0
  0
BLOCK_RECORD
  5
B3
330
1
100
AcDbSymbolTableRecord
100
AcDbBlockTableRecord
  2
*D4
 70
    0
280
    1
281
    0
  0
BLOCK_RECORD
  5
B6
330
1
100
AcDbSymbolTableRecord
100
AcDbBlockTableRecord
  2
*D37
 70
    0
280
    1
281
    0
  0
BLOCK_RECORD
  5
B9
330
1
100
AcDbSymbolTableRecord
100
AcDbBlockTableRecord
  2
*D20
 70
    0
280
    1
281
    0
  0
BLOCK_RECORD
  5
BC
330
1
100
AcDbSymbolTableRecord
100
AcDbBlockTableRecord
  2
*D26
 70
    0
280
    1
281
    0
  0
BLOCK_RECORD
  5
BF
330
1
100
AcDbSymbolTableRecord
100
AcDbBlockTableRecord
  2
*D27
 70
    0
280
    1
281
    0
  0
BLOCK_RECORD
  5
C2
330
1
100
AcDbSymbolTableRecord
100
AcDbBlockTableRecord
  2
*D24
 70
    0
280
    1
281
    0
  0
BLOCK_RECORD
  5
C5
330
1
100
AcDbSymbolTableRecord
100
AcDbBlockTableRecord
  2
*D34
 70
    0
280
    1
281
    0
  0
BLOCK_RECORD
  5
C8
330
1
100
AcDbSymbolTableRecord
100
AcDbBlockTableRecord
  2
*D21
 70
    0
280
    1
281
    0
  0
BLOCK_RECORD
  5
CB
330
1
100
AcDbSymbolTableRecord
100
AcDbBlockTableRecord
  2
block10
 70
    0
280
    1
281
    0
  0
ENDTAB
  0
ENDSEC
  0
SECTION
  2
BLOCKS
  0
BLOCK
  5
20
330
1F
100
AcDbEntity
  8
0
100
AcDbBlockBegin
  2
*Model_Space
 70
    0
 10
0
 20
0
 30
0
  3
*Model_Space
  1

  0
ENDBLK
  5
21
330
1F
100
AcDbEntity
  8
0
100
AcDbBlockEnd
  0
BLOCK
  5
1C
330
1B
100
AcDbEntity
  8
0
100
AcDbBlockBegin
  2
*Paper_Space
 70
    0
 10
0
 20
0
 30
0
  3
*Paper_Space
  1

  0
ENDBLK
  5
1D
330
1F
100
AcDbEntity
  8
0
100
AcDbBlockEnd
  0
BLOCK
  5
5A
330
59
100
AcDbEntity
  8
0
100
AcDbBlockBegin
  2
*D10
 70
    1
 10
0
 20
0
  3
*D10
  1

  0
LINE
  5
CE
100
AcDbEntity
  8
rozmir
  6
ByBlock
 62
    0
370
   -2
100
AcDbLine
 10
178
 20
-230
 11
56
 21
-230
  0
SOLID
  5
CF
100
AcDbEntity
  8
rozmir
  6
ByBlock
 62
    0
370
   -2
100
AcDbTrace
 10
178
 20
-230
 30
0
 11
173
 21
-230.8325693155457
 31
0
 12
173
 22
-229.1674306844543
 32
0
 13
173
 23
-229.1674306844543
 33
0
  0
SOLID
  5
D0
100
AcDbEntity
  8
rozmir
  6
ByBlock
 62
    0
370
   -2
100
AcDbTrace
 10
56
 20
-230
 30
0
 11
61
 21
-229.1674306844543
 31
0
 12
61
 22
-230.8325693155457
 32
0
 13
61
 23
-230.8325693155457
 33
0
  0
MTEXT
  5
D1
100
AcDbEntity
  8
rozmir
  6
CONTINUOUS
 62
    0
370
   -2
100
AcDbMText
 10
117
 20
-225
 30
0
 40
5
 41
8.888888888888889
 71
    5
 72
    1
  1
122
  7
standard
210
0
220
0
230
1
 50
360
 73
    2
 44
1
  0
LINE
  5
D2
100
AcDbEntity
  8
rozmir
  6
ByBlock
 62
    0
370
   -2
100
AcDbLine
 10
178
 20
-205
 11
178
 21
-232.5
  0
LINE
  5
D3
100
AcDbEntity
  8
rozmir
  6
ByBlock
 62
    0
370
   -2
100
AcDbLine
 10
56
 20
-149
 11
56
 21
-232.5
  0
ENDBLK
  5
5B
330
59
100
AcDbEntity
  8
0
100
AcDbBlockEnd
  0
BLOCK
  5
5D
330
5C
100
AcDbEntity
  8
0
100
AcDbBlockBegin
  2
*D14
 70
    1
 10
0
 20
0
  3
*D14
  1

  0
LINE
  5
D4
100
AcDbEntity
  8
rozmir
  6
ByBlock
 62
    0
370
   -2
100
AcDbLine
 10
-32
 20
-122
 11
-32
 21
-90
  0
SOLID
  5
D5
100
AcDbEntity
  8
rozmir
  6
ByBlock
 62
    0
370
   -2
100
AcDbTrace
 10
-32
 20
-112
 30
0
 11
-31.16743068445432
 21
-117
 31
0
 12
-32.83256931554568
 22
-117
 32
0
 13
-32.83256931554568
 23
-117
 33
0
  0
SOLID
  5
D6
100
AcDbEntity
  8
rozmir
  6
ByBlock
 62
    0
370
   -2
100
AcDbTrace
 10
-32
 20
-100
 30
0
 11
-32.83256931554568
 21
-95
 31
0
 12
-31.16743068445432
 22
-95
 32
0
 13
-31.16743068445432
 23
-95
 33
0
  0
MTEXT
  5
D7
100
AcDbEntity
  8
rozmir
  6
CONTINUOUS
 62
    0
370
   -2
100
AcDbMText
 10
-27
 20
-106
 30
0
 40
5
 41
5
 71
    5
 72
    1
  1
12
  7
standard
210
0
220
0
230
1
 50
90
 73
    2
 44
1
  0
LINE
  5
D8
100
AcDbEntity
  8
rozmir
  6
ByBlock
 62
    0
370
   -2
100
AcDbLine
 10
-11
 20
-112
 11
-34.5
 21
-112
  0
LINE
  5
D9
100
AcDbEntity
  8
rozmir
  6
ByBlock
 62
    0
370
   -2
100
AcDbLine
 10
-11
 20
-100
 11
-34.5
 21
-100
  0
ENDBLK
  5
5E
330
5C
100
AcDbEntity
  8
0
100
AcDbBlockEnd
  0
BLOCK
  5
60
330
5F
100
AcDbEntity
  8
0
100
AcDbBlockBegin
  2
*D19
 70
    1
 10
0
 20
0
  3
*D19
  1

  0
LINE
  5
DA
100
AcDbEntity
  8
rozmir
  6
ByBlock
 62
    0
370
   -2
100
AcDbLine
 10
184.5
 20
-90
 11
153
 21
-90
  0
SOLID
  5
DB
100
AcDbEntity
  8
rozmir
  6
ByBlock
 62
    0
370
   -2
100
AcDbTrace
 10
174.5
 20
-90
 30
0
 11
179.5
 21
-89.16743068445432
 31
0
 12
179.5
 22
-90.83256931554568
 32
0
 13
179.5
 23
-90.83256931554568
 33
0
  0
SOLID
  5
DC
100
AcDbEntity
  8
rozmir
  6
ByBlock
 62
    0
370
   -2
100
AcDbTrace
 10
163
 20
-90
 30
0
 11
158
 21
-90.83256931554568
 31
0
 12
158
 22
-89.16743068445432
 32
0
 13
158
 23
-89.16743068445432
 33
0
  0
MTEXT
  5
DD
100
AcDbEntity
  8
rozmir
  6
CONTINUOUS
 62
    0
370
   -2
100
AcDbMText
 10
168.75
 20
-85
 30
0
 40
5
 41
9.722222222222534
 71
    5
 72
    1
  1
11,5
  7
standard
210
0
220
0
230
1
 50
360
 73
    2
 44
1
  0
LINE
  5
DE
100
AcDbEntity
  8
rozmir
  6
ByBlock
 62
    0
370
   -2
100
AcDbLine
 10
174.5
 20
-111
 11
174.5
 21
-87.5
  0
LINE
  5
DF
100
AcDbEntity
  8
rozmir
  6
ByBlock
 62
    0
370
   -2
100
AcDbLine
 10
163
 20
-111
 11
163
 21
-87.5
  0
ENDBLK
  5
61
330
5F
100
AcDbEntity
  8
0
100
AcDbBlockEnd
  0
BLOCK
  5
63
330
62
100
AcDbEntity
  8
0
100
AcDbBlockBegin
  2
*D8
 70
    1
 10
0
 20
0
  3
*D8
  1

  0
LINE
  5
E0
100
AcDbEntity
  8
rozmir
  6
ByBlock
 62
    0
370
   -2
100
AcDbLine
 10
-32.00000000000001
 20
-148
 11
-32
 21
-176
  0
SOLID
  5
E1
100
AcDbEntity
  8
rozmir
  6
ByBlock
 62
    0
370
   -2
100
AcDbTrace
 10
-32.00000000000001
 20
-148
 30
0
 11
-31.16743068445432
 21
-153
 31
0
 12
-32.83256931554569
 22
-153
 32
0
 13
-32.83256931554569
 23
-153
 33
0
  0
SOLID
  5
E2
100
AcDbEntity
  8
rozmir
  6
ByBlock
 62
    0
370
   -2
100
AcDbTrace
 10
-32
 20
-176
 30
0
 11
-32.83256931554568
 21
-171
 31
0
 12
-31.16743068445432
 22
-171
 32
0
 13
-31.16743068445432
 23
-171
 33
0
  0
MTEXT
  5
E3
100
AcDbEntity
  8
rozmir
  6
CONTINUOUS
 62
    0
370
   -2
100
AcDbMText
 10
-27
 20
-162
 30
0
 40
5
 41
6.111111111111112
 71
    5
 72
    1
  1
28
  7
standard
210
0
220
0
230
1
 50
90
 73
    2
 44
1
  0
LINE
  5
E4
100
AcDbEntity
  8
rozmir
  6
ByBlock
 62
    0
370
   -2
100
AcDbLine
 10
55
 20
-148
 11
-34.50000000000001
 21
-148
  0
LINE
  5
E5
100
AcDbEntity
  8
rozmir
  6
ByBlock
 62
    0
370
   -2
100
AcDbLine
 10
27
 20
-176
 11
-34.5
 21
-176
  0
ENDBLK
  5
64
330
62
100
AcDbEntity
  8
0
100
AcDbBlockEnd
  0
BLOCK
  5
66
330
65
100
AcDbEntity
  8
0
100
AcDbBlockBegin
  2
*D38
 70
    1
 10
0
 20
0
  3
*D38
  1

  0
LINE
  5
E6
100
AcDbEntity
  8
tekst
  6
CONTINUOUS
 62
  136
420
32896
370
    0
100
AcDbLine
 10
272.0901623236047
 20
46.752983426903
 11
252
 21
70
  0
LINE
  5
E7
100
AcDbEntity
  8
tekst
  6
CONTINUOUS
 62
  136
420
32896
370
    0
100
AcDbLine
 10
252
 20
70
 11
242
 21
70
  0
SOLID
  5
E8
100
AcDbEntity
  8
tekst
  6
CONTINUOUS
 62
    7
370
    0
100
AcDbTrace
 10
272.0901623236047
 20
46.752983426903
 30
0
 11
268.1909026471207
 21
49.9916476022281
 31
0
 12
269.4507641085643
 22
51.08042478729485
 32
0
 13
269.4507641085643
 23
51.08042478729485
 33
0
  0
ENDBLK
  5
67
330
65
100
AcDbEntity
  8
0
100
AcDbBlockEnd
  0
BLOCK
  5
69
330
68
100
AcDbEntity
  8
0
100
AcDbBlockBegin
  2
*D1
 70
    1
 10
0
 20
0
  3
*D1
  1

  0
LINE
  5
E9
100
AcDbEntity
  8
tekst
  6
CONTINUOUS
 62
    7
370
    0
100
AcDbLine
 10
395
 20
-5.000000000000002
 11
412
 21
20
  0
LINE
  5
EA
100
AcDbEntity
  8
tekst
  6
CONTINUOUS
 62
    7
370
    0
100
AcDbLine
 10
412
 20
20
 11
422
 21
20
  0
SOLID
  5
EB
100
AcDbEntity
  8
tekst
  6
CONTINUOUS
 62
    7
370
    0
100
AcDbTrace
 10
395
 20
-5.000000000000002
 30
0
 11
397.1230764752018
 21
-0.3972054200048252
 31
0
 12
398.500023738871
 22
-1.333529559299897
 32
0
 13
398.500023738871
 23
-1.333529559299897
 33
0
  0
ENDBLK
  5
6A
330
68
100
AcDbEntity
  8
0
100
AcDbBlockEnd
  0
BLOCK
  5
6C
330
6B
100
AcDbEntity
  8
0
100
AcDbBlockBegin
  2
*D2
 70
    1
 10
0
 20
0
  3
*D2
  1

  0
LINE
  5
EC
100
AcDbEntity
  8
tekst
  6
CONTINUOUS
 62
    7
370
    0
100
AcDbLine
 10
392
 20
-1.77635683940025e-15
 11
412
 21
30
  0
LINE
  5
ED
100
AcDbEntity
  8
tekst
  6
CONTINUOUS
 62
    7
370
    0
100
AcDbLine
 10
412
 20
30
 11
422
 21
30
  0
SOLID
  5
EE
100
AcDbEntity
  8
tekst
  6
CONTINUOUS
 62
    7
370
    0
100
AcDbTrace
 10
392
 20
-1.77635683940025e-15
 30
0
 11
394.0807614370697
 21
4.622077834393512
 31
0
 12
395.4662405251826
 22
3.698425108984924
 32
0
 13
395.4662405251826
 23
3.698425108984924
 33
0
  0
ENDBLK
  5
6D
330
6B
100
AcDbEntity
  8
0
100
AcDbBlockEnd
  0
BLOCK
  5
6F
330
6E
100
AcDbEntity
  8
0
100
AcDbBlockBegin
  2
*D13
 70
    1
 10
0
 20
0
  3
*D13
  1

  0
LINE
  5
EF
100
AcDbEntity
  8
rozmir
  6
ByBlock
 62
    0
370
   -2
100
AcDbLine
 10
-32.00000000000001
 20
-112
 11
-32
 21
-148
  0
SOLID
  5
F0
100
AcDbEntity
  8
rozmir
  6
ByBlock
 62
    0
370
   -2
100
AcDbTrace
 10
-32.00000000000001
 20
-112
 30
0
 11
-31.16743068445432
 21
-117
 31
0
 12
-32.83256931554569
 22
-117
 32
0
 13
-32.83256931554569
 23
-117
 33
0
  0
SOLID
  5
F1
100
AcDbEntity
  8
rozmir
  6
ByBlock
 62
    0
370
   -2
100
AcDbTrace
 10
-32
 20
-148
 30
0
 11
-32.83256931554568
 21
-143
 31
0
 12
-31.16743068445432
 22
-143
 32
0
 13
-31.16743068445432
 23
-143
 33
0
  0
MTEXT
  5
F2
100
AcDbEntity
  8
rozmir
  6
CONTINUOUS
 62
    0
370
   -2
100
AcDbMText
 10
-27
 20
-130
 30
0
 40
5
 41
6.111111111111732
 71
    5
 72
    1
  1
36
  7
standard
210
0
220
0
230
1
 50
90
 73
    2
 44
1
  0
LINE
  5
F3
100
AcDbEntity
  8
rozmir
  6
ByBlock
 62
    0
370
   -2
100
AcDbLine
 10
-11
 20
-112
 11
-34.50000000000001
 21
-112
  0
LINE
  5
F4
100
AcDbEntity
  8
rozmir
  6
ByBlock
 62
    0
370
   -2
100
AcDbLine
 10
55
 20
-148
 11
-34.5
 21
-148
  0
ENDBLK
  5
70
330
6E
100
AcDbEntity
  8
0
100
AcDbBlockEnd
  0
BLOCK
  5
72
330
71
100
AcDbEntity
  8
0
100
AcDbBlockBegin
  2
*D9
 70
    1
 10
0
 20
0
  3
*D9
  1

  0
LINE
  5
F5
100
AcDbEntity
  8
rozmir
  6
ByBlock
 62
    0
370
   -2
100
AcDbLine
 10
-32.00000000000001
 20
-176
 11
-32
 21
-204
  0
SOLID
  5
F6
100
AcDbEntity
  8
rozmir
  6
ByBlock
 62
    0
370
   -2
100
AcDbTrace
 10
-32.00000000000001
 20
-176
 30
0
 11
-31.16743068445432
 21
-181
 31
0
 12
-32.83256931554569
 22
-181
 32
0
 13
-32.83256931554569
 23
-181
 33
0
  0
SOLID
  5
F7
100
AcDbEntity
  8
rozmir
  6
ByBlock
 62
    0
370
   -2
100
AcDbTrace
 10
-32
 20
-204
 30
0
 11
-32.83256931554568
 21
-199
 31
0
 12
-31.16743068445432
 22
-199
 32
0
 13
-31.16743068445432
 23
-199
 33
0
  0
MTEXT
  5
F8
100
AcDbEntity
  8
rozmir
  6
CONTINUOUS
 62
    0
370
   -2
100
AcDbMText
 10
-27
 20
-190
 30
0
 40
5
 41
6.111111111111112
 71
    5
 72
    1
  1
28
  7
standard
210
0
220
0
230
1
 50
90
 73
    2
 44
1
  0
LINE
  5
F9
100
AcDbEntity
  8
rozmir
  6
ByBlock
 62
    0
370
   -2
100
AcDbLine
 10
27
 20
-176
 11
-34.50000000000001
 21
-176
  0
LINE
  5
FA
100
AcDbEntity
  8
rozmir
  6
ByBlock
 62
    0
370
   -2
100
AcDbLine
 10
-1.000000000000001
 20
-204
 11
-34.5
 21
-204
  0
ENDBLK
  5
73
330
71
100
AcDbEntity
  8
0
100
AcDbBlockEnd
  0
BLOCK
  5
75
330
74
100
AcDbEntity
  8
0
100
AcDbBlockBegin
  2
*D15
 70
    1
 10
0
 20
0
  3
*D15
  1

  0
LINE
  5
FB
100
AcDbEntity
  8
tekst
  6
CONTINUOUS
 62
    7
370
    0
100
AcDbLine
 10
1.999999999999999
 20
-105
 11
-12
 21
-80
  0
LINE
  5
FC
100
AcDbEntity
  8
tekst
  6
CONTINUOUS
 62
    7
370
    0
100
AcDbLine
 10
-12
 20
-80
 11
-22
 21
-80
  0
SOLID
  5
FD
100
AcDbEntity
  8
tekst
  6
CONTINUOUS
 62
    7
370
    0
100
AcDbTrace
 10
1.999999999999999
 20
-105
 30
0
 11
-1.169438581167963
 21
-101.0442660926963
 31
0
 12
0.2834048918495322
 22
-100.2306737478065
 32
0
 13
0.2834048918495322
 23
-100.2306737478065
 33
0
  0
ENDBLK
  5
76
330
74
100
AcDbEntity
  8
0
100
AcDbBlockEnd
  0
BLOCK
  5
78
330
77
100
AcDbEntity
  8
0
100
AcDbBlockBegin
  2
*D18
 70
    1
 10
0
 20
0
  3
*D18
  1

  0
LINE
  5
FE
100
AcDbEntity
  8
rozmir
  6
ByBlock
 62
    0
370
   -2
100
AcDbLine
 10
-22
 20
-127
 11
-22
 21
-102
  0
SOLID
  5
FF
100
AcDbEntity
  8
rozmir
  6
ByBlock
 62
    0
370
   -2
100
AcDbTrace
 10
-22
 20
-117
 30
0
 11
-21.16743068445432
 21
-122
 31
0
 12
-22.83256931554568
 22
-122
 32
0
 13
-22.83256931554568
 23
-122
 33
0
  0
SOLID
  5
100
100
AcDbEntity
  8
rozmir
  6
ByBlock
 62
    0
370
   -2
100
AcDbTrace
 10
-22
 20
-112
 30
0
 11
-22.83256931554568
 21
-107
 31
0
 12
-21.16743068445432
 22
-107
 32
0
 13
-21.16743068445432
 23
-107
 33
0
  0
MTEXT
  5
101
100
AcDbEntity
  8
rozmir
  6
CONTINUOUS
 62
    0
370
   -2
100
AcDbMText
 10
-17
 20
-114.5
 30
0
 40
5
 41
2.222222222222532
 71
    5
 72
    1
  1
5
  7
standard
210
0
220
0
230
1
 50
89.99999999999999
 73
    2
 44
1
  0
LINE
  5
102
100
AcDbEntity
  8
rozmir
  6
ByBlock
 62
    0
370
   -2
100
AcDbLine
 10
-12
 20
-117
 11
-24.5
 21
-117
  0
LINE
  5
103
100
AcDbEntity
  8
rozmir
  6
ByBlock
 62
    0
370
   -2
100
AcDbLine
 10
-11
 20
-112
 11
-24.5
 21
-112
  0
ENDBLK
  5
79
330
77
100
AcDbEntity
  8
0
100
AcDbBlockEnd
  0
BLOCK
  5
7B
330
7A
100
AcDbEntity
  8
0
100
AcDbBlockBegin
  2
*D17
 70
    1
 10
0
 20
0
  3
*D17
  1

  0
LINE
  5
104
100
AcDbEntity
  8
rozmir
  6
ByBlock
 62
    0
370
   -2
100
AcDbLine
 10
198
 20
-102
 11
198
 21
-127
  0
SOLID
  5
105
100
AcDbEntity
  8
rozmir
  6
ByBlock
 62
    0
370
   -2
100
AcDbTrace
 10
198
 20
-112
 30
0
 11
197.1674306844543
 21
-107
 31
0
 12
198.8325693155457
 22
-107
 32
0
 13
198.8325693155457
 23
-107
 33
0
  0
SOLID
  5
106
100
AcDbEntity
  8
rozmir
  6
ByBlock
 62
    0
370
   -2
100
AcDbTrace
 10
198
 20
-117
 30
0
 11
198.8325693155457
 21
-122
 31
0
 12
197.1674306844543
 22
-122
 32
0
 13
197.1674306844543
 23
-122
 33
0
  0
MTEXT
  5
107
100
AcDbEntity
  8
rozmir
  6
CONTINUOUS
 62
    0
370
   -2
100
AcDbMText
 10
203
 20
-114.5
 30
0
 40
5
 41
2.222222222222532
 71
    5
 72
    1
  1
5
  7
standard
210
0
220
0
230
1
 50
90
 73
    2
 44
1
  0
LINE
  5
108
100
AcDbEntity
  8
rozmir
  6
ByBlock
 62
    0
370
   -2
100
AcDbLine
 10
189
 20
-112
 11
200.5
 21
-112
  0
LINE
  5
109
100
AcDbEntity
  8
rozmir
  6
ByBlock
 62
    0
370
   -2
100
AcDbLine
 10
190
 20
-117
 11
200.5
 21
-117
  0
ENDBLK
  5
7C
330
7A
100
AcDbEntity
  8
0
100
AcDbBlockEnd
  0
BLOCK
  5
7E
330
7D
100
AcDbEntity
  8
0
100
AcDbBlockBegin
  2
*D3
 70
    1
 10
0
 20
0
  3
*D3
  1

  0
LINE
  5
10A
100
AcDbEntity
  8
tekst
  6
CONTINUOUS
 62
    7
370
    0
100
AcDbLine
 10
377
 20
1.999999999999998
 11
412
 21
40
  0
LINE
  5
10B
100
AcDbEntity
  8
tekst
  6
CONTINUOUS
 62
    7
370
    0
100
AcDbLine
 10
412
 20
40
 11
422
 21
40
  0
SOLID
  5
10C
100
AcDbEntity
  8
tekst
  6
CONTINUOUS
 62
    7
370
    0
100
AcDbTrace
 10
377
 20
1.999999999999998
 30
0
 11
379.7749864890037
 21
6.241771051227923
 31
0
 12
380.9997710585142
 22
5.113680000362939
 32
0
 13
380.9997710585142
 23
5.113680000362939
 33
0
  0
ENDBLK
  5
7F
330
7D
100
AcDbEntity
  8
0
100
AcDbBlockEnd
  0
BLOCK
  5
81
330
80
100
AcDbEntity
  8
0
100
AcDbBlockBegin
  2
*D28
 70
    1
 10
0
 20
0
  3
*D28
  1

  0
LINE
  5
10D
100
AcDbEntity
  8
rozmir
  6
ByBlock
 62
    0
370
   -2
100
AcDbLine
 10
380
 20
39.99999999999999
 11
352
 21
40
  0
SOLID
  5
10E
100
AcDbEntity
  8
rozmir
  6
ByBlock
 62
    0
370
   -2
100
AcDbTrace
 10
380
 20
39.99999999999999
 30
0
 11
375
 21
39.16743068445432
 31
0
 12
375
 22
40.83256931554568
 32
0
 13
375
 23
40.83256931554568
 33
0
  0
SOLID
  5
10F
100
AcDbEntity
  8
rozmir
  6
ByBlock
 62
    0
370
   -2
100
AcDbTrace
 10
352
 20
40
 30
0
 11
357
 21
40.83256931554568
 31
0
 12
357
 22
39.16743068445432
 32
0
 13
357
 23
39.16743068445432
 33
0
  0
MTEXT
  5
110
100
AcDbEntity
  8
rozmir
  6
CONTINUOUS
 62
    0
370
   -2
100
AcDbMText
 10
366
 20
45
 30
0
 40
5
 41
6.111111111111112
 71
    5
 72
    1
  1
28
  7
standard
210
0
220
0
230
1
 50
360
 73
    2
 44
1
  0
LINE
  5
111
100
AcDbEntity
  8
rozmir
  6
ByBlock
 62
    0
370
   -2
100
AcDbLine
 10
380
 20
15.5
 11
380
 21
42.49999999999999
  0
LINE
  5
112
100
AcDbEntity
  8
rozmir
  6
ByBlock
 62
    0
370
   -2
100
AcDbLine
 10
352
 20
30
 11
352
 21
42.5
  0
ENDBLK
  5
82
330
80
100
AcDbEntity
  8
0
100
AcDbBlockEnd
  0
BLOCK
  5
84
330
83
100
AcDbEntity
  8
0
100
AcDbBlockBegin
  2
*D35
 70
    1
 10
0
 20
0
  3
*D35
  1

  0
LINE
  5
113
100
AcDbEntity
  8
rozmir
  6
ByBlock
 62
    0
370
   -2
100
AcDbLine
 10
198
 20
25.50000000000001
 11
198
 21
40.00000000000001
  0
SOLID
  5
114
100
AcDbEntity
  8
rozmir
  6
ByBlock
 62
    0
370
   -2
100
AcDbTrace
 10
198
 20
25.50000000000001
 30
0
 11
197.1674306844543
 21
30.50000000000001
 31
0
 12
198.8325693155457
 22
30.50000000000001
 32
0
 13
198.8325693155457
 23
30.50000000000001
 33
0
  0
SOLID
  5
115
100
AcDbEntity
  8
rozmir
  6
ByBlock
 62
    0
370
   -2
100
AcDbTrace
 10
198
 20
40.00000000000001
 30
0
 11
198.8325693155457
 21
35.00000000000001
 31
0
 12
197.1674306844543
 22
35.00000000000001
 32
0
 13
197.1674306844543
 23
35.00000000000001
 33
0
  0
MTEXT
  5
116
100
AcDbEntity
  8
rozmir
  6
CONTINUOUS
 62
    0
370
   -2
100
AcDbMText
 10
193
 20
32.75000000000001
 30
0
 40
5
 41
11.3888888888892
 71
    5
 72
    1
  1
14,5
  7
standard
210
0
220
0
230
1
 50
90
 73
    2
 44
1
  0
LINE
  5
117
100
AcDbEntity
  8
rozmir
  6
ByBlock
 62
    0
370
   -2
100
AcDbLine
 10
175.5
 20
25.5
 11
200.5
 21
25.50000000000001
  0
LINE
  5
118
100
AcDbEntity
  8
rozmir
  6
ByBlock
 62
    0
370
   -2
100
AcDbLine
 10
175.5
 20
40
 11
200.5
 21
40.00000000000001
  0
ENDBLK
  5
85
330
83
100
AcDbEntity
  8
0
100
AcDbBlockEnd
  0
BLOCK
  5
87
330
86
100
AcDbEntity
  8
0
100
AcDbBlockBegin
  2
*D36
 70
    1
 10
0
 20
0
  3
*D36
  1

  0
LINE
  5
119
100
AcDbEntity
  8
tekst
  6
CONTINUOUS
 62
    7
370
    0
100
AcDbLine
 10
270
 20
42.5
 11
252
 21
60
  0
LINE
  5
11A
100
AcDbEntity
  8
tekst
  6
CONTINUOUS
 62
    7
370
    0
100
AcDbLine
 10
252
 20
60
 11
242
 21
60
  0
SOLID
  5
11B
100
AcDbEntity
  8
tekst
  6
CONTINUOUS
 62
    7
370
    0
100
AcDbTrace
 10
270
 20
42.5
 30
0
 11
265.8346593251432
 21
45.38844399765198
 31
0
 12
266.9953914867125
 22
46.5823399352661
 32
0
 13
266.9953914867125
 23
46.5823399352661
 33
0
  0
ENDBLK
  5
88
330
86
100
AcDbEntity
  8
0
100
AcDbBlockEnd
  0
BLOCK
  5
8A
330
89
100
AcDbEntity
  8
0
100
AcDbBlockBegin
  2
*D33
 70
    1
 10
0
 20
0
  3
*D33
  1

  0
LINE
  5
11C
100
AcDbEntity
  8
rozmir
  6
ByBlock
 62
    0
370
   -2
100
AcDbLine
 10
198
 20
-6.999999999999993
 11
198
 21
11.00000000000001
  0
SOLID
  5
11D
100
AcDbEntity
  8
rozmir
  6
ByBlock
 62
    0
370
   -2
100
AcDbTrace
 10
198
 20
-6.999999999999993
 30
0
 11
197.1674306844543
 21
-1.999999999999993
 31
0
 12
198.8325693155457
 22
-1.999999999999993
 32
0
 13
198.8325693155457
 23
-1.999999999999993
 33
0
  0
SOLID
  5
11E
100
AcDbEntity
  8
rozmir
  6
ByBlock
 62
    0
370
   -2
100
AcDbTrace
 10
198
 20
11.00000000000001
 30
0
 11
198.8325693155457
 21
6.000000000000007
 31
0
 12
197.1674306844543
 22
6.000000000000007
 32
0
 13
197.1674306844543
 23
6.000000000000007
 33
0
  0
MTEXT
  5
11F
100
AcDbEntity
  8
rozmir
  6
CONTINUOUS
 62
    0
370
   -2
100
AcDbMText
 10
193
 20
2.000000000000008
 30
0
 40
5
 41
5
 71
    5
 72
    1
  1
18
  7
standard
210
0
220
0
230
1
 50
90
 73
    2
 44
1
  0
LINE
  5
120
100
AcDbEntity
  8
rozmir
  6
ByBlock
 62
    0
370
   -2
100
AcDbLine
 10
175.5
 20
-7
 11
200.5
 21
-6.999999999999992
  0
LINE
  5
121
100
AcDbEntity
  8
rozmir
  6
ByBlock
 62
    0
370
   -2
100
AcDbLine
 10
175.5
 20
11
 11
200.5
 21
11.00000000000001
  0
ENDBLK
  5
8B
330
89
100
AcDbEntity
  8
0
100
AcDbBlockEnd
  0
BLOCK
  5
8D
330
8C
100
AcDbEntity
  8
0
100
AcDbBlockBegin
  2
*D23
 70
    1
 10
0
 20
0
  3
*D23
  1

  0
LINE
  5
122
100
AcDbEntity
  8
rozmir
  6
ByBlock
 62
    0
370
   -2
100
AcDbLine
 10
174.5
 20
-60.00000000000002
 11
3.500000000000006
 21
-60
  0
SOLID
  5
123
100
AcDbEntity
  8
rozmir
  6
ByBlock
 62
    0
370
   -2
100
AcDbTrace
 10
174.5
 20
-60.00000000000002
 30
0
 11
169.5
 21
-60.8325693155457
 31
0
 12
169.5
 22
-59.16743068445434
 32
0
 13
169.5
 23
-59.16743068445434
 33
0
  0
SOLID
  5
124
100
AcDbEntity
  8
rozmir
  6
ByBlock
 62
    0
370
   -2
100
AcDbTrace
 10
3.500000000000006
 20
-60
 30
0
 11
8.500000000000007
 21
-59.16743068445432
 31
0
 12
8.500000000000007
 22
-60.83256931554568
 32
0
 13
8.500000000000007
 23
-60.83256931554568
 33
0
  0
MTEXT
  5
125
100
AcDbEntity
  8
rozmir
  6
CONTINUOUS
 62
    0
370
   -2
100
AcDbMText
 10
89
 20
-55
 30
0
 40
5
 41
7.777777777777779
 71
    5
 72
    1
  1
171
  7
standard
210
0
220
0
230
1
 50
360
 73
    2
 44
1
  0
LINE
  5
126
100
AcDbEntity
  8
rozmir
  6
ByBlock
 62
    0
370
   -2
100
AcDbLine
 10
174.5
 20
-111
 11
174.5
 21
-57.50000000000002
  0
LINE
  5
127
100
AcDbEntity
  8
rozmir
  6
ByBlock
 62
    0
370
   -2
100
AcDbLine
 10
3.499999999999999
 20
-111
 11
3.500000000000006
 21
-57.5
  0
ENDBLK
  5
8E
330
8C
100
AcDbEntity
  8
0
100
AcDbBlockEnd
  0
BLOCK
  5
90
330
8F
100
AcDbEntity
  8
0
100
AcDbBlockBegin
  2
*D5
 70
    1
 10
0
 20
0
  3
*D5
  1

  0
LINE
  5
128
100
AcDbEntity
  8
tekst
  6
CONTINUOUS
 62
    7
370
    0
100
AcDbLine
 10
272
 20
-5.000000000000002
 11
252
 21
-1.77635683940025e-15
  0
LINE
  5
129
100
AcDbEntity
  8
tekst
  6
CONTINUOUS
 62
    7
370
    0
100
AcDbLine
 10
252
 20
-1.77635683940025e-15
 11
242
 21
-1.77635683940025e-15
  0
SOLID
  5
12A
100
AcDbEntity
  8
tekst
  6
CONTINUOUS
 62
    7
370
    0
100
AcDbTrace
 10
272
 20
-5.000000000000002
 30
0
 11
266.9473597799414
 21
-4.59503275214611
 31
0
 12
267.3512152186053
 22
-2.979610997490561
 32
0
 13
267.3512152186053
 23
-2.979610997490561
 33
0
  0
ENDBLK
  5
91
330
8F
100
AcDbEntity
  8
0
100
AcDbBlockEnd
  0
BLOCK
  5
93
330
92
100
AcDbEntity
  8
0
100
AcDbBlockBegin
  2
*D7
 70
    1
 10
0
 20
0
  3
*D7
  1

  0
LINE
  5
12B
100
AcDbEntity
  8
tekst
  6
CONTINUOUS
 62
    7
370
    0
100
AcDbLine
 10
402
 20
-9.000000000000002
 11
412
 21
9.999999999999998
  0
LINE
  5
12C
100
AcDbEntity
  8
tekst
  6
CONTINUOUS
 62
    7
370
    0
100
AcDbLine
 10
412
 20
9.999999999999998
 11
422
 21
9.999999999999998
  0
SOLID
  5
12D
100
AcDbEntity
  8
tekst
  6
CONTINUOUS
 62
    7
370
    0
100
AcDbTrace
 10
402
 20
-9.000000000000002
 30
0
 11
403.5919764054406
 21
-4.187642699288792
 31
0
 12
405.0654879228856
 22
-4.96317507689139
 32
0
 13
405.0654879228856
 23
-4.96317507689139
 33
0
  0
ENDBLK
  5
94
330
92
100
AcDbEntity
  8
0
100
AcDbBlockEnd
  0
BLOCK
  5
96
330
95
100
AcDbEntity
  8
0
100
AcDbBlockBegin
  2
*D29
 70
    1
 10
0
 20
0
  3
*D29
  1

  0
LINE
  5
12E
100
AcDbEntity
  8
rozmir
  6
ByBlock
 62
    0
370
   -2
100
AcDbLine
 10
352
 20
49.99999999999999
 11
324
 21
50
  0
SOLID
  5
12F
100
AcDbEntity
  8
rozmir
  6
ByBlock
 62
    0
370
   -2
100
AcDbTrace
 10
352
 20
49.99999999999999
 30
0
 11
347
 21
49.16743068445432
 31
0
 12
347
 22
50.83256931554568
 32
0
 13
347
 23
50.83256931554568
 33
0
  0
SOLID
  5
130
100
AcDbEntity
  8
rozmir
  6
ByBlock
 62
    0
370
   -2
100
AcDbTrace
 10
324
 20
50
 30
0
 11
329
 21
50.83256931554568
 31
0
 12
329
 22
49.16743068445432
 32
0
 13
329
 23
49.16743068445432
 33
0
  0
MTEXT
  5
131
100
AcDbEntity
  8
rozmir
  6
CONTINUOUS
 62
    0
370
   -2
100
AcDbMText
 10
338
 20
55
 30
0
 40
5
 41
6.111111111111112
 71
    5
 72
    1
  1
28
  7
standard
210
0
220
0
230
1
 50
360
 73
    2
 44
1
  0
LINE
  5
132
100
AcDbEntity
  8
rozmir
  6
ByBlock
 62
    0
370
   -2
100
AcDbLine
 10
352
 20
30
 11
352
 21
52.49999999999999
  0
LINE
  5
133
100
AcDbEntity
  8
rozmir
  6
ByBlock
 62
    0
370
   -2
100
AcDbLine
 10
324
 20
44.5
 11
324
 21
52.5
  0
ENDBLK
  5
97
330
95
100
AcDbEntity
  8
0
100
AcDbBlockEnd
  0
BLOCK
  5
99
330
98
100
AcDbEntity
  8
0
100
AcDbBlockBegin
  2
*D11
 70
    1
 10
0
 20
0
  3
*D11
  1

  0
LINE
  5
134
100
AcDbEntity
  8
rozmir
  6
ByBlock
 62
    0
370
   -2
100
AcDbLine
 10
178
 20
-240
 11
28
 21
-240
  0
SOLID
  5
135
100
AcDbEntity
  8
rozmir
  6
ByBlock
 62
    0
370
   -2
100
AcDbTrace
 10
178
 20
-240
 30
0
 11
173
 21
-240.8325693155457
 31
0
 12
173
 22
-239.1674306844543
 32
0
 13
173
 23
-239.1674306844543
 33
0
  0
SOLID
  5
136
100
AcDbEntity
  8
rozmir
  6
ByBlock
 62
    0
370
   -2
100
AcDbTrace
 10
28
 20
-240
 30
0
 11
33
 21
-239.1674306844543
 31
0
 12
33
 22
-240.8325693155457
 32
0
 13
33
 23
-240.8325693155457
 33
0
  0
MTEXT
  5
137
100
AcDbEntity
  8
rozmir
  6
CONTINUOUS
 62
    0
370
   -2
100
AcDbMText
 10
103
 20
-235
 30
0
 40
5
 41
8.888888888889198
 71
    5
 72
    1
  1
150
  7
standard
210
0
220
0
230
1
 50
360
 73
    2
 44
1
  0
LINE
  5
138
100
AcDbEntity
  8
rozmir
  6
ByBlock
 62
    0
370
   -2
100
AcDbLine
 10
178
 20
-205
 11
178
 21
-242.5
  0
LINE
  5
139
100
AcDbEntity
  8
rozmir
  6
ByBlock
 62
    0
370
   -2
100
AcDbLine
 10
28
 20
-177
 11
28
 21
-242.5
  0
ENDBLK
  5
9A
330
98
100
AcDbEntity
  8
0
100
AcDbBlockEnd
  0
BLOCK
  5
9C
330
9B
100
AcDbEntity
  8
0
100
AcDbBlockBegin
  2
*D12
 70
    1
 10
0
 20
0
  3
*D12
  1

  0
LINE
  5
13A
100
AcDbEntity
  8
rozmir
  6
ByBlock
 62
    0
370
   -2
100
AcDbLine
 10
178
 20
-250
 11
-8.881784197001252e-16
 21
-250
  0
SOLID
  5
13B
100
AcDbEntity
  8
rozmir
  6
ByBlock
 62
    0
370
   -2
100
AcDbTrace
 10
178
 20
-250
 30
0
 11
173
 21
-250.8325693155457
 31
0
 12
173
 22
-249.1674306844543
 32
0
 13
173
 23
-249.1674306844543
 33
0
  0
SOLID
  5
13C
100
AcDbEntity
  8
rozmir
  6
ByBlock
 62
    0
370
   -2
100
AcDbTrace
 10
-8.881784197001252e-16
 20
-250
 30
0
 11
4.999999999999999
 21
-249.1674306844543
 31
0
 12
4.999999999999999
 22
-250.8325693155457
 32
0
 13
4.999999999999999
 23
-250.8325693155457
 33
0
  0
MTEXT
  5
13D
100
AcDbEntity
  8
rozmir
  6
CONTINUOUS
 62
    0
370
   -2
100
AcDbMText
 10
89
 20
-245
 30
0
 40
5
 41
8.888888888888889
 71
    5
 72
    1
  1
178
  7
standard
210
0
220
0
230
1
 50
360
 73
    2
 44
1
  0
LINE
  5
13E
100
AcDbEntity
  8
rozmir
  6
ByBlock
 62
    0
370
   -2
100
AcDbLine
 10
178
 20
-205
 11
178
 21
-252.5
  0
LINE
  5
13F
100
AcDbEntity
  8
rozmir
  6
ByBlock
 62
    0
370
   -2
100
AcDbLine
 10
-1.071875439572228e-15
 20
-205
 11
-1.347420969380383e-15
 21
-252.5
  0
ENDBLK
  5
9D
330
9B
100
AcDbEntity
  8
0
100
AcDbBlockEnd
  0
BLOCK
  5
9F
330
9E
100
AcDbEntity
  8
0
100
AcDbBlockBegin
  2
*D32
 70
    1
 10
0
 20
0
  3
*D32
  1

  0
LINE
  5
140
100
AcDbEntity
  8
rozmir
  6
ByBlock
 62
    0
370
   -2
100
AcDbLine
 10
-32
 20
28.99999999999999
 11
-32
 21
43.49999999999999
  0
SOLID
  5
141
100
AcDbEntity
  8
rozmir
  6
ByBlock
 62
    0
370
   -2
100
AcDbTrace
 10
-32
 20
28.99999999999999
 30
0
 11
-32.83256931554568
 21
33.99999999999999
 31
0
 12
-31.16743068445431
 22
33.99999999999999
 32
0
 13
-31.16743068445431
 23
33.99999999999999
 33
0
  0
SOLID
  5
142
100
AcDbEntity
  8
rozmir
  6
ByBlock
 62
    0
370
   -2
100
AcDbTrace
 10
-32
 20
43.49999999999999
 30
0
 11
-31.16743068445432
 21
38.49999999999999
 31
0
 12
-32.83256931554568
 22
38.49999999999999
 32
0
 13
-32.83256931554568
 23
38.49999999999999
 33
0
  0
MTEXT
  5
143
100
AcDbEntity
  8
rozmir
  6
CONTINUOUS
 62
    0
370
   -2
100
AcDbMText
 10
-27
 20
36.24999999999999
 30
0
 40
5
 41
11.3888888888892
 71
    5
 72
    1
  1
14,5
  7
standard
210
0
220
0
230
1
 50
270
 73
    2
 44
1
  0
LINE
  5
144
100
AcDbEntity
  8
rozmir
  6
ByBlock
 62
    0
370
   -2
100
AcDbLine
 10
27
 20
29
 11
-34.5
 21
28.99999999999999
  0
LINE
  5
145
100
AcDbEntity
  8
rozmir
  6
ByBlock
 62
    0
370
   -2
100
AcDbLine
 10
55
 20
43.5
 11
-34.5
 21
43.49999999999999
  0
ENDBLK
  5
A0
330
9E
100
AcDbEntity
  8
0
100
AcDbBlockEnd
  0
BLOCK
  5
A2
330
A1
100
AcDbEntity
  8
0
100
AcDbBlockBegin
  2
*D31
 70
    1
 10
0
 20
0
  3
*D31
  1

  0
LINE
  5
146
100
AcDbEntity
  8
rozmir
  6
ByBlock
 62
    0
370
   -2
100
AcDbLine
 10
-32
 20
14.49999999999999
 11
-32
 21
28.99999999999999
  0
SOLID
  5
147
100
AcDbEntity
  8
rozmir
  6
ByBlock
 62
    0
370
   -2
100
AcDbTrace
 10
-32
 20
14.49999999999999
 30
0
 11
-32.83256931554568
 21
19.49999999999999
 31
0
 12
-31.16743068445431
 22
19.49999999999999
 32
0
 13
-31.16743068445431
 23
19.49999999999999
 33
0
  0
SOLID
  5
148
100
AcDbEntity
  8
rozmir
  6
ByBlock
 62
    0
370
   -2
100
AcDbTrace
 10
-32
 20
28.99999999999999
 30
0
 11
-31.16743068445432
 21
23.99999999999999
 31
0
 12
-32.83256931554568
 22
23.99999999999999
 32
0
 13
-32.83256931554568
 23
23.99999999999999
 33
0
  0
MTEXT
  5
149
100
AcDbEntity
  8
rozmir
  6
CONTINUOUS
 62
    0
370
   -2
100
AcDbMText
 10
-27
 20
21.74999999999999
 30
0
 40
5
 41
11.3888888888892
 71
    5
 72
    1
  1
14,5
  7
standard
210
0
220
0
230
1
 50
270
 73
    2
 44
1
  0
LINE
  5
14A
100
AcDbEntity
  8
rozmir
  6
ByBlock
 62
    0
370
   -2
100
AcDbLine
 10
-1
 20
14.5
 11
-34.5
 21
14.49999999999999
  0
LINE
  5
14B
100
AcDbEntity
  8
rozmir
  6
ByBlock
 62
    0
370
   -2
100
AcDbLine
 10
27
 20
29
 11
-34.5
 21
28.99999999999999
  0
ENDBLK
  5
A3
330
A1
100
AcDbEntity
  8
0
100
AcDbBlockEnd
  0
BLOCK
  5
A5
330
A4
100
AcDbEntity
  8
0
100
AcDbBlockBegin
  2
*D22
 70
    1
 10
0
 20
0
  3
*D22
  1

  0
LINE
  5
14C
100
AcDbEntity
  8
rozmir
  6
ByBlock
 62
    0
370
   -2
100
AcDbLine
 10
174.5
 20
-70.00000000000001
 11
31.50000000000001
 21
-70
  0
SOLID
  5
14D
100
AcDbEntity
  8
rozmir
  6
ByBlock
 62
    0
370
   -2
100
AcDbTrace
 10
174.5
 20
-70.00000000000001
 30
0
 11
169.5
 21
-70.8325693155457
 31
0
 12
169.5
 22
-69.16743068445433
 32
0
 13
169.5
 23
-69.16743068445433
 33
0
  0
SOLID
  5
14E
100
AcDbEntity
  8
rozmir
  6
ByBlock
 62
    0
370
   -2
100
AcDbTrace
 10
31.50000000000001
 20
-70
 30
0
 11
36.50000000000001
 21
-69.16743068445432
 31
0
 12
36.50000000000001
 22
-70.83256931554568
 32
0
 13
36.50000000000001
 23
-70.83256931554568
 33
0
  0
MTEXT
  5
14F
100
AcDbEntity
  8
rozmir
  6
CONTINUOUS
 62
    0
370
   -2
100
AcDbMText
 10
103
 20
-65
 30
0
 40
5
 41
9.444444444444756
 71
    5
 72
    1
  1
143
  7
standard
210
0
220
0
230
1
 50
360
 73
    2
 44
1
  0
LINE
  5
150
100
AcDbEntity
  8
rozmir
  6
ByBlock
 62
    0
370
   -2
100
AcDbLine
 10
174.5
 20
-111
 11
174.5
 21
-67.50000000000001
  0
LINE
  5
151
100
AcDbEntity
  8
rozmir
  6
ByBlock
 62
    0
370
   -2
100
AcDbLine
 10
31.5
 20
-111
 11
31.50000000000001
 21
-67.5
  0
ENDBLK
  5
A6
330
A4
100
AcDbEntity
  8
0
100
AcDbBlockEnd
  0
BLOCK
  5
A8
330
A7
100
AcDbEntity
  8
0
100
AcDbBlockBegin
  2
*D6
 70
    1
 10
0
 20
0
  3
*D6
  1

  0
LINE
  5
152
100
AcDbEntity
  8
rozmir
  6
ByBlock
 62
    0
370
   -2
100
AcDbLine
 10
-32
 20
-17
 11
-32
 21
9.999999999999996
  0
SOLID
  5
153
100
AcDbEntity
  8
rozmir
  6
ByBlock
 62
    0
370
   -2
100
AcDbTrace
 10
-32
 20
-7.000000000000004
 30
0
 11
-31.16743068445432
 21
-12
 31
0
 12
-32.83256931554568
 22
-12
 32
0
 13
-32.83256931554568
 23
-12
 33
0
  0
SOLID
  5
154
100
AcDbEntity
  8
rozmir
  6
ByBlock
 62
    0
370
   -2
100
AcDbTrace
 10
-32
 20
-3.126388037344442e-15
 30
0
 11
-32.83256931554568
 21
4.999999999999996
 31
0
 12
-31.16743068445432
 22
4.999999999999996
 32
0
 13
-31.16743068445432
 23
4.999999999999996
 33
0
  0
MTEXT
  5
155
100
AcDbEntity
  8
rozmir
  6
CONTINUOUS
 62
    0
370
   -2
100
AcDbMText
 10
-37
 20
-3.500000000000003
 30
0
 40
5
 41
2.222222222222222
 71
    5
 72
    1
  1
7
  7
standard
210
0
220
0
230
1
 50
90
 73
    2
 44
1
  0
LINE
  5
156
100
AcDbEntity
  8
rozmir
  6
ByBlock
 62
    0
370
   -2
100
AcDbLine
 10
-11
 20
-7
 11
-34.5
 21
-7.000000000000004
  0
LINE
  5
157
100
AcDbEntity
  8
rozmir
  6
ByBlock
 62
    0
370
   -2
100
AcDbLine
 10
-11
 20
1.224646799147353e-16
 11
-34.5
 21
-2.820226337557603e-15
  0
ENDBLK
  5
A9
330
A7
100
AcDbEntity
  8
0
100
AcDbBlockEnd
  0
BLOCK
  5
AB
330
AA
100
AcDbEntity
  8
0
100
AcDbBlockBegin
  2
*D25
 70
    1
 10
0
 20
0
  3
*D25
  1

  0
LINE
  5
158
100
AcDbEntity
  8
rozmir
  6
ByBlock
 62
    0
370
   -2
100
AcDbLine
 10
208
 20
-112
 11
208
 21
-144.5
  0
SOLID
  5
159
100
AcDbEntity
  8
rozmir
  6
ByBlock
 62
    0
370
   -2
100
AcDbTrace
 10
208
 20
-112
 30
0
 11
208.8325693155457
 21
-117
 31
0
 12
207.1674306844543
 22
-117
 32
0
 13
207.1674306844543
 23
-117
 33
0
  0
SOLID
  5
15A
100
AcDbEntity
  8
rozmir
  6
ByBlock
 62
    0
370
   -2
100
AcDbTrace
 10
208
 20
-144.5
 30
0
 11
207.1674306844543
 21
-139.5
 31
0
 12
208.8325693155457
 22
-139.5
 32
0
 13
208.8325693155457
 23
-139.5
 33
0
  0
MTEXT
  5
15B
100
AcDbEntity
  8
rozmir
  6
CONTINUOUS
 62
    0
370
   -2
100
AcDbMText
 10
213
 20
-128.25
 30
0
 40
5
 41
11.94444444444506
 71
    5
 72
    1
  1
32,5
  7
standard
210
0
220
0
230
1
 50
90
 73
    2
 44
1
  0
LINE
  5
15C
100
AcDbEntity
  8
rozmir
  6
ByBlock
 62
    0
370
   -2
100
AcDbLine
 10
175.5
 20
-112
 11
210.5
 21
-112
  0
LINE
  5
15D
100
AcDbEntity
  8
rozmir
  6
ByBlock
 62
    0
370
   -2
100
AcDbLine
 10
175.5
 20
-144.5
 11
210.5
 21
-144.5
  0
ENDBLK
  5
AC
330
AA
100
AcDbEntity
  8
0
100
AcDbBlockEnd
  0
BLOCK
  5
AE
330
AD
100
AcDbEntity
  8
0
100
AcDbBlockBegin
  2
*D30
 70
    1
 10
0
 20
0
  3
*D30
  1

  0
LINE
  5
15E
100
AcDbEntity
  8
rozmir
  6
ByBlock
 62
    0
370
   -2
100
AcDbLine
 10
-32
 20
-3.552713678800501e-15
 11
-32
 21
14.49999999999999
  0
SOLID
  5
15F
100
AcDbEntity
  8
rozmir
  6
ByBlock
 62
    0
370
   -2
100
AcDbTrace
 10
-32
 20
-3.552713678800501e-15
 30
0
 11
-32.83256931554568
 21
4.999999999999996
 31
0
 12
-31.16743068445431
 22
4.999999999999996
 32
0
 13
-31.16743068445431
 23
4.999999999999996
 33
0
  0
SOLID
  5
160
100
AcDbEntity
  8
rozmir
  6
ByBlock
 62
    0
370
   -2
100
AcDbTrace
 10
-32
 20
14.49999999999999
 30
0
 11
-31.16743068445432
 21
9.499999999999995
 31
0
 12
-32.83256931554568
 22
9.499999999999995
 32
0
 13
-32.83256931554568
 23
9.499999999999995
 33
0
  0
MTEXT
  5
161
100
AcDbEntity
  8
rozmir
  6
CONTINUOUS
 62
    0
370
   -2
100
AcDbMText
 10
-27
 20
7.249999999999996
 30
0
 40
5
 41
11.3888888888892
 71
    5
 72
    1
  1
14,5
  7
standard
210
0
220
0
230
1
 50
270
 73
    2
 44
1
  0
LINE
  5
162
100
AcDbEntity
  8
rozmir
  6
ByBlock
 62
    0
370
   -2
100
AcDbLine
 10
-11
 20
1.224646799147353e-16
 11
-34.5
 21
-3.246551979013663e-15
  0
LINE
  5
163
100
AcDbEntity
  8
rozmir
  6
ByBlock
 62
    0
370
   -2
100
AcDbLine
 10
-1
 20
14.5
 11
-34.5
 21
14.49999999999999
  0
ENDBLK
  5
AF
330
AD
100
AcDbEntity
  8
0
100
AcDbBlockEnd
  0
BLOCK
  5
B1
330
B0
100
AcDbEntity
  8
0
100
AcDbBlockBegin
  2
*D16
 70
    1
 10
0
 20
0
  3
*D16
  1

  0
LINE
  5
164
100
AcDbEntity
  8
tekst
  6
CONTINUOUS
 62
    7
370
    0
100
AcDbLine
 10
-3.000000000000001
 20
-115
 11
-12
 21
-90
  0
LINE
  5
165
100
AcDbEntity
  8
tekst
  6
CONTINUOUS
 62
    7
370
    0
100
AcDbLine
 10
-12
 20
-90
 11
-22
 21
-90
  0
SOLID
  5
166
100
AcDbEntity
  8
tekst
  6
CONTINUOUS
 62
    7
370
    0
100
AcDbTrace
 10
-3.000000000000001
 20
-115
 30
0
 11
-5.4769513298688
 21
-110.5775703765182
 31
0
 12
-3.910243352858613
 22
-110.0135555047945
 32
0
 13
-3.910243352858613
 23
-110.0135555047945
 33
0
  0
ENDBLK
  5
B2
330
B0
100
AcDbEntity
  8
0
100
AcDbBlockEnd
  0
BLOCK
  5
B4
330
B3
100
AcDbEntity
  8
0
100
AcDbBlockBegin
  2
*D4
 70
    1
 10
0
 20
0
  3
*D4
  1

  0
LINE
  5
167
100
AcDbEntity
  8
tekst
  6
CONTINUOUS
 62
    7
370
    0
100
AcDbLine
 10
292
 20
-1.77635683940025e-15
 11
252
 21
9.999999999999998
  0
LINE
  5
168
100
AcDbEntity
  8
tekst
  6
CONTINUOUS
 62
    7
370
    0
100
AcDbLine
 10
252
 20
9.999999999999998
 11
242
 21
9.999999999999998
  0
SOLID
  5
169
100
AcDbEntity
  8
tekst
  6
CONTINUOUS
 62
    7
370
    0
100
AcDbTrace
 10
292
 20
-1.77635683940025e-15
 30
0
 11
286.9473597799414
 21
0.40496724785389
 31
0
 12
287.3512152186053
 22
2.020389002509439
 32
0
 13
287.3512152186053
 23
2.020389002509439
 33
0
  0
ENDBLK
  5
B5
330
B3
100
AcDbEntity
  8
0
100
AcDbBlockEnd
  0
BLOCK
  5
B7
330
B6
100
AcDbEntity
  8
0
100
AcDbBlockBegin
  2
*D37
 70
    1
 10
0
 20
0
  3
*D37
  1

  0
LINE
  5
16A
100
AcDbEntity
  8
rozmir
  6
ByBlock
 62
    0
370
   -2
100
AcDbLine
 10
242
 20
29.99999999999999
 11
242
 21
52.49999999999999
  0
SOLID
  5
16B
100
AcDbEntity
  8
rozmir
  6
ByBlock
 62
    0
370
   -2
100
AcDbTrace
 10
242
 20
39.99999999999999
 30
0
 11
242.8325693155457
 21
34.99999999999999
 31
0
 12
241.1674306844543
 22
34.99999999999999
 32
0
 13
241.1674306844543
 23
34.99999999999999
 33
0
  0
SOLID
  5
16C
100
AcDbEntity
  8
rozmir
  6
ByBlock
 62
    0
370
   -2
100
AcDbTrace
 10
242
 20
42.49999999999999
 30
0
 11
241.1674306844543
 21
47.49999999999999
 31
0
 12
242.8325693155457
 22
47.49999999999999
 32
0
 13
242.8325693155457
 23
47.49999999999999
 33
0
  0
MTEXT
  5
16D
100
AcDbEntity
  8
rozmir
  6
CONTINUOUS
 62
    0
370
   -2
100
AcDbMText
 10
237
 20
49.02777777777793
 30
0
 40
5
 41
8.055555555555866
 71
    5
 72
    1
  1
2,5
  7
standard
210
0
220
0
230
1
 50
90
 73
    2
 44
1
  0
LINE
  5
16E
100
AcDbEntity
  8
rozmir
  6
ByBlock
 62
    0
370
   -2
100
AcDbLine
 10
265
 20
40
 11
239.5
 21
39.99999999999999
  0
LINE
  5
16F
100
AcDbEntity
  8
rozmir
  6
ByBlock
 62
    0
370
   -2
100
AcDbLine
 10
265
 20
42.5
 11
239.5
 21
42.49999999999999
  0
ENDBLK
  5
B8
330
B6
100
AcDbEntity
  8
0
100
AcDbBlockEnd
  0
BLOCK
  5
BA
330
B9
100
AcDbEntity
  8
0
100
AcDbBlockBegin
  2
*D20
 70
    1
 10
0
 20
0
  3
*D20
  1

  0
LINE
  5
170
100
AcDbEntity
  8
rozmir
  6
ByBlock
 62
    0
370
   -2
100
AcDbLine
 10
81
 20
-90
 11
49.5
 21
-90
  0
SOLID
  5
171
100
AcDbEntity
  8
rozmir
  6
ByBlock
 62
    0
370
   -2
100
AcDbTrace
 10
71
 20
-90
 30
0
 11
76
 21
-89.16743068445432
 31
0
 12
76
 22
-90.83256931554568
 32
0
 13
76
 23
-90.83256931554568
 33
0
  0
SOLID
  5
172
100
AcDbEntity
  8
rozmir
  6
ByBlock
 62
    0
370
   -2
100
AcDbTrace
 10
59.5
 20
-90
 30
0
 11
54.5
 21
-90.83256931554568
 31
0
 12
54.5
 22
-89.16743068445432
 32
0
 13
54.5
 23
-89.16743068445432
 33
0
  0
MTEXT
  5
173
100
AcDbEntity
  8
rozmir
  6
CONTINUOUS
 62
    0
370
   -2
100
AcDbMText
 10
65.25
 20
-85
 30
0
 40
5
 41
9.722222222222534
 71
    5
 72
    1
  1
11,5
  7
standard
210
0
220
0
230
1
 50
360
 73
    2
 44
1
  0
LINE
  5
174
100
AcDbEntity
  8
rozmir
  6
ByBlock
 62
    0
370
   -2
100
AcDbLine
 10
71
 20
-111
 11
71
 21
-87.5
  0
LINE
  5
175
100
AcDbEntity
  8
rozmir
  6
ByBlock
 62
    0
370
   -2
100
AcDbLine
 10
59.5
 20
-111
 11
59.5
 21
-87.5
  0
ENDBLK
  5
BB
330
B9
100
AcDbEntity
  8
0
100
AcDbBlockEnd
  0
BLOCK
  5
BD
330
BC
100
AcDbEntity
  8
0
100
AcDbBlockBegin
  2
*D26
 70
    1
 10
0
 20
0
  3
*D26
  1

  0
LINE
  5
176
100
AcDbEntity
  8
rozmir
  6
ByBlock
 62
    0
370
   -2
100
AcDbLine
 10
208
 20
-144.5
 11
208
 21
-172.5
  0
SOLID
  5
177
100
AcDbEntity
  8
rozmir
  6
ByBlock
 62
    0
370
   -2
100
AcDbTrace
 10
208
 20
-144.5
 30
0
 11
208.8325693155457
 21
-149.5
 31
0
 12
207.1674306844543
 22
-149.5
 32
0
 13
207.1674306844543
 23
-149.5
 33
0
  0
SOLID
  5
178
100
AcDbEntity
  8
rozmir
  6
ByBlock
 62
    0
370
   -2
100
AcDbTrace
 10
208
 20
-172.5
 30
0
 11
207.1674306844543
 21
-167.5
 31
0
 12
208.8325693155457
 22
-167.5
 32
0
 13
208.8325693155457
 23
-167.5
 33
0
  0
MTEXT
  5
179
100
AcDbEntity
  8
rozmir
  6
CONTINUOUS
 62
    0
370
   -2
100
AcDbMText
 10
213
 20
-158.5
 30
0
 40
5
 41
6.111111111111112
 71
    5
 72
    1
  1
28
  7
standard
210
0
220
0
230
1
 50
90
 73
    2
 44
1
  0
LINE
  5
17A
100
AcDbEntity
  8
rozmir
  6
ByBlock
 62
    0
370
   -2
100
AcDbLine
 10
175.5
 20
-144.5
 11
210.5
 21
-144.5
  0
LINE
  5
17B
100
AcDbEntity
  8
rozmir
  6
ByBlock
 62
    0
370
   -2
100
AcDbLine
 10
175.5
 20
-172.5
 11
210.5
 21
-172.5
  0
ENDBLK
  5
BE
330
BC
100
AcDbEntity
  8
0
100
AcDbBlockEnd
  0
BLOCK
  5
C0
330
BF
100
AcDbEntity
  8
0
100
AcDbBlockBegin
  2
*D27
 70
    1
 10
0
 20
0
  3
*D27
  1

  0
LINE
  5
17C
100
AcDbEntity
  8
rozmir
  6
ByBlock
 62
    0
370
   -2
100
AcDbLine
 10
324
 20
49.99999999999999
 11
276
 21
50
  0
SOLID
  5
17D
100
AcDbEntity
  8
rozmir
  6
ByBlock
 62
    0
370
   -2
100
AcDbTrace
 10
324
 20
49.99999999999999
 30
0
 11
319
 21
49.16743068445431
 31
0
 12
319
 22
50.83256931554568
 32
0
 13
319
 23
50.83256931554568
 33
0
  0
SOLID
  5
17E
100
AcDbEntity
  8
rozmir
  6
ByBlock
 62
    0
370
   -2
100
AcDbTrace
 10
276
 20
50
 30
0
 11
281
 21
50.83256931554568
 31
0
 12
281
 22
49.16743068445432
 32
0
 13
281
 23
49.16743068445432
 33
0
  0
MTEXT
  5
17F
100
AcDbEntity
  8
rozmir
  6
CONTINUOUS
 62
    0
370
   -2
100
AcDbMText
 10
300
 20
55
 30
0
 40
5
 41
6.666666666666667
 71
    5
 72
    1
  1
48
  7
standard
210
0
220
0
230
1
 50
360
 73
    2
 44
1
  0
LINE
  5
180
100
AcDbEntity
  8
rozmir
  6
ByBlock
 62
    0
370
   -2
100
AcDbLine
 10
324
 20
44.5
 11
324
 21
52.49999999999999
  0
LINE
  5
181
100
AcDbEntity
  8
rozmir
  6
ByBlock
 62
    0
370
   -2
100
AcDbLine
 10
276
 20
44.5
 11
276
 21
52.5
  0
ENDBLK
  5
C1
330
BF
100
AcDbEntity
  8
0
100
AcDbBlockEnd
  0
BLOCK
  5
C3
330
C2
100
AcDbEntity
  8
0
100
AcDbBlockBegin
  2
*D24
 70
    1
 10
0
 20
0
  3
*D24
  1

  0
LINE
  5
182
100
AcDbEntity
  8
rozmir
  6
ByBlock
 62
    0
370
   -2
100
AcDbLine
 10
208
 20
-172.5
 11
208
 21
-200.5
  0
SOLID
  5
183
100
AcDbEntity
  8
rozmir
  6
ByBlock
 62
    0
370
   -2
100
AcDbTrace
 10
208
 20
-172.5
 30
0
 11
208.8325693155457
 21
-177.5
 31
0
 12
207.1674306844543
 22
-177.5
 32
0
 13
207.1674306844543
 23
-177.5
 33
0
  0
SOLID
  5
184
100
AcDbEntity
  8
rozmir
  6
ByBlock
 62
    0
370
   -2
100
AcDbTrace
 10
208
 20
-200.5
 30
0
 11
207.1674306844543
 21
-195.5
 31
0
 12
208.8325693155457
 22
-195.5
 32
0
 13
208.8325693155457
 23
-195.5
 33
0
  0
MTEXT
  5
185
100
AcDbEntity
  8
rozmir
  6
CONTINUOUS
 62
    0
370
   -2
100
AcDbMText
 10
213
 20
-186.5
 30
0
 40
5
 41
6.111111111111112
 71
    5
 72
    1
  1
28
  7
standard
210
0
220
0
230
1
 50
90
 73
    2
 44
1
  0
LINE
  5
186
100
AcDbEntity
  8
rozmir
  6
ByBlock
 62
    0
370
   -2
100
AcDbLine
 10
175.5
 20
-172.5
 11
210.5
 21
-172.5
  0
LINE
  5
187
100
AcDbEntity
  8
rozmir
  6
ByBlock
 62
    0
370
   -2
100
AcDbLine
 10
175.5
 20
-200.5
 11
210.5
 21
-200.5
  0
ENDBLK
  5
C4
330
C2
100
AcDbEntity
  8
0
100
AcDbBlockEnd
  0
BLOCK
  5
C6
330
C5
100
AcDbEntity
  8
0
100
AcDbBlockBegin
  2
*D34
 70
    1
 10
0
 20
0
  3
*D34
  1

  0
LINE
  5
188
100
AcDbEntity
  8
rozmir
  6
ByBlock
 62
    0
370
   -2
100
AcDbLine
 10
198
 20
11.00000000000001
 11
198
 21
25.50000000000001
  0
SOLID
  5
189
100
AcDbEntity
  8
rozmir
  6
ByBlock
 62
    0
370
   -2
100
AcDbTrace
 10
198
 20
11.00000000000001
 30
0
 11
197.1674306844543
 21
16.00000000000001
 31
0
 12
198.8325693155457
 22
16.00000000000001
 32
0
 13
198.8325693155457
 23
16.00000000000001
 33
0
  0
SOLID
  5
18A
100
AcDbEntity
  8
rozmir
  6
ByBlock
 62
    0
370
   -2
100
AcDbTrace
 10
198
 20
25.50000000000001
 30
0
 11
198.8325693155457
 21
20.50000000000001
 31
0
 12
197.1674306844543
 22
20.50000000000001
 32
0
 13
197.1674306844543
 23
20.50000000000001
 33
0
  0
MTEXT
  5
18B
100
AcDbEntity
  8
rozmir
  6
CONTINUOUS
 62
    0
370
   -2
100
AcDbMText
 10
193
 20
18.25000000000001
 30
0
 40
5
 41
11.3888888888892
 71
    5
 72
    1
  1
14,5
  7
standard
210
0
220
0
230
1
 50
90
 73
    2
 44
1
  0
LINE
  5
18C
100
AcDbEntity
  8
rozmir
  6
ByBlock
 62
    0
370
   -2
100
AcDbLine
 10
175.5
 20
11
 11
200.5
 21
11.00000000000001
  0
LINE
  5
18D
100
AcDbEntity
  8
rozmir
  6
ByBlock
 62
    0
370
   -2
100
AcDbLine
 10
175.5
 20
25.5
 11
200.5
 21
25.50000000000001
  0
ENDBLK
  5
C7
330
C5
100
AcDbEntity
  8
0
100
AcDbBlockEnd
  0
BLOCK
  5
C9
330
C8
100
AcDbEntity
  8
0
100
AcDbBlockBegin
  2
*D21
 70
    1
 10
0
 20
0
  3
*D21
  1

  0
LINE
  5
18E
100
AcDbEntity
  8
rozmir
  6
ByBlock
 62
    0
370
   -2
100
AcDbLine
 10
174.5
 20
-80.00000000000001
 11
59.50000000000001
 21
-80
  0
SOLID
  5
18F
100
AcDbEntity
  8
rozmir
  6
ByBlock
 62
    0
370
   -2
100
AcDbTrace
 10
174.5
 20
-80.00000000000001
 30
0
 11
169.5
 21
-80.8325693155457
 31
0
 12
169.5
 22
-79.16743068445433
 32
0
 13
169.5
 23
-79.16743068445433
 33
0
  0
SOLID
  5
190
100
AcDbEntity
  8
rozmir
  6
ByBlock
 62
    0
370
   -2
100
AcDbTrace
 10
59.50000000000001
 20
-80
 30
0
 11
64.5
 21
-79.16743068445432
 31
0
 12
64.5
 22
-80.83256931554568
 32
0
 13
64.5
 23
-80.83256931554568
 33
0
  0
MTEXT
  5
191
100
AcDbEntity
  8
rozmir
  6
CONTINUOUS
 62
    0
370
   -2
100
AcDbMText
 10
117
 20
-75
 30
0
 40
5
 41
7.777777777778089
 71
    5
 72
    1
  1
115
  7
standard
210
0
220
0
230
1
 50
360
 73
    2
 44
1
  0
LINE
  5
192
100
AcDbEntity
  8
rozmir
  6
ByBlock
 62
    0
370
   -2
100
AcDbLine
 10
174.5
 20
-111
 11
174.5
 21
-77.50000000000001
  0
LINE
  5
193
100
AcDbEntity
  8
rozmir
  6
ByBlock
 62
    0
370
   -2
100
AcDbLine
 10
59.5
 20
-111
 11
59.50000000000001
 21
-77.5
  0
ENDBLK
  5
CA
330
C8
100
AcDbEntity
  8
0
100
AcDbBlockEnd
  0
BLOCK
  5
CC
330
CB
100
AcDbEntity
  8
0
100
AcDbBlockBegin
  2
block10
 70
    0
 10
0
 20
0
  3
block10
  1

  0
LWPOLYLINE
  5
194
100
AcDbEntity
  8
0
  6
CONTINUOUS
 62
    7
370
   70
100
AcDbPolyline
 90
   12
 70
    1
 43
0
 10
-0.6062178
 20
1
 10
0
 20
0
 10
0.6062178
 20
1
 10
1.8186533
 20
1
 10
1.2124356
 20
2
 10
1.8186533
 20
3
 10
0.6062178
 20
3
 10
0
 20
4
 10
-0.6062178
 20
3
 10
-1.8186533
 20
3
 10
-1.2124356
 20
2
 10
-1.8186533
 20
1
  0
ENDBLK
  5
CD
330
CB
100
AcDbEntity
  8
0
100
AcDbBlockEnd
  0
ENDSEC
  0
SECTION
  2
ENTITIES
  0
HATCH
  5
195
100
AcDbEntity
  8
dveri
  6
ByLayer
 62
  256
370
   -1
100
AcDbHatch
 10
0
 20
0
 30
0
210
0
220
0
230
1
  2
gost_metal
 70
    0
 71
    0
 91
    1
 92
    0
 93
   16
 72
    2
 10
272.4
 20
46.49999999999999
 40
0.1000000000000085
 50
180.0000000000081
 51
270
 73
    0
 72
    1
 10
272.4
 20
46.59999999999999
 11
275.6
 21
46.59999999999999
 72
    2
 10
275.6
 20
46.50000000000001
 40
0.09999999999998366
 50
270.0000000000326
 51
8.142219984546603e-12
 73
    0
 72
    1
 10
275.7
 20
46.5
 11
275.7
 21
43.3
 72
    2
 10
272.4
 20
43.29999999999998
 40
0.3999999999999879
 50
90
 51
180.000000000002
 73
    0
 72
    1
 10
272
 20
43.3
 11
272
 21
46.5
 72
    2
 10
272.4
 20
46.50000000000001
 40
0.3999999999999879
 50
179.999999999998
 51
270
 73
    0
 72
    1
 10
272.4
 20
46.90000000000001
 11
275.6
 21
46.90000000000001
 72
    2
 10
275.6
 20
46.50000000000001
 40
0.3999999999999879
 50
270
 51
2.035554996136651e-12
 73
    0
 72
    1
 10
276
 20
46.5
 11
276
 21
43.3
 72
    2
 10
275.6
 20
43.29999999999998
 40
0.3999999999999879
 50
359.999999999998
 51
90
 73
    0
 72
    1
 10
275.6
 20
42.90000000000001
 11
272.4
 21
42.90000000000001
 72
    2
 10
275.6
 20
43.30000000000001
 40
0.1000000000000121
 50
8.142219984546603e-12
 51
90
 73
    0
 72
    1
 10
275.6
 20
43.19999999999999
 11
272.4
 21
43.19999999999999
 72
    2
 10
272.4
 20
43.29999999999998
 40
0.09999999999998721
 50
90.00000000003257
 51
180.0000000000122
 73
    0
 72
    1
 10
272.3
 20
43.30000000000001
 11
272.3
 21
46.5
 97
    0
 75
    0
 76
    1
 52
3.141592653589793
 41
0.1
 77
    0
 78
    0
 98
    0
  0
HATCH
  5
196
100
AcDbEntity
  8
dveri
  6
ByLayer
 62
  256
370
   -1
100
AcDbHatch
 10
0
 20
0
 30
0
210
0
220
0
230
1
  2
gost_metal
 70
    0
 71
    0
 91
    1
 92
    0
 93
    4
 72
    1
 10
266
 20
42.5
 11
275
 21
42.5
 72
    1
 10
275
 20
42.5
 11
275
 21
42.90000000000001
 72
    1
 10
275
 20
42.90000000000001
 11
266
 21
42.90000000000001
 72
    1
 10
266
 20
42.90000000000001
 11
266
 21
42.5
 97
    0
 75
    0
 76
    1
 52
3.141592653589793
 41
0.1
 77
    0
 78
    0
 98
    0
  0
HATCH
  5
197
100
AcDbEntity
  8
skhody
  6
DASHED2
 62
  256
370
   -1
100
AcDbHatch
 10
0
 20
0
 30
0
210
0
220
0
230
1
  2
gost_concrete
 70
    0
 71
    0
 91
    1
 92
    0
 93
    4
 72
    1
 10
276
 20
40
 11
276
 21
42.5
 72
    1
 10
276
 20
42.5
 11
266
 21
42.5
 72
    1
 10
266
 20
42.5
 11
266
 21
40
 72
    1
 10
266
 20
40
 11
276
 21
40
 97
    0
 75
    0
 76
    1
 52
0
 41
1
 77
    0
 78
    0
 98
    0
  0
HATCH
  5
198
100
AcDbEntity
  8
pisok
  6
DASHED2
 62
  256
370
   -1
100
AcDbHatch
 10
0
 20
0
 30
0
210
0
220
0
230
1
  2
gost_sand
 70
    0
 71
    0
 91
    1
 92
    0
 93
   10
 72
    1
 10
-10
 20
-5
 11
-9
 21
-6
 72
    1
 10
-9
 20
-6
 11
-10
 21
-7
 72
    1
 10
-10
 20
-7
 11
188
 21
-7
 72
    1
 10
188
 20
-7
 11
187
 21
-6
 72
    1
 10
187
 20
-6
 11
188
 21
-5
 72
    1
 10
188
 20
-5
 11
187
 21
-4
 72
    1
 10
187
 20
-4
 11
188
 21
-3
 72
    1
 10
188
 20
-3
 11
-10
 21
-3
 72
    1
 10
-10
 20
-3
 11
-9
 21
-4
 72
    1
 10
-9
 20
-4
 11
-10
 21
-5
 97
    0
 75
    0
 76
    1
 52
1.570796326794897
 41
1
 77
    0
 78
    0
 98
    0
  0
HATCH
  5
199
100
AcDbEntity
  8
pisok
  6
DASHED2
 62
  256
370
   -1
100
AcDbHatch
 10
0
 20
0
 30
0
210
0
220
0
230
1
  2
gost_sand
 70
    0
 71
    0
 91
    1
 92
    0
 93
    8
 72
    1
 10
411
 20
-4
 11
412
 21
-3
 72
    1
 10
412
 20
-3
 11
376.5
 21
-3
 72
    1
 10
376.5
 20
-3
 11
376.5
 21
-7
 72
    1
 10
376.5
 20
-7
 11
412
 21
-7.000000000000002
 72
    1
 10
412
 20
-7.000000000000002
 11
412
 21
-7.000000000000002
 72
    1
 10
412
 20
-7.000000000000002
 11
411
 21
-6.000000000000002
 72
    1
 10
411
 20
-6.000000000000002
 11
412
 21
-5.000000000000002
 72
    1
 10
412
 20
-5.000000000000002
 11
411
 21
-4
 97
    0
 75
    0
 76
    1
 52
1.570796326794897
 41
1
 77
    0
 78
    0
 98
    0
  0
HATCH
  5
19A
100
AcDbEntity
  8
skhody
  6
DASHED2
 62
  256
370
   -1
100
AcDbHatch
 10
0
 20
0
 30
0
210
0
220
0
230
1
  2
gost_concrete
 70
    0
 71
    0
 91
    1
 92
    0
 93
    8
 72
    1
 10
376.5
 20
-7
 11
376.5
 21
11
 72
    1
 10
376.5
 20
11
 11
348.5000000000001
 21
11
 72
    1
 10
348.5000000000001
 20
11
 11
348.5000000000001
 21
25.50000000000002
 72
    1
 10
348.5000000000001
 20
25.50000000000002
 11
320.5
 21
25.5
 72
    1
 10
320.5
 20
25.5
 11
320.5
 21
40
 72
    1
 10
320.5
 20
40
 11
288
 21
40
 72
    1
 10
288
 20
40
 11
288
 21
-7.000000000000002
 72
    1
 10
288
 20
-7.000000000000002
 11
376.5
 21
-7
 97
    0
 75
    0
 76
    1
 52
4.71238898038469
 41
1
 77
    0
 78
    0
 98
    0
  0
HATCH
  5
19B
100
AcDbEntity
  8
plytka3
  6
ByLayer
 62
  256
370
   -1
100
AcDbHatch
 10
0
 20
0
 30
0
210
0
220
0
230
1
  2
gost_stone
 70
    0
 71
    0
 91
    1
 92
    0
 93
    4
 72
    1
 10
377
 20
0
 11
380
 21
0
 72
    1
 10
380
 20
0
 11
380
 21
11.5
 72
    1
 10
380
 20
11.5
 11
377
 21
11.5
 72
    1
 10
377
 20
11.5
 11
377
 21
0
 97
    0
 75
    0
 76
    1
 52
3.141592653589793
 41
1
 77
    0
 78
    0
 98
    0
  0
HATCH
  5
19C
100
AcDbEntity
  8
plytka3
  6
ByLayer
 62
  256
370
   -1
100
AcDbHatch
 10
0
 20
0
 30
0
210
0
220
0
230
1
  2
gost_stone
 70
    0
 71
    0
 91
    1
 92
    0
 93
    4
 72
    1
 10
380
 20
11.5
 11
380
 21
14.5
 72
    1
 10
380
 20
14.5
 11
350
 21
14.49999999999998
 72
    1
 10
350
 20
14.49999999999998
 11
350
 21
11.49999999999998
 72
    1
 10
350
 20
11.49999999999998
 11
380
 21
11.5
 97
    0
 75
    0
 76
    1
 52
3.141592653589793
 41
1
 77
    0
 78
    0
 98
    0
  0
HATCH
  5
19D
100
AcDbEntity
  8
plytka3
  6
ByLayer
 62
  256
370
   -1
100
AcDbHatch
 10
0
 20
0
 30
0
210
0
220
0
230
1
  2
gost_stone
 70
    0
 71
    0
 91
    1
 92
    0
 93
    4
 72
    1
 10
324
 20
40.5
 11
321
 21
40.5
 72
    1
 10
321
 20
40.5
 11
321
 21
29
 72
    1
 10
321
 20
29
 11
324
 21
29
 72
    1
 10
324
 20
29
 11
324
 21
40.5
 97
    0
 75
    0
 76
    1
 52
3.141592653589793
 41
1
 77
    0
 78
    0
 98
    0
  0
HATCH
  5
19E
100
AcDbEntity
  8
plytka3
  6
ByLayer
 62
  256
370
   -1
100
AcDbHatch
 10
0
 20
0
 30
0
210
0
220
0
230
1
  2
gost_stone
 70
    0
 71
    0
 91
    1
 92
    0
 93
    4
 72
    1
 10
352
 20
26
 11
352
 21
29
 72
    1
 10
352
 20
29
 11
322
 21
29
 72
    1
 10
322
 20
29
 11
322
 21
26
 72
    1
 10
322
 20
26
 11
352
 21
26
 97
    0
 75
    0
 76
    1
 52
3.141592653589793
 41
1
 77
    0
 78
    0
 98
    0
  0
HATCH
  5
19F
100
AcDbEntity
  8
plytka3
  6
ByLayer
 62
  256
370
   -1
100
AcDbHatch
 10
0
 20
0
 30
0
210
0
220
0
230
1
  2
gost_stone
 70
    0
 71
    0
 91
    1
 92
    0
 93
    4
 72
    1
 10
349
 20
14.49999999999998
 11
352
 21
14.49999999999998
 72
    1
 10
352
 20
14.49999999999998
 11
352
 21
26
 72
    1
 10
352
 20
26
 11
349
 21
26
 72
    1
 10
349
 20
26
 11
349
 21
14.49999999999998
 97
    0
 75
    0
 76
    1
 52
3.141592653589793
 41
1
 77
    0
 78
    0
 98
    0
  0
HATCH
  5
1A0
100
AcDbEntity
  8
plytka3
  6
ByLayer
 62
  256
370
   -1
100
AcDbHatch
 10
0
 20
0
 30
0
210
0
220
0
230
1
  2
gost_stone
 70
    0
 71
    0
 91
    1
 92
    0
 93
    4
 72
    1
 10
324
 20
43.5
 11
324
 21
40.5
 72
    1
 10
324
 20
40.5
 11
276
 21
40.5
 72
    1
 10
276
 20
40.5
 11
276
 21
43.5
 72
    1
 10
276
 20
43.5
 11
324
 21
43.5
 97
    0
 75
    0
 76
    1
 52
3.141592653589793
 41
1
 77
    0
 78
    0
 98
    0
  0
HATCH
  5
1A1
100
AcDbEntity
  8
tekst
  6
DASHED2
 62
  256
370
   -1
100
AcDbHatch
 10
0
 20
0
 30
0
210
0
220
0
230
1
  2
gost_concrete
 70
    0
 71
    0
 91
    1
 92
    0
 93
   12
 72
    1
 10
279
 20
-17
 11
278
 21
-15
 72
    1
 10
278
 20
-15
 11
276
 21
-19
 72
    1
 10
276
 20
-19
 11
275
 21
-17
 72
    1
 10
275
 20
-17
 11
266
 21
-17
 72
    1
 10
266
 20
-17
 11
266
 21
7.999999999999998
 72
    1
 10
266
 20
7.999999999999998
 11
268
 21
8.999999999999998
 72
    1
 10
268
 20
8.999999999999998
 11
264
 21
11
 72
    1
 10
264
 20
11
 11
266
 21
12
 72
    1
 10
266
 20
12
 11
266
 21
40
 72
    1
 10
266
 20
40
 11
288
 21
40
 72
    1
 10
288
 20
40
 11
288
 21
-17
 72
    1
 10
288
 20
-17
 11
279
 21
-17
 97
    0
 75
    0
 76
    1
 52
4.71238898038469
 41
2
 77
    0
 78
    0
 98
    0
  0
HATCH
  5
1A2
100
AcDbEntity
  8
lyce
  6
ByLayer
 62
  256
370
   -1
100
AcDbHatch
 10
0
 20
0
 30
0
210
0
220
0
230
1
  2
gost_ceramics
 70
    0
 71
    0
 91
    1
 92
    0
 93
    8
 72
    1
 10
71
 20
-100
 11
71
 21
-112
 72
    1
 10
71
 20
-112
 11
-10
 21
-112
 72
    1
 10
-10
 20
-112
 11
-10
 21
-108
 72
    1
 10
-10
 20
-108
 11
-12
 21
-107
 72
    1
 10
-12
 20
-107
 11
-8
 21
-105
 72
    1
 10
-8
 20
-105
 11
-10
 21
-104
 72
    1
 10
-10
 20
-104
 11
-10
 21
-100
 72
    1
 10
-10
 20
-100
 11
71
 21
-100
 97
    0
 75
    0
 76
    1
 52
0
 41
1
 77
    0
 78
    0
 98
    0
  0
HATCH
  5
1A3
100
AcDbEntity
  8
sterodur
  6
ByLayer
 62
  256
370
   -1
100
AcDbHatch
 10
0
 20
0
 30
0
210
0
220
0
230
1
  2
gost_non-metal
 70
    0
 71
    0
 91
    1
 92
    0
 93
    8
 72
    1
 10
-10
 20
-114
 11
-11
 21
-113
 72
    1
 10
-11
 20
-113
 11
-10
 21
-112
 72
    1
 10
-10
 20
-112
 11
56
 21
-112
 72
    1
 10
56
 20
-112
 11
56
 21
-117
 72
    1
 10
56
 20
-117
 11
-11
 21
-117
 72
    1
 10
-11
 20
-117
 11
-10
 21
-116
 72
    1
 10
-10
 20
-116
 11
-11
 21
-115
 72
    1
 10
-11
 20
-115
 11
-10
 21
-114
 97
    0
 75
    0
 76
    1
 52
0
 41
2
 77
    0
 78
    0
 98
    0
  0
HATCH
  5
1A4
100
AcDbEntity
  8
sterodur
  6
ByLayer
 62
  256
370
   -1
100
AcDbHatch
 10
0
 20
0
 30
0
210
0
220
0
230
1
  2
gost_non-metal
 70
    0
 71
    0
 91
    1
 92
    0
 93
    8
 72
    1
 10
188
 20
-116
 11
189
 21
-115
 72
    1
 10
189
 20
-115
 11
188
 21
-114
 72
    1
 10
188
 20
-114
 11
189
 21
-113
 72
    1
 10
189
 20
-113
 11
188
 21
-112
 72
    1
 10
188
 20
-112
 11
178
 21
-112
 72
    1
 10
178
 20
-112
 11
178
 21
-117
 72
    1
 10
178
 20
-117
 11
189
 21
-117
 72
    1
 10
189
 20
-117
 11
188
 21
-116
 97
    0
 75
    0
 76
    1
 52
3.141592653589793
 41
2
 77
    0
 78
    0
 98
    0
  0
HATCH
  5
1A5
100
AcDbEntity
  8
lyce
  6
ByLayer
 62
  256
370
   -1
100
AcDbHatch
 10
0
 20
0
 30
0
210
0
220
0
230
1
  2
gost_ceramics
 70
    0
 71
    0
 91
    1
 92
    0
 93
    8
 72
    1
 10
188
 20
-108
 11
190
 21
-107
 72
    1
 10
190
 20
-107
 11
186
 21
-105
 72
    1
 10
186
 20
-105
 11
188
 21
-104
 72
    1
 10
188
 20
-104
 11
188
 21
-100
 72
    1
 10
188
 20
-100
 11
163
 21
-100
 72
    1
 10
163
 20
-100
 11
163
 21
-112
 72
    1
 10
163
 20
-112
 11
188
 21
-112
 72
    1
 10
188
 20
-112
 11
188
 21
-108
 97
    0
 75
    0
 76
    1
 52
3.141592653589793
 41
1
 77
    0
 78
    0
 98
    0
  0
HATCH
  5
1A6
100
AcDbEntity
  8
fundament
  6
ByLayer
 62
  256
370
   -1
100
AcDbHatch
 10
0
 20
0
 30
0
210
0
220
0
230
1
  2
gost_concrete
 70
    0
 71
    0
 91
    1
 92
    0
 93
   20
 72
    1
 10
137
 20
-19
 11
136
 21
-17
 72
    1
 10
136
 20
-17
 11
38
 21
-17
 72
    1
 10
38
 20
-17
 11
37
 21
-15
 72
    1
 10
37
 20
-15
 11
35
 21
-19
 72
    1
 10
35
 20
-19
 11
34
 21
-17
 72
    1
 10
34
 20
-17
 11
-10
 21
-17
 72
    1
 10
-10
 20
-17
 11
-10
 21
-15
 72
    1
 10
-10
 20
-15
 11
-12
 21
-14
 72
    1
 10
-12
 20
-14
 11
-8
 21
-12
 72
    1
 10
-8
 20
-12
 11
-10
 21
-11
 72
    1
 10
-10
 20
-11
 11
-10
 21
-7
 72
    1
 10
-10
 20
-7
 11
188
 21
-7
 72
    1
 10
188
 20
-7
 11
188
 21
-10
 72
    1
 10
188
 20
-10
 11
186
 21
-11
 72
    1
 10
186
 20
-11
 11
190
 21
-13
 72
    1
 10
190
 20
-13
 11
188
 21
-14
 72
    1
 10
188
 20
-14
 11
188
 21
-17
 72
    1
 10
188
 20
-17
 11
140
 21
-17
 72
    1
 10
140
 20
-17
 11
139
 21
-15
 72
    1
 10
139
 20
-15
 11
137
 21
-19
 97
    0
 75
    0
 76
    1
 52
3.141592653589793
 41
2
 77
    0
 78
    0
 98
    0
  0
HATCH
  5
1A7
100
AcDbEntity
  8
tekst
  6
DASHED2
 62
  256
370
   -1
100
AcDbHatch
 10
0
 20
0
 30
0
210
0
220
0
230
1
  2
gost_concrete
 70
    0
 71
    0
 91
    1
 92
    0
 93
   16
 72
    1
 10
322
 20
-19
 11
321
 21
-17
 72
    1
 10
321
 20
-17
 11
288
 21
-17
 72
    1
 10
288
 20
-17
 11
288
 21
-7.000000000000002
 72
    1
 10
288
 20
-7.000000000000002
 11
412
 21
-7.000000000000002
 72
    1
 10
412
 20
-7.000000000000002
 11
412
 21
-10
 72
    1
 10
412
 20
-10
 11
410
 21
-11
 72
    1
 10
410
 20
-11
 11
414
 21
-13
 72
    1
 10
414
 20
-13
 11
412
 21
-14
 72
    1
 10
412
 20
-14
 11
412
 21
-17
 72
    1
 10
412
 20
-17
 11
382
 21
-17
 72
    1
 10
382
 20
-17
 11
381
 21
-15
 72
    1
 10
381
 20
-15
 11
379
 21
-19
 72
    1
 10
379
 20
-19
 11
378
 21
-17
 72
    1
 10
378
 20
-17
 11
325
 21
-17
 72
    1
 10
325
 20
-17
 11
324
 21
-15
 72
    1
 10
324
 20
-15
 11
322
 21
-19
 97
    0
 75
    0
 76
    1
 52
3.141592653589793
 41
2
 77
    0
 78
    0
 98
    0
  0
HATCH
  5
1A8
100
AcDbEntity
  8
plytka3
  6
ByLayer
 62
  256
370
   -1
100
AcDbHatch
 10
0
 20
0
 30
0
210
0
220
0
230
1
  2
gost_stone
 70
    0
 71
    0
 91
    1
 92
    0
 93
    4
 72
    1
 10
412
 20
-3.000000000000003
 11
412
 21
-1.77635683940025e-15
 72
    1
 10
412
 20
-1.77635683940025e-15
 11
377
 21
0
 72
    1
 10
377
 20
0
 11
377
 21
-3
 72
    1
 10
377
 20
-3
 11
412
 21
-3.000000000000003
 97
    0
 75
    0
 76
    1
 52
3.141592653589793
 41
1
 77
    0
 78
    0
 98
    0
  0
HATCH
  5
1A9
100
AcDbEntity
  8
plytka3
  6
ByLayer
 62
  256
370
   -1
100
AcDbHatch
 10
0
 20
0
 30
0
210
0
220
0
230
1
  2
gost_stone
 70
    0
 71
    0
 91
    1
 92
    0
 93
    9
 72
    1
 10
-9
 20
-3
 11
188
 21
-3
 72
    1
 10
188
 20
-3
 11
187
 21
-2
 72
    1
 10
187
 20
-2
 11
188
 21
-1
 72
    1
 10
188
 20
-1
 11
187
 21
0
 72
    1
 10
187
 20
0
 11
187
 21
0
 72
    1
 10
187
 20
0
 11
-10
 21
0
 72
    1
 10
-10
 20
0
 11
-9
 21
-1
 72
    1
 10
-9
 20
-1
 11
-10
 21
-2
 72
    1
 10
-10
 20
-2
 11
-9
 21
-3
 97
    0
 75
    0
 76
    1
 52
3.141592653589793
 41
1
 77
    0
 78
    0
 98
    0
  0
LWPOLYLINE
  5
1AA
100
AcDbEntity
  8
plytka3
  6
ByLayer
 62
  256
370
   -1
100
AcDbPolyline
 90
    9
 70
    1
 43
0
 10
187
 20
0
 10
-10
 20
0
 10
-9
 20
-1
 10
-10
 20
-2
 10
-9
 20
-3
 10
188
 20
-3
 10
187
 20
-2
 10
188
 20
-1
 10
187
 20
0
  0
LWPOLYLINE
  5
1AB
100
AcDbEntity
  8
plytka3
  6
CONTINUOUS
 62
    2
370
   25
100
AcDbPolyline
 90
    6
 70
    1
 43
0
 10
411
 20
-3.000000000000002
 10
412
 20
-2.000000000000002
 10
411
 20
-1.000000000000002
 10
412
 20
-1.77635683940025e-15
 10
377
 20
0
 10
377
 20
-3
  0
LEADER
  5
1AC
100
AcDbEntity
  8
tekst
  6
ByLayer
 62
  256
370
   -1
100
AcDbLeader
  3
Standard
 71
    1
 72
    0
 73
    3
 74
    0
 75
    0
 40
1
 41
10
 76
3
 76
3
 10
395
 20
-5.000000000000002
 30
0
 10
412
 20
20
 30
0
 10
422
 20
20
 30
0
  0
LEADER
  5
1AD
100
AcDbEntity
  8
tekst
  6
ByLayer
 62
  256
370
   -1
100
AcDbLeader
  3
Standard
 71
    1
 72
    0
 73
    3
 74
    0
 75
    0
 40
1
 41
10
 76
3
 76
3
 10
392
 20
-1.77635683940025e-15
 30
0
 10
412
 20
30
 30
0
 10
422
 20
30
 30
0
  0
LEADER
  5
1AE
100
AcDbEntity
  8
tekst
  6
ByLayer
 62
  256
370
   -1
100
AcDbLeader
  3
Standard
 71
    1
 72
    0
 73
    3
 74
    0
 75
    0
 40
1
 41
10
 76
3
 76
3
 10
377
 20
1.999999999999998
 30
0
 10
412
 20
40
 30
0
 10
422
 20
40
 30
0
  0
LEADER
  5
1AF
100
AcDbEntity
  8
tekst
  6
ByLayer
 62
  256
370
   -1
100
AcDbLeader
  3
Standard
 71
    1
 72
    0
 73
    3
 74
    0
 75
    0
 40
1
 41
10
 76
3
 76
3
 10
292
 20
-1.77635683940025e-15
 30
0
 10
252
 20
9.999999999999998
 30
0
 10
242
 20
9.999999999999998
 30
0
  0
LEADER
  5
1B0
100
AcDbEntity
  8
tekst
  6
ByLayer
 62
  256
370
   -1
100
AcDbLeader
  3
Standard
 71
    1
 72
    0
 73
    3
 74
    0
 75
    0
 40
1
 41
10
 76
3
 76
3
 10
272
 20
-5.000000000000002
 30
0
 10
252
 20
-1.77635683940025e-15
 30
0
 10
242
 20
-1.77635683940025e-15
 30
0
  0
MTEXT
  5
1B1
100
AcDbEntity
  8
tekst
  6
ByLayer
 62
  256
370
   -1
100
AcDbMText
 10
417
 20
42
 30
0
 40
5
 41
1.111111111111111
 71
    8
 72
    1
  1
1
  7
cyrillic_ii
210
0
220
0
230
1
 50
360
 73
    2
 44
1
  0
MTEXT
  5
1B2
100
AcDbEntity
  8
tekst
  6
ByLayer
 62
  256
370
   -1
100
AcDbMText
 10
417
 20
32
 30
0
 40
5
 41
2.222222222222222
 71
    8
 72
    1
  1
2
  7
cyrillic_ii
210
0
220
0
230
1
 50
360
 73
    2
 44
1
  0
MTEXT
  5
1B3
100
AcDbEntity
  8
tekst
  6
ByLayer
 62
  256
370
   -1
100
AcDbMText
 10
417
 20
22
 30
0
 40
5
 41
2.222222222222532
 71
    8
 72
    1
  1
3
  7
cyrillic_ii
210
0
220
0
230
1
 50
360
 73
    2
 44
1
  0
MTEXT
  5
1B4
100
AcDbEntity
  8
tekst
  6
ByLayer
 62
  256
370
   -1
100
AcDbMText
 10
417
 20
12
 30
0
 40
5
 41
2.777777777777778
 71
    8
 72
    1
  1
4
  7
cyrillic_ii
210
0
220
0
230
1
 50
360
 73
    2
 44
1
  0
MTEXT
  5
1B5
100
AcDbEntity
  8
tekst
  6
ByLayer
 62
  256
370
   -1
100
AcDbMText
 10
200
 20
100
 30
0
 40
10
 41
50.83333333333396
 71
    5
 72
    1
  1
 3
  7
cyrillic_ii
210
0
220
0
230
1
 50
0
 73
    2
 44
1
  0
MTEXT
  5
1B6
100
AcDbEntity
  8
tekst
  6
ByLayer
 62
  256
370
   -1
100
AcDbMText
 10
430
 20
-250
 30
0
 40
10
 41
48.6111111111122
 71
    6
 72
    1
  1
. 25
  7
cyrillic_ii
210
0
220
0
230
1
 50
0
 73
    2
 44
1
  0
LINE
  5
1B7
100
AcDbEntity
  8
tekst
  6
ByLayer
 62
  256
370
   -1
100
AcDbLine
 10
173
 20
93
 11
227
 21
93
  0
LWPOLYLINE
  5
1B8
100
AcDbEntity
  8
fundament
  6
CONTINUOUS
 62
  136
420
32896
370
   25
100
AcDbPolyline
 90
   20
 70
    1
 43
0
 10
188
 20
-7
 10
188
 20
-10
 10
186
 20
-11
 10
190
 20
-13
 10
188
 20
-14
 10
188
 20
-17
 10
140
 20
-17
 10
139
 20
-15
 10
137
 20
-19
 10
136
 20
-17
 10
38
 20
-17
 10
37
 20
-15
 10
35
 20
-19
 10
34
 20
-17
 10
-10
 20
-17
 10
-10
 20
-15
 10
-12
 20
-14
 10
-8
 20
-12
 10
-10
 20
-11
 10
-10
 20
-7
  0
DIMENSION
  5
1B9
100
AcDbEntity
  8
rozmir
  6
ByLayer
 62
  256
370
   -1
100
AcDbDimension
  2
*D6
 10
-32
 20
2.694222958124177e-15
 30
0
 11
-37
 21
-3.500000000000003
 31
0
 70
   32
 71
    5
 72
    0
  3
Standard
 53
0
210
0
220
0
230
1
100
AcDbAlignedDimension
 13
-10
 23
-7
 33
0
 14
-10
 24
0
 34
0
 50
90.00000000000001
100
AcDbRotatedDimension
  0
LWPOLYLINE
  5
1BA
100
AcDbEntity
  8
fundament
  6
CONTINUOUS
 62
  136
420
32896
370
   25
100
AcDbPolyline
 90
   16
 70
    1
 43
0
 10
412
 20
-7.000000000000002
 10
412
 20
-10
 10
410
 20
-11
 10
414
 20
-13
 10
412
 20
-14
 10
412
 20
-17
 10
382
 20
-17
 10
381
 20
-15
 10
379
 20
-19
 10
378
 20
-17
 10
325
 20
-17
 10
324
 20
-15
 10
322
 20
-19
 10
321
 20
-17
 10
288
 20
-17
 10
288
 20
-7.000000000000002
  0
LEADER
  5
1BB
100
AcDbEntity
  8
tekst
  6
ByLayer
 62
  256
370
   -1
100
AcDbLeader
  3
Standard
 71
    1
 72
    0
 73
    3
 74
    0
 75
    0
 40
1
 41
10
 76
3
 76
3
 10
402
 20
-9.000000000000002
 30
0
 10
412
 20
9.999999999999998
 30
0
 10
422
 20
9.999999999999998
 30
0
  0
LWPOLYLINE
  5
1BC
100
AcDbEntity
  8
pisok
  6
CONTINUOUS
 62
  176
420
  128
370
   25
100
AcDbPolyline
 90
   11
 70
    0
 43
0
 10
188
 20
-3
 10
-10
 20
-3
 10
-9
 20
-4
 10
-10
 20
-5
 10
-9
 20
-6
 10
-10
 20
-7
 10
188
 20
-7
 10
187
 20
-6
 10
188
 20
-5
 10
187
 20
-4
 10
188
 20
-3
  0
LWPOLYLINE
  5
1BD
100
AcDbEntity
  8
plytka3
  6
ByLayer
 62
  256
370
   -1
100
AcDbPolyline
 90
    9
 70
    0
 43
0
 10
178
 20
-148
 10
178
 20
-112
 10
163
 20
-112
 10
163
 20
-100
 10
71
 20
-100
 10
71
 20
-112
 10
56
 20
-112
 10
56
 20
-148
 10
178
 20
-148
  0
LWPOLYLINE
  5
1BE
100
AcDbEntity
  8
plytka3
  6
CONTINUOUS
 62
  256
370
   25
100
AcDbPolyline
 90
    5
 70
    0
 43
0
 10
56
 20
-117
 10
28
 20
-117
 10
28
 20
-176
 10
178
 20
-176
 10
178
 20
-148
  0
LWPOLYLINE
  5
1BF
100
AcDbEntity
  8
plytka3
  6
CONTINUOUS
 62
  256
370
   25
100
AcDbPolyline
 90
    5
 70
    0
 43
0
 10
28
 20
-117
 10
-8.881784197001252e-16
 20
-117
 10
-8.881784197001252e-16
 20
-204
 10
178
 20
-204
 10
178
 20
-176
  0
LWPOLYLINE
  5
1C0
100
AcDbEntity
  8
lyce
  6
CONTINUOUS
 62
   41
420
16376252
370
   25
100
AcDbPolyline
 90
    8
 70
    1
 43
0
 10
188
 20
-100
 10
163
 20
-100
 10
163
 20
-112
 10
188
 20
-112
 10
188
 20
-108
 10
190
 20
-107
 10
186
 20
-105
 10
188
 20
-104
  0
LWPOLYLINE
  5
1C1
100
AcDbEntity
  8
sterodur
  6
ByLayer
 62
  256
370
   -1
100
AcDbPolyline
 90
    9
 70
    0
 43
0
 10
188
 20
-112
 10
178
 20
-112
 10
178
 20
-117
 10
189
 20
-117
 10
188
 20
-116
 10
189
 20
-115
 10
188
 20
-114
 10
189
 20
-113
 10
188
 20
-112
  0
LINE
  5
1C2
100
AcDbEntity
  8
fundament
  6
DASHED2
 62
  256
370
   -1
100
AcDbLine
 10
163
 20
-112
 11
71
 21
-112
  0
LWPOLYLINE
  5
1C3
100
AcDbEntity
  8
plytka3
  6
CONTINUOUS
 62
    2
370
   25
100
AcDbPolyline
 90
   30
 70
    0
 43
0
 10
178
 20
-117
 10
188
 20
-117
 10
188
 20
-149
 10
186
 20
-150
 10
190
 20
-152
 10
188
 20
-153
 10
188
 20
-182
 10
186
 20
-183
 10
190
 20
-185
 10
188
 20
-186
 10
188
 20
-214
 10
143
 20
-214
 10
142
 20
-212
 10
140
 20
-216
 10
139
 20
-214
 10
48
 20
-214
 10
47
 20
-212
 10
45
 20
-216
 10
44
 20
-214
 10
-10
 20
-214
 10
-10
 20
-186
 10
-12
 20
-185
 10
-8
 20
-183
 10
-10
 20
-182
 10
-10
 20
-154
 10
-12
 20
-153
 10
-8
 20
-151
 10
-10
 20
-150
 10
-10
 20
-117
 10
-8.881784197001252e-16
 20
-117
  0
LWPOLYLINE
  5
1C4
100
AcDbEntity
  8
sterodur
  6
ByLayer
 62
  256
370
   -1
100
AcDbPolyline
 90
    9
 70
    0
 43
0
 10
-10
 20
-112
 10
56
 20
-112
 10
56
 20
-117
 10
-11
 20
-117
 10
-10
 20
-116
 10
-11
 20
-115
 10
-10
 20
-114
 10
-11
 20
-113
 10
-10
 20
-112
  0
LWPOLYLINE
  5
1C5
100
AcDbEntity
  8
lyce
  6
CONTINUOUS
 62
   41
420
16376252
370
   25
100
AcDbPolyline
 90
    8
 70
    1
 43
0
 10
-10
 20
-100
 10
71
 20
-100
 10
71
 20
-112
 10
-10
 20
-112
 10
-10
 20
-108
 10
-12
 20
-107
 10
-8
 20
-105
 10
-10
 20
-104
  0
DIMENSION
  5
1C6
100
AcDbEntity
  8
rozmir
  6
ByLayer
 62
  256
370
   -1
100
AcDbDimension
  2
*D8
 10
-32
 20
-176
 30
0
 11
-27
 21
-162
 31
0
 70
   32
 71
    5
  3
Standard
 53
0
210
0
220
0
230
1
100
AcDbAlignedDimension
 13
56
 23
-148
 33
0
 14
28
 24
-176
 34
0
 50
90.00000000000001
100
AcDbRotatedDimension
  0
DIMENSION
  5
1C7
100
AcDbEntity
  8
rozmir
  6
ByLayer
 62
  256
370
   -1
100
AcDbDimension
  2
*D9
 10
-32
 20
-204
 30
0
 11
-27
 21
-190
 31
0
 70
   32
 71
    5
  3
Standard
 53
0
210
0
220
0
230
1
100
AcDbAlignedDimension
 13
28
 23
-176
 33
0
 14
-8.881784197001252e-16
 24
-204
 34
0
 50
90.00000000000001
100
AcDbRotatedDimension
  0
DIMENSION
  5
1C8
100
AcDbEntity
  8
rozmir
  6
ByLayer
 62
  256
370
   -1
100
AcDbDimension
  2
*D10
 10
56
 20
-230
 30
0
 11
117
 21
-225
 31
0
 70
   32
 71
    5
  3
Standard
 53
0
210
0
220
0
230
1
100
AcDbAlignedDimension
 13
178
 23
-204
 33
0
 14
56
 24
-148
 34
0
 50
180
100
AcDbRotatedDimension
  0
DIMENSION
  5
1C9
100
AcDbEntity
  8
rozmir
  6
ByLayer
 62
  256
370
   -1
100
AcDbDimension
  2
*D11
 10
28
 20
-240
 30
0
 11
103
 21
-235
 31
0
 70
   32
 71
    5
  3
Standard
 53
0
210
0
220
0
230
1
100
AcDbAlignedDimension
 13
178
 23
-204
 33
0
 14
28
 24
-176
 34
0
 50
180
100
AcDbRotatedDimension
  0
DIMENSION
  5
1CA
100
AcDbEntity
  8
rozmir
  6
ByLayer
 62
  256
370
   -1
100
AcDbDimension
  2
*D12
 10
-8.881784197001252e-16
 20
-250
 30
0
 11
89
 21
-245
 31
0
 70
   32
 71
    5
  3
Standard
 53
0
210
0
220
0
230
1
100
AcDbAlignedDimension
 13
178
 23
-204
 33
0
 14
-8.881784197001252e-16
 24
-204
 34
0
 50
180
100
AcDbRotatedDimension
  0
DIMENSION
  5
1CB
100
AcDbEntity
  8
rozmir
  6
ByLayer
 62
  256
370
   -1
100
AcDbDimension
  2
*D13
 10
-32
 20
-148
 30
0
 11
-27
 21
-130
 31
0
 70
   32
 71
    5
  3
Standard
 53
0
210
0
220
0
230
1
100
AcDbAlignedDimension
 13
-10
 23
-112
 33
0
 14
56
 24
-148
 34
0
 50
90.00000000000001
100
AcDbRotatedDimension
  0
DIMENSION
  5
1CC
100
AcDbEntity
  8
rozmir
  6
ByLayer
 62
  256
370
   -1
100
AcDbDimension
  2
*D14
 10
-32
 20
-100
 30
0
 11
-27
 21
-106
 31
0
 70
   32
 71
    5
  3
Standard
 53
0
210
0
220
0
230
1
100
AcDbAlignedDimension
 13
-10
 23
-112
 33
0
 14
-10
 24
-100
 34
0
 50
90.00000000000001
100
AcDbRotatedDimension
  0
LEADER
  5
1CD
100
AcDbEntity
  8
tekst
  6
ByLayer
 62
  256
370
   -1
100
AcDbLeader
  3
Standard
 71
    1
 72
    0
 73
    3
 74
    0
 75
    0
 40
1
 41
10
 76
3
 76
3
 10
1.999999999999999
 20
-105
 30
0
 10
-12
 20
-80
 30
0
 10
-22
 20
-80
 30
0
  0
LEADER
  5
1CE
100
AcDbEntity
  8
tekst
  6
ByLayer
 62
  256
370
   -1
100
AcDbLeader
  3
Standard
 71
    1
 72
    0
 73
    3
 74
    0
 75
    0
 40
1
 41
10
 76
3
 76
3
 10
-3.000000000000001
 20
-115
 30
0
 10
-12
 20
-90
 30
0
 10
-22
 20
-90
 30
0
  0
DIMENSION
  5
1CF
100
AcDbEntity
  8
rozmir
  6
ByLayer
 62
  256
370
   -1
100
AcDbDimension
  2
*D17
 10
198
 20
-117
 30
0
 11
203
 21
-114.5
 31
0
 70
   32
 71
    5
 72
    0
  3
Standard
 53
0
210
0
220
0
230
1
100
AcDbAlignedDimension
 13
188
 23
-112
 33
0
 14
189
 24
-117
 34
0
 50
90.00000000000001
100
AcDbRotatedDimension
  0
DIMENSION
  5
1D0
100
AcDbEntity
  8
rozmir
  6
ByLayer
 62
  256
370
   -1
100
AcDbDimension
  2
*D18
 10
-22
 20
-112
 30
0
 11
-17
 21
-114.5
 31
0
 70
   32
 71
    5
 72
    0
  3
Standard
 53
0
210
0
220
0
230
1
100
AcDbAlignedDimension
 13
-11
 23
-117
 33
0
 14
-10
 24
-112
 34
0
 50
90.00000000000001
100
AcDbRotatedDimension
  0
DIMENSION
  5
1D1
100
AcDbEntity
  8
rozmir
  6
ByLayer
 62
  256
370
   -1
100
AcDbDimension
  2
*D19
 10
163
 20
-90
 30
0
 11
168.75
 21
-85
 31
0
 70
   32
 71
    5
  3
Standard
 53
0
210
0
220
0
230
1
100
AcDbAlignedDimension
 13
174.5
 23
-112
 33
0
 14
163
 24
-112
 34
0
 50
180
100
AcDbRotatedDimension
  0
DIMENSION
  5
1D2
100
AcDbEntity
  8
rozmir
  6
ByLayer
 62
  256
370
   -1
100
AcDbDimension
  2
*D20
 10
60
 20
-90
 30
0
 11
65.25
 21
-85
 31
0
 70
   32
 71
    5
  3
Standard
 53
0
210
0
220
0
230
1
100
AcDbAlignedDimension
 13
71
 23
-112
 33
0
 14
59.5
 24
-112
 34
0
 50
180
100
AcDbRotatedDimension
  0
DIMENSION
  5
1D3
100
AcDbEntity
  8
rozmir
  6
ByLayer
 62
  256
370
   -1
100
AcDbDimension
  2
*D21
 10
58
 20
-80
 30
0
 11
117
 21
-75
 31
0
 70
   32
 71
    5
  3
Standard
 53
0
210
0
220
0
230
1
100
AcDbAlignedDimension
 13
174.5
 23
-112
 33
0
 14
59.5
 24
-112
 34
0
 50
180
100
AcDbRotatedDimension
  0
DIMENSION
  5
1D4
100
AcDbEntity
  8
rozmir
  6
ByLayer
 62
  256
370
   -1
100
AcDbDimension
  2
*D22
 10
28
 20
-70
 30
0
 11
103
 21
-65
 31
0
 70
   32
 71
    5
  3
Standard
 53
0
210
0
220
0
230
1
100
AcDbAlignedDimension
 13
174.5
 23
-112
 33
0
 14
31.5
 24
-112
 34
0
 50
180
100
AcDbRotatedDimension
  0
DIMENSION
  5
1D5
100
AcDbEntity
  8
rozmir
  6
ByLayer
 62
  256
370
   -1
100
AcDbDimension
  2
*D23
 10
7.999999999999999
 20
-60
 30
0
 11
89
 21
-55
 31
0
 70
   32
 71
    5
  3
Standard
 53
0
210
0
220
0
230
1
100
AcDbAlignedDimension
 13
174.5
 23
-112
 33
0
 14
3.499999999999999
 24
-112
 34
0
 50
180
100
AcDbRotatedDimension
  0
DIMENSION
  5
1D6
100
AcDbEntity
  8
rozmir
  6
ByLayer
 62
  256
370
   -1
100
AcDbDimension
  2
*D24
 10
208
 20
-200
 30
0
 11
213
 21
-186.5
 31
0
 70
   32
 71
    5
  3
Standard
 53
0
210
0
220
0
230
1
100
AcDbAlignedDimension
 13
174.5
 23
-172.5
 33
0
 14
174.5
 24
-200.5
 34
0
 50
90.00000000000001
100
AcDbRotatedDimension
  0
LWPOLYLINE
  5
1D7
100
AcDbEntity
  8
skhody
  6
DASHED2
 62
  256
370
   -1
100
AcDbPolyline
 90
    5
 70
    0
 43
0
 10
31.5
 20
-112
 10
3.499999999999999
 20
-112
 10
3.499999999999999
 20
-200.5
 10
174.5
 20
-200.5
 10
174.5
 20
-172.5
  0
DIMENSION
  5
1D8
100
AcDbEntity
  8
rozmir
  6
ByLayer
 62
  256
370
   -1
100
AcDbDimension
  2
*D25
 10
208
 20
-144
 30
0
 11
213
 21
-128.25
 31
0
 70
   32
 71
    5
  3
Standard
 53
0
210
0
220
0
230
1
100
AcDbAlignedDimension
 13
174.5
 23
-112
 33
0
 14
174.5
 24
-144.5
 34
0
 50
90.00000000000001
100
AcDbRotatedDimension
  0
LWPOLYLINE
  5
1D9
100
AcDbEntity
  8
skhody
  6
DASHED2
 62
  256
370
   -1
100
AcDbPolyline
 90
    4
 70
    1
 43
0
 10
174.5
 20
-112
 10
59.5
 20
-112
 10
59.5
 20
-144.5
 10
174.5
 20
-144.5
  0
DIMENSION
  5
1DA
100
AcDbEntity
  8
rozmir
  6
ByLayer
 62
  256
370
   -1
100
AcDbDimension
  2
*D26
 10
208
 20
-172
 30
0
 11
213
 21
-158.5
 31
0
 70
   32
 71
    5
  3
Standard
 53
0
210
0
220
0
230
1
100
AcDbAlignedDimension
 13
174.5
 23
-144.5
 33
0
 14
174.5
 24
-172.5
 34
0
 50
90.00000000000001
100
AcDbRotatedDimension
  0
LWPOLYLINE
  5
1DB
100
AcDbEntity
  8
skhody
  6
DASHED2
 62
  256
370
   -1
100
AcDbPolyline
 90
    5
 70
    0
 43
0
 10
174.5
 20
-144.5
 10
174.5
 20
-172.5
 10
31.5
 20
-172.5
 10
31.5
 20
-112
 10
59.5
 20
-112
  0
LWPOLYLINE
  5
1DC
100
AcDbEntity
  8
fundament
  6
CONTINUOUS
 62
  136
420
32896
370
   25
100
AcDbPolyline
 90
   12
 70
    1
 43
0
 10
288
 20
40
 10
288
 20
-17
 10
279
 20
-17
 10
278
 20
-15
 10
276
 20
-19
 10
275
 20
-17
 10
266
 20
-17
 10
266
 20
7.999999999999998
 10
268
 20
8.999999999999998
 10
264
 20
11
 10
266
 20
12
 10
266
 20
40
  0
LWPOLYLINE
  5
1DD
100
AcDbEntity
  8
plytka3
  6
ByLayer
 62
  256
370
   -1
100
AcDbPolyline
 90
    4
 70
    1
 43
0
 10
324
 20
43.5
 10
324
 20
40.5
 10
276
 20
40.5
 10
276
 20
43.5
  0
DIMENSION
  5
1DE
100
AcDbEntity
  8
rozmir
  6
ByLayer
 62
  256
370
   -1
100
AcDbDimension
  2
*D27
 10
276
 20
50
 30
0
 11
300
 21
55
 31
0
 70
   32
 71
    5
 72
    0
  3
Standard
 53
0
210
0
220
0
230
1
100
AcDbAlignedDimension
 13
324
 23
43.5
 33
0
 14
276
 24
43.5
 34
0
 50
180
100
AcDbRotatedDimension
  0
LWPOLYLINE
  5
1DF
100
AcDbEntity
  8
plytka3
  6
ByLayer
 62
  256
370
   -1
100
AcDbPolyline
 90
    4
 70
    1
 43
0
 10
380
 20
0
 10
380
 20
11.5
 10
377
 20
11.5
 10
377
 20
0
  0
LWPOLYLINE
  5
1E0
100
AcDbEntity
  8
plytka3
  6
ByLayer
 62
  256
370
   -1
100
AcDbPolyline
 90
    4
 70
    1
 43
0
 10
380
 20
11.5
 10
380
 20
14.5
 10
350
 20
14.49999999999998
 10
350
 20
11.49999999999998
  0
LWPOLYLINE
  5
1E1
100
AcDbEntity
  8
plytka3
  6
ByLayer
 62
  256
370
   -1
100
AcDbPolyline
 90
    4
 70
    1
 43
0
 10
352
 20
14.49999999999998
 10
352
 20
26
 10
349
 20
26
 10
349
 20
14.49999999999998
  0
LWPOLYLINE
  5
1E2
100
AcDbEntity
  8
plytka3
  6
ByLayer
 62
  256
370
   -1
100
AcDbPolyline
 90
    4
 70
    1
 43
0
 10
352
 20
26
 10
352
 20
29
 10
322
 20
29
 10
322
 20
26
  0
DIMENSION
  5
1E3
100
AcDbEntity
  8
rozmir
  6
ByLayer
 62
  256
370
   -1
100
AcDbDimension
  2
*D28
 10
352
 20
40
 30
0
 11
366
 21
45
 31
0
 70
   32
 71
    5
 72
    0
  3
Standard
 53
0
210
0
220
0
230
1
100
AcDbAlignedDimension
 13
380
 23
14.5
 33
0
 14
352
 24
29
 34
0
 50
180
100
AcDbRotatedDimension
  0
LWPOLYLINE
  5
1E4
100
AcDbEntity
  8
plytka3
  6
ByLayer
 62
  256
370
   -1
100
AcDbPolyline
 90
    4
 70
    1
 43
0
 10
324
 20
29
 10
324
 20
40.5
 10
321
 20
40.5
 10
321
 20
29
  0
DIMENSION
  5
1E5
100
AcDbEntity
  8
rozmir
  6
ByLayer
 62
  256
370
   -1
100
AcDbDimension
  2
*D29
 10
324
 20
50
 30
0
 11
338
 21
55
 31
0
 70
   32
 71
    5
 72
    0
  3
Standard
 53
0
210
0
220
0
230
1
100
AcDbAlignedDimension
 13
352
 23
29
 33
0
 14
324
 24
43.5
 34
0
 50
180
100
AcDbRotatedDimension
  0
LWPOLYLINE
  5
1E6
100
AcDbEntity
  8
pisok
  6
CONTINUOUS
 62
  176
420
  128
370
   25
100
AcDbPolyline
 90
    8
 70
    1
 43
0
 10
412
 20
-7.000000000000002
 10
411
 20
-6.000000000000002
 10
412
 20
-5.000000000000002
 10
411
 20
-4
 10
412
 20
-3
 10
376.5
 20
-3
 10
376.5
 20
-7
 10
412
 20
-7.000000000000002
  0
LWPOLYLINE
  5
1E7
100
AcDbEntity
  8
rozmir
  6
CONTINUOUS
 62
    8
370
   25
100
AcDbPolyline
 90
    9
 70
    0
 43
0
 10
376.5
 20
-7
 10
376.5
 20
11
 10
348.5000000000001
 20
11
 10
348.5000000000001
 20
25.50000000000002
 10
320.5
 20
25.5
 10
320.5
 20
40
 10
288
 20
40
 10
288
 20
-7.000000000000002
 10
376.5
 20
-7
  0
LWPOLYLINE
  5
1E8
100
AcDbEntity
  8
klei
  6
ByLayer
 62
  256
370
   -1
100
AcDbPolyline
 90
   18
 70
    0
 43
0
 10
377
 20
-3
 10
377
 20
11.5
 10
350
 20
11.49999999999998
 10
350
 20
14.49999999999998
 10
349
 20
14.49999999999998
 10
349
 20
26
 10
322
 20
26
 10
322
 20
29
 10
321
 20
29
 10
321
 20
40.5
 10
276
 20
40.5
 10
276
 20
40
 10
320.5
 20
40
 10
320.5
 20
25.5
 10
348.5000000000001
 20
25.50000000000002
 10
348.5000000000001
 20
11
 10
376.5
 20
11
 10
376.5
 20
-3
  0
LWPOLYLINE
  5
1E9
100
AcDbEntity
  8
plytka3
  6
ByLayer
 62
  256
370
   -1
100
AcDbPolyline
 90
    4
 70
    0
 43
0
 10
178
 20
0
 10
178
 20
14.5
 10
0
 20
14.5
 10
0
 20
0
  0
DIMENSION
  5
1EA
100
AcDbEntity
  8
rozmir
  6
ByLayer
 62
  256
370
   -1
100
AcDbDimension
  2
*D30
 10
-32
 20
15
 30
0
 11
-27
 21
7.249999999999996
 31
0
 70
   32
 71
    5
 72
    0
  3
Standard
 53
0
210
0
220
0
230
1
100
AcDbAlignedDimension
 13
-10
 23
0
 33
0
 14
0
 24
14.5
 34
0
 50
90.00000000000001
100
AcDbRotatedDimension
  0
LWPOLYLINE
  5
1EB
100
AcDbEntity
  8
plytka3
  6
ByLayer
 62
  256
370
   -1
100
AcDbPolyline
 90
    4
 70
    0
 43
0
 10
178
 20
14.5
 10
178
 20
29
 10
28
 20
29
 10
28
 20
14.5
  0
DIMENSION
  5
1EC
100
AcDbEntity
  8
rozmir
  6
ByLayer
 62
  256
370
   -1
100
AcDbDimension
  2
*D31
 10
-32
 20
29.99999999999998
 30
0
 11
-27
 21
21.74999999999999
 31
0
 70
   32
 71
    5
 72
    0
  3
Standard
 53
0
210
0
220
0
230
1
100
AcDbAlignedDimension
 13
0
 23
14.5
 33
0
 14
28
 24
29
 34
0
 50
90.00000000000001
100
AcDbRotatedDimension
  0
LWPOLYLINE
  5
1ED
100
AcDbEntity
  8
lyce
  6
ByLayer
 62
  256
370
   -1
100
AcDbPolyline
 90
   13
 70
    0
 43
0
 10
178
 20
43.5
 10
178
 20
49.5
 10
176
 20
50.5
 10
180
 20
52.5
 10
178
 20
53.5
 10
178
 20
58.5
 10
173
 20
58.5
 10
172
 20
60.5
 10
170
 20
56.5
 10
169
 20
58.5
 10
163
 20
58.5
 10
163
 20
43.5
 10
178
 20
43.5
  0
LWPOLYLINE
  5
1EE
100
AcDbEntity
  8
plytka3
  6
ByLayer
 62
  256
370
   -1
100
AcDbPolyline
 90
    4
 70
    0
 43
0
 10
56
 20
29
 10
56
 20
43.5
 10
178
 20
43.5
 10
178
 20
29
  0
DIMENSION
  5
1EF
100
AcDbEntity
  8
rozmir
  6
ByLayer
 62
  256
370
   -1
100
AcDbDimension
  2
*D32
 10
-32
 20
44.99999999999999
 30
0
 11
-27
 21
36.24999999999999
 31
0
 70
   32
 71
    5
 72
    0
  3
Standard
 53
0
210
0
220
0
230
1
100
AcDbAlignedDimension
 13
28
 23
29
 33
0
 14
56
 24
43.5
 34
0
 50
90.00000000000001
100
AcDbRotatedDimension
  0
LWPOLYLINE
  5
1F0
100
AcDbEntity
  8
sterodur
  6
ByLayer
 62
  256
370
   -1
100
AcDbPolyline
 90
   13
 70
    0
 43
0
 10
-10
 20
40
 10
56
 20
40
 10
56
 20
29
 10
28
 20
29
 10
28
 20
14.5
 10
0
 20
14.5
 10
0
 20
0
 10
-10
 20
0
 10
-10
 20
19
 10
-8
 20
20
 10
-12
 20
22
 10
-10
 20
23
 10
-10
 20
40
  0
LWPOLYLINE
  5
1F1
100
AcDbEntity
  8
lyce
  6
CONTINUOUS
 62
   41
420
16376252
370
   25
100
AcDbPolyline
 90
   19
 70
    0
 43
0
 10
-10
 20
40
 10
-10
 20
49.5
 10
-8
 20
50.5
 10
-12
 20
52.5
 10
-10
 20
53.5
 10
-10
 20
58.5
 10
11
 20
58.5
 10
12
 20
60.5
 10
14
 20
56.5
 10
15
 20
58.5
 10
46
 20
58.5
 10
47
 20
60.5
 10
49
 20
56.5
 10
50
 20
58.5
 10
71
 20
58.5
 10
71
 20
43.5
 10
56
 20
43.5
 10
56
 20
40
 10
-10
 20
40
  0
LWPOLYLINE
  5
1F2
100
AcDbEntity
  8
lyce
  6
DASHED2
 62
  256
370
   -1
100
AcDbPolyline
 90
    4
 70
    1
 43
0
 10
56
 20
43.5
 10
71
 20
43.5
 10
71
 20
40
 10
56
 20
40
  0
LWPOLYLINE
  5
1F3
100
AcDbEntity
  8
lyce
  6
DASHED2
 62
  256
370
   -1
100
AcDbPolyline
 90
    4
 70
    1
 43
0
 10
163
 20
43.5
 10
178
 20
43.5
 10
178
 20
40
 10
163
 20
40
  0
DIMENSION
  5
1F4
100
AcDbEntity
  8
rozmir
  6
ByLayer
 62
  256
370
   -1
100
AcDbDimension
  2
*D33
 10
198
 20
11
 30
0
 11
193
 21
2.000000000000008
 31
0
 70
   32
 71
    5
 72
    0
  3
Standard
 53
0
210
0
220
0
230
1
100
AcDbAlignedDimension
 13
174.5
 23
-7.000000000000001
 33
0
 14
174.5
 24
11
 34
0
 50
90.00000000000001
100
AcDbRotatedDimension
  0
DIMENSION
  5
1F5
100
AcDbEntity
  8
rozmir
  6
ByLayer
 62
  256
370
   -1
100
AcDbDimension
  2
*D34
 10
198
 20
26
 30
0
 11
193
 21
18.25000000000001
 31
0
 70
   32
 71
    5
 72
    0
  3
Standard
 53
0
210
0
220
0
230
1
100
AcDbAlignedDimension
 13
174.5
 23
11
 33
0
 14
174.5
 24
25.5
 34
0
 50
90.00000000000001
100
AcDbRotatedDimension
  0
DIMENSION
  5
1F6
100
AcDbEntity
  8
rozmir
  6
ByLayer
 62
  256
370
   -1
100
AcDbDimension
  2
*D35
 10
198
 20
41
 30
0
 11
193
 21
32.75000000000001
 31
0
 70
   32
 71
    5
 72
    0
  3
Standard
 53
0
210
0
220
0
230
1
100
AcDbAlignedDimension
 13
174.5
 23
25.5
 33
0
 14
174.5
 24
40
 34
0
 50
90.00000000000001
100
AcDbRotatedDimension
  0
LWPOLYLINE
  5
1F7
100
AcDbEntity
  8
skhody
  6
DASHED2
 62
  256
370
   -1
100
AcDbPolyline
 90
    4
 70
    1
 43
0
 10
174.5
 20
11
 10
3.5
 20
11
 10
3.5
 20
-6.999999999999999
 10
174.5
 20
-7.000000000000001
  0
LWPOLYLINE
  5
1F8
100
AcDbEntity
  8
skhody
  6
DASHED2
 62
  256
370
   -1
100
AcDbPolyline
 90
    4
 70
    0
 43
0
 10
174.5
 20
11
 10
174.5
 20
25.5
 10
31.5
 20
25.5
 10
31.5
 20
11
  0
LWPOLYLINE
  5
1F9
100
AcDbEntity
  8
skhody
  6
DASHED2
 62
  256
370
   -1
100
AcDbPolyline
 90
    4
 70
    0
 43
0
 10
174.5
 20
25.5
 10
174.5
 20
40
 10
59.5
 20
40
 10
59.5
 20
25.5
  0
LEADER
  5
1FA
100
AcDbEntity
  8
tekst
  6
ByLayer
 62
  256
370
   -1
100
AcDbLeader
  3
Standard
 71
    1
 72
    0
 73
    3
 74
    0
 75
    0
 40
1
 41
10
 76
3
 76
3
 10
270
 20
42.5
 30
0
 10
252
 20
60
 30
0
 10
242
 20
60
 30
0
  0
DIMENSION
  5
1FB
100
AcDbEntity
  8
rozmir
  6
ByLayer
 62
  256
370
   -1
100
AcDbDimension
  2
*D37
 10
242
 20
44
 30
0
 11
237
 21
41.24999999999999
 31
0
 70
   32
 71
    5
 72
    0
  3
Standard
 53
0
210
0
220
0
230
1
100
AcDbAlignedDimension
 13
266
 23
40
 33
0
 14
266
 24
42.5
 34
0
 50
90.00000000000001
100
AcDbRotatedDimension
  0
LWPOLYLINE
  5
1FC
100
AcDbEntity
  8
skhody
  6
CONTINUOUS
 62
    8
370
   25
100
AcDbPolyline
 90
    5
 70
    0
 43
0
 10
276
 20
40
 10
276
 20
42.5
 10
266
 20
42.5
 10
266
 20
40
 10
276
 20
40
  0
LWPOLYLINE
  5
1FD
100
AcDbEntity
  8
dveri
  6
ByLayer
 62
  256
370
   -1
100
AcDbPolyline
 90
    4
 70
    1
 43
0
 10
275
 20
42.90000000000001
 10
266
 20
42.90000000000001
 10
266
 20
42.5
 10
275
 20
42.5
  0
LWPOLYLINE
  5
1FE
100
AcDbEntity
  8
dveri
  6
ByLayer
 62
  256
370
   -1
100
AcDbPolyline
 90
    8
 70
    1
 43
0
 10
272.4
 20
43.2
 42
-0.414213562372991
 10
272.3
 20
43.30000000000001
 10
272.3
 20
46.5
 42
-0.4142135623730534
 10
272.4
 20
46.59999999999999
 10
275.6
 20
46.59999999999999
 42
-0.4142135623729702
 10
275.7
 20
46.5
 10
275.7
 20
43.3
 42
-0.4142135623730534
 10
275.6
 20
43.19999999999999
  0
LWPOLYLINE
  5
1FF
100
AcDbEntity
  8
dveri
  6
ByLayer
 62
  256
370
   -1
100
AcDbPolyline
 90
    8
 70
    1
 43
0
 10
272.4
 20
42.89999999999999
 42
-0.4142135623731054
 10
272
 20
43.3
 10
272
 20
46.5
 42
-0.4142135623731054
 10
272.4
 20
46.90000000000001
 10
275.6
 20
46.90000000000001
 42
-0.4142135623731054
 10
276
 20
46.5
 10
276
 20
43.3
 42
-0.4142135623731054
 10
275.6
 20
42.90000000000001
  0
LEADER
  5
200
100
AcDbEntity
  8
tekst
  6
ByLayer
 62
  136
420
32896
370
   -1
100
AcDbLeader
  3
Standard
 71
    1
 72
    0
 73
    3
 74
    0
 75
    0
 40
1
 41
10
 76
3
 76
3
 10
272.0901623236047
 20
46.752983426903
 30
0
 10
252
 20
70
 30
0
 10
242
 20
70
 30
0
  0
MTEXT
  5
201
100
AcDbEntity
  8
tekst
  6
ByLayer
 62
  256
370
   -1
100
AcDbMText
 10
247
 20
72
 30
0
 40
5
 41
2.222222222222532
 71
    8
 72
    1
  1
5
  7
cyrillic_ii
210
0
220
0
230
1
 50
360
 73
    2
 44
1
  0
MTEXT
  5
202
100
AcDbEntity
  8
tekst
  6
ByLayer
 62
  256
370
   -1
100
AcDbMText
 10
247
 20
62
 30
0
 40
5
 41
2.222222222222532
 71
    8
 72
    1
  1
6
  7
cyrillic_ii
210
0
220
0
230
1
 50
360
 73
    2
 44
1
  0
MTEXT
  5
203
100
AcDbEntity
  8
tekst
  6
ByLayer
 62
  256
370
   -1
100
AcDbMText
 10
247
 20
12
 30
0
 40
5
 41
2.222222222222222
 71
    8
 72
    1
  1
7
  7
cyrillic_ii
210
0
220
0
230
1
 50
360
 73
    2
 44
1
  0
MTEXT
  5
204
100
AcDbEntity
  8
tekst
  6
ByLayer
 62
  256
370
   -1
100
AcDbMText
 10
247
 20
1.999999999999998
 30
0
 40
5
 41
2.222222222222222
 71
    8
 72
    1
  1
8
  7
cyrillic_ii
210
0
220
0
230
1
 50
360
 73
    2
 44
1
  0
MTEXT
  5
205
100
AcDbEntity
  8
tekst
  6
ByLayer
 62
  256
370
   -1
100
AcDbMText
 10
-20.5
 20
-78
 30
0
 40
5
 41
2.222222222222532
 71
    8
 72
    1
  1
9
  7
cyrillic_ii
210
0
220
0
230
1
 50
360
 73
    2
 44
1
  0
MTEXT
  5
206
100
AcDbEntity
  8
tekst
  6
ByLayer
 62
  256
370
   -1
100
AcDbMText
 10
-20.5
 20
-88
 30
0
 40
5
 41
5
 71
    8
 72
    1
  1
10
  7
cyrillic_ii
210
0
220
0
230
1
 50
360
 73
    2
 44
1
  0
MTEXT
  5
207
100
AcDbEntity
  8
tekst
  6
ByLayer
 62
  256
370
   -1
100
AcDbMText
 10
240
 20
-60
 30
0
 40
10
 41
190.5555555555575
 71
    1
 72
    1
  3
1. \P2.   3 \P3. \P4.  \P5.  \P6. \P7.  \P8.  \P9. . 
  1
\P10. 
  7
cyrillic_ii
210
0
220
0
230
1
 50
0
 73
    2
 44
1
  0
ENDSEC
  0
SECTION
  2
OBJECTS
  0
DICTIONARY
  5
C
330
0
100
AcDbDictionary
281
    1
  3
ACAD_GROUP
350
D
  0
DICTIONARY
  5
D
330
C
100
AcDbDictionary
281
    1
  0
ENDSEC
  0
EOF
