999
dxfrw 0.6.3
  0
SECTION
  2
HEADER
  9
$ACADVER
  1
AC1021
  9
$DWGCODEPAGE
  3
ANSI_1252
  9
$INSBASE
 10
0
 20
0
 30
0
  9
$EXTMIN
 10
-210.0000000000001
 20
-341.6666666666667
 30
0
  9
$EXTMAX
 10
1145
 20
1625
 30
0
  9
$LIMMIN
 10
0
 20
0
  9
$LIMMAX
 10
420
 20
297
  9
$ORTHOMODE
 70
    0
  9
$REGENMODE
 70
    1
  9
$FILLMODE
 70
    1
  9
$QTEXTMODE
 70
    0
  9
$MIRRTEXT
 70
    0
  9
$LTSCALE
 40
1
  9
$ATTMODE
 70
    0
  9
$TEXTSIZE
 40
2.5
  9
$TRACEWID
 40
15.68
  9
$TEXTSTYLE
  7
STANDARD
  9
$CLAYER
  8
rozmir
  9
$CELTYPE
  6
BYLAYER
  9
$CECOLOR
 62
  256
  9
$CELTSCALE
 40
1
  9
$DISPSILH
 70
    0
  9
$DIMSCALE
 40
10
  9
$DIMASZ
 40
1
  9
$DIMEXO
 40
0.2
  9
$DIMDLI
 40
3.75
  9
$DIMRND
 40
0
  9
$DIMDLE
 40
0
  9
$DIMEXE
 40
0.5
  9
$DIMTP
 40
0
  9
$DIMTM
 40
0
  9
$DIMTXT
 40
1.5
  9
$DIMCEN
 40
2.5
  9
$DIMTSZ
 40
0
  9
$DIMTOL
 70
    0
  9
$DIMLIM
 70
    0
  9
$DIMTIH
 70
    0
  9
$DIMTOH
 70
    0
  9
$DIMSE1
 70
    0
  9
$DIMSE2
 70
    0
  9
$DIMTAD
 70
    1
  9
$DIMZIN
 70
    8
  9
$DIMBLK
  1

  9
$DIMASO
 70
    1
  9
$DIMSHO
 70
    1
  9
$DIMPOST
  1

  9
$DIMAPOST
  1

  9
$DIMALT
 70
    0
  9
$DIMALTD
 70
    3
  9
$DIMALTF
 40
0.03937
  9
$DIMLFAC
 40
1
  9
$DIMTOFL
 70
    1
  9
$DIMTVP
 40
0
  9
$DIMTIX
 70
    0
  9
$DIMSOXD
 70
    0
  9
$DIMSAH
 70
    0
  9
$DIMBLK1
  1

  9
$DIMBLK2
  1

  9
$DIMSTYLE
  2
STANDARD
  9
$DIMCLRD
 70
    0
  9
$DIMCLRE
 70
    0
  9
$DIMCLRT
 70
    0
  9
$DIMTFAC
 40
1
  9
$DIMGAP
 40
0.5
  9
$DIMJUST
 70
    0
  9
$DIMSD1
 70
    0
  9
$DIMSD2
 70
    0
  9
$DIMTOLJ
 70
    0
  9
$DIMTZIN
 70
    8
  9
$DIMALTZ
 70
    0
  9
$DIMALTTZ
 70
    0
  9
$DIMUPT
 70
    0
  9
$DIMDEC
 70
    1
  9
$DIMTDEC
 70
    2
  9
$DIMALTU
 70
    2
  9
$DIMALTTD
 70
    3
  9
$DIMTXSTY
  7
standard
  9
$DIMAUNIT
 70
    0
  9
$DIMADEC
 70
    0
  9
$DIMALTRND
 40
0
  9
$DIMAZIN
 70
    0
  9
$DIMDSEP
 70
   44
  9
$DIMATFIT
 70
    3
  9
$DIMFRAC
 70
    0
  9
$DIMLDRBLK
  1
STANDARD
  9
$DIMLUNIT
 70
    2
  9
$DIMLWD
 70
   -2
  9
$DIMLWE
 70
   -2
  9
$DIMTMOVE
 70
    0
  9
$DIMFXL
 40
1
  9
$DIMFXLON
 70
    0
  9
$DIMJOGANG
 40
0.7854
  9
$DIMTFILL
 70
    0
  9
$DIMTFILLCLR
 70
    0
  9
$DIMARCSYM
 70
    0
  9
$DIMLTYPE
  6

  9
$DIMLTEX1
  6

  9
$DIMLTEX2
  6

  9
$LUNITS
 70
    2
  9
$LUPREC
 70
    2
  9
$SKETCHINC
 40
1
  9
$FILLETRAD
 40
0
  9
$AUNITS
 70
    0
  9
$AUPREC
 70
    2
  9
$MENU
  1
.
  9
$ELEVATION
 40
0
  9
$PELEVATION
 40
0
  9
$THICKNESS
 40
0
  9
$LIMCHECK
 70
    0
  9
$CHAMFERA
 40
0
  9
$CHAMFERB
 40
0
  9
$CHAMFERC
 40
0
  9
$CHAMFERD
 40
0
  9
$SKPOLY
 70
    0
  9
$USRTIMER
 70
    1
  9
$ANGBASE
 50
0
  9
$ANGDIR
 70
    0
  9
$PDMODE
 70
   34
  9
$PDSIZE
 40
0
  9
$PLINEWID
 40
0
  9
$SPLFRAME
 70
    0
  9
$SPLINETYPE
 70
    2
  9
$SPLINESEGS
 70
    8
  9
$HANDSEED
  5
20000
  9
$SURFTAB1
 70
    6
  9
$SURFTAB2
 70
    6
  9
$SURFTYPE
 70
    6
  9
$SURFU
 70
    6
  9
$SURFV
 70
    6
  9
$UCSBASE
  2

  9
$UCSNAME
  2

  9
$UCSORG
 10
0
 20
0
 30
0
  9
$UCSXDIR
 10
1
 20
0
 30
0
  9
$UCSYDIR
 10
0
 20
1
 30
0
  9
$UCSORTHOREF
  2

  9
$UCSORTHOVIEW
 70
    0
  9
$UCSORGTOP
 10
0
 20
0
 30
0
  9
$UCSORGBOTTOM
 10
0
 20
0
 30
0
  9
$UCSORGLEFT
 10
0
 20
0
 30
0
  9
$UCSORGRIGHT
 10
0
 20
0
 30
0
  9
$UCSORGFRONT
 10
0
 20
0
 30
0
  9
$UCSORGBACK
 10
0
 20
0
 30
0
  9
$PUCSBASE
  2

  9
$PUCSNAME
  2

  9
$PUCSORG
 10
0
 20
0
 30
0
  9
$PUCSXDIR
 10
1
 20
0
 30
0
  9
$PUCSYDIR
 10
0
 20
1
 30
0
  9
$PUCSORTHOREF
  2

  9
$PUCSORTHOVIEW
 70
    0
  9
$PUCSORGTOP
 10
0
 20
0
 30
0
  9
$PUCSORGBOTTOM
 10
0
 20
0
 30
0
  9
$PUCSORGLEFT
 10
0
 20
0
 30
0
  9
$PUCSORGRIGHT
 10
0
 20
0
 30
0
  9
$PUCSORGFRONT
 10
0
 20
0
 30
0
  9
$PUCSORGBACK
 10
0
 20
0
 30
0
  9
$USERI1
 70
    0
  9
$USERI2
 70
    0
  9
$USERI3
 70
    0
  9
$USERI4
 70
    0
  9
$USERI5
 70
    0
  9
$USERR1
 40
0
  9
$USERR2
 40
0
  9
$USERR3
 40
0
  9
$USERR4
 40
0
  9
$USERR5
 40
0
  9
$WORLDVIEW
 70
    1
  9
$SHADEDGE
 70
    3
  9
$SHADEDIF
 70
   70
  9
$TILEMODE
 70
    1
  9
$MAXACTVP
 70
   64
  9
$PINSBASE
 10
10.32063559322034
 20
4.463983050847458
 30
0
  9
$PLIMCHECK
 70
    0
  9
$PEXTMIN
 10
0
 20
0
 30
0
  9
$PEXTMAX
 10
0
 20
0
 30
0
  9
$GRIDMODE
 70
    1
  9
$SNAPSTYLE
 70
    0
  9
$GRIDUNIT
 10
0
 20
0
  9
$PLIMMIN
 10
0
 20
0
  9
$PLIMMAX
 10
29.7
 20
21
  9
$UNITMODE
 70
    0
  9
$VISRETAIN
 70
    1
  9
$PLINEGEN
 70
    0
  9
$PSLTSCALE
 70
    1
  9
$TREEDEPTH
 70
 3020
  9
$CMLSTYLE
  2
Standard
  9
$CMLJUST
 70
    0
  9
$CMLSCALE
 40
20
  9
$PROXYGRAPHICS
 70
    1
  9
$MEASUREMENT
 70
    1
  9
$CELWEIGHT
370
   -1
  9
$ENDCAPS
280
    0
  9
$JOINSTYLE
280
    0
  9
$LWDISPLAY
290
    0
  9
$INSUNITS
 70
    5
  9
$HYPERLINKBASE
  1

  9
$STYLESHEET
  1

  9
$XEDIT
290
    1
  9
$CEPSNTYPE
380
    0
  9
$PSTYLEMODE
290
    1
  9
$EXTNAMES
290
    1
  9
$PSVPSCALE
 40
0.009406806765375426
  9
$OLESTARTUP
290
    0
  9
$SORTENTS
280
  127
  9
$INDEXCTL
280
    0
  9
$HIDETEXT
280
    1
  9
$XCLIPFRAME
290
    0
  9
$HALOGAP
280
    0
  9
$OBSCOLOR
 70
  257
  9
$OBSLTYPE
280
    0
  9
$INTERSECTIONDISPLAY
280
    0
  9
$INTERSECTIONCOLOR
 70
  257
  9
$DIMASSOC
280
    1
  9
$PROJECTNAME
  1

  9
$CAMERADISPLAY
290
    0
  9
$LENSLENGTH
 40
50
  9
$CAMERAHEIGHT
 40
0
  9
$STEPSPERSEC
 40
2
  9
$STEPSIZE
 40
50
  9
$3DDWFPREC
 40
2
  9
$PSOLWIDTH
 40
5
  9
$PSOLHEIGHT
 40
80
  9
$LOFTANG1
 40
1.570796326794897
  9
$LOFTANG2
 40
1.570796326794897
  9
$LOFTMAG1
 40
0
  9
$LOFTMAG2
 40
0
  9
$LOFTPARAM
 70
    7
  9
$LOFTNORMALS
280
    1
  9
$LATITUDE
 40
1
  9
$LONGITUDE
 40
1
  9
$NORTHDIRECTION
 40
0
  9
$TIMEZONE
 70
-8000
  9
$LIGHTGLYPHDISPLAY
280
    1
  9
$TILEMODELIGHTSYNCH
280
    1
  9
$SOLIDHIST
280
    1
  9
$SHOWHIST
280
    1
  9
$DWFFRAME
280
    2
  9
$DGNFRAME
280
    0
  9
$REALWORLDSCALE
290
    1
  9
$INTERFERECOLOR
 62
    1
  9
$CSHADOW
280
    0
  9
$SHADOWPLANELOCATION
 40
0
  0
ENDSEC
  0
SECTION
  2
CLASSES
  0
ENDSEC
  0
SECTION
  2
TABLES
  0
TABLE
  2
VPORT
  5
8
330
0
100
AcDbSymbolTable
 70
    1
  0
VPORT
  5
31
330
2
100
AcDbSymbolTableRecord
100
AcDbViewportTableRecord
  2
*ACTIVE
 70
    0
 10
0
 20
0
 11
1
 21
1
 12
1239.38134810711
 22
826.7082179132041
 13
0
 23
0
 14
10
 24
10
 15
10
 25
10
 16
0
 26
0
 36
1
 17
0
 27
0
 37
0
 40
2021.144967682364
 41
1.987870619946092
 42
50
 43
0
 44
0
 50
0
 51
0
 71
    0
 72
  100
 73
    1
 74
    3
 75
    0
 76
    1
 77
    0
 78
    0
281
    0
 65
    1
110
0
120
0
130
0
111
1
121
0
131
0
112
0
122
1
132
0
 79
    0
146
0
348
10020
 60
    7
 61
    5
292
1
282
    1
141
0
142
0
 63
  250
421
3358443
  0
ENDTAB
  0
TABLE
  2
LTYPE
  5
5
330
0
100
AcDbSymbolTable
 70
    4
  0
LTYPE
  5
14
330
5
100
AcDbSymbolTableRecord
100
AcDbLinetypeTableRecord
  2
ByBlock
 70
    0
  3

 72
   65
 73
    0
 40
0
  0
LTYPE
  5
15
330
5
100
AcDbSymbolTableRecord
100
AcDbLinetypeTableRecord
  2
ByLayer
 70
    0
  3

 72
   65
 73
    0
 40
0
  0
LTYPE
  5
16
330
5
100
AcDbSymbolTableRecord
100
AcDbLinetypeTableRecord
  2
Continuous
 70
    0
  3
Solid line
 72
   65
 73
    0
 40
0
  0
LTYPE
  5
32
330
5
100
AcDbSymbolTableRecord
100
AcDbLinetypeTableRecord
  2
DOT
 70
    0
  3
Dot . . . . . . . . . . . . . . . . . . . . . .
 72
   65
 73
    2
 40
6.35
 49
0
 74
    0
 49
-6.35
 74
    0
  0
LTYPE
  5
33
330
5
100
AcDbSymbolTableRecord
100
AcDbLinetypeTableRecord
  2
DOTTINY
 70
    0
  3
Dot (.15x) .....................................
 72
   65
 73
    2
 40
0.9525
 49
0
 74
    0
 49
-0.9525
 74
    0
  0
LTYPE
  5
34
330
5
100
AcDbSymbolTableRecord
100
AcDbLinetypeTableRecord
  2
DOT2
 70
    0
  3
Dot (.5x) .....................................
 72
   65
 73
    2
 40
3.175
 49
0
 74
    0
 49
-3.175
 74
    0
  0
LTYPE
  5
35
330
5
100
AcDbSymbolTableRecord
100
AcDbLinetypeTableRecord
  2
DOTX2
 70
    0
  3
Dot (2x) .  .  .  .  .  .  .  .  .  .  .  .  .
 72
   65
 73
    2
 40
12.7
 49
0
 74
    0
 49
-12.7
 74
    0
  0
LTYPE
  5
36
330
5
100
AcDbSymbolTableRecord
100
AcDbLinetypeTableRecord
  2
DASHED
 70
    0
  3
Dashed _ _ _ _ _ _ _ _ _ _ _ _ _ _ _ _ _
 72
   65
 73
    2
 40
19.05
 49
12.7
 74
    0
 49
-6.35
 74
    0
  0
LTYPE
  5
37
330
5
100
AcDbSymbolTableRecord
100
AcDbLinetypeTableRecord
  2
DASHEDTINY
 70
    0
  3
Dashed (.15x) _ _ _ _ _ _ _ _ _ _ _ _ _ _ _ _ _
 72
   65
 73
    2
 40
2.8575
 49
1.905
 74
    0
 49
-0.9525
 74
    0
  0
LTYPE
  5
38
330
5
100
AcDbSymbolTableRecord
100
AcDbLinetypeTableRecord
  2
DASHED2
 70
    0
  3
Dashed (.5x) _ _ _ _ _ _ _ _ _ _ _ _ _ _ _ _ _
 72
   65
 73
    2
 40
9.524999999999999
 49
6.35
 74
    0
 49
-3.175
 74
    0
  0
LTYPE
  5
39
330
5
100
AcDbSymbolTableRecord
100
AcDbLinetypeTableRecord
  2
DASHEDX2
 70
    0
  3
Dashed (2x) ____  ____  ____  ____  ____  ___
 72
   65
 73
    2
 40
38.09999999999999
 49
25.4
 74
    0
 49
-12.7
 74
    0
  0
LTYPE
  5
3A
330
5
100
AcDbSymbolTableRecord
100
AcDbLinetypeTableRecord
  2
DASHDOT
 70
    0
  3
Dash dot __ . __ . __ . __ . __ . __ . __ . __
 72
   65
 73
    4
 40
25.4
 49
12.7
 74
    0
 49
-6.35
 74
    0
 49
0
 74
    0
 49
-6.35
 74
    0
  0
LTYPE
  5
3B
330
5
100
AcDbSymbolTableRecord
100
AcDbLinetypeTableRecord
  2
DASHDOTTINY
 70
    0
  3
Dash dot (.15x) _._._._._._._._._._._._._._._.
 72
   65
 73
    4
 40
3.81
 49
1.905
 74
    0
 49
-0.9525
 74
    0
 49
0
 74
    0
 49
-0.9525
 74
    0
  0
LTYPE
  5
3C
330
5
100
AcDbSymbolTableRecord
100
AcDbLinetypeTableRecord
  2
DASHDOT2
 70
    0
  3
Dash dot (.5x) _._._._._._._._._._._._._._._.
 72
   65
 73
    4
 40
12.7
 49
6.35
 74
    0
 49
-3.175
 74
    0
 49
0
 74
    0
 49
-3.175
 74
    0
  0
LTYPE
  5
3D
330
5
100
AcDbSymbolTableRecord
100
AcDbLinetypeTableRecord
  2
DASHDOTX2
 70
    0
  3
Dash dot (2x) ____  .  ____  .  ____  .  ___
 72
   65
 73
    4
 40
50.8
 49
25.4
 74
    0
 49
-12.7
 74
    0
 49
0
 74
    0
 49
-12.7
 74
    0
  0
LTYPE
  5
3E
330
5
100
AcDbSymbolTableRecord
100
AcDbLinetypeTableRecord
  2
DIVIDE
 70
    0
  3
Divide ____ . . ____ . . ____ . . ____ . . ____
 72
   65
 73
    6
 40
31.75
 49
12.7
 74
    0
 49
-6.35
 74
    0
 49
0
 74
    0
 49
-6.35
 74
    0
 49
0
 74
    0
 49
-6.35
 74
    0
  0
LTYPE
  5
3F
330
5
100
AcDbSymbolTableRecord
100
AcDbLinetypeTableRecord
  2
DIVIDETINY
 70
    0
  3
Divide (.15x) __..__..__..__..__..__..__..__.._
 72
   65
 73
    6
 40
4.7625
 49
1.905
 74
    0
 49
-0.9525
 74
    0
 49
0
 74
    0
 49
-0.9525
 74
    0
 49
0
 74
    0
 49
-0.9525
 74
    0
  0
LTYPE
  5
40
330
5
100
AcDbSymbolTableRecord
100
AcDbLinetypeTableRecord
  2
DIVIDE2
 70
    0
  3
Divide (.5x) __..__..__..__..__..__..__..__.._
 72
   65
 73
    6
 40
15.875
 49
6.35
 74
    0
 49
-3.175
 74
    0
 49
0
 74
    0
 49
-3.175
 74
    0
 49
0
 74
    0
 49
-3.175
 74
    0
  0
LTYPE
  5
41
330
5
100
AcDbSymbolTableRecord
100
AcDbLinetypeTableRecord
  2
DIVIDEX2
 70
    0
  3
Divide (2x) ________  .  .  ________  .  .  _
 72
   65
 73
    6
 40
63.5
 49
25.4
 74
    0
 49
-12.7
 74
    0
 49
0
 74
    0
 49
-12.7
 74
    0
 49
0
 74
    0
 49
-12.7
 74
    0
  0
LTYPE
  5
42
330
5
100
AcDbSymbolTableRecord
100
AcDbLinetypeTableRecord
  2
BORDER
 70
    0
  3
Border __ __ . __ __ . __ __ . __ __ . __ __ .
 72
   65
 73
    6
 40
44.45
 49
12.7
 74
    0
 49
-6.35
 74
    0
 49
12.7
 74
    0
 49
-6.35
 74
    0
 49
0
 74
    0
 49
-6.35
 74
    0
  0
LTYPE
  5
43
330
5
100
AcDbSymbolTableRecord
100
AcDbLinetypeTableRecord
  2
BORDERTINY
 70
    0
  3
Border (.15x) __.__.__.__.__.__.__.__.__.__.__.
 72
   65
 73
    6
 40
6.6675
 49
1.905
 74
    0
 49
-0.9525
 74
    0
 49
1.905
 74
    0
 49
-0.9525
 74
    0
 49
0
 74
    0
 49
-0.9525
 74
    0
  0
LTYPE
  5
44
330
5
100
AcDbSymbolTableRecord
100
AcDbLinetypeTableRecord
  2
BORDER2
 70
    0
  3
Border (.5x) __.__.__.__.__.__.__.__.__.__.__.
 72
   65
 73
    6
 40
22.225
 49
6.35
 74
    0
 49
-3.175
 74
    0
 49
6.35
 74
    0
 49
-3.175
 74
    0
 49
0
 74
    0
 49
-3.175
 74
    0
  0
LTYPE
  5
45
330
5
100
AcDbSymbolTableRecord
100
AcDbLinetypeTableRecord
  2
BORDERX2
 70
    0
  3
Border (2x) ____  ____  .  ____  ____  .  ___
 72
   65
 73
    6
 40
88.89999999999999
 49
25.4
 74
    0
 49
-12.7
 74
    0
 49
25.4
 74
    0
 49
-12.7
 74
    0
 49
0
 74
    0
 49
-12.7
 74
    0
  0
LTYPE
  5
46
330
5
100
AcDbSymbolTableRecord
100
AcDbLinetypeTableRecord
  2
CENTER
 70
    0
  3
Center ____ _ ____ _ ____ _ ____ _ ____ _ ____
 72
   65
 73
    4
 40
50.8
 49
31.75
 74
    0
 49
-6.35
 74
    0
 49
6.35
 74
    0
 49
-6.35
 74
    0
  0
LTYPE
  5
47
330
5
100
AcDbSymbolTableRecord
100
AcDbLinetypeTableRecord
  2
CENTERTINY
 70
    0
  3
Center (.15x) ___ _ ___ _ ___ _ ___ _ ___ _ ___
 72
   65
 73
    4
 40
7.619999999999999
 49
4.7625
 74
    0
 49
-0.9525
 74
    0
 49
0.9525
 74
    0
 49
-0.9525
 74
    0
  0
LTYPE
  5
48
330
5
100
AcDbSymbolTableRecord
100
AcDbLinetypeTableRecord
  2
CENTER2
 70
    0
  3
Center (.5x) ___ _ ___ _ ___ _ ___ _ ___ _ ___
 72
   65
 73
    4
 40
28.575
 49
19.05
 74
    0
 49
-3.175
 74
    0
 49
3.175
 74
    0
 49
-3.175
 74
    0
  0
LTYPE
  5
49
330
5
100
AcDbSymbolTableRecord
100
AcDbLinetypeTableRecord
  2
CENTERX2
 70
    0
  3
Center (2x) ________  __  ________  __  _____
 72
   65
 73
    4
 40
101.6
 49
63.5
 74
    0
 49
-12.7
 74
    0
 49
12.7
 74
    0
 49
-12.7
 74
    0
  0
ENDTAB
  0
TABLE
  2
LAYER
  5
2
330
0
100
AcDbSymbolTable
 70
    1
  0
LAYER
  5
10
330
2
100
AcDbSymbolTableRecord
100
AcDbLayerTableRecord
  2
0
 70
    0
 62
    7
  6
CONTINUOUS
370
   -3
390
F
1001
LibreCad
1070
    1
  0
LAYER
  5
4A
330
2
100
AcDbSymbolTableRecord
100
AcDbLayerTableRecord
  2
bordur
 70
    0
 62
  216
420
8388736
  6
CONTINUOUS
370
   25
390
F
  0
LAYER
  5
4B
330
2
100
AcDbSymbolTableRecord
100
AcDbLayerTableRecord
  2
cegla_rosklad
 70
    0
 62
   16
420
8388608
  6
CONTINUOUS
370
   18
390
F
  0
LAYER
  5
4C
330
2
100
AcDbSymbolTableRecord
100
AcDbLayerTableRecord
  2
fundament
 70
    0
 62
  136
420
32896
  6
CONTINUOUS
370
   25
390
F
  0
LAYER
  5
4D
330
2
100
AcDbSymbolTableRecord
100
AcDbLayerTableRecord
  2
gazoblok
 70
    0
 62
   56
420
8421376
  6
CONTINUOUS
370
   25
390
F
  0
LAYER
  5
4E
330
2
100
AcDbSymbolTableRecord
100
AcDbLayerTableRecord
  2
lyce
 70
    4
 62
   41
420
16376252
  6
CONTINUOUS
370
   25
390
F
  0
LAYER
  5
4F
330
2
100
AcDbSymbolTableRecord
100
AcDbLayerTableRecord
  2
rozmir
 70
    0
 62
    4
  6
CONTINUOUS
370
   13
390
F
  0
LAYER
  5
50
330
2
100
AcDbSymbolTableRecord
100
AcDbLayerTableRecord
  2
rynvy
 70
    4
 62
    5
  6
CONTINUOUS
370
   25
390
F
  0
LAYER
  5
51
330
2
100
AcDbSymbolTableRecord
100
AcDbLayerTableRecord
  2
skhody
 70
    0
 62
    8
  6
CONTINUOUS
370
   25
390
F
  0
LAYER
  5
52
330
2
100
AcDbSymbolTableRecord
100
AcDbLayerTableRecord
  2
sterodur
 70
    1
 62
    3
  6
CONTINUOUS
370
   25
390
F
  0
LAYER
  5
53
330
2
100
AcDbSymbolTableRecord
100
AcDbLayerTableRecord
  2
tekst
 70
    0
 62
  136
420
32896
  6
CONTINUOUS
370
   13
390
F
  0
ENDTAB
  0
TABLE
  2
STYLE
  5
3
330
0
100
AcDbSymbolTable
 70
    3
  0
STYLE
  5
54
330
2
100
AcDbSymbolTableRecord
100
AcDbTextStyleTableRecord
  2
cyrillic_ii
 70
    0
 40
0
 41
1
 50
0
 71
    0
 42
1
  3
cyrillic_ii
  4

  0
STYLE
  5
55
330
2
100
AcDbSymbolTableRecord
100
AcDbTextStyleTableRecord
  2
Standard
 70
    0
 40
0
 41
1
 50
0
 71
    0
 42
1
  3
txt
  4

  0
ENDTAB
  0
TABLE
  2
VIEW
  5
6
330
0
100
AcDbSymbolTable
 70
    0
  0
ENDTAB
  0
TABLE
  2
UCS
  5
7
330
0
100
AcDbSymbolTable
 70
    0
  0
ENDTAB
  0
TABLE
  2
APPID
  5
9
330
0
100
AcDbSymbolTable
 70
    1
  0
APPID
  5
12
330
9
100
AcDbSymbolTableRecord
100
AcDbRegAppTableRecord
  2
ACAD
 70
    0
  0
APPID
  5
56
330
9
100
AcDbSymbolTableRecord
100
AcDbRegAppTableRecord
  2
LibreCad
 70
    0
  0
ENDTAB
  0
TABLE
  2
DIMSTYLE
  5
A
330
0
100
AcDbSymbolTable
 70
    1
100
AcDbDimStyleTable
 71
    1
  0
DIMSTYLE
105
57
330
A
100
AcDbSymbolTableRecord
100
AcDbDimStyleTableRecord
  2
Standard
 70
    0
 40
10
 41
1
 42
0.2
 43
0.38
 44
0.5
 45
0
 46
0
 47
0
 48
0
 49
1
140
1.5
141
0.09
142
0
143
25.4
144
1
145
0
146
1
147
0.5
148
0
 71
    0
 72
    0
 73
    0
 74
    1
 75
    0
 76
    0
 77
    0
 78
    8
 79
    0
170
    0
171
    2
172
    0
173
    0
174
    0
175
    0
176
    0
177
    0
178
    0
179
    0
271
    1
272
    4
273
    2
274
    2
275
    0
276
    0
277
    2
278
   44
279
    0
280
    0
281
    0
282
    0
283
    1
284
    0
285
    0
286
    0
288
    0
289
    3
340
standard
341

371
   -2
372
   -2
  0
ENDTAB
  0
TABLE
  2
BLOCK_RECORD
  5
1
330
0
100
AcDbSymbolTable
 70
    2
  0
BLOCK_RECORD
  5
1F
330
1
100
AcDbSymbolTableRecord
100
AcDbBlockTableRecord
  2
*Model_Space
 70
    0
280
    1
281
    0
  0
BLOCK_RECORD
  5
1E
330
1
100
AcDbSymbolTableRecord
100
AcDbBlockTableRecord
  2
*Paper_Space
 70
    0
280
    1
281
    0
  0
BLOCK_RECORD
  5
58
330
1
100
AcDbSymbolTableRecord
100
AcDbBlockTableRecord
  2
*D20
 70
    0
280
    1
281
    0
  0
BLOCK_RECORD
  5
5B
330
1
100
AcDbSymbolTableRecord
100
AcDbBlockTableRecord
  2
*D5
 70
    0
280
    1
281
    0
  0
BLOCK_RECORD
  5
5E
330
1
100
AcDbSymbolTableRecord
100
AcDbBlockTableRecord
  2
*D37
 70
    0
280
    1
281
    0
  0
BLOCK_RECORD
  5
61
330
1
100
AcDbSymbolTableRecord
100
AcDbBlockTableRecord
  2
*D29
 70
    0
280
    1
281
    0
  0
BLOCK_RECORD
  5
64
330
1
100
AcDbSymbolTableRecord
100
AcDbBlockTableRecord
  2
*D35
 70
    0
280
    1
281
    0
  0
BLOCK_RECORD
  5
67
330
1
100
AcDbSymbolTableRecord
100
AcDbBlockTableRecord
  2
*D25
 70
    0
280
    1
281
    0
  0
BLOCK_RECORD
  5
6A
330
1
100
AcDbSymbolTableRecord
100
AcDbBlockTableRecord
  2
*D39
 70
    0
280
    1
281
    0
  0
BLOCK_RECORD
  5
6D
330
1
100
AcDbSymbolTableRecord
100
AcDbBlockTableRecord
  2
*D8
 70
    0
280
    1
281
    0
  0
BLOCK_RECORD
  5
70
330
1
100
AcDbSymbolTableRecord
100
AcDbBlockTableRecord
  2
*D14
 70
    0
280
    1
281
    0
  0
BLOCK_RECORD
  5
73
330
1
100
AcDbSymbolTableRecord
100
AcDbBlockTableRecord
  2
*D18
 70
    0
280
    1
281
    0
  0
BLOCK_RECORD
  5
76
330
1
100
AcDbSymbolTableRecord
100
AcDbBlockTableRecord
  2
*D30
 70
    0
280
    1
281
    0
  0
BLOCK_RECORD
  5
79
330
1
100
AcDbSymbolTableRecord
100
AcDbBlockTableRecord
  2
*D36
 70
    0
280
    1
281
    0
  0
BLOCK_RECORD
  5
7C
330
1
100
AcDbSymbolTableRecord
100
AcDbBlockTableRecord
  2
*D3
 70
    0
280
    1
281
    0
  0
BLOCK_RECORD
  5
7F
330
1
100
AcDbSymbolTableRecord
100
AcDbBlockTableRecord
  2
*D40
 70
    0
280
    1
281
    0
  0
BLOCK_RECORD
  5
82
330
1
100
AcDbSymbolTableRecord
100
AcDbBlockTableRecord
  2
*D16
 70
    0
280
    1
281
    0
  0
BLOCK_RECORD
  5
85
330
1
100
AcDbSymbolTableRecord
100
AcDbBlockTableRecord
  2
*D17
 70
    0
280
    1
281
    0
  0
BLOCK_RECORD
  5
88
330
1
100
AcDbSymbolTableRecord
100
AcDbBlockTableRecord
  2
*D13
 70
    0
280
    1
281
    0
  0
BLOCK_RECORD
  5
8B
330
1
100
AcDbSymbolTableRecord
100
AcDbBlockTableRecord
  2
*D21
 70
    0
280
    1
281
    0
  0
BLOCK_RECORD
  5
8E
330
1
100
AcDbSymbolTableRecord
100
AcDbBlockTableRecord
  2
*D27
 70
    0
280
    1
281
    0
  0
BLOCK_RECORD
  5
91
330
1
100
AcDbSymbolTableRecord
100
AcDbBlockTableRecord
  2
*D23
 70
    0
280
    1
281
    0
  0
BLOCK_RECORD
  5
94
330
1
100
AcDbSymbolTableRecord
100
AcDbBlockTableRecord
  2
*D31
 70
    0
280
    1
281
    0
  0
BLOCK_RECORD
  5
97
330
1
100
AcDbSymbolTableRecord
100
AcDbBlockTableRecord
  2
*D38
 70
    0
280
    1
281
    0
  0
BLOCK_RECORD
  5
9A
330
1
100
AcDbSymbolTableRecord
100
AcDbBlockTableRecord
  2
*D4
 70
    0
280
    1
281
    0
  0
BLOCK_RECORD
  5
9D
330
1
100
AcDbSymbolTableRecord
100
AcDbBlockTableRecord
  2
*D28
 70
    0
280
    1
281
    0
  0
BLOCK_RECORD
  5
A0
330
1
100
AcDbSymbolTableRecord
100
AcDbBlockTableRecord
  2
*D9
 70
    0
280
    1
281
    0
  0
BLOCK_RECORD
  5
A3
330
1
100
AcDbSymbolTableRecord
100
AcDbBlockTableRecord
  2
*D24
 70
    0
280
    1
281
    0
  0
BLOCK_RECORD
  5
A6
330
1
100
AcDbSymbolTableRecord
100
AcDbBlockTableRecord
  2
*D1
 70
    0
280
    1
281
    0
  0
BLOCK_RECORD
  5
A9
330
1
100
AcDbSymbolTableRecord
100
AcDbBlockTableRecord
  2
*D6
 70
    0
280
    1
281
    0
  0
BLOCK_RECORD
  5
AC
330
1
100
AcDbSymbolTableRecord
100
AcDbBlockTableRecord
  2
*D32
 70
    0
280
    1
281
    0
  0
BLOCK_RECORD
  5
AF
330
1
100
AcDbSymbolTableRecord
100
AcDbBlockTableRecord
  2
*D11
 70
    0
280
    1
281
    0
  0
BLOCK_RECORD
  5
B2
330
1
100
AcDbSymbolTableRecord
100
AcDbBlockTableRecord
  2
*D7
 70
    0
280
    1
281
    0
  0
BLOCK_RECORD
  5
B5
330
1
100
AcDbSymbolTableRecord
100
AcDbBlockTableRecord
  2
*D15
 70
    0
280
    1
281
    0
  0
BLOCK_RECORD
  5
B8
330
1
100
AcDbSymbolTableRecord
100
AcDbBlockTableRecord
  2
*D22
 70
    0
280
    1
281
    0
  0
BLOCK_RECORD
  5
BB
330
1
100
AcDbSymbolTableRecord
100
AcDbBlockTableRecord
  2
*D34
 70
    0
280
    1
281
    0
  0
BLOCK_RECORD
  5
BE
330
1
100
AcDbSymbolTableRecord
100
AcDbBlockTableRecord
  2
*D26
 70
    0
280
    1
281
    0
  0
BLOCK_RECORD
  5
C1
330
1
100
AcDbSymbolTableRecord
100
AcDbBlockTableRecord
  2
*D12
 70
    0
280
    1
281
    0
  0
BLOCK_RECORD
  5
C4
330
1
100
AcDbSymbolTableRecord
100
AcDbBlockTableRecord
  2
*D33
 70
    0
280
    1
281
    0
  0
BLOCK_RECORD
  5
C7
330
1
100
AcDbSymbolTableRecord
100
AcDbBlockTableRecord
  2
*D19
 70
    0
280
    1
281
    0
  0
BLOCK_RECORD
  5
CA
330
1
100
AcDbSymbolTableRecord
100
AcDbBlockTableRecord
  2
*D10
 70
    0
280
    1
281
    0
  0
BLOCK_RECORD
  5
CD
330
1
100
AcDbSymbolTableRecord
100
AcDbBlockTableRecord
  2
*D2
 70
    0
280
    1
281
    0
  0
BLOCK_RECORD
  5
D0
330
1
100
AcDbSymbolTableRecord
100
AcDbBlockTableRecord
  2
block10
 70
    0
280
    1
281
    0
  0
ENDTAB
  0
ENDSEC
  0
SECTION
  2
BLOCKS
  0
BLOCK
  5
20
330
1F
100
AcDbEntity
  8
0
100
AcDbBlockBegin
  2
*Model_Space
 70
    0
 10
0
 20
0
 30
0
  3
*Model_Space
  1

  0
ENDBLK
  5
21
330
1F
100
AcDbEntity
  8
0
100
AcDbBlockEnd
  0
BLOCK
  5
1C
330
1B
100
AcDbEntity
  8
0
100
AcDbBlockBegin
  2
*Paper_Space
 70
    0
 10
0
 20
0
 30
0
  3
*Paper_Space
  1

  0
ENDBLK
  5
1D
330
1F
100
AcDbEntity
  8
0
100
AcDbBlockEnd
  0
BLOCK
  5
59
330
58
100
AcDbEntity
  8
0
100
AcDbBlockBegin
  2
*D20
 70
    1
 10
0
 20
0
  3
*D20
  1

  0
LINE
  5
D3
100
AcDbEntity
  8
rozmir
  6
ByBlock
 62
    0
370
   -2
100
AcDbLine
 10
508
 20
1057
 11
508
 21
1116
  0
SOLID
  5
D4
100
AcDbEntity
  8
rozmir
  6
ByBlock
 62
    0
370
   -2
100
AcDbTrace
 10
508
 20
1057
 30
0
 11
506.3348613689087
 21
1067
 31
0
 12
509.6651386310913
 22
1067
 32
0
 13
509.6651386310913
 23
1067
 33
0
  0
SOLID
  5
D5
100
AcDbEntity
  8
rozmir
  6
ByBlock
 62
    0
370
   -2
100
AcDbTrace
 10
508
 20
1116
 30
0
 11
509.6651386310913
 21
1106
 31
0
 12
506.3348613689087
 22
1106
 32
0
 13
506.3348613689087
 23
1106
 33
0
  0
MTEXT
  5
D6
100
AcDbEntity
  8
rozmir
  6
CONTINUOUS
 62
    0
370
   -2
100
AcDbMText
 10
495.5
 20
1086.5
 30
0
 40
15
 41
18.33333333333427
 71
    5
 72
    1
  1
59
  7
standard
210
0
220
0
230
1
 50
90
 73
    2
 44
1
  0
LINE
  5
D7
100
AcDbEntity
  8
rozmir
  6
ByBlock
 62
    0
370
   -2
100
AcDbLine
 10
513
 20
1057
 11
503
 21
1057
  0
LINE
  5
D8
100
AcDbEntity
  8
rozmir
  6
ByBlock
 62
    0
370
   -2
100
AcDbLine
 10
513
 20
1116
 11
503
 21
1116
  0
ENDBLK
  5
5A
330
58
100
AcDbEntity
  8
0
100
AcDbBlockEnd
  0
BLOCK
  5
5C
330
5B
100
AcDbEntity
  8
0
100
AcDbBlockBegin
  2
*D5
 70
    1
 10
0
 20
0
  3
*D5
  1

  0
LINE
  5
D9
100
AcDbEntity
  8
rozmir
  6
ByBlock
 62
    0
370
   -2
100
AcDbLine
 10
0
 20
-20
 11
-152
 21
-20
  0
SOLID
  5
DA
100
AcDbEntity
  8
rozmir
  6
ByBlock
 62
    0
370
   -2
100
AcDbTrace
 10
0
 20
-20
 30
0
 11
-10
 21
-21.66513863109136
 31
0
 12
-10
 22
-18.33486136890864
 32
0
 13
-10
 23
-18.33486136890864
 33
0
  0
SOLID
  5
DB
100
AcDbEntity
  8
rozmir
  6
ByBlock
 62
    0
370
   -2
100
AcDbTrace
 10
-152
 20
-20
 30
0
 11
-142
 21
-18.33486136890864
 31
0
 12
-142
 22
-21.66513863109136
 32
0
 13
-142
 23
-21.66513863109136
 33
0
  0
MTEXT
  5
DC
100
AcDbEntity
  8
rozmir
  6
CONTINUOUS
 62
    0
370
   -2
100
AcDbMText
 10
-76
 20
-7.5
 30
0
 40
15
 41
26.6666666666676
 71
    5
 72
    1
  1
152
  7
standard
210
0
220
0
230
1
 50
360
 73
    2
 44
1
  0
LINE
  5
DD
100
AcDbEntity
  8
rozmir
  6
ByBlock
 62
    0
370
   -2
100
AcDbLine
 10
-3.673940397442059e-16
 20
-1.999999999999999
 11
-9.184850993605148e-16
 21
-25
  0
LINE
  5
DE
100
AcDbEntity
  8
rozmir
  6
ByBlock
 62
    0
370
   -2
100
AcDbLine
 10
-152
 20
-2
 11
-152
 21
-25
  0
ENDBLK
  5
5D
330
5B
100
AcDbEntity
  8
0
100
AcDbBlockEnd
  0
BLOCK
  5
5F
330
5E
100
AcDbEntity
  8
0
100
AcDbBlockBegin
  2
*D37
 70
    1
 10
0
 20
0
  3
*D37
  1

  0
LINE
  5
DF
100
AcDbEntity
  8
rozmir
  6
ByBlock
 62
    0
370
   -2
100
AcDbLine
 10
466
 20
-126
 11
1097
 21
-126
  0
SOLID
  5
E0
100
AcDbEntity
  8
rozmir
  6
ByBlock
 62
    0
370
   -2
100
AcDbTrace
 10
466
 20
-126
 30
0
 11
476
 21
-124.3348613689086
 31
0
 12
476
 22
-127.6651386310914
 32
0
 13
476
 23
-127.6651386310914
 33
0
  0
SOLID
  5
E1
100
AcDbEntity
  8
rozmir
  6
ByBlock
 62
    0
370
   -2
100
AcDbTrace
 10
1097
 20
-126
 30
0
 11
1087
 21
-127.6651386310914
 31
0
 12
1087
 22
-124.3348613689086
 32
0
 13
1087
 23
-124.3348613689086
 33
0
  0
MTEXT
  5
E2
100
AcDbEntity
  8
rozmir
  6
CONTINUOUS
 62
    0
370
   -2
100
AcDbMText
 10
781.5
 20
-113.5
 30
0
 40
15
 41
26.66666666666853
 71
    5
 72
    1
  1
631
  7
standard
210
0
220
0
230
1
 50
0
 73
    2
 44
1
  0
LINE
  5
E3
100
AcDbEntity
  8
rozmir
  6
ByBlock
 62
    0
370
   -2
100
AcDbLine
 10
466
 20
-99
 11
466
 21
-131
  0
LINE
  5
E4
100
AcDbEntity
  8
rozmir
  6
ByBlock
 62
    0
370
   -2
100
AcDbLine
 10
1097
 20
-99
 11
1097
 21
-131
  0
ENDBLK
  5
60
330
5E
100
AcDbEntity
  8
0
100
AcDbBlockEnd
  0
BLOCK
  5
62
330
61
100
AcDbEntity
  8
0
100
AcDbBlockBegin
  2
*D29
 70
    1
 10
0
 20
0
  3
*D29
  1

  0
LINE
  5
E5
100
AcDbEntity
  8
rozmir
  6
ByBlock
 62
    0
370
   -2
100
AcDbLine
 10
-103
 20
478
 11
-103
 21
656
  0
SOLID
  5
E6
100
AcDbEntity
  8
rozmir
  6
ByBlock
 62
    0
370
   -2
100
AcDbTrace
 10
-103
 20
478
 30
0
 11
-104.6651386310914
 21
488
 31
0
 12
-101.3348613689087
 22
488
 32
0
 13
-101.3348613689087
 23
488
 33
0
  0
SOLID
  5
E7
100
AcDbEntity
  8
rozmir
  6
ByBlock
 62
    0
370
   -2
100
AcDbTrace
 10
-103
 20
656
 30
0
 11
-101.3348613689086
 21
646
 31
0
 12
-104.6651386310914
 22
646
 32
0
 13
-104.6651386310914
 23
646
 33
0
  0
MTEXT
  5
E8
100
AcDbEntity
  8
rozmir
  6
CONTINUOUS
 62
    0
370
   -2
100
AcDbMText
 10
-115.5
 20
567
 30
0
 40
15
 41
26.66666666666667
 71
    5
 72
    1
  1
178
  7
standard
210
0
220
0
230
1
 50
90
 73
    2
 44
1
  0
LINE
  5
E9
100
AcDbEntity
  8
rozmir
  6
ByBlock
 62
    0
370
   -2
100
AcDbLine
 10
-94
 20
478
 11
-108
 21
478
  0
LINE
  5
EA
100
AcDbEntity
  8
rozmir
  6
ByBlock
 62
    0
370
   -2
100
AcDbLine
 10
-94
 20
656
 11
-108
 21
656
  0
ENDBLK
  5
63
330
61
100
AcDbEntity
  8
0
100
AcDbBlockEnd
  0
BLOCK
  5
65
330
64
100
AcDbEntity
  8
0
100
AcDbBlockBegin
  2
*D35
 70
    1
 10
0
 20
0
  3
*D35
  1

  0
LINE
  5
EB
100
AcDbEntity
  8
rozmir
  6
ByBlock
 62
    0
370
   -2
100
AcDbLine
 10
1029
 20
220
 11
1063
 21
220
  0
SOLID
  5
EC
100
AcDbEntity
  8
rozmir
  6
ByBlock
 62
    0
370
   -2
100
AcDbTrace
 10
1029
 20
220
 30
0
 11
1039
 21
221.6651386310914
 31
0
 12
1039
 22
218.3348613689086
 32
0
 13
1039
 23
218.3348613689086
 33
0
  0
SOLID
  5
ED
100
AcDbEntity
  8
rozmir
  6
ByBlock
 62
    0
370
   -2
100
AcDbTrace
 10
1063
 20
220
 30
0
 11
1053
 21
218.3348613689086
 31
0
 12
1053
 22
221.6651386310914
 32
0
 13
1053
 23
221.6651386310914
 33
0
  0
MTEXT
  5
EE
100
AcDbEntity
  8
rozmir
  6
CONTINUOUS
 62
    0
370
   -2
100
AcDbMText
 10
1046
 20
232.5
 30
0
 40
15
 41
20.00000000000093
 71
    5
 72
    1
  1
34
  7
standard
210
0
220
0
230
1
 50
0
 73
    2
 44
1
  0
LINE
  5
EF
100
AcDbEntity
  8
rozmir
  6
ByBlock
 62
    0
370
   -2
100
AcDbLine
 10
1029
 20
232
 11
1029
 21
215
  0
LINE
  5
F0
100
AcDbEntity
  8
rozmir
  6
ByBlock
 62
    0
370
   -2
100
AcDbLine
 10
1063
 20
232
 11
1063
 21
215
  0
ENDBLK
  5
66
330
64
100
AcDbEntity
  8
0
100
AcDbBlockEnd
  0
BLOCK
  5
68
330
67
100
AcDbEntity
  8
0
100
AcDbBlockBegin
  2
*D25
 70
    1
 10
0
 20
0
  3
*D25
  1

  0
LINE
  5
F1
100
AcDbEntity
  8
rozmir
  6
ByBlock
 62
    0
370
   -2
100
AcDbLine
 10
-42.99999999999997
 20
600
 11
-43
 21
478
  0
SOLID
  5
F2
100
AcDbEntity
  8
rozmir
  6
ByBlock
 62
    0
370
   -2
100
AcDbTrace
 10
-42.99999999999997
 20
600
 30
0
 11
-41.33486136890861
 21
590
 31
0
 12
-44.66513863109134
 22
590
 32
0
 13
-44.66513863109134
 23
590
 33
0
  0
SOLID
  5
F3
100
AcDbEntity
  8
rozmir
  6
ByBlock
 62
    0
370
   -2
100
AcDbTrace
 10
-43
 20
478
 30
0
 11
-44.66513863109136
 21
488
 31
0
 12
-41.33486136890863
 22
488
 32
0
 13
-41.33486136890863
 23
488
 33
0
  0
MTEXT
  5
F4
100
AcDbEntity
  8
rozmir
  6
CONTINUOUS
 62
    0
370
   -2
100
AcDbMText
 10
-55.5
 20
539
 30
0
 40
15
 41
26.66666666666667
 71
    5
 72
    1
  1
122
  7
standard
210
0
220
0
230
1
 50
90
 73
    2
 44
1
  0
LINE
  5
F5
100
AcDbEntity
  8
rozmir
  6
ByBlock
 62
    0
370
   -2
100
AcDbLine
 10
-38
 20
600
 11
-47.99999999999997
 21
600
  0
LINE
  5
F6
100
AcDbEntity
  8
rozmir
  6
ByBlock
 62
    0
370
   -2
100
AcDbLine
 10
-38
 20
478
 11
-48
 21
478
  0
ENDBLK
  5
69
330
67
100
AcDbEntity
  8
0
100
AcDbBlockEnd
  0
BLOCK
  5
6B
330
6A
100
AcDbEntity
  8
0
100
AcDbBlockBegin
  2
*D39
 70
    1
 10
0
 20
0
  3
*D39
  1

  0
LINE
  5
F7
100
AcDbEntity
  8
rozmir
  6
ByBlock
 62
    0
370
   -2
100
AcDbLine
 10
1075
 20
292
 11
1075
 21
326
  0
SOLID
  5
F8
100
AcDbEntity
  8
rozmir
  6
ByBlock
 62
    0
370
   -2
100
AcDbTrace
 10
1075
 20
292
 30
0
 11
1073.334861368909
 21
302
 31
0
 12
1076.665138631091
 22
302
 32
0
 13
1076.665138631091
 23
302
 33
0
  0
SOLID
  5
F9
100
AcDbEntity
  8
rozmir
  6
ByBlock
 62
    0
370
   -2
100
AcDbTrace
 10
1075
 20
326
 30
0
 11
1076.665138631091
 21
316
 31
0
 12
1073.334861368909
 22
316
 32
0
 13
1073.334861368909
 23
316
 33
0
  0
MTEXT
  5
FA
100
AcDbEntity
  8
rozmir
  6
CONTINUOUS
 62
    0
370
   -2
100
AcDbMText
 10
1062.5
 20
309
 30
0
 40
15
 41
20.00000000000093
 71
    5
 72
    1
  1
34
  7
standard
210
0
220
0
230
1
 50
90
 73
    2
 44
1
  0
LINE
  5
FB
100
AcDbEntity
  8
rozmir
  6
ByBlock
 62
    0
370
   -2
100
AcDbLine
 10
1065
 20
292
 11
1080
 21
292
  0
LINE
  5
FC
100
AcDbEntity
  8
rozmir
  6
ByBlock
 62
    0
370
   -2
100
AcDbLine
 10
1065
 20
326
 11
1080
 21
326
  0
ENDBLK
  5
6C
330
6A
100
AcDbEntity
  8
0
100
AcDbBlockEnd
  0
BLOCK
  5
6E
330
6D
100
AcDbEntity
  8
0
100
AcDbBlockBegin
  2
*D8
 70
    1
 10
0
 20
0
  3
*D8
  1

  0
LINE
  5
FD
100
AcDbEntity
  8
rozmir
  6
ByBlock
 62
    0
370
   -2
100
AcDbLine
 10
1000
 20
1070
 11
1115
 21
1070
  0
SOLID
  5
FE
100
AcDbEntity
  8
rozmir
  6
ByBlock
 62
    0
370
   -2
100
AcDbTrace
 10
1000
 20
1070
 30
0
 11
1010
 21
1071.665138631091
 31
0
 12
1010
 22
1068.334861368909
 32
0
 13
1010
 23
1068.334861368909
 33
0
  0
SOLID
  5
FF
100
AcDbEntity
  8
rozmir
  6
ByBlock
 62
    0
370
   -2
100
AcDbTrace
 10
1115
 20
1070
 30
0
 11
1105
 21
1068.334861368909
 31
0
 12
1105
 22
1071.665138631091
 32
0
 13
1105
 23
1071.665138631091
 33
0
  0
MTEXT
  5
100
100
AcDbEntity
  8
rozmir
  6
CONTINUOUS
 62
    0
370
   -2
100
AcDbMText
 10
1057.5
 20
1082.5
 30
0
 40
15
 41
23.33333333333427
 71
    5
 72
    1
  1
115
  7
standard
210
0
220
0
230
1
 50
0
 73
    2
 44
1
  0
LINE
  5
101
100
AcDbEntity
  8
rozmir
  6
ByBlock
 62
    0
370
   -2
100
AcDbLine
 10
1000
 20
1054
 11
1000
 21
1075
  0
LINE
  5
102
100
AcDbEntity
  8
rozmir
  6
ByBlock
 62
    0
370
   -2
100
AcDbLine
 10
1115
 20
1054
 11
1115
 21
1075
  0
ENDBLK
  5
6F
330
6D
100
AcDbEntity
  8
0
100
AcDbBlockEnd
  0
BLOCK
  5
71
330
70
100
AcDbEntity
  8
0
100
AcDbBlockBegin
  2
*D14
 70
    1
 10
0
 20
0
  3
*D14
  1

  0
LINE
  5
103
100
AcDbEntity
  8
rozmir
  6
ByBlock
 62
    0
370
   -2
100
AcDbLine
 10
1000
 20
220
 11
1029
 21
220
  0
SOLID
  5
104
100
AcDbEntity
  8
rozmir
  6
ByBlock
 62
    0
370
   -2
100
AcDbTrace
 10
1000
 20
220
 30
0
 11
1010
 21
221.6651386310914
 31
0
 12
1010
 22
218.3348613689086
 32
0
 13
1010
 23
218.3348613689086
 33
0
  0
SOLID
  5
105
100
AcDbEntity
  8
rozmir
  6
ByBlock
 62
    0
370
   -2
100
AcDbTrace
 10
1029
 20
220
 30
0
 11
1019
 21
218.3348613689086
 31
0
 12
1019
 22
221.6651386310914
 32
0
 13
1019
 23
221.6651386310914
 33
0
  0
MTEXT
  5
106
100
AcDbEntity
  8
rozmir
  6
CONTINUOUS
 62
    0
370
   -2
100
AcDbMText
 10
1014.5
 20
232.5
 30
0
 40
15
 41
18.33333333333334
 71
    5
 72
    1
  1
29
  7
standard
210
0
220
0
230
1
 50
0
 73
    2
 44
1
  0
LINE
  5
107
100
AcDbEntity
  8
rozmir
  6
ByBlock
 62
    0
370
   -2
100
AcDbLine
 10
1000
 20
232
 11
1000
 21
215
  0
LINE
  5
108
100
AcDbEntity
  8
rozmir
  6
ByBlock
 62
    0
370
   -2
100
AcDbLine
 10
1029
 20
232
 11
1029
 21
215
  0
ENDBLK
  5
72
330
70
100
AcDbEntity
  8
0
100
AcDbBlockEnd
  0
BLOCK
  5
74
330
73
100
AcDbEntity
  8
0
100
AcDbBlockBegin
  2
*D18
 70
    1
 10
0
 20
0
  3
*D18
  1

  0
LINE
  5
109
100
AcDbEntity
  8
rozmir
  6
ByBlock
 62
    0
370
   -2
100
AcDbLine
 10
-152
 20
-190
 11
1115
 21
-190
  0
SOLID
  5
10A
100
AcDbEntity
  8
rozmir
  6
ByBlock
 62
    0
370
   -2
100
AcDbTrace
 10
-152
 20
-190
 30
0
 11
-142
 21
-188.3348613689086
 31
0
 12
-142
 22
-191.6651386310914
 32
0
 13
-142
 23
-191.6651386310914
 33
0
  0
SOLID
  5
10B
100
AcDbEntity
  8
rozmir
  6
ByBlock
 62
    0
370
   -2
100
AcDbTrace
 10
1115
 20
-190
 30
0
 11
1105
 21
-191.6651386310914
 31
0
 12
1105
 22
-188.3348613689086
 32
0
 13
1105
 23
-188.3348613689086
 33
0
  0
MTEXT
  5
10C
100
AcDbEntity
  8
rozmir
  6
CONTINUOUS
 62
    0
370
   -2
100
AcDbMText
 10
481.5
 20
-177.5
 30
0
 40
15
 41
38.33333333333427
 71
    5
 72
    1
  1
1267
  7
standard
210
0
220
0
230
1
 50
0
 73
    2
 44
1
  0
LINE
  5
10D
100
AcDbEntity
  8
rozmir
  6
ByBlock
 62
    0
370
   -2
100
AcDbLine
 10
-152
 20
-152
 11
-152
 21
-195
  0
LINE
  5
10E
100
AcDbEntity
  8
rozmir
  6
ByBlock
 62
    0
370
   -2
100
AcDbLine
 10
1115
 20
-152
 11
1115
 21
-195
  0
ENDBLK
  5
75
330
73
100
AcDbEntity
  8
0
100
AcDbBlockEnd
  0
BLOCK
  5
77
330
76
100
AcDbEntity
  8
0
100
AcDbBlockBegin
  2
*D30
 70
    1
 10
0
 20
0
  3
*D30
  1

  0
LINE
  5
10F
100
AcDbEntity
  8
rozmir
  6
ByBlock
 62
    0
370
   -2
100
AcDbLine
 10
-5
 20
667
 11
-92
 21
667
  0
SOLID
  5
110
100
AcDbEntity
  8
rozmir
  6
ByBlock
 62
    0
370
   -2
100
AcDbTrace
 10
-5
 20
667
 30
0
 11
-15
 21
665.3348613689086
 31
0
 12
-15
 22
668.6651386310914
 32
0
 13
-15
 23
668.6651386310914
 33
0
  0
SOLID
  5
111
100
AcDbEntity
  8
rozmir
  6
ByBlock
 62
    0
370
   -2
100
AcDbTrace
 10
-92
 20
667
 30
0
 11
-82
 21
668.6651386310914
 31
0
 12
-82
 22
665.3348613689086
 32
0
 13
-82
 23
665.3348613689086
 33
0
  0
MTEXT
  5
112
100
AcDbEntity
  8
rozmir
  6
CONTINUOUS
 62
    0
370
   -2
100
AcDbMText
 10
-48.5
 20
679.5
 30
0
 40
15
 41
18.33333333333334
 71
    5
 72
    1
  1
87
  7
standard
210
0
220
0
230
1
 50
360
 73
    2
 44
1
  0
LINE
  5
113
100
AcDbEntity
  8
rozmir
  6
ByBlock
 62
    0
370
   -2
100
AcDbLine
 10
-5
 20
658
 11
-5
 21
672
  0
LINE
  5
114
100
AcDbEntity
  8
rozmir
  6
ByBlock
 62
    0
370
   -2
100
AcDbLine
 10
-92
 20
658
 11
-92
 21
672
  0
ENDBLK
  5
78
330
76
100
AcDbEntity
  8
0
100
AcDbBlockEnd
  0
BLOCK
  5
7A
330
79
100
AcDbEntity
  8
0
100
AcDbBlockBegin
  2
*D36
 70
    1
 10
0
 20
0
  3
*D36
  1

  0
LINE
  5
115
100
AcDbEntity
  8
rozmir
  6
ByBlock
 62
    0
370
   -2
100
AcDbLine
 10
1063
 20
220
 11
1097
 21
220
  0
SOLID
  5
116
100
AcDbEntity
  8
rozmir
  6
ByBlock
 62
    0
370
   -2
100
AcDbTrace
 10
1063
 20
220
 30
0
 11
1073
 21
221.6651386310914
 31
0
 12
1073
 22
218.3348613689086
 32
0
 13
1073
 23
218.3348613689086
 33
0
  0
SOLID
  5
117
100
AcDbEntity
  8
rozmir
  6
ByBlock
 62
    0
370
   -2
100
AcDbTrace
 10
1097
 20
220
 30
0
 11
1087
 21
218.3348613689086
 31
0
 12
1087
 22
221.6651386310914
 32
0
 13
1087
 23
221.6651386310914
 33
0
  0
MTEXT
  5
118
100
AcDbEntity
  8
rozmir
  6
CONTINUOUS
 62
    0
370
   -2
100
AcDbMText
 10
1080
 20
232.5
 30
0
 40
15
 41
20.00000000000093
 71
    5
 72
    1
  1
34
  7
standard
210
0
220
0
230
1
 50
0
 73
    2
 44
1
  0
LINE
  5
119
100
AcDbEntity
  8
rozmir
  6
ByBlock
 62
    0
370
   -2
100
AcDbLine
 10
1063
 20
232
 11
1063
 21
215
  0
LINE
  5
11A
100
AcDbEntity
  8
rozmir
  6
ByBlock
 62
    0
370
   -2
100
AcDbLine
 10
1097
 20
232
 11
1097
 21
215
  0
ENDBLK
  5
7B
330
79
100
AcDbEntity
  8
0
100
AcDbBlockEnd
  0
BLOCK
  5
7D
330
7C
100
AcDbEntity
  8
0
100
AcDbBlockBegin
  2
*D3
 70
    1
 10
0
 20
0
  3
*D3
  1

  0
LINE
  5
11B
100
AcDbEntity
  8
rozmir
  6
ByBlock
 62
    0
370
   -2
100
AcDbLine
 10
543
 20
1095
 11
665
 21
1095
  0
SOLID
  5
11C
100
AcDbEntity
  8
rozmir
  6
ByBlock
 62
    0
370
   -2
100
AcDbTrace
 10
543
 20
1095
 30
0
 11
553
 21
1096.665138631091
 31
0
 12
553
 22
1093.334861368909
 32
0
 13
553
 23
1093.334861368909
 33
0
  0
SOLID
  5
11D
100
AcDbEntity
  8
rozmir
  6
ByBlock
 62
    0
370
   -2
100
AcDbTrace
 10
665
 20
1095
 30
0
 11
655
 21
1093.334861368909
 31
0
 12
655
 22
1096.665138631091
 32
0
 13
655
 23
1096.665138631091
 33
0
  0
MTEXT
  5
11E
100
AcDbEntity
  8
rozmir
  6
CONTINUOUS
 62
    0
370
   -2
100
AcDbMText
 10
604
 20
1107.5
 30
0
 40
15
 41
26.66666666666667
 71
    5
 72
    1
  1
122
  7
standard
210
0
220
0
230
1
 50
0
 73
    2
 44
1
  0
LINE
  5
11F
100
AcDbEntity
  8
rozmir
  6
ByBlock
 62
    0
370
   -2
100
AcDbLine
 10
543
 20
1090
 11
543
 21
1100
  0
LINE
  5
120
100
AcDbEntity
  8
rozmir
  6
ByBlock
 62
    0
370
   -2
100
AcDbLine
 10
665
 20
1090
 11
665
 21
1100
  0
ENDBLK
  5
7E
330
7C
100
AcDbEntity
  8
0
100
AcDbBlockEnd
  0
BLOCK
  5
80
330
7F
100
AcDbEntity
  8
0
100
AcDbBlockBegin
  2
*D40
 70
    1
 10
0
 20
0
  3
*D40
  1

  0
LINE
  5
121
100
AcDbEntity
  8
rozmir
  6
ByBlock
 62
    0
370
   -2
100
AcDbLine
 10
1140
 20
-97
 11
1140
 21
326
  0
SOLID
  5
122
100
AcDbEntity
  8
rozmir
  6
ByBlock
 62
    0
370
   -2
100
AcDbTrace
 10
1140
 20
-97
 30
0
 11
1138.334861368909
 21
-87
 31
0
 12
1141.665138631091
 22
-87
 32
0
 13
1141.665138631091
 23
-87
 33
0
  0
SOLID
  5
123
100
AcDbEntity
  8
rozmir
  6
ByBlock
 62
    0
370
   -2
100
AcDbTrace
 10
1140
 20
326
 30
0
 11
1141.665138631091
 21
316
 31
0
 12
1138.334861368909
 22
316
 32
0
 13
1138.334861368909
 23
316
 33
0
  0
MTEXT
  5
124
100
AcDbEntity
  8
rozmir
  6
CONTINUOUS
 62
    0
370
   -2
100
AcDbMText
 10
1127.5
 20
114.5
 30
0
 40
15
 41
31.6666666666676
 71
    5
 72
    1
  1
423
  7
standard
210
0
220
0
230
1
 50
90
 73
    2
 44
1
  0
LINE
  5
125
100
AcDbEntity
  8
rozmir
  6
ByBlock
 62
    0
370
   -2
100
AcDbLine
 10
1099
 20
-97
 11
1145
 21
-97
  0
LINE
  5
126
100
AcDbEntity
  8
rozmir
  6
ByBlock
 62
    0
370
   -2
100
AcDbLine
 10
1099
 20
326
 11
1145
 21
326
  0
ENDBLK
  5
81
330
7F
100
AcDbEntity
  8
0
100
AcDbBlockEnd
  0
BLOCK
  5
83
330
82
100
AcDbEntity
  8
0
100
AcDbBlockBegin
  2
*D16
 70
    1
 10
0
 20
0
  3
*D16
  1

  0
LINE
  5
127
100
AcDbEntity
  8
rozmir
  6
ByBlock
 62
    0
370
   -2
100
AcDbLine
 10
558
 20
90
 11
1000
 21
90
  0
SOLID
  5
128
100
AcDbEntity
  8
rozmir
  6
ByBlock
 62
    0
370
   -2
100
AcDbTrace
 10
558
 20
90
 30
0
 11
568
 21
91.66513863109137
 31
0
 12
568
 22
88.33486136890863
 32
0
 13
568
 23
88.33486136890863
 33
0
  0
SOLID
  5
129
100
AcDbEntity
  8
rozmir
  6
ByBlock
 62
    0
370
   -2
100
AcDbTrace
 10
1000
 20
90
 30
0
 11
990
 21
88.33486136890863
 31
0
 12
990
 22
91.66513863109137
 32
0
 13
990
 23
91.66513863109137
 33
0
  0
MTEXT
  5
12A
100
AcDbEntity
  8
rozmir
  6
CONTINUOUS
 62
    0
370
   -2
100
AcDbMText
 10
779
 20
102.5
 30
0
 40
15
 41
33.33333333333334
 71
    5
 72
    1
  1
442
  7
standard
210
0
220
0
230
1
 50
0
 73
    2
 44
1
  0
LINE
  5
12B
100
AcDbEntity
  8
rozmir
  6
ByBlock
 62
    0
370
   -2
100
AcDbLine
 10
558
 20
92
 11
558
 21
95
  0
LINE
  5
12C
100
AcDbEntity
  8
rozmir
  6
ByBlock
 62
    0
370
   -2
100
AcDbLine
 10
1000
 20
92
 11
1000
 21
95
  0
ENDBLK
  5
84
330
82
100
AcDbEntity
  8
0
100
AcDbBlockEnd
  0
BLOCK
  5
86
330
85
100
AcDbEntity
  8
0
100
AcDbBlockBegin
  2
*D17
 70
    1
 10
0
 20
0
  3
*D17
  1

  0
LINE
  5
12D
100
AcDbEntity
  8
rozmir
  6
ByBlock
 62
    0
370
   -2
100
AcDbLine
 10
-190
 20
1455
 11
-190
 21
-150
  0
SOLID
  5
12E
100
AcDbEntity
  8
rozmir
  6
ByBlock
 62
    0
370
   -2
100
AcDbTrace
 10
-190
 20
1455
 30
0
 11
-188.3348613689086
 21
1445
 31
0
 12
-191.6651386310914
 22
1445
 32
0
 13
-191.6651386310914
 23
1445
 33
0
  0
SOLID
  5
12F
100
AcDbEntity
  8
rozmir
  6
ByBlock
 62
    0
370
   -2
100
AcDbTrace
 10
-190
 20
-150
 30
0
 11
-191.6651386310914
 21
-140
 31
0
 12
-188.3348613689086
 22
-140
 32
0
 13
-188.3348613689086
 23
-140
 33
0
  0
MTEXT
  5
130
100
AcDbEntity
  8
rozmir
  6
CONTINUOUS
 62
    0
370
   -2
100
AcDbMText
 10
-202.5
 20
652.5
 30
0
 40
15
 41
38.3333333333352
 71
    5
 72
    1
  1
1605
  7
standard
210
0
220
0
230
1
 50
90
 73
    2
 44
1
  0
LINE
  5
131
100
AcDbEntity
  8
rozmir
  6
ByBlock
 62
    0
370
   -2
100
AcDbLine
 10
-140
 20
1455
 11
-195
 21
1455
  0
LINE
  5
132
100
AcDbEntity
  8
rozmir
  6
ByBlock
 62
    0
370
   -2
100
AcDbLine
 10
-154
 20
-150
 11
-195
 21
-150
  0
ENDBLK
  5
87
330
85
100
AcDbEntity
  8
0
100
AcDbBlockEnd
  0
BLOCK
  5
89
330
88
100
AcDbEntity
  8
0
100
AcDbBlockBegin
  2
*D13
 70
    1
 10
0
 20
0
  3
*D13
  1

  0
LINE
  5
133
100
AcDbEntity
  8
rozmir
  6
ByBlock
 62
    0
370
   -2
100
AcDbLine
 10
980
 20
214
 11
980
 21
278
  0
SOLID
  5
134
100
AcDbEntity
  8
rozmir
  6
ByBlock
 62
    0
370
   -2
100
AcDbTrace
 10
980
 20
234
 30
0
 11
981.6651386310914
 21
224
 31
0
 12
978.3348613689086
 22
224
 32
0
 13
978.3348613689086
 23
224
 33
0
  0
SOLID
  5
135
100
AcDbEntity
  8
rozmir
  6
ByBlock
 62
    0
370
   -2
100
AcDbTrace
 10
980
 20
258
 30
0
 11
978.3348613689086
 21
268
 31
0
 12
981.6651386310914
 22
268
 32
0
 13
981.6651386310914
 23
268
 33
0
  0
MTEXT
  5
136
100
AcDbEntity
  8
rozmir
  6
CONTINUOUS
 62
    0
370
   -2
100
AcDbMText
 10
968
 20
272
 30
0
 40
15
 41
20
 71
    5
 72
    1
  1
24
  7
standard
210
0
220
0
230
1
 50
90
 73
    2
 44
1
  0
LINE
  5
137
100
AcDbEntity
  8
rozmir
  6
ByBlock
 62
    0
370
   -2
100
AcDbLine
 10
998
 20
234
 11
975
 21
234
  0
LINE
  5
138
100
AcDbEntity
  8
rozmir
  6
ByBlock
 62
    0
370
   -2
100
AcDbLine
 10
998
 20
258
 11
975
 21
258
  0
ENDBLK
  5
8A
330
88
100
AcDbEntity
  8
0
100
AcDbBlockEnd
  0
BLOCK
  5
8C
330
8B
100
AcDbEntity
  8
0
100
AcDbBlockBegin
  2
*D21
 70
    1
 10
0
 20
0
  3
*D21
  1

  0
LINE
  5
139
100
AcDbEntity
  8
rozmir
  6
ByBlock
 62
    0
370
   -2
100
AcDbLine
 10
665
 20
1155
 11
487
 21
1155
  0
SOLID
  5
13A
100
AcDbEntity
  8
rozmir
  6
ByBlock
 62
    0
370
   -2
100
AcDbTrace
 10
665
 20
1155
 30
0
 11
655
 21
1153.334861368909
 31
0
 12
655
 22
1156.665138631091
 32
0
 13
655
 23
1156.665138631091
 33
0
  0
SOLID
  5
13B
100
AcDbEntity
  8
rozmir
  6
ByBlock
 62
    0
370
   -2
100
AcDbTrace
 10
487
 20
1155
 30
0
 11
497
 21
1156.665138631091
 31
0
 12
497
 22
1153.334861368909
 32
0
 13
497
 23
1153.334861368909
 33
0
  0
MTEXT
  5
13C
100
AcDbEntity
  8
rozmir
  6
CONTINUOUS
 62
    0
370
   -2
100
AcDbMText
 10
576
 20
1167.5
 30
0
 40
15
 41
26.66666666666667
 71
    5
 72
    1
  1
178
  7
standard
210
0
220
0
230
1
 50
360
 73
    2
 44
1
  0
LINE
  5
13D
100
AcDbEntity
  8
rozmir
  6
ByBlock
 62
    0
370
   -2
100
AcDbLine
 10
665
 20
1146
 11
665
 21
1160
  0
LINE
  5
13E
100
AcDbEntity
  8
rozmir
  6
ByBlock
 62
    0
370
   -2
100
AcDbLine
 10
487
 20
1146
 11
487
 21
1160
  0
ENDBLK
  5
8D
330
8B
100
AcDbEntity
  8
0
100
AcDbBlockEnd
  0
BLOCK
  5
8F
330
8E
100
AcDbEntity
  8
0
100
AcDbBlockBegin
  2
*D27
 70
    1
 10
0
 20
0
  3
*D27
  1

  0
LINE
  5
13F
100
AcDbEntity
  8
rozmir
  6
ByBlock
 62
    0
370
   -2
100
AcDbLine
 10
-70.99999999999999
 20
628
 11
-71
 21
478
  0
SOLID
  5
140
100
AcDbEntity
  8
rozmir
  6
ByBlock
 62
    0
370
   -2
100
AcDbTrace
 10
-70.99999999999999
 20
628
 30
0
 11
-69.33486136890862
 21
618
 31
0
 12
-72.66513863109135
 22
618
 32
0
 13
-72.66513863109135
 23
618
 33
0
  0
SOLID
  5
141
100
AcDbEntity
  8
rozmir
  6
ByBlock
 62
    0
370
   -2
100
AcDbTrace
 10
-71
 20
478
 30
0
 11
-72.66513863109137
 21
488
 31
0
 12
-69.33486136890863
 22
488
 32
0
 13
-69.33486136890863
 23
488
 33
0
  0
MTEXT
  5
142
100
AcDbEntity
  8
rozmir
  6
CONTINUOUS
 62
    0
370
   -2
100
AcDbMText
 10
-83.5
 20
553
 30
0
 40
15
 41
26.6666666666676
 71
    5
 72
    1
  1
150
  7
standard
210
0
220
0
230
1
 50
90
 73
    2
 44
1
  0
LINE
  5
143
100
AcDbEntity
  8
rozmir
  6
ByBlock
 62
    0
370
   -2
100
AcDbLine
 10
-66
 20
628
 11
-75.99999999999999
 21
628
  0
LINE
  5
144
100
AcDbEntity
  8
rozmir
  6
ByBlock
 62
    0
370
   -2
100
AcDbLine
 10
-66
 20
478
 11
-76
 21
478
  0
ENDBLK
  5
90
330
8E
100
AcDbEntity
  8
0
100
AcDbBlockEnd
  0
BLOCK
  5
92
330
91
100
AcDbEntity
  8
0
100
AcDbBlockBegin
  2
*D23
 70
    1
 10
0
 20
0
  3
*D23
  1

  0
LINE
  5
145
100
AcDbEntity
  8
rozmir
  6
ByBlock
 62
    0
370
   -2
100
AcDbLine
 10
42
 20
620
 11
42
 21
565
  0
SOLID
  5
146
100
AcDbEntity
  8
rozmir
  6
ByBlock
 62
    0
370
   -2
100
AcDbTrace
 10
42
 20
600
 30
0
 11
40.33486136890864
 21
610
 31
0
 12
43.66513863109137
 22
610
 32
0
 13
43.66513863109137
 23
610
 33
0
  0
SOLID
  5
147
100
AcDbEntity
  8
rozmir
  6
ByBlock
 62
    0
370
   -2
100
AcDbTrace
 10
42
 20
585
 30
0
 11
43.66513863109136
 21
575
 31
0
 12
40.33486136890864
 22
575
 32
0
 13
40.33486136890864
 23
575
 33
0
  0
MTEXT
  5
148
100
AcDbEntity
  8
rozmir
  6
CONTINUOUS
 62
    0
370
   -2
100
AcDbMText
 10
29.5
 20
612.5000000000005
 30
0
 40
15
 41
15.00000000000093
 71
    5
 72
    1
  1
15
  7
standard
210
0
220
0
230
1
 50
90
 73
    2
 44
1
  0
LINE
  5
149
100
AcDbEntity
  8
rozmir
  6
ByBlock
 62
    0
370
   -2
100
AcDbLine
 10
2
 20
600
 11
47
 21
600
  0
LINE
  5
14A
100
AcDbEntity
  8
rozmir
  6
ByBlock
 62
    0
370
   -2
100
AcDbLine
 10
2.066017177982076
 20
585
 11
47
 21
585
  0
ENDBLK
  5
93
330
91
100
AcDbEntity
  8
0
100
AcDbBlockEnd
  0
BLOCK
  5
95
330
94
100
AcDbEntity
  8
0
100
AcDbBlockBegin
  2
*D31
 70
    1
 10
0
 20
0
  3
*D31
  1

  0
LINE
  5
14B
100
AcDbEntity
  8
rozmir
  6
ByBlock
 62
    0
370
   -2
100
AcDbLine
 10
570
 20
-29
 11
570
 21
-63
  0
SOLID
  5
14C
100
AcDbEntity
  8
rozmir
  6
ByBlock
 62
    0
370
   -2
100
AcDbTrace
 10
570
 20
-29
 30
0
 11
571.6651386310914
 21
-39
 31
0
 12
568.3348613689086
 22
-39
 32
0
 13
568.3348613689086
 23
-39
 33
0
  0
SOLID
  5
14D
100
AcDbEntity
  8
rozmir
  6
ByBlock
 62
    0
370
   -2
100
AcDbTrace
 10
570
 20
-63
 30
0
 11
568.3348613689086
 21
-53
 31
0
 12
571.6651386310914
 22
-53
 32
0
 13
571.6651386310914
 23
-53
 33
0
  0
MTEXT
  5
14E
100
AcDbEntity
  8
rozmir
  6
CONTINUOUS
 62
    0
370
   -2
100
AcDbMText
 10
557.5
 20
-46
 30
0
 40
15
 41
20.00000000000093
 71
    5
 72
    1
  1
34
  7
standard
210
0
220
0
230
1
 50
90
 73
    2
 44
1
  0
LINE
  5
14F
100
AcDbEntity
  8
rozmir
  6
ByBlock
 62
    0
370
   -2
100
AcDbLine
 10
560
 20
-29
 11
575
 21
-29
  0
LINE
  5
150
100
AcDbEntity
  8
rozmir
  6
ByBlock
 62
    0
370
   -2
100
AcDbLine
 10
560
 20
-63
 11
575
 21
-63
  0
ENDBLK
  5
96
330
94
100
AcDbEntity
  8
0
100
AcDbBlockEnd
  0
BLOCK
  5
98
330
97
100
AcDbEntity
  8
0
100
AcDbBlockBegin
  2
*D38
 70
    1
 10
0
 20
0
  3
*D38
  1

  0
LINE
  5
151
100
AcDbEntity
  8
rozmir
  6
ByBlock
 62
    0
370
   -2
100
AcDbLine
 10
1040
 20
258
 11
1040
 21
292
  0
SOLID
  5
152
100
AcDbEntity
  8
rozmir
  6
ByBlock
 62
    0
370
   -2
100
AcDbTrace
 10
1040
 20
258
 30
0
 11
1038.334861368909
 21
268
 31
0
 12
1041.665138631091
 22
268
 32
0
 13
1041.665138631091
 23
268
 33
0
  0
SOLID
  5
153
100
AcDbEntity
  8
rozmir
  6
ByBlock
 62
    0
370
   -2
100
AcDbTrace
 10
1040
 20
292
 30
0
 11
1041.665138631091
 21
282
 31
0
 12
1038.334861368909
 22
282
 32
0
 13
1038.334861368909
 23
282
 33
0
  0
MTEXT
  5
154
100
AcDbEntity
  8
rozmir
  6
CONTINUOUS
 62
    0
370
   -2
100
AcDbMText
 10
1027.5
 20
275
 30
0
 40
15
 41
20.00000000000093
 71
    5
 72
    1
  1
34
  7
standard
210
0
220
0
230
1
 50
90
 73
    2
 44
1
  0
LINE
  5
155
100
AcDbEntity
  8
rozmir
  6
ByBlock
 62
    0
370
   -2
100
AcDbLine
 10
1031
 20
258
 11
1045
 21
258
  0
LINE
  5
156
100
AcDbEntity
  8
rozmir
  6
ByBlock
 62
    0
370
   -2
100
AcDbLine
 10
1031
 20
292
 11
1045
 21
292
  0
ENDBLK
  5
99
330
97
100
AcDbEntity
  8
0
100
AcDbBlockEnd
  0
BLOCK
  5
9B
330
9A
100
AcDbEntity
  8
0
100
AcDbBlockBegin
  2
*D4
 70
    1
 10
0
 20
0
  3
*D4
  1

  0
LINE
  5
157
100
AcDbEntity
  8
rozmir
  6
ByBlock
 62
    0
370
   -2
100
AcDbLine
 10
536
 20
1057
 11
536
 21
1088
  0
SOLID
  5
158
100
AcDbEntity
  8
rozmir
  6
ByBlock
 62
    0
370
   -2
100
AcDbTrace
 10
536
 20
1057
 30
0
 11
534.3348613689086
 21
1067
 31
0
 12
537.6651386310914
 22
1067
 32
0
 13
537.6651386310914
 23
1067
 33
0
  0
SOLID
  5
159
100
AcDbEntity
  8
rozmir
  6
ByBlock
 62
    0
370
   -2
100
AcDbTrace
 10
536
 20
1088
 30
0
 11
537.6651386310914
 21
1078
 31
0
 12
534.3348613689086
 22
1078
 32
0
 13
534.3348613689086
 23
1078
 33
0
  0
MTEXT
  5
15A
100
AcDbEntity
  8
rozmir
  6
CONTINUOUS
 62
    0
370
   -2
100
AcDbMText
 10
523.5
 20
1072.5
 30
0
 40
15
 41
15.00000000000093
 71
    5
 72
    1
  1
31
  7
standard
210
0
220
0
230
1
 50
90
 73
    2
 44
1
  0
LINE
  5
15B
100
AcDbEntity
  8
rozmir
  6
ByBlock
 62
    0
370
   -2
100
AcDbLine
 10
541
 20
1057
 11
531
 21
1057
  0
LINE
  5
15C
100
AcDbEntity
  8
rozmir
  6
ByBlock
 62
    0
370
   -2
100
AcDbLine
 10
541
 20
1088
 11
531
 21
1088
  0
ENDBLK
  5
9C
330
9A
100
AcDbEntity
  8
0
100
AcDbBlockEnd
  0
BLOCK
  5
9E
330
9D
100
AcDbEntity
  8
0
100
AcDbBlockBegin
  2
*D28
 70
    1
 10
0
 20
0
  3
*D28
  1

  0
LINE
  5
15D
100
AcDbEntity
  8
rozmir
  6
ByBlock
 62
    0
370
   -2
100
AcDbLine
 10
-5
 20
635
 11
-64
 21
635
  0
SOLID
  5
15E
100
AcDbEntity
  8
rozmir
  6
ByBlock
 62
    0
370
   -2
100
AcDbTrace
 10
-5
 20
635
 30
0
 11
-15
 21
633.3348613689086
 31
0
 12
-15
 22
636.6651386310914
 32
0
 13
-15
 23
636.6651386310914
 33
0
  0
SOLID
  5
15F
100
AcDbEntity
  8
rozmir
  6
ByBlock
 62
    0
370
   -2
100
AcDbTrace
 10
-64
 20
635
 30
0
 11
-54
 21
636.6651386310914
 31
0
 12
-54
 22
633.3348613689086
 32
0
 13
-54
 23
633.3348613689086
 33
0
  0
MTEXT
  5
160
100
AcDbEntity
  8
rozmir
  6
CONTINUOUS
 62
    0
370
   -2
100
AcDbMText
 10
-34.5
 20
647.5
 30
0
 40
15
 41
18.33333333333427
 71
    5
 72
    1
  1
59
  7
standard
210
0
220
0
230
1
 50
360
 73
    2
 44
1
  0
LINE
  5
161
100
AcDbEntity
  8
rozmir
  6
ByBlock
 62
    0
370
   -2
100
AcDbLine
 10
-5
 20
630
 11
-5
 21
640
  0
LINE
  5
162
100
AcDbEntity
  8
rozmir
  6
ByBlock
 62
    0
370
   -2
100
AcDbLine
 10
-64
 20
630
 11
-64
 21
640
  0
ENDBLK
  5
9F
330
9D
100
AcDbEntity
  8
0
100
AcDbBlockEnd
  0
BLOCK
  5
A1
330
A0
100
AcDbEntity
  8
0
100
AcDbBlockBegin
  2
*D9
 70
    1
 10
0
 20
0
  3
*D9
  1

  0
LINE
  5
163
100
AcDbEntity
  8
rozmir
  6
ByBlock
 62
    0
370
   -2
100
AcDbLine
 10
1000
 20
1100
 11
1101
 21
1100
  0
SOLID
  5
164
100
AcDbEntity
  8
rozmir
  6
ByBlock
 62
    0
370
   -2
100
AcDbTrace
 10
1000
 20
1100
 30
0
 11
1010
 21
1101.665138631091
 31
0
 12
1010
 22
1098.334861368909
 32
0
 13
1010
 23
1098.334861368909
 33
0
  0
SOLID
  5
165
100
AcDbEntity
  8
rozmir
  6
ByBlock
 62
    0
370
   -2
100
AcDbTrace
 10
1101
 20
1100
 30
0
 11
1091
 21
1098.334861368909
 31
0
 12
1091
 22
1101.665138631091
 32
0
 13
1091
 23
1101.665138631091
 33
0
  0
MTEXT
  5
166
100
AcDbEntity
  8
rozmir
  6
CONTINUOUS
 62
    0
370
   -2
100
AcDbMText
 10
1050.5
 20
1112.5
 30
0
 40
15
 41
23.33333333333334
 71
    5
 72
    1
  1
101
  7
standard
210
0
220
0
230
1
 50
0
 73
    2
 44
1
  0
LINE
  5
167
100
AcDbEntity
  8
rozmir
  6
ByBlock
 62
    0
370
   -2
100
AcDbLine
 10
1000
 20
1054
 11
1000
 21
1105
  0
LINE
  5
168
100
AcDbEntity
  8
rozmir
  6
ByBlock
 62
    0
370
   -2
100
AcDbLine
 10
1101
 20
1054
 11
1101
 21
1105
  0
ENDBLK
  5
A2
330
A0
100
AcDbEntity
  8
0
100
AcDbBlockEnd
  0
BLOCK
  5
A4
330
A3
100
AcDbEntity
  8
0
100
AcDbBlockBegin
  2
*D24
 70
    1
 10
0
 20
0
  3
*D24
  1

  0
LINE
  5
169
100
AcDbEntity
  8
rozmir
  6
ByBlock
 62
    0
370
   -2
100
AcDbLine
 10
42
 20
513
 11
42
 21
458
  0
SOLID
  5
16A
100
AcDbEntity
  8
rozmir
  6
ByBlock
 62
    0
370
   -2
100
AcDbTrace
 10
42
 20
493
 30
0
 11
40.33486136890864
 21
503
 31
0
 12
43.66513863109137
 22
503
 32
0
 13
43.66513863109137
 23
503
 33
0
  0
SOLID
  5
16B
100
AcDbEntity
  8
rozmir
  6
ByBlock
 62
    0
370
   -2
100
AcDbTrace
 10
42
 20
478
 30
0
 11
43.66513863109136
 21
468
 31
0
 12
40.33486136890864
 22
468
 32
0
 13
40.33486136890864
 23
468
 33
0
  0
MTEXT
  5
16C
100
AcDbEntity
  8
rozmir
  6
CONTINUOUS
 62
    0
370
   -2
100
AcDbMText
 10
29.5
 20
505.5000000000005
 30
0
 40
15
 41
15.00000000000093
 71
    5
 72
    1
  1
15
  7
standard
210
0
220
0
230
1
 50
90
 73
    2
 44
1
  0
LINE
  5
16D
100
AcDbEntity
  8
rozmir
  6
ByBlock
 62
    0
370
   -2
100
AcDbLine
 10
2
 20
493
 11
47
 21
493
  0
LINE
  5
16E
100
AcDbEntity
  8
rozmir
  6
ByBlock
 62
    0
370
   -2
100
AcDbLine
 10
2
 20
478
 11
47
 21
478
  0
ENDBLK
  5
A5
330
A3
100
AcDbEntity
  8
0
100
AcDbBlockEnd
  0
BLOCK
  5
A7
330
A6
100
AcDbEntity
  8
0
100
AcDbBlockBegin
  2
*D1
 70
    1
 10
0
 20
0
  3
*D1
  1

  0
LINE
  5
16F
100
AcDbEntity
  8
rozmir
  6
ByBlock
 62
    0
370
   -2
100
AcDbLine
 10
523
 20
1010
 11
578
 21
1010
  0
SOLID
  5
170
100
AcDbEntity
  8
rozmir
  6
ByBlock
 62
    0
370
   -2
100
AcDbTrace
 10
543
 20
1010
 30
0
 11
533
 21
1008.334861368909
 31
0
 12
533
 22
1011.665138631091
 32
0
 13
533
 23
1011.665138631091
 33
0
  0
SOLID
  5
171
100
AcDbEntity
  8
rozmir
  6
ByBlock
 62
    0
370
   -2
100
AcDbTrace
 10
558
 20
1010
 30
0
 11
568
 21
1011.665138631091
 31
0
 12
568
 22
1008.334861368909
 32
0
 13
568
 23
1008.334861368909
 33
0
  0
MTEXT
  5
172
100
AcDbEntity
  8
rozmir
  6
CONTINUOUS
 62
    0
370
   -2
100
AcDbMText
 10
570.5000000000005
 20
1022.5
 30
0
 40
15
 41
15.00000000000093
 71
    5
 72
    1
  1
15
  7
standard
210
0
220
0
230
1
 50
0
 73
    2
 44
1
  0
LINE
  5
173
100
AcDbEntity
  8
rozmir
  6
ByBlock
 62
    0
370
   -2
100
AcDbLine
 10
543
 20
1050
 11
543
 21
1005
  0
LINE
  5
174
100
AcDbEntity
  8
rozmir
  6
ByBlock
 62
    0
370
   -2
100
AcDbLine
 10
558
 20
1049.933982822018
 11
558
 21
1005
  0
ENDBLK
  5
A8
330
A6
100
AcDbEntity
  8
0
100
AcDbBlockEnd
  0
BLOCK
  5
AA
330
A9
100
AcDbEntity
  8
0
100
AcDbBlockBegin
  2
*D6
 70
    1
 10
0
 20
0
  3
*D6
  1

  0
LINE
  5
175
100
AcDbEntity
  8
rozmir
  6
ByBlock
 62
    0
370
   -2
100
AcDbLine
 10
-19.99999999999999
 20
0
 11
-20
 21
-150
  0
SOLID
  5
176
100
AcDbEntity
  8
rozmir
  6
ByBlock
 62
    0
370
   -2
100
AcDbTrace
 10
-19.99999999999999
 20
0
 30
0
 11
-18.33486136890863
 21
-10
 31
0
 12
-21.66513863109135
 22
-10
 32
0
 13
-21.66513863109135
 23
-10
 33
0
  0
SOLID
  5
177
100
AcDbEntity
  8
rozmir
  6
ByBlock
 62
    0
370
   -2
100
AcDbTrace
 10
-20
 20
-150
 30
0
 11
-21.66513863109136
 21
-140
 31
0
 12
-18.33486136890864
 22
-140
 32
0
 13
-18.33486136890864
 23
-140
 33
0
  0
MTEXT
  5
178
100
AcDbEntity
  8
rozmir
  6
CONTINUOUS
 62
    0
370
   -2
100
AcDbMText
 10
-32.49999999999999
 20
-75
 30
0
 40
15
 41
26.6666666666676
 71
    5
 72
    1
  1
150
  7
standard
210
0
220
0
230
1
 50
90
 73
    2
 44
1
  0
LINE
  5
179
100
AcDbEntity
  8
rozmir
  6
ByBlock
 62
    0
370
   -2
100
AcDbLine
 10
-2
 20
1.133107779529596e-15
 11
-24.99999999999999
 21
6.123233995736766e-16
  0
LINE
  5
17A
100
AcDbEntity
  8
rozmir
  6
ByBlock
 62
    0
370
   -2
100
AcDbLine
 10
-2
 20
-150
 11
-25
 21
-150
  0
ENDBLK
  5
AB
330
A9
100
AcDbEntity
  8
0
100
AcDbBlockEnd
  0
BLOCK
  5
AD
330
AC
100
AcDbEntity
  8
0
100
AcDbBlockBegin
  2
*D32
 70
    1
 10
0
 20
0
  3
*D32
  1

  0
LINE
  5
17B
100
AcDbEntity
  8
rozmir
  6
ByBlock
 62
    0
370
   -2
100
AcDbLine
 10
570
 20
-63
 11
570
 21
-97
  0
SOLID
  5
17C
100
AcDbEntity
  8
rozmir
  6
ByBlock
 62
    0
370
   -2
100
AcDbTrace
 10
570
 20
-63
 30
0
 11
571.6651386310914
 21
-73
 31
0
 12
568.3348613689086
 22
-73
 32
0
 13
568.3348613689086
 23
-73
 33
0
  0
SOLID
  5
17D
100
AcDbEntity
  8
rozmir
  6
ByBlock
 62
    0
370
   -2
100
AcDbTrace
 10
570
 20
-97
 30
0
 11
568.3348613689086
 21
-87
 31
0
 12
571.6651386310914
 22
-87
 32
0
 13
571.6651386310914
 23
-87
 33
0
  0
MTEXT
  5
17E
100
AcDbEntity
  8
rozmir
  6
CONTINUOUS
 62
    0
370
   -2
100
AcDbMText
 10
557.5
 20
-80
 30
0
 40
15
 41
20.00000000000093
 71
    5
 72
    1
  1
34
  7
standard
210
0
220
0
230
1
 50
90
 73
    2
 44
1
  0
LINE
  5
17F
100
AcDbEntity
  8
rozmir
  6
ByBlock
 62
    0
370
   -2
100
AcDbLine
 10
560
 20
-63
 11
575
 21
-63
  0
LINE
  5
180
100
AcDbEntity
  8
rozmir
  6
ByBlock
 62
    0
370
   -2
100
AcDbLine
 10
560
 20
-97
 11
575
 21
-97
  0
ENDBLK
  5
AE
330
AC
100
AcDbEntity
  8
0
100
AcDbBlockEnd
  0
BLOCK
  5
B0
330
AF
100
AcDbEntity
  8
0
100
AcDbBlockBegin
  2
*D11
 70
    1
 10
0
 20
0
  3
*D11
  1

  0
LINE
  5
181
100
AcDbEntity
  8
rozmir
  6
ByBlock
 62
    0
370
   -2
100
AcDbLine
 10
514
 20
30
 11
578
 21
30
  0
SOLID
  5
182
100
AcDbEntity
  8
rozmir
  6
ByBlock
 62
    0
370
   -2
100
AcDbTrace
 10
534
 20
30
 30
0
 11
524
 21
28.33486136890864
 31
0
 12
524
 22
31.66513863109136
 32
0
 13
524
 23
31.66513863109136
 33
0
  0
SOLID
  5
183
100
AcDbEntity
  8
rozmir
  6
ByBlock
 62
    0
370
   -2
100
AcDbTrace
 10
558
 20
30
 30
0
 11
568
 21
31.66513863109136
 31
0
 12
568
 22
28.33486136890864
 32
0
 13
568
 23
28.33486136890864
 33
0
  0
MTEXT
  5
184
100
AcDbEntity
  8
rozmir
  6
CONTINUOUS
 62
    0
370
   -2
100
AcDbMText
 10
520
 20
40
 30
0
 40
15
 41
20
 71
    5
 72
    1
  1
24
  7
standard
210
0
220
0
230
1
 50
0
 73
    2
 44
1
  0
LINE
  5
185
100
AcDbEntity
  8
rozmir
  6
ByBlock
 62
    0
370
   -2
100
AcDbLine
 10
534
 20
2
 11
534
 21
35
  0
LINE
  5
186
100
AcDbEntity
  8
rozmir
  6
ByBlock
 62
    0
370
   -2
100
AcDbLine
 10
558
 20
2
 11
558
 21
35
  0
ENDBLK
  5
B1
330
AF
100
AcDbEntity
  8
0
100
AcDbBlockEnd
  0
BLOCK
  5
B3
330
B2
100
AcDbEntity
  8
0
100
AcDbBlockBegin
  2
*D7
 70
    1
 10
0
 20
0
  3
*D7
  1

  0
LINE
  5
187
100
AcDbEntity
  8
rozmir
  6
ByBlock
 62
    0
370
   -2
100
AcDbLine
 10
-20.00000000000003
 20
1052
 11
-20
 21
1455
  0
SOLID
  5
188
100
AcDbEntity
  8
rozmir
  6
ByBlock
 62
    0
370
   -2
100
AcDbTrace
 10
-20.00000000000003
 20
1052
 30
0
 11
-21.66513863109139
 21
1062
 31
0
 12
-18.33486136890867
 22
1062
 32
0
 13
-18.33486136890867
 23
1062
 33
0
  0
SOLID
  5
189
100
AcDbEntity
  8
rozmir
  6
ByBlock
 62
    0
370
   -2
100
AcDbTrace
 10
-20
 20
1455
 30
0
 11
-18.33486136890864
 21
1445
 31
0
 12
-21.66513863109136
 22
1445
 32
0
 13
-21.66513863109136
 23
1445
 33
0
  0
MTEXT
  5
18A
100
AcDbEntity
  8
rozmir
  6
CONTINUOUS
 62
    0
370
   -2
100
AcDbMText
 10
-32.50000000000001
 20
1253.5
 30
0
 40
15
 41
31.6666666666676
 71
    5
 72
    1
  1
403
  7
standard
210
0
220
0
230
1
 50
90
 73
    2
 44
1
  0
LINE
  5
18B
100
AcDbEntity
  8
rozmir
  6
ByBlock
 62
    0
370
   -2
100
AcDbLine
 10
-2
 20
1052
 11
-25.00000000000003
 21
1052
  0
LINE
  5
18C
100
AcDbEntity
  8
rozmir
  6
ByBlock
 62
    0
370
   -2
100
AcDbLine
 10
-2
 20
1455
 11
-25
 21
1455
  0
ENDBLK
  5
B4
330
B2
100
AcDbEntity
  8
0
100
AcDbBlockEnd
  0
BLOCK
  5
B6
330
B5
100
AcDbEntity
  8
0
100
AcDbBlockBegin
  2
*D15
 70
    1
 10
0
 20
0
  3
*D15
  1

  0
LINE
  5
18D
100
AcDbEntity
  8
rozmir
  6
ByBlock
 62
    0
370
   -2
100
AcDbLine
 10
610
 20
234
 11
610
 21
0
  0
SOLID
  5
18E
100
AcDbEntity
  8
rozmir
  6
ByBlock
 62
    0
370
   -2
100
AcDbTrace
 10
610
 20
234
 30
0
 11
611.6651386310914
 21
224
 31
0
 12
608.3348613689086
 22
224
 32
0
 13
608.3348613689086
 23
224
 33
0
  0
SOLID
  5
18F
100
AcDbEntity
  8
rozmir
  6
ByBlock
 62
    0
370
   -2
100
AcDbTrace
 10
610
 20
0
 30
0
 11
608.3348613689086
 21
10
 31
0
 12
611.6651386310914
 22
10
 32
0
 13
611.6651386310914
 23
10
 33
0
  0
MTEXT
  5
190
100
AcDbEntity
  8
rozmir
  6
CONTINUOUS
 62
    0
370
   -2
100
AcDbMText
 10
597.5
 20
117
 30
0
 40
15
 41
31.6666666666676
 71
    5
 72
    1
  1
234
  7
standard
210
0
220
0
230
1
 50
90
 73
    2
 44
1
  0
LINE
  5
191
100
AcDbEntity
  8
rozmir
  6
ByBlock
 62
    0
370
   -2
100
AcDbLine
 10
602
 20
234
 11
615
 21
234
  0
LINE
  5
192
100
AcDbEntity
  8
rozmir
  6
ByBlock
 62
    0
370
   -2
100
AcDbLine
 10
602
 20
0
 11
615
 21
0
  0
ENDBLK
  5
B7
330
B5
100
AcDbEntity
  8
0
100
AcDbBlockEnd
  0
BLOCK
  5
B9
330
B8
100
AcDbEntity
  8
0
100
AcDbBlockBegin
  2
*D22
 70
    1
 10
0
 20
0
  3
*D22
  1

  0
LINE
  5
193
100
AcDbEntity
  8
rozmir
  6
ByBlock
 62
    0
370
   -2
100
AcDbLine
 10
476
 20
1057
 11
476
 21
1144
  0
SOLID
  5
194
100
AcDbEntity
  8
rozmir
  6
ByBlock
 62
    0
370
   -2
100
AcDbTrace
 10
476
 20
1057
 30
0
 11
474.3348613689087
 21
1067
 31
0
 12
477.6651386310913
 22
1067
 32
0
 13
477.6651386310913
 23
1067
 33
0
  0
SOLID
  5
195
100
AcDbEntity
  8
rozmir
  6
ByBlock
 62
    0
370
   -2
100
AcDbTrace
 10
476
 20
1144
 30
0
 11
477.6651386310913
 21
1134
 31
0
 12
474.3348613689087
 22
1134
 32
0
 13
474.3348613689087
 23
1134
 33
0
  0
MTEXT
  5
196
100
AcDbEntity
  8
rozmir
  6
CONTINUOUS
 62
    0
370
   -2
100
AcDbMText
 10
463.5
 20
1100.5
 30
0
 40
15
 41
18.33333333333334
 71
    5
 72
    1
  1
87
  7
standard
210
0
220
0
230
1
 50
90
 73
    2
 44
1
  0
LINE
  5
197
100
AcDbEntity
  8
rozmir
  6
ByBlock
 62
    0
370
   -2
100
AcDbLine
 10
485
 20
1057
 11
471
 21
1057
  0
LINE
  5
198
100
AcDbEntity
  8
rozmir
  6
ByBlock
 62
    0
370
   -2
100
AcDbLine
 10
485
 20
1144
 11
471
 21
1144
  0
ENDBLK
  5
BA
330
B8
100
AcDbEntity
  8
0
100
AcDbBlockEnd
  0
BLOCK
  5
BC
330
BB
100
AcDbEntity
  8
0
100
AcDbBlockBegin
  2
*D34
 70
    1
 10
0
 20
0
  3
*D34
  1

  0
LINE
  5
199
100
AcDbEntity
  8
rozmir
  6
ByBlock
 62
    0
370
   -2
100
AcDbLine
 10
500
 20
-73
 11
466
 21
-73
  0
SOLID
  5
19A
100
AcDbEntity
  8
rozmir
  6
ByBlock
 62
    0
370
   -2
100
AcDbTrace
 10
500
 20
-73
 30
0
 11
490
 21
-74.66513863109137
 31
0
 12
490
 22
-71.33486136890863
 32
0
 13
490
 23
-71.33486136890863
 33
0
  0
SOLID
  5
19B
100
AcDbEntity
  8
rozmir
  6
ByBlock
 62
    0
370
   -2
100
AcDbTrace
 10
466
 20
-73
 30
0
 11
476
 21
-71.33486136890863
 31
0
 12
476
 22
-74.66513863109137
 32
0
 13
476
 23
-74.66513863109137
 33
0
  0
MTEXT
  5
19C
100
AcDbEntity
  8
rozmir
  6
CONTINUOUS
 62
    0
370
   -2
100
AcDbMText
 10
483
 20
-60.5
 30
0
 40
15
 41
20.00000000000093
 71
    5
 72
    1
  1
34
  7
standard
210
0
220
0
230
1
 50
360
 73
    2
 44
1
  0
LINE
  5
19D
100
AcDbEntity
  8
rozmir
  6
ByBlock
 62
    0
370
   -2
100
AcDbLine
 10
500
 20
-65
 11
500
 21
-78
  0
LINE
  5
19E
100
AcDbEntity
  8
rozmir
  6
ByBlock
 62
    0
370
   -2
100
AcDbLine
 10
466
 20
-65
 11
466
 21
-78
  0
ENDBLK
  5
BD
330
BB
100
AcDbEntity
  8
0
100
AcDbBlockEnd
  0
BLOCK
  5
BF
330
BE
100
AcDbEntity
  8
0
100
AcDbBlockBegin
  2
*D26
 70
    1
 10
0
 20
0
  3
*D26
  1

  0
LINE
  5
19F
100
AcDbEntity
  8
rozmir
  6
ByBlock
 62
    0
370
   -2
100
AcDbLine
 10
-5
 20
607
 11
-36
 21
607
  0
SOLID
  5
1A0
100
AcDbEntity
  8
rozmir
  6
ByBlock
 62
    0
370
   -2
100
AcDbTrace
 10
-5
 20
607
 30
0
 11
-15
 21
605.3348613689086
 31
0
 12
-15
 22
608.6651386310914
 32
0
 13
-15
 23
608.6651386310914
 33
0
  0
SOLID
  5
1A1
100
AcDbEntity
  8
rozmir
  6
ByBlock
 62
    0
370
   -2
100
AcDbTrace
 10
-36
 20
607
 30
0
 11
-26
 21
608.6651386310914
 31
0
 12
-26
 22
605.3348613689086
 32
0
 13
-26
 23
605.3348613689086
 33
0
  0
MTEXT
  5
1A2
100
AcDbEntity
  8
rozmir
  6
CONTINUOUS
 62
    0
370
   -2
100
AcDbMText
 10
-20.5
 20
619.5
 30
0
 40
15
 41
15.00000000000093
 71
    5
 72
    1
  1
31
  7
standard
210
0
220
0
230
1
 50
360
 73
    2
 44
1
  0
LINE
  5
1A3
100
AcDbEntity
  8
rozmir
  6
ByBlock
 62
    0
370
   -2
100
AcDbLine
 10
-5
 20
602
 11
-5
 21
612
  0
LINE
  5
1A4
100
AcDbEntity
  8
rozmir
  6
ByBlock
 62
    0
370
   -2
100
AcDbLine
 10
-36
 20
602
 11
-36
 21
612
  0
ENDBLK
  5
C0
330
BE
100
AcDbEntity
  8
0
100
AcDbBlockEnd
  0
BLOCK
  5
C2
330
C1
100
AcDbEntity
  8
0
100
AcDbBlockBegin
  2
*D12
 70
    1
 10
0
 20
0
  3
*D12
  1

  0
LINE
  5
1A5
100
AcDbEntity
  8
rozmir
  6
ByBlock
 62
    0
370
   -2
100
AcDbLine
 10
570
 20
0
 11
570
 21
-29
  0
SOLID
  5
1A6
100
AcDbEntity
  8
rozmir
  6
ByBlock
 62
    0
370
   -2
100
AcDbTrace
 10
570
 20
0
 30
0
 11
571.6651386310914
 21
-10
 31
0
 12
568.3348613689086
 22
-10
 32
0
 13
568.3348613689086
 23
-10
 33
0
  0
SOLID
  5
1A7
100
AcDbEntity
  8
rozmir
  6
ByBlock
 62
    0
370
   -2
100
AcDbTrace
 10
570
 20
-29
 30
0
 11
568.3348613689086
 21
-19
 31
0
 12
571.6651386310914
 22
-19
 32
0
 13
571.6651386310914
 23
-19
 33
0
  0
MTEXT
  5
1A8
100
AcDbEntity
  8
rozmir
  6
CONTINUOUS
 62
    0
370
   -2
100
AcDbMText
 10
557.5
 20
-14.5
 30
0
 40
15
 41
18.33333333333334
 71
    5
 72
    1
  1
29
  7
standard
210
0
220
0
230
1
 50
90
 73
    2
 44
1
  0
LINE
  5
1A9
100
AcDbEntity
  8
rozmir
  6
ByBlock
 62
    0
370
   -2
100
AcDbLine
 10
560
 20
0
 11
575
 21
0
  0
LINE
  5
1AA
100
AcDbEntity
  8
rozmir
  6
ByBlock
 62
    0
370
   -2
100
AcDbLine
 10
560
 20
-29
 11
575
 21
-29
  0
ENDBLK
  5
C3
330
C1
100
AcDbEntity
  8
0
100
AcDbBlockEnd
  0
BLOCK
  5
C5
330
C4
100
AcDbEntity
  8
0
100
AcDbBlockBegin
  2
*D33
 70
    1
 10
0
 20
0
  3
*D33
  1

  0
LINE
  5
1AB
100
AcDbEntity
  8
rozmir
  6
ByBlock
 62
    0
370
   -2
100
AcDbLine
 10
500
 20
-40
 11
534
 21
-40
  0
SOLID
  5
1AC
100
AcDbEntity
  8
rozmir
  6
ByBlock
 62
    0
370
   -2
100
AcDbTrace
 10
500
 20
-40
 30
0
 11
510
 21
-38.33486136890864
 31
0
 12
510
 22
-41.66513863109137
 32
0
 13
510
 23
-41.66513863109137
 33
0
  0
SOLID
  5
1AD
100
AcDbEntity
  8
rozmir
  6
ByBlock
 62
    0
370
   -2
100
AcDbTrace
 10
534
 20
-40
 30
0
 11
524
 21
-41.66513863109136
 31
0
 12
524
 22
-38.33486136890864
 32
0
 13
524
 23
-38.33486136890864
 33
0
  0
MTEXT
  5
1AE
100
AcDbEntity
  8
rozmir
  6
CONTINUOUS
 62
    0
370
   -2
100
AcDbMText
 10
517
 20
-27.5
 30
0
 40
15
 41
20.00000000000093
 71
    5
 72
    1
  1
34
  7
standard
210
0
220
0
230
1
 50
0
 73
    2
 44
1
  0
LINE
  5
1AF
100
AcDbEntity
  8
rozmir
  6
ByBlock
 62
    0
370
   -2
100
AcDbLine
 10
500
 20
-31
 11
500
 21
-45
  0
LINE
  5
1B0
100
AcDbEntity
  8
rozmir
  6
ByBlock
 62
    0
370
   -2
100
AcDbLine
 10
534
 20
-31
 11
534
 21
-45
  0
ENDBLK
  5
C6
330
C4
100
AcDbEntity
  8
0
100
AcDbBlockEnd
  0
BLOCK
  5
C8
330
C7
100
AcDbEntity
  8
0
100
AcDbBlockBegin
  2
*D19
 70
    1
 10
0
 20
0
  3
*D19
  1

  0
LINE
  5
1B1
100
AcDbEntity
  8
rozmir
  6
ByBlock
 62
    0
370
   -2
100
AcDbLine
 10
515
 20
1123
 11
665
 21
1123
  0
SOLID
  5
1B2
100
AcDbEntity
  8
rozmir
  6
ByBlock
 62
    0
370
   -2
100
AcDbTrace
 10
515
 20
1123
 30
0
 11
525
 21
1124.665138631091
 31
0
 12
525
 22
1121.334861368909
 32
0
 13
525
 23
1121.334861368909
 33
0
  0
SOLID
  5
1B3
100
AcDbEntity
  8
rozmir
  6
ByBlock
 62
    0
370
   -2
100
AcDbTrace
 10
665
 20
1123
 30
0
 11
655
 21
1121.334861368909
 31
0
 12
655
 22
1124.665138631091
 32
0
 13
655
 23
1124.665138631091
 33
0
  0
MTEXT
  5
1B4
100
AcDbEntity
  8
rozmir
  6
CONTINUOUS
 62
    0
370
   -2
100
AcDbMText
 10
590
 20
1135.5
 30
0
 40
15
 41
26.6666666666676
 71
    5
 72
    1
  1
150
  7
standard
210
0
220
0
230
1
 50
0
 73
    2
 44
1
  0
LINE
  5
1B5
100
AcDbEntity
  8
rozmir
  6
ByBlock
 62
    0
370
   -2
100
AcDbLine
 10
515
 20
1118
 11
515
 21
1128
  0
LINE
  5
1B6
100
AcDbEntity
  8
rozmir
  6
ByBlock
 62
    0
370
   -2
100
AcDbLine
 10
665
 20
1118
 11
665
 21
1128
  0
ENDBLK
  5
C9
330
C7
100
AcDbEntity
  8
0
100
AcDbBlockEnd
  0
BLOCK
  5
CB
330
CA
100
AcDbEntity
  8
0
100
AcDbBlockBegin
  2
*D10
 70
    1
 10
0
 20
0
  3
*D10
  1

  0
LINE
  5
1B7
100
AcDbEntity
  8
rozmir
  6
ByBlock
 62
    0
370
   -2
100
AcDbLine
 10
0
 20
39
 11
-138
 21
39
  0
SOLID
  5
1B8
100
AcDbEntity
  8
rozmir
  6
ByBlock
 62
    0
370
   -2
100
AcDbTrace
 10
0
 20
39
 30
0
 11
-10
 21
37.33486136890864
 31
0
 12
-10
 22
40.66513863109136
 32
0
 13
-10
 23
40.66513863109136
 33
0
  0
SOLID
  5
1B9
100
AcDbEntity
  8
rozmir
  6
ByBlock
 62
    0
370
   -2
100
AcDbTrace
 10
-138
 20
39
 30
0
 11
-128
 21
40.66513863109136
 31
0
 12
-128
 22
37.33486136890863
 32
0
 13
-128
 23
37.33486136890863
 33
0
  0
MTEXT
  5
1BA
100
AcDbEntity
  8
rozmir
  6
CONTINUOUS
 62
    0
370
   -2
100
AcDbMText
 10
-69
 20
51.5
 30
0
 40
15
 41
26.6666666666676
 71
    5
 72
    1
  1
138
  7
standard
210
0
220
0
230
1
 50
360
 73
    2
 44
1
  0
LINE
  5
1BB
100
AcDbEntity
  8
rozmir
  6
ByBlock
 62
    0
370
   -2
100
AcDbLine
 10
1.224646799147353e-16
 20
34
 11
3.061616997868383e-16
 21
44
  0
LINE
  5
1BC
100
AcDbEntity
  8
rozmir
  6
ByBlock
 62
    0
370
   -2
100
AcDbLine
 10
-138
 20
34
 11
-138
 21
44
  0
ENDBLK
  5
CC
330
CA
100
AcDbEntity
  8
0
100
AcDbBlockEnd
  0
BLOCK
  5
CE
330
CD
100
AcDbEntity
  8
0
100
AcDbBlockBegin
  2
*D2
 70
    1
 10
0
 20
0
  3
*D2
  1

  0
LINE
  5
1BD
100
AcDbEntity
  8
rozmir
  6
ByBlock
 62
    0
370
   -2
100
AcDbLine
 10
630
 20
1010
 11
685
 21
1010
  0
SOLID
  5
1BE
100
AcDbEntity
  8
rozmir
  6
ByBlock
 62
    0
370
   -2
100
AcDbTrace
 10
650
 20
1010
 30
0
 11
640
 21
1008.334861368909
 31
0
 12
640
 22
1011.665138631091
 32
0
 13
640
 23
1011.665138631091
 33
0
  0
SOLID
  5
1BF
100
AcDbEntity
  8
rozmir
  6
ByBlock
 62
    0
370
   -2
100
AcDbTrace
 10
665
 20
1010
 30
0
 11
675
 21
1011.665138631091
 31
0
 12
675
 22
1008.334861368909
 32
0
 13
675
 23
1008.334861368909
 33
0
  0
MTEXT
  5
1C0
100
AcDbEntity
  8
rozmir
  6
CONTINUOUS
 62
    0
370
   -2
100
AcDbMText
 10
677.5000000000005
 20
1022.5
 30
0
 40
15
 41
15.00000000000093
 71
    5
 72
    1
  1
15
  7
standard
210
0
220
0
230
1
 50
0
 73
    2
 44
1
  0
LINE
  5
1C1
100
AcDbEntity
  8
rozmir
  6
ByBlock
 62
    0
370
   -2
100
AcDbLine
 10
650
 20
1050
 11
650
 21
1005
  0
LINE
  5
1C2
100
AcDbEntity
  8
rozmir
  6
ByBlock
 62
    0
370
   -2
100
AcDbLine
 10
665
 20
1050
 11
665
 21
1005
  0
ENDBLK
  5
CF
330
CD
100
AcDbEntity
  8
0
100
AcDbBlockEnd
  0
BLOCK
  5
D1
330
D0
100
AcDbEntity
  8
0
100
AcDbBlockBegin
  2
block10
 70
    0
 10
0
 20
0
  3
block10
  1

  0
LWPOLYLINE
  5
1C3
100
AcDbEntity
  8
0
  6
CONTINUOUS
 62
    7
370
   70
100
AcDbPolyline
 90
   12
 70
    1
 43
0
 10
-0.6062178
 20
1
 10
0
 20
0
 10
0.6062178
 20
1
 10
1.8186533
 20
1
 10
1.2124356
 20
2
 10
1.8186533
 20
3
 10
0.6062178
 20
3
 10
0
 20
4
 10
-0.6062178
 20
3
 10
-1.8186533
 20
3
 10
-1.2124356
 20
2
 10
-1.8186533
 20
1
  0
ENDBLK
  5
D2
330
D0
100
AcDbEntity
  8
0
100
AcDbBlockEnd
  0
ENDSEC
  0
SECTION
  2
ENTITIES
  0
HATCH
  5
1C4
100
AcDbEntity
  8
sterodur
  6
ByLayer
 62
  256
370
   -1
100
AcDbHatch
 10
0
 20
0
 30
0
210
0
220
0
230
1
  2
gost_non-metal
 70
    0
 71
    0
 91
    1
 92
    0
 93
    6
 72
    1
 10
665
 20
1052
 11
665
 21
1057
 72
    1
 10
665
 20
1057
 11
1005
 21
1057
 72
    1
 10
1005
 20
1057
 11
1005
 21
258
 72
    1
 10
1005
 20
258
 11
1000
 21
258
 72
    1
 10
1000
 20
258
 11
1000
 21
1052
 72
    1
 10
1000
 20
1052
 11
665
 21
1052
 97
    0
 75
    0
 76
    1
 52
0
 41
2
 77
    0
 78
    0
 98
    0
  0
HATCH
  5
1C5
100
AcDbEntity
  8
sterodur
  6
ByLayer
 62
  256
370
   -1
100
AcDbHatch
 10
0
 20
0
 30
0
210
0
220
0
230
1
  2
gost_non-metal
 70
    0
 71
    0
 91
    1
 92
    0
 93
    6
 72
    1
 10
0
 20
600
 11
-5
 21
600
 72
    1
 10
-5
 20
600
 11
-5
 21
1057
 72
    1
 10
-5
 20
1057
 11
543
 21
1057
 72
    1
 10
543
 20
1057
 11
543
 21
1052
 72
    1
 10
543
 20
1052
 11
0
 21
1052
 72
    1
 10
0
 20
1052
 11
0
 21
600
 97
    0
 75
    0
 76
    1
 52
0
 41
2
 77
    0
 78
    0
 98
    0
  0
HATCH
  5
1C6
100
AcDbEntity
  8
sterodur
  6
ByLayer
 62
  256
370
   -1
100
AcDbHatch
 10
0
 20
0
 30
0
210
0
220
0
230
1
  2
gost_non-metal
 70
    0
 71
    0
 91
    1
 92
    0
 93
    4
 72
    1
 10
0
 20
184
 11
-5
 21
184
 72
    1
 10
-5
 20
184
 11
-5
 21
478
 72
    1
 10
-5
 20
478
 11
0
 21
478
 72
    1
 10
0
 20
478
 11
0
 21
184
 97
    0
 75
    0
 76
    1
 52
0
 41
2
 77
    0
 78
    0
 98
    0
  0
HATCH
  5
1C7
100
AcDbEntity
  8
sterodur
  6
ByLayer
 62
  256
370
   -1
100
AcDbHatch
 10
0
 20
0
 30
0
210
0
220
0
230
1
  2
gost_non-metal
 70
    0
 71
    0
 91
    1
 92
    0
 93
    6
 72
    1
 10
0
 20
62
 11
-5
 21
62
 72
    1
 10
-5
 20
62
 11
-5
 21
-5
 72
    1
 10
-5
 20
-5
 11
534
 21
-4.999999999999999
 72
    1
 10
534
 20
-4.999999999999999
 11
534
 21
0
 72
    1
 10
534
 20
0
 11
0
 21
0
 72
    1
 10
0
 20
0
 11
0
 21
62
 97
    0
 75
    0
 76
    1
 52
0
 41
2
 77
    0
 78
    0
 98
    0
  0
HATCH
  5
1C8
100
AcDbEntity
  8
lyce
  6
ByLayer
 62
  256
370
   -1
100
AcDbHatch
 10
0
 20
0
 30
0
210
0
220
0
230
1
  2
gost_ceramics
 70
    0
 71
    0
 91
    1
 92
    0
 93
   10
 72
    1
 10
650
 20
1040
 11
650
 21
1052
 72
    1
 10
650
 20
1052
 11
1000
 21
1052
 72
    1
 10
1000
 20
1052
 11
1000
 21
234
 72
    1
 10
1000
 20
234
 11
558
 21
234
 72
    1
 10
558
 20
234
 11
558
 21
195
 72
    1
 10
558
 20
195
 11
546
 21
195
 72
    1
 10
546
 20
195
 11
546
 21
246
 72
    1
 10
546
 20
246
 11
988
 21
246
 72
    1
 10
988
 20
246
 11
988
 21
1040
 72
    1
 10
988
 20
1040
 11
650
 21
1040
 97
    0
 75
    0
 76
    1
 52
0
 41
3
 77
    0
 78
    0
 98
    0
  0
HATCH
  5
1C9
100
AcDbEntity
  8
lyce
  6
ByLayer
 62
  256
370
   -1
100
AcDbHatch
 10
0
 20
0
 30
0
210
0
220
0
230
1
  2
gost_ceramics
 70
    0
 71
    0
 91
    1
 92
    0
 93
    8
 72
    1
 10
12
 20
77
 11
0
 21
77
 72
    1
 10
0
 20
77
 11
0
 21
0
 72
    1
 10
0
 20
0
 11
558
 21
0
 72
    1
 10
558
 20
0
 11
558
 21
90
 72
    1
 10
558
 20
90
 11
546
 21
90
 72
    1
 10
546
 20
90
 11
546
 21
12
 72
    1
 10
546
 20
12
 11
12
 21
12
 72
    1
 10
12
 20
12
 11
12
 21
77
 97
    0
 75
    0
 76
    1
 52
0
 41
3
 77
    0
 78
    0
 98
    0
  0
HATCH
  5
1CA
100
AcDbEntity
  8
lyce
  6
ByLayer
 62
  256
370
   -1
100
AcDbHatch
 10
0
 20
0
 30
0
210
0
220
0
230
1
  2
gost_ceramics
 70
    0
 71
    0
 91
    1
 92
    0
 93
    4
 72
    1
 10
12
 20
493
 11
12
 21
169
 72
    1
 10
12
 20
169
 11
0
 21
169
 72
    1
 10
0
 20
169
 11
0
 21
493
 72
    1
 10
0
 20
493
 11
12
 21
493
 97
    0
 75
    0
 76
    1
 52
0
 41
3
 77
    0
 78
    0
 98
    0
  0
HATCH
  5
1CB
100
AcDbEntity
  8
lyce
  6
ByLayer
 62
  256
370
   -1
100
AcDbHatch
 10
0
 20
0
 30
0
210
0
220
0
230
1
  2
gost_ceramics
 70
    0
 71
    0
 91
    1
 92
    0
 93
    6
 72
    1
 10
12
 20
585
 11
0
 21
585
 72
    1
 10
0
 20
585
 11
0
 21
1052
 72
    1
 10
0
 20
1052
 11
558
 21
1052
 72
    1
 10
558
 20
1052
 11
558
 21
1040
 72
    1
 10
558
 20
1040
 11
12
 21
1040
 72
    1
 10
12
 20
1040
 11
12
 21
585
 97
    0
 75
    0
 76
    1
 52
0
 41
3
 77
    0
 78
    0
 98
    0
  0
HATCH
  5
1CC
100
AcDbEntity
  8
lyce
  6
ByLayer
 62
  256
370
   -1
100
AcDbHatch
 10
0
 20
0
 30
0
210
0
220
0
230
1
  2
gost_ceramics
 70
    0
 71
    0
 91
    1
 92
    0
 93
    8
 72
    1
 10
754
 20
52
 11
727
 21
52
 72
    1
 10
727
 20
52
 11
727
 21
12
 72
    1
 10
727
 20
12
 11
754
 21
12
 72
    1
 10
754
 20
12
 11
754
 21
52
 72
    1
 10
715
 20
8.881784197001252e-16
 11
766
 21
8.881784197001252e-16
 72
    1
 10
766
 20
8.881784197001252e-16
 11
766
 21
64
 72
    1
 10
766
 20
64
 11
715
 21
64
 72
    1
 10
715
 20
64
 11
715
 21
8.881784197001252e-16
 97
    0
 75
    0
 76
    1
 52
0
 41
3
 77
    0
 78
    0
 98
    0
  0
HATCH
  5
1CD
100
AcDbEntity
  8
lyce
  6
ByLayer
 62
  256
370
   -1
100
AcDbHatch
 10
0
 20
0
 30
0
210
0
220
0
230
1
  2
gost_ceramics
 70
    0
 71
    0
 91
    1
 92
    0
 93
   13
 72
    1
 10
1000
 20
77
 11
1000
 21
8.881784197001252e-16
 72
    1
 10
1000
 20
8.881784197001252e-16
 11
923
 21
8.881784197001252e-16
 72
    1
 10
923
 20
8.881784197001252e-16
 11
923
 21
64
 72
    1
 10
923
 20
64
 11
936
 21
64
 72
    1
 10
936
 20
64
 11
936
 21
77
 72
    1
 10
936
 20
77
 11
936
 21
77
 72
    1
 10
936
 20
77
 11
1000
 21
77
 72
    1
 10
988
 20
12
 11
935
 21
12
 72
    1
 10
935
 20
12
 11
935
 21
52
 72
    1
 10
935
 20
52
 11
948
 21
52
 72
    1
 10
948
 20
52
 11
948
 21
65
 72
    1
 10
948
 20
65
 11
988
 21
65
 72
    1
 10
988
 20
65
 11
988
 21
12
 97
    0
 75
    0
 76
    1
 52
0
 41
3
 77
    0
 78
    0
 98
    0
  0
LWPOLYLINE
  5
1CE
100
AcDbEntity
  8
lyce
  6
ByLayer
 62
  256
370
   -1
100
AcDbPolyline
 90
    8
 70
    0
 43
0
 10
1000
 20
8.881784197001252e-16
 10
923
 20
8.881784197001252e-16
 10
923
 20
64
 10
936
 20
64
 10
936
 20
77
 10
936
 20
77
 10
1000
 20
77
 10
1000
 20
8.881784197001252e-16
  0
LWPOLYLINE
  5
1CF
100
AcDbEntity
  8
lyce
  6
ByLayer
 62
  256
370
   -1
100
AcDbPolyline
 90
    7
 70
    0
 43
0
 10
988
 20
12
 10
935
 20
12
 10
935
 20
52
 10
948
 20
52
 10
948
 20
65
 10
988
 20
65
 10
988
 20
12
  0
LWPOLYLINE
  5
1D0
100
AcDbEntity
  8
lyce
  6
ByLayer
 62
  256
370
   -1
100
AcDbPolyline
 90
    4
 70
    1
 43
0
 10
715
 20
8.881784197001252e-16
 10
766
 20
8.881784197001252e-16
 10
766
 20
64
 10
715
 20
64
  0
LWPOLYLINE
  5
1D1
100
AcDbEntity
  8
lyce
  6
ByLayer
 62
  256
370
   -1
100
AcDbPolyline
 90
    4
 70
    1
 43
0
 10
727
 20
12
 10
754
 20
12
 10
754
 20
52
 10
727
 20
52
  0
LWPOLYLINE
  5
1D2
100
AcDbEntity
  8
lyce
  6
ByLayer
 62
  256
370
   -1
100
AcDbPolyline
 90
    7
 70
    0
 43
0
 10
12
 20
585
 10
0
 20
585
 10
0
 20
1052
 10
558
 20
1052
 10
558
 20
1040
 10
12
 20
1040
 10
12
 20
585
  0
LWPOLYLINE
  5
1D3
100
AcDbEntity
  8
lyce
  6
ByLayer
 62
  256
370
   -1
100
AcDbPolyline
 90
    4
 70
    1
 43
0
 10
0
 20
493
 10
12
 20
493
 10
12
 20
169
 10
0
 20
169
  0
LWPOLYLINE
  5
1D4
100
AcDbEntity
  8
fundament
  6
ByLayer
 62
  256
370
   -1
100
AcDbPolyline
 90
    4
 70
    1
 43
0
 10
0
 20
1052
 10
1000
 20
1052
 10
1000
 20
8.881784197001252e-16
 10
0
 20
8.881784197001252e-16
  0
LWPOLYLINE
  5
1D5
100
AcDbEntity
  8
lyce
  6
CONTINUOUS
 62
   41
420
16376252
370
   25
100
AcDbPolyline
 90
    9
 70
    0
 43
0
 10
12
 20
77
 10
0
 20
77
 10
0
 20
0
 10
558
 20
0
 10
558
 20
90
 10
546
 20
90
 10
546
 20
12
 10
12
 20
12
 10
12
 20
77
  0
LWPOLYLINE
  5
1D6
100
AcDbEntity
  8
lyce
  6
CONTINUOUS
 62
   41
420
16376252
370
   25
100
AcDbPolyline
 90
   11
 70
    0
 43
0
 10
650
 20
1040
 10
650
 20
1052
 10
1000
 20
1052
 10
1000
 20
234
 10
558
 20
234
 10
558
 20
195
 10
546
 20
195
 10
546
 20
246
 10
988
 20
246
 10
988
 20
1040
 10
650
 20
1040
  0
LWPOLYLINE
  5
1D7
100
AcDbEntity
  8
skhody
  6
ByLayer
 62
  256
370
   -1
100
AcDbPolyline
 90
    9
 70
    0
 43
0
 10
665
 20
1088
 10
665
 20
1052
 10
650
 20
1052
 10
650
 20
1040
 10
558
 20
1040
 10
558
 20
1052
 10
543
 20
1052
 10
543
 20
1088
 10
665
 20
1088
  0
MTEXT
  5
1D8
100
AcDbEntity
  8
tekst
  6
ByLayer
 62
  256
370
   -1
100
AcDbMText
 10
1100
 20
-300
 30
0
 40
50
 41
243.0555555555579
 71
    6
 72
    1
  1
. 22
  7
cyrillic_ii
210
0
220
0
230
1
 50
0
 73
    2
 44
1
  0
LWPOLYLINE
  5
1D9
100
AcDbEntity
  8
skhody
  6
ByLayer
 62
  256
370
   -1
100
AcDbPolyline
 90
    8
 70
    0
 43
0
 10
558
 20
0
 10
534
 20
0
 10
534
 20
-29
 10
1029
 20
-29
 10
1029
 20
258
 10
1000
 20
258
 10
1000
 20
0
 10
534
 20
0
  0
LWPOLYLINE
  5
1DA
100
AcDbEntity
  8
rynvy
  6
ByLayer
 62
  256
370
   -1
100
AcDbPolyline
 90
    9
 70
    0
 43
0
 10
1101
 20
18
 10
1115
 20
18
 10
1115
 20
1461
 10
1101
 20
1461
 10
1101
 20
1034
 10
1005
 20
1034
 10
1005
 20
1020
 10
1101
 20
1020
 10
1101
 20
18
  0
CIRCLE
  5
1DB
100
AcDbEntity
  8
rynvy
  6
ByLayer
 62
  256
370
   -1
100
AcDbCircle
 10
1018
 20
25
 40
6
  0
LINE
  5
1DC
100
AcDbEntity
  8
rynvy
  6
DASHED2
 62
  256
370
   -1
100
AcDbLine
 10
1018
 20
31
 11
1101
 21
31
  0
LINE
  5
1DD
100
AcDbEntity
  8
rynvy
  6
DASHED2
 62
  256
370
   -1
100
AcDbLine
 10
1018
 20
19
 11
1101
 21
19
  0
MTEXT
  5
1DE
100
AcDbEntity
  8
tekst
  6
ByLayer
 62
  256
370
   -1
100
AcDbMText
 10
500
 20
1600
 30
0
 40
50
 41
576.3888888888912
 71
    5
 72
    1
  1
. .
  7
cyrillic_ii
210
0
220
0
230
1
 50
0
 73
    2
 44
1
  0
LINE
  5
1DF
100
AcDbEntity
  8
tekst
  6
ByLayer
 62
  256
370
   -1
100
AcDbLine
 10
200
 20
1560
 11
790
 21
1560
  0
LWPOLYLINE
  5
1E0
100
AcDbEntity
  8
sterodur
  6
ByLayer
 62
  256
370
   -1
100
AcDbPolyline
 90
    7
 70
    0
 43
0
 10
0
 20
600
 10
-5
 20
600
 10
-5
 20
1057
 10
543
 20
1057
 10
543
 20
1052
 10
0
 20
1052
 10
0
 20
600
  0
LWPOLYLINE
  5
1E1
100
AcDbEntity
  8
sterodur
  6
ByLayer
 62
  256
370
   -1
100
AcDbPolyline
 90
    5
 70
    0
 43
0
 10
0
 20
184
 10
-5
 20
184
 10
-5
 20
478
 10
0
 20
478
 10
0
 20
184
  0
LWPOLYLINE
  5
1E2
100
AcDbEntity
  8
sterodur
  6
ByLayer
 62
  256
370
   -1
100
AcDbPolyline
 90
    7
 70
    0
 43
0
 10
0
 20
62
 10
-5
 20
62
 10
-5
 20
-5
 10
534
 20
-4.999999999999999
 10
534
 20
0
 10
0
 20
0
 10
0
 20
62
  0
LWPOLYLINE
  5
1E3
100
AcDbEntity
  8
sterodur
  6
ByLayer
 62
  256
370
   -1
100
AcDbPolyline
 90
    7
 70
    0
 43
0
 10
665
 20
1052
 10
665
 20
1057
 10
1005
 20
1057
 10
1005
 20
258
 10
1000
 20
258
 10
1000
 20
1052
 10
665
 20
1052
  0
LWPOLYLINE
  5
1E4
100
AcDbEntity
  8
rynvy
  6
ByLayer
 62
  256
370
   -1
100
AcDbPolyline
 90
   11
 70
    0
 43
0
 10
-5
 20
18
 10
-152
 20
18
 10
-152
 20
1461
 10
-138
 20
1461
 10
-138
 20
1034
 10
-5
 20
1034
 10
-5
 20
1020
 10
-138
 20
1020
 10
-138
 20
32
 10
-5
 20
32
 10
-5
 20
18
  0
LWPOLYLINE
  5
1E5
100
AcDbEntity
  8
bordur
  6
ByLayer
 62
  256
370
   -1
100
AcDbPolyline
 90
    4
 70
    1
 43
0
 10
-138
 20
1461
 10
1101
 20
1461
 10
1101
 20
1455
 10
-138
 20
1455
  0
LWPOLYLINE
  5
1E6
100
AcDbEntity
  8
bordur
  6
ByLayer
 62
  256
370
   -1
100
AcDbPolyline
 90
    9
 70
    0
 43
0
 10
-152
 20
1461
 10
-158
 20
1461
 10
-158
 20
-156
 10
1121
 20
-156
 10
1121
 20
1461
 10
1115
 20
1461
 10
1115
 20
-150
 10
-152
 20
-150
 10
-152
 20
1461
  0
DIMENSION
  5
1E7
100
AcDbEntity
  8
rozmir
  6
ByLayer
 62
  256
370
   -1
100
AcDbDimension
  2
*D1
 10
558
 20
1010
 30
0
 11
550.5
 21
1022.5
 31
0
 70
   32
 71
    5
 72
    0
  3
Standard
 53
0
210
0
220
0
230
1
100
AcDbAlignedDimension
 13
543
 23
1052
 33
0
 14
558
 24
1051.933982822018
 34
0
100
AcDbRotatedDimension
  0
DIMENSION
  5
1E8
100
AcDbEntity
  8
rozmir
  6
ByLayer
 62
  256
370
   -1
100
AcDbDimension
  2
*D2
 10
665
 20
1010
 30
0
 11
657.5
 21
1022.5
 31
0
 70
   32
 71
    5
 72
    0
  3
Standard
 53
0
210
0
220
0
230
1
100
AcDbAlignedDimension
 13
650
 23
1052
 33
0
 14
665
 24
1052
 34
0
100
AcDbRotatedDimension
  0
DIMENSION
  5
1E9
100
AcDbEntity
  8
rozmir
  6
ByLayer
 62
  256
370
   -1
100
AcDbDimension
  2
*D3
 10
665
 20
1095
 30
0
 11
604
 21
1107.5
 31
0
 70
   32
 71
    5
 72
    0
  3
Standard
 53
0
210
0
220
0
230
1
100
AcDbAlignedDimension
 13
543
 23
1088
 33
0
 14
665
 24
1088
 34
0
100
AcDbRotatedDimension
  0
DIMENSION
  5
1EA
100
AcDbEntity
  8
rozmir
  6
ByLayer
 62
  256
370
   -1
100
AcDbDimension
  2
*D4
 10
536
 20
1088
 30
0
 11
523.5
 21
1072.5
 31
0
 70
   32
 71
    5
 72
    0
  3
Standard
 53
0
210
0
220
0
230
1
100
AcDbAlignedDimension
 13
543
 23
1057
 33
0
 14
543
 24
1088
 34
0
 50
90
100
AcDbRotatedDimension
  0
DIMENSION
  5
1EB
100
AcDbEntity
  8
rozmir
  6
ByLayer
 62
  256
370
   -1
100
AcDbDimension
  2
*D5
 10
-152
 20
-20
 30
0
 11
-76
 21
-7.5
 31
0
 70
   32
 71
    5
 72
    0
  3
Standard
 53
0
210
0
220
0
230
1
100
AcDbAlignedDimension
 13
0
 23
8.881784197001252e-16
 33
0
 14
-152
 24
0
 34
0
100
AcDbRotatedDimension
  0
DIMENSION
  5
1EC
100
AcDbEntity
  8
rozmir
  6
ByLayer
 62
  256
370
   -1
100
AcDbDimension
  2
*D6
 10
-20
 20
-150
 30
0
 11
-32.49999999999999
 21
-75
 31
0
 70
   32
 71
    5
 72
    0
  3
Standard
 53
0
210
0
220
0
230
1
100
AcDbAlignedDimension
 13
0
 23
8.881784197001252e-16
 33
0
 14
0
 24
-150
 34
0
 50
90
100
AcDbRotatedDimension
  0
DIMENSION
  5
1ED
100
AcDbEntity
  8
rozmir
  6
ByLayer
 62
  256
370
   -1
100
AcDbDimension
  2
*D7
 10
-20
 20
1455
 30
0
 11
-32.50000000000001
 21
1253.5
 31
0
 70
   32
 71
    5
 72
    0
  3
Standard
 53
0
210
0
220
0
230
1
100
AcDbAlignedDimension
 13
0
 23
1052
 33
0
 14
0
 24
1455
 34
0
 50
90
100
AcDbRotatedDimension
  0
DIMENSION
  5
1EE
100
AcDbEntity
  8
rozmir
  6
ByLayer
 62
  256
370
   -1
100
AcDbDimension
  2
*D8
 10
1115
 20
1070
 30
0
 11
1057.5
 21
1082.5
 31
0
 70
   32
 71
    5
 72
    0
  3
Standard
 53
0
210
0
220
0
230
1
100
AcDbAlignedDimension
 13
1000
 23
1052
 33
0
 14
1115
 24
1052
 34
0
100
AcDbRotatedDimension
  0
DIMENSION
  5
1EF
100
AcDbEntity
  8
rozmir
  6
ByLayer
 62
  256
370
   -1
100
AcDbDimension
  2
*D9
 10
1101
 20
1100
 30
0
 11
1050.5
 21
1112.5
 31
0
 70
   32
 71
    5
 72
    0
  3
Standard
 53
0
210
0
220
0
230
1
100
AcDbAlignedDimension
 13
1000
 23
1052
 33
0
 14
1101
 24
1052
 34
0
100
AcDbRotatedDimension
  0
DIMENSION
  5
1F0
100
AcDbEntity
  8
rozmir
  6
ByLayer
 62
  256
370
   -1
100
AcDbDimension
  2
*D10
 10
-138
 20
39
 30
0
 11
-69
 21
51.5
 31
0
 70
   32
 71
    5
 72
    0
  3
Standard
 53
0
210
0
220
0
230
1
100
AcDbAlignedDimension
 13
0
 23
32
 33
0
 14
-138
 24
32
 34
0
100
AcDbRotatedDimension
  0
DIMENSION
  5
1F1
100
AcDbEntity
  8
rozmir
  6
ByLayer
 62
  256
370
   -1
100
AcDbDimension
  2
*D11
 10
558
 20
30
 30
0
 11
520
 21
40
 31
0
 70
   32
 71
    5
 72
    0
  3
Standard
 53
0
210
0
220
0
230
1
100
AcDbAlignedDimension
 13
534
 23
0
 33
0
 14
558
 24
0
 34
0
100
AcDbRotatedDimension
  0
DIMENSION
  5
1F2
100
AcDbEntity
  8
rozmir
  6
ByLayer
 62
  256
370
   -1
100
AcDbDimension
  2
*D12
 10
570
 20
-29
 30
0
 11
557.5
 21
-14.5
 31
0
 70
   32
 71
    5
 72
    0
  3
Standard
 53
0
210
0
220
0
230
1
100
AcDbAlignedDimension
 13
558
 23
0
 33
0
 14
558
 24
-29
 34
0
 50
90
100
AcDbRotatedDimension
  0
DIMENSION
  5
1F3
100
AcDbEntity
  8
rozmir
  6
ByLayer
 62
  256
370
   -1
100
AcDbDimension
  2
*D13
 10
980
 20
258
 30
0
 11
968
 21
272
 31
0
 70
   32
 71
    5
 72
    0
  3
Standard
 53
0
210
0
220
0
230
1
100
AcDbAlignedDimension
 13
1000
 23
234
 33
0
 14
1000
 24
258
 34
0
 50
90
100
AcDbRotatedDimension
  0
DIMENSION
  5
1F4
100
AcDbEntity
  8
rozmir
  6
ByLayer
 62
  256
370
   -1
100
AcDbDimension
  2
*D14
 10
1029
 20
220
 30
0
 11
1014.5
 21
232.5
 31
0
 70
   32
 71
    5
 72
    0
  3
Standard
 53
0
210
0
220
0
230
1
100
AcDbAlignedDimension
 13
1000
 23
234
 33
0
 14
1029
 24
234
 34
0
100
AcDbRotatedDimension
  0
DIMENSION
  5
1F5
100
AcDbEntity
  8
rozmir
  6
ByLayer
 62
  256
370
   -1
100
AcDbDimension
  2
*D15
 10
610
 20
-1.224646799147353e-15
 30
0
 11
597.5
 21
117
 31
0
 70
   32
 71
    5
 72
    0
  3
Standard
 53
0
210
0
220
0
230
1
100
AcDbAlignedDimension
 13
600
 23
234
 33
0
 14
600
 24
0
 34
0
 50
90
100
AcDbRotatedDimension
  0
DIMENSION
  5
1F6
100
AcDbEntity
  8
rozmir
  6
ByLayer
 62
  256
370
   -1
100
AcDbDimension
  2
*D16
 10
1000
 20
90
 30
0
 11
779
 21
102.5
 31
0
 70
   32
 71
    5
 72
    0
  3
Standard
 53
0
210
0
220
0
230
1
100
AcDbAlignedDimension
 13
558
 23
90
 33
0
 14
1000
 24
90
 34
0
100
AcDbRotatedDimension
  0
DIMENSION
  5
1F7
100
AcDbEntity
  8
rozmir
  6
ByLayer
 62
  256
370
   -1
100
AcDbDimension
  2
*D17
 10
-190
 20
-150
 30
0
 11
-202.5
 21
652.5
 31
0
 70
   32
 71
    5
 72
    0
  3
Standard
 53
0
210
0
220
0
230
1
100
AcDbAlignedDimension
 13
-138
 23
1455
 33
0
 14
-152
 24
-150
 34
0
 50
90
100
AcDbRotatedDimension
  0
DIMENSION
  5
1F8
100
AcDbEntity
  8
rozmir
  6
ByLayer
 62
  256
370
   -1
100
AcDbDimension
  2
*D18
 10
1115
 20
-190
 30
0
 11
481.5
 21
-177.5
 31
0
 70
   32
 71
    5
 72
    0
  3
Standard
 53
0
210
0
220
0
230
1
100
AcDbAlignedDimension
 13
-152
 23
-150
 33
0
 14
1115
 24
-150
 34
0
100
AcDbRotatedDimension
  0
LWPOLYLINE
  5
1F9
100
AcDbEntity
  8
skhody
  6
CONTINUOUS
 62
    8
370
   25
100
AcDbPolyline
 90
    5
 70
    0
 43
0
 10
543
 20
1057
 10
515
 20
1057
 10
515
 20
1116
 10
665
 20
1116
 10
665
 20
1088
  0
DIMENSION
  5
1FA
100
AcDbEntity
  8
rozmir
  6
ByLayer
 62
  256
370
   -1
100
AcDbDimension
  2
*D19
 10
660
 20
1123
 30
0
 11
590
 21
1135.5
 31
0
 70
   32
 71
    5
 72
    0
  3
Standard
 53
0
210
0
220
0
230
1
100
AcDbAlignedDimension
 13
515
 23
1116
 33
0
 14
665
 24
1116
 34
0
100
AcDbRotatedDimension
  0
DIMENSION
  5
1FB
100
AcDbEntity
  8
rozmir
  6
ByLayer
 62
  256
370
   -1
100
AcDbDimension
  2
*D20
 10
508
 20
1118
 30
0
 11
495.5
 21
1086.5
 31
0
 70
   32
 71
    5
 72
    0
  3
Standard
 53
0
210
0
220
0
230
1
100
AcDbAlignedDimension
 13
515
 23
1057
 33
0
 14
515
 24
1116
 34
0
 50
90
100
AcDbRotatedDimension
  0
LWPOLYLINE
  5
1FC
100
AcDbEntity
  8
skhody
  6
CONTINUOUS
 62
    8
370
   25
100
AcDbPolyline
 90
    5
 70
    0
 43
0
 10
515
 20
1057
 10
487
 20
1057
 10
487
 20
1144
 10
665
 20
1144
 10
665
 20
1116
  0
DIMENSION
  5
1FD
100
AcDbEntity
  8
rozmir
  6
ByLayer
 62
  256
370
   -1
100
AcDbDimension
  2
*D21
 10
483
 20
1155
 30
0
 11
576
 21
1167.5
 31
0
 70
   32
 71
    5
 72
    0
  3
Standard
 53
0
210
0
220
0
230
1
100
AcDbAlignedDimension
 13
665
 23
1144
 33
0
 14
487
 24
1144
 34
0
100
AcDbRotatedDimension
  0
DIMENSION
  5
1FE
100
AcDbEntity
  8
rozmir
  6
ByLayer
 62
  256
370
   -1
100
AcDbDimension
  2
*D22
 10
476
 20
1146
 30
0
 11
463.5
 21
1100.5
 31
0
 70
   32
 71
    5
 72
    0
  3
Standard
 53
0
210
0
220
0
230
1
100
AcDbAlignedDimension
 13
487
 23
1057
 33
0
 14
487
 24
1144
 34
0
 50
90
100
AcDbRotatedDimension
  0
LWPOLYLINE
  5
1FF
100
AcDbEntity
  8
skhody
  6
ByLayer
 62
  256
370
   -1
100
AcDbPolyline
 90
    9
 70
    0
 43
0
 10
-36
 20
478
 10
0
 20
478
 10
0
 20
493
 10
12
 20
493
 10
12
 20
585
 10
0
 20
585
 10
0
 20
600
 10
-36
 20
600
 10
-36
 20
478
  0
DIMENSION
  5
200
100
AcDbEntity
  8
rozmir
  6
ByLayer
 62
  256
370
   -1
100
AcDbDimension
  2
*D23
 10
42
 20
585
 30
0
 11
29.5
 21
592.5
 31
0
 70
   32
 71
    5
 72
    0
  3
Standard
 53
0
210
0
220
0
230
1
100
AcDbAlignedDimension
 13
0
 23
600
 33
0
 14
0.06601717798207574
 24
585
 34
0
 50
270
100
AcDbRotatedDimension
  0
DIMENSION
  5
201
100
AcDbEntity
  8
rozmir
  6
ByLayer
 62
  256
370
   -1
100
AcDbDimension
  2
*D24
 10
42
 20
478
 30
0
 11
29.5
 21
485.5
 31
0
 70
   32
 71
    5
 72
    0
  3
Standard
 53
0
210
0
220
0
230
1
100
AcDbAlignedDimension
 13
0
 23
493
 33
0
 14
0
 24
478
 34
0
 50
270
100
AcDbRotatedDimension
  0
DIMENSION
  5
202
100
AcDbEntity
  8
rozmir
  6
ByLayer
 62
  256
370
   -1
100
AcDbDimension
  2
*D25
 10
-43
 20
478
 30
0
 11
-55.5
 21
539
 31
0
 70
   32
 71
    5
 72
    0
  3
Standard
 53
0
210
0
220
0
230
1
100
AcDbAlignedDimension
 13
-36
 23
600
 33
0
 14
-36
 24
478
 34
0
 50
270
100
AcDbRotatedDimension
  0
DIMENSION
  5
203
100
AcDbEntity
  8
rozmir
  6
ByLayer
 62
  256
370
   -1
100
AcDbDimension
  2
*D26
 10
-36
 20
607
 30
0
 11
-20.5
 21
619.5
 31
0
 70
   32
 71
    5
 72
    0
  3
Standard
 53
0
210
0
220
0
230
1
100
AcDbAlignedDimension
 13
-5
 23
600
 33
0
 14
-36
 24
600
 34
0
 50
180
100
AcDbRotatedDimension
  0
LWPOLYLINE
  5
204
100
AcDbEntity
  8
skhody
  6
CONTINUOUS
 62
    8
370
   25
100
AcDbPolyline
 90
    5
 70
    0
 43
0
 10
-5
 20
600
 10
-5
 20
628
 10
-64
 20
628
 10
-64
 20
478
 10
-36
 20
478
  0
DIMENSION
  5
205
100
AcDbEntity
  8
rozmir
  6
ByLayer
 62
  256
370
   -1
100
AcDbDimension
  2
*D27
 10
-71
 20
483
 30
0
 11
-83.5
 21
553
 31
0
 70
   32
 71
    5
 72
    0
  3
Standard
 53
0
210
0
220
0
230
1
100
AcDbAlignedDimension
 13
-64
 23
628
 33
0
 14
-64
 24
478
 34
0
 50
270
100
AcDbRotatedDimension
  0
DIMENSION
  5
206
100
AcDbEntity
  8
rozmir
  6
ByLayer
 62
  256
370
   -1
100
AcDbDimension
  2
*D28
 10
-66
 20
635
 30
0
 11
-34.5
 21
647.5
 31
0
 70
   32
 71
    5
 72
    0
  3
Standard
 53
0
210
0
220
0
230
1
100
AcDbAlignedDimension
 13
-5
 23
628
 33
0
 14
-64
 24
628
 34
0
 50
180
100
AcDbRotatedDimension
  0
LWPOLYLINE
  5
207
100
AcDbEntity
  8
skhody
  6
CONTINUOUS
 62
    8
370
   25
100
AcDbPolyline
 90
    5
 70
    0
 43
0
 10
-5
 20
628
 10
-5
 20
656
 10
-92
 20
656
 10
-92
 20
478
 10
-64
 20
478
  0
DIMENSION
  5
208
100
AcDbEntity
  8
rozmir
  6
ByLayer
 62
  256
370
   -1
100
AcDbDimension
  2
*D29
 10
-103
 20
660
 30
0
 11
-115.5
 21
567
 31
0
 70
   32
 71
    5
 72
    0
  3
Standard
 53
0
210
0
220
0
230
1
100
AcDbAlignedDimension
 13
-92
 23
478
 33
0
 14
-92
 24
656
 34
0
 50
270
100
AcDbRotatedDimension
  0
DIMENSION
  5
209
100
AcDbEntity
  8
rozmir
  6
ByLayer
 62
  256
370
   -1
100
AcDbDimension
  2
*D30
 10
-94
 20
667
 30
0
 11
-48.5
 21
679.5
 31
0
 70
   32
 71
    5
 72
    0
  3
Standard
 53
0
210
0
220
0
230
1
100
AcDbAlignedDimension
 13
-5
 23
656
 33
0
 14
-92
 24
656
 34
0
 50
180
100
AcDbRotatedDimension
  0
LWPOLYLINE
  5
20A
100
AcDbEntity
  8
skhody
  6
ByLayer
 62
  256
370
   -1
100
AcDbPolyline
 90
    9
 70
    0
 43
0
 10
-36
 20
62
 10
0
 20
62
 10
0
 20
77
 10
12
 20
77
 10
12
 20
169
 10
0
 20
169
 10
0
 20
184
 10
-36
 20
184
 10
-36
 20
62
  0
LWPOLYLINE
  5
20B
100
AcDbEntity
  8
skhody
  6
CONTINUOUS
 62
    8
370
   25
100
AcDbPolyline
 90
    5
 70
    0
 43
0
 10
-5
 20
184
 10
-5
 20
212
 10
-64
 20
212
 10
-64
 20
62
 10
-36
 20
62
  0
LWPOLYLINE
  5
20C
100
AcDbEntity
  8
skhody
  6
CONTINUOUS
 62
    8
370
   25
100
AcDbPolyline
 90
    5
 70
    0
 43
0
 10
-5
 20
212
 10
-5
 20
240
 10
-92
 20
240
 10
-92
 20
62
 10
-64
 20
62
  0
DIMENSION
  5
20D
100
AcDbEntity
  8
rozmir
  6
ByLayer
 62
  256
370
   -1
100
AcDbDimension
  2
*D31
 10
570
 20
-65
 30
0
 11
557.5
 21
-46
 31
0
 70
   32
 71
    5
 72
    0
  3
Standard
 53
0
210
0
220
0
230
1
100
AcDbAlignedDimension
 13
558
 23
-29
 33
0
 14
558
 24
-63
 34
0
 50
90
100
AcDbRotatedDimension
  0
DIMENSION
  5
20E
100
AcDbEntity
  8
rozmir
  6
ByLayer
 62
  256
370
   -1
100
AcDbDimension
  2
*D32
 10
570
 20
-99
 30
0
 11
557.5
 21
-80
 31
0
 70
   32
 71
    5
 72
    0
  3
Standard
 53
0
210
0
220
0
230
1
100
AcDbAlignedDimension
 13
558
 23
-63
 33
0
 14
558
 24
-97
 34
0
 50
90
100
AcDbRotatedDimension
  0
DIMENSION
  5
20F
100
AcDbEntity
  8
rozmir
  6
ByLayer
 62
  256
370
   -1
100
AcDbDimension
  2
*D33
 10
530
 20
-40
 30
0
 11
517
 21
-27.5
 31
0
 70
   32
 71
    5
 72
    0
  3
Standard
 53
0
210
0
220
0
230
1
100
AcDbAlignedDimension
 13
500
 23
-29
 33
0
 14
534
 24
-29
 34
0
100
AcDbRotatedDimension
  0
DIMENSION
  5
210
100
AcDbEntity
  8
rozmir
  6
ByLayer
 62
  256
370
   -1
100
AcDbDimension
  2
*D34
 10
464
 20
-73
 30
0
 11
483
 21
-60.5
 31
0
 70
   32
 71
    5
 72
    0
  3
Standard
 53
0
210
0
220
0
230
1
100
AcDbAlignedDimension
 13
500
 23
-63
 33
0
 14
466
 24
-63
 34
0
100
AcDbRotatedDimension
  0
DIMENSION
  5
211
100
AcDbEntity
  8
rozmir
  6
ByLayer
 62
  256
370
   -1
100
AcDbDimension
  2
*D35
 10
1065
 20
220
 30
0
 11
1046
 21
232.5
 31
0
 70
   32
 71
    5
 72
    0
  3
Standard
 53
0
210
0
220
0
230
1
100
AcDbAlignedDimension
 13
1029
 23
234
 33
0
 14
1063
 24
234
 34
0
100
AcDbRotatedDimension
  0
DIMENSION
  5
212
100
AcDbEntity
  8
rozmir
  6
ByLayer
 62
  256
370
   -1
100
AcDbDimension
  2
*D36
 10
1099
 20
220
 30
0
 11
1080
 21
232.5
 31
0
 70
   32
 71
    5
 72
    0
  3
Standard
 53
0
210
0
220
0
230
1
100
AcDbAlignedDimension
 13
1063
 23
234
 33
0
 14
1097
 24
234
 34
0
100
AcDbRotatedDimension
  0
DIMENSION
  5
213
100
AcDbEntity
  8
rozmir
  6
ByLayer
 62
  256
370
   -1
100
AcDbDimension
  2
*D37
 10
1101
 20
-126
 30
0
 11
781.5
 21
-113.5
 31
0
 70
   32
 71
    5
 72
    0
  3
Standard
 53
0
210
0
220
0
230
1
100
AcDbAlignedDimension
 13
466
 23
-97
 33
0
 14
1097
 24
-97
 34
0
100
AcDbRotatedDimension
  0
DIMENSION
  5
214
100
AcDbEntity
  8
rozmir
  6
ByLayer
 62
  256
370
   -1
100
AcDbDimension
  2
*D38
 10
1040
 20
294
 30
0
 11
1027.5
 21
275
 31
0
 70
   32
 71
    5
 72
    0
  3
Standard
 53
0
210
0
220
0
230
1
100
AcDbAlignedDimension
 13
1029
 23
258
 33
0
 14
1029
 24
292
 34
0
 50
90
100
AcDbRotatedDimension
  0
LWPOLYLINE
  5
215
100
AcDbEntity
  8
skhody
  6
ByLayer
 62
  256
370
   -1
100
AcDbPolyline
 90
    7
 70
    0
 43
0
 10
534
 20
-4.999999999999999
 10
500
 20
-5
 10
500
 20
-63
 10
1063
 20
-63
 10
1063
 20
292
 10
1005
 20
292
 10
1005
 20
258
  0
DIMENSION
  5
216
100
AcDbEntity
  8
rozmir
  6
ByLayer
 62
  256
370
   -1
100
AcDbDimension
  2
*D39
 10
1075
 20
328
 30
0
 11
1062.5
 21
309
 31
0
 70
   32
 71
    5
 72
    0
  3
Standard
 53
0
210
0
220
0
230
1
100
AcDbAlignedDimension
 13
1063
 23
292
 33
0
 14
1063
 24
326
 34
0
 50
90
100
AcDbRotatedDimension
  0
DIMENSION
  5
217
100
AcDbEntity
  8
rozmir
  6
ByLayer
 62
  256
370
   -1
100
AcDbDimension
  2
*D40
 10
1140
 20
330
 30
0
 11
1127.5
 21
114.5
 31
0
 70
   32
 71
    5
 72
    0
  3
Standard
 53
0
210
0
220
0
230
1
100
AcDbAlignedDimension
 13
1097
 23
-97
 33
0
 14
1097
 24
326
 34
0
 50
90
100
AcDbRotatedDimension
  0
LWPOLYLINE
  5
218
100
AcDbEntity
  8
skhody
  6
ByLayer
 62
  256
370
   -1
100
AcDbPolyline
 90
    7
 70
    0
 43
0
 10
1005
 20
292
 10
1005
 20
326
 10
1097
 20
326
 10
1097
 20
-97
 10
466
 20
-97
 10
466
 20
-5
 10
500
 20
-5
  0
ENDSEC
  0
SECTION
  2
OBJECTS
  0
DICTIONARY
  5
C
330
0
100
AcDbDictionary
281
    1
  3
ACAD_GROUP
350
D
  0
DICTIONARY
  5
D
330
C
100
AcDbDictionary
281
    1
  0
ENDSEC
  0
EOF
