999
dxfrw 0.6.3
  0
SECTION
  2
HEADER
  9
$ACADVER
  1
AC1021
  9
$DWGCODEPAGE
  3
ANSI_1252
  9
$INSBASE
 10
0
 20
0
 30
0
  9
$EXTMIN
 10
-101.5706570524211
 20
-241.6666666666667
 30
0
  9
$EXTMAX
 10
1300
 20
1425.013200342358
 30
0
  9
$LIMMIN
 10
0
 20
0
  9
$LIMMAX
 10
420
 20
297
  9
$ORTHOMODE
 70
    0
  9
$REGENMODE
 70
    1
  9
$FILLMODE
 70
    1
  9
$QTEXTMODE
 70
    0
  9
$MIRRTEXT
 70
    0
  9
$LTSCALE
 40
1
  9
$ATTMODE
 70
    0
  9
$TEXTSIZE
 40
2.5
  9
$TRACEWID
 40
15.68
  9
$TEXTSTYLE
  7
STANDARD
  9
$CLAYER
  8
0
  9
$CELTYPE
  6
BYLAYER
  9
$CECOLOR
 62
  256
  9
$CELTSCALE
 40
1
  9
$DISPSILH
 70
    0
  9
$DIMSCALE
 40
10
  9
$DIMASZ
 40
2
  9
$DIMEXO
 40
1
  9
$DIMDLI
 40
3.75
  9
$DIMRND
 40
0
  9
$DIMDLE
 40
0
  9
$DIMEXE
 40
2
  9
$DIMTP
 40
0
  9
$DIMTM
 40
0
  9
$DIMTXT
 40
4
  9
$DIMCEN
 40
2.5
  9
$DIMTSZ
 40
2
  9
$DIMTOL
 70
    0
  9
$DIMLIM
 70
    0
  9
$DIMTIH
 70
    0
  9
$DIMTOH
 70
    0
  9
$DIMSE1
 70
    0
  9
$DIMSE2
 70
    0
  9
$DIMTAD
 70
    1
  9
$DIMZIN
 70
    8
  9
$DIMBLK
  1

  9
$DIMASO
 70
    1
  9
$DIMSHO
 70
    1
  9
$DIMPOST
  1

  9
$DIMAPOST
  1

  9
$DIMALT
 70
    0
  9
$DIMALTD
 70
    3
  9
$DIMALTF
 40
0.03937
  9
$DIMLFAC
 40
1
  9
$DIMTOFL
 70
    1
  9
$DIMTVP
 40
0
  9
$DIMTIX
 70
    0
  9
$DIMSOXD
 70
    0
  9
$DIMSAH
 70
    0
  9
$DIMBLK1
  1

  9
$DIMBLK2
  1

  9
$DIMSTYLE
  2
STANDARD
  9
$DIMCLRD
 70
    0
  9
$DIMCLRE
 70
    0
  9
$DIMCLRT
 70
    0
  9
$DIMTFAC
 40
1
  9
$DIMGAP
 40
2
  9
$DIMJUST
 70
    0
  9
$DIMSD1
 70
    0
  9
$DIMSD2
 70
    0
  9
$DIMTOLJ
 70
    0
  9
$DIMTZIN
 70
    8
  9
$DIMALTZ
 70
    0
  9
$DIMALTTZ
 70
    0
  9
$DIMUPT
 70
    0
  9
$DIMDEC
 70
    1
  9
$DIMTDEC
 70
    2
  9
$DIMALTU
 70
    2
  9
$DIMALTTD
 70
    3
  9
$DIMTXSTY
  7
standard
  9
$DIMAUNIT
 70
    0
  9
$DIMADEC
 70
    0
  9
$DIMALTRND
 40
0
  9
$DIMAZIN
 70
    0
  9
$DIMDSEP
 70
   44
  9
$DIMATFIT
 70
    3
  9
$DIMFRAC
 70
    0
  9
$DIMLDRBLK
  1
STANDARD
  9
$DIMLUNIT
 70
    2
  9
$DIMLWD
 70
   -2
  9
$DIMLWE
 70
   -2
  9
$DIMTMOVE
 70
    0
  9
$DIMFXL
 40
1
  9
$DIMFXLON
 70
    0
  9
$DIMJOGANG
 40
0.7854
  9
$DIMTFILL
 70
    0
  9
$DIMTFILLCLR
 70
    0
  9
$DIMARCSYM
 70
    0
  9
$DIMLTYPE
  6

  9
$DIMLTEX1
  6

  9
$DIMLTEX2
  6

  9
$LUNITS
 70
    2
  9
$LUPREC
 70
    2
  9
$SKETCHINC
 40
1
  9
$FILLETRAD
 40
0
  9
$AUNITS
 70
    0
  9
$AUPREC
 70
    2
  9
$MENU
  1
.
  9
$ELEVATION
 40
0
  9
$PELEVATION
 40
0
  9
$THICKNESS
 40
0
  9
$LIMCHECK
 70
    0
  9
$CHAMFERA
 40
0
  9
$CHAMFERB
 40
0
  9
$CHAMFERC
 40
0
  9
$CHAMFERD
 40
0
  9
$SKPOLY
 70
    0
  9
$USRTIMER
 70
    1
  9
$ANGBASE
 50
0
  9
$ANGDIR
 70
    0
  9
$PDMODE
 70
   34
  9
$PDSIZE
 40
0
  9
$PLINEWID
 40
0
  9
$SPLFRAME
 70
    0
  9
$SPLINETYPE
 70
    2
  9
$SPLINESEGS
 70
    8
  9
$HANDSEED
  5
20000
  9
$SURFTAB1
 70
    6
  9
$SURFTAB2
 70
    6
  9
$SURFTYPE
 70
    6
  9
$SURFU
 70
    6
  9
$SURFV
 70
    6
  9
$UCSBASE
  2

  9
$UCSNAME
  2

  9
$UCSORG
 10
0
 20
0
 30
0
  9
$UCSXDIR
 10
1
 20
0
 30
0
  9
$UCSYDIR
 10
0
 20
1
 30
0
  9
$UCSORTHOREF
  2

  9
$UCSORTHOVIEW
 70
    0
  9
$UCSORGTOP
 10
0
 20
0
 30
0
  9
$UCSORGBOTTOM
 10
0
 20
0
 30
0
  9
$UCSORGLEFT
 10
0
 20
0
 30
0
  9
$UCSORGRIGHT
 10
0
 20
0
 30
0
  9
$UCSORGFRONT
 10
0
 20
0
 30
0
  9
$UCSORGBACK
 10
0
 20
0
 30
0
  9
$PUCSBASE
  2

  9
$PUCSNAME
  2

  9
$PUCSORG
 10
0
 20
0
 30
0
  9
$PUCSXDIR
 10
1
 20
0
 30
0
  9
$PUCSYDIR
 10
0
 20
1
 30
0
  9
$PUCSORTHOREF
  2

  9
$PUCSORTHOVIEW
 70
    0
  9
$PUCSORGTOP
 10
0
 20
0
 30
0
  9
$PUCSORGBOTTOM
 10
0
 20
0
 30
0
  9
$PUCSORGLEFT
 10
0
 20
0
 30
0
  9
$PUCSORGRIGHT
 10
0
 20
0
 30
0
  9
$PUCSORGFRONT
 10
0
 20
0
 30
0
  9
$PUCSORGBACK
 10
0
 20
0
 30
0
  9
$USERI1
 70
    0
  9
$USERI2
 70
    0
  9
$USERI3
 70
    0
  9
$USERI4
 70
    0
  9
$USERI5
 70
    0
  9
$USERR1
 40
0
  9
$USERR2
 40
0
  9
$USERR3
 40
0
  9
$USERR4
 40
0
  9
$USERR5
 40
0
  9
$WORLDVIEW
 70
    1
  9
$SHADEDGE
 70
    3
  9
$SHADEDIF
 70
   70
  9
$TILEMODE
 70
    1
  9
$MAXACTVP
 70
   64
  9
$PINSBASE
 10
3.268957617411224
 20
8.751718213058417
 30
0
  9
$PLIMCHECK
 70
    0
  9
$PEXTMIN
 10
0
 20
0
 30
0
  9
$PEXTMAX
 10
0
 20
0
 30
0
  9
$GRIDMODE
 70
    1
  9
$SNAPSTYLE
 70
    0
  9
$GRIDUNIT
 10
0
 20
0
  9
$PLIMMIN
 10
0
 20
0
  9
$PLIMMAX
 10
29.7
 20
21
  9
$UNITMODE
 70
    0
  9
$VISRETAIN
 70
    1
  9
$PLINEGEN
 70
    0
  9
$PSLTSCALE
 70
    1
  9
$TREEDEPTH
 70
 3020
  9
$CMLSTYLE
  2
Standard
  9
$CMLJUST
 70
    0
  9
$CMLSCALE
 40
20
  9
$PROXYGRAPHICS
 70
    1
  9
$MEASUREMENT
 70
    1
  9
$CELWEIGHT
370
   -1
  9
$ENDCAPS
280
    0
  9
$JOINSTYLE
280
    0
  9
$LWDISPLAY
290
    0
  9
$INSUNITS
 70
    5
  9
$HYPERLINKBASE
  1

  9
$STYLESHEET
  1

  9
$XEDIT
290
    1
  9
$CEPSNTYPE
380
    0
  9
$PSTYLEMODE
290
    1
  9
$EXTNAMES
290
    1
  9
$PSVPSCALE
 40
0.1271478449711756
  9
$OLESTARTUP
290
    0
  9
$SORTENTS
280
  127
  9
$INDEXCTL
280
    0
  9
$HIDETEXT
280
    1
  9
$XCLIPFRAME
290
    0
  9
$HALOGAP
280
    0
  9
$OBSCOLOR
 70
  257
  9
$OBSLTYPE
280
    0
  9
$INTERSECTIONDISPLAY
280
    0
  9
$INTERSECTIONCOLOR
 70
  257
  9
$DIMASSOC
280
    1
  9
$PROJECTNAME
  1

  9
$CAMERADISPLAY
290
    0
  9
$LENSLENGTH
 40
50
  9
$CAMERAHEIGHT
 40
0
  9
$STEPSPERSEC
 40
2
  9
$STEPSIZE
 40
50
  9
$3DDWFPREC
 40
2
  9
$PSOLWIDTH
 40
5
  9
$PSOLHEIGHT
 40
80
  9
$LOFTANG1
 40
1.570796326794897
  9
$LOFTANG2
 40
1.570796326794897
  9
$LOFTMAG1
 40
0
  9
$LOFTMAG2
 40
0
  9
$LOFTPARAM
 70
    7
  9
$LOFTNORMALS
280
    1
  9
$LATITUDE
 40
1
  9
$LONGITUDE
 40
1
  9
$NORTHDIRECTION
 40
0
  9
$TIMEZONE
 70
-8000
  9
$LIGHTGLYPHDISPLAY
280
    1
  9
$TILEMODELIGHTSYNCH
280
    1
  9
$SOLIDHIST
280
    1
  9
$SHOWHIST
280
    1
  9
$DWFFRAME
280
    2
  9
$DGNFRAME
280
    0
  9
$REALWORLDSCALE
290
    1
  9
$INTERFERECOLOR
 62
    1
  9
$CSHADOW
280
    0
  9
$SHADOWPLANELOCATION
 40
0
  0
ENDSEC
  0
SECTION
  2
CLASSES
  0
ENDSEC
  0
SECTION
  2
TABLES
  0
TABLE
  2
VPORT
  5
8
330
0
100
AcDbSymbolTable
 70
    1
  0
VPORT
  5
31
330
2
100
AcDbSymbolTableRecord
100
AcDbViewportTableRecord
  2
*ACTIVE
 70
    0
 10
0
 20
0
 11
1
 21
1
 12
675.361357884775
 22
153.0130519138544
 13
0
 23
0
 14
10
 24
10
 15
10
 25
10
 16
0
 26
0
 36
1
 17
0
 27
0
 37
0
 40
283.8392113002
 41
1.987870619946092
 42
50
 43
0
 44
0
 50
0
 51
0
 71
    0
 72
  100
 73
    1
 74
    3
 75
    0
 76
    1
 77
    0
 78
    0
281
    0
 65
    1
110
0
120
0
130
0
111
1
121
0
131
0
112
0
122
1
132
0
 79
    0
146
0
348
10020
 60
    7
 61
    5
292
1
282
    1
141
0
142
0
 63
  250
421
3358443
  0
ENDTAB
  0
TABLE
  2
LTYPE
  5
5
330
0
100
AcDbSymbolTable
 70
    4
  0
LTYPE
  5
14
330
5
100
AcDbSymbolTableRecord
100
AcDbLinetypeTableRecord
  2
ByBlock
 70
    0
  3

 72
   65
 73
    0
 40
0
  0
LTYPE
  5
15
330
5
100
AcDbSymbolTableRecord
100
AcDbLinetypeTableRecord
  2
ByLayer
 70
    0
  3

 72
   65
 73
    0
 40
0
  0
LTYPE
  5
16
330
5
100
AcDbSymbolTableRecord
100
AcDbLinetypeTableRecord
  2
Continuous
 70
    0
  3
Solid line
 72
   65
 73
    0
 40
0
  0
LTYPE
  5
32
330
5
100
AcDbSymbolTableRecord
100
AcDbLinetypeTableRecord
  2
DOT
 70
    0
  3
Dot . . . . . . . . . . . . . . . . . . . . . .
 72
   65
 73
    2
 40
6.35
 49
0
 74
    0
 49
-6.35
 74
    0
  0
LTYPE
  5
33
330
5
100
AcDbSymbolTableRecord
100
AcDbLinetypeTableRecord
  2
DOTTINY
 70
    0
  3
Dot (.15x) .....................................
 72
   65
 73
    2
 40
0.9525
 49
0
 74
    0
 49
-0.9525
 74
    0
  0
LTYPE
  5
34
330
5
100
AcDbSymbolTableRecord
100
AcDbLinetypeTableRecord
  2
DOT2
 70
    0
  3
Dot (.5x) .....................................
 72
   65
 73
    2
 40
3.175
 49
0
 74
    0
 49
-3.175
 74
    0
  0
LTYPE
  5
35
330
5
100
AcDbSymbolTableRecord
100
AcDbLinetypeTableRecord
  2
DOTX2
 70
    0
  3
Dot (2x) .  .  .  .  .  .  .  .  .  .  .  .  .
 72
   65
 73
    2
 40
12.7
 49
0
 74
    0
 49
-12.7
 74
    0
  0
LTYPE
  5
36
330
5
100
AcDbSymbolTableRecord
100
AcDbLinetypeTableRecord
  2
DASHED
 70
    0
  3
Dashed _ _ _ _ _ _ _ _ _ _ _ _ _ _ _ _ _
 72
   65
 73
    2
 40
19.05
 49
12.7
 74
    0
 49
-6.35
 74
    0
  0
LTYPE
  5
37
330
5
100
AcDbSymbolTableRecord
100
AcDbLinetypeTableRecord
  2
DASHEDTINY
 70
    0
  3
Dashed (.15x) _ _ _ _ _ _ _ _ _ _ _ _ _ _ _ _ _
 72
   65
 73
    2
 40
2.8575
 49
1.905
 74
    0
 49
-0.9525
 74
    0
  0
LTYPE
  5
38
330
5
100
AcDbSymbolTableRecord
100
AcDbLinetypeTableRecord
  2
DASHED2
 70
    0
  3
Dashed (.5x) _ _ _ _ _ _ _ _ _ _ _ _ _ _ _ _ _
 72
   65
 73
    2
 40
9.524999999999999
 49
6.35
 74
    0
 49
-3.175
 74
    0
  0
LTYPE
  5
39
330
5
100
AcDbSymbolTableRecord
100
AcDbLinetypeTableRecord
  2
DASHEDX2
 70
    0
  3
Dashed (2x) ____  ____  ____  ____  ____  ___
 72
   65
 73
    2
 40
38.09999999999999
 49
25.4
 74
    0
 49
-12.7
 74
    0
  0
LTYPE
  5
3A
330
5
100
AcDbSymbolTableRecord
100
AcDbLinetypeTableRecord
  2
DASHDOT
 70
    0
  3
Dash dot __ . __ . __ . __ . __ . __ . __ . __
 72
   65
 73
    4
 40
25.4
 49
12.7
 74
    0
 49
-6.35
 74
    0
 49
0
 74
    0
 49
-6.35
 74
    0
  0
LTYPE
  5
3B
330
5
100
AcDbSymbolTableRecord
100
AcDbLinetypeTableRecord
  2
DASHDOTTINY
 70
    0
  3
Dash dot (.15x) _._._._._._._._._._._._._._._.
 72
   65
 73
    4
 40
3.81
 49
1.905
 74
    0
 49
-0.9525
 74
    0
 49
0
 74
    0
 49
-0.9525
 74
    0
  0
LTYPE
  5
3C
330
5
100
AcDbSymbolTableRecord
100
AcDbLinetypeTableRecord
  2
DASHDOT2
 70
    0
  3
Dash dot (.5x) _._._._._._._._._._._._._._._.
 72
   65
 73
    4
 40
12.7
 49
6.35
 74
    0
 49
-3.175
 74
    0
 49
0
 74
    0
 49
-3.175
 74
    0
  0
LTYPE
  5
3D
330
5
100
AcDbSymbolTableRecord
100
AcDbLinetypeTableRecord
  2
DASHDOTX2
 70
    0
  3
Dash dot (2x) ____  .  ____  .  ____  .  ___
 72
   65
 73
    4
 40
50.8
 49
25.4
 74
    0
 49
-12.7
 74
    0
 49
0
 74
    0
 49
-12.7
 74
    0
  0
LTYPE
  5
3E
330
5
100
AcDbSymbolTableRecord
100
AcDbLinetypeTableRecord
  2
DIVIDE
 70
    0
  3
Divide ____ . . ____ . . ____ . . ____ . . ____
 72
   65
 73
    6
 40
31.75
 49
12.7
 74
    0
 49
-6.35
 74
    0
 49
0
 74
    0
 49
-6.35
 74
    0
 49
0
 74
    0
 49
-6.35
 74
    0
  0
LTYPE
  5
3F
330
5
100
AcDbSymbolTableRecord
100
AcDbLinetypeTableRecord
  2
DIVIDETINY
 70
    0
  3
Divide (.15x) __..__..__..__..__..__..__..__.._
 72
   65
 73
    6
 40
4.7625
 49
1.905
 74
    0
 49
-0.9525
 74
    0
 49
0
 74
    0
 49
-0.9525
 74
    0
 49
0
 74
    0
 49
-0.9525
 74
    0
  0
LTYPE
  5
40
330
5
100
AcDbSymbolTableRecord
100
AcDbLinetypeTableRecord
  2
DIVIDE2
 70
    0
  3
Divide (.5x) __..__..__..__..__..__..__..__.._
 72
   65
 73
    6
 40
15.875
 49
6.35
 74
    0
 49
-3.175
 74
    0
 49
0
 74
    0
 49
-3.175
 74
    0
 49
0
 74
    0
 49
-3.175
 74
    0
  0
LTYPE
  5
41
330
5
100
AcDbSymbolTableRecord
100
AcDbLinetypeTableRecord
  2
DIVIDEX2
 70
    0
  3
Divide (2x) ________  .  .  ________  .  .  _
 72
   65
 73
    6
 40
63.5
 49
25.4
 74
    0
 49
-12.7
 74
    0
 49
0
 74
    0
 49
-12.7
 74
    0
 49
0
 74
    0
 49
-12.7
 74
    0
  0
LTYPE
  5
42
330
5
100
AcDbSymbolTableRecord
100
AcDbLinetypeTableRecord
  2
BORDER
 70
    0
  3
Border __ __ . __ __ . __ __ . __ __ . __ __ .
 72
   65
 73
    6
 40
44.45
 49
12.7
 74
    0
 49
-6.35
 74
    0
 49
12.7
 74
    0
 49
-6.35
 74
    0
 49
0
 74
    0
 49
-6.35
 74
    0
  0
LTYPE
  5
43
330
5
100
AcDbSymbolTableRecord
100
AcDbLinetypeTableRecord
  2
BORDERTINY
 70
    0
  3
Border (.15x) __.__.__.__.__.__.__.__.__.__.__.
 72
   65
 73
    6
 40
6.6675
 49
1.905
 74
    0
 49
-0.9525
 74
    0
 49
1.905
 74
    0
 49
-0.9525
 74
    0
 49
0
 74
    0
 49
-0.9525
 74
    0
  0
LTYPE
  5
44
330
5
100
AcDbSymbolTableRecord
100
AcDbLinetypeTableRecord
  2
BORDER2
 70
    0
  3
Border (.5x) __.__.__.__.__.__.__.__.__.__.__.
 72
   65
 73
    6
 40
22.225
 49
6.35
 74
    0
 49
-3.175
 74
    0
 49
6.35
 74
    0
 49
-3.175
 74
    0
 49
0
 74
    0
 49
-3.175
 74
    0
  0
LTYPE
  5
45
330
5
100
AcDbSymbolTableRecord
100
AcDbLinetypeTableRecord
  2
BORDERX2
 70
    0
  3
Border (2x) ____  ____  .  ____  ____  .  ___
 72
   65
 73
    6
 40
88.89999999999999
 49
25.4
 74
    0
 49
-12.7
 74
    0
 49
25.4
 74
    0
 49
-12.7
 74
    0
 49
0
 74
    0
 49
-12.7
 74
    0
  0
LTYPE
  5
46
330
5
100
AcDbSymbolTableRecord
100
AcDbLinetypeTableRecord
  2
CENTER
 70
    0
  3
Center ____ _ ____ _ ____ _ ____ _ ____ _ ____
 72
   65
 73
    4
 40
50.8
 49
31.75
 74
    0
 49
-6.35
 74
    0
 49
6.35
 74
    0
 49
-6.35
 74
    0
  0
LTYPE
  5
47
330
5
100
AcDbSymbolTableRecord
100
AcDbLinetypeTableRecord
  2
CENTERTINY
 70
    0
  3
Center (.15x) ___ _ ___ _ ___ _ ___ _ ___ _ ___
 72
   65
 73
    4
 40
7.619999999999999
 49
4.7625
 74
    0
 49
-0.9525
 74
    0
 49
0.9525
 74
    0
 49
-0.9525
 74
    0
  0
LTYPE
  5
48
330
5
100
AcDbSymbolTableRecord
100
AcDbLinetypeTableRecord
  2
CENTER2
 70
    0
  3
Center (.5x) ___ _ ___ _ ___ _ ___ _ ___ _ ___
 72
   65
 73
    4
 40
28.575
 49
19.05
 74
    0
 49
-3.175
 74
    0
 49
3.175
 74
    0
 49
-3.175
 74
    0
  0
LTYPE
  5
49
330
5
100
AcDbSymbolTableRecord
100
AcDbLinetypeTableRecord
  2
CENTERX2
 70
    0
  3
Center (2x) ________  __  ________  __  _____
 72
   65
 73
    4
 40
101.6
 49
63.5
 74
    0
 49
-12.7
 74
    0
 49
12.7
 74
    0
 49
-12.7
 74
    0
  0
ENDTAB
  0
TABLE
  2
LAYER
  5
2
330
0
100
AcDbSymbolTable
 70
    1
  0
LAYER
  5
10
330
2
100
AcDbSymbolTableRecord
100
AcDbLayerTableRecord
  2
0
 70
    0
 62
    7
  6
CONTINUOUS
370
   -3
390
F
1001
LibreCad
1070
    1
  0
LAYER
  5
4A
330
2
100
AcDbSymbolTableRecord
100
AcDbLayerTableRecord
  2
balky
 70
    0
 62
  216
420
8388736
  6
CONTINUOUS
370
   35
390
F
  0
LAYER
  5
4B
330
2
100
AcDbSymbolTableRecord
100
AcDbLayerTableRecord
  2
brick
 70
    0
 62
   16
420
8388608
  6
CONTINUOUS
370
   35
390
F
  0
LAYER
  5
4C
330
2
100
AcDbSymbolTableRecord
100
AcDbLayerTableRecord
  2
concrete
 70
    0
 62
  216
420
8388736
  6
CONTINUOUS
370
   35
390
F
  0
LAYER
  5
4D
330
2
100
AcDbSymbolTableRecord
100
AcDbLayerTableRecord
  2
derevo
 70
    4
 62
    2
  6
CONTINUOUS
370
   35
390
F
  0
LAYER
  5
4E
330
2
100
AcDbSymbolTableRecord
100
AcDbLayerTableRecord
  2
dimensions
 70
    0
 62
    4
  6
CONTINUOUS
370
   13
390
F
  0
LAYER
  5
4F
330
2
100
AcDbSymbolTableRecord
100
AcDbLayerTableRecord
  2
epps
 70
    0
 62
   30
420
15042338
  6
CONTINUOUS
370
   35
390
F
  0
LAYER
  5
50
330
2
100
AcDbSymbolTableRecord
100
AcDbLayerTableRecord
  2
fundament
 70
    0
 62
  136
420
32896
  6
CONTINUOUS
370
   35
390
F
  0
LAYER
  5
51
330
2
100
AcDbSymbolTableRecord
100
AcDbLayerTableRecord
  2
gazoblok
 70
    0
 62
   56
420
8421376
  6
CONTINUOUS
370
   35
390
F
  0
LAYER
  5
52
330
2
100
AcDbSymbolTableRecord
100
AcDbLayerTableRecord
  2
kontur
 70
    0
 62
  216
420
8388736
  6
CONTINUOUS
370
   35
390
F
  0
LAYER
  5
53
330
2
100
AcDbSymbolTableRecord
100
AcDbLayerTableRecord
  2
metal
 70
    0
 62
    5
  6
CONTINUOUS
370
   35
390
F
  0
LAYER
  5
54
330
2
100
AcDbSymbolTableRecord
100
AcDbLayerTableRecord
  2
muerlat
 70
    0
 62
    3
  6
CONTINUOUS
370
   35
390
F
  0
LAYER
  5
55
330
2
100
AcDbSymbolTableRecord
100
AcDbLayerTableRecord
  2
plyty
 70
    0
 62
  253
420
10526884
  6
CONTINUOUS
370
   35
390
F
  0
LAYER
  5
56
330
2
100
AcDbSymbolTableRecord
100
AcDbLayerTableRecord
  2
shyfer
 70
    0
 62
   16
420
8388608
  6
CONTINUOUS
370
   35
390
F
  0
LAYER
  5
57
330
2
100
AcDbSymbolTableRecord
100
AcDbLayerTableRecord
  2
stiazhka
 70
    0
 62
    3
  6
CONTINUOUS
370
   35
390
F
  0
LAYER
  5
58
330
2
100
AcDbSymbolTableRecord
100
AcDbLayerTableRecord
  2
styny
 70
    0
 62
   41
420
16376252
  6
CONTINUOUS
370
   35
390
F
  0
LAYER
  5
59
330
2
100
AcDbSymbolTableRecord
100
AcDbLayerTableRecord
  2
u-block
 70
    0
 62
    6
  6
CONTINUOUS
370
   35
390
F
  0
ENDTAB
  0
TABLE
  2
STYLE
  5
3
330
0
100
AcDbSymbolTable
 70
    3
  0
STYLE
  5
5A
330
2
100
AcDbSymbolTableRecord
100
AcDbTextStyleTableRecord
  2
cyrillic_ii
 70
    0
 40
0
 41
1
 50
0
 71
    0
 42
1
  3
cyrillic_ii
  4

  0
STYLE
  5
5B
330
2
100
AcDbSymbolTableRecord
100
AcDbTextStyleTableRecord
  2
Standard
 70
    0
 40
0
 41
1
 50
0
 71
    0
 42
1
  3
txt
  4

  0
ENDTAB
  0
TABLE
  2
VIEW
  5
6
330
0
100
AcDbSymbolTable
 70
    0
  0
ENDTAB
  0
TABLE
  2
UCS
  5
7
330
0
100
AcDbSymbolTable
 70
    0
  0
ENDTAB
  0
TABLE
  2
APPID
  5
9
330
0
100
AcDbSymbolTable
 70
    1
  0
APPID
  5
12
330
9
100
AcDbSymbolTableRecord
100
AcDbRegAppTableRecord
  2
ACAD
 70
    0
  0
APPID
  5
5C
330
9
100
AcDbSymbolTableRecord
100
AcDbRegAppTableRecord
  2
LibreCad
 70
    0
  0
ENDTAB
  0
TABLE
  2
DIMSTYLE
  5
A
330
0
100
AcDbSymbolTable
 70
    1
100
AcDbDimStyleTable
 71
    1
  0
DIMSTYLE
105
5D
330
A
100
AcDbSymbolTableRecord
100
AcDbDimStyleTableRecord
  2
Standard
 70
    0
 40
10
 41
2
 42
1
 43
0.38
 44
2
 45
0
 46
0
 47
0
 48
0
 49
1
140
4
141
0.09
142
2
143
25.4
144
1
145
0
146
1
147
2
148
0
 71
    0
 72
    0
 73
    0
 74
    1
 75
    0
 76
    0
 77
    0
 78
    8
 79
    0
170
    0
171
    2
172
    0
173
    0
174
    0
175
    0
176
    0
177
    0
178
    0
179
    0
271
    1
272
    4
273
    2
274
    2
275
    0
276
    0
277
    2
278
   44
279
    0
280
    0
281
    0
282
    0
283
    1
284
    0
285
    0
286
    0
288
    0
289
    3
340
standard
341

371
   -2
372
   -2
  0
ENDTAB
  0
TABLE
  2
BLOCK_RECORD
  5
1
330
0
100
AcDbSymbolTable
 70
    2
  0
BLOCK_RECORD
  5
1F
330
1
100
AcDbSymbolTableRecord
100
AcDbBlockTableRecord
  2
*Model_Space
 70
    0
280
    1
281
    0
  0
BLOCK_RECORD
  5
1E
330
1
100
AcDbSymbolTableRecord
100
AcDbBlockTableRecord
  2
*Paper_Space
 70
    0
280
    1
281
    0
  0
BLOCK_RECORD
  5
5E
330
1
100
AcDbSymbolTableRecord
100
AcDbBlockTableRecord
  2
*D3
 70
    0
280
    1
281
    0
  0
BLOCK_RECORD
  5
61
330
1
100
AcDbSymbolTableRecord
100
AcDbBlockTableRecord
  2
*D1
 70
    0
280
    1
281
    0
  0
BLOCK_RECORD
  5
64
330
1
100
AcDbSymbolTableRecord
100
AcDbBlockTableRecord
  2
*D2
 70
    0
280
    1
281
    0
  0
BLOCK_RECORD
  5
67
330
1
100
AcDbSymbolTableRecord
100
AcDbBlockTableRecord
  2
block10
 70
    0
280
    1
281
    0
  0
ENDTAB
  0
ENDSEC
  0
SECTION
  2
BLOCKS
  0
BLOCK
  5
20
330
1F
100
AcDbEntity
  8
0
100
AcDbBlockBegin
  2
*Model_Space
 70
    0
 10
0
 20
0
 30
0
  3
*Model_Space
  1

  0
ENDBLK
  5
21
330
1F
100
AcDbEntity
  8
0
100
AcDbBlockEnd
  0
BLOCK
  5
1C
330
1B
100
AcDbEntity
  8
0
100
AcDbBlockBegin
  2
*Paper_Space
 70
    0
 10
0
 20
0
 30
0
  3
*Paper_Space
  1

  0
ENDBLK
  5
1D
330
1F
100
AcDbEntity
  8
0
100
AcDbBlockEnd
  0
BLOCK
  5
5F
330
5E
100
AcDbEntity
  8
0
100
AcDbBlockBegin
  2
*D3
 70
    1
 10
0
 20
0
  3
*D3
  1

  0
LINE
  5
6A
100
AcDbEntity
  8
dimensions
  6
ByBlock
 62
    0
370
   -2
100
AcDbLine
 10
350
 20
1001.086044354027
 11
350
 21
701.0860443540269
  0
LINE
  5
6B
100
AcDbEntity
  8
dimensions
  6
ByBlock
 62
    0
370
   -2
100
AcDbLine
 10
364.142135623731
 20
986.943908730296
 11
335.857864376269
 21
1015.228179977758
  0
LINE
  5
6C
100
AcDbEntity
  8
dimensions
  6
ByBlock
 62
    0
370
   -2
100
AcDbLine
 10
364.142135623731
 20
686.9439087302959
 11
335.857864376269
 21
715.2281799777578
  0
MTEXT
  5
6D
100
AcDbEntity
  8
dimensions
  6
CONTINUOUS
 62
    0
370
   -2
100
AcDbMText
 10
310
 20
851.0860443540269
 30
0
 40
40
 41
80.00000000000247
 71
    5
 72
    1
  1
300
  7
standard
210
0
220
0
230
1
 50
90
 73
    2
 44
1
  0
LINE
  5
6E
100
AcDbEntity
  8
dimensions
  6
ByBlock
 62
    0
370
   -2
100
AcDbLine
 10
490
 20
1001.086044354027
 11
330
 21
1001.086044354027
  0
LINE
  5
6F
100
AcDbEntity
  8
dimensions
  6
ByBlock
 62
    0
370
   -2
100
AcDbLine
 10
490
 20
701.0860443540269
 11
330
 21
701.0860443540269
  0
ENDBLK
  5
60
330
5E
100
AcDbEntity
  8
0
100
AcDbBlockEnd
  0
BLOCK
  5
62
330
61
100
AcDbEntity
  8
0
100
AcDbBlockBegin
  2
*D1
 70
    1
 10
0
 20
0
  3
*D1
  1

  0
LINE
  5
70
100
AcDbEntity
  8
dimensions
  6
ByBlock
 62
    0
370
   -2
100
AcDbLine
 10
505.1336851465986
 20
1009.667726987147
 11
542.3869506322702
 21
1071.941842425882
  0
LINE
  5
71
100
AcDbEntity
  8
dimensions
  6
ByBlock
 62
    0
370
   -2
100
AcDbLine
 10
1065.133685146599
 20
674.6677269871459
 11
1102.386950632271
 21
736.9418424258805
  0
LINE
  5
72
100
AcDbEntity
  8
dimensions
  6
ByBlock
 62
    0
370
   -2
100
AcDbLine
 10
532.1195803390731
 20
1054.778477159642
 11
1092.119580339074
 21
719.7784771596405
  0
LINE
  5
73
100
AcDbEntity
  8
dimensions
  6
ByBlock
 62
    0
370
   -2
100
AcDbLine
 10
551.516039466086
 20
1059.654681968109
 11
512.7231212120602
 21
1049.902272351175
  0
LINE
  5
74
100
AcDbEntity
  8
dimensions
  6
ByBlock
 62
    0
370
   -2
100
AcDbLine
 10
1111.516039466087
 20
724.6546819681074
 11
1072.723121212061
 21
714.9022723511736
  0
MTEXT
  5
75
100
AcDbEntity
  8
dimensions
  6
CONTINUOUS
 62
    0
370
   -2
100
AcDbMText
 10
832.6543209254678
 20
921.605207692121
 30
0
 40
40
 41
126.6666666666741
 71
    5
 72
    1
  1
652,6
  7
standard
210
0
220
0
230
1
 50
329.1115335422163
 73
    2
 44
1
  0
ENDBLK
  5
63
330
61
100
AcDbEntity
  8
0
100
AcDbBlockEnd
  0
BLOCK
  5
65
330
64
100
AcDbEntity
  8
0
100
AcDbBlockBegin
  2
*D2
 70
    1
 10
0
 20
0
  3
*D2
  1

  0
LINE
  5
76
100
AcDbEntity
  8
dimensions
  6
ByBlock
 62
    0
370
   -2
100
AcDbLine
 10
-65.13368514659858
 20
674.6677269871468
 11
-101.5706570524211
 21
735.577291964044
  0
LINE
  5
77
100
AcDbEntity
  8
dimensions
  6
ByBlock
 62
    0
370
   -2
100
AcDbLine
 10
494.8663148534014
 20
1009.667726987147
 11
458.429342947579
 21
1070.577291964044
  0
LINE
  5
78
100
AcDbEntity
  8
dimensions
  6
ByBlock
 62
    0
370
   -2
100
AcDbLine
 10
-91.30328675922391
 20
718.413926697804
 11
468.6967132407761
 21
1053.413926697804
  0
LINE
  5
79
100
AcDbEntity
  8
dimensions
  6
ByBlock
 62
    0
370
   -2
100
AcDbLine
 10
-86.42708195075697
 20
737.8103858248169
 11
-96.17949156769085
 21
699.017467570791
  0
LINE
  5
7A
100
AcDbEntity
  8
dimensions
  6
ByBlock
 62
    0
370
   -2
100
AcDbLine
 10
473.572918049243
 20
1072.810385824817
 11
463.8205084323092
 21
1034.017467570791
  0
MTEXT
  5
7B
100
AcDbEntity
  8
dimensions
  6
CONTINUOUS
 62
    0
370
   -2
100
AcDbMText
 10
168.1619726543822
 20
920.240657230283
 30
0
 40
40
 41
126.6666666666741
 71
    5
 72
    1
  1
652,6
  7
standard
210
0
220
0
230
1
 50
30.88846645778375
 73
    2
 44
1
  0
ENDBLK
  5
66
330
64
100
AcDbEntity
  8
0
100
AcDbBlockEnd
  0
BLOCK
  5
68
330
67
100
AcDbEntity
  8
0
100
AcDbBlockBegin
  2
block10
 70
    0
 10
0
 20
0
  3
block10
  1

  0
LWPOLYLINE
  5
7C
100
AcDbEntity
  8
0
  6
CONTINUOUS
 62
    7
370
   70
100
AcDbPolyline
 90
   12
 70
    1
 43
0
 10
-0.6062178
 20
1
 10
0
 20
0
 10
0.6062178
 20
1
 10
1.8186533
 20
1
 10
1.2124356
 20
2
 10
1.8186533
 20
3
 10
0.6062178
 20
3
 10
0
 20
4
 10
-0.6062178
 20
3
 10
-1.8186533
 20
3
 10
-1.2124356
 20
2
 10
-1.8186533
 20
1
  0
ENDBLK
  5
69
330
67
100
AcDbEntity
  8
0
100
AcDbBlockEnd
  0
ENDSEC
  0
SECTION
  2
ENTITIES
  0
HATCH
  5
7D
100
AcDbEntity
  8
metal
  6
ByLayer
 62
  256
370
   -1
100
AcDbHatch
 10
0
 20
0
 30
0
210
0
220
0
230
1
  2
gost_metal
 70
    0
 71
    0
 91
    1
 92
    0
 93
   16
 72
    1
 10
1199.700000000001
 20
50.90000000000001
 11
1199.6
 21
50.8
 72
    1
 10
1199.6
 20
50.8
 11
1196.4
 21
50.8
 72
    1
 10
1196.4
 20
50.8
 11
1196.3
 21
50.90000000000001
 72
    1
 10
1196.3
 20
50.90000000000001
 11
1196.3
 21
54.1
 72
    1
 10
1196.3
 20
54.1
 11
1196.400000000001
 21
54.2
 72
    1
 10
1196.400000000001
 20
54.2
 11
1199.6
 21
54.2
 72
    1
 10
1196
 20
54.2
 11
1196.3
 21
54.5
 72
    1
 10
1196.3
 20
54.5
 11
1199.700000000001
 21
54.5
 72
    1
 10
1199.700000000001
 20
54.5
 11
1200
 21
54.2
 72
    1
 10
1200
 20
54.2
 11
1200
 21
50.8
 72
    1
 10
1200
 20
50.8
 11
1199.700000000001
 21
50.5
 72
    1
 10
1199.700000000001
 20
50.5
 11
1196.3
 21
50.5
 72
    1
 10
1196.3
 20
50.5
 11
1196
 21
50.8
 72
    1
 10
1196
 20
50.8
 11
1196
 21
54.2
 72
    1
 10
1199.6
 20
54.2
 11
1199.700000000001
 21
54.1
 72
    1
 10
1199.700000000001
 20
54.1
 11
1199.700000000001
 21
50.90000000000001
 97
    0
 75
    0
 76
    1
 52
0
 41
0.1
 77
    0
 78
    0
 98
    0
  0
HATCH
  5
7E
100
AcDbEntity
  8
stiazhka
  6
ByLayer
 62
  256
370
   -1
100
AcDbHatch
 10
0
 20
0
 30
0
210
0
220
0
230
1
  2
gost_concrete
 70
    0
 71
    0
 91
    1
 92
    0
 93
    4
 72
    1
 10
1200
 20
50
 11
1200
 21
40
 72
    1
 10
1200
 20
40
 11
1170
 21
40
 72
    1
 10
1170
 20
40
 11
1170
 21
50
 72
    1
 10
1170
 20
50
 11
1200
 21
50
 97
    0
 75
    0
 76
    1
 52
1.570796326794897
 41
0.5
 77
    0
 78
    0
 98
    0
  0
HATCH
  5
7F
100
AcDbEntity
  8
fundament
  6
ByLayer
 62
  256
370
   -1
100
AcDbHatch
 10
0
 20
0
 30
0
210
0
220
0
230
1
  2
gost_concrete
 70
    0
 71
    0
 91
    1
 92
    0
 93
    4
 72
    1
 10
1170
 20
40
 11
1170
 21
0
 72
    1
 10
1170
 20
0
 11
1200
 21
0
 72
    1
 10
1200
 20
0
 11
1200
 21
40
 72
    1
 10
1200
 20
40
 11
1170
 21
40
 97
    0
 75
    0
 76
    1
 52
0
 41
1
 77
    0
 78
    0
 98
    0
  0
HATCH
  5
80
100
AcDbEntity
  8
stiazhka
  6
ByLayer
 62
  256
370
   -1
100
AcDbHatch
 10
0
 20
0
 30
0
210
0
220
0
230
1
  2
gost_concrete
 70
    0
 71
    0
 91
    1
 92
    0
 93
    4
 72
    1
 10
549
 20
50
 11
951
 21
50
 72
    1
 10
951
 20
50
 11
951
 21
45
 72
    1
 10
951
 20
45
 11
549
 21
45
 72
    1
 10
549
 20
45
 11
549
 21
50
 97
    0
 75
    0
 76
    1
 52
1.570796326794897
 41
0.5
 77
    0
 78
    0
 98
    0
  0
HATCH
  5
81
100
AcDbEntity
  8
epps
  6
ByLayer
 62
  256
370
   -1
100
AcDbHatch
 10
0
 20
0
 30
0
210
0
220
0
230
1
  2
gost_non-metal
 70
    0
 71
    0
 91
    1
 92
    0
 93
    4
 72
    1
 10
951
 20
40
 11
951
 21
45
 72
    1
 10
951
 20
45
 11
549
 21
45
 72
    1
 10
549
 20
45
 11
549
 21
40
 72
    1
 10
549
 20
40
 11
951
 21
40
 97
    0
 75
    0
 76
    1
 52
0
 41
1
 77
    0
 78
    0
 98
    0
  0
HATCH
  5
82
100
AcDbEntity
  8
epps
  6
ByLayer
 62
  256
370
   -1
100
AcDbHatch
 10
0
 20
0
 30
0
210
0
220
0
230
1
  2
gost_non-metal
 70
    0
 71
    0
 91
    1
 92
    0
 93
    4
 72
    1
 10
373
 20
40
 11
505
 21
40
 72
    1
 10
505
 20
40
 11
505
 21
45
 72
    1
 10
505
 20
45
 11
373
 21
45
 72
    1
 10
373
 20
45
 11
373
 21
40
 97
    0
 75
    0
 76
    1
 52
0
 41
1
 77
    0
 78
    0
 98
    0
  0
HATCH
  5
83
100
AcDbEntity
  8
stiazhka
  6
ByLayer
 62
  256
370
   -1
100
AcDbHatch
 10
0
 20
0
 30
0
210
0
220
0
230
1
  2
gost_concrete
 70
    0
 71
    0
 91
    1
 92
    0
 93
    4
 72
    1
 10
373
 20
50
 11
505
 21
50
 72
    1
 10
505
 20
50
 11
505
 21
45
 72
    1
 10
505
 20
45
 11
373
 21
45
 72
    1
 10
373
 20
45
 11
373
 21
50
 97
    0
 75
    0
 76
    1
 52
1.570796326794897
 41
0.5
 77
    0
 78
    0
 98
    0
  0
HATCH
  5
84
100
AcDbEntity
  8
epps
  6
ByLayer
 62
  256
370
   -1
100
AcDbHatch
 10
0
 20
0
 30
0
210
0
220
0
230
1
  2
gost_non-metal
 70
    0
 71
    0
 91
    1
 92
    0
 93
    4
 72
    1
 10
49
 20
45
 11
49
 21
40
 72
    1
 10
49
 20
40
 11
342
 21
40
 72
    1
 10
342
 20
40
 11
342
 21
45
 72
    1
 10
342
 20
45
 11
49
 21
45
 97
    0
 75
    0
 76
    1
 52
0
 41
1
 77
    0
 78
    0
 98
    0
  0
HATCH
  5
85
100
AcDbEntity
  8
epps
  6
ByLayer
 62
  256
370
   -1
100
AcDbHatch
 10
0
 20
0
 30
0
210
0
220
0
230
1
  2
gost_non-metal
 70
    0
 71
    0
 91
    1
 92
    0
 93
    4
 72
    1
 10
46
 20
50
 11
49
 21
50
 72
    1
 10
49
 20
50
 11
49
 21
40
 72
    1
 10
49
 20
40
 11
46
 21
40
 72
    1
 10
46
 20
40
 11
46
 21
50
 97
    0
 75
    0
 76
    1
 52
0
 41
1
 77
    0
 78
    0
 98
    0
  0
HATCH
  5
86
100
AcDbEntity
  8
epps
  6
ByLayer
 62
  256
370
   -1
100
AcDbHatch
 10
0
 20
0
 30
0
210
0
220
0
230
1
  2
gost_non-metal
 70
    0
 71
    0
 91
    1
 92
    0
 93
    4
 72
    1
 10
345
 20
40
 11
342
 21
40
 72
    1
 10
342
 20
40
 11
342
 21
50
 72
    1
 10
342
 20
50
 11
345
 21
50
 72
    1
 10
345
 20
50
 11
345
 21
40
 97
    0
 75
    0
 76
    1
 52
0
 41
1
 77
    0
 78
    0
 98
    0
  0
HATCH
  5
87
100
AcDbEntity
  8
epps
  6
ByLayer
 62
  256
370
   -1
100
AcDbHatch
 10
0
 20
0
 30
0
210
0
220
0
230
1
  2
gost_non-metal
 70
    0
 71
    0
 91
    1
 92
    0
 93
    4
 72
    1
 10
370
 20
50
 11
373
 21
50
 72
    1
 10
373
 20
50
 11
373
 21
40
 72
    1
 10
373
 20
40
 11
370
 21
40
 72
    1
 10
370
 20
40
 11
370
 21
50
 97
    0
 75
    0
 76
    1
 52
0
 41
1
 77
    0
 78
    0
 98
    0
  0
HATCH
  5
88
100
AcDbEntity
  8
epps
  6
ByLayer
 62
  256
370
   -1
100
AcDbHatch
 10
0
 20
0
 30
0
210
0
220
0
230
1
  2
gost_non-metal
 70
    0
 71
    0
 91
    1
 92
    0
 93
    4
 72
    1
 10
508
 20
40
 11
505
 21
40
 72
    1
 10
505
 20
40
 11
505
 21
50
 72
    1
 10
505
 20
50
 11
508
 21
50
 72
    1
 10
508
 20
50
 11
508
 21
40
 97
    0
 75
    0
 76
    1
 52
0
 41
1
 77
    0
 78
    0
 98
    0
  0
HATCH
  5
89
100
AcDbEntity
  8
stiazhka
  6
ByLayer
 62
  256
370
   -1
100
AcDbHatch
 10
0
 20
0
 30
0
210
0
220
0
230
1
  2
gost_concrete
 70
    0
 71
    0
 91
    1
 92
    0
 93
    4
 72
    1
 10
49
 20
45
 11
49
 21
50
 72
    1
 10
49
 20
50
 11
342
 21
50
 72
    1
 10
342
 20
50
 11
342
 21
45
 72
    1
 10
342
 20
45
 11
49
 21
45
 97
    0
 75
    0
 76
    1
 52
1.570796326794897
 41
0.5
 77
    0
 78
    0
 98
    0
  0
HATCH
  5
8A
100
AcDbEntity
  8
fundament
  6
ByLayer
 62
  256
370
   -1
100
AcDbHatch
 10
0
 20
0
 30
0
210
0
220
0
230
1
  2
gost_concrete
 70
    0
 71
    0
 91
    1
 92
    0
 93
    8
 72
    1
 10
888
 20
0
 11
893
 21
-10
 72
    1
 10
893
 20
-10
 11
903
 21
10
 72
    1
 10
903
 20
10
 11
908
 21
0
 72
    1
 10
908
 20
0
 11
1000
 21
0
 72
    1
 10
1000
 20
0
 11
1000
 21
40
 72
    1
 10
1000
 20
40
 11
0
 21
40
 72
    1
 10
0
 20
40
 11
0
 21
0
 72
    1
 10
0
 20
0
 11
888
 21
0
 97
    0
 75
    0
 76
    1
 52
0
 41
1
 77
    0
 78
    0
 98
    0
  0
HATCH
  5
8B
100
AcDbEntity
  8
epps
  6
ByLayer
 62
  256
370
   -1
100
AcDbHatch
 10
0
 20
0
 30
0
210
0
220
0
230
1
  2
gost_non-metal
 70
    0
 71
    0
 91
    1
 92
    0
 93
    4
 72
    1
 10
951
 20
50
 11
954
 21
50
 72
    1
 10
954
 20
50
 11
954
 21
40
 72
    1
 10
954
 20
40
 11
951
 21
40
 72
    1
 10
951
 20
40
 11
951
 21
50
 97
    0
 75
    0
 76
    1
 52
0
 41
1
 77
    0
 78
    0
 98
    0
  0
HATCH
  5
8C
100
AcDbEntity
  8
epps
  6
ByLayer
 62
  256
370
   -1
100
AcDbHatch
 10
0
 20
0
 30
0
210
0
220
0
230
1
  2
gost_non-metal
 70
    0
 71
    0
 91
    1
 92
    0
 93
    4
 72
    1
 10
546
 20
50
 11
549
 21
50
 72
    1
 10
549
 20
50
 11
549
 21
40
 72
    1
 10
549
 20
40
 11
546
 21
40
 72
    1
 10
546
 20
40
 11
546
 21
50
 97
    0
 75
    0
 76
    1
 52
0
 41
1
 77
    0
 78
    0
 98
    0
  0
HATCH
  5
8D
100
AcDbEntity
  8
brick
  6
ByLayer
 62
  256
370
   -1
100
AcDbHatch
 10
0
 20
0
 30
0
210
0
220
0
230
1
  2
gost_ferroconcrete
 70
    0
 71
    0
 91
    1
 92
    0
 93
    4
 72
    1
 10
999.9999999999991
 20
693
 11
988
 21
693
 72
    1
 10
988
 20
693
 11
988.0000000000009
 21
670
 72
    1
 10
988.0000000000009
 20
670
 11
1000
 21
670
 72
    1
 10
1000
 20
670
 11
999.9999999999991
 21
693
 97
    0
 75
    0
 76
    1
 52
0
 41
1
 77
    0
 78
    0
 98
    0
  0
HATCH
  5
8E
100
AcDbEntity
  8
epps
  6
ByLayer
 62
  256
370
   -1
100
AcDbHatch
 10
0
 20
0
 30
0
210
0
220
0
230
1
  2
gost_non-metal
 70
    0
 71
    0
 91
    1
 92
    0
 93
    4
 72
    1
 10
983
 20
651
 11
988
 21
651
 72
    1
 10
988
 20
651
 11
988
 21
674
 72
    1
 10
988
 20
674
 11
983
 21
674
 72
    1
 10
983
 20
674
 11
983
 21
651
 97
    0
 75
    0
 76
    1
 52
1.570796326794897
 41
1
 77
    0
 78
    0
 98
    0
  0
HATCH
  5
8F
100
AcDbEntity
  8
brick
  6
ByLayer
 62
  256
370
   -1
100
AcDbHatch
 10
0
 20
0
 30
0
210
0
220
0
230
1
  2
gost_ferroconcrete
 70
    0
 71
    0
 91
    1
 92
    0
 93
    4
 72
    1
 10
987
 20
682
 11
962
 21
682
 72
    1
 10
962
 20
682
 11
962
 21
674
 72
    1
 10
962
 20
674
 11
987
 21
674
 72
    1
 10
987
 20
674
 11
987
 21
682
 97
    0
 75
    0
 76
    1
 52
0
 41
1
 77
    0
 78
    0
 98
    0
  0
HATCH
  5
90
100
AcDbEntity
  8
concrete
  6
ByLayer
 62
  256
370
   -1
100
AcDbHatch
 10
0
 20
0
 30
0
210
0
220
0
230
1
  2
gost_concrete
 70
    0
 71
    0
 91
    1
 92
    0
 93
    4
 72
    1
 10
959
 20
651
 11
977
 21
651
 72
    1
 10
977
 20
651
 11
976
 21
637
 72
    1
 10
976
 20
637
 11
960
 21
637
 72
    1
 10
960
 20
637
 11
959
 21
651
 97
    0
 75
    0
 76
    1
 52
1.570796326794897
 41
1
 77
    0
 78
    0
 98
    0
  0
HATCH
  5
91
100
AcDbEntity
  8
u-block
  6
ByLayer
 62
  256
370
   -1
100
AcDbHatch
 10
0
 20
0
 30
0
210
0
220
0
230
1
  2
gost_ceramics
 70
    0
 71
    0
 91
    1
 92
    0
 93
    8
 72
    1
 10
954
 20
631
 11
984
 21
631
 72
    1
 10
984
 20
631
 11
984
 21
651
 72
    1
 10
984
 20
651
 11
977
 21
651
 72
    1
 10
977
 20
651
 11
976
 21
637
 72
    1
 10
976
 20
637
 11
960
 21
637
 72
    1
 10
960
 20
637
 11
959
 21
651
 72
    1
 10
959
 20
651
 11
954
 21
651
 72
    1
 10
954
 20
651
 11
954
 21
631
 97
    0
 75
    0
 76
    1
 52
0
 41
2
 77
    0
 78
    0
 98
    0
  0
HATCH
  5
92
100
AcDbEntity
  8
gazoblok
  6
ByLayer
 62
  256
370
   -1
100
AcDbHatch
 10
0
 20
0
 30
0
210
0
220
0
230
1
  2
gost_stone
 70
    0
 71
    0
 91
    1
 92
    0
 93
    4
 72
    1
 10
954
 20
367
 11
954
 21
631
 72
    1
 10
954
 20
631
 11
984
 21
631
 72
    1
 10
984
 20
631
 11
984
 21
367
 72
    1
 10
984
 20
367
 11
954
 21
367
 97
    0
 75
    0
 76
    1
 52
0
 41
2
 77
    0
 78
    0
 98
    0
  0
HATCH
  5
93
100
AcDbEntity
  8
metal
  6
ByLayer
 62
  256
370
   -1
100
AcDbHatch
 10
0
 20
0
 30
0
210
0
220
0
230
1
  2
SOLID
 70
    1
 71
    0
 91
    1
 92
    0
 93
    1
 72
    2
 10
974
 20
639.4000000000001
 40
0.4000000000000004
 50
0
 51
360
 73
    1
 97
    0
 75
    0
 76
    1
 98
    0
  0
HATCH
  5
94
100
AcDbEntity
  8
metal
  6
ByLayer
 62
  256
370
   -1
100
AcDbHatch
 10
0
 20
0
 30
0
210
0
220
0
230
1
  2
SOLID
 70
    1
 71
    0
 91
    1
 92
    0
 93
    1
 72
    2
 10
974
 20
648.5999999999999
 40
0.4000000000000021
 50
0
 51
360
 73
    1
 97
    0
 75
    0
 76
    1
 98
    0
  0
HATCH
  5
95
100
AcDbEntity
  8
metal
  6
ByLayer
 62
  256
370
   -1
100
AcDbHatch
 10
0
 20
0
 30
0
210
0
220
0
230
1
  2
SOLID
 70
    1
 71
    0
 91
    1
 92
    0
 93
    1
 72
    2
 10
962
 20
639.4000000000001
 40
0.4000000000000004
 50
0
 51
360
 73
    1
 97
    0
 75
    0
 76
    1
 98
    0
  0
HATCH
  5
96
100
AcDbEntity
  8
metal
  6
ByLayer
 62
  256
370
   -1
100
AcDbHatch
 10
0
 20
0
 30
0
210
0
220
0
230
1
  2
SOLID
 70
    1
 71
    0
 91
    1
 92
    0
 93
    1
 72
    2
 10
962
 20
648.5999999999999
 40
0.4000000000000021
 50
0
 51
360
 73
    1
 97
    0
 75
    0
 76
    1
 98
    0
  0
HATCH
  5
97
100
AcDbEntity
  8
muerlat
  6
ByLayer
 62
  256
370
   -1
100
AcDbHatch
 10
0
 20
0
 30
0
210
0
220
0
230
1
  2
gost_wood
 70
    0
 71
    0
 91
    1
 92
    0
 93
    4
 72
    1
 10
983
 20
696.9596491228808
 11
968
 21
696.9596491228808
 72
    1
 10
968
 20
696.9596491228808
 11
968
 21
681.9596491228808
 72
    1
 10
968
 20
681.9596491228808
 11
983
 21
681.9596491228808
 72
    1
 10
983
 20
681.9596491228808
 11
983
 21
696.9596491228808
 97
    0
 75
    0
 76
    1
 52
0
 41
1
 77
    0
 78
    0
 98
    0
  0
HATCH
  5
98
100
AcDbEntity
  8
metal
  6
ByLayer
 62
  256
370
   -1
100
AcDbHatch
 10
0
 20
0
 30
0
210
0
220
0
230
1
  2
SOLID
 70
    1
 71
    0
 91
    1
 92
    0
 93
    1
 72
    2
 10
976.8999999999992
 20
362.5999999999999
 40
0.4000000000000021
 50
0
 51
360
 73
    1
 97
    0
 75
    0
 76
    1
 98
    0
  0
HATCH
  5
99
100
AcDbEntity
  8
metal
  6
ByLayer
 62
  256
370
   -1
100
AcDbHatch
 10
0
 20
0
 30
0
210
0
220
0
230
1
  2
SOLID
 70
    1
 71
    0
 91
    1
 92
    0
 93
    1
 72
    2
 10
976.8999999999992
 20
348.4000000000001
 40
0.4000000000000021
 50
0
 51
360
 73
    1
 97
    0
 75
    0
 76
    1
 98
    0
  0
HATCH
  5
9A
100
AcDbEntity
  8
metal
  6
ByLayer
 62
  256
370
   -1
100
AcDbHatch
 10
0
 20
0
 30
0
210
0
220
0
230
1
  2
SOLID
 70
    1
 71
    0
 91
    1
 92
    0
 93
    1
 72
    2
 10
962
 20
341.5999999999999
 40
0.4000000000000021
 50
0
 51
360
 73
    1
 97
    0
 75
    0
 76
    1
 98
    0
  0
HATCH
  5
9B
100
AcDbEntity
  8
metal
  6
ByLayer
 62
  256
370
   -1
100
AcDbHatch
 10
0
 20
0
 30
0
210
0
220
0
230
1
  2
SOLID
 70
    1
 71
    0
 91
    1
 92
    0
 93
    1
 72
    2
 10
962
 20
332.4000000000001
 40
0.4000000000000004
 50
0
 51
360
 73
    1
 97
    0
 75
    0
 76
    1
 98
    0
  0
HATCH
  5
9C
100
AcDbEntity
  8
metal
  6
ByLayer
 62
  256
370
   -1
100
AcDbHatch
 10
0
 20
0
 30
0
210
0
220
0
230
1
  2
SOLID
 70
    1
 71
    0
 91
    1
 92
    0
 93
    1
 72
    2
 10
974
 20
341.5999999999999
 40
0.4000000000000021
 50
0
 51
360
 73
    1
 97
    0
 75
    0
 76
    1
 98
    0
  0
HATCH
  5
9D
100
AcDbEntity
  8
metal
  6
ByLayer
 62
  256
370
   -1
100
AcDbHatch
 10
0
 20
0
 30
0
210
0
220
0
230
1
  2
SOLID
 70
    1
 71
    0
 91
    1
 92
    0
 93
    1
 72
    2
 10
974
 20
332.4000000000001
 40
0.4000000000000004
 50
0
 51
360
 73
    1
 97
    0
 75
    0
 76
    1
 98
    0
  0
HATCH
  5
9E
100
AcDbEntity
  8
u-block
  6
ByLayer
 62
  256
370
   -1
100
AcDbHatch
 10
0
 20
0
 30
0
210
0
220
0
230
1
  2
gost_ceramics
 70
    0
 71
    0
 91
    1
 92
    0
 93
    8
 72
    1
 10
984
 20
344
 11
977
 21
344
 72
    1
 10
977
 20
344
 11
976
 21
330
 72
    1
 10
976
 20
330
 11
960
 21
330
 72
    1
 10
960
 20
330
 11
959
 21
344
 72
    1
 10
959
 20
344
 11
954
 21
344
 72
    1
 10
954
 20
344
 11
954
 21
324
 72
    1
 10
954
 20
324
 11
984
 21
324
 72
    1
 10
984
 20
324
 11
984
 21
344
 97
    0
 75
    0
 76
    1
 52
0
 41
2
 77
    0
 78
    0
 98
    0
  0
HATCH
  5
9F
100
AcDbEntity
  8
concrete
  6
ByLayer
 62
  256
370
   -1
100
AcDbHatch
 10
0
 20
0
 30
0
210
0
220
0
230
1
  2
gost_concrete
 70
    0
 71
    0
 91
    1
 92
    0
 93
    4
 72
    1
 10
976
 20
330
 11
960
 21
330
 72
    1
 10
960
 20
330
 11
959
 21
344
 72
    1
 10
959
 20
344
 11
977
 21
344
 72
    1
 10
977
 20
344
 11
976
 21
330
 97
    0
 75
    0
 76
    1
 52
1.570796326794897
 41
1
 77
    0
 78
    0
 98
    0
  0
HATCH
  5
A0
100
AcDbEntity
  8
epps
  6
ByLayer
 62
  256
370
   -1
100
AcDbHatch
 10
0
 20
0
 30
0
210
0
220
0
230
1
  2
gost_non-metal
 70
    0
 71
    0
 91
    1
 92
    0
 93
    4
 72
    1
 10
988
 20
367
 11
983
 21
367
 72
    1
 10
983
 20
367
 11
983
 21
344
 72
    1
 10
983
 20
344
 11
988
 21
344
 72
    1
 10
988
 20
344
 11
988
 21
367
 97
    0
 75
    0
 76
    1
 52
1.570796326794897
 41
1
 77
    0
 78
    0
 98
    0
  0
HATCH
  5
A1
100
AcDbEntity
  8
metal
  6
ByLayer
 62
  256
370
   -1
100
AcDbHatch
 10
0
 20
0
 30
0
210
0
220
0
230
1
  2
SOLID
 70
    1
 71
    0
 91
    1
 92
    0
 93
    1
 72
    2
 10
976.5
 20
669.5999999999999
 40
0.4000000000000021
 50
0
 51
360
 73
    1
 97
    0
 75
    0
 76
    1
 98
    0
  0
HATCH
  5
A2
100
AcDbEntity
  8
metal
  6
ByLayer
 62
  256
370
   -1
100
AcDbHatch
 10
0
 20
0
 30
0
210
0
220
0
230
1
  2
SOLID
 70
    1
 71
    0
 91
    1
 92
    0
 93
    1
 72
    2
 10
976.5
 20
655.4000000000001
 40
0.4000000000000021
 50
0
 51
360
 73
    1
 97
    0
 75
    0
 76
    1
 98
    0
  0
HATCH
  5
A3
100
AcDbEntity
  8
gazoblok
  6
ByLayer
 62
  256
370
   -1
100
AcDbHatch
 10
0
 20
0
 30
0
210
0
220
0
230
1
  2
gost_stone
 70
    0
 71
    0
 91
    1
 92
    0
 93
    4
 72
    1
 10
954
 20
324
 11
984
 21
324
 72
    1
 10
984
 20
324
 11
984
 21
40
 72
    1
 10
984
 20
40
 11
954
 21
40
 72
    1
 10
954
 20
40
 11
954
 21
324
 97
    0
 75
    0
 76
    1
 52
0
 41
2
 77
    0
 78
    0
 98
    0
  0
HATCH
  5
A4
100
AcDbEntity
  8
styny
  6
ByLayer
 62
  256
370
   -1
100
AcDbHatch
 10
0
 20
0
 30
0
210
0
220
0
230
1
  2
gost_stone
 70
    0
 71
    0
 91
    1
 92
    0
 93
    4
 72
    1
 10
1000
 20
40
 11
988
 21
40
 72
    1
 10
988
 20
40
 11
988.0000000000009
 21
670
 72
    1
 10
988.0000000000009
 20
670
 11
1000.000000000001
 21
670.0000000000441
 72
    1
 10
1000.000000000001
 20
670.0000000000441
 11
1000
 21
40
 97
    0
 75
    0
 76
    1
 52
1.570796326794897
 41
1
 77
    0
 78
    0
 98
    0
  0
HATCH
  5
A5
100
AcDbEntity
  8
styny
  6
ByLayer
 62
  256
370
   -1
100
AcDbHatch
 10
0
 20
0
 30
0
210
0
220
0
230
1
  2
gost_stone
 70
    0
 71
    0
 91
    1
 92
    0
 93
    4
 72
    1
 10
11.99999999999909
 20
670
 11
-9.094947017729282e-13
 21
670.0000000000441
 72
    1
 10
-9.094947017729282e-13
 20
670.0000000000441
 11
0
 21
40
 72
    1
 10
0
 20
40
 11
12
 21
40
 72
    1
 10
12
 20
40
 11
11.99999999999909
 21
670
 97
    0
 75
    0
 76
    1
 52
4.71238898038469
 41
1
 77
    0
 78
    0
 98
    0
  0
HATCH
  5
A6
100
AcDbEntity
  8
gazoblok
  6
ByLayer
 62
  256
370
   -1
100
AcDbHatch
 10
0
 20
0
 30
0
210
0
220
0
230
1
  2
gost_stone
 70
    0
 71
    0
 91
    1
 92
    0
 93
    4
 72
    1
 10
16
 20
40
 11
46
 21
40
 72
    1
 10
46
 20
40
 11
46
 21
324
 72
    1
 10
46
 20
324
 11
16
 21
324
 72
    1
 10
16
 20
324
 11
16
 21
40
 97
    0
 75
    0
 76
    1
 52
3.141592653589793
 41
2
 77
    0
 78
    0
 98
    0
  0
HATCH
  5
A7
100
AcDbEntity
  8
metal
  6
ByLayer
 62
  256
370
   -1
100
AcDbHatch
 10
0
 20
0
 30
0
210
0
220
0
230
1
  2
SOLID
 70
    1
 71
    0
 91
    1
 92
    0
 93
    1
 72
    2
 10
23.5
 20
655.4000000000001
 40
0.4000000000000021
 50
0
 51
360
 73
    1
 97
    0
 75
    0
 76
    1
 98
    0
  0
HATCH
  5
A8
100
AcDbEntity
  8
metal
  6
ByLayer
 62
  256
370
   -1
100
AcDbHatch
 10
0
 20
0
 30
0
210
0
220
0
230
1
  2
SOLID
 70
    1
 71
    0
 91
    1
 92
    0
 93
    1
 72
    2
 10
23.5
 20
669.5999999999999
 40
0.4000000000000021
 50
0
 51
360
 73
    1
 97
    0
 75
    0
 76
    1
 98
    0
  0
HATCH
  5
A9
100
AcDbEntity
  8
epps
  6
ByLayer
 62
  256
370
   -1
100
AcDbHatch
 10
0
 20
0
 30
0
210
0
220
0
230
1
  2
gost_non-metal
 70
    0
 71
    0
 91
    1
 92
    0
 93
    4
 72
    1
 10
17
 20
344
 11
12
 21
344
 72
    1
 10
12
 20
344
 11
12
 21
367
 72
    1
 10
12
 20
367
 11
17
 21
367
 72
    1
 10
17
 20
367
 11
17
 21
344
 97
    0
 75
    0
 76
    1
 52
4.71238898038469
 41
1
 77
    0
 78
    0
 98
    0
  0
HATCH
  5
AA
100
AcDbEntity
  8
concrete
  6
ByLayer
 62
  256
370
   -1
100
AcDbHatch
 10
0
 20
0
 30
0
210
0
220
0
230
1
  2
gost_concrete
 70
    0
 71
    0
 91
    1
 92
    0
 93
    4
 72
    1
 10
41
 20
344
 11
23
 21
344
 72
    1
 10
23
 20
344
 11
24
 21
330
 72
    1
 10
24
 20
330
 11
40
 21
330
 72
    1
 10
40
 20
330
 11
41
 21
344
 97
    0
 75
    0
 76
    1
 52
4.71238898038469
 41
1
 77
    0
 78
    0
 98
    0
  0
HATCH
  5
AB
100
AcDbEntity
  8
u-block
  6
ByLayer
 62
  256
370
   -1
100
AcDbHatch
 10
0
 20
0
 30
0
210
0
220
0
230
1
  2
gost_ceramics
 70
    0
 71
    0
 91
    1
 92
    0
 93
    8
 72
    1
 10
24
 20
330
 11
40
 21
330
 72
    1
 10
40
 20
330
 11
41
 21
344
 72
    1
 10
41
 20
344
 11
46
 21
344
 72
    1
 10
46
 20
344
 11
46
 21
324
 72
    1
 10
46
 20
324
 11
16
 21
324
 72
    1
 10
16
 20
324
 11
16
 21
344
 72
    1
 10
16
 20
344
 11
23
 21
344
 72
    1
 10
23
 20
344
 11
24
 21
330
 97
    0
 75
    0
 76
    1
 52
3.141592653589793
 41
2
 77
    0
 78
    0
 98
    0
  0
HATCH
  5
AC
100
AcDbEntity
  8
metal
  6
ByLayer
 62
  256
370
   -1
100
AcDbHatch
 10
0
 20
0
 30
0
210
0
220
0
230
1
  2
SOLID
 70
    1
 71
    0
 91
    1
 92
    0
 93
    1
 72
    2
 10
26
 20
332.4000000000001
 40
0.4000000000000004
 50
0
 51
360
 73
    1
 97
    0
 75
    0
 76
    1
 98
    0
  0
HATCH
  5
AD
100
AcDbEntity
  8
metal
  6
ByLayer
 62
  256
370
   -1
100
AcDbHatch
 10
0
 20
0
 30
0
210
0
220
0
230
1
  2
SOLID
 70
    1
 71
    0
 91
    1
 92
    0
 93
    1
 72
    2
 10
26
 20
341.5999999999999
 40
0.4000000000000021
 50
0
 51
360
 73
    1
 97
    0
 75
    0
 76
    1
 98
    0
  0
HATCH
  5
AE
100
AcDbEntity
  8
metal
  6
ByLayer
 62
  256
370
   -1
100
AcDbHatch
 10
0
 20
0
 30
0
210
0
220
0
230
1
  2
SOLID
 70
    1
 71
    0
 91
    1
 92
    0
 93
    1
 72
    2
 10
38
 20
332.4000000000001
 40
0.4000000000000004
 50
0
 51
360
 73
    1
 97
    0
 75
    0
 76
    1
 98
    0
  0
HATCH
  5
AF
100
AcDbEntity
  8
metal
  6
ByLayer
 62
  256
370
   -1
100
AcDbHatch
 10
0
 20
0
 30
0
210
0
220
0
230
1
  2
SOLID
 70
    1
 71
    0
 91
    1
 92
    0
 93
    1
 72
    2
 10
38
 20
341.5999999999999
 40
0.4000000000000021
 50
0
 51
360
 73
    1
 97
    0
 75
    0
 76
    1
 98
    0
  0
HATCH
  5
B0
100
AcDbEntity
  8
metal
  6
ByLayer
 62
  256
370
   -1
100
AcDbHatch
 10
0
 20
0
 30
0
210
0
220
0
230
1
  2
SOLID
 70
    1
 71
    0
 91
    1
 92
    0
 93
    1
 72
    2
 10
23.10000000000082
 20
348.4000000000001
 40
0.4000000000000021
 50
0
 51
360
 73
    1
 97
    0
 75
    0
 76
    1
 98
    0
  0
HATCH
  5
B1
100
AcDbEntity
  8
metal
  6
ByLayer
 62
  256
370
   -1
100
AcDbHatch
 10
0
 20
0
 30
0
210
0
220
0
230
1
  2
SOLID
 70
    1
 71
    0
 91
    1
 92
    0
 93
    1
 72
    2
 10
23.10000000000082
 20
362.5999999999999
 40
0.4000000000000021
 50
0
 51
360
 73
    1
 97
    0
 75
    0
 76
    1
 98
    0
  0
HATCH
  5
B2
100
AcDbEntity
  8
muerlat
  6
ByLayer
 62
  256
370
   -1
100
AcDbHatch
 10
0
 20
0
 30
0
210
0
220
0
230
1
  2
gost_wood
 70
    0
 71
    0
 91
    1
 92
    0
 93
    4
 72
    1
 10
32
 20
681.9596491228808
 11
17
 21
681.9596491228808
 72
    1
 10
17
 20
681.9596491228808
 11
17
 21
696.9596491228808
 72
    1
 10
17
 20
696.9596491228808
 11
32
 21
696.9596491228808
 72
    1
 10
32
 20
696.9596491228808
 11
32
 21
681.9596491228808
 97
    0
 75
    0
 76
    1
 52
3.141592653589793
 41
1
 77
    0
 78
    0
 98
    0
  0
HATCH
  5
B3
100
AcDbEntity
  8
metal
  6
ByLayer
 62
  256
370
   -1
100
AcDbHatch
 10
0
 20
0
 30
0
210
0
220
0
230
1
  2
SOLID
 70
    1
 71
    0
 91
    1
 92
    0
 93
    1
 72
    2
 10
38
 20
648.5999999999999
 40
0.4000000000000021
 50
0
 51
360
 73
    1
 97
    0
 75
    0
 76
    1
 98
    0
  0
HATCH
  5
B4
100
AcDbEntity
  8
metal
  6
ByLayer
 62
  256
370
   -1
100
AcDbHatch
 10
0
 20
0
 30
0
210
0
220
0
230
1
  2
SOLID
 70
    1
 71
    0
 91
    1
 92
    0
 93
    1
 72
    2
 10
38
 20
639.4000000000001
 40
0.4000000000000004
 50
0
 51
360
 73
    1
 97
    0
 75
    0
 76
    1
 98
    0
  0
HATCH
  5
B5
100
AcDbEntity
  8
metal
  6
ByLayer
 62
  256
370
   -1
100
AcDbHatch
 10
0
 20
0
 30
0
210
0
220
0
230
1
  2
SOLID
 70
    1
 71
    0
 91
    1
 92
    0
 93
    1
 72
    2
 10
26
 20
648.5999999999999
 40
0.4000000000000021
 50
0
 51
360
 73
    1
 97
    0
 75
    0
 76
    1
 98
    0
  0
HATCH
  5
B6
100
AcDbEntity
  8
metal
  6
ByLayer
 62
  256
370
   -1
100
AcDbHatch
 10
0
 20
0
 30
0
210
0
220
0
230
1
  2
SOLID
 70
    1
 71
    0
 91
    1
 92
    0
 93
    1
 72
    2
 10
26
 20
639.4000000000001
 40
0.4000000000000004
 50
0
 51
360
 73
    1
 97
    0
 75
    0
 76
    1
 98
    0
  0
HATCH
  5
B7
100
AcDbEntity
  8
gazoblok
  6
ByLayer
 62
  256
370
   -1
100
AcDbHatch
 10
0
 20
0
 30
0
210
0
220
0
230
1
  2
gost_stone
 70
    0
 71
    0
 91
    1
 92
    0
 93
    4
 72
    1
 10
16
 20
631
 11
16
 21
367
 72
    1
 10
16
 20
367
 11
46
 21
367
 72
    1
 10
46
 20
367
 11
46
 21
631
 72
    1
 10
46
 20
631
 11
16
 21
631
 97
    0
 75
    0
 76
    1
 52
3.141592653589793
 41
2
 77
    0
 78
    0
 98
    0
  0
HATCH
  5
B8
100
AcDbEntity
  8
u-block
  6
ByLayer
 62
  256
370
   -1
100
AcDbHatch
 10
0
 20
0
 30
0
210
0
220
0
230
1
  2
gost_ceramics
 70
    0
 71
    0
 91
    1
 92
    0
 93
    8
 72
    1
 10
16
 20
651
 11
23
 21
651
 72
    1
 10
23
 20
651
 11
24
 21
637
 72
    1
 10
24
 20
637
 11
40
 21
637
 72
    1
 10
40
 20
637
 11
41
 21
651
 72
    1
 10
41
 20
651
 11
46
 21
651
 72
    1
 10
46
 20
651
 11
46
 21
631
 72
    1
 10
46
 20
631
 11
16
 21
631
 72
    1
 10
16
 20
631
 11
16
 21
651
 97
    0
 75
    0
 76
    1
 52
3.141592653589793
 41
2
 77
    0
 78
    0
 98
    0
  0
HATCH
  5
B9
100
AcDbEntity
  8
concrete
  6
ByLayer
 62
  256
370
   -1
100
AcDbHatch
 10
0
 20
0
 30
0
210
0
220
0
230
1
  2
gost_concrete
 70
    0
 71
    0
 91
    1
 92
    0
 93
    4
 72
    1
 10
24
 20
637
 11
40
 21
637
 72
    1
 10
40
 20
637
 11
41
 21
651
 72
    1
 10
41
 20
651
 11
23
 21
651
 72
    1
 10
23
 20
651
 11
24
 21
637
 97
    0
 75
    0
 76
    1
 52
4.71238898038469
 41
1
 77
    0
 78
    0
 98
    0
  0
HATCH
  5
BA
100
AcDbEntity
  8
epps
  6
ByLayer
 62
  256
370
   -1
100
AcDbHatch
 10
0
 20
0
 30
0
210
0
220
0
230
1
  2
gost_non-metal
 70
    0
 71
    0
 91
    1
 92
    0
 93
    4
 72
    1
 10
12
 20
674
 11
17
 21
674
 72
    1
 10
17
 20
674
 11
17
 21
651
 72
    1
 10
17
 20
651
 11
12
 21
651
 72
    1
 10
12
 20
651
 11
12
 21
674
 97
    0
 75
    0
 76
    1
 52
4.71238898038469
 41
1
 77
    0
 78
    0
 98
    0
  0
HATCH
  5
BB
100
AcDbEntity
  8
brick
  6
ByLayer
 62
  256
370
   -1
100
AcDbHatch
 10
0
 20
0
 30
0
210
0
220
0
230
1
  2
gost_ferroconcrete
 70
    0
 71
    0
 91
    1
 92
    0
 93
    4
 72
    1
 10
11.99999999999909
 20
670
 11
0
 21
670
 72
    1
 10
0
 20
670
 11
9.094947017729282e-13
 21
693
 72
    1
 10
9.094947017729282e-13
 20
693
 11
12
 21
693
 72
    1
 10
12
 20
693
 11
11.99999999999909
 21
670
 97
    0
 75
    0
 76
    1
 52
3.141592653589793
 41
1
 77
    0
 78
    0
 98
    0
  0
HATCH
  5
BC
100
AcDbEntity
  8
kontur
  6
ByLayer
 62
  256
370
   -1
100
AcDbHatch
 10
0
 20
0
 30
0
210
0
220
0
230
1
  2
gost_concrete
 70
    0
 71
    0
 91
    1
 92
    0
 93
    4
 72
    1
 10
983
 20
367
 11
983
 21
344
 72
    1
 10
983
 20
344
 11
970
 21
344
 72
    1
 10
970
 20
344
 11
970
 21
367
 72
    1
 10
970
 20
367
 11
983
 21
367
 97
    0
 75
    0
 76
    1
 52
1.570796326794897
 41
1
 77
    0
 78
    0
 98
    0
  0
HATCH
  5
BD
100
AcDbEntity
  8
kontur
  6
ByLayer
 62
  256
370
   -1
100
AcDbHatch
 10
0
 20
0
 30
0
210
0
220
0
230
1
  2
gost_concrete
 70
    0
 71
    0
 91
    1
 92
    0
 93
    4
 72
    1
 10
970
 20
651
 11
970
 21
674
 72
    1
 10
970
 20
674
 11
983
 21
674
 72
    1
 10
983
 20
674
 11
983
 21
651
 72
    1
 10
983
 20
651
 11
970
 21
651
 97
    0
 75
    0
 76
    1
 52
1.570796326794897
 41
1
 77
    0
 78
    0
 98
    0
  0
HATCH
  5
BE
100
AcDbEntity
  8
brick
  6
ByLayer
 62
  256
370
   -1
100
AcDbHatch
 10
0
 20
0
 30
0
210
0
220
0
230
1
  2
gost_ferroconcrete
 70
    0
 71
    0
 91
    1
 92
    0
 93
    4
 72
    1
 10
38
 20
682
 11
38
 21
674
 72
    1
 10
38
 20
674
 11
13
 21
674
 72
    1
 10
13
 20
674
 11
13
 21
682
 72
    1
 10
13
 20
682
 11
38
 21
682
 97
    0
 75
    0
 76
    1
 52
3.141592653589793
 41
1
 77
    0
 78
    0
 98
    0
  0
HATCH
  5
BF
100
AcDbEntity
  8
kontur
  6
ByLayer
 62
  256
370
   -1
100
AcDbHatch
 10
0
 20
0
 30
0
210
0
220
0
230
1
  2
gost_concrete
 70
    0
 71
    0
 91
    1
 92
    0
 93
    4
 72
    1
 10
17
 20
674
 11
17
 21
651
 72
    1
 10
17
 20
651
 11
29
 21
651
 72
    1
 10
29
 20
651
 11
29
 21
674
 72
    1
 10
29
 20
674
 11
17
 21
674
 97
    0
 75
    0
 76
    1
 52
4.71238898038469
 41
1
 77
    0
 78
    0
 98
    0
  0
HATCH
  5
C0
100
AcDbEntity
  8
kontur
  6
ByLayer
 62
  256
370
   -1
100
AcDbHatch
 10
0
 20
0
 30
0
210
0
220
0
230
1
  2
gost_concrete
 70
    0
 71
    0
 91
    1
 92
    0
 93
    4
 72
    1
 10
29
 20
344
 11
29
 21
367
 72
    1
 10
29
 20
367
 11
17
 21
367
 72
    1
 10
17
 20
367
 11
17
 21
344
 72
    1
 10
17
 20
344
 11
29
 21
344
 97
    0
 75
    0
 76
    1
 52
4.71238898038469
 41
1
 77
    0
 78
    0
 98
    0
  0
HATCH
  5
C1
100
AcDbEntity
  8
brick
  6
ByLayer
 62
  256
370
   -1
100
AcDbHatch
 10
0
 20
0
 30
0
210
0
220
0
230
1
  2
gost_ferroconcrete
 70
    0
 71
    0
 91
    1
 92
    0
 93
    4
 72
    1
 10
345
 20
367
 11
370
 21
367
 72
    1
 10
370
 20
367
 11
370
 21
630
 72
    1
 10
370
 20
630
 11
345
 21
630
 72
    1
 10
345
 20
630
 11
345
 21
367
 97
    0
 75
    0
 76
    1
 52
3.141592653589793
 41
1
 77
    0
 78
    0
 98
    0
  0
HATCH
  5
C2
100
AcDbEntity
  8
kontur
  6
ByLayer
 62
  256
370
   -1
100
AcDbHatch
 10
0
 20
0
 30
0
210
0
220
0
230
1
  2
gost_concrete
 70
    0
 71
    0
 91
    1
 92
    0
 93
    4
 72
    1
 10
370
 20
325
 11
370
 21
344
 72
    1
 10
370
 20
344
 11
345
 21
344
 72
    1
 10
345
 20
344
 11
345
 21
325
 72
    1
 10
345
 20
325
 11
370
 21
325
 97
    0
 75
    0
 76
    1
 52
4.71238898038469
 41
1
 77
    0
 78
    0
 98
    0
  0
HATCH
  5
C3
100
AcDbEntity
  8
brick
  6
ByLayer
 62
  256
370
   -1
100
AcDbHatch
 10
0
 20
0
 30
0
210
0
220
0
230
1
  2
gost_ferroconcrete
 70
    0
 71
    0
 91
    1
 92
    0
 93
    4
 72
    1
 10
345
 20
325
 11
345
 21
40
 72
    1
 10
345
 20
40
 11
370
 21
40
 72
    1
 10
370
 20
40
 11
370
 21
325
 72
    1
 10
370
 20
325
 11
345
 21
325
 97
    0
 75
    0
 76
    1
 52
3.141592653589793
 41
1
 77
    0
 78
    0
 98
    0
  0
HATCH
  5
C4
100
AcDbEntity
  8
kontur
  6
ByLayer
 62
  256
370
   -1
100
AcDbHatch
 10
0
 20
0
 30
0
210
0
220
0
230
1
  2
gost_concrete
 70
    0
 71
    0
 91
    1
 92
    0
 93
    4
 72
    1
 10
370
 20
651
 11
345
 21
651
 72
    1
 10
345
 20
651
 11
345
 21
630
 72
    1
 10
345
 20
630
 11
370
 21
630
 72
    1
 10
370
 20
630
 11
370
 21
651
 97
    0
 75
    0
 76
    1
 52
4.71238898038469
 41
1
 77
    0
 78
    0
 98
    0
  0
HATCH
  5
C5
100
AcDbEntity
  8
plyty
  6
ByLayer
 62
  256
370
   -1
100
AcDbHatch
 10
0
 20
0
 30
0
210
0
220
0
230
1
  2
gost_concrete
 70
    0
 71
    0
 91
    1
 92
    0
 93
    4
 72
    1
 10
29
 20
345
 11
356
 21
345
 72
    1
 10
356
 20
345
 11
356
 21
367
 72
    1
 10
356
 20
367
 11
29
 21
367
 72
    1
 10
29
 20
367
 11
29
 21
345
 97
    0
 75
    0
 76
    1
 52
3.141592653589793
 41
1
 77
    0
 78
    0
 98
    0
  0
HATCH
  5
C6
100
AcDbEntity
  8
plyty
  6
ByLayer
 62
  256
370
   -1
100
AcDbHatch
 10
0
 20
0
 30
0
210
0
220
0
230
1
  2
gost_concrete
 70
    0
 71
    0
 91
    1
 92
    0
 93
    4
 72
    1
 10
970
 20
652
 11
530
 21
652
 72
    1
 10
530
 20
652
 11
530
 21
674
 72
    1
 10
530
 20
674
 11
970
 21
674
 72
    1
 10
970
 20
674
 11
970
 21
652
 97
    0
 75
    0
 76
    1
 52
0
 41
1
 77
    0
 78
    0
 98
    0
  0
HATCH
  5
C7
100
AcDbEntity
  8
plyty
  6
ByLayer
 62
  256
370
   -1
100
AcDbHatch
 10
0
 20
0
 30
0
210
0
220
0
230
1
  2
gost_concrete
 70
    0
 71
    0
 91
    1
 92
    0
 93
    4
 72
    1
 10
530
 20
345
 11
530
 21
367
 72
    1
 10
530
 20
367
 11
970
 21
367
 72
    1
 10
970
 20
367
 11
970
 21
345
 72
    1
 10
970
 20
345
 11
530
 21
345
 97
    0
 75
    0
 76
    1
 52
0
 41
1
 77
    0
 78
    0
 98
    0
  0
HATCH
  5
C8
100
AcDbEntity
  8
brick
  6
ByLayer
 62
  256
370
   -1
100
AcDbHatch
 10
0
 20
0
 30
0
210
0
220
0
230
1
  2
gost_ferroconcrete
 70
    0
 71
    0
 91
    1
 92
    0
 93
    4
 72
    1
 10
546
 20
325
 11
508
 21
325
 72
    1
 10
508
 20
325
 11
508
 21
40
 72
    1
 10
508
 20
40
 11
546
 21
40
 72
    1
 10
546
 20
40
 11
546
 21
325
 97
    0
 75
    0
 76
    1
 52
3.141592653589793
 41
1
 77
    0
 78
    0
 98
    0
  0
HATCH
  5
C9
100
AcDbEntity
  8
brick
  6
ByLayer
 62
  256
370
   -1
100
AcDbHatch
 10
0
 20
0
 30
0
210
0
220
0
230
1
  2
gost_ferroconcrete
 70
    0
 71
    0
 91
    1
 92
    0
 93
    4
 72
    1
 10
546
 20
630
 11
508
 21
630
 72
    1
 10
508
 20
630
 11
508
 21
367
 72
    1
 10
508
 20
367
 11
546
 21
367
 72
    1
 10
546
 20
367
 11
546
 21
630
 97
    0
 75
    0
 76
    1
 52
3.141592653589793
 41
1
 77
    0
 78
    0
 98
    0
  0
HATCH
  5
CA
100
AcDbEntity
  8
kontur
  6
ByLayer
 62
  256
370
   -1
100
AcDbHatch
 10
0
 20
0
 30
0
210
0
220
0
230
1
  2
gost_concrete
 70
    0
 71
    0
 91
    1
 92
    0
 93
    4
 72
    1
 10
546
 20
325
 11
546
 21
344
 72
    1
 10
546
 20
344
 11
508
 21
344
 72
    1
 10
508
 20
344
 11
508
 21
325
 72
    1
 10
508
 20
325
 11
546
 21
325
 97
    0
 75
    0
 76
    1
 52
4.71238898038469
 41
1
 77
    0
 78
    0
 98
    0
  0
HATCH
  5
CB
100
AcDbEntity
  8
kontur
  6
ByLayer
 62
  256
370
   -1
100
AcDbHatch
 10
0
 20
0
 30
0
210
0
220
0
230
1
  2
gost_concrete
 70
    0
 71
    0
 91
    1
 92
    0
 93
    4
 72
    1
 10
546
 20
651
 11
508
 21
651
 72
    1
 10
508
 20
651
 11
508
 21
630
 72
    1
 10
508
 20
630
 11
546
 21
630
 72
    1
 10
546
 20
630
 11
546
 21
651
 97
    0
 75
    0
 76
    1
 52
4.71238898038469
 41
1
 77
    0
 78
    0
 98
    0
  0
HATCH
  5
CC
100
AcDbEntity
  8
plyty
  6
ByLayer
 62
  256
370
   -1
100
AcDbHatch
 10
0
 20
0
 30
0
210
0
220
0
230
1
  2
gost_concrete
 70
    0
 71
    0
 91
    1
 92
    0
 93
    4
 72
    1
 10
29
 20
652
 11
527
 21
652
 72
    1
 10
527
 20
652
 11
527
 21
674
 72
    1
 10
527
 20
674
 11
29
 21
674
 72
    1
 10
29
 20
674
 11
29
 21
652
 97
    0
 75
    0
 76
    1
 52
3.141592653589793
 41
1
 77
    0
 78
    0
 98
    0
  0
HATCH
  5
CD
100
AcDbEntity
  8
plyty
  6
ByLayer
 62
  256
370
   -1
100
AcDbHatch
 10
0
 20
0
 30
0
210
0
220
0
230
1
  2
gost_concrete
 70
    0
 71
    0
 91
    1
 92
    0
 93
    4
 72
    1
 10
527
 20
345
 11
527
 21
367
 72
    1
 10
527
 20
367
 11
359
 21
367
 72
    1
 10
359
 20
367
 11
359
 21
345
 72
    1
 10
359
 20
345
 11
527
 21
345
 97
    0
 75
    0
 76
    1
 52
3.141592653589793
 41
1
 77
    0
 78
    0
 98
    0
  0
LWPOLYLINE
  5
CE
100
AcDbEntity
  8
u-block
  6
CONTINUOUS
 62
    6
370
   50
100
AcDbPolyline
 90
    8
 70
    1
 43
0
 10
954
 20
631
 10
984
 20
631
 10
984
 20
651
 10
977
 20
651
 10
976
 20
637
 10
960
 20
637
 10
959
 20
651
 10
954
 20
651
  0
LWPOLYLINE
  5
CF
100
AcDbEntity
  8
concrete
  6
ByLayer
 62
  256
370
   -1
100
AcDbPolyline
 90
    5
 70
    0
 43
0
 10
959
 20
651
 10
977
 20
651
 10
976
 20
637
 10
960
 20
637
 10
959
 20
651
  0
LWPOLYLINE
  5
D0
100
AcDbEntity
  8
gazoblok
  6
ByLayer
 62
  256
370
   -1
100
AcDbPolyline
 90
    4
 70
    1
 43
0
 10
984
 20
367
 10
954
 20
367
 10
954
 20
631
 10
984
 20
631
  0
CIRCLE
  5
D1
100
AcDbEntity
  8
metal
  6
ByLayer
 62
  256
370
   -1
100
AcDbCircle
 10
974
 20
639.4000000000001
 40
0.4000000000000004
  0
CIRCLE
  5
D2
100
AcDbEntity
  8
metal
  6
ByLayer
 62
  256
370
   -1
100
AcDbCircle
 10
974
 20
648.5999999999999
 40
0.4000000000000021
  0
CIRCLE
  5
D3
100
AcDbEntity
  8
metal
  6
ByLayer
 62
  256
370
   -1
100
AcDbCircle
 10
962
 20
639.4000000000001
 40
0.4000000000000004
  0
CIRCLE
  5
D4
100
AcDbEntity
  8
metal
  6
ByLayer
 62
  256
370
   -1
100
AcDbCircle
 10
962
 20
648.5999999999999
 40
0.4000000000000021
  0
LWPOLYLINE
  5
D5
100
AcDbEntity
  8
metal
  6
DASHED2
 62
  256
370
   -1
100
AcDbPolyline
 90
    8
 70
    1
 43
0
 10
973.5
 20
638.6999999999998
 42
0.4142135623729842
 10
974.6999999999998
 20
639.9000000000001
 10
974.7
 20
648.0999999999999
 42
0.414213562372873
 10
973.5
 20
649.2999999999997
 10
962.5
 20
649.3
 42
0.414213562373095
 10
961.2999999999997
 20
648.0999999999999
 10
961.3
 20
639.9000000000001
 42
0.4142135623728732
 10
962.5
 20
638.7000000000003
  0
LWPOLYLINE
  5
D6
100
AcDbEntity
  8
metal
  6
DASHED2
 62
  256
370
   -1
100
AcDbPolyline
 90
    8
 70
    1
 43
0
 10
973.5
 20
638.0999999999999
 42
0.414213562373095
 10
975.3000000000002
 20
639.9000000000001
 10
975.3000000000002
 20
648.0999999999999
 42
0.414213562373095
 10
973.5
 20
649.9000000000001
 10
962.5
 20
649.9000000000001
 42
0.4142135623732429
 10
960.6999999999998
 20
648.0999999999999
 10
960.7000000000012
 20
639.9000000000001
 42
0.4142135623731692
 10
962.5
 20
638.0999999999999
  0
LWPOLYLINE
  5
D7
100
AcDbEntity
  8
muerlat
  6
ByLayer
 62
  256
370
   -1
100
AcDbPolyline
 90
    4
 70
    1
 43
0
 10
968
 20
682
 10
983
 20
682
 10
983
 20
697
 10
968
 20
697
  0
LWPOLYLINE
  5
D8
100
AcDbEntity
  8
brick
  6
ByLayer
 62
  256
370
   -1
100
AcDbPolyline
 90
    4
 70
    1
 43
0
 10
962
 20
674
 10
987
 20
674
 10
987
 20
682
 10
962
 20
682
  0
LWPOLYLINE
  5
D9
100
AcDbEntity
  8
brick
  6
ByLayer
 62
  256
370
   -1
100
AcDbPolyline
 90
    4
 70
    1
 43
0
 10
988.0000000000009
 20
670
 10
1000
 20
670
 10
999.9999999999991
 20
693
 10
988
 20
693
  0
LWPOLYLINE
  5
DA
100
AcDbEntity
  8
epps
  6
ByLayer
 62
  256
370
   -1
100
AcDbPolyline
 90
    4
 70
    1
 43
0
 10
988
 20
674
 10
983
 20
674
 10
983
 20
651
 10
988
 20
651
  0
LWPOLYLINE
  5
DB
100
AcDbEntity
  8
u-block
  6
CONTINUOUS
 62
    6
370
   50
100
AcDbPolyline
 90
    8
 70
    1
 43
0
 10
954
 20
324
 10
984
 20
324
 10
984
 20
344
 10
977
 20
344
 10
976
 20
330
 10
960
 20
330
 10
959
 20
344
 10
954
 20
344
  0
LWPOLYLINE
  5
DC
100
AcDbEntity
  8
concrete
  6
ByLayer
 62
  256
370
   -1
100
AcDbPolyline
 90
    5
 70
    0
 43
0
 10
959
 20
344
 10
977
 20
344
 10
976
 20
330
 10
960
 20
330
 10
959
 20
344
  0
CIRCLE
  5
DD
100
AcDbEntity
  8
metal
  6
ByLayer
 62
  256
370
   -1
100
AcDbCircle
 10
974
 20
332.4000000000001
 40
0.4000000000000004
  0
CIRCLE
  5
DE
100
AcDbEntity
  8
metal
  6
ByLayer
 62
  256
370
   -1
100
AcDbCircle
 10
974
 20
341.5999999999999
 40
0.4000000000000021
  0
CIRCLE
  5
DF
100
AcDbEntity
  8
metal
  6
ByLayer
 62
  256
370
   -1
100
AcDbCircle
 10
962
 20
332.4000000000001
 40
0.4000000000000004
  0
CIRCLE
  5
E0
100
AcDbEntity
  8
metal
  6
ByLayer
 62
  256
370
   -1
100
AcDbCircle
 10
962
 20
341.5999999999999
 40
0.4000000000000021
  0
LWPOLYLINE
  5
E1
100
AcDbEntity
  8
metal
  6
DASHED2
 62
  256
370
   -1
100
AcDbPolyline
 90
    8
 70
    1
 43
0
 10
973.5
 20
331.7
 42
0.4142135623728732
 10
974.6999999999998
 20
332.9000000000001
 10
974.7
 20
341.0999999999999
 42
0.414213562372873
 10
973.5
 20
342.2999999999997
 10
962.5
 20
342.3
 42
0.4142135623728732
 10
961.2999999999997
 20
341.0999999999999
 10
961.3
 20
332.9000000000001
 42
0.4142135623728732
 10
962.5
 20
331.7000000000003
  0
LWPOLYLINE
  5
E2
100
AcDbEntity
  8
metal
  6
DASHED2
 62
  256
370
   -1
100
AcDbPolyline
 90
    8
 70
    1
 43
0
 10
973.5
 20
331.0999999999999
 42
0.414213562373095
 10
975.3000000000002
 20
332.9000000000001
 10
975.2999999999988
 20
341.0999999999999
 42
0.4142135623731689
 10
973.5
 20
342.9000000000001
 10
962.5
 20
342.9000000000001
 42
0.414213562373095
 10
960.6999999999998
 20
341.0999999999999
 10
960.6999999999998
 20
332.9000000000001
 42
0.414213562373095
 10
962.5
 20
331.0999999999999
  0
CIRCLE
  5
E3
100
AcDbEntity
  8
metal
  6
ByLayer
 62
  256
370
   -1
100
AcDbCircle
 10
976.8999999999992
 20
348.4000000000001
 40
0.4000000000000021
  0
CIRCLE
  5
E4
100
AcDbEntity
  8
metal
  6
ByLayer
 62
  256
370
   -1
100
AcDbCircle
 10
976.8999999999992
 20
362.5999999999999
 40
0.4000000000000021
  0
LWPOLYLINE
  5
E5
100
AcDbEntity
  8
epps
  6
ByLayer
 62
  256
370
   -1
100
AcDbPolyline
 90
    4
 70
    1
 43
0
 10
988
 20
367
 10
983
 20
367
 10
983
 20
344
 10
988
 20
344
  0
LWPOLYLINE
  5
E6
100
AcDbEntity
  8
metal
  6
ByLayer
 62
  256
370
   -1
100
AcDbPolyline
 90
    4
 70
    1
 43
0
 10
974.5
 20
702
 10
976.0999999999999
 20
702
 10
976.0999999999999
 20
652
 10
974.5
 20
652
  0
CIRCLE
  5
E7
100
AcDbEntity
  8
metal
  6
ByLayer
 62
  256
370
   -1
100
AcDbCircle
 10
976.5
 20
655.4000000000001
 40
0.4000000000000021
  0
CIRCLE
  5
E8
100
AcDbEntity
  8
metal
  6
ByLayer
 62
  256
370
   -1
100
AcDbCircle
 10
976.5
 20
669.5999999999999
 40
0.4000000000000021
  0
LWPOLYLINE
  5
E9
100
AcDbEntity
  8
gazoblok
  6
ByLayer
 62
  256
370
   -1
100
AcDbPolyline
 90
    4
 70
    1
 43
0
 10
984
 20
40
 10
954
 20
40
 10
954
 20
324
 10
984
 20
324
  0
LWPOLYLINE
  5
EA
100
AcDbEntity
  8
styny
  6
ByLayer
 62
  256
370
   -1
100
AcDbPolyline
 90
    4
 70
    1
 43
0
 10
1000
 20
40
 10
988
 20
40
 10
988.0000000000009
 20
670
 10
1000.000000000001
 20
670.0000000000441
  0
LWPOLYLINE
  5
EB
100
AcDbEntity
  8
u-block
  6
CONTINUOUS
 62
    6
370
   50
100
AcDbPolyline
 90
    8
 70
    1
 43
0
 10
46
 20
631
 10
16
 20
631
 10
16
 20
651
 10
23
 20
651
 10
24
 20
637
 10
40
 20
637
 10
41
 20
651
 10
46
 20
651
  0
LWPOLYLINE
  5
EC
100
AcDbEntity
  8
concrete
  6
ByLayer
 62
  256
370
   -1
100
AcDbPolyline
 90
    5
 70
    0
 43
0
 10
41
 20
651
 10
23
 20
651
 10
24
 20
637
 10
40
 20
637
 10
41
 20
651
  0
LWPOLYLINE
  5
ED
100
AcDbEntity
  8
gazoblok
  6
ByLayer
 62
  256
370
   -1
100
AcDbPolyline
 90
    4
 70
    1
 43
0
 10
16
 20
367
 10
46
 20
367
 10
46
 20
631
 10
16
 20
631
  0
CIRCLE
  5
EE
100
AcDbEntity
  8
metal
  6
ByLayer
 62
  256
370
   -1
100
AcDbCircle
 10
26
 20
639.4000000000001
 40
0.4000000000000004
  0
CIRCLE
  5
EF
100
AcDbEntity
  8
metal
  6
ByLayer
 62
  256
370
   -1
100
AcDbCircle
 10
26
 20
648.5999999999999
 40
0.4000000000000021
  0
CIRCLE
  5
F0
100
AcDbEntity
  8
metal
  6
ByLayer
 62
  256
370
   -1
100
AcDbCircle
 10
38
 20
639.4000000000001
 40
0.4000000000000004
  0
CIRCLE
  5
F1
100
AcDbEntity
  8
metal
  6
ByLayer
 62
  256
370
   -1
100
AcDbCircle
 10
38
 20
648.5999999999999
 40
0.4000000000000021
  0
LWPOLYLINE
  5
F2
100
AcDbEntity
  8
metal
  6
DASHED2
 62
  256
370
   -1
100
AcDbPolyline
 90
    8
 70
    1
 43
0
 10
26.5
 20
638.7
 42
-0.4142135623728729
 10
25.30000000000018
 20
639.9000000000001
 10
25.30000000000018
 20
648.0999999999999
 42
-0.414213562372762
 10
26.5
 20
649.3000000000002
 10
37.5
 20
649.3
 42
-0.4142135623730951
 10
38.70000000000027
 20
648.0999999999999
 10
38.70000000000005
 20
639.9000000000001
 42
-0.4142135623728729
 10
37.5
 20
638.7000000000003
  0
LWPOLYLINE
  5
F3
100
AcDbEntity
  8
metal
  6
DASHED2
 62
  256
370
   -1
100
AcDbPolyline
 90
    8
 70
    1
 43
0
 10
26.5
 20
638.0999999999999
 42
-0.414213562373095
 10
24.69999999999982
 20
639.9000000000001
 10
24.69999999999982
 20
648.0999999999999
 42
-0.414213562373095
 10
26.5
 20
649.9000000000001
 10
37.5
 20
649.9000000000001
 42
-0.4142135623732428
 10
39.30000000000018
 20
648.0999999999999
 10
39.29999999999927
 20
639.9000000000001
 42
-0.4142135623733911
 10
37.5
 20
638.099999999999
  0
LWPOLYLINE
  5
F4
100
AcDbEntity
  8
muerlat
  6
ByLayer
 62
  256
370
   -1
100
AcDbPolyline
 90
    4
 70
    1
 43
0
 10
32
 20
682
 10
17
 20
682
 10
17
 20
697
 10
32
 20
697
  0
LWPOLYLINE
  5
F5
100
AcDbEntity
  8
brick
  6
ByLayer
 62
  256
370
   -1
100
AcDbPolyline
 90
    4
 70
    1
 43
0
 10
38
 20
674
 10
13
 20
674
 10
13
 20
682
 10
38
 20
682
  0
LWPOLYLINE
  5
F6
100
AcDbEntity
  8
brick
  6
ByLayer
 62
  256
370
   -1
100
AcDbPolyline
 90
    4
 70
    1
 43
0
 10
11.99999999999909
 20
670
 10
0
 20
670
 10
9.094947017729282e-13
 20
693
 10
12
 20
693
  0
LWPOLYLINE
  5
F7
100
AcDbEntity
  8
epps
  6
ByLayer
 62
  256
370
   -1
100
AcDbPolyline
 90
    4
 70
    1
 43
0
 10
12
 20
674
 10
17
 20
674
 10
17
 20
651
 10
12
 20
651
  0
LWPOLYLINE
  5
F8
100
AcDbEntity
  8
u-block
  6
CONTINUOUS
 62
    6
370
   50
100
AcDbPolyline
 90
    8
 70
    1
 43
0
 10
46
 20
324
 10
16
 20
324
 10
16
 20
344
 10
23
 20
344
 10
24
 20
330
 10
40
 20
330
 10
41
 20
344
 10
46
 20
344
  0
LWPOLYLINE
  5
F9
100
AcDbEntity
  8
concrete
  6
ByLayer
 62
  256
370
   -1
100
AcDbPolyline
 90
    5
 70
    0
 43
0
 10
41
 20
344
 10
23
 20
344
 10
24
 20
330
 10
40
 20
330
 10
41
 20
344
  0
CIRCLE
  5
FA
100
AcDbEntity
  8
metal
  6
ByLayer
 62
  256
370
   -1
100
AcDbCircle
 10
26
 20
332.4000000000001
 40
0.4000000000000004
  0
CIRCLE
  5
FB
100
AcDbEntity
  8
metal
  6
ByLayer
 62
  256
370
   -1
100
AcDbCircle
 10
26
 20
341.5999999999999
 40
0.4000000000000021
  0
CIRCLE
  5
FC
100
AcDbEntity
  8
metal
  6
ByLayer
 62
  256
370
   -1
100
AcDbCircle
 10
38
 20
332.4000000000001
 40
0.4000000000000004
  0
CIRCLE
  5
FD
100
AcDbEntity
  8
metal
  6
ByLayer
 62
  256
370
   -1
100
AcDbCircle
 10
38
 20
341.5999999999999
 40
0.4000000000000021
  0
LWPOLYLINE
  5
FE
100
AcDbEntity
  8
metal
  6
DASHED2
 62
  256
370
   -1
100
AcDbPolyline
 90
    8
 70
    1
 43
0
 10
26.5
 20
331.7
 42
-0.4142135623728609
 10
25.30000000000018
 20
332.9000000000001
 10
25.30000000000018
 20
341.0999999999999
 42
-0.414213562372762
 10
26.5
 20
342.3000000000002
 10
37.5
 20
342.3
 42
-0.4142135623728609
 10
38.69999999999982
 20
341.0999999999999
 10
38.70000000000005
 20
332.9000000000001
 42
-0.4142135623728729
 10
37.5
 20
331.7000000000003
  0
LWPOLYLINE
  5
FF
100
AcDbEntity
  8
metal
  6
DASHED2
 62
  256
370
   -1
100
AcDbPolyline
 90
    8
 70
    1
 43
0
 10
26.5
 20
331.0999999999999
 42
-0.414213562373095
 10
24.69999999999982
 20
332.9000000000001
 10
24.70000000000118
 20
341.0999999999999
 42
-0.414213562373169
 10
26.5
 20
342.9000000000001
 10
37.5
 20
342.9000000000001
 42
-0.414213562373095
 10
39.30000000000018
 20
341.0999999999999
 10
39.30000000000018
 20
332.9000000000001
 42
-0.414213562373095
 10
37.5
 20
331.0999999999999
  0
CIRCLE
  5
100
100
AcDbEntity
  8
metal
  6
ByLayer
 62
  256
370
   -1
100
AcDbCircle
 10
23.10000000000082
 20
348.4000000000001
 40
0.4000000000000021
  0
CIRCLE
  5
101
100
AcDbEntity
  8
metal
  6
ByLayer
 62
  256
370
   -1
100
AcDbCircle
 10
23.10000000000082
 20
362.5999999999999
 40
0.4000000000000021
  0
LWPOLYLINE
  5
102
100
AcDbEntity
  8
epps
  6
ByLayer
 62
  256
370
   -1
100
AcDbPolyline
 90
    4
 70
    1
 43
0
 10
12
 20
367
 10
17
 20
367
 10
17
 20
344
 10
12
 20
344
  0
LWPOLYLINE
  5
103
100
AcDbEntity
  8
metal
  6
ByLayer
 62
  256
370
   -1
100
AcDbPolyline
 90
    4
 70
    1
 43
0
 10
25.5
 20
702
 10
23.90000000000009
 20
702
 10
23.90000000000009
 20
652
 10
25.5
 20
652
  0
CIRCLE
  5
104
100
AcDbEntity
  8
metal
  6
ByLayer
 62
  256
370
   -1
100
AcDbCircle
 10
23.5
 20
655.4000000000001
 40
0.4000000000000021
  0
CIRCLE
  5
105
100
AcDbEntity
  8
metal
  6
ByLayer
 62
  256
370
   -1
100
AcDbCircle
 10
23.5
 20
669.5999999999999
 40
0.4000000000000021
  0
LWPOLYLINE
  5
106
100
AcDbEntity
  8
gazoblok
  6
ByLayer
 62
  256
370
   -1
100
AcDbPolyline
 90
    4
 70
    1
 43
0
 10
16
 20
40
 10
46
 20
40
 10
46
 20
324
 10
16
 20
324
  0
LWPOLYLINE
  5
107
100
AcDbEntity
  8
styny
  6
ByLayer
 62
  256
370
   -1
100
AcDbPolyline
 90
    4
 70
    1
 43
0
 10
0
 20
40
 10
12
 20
40
 10
11.99999999999909
 20
670
 10
-9.094947017729282e-13
 20
670.0000000000441
  0
LWPOLYLINE
  5
108
100
AcDbEntity
  8
fundament
  6
ByLayer
 62
  256
370
   -1
100
AcDbPolyline
 90
    9
 70
    0
 43
0
 10
0
 20
40
 10
0
 20
0
 10
888
 20
0
 10
893
 20
-10
 10
903
 20
10
 10
908
 20
0
 10
1000
 20
0
 10
1000
 20
40
 10
0
 20
40
  0
LWPOLYLINE
  5
109
100
AcDbEntity
  8
kontur
  6
ByLayer
 62
  256
370
   -1
100
AcDbPolyline
 90
    4
 70
    1
 43
0
 10
970
 20
367
 10
983
 20
367
 10
983
 20
344
 10
970
 20
344
  0
LWPOLYLINE
  5
10A
100
AcDbEntity
  8
kontur
  6
ByLayer
 62
  256
370
   -1
100
AcDbPolyline
 90
    4
 70
    1
 43
0
 10
970
 20
674
 10
983
 20
674
 10
983
 20
651
 10
970
 20
651
  0
LWPOLYLINE
  5
10B
100
AcDbEntity
  8
kontur
  6
ByLayer
 62
  256
370
   -1
100
AcDbPolyline
 90
    4
 70
    1
 43
0
 10
29
 20
674
 10
17
 20
674
 10
17
 20
651
 10
29
 20
651
  0
LWPOLYLINE
  5
10C
100
AcDbEntity
  8
kontur
  6
ByLayer
 62
  256
370
   -1
100
AcDbPolyline
 90
    4
 70
    1
 43
0
 10
29
 20
367
 10
17
 20
367
 10
17
 20
344
 10
29
 20
344
  0
LWPOLYLINE
  5
10D
100
AcDbEntity
  8
brick
  6
ByLayer
 62
  256
370
   -1
100
AcDbPolyline
 90
    4
 70
    1
 43
0
 10
345
 20
40
 10
370
 20
40
 10
370
 20
325
 10
345
 20
325
  0
LWPOLYLINE
  5
10E
100
AcDbEntity
  8
brick
  6
ByLayer
 62
  256
370
   -1
100
AcDbPolyline
 90
    4
 70
    1
 43
0
 10
345
 20
367
 10
370
 20
367
 10
370
 20
630
 10
345
 20
630
  0
LWPOLYLINE
  5
10F
100
AcDbEntity
  8
kontur
  6
ByLayer
 62
  256
370
   -1
100
AcDbPolyline
 90
    4
 70
    1
 43
0
 10
370
 20
344
 10
345
 20
344
 10
345
 20
325
 10
370
 20
325
  0
LWPOLYLINE
  5
110
100
AcDbEntity
  8
kontur
  6
ByLayer
 62
  256
370
   -1
100
AcDbPolyline
 90
    4
 70
    1
 43
0
 10
370
 20
651
 10
345
 20
651
 10
345
 20
630
 10
370
 20
630
  0
LWPOLYLINE
  5
111
100
AcDbEntity
  8
plyty
  6
ByLayer
 62
  256
370
   -1
100
AcDbPolyline
 90
    4
 70
    1
 43
0
 10
356
 20
367
 10
29
 20
367
 10
29
 20
345
 10
356
 20
345
  0
LWPOLYLINE
  5
112
100
AcDbEntity
  8
plyty
  6
ByLayer
 62
  256
370
   -1
100
AcDbPolyline
 90
    4
 70
    1
 43
0
 10
527
 20
367
 10
359
 20
367
 10
359
 20
345
 10
527
 20
345
  0
LWPOLYLINE
  5
113
100
AcDbEntity
  8
plyty
  6
ByLayer
 62
  256
370
   -1
100
AcDbPolyline
 90
    4
 70
    1
 43
0
 10
530
 20
367
 10
970
 20
367
 10
970
 20
345
 10
530
 20
345
  0
LWPOLYLINE
  5
114
100
AcDbEntity
  8
plyty
  6
ByLayer
 62
  256
370
   -1
100
AcDbPolyline
 90
    4
 70
    1
 43
0
 10
530
 20
674
 10
970
 20
674
 10
970
 20
652
 10
530
 20
652
  0
LWPOLYLINE
  5
115
100
AcDbEntity
  8
plyty
  6
ByLayer
 62
  256
370
   -1
100
AcDbPolyline
 90
    4
 70
    1
 43
0
 10
527
 20
674
 10
29
 20
674
 10
29
 20
652
 10
527
 20
652
  0
LINE
  5
116
100
AcDbEntity
  8
dimensions
  6
DASHDOT2
 62
  256
370
   -1
100
AcDbLine
 10
500
 20
1101.086044354027
 11
500
 21
595.0860443540269
  0
DIMENSION
  5
117
100
AcDbEntity
  8
dimensions
  6
ByLayer
 62
  256
370
   -1
100
AcDbDimension
  2
*D1
 10
1092.119580339074
 20
719.7784771596405
 30
0
 11
832.6543209254678
 21
921.605207692121
 31
0
 70
   33
 71
    5
  3
Standard
 53
0
210
0
220
0
230
1
100
AcDbAlignedDimension
 13
500
 23
1001.086044354027
 33
0
 14
1060.000000000001
 24
666.0860443540259
 34
0
  0
DIMENSION
  5
118
100
AcDbEntity
  8
dimensions
  6
ByLayer
 62
  256
370
   -1
100
AcDbDimension
  2
*D2
 10
468.6967132407761
 20
1053.413926697804
 30
0
 11
168.1619726543822
 21
920.240657230283
 31
0
 70
   33
 71
    5
  3
Standard
 53
0
210
0
220
0
230
1
100
AcDbAlignedDimension
 13
-60
 23
666.0860443540269
 33
0
 14
500
 24
1001.086044354027
 34
0
  0
DIMENSION
  5
119
100
AcDbEntity
  8
dimensions
  6
ByLayer
 62
  256
370
   -1
100
AcDbDimension
  2
*D3
 10
350
 20
701.0860443540269
 30
0
 11
310
 21
851.0860443540269
 31
0
 70
   32
 71
    5
  3
Standard
 53
0
210
0
220
0
230
1
100
AcDbAlignedDimension
 13
500
 23
1001.086044354027
 33
0
 14
500
 24
701.0860443540269
 34
0
 50
90
100
AcDbRotatedDimension
  0
LWPOLYLINE
  5
11A
100
AcDbEntity
  8
shyfer
  6
ByLayer
 62
  256
370
   -1
100
AcDbPolyline
 90
    5
 70
    0
 43
0
 10
500
 20
1001.086044354027
 10
-60
 20
666.0860443540269
 10
-62.05347405863904
 20
669.5187174072748
 10
497.946525941361
 20
1004.518717407275
 10
500
 20
1001.086044354027
  0
LWPOLYLINE
  5
11B
100
AcDbEntity
  8
shyfer
  6
ByLayer
 62
  256
370
   -1
100
AcDbPolyline
 90
    5
 70
    0
 43
0
 10
500
 20
1001.086044354027
 10
502.053474058639
 20
1004.518717407275
 10
1062.053474058641
 20
669.5187174072739
 10
1060
 20
666.0860443540269
 10
500
 20
1001.086044354027
  0
LWPOLYLINE
  5
11C
100
AcDbEntity
  8
derevo
  6
CONTINUOUS
 62
    2
370
   50
100
AcDbPolyline
 90
    7
 70
    1
 43
0
 10
500
 20
980.693773108221
 10
500.0000000000009
 20
998.1728627474829
 10
-47.5
 20
670.650541318912
 10
-47.5
 20
653.1714516796501
 10
17
 20
691.7562731082221
 10
17
 20
697
 10
25.7656330131199
 20
697
  0
LWPOLYLINE
  5
11D
100
AcDbEntity
  8
derevo
  6
ByLayer
 62
  256
370
   -1
100
AcDbPolyline
 90
    4
 70
    1
 43
0
 10
-50
 20
671
 10
-47.5
 20
671
 10
-47.5
 20
646
 10
-50
 20
646
  0
LWPOLYLINE
  5
11E
100
AcDbEntity
  8
derevo
  6
ByLayer
 62
  256
370
   -1
100
AcDbPolyline
 90
    4
 70
    1
 43
0
 10
-47.5
 20
646
 10
0
 20
646
 10
0
 20
648.5
 10
-47.5
 20
648.5
  0
LWPOLYLINE
  5
11F
100
AcDbEntity
  8
derevo
  6
CONTINUOUS
 62
    2
370
   50
100
AcDbPolyline
 90
    7
 70
    1
 43
0
 10
500
 20
980.693773108221
 10
499.9999999999991
 20
998.1728627474829
 10
1047.5
 20
670.650541318912
 10
1047.5
 20
653.1714516796501
 10
983
 20
691.7562731082221
 10
983
 20
697
 10
974.2343669868801
 20
697
  0
LWPOLYLINE
  5
120
100
AcDbEntity
  8
derevo
  6
ByLayer
 62
  256
370
   -1
100
AcDbPolyline
 90
    4
 70
    1
 43
0
 10
1050
 20
671
 10
1047.5
 20
671
 10
1047.5
 20
646
 10
1050
 20
646
  0
LWPOLYLINE
  5
121
100
AcDbEntity
  8
derevo
  6
ByLayer
 62
  256
370
   -1
100
AcDbPolyline
 90
    4
 70
    1
 43
0
 10
1047.5
 20
646
 10
1000
 20
646
 10
1000
 20
648.5
 10
1047.5
 20
648.5
  0
LWPOLYLINE
  5
122
100
AcDbEntity
  8
brick
  6
ByLayer
 62
  256
370
   -1
100
AcDbPolyline
 90
    4
 70
    1
 43
0
 10
508
 20
40
 10
546
 20
40
 10
546
 20
325
 10
508
 20
325
  0
LWPOLYLINE
  5
123
100
AcDbEntity
  8
brick
  6
ByLayer
 62
  256
370
   -1
100
AcDbPolyline
 90
    4
 70
    1
 43
0
 10
508
 20
367
 10
546
 20
367
 10
546
 20
630
 10
508
 20
630
  0
LWPOLYLINE
  5
124
100
AcDbEntity
  8
kontur
  6
ByLayer
 62
  256
370
   -1
100
AcDbPolyline
 90
    4
 70
    1
 43
0
 10
546
 20
344
 10
508
 20
344
 10
508
 20
325
 10
546
 20
325
  0
LWPOLYLINE
  5
125
100
AcDbEntity
  8
kontur
  6
ByLayer
 62
  256
370
   -1
100
AcDbPolyline
 90
    4
 70
    1
 43
0
 10
546
 20
651
 10
508
 20
651
 10
508
 20
630
 10
546
 20
630
  0
MTEXT
  5
126
100
AcDbEntity
  8
dimensions
  6
ByLayer
 62
  256
370
   -1
100
AcDbMText
 10
1300
 20
-200
 30
0
 40
50
 41
204.166666666669
 71
    6
 72
    1
  1
. 7
  7
cyrillic_ii
210
0
220
0
230
1
 50
0
 73
    2
 44
1
  0
LINE
  5
127
100
AcDbEntity
  8
dimensions
  6
ByLayer
 62
  256
370
   -1
100
AcDbLine
 10
40
 20
1360
 11
960
 21
1360
  0
MTEXT
  5
128
100
AcDbEntity
  8
dimensions
  6
ByLayer
 62
  256
370
   -1
100
AcDbMText
 10
500
 20
1400
 30
0
 40
50
 41
788.8888888888889
 71
    5
 72
    1
  1
 , 
  7
cyrillic_ii
210
0
220
0
230
1
 50
0
 73
    2
 44
1
  0
LWPOLYLINE
  5
129
100
AcDbEntity
  8
stiazhka
  6
ByLayer
 62
  256
370
   -1
100
AcDbPolyline
 90
    4
 70
    1
 43
0
 10
549
 20
50
 10
951
 20
50
 10
951
 20
45
 10
549
 20
45
  0
LWPOLYLINE
  5
12A
100
AcDbEntity
  8
epps
  6
ByLayer
 62
  256
370
   -1
100
AcDbPolyline
 90
    4
 70
    1
 43
0
 10
951
 20
50
 10
954
 20
50
 10
954
 20
40
 10
951
 20
40
  0
LWPOLYLINE
  5
12B
100
AcDbEntity
  8
epps
  6
ByLayer
 62
  256
370
   -1
100
AcDbPolyline
 90
    4
 70
    1
 43
0
 10
951
 20
45
 10
549
 20
45
 10
549
 20
40
 10
951
 20
40
  0
LWPOLYLINE
  5
12C
100
AcDbEntity
  8
epps
  6
ByLayer
 62
  256
370
   -1
100
AcDbPolyline
 90
    4
 70
    1
 43
0
 10
546
 20
50
 10
549
 20
50
 10
549
 20
40
 10
546
 20
40
  0
LWPOLYLINE
  5
12D
100
AcDbEntity
  8
stiazhka
  6
ByLayer
 62
  256
370
   -1
100
AcDbPolyline
 90
    4
 70
    1
 43
0
 10
373
 20
50
 10
505
 20
50
 10
505
 20
45
 10
373
 20
45
  0
LWPOLYLINE
  5
12E
100
AcDbEntity
  8
stiazhka
  6
ByLayer
 62
  256
370
   -1
100
AcDbPolyline
 90
    4
 70
    1
 43
0
 10
49
 20
50
 10
342
 20
50
 10
342
 20
45
 10
49
 20
45
  0
LWPOLYLINE
  5
12F
100
AcDbEntity
  8
epps
  6
ByLayer
 62
  256
370
   -1
100
AcDbPolyline
 90
    4
 70
    1
 43
0
 10
505
 20
50
 10
508
 20
50
 10
508
 20
40
 10
505
 20
40
  0
LWPOLYLINE
  5
130
100
AcDbEntity
  8
epps
  6
ByLayer
 62
  256
370
   -1
100
AcDbPolyline
 90
    4
 70
    1
 43
0
 10
370
 20
50
 10
373
 20
50
 10
373
 20
40
 10
370
 20
40
  0
LWPOLYLINE
  5
131
100
AcDbEntity
  8
epps
  6
ByLayer
 62
  256
370
   -1
100
AcDbPolyline
 90
    4
 70
    1
 43
0
 10
342
 20
50
 10
345
 20
50
 10
345
 20
40
 10
342
 20
40
  0
LWPOLYLINE
  5
132
100
AcDbEntity
  8
epps
  6
ByLayer
 62
  256
370
   -1
100
AcDbPolyline
 90
    4
 70
    1
 43
0
 10
46
 20
50
 10
49
 20
50
 10
49
 20
40
 10
46
 20
40
  0
LWPOLYLINE
  5
133
100
AcDbEntity
  8
epps
  6
ByLayer
 62
  256
370
   -1
100
AcDbPolyline
 90
    4
 70
    1
 43
0
 10
342
 20
45
 10
49
 20
45
 10
49
 20
40
 10
342
 20
40
  0
LWPOLYLINE
  5
134
100
AcDbEntity
  8
epps
  6
ByLayer
 62
  256
370
   -1
100
AcDbPolyline
 90
    4
 70
    1
 43
0
 10
505
 20
45
 10
373
 20
45
 10
373
 20
40
 10
505
 20
40
  0
LWPOLYLINE
  5
135
100
AcDbEntity
  8
metal
  6
ByLayer
 62
  256
370
   -1
100
AcDbPolyline
 90
    9
 70
    0
 43
0
 10
1196
 20
54.2
 10
1196.3
 20
54.5
 10
1199.700000000001
 20
54.5
 10
1200
 20
54.2
 10
1200
 20
50.8
 10
1199.700000000001
 20
50.5
 10
1196.3
 20
50.5
 10
1196
 20
50.8
 10
1196
 20
54.2
  0
LWPOLYLINE
  5
136
100
AcDbEntity
  8
metal
  6
ByLayer
 62
  256
370
   -1
100
AcDbPolyline
 90
    9
 70
    0
 43
0
 10
1196.400000000001
 20
54.2
 10
1199.6
 20
54.2
 10
1199.700000000001
 20
54.1
 10
1199.700000000001
 20
50.90000000000001
 10
1199.6
 20
50.8
 10
1196.4
 20
50.8
 10
1196.3
 20
50.90000000000001
 10
1196.3
 20
54.1
 10
1196.400000000001
 20
54.2
  0
LWPOLYLINE
  5
137
100
AcDbEntity
  8
fundament
  6
ByLayer
 62
  256
370
   -1
100
AcDbPolyline
 90
    4
 70
    1
 43
0
 10
1200
 20
40
 10
1170
 20
40
 10
1170
 20
0
 10
1200
 20
0
  0
LWPOLYLINE
  5
138
100
AcDbEntity
  8
stiazhka
  6
ByLayer
 62
  256
370
   -1
100
AcDbPolyline
 90
    4
 70
    1
 43
0
 10
1170
 20
50
 10
1200
 20
50
 10
1200
 20
40
 10
1170
 20
40
  0
LWPOLYLINE
  5
139
100
AcDbEntity
  8
brick
  6
ByLayer
 62
  256
370
   -1
100
AcDbPolyline
 90
    4
 70
    1
 43
0
 10
1140
 20
40
 10
1165
 20
40
 10
1165
 20
52
 10
1140
 20
52
  0
LWPOLYLINE
  5
13A
100
AcDbEntity
  8
styny
  6
ByLayer
 62
  256
370
   -1
100
AcDbPolyline
 90
    4
 70
    1
 43
0
 10
1088
 20
41
 10
1100
 20
41
 10
1100
 20
47.5
 10
1088
 20
47.5
  0
LWPOLYLINE
  5
13B
100
AcDbEntity
  8
styny
  6
ByLayer
 62
  256
370
   -1
100
AcDbPolyline
 90
    4
 70
    1
 43
0
 10
1088
 20
48.50000000000001
 10
1100
 20
48.50000000000001
 10
1100
 20
55.00000000000001
 10
1088
 20
55.00000000000001
  0
LWPOLYLINE
  5
13C
100
AcDbEntity
  8
styny
  6
ByLayer
 62
  256
370
   -1
100
AcDbPolyline
 90
    4
 70
    1
 43
0
 10
1088
 20
56.00000000000001
 10
1100
 20
56.00000000000001
 10
1100
 20
62.50000000000001
 10
1088
 20
62.50000000000001
  0
LWPOLYLINE
  5
13D
100
AcDbEntity
  8
styny
  6
ByLayer
 62
  256
370
   -1
100
AcDbPolyline
 90
    4
 70
    1
 43
0
 10
1088
 20
63.50000000000002
 10
1100
 20
63.50000000000002
 10
1100
 20
70.00000000000003
 10
1088
 20
70.00000000000003
  0
LWPOLYLINE
  5
13E
100
AcDbEntity
  8
styny
  6
ByLayer
 62
  256
370
   -1
100
AcDbPolyline
 90
    4
 70
    1
 43
0
 10
1088
 20
71.00000000000003
 10
1100
 20
71.00000000000003
 10
1100
 20
77.50000000000003
 10
1088
 20
77.50000000000003
  0
LWPOLYLINE
  5
13F
100
AcDbEntity
  8
styny
  6
ByLayer
 62
  256
370
   -1
100
AcDbPolyline
 90
    4
 70
    1
 43
0
 10
1088
 20
78.50000000000003
 10
1100
 20
78.50000000000003
 10
1100
 20
85.00000000000003
 10
1088
 20
85.00000000000003
  0
LWPOLYLINE
  5
140
100
AcDbEntity
  8
styny
  6
ByLayer
 62
  256
370
   -1
100
AcDbPolyline
 90
    4
 70
    1
 43
0
 10
1088
 20
86.00000000000004
 10
1100
 20
86.00000000000004
 10
1100
 20
92.50000000000004
 10
1088
 20
92.50000000000004
  0
LWPOLYLINE
  5
141
100
AcDbEntity
  8
styny
  6
ByLayer
 62
  256
370
   -1
100
AcDbPolyline
 90
    4
 70
    1
 43
0
 10
1088
 20
93.50000000000006
 10
1100
 20
93.50000000000006
 10
1100
 20
100.0000000000001
 10
1088
 20
100.0000000000001
  0
LWPOLYLINE
  5
142
100
AcDbEntity
  8
styny
  6
ByLayer
 62
  256
370
   -1
100
AcDbPolyline
 90
    4
 70
    1
 43
0
 10
1088
 20
101.0000000000001
 10
1100
 20
101.0000000000001
 10
1100
 20
107.5000000000001
 10
1088
 20
107.5000000000001
  0
LWPOLYLINE
  5
143
100
AcDbEntity
  8
styny
  6
ByLayer
 62
  256
370
   -1
100
AcDbPolyline
 90
    4
 70
    1
 43
0
 10
1088
 20
108.5000000000001
 10
1100
 20
108.5000000000001
 10
1100
 20
115.0000000000001
 10
1088
 20
115.0000000000001
  0
LWPOLYLINE
  5
144
100
AcDbEntity
  8
styny
  6
ByLayer
 62
  256
370
   -1
100
AcDbPolyline
 90
    4
 70
    1
 43
0
 10
1088
 20
116
 10
1100
 20
116
 10
1100
 20
122.5
 10
1088
 20
122.5
  0
LWPOLYLINE
  5
145
100
AcDbEntity
  8
styny
  6
ByLayer
 62
  256
370
   -1
100
AcDbPolyline
 90
    4
 70
    1
 43
0
 10
1088
 20
123.5
 10
1100
 20
123.5
 10
1100
 20
130
 10
1088
 20
130
  0
LWPOLYLINE
  5
146
100
AcDbEntity
  8
styny
  6
ByLayer
 62
  256
370
   -1
100
AcDbPolyline
 90
    4
 70
    1
 43
0
 10
1088
 20
131
 10
1100
 20
131
 10
1100
 20
137.5
 10
1088
 20
137.5
  0
LWPOLYLINE
  5
147
100
AcDbEntity
  8
styny
  6
ByLayer
 62
  256
370
   -1
100
AcDbPolyline
 90
    4
 70
    1
 43
0
 10
1088
 20
138.5
 10
1100
 20
138.5
 10
1100
 20
145
 10
1088
 20
145
  0
LWPOLYLINE
  5
148
100
AcDbEntity
  8
styny
  6
ByLayer
 62
  256
370
   -1
100
AcDbPolyline
 90
    4
 70
    1
 43
0
 10
1088
 20
146
 10
1100
 20
146
 10
1100
 20
152.5
 10
1088
 20
152.5
  0
LWPOLYLINE
  5
149
100
AcDbEntity
  8
styny
  6
ByLayer
 62
  256
370
   -1
100
AcDbPolyline
 90
    4
 70
    1
 43
0
 10
1088
 20
153.5
 10
1100
 20
153.5
 10
1100
 20
160
 10
1088
 20
160
  0
LWPOLYLINE
  5
14A
100
AcDbEntity
  8
styny
  6
ByLayer
 62
  256
370
   -1
100
AcDbPolyline
 90
    4
 70
    1
 43
0
 10
1088
 20
161.0000000000001
 10
1100
 20
161.0000000000001
 10
1100
 20
167.5000000000001
 10
1088
 20
167.5000000000001
  0
LWPOLYLINE
  5
14B
100
AcDbEntity
  8
styny
  6
ByLayer
 62
  256
370
   -1
100
AcDbPolyline
 90
    4
 70
    1
 43
0
 10
1088
 20
168.5000000000001
 10
1100
 20
168.5000000000001
 10
1100
 20
175.0000000000001
 10
1088
 20
175.0000000000001
  0
LWPOLYLINE
  5
14C
100
AcDbEntity
  8
styny
  6
ByLayer
 62
  256
370
   -1
100
AcDbPolyline
 90
    4
 70
    1
 43
0
 10
1088
 20
176.0000000000001
 10
1100
 20
176.0000000000001
 10
1100
 20
182.5000000000001
 10
1088
 20
182.5000000000001
  0
LWPOLYLINE
  5
14D
100
AcDbEntity
  8
styny
  6
ByLayer
 62
  256
370
   -1
100
AcDbPolyline
 90
    4
 70
    1
 43
0
 10
1088
 20
183.5000000000001
 10
1100
 20
183.5000000000001
 10
1100
 20
190.0000000000001
 10
1088
 20
190.0000000000001
  0
LWPOLYLINE
  5
14E
100
AcDbEntity
  8
styny
  6
ByLayer
 62
  256
370
   -1
100
AcDbPolyline
 90
    4
 70
    1
 43
0
 10
1088
 20
191
 10
1100
 20
191
 10
1100
 20
197.5
 10
1088
 20
197.5
  0
LWPOLYLINE
  5
14F
100
AcDbEntity
  8
styny
  6
ByLayer
 62
  256
370
   -1
100
AcDbPolyline
 90
    4
 70
    1
 43
0
 10
1088
 20
198.5
 10
1100
 20
198.5
 10
1100
 20
205
 10
1088
 20
205
  0
LWPOLYLINE
  5
150
100
AcDbEntity
  8
styny
  6
ByLayer
 62
  256
370
   -1
100
AcDbPolyline
 90
    4
 70
    1
 43
0
 10
1088
 20
206
 10
1100
 20
206
 10
1100
 20
212.5
 10
1088
 20
212.5
  0
LWPOLYLINE
  5
151
100
AcDbEntity
  8
styny
  6
ByLayer
 62
  256
370
   -1
100
AcDbPolyline
 90
    4
 70
    1
 43
0
 10
1088
 20
213.5
 10
1100
 20
213.5
 10
1100
 20
220
 10
1088
 20
220
  0
LWPOLYLINE
  5
152
100
AcDbEntity
  8
styny
  6
ByLayer
 62
  256
370
   -1
100
AcDbPolyline
 90
    4
 70
    1
 43
0
 10
1088
 20
221
 10
1100
 20
221
 10
1100
 20
227.5
 10
1088
 20
227.5
  0
LWPOLYLINE
  5
153
100
AcDbEntity
  8
styny
  6
ByLayer
 62
  256
370
   -1
100
AcDbPolyline
 90
    4
 70
    1
 43
0
 10
1088
 20
228.5
 10
1100
 20
228.5
 10
1100
 20
235
 10
1088
 20
235
  0
LWPOLYLINE
  5
154
100
AcDbEntity
  8
styny
  6
ByLayer
 62
  256
370
   -1
100
AcDbPolyline
 90
    4
 70
    1
 43
0
 10
1088
 20
236.0000000000001
 10
1100
 20
236.0000000000001
 10
1100
 20
242.5000000000001
 10
1088
 20
242.5000000000001
  0
LWPOLYLINE
  5
155
100
AcDbEntity
  8
styny
  6
ByLayer
 62
  256
370
   -1
100
AcDbPolyline
 90
    4
 70
    1
 43
0
 10
1088
 20
243.5000000000001
 10
1100
 20
243.5000000000001
 10
1100
 20
250.0000000000001
 10
1088
 20
250.0000000000001
  0
LWPOLYLINE
  5
156
100
AcDbEntity
  8
styny
  6
ByLayer
 62
  256
370
   -1
100
AcDbPolyline
 90
    4
 70
    1
 43
0
 10
1088
 20
251.0000000000001
 10
1100
 20
251.0000000000001
 10
1100
 20
257.5000000000001
 10
1088
 20
257.5000000000001
  0
LWPOLYLINE
  5
157
100
AcDbEntity
  8
styny
  6
ByLayer
 62
  256
370
   -1
100
AcDbPolyline
 90
    4
 70
    1
 43
0
 10
1088
 20
258.5000000000001
 10
1100
 20
258.5000000000001
 10
1100
 20
265.0000000000001
 10
1088
 20
265.0000000000001
  0
LWPOLYLINE
  5
158
100
AcDbEntity
  8
styny
  6
ByLayer
 62
  256
370
   -1
100
AcDbPolyline
 90
    4
 70
    1
 43
0
 10
1088
 20
266
 10
1100
 20
266
 10
1100
 20
272.5
 10
1088
 20
272.5
  0
LWPOLYLINE
  5
159
100
AcDbEntity
  8
styny
  6
ByLayer
 62
  256
370
   -1
100
AcDbPolyline
 90
    4
 70
    1
 43
0
 10
1088
 20
273.5
 10
1100
 20
273.5
 10
1100
 20
280
 10
1088
 20
280
  0
LWPOLYLINE
  5
15A
100
AcDbEntity
  8
styny
  6
ByLayer
 62
  256
370
   -1
100
AcDbPolyline
 90
    4
 70
    1
 43
0
 10
1088
 20
281
 10
1100
 20
281
 10
1100
 20
287.5
 10
1088
 20
287.5
  0
LWPOLYLINE
  5
15B
100
AcDbEntity
  8
styny
  6
ByLayer
 62
  256
370
   -1
100
AcDbPolyline
 90
    4
 70
    1
 43
0
 10
1088
 20
288.5
 10
1100
 20
288.5
 10
1100
 20
295
 10
1088
 20
295
  0
LWPOLYLINE
  5
15C
100
AcDbEntity
  8
styny
  6
ByLayer
 62
  256
370
   -1
100
AcDbPolyline
 90
    4
 70
    1
 43
0
 10
1088
 20
296
 10
1100
 20
296
 10
1100
 20
302.5
 10
1088
 20
302.5
  0
LWPOLYLINE
  5
15D
100
AcDbEntity
  8
styny
  6
ByLayer
 62
  256
370
   -1
100
AcDbPolyline
 90
    4
 70
    1
 43
0
 10
1088
 20
303.5
 10
1100
 20
303.5
 10
1100
 20
310
 10
1088
 20
310
  0
LWPOLYLINE
  5
15E
100
AcDbEntity
  8
styny
  6
ByLayer
 62
  256
370
   -1
100
AcDbPolyline
 90
    4
 70
    1
 43
0
 10
1088
 20
311.0000000000001
 10
1100
 20
311.0000000000001
 10
1100
 20
317.5000000000001
 10
1088
 20
317.5000000000001
  0
LWPOLYLINE
  5
15F
100
AcDbEntity
  8
styny
  6
ByLayer
 62
  256
370
   -1
100
AcDbPolyline
 90
    4
 70
    1
 43
0
 10
1088
 20
318.5000000000001
 10
1100
 20
318.5000000000001
 10
1100
 20
325.0000000000001
 10
1088
 20
325.0000000000001
  0
LWPOLYLINE
  5
160
100
AcDbEntity
  8
styny
  6
ByLayer
 62
  256
370
   -1
100
AcDbPolyline
 90
    4
 70
    1
 43
0
 10
1088
 20
326.0000000000001
 10
1100
 20
326.0000000000001
 10
1100
 20
332.5000000000001
 10
1088
 20
332.5000000000001
  0
LWPOLYLINE
  5
161
100
AcDbEntity
  8
styny
  6
ByLayer
 62
  256
370
   -1
100
AcDbPolyline
 90
    4
 70
    1
 43
0
 10
1088
 20
333.5000000000001
 10
1100
 20
333.5000000000001
 10
1100
 20
340.0000000000001
 10
1088
 20
340.0000000000001
  0
LWPOLYLINE
  5
162
100
AcDbEntity
  8
styny
  6
ByLayer
 62
  256
370
   -1
100
AcDbPolyline
 90
    4
 70
    1
 43
0
 10
1088
 20
341
 10
1100
 20
341
 10
1100
 20
347.5
 10
1088
 20
347.5
  0
LWPOLYLINE
  5
163
100
AcDbEntity
  8
styny
  6
ByLayer
 62
  256
370
   -1
100
AcDbPolyline
 90
    4
 70
    1
 43
0
 10
1088
 20
348.5
 10
1100
 20
348.5
 10
1100
 20
355
 10
1088
 20
355
  0
LWPOLYLINE
  5
164
100
AcDbEntity
  8
styny
  6
ByLayer
 62
  256
370
   -1
100
AcDbPolyline
 90
    4
 70
    1
 43
0
 10
1088
 20
356
 10
1100
 20
356
 10
1100
 20
362.5
 10
1088
 20
362.5
  0
LWPOLYLINE
  5
165
100
AcDbEntity
  8
styny
  6
ByLayer
 62
  256
370
   -1
100
AcDbPolyline
 90
    4
 70
    1
 43
0
 10
1088
 20
363.5
 10
1100
 20
363.5
 10
1100
 20
370
 10
1088
 20
370
  0
LWPOLYLINE
  5
166
100
AcDbEntity
  8
styny
  6
ByLayer
 62
  256
370
   -1
100
AcDbPolyline
 90
    4
 70
    1
 43
0
 10
1088
 20
371
 10
1100
 20
371
 10
1100
 20
377.5
 10
1088
 20
377.5
  0
LWPOLYLINE
  5
167
100
AcDbEntity
  8
styny
  6
ByLayer
 62
  256
370
   -1
100
AcDbPolyline
 90
    4
 70
    1
 43
0
 10
1088
 20
378.5
 10
1100
 20
378.5
 10
1100
 20
385
 10
1088
 20
385
  0
LWPOLYLINE
  5
168
100
AcDbEntity
  8
styny
  6
ByLayer
 62
  256
370
   -1
100
AcDbPolyline
 90
    4
 70
    1
 43
0
 10
1088
 20
386.0000000000001
 10
1100
 20
386.0000000000001
 10
1100
 20
392.5000000000001
 10
1088
 20
392.5000000000001
  0
LWPOLYLINE
  5
169
100
AcDbEntity
  8
styny
  6
ByLayer
 62
  256
370
   -1
100
AcDbPolyline
 90
    4
 70
    1
 43
0
 10
1088
 20
393.5000000000001
 10
1100
 20
393.5000000000001
 10
1100
 20
400.0000000000001
 10
1088
 20
400.0000000000001
  0
LWPOLYLINE
  5
16A
100
AcDbEntity
  8
styny
  6
ByLayer
 62
  256
370
   -1
100
AcDbPolyline
 90
    4
 70
    1
 43
0
 10
1088
 20
401.0000000000001
 10
1100
 20
401.0000000000001
 10
1100
 20
407.5000000000001
 10
1088
 20
407.5000000000001
  0
LWPOLYLINE
  5
16B
100
AcDbEntity
  8
styny
  6
ByLayer
 62
  256
370
   -1
100
AcDbPolyline
 90
    4
 70
    1
 43
0
 10
1088
 20
408.5000000000001
 10
1100
 20
408.5000000000001
 10
1100
 20
415.0000000000001
 10
1088
 20
415.0000000000001
  0
LWPOLYLINE
  5
16C
100
AcDbEntity
  8
styny
  6
ByLayer
 62
  256
370
   -1
100
AcDbPolyline
 90
    4
 70
    1
 43
0
 10
1088
 20
416
 10
1100
 20
416
 10
1100
 20
422.5
 10
1088
 20
422.5
  0
LWPOLYLINE
  5
16D
100
AcDbEntity
  8
styny
  6
ByLayer
 62
  256
370
   -1
100
AcDbPolyline
 90
    4
 70
    1
 43
0
 10
1088
 20
423.5
 10
1100
 20
423.5
 10
1100
 20
430
 10
1088
 20
430
  0
LWPOLYLINE
  5
16E
100
AcDbEntity
  8
styny
  6
ByLayer
 62
  256
370
   -1
100
AcDbPolyline
 90
    4
 70
    1
 43
0
 10
1088
 20
431
 10
1100
 20
431
 10
1100
 20
437.5
 10
1088
 20
437.5
  0
LWPOLYLINE
  5
16F
100
AcDbEntity
  8
styny
  6
ByLayer
 62
  256
370
   -1
100
AcDbPolyline
 90
    4
 70
    1
 43
0
 10
1088
 20
438.5
 10
1100
 20
438.5
 10
1100
 20
445
 10
1088
 20
445
  0
LWPOLYLINE
  5
170
100
AcDbEntity
  8
styny
  6
ByLayer
 62
  256
370
   -1
100
AcDbPolyline
 90
    4
 70
    1
 43
0
 10
1088
 20
446
 10
1100
 20
446
 10
1100
 20
452.5
 10
1088
 20
452.5
  0
LWPOLYLINE
  5
171
100
AcDbEntity
  8
styny
  6
ByLayer
 62
  256
370
   -1
100
AcDbPolyline
 90
    4
 70
    1
 43
0
 10
1088
 20
453.5
 10
1100
 20
453.5
 10
1100
 20
460
 10
1088
 20
460
  0
LWPOLYLINE
  5
172
100
AcDbEntity
  8
styny
  6
ByLayer
 62
  256
370
   -1
100
AcDbPolyline
 90
    4
 70
    1
 43
0
 10
1088
 20
461.0000000000001
 10
1100
 20
461.0000000000001
 10
1100
 20
467.5000000000001
 10
1088
 20
467.5000000000001
  0
LWPOLYLINE
  5
173
100
AcDbEntity
  8
styny
  6
ByLayer
 62
  256
370
   -1
100
AcDbPolyline
 90
    4
 70
    1
 43
0
 10
1088
 20
468.5000000000001
 10
1100
 20
468.5000000000001
 10
1100
 20
475.0000000000001
 10
1088
 20
475.0000000000001
  0
LWPOLYLINE
  5
174
100
AcDbEntity
  8
styny
  6
ByLayer
 62
  256
370
   -1
100
AcDbPolyline
 90
    4
 70
    1
 43
0
 10
1088
 20
476.0000000000001
 10
1100
 20
476.0000000000001
 10
1100
 20
482.5000000000001
 10
1088
 20
482.5000000000001
  0
LWPOLYLINE
  5
175
100
AcDbEntity
  8
styny
  6
ByLayer
 62
  256
370
   -1
100
AcDbPolyline
 90
    4
 70
    1
 43
0
 10
1088
 20
483.5000000000001
 10
1100
 20
483.5000000000001
 10
1100
 20
490.0000000000001
 10
1088
 20
490.0000000000001
  0
LWPOLYLINE
  5
176
100
AcDbEntity
  8
styny
  6
ByLayer
 62
  256
370
   -1
100
AcDbPolyline
 90
    4
 70
    1
 43
0
 10
1088
 20
491
 10
1100
 20
491
 10
1100
 20
497.5
 10
1088
 20
497.5
  0
LWPOLYLINE
  5
177
100
AcDbEntity
  8
styny
  6
ByLayer
 62
  256
370
   -1
100
AcDbPolyline
 90
    4
 70
    1
 43
0
 10
1088
 20
498.5
 10
1100
 20
498.5
 10
1100
 20
505
 10
1088
 20
505
  0
LWPOLYLINE
  5
178
100
AcDbEntity
  8
styny
  6
ByLayer
 62
  256
370
   -1
100
AcDbPolyline
 90
    4
 70
    1
 43
0
 10
1088
 20
506
 10
1100
 20
506
 10
1100
 20
512.5
 10
1088
 20
512.5
  0
LWPOLYLINE
  5
179
100
AcDbEntity
  8
styny
  6
ByLayer
 62
  256
370
   -1
100
AcDbPolyline
 90
    4
 70
    1
 43
0
 10
1088
 20
513.5
 10
1100
 20
513.5
 10
1100
 20
520
 10
1088
 20
520
  0
LWPOLYLINE
  5
17A
100
AcDbEntity
  8
styny
  6
ByLayer
 62
  256
370
   -1
100
AcDbPolyline
 90
    4
 70
    1
 43
0
 10
1088
 20
521
 10
1100
 20
521
 10
1100
 20
527.5
 10
1088
 20
527.5
  0
LWPOLYLINE
  5
17B
100
AcDbEntity
  8
styny
  6
ByLayer
 62
  256
370
   -1
100
AcDbPolyline
 90
    4
 70
    1
 43
0
 10
1088
 20
528.5
 10
1100
 20
528.5
 10
1100
 20
535
 10
1088
 20
535
  0
LWPOLYLINE
  5
17C
100
AcDbEntity
  8
styny
  6
ByLayer
 62
  256
370
   -1
100
AcDbPolyline
 90
    4
 70
    1
 43
0
 10
1088
 20
536
 10
1100
 20
536
 10
1100
 20
542.5
 10
1088
 20
542.5
  0
LWPOLYLINE
  5
17D
100
AcDbEntity
  8
styny
  6
ByLayer
 62
  256
370
   -1
100
AcDbPolyline
 90
    4
 70
    1
 43
0
 10
1088
 20
543.5
 10
1100
 20
543.5
 10
1100
 20
550
 10
1088
 20
550
  0
LWPOLYLINE
  5
17E
100
AcDbEntity
  8
styny
  6
ByLayer
 62
  256
370
   -1
100
AcDbPolyline
 90
    4
 70
    1
 43
0
 10
1088
 20
551
 10
1100
 20
551
 10
1100
 20
557.5
 10
1088
 20
557.5
  0
LWPOLYLINE
  5
17F
100
AcDbEntity
  8
styny
  6
ByLayer
 62
  256
370
   -1
100
AcDbPolyline
 90
    4
 70
    1
 43
0
 10
1088
 20
558.5
 10
1100
 20
558.5
 10
1100
 20
565
 10
1088
 20
565
  0
LWPOLYLINE
  5
180
100
AcDbEntity
  8
styny
  6
ByLayer
 62
  256
370
   -1
100
AcDbPolyline
 90
    4
 70
    1
 43
0
 10
1088
 20
566
 10
1100
 20
566
 10
1100
 20
572.5
 10
1088
 20
572.5
  0
LWPOLYLINE
  5
181
100
AcDbEntity
  8
styny
  6
ByLayer
 62
  256
370
   -1
100
AcDbPolyline
 90
    4
 70
    1
 43
0
 10
1088
 20
573.5
 10
1100
 20
573.5
 10
1100
 20
580
 10
1088
 20
580
  0
LWPOLYLINE
  5
182
100
AcDbEntity
  8
styny
  6
ByLayer
 62
  256
370
   -1
100
AcDbPolyline
 90
    4
 70
    1
 43
0
 10
1088
 20
581
 10
1100
 20
581
 10
1100
 20
587.5
 10
1088
 20
587.5
  0
LWPOLYLINE
  5
183
100
AcDbEntity
  8
styny
  6
ByLayer
 62
  256
370
   -1
100
AcDbPolyline
 90
    4
 70
    1
 43
0
 10
1088
 20
588.5
 10
1100
 20
588.5
 10
1100
 20
595
 10
1088
 20
595
  0
LWPOLYLINE
  5
184
100
AcDbEntity
  8
styny
  6
ByLayer
 62
  256
370
   -1
100
AcDbPolyline
 90
    4
 70
    1
 43
0
 10
1088
 20
596
 10
1100
 20
596
 10
1100
 20
602.5
 10
1088
 20
602.5
  0
LWPOLYLINE
  5
185
100
AcDbEntity
  8
styny
  6
ByLayer
 62
  256
370
   -1
100
AcDbPolyline
 90
    4
 70
    1
 43
0
 10
1088
 20
603.5
 10
1100
 20
603.5
 10
1100
 20
610
 10
1088
 20
610
  0
LWPOLYLINE
  5
186
100
AcDbEntity
  8
styny
  6
ByLayer
 62
  256
370
   -1
100
AcDbPolyline
 90
    4
 70
    1
 43
0
 10
1088
 20
611
 10
1100
 20
611
 10
1100
 20
617.5
 10
1088
 20
617.5
  0
LWPOLYLINE
  5
187
100
AcDbEntity
  8
styny
  6
ByLayer
 62
  256
370
   -1
100
AcDbPolyline
 90
    4
 70
    1
 43
0
 10
1088
 20
618.5
 10
1100
 20
618.5
 10
1100
 20
625
 10
1088
 20
625
  0
LWPOLYLINE
  5
188
100
AcDbEntity
  8
styny
  6
ByLayer
 62
  256
370
   -1
100
AcDbPolyline
 90
    4
 70
    1
 43
0
 10
1088
 20
626
 10
1100
 20
626
 10
1100
 20
632.5
 10
1088
 20
632.5
  0
LWPOLYLINE
  5
189
100
AcDbEntity
  8
styny
  6
ByLayer
 62
  256
370
   -1
100
AcDbPolyline
 90
    4
 70
    1
 43
0
 10
1088
 20
633.5
 10
1100
 20
633.5
 10
1100
 20
640
 10
1088
 20
640
  0
LWPOLYLINE
  5
18A
100
AcDbEntity
  8
styny
  6
ByLayer
 62
  256
370
   -1
100
AcDbPolyline
 90
    4
 70
    1
 43
0
 10
1088
 20
641
 10
1100
 20
641
 10
1100
 20
647.5
 10
1088
 20
647.5
  0
LWPOLYLINE
  5
18B
100
AcDbEntity
  8
styny
  6
ByLayer
 62
  256
370
   -1
100
AcDbPolyline
 90
    4
 70
    1
 43
0
 10
1088
 20
648.5
 10
1100
 20
648.5
 10
1100
 20
655
 10
1088
 20
655
  0
LWPOLYLINE
  5
18C
100
AcDbEntity
  8
styny
  6
ByLayer
 62
  256
370
   -1
100
AcDbPolyline
 90
    4
 70
    1
 43
0
 10
1088
 20
656
 10
1100
 20
656
 10
1100
 20
662.5
 10
1088
 20
662.5
  0
LWPOLYLINE
  5
18D
100
AcDbEntity
  8
styny
  6
ByLayer
 62
  256
370
   -1
100
AcDbPolyline
 90
    4
 70
    1
 43
0
 10
1088
 20
663.5
 10
1100
 20
663.5
 10
1100
 20
670
 10
1088
 20
670
  0
LWPOLYLINE
  5
18E
100
AcDbEntity
  8
brick
  6
ByLayer
 62
  256
370
   -1
100
AcDbPolyline
 90
    4
 70
    1
 43
0
 10
1088
 20
671
 10
1100
 20
671
 10
1100
 20
677.5
 10
1088
 20
677.5
  0
LWPOLYLINE
  5
18F
100
AcDbEntity
  8
brick
  6
ByLayer
 62
  256
370
   -1
100
AcDbPolyline
 90
    4
 70
    1
 43
0
 10
1088
 20
678.5
 10
1100
 20
678.5
 10
1100
 20
685
 10
1088
 20
685
  0
LWPOLYLINE
  5
190
100
AcDbEntity
  8
brick
  6
ByLayer
 62
  256
370
   -1
100
AcDbPolyline
 90
    4
 70
    1
 43
0
 10
1088
 20
686
 10
1100
 20
686
 10
1100
 20
692.5
 10
1088
 20
692.5
  0
LWPOLYLINE
  5
191
100
AcDbEntity
  8
gazoblok
  6
ByLayer
 62
  256
370
   -1
100
AcDbPolyline
 90
    4
 70
    1
 43
0
 10
1084
 20
41
 10
1054
 20
41
 10
1054
 20
61
 10
1084
 20
61
  0
LWPOLYLINE
  5
192
100
AcDbEntity
  8
gazoblok
  6
ByLayer
 62
  256
370
   -1
100
AcDbPolyline
 90
    4
 70
    1
 43
0
 10
1084
 20
61.3
 10
1054
 20
61.3
 10
1054
 20
81.30000000000001
 10
1084
 20
81.30000000000001
  0
LWPOLYLINE
  5
193
100
AcDbEntity
  8
gazoblok
  6
ByLayer
 62
  256
370
   -1
100
AcDbPolyline
 90
    4
 70
    1
 43
0
 10
1084
 20
81.60000000000001
 10
1054
 20
81.60000000000001
 10
1054
 20
101.6
 10
1084
 20
101.6
  0
LWPOLYLINE
  5
194
100
AcDbEntity
  8
gazoblok
  6
ByLayer
 62
  256
370
   -1
100
AcDbPolyline
 90
    4
 70
    1
 43
0
 10
1084
 20
101.9
 10
1054
 20
101.9
 10
1054
 20
121.9
 10
1084
 20
121.9
  0
LWPOLYLINE
  5
195
100
AcDbEntity
  8
gazoblok
  6
ByLayer
 62
  256
370
   -1
100
AcDbPolyline
 90
    4
 70
    1
 43
0
 10
1084
 20
122.2
 10
1054
 20
122.2
 10
1054
 20
142.2
 10
1084
 20
142.2
  0
LWPOLYLINE
  5
196
100
AcDbEntity
  8
gazoblok
  6
ByLayer
 62
  256
370
   -1
100
AcDbPolyline
 90
    4
 70
    1
 43
0
 10
1084
 20
142.5
 10
1054
 20
142.5
 10
1054
 20
162.5
 10
1084
 20
162.5
  0
LWPOLYLINE
  5
197
100
AcDbEntity
  8
gazoblok
  6
ByLayer
 62
  256
370
   -1
100
AcDbPolyline
 90
    4
 70
    1
 43
0
 10
1084
 20
162.8
 10
1054
 20
162.8
 10
1054
 20
182.8
 10
1084
 20
182.8
  0
LWPOLYLINE
  5
198
100
AcDbEntity
  8
gazoblok
  6
ByLayer
 62
  256
370
   -1
100
AcDbPolyline
 90
    4
 70
    1
 43
0
 10
1084
 20
183.1
 10
1054
 20
183.1
 10
1054
 20
203.1
 10
1084
 20
203.1
  0
LWPOLYLINE
  5
199
100
AcDbEntity
  8
gazoblok
  6
ByLayer
 62
  256
370
   -1
100
AcDbPolyline
 90
    4
 70
    1
 43
0
 10
1084
 20
203.4
 10
1054
 20
203.4
 10
1054
 20
223.4
 10
1084
 20
223.4
  0
LWPOLYLINE
  5
19A
100
AcDbEntity
  8
gazoblok
  6
ByLayer
 62
  256
370
   -1
100
AcDbPolyline
 90
    4
 70
    1
 43
0
 10
1084
 20
223.7
 10
1054
 20
223.7
 10
1054
 20
243.7
 10
1084
 20
243.7
  0
LWPOLYLINE
  5
19B
100
AcDbEntity
  8
gazoblok
  6
ByLayer
 62
  256
370
   -1
100
AcDbPolyline
 90
    4
 70
    1
 43
0
 10
1084
 20
244.0000000000001
 10
1054
 20
244.0000000000001
 10
1054
 20
264.0000000000001
 10
1084
 20
264.0000000000001
  0
LWPOLYLINE
  5
19C
100
AcDbEntity
  8
gazoblok
  6
ByLayer
 62
  256
370
   -1
100
AcDbPolyline
 90
    4
 70
    1
 43
0
 10
1084
 20
264.3000000000001
 10
1054
 20
264.3000000000001
 10
1054
 20
284.3000000000001
 10
1084
 20
284.3000000000001
  0
LWPOLYLINE
  5
19D
100
AcDbEntity
  8
gazoblok
  6
ByLayer
 62
  256
370
   -1
100
AcDbPolyline
 90
    4
 70
    1
 43
0
 10
1084
 20
284.6
 10
1054
 20
284.6
 10
1054
 20
304.6
 10
1084
 20
304.6
  0
LWPOLYLINE
  5
19E
100
AcDbEntity
  8
gazoblok
  6
ByLayer
 62
  256
370
   -1
100
AcDbPolyline
 90
    4
 70
    1
 43
0
 10
1084
 20
304.9
 10
1054
 20
304.9
 10
1054
 20
324.9
 10
1084
 20
324.9
  0
LWPOLYLINE
  5
19F
100
AcDbEntity
  8
gazoblok
  6
ByLayer
 62
  256
370
   -1
100
AcDbPolyline
 90
    4
 70
    1
 43
0
 10
1084
 20
325.2
 10
1054
 20
325.2
 10
1054
 20
345.2
 10
1084
 20
345.2
  0
LWPOLYLINE
  5
1A0
100
AcDbEntity
  8
styny
  6
ByLayer
 62
  256
370
   -1
100
AcDbPolyline
 90
    4
 70
    1
 43
0
 10
1077
 20
116
 10
1102
 20
116
 10
1102
 20
128
 10
1077
 20
128
  0
LINE
  5
1A1
100
AcDbEntity
  8
0
  6
ByLayer
 62
  256
370
   -1
100
AcDbLine
 10
1088
 20
257.5000000000001
 11
1100
 21
257.5000000000001
  0
LINE
  5
1A2
100
AcDbEntity
  8
0
  6
ByLayer
 62
  256
370
   -1
100
AcDbLine
 10
1100
 20
262.5
 11
1088
 21
262.5
  0
ENDSEC
  0
SECTION
  2
OBJECTS
  0
DICTIONARY
  5
C
330
0
100
AcDbDictionary
281
    1
  3
ACAD_GROUP
350
D
  0
DICTIONARY
  5
D
330
C
100
AcDbDictionary
281
    1
  0
ENDSEC
  0
EOF
