999
dxfrw 0.6.3
  0
SECTION
  2
HEADER
  9
$ACADVER
  1
AC1021
  9
$DWGCODEPAGE
  3
ANSI_1252
  9
$INSBASE
 10
0
 20
0
 30
0
  9
$EXTMIN
 10
-16
 20
-24.16666666666667
 30
0
  9
$EXTMAX
 10
139.436977815057
 20
182.5
 30
0
  9
$LIMMIN
 10
0
 20
0
  9
$LIMMAX
 10
420
 20
297
  9
$ORTHOMODE
 70
    0
  9
$REGENMODE
 70
    1
  9
$FILLMODE
 70
    1
  9
$QTEXTMODE
 70
    0
  9
$MIRRTEXT
 70
    0
  9
$LTSCALE
 40
1
  9
$ATTMODE
 70
    0
  9
$TEXTSIZE
 40
2.5
  9
$TRACEWID
 40
15.68
  9
$TEXTSTYLE
  7
STANDARD
  9
$CLAYER
  8
0
  9
$CELTYPE
  6
BYLAYER
  9
$CECOLOR
 62
  256
  9
$CELTSCALE
 40
1
  9
$DISPSILH
 70
    0
  9
$DIMSCALE
 40
1
  9
$DIMASZ
 40
2
  9
$DIMEXO
 40
1
  9
$DIMDLI
 40
3.75
  9
$DIMRND
 40
0
  9
$DIMDLE
 40
0
  9
$DIMEXE
 40
2
  9
$DIMTP
 40
0
  9
$DIMTM
 40
0
  9
$DIMTXT
 40
4
  9
$DIMCEN
 40
2.5
  9
$DIMTSZ
 40
0
  9
$DIMTOL
 70
    0
  9
$DIMLIM
 70
    0
  9
$DIMTIH
 70
    0
  9
$DIMTOH
 70
    0
  9
$DIMSE1
 70
    0
  9
$DIMSE2
 70
    0
  9
$DIMTAD
 70
    1
  9
$DIMZIN
 70
    8
  9
$DIMBLK
  1

  9
$DIMASO
 70
    1
  9
$DIMSHO
 70
    1
  9
$DIMPOST
  1

  9
$DIMAPOST
  1

  9
$DIMALT
 70
    0
  9
$DIMALTD
 70
    3
  9
$DIMALTF
 40
0.03937
  9
$DIMLFAC
 40
1
  9
$DIMTOFL
 70
    1
  9
$DIMTVP
 40
0
  9
$DIMTIX
 70
    0
  9
$DIMSOXD
 70
    0
  9
$DIMSAH
 70
    0
  9
$DIMBLK1
  1

  9
$DIMBLK2
  1

  9
$DIMSTYLE
  2
STANDARD
  9
$DIMCLRD
 70
    0
  9
$DIMCLRE
 70
    0
  9
$DIMCLRT
 70
    0
  9
$DIMTFAC
 40
1
  9
$DIMGAP
 40
2
  9
$DIMJUST
 70
    0
  9
$DIMSD1
 70
    0
  9
$DIMSD2
 70
    0
  9
$DIMTOLJ
 70
    0
  9
$DIMTZIN
 70
    8
  9
$DIMALTZ
 70
    0
  9
$DIMALTTZ
 70
    0
  9
$DIMUPT
 70
    0
  9
$DIMDEC
 70
    1
  9
$DIMTDEC
 70
    2
  9
$DIMALTU
 70
    2
  9
$DIMALTTD
 70
    3
  9
$DIMTXSTY
  7
standard
  9
$DIMAUNIT
 70
    0
  9
$DIMADEC
 70
    0
  9
$DIMALTRND
 40
0
  9
$DIMAZIN
 70
    0
  9
$DIMDSEP
 70
   44
  9
$DIMATFIT
 70
    3
  9
$DIMFRAC
 70
    0
  9
$DIMLDRBLK
  1
STANDARD
  9
$DIMLUNIT
 70
    2
  9
$DIMLWD
 70
   -2
  9
$DIMLWE
 70
   -2
  9
$DIMTMOVE
 70
    0
  9
$DIMFXL
 40
1
  9
$DIMFXLON
 70
    0
  9
$DIMJOGANG
 40
0.7854
  9
$DIMTFILL
 70
    0
  9
$DIMTFILLCLR
 70
    0
  9
$DIMARCSYM
 70
    0
  9
$DIMLTYPE
  6

  9
$DIMLTEX1
  6

  9
$DIMLTEX2
  6

  9
$LUNITS
 70
    2
  9
$LUPREC
 70
    2
  9
$SKETCHINC
 40
1
  9
$FILLETRAD
 40
0
  9
$AUNITS
 70
    0
  9
$AUPREC
 70
    2
  9
$MENU
  1
.
  9
$ELEVATION
 40
0
  9
$PELEVATION
 40
0
  9
$THICKNESS
 40
0
  9
$LIMCHECK
 70
    0
  9
$CHAMFERA
 40
0
  9
$CHAMFERB
 40
0
  9
$CHAMFERC
 40
0
  9
$CHAMFERD
 40
0
  9
$SKPOLY
 70
    0
  9
$USRTIMER
 70
    1
  9
$ANGBASE
 50
0
  9
$ANGDIR
 70
    0
  9
$PDMODE
 70
   34
  9
$PDSIZE
 40
0
  9
$PLINEWID
 40
0
  9
$SPLFRAME
 70
    0
  9
$SPLINETYPE
 70
    2
  9
$SPLINESEGS
 70
    8
  9
$HANDSEED
  5
20000
  9
$SURFTAB1
 70
    6
  9
$SURFTAB2
 70
    6
  9
$SURFTYPE
 70
    6
  9
$SURFU
 70
    6
  9
$SURFV
 70
    6
  9
$UCSBASE
  2

  9
$UCSNAME
  2

  9
$UCSORG
 10
0
 20
0
 30
0
  9
$UCSXDIR
 10
1
 20
0
 30
0
  9
$UCSYDIR
 10
0
 20
1
 30
0
  9
$UCSORTHOREF
  2

  9
$UCSORTHOVIEW
 70
    0
  9
$UCSORGTOP
 10
0
 20
0
 30
0
  9
$UCSORGBOTTOM
 10
0
 20
0
 30
0
  9
$UCSORGLEFT
 10
0
 20
0
 30
0
  9
$UCSORGRIGHT
 10
0
 20
0
 30
0
  9
$UCSORGFRONT
 10
0
 20
0
 30
0
  9
$UCSORGBACK
 10
0
 20
0
 30
0
  9
$PUCSBASE
  2

  9
$PUCSNAME
  2

  9
$PUCSORG
 10
0
 20
0
 30
0
  9
$PUCSXDIR
 10
1
 20
0
 30
0
  9
$PUCSYDIR
 10
0
 20
1
 30
0
  9
$PUCSORTHOREF
  2

  9
$PUCSORTHOVIEW
 70
    0
  9
$PUCSORGTOP
 10
0
 20
0
 30
0
  9
$PUCSORGBOTTOM
 10
0
 20
0
 30
0
  9
$PUCSORGLEFT
 10
0
 20
0
 30
0
  9
$PUCSORGRIGHT
 10
0
 20
0
 30
0
  9
$PUCSORGFRONT
 10
0
 20
0
 30
0
  9
$PUCSORGBACK
 10
0
 20
0
 30
0
  9
$USERI1
 70
    0
  9
$USERI2
 70
    0
  9
$USERI3
 70
    0
  9
$USERI4
 70
    0
  9
$USERI5
 70
    0
  9
$USERR1
 40
0
  9
$USERR2
 40
0
  9
$USERR3
 40
0
  9
$USERR4
 40
0
  9
$USERR5
 40
0
  9
$WORLDVIEW
 70
    1
  9
$SHADEDGE
 70
    3
  9
$SHADEDIF
 70
   70
  9
$TILEMODE
 70
    1
  9
$MAXACTVP
 70
   64
  9
$PINSBASE
 10
3.268957617411224
 20
8.751718213058417
 30
0
  9
$PLIMCHECK
 70
    0
  9
$PEXTMIN
 10
0
 20
0
 30
0
  9
$PEXTMAX
 10
0
 20
0
 30
0
  9
$GRIDMODE
 70
    1
  9
$SNAPSTYLE
 70
    0
  9
$GRIDUNIT
 10
0
 20
0
  9
$PLIMMIN
 10
0
 20
0
  9
$PLIMMAX
 10
21
 20
29.7
  9
$UNITMODE
 70
    0
  9
$VISRETAIN
 70
    1
  9
$PLINEGEN
 70
    0
  9
$PSLTSCALE
 70
    1
  9
$TREEDEPTH
 70
 3020
  9
$CMLSTYLE
  2
Standard
  9
$CMLJUST
 70
    0
  9
$CMLSCALE
 40
20
  9
$PROXYGRAPHICS
 70
    1
  9
$MEASUREMENT
 70
    1
  9
$CELWEIGHT
370
   -1
  9
$ENDCAPS
280
    0
  9
$JOINSTYLE
280
    0
  9
$LWDISPLAY
290
    0
  9
$INSUNITS
 70
    5
  9
$HYPERLINKBASE
  1

  9
$STYLESHEET
  1

  9
$XEDIT
290
    1
  9
$CEPSNTYPE
380
    0
  9
$PSTYLEMODE
290
    1
  9
$EXTNAMES
290
    1
  9
$PSVPSCALE
 40
0.1271478449711756
  9
$OLESTARTUP
290
    0
  9
$SORTENTS
280
  127
  9
$INDEXCTL
280
    0
  9
$HIDETEXT
280
    1
  9
$XCLIPFRAME
290
    0
  9
$HALOGAP
280
    0
  9
$OBSCOLOR
 70
  257
  9
$OBSLTYPE
280
    0
  9
$INTERSECTIONDISPLAY
280
    0
  9
$INTERSECTIONCOLOR
 70
  257
  9
$DIMASSOC
280
    1
  9
$PROJECTNAME
  1

  9
$CAMERADISPLAY
290
    0
  9
$LENSLENGTH
 40
50
  9
$CAMERAHEIGHT
 40
0
  9
$STEPSPERSEC
 40
2
  9
$STEPSIZE
 40
50
  9
$3DDWFPREC
 40
2
  9
$PSOLWIDTH
 40
5
  9
$PSOLHEIGHT
 40
80
  9
$LOFTANG1
 40
1.570796326794897
  9
$LOFTANG2
 40
1.570796326794897
  9
$LOFTMAG1
 40
0
  9
$LOFTMAG2
 40
0
  9
$LOFTPARAM
 70
    7
  9
$LOFTNORMALS
280
    1
  9
$LATITUDE
 40
1
  9
$LONGITUDE
 40
1
  9
$NORTHDIRECTION
 40
0
  9
$TIMEZONE
 70
-8000
  9
$LIGHTGLYPHDISPLAY
280
    1
  9
$TILEMODELIGHTSYNCH
280
    1
  9
$SOLIDHIST
280
    1
  9
$SHOWHIST
280
    1
  9
$DWFFRAME
280
    2
  9
$DGNFRAME
280
    0
  9
$REALWORLDSCALE
290
    1
  9
$INTERFERECOLOR
 62
    1
  9
$CSHADOW
280
    0
  9
$SHADOWPLANELOCATION
 40
0
  0
ENDSEC
  0
SECTION
  2
CLASSES
  0
ENDSEC
  0
SECTION
  2
TABLES
  0
TABLE
  2
VPORT
  5
8
330
0
100
AcDbSymbolTable
 70
    1
  0
VPORT
  5
31
330
2
100
AcDbSymbolTableRecord
100
AcDbViewportTableRecord
  2
*ACTIVE
 70
    0
 10
0
 20
0
 11
1
 21
1
 12
136.5373961218837
 22
92.74238227146814
 13
0
 23
0
 14
10
 24
10
 15
10
 25
10
 16
0
 26
0
 36
1
 17
0
 27
0
 37
0
 40
212.3915050784857
 41
1.987870619946092
 42
50
 43
0
 44
0
 50
0
 51
0
 71
    0
 72
  100
 73
    1
 74
    3
 75
    0
 76
    1
 77
    0
 78
    0
281
    0
 65
    1
110
0
120
0
130
0
111
1
121
0
131
0
112
0
122
1
132
0
 79
    0
146
0
348
10020
 60
    7
 61
    5
292
1
282
    1
141
0
142
0
 63
  250
421
3358443
  0
ENDTAB
  0
TABLE
  2
LTYPE
  5
5
330
0
100
AcDbSymbolTable
 70
    4
  0
LTYPE
  5
14
330
5
100
AcDbSymbolTableRecord
100
AcDbLinetypeTableRecord
  2
ByBlock
 70
    0
  3

 72
   65
 73
    0
 40
0
  0
LTYPE
  5
15
330
5
100
AcDbSymbolTableRecord
100
AcDbLinetypeTableRecord
  2
ByLayer
 70
    0
  3

 72
   65
 73
    0
 40
0
  0
LTYPE
  5
16
330
5
100
AcDbSymbolTableRecord
100
AcDbLinetypeTableRecord
  2
Continuous
 70
    0
  3
Solid line
 72
   65
 73
    0
 40
0
  0
LTYPE
  5
32
330
5
100
AcDbSymbolTableRecord
100
AcDbLinetypeTableRecord
  2
DOT
 70
    0
  3
Dot . . . . . . . . . . . . . . . . . . . . . .
 72
   65
 73
    2
 40
6.35
 49
0
 74
    0
 49
-6.35
 74
    0
  0
LTYPE
  5
33
330
5
100
AcDbSymbolTableRecord
100
AcDbLinetypeTableRecord
  2
DOTTINY
 70
    0
  3
Dot (.15x) .....................................
 72
   65
 73
    2
 40
0.9525
 49
0
 74
    0
 49
-0.9525
 74
    0
  0
LTYPE
  5
34
330
5
100
AcDbSymbolTableRecord
100
AcDbLinetypeTableRecord
  2
DOT2
 70
    0
  3
Dot (.5x) .....................................
 72
   65
 73
    2
 40
3.175
 49
0
 74
    0
 49
-3.175
 74
    0
  0
LTYPE
  5
35
330
5
100
AcDbSymbolTableRecord
100
AcDbLinetypeTableRecord
  2
DOTX2
 70
    0
  3
Dot (2x) .  .  .  .  .  .  .  .  .  .  .  .  .
 72
   65
 73
    2
 40
12.7
 49
0
 74
    0
 49
-12.7
 74
    0
  0
LTYPE
  5
36
330
5
100
AcDbSymbolTableRecord
100
AcDbLinetypeTableRecord
  2
DASHED
 70
    0
  3
Dashed _ _ _ _ _ _ _ _ _ _ _ _ _ _ _ _ _
 72
   65
 73
    2
 40
19.05
 49
12.7
 74
    0
 49
-6.35
 74
    0
  0
LTYPE
  5
37
330
5
100
AcDbSymbolTableRecord
100
AcDbLinetypeTableRecord
  2
DASHEDTINY
 70
    0
  3
Dashed (.15x) _ _ _ _ _ _ _ _ _ _ _ _ _ _ _ _ _
 72
   65
 73
    2
 40
2.8575
 49
1.905
 74
    0
 49
-0.9525
 74
    0
  0
LTYPE
  5
38
330
5
100
AcDbSymbolTableRecord
100
AcDbLinetypeTableRecord
  2
DASHED2
 70
    0
  3
Dashed (.5x) _ _ _ _ _ _ _ _ _ _ _ _ _ _ _ _ _
 72
   65
 73
    2
 40
9.524999999999999
 49
6.35
 74
    0
 49
-3.175
 74
    0
  0
LTYPE
  5
39
330
5
100
AcDbSymbolTableRecord
100
AcDbLinetypeTableRecord
  2
DASHEDX2
 70
    0
  3
Dashed (2x) ____  ____  ____  ____  ____  ___
 72
   65
 73
    2
 40
38.09999999999999
 49
25.4
 74
    0
 49
-12.7
 74
    0
  0
LTYPE
  5
3A
330
5
100
AcDbSymbolTableRecord
100
AcDbLinetypeTableRecord
  2
DASHDOT
 70
    0
  3
Dash dot __ . __ . __ . __ . __ . __ . __ . __
 72
   65
 73
    4
 40
25.4
 49
12.7
 74
    0
 49
-6.35
 74
    0
 49
0
 74
    0
 49
-6.35
 74
    0
  0
LTYPE
  5
3B
330
5
100
AcDbSymbolTableRecord
100
AcDbLinetypeTableRecord
  2
DASHDOTTINY
 70
    0
  3
Dash dot (.15x) _._._._._._._._._._._._._._._.
 72
   65
 73
    4
 40
3.81
 49
1.905
 74
    0
 49
-0.9525
 74
    0
 49
0
 74
    0
 49
-0.9525
 74
    0
  0
LTYPE
  5
3C
330
5
100
AcDbSymbolTableRecord
100
AcDbLinetypeTableRecord
  2
DASHDOT2
 70
    0
  3
Dash dot (.5x) _._._._._._._._._._._._._._._.
 72
   65
 73
    4
 40
12.7
 49
6.35
 74
    0
 49
-3.175
 74
    0
 49
0
 74
    0
 49
-3.175
 74
    0
  0
LTYPE
  5
3D
330
5
100
AcDbSymbolTableRecord
100
AcDbLinetypeTableRecord
  2
DASHDOTX2
 70
    0
  3
Dash dot (2x) ____  .  ____  .  ____  .  ___
 72
   65
 73
    4
 40
50.8
 49
25.4
 74
    0
 49
-12.7
 74
    0
 49
0
 74
    0
 49
-12.7
 74
    0
  0
LTYPE
  5
3E
330
5
100
AcDbSymbolTableRecord
100
AcDbLinetypeTableRecord
  2
DIVIDE
 70
    0
  3
Divide ____ . . ____ . . ____ . . ____ . . ____
 72
   65
 73
    6
 40
31.75
 49
12.7
 74
    0
 49
-6.35
 74
    0
 49
0
 74
    0
 49
-6.35
 74
    0
 49
0
 74
    0
 49
-6.35
 74
    0
  0
LTYPE
  5
3F
330
5
100
AcDbSymbolTableRecord
100
AcDbLinetypeTableRecord
  2
DIVIDETINY
 70
    0
  3
Divide (.15x) __..__..__..__..__..__..__..__.._
 72
   65
 73
    6
 40
4.7625
 49
1.905
 74
    0
 49
-0.9525
 74
    0
 49
0
 74
    0
 49
-0.9525
 74
    0
 49
0
 74
    0
 49
-0.9525
 74
    0
  0
LTYPE
  5
40
330
5
100
AcDbSymbolTableRecord
100
AcDbLinetypeTableRecord
  2
DIVIDE2
 70
    0
  3
Divide (.5x) __..__..__..__..__..__..__..__.._
 72
   65
 73
    6
 40
15.875
 49
6.35
 74
    0
 49
-3.175
 74
    0
 49
0
 74
    0
 49
-3.175
 74
    0
 49
0
 74
    0
 49
-3.175
 74
    0
  0
LTYPE
  5
41
330
5
100
AcDbSymbolTableRecord
100
AcDbLinetypeTableRecord
  2
DIVIDEX2
 70
    0
  3
Divide (2x) ________  .  .  ________  .  .  _
 72
   65
 73
    6
 40
63.5
 49
25.4
 74
    0
 49
-12.7
 74
    0
 49
0
 74
    0
 49
-12.7
 74
    0
 49
0
 74
    0
 49
-12.7
 74
    0
  0
LTYPE
  5
42
330
5
100
AcDbSymbolTableRecord
100
AcDbLinetypeTableRecord
  2
BORDER
 70
    0
  3
Border __ __ . __ __ . __ __ . __ __ . __ __ .
 72
   65
 73
    6
 40
44.45
 49
12.7
 74
    0
 49
-6.35
 74
    0
 49
12.7
 74
    0
 49
-6.35
 74
    0
 49
0
 74
    0
 49
-6.35
 74
    0
  0
LTYPE
  5
43
330
5
100
AcDbSymbolTableRecord
100
AcDbLinetypeTableRecord
  2
BORDERTINY
 70
    0
  3
Border (.15x) __.__.__.__.__.__.__.__.__.__.__.
 72
   65
 73
    6
 40
6.6675
 49
1.905
 74
    0
 49
-0.9525
 74
    0
 49
1.905
 74
    0
 49
-0.9525
 74
    0
 49
0
 74
    0
 49
-0.9525
 74
    0
  0
LTYPE
  5
44
330
5
100
AcDbSymbolTableRecord
100
AcDbLinetypeTableRecord
  2
BORDER2
 70
    0
  3
Border (.5x) __.__.__.__.__.__.__.__.__.__.__.
 72
   65
 73
    6
 40
22.225
 49
6.35
 74
    0
 49
-3.175
 74
    0
 49
6.35
 74
    0
 49
-3.175
 74
    0
 49
0
 74
    0
 49
-3.175
 74
    0
  0
LTYPE
  5
45
330
5
100
AcDbSymbolTableRecord
100
AcDbLinetypeTableRecord
  2
BORDERX2
 70
    0
  3
Border (2x) ____  ____  .  ____  ____  .  ___
 72
   65
 73
    6
 40
88.89999999999999
 49
25.4
 74
    0
 49
-12.7
 74
    0
 49
25.4
 74
    0
 49
-12.7
 74
    0
 49
0
 74
    0
 49
-12.7
 74
    0
  0
LTYPE
  5
46
330
5
100
AcDbSymbolTableRecord
100
AcDbLinetypeTableRecord
  2
CENTER
 70
    0
  3
Center ____ _ ____ _ ____ _ ____ _ ____ _ ____
 72
   65
 73
    4
 40
50.8
 49
31.75
 74
    0
 49
-6.35
 74
    0
 49
6.35
 74
    0
 49
-6.35
 74
    0
  0
LTYPE
  5
47
330
5
100
AcDbSymbolTableRecord
100
AcDbLinetypeTableRecord
  2
CENTERTINY
 70
    0
  3
Center (.15x) ___ _ ___ _ ___ _ ___ _ ___ _ ___
 72
   65
 73
    4
 40
7.619999999999999
 49
4.7625
 74
    0
 49
-0.9525
 74
    0
 49
0.9525
 74
    0
 49
-0.9525
 74
    0
  0
LTYPE
  5
48
330
5
100
AcDbSymbolTableRecord
100
AcDbLinetypeTableRecord
  2
CENTER2
 70
    0
  3
Center (.5x) ___ _ ___ _ ___ _ ___ _ ___ _ ___
 72
   65
 73
    4
 40
28.575
 49
19.05
 74
    0
 49
-3.175
 74
    0
 49
3.175
 74
    0
 49
-3.175
 74
    0
  0
LTYPE
  5
49
330
5
100
AcDbSymbolTableRecord
100
AcDbLinetypeTableRecord
  2
CENTERX2
 70
    0
  3
Center (2x) ________  __  ________  __  _____
 72
   65
 73
    4
 40
101.6
 49
63.5
 74
    0
 49
-12.7
 74
    0
 49
12.7
 74
    0
 49
-12.7
 74
    0
  0
ENDTAB
  0
TABLE
  2
LAYER
  5
2
330
0
100
AcDbSymbolTable
 70
    1
  0
LAYER
  5
10
330
2
100
AcDbSymbolTableRecord
100
AcDbLayerTableRecord
  2
0
 70
    0
 62
    7
  6
CONTINUOUS
370
   -3
390
F
1001
LibreCad
1070
    1
  0
LAYER
  5
4A
330
2
100
AcDbSymbolTableRecord
100
AcDbLayerTableRecord
  2
brick
 70
    0
 62
   16
420
8388608
  6
CONTINUOUS
370
   35
390
F
  0
LAYER
  5
4B
330
2
100
AcDbSymbolTableRecord
100
AcDbLayerTableRecord
  2
kriplennia
 70
    0
 62
    6
  6
CONTINUOUS
370
   35
390
F
  0
LAYER
  5
4C
330
2
100
AcDbSymbolTableRecord
100
AcDbLayerTableRecord
  2
kryshka
 70
    0
 62
    3
  6
CONTINUOUS
370
   35
390
F
  0
LAYER
  5
4D
330
2
100
AcDbSymbolTableRecord
100
AcDbLayerTableRecord
  2
lyst
 70
    0
 62
    5
  6
CONTINUOUS
370
   35
390
F
  0
LAYER
  5
4E
330
2
100
AcDbSymbolTableRecord
100
AcDbLayerTableRecord
  2
opora
 70
    0
 62
    5
  6
CONTINUOUS
370
   35
390
F
  0
LAYER
  5
4F
330
2
100
AcDbSymbolTableRecord
100
AcDbLayerTableRecord
  2
rozmir
 70
    0
 62
    4
  6
CONTINUOUS
370
   13
390
F
  0
LAYER
  5
50
330
2
100
AcDbSymbolTableRecord
100
AcDbLayerTableRecord
  2
tekst
 70
    0
 62
  136
420
32896
  6
CONTINUOUS
370
   35
390
F
  0
ENDTAB
  0
TABLE
  2
STYLE
  5
3
330
0
100
AcDbSymbolTable
 70
    3
  0
STYLE
  5
51
330
2
100
AcDbSymbolTableRecord
100
AcDbTextStyleTableRecord
  2
cyrillic_ii
 70
    0
 40
0
 41
1
 50
0
 71
    0
 42
1
  3
cyrillic_ii
  4

  0
STYLE
  5
52
330
2
100
AcDbSymbolTableRecord
100
AcDbTextStyleTableRecord
  2
Standard
 70
    0
 40
0
 41
1
 50
0
 71
    0
 42
1
  3
txt
  4

  0
ENDTAB
  0
TABLE
  2
VIEW
  5
6
330
0
100
AcDbSymbolTable
 70
    0
  0
ENDTAB
  0
TABLE
  2
UCS
  5
7
330
0
100
AcDbSymbolTable
 70
    0
  0
ENDTAB
  0
TABLE
  2
APPID
  5
9
330
0
100
AcDbSymbolTable
 70
    1
  0
APPID
  5
12
330
9
100
AcDbSymbolTableRecord
100
AcDbRegAppTableRecord
  2
ACAD
 70
    0
  0
APPID
  5
53
330
9
100
AcDbSymbolTableRecord
100
AcDbRegAppTableRecord
  2
LibreCad
 70
    0
  0
ENDTAB
  0
TABLE
  2
DIMSTYLE
  5
A
330
0
100
AcDbSymbolTable
 70
    1
100
AcDbDimStyleTable
 71
    1
  0
DIMSTYLE
105
54
330
A
100
AcDbSymbolTableRecord
100
AcDbDimStyleTableRecord
  2
Standard
 70
    0
 40
1
 41
2
 42
1
 43
0.38
 44
2
 45
0
 46
0
 47
0
 48
0
 49
1
140
4
141
0.09
142
0
143
25.4
144
1
145
0
146
1
147
2
148
0
 71
    0
 72
    0
 73
    0
 74
    1
 75
    0
 76
    0
 77
    0
 78
    8
 79
    0
170
    0
171
    2
172
    0
173
    0
174
    0
175
    0
176
    0
177
    0
178
    0
179
    0
271
    1
272
    4
273
    2
274
    2
275
    0
276
    0
277
    2
278
   44
279
    0
280
    0
281
    0
282
    0
283
    1
284
    0
285
    0
286
    0
288
    0
289
    3
340
standard
341

371
   -2
372
   -2
  0
ENDTAB
  0
TABLE
  2
BLOCK_RECORD
  5
1
330
0
100
AcDbSymbolTable
 70
    2
  0
BLOCK_RECORD
  5
1F
330
1
100
AcDbSymbolTableRecord
100
AcDbBlockTableRecord
  2
*Model_Space
 70
    0
280
    1
281
    0
  0
BLOCK_RECORD
  5
1E
330
1
100
AcDbSymbolTableRecord
100
AcDbBlockTableRecord
  2
*Paper_Space
 70
    0
280
    1
281
    0
  0
BLOCK_RECORD
  5
55
330
1
100
AcDbSymbolTableRecord
100
AcDbBlockTableRecord
  2
*D33
 70
    0
280
    1
281
    0
  0
BLOCK_RECORD
  5
58
330
1
100
AcDbSymbolTableRecord
100
AcDbBlockTableRecord
  2
*D8
 70
    0
280
    1
281
    0
  0
BLOCK_RECORD
  5
5B
330
1
100
AcDbSymbolTableRecord
100
AcDbBlockTableRecord
  2
*D23
 70
    0
280
    1
281
    0
  0
BLOCK_RECORD
  5
5E
330
1
100
AcDbSymbolTableRecord
100
AcDbBlockTableRecord
  2
*D20
 70
    0
280
    1
281
    0
  0
BLOCK_RECORD
  5
61
330
1
100
AcDbSymbolTableRecord
100
AcDbBlockTableRecord
  2
*D17
 70
    0
280
    1
281
    0
  0
BLOCK_RECORD
  5
64
330
1
100
AcDbSymbolTableRecord
100
AcDbBlockTableRecord
  2
*D19
 70
    0
280
    1
281
    0
  0
BLOCK_RECORD
  5
67
330
1
100
AcDbSymbolTableRecord
100
AcDbBlockTableRecord
  2
*D15
 70
    0
280
    1
281
    0
  0
BLOCK_RECORD
  5
6A
330
1
100
AcDbSymbolTableRecord
100
AcDbBlockTableRecord
  2
*D25
 70
    0
280
    1
281
    0
  0
BLOCK_RECORD
  5
6D
330
1
100
AcDbSymbolTableRecord
100
AcDbBlockTableRecord
  2
*D10
 70
    0
280
    1
281
    0
  0
BLOCK_RECORD
  5
70
330
1
100
AcDbSymbolTableRecord
100
AcDbBlockTableRecord
  2
*D3
 70
    0
280
    1
281
    0
  0
BLOCK_RECORD
  5
73
330
1
100
AcDbSymbolTableRecord
100
AcDbBlockTableRecord
  2
*D27
 70
    0
280
    1
281
    0
  0
BLOCK_RECORD
  5
76
330
1
100
AcDbSymbolTableRecord
100
AcDbBlockTableRecord
  2
*D1
 70
    0
280
    1
281
    0
  0
BLOCK_RECORD
  5
79
330
1
100
AcDbSymbolTableRecord
100
AcDbBlockTableRecord
  2
*D2
 70
    0
280
    1
281
    0
  0
BLOCK_RECORD
  5
7C
330
1
100
AcDbSymbolTableRecord
100
AcDbBlockTableRecord
  2
*D9
 70
    0
280
    1
281
    0
  0
BLOCK_RECORD
  5
7F
330
1
100
AcDbSymbolTableRecord
100
AcDbBlockTableRecord
  2
*D21
 70
    0
280
    1
281
    0
  0
BLOCK_RECORD
  5
82
330
1
100
AcDbSymbolTableRecord
100
AcDbBlockTableRecord
  2
*D4
 70
    0
280
    1
281
    0
  0
BLOCK_RECORD
  5
85
330
1
100
AcDbSymbolTableRecord
100
AcDbBlockTableRecord
  2
*D14
 70
    0
280
    1
281
    0
  0
BLOCK_RECORD
  5
88
330
1
100
AcDbSymbolTableRecord
100
AcDbBlockTableRecord
  2
*D7
 70
    0
280
    1
281
    0
  0
BLOCK_RECORD
  5
8B
330
1
100
AcDbSymbolTableRecord
100
AcDbBlockTableRecord
  2
*D16
 70
    0
280
    1
281
    0
  0
BLOCK_RECORD
  5
8E
330
1
100
AcDbSymbolTableRecord
100
AcDbBlockTableRecord
  2
*D13
 70
    0
280
    1
281
    0
  0
BLOCK_RECORD
  5
91
330
1
100
AcDbSymbolTableRecord
100
AcDbBlockTableRecord
  2
*D11
 70
    0
280
    1
281
    0
  0
BLOCK_RECORD
  5
94
330
1
100
AcDbSymbolTableRecord
100
AcDbBlockTableRecord
  2
*D28
 70
    0
280
    1
281
    0
  0
BLOCK_RECORD
  5
97
330
1
100
AcDbSymbolTableRecord
100
AcDbBlockTableRecord
  2
*D31
 70
    0
280
    1
281
    0
  0
BLOCK_RECORD
  5
9A
330
1
100
AcDbSymbolTableRecord
100
AcDbBlockTableRecord
  2
*D12
 70
    0
280
    1
281
    0
  0
BLOCK_RECORD
  5
9D
330
1
100
AcDbSymbolTableRecord
100
AcDbBlockTableRecord
  2
*D29
 70
    0
280
    1
281
    0
  0
BLOCK_RECORD
  5
A0
330
1
100
AcDbSymbolTableRecord
100
AcDbBlockTableRecord
  2
*D24
 70
    0
280
    1
281
    0
  0
BLOCK_RECORD
  5
A3
330
1
100
AcDbSymbolTableRecord
100
AcDbBlockTableRecord
  2
*D30
 70
    0
280
    1
281
    0
  0
BLOCK_RECORD
  5
A6
330
1
100
AcDbSymbolTableRecord
100
AcDbBlockTableRecord
  2
*D32
 70
    0
280
    1
281
    0
  0
BLOCK_RECORD
  5
A9
330
1
100
AcDbSymbolTableRecord
100
AcDbBlockTableRecord
  2
*D6
 70
    0
280
    1
281
    0
  0
BLOCK_RECORD
  5
AC
330
1
100
AcDbSymbolTableRecord
100
AcDbBlockTableRecord
  2
*D22
 70
    0
280
    1
281
    0
  0
BLOCK_RECORD
  5
AF
330
1
100
AcDbSymbolTableRecord
100
AcDbBlockTableRecord
  2
*D5
 70
    0
280
    1
281
    0
  0
BLOCK_RECORD
  5
B2
330
1
100
AcDbSymbolTableRecord
100
AcDbBlockTableRecord
  2
*D18
 70
    0
280
    1
281
    0
  0
BLOCK_RECORD
  5
B5
330
1
100
AcDbSymbolTableRecord
100
AcDbBlockTableRecord
  2
*D26
 70
    0
280
    1
281
    0
  0
BLOCK_RECORD
  5
B8
330
1
100
AcDbSymbolTableRecord
100
AcDbBlockTableRecord
  2
block10
 70
    0
280
    1
281
    0
  0
ENDTAB
  0
ENDSEC
  0
SECTION
  2
BLOCKS
  0
BLOCK
  5
20
330
1F
100
AcDbEntity
  8
0
100
AcDbBlockBegin
  2
*Model_Space
 70
    0
 10
0
 20
0
 30
0
  3
*Model_Space
  1

  0
ENDBLK
  5
21
330
1F
100
AcDbEntity
  8
0
100
AcDbBlockEnd
  0
BLOCK
  5
1C
330
1B
100
AcDbEntity
  8
0
100
AcDbBlockBegin
  2
*Paper_Space
 70
    0
 10
0
 20
0
 30
0
  3
*Paper_Space
  1

  0
ENDBLK
  5
1D
330
1F
100
AcDbEntity
  8
0
100
AcDbBlockEnd
  0
BLOCK
  5
56
330
55
100
AcDbEntity
  8
0
100
AcDbBlockBegin
  2
*D33
 70
    1
 10
0
 20
0
  3
*D33
  1

  0
LINE
  5
BB
100
AcDbEntity
  8
rozmir
  6
ByBlock
 62
    0
370
   -2
100
AcDbLine
 10
-7.105427357601002e-15
 20
34.6
 11
17.40000000000001
 21
34.6
  0
SOLID
  5
BC
100
AcDbEntity
  8
rozmir
  6
ByBlock
 62
    0
370
   -2
100
AcDbTrace
 10
-7.105427357601002e-15
 20
34.6
 30
0
 11
1.999999999999993
 21
34.93302772621827
 31
0
 12
1.999999999999993
 22
34.26697227378173
 32
0
 13
1.999999999999993
 23
34.26697227378173
 33
0
  0
SOLID
  5
BD
100
AcDbEntity
  8
rozmir
  6
ByBlock
 62
    0
370
   -2
100
AcDbTrace
 10
17.40000000000001
 20
34.6
 30
0
 11
15.40000000000001
 21
34.26697227378173
 31
0
 12
15.40000000000001
 22
34.93302772621827
 32
0
 13
15.40000000000001
 23
34.93302772621827
 33
0
  0
MTEXT
  5
BE
100
AcDbEntity
  8
rozmir
  6
CONTINUOUS
 62
    0
370
   -2
100
AcDbMText
 10
8.699999999999999
 20
38.6
 30
0
 40
4
 41
9.111111111111111
 71
    5
 72
    1
  1
17,4
  7
standard
210
0
220
0
230
1
 50
0
 73
    2
 44
1
  0
LINE
  5
BF
100
AcDbEntity
  8
rozmir
  6
ByBlock
 62
    0
370
   -2
100
AcDbLine
 10
-5.512767538072854e-15
 20
44
 11
-7.472821397345207e-15
 21
32.6
  0
LINE
  5
C0
100
AcDbEntity
  8
rozmir
  6
ByBlock
 62
    0
370
   -2
100
AcDbLine
 10
17.40000000000001
 20
45.00000000000001
 11
17.40000000000001
 21
32.6
  0
ENDBLK
  5
57
330
55
100
AcDbEntity
  8
0
100
AcDbBlockEnd
  0
BLOCK
  5
59
330
58
100
AcDbEntity
  8
0
100
AcDbBlockBegin
  2
*D8
 70
    1
 10
0
 20
0
  3
*D8
  1

  0
LINE
  5
C1
100
AcDbEntity
  8
rozmir
  6
ByBlock
 62
    0
370
   -2
100
AcDbLine
 10
-10
 20
95
 11
-10
 21
127
  0
SOLID
  5
C2
100
AcDbEntity
  8
rozmir
  6
ByBlock
 62
    0
370
   -2
100
AcDbTrace
 10
-10
 20
95
 30
0
 11
-10.33302772621827
 21
97
 31
0
 12
-9.666972273781729
 22
97
 32
0
 13
-9.666972273781729
 23
97
 33
0
  0
SOLID
  5
C3
100
AcDbEntity
  8
rozmir
  6
ByBlock
 62
    0
370
   -2
100
AcDbTrace
 10
-10
 20
127
 30
0
 11
-9.666972273781727
 21
125
 31
0
 12
-10.33302772621827
 22
125
 32
0
 13
-10.33302772621827
 23
125
 33
0
  0
MTEXT
  5
C4
100
AcDbEntity
  8
rozmir
  6
CONTINUOUS
 62
    0
370
   -2
100
AcDbMText
 10
-14
 20
111
 30
0
 40
4
 41
4.888888888889136
 71
    5
 72
    1
  1
32
  7
standard
210
0
220
0
230
1
 50
90
 73
    2
 44
1
  0
LINE
  5
C5
100
AcDbEntity
  8
rozmir
  6
ByBlock
 62
    0
370
   -2
100
AcDbLine
 10
-1
 20
95
 11
-12
 21
95
  0
LINE
  5
C6
100
AcDbEntity
  8
rozmir
  6
ByBlock
 62
    0
370
   -2
100
AcDbLine
 10
36
 20
127
 11
-12
 21
127
  0
ENDBLK
  5
5A
330
58
100
AcDbEntity
  8
0
100
AcDbBlockEnd
  0
BLOCK
  5
5C
330
5B
100
AcDbEntity
  8
0
100
AcDbBlockBegin
  2
*D23
 70
    1
 10
0
 20
0
  3
*D23
  1

  0
LINE
  5
C7
100
AcDbEntity
  8
rozmir
  6
ByBlock
 62
    0
370
   -2
100
AcDbLine
 10
65.59218172431216
 20
43.63631801754612
 11
70.00781827568787
 21
51.36368198245388
  0
SOLID
  5
C8
100
AcDbEntity
  8
rozmir
  6
ByBlock
 62
    0
370
   -2
100
AcDbTrace
 10
67.57673747773944
 20
47.10929058604399
 30
0
 11
66.87360864045212
 21
45.20757627926574
 31
0
 12
66.29531056159948
 22
45.53803232432438
 32
0
 13
66.29531056159948
 23
45.53803232432438
 33
0
  0
SOLID
  5
C9
100
AcDbEntity
  8
rozmir
  6
ByBlock
 62
    0
370
   -2
100
AcDbTrace
 10
68.02326252226058
 20
47.89070941395601
 30
0
 11
68.7263913595479
 21
49.79242372073426
 31
0
 12
69.30468943840054
 22
49.46196767567562
 32
0
 13
69.30468943840054
 23
49.46196767567562
 33
0
  0
MTEXT
  5
CA
100
AcDbEntity
  8
rozmir
  6
CONTINUOUS
 62
    0
370
   -2
100
AcDbMText
 10
68.13351561967309
 20
56.14591008272667
 30
0
 40
4
 41
10.44444444444444
 71
    5
 72
    1
  1
%%C0,9
  7
standard
210
0
220
0
230
1
 50
60.25511870305861
 73
    2
 44
1
  0
ENDBLK
  5
5D
330
5B
100
AcDbEntity
  8
0
100
AcDbBlockEnd
  0
BLOCK
  5
5F
330
5E
100
AcDbEntity
  8
0
100
AcDbBlockBegin
  2
*D20
 70
    1
 10
0
 20
0
  3
*D20
  1

  0
LINE
  5
CB
100
AcDbEntity
  8
rozmir
  6
ByBlock
 62
    0
370
   -2
100
AcDbLine
 10
79.40000000000001
 20
50
 11
79.40000000000001
 21
45
  0
SOLID
  5
CC
100
AcDbEntity
  8
rozmir
  6
ByBlock
 62
    0
370
   -2
100
AcDbTrace
 10
79.40000000000001
 20
50
 30
0
 11
79.73302772621828
 21
48
 31
0
 12
79.06697227378173
 22
48
 32
0
 13
79.06697227378173
 23
48
 33
0
  0
SOLID
  5
CD
100
AcDbEntity
  8
rozmir
  6
ByBlock
 62
    0
370
   -2
100
AcDbTrace
 10
79.40000000000001
 20
45
 30
0
 11
79.06697227378173
 21
47
 31
0
 12
79.73302772621828
 22
47
 32
0
 13
79.73302772621828
 23
47
 33
0
  0
MTEXT
  5
CE
100
AcDbEntity
  8
rozmir
  6
CONTINUOUS
 62
    0
370
   -2
100
AcDbMText
 10
75.40000000000001
 20
47.5
 30
0
 40
4
 41
1.777777777778026
 71
    5
 72
    1
  1
5
  7
standard
210
0
220
0
230
1
 50
90
 73
    2
 44
1
  0
LINE
  5
CF
100
AcDbEntity
  8
rozmir
  6
ByBlock
 62
    0
370
   -2
100
AcDbLine
 10
70.80000000000001
 20
50
 11
81.40000000000001
 21
50
  0
LINE
  5
D0
100
AcDbEntity
  8
rozmir
  6
ByBlock
 62
    0
370
   -2
100
AcDbLine
 10
70.80000000000001
 20
45
 11
81.40000000000001
 21
45
  0
ENDBLK
  5
60
330
5E
100
AcDbEntity
  8
0
100
AcDbBlockEnd
  0
BLOCK
  5
62
330
61
100
AcDbEntity
  8
0
100
AcDbBlockBegin
  2
*D17
 70
    1
 10
0
 20
0
  3
*D17
  1

  0
LINE
  5
D1
100
AcDbEntity
  8
rozmir
  6
ByBlock
 62
    0
370
   -2
100
AcDbLine
 10
0.4000000000000057
 20
20.4
 11
65.40000000000001
 21
20.4
  0
SOLID
  5
D2
100
AcDbEntity
  8
rozmir
  6
ByBlock
 62
    0
370
   -2
100
AcDbTrace
 10
0.4000000000000057
 20
20.4
 30
0
 11
2.400000000000006
 21
20.73302772621827
 31
0
 12
2.400000000000006
 22
20.06697227378173
 32
0
 13
2.400000000000006
 23
20.06697227378173
 33
0
  0
SOLID
  5
D3
100
AcDbEntity
  8
rozmir
  6
ByBlock
 62
    0
370
   -2
100
AcDbTrace
 10
65.40000000000001
 20
20.4
 30
0
 11
63.40000000000001
 21
20.06697227378173
 31
0
 12
63.40000000000001
 22
20.73302772621827
 32
0
 13
63.40000000000001
 23
20.73302772621827
 33
0
  0
MTEXT
  5
D4
100
AcDbEntity
  8
rozmir
  6
CONTINUOUS
 62
    0
370
   -2
100
AcDbMText
 10
32.90000000000001
 20
24.4
 30
0
 40
4
 41
4.888888888889385
 71
    5
 72
    1
  1
65
  7
standard
210
0
220
0
230
1
 50
0
 73
    2
 44
1
  0
LINE
  5
D5
100
AcDbEntity
  8
rozmir
  6
ByBlock
 62
    0
370
   -2
100
AcDbLine
 10
0.4000000000000015
 20
16.4
 11
0.4000000000000076
 21
22.4
  0
LINE
  5
D6
100
AcDbEntity
  8
rozmir
  6
ByBlock
 62
    0
370
   -2
100
AcDbLine
 10
65.40000000000001
 20
16.4
 11
65.40000000000001
 21
22.4
  0
ENDBLK
  5
63
330
61
100
AcDbEntity
  8
0
100
AcDbBlockEnd
  0
BLOCK
  5
65
330
64
100
AcDbEntity
  8
0
100
AcDbBlockBegin
  2
*D19
 70
    1
 10
0
 20
0
  3
*D19
  1

  0
LINE
  5
D7
100
AcDbEntity
  8
rozmir
  6
ByBlock
 62
    0
370
   -2
100
AcDbLine
 10
0
 20
-19.6
 11
65.80000000000001
 21
-19.6
  0
SOLID
  5
D8
100
AcDbEntity
  8
rozmir
  6
ByBlock
 62
    0
370
   -2
100
AcDbTrace
 10
0
 20
-19.6
 30
0
 11
2
 21
-19.26697227378173
 31
0
 12
2
 22
-19.93302772621827
 32
0
 13
2
 23
-19.93302772621827
 33
0
  0
SOLID
  5
D9
100
AcDbEntity
  8
rozmir
  6
ByBlock
 62
    0
370
   -2
100
AcDbTrace
 10
65.80000000000001
 20
-19.6
 30
0
 11
63.80000000000001
 21
-19.93302772621827
 31
0
 12
63.80000000000001
 22
-19.26697227378173
 32
0
 13
63.80000000000001
 23
-19.26697227378173
 33
0
  0
MTEXT
  5
DA
100
AcDbEntity
  8
rozmir
  6
CONTINUOUS
 62
    0
370
   -2
100
AcDbMText
 10
32.90000000000001
 20
-15.6
 30
0
 40
4
 41
9.555555555556051
 71
    5
 72
    1
  1
65,8
  7
standard
210
0
220
0
230
1
 50
0
 73
    2
 44
1
  0
LINE
  5
DB
100
AcDbEntity
  8
rozmir
  6
ByBlock
 62
    0
370
   -2
100
AcDbLine
 10
-1.83697019872103e-16
 20
-11
 11
-3.673940397442059e-16
 21
-21.6
  0
LINE
  5
DC
100
AcDbEntity
  8
rozmir
  6
ByBlock
 62
    0
370
   -2
100
AcDbLine
 10
65.80000000000001
 20
-11
 11
65.80000000000001
 21
-21.6
  0
ENDBLK
  5
66
330
64
100
AcDbEntity
  8
0
100
AcDbBlockEnd
  0
BLOCK
  5
68
330
67
100
AcDbEntity
  8
0
100
AcDbBlockBegin
  2
*D15
 70
    1
 10
0
 20
0
  3
*D15
  1

  0
LINE
  5
DD
100
AcDbEntity
  8
rozmir
  6
ByBlock
 62
    0
370
   -2
100
AcDbLine
 10
-9.599999999999998
 20
15.4
 11
-9.6
 21
-10
  0
SOLID
  5
DE
100
AcDbEntity
  8
rozmir
  6
ByBlock
 62
    0
370
   -2
100
AcDbTrace
 10
-9.599999999999998
 20
15.4
 30
0
 11
-9.266972273781725
 21
13.4
 31
0
 12
-9.93302772621827
 22
13.4
 32
0
 13
-9.93302772621827
 23
13.4
 33
0
  0
SOLID
  5
DF
100
AcDbEntity
  8
rozmir
  6
ByBlock
 62
    0
370
   -2
100
AcDbTrace
 10
-9.6
 20
-10
 30
0
 11
-9.933027726218272
 21
-8
 31
0
 12
-9.266972273781727
 22
-8
 32
0
 13
-9.266972273781727
 23
-8
 33
0
  0
MTEXT
  5
E0
100
AcDbEntity
  8
rozmir
  6
CONTINUOUS
 62
    0
370
   -2
100
AcDbMText
 10
-13.6
 20
2.699999999999999
 30
0
 40
4
 41
10.00000000000025
 71
    5
 72
    1
  1
25,4
  7
standard
210
0
220
0
230
1
 50
90
 73
    2
 44
1
  0
LINE
  5
E1
100
AcDbEntity
  8
rozmir
  6
ByBlock
 62
    0
370
   -2
100
AcDbLine
 10
-5
 20
15.4
 11
-11.6
 21
15.4
  0
LINE
  5
E2
100
AcDbEntity
  8
rozmir
  6
ByBlock
 62
    0
370
   -2
100
AcDbLine
 10
-1
 20
-10
 11
-11.6
 21
-10
  0
ENDBLK
  5
69
330
67
100
AcDbEntity
  8
0
100
AcDbBlockEnd
  0
BLOCK
  5
6B
330
6A
100
AcDbEntity
  8
0
100
AcDbBlockBegin
  2
*D25
 70
    1
 10
0
 20
0
  3
*D25
  1

  0
LINE
  5
E3
100
AcDbEntity
  8
rozmir
  6
ByBlock
 62
    0
370
   -2
100
AcDbLine
 10
6.4
 20
58
 11
17.4
 21
58
  0
SOLID
  5
E4
100
AcDbEntity
  8
rozmir
  6
ByBlock
 62
    0
370
   -2
100
AcDbTrace
 10
10.4
 20
58
 30
0
 11
8.4
 21
57.66697227378173
 31
0
 12
8.4
 22
58.33302772621827
 32
0
 13
8.4
 23
58.33302772621827
 33
0
  0
SOLID
  5
E5
100
AcDbEntity
  8
rozmir
  6
ByBlock
 62
    0
370
   -2
100
AcDbTrace
 10
13.4
 20
58
 30
0
 11
15.4
 21
58.33302772621827
 31
0
 12
15.4
 22
57.66697227378172
 32
0
 13
15.4
 23
57.66697227378172
 33
0
  0
MTEXT
  5
E6
100
AcDbEntity
  8
rozmir
  6
CONTINUOUS
 62
    0
370
   -2
100
AcDbMText
 10
11.9
 20
62
 30
0
 40
4
 41
1.777777777778026
 71
    5
 72
    1
  1
3
  7
standard
210
0
220
0
230
1
 50
0
 73
    2
 44
1
  0
LINE
  5
E7
100
AcDbEntity
  8
rozmir
  6
ByBlock
 62
    0
370
   -2
100
AcDbLine
 10
10.4
 20
55
 11
10.4
 21
60
  0
LINE
  5
E8
100
AcDbEntity
  8
rozmir
  6
ByBlock
 62
    0
370
   -2
100
AcDbLine
 10
13.4
 20
55
 11
13.4
 21
60
  0
ENDBLK
  5
6C
330
6A
100
AcDbEntity
  8
0
100
AcDbBlockEnd
  0
BLOCK
  5
6E
330
6D
100
AcDbEntity
  8
0
100
AcDbBlockBegin
  2
*D10
 70
    1
 10
0
 20
0
  3
*D10
  1

  0
LINE
  5
E9
100
AcDbEntity
  8
rozmir
  6
ByBlock
 62
    0
370
   -2
100
AcDbLine
 10
-10
 20
159
 11
-10
 21
164
  0
SOLID
  5
EA
100
AcDbEntity
  8
rozmir
  6
ByBlock
 62
    0
370
   -2
100
AcDbTrace
 10
-10
 20
159
 30
0
 11
-10.33302772621827
 21
161
 31
0
 12
-9.666972273781727
 22
161
 32
0
 13
-9.666972273781727
 23
161
 33
0
  0
SOLID
  5
EB
100
AcDbEntity
  8
rozmir
  6
ByBlock
 62
    0
370
   -2
100
AcDbTrace
 10
-10
 20
164
 30
0
 11
-9.666972273781727
 21
162
 31
0
 12
-10.33302772621827
 22
162
 32
0
 13
-10.33302772621827
 23
162
 33
0
  0
MTEXT
  5
EC
100
AcDbEntity
  8
rozmir
  6
CONTINUOUS
 62
    0
370
   -2
100
AcDbMText
 10
-14
 20
161.5
 30
0
 40
4
 41
1.777777777778026
 71
    5
 72
    1
  1
5
  7
standard
210
0
220
0
230
1
 50
90
 73
    2
 44
1
  0
LINE
  5
ED
100
AcDbEntity
  8
rozmir
  6
ByBlock
 62
    0
370
   -2
100
AcDbLine
 10
-1
 20
159
 11
-12
 21
159
  0
LINE
  5
EE
100
AcDbEntity
  8
rozmir
  6
ByBlock
 62
    0
370
   -2
100
AcDbLine
 10
4
 20
164
 11
-12
 21
164
  0
ENDBLK
  5
6F
330
6D
100
AcDbEntity
  8
0
100
AcDbBlockEnd
  0
BLOCK
  5
71
330
70
100
AcDbEntity
  8
0
100
AcDbBlockBegin
  2
*D3
 70
    1
 10
0
 20
0
  3
*D3
  1

  0
LINE
  5
EF
100
AcDbEntity
  8
rozmir
  6
ByBlock
 62
    0
370
   -2
100
AcDbLine
 10
105
 20
87.93497227313875
 11
105
 21
0
  0
SOLID
  5
F0
100
AcDbEntity
  8
rozmir
  6
ByBlock
 62
    0
370
   -2
100
AcDbTrace
 10
105
 20
87.93497227313875
 30
0
 11
105.3330277262183
 21
85.93497227313875
 31
0
 12
104.6669722737817
 22
85.93497227313875
 32
0
 13
104.6669722737817
 23
85.93497227313875
 33
0
  0
SOLID
  5
F1
100
AcDbEntity
  8
rozmir
  6
ByBlock
 62
    0
370
   -2
100
AcDbTrace
 10
105
 20
0
 30
0
 11
104.6669722737817
 21
2
 31
0
 12
105.3330277262183
 22
2
 32
0
 13
105.3330277262183
 23
2
 33
0
  0
MTEXT
  5
F2
100
AcDbEntity
  8
rozmir
  6
CONTINUOUS
 62
    0
370
   -2
100
AcDbMText
 10
101
 20
43.96748613656938
 30
0
 40
4
 41
5.777777777777778
 71
    5
 72
    1
  1
44
  7
standard
210
0
220
0
230
1
 50
90
 73
    2
 44
1
  0
LINE
  5
F3
100
AcDbEntity
  8
rozmir
  6
ByBlock
 62
    0
370
   -2
100
AcDbLine
 10
119
 20
87.93497227313875
 11
103
 21
87.93497227313875
  0
LINE
  5
F4
100
AcDbEntity
  8
rozmir
  6
ByBlock
 62
    0
370
   -2
100
AcDbLine
 10
119
 20
1.224646799147353e-16
 11
103
 21
2.449293598294706e-16
  0
ENDBLK
  5
72
330
70
100
AcDbEntity
  8
0
100
AcDbBlockEnd
  0
BLOCK
  5
74
330
73
100
AcDbEntity
  8
0
100
AcDbBlockBegin
  2
*D27
 70
    1
 10
0
 20
0
  3
*D27
  1

  0
LINE
  5
F5
100
AcDbEntity
  8
rozmir
  6
ByBlock
 62
    0
370
   -2
100
AcDbLine
 10
48.4
 20
58.00000000000001
 11
59.4
 21
58.00000000000001
  0
SOLID
  5
F6
100
AcDbEntity
  8
rozmir
  6
ByBlock
 62
    0
370
   -2
100
AcDbTrace
 10
52.4
 20
58.00000000000001
 30
0
 11
50.4
 21
57.66697227378175
 31
0
 12
50.4
 22
58.33302772621828
 32
0
 13
50.4
 23
58.33302772621828
 33
0
  0
SOLID
  5
F7
100
AcDbEntity
  8
rozmir
  6
ByBlock
 62
    0
370
   -2
100
AcDbTrace
 10
55.4
 20
58.00000000000001
 30
0
 11
57.4
 21
58.33302772621828
 31
0
 12
57.4
 22
57.66697227378174
 32
0
 13
57.4
 23
57.66697227378174
 33
0
  0
MTEXT
  5
F8
100
AcDbEntity
  8
rozmir
  6
CONTINUOUS
 62
    0
370
   -2
100
AcDbMText
 10
53.9
 20
62.00000000000001
 30
0
 40
4
 41
1.777777777778026
 71
    5
 72
    1
  1
3
  7
standard
210
0
220
0
230
1
 50
0
 73
    2
 44
1
  0
LINE
  5
F9
100
AcDbEntity
  8
rozmir
  6
ByBlock
 62
    0
370
   -2
100
AcDbLine
 10
52.4
 20
55
 11
52.4
 21
60.00000000000001
  0
LINE
  5
FA
100
AcDbEntity
  8
rozmir
  6
ByBlock
 62
    0
370
   -2
100
AcDbLine
 10
55.4
 20
55
 11
55.4
 21
60.00000000000001
  0
ENDBLK
  5
75
330
73
100
AcDbEntity
  8
0
100
AcDbBlockEnd
  0
BLOCK
  5
77
330
76
100
AcDbEntity
  8
0
100
AcDbBlockBegin
  2
*D1
 70
    1
 10
0
 20
0
  3
*D1
  1

  0
LINE
  5
FB
100
AcDbEntity
  8
rozmir
  6
ByBlock
 62
    0
370
   -2
100
AcDbLine
 10
120.8980887928977
 20
91.2247604425752
 11
116.0051797234307
 21
99.68817072488964
  0
LINE
  5
FC
100
AcDbEntity
  8
rozmir
  6
ByBlock
 62
    0
370
   -2
100
AcDbLine
 10
129.5554371040371
 20
96.22978993495676
 11
124.6625280345701
 21
104.6932002172712
  0
LINE
  5
FD
100
AcDbEntity
  8
rozmir
  6
ByBlock
 62
    0
370
   -2
100
AcDbLine
 10
117.006185621907
 20
97.95670106266174
 11
125.6635339330465
 21
102.9617305550433
  0
SOLID
  5
FE
100
AcDbEntity
  8
rozmir
  6
ByBlock
 62
    0
370
   -2
100
AcDbTrace
 10
117.006185621907
 20
97.95670106266174
 30
0
 11
118.5709739249846
 21
99.24602066345189
 31
0
 12
118.9043366432852
 22
98.66939325882421
 32
0
 13
118.9043366432852
 23
98.66939325882421
 33
0
  0
SOLID
  5
FF
100
AcDbEntity
  8
rozmir
  6
ByBlock
 62
    0
370
   -2
100
AcDbTrace
 10
125.6635339330465
 20
102.9617305550433
 30
0
 11
124.0987456299689
 21
101.6724109542531
 31
0
 12
123.7653829116682
 22
102.2490383588808
 32
0
 13
123.7653829116682
 23
102.2490383588808
 33
0
  0
MTEXT
  5
100
100
AcDbEntity
  8
rozmir
  6
CONTINUOUS
 62
    0
370
   -2
100
AcDbMText
 10
119.3328479805241
 20
103.9221551333084
 30
0
 40
4
 41
1.777777777778026
 71
    5
 72
    1
  1
5
  7
standard
210
0
220
0
230
1
 50
30.03328043601518
 73
    2
 44
1
  0
ENDBLK
  5
78
330
76
100
AcDbEntity
  8
0
100
AcDbBlockEnd
  0
BLOCK
  5
7A
330
79
100
AcDbEntity
  8
0
100
AcDbBlockBegin
  2
*D2
 70
    1
 10
0
 20
0
  3
*D2
  1

  0
LINE
  5
101
100
AcDbEntity
  8
rozmir
  6
ByBlock
 62
    0
370
   -2
100
AcDbLine
 10
109.6
 20
70
 11
120
 21
70
  0
SOLID
  5
102
100
AcDbEntity
  8
rozmir
  6
ByBlock
 62
    0
370
   -2
100
AcDbTrace
 10
109.6
 20
70
 30
0
 11
111.6
 21
70.33302772621828
 31
0
 12
111.6
 22
69.66697227378172
 32
0
 13
111.6
 23
69.66697227378172
 33
0
  0
SOLID
  5
103
100
AcDbEntity
  8
rozmir
  6
ByBlock
 62
    0
370
   -2
100
AcDbTrace
 10
120
 20
70
 30
0
 11
118
 21
69.66697227378172
 31
0
 12
118
 22
70.33302772621828
 32
0
 13
118
 23
70.33302772621828
 33
0
  0
MTEXT
  5
104
100
AcDbEntity
  8
rozmir
  6
CONTINUOUS
 62
    0
370
   -2
100
AcDbMText
 10
114.8
 20
74
 30
0
 40
4
 41
6.444444444444692
 71
    5
 72
    1
  1
5,2
  7
standard
210
0
220
0
230
1
 50
0
 73
    2
 44
1
  0
LINE
  5
105
100
AcDbEntity
  8
rozmir
  6
ByBlock
 62
    0
370
   -2
100
AcDbLine
 10
109.6
 20
83
 11
109.6
 21
68
  0
LINE
  5
106
100
AcDbEntity
  8
rozmir
  6
ByBlock
 62
    0
370
   -2
100
AcDbLine
 10
120
 20
82.99999999999999
 11
120
 21
68
  0
ENDBLK
  5
7B
330
79
100
AcDbEntity
  8
0
100
AcDbBlockEnd
  0
BLOCK
  5
7D
330
7C
100
AcDbEntity
  8
0
100
AcDbBlockBegin
  2
*D9
 70
    1
 10
0
 20
0
  3
*D9
  1

  0
LINE
  5
107
100
AcDbEntity
  8
rozmir
  6
ByBlock
 62
    0
370
   -2
100
AcDbLine
 10
-10
 20
127
 11
-10
 21
159
  0
SOLID
  5
108
100
AcDbEntity
  8
rozmir
  6
ByBlock
 62
    0
370
   -2
100
AcDbTrace
 10
-10
 20
127
 30
0
 11
-10.33302772621827
 21
129
 31
0
 12
-9.666972273781729
 22
129
 32
0
 13
-9.666972273781729
 23
129
 33
0
  0
SOLID
  5
109
100
AcDbEntity
  8
rozmir
  6
ByBlock
 62
    0
370
   -2
100
AcDbTrace
 10
-10
 20
159
 30
0
 11
-9.666972273781727
 21
157
 31
0
 12
-10.33302772621827
 22
157
 32
0
 13
-10.33302772621827
 23
157
 33
0
  0
MTEXT
  5
10A
100
AcDbEntity
  8
rozmir
  6
CONTINUOUS
 62
    0
370
   -2
100
AcDbMText
 10
-14
 20
143
 30
0
 40
4
 41
4.888888888889136
 71
    5
 72
    1
  1
32
  7
standard
210
0
220
0
230
1
 50
90
 73
    2
 44
1
  0
LINE
  5
10B
100
AcDbEntity
  8
rozmir
  6
ByBlock
 62
    0
370
   -2
100
AcDbLine
 10
36
 20
127
 11
-12
 21
127
  0
LINE
  5
10C
100
AcDbEntity
  8
rozmir
  6
ByBlock
 62
    0
370
   -2
100
AcDbLine
 10
-1
 20
159
 11
-12
 21
159
  0
ENDBLK
  5
7E
330
7C
100
AcDbEntity
  8
0
100
AcDbBlockEnd
  0
BLOCK
  5
80
330
7F
100
AcDbEntity
  8
0
100
AcDbBlockBegin
  2
*D21
 70
    1
 10
0
 20
0
  3
*D21
  1

  0
LINE
  5
10D
100
AcDbEntity
  8
rozmir
  6
ByBlock
 62
    0
370
   -2
100
AcDbLine
 10
1.999999999999995
 20
55
 11
-8.000000000000005
 21
55
  0
SOLID
  5
10E
100
AcDbEntity
  8
rozmir
  6
ByBlock
 62
    0
370
   -2
100
AcDbTrace
 10
-2.000000000000005
 20
55
 30
0
 11
-5.329070518200751e-15
 21
55.33302772621827
 31
0
 12
-5.329070518200751e-15
 22
54.66697227378172
 32
0
 13
-5.329070518200751e-15
 23
54.66697227378172
 33
0
  0
SOLID
  5
10F
100
AcDbEntity
  8
rozmir
  6
ByBlock
 62
    0
370
   -2
100
AcDbTrace
 10
-4.000000000000005
 20
55
 30
0
 11
-6.000000000000005
 21
54.66697227378173
 31
0
 12
-6.000000000000005
 22
55.33302772621827
 32
0
 13
-6.000000000000005
 23
55.33302772621827
 33
0
  0
MTEXT
  5
110
100
AcDbEntity
  8
rozmir
  6
CONTINUOUS
 62
    0
370
   -2
100
AcDbMText
 10
-3.000000000000004
 20
59
 30
0
 40
4
 41
1.777777777777778
 71
    5
 72
    1
  1
2
  7
standard
210
0
220
0
230
1
 50
360
 73
    2
 44
1
  0
LINE
  5
111
100
AcDbEntity
  8
rozmir
  6
ByBlock
 62
    0
370
   -2
100
AcDbLine
 10
-2.000000000000005
 20
48.5
 11
-2.000000000000005
 21
57
  0
LINE
  5
112
100
AcDbEntity
  8
rozmir
  6
ByBlock
 62
    0
370
   -2
100
AcDbLine
 10
-4.000000000000005
 20
51
 11
-4.000000000000005
 21
57
  0
ENDBLK
  5
81
330
7F
100
AcDbEntity
  8
0
100
AcDbBlockEnd
  0
BLOCK
  5
83
330
82
100
AcDbEntity
  8
0
100
AcDbBlockBegin
  2
*D4
 70
    1
 10
0
 20
0
  3
*D4
  1

  0
SOLID
  5
113
100
AcDbEntity
  8
rozmir
  6
ByBlock
 62
    0
370
   -2
100
AcDbTrace
 10
121.1525655158175
 20
89.06896968060742
 30
0
 11
119.3163040450694
 21
89.92865059668965
 31
0
 12
119.6939580182006
 22
90.47729195705053
 32
0
 13
119.6939580182006
 23
90.47729195705053
 33
0
  0
LINE
  5
114
100
AcDbEntity
  8
rozmir
  6
ByBlock
 62
    0
370
   -2
100
AcDbLine
 10
122.8
 20
87.93496808434477
 11
114.1967310270469
 21
93.85697642038312
  0
MTEXT
  5
115
100
AcDbEntity
  8
rozmir
  6
CONTINUOUS
 62
    0
370
   -2
100
AcDbMText
 10
119.9426514639575
 20
94.7578420188603
 30
0
 40
4
 41
4.444444444444445
 71
    5
 72
    1
  1
R1
  7
standard
210
0
220
0
230
1
 50
325.458654025399
 73
    2
 44
1
  0
ENDBLK
  5
84
330
82
100
AcDbEntity
  8
0
100
AcDbBlockEnd
  0
BLOCK
  5
86
330
85
100
AcDbEntity
  8
0
100
AcDbBlockBegin
  2
*D14
 70
    1
 10
0
 20
0
  3
*D14
  1

  0
LINE
  5
116
100
AcDbEntity
  8
rozmir
  6
ByBlock
 62
    0
370
   -2
100
AcDbLine
 10
131.3220772437797
 20
95.17197018818932
 11
138.6661505034245
 21
99.41776254142135
  0
LINE
  5
117
100
AcDbEntity
  8
rozmir
  6
ByBlock
 62
    0
370
   -2
100
AcDbLine
 10
120.8
 20
-1
 11
120.8
 21
68.4519164665723
  0
ARC
  5
118
100
AcDbEntity
  8
rozmir
  6
ByBlock
 62
    0
370
   -2
100
AcDbCircle
 10
120.8
 20
89.08889428162929
 40
18.63697781505699
100
AcDbArc
 50
270
 51
30.03328043599464
  0
SOLID
  5
119
100
AcDbEntity
  8
rozmir
  6
ByBlock
 62
    0
370
   -2
100
AcDbTrace
 10
136.9346808411962
 20
98.41675664294566
 30
0
 11
138.1382236792462
 21
96.78507281836174
 31
0
 12
137.5445475603407
 22
96.48311498759428
 32
0
 13
137.5445475603407
 23
96.48311498759428
 33
0
  0
SOLID
  5
11A
100
AcDbEntity
  8
rozmir
  6
ByBlock
 62
    0
370
   -2
100
AcDbTrace
 10
120.8
 20
70.4519164665723
 30
0
 11
122.7792610235047
 21
70.89172695674415
 31
0
 12
122.8149822602859
 22
70.22663007736246
 32
0
 13
122.8149822602859
 23
70.22663007736246
 33
0
  0
MTEXT
  5
11B
100
AcDbEntity
  8
rozmir
  6
CONTINUOUS
 62
    0
370
   -2
100
AcDbMText
 10
135.210460732748
 20
80.77459020440027
 30
0
 40
4
 41
9.777777777777779
 71
    8
 72
    1
  1
120%%D
  7
standard
210
0
220
0
230
1
 50
60.01664021799731
 73
    2
 44
1
  0
ENDBLK
  5
87
330
85
100
AcDbEntity
  8
0
100
AcDbBlockEnd
  0
BLOCK
  5
89
330
88
100
AcDbEntity
  8
0
100
AcDbBlockBegin
  2
*D7
 70
    1
 10
0
 20
0
  3
*D7
  1

  0
LINE
  5
11C
100
AcDbEntity
  8
rozmir
  6
ByBlock
 62
    0
370
   -2
100
AcDbLine
 10
-10
 20
90
 11
-10
 21
95
  0
SOLID
  5
11D
100
AcDbEntity
  8
rozmir
  6
ByBlock
 62
    0
370
   -2
100
AcDbTrace
 10
-10
 20
90
 30
0
 11
-10.33302772621827
 21
92
 31
0
 12
-9.666972273781727
 22
92
 32
0
 13
-9.666972273781727
 23
92
 33
0
  0
SOLID
  5
11E
100
AcDbEntity
  8
rozmir
  6
ByBlock
 62
    0
370
   -2
100
AcDbTrace
 10
-10
 20
95
 30
0
 11
-9.666972273781727
 21
93
 31
0
 12
-10.33302772621827
 22
93
 32
0
 13
-10.33302772621827
 23
93
 33
0
  0
MTEXT
  5
11F
100
AcDbEntity
  8
rozmir
  6
CONTINUOUS
 62
    0
370
   -2
100
AcDbMText
 10
-14
 20
92.5
 30
0
 40
4
 41
1.777777777778026
 71
    5
 72
    1
  1
5
  7
standard
210
0
220
0
230
1
 50
90
 73
    2
 44
1
  0
LINE
  5
120
100
AcDbEntity
  8
rozmir
  6
ByBlock
 62
    0
370
   -2
100
AcDbLine
 10
-1
 20
90
 11
-12
 21
90
  0
LINE
  5
121
100
AcDbEntity
  8
rozmir
  6
ByBlock
 62
    0
370
   -2
100
AcDbLine
 10
-1
 20
95
 11
-12
 21
95
  0
ENDBLK
  5
8A
330
88
100
AcDbEntity
  8
0
100
AcDbBlockEnd
  0
BLOCK
  5
8C
330
8B
100
AcDbEntity
  8
0
100
AcDbBlockBegin
  2
*D16
 70
    1
 10
0
 20
0
  3
*D16
  1

  0
LINE
  5
122
100
AcDbEntity
  8
rozmir
  6
ByBlock
 62
    0
370
   -2
100
AcDbLine
 10
-8
 20
20.4
 11
4.4
 21
20.4
  0
SOLID
  5
123
100
AcDbEntity
  8
rozmir
  6
ByBlock
 62
    0
370
   -2
100
AcDbTrace
 10
-4
 20
20.4
 30
0
 11
-6
 21
20.06697227378173
 31
0
 12
-6
 22
20.73302772621827
 32
0
 13
-6
 23
20.73302772621827
 33
0
  0
SOLID
  5
124
100
AcDbEntity
  8
rozmir
  6
ByBlock
 62
    0
370
   -2
100
AcDbTrace
 10
0.4000000000000002
 20
20.4
 30
0
 11
2.4
 21
20.73302772621827
 31
0
 12
2.4
 22
20.06697227378173
 32
0
 13
2.4
 23
20.06697227378173
 33
0
  0
MTEXT
  5
125
100
AcDbEntity
  8
rozmir
  6
CONTINUOUS
 62
    0
370
   -2
100
AcDbMText
 10
6.066666666666667
 20
24.4
 30
0
 40
4
 41
7.333333333333334
 71
    5
 72
    1
  1
4,4
  7
standard
210
0
220
0
230
1
 50
0
 73
    2
 44
1
  0
LINE
  5
126
100
AcDbEntity
  8
rozmir
  6
ByBlock
 62
    0
370
   -2
100
AcDbLine
 10
-4
 20
16.4
 11
-4
 21
22.4
  0
LINE
  5
127
100
AcDbEntity
  8
rozmir
  6
ByBlock
 62
    0
370
   -2
100
AcDbLine
 10
0.4000000000000002
 20
16.4
 11
0.4000000000000003
 21
22.4
  0
ENDBLK
  5
8D
330
8B
100
AcDbEntity
  8
0
100
AcDbBlockEnd
  0
BLOCK
  5
8F
330
8E
100
AcDbEntity
  8
0
100
AcDbBlockBegin
  2
*D13
 70
    1
 10
0
 20
0
  3
*D13
  1

  0
LINE
  5
128
100
AcDbEntity
  8
rozmir
  6
ByBlock
 62
    0
370
   -2
100
AcDbLine
 10
82
 20
80
 11
87
 21
80
  0
SOLID
  5
129
100
AcDbEntity
  8
rozmir
  6
ByBlock
 62
    0
370
   -2
100
AcDbTrace
 10
82
 20
80
 30
0
 11
84
 21
80.33302772621828
 31
0
 12
84
 22
79.66697227378172
 32
0
 13
84
 23
79.66697227378172
 33
0
  0
SOLID
  5
12A
100
AcDbEntity
  8
rozmir
  6
ByBlock
 62
    0
370
   -2
100
AcDbTrace
 10
87
 20
80
 30
0
 11
85
 21
79.66697227378172
 31
0
 12
85
 22
80.33302772621828
 32
0
 13
85
 23
80.33302772621828
 33
0
  0
MTEXT
  5
12B
100
AcDbEntity
  8
rozmir
  6
CONTINUOUS
 62
    0
370
   -2
100
AcDbMText
 10
84.5
 20
84
 30
0
 40
4
 41
1.777777777778026
 71
    5
 72
    1
  1
5
  7
standard
210
0
220
0
230
1
 50
0
 73
    2
 44
1
  0
LINE
  5
12C
100
AcDbEntity
  8
rozmir
  6
ByBlock
 62
    0
370
   -2
100
AcDbLine
 10
82
 20
89
 11
82
 21
78
  0
LINE
  5
12D
100
AcDbEntity
  8
rozmir
  6
ByBlock
 62
    0
370
   -2
100
AcDbLine
 10
87
 20
94
 11
87
 21
78
  0
ENDBLK
  5
90
330
8E
100
AcDbEntity
  8
0
100
AcDbBlockEnd
  0
BLOCK
  5
92
330
91
100
AcDbEntity
  8
0
100
AcDbBlockBegin
  2
*D11
 70
    1
 10
0
 20
0
  3
*D11
  1

  0
LINE
  5
12E
100
AcDbEntity
  8
rozmir
  6
ByBlock
 62
    0
370
   -2
100
AcDbLine
 10
37.00000000000001
 20
80
 11
50.00000000000003
 21
80
  0
SOLID
  5
12F
100
AcDbEntity
  8
rozmir
  6
ByBlock
 62
    0
370
   -2
100
AcDbTrace
 10
37.00000000000001
 20
80
 30
0
 11
39.00000000000001
 21
80.33302772621828
 31
0
 12
39.00000000000001
 22
79.66697227378172
 32
0
 13
39.00000000000001
 23
79.66697227378172
 33
0
  0
SOLID
  5
130
100
AcDbEntity
  8
rozmir
  6
ByBlock
 62
    0
370
   -2
100
AcDbTrace
 10
50.00000000000003
 20
80
 30
0
 11
48.00000000000003
 21
79.66697227378172
 31
0
 12
48.00000000000003
 22
80.33302772621828
 32
0
 13
48.00000000000003
 23
80.33302772621828
 33
0
  0
MTEXT
  5
131
100
AcDbEntity
  8
rozmir
  6
CONTINUOUS
 62
    0
370
   -2
100
AcDbMText
 10
43.50000000000001
 20
84
 30
0
 40
4
 41
4.000000000000248
 71
    5
 72
    1
  1
13
  7
standard
210
0
220
0
230
1
 50
0
 73
    2
 44
1
  0
LINE
  5
132
100
AcDbEntity
  8
rozmir
  6
ByBlock
 62
    0
370
   -2
100
AcDbLine
 10
37.00000000000001
 20
126
 11
37.00000000000001
 21
78
  0
LINE
  5
133
100
AcDbEntity
  8
rozmir
  6
ByBlock
 62
    0
370
   -2
100
AcDbLine
 10
50.00000000000003
 20
126
 11
50.00000000000003
 21
78
  0
ENDBLK
  5
93
330
91
100
AcDbEntity
  8
0
100
AcDbBlockEnd
  0
BLOCK
  5
95
330
94
100
AcDbEntity
  8
0
100
AcDbBlockBegin
  2
*D28
 70
    1
 10
0
 20
0
  3
*D28
  1

  0
LINE
  5
134
100
AcDbEntity
  8
rozmir
  6
ByBlock
 62
    0
370
   -2
100
AcDbLine
 10
27.4
 20
58.00000000000002
 11
38.4
 21
58.00000000000002
  0
SOLID
  5
135
100
AcDbEntity
  8
rozmir
  6
ByBlock
 62
    0
370
   -2
100
AcDbTrace
 10
31.4
 20
58.00000000000002
 30
0
 11
29.4
 21
57.66697227378175
 31
0
 12
29.4
 22
58.33302772621829
 32
0
 13
29.4
 23
58.33302772621829
 33
0
  0
SOLID
  5
136
100
AcDbEntity
  8
rozmir
  6
ByBlock
 62
    0
370
   -2
100
AcDbTrace
 10
34.4
 20
58.00000000000002
 30
0
 11
36.4
 21
58.33302772621829
 31
0
 12
36.4
 22
57.66697227378175
 32
0
 13
36.4
 23
57.66697227378175
 33
0
  0
MTEXT
  5
137
100
AcDbEntity
  8
rozmir
  6
CONTINUOUS
 62
    0
370
   -2
100
AcDbMText
 10
32.9
 20
62.00000000000002
 30
0
 40
4
 41
1.777777777778026
 71
    5
 72
    1
  1
3
  7
standard
210
0
220
0
230
1
 50
0
 73
    2
 44
1
  0
LINE
  5
138
100
AcDbEntity
  8
rozmir
  6
ByBlock
 62
    0
370
   -2
100
AcDbLine
 10
31.4
 20
55.00000000000001
 11
31.4
 21
60.00000000000002
  0
LINE
  5
139
100
AcDbEntity
  8
rozmir
  6
ByBlock
 62
    0
370
   -2
100
AcDbLine
 10
34.4
 20
55.00000000000001
 11
34.4
 21
60.00000000000002
  0
ENDBLK
  5
96
330
94
100
AcDbEntity
  8
0
100
AcDbBlockEnd
  0
BLOCK
  5
98
330
97
100
AcDbEntity
  8
0
100
AcDbBlockBegin
  2
*D31
 70
    1
 10
0
 20
0
  3
*D31
  1

  0
LINE
  5
13A
100
AcDbEntity
  8
rozmir
  6
ByBlock
 62
    0
370
   -2
100
AcDbLine
 10
14.32398450719103
 20
44.42398450719099
 11
20.47601549280899
 21
50.57601549280904
  0
SOLID
  5
13B
100
AcDbEntity
  8
rozmir
  6
ByBlock
 62
    0
370
   -2
100
AcDbTrace
 10
17.1524116319372
 20
47.2524116319372
 30
0
 11
15.97368423309619
 21
45.60271190603202
 31
0
 12
15.50271190603203
 22
46.07368423309617
 32
0
 13
15.50271190603203
 23
46.07368423309617
 33
0
  0
SOLID
  5
13C
100
AcDbEntity
  8
rozmir
  6
ByBlock
 62
    0
370
   -2
100
AcDbTrace
 10
17.64758836806282
 20
47.74758836806283
 30
0
 11
18.82631576690383
 21
49.39728809396801
 31
0
 12
19.29728809396799
 22
48.92631576690385
 32
0
 13
19.29728809396799
 23
48.92631576690385
 33
0
  0
MTEXT
  5
13D
100
AcDbEntity
  8
rozmir
  6
CONTINUOUS
 62
    0
370
   -2
100
AcDbMText
 10
19.9260435518861
 20
55.68289780137857
 30
0
 40
4
 41
10.44444444444444
 71
    5
 72
    1
  1
%%C0,7
  7
standard
210
0
220
0
230
1
 50
45.00000000000043
 73
    2
 44
1
  0
ENDBLK
  5
99
330
97
100
AcDbEntity
  8
0
100
AcDbBlockEnd
  0
BLOCK
  5
9B
330
9A
100
AcDbEntity
  8
0
100
AcDbBlockBegin
  2
*D12
 70
    1
 10
0
 20
0
  3
*D12
  1

  0
LINE
  5
13E
100
AcDbEntity
  8
rozmir
  6
ByBlock
 62
    0
370
   -2
100
AcDbLine
 10
50.00000000000003
 20
80
 11
81.99999999999991
 21
80
  0
SOLID
  5
13F
100
AcDbEntity
  8
rozmir
  6
ByBlock
 62
    0
370
   -2
100
AcDbTrace
 10
50.00000000000003
 20
80
 30
0
 11
52.00000000000003
 21
80.33302772621828
 31
0
 12
52.00000000000003
 22
79.66697227378172
 32
0
 13
52.00000000000003
 23
79.66697227378172
 33
0
  0
SOLID
  5
140
100
AcDbEntity
  8
rozmir
  6
ByBlock
 62
    0
370
   -2
100
AcDbTrace
 10
81.99999999999991
 20
80
 30
0
 11
79.99999999999991
 21
79.66697227378172
 31
0
 12
79.99999999999991
 22
80.33302772621828
 32
0
 13
79.99999999999991
 23
80.33302772621828
 33
0
  0
MTEXT
  5
141
100
AcDbEntity
  8
rozmir
  6
CONTINUOUS
 62
    0
370
   -2
100
AcDbMText
 10
65.99999999999997
 20
84
 30
0
 40
4
 41
4.888888888889136
 71
    5
 72
    1
  1
32
  7
standard
210
0
220
0
230
1
 50
0
 73
    2
 44
1
  0
LINE
  5
142
100
AcDbEntity
  8
rozmir
  6
ByBlock
 62
    0
370
   -2
100
AcDbLine
 10
50.00000000000003
 20
126
 11
50.00000000000003
 21
78
  0
LINE
  5
143
100
AcDbEntity
  8
rozmir
  6
ByBlock
 62
    0
370
   -2
100
AcDbLine
 10
81.99999999999991
 20
89
 11
81.99999999999991
 21
78
  0
ENDBLK
  5
9C
330
9A
100
AcDbEntity
  8
0
100
AcDbBlockEnd
  0
BLOCK
  5
9E
330
9D
100
AcDbEntity
  8
0
100
AcDbBlockBegin
  2
*D29
 70
    1
 10
0
 20
0
  3
*D29
  1

  0
LINE
  5
144
100
AcDbEntity
  8
rozmir
  6
ByBlock
 62
    0
370
   -2
100
AcDbLine
 10
0
 20
66
 11
31.4
 21
66
  0
SOLID
  5
145
100
AcDbEntity
  8
rozmir
  6
ByBlock
 62
    0
370
   -2
100
AcDbTrace
 10
0
 20
66
 30
0
 11
2
 21
66.33302772621828
 31
0
 12
2
 22
65.66697227378172
 32
0
 13
2
 23
65.66697227378172
 33
0
  0
SOLID
  5
146
100
AcDbEntity
  8
rozmir
  6
ByBlock
 62
    0
370
   -2
100
AcDbTrace
 10
31.4
 20
66
 30
0
 11
29.4
 21
65.66697227378172
 31
0
 12
29.4
 22
66.33302772621828
 32
0
 13
29.4
 23
66.33302772621828
 33
0
  0
MTEXT
  5
147
100
AcDbEntity
  8
rozmir
  6
CONTINUOUS
 62
    0
370
   -2
100
AcDbMText
 10
15.7
 20
70
 30
0
 40
4
 41
9.111111111111359
 71
    5
 72
    1
  1
31,4
  7
standard
210
0
220
0
230
1
 50
0
 73
    2
 44
1
  0
LINE
  5
148
100
AcDbEntity
  8
rozmir
  6
ByBlock
 62
    0
370
   -2
100
AcDbLine
 10
7.273661547324612e-16
 20
51
 11
-3.216245299353273e-16
 21
68
  0
LINE
  5
149
100
AcDbEntity
  8
rozmir
  6
ByBlock
 62
    0
370
   -2
100
AcDbLine
 10
31.4
 20
55.00000000000001
 11
31.4
 21
68
  0
ENDBLK
  5
9F
330
9D
100
AcDbEntity
  8
0
100
AcDbBlockEnd
  0
BLOCK
  5
A1
330
A0
100
AcDbEntity
  8
0
100
AcDbBlockBegin
  2
*D24
 70
    1
 10
0
 20
0
  3
*D24
  1

  0
LINE
  5
14A
100
AcDbEntity
  8
rozmir
  6
ByBlock
 62
    0
370
   -2
100
AcDbLine
 10
-3.552713678800501e-15
 20
58
 11
10.4
 21
58
  0
SOLID
  5
14B
100
AcDbEntity
  8
rozmir
  6
ByBlock
 62
    0
370
   -2
100
AcDbTrace
 10
-3.552713678800501e-15
 20
58
 30
0
 11
1.999999999999996
 21
58.33302772621827
 31
0
 12
1.999999999999996
 22
57.66697227378172
 32
0
 13
1.999999999999996
 23
57.66697227378172
 33
0
  0
SOLID
  5
14C
100
AcDbEntity
  8
rozmir
  6
ByBlock
 62
    0
370
   -2
100
AcDbTrace
 10
10.4
 20
58
 30
0
 11
8.4
 21
57.66697227378173
 31
0
 12
8.4
 22
58.33302772621827
 32
0
 13
8.4
 23
58.33302772621827
 33
0
  0
MTEXT
  5
14D
100
AcDbEntity
  8
rozmir
  6
CONTINUOUS
 62
    0
370
   -2
100
AcDbMText
 10
5.199999999999998
 20
62
 30
0
 40
4
 41
9.111111111111111
 71
    5
 72
    1
  1
10,4
  7
standard
210
0
220
0
230
1
 50
0
 73
    2
 44
1
  0
LINE
  5
14E
100
AcDbEntity
  8
rozmir
  6
ByBlock
 62
    0
370
   -2
100
AcDbLine
 10
-5.045793573318353e-15
 20
51
 11
-2.986159789035703e-15
 21
60
  0
LINE
  5
14F
100
AcDbEntity
  8
rozmir
  6
ByBlock
 62
    0
370
   -2
100
AcDbLine
 10
10.4
 20
55
 11
10.4
 21
60
  0
ENDBLK
  5
A2
330
A0
100
AcDbEntity
  8
0
100
AcDbBlockEnd
  0
BLOCK
  5
A4
330
A3
100
AcDbEntity
  8
0
100
AcDbBlockBegin
  2
*D30
 70
    1
 10
0
 20
0
  3
*D30
  1

  0
LINE
  5
150
100
AcDbEntity
  8
rozmir
  6
ByBlock
 62
    0
370
   -2
100
AcDbLine
 10
43.5
 20
43.5
 11
43.5
 21
54
  0
SOLID
  5
151
100
AcDbEntity
  8
rozmir
  6
ByBlock
 62
    0
370
   -2
100
AcDbTrace
 10
43.5
 20
47.5
 30
0
 11
43.83302772621827
 21
45.5
 31
0
 12
43.16697227378173
 22
45.5
 32
0
 13
43.16697227378173
 23
45.5
 33
0
  0
SOLID
  5
152
100
AcDbEntity
  8
rozmir
  6
ByBlock
 62
    0
370
   -2
100
AcDbTrace
 10
43.5
 20
50
 30
0
 11
43.16697227378173
 21
52
 31
0
 12
43.83302772621828
 22
52
 32
0
 13
43.83302772621828
 23
52
 33
0
  0
MTEXT
  5
153
100
AcDbEntity
  8
rozmir
  6
CONTINUOUS
 62
    0
370
   -2
100
AcDbMText
 10
39.5
 20
55.22222222222234
 30
0
 40
4
 41
6.444444444444692
 71
    5
 72
    1
  1
2,5
  7
standard
210
0
220
0
230
1
 50
90
 73
    2
 44
1
  0
LINE
  5
154
100
AcDbEntity
  8
rozmir
  6
ByBlock
 62
    0
370
   -2
100
AcDbLine
 10
46
 20
47.5
 11
41.5
 21
47.5
  0
LINE
  5
155
100
AcDbEntity
  8
rozmir
  6
ByBlock
 62
    0
370
   -2
100
AcDbLine
 10
46
 20
50
 11
41.5
 21
50
  0
ENDBLK
  5
A5
330
A3
100
AcDbEntity
  8
0
100
AcDbBlockEnd
  0
BLOCK
  5
A7
330
A6
100
AcDbEntity
  8
0
100
AcDbBlockBegin
  2
*D32
 70
    1
 10
0
 20
0
  3
*D32
  1

  0
LINE
  5
156
100
AcDbEntity
  8
rozmir
  6
ByBlock
 62
    0
370
   -2
100
AcDbLine
 10
65.80000000000001
 20
34.6
 11
48.4
 21
34.6
  0
SOLID
  5
157
100
AcDbEntity
  8
rozmir
  6
ByBlock
 62
    0
370
   -2
100
AcDbTrace
 10
65.80000000000001
 20
34.6
 30
0
 11
63.80000000000001
 21
34.26697227378173
 31
0
 12
63.80000000000001
 22
34.93302772621827
 32
0
 13
63.80000000000001
 23
34.93302772621827
 33
0
  0
SOLID
  5
158
100
AcDbEntity
  8
rozmir
  6
ByBlock
 62
    0
370
   -2
100
AcDbTrace
 10
48.4
 20
34.6
 30
0
 11
50.4
 21
34.93302772621827
 31
0
 12
50.4
 22
34.26697227378173
 32
0
 13
50.4
 23
34.26697227378173
 33
0
  0
MTEXT
  5
159
100
AcDbEntity
  8
rozmir
  6
CONTINUOUS
 62
    0
370
   -2
100
AcDbMText
 10
57.10000000000001
 20
38.6
 30
0
 40
4
 41
9.111111111111111
 71
    5
 72
    1
  1
17,4
  7
standard
210
0
220
0
230
1
 50
360
 73
    2
 44
1
  0
LINE
  5
15A
100
AcDbEntity
  8
rozmir
  6
ByBlock
 62
    0
370
   -2
100
AcDbLine
 10
65.80000000000001
 20
44
 11
65.80000000000001
 21
32.6
  0
LINE
  5
15B
100
AcDbEntity
  8
rozmir
  6
ByBlock
 62
    0
370
   -2
100
AcDbLine
 10
48.4
 20
45.00000000000001
 11
48.4
 21
32.6
  0
ENDBLK
  5
A8
330
A6
100
AcDbEntity
  8
0
100
AcDbBlockEnd
  0
BLOCK
  5
AA
330
A9
100
AcDbEntity
  8
0
100
AcDbBlockBegin
  2
*D6
 70
    1
 10
0
 20
0
  3
*D6
  1

  0
LINE
  5
15C
100
AcDbEntity
  8
rozmir
  6
ByBlock
 62
    0
370
   -2
100
AcDbLine
 10
5
 20
80
 11
37
 21
80
  0
SOLID
  5
15D
100
AcDbEntity
  8
rozmir
  6
ByBlock
 62
    0
370
   -2
100
AcDbTrace
 10
5
 20
80
 30
0
 11
7
 21
80.33302772621828
 31
0
 12
7
 22
79.66697227378172
 32
0
 13
7
 23
79.66697227378172
 33
0
  0
SOLID
  5
15E
100
AcDbEntity
  8
rozmir
  6
ByBlock
 62
    0
370
   -2
100
AcDbTrace
 10
37
 20
80
 30
0
 11
35
 21
79.66697227378172
 31
0
 12
35
 22
80.33302772621828
 32
0
 13
35
 23
80.33302772621828
 33
0
  0
MTEXT
  5
15F
100
AcDbEntity
  8
rozmir
  6
CONTINUOUS
 62
    0
370
   -2
100
AcDbMText
 10
21
 20
84
 30
0
 40
4
 41
4.888888888889136
 71
    5
 72
    1
  1
32
  7
standard
210
0
220
0
230
1
 50
0
 73
    2
 44
1
  0
LINE
  5
160
100
AcDbEntity
  8
rozmir
  6
ByBlock
 62
    0
370
   -2
100
AcDbLine
 10
5
 20
89
 11
5
 21
78
  0
LINE
  5
161
100
AcDbEntity
  8
rozmir
  6
ByBlock
 62
    0
370
   -2
100
AcDbLine
 10
37
 20
126
 11
37
 21
78
  0
ENDBLK
  5
AB
330
A9
100
AcDbEntity
  8
0
100
AcDbBlockEnd
  0
BLOCK
  5
AD
330
AC
100
AcDbEntity
  8
0
100
AcDbBlockBegin
  2
*D22
 70
    1
 10
0
 20
0
  3
*D22
  1

  0
LINE
  5
162
100
AcDbEntity
  8
rozmir
  6
ByBlock
 62
    0
370
   -2
100
AcDbLine
 10
-7.6
 20
54
 11
-7.6
 21
43.5
  0
SOLID
  5
163
100
AcDbEntity
  8
rozmir
  6
ByBlock
 62
    0
370
   -2
100
AcDbTrace
 10
-7.6
 20
50
 30
0
 11
-7.933027726218271
 21
52
 31
0
 12
-7.266972273781727
 22
52
 32
0
 13
-7.266972273781727
 23
52
 33
0
  0
SOLID
  5
164
100
AcDbEntity
  8
rozmir
  6
ByBlock
 62
    0
370
   -2
100
AcDbTrace
 10
-7.6
 20
47.5
 30
0
 11
-7.266972273781727
 21
45.5
 31
0
 12
-7.933027726218272
 22
45.5
 32
0
 13
-7.933027726218272
 23
45.5
 33
0
  0
MTEXT
  5
165
100
AcDbEntity
  8
rozmir
  6
CONTINUOUS
 62
    0
370
   -2
100
AcDbMText
 10
-11.6
 20
55.22222222222234
 30
0
 40
4
 41
6.444444444444692
 71
    5
 72
    1
  1
2,5
  7
standard
210
0
220
0
230
1
 50
90
 73
    2
 44
1
  0
LINE
  5
166
100
AcDbEntity
  8
rozmir
  6
ByBlock
 62
    0
370
   -2
100
AcDbLine
 10
-5.000000000000005
 20
50
 11
-9.6
 21
50
  0
LINE
  5
167
100
AcDbEntity
  8
rozmir
  6
ByBlock
 62
    0
370
   -2
100
AcDbLine
 10
-3.000000000000005
 20
47.5
 11
-9.6
 21
47.5
  0
ENDBLK
  5
AE
330
AC
100
AcDbEntity
  8
0
100
AcDbBlockEnd
  0
BLOCK
  5
B0
330
AF
100
AcDbEntity
  8
0
100
AcDbBlockBegin
  2
*D5
 70
    1
 10
0
 20
0
  3
*D5
  1

  0
LINE
  5
168
100
AcDbEntity
  8
rozmir
  6
ByBlock
 62
    0
370
   -2
100
AcDbLine
 10
-4
 20
80
 11
8.999999999999975
 21
80
  0
SOLID
  5
169
100
AcDbEntity
  8
rozmir
  6
ByBlock
 62
    0
370
   -2
100
AcDbTrace
 10
0
 20
80
 30
0
 11
-2
 21
79.66697227378172
 31
0
 12
-2
 22
80.33302772621828
 32
0
 13
-2
 23
80.33302772621828
 33
0
  0
SOLID
  5
16A
100
AcDbEntity
  8
rozmir
  6
ByBlock
 62
    0
370
   -2
100
AcDbTrace
 10
4.999999999999975
 20
80
 30
0
 11
6.999999999999975
 21
80.33302772621828
 31
0
 12
6.999999999999975
 22
79.66697227378172
 32
0
 13
6.999999999999975
 23
79.66697227378172
 33
0
  0
MTEXT
  5
16B
100
AcDbEntity
  8
rozmir
  6
CONTINUOUS
 62
    0
370
   -2
100
AcDbMText
 10
2.499999999999988
 20
84
 30
0
 40
4
 41
1.777777777778026
 71
    5
 72
    1
  1
5
  7
standard
210
0
220
0
230
1
 50
0
 73
    2
 44
1
  0
LINE
  5
16C
100
AcDbEntity
  8
rozmir
  6
ByBlock
 62
    0
370
   -2
100
AcDbLine
 10
-1.83697019872103e-16
 20
89
 11
-3.673940397442059e-16
 21
78
  0
LINE
  5
16D
100
AcDbEntity
  8
rozmir
  6
ByBlock
 62
    0
370
   -2
100
AcDbLine
 10
4.999999999999975
 20
89
 11
4.999999999999975
 21
78
  0
ENDBLK
  5
B1
330
AF
100
AcDbEntity
  8
0
100
AcDbBlockEnd
  0
BLOCK
  5
B3
330
B2
100
AcDbEntity
  8
0
100
AcDbBlockBegin
  2
*D18
 70
    1
 10
0
 20
0
  3
*D18
  1

  0
LINE
  5
16E
100
AcDbEntity
  8
rozmir
  6
ByBlock
 62
    0
370
   -2
100
AcDbLine
 10
61.40000000000001
 20
20.4
 11
73.80000000000001
 21
20.4
  0
SOLID
  5
16F
100
AcDbEntity
  8
rozmir
  6
ByBlock
 62
    0
370
   -2
100
AcDbTrace
 10
65.40000000000001
 20
20.4
 30
0
 11
63.40000000000001
 21
20.06697227378173
 31
0
 12
63.40000000000001
 22
20.73302772621827
 32
0
 13
63.40000000000001
 23
20.73302772621827
 33
0
  0
SOLID
  5
170
100
AcDbEntity
  8
rozmir
  6
ByBlock
 62
    0
370
   -2
100
AcDbTrace
 10
69.80000000000001
 20
20.4
 30
0
 11
71.80000000000001
 21
20.73302772621827
 31
0
 12
71.80000000000001
 22
20.06697227378173
 32
0
 13
71.80000000000001
 23
20.06697227378173
 33
0
  0
MTEXT
  5
171
100
AcDbEntity
  8
rozmir
  6
CONTINUOUS
 62
    0
370
   -2
100
AcDbMText
 10
75.46666666666668
 20
24.4
 30
0
 40
4
 41
7.333333333333334
 71
    5
 72
    1
  1
4,4
  7
standard
210
0
220
0
230
1
 50
0
 73
    2
 44
1
  0
LINE
  5
172
100
AcDbEntity
  8
rozmir
  6
ByBlock
 62
    0
370
   -2
100
AcDbLine
 10
65.40000000000001
 20
16.4
 11
65.40000000000001
 21
22.4
  0
LINE
  5
173
100
AcDbEntity
  8
rozmir
  6
ByBlock
 62
    0
370
   -2
100
AcDbLine
 10
69.80000000000001
 20
16.4
 11
69.80000000000001
 21
22.4
  0
ENDBLK
  5
B4
330
B2
100
AcDbEntity
  8
0
100
AcDbBlockEnd
  0
BLOCK
  5
B6
330
B5
100
AcDbEntity
  8
0
100
AcDbBlockBegin
  2
*D26
 70
    1
 10
0
 20
0
  3
*D26
  1

  0
LINE
  5
174
100
AcDbEntity
  8
rozmir
  6
ByBlock
 62
    0
370
   -2
100
AcDbLine
 10
55.4
 20
58
 11
65.80000000000001
 21
58
  0
SOLID
  5
175
100
AcDbEntity
  8
rozmir
  6
ByBlock
 62
    0
370
   -2
100
AcDbTrace
 10
55.4
 20
58
 30
0
 11
57.4
 21
58.33302772621827
 31
0
 12
57.4
 22
57.66697227378172
 32
0
 13
57.4
 23
57.66697227378172
 33
0
  0
SOLID
  5
176
100
AcDbEntity
  8
rozmir
  6
ByBlock
 62
    0
370
   -2
100
AcDbTrace
 10
65.80000000000001
 20
58
 30
0
 11
63.80000000000001
 21
57.66697227378173
 31
0
 12
63.80000000000001
 22
58.33302772621827
 32
0
 13
63.80000000000001
 23
58.33302772621827
 33
0
  0
MTEXT
  5
177
100
AcDbEntity
  8
rozmir
  6
CONTINUOUS
 62
    0
370
   -2
100
AcDbMText
 10
60.60000000000001
 20
62
 30
0
 40
4
 41
9.111111111111111
 71
    5
 72
    1
  1
10,4
  7
standard
210
0
220
0
230
1
 50
0
 73
    2
 44
1
  0
LINE
  5
178
100
AcDbEntity
  8
rozmir
  6
ByBlock
 62
    0
370
   -2
100
AcDbLine
 10
55.4
 20
55
 11
55.4
 21
60
  0
LINE
  5
179
100
AcDbEntity
  8
rozmir
  6
ByBlock
 62
    0
370
   -2
100
AcDbLine
 10
65.80000000000001
 20
51
 11
65.80000000000001
 21
60
  0
ENDBLK
  5
B7
330
B5
100
AcDbEntity
  8
0
100
AcDbBlockEnd
  0
BLOCK
  5
B9
330
B8
100
AcDbEntity
  8
0
100
AcDbBlockBegin
  2
block10
 70
    0
 10
0
 20
0
  3
block10
  1

  0
LWPOLYLINE
  5
17A
100
AcDbEntity
  8
0
  6
CONTINUOUS
 62
    7
370
   70
100
AcDbPolyline
 90
   12
 70
    1
 43
0
 10
-0.6062178
 20
1
 10
0
 20
0
 10
0.6062178
 20
1
 10
1.8186533
 20
1
 10
1.2124356
 20
2
 10
1.8186533
 20
3
 10
0.6062178
 20
3
 10
0
 20
4
 10
-0.6062178
 20
3
 10
-1.8186533
 20
3
 10
-1.2124356
 20
2
 10
-1.8186533
 20
1
  0
ENDBLK
  5
BA
330
B8
100
AcDbEntity
  8
0
100
AcDbBlockEnd
  0
ENDSEC
  0
SECTION
  2
ENTITIES
  0
HATCH
  5
17B
100
AcDbEntity
  8
opora
  6
ByLayer
 62
  256
370
   -1
100
AcDbHatch
 10
0
 20
0
 30
0
210
0
220
0
230
1
  2
gost_metal
 70
    0
 71
    0
 91
    1
 92
    0
 93
    4
 72
    1
 10
52.4
 20
-10
 11
55.4
 21
-10
 72
    1
 10
55.4
 20
-10
 11
55.4
 21
-10.4
 72
    1
 10
55.4
 20
-10.4
 11
52.4
 21
-10.4
 72
    1
 10
52.4
 20
-10.4
 11
52.4
 21
-10
 97
    0
 75
    0
 76
    1
 52
0
 41
0.1
 77
    0
 78
    0
 98
    0
  0
HATCH
  5
17C
100
AcDbEntity
  8
opora
  6
ByLayer
 62
  256
370
   -1
100
AcDbHatch
 10
0
 20
0
 30
0
210
0
220
0
230
1
  2
gost_metal
 70
    0
 71
    0
 91
    1
 92
    0
 93
    4
 72
    1
 10
31.4
 20
-10.00000000000001
 11
34.4
 21
-10.00000000000001
 72
    1
 10
34.4
 20
-10.00000000000001
 11
34.4
 21
-10.4
 72
    1
 10
34.4
 20
-10.4
 11
31.4
 21
-10.4
 72
    1
 10
31.4
 20
-10.4
 11
31.4
 21
-10.00000000000001
 97
    0
 75
    0
 76
    1
 52
0
 41
0.1
 77
    0
 78
    0
 98
    0
  0
HATCH
  5
17D
100
AcDbEntity
  8
opora
  6
ByLayer
 62
  256
370
   -1
100
AcDbHatch
 10
0
 20
0
 30
0
210
0
220
0
230
1
  2
gost_metal
 70
    0
 71
    0
 91
    1
 92
    0
 93
    4
 72
    1
 10
10.4
 20
-10
 11
13.4
 21
-10
 72
    1
 10
13.4
 20
-10
 11
13.4
 21
-10.39999999999999
 72
    1
 10
13.4
 20
-10.39999999999999
 11
10.4
 21
-10.39999999999999
 72
    1
 10
10.4
 20
-10.39999999999999
 11
10.4
 21
-10
 97
    0
 75
    0
 76
    1
 52
0
 41
0.1
 77
    0
 78
    0
 98
    0
  0
LWPOLYLINE
  5
17E
100
AcDbEntity
  8
kryshka
  6
ByLayer
 62
  256
370
   -1
100
AcDbPolyline
 90
    5
 70
    0
 43
0
 10
137.6
 20
100.1875
 10
109.6
 20
84
 10
110.3991960898714
 20
84
 10
137.6
 20
99.72546476054305
 10
137.6
 20
100.1875
  0
LINE
  5
17F
100
AcDbEntity
  8
kryshka
  6
ByLayer
 62
  256
370
   -1
100
AcDbLine
 10
110.3991960898714
 20
84
 11
137.6
 21
84
  0
LWPOLYLINE
  5
180
100
AcDbEntity
  8
opora
  6
ByLayer
 62
  256
370
   -1
100
AcDbPolyline
 90
    8
 70
    1
 43
0
 10
120
 20
87.93496808434467
 42
-0.2677935593439384
 10
121.3985917421358
 20
90.35902561146123
 10
130.0559400532752
 20
95.36405510384282
 10
130.4563424126656
 20
94.67146723895149
 10
121.7989941015242
 20
89.66643774657297
 42
0.2677935593439454
 10
120.8
 20
87.93496808434467
 10
120.8
 20
0
 10
120
 20
0
  0
DIMENSION
  5
181
100
AcDbEntity
  8
rozmir
  6
ByLayer
 62
  256
370
   -1
100
AcDbDimension
  2
*D1
 10
125.6635339330465
 20
102.9617305550433
 30
0
 11
119.3328479805241
 21
103.9221551333084
 31
0
 70
   33
  1
5
 71
    5
 72
    0
  3
Standard
 53
0
210
0
220
0
230
1
100
AcDbAlignedDimension
 13
121.3985917421358
 23
90.35902561146125
 33
0
 14
130.0559400532753
 24
95.3640551038428
 34
0
  0
DIMENSION
  5
182
100
AcDbEntity
  8
rozmir
  6
ByLayer
 62
  256
370
   -1
100
AcDbDimension
  2
*D2
 10
120
 20
70
 30
0
 11
114.8
 21
74
 31
0
 70
   32
  1
5,2
 71
    5
 72
    0
  3
Standard
 53
0
210
0
220
0
230
1
100
AcDbAlignedDimension
 13
109.6
 23
84
 33
0
 14
120
 24
83.99999999999999
 34
0
100
AcDbRotatedDimension
  0
DIMENSION
  5
183
100
AcDbEntity
  8
rozmir
  6
ByLayer
 62
  256
370
   -1
100
AcDbDimension
  2
*D3
 10
105
 20
0
 30
0
 11
101
 21
43.96748613656938
 31
0
 70
   32
  1
44
 71
    5
 72
    0
  3
Standard
 53
0
210
0
220
0
230
1
100
AcDbAlignedDimension
 13
120
 23
87.93497227313875
 33
0
 14
120
 24
0
 34
0
 50
90
100
AcDbRotatedDimension
  0
DIMENSION
  5
184
100
AcDbEntity
  8
rozmir
  6
ByLayer
 62
  256
370
   -1
100
AcDbDimension
  2
*D4
 10
122.8
 20
87.93496808434477
 30
0
 11
119.9426514639575
 21
94.7578420188603
 31
0
 70
   36
  1
R1
 71
    5
 72
    0
  3
Standard
 53
0
210
0
220
0
230
1
100
AcDbRadialDimension
 15
121.1525655158175
 25
89.06896968060742
 35
0
 40
0
  0
MTEXT
  5
185
100
AcDbEntity
  8
rozmir
  6
ByLayer
 62
  256
370
   -1
100
AcDbMText
 10
50
 20
180
 30
0
 40
5
 41
83.88888888888913
 71
    5
 72
    1
  1
 . .
  7
cyrillic_ii
210
0
220
0
230
1
 50
0
 73
    2
 44
1
  0
LINE
  5
186
100
AcDbEntity
  8
rozmir
  6
ByLayer
 62
  256
370
   -1
100
AcDbLine
 10
7
 20
176
 11
92
 21
176
  0
LWPOLYLINE
  5
187
100
AcDbEntity
  8
kryshka
  6
ByLayer
 62
  256
370
   -1
100
AcDbPolyline
 90
    4
 70
    0
 43
0
 10
0
 20
95
 10
0
 20
159
 10
37
 20
127
 10
0
 20
95
  0
DIMENSION
  5
188
100
AcDbEntity
  8
rozmir
  6
ByLayer
 62
  256
370
   -1
100
AcDbDimension
  2
*D5
 10
4.999999999999975
 20
80
 30
0
 11
2.499999999999988
 21
84
 31
0
 70
   32
 71
    5
  3
Standard
 53
0
210
0
220
0
230
1
100
AcDbAlignedDimension
 13
0
 23
90
 33
0
 14
4.999999999999975
 24
90
 34
0
100
AcDbRotatedDimension
  0
DIMENSION
  5
189
100
AcDbEntity
  8
rozmir
  6
ByLayer
 62
  256
370
   -1
100
AcDbDimension
  2
*D6
 10
37
 20
80
 30
0
 11
21
 21
84
 31
0
 70
   32
 71
    5
  3
Standard
 53
0
210
0
220
0
230
1
100
AcDbAlignedDimension
 13
5
 23
90
 33
0
 14
37
 24
127
 34
0
100
AcDbRotatedDimension
  0
DIMENSION
  5
18A
100
AcDbEntity
  8
rozmir
  6
ByLayer
 62
  256
370
   -1
100
AcDbDimension
  2
*D7
 10
-10
 20
95
 30
0
 11
-14
 21
92.5
 31
0
 70
   32
 71
    5
  3
Standard
 53
0
210
0
220
0
230
1
100
AcDbAlignedDimension
 13
0
 23
90
 33
0
 14
0
 24
95
 34
0
 50
90
100
AcDbRotatedDimension
  0
DIMENSION
  5
18B
100
AcDbEntity
  8
rozmir
  6
ByLayer
 62
  256
370
   -1
100
AcDbDimension
  2
*D8
 10
-10
 20
127
 30
0
 11
-14
 21
111
 31
0
 70
   32
 71
    5
  3
Standard
 53
0
210
0
220
0
230
1
100
AcDbAlignedDimension
 13
0
 23
95
 33
0
 14
37
 24
127
 34
0
 50
90
100
AcDbRotatedDimension
  0
DIMENSION
  5
18C
100
AcDbEntity
  8
rozmir
  6
ByLayer
 62
  256
370
   -1
100
AcDbDimension
  2
*D9
 10
-10
 20
159
 30
0
 11
-14
 21
143
 31
0
 70
   32
 71
    5
  3
Standard
 53
0
210
0
220
0
230
1
100
AcDbAlignedDimension
 13
37
 23
127
 33
0
 14
0
 24
159
 34
0
 50
90
100
AcDbRotatedDimension
  0
DIMENSION
  5
18D
100
AcDbEntity
  8
rozmir
  6
ByLayer
 62
  256
370
   -1
100
AcDbDimension
  2
*D10
 10
-10
 20
164
 30
0
 11
-14
 21
161.5
 31
0
 70
   32
 71
    5
  3
Standard
 53
0
210
0
220
0
230
1
100
AcDbAlignedDimension
 13
0
 23
159
 33
0
 14
5
 24
164
 34
0
 50
90
100
AcDbRotatedDimension
  0
LWPOLYLINE
  5
18E
100
AcDbEntity
  8
kryshka
  6
CONTINUOUS
 62
    3
370
   35
100
AcDbPolyline
 90
    5
 70
    0
 43
0
 10
82
 20
90
 10
5
 20
90
 10
37
 20
127
 10
50
 20
127
 10
81.99999999999989
 20
90
  0
LWPOLYLINE
  5
18F
100
AcDbEntity
  8
kryshka
  6
CONTINUOUS
 62
    3
370
   35
100
AcDbPolyline
 90
    5
 70
    0
 43
0
 10
82
 20
164
 10
5
 20
164
 10
37
 20
127
 10
50
 20
127
 10
81.99999999999989
 20
164
  0
LWPOLYLINE
  5
190
100
AcDbEntity
  8
kryshka
  6
ByLayer
 62
  256
370
   -1
100
AcDbPolyline
 90
    4
 70
    0
 43
0
 10
87
 20
159
 10
87
 20
95
 10
50
 20
127
 10
87
 20
159
  0
DIMENSION
  5
191
100
AcDbEntity
  8
rozmir
  6
ByLayer
 62
  256
370
   -1
100
AcDbDimension
  2
*D11
 10
51.00000000000003
 20
80
 30
0
 11
43.50000000000001
 21
84
 31
0
 70
   32
 71
    5
  3
Standard
 53
0
210
0
220
0
230
1
100
AcDbAlignedDimension
 13
37.00000000000001
 23
127
 33
0
 14
50.00000000000003
 24
127
 34
0
100
AcDbRotatedDimension
  0
DIMENSION
  5
192
100
AcDbEntity
  8
rozmir
  6
ByLayer
 62
  256
370
   -1
100
AcDbDimension
  2
*D12
 10
82.99999999999991
 20
80
 30
0
 11
65.99999999999997
 21
84
 31
0
 70
   32
 71
    5
  3
Standard
 53
0
210
0
220
0
230
1
100
AcDbAlignedDimension
 13
50.00000000000003
 23
127
 33
0
 14
81.99999999999991
 24
90
 34
0
100
AcDbRotatedDimension
  0
DIMENSION
  5
193
100
AcDbEntity
  8
rozmir
  6
ByLayer
 62
  256
370
   -1
100
AcDbDimension
  2
*D13
 10
87
 20
80
 30
0
 11
84.5
 21
84
 31
0
 70
   32
 71
    5
  3
Standard
 53
0
210
0
220
0
230
1
100
AcDbAlignedDimension
 13
82
 23
90
 33
0
 14
87
 24
95
 34
0
100
AcDbRotatedDimension
  0
DIMENSION
  5
194
100
AcDbEntity
  8
rozmir
  6
ByLayer
 62
  256
370
   -1
100
AcDbDimension
  2
*D14
 10
120.8
 20
0
 30
0
 11
0
 21
0
 31
0
 70
   34
 71
    5
  3
Standard
 53
0
210
0
220
0
230
1
100
AcDb2LineAngularDimension
 13
121.7989941015242
 23
89.66643774657297
 33
0
 14
130.4563424126656
 24
94.67146723895149
 34
0
 15
120.8
 25
87.93496808434467
 35
0
 16
133
 26
75
 36
0
  0
LWPOLYLINE
  5
195
100
AcDbEntity
  8
opora
  6
ByLayer
 62
  256
370
   -1
100
AcDbPolyline
 90
   13
 70
    0
 43
0
 10
-4
 20
15.4
 10
-4
 20
15
 10
4.440892098500626e-16
 20
15
 10
0
 20
-10
 10
65.80000000000001
 20
-10
 10
65.80000000000001
 20
15
 10
69.80000000000001
 20
15
 10
69.80000000000001
 20
15.4
 10
65.40000000000001
 20
15.4
 10
65.40000000000001
 20
-9.600000000000001
 10
0.4000000000000006
 20
-9.600000000000001
 10
0.4000000000000002
 20
15.4
 10
-4
 20
15.4
  0
LINE
  5
196
100
AcDbEntity
  8
rozmir
  6
DASHDOT2
 62
  256
370
   -1
100
AcDbLine
 10
-1.999999999999999
 20
14.4
 11
-1.999999999999999
 21
16.4
  0
LINE
  5
197
100
AcDbEntity
  8
rozmir
  6
DASHDOT2
 62
  256
370
   -1
100
AcDbLine
 10
67.80000000000001
 20
14.4
 11
67.80000000000001
 21
16.4
  0
LINE
  5
198
100
AcDbEntity
  8
opora
  6
ByLayer
 62
  256
370
   -1
100
AcDbLine
 10
0.4000000000000006
 20
-9.600000000000001
 11
0.4000000000000004
 21
-10
  0
LINE
  5
199
100
AcDbEntity
  8
opora
  6
ByLayer
 62
  256
370
   -1
100
AcDbLine
 10
1.221245327087672e-15
 20
15.4
 11
1.221245327087672e-15
 21
15
  0
LINE
  5
19A
100
AcDbEntity
  8
opora
  6
ByLayer
 62
  256
370
   -1
100
AcDbLine
 10
65.80000000000001
 20
15.4
 11
65.80000000000001
 21
14.99999999999999
  0
LINE
  5
19B
100
AcDbEntity
  8
opora
  6
ByLayer
 62
  256
370
   -1
100
AcDbLine
 10
65.40000000000001
 20
-9.600000000000001
 11
65.40000000000001
 21
-10.00000000000001
  0
DIMENSION
  5
19C
100
AcDbEntity
  8
rozmir
  6
ByLayer
 62
  256
370
   -1
100
AcDbDimension
  2
*D15
 10
-9.6
 20
-10
 30
0
 11
-13.6
 21
2.699999999999999
 31
0
 70
   32
 71
    5
  3
Standard
 53
0
210
0
220
0
230
1
100
AcDbAlignedDimension
 13
-4
 23
15.4
 33
0
 14
0
 24
-10
 34
0
 50
90
100
AcDbRotatedDimension
  0
DIMENSION
  5
19D
100
AcDbEntity
  8
rozmir
  6
ByLayer
 62
  256
370
   -1
100
AcDbDimension
  2
*D16
 10
0.4000000000000005
 20
20.4
 30
0
 11
-1.8
 21
24.4
 31
0
 70
   32
 71
    5
  3
Standard
 53
0
210
0
220
0
230
1
100
AcDbAlignedDimension
 13
-4
 23
15.4
 33
0
 14
0.4000000000000002
 24
15.4
 34
0
100
AcDbRotatedDimension
  0
DIMENSION
  5
19E
100
AcDbEntity
  8
rozmir
  6
ByLayer
 62
  256
370
   -1
100
AcDbDimension
  2
*D17
 10
65.40000000000001
 20
20.4
 30
0
 11
32.90000000000001
 21
24.4
 31
0
 70
   32
 71
    5
  3
Standard
 53
0
210
0
220
0
230
1
100
AcDbAlignedDimension
 13
0.4000000000000006
 23
15.4
 33
0
 14
65.40000000000001
 24
15.4
 34
0
100
AcDbRotatedDimension
  0
DIMENSION
  5
19F
100
AcDbEntity
  8
rozmir
  6
ByLayer
 62
  256
370
   -1
100
AcDbDimension
  2
*D18
 10
69.80000000000001
 20
20.4
 30
0
 11
67.60000000000001
 21
24.4
 31
0
 70
   32
 71
    5
  3
Standard
 53
0
210
0
220
0
230
1
100
AcDbAlignedDimension
 13
65.40000000000001
 23
15.4
 33
0
 14
69.80000000000001
 24
15.4
 34
0
100
AcDbRotatedDimension
  0
DIMENSION
  5
1A0
100
AcDbEntity
  8
rozmir
  6
ByLayer
 62
  256
370
   -1
100
AcDbDimension
  2
*D19
 10
65.80000000000001
 20
-19.6
 30
0
 11
32.90000000000001
 21
-15.6
 31
0
 70
   32
 71
    5
  3
Standard
 53
0
210
0
220
0
230
1
100
AcDbAlignedDimension
 13
0
 23
-10
 33
0
 14
65.80000000000001
 24
-10
 34
0
100
AcDbRotatedDimension
  0
LWPOLYLINE
  5
1A1
100
AcDbEntity
  8
opora
  6
ByLayer
 62
  256
370
   -1
100
AcDbPolyline
 90
    4
 70
    1
 43
0
 10
-4.000000000000005
 20
50
 10
-5.329070518200751e-15
 20
50
 10
-5.329070518200751e-15
 20
45
 10
-4.000000000000005
 20
45
  0
LINE
  5
1A2
100
AcDbEntity
  8
rozmir
  6
DASHDOT2
 62
  256
370
   -1
100
AcDbLine
 10
-2.000000000000005
 20
49
 11
-2.000000000000005
 21
46
  0
LINE
  5
1A3
100
AcDbEntity
  8
rozmir
  6
DASHDOT2
 62
  256
370
   -1
100
AcDbLine
 10
-3.400000000000011
 20
47.5
 11
-0.6000000000000139
 21
47.5
  0
CIRCLE
  5
1A4
100
AcDbEntity
  8
opora
  6
ByLayer
 62
  256
370
   -1
100
AcDbCircle
 10
-2.000000000000005
 20
47.5
 40
0.5
  0
LWPOLYLINE
  5
1A5
100
AcDbEntity
  8
opora
  6
ByLayer
 62
  256
370
   -1
100
AcDbPolyline
 90
    4
 70
    1
 43
0
 10
65.80000000000001
 20
50
 10
69.80000000000001
 20
50
 10
69.80000000000001
 20
45
 10
65.80000000000001
 20
45
  0
LINE
  5
1A6
100
AcDbEntity
  8
rozmir
  6
DASHDOT2
 62
  256
370
   -1
100
AcDbLine
 10
67.80000000000001
 20
49
 11
67.80000000000001
 21
46
  0
LINE
  5
1A7
100
AcDbEntity
  8
rozmir
  6
DASHDOT2
 62
  256
370
   -1
100
AcDbLine
 10
66.40000000000001
 20
47.5
 11
69.2
 21
47.5
  0
DIMENSION
  5
1A8
100
AcDbEntity
  8
rozmir
  6
ByLayer
 62
  256
370
   -1
100
AcDbDimension
  2
*D20
 10
79.40000000000001
 20
45
 30
0
 11
75.40000000000001
 21
47.5
 31
0
 70
   32
 71
    5
 72
    0
  3
Standard
 53
0
210
0
220
0
230
1
100
AcDbAlignedDimension
 13
69.80000000000001
 23
50
 33
0
 14
69.80000000000001
 24
45
 34
0
 50
90
100
AcDbRotatedDimension
  0
DIMENSION
  5
1A9
100
AcDbEntity
  8
rozmir
  6
ByLayer
 62
  256
370
   -1
100
AcDbDimension
  2
*D21
 10
-4.000000000000005
 20
55
 30
0
 11
-3.000000000000004
 21
59
 31
0
 70
   32
 71
    5
  3
Standard
 53
0
210
0
220
0
230
1
100
AcDbAlignedDimension
 13
-2.000000000000005
 23
47.5
 33
0
 14
-4.000000000000005
 24
50
 34
0
100
AcDbRotatedDimension
  0
DIMENSION
  5
1AA
100
AcDbEntity
  8
rozmir
  6
ByLayer
 62
  256
370
   -1
100
AcDbDimension
  2
*D22
 10
-7.6
 20
47.5
 30
0
 11
-11.6
 21
48.75
 31
0
 70
   32
 71
    5
  3
Standard
 53
0
210
0
220
0
230
1
100
AcDbAlignedDimension
 13
-4.000000000000005
 23
50
 33
0
 14
-2.000000000000005
 24
47.5
 34
0
 50
90
100
AcDbRotatedDimension
  0
CIRCLE
  5
1AB
100
AcDbEntity
  8
opora
  6
ByLayer
 62
  256
370
   -1
100
AcDbCircle
 10
67.80000000000001
 20
47.5
 40
0.4500000000000028
  0
DIMENSION
  5
1AC
100
AcDbEntity
  8
rozmir
  6
ByLayer
 62
  256
370
   -1
100
AcDbDimension
  2
*D23
 10
67.57673747773944
 20
47.10929058604399
 30
0
 11
64.32702743150215
 21
49.48455575342729
 31
0
 70
   35
  1
%%C<>
 71
    5
 72
    0
  3
Standard
 53
0
210
0
220
0
230
1
100
AcDbDiametricDimension
 15
68.02326252226058
 25
47.89070941395601
 35
0
 40
0
  0
DIMENSION
  5
1AD
100
AcDbEntity
  8
rozmir
  6
ByLayer
 62
  256
370
   -1
100
AcDbDimension
  2
*D24
 10
12.4
 20
58
 30
0
 11
5.199999999999998
 21
62
 31
0
 70
   32
 71
    5
  3
Standard
 53
0
210
0
220
0
230
1
100
AcDbAlignedDimension
 13
-5.329070518200751e-15
 23
50
 33
0
 14
10.4
 24
54
 34
0
100
AcDbRotatedDimension
  0
DIMENSION
  5
1AE
100
AcDbEntity
  8
rozmir
  6
ByLayer
 62
  256
370
   -1
100
AcDbDimension
  2
*D25
 10
15.4
 20
58
 30
0
 11
11.9
 21
62
 31
0
 70
   32
 71
    5
  3
Standard
 53
0
210
0
220
0
230
1
100
AcDbAlignedDimension
 13
10.4
 23
54
 33
0
 14
13.4
 24
54
 34
0
100
AcDbRotatedDimension
  0
LWPOLYLINE
  5
1AF
100
AcDbEntity
  8
opora
  6
ByLayer
 62
  256
370
   -1
100
AcDbPolyline
 90
    9
 70
    0
 43
0
 10
52.4
 20
45
 10
52.4
 20
54
 10
53.49999999999999
 20
54
 10
53.7
 20
54.4
 10
54.09999999999999
 20
53.6
 10
54.29999999999999
 20
54
 10
55.4
 20
54
 10
55.4
 20
45
 10
52.4
 20
45
  0
DIMENSION
  5
1B0
100
AcDbEntity
  8
rozmir
  6
ByLayer
 62
  256
370
   -1
100
AcDbDimension
  2
*D26
 10
65.80000000000001
 20
58
 30
0
 11
60.60000000000001
 21
62
 31
0
 70
   32
 71
    5
  3
Standard
 53
0
210
0
220
0
230
1
100
AcDbAlignedDimension
 13
55.4
 23
54
 33
0
 14
65.80000000000001
 24
50
 34
0
100
AcDbRotatedDimension
  0
DIMENSION
  5
1B1
100
AcDbEntity
  8
rozmir
  6
ByLayer
 62
  256
370
   -1
100
AcDbDimension
  2
*D27
 10
55.4
 20
58.00000000000001
 30
0
 11
53.9
 21
62.00000000000001
 31
0
 70
   32
 71
    5
  3
Standard
 53
0
210
0
220
0
230
1
100
AcDbAlignedDimension
 13
52.4
 23
54
 33
0
 14
55.4
 24
54
 34
0
100
AcDbRotatedDimension
  0
LWPOLYLINE
  5
1B2
100
AcDbEntity
  8
opora
  6
ByLayer
 62
  256
370
   -1
100
AcDbPolyline
 90
    6
 70
    0
 43
0
 10
10.4
 20
50
 10
8.881784197001248e-16
 20
50
 10
0
 20
45
 10
65.80000000000001
 20
45
 10
65.80000000000001
 20
50
 10
55.4
 20
50
  0
LWPOLYLINE
  5
1B3
100
AcDbEntity
  8
opora
  6
ByLayer
 62
  256
370
   -1
100
AcDbPolyline
 90
    9
 70
    0
 43
0
 10
10.4
 20
45
 10
10.4
 20
54
 10
11.5
 20
54
 10
11.7
 20
54.4
 10
12.1
 20
53.6
 10
12.3
 20
54
 10
13.4
 20
54
 10
13.4
 20
45
 10
10.4
 20
45
  0
LWPOLYLINE
  5
1B4
100
AcDbEntity
  8
opora
  6
ByLayer
 62
  256
370
   -1
100
AcDbPolyline
 90
    9
 70
    0
 43
0
 10
31.4
 20
45.00000000000001
 10
31.4
 20
54.00000000000001
 10
32.5
 20
54.00000000000001
 10
32.7
 20
54.40000000000001
 10
33.1
 20
53.60000000000001
 10
33.3
 20
54.00000000000001
 10
34.4
 20
54.00000000000001
 10
34.4
 20
45.00000000000001
 10
31.4
 20
45.00000000000001
  0
LINE
  5
1B5
100
AcDbEntity
  8
opora
  6
ByLayer
 62
  256
370
   -1
100
AcDbLine
 10
31.4
 20
50
 11
13.4
 21
50
  0
LINE
  5
1B6
100
AcDbEntity
  8
opora
  6
ByLayer
 62
  256
370
   -1
100
AcDbLine
 10
52.39999999999999
 20
50
 11
34.4
 21
50
  0
DIMENSION
  5
1B7
100
AcDbEntity
  8
rozmir
  6
ByLayer
 62
  256
370
   -1
100
AcDbDimension
  2
*D28
 10
34.4
 20
58.00000000000002
 30
0
 11
32.9
 21
62.00000000000002
 31
0
 70
   32
 71
    5
  3
Standard
 53
0
210
0
220
0
230
1
100
AcDbAlignedDimension
 13
31.4
 23
54.00000000000001
 33
0
 14
34.4
 24
54.00000000000001
 34
0
100
AcDbRotatedDimension
  0
DIMENSION
  5
1B8
100
AcDbEntity
  8
rozmir
  6
ByLayer
 62
  256
370
   -1
100
AcDbDimension
  2
*D29
 10
32.9
 20
66
 30
0
 11
15.7
 21
70
 31
0
 70
   32
 71
    5
  3
Standard
 53
0
210
0
220
0
230
1
100
AcDbAlignedDimension
 13
8.881784197001248e-16
 23
50
 33
0
 14
31.4
 24
54.00000000000001
 34
0
100
AcDbRotatedDimension
  0
LINE
  5
1B9
100
AcDbEntity
  8
rozmir
  6
DASHDOT2
 62
  256
370
   -1
100
AcDbLine
 10
48.4
 20
49.00000000000001
 11
48.4
 21
46.00000000000001
  0
LINE
  5
1BA
100
AcDbEntity
  8
rozmir
  6
DASHDOT2
 62
  256
370
   -1
100
AcDbLine
 10
46.9
 20
47.50000000000001
 11
49.9
 21
47.50000000000001
  0
CIRCLE
  5
1BB
100
AcDbEntity
  8
opora
  6
ByLayer
 62
  256
370
   -1
100
AcDbCircle
 10
48.4
 20
47.50000000000001
 40
0.3501428280002404
  0
DIMENSION
  5
1BC
100
AcDbEntity
  8
rozmir
  6
ByLayer
 62
  256
370
   -1
100
AcDbDimension
  2
*D30
 10
43.5
 20
50
 30
0
 11
39.5
 21
48.75
 31
0
 70
   32
 71
    5
  3
Standard
 53
0
210
0
220
0
230
1
100
AcDbAlignedDimension
 13
47
 23
47.5
 33
0
 14
47
 24
50
 34
0
 50
90
100
AcDbRotatedDimension
  0
LINE
  5
1BD
100
AcDbEntity
  8
rozmir
  6
DASHDOT2
 62
  256
370
   -1
100
AcDbLine
 10
17.40000000000001
 20
49.00000000000001
 11
17.40000000000001
 21
46.00000000000001
  0
LINE
  5
1BE
100
AcDbEntity
  8
rozmir
  6
DASHDOT2
 62
  256
370
   -1
100
AcDbLine
 10
15.90000000000001
 20
47.50000000000001
 11
18.90000000000001
 21
47.50000000000001
  0
CIRCLE
  5
1BF
100
AcDbEntity
  8
opora
  6
ByLayer
 62
  256
370
   -1
100
AcDbCircle
 10
17.40000000000001
 20
47.50000000000001
 40
0.3501428280002404
  0
DIMENSION
  5
1C0
100
AcDbEntity
  8
rozmir
  6
ByLayer
 62
  256
370
   -1
100
AcDbDimension
  2
*D31
 10
17.1524116319372
 20
47.2524116319372
 30
0
 11
14.57157287525382
 21
50.32842712474621
 31
0
 70
   35
  1
%%C<>
 71
    5
 72
    0
  3
Standard
 53
0
210
0
220
0
230
1
100
AcDbDiametricDimension
 15
17.64758836806282
 25
47.74758836806283
 35
0
 40
0
  0
DIMENSION
  5
1C1
100
AcDbEntity
  8
rozmir
  6
ByLayer
 62
  256
370
   -1
100
AcDbDimension
  2
*D32
 10
48.4
 20
34.6
 30
0
 11
57.10000000000001
 21
38.6
 31
0
 70
   32
 71
    5
  3
Standard
 53
0
210
0
220
0
230
1
100
AcDbAlignedDimension
 13
65.80000000000001
 23
45
 33
0
 14
48.4
 24
46.00000000000001
 34
0
100
AcDbRotatedDimension
  0
DIMENSION
  5
1C2
100
AcDbEntity
  8
rozmir
  6
ByLayer
 62
  256
370
   -1
100
AcDbDimension
  2
*D33
 10
17
 20
34.6
 30
0
 11
8.699999999999999
 21
38.6
 31
0
 70
   32
 71
    5
  3
Standard
 53
0
210
0
220
0
230
1
100
AcDbAlignedDimension
 13
-5.329070518200751e-15
 23
45
 33
0
 14
17.40000000000001
 24
46.00000000000001
 34
0
100
AcDbRotatedDimension
  0
MTEXT
  5
1C3
100
AcDbEntity
  8
rozmir
  6
ByLayer
 62
  256
370
   -1
100
AcDbMText
 10
130
 20
-20
 30
0
 40
5
 41
23.19444444444468
 71
    6
 72
    1
  1
. 21
  7
cyrillic_ii
210
0
220
0
230
1
 50
0
 73
    2
 44
1
  0
LWPOLYLINE
  5
1C4
100
AcDbEntity
  8
opora
  6
ByLayer
 62
  256
370
   -1
100
AcDbPolyline
 90
    4
 70
    1
 43
0
 10
10.4
 20
-10
 10
13.4
 20
-10
 10
13.4
 20
-10.39999999999999
 10
10.4
 20
-10.39999999999999
  0
LWPOLYLINE
  5
1C5
100
AcDbEntity
  8
opora
  6
ByLayer
 62
  256
370
   -1
100
AcDbPolyline
 90
    4
 70
    1
 43
0
 10
31.4
 20
-10.00000000000001
 10
34.4
 20
-10.00000000000001
 10
34.4
 20
-10.4
 10
31.4
 20
-10.4
  0
LWPOLYLINE
  5
1C6
100
AcDbEntity
  8
opora
  6
ByLayer
 62
  256
370
   -1
100
AcDbPolyline
 90
    4
 70
    1
 43
0
 10
52.4
 20
-10
 10
55.4
 20
-10
 10
55.4
 20
-10.4
 10
52.4
 20
-10.4
  0
LINE
  5
1C7
100
AcDbEntity
  8
rozmir
  6
DASHDOT2
 62
  256
370
   -1
100
AcDbLine
 10
17.4
 20
-9
 11
17.4
 21
-11
  0
LINE
  5
1C8
100
AcDbEntity
  8
rozmir
  6
DASHDOT2
 62
  256
370
   -1
100
AcDbLine
 10
48.4
 20
-9
 11
48.4
 21
-11
  0
ENDSEC
  0
SECTION
  2
OBJECTS
  0
DICTIONARY
  5
C
330
0
100
AcDbDictionary
281
    1
  3
ACAD_GROUP
350
D
  0
DICTIONARY
  5
D
330
C
100
AcDbDictionary
281
    1
  0
ENDSEC
  0
EOF
