999
dxfrw 0.6.3
  0
SECTION
  2
HEADER
  9
$ACADVER
  1
AC1021
  9
$DWGCODEPAGE
  3
ANSI_1252
  9
$INSBASE
 10
0
 20
0
 30
0
  9
$EXTMIN
 10
-16
 20
-14.16666666666667
 30
0
  9
$EXTMAX
 10
149.4142135623731
 20
172.5013200342358
 30
0
  9
$LIMMIN
 10
0
 20
0
  9
$LIMMAX
 10
420
 20
297
  9
$ORTHOMODE
 70
    0
  9
$REGENMODE
 70
    1
  9
$FILLMODE
 70
    1
  9
$QTEXTMODE
 70
    0
  9
$MIRRTEXT
 70
    0
  9
$LTSCALE
 40
1
  9
$ATTMODE
 70
    0
  9
$TEXTSIZE
 40
2.5
  9
$TRACEWID
 40
15.68
  9
$TEXTSTYLE
  7
STANDARD
  9
$CLAYER
  8
rozmir
  9
$CELTYPE
  6
BYLAYER
  9
$CECOLOR
 62
  256
  9
$CELTSCALE
 40
1
  9
$DISPSILH
 70
    0
  9
$DIMSCALE
 40
1
  9
$DIMASZ
 40
2
  9
$DIMEXO
 40
1
  9
$DIMDLI
 40
3.75
  9
$DIMRND
 40
0
  9
$DIMDLE
 40
0
  9
$DIMEXE
 40
2
  9
$DIMTP
 40
0
  9
$DIMTM
 40
0
  9
$DIMTXT
 40
4
  9
$DIMCEN
 40
2.5
  9
$DIMTSZ
 40
2
  9
$DIMTOL
 70
    0
  9
$DIMLIM
 70
    0
  9
$DIMTIH
 70
    0
  9
$DIMTOH
 70
    0
  9
$DIMSE1
 70
    0
  9
$DIMSE2
 70
    0
  9
$DIMTAD
 70
    1
  9
$DIMZIN
 70
    8
  9
$DIMBLK
  1

  9
$DIMASO
 70
    1
  9
$DIMSHO
 70
    1
  9
$DIMPOST
  1

  9
$DIMAPOST
  1

  9
$DIMALT
 70
    0
  9
$DIMALTD
 70
    3
  9
$DIMALTF
 40
0.03937
  9
$DIMLFAC
 40
1
  9
$DIMTOFL
 70
    1
  9
$DIMTVP
 40
0
  9
$DIMTIX
 70
    0
  9
$DIMSOXD
 70
    0
  9
$DIMSAH
 70
    0
  9
$DIMBLK1
  1

  9
$DIMBLK2
  1

  9
$DIMSTYLE
  2
STANDARD
  9
$DIMCLRD
 70
    0
  9
$DIMCLRE
 70
    0
  9
$DIMCLRT
 70
    0
  9
$DIMTFAC
 40
1
  9
$DIMGAP
 40
2
  9
$DIMJUST
 70
    0
  9
$DIMSD1
 70
    0
  9
$DIMSD2
 70
    0
  9
$DIMTOLJ
 70
    0
  9
$DIMTZIN
 70
    8
  9
$DIMALTZ
 70
    0
  9
$DIMALTTZ
 70
    0
  9
$DIMUPT
 70
    0
  9
$DIMDEC
 70
    1
  9
$DIMTDEC
 70
    2
  9
$DIMALTU
 70
    2
  9
$DIMALTTD
 70
    3
  9
$DIMTXSTY
  7
standard
  9
$DIMAUNIT
 70
    0
  9
$DIMADEC
 70
    0
  9
$DIMALTRND
 40
0
  9
$DIMAZIN
 70
    0
  9
$DIMDSEP
 70
   44
  9
$DIMATFIT
 70
    3
  9
$DIMFRAC
 70
    0
  9
$DIMLDRBLK
  1
STANDARD
  9
$DIMLUNIT
 70
    2
  9
$DIMLWD
 70
   -2
  9
$DIMLWE
 70
   -2
  9
$DIMTMOVE
 70
    0
  9
$DIMFXL
 40
1
  9
$DIMFXLON
 70
    0
  9
$DIMJOGANG
 40
0.7854
  9
$DIMTFILL
 70
    0
  9
$DIMTFILLCLR
 70
    0
  9
$DIMARCSYM
 70
    0
  9
$DIMLTYPE
  6

  9
$DIMLTEX1
  6

  9
$DIMLTEX2
  6

  9
$LUNITS
 70
    2
  9
$LUPREC
 70
    2
  9
$SKETCHINC
 40
1
  9
$FILLETRAD
 40
0
  9
$AUNITS
 70
    0
  9
$AUPREC
 70
    2
  9
$MENU
  1
.
  9
$ELEVATION
 40
0
  9
$PELEVATION
 40
0
  9
$THICKNESS
 40
0
  9
$LIMCHECK
 70
    0
  9
$CHAMFERA
 40
0
  9
$CHAMFERB
 40
0
  9
$CHAMFERC
 40
0
  9
$CHAMFERD
 40
0
  9
$SKPOLY
 70
    0
  9
$USRTIMER
 70
    1
  9
$ANGBASE
 50
0
  9
$ANGDIR
 70
    0
  9
$PDMODE
 70
   34
  9
$PDSIZE
 40
0
  9
$PLINEWID
 40
0
  9
$SPLFRAME
 70
    0
  9
$SPLINETYPE
 70
    2
  9
$SPLINESEGS
 70
    8
  9
$HANDSEED
  5
20000
  9
$SURFTAB1
 70
    6
  9
$SURFTAB2
 70
    6
  9
$SURFTYPE
 70
    6
  9
$SURFU
 70
    6
  9
$SURFV
 70
    6
  9
$UCSBASE
  2

  9
$UCSNAME
  2

  9
$UCSORG
 10
0
 20
0
 30
0
  9
$UCSXDIR
 10
1
 20
0
 30
0
  9
$UCSYDIR
 10
0
 20
1
 30
0
  9
$UCSORTHOREF
  2

  9
$UCSORTHOVIEW
 70
    0
  9
$UCSORGTOP
 10
0
 20
0
 30
0
  9
$UCSORGBOTTOM
 10
0
 20
0
 30
0
  9
$UCSORGLEFT
 10
0
 20
0
 30
0
  9
$UCSORGRIGHT
 10
0
 20
0
 30
0
  9
$UCSORGFRONT
 10
0
 20
0
 30
0
  9
$UCSORGBACK
 10
0
 20
0
 30
0
  9
$PUCSBASE
  2

  9
$PUCSNAME
  2

  9
$PUCSORG
 10
0
 20
0
 30
0
  9
$PUCSXDIR
 10
1
 20
0
 30
0
  9
$PUCSYDIR
 10
0
 20
1
 30
0
  9
$PUCSORTHOREF
  2

  9
$PUCSORTHOVIEW
 70
    0
  9
$PUCSORGTOP
 10
0
 20
0
 30
0
  9
$PUCSORGBOTTOM
 10
0
 20
0
 30
0
  9
$PUCSORGLEFT
 10
0
 20
0
 30
0
  9
$PUCSORGRIGHT
 10
0
 20
0
 30
0
  9
$PUCSORGFRONT
 10
0
 20
0
 30
0
  9
$PUCSORGBACK
 10
0
 20
0
 30
0
  9
$USERI1
 70
    0
  9
$USERI2
 70
    0
  9
$USERI3
 70
    0
  9
$USERI4
 70
    0
  9
$USERI5
 70
    0
  9
$USERR1
 40
0
  9
$USERR2
 40
0
  9
$USERR3
 40
0
  9
$USERR4
 40
0
  9
$USERR5
 40
0
  9
$WORLDVIEW
 70
    1
  9
$SHADEDGE
 70
    3
  9
$SHADEDIF
 70
   70
  9
$TILEMODE
 70
    1
  9
$MAXACTVP
 70
   64
  9
$PINSBASE
 10
8.238895989812564
 20
2.654007928543573
 30
0
  9
$PLIMCHECK
 70
    0
  9
$PEXTMIN
 10
0
 20
0
 30
0
  9
$PEXTMAX
 10
0
 20
0
 30
0
  9
$GRIDMODE
 70
    1
  9
$SNAPSTYLE
 70
    0
  9
$GRIDUNIT
 10
0
 20
0
  9
$PLIMMIN
 10
0
 20
0
  9
$PLIMMAX
 10
21
 20
29.7
  9
$UNITMODE
 70
    0
  9
$VISRETAIN
 70
    1
  9
$PLINEGEN
 70
    0
  9
$PSLTSCALE
 70
    1
  9
$TREEDEPTH
 70
 3020
  9
$CMLSTYLE
  2
Standard
  9
$CMLJUST
 70
    0
  9
$CMLSCALE
 40
20
  9
$PROXYGRAPHICS
 70
    1
  9
$MEASUREMENT
 70
    1
  9
$CELWEIGHT
370
   -1
  9
$ENDCAPS
280
    0
  9
$JOINSTYLE
280
    0
  9
$LWDISPLAY
290
    0
  9
$INSUNITS
 70
    5
  9
$HYPERLINKBASE
  1

  9
$STYLESHEET
  1

  9
$XEDIT
290
    1
  9
$CEPSNTYPE
380
    0
  9
$PSTYLEMODE
290
    1
  9
$EXTNAMES
290
    1
  9
$PSVPSCALE
 40
0.09910606330895325
  9
$OLESTARTUP
290
    0
  9
$SORTENTS
280
  127
  9
$INDEXCTL
280
    0
  9
$HIDETEXT
280
    1
  9
$XCLIPFRAME
290
    0
  9
$HALOGAP
280
    0
  9
$OBSCOLOR
 70
  257
  9
$OBSLTYPE
280
    0
  9
$INTERSECTIONDISPLAY
280
    0
  9
$INTERSECTIONCOLOR
 70
  257
  9
$DIMASSOC
280
    1
  9
$PROJECTNAME
  1

  9
$CAMERADISPLAY
290
    0
  9
$LENSLENGTH
 40
50
  9
$CAMERAHEIGHT
 40
0
  9
$STEPSPERSEC
 40
2
  9
$STEPSIZE
 40
50
  9
$3DDWFPREC
 40
2
  9
$PSOLWIDTH
 40
5
  9
$PSOLHEIGHT
 40
80
  9
$LOFTANG1
 40
1.570796326794897
  9
$LOFTANG2
 40
1.570796326794897
  9
$LOFTMAG1
 40
0
  9
$LOFTMAG2
 40
0
  9
$LOFTPARAM
 70
    7
  9
$LOFTNORMALS
280
    1
  9
$LATITUDE
 40
1
  9
$LONGITUDE
 40
1
  9
$NORTHDIRECTION
 40
0
  9
$TIMEZONE
 70
-8000
  9
$LIGHTGLYPHDISPLAY
280
    1
  9
$TILEMODELIGHTSYNCH
280
    1
  9
$SOLIDHIST
280
    1
  9
$SHOWHIST
280
    1
  9
$DWFFRAME
280
    2
  9
$DGNFRAME
280
    0
  9
$REALWORLDSCALE
290
    1
  9
$INTERFERECOLOR
 62
    1
  9
$CSHADOW
280
    0
  9
$SHADOWPLANELOCATION
 40
0
  0
ENDSEC
  0
SECTION
  2
CLASSES
  0
ENDSEC
  0
SECTION
  2
TABLES
  0
TABLE
  2
VPORT
  5
8
330
0
100
AcDbSymbolTable
 70
    1
  0
VPORT
  5
31
330
2
100
AcDbSymbolTableRecord
100
AcDbViewportTableRecord
  2
*ACTIVE
 70
    0
 10
0
 20
0
 11
1
 21
1
 12
128.7543730984064
 22
87.77532061628308
 13
0
 23
0
 14
10
 24
10
 15
10
 25
10
 16
0
 26
0
 36
1
 17
0
 27
0
 37
0
 40
192.0973879761364
 41
1.985195154777927
 42
50
 43
0
 44
0
 50
0
 51
0
 71
    0
 72
  100
 73
    1
 74
    3
 75
    0
 76
    1
 77
    0
 78
    0
281
    0
 65
    1
110
0
120
0
130
0
111
1
121
0
131
0
112
0
122
1
132
0
 79
    0
146
0
348
10020
 60
    7
 61
    5
292
1
282
    1
141
0
142
0
 63
  250
421
3358443
  0
ENDTAB
  0
TABLE
  2
LTYPE
  5
5
330
0
100
AcDbSymbolTable
 70
    4
  0
LTYPE
  5
14
330
5
100
AcDbSymbolTableRecord
100
AcDbLinetypeTableRecord
  2
ByBlock
 70
    0
  3

 72
   65
 73
    0
 40
0
  0
LTYPE
  5
15
330
5
100
AcDbSymbolTableRecord
100
AcDbLinetypeTableRecord
  2
ByLayer
 70
    0
  3

 72
   65
 73
    0
 40
0
  0
LTYPE
  5
16
330
5
100
AcDbSymbolTableRecord
100
AcDbLinetypeTableRecord
  2
Continuous
 70
    0
  3
Solid line
 72
   65
 73
    0
 40
0
  0
LTYPE
  5
32
330
5
100
AcDbSymbolTableRecord
100
AcDbLinetypeTableRecord
  2
DOT
 70
    0
  3
Dot . . . . . . . . . . . . . . . . . . . . . .
 72
   65
 73
    2
 40
6.35
 49
0
 74
    0
 49
-6.35
 74
    0
  0
LTYPE
  5
33
330
5
100
AcDbSymbolTableRecord
100
AcDbLinetypeTableRecord
  2
DOTTINY
 70
    0
  3
Dot (.15x) .....................................
 72
   65
 73
    2
 40
0.9525
 49
0
 74
    0
 49
-0.9525
 74
    0
  0
LTYPE
  5
34
330
5
100
AcDbSymbolTableRecord
100
AcDbLinetypeTableRecord
  2
DOT2
 70
    0
  3
Dot (.5x) .....................................
 72
   65
 73
    2
 40
3.175
 49
0
 74
    0
 49
-3.175
 74
    0
  0
LTYPE
  5
35
330
5
100
AcDbSymbolTableRecord
100
AcDbLinetypeTableRecord
  2
DOTX2
 70
    0
  3
Dot (2x) .  .  .  .  .  .  .  .  .  .  .  .  .
 72
   65
 73
    2
 40
12.7
 49
0
 74
    0
 49
-12.7
 74
    0
  0
LTYPE
  5
36
330
5
100
AcDbSymbolTableRecord
100
AcDbLinetypeTableRecord
  2
DASHED
 70
    0
  3
Dashed _ _ _ _ _ _ _ _ _ _ _ _ _ _ _ _ _
 72
   65
 73
    2
 40
19.05
 49
12.7
 74
    0
 49
-6.35
 74
    0
  0
LTYPE
  5
37
330
5
100
AcDbSymbolTableRecord
100
AcDbLinetypeTableRecord
  2
DASHEDTINY
 70
    0
  3
Dashed (.15x) _ _ _ _ _ _ _ _ _ _ _ _ _ _ _ _ _
 72
   65
 73
    2
 40
2.8575
 49
1.905
 74
    0
 49
-0.9525
 74
    0
  0
LTYPE
  5
38
330
5
100
AcDbSymbolTableRecord
100
AcDbLinetypeTableRecord
  2
DASHED2
 70
    0
  3
Dashed (.5x) _ _ _ _ _ _ _ _ _ _ _ _ _ _ _ _ _
 72
   65
 73
    2
 40
9.524999999999999
 49
6.35
 74
    0
 49
-3.175
 74
    0
  0
LTYPE
  5
39
330
5
100
AcDbSymbolTableRecord
100
AcDbLinetypeTableRecord
  2
DASHEDX2
 70
    0
  3
Dashed (2x) ____  ____  ____  ____  ____  ___
 72
   65
 73
    2
 40
38.09999999999999
 49
25.4
 74
    0
 49
-12.7
 74
    0
  0
LTYPE
  5
3A
330
5
100
AcDbSymbolTableRecord
100
AcDbLinetypeTableRecord
  2
DASHDOT
 70
    0
  3
Dash dot __ . __ . __ . __ . __ . __ . __ . __
 72
   65
 73
    4
 40
25.4
 49
12.7
 74
    0
 49
-6.35
 74
    0
 49
0
 74
    0
 49
-6.35
 74
    0
  0
LTYPE
  5
3B
330
5
100
AcDbSymbolTableRecord
100
AcDbLinetypeTableRecord
  2
DASHDOTTINY
 70
    0
  3
Dash dot (.15x) _._._._._._._._._._._._._._._.
 72
   65
 73
    4
 40
3.81
 49
1.905
 74
    0
 49
-0.9525
 74
    0
 49
0
 74
    0
 49
-0.9525
 74
    0
  0
LTYPE
  5
3C
330
5
100
AcDbSymbolTableRecord
100
AcDbLinetypeTableRecord
  2
DASHDOT2
 70
    0
  3
Dash dot (.5x) _._._._._._._._._._._._._._._.
 72
   65
 73
    4
 40
12.7
 49
6.35
 74
    0
 49
-3.175
 74
    0
 49
0
 74
    0
 49
-3.175
 74
    0
  0
LTYPE
  5
3D
330
5
100
AcDbSymbolTableRecord
100
AcDbLinetypeTableRecord
  2
DASHDOTX2
 70
    0
  3
Dash dot (2x) ____  .  ____  .  ____  .  ___
 72
   65
 73
    4
 40
50.8
 49
25.4
 74
    0
 49
-12.7
 74
    0
 49
0
 74
    0
 49
-12.7
 74
    0
  0
LTYPE
  5
3E
330
5
100
AcDbSymbolTableRecord
100
AcDbLinetypeTableRecord
  2
DIVIDE
 70
    0
  3
Divide ____ . . ____ . . ____ . . ____ . . ____
 72
   65
 73
    6
 40
31.75
 49
12.7
 74
    0
 49
-6.35
 74
    0
 49
0
 74
    0
 49
-6.35
 74
    0
 49
0
 74
    0
 49
-6.35
 74
    0
  0
LTYPE
  5
3F
330
5
100
AcDbSymbolTableRecord
100
AcDbLinetypeTableRecord
  2
DIVIDETINY
 70
    0
  3
Divide (.15x) __..__..__..__..__..__..__..__.._
 72
   65
 73
    6
 40
4.7625
 49
1.905
 74
    0
 49
-0.9525
 74
    0
 49
0
 74
    0
 49
-0.9525
 74
    0
 49
0
 74
    0
 49
-0.9525
 74
    0
  0
LTYPE
  5
40
330
5
100
AcDbSymbolTableRecord
100
AcDbLinetypeTableRecord
  2
DIVIDE2
 70
    0
  3
Divide (.5x) __..__..__..__..__..__..__..__.._
 72
   65
 73
    6
 40
15.875
 49
6.35
 74
    0
 49
-3.175
 74
    0
 49
0
 74
    0
 49
-3.175
 74
    0
 49
0
 74
    0
 49
-3.175
 74
    0
  0
LTYPE
  5
41
330
5
100
AcDbSymbolTableRecord
100
AcDbLinetypeTableRecord
  2
DIVIDEX2
 70
    0
  3
Divide (2x) ________  .  .  ________  .  .  _
 72
   65
 73
    6
 40
63.5
 49
25.4
 74
    0
 49
-12.7
 74
    0
 49
0
 74
    0
 49
-12.7
 74
    0
 49
0
 74
    0
 49
-12.7
 74
    0
  0
LTYPE
  5
42
330
5
100
AcDbSymbolTableRecord
100
AcDbLinetypeTableRecord
  2
BORDER
 70
    0
  3
Border __ __ . __ __ . __ __ . __ __ . __ __ .
 72
   65
 73
    6
 40
44.45
 49
12.7
 74
    0
 49
-6.35
 74
    0
 49
12.7
 74
    0
 49
-6.35
 74
    0
 49
0
 74
    0
 49
-6.35
 74
    0
  0
LTYPE
  5
43
330
5
100
AcDbSymbolTableRecord
100
AcDbLinetypeTableRecord
  2
BORDERTINY
 70
    0
  3
Border (.15x) __.__.__.__.__.__.__.__.__.__.__.
 72
   65
 73
    6
 40
6.6675
 49
1.905
 74
    0
 49
-0.9525
 74
    0
 49
1.905
 74
    0
 49
-0.9525
 74
    0
 49
0
 74
    0
 49
-0.9525
 74
    0
  0
LTYPE
  5
44
330
5
100
AcDbSymbolTableRecord
100
AcDbLinetypeTableRecord
  2
BORDER2
 70
    0
  3
Border (.5x) __.__.__.__.__.__.__.__.__.__.__.
 72
   65
 73
    6
 40
22.225
 49
6.35
 74
    0
 49
-3.175
 74
    0
 49
6.35
 74
    0
 49
-3.175
 74
    0
 49
0
 74
    0
 49
-3.175
 74
    0
  0
LTYPE
  5
45
330
5
100
AcDbSymbolTableRecord
100
AcDbLinetypeTableRecord
  2
BORDERX2
 70
    0
  3
Border (2x) ____  ____  .  ____  ____  .  ___
 72
   65
 73
    6
 40
88.89999999999999
 49
25.4
 74
    0
 49
-12.7
 74
    0
 49
25.4
 74
    0
 49
-12.7
 74
    0
 49
0
 74
    0
 49
-12.7
 74
    0
  0
LTYPE
  5
46
330
5
100
AcDbSymbolTableRecord
100
AcDbLinetypeTableRecord
  2
CENTER
 70
    0
  3
Center ____ _ ____ _ ____ _ ____ _ ____ _ ____
 72
   65
 73
    4
 40
50.8
 49
31.75
 74
    0
 49
-6.35
 74
    0
 49
6.35
 74
    0
 49
-6.35
 74
    0
  0
LTYPE
  5
47
330
5
100
AcDbSymbolTableRecord
100
AcDbLinetypeTableRecord
  2
CENTERTINY
 70
    0
  3
Center (.15x) ___ _ ___ _ ___ _ ___ _ ___ _ ___
 72
   65
 73
    4
 40
7.619999999999999
 49
4.7625
 74
    0
 49
-0.9525
 74
    0
 49
0.9525
 74
    0
 49
-0.9525
 74
    0
  0
LTYPE
  5
48
330
5
100
AcDbSymbolTableRecord
100
AcDbLinetypeTableRecord
  2
CENTER2
 70
    0
  3
Center (.5x) ___ _ ___ _ ___ _ ___ _ ___ _ ___
 72
   65
 73
    4
 40
28.575
 49
19.05
 74
    0
 49
-3.175
 74
    0
 49
3.175
 74
    0
 49
-3.175
 74
    0
  0
LTYPE
  5
49
330
5
100
AcDbSymbolTableRecord
100
AcDbLinetypeTableRecord
  2
CENTERX2
 70
    0
  3
Center (2x) ________  __  ________  __  _____
 72
   65
 73
    4
 40
101.6
 49
63.5
 74
    0
 49
-12.7
 74
    0
 49
12.7
 74
    0
 49
-12.7
 74
    0
  0
ENDTAB
  0
TABLE
  2
LAYER
  5
2
330
0
100
AcDbSymbolTable
 70
    1
  0
LAYER
  5
10
330
2
100
AcDbSymbolTableRecord
100
AcDbLayerTableRecord
  2
0
 70
    0
 62
    7
  6
CONTINUOUS
370
   -3
390
F
1001
LibreCad
1070
    1
  0
LAYER
  5
4A
330
2
100
AcDbSymbolTableRecord
100
AcDbLayerTableRecord
  2
brick
 70
    0
 62
   16
420
8388608
  6
CONTINUOUS
370
   35
390
F
  0
LAYER
  5
4B
330
2
100
AcDbSymbolTableRecord
100
AcDbLayerTableRecord
  2
kriplennia
 70
    0
 62
    6
  6
CONTINUOUS
370
   35
390
F
  0
LAYER
  5
4C
330
2
100
AcDbSymbolTableRecord
100
AcDbLayerTableRecord
  2
kryshka
 70
    0
 62
    3
  6
CONTINUOUS
370
   35
390
F
  0
LAYER
  5
4D
330
2
100
AcDbSymbolTableRecord
100
AcDbLayerTableRecord
  2
opora
 70
    0
 62
    5
  6
CONTINUOUS
370
   35
390
F
  0
LAYER
  5
4E
330
2
100
AcDbSymbolTableRecord
100
AcDbLayerTableRecord
  2
rozmir
 70
    0
 62
    4
  6
CONTINUOUS
370
   13
390
F
  0
LAYER
  5
4F
330
2
100
AcDbSymbolTableRecord
100
AcDbLayerTableRecord
  2
tekst
 70
    0
 62
  136
420
32896
  6
CONTINUOUS
370
   35
390
F
  0
ENDTAB
  0
TABLE
  2
STYLE
  5
3
330
0
100
AcDbSymbolTable
 70
    3
  0
STYLE
  5
50
330
2
100
AcDbSymbolTableRecord
100
AcDbTextStyleTableRecord
  2
cyrillic_ii
 70
    0
 40
0
 41
1
 50
0
 71
    0
 42
1
  3
cyrillic_ii
  4

  0
STYLE
  5
51
330
2
100
AcDbSymbolTableRecord
100
AcDbTextStyleTableRecord
  2
Standard
 70
    0
 40
0
 41
1
 50
0
 71
    0
 42
1
  3
txt
  4

  0
ENDTAB
  0
TABLE
  2
VIEW
  5
6
330
0
100
AcDbSymbolTable
 70
    0
  0
ENDTAB
  0
TABLE
  2
UCS
  5
7
330
0
100
AcDbSymbolTable
 70
    0
  0
ENDTAB
  0
TABLE
  2
APPID
  5
9
330
0
100
AcDbSymbolTable
 70
    1
  0
APPID
  5
12
330
9
100
AcDbSymbolTableRecord
100
AcDbRegAppTableRecord
  2
ACAD
 70
    0
  0
APPID
  5
52
330
9
100
AcDbSymbolTableRecord
100
AcDbRegAppTableRecord
  2
LibreCad
 70
    0
  0
ENDTAB
  0
TABLE
  2
DIMSTYLE
  5
A
330
0
100
AcDbSymbolTable
 70
    1
100
AcDbDimStyleTable
 71
    1
  0
DIMSTYLE
105
53
330
A
100
AcDbSymbolTableRecord
100
AcDbDimStyleTableRecord
  2
Standard
 70
    0
 40
1
 41
2
 42
1
 43
0.38
 44
2
 45
0
 46
0
 47
0
 48
0
 49
1
140
4
141
0.09
142
2
143
25.4
144
1
145
0
146
1
147
2
148
0
 71
    0
 72
    0
 73
    0
 74
    1
 75
    0
 76
    0
 77
    0
 78
    8
 79
    0
170
    0
171
    2
172
    0
173
    0
174
    0
175
    0
176
    0
177
    0
178
    0
179
    0
271
    1
272
    4
273
    2
274
    2
275
    0
276
    0
277
    2
278
   44
279
    0
280
    0
281
    0
282
    0
283
    1
284
    0
285
    0
286
    0
288
    0
289
    3
340
standard
341

371
   -2
372
   -2
  0
ENDTAB
  0
TABLE
  2
BLOCK_RECORD
  5
1
330
0
100
AcDbSymbolTable
 70
    2
  0
BLOCK_RECORD
  5
1F
330
1
100
AcDbSymbolTableRecord
100
AcDbBlockTableRecord
  2
*Model_Space
 70
    0
280
    1
281
    0
  0
BLOCK_RECORD
  5
1E
330
1
100
AcDbSymbolTableRecord
100
AcDbBlockTableRecord
  2
*Paper_Space
 70
    0
280
    1
281
    0
  0
BLOCK_RECORD
  5
54
330
1
100
AcDbSymbolTableRecord
100
AcDbBlockTableRecord
  2
*D3
 70
    0
280
    1
281
    0
  0
BLOCK_RECORD
  5
57
330
1
100
AcDbSymbolTableRecord
100
AcDbBlockTableRecord
  2
*D9
 70
    0
280
    1
281
    0
  0
BLOCK_RECORD
  5
5A
330
1
100
AcDbSymbolTableRecord
100
AcDbBlockTableRecord
  2
*D2
 70
    0
280
    1
281
    0
  0
BLOCK_RECORD
  5
5D
330
1
100
AcDbSymbolTableRecord
100
AcDbBlockTableRecord
  2
*D4
 70
    0
280
    1
281
    0
  0
BLOCK_RECORD
  5
60
330
1
100
AcDbSymbolTableRecord
100
AcDbBlockTableRecord
  2
*D1
 70
    0
280
    1
281
    0
  0
BLOCK_RECORD
  5
63
330
1
100
AcDbSymbolTableRecord
100
AcDbBlockTableRecord
  2
*D7
 70
    0
280
    1
281
    0
  0
BLOCK_RECORD
  5
66
330
1
100
AcDbSymbolTableRecord
100
AcDbBlockTableRecord
  2
*D6
 70
    0
280
    1
281
    0
  0
BLOCK_RECORD
  5
69
330
1
100
AcDbSymbolTableRecord
100
AcDbBlockTableRecord
  2
*D5
 70
    0
280
    1
281
    0
  0
BLOCK_RECORD
  5
6C
330
1
100
AcDbSymbolTableRecord
100
AcDbBlockTableRecord
  2
*D8
 70
    0
280
    1
281
    0
  0
BLOCK_RECORD
  5
6F
330
1
100
AcDbSymbolTableRecord
100
AcDbBlockTableRecord
  2
block10
 70
    0
280
    1
281
    0
  0
ENDTAB
  0
ENDSEC
  0
SECTION
  2
BLOCKS
  0
BLOCK
  5
20
330
1F
100
AcDbEntity
  8
0
100
AcDbBlockBegin
  2
*Model_Space
 70
    0
 10
0
 20
0
 30
0
  3
*Model_Space
  1

  0
ENDBLK
  5
21
330
1F
100
AcDbEntity
  8
0
100
AcDbBlockEnd
  0
BLOCK
  5
1C
330
1B
100
AcDbEntity
  8
0
100
AcDbBlockBegin
  2
*Paper_Space
 70
    0
 10
0
 20
0
 30
0
  3
*Paper_Space
  1

  0
ENDBLK
  5
1D
330
1F
100
AcDbEntity
  8
0
100
AcDbBlockEnd
  0
BLOCK
  5
55
330
54
100
AcDbEntity
  8
0
100
AcDbBlockBegin
  2
*D3
 70
    1
 10
0
 20
0
  3
*D3
  1

  0
LINE
  5
72
100
AcDbEntity
  8
rozmir
  6
ByBlock
 62
    0
370
   -2
100
AcDbLine
 10
-10
 20
130
 11
-10
 21
148.5
  0
LINE
  5
73
100
AcDbEntity
  8
rozmir
  6
ByBlock
 62
    0
370
   -2
100
AcDbLine
 10
-11.4142135623731
 20
131.4142135623731
 11
-8.585786437626908
 21
128.5857864376269
  0
LINE
  5
74
100
AcDbEntity
  8
rozmir
  6
ByBlock
 62
    0
370
   -2
100
AcDbLine
 10
-11.41421356237309
 20
149.9142135623731
 11
-8.585786437626906
 21
147.0857864376269
  0
MTEXT
  5
75
100
AcDbEntity
  8
rozmir
  6
CONTINUOUS
 62
    0
370
   -2
100
AcDbMText
 10
-14
 20
139.25
 30
0
 40
4
 41
8.666666666666915
 71
    5
 72
    1
  1
18,5
  7
standard
210
0
220
0
230
1
 50
90
 73
    2
 44
1
  0
LINE
  5
76
100
AcDbEntity
  8
rozmir
  6
ByBlock
 62
    0
370
   -2
100
AcDbLine
 10
-7
 20
130
 11
-12
 21
130
  0
LINE
  5
77
100
AcDbEntity
  8
rozmir
  6
ByBlock
 62
    0
370
   -2
100
AcDbLine
 10
25.00000000000003
 20
148.5
 11
-12
 21
148.5
  0
ENDBLK
  5
56
330
54
100
AcDbEntity
  8
0
100
AcDbBlockEnd
  0
BLOCK
  5
58
330
57
100
AcDbEntity
  8
0
100
AcDbBlockBegin
  2
*D9
 70
    1
 10
0
 20
0
  3
*D9
  1

  0
LINE
  5
78
100
AcDbEntity
  8
rozmir
  6
ByBlock
 62
    0
370
   -2
100
AcDbLine
 10
6
 20
110
 11
17
 21
110
  0
LINE
  5
79
100
AcDbEntity
  8
rozmir
  6
ByBlock
 62
    0
370
   -2
100
AcDbLine
 10
8.585786437626904
 20
108.5857864376269
 11
11.4142135623731
 21
111.4142135623731
  0
LINE
  5
7A
100
AcDbEntity
  8
rozmir
  6
ByBlock
 62
    0
370
   -2
100
AcDbLine
 10
11.5857864376269
 20
108.5857864376269
 11
14.4142135623731
 21
111.4142135623731
  0
MTEXT
  5
7B
100
AcDbEntity
  8
rozmir
  6
CONTINUOUS
 62
    0
370
   -2
100
AcDbMText
 10
11.5
 20
114
 30
0
 40
4
 41
1.777777777778026
 71
    5
 72
    1
  1
3
  7
standard
210
0
220
0
230
1
 50
0
 73
    2
 44
1
  0
LINE
  5
7C
100
AcDbEntity
  8
rozmir
  6
ByBlock
 62
    0
370
   -2
100
AcDbLine
 10
10
 20
111
 11
10
 21
112
  0
LINE
  5
7D
100
AcDbEntity
  8
rozmir
  6
ByBlock
 62
    0
370
   -2
100
AcDbLine
 10
13
 20
111
 11
13
 21
112
  0
ENDBLK
  5
59
330
57
100
AcDbEntity
  8
0
100
AcDbBlockEnd
  0
BLOCK
  5
5B
330
5A
100
AcDbEntity
  8
0
100
AcDbBlockBegin
  2
*D2
 70
    1
 10
0
 20
0
  3
*D2
  1

  0
LINE
  5
7E
100
AcDbEntity
  8
rozmir
  6
ByBlock
 62
    0
370
   -2
100
AcDbLine
 10
-10
 20
88
 11
-10
 21
130
  0
LINE
  5
7F
100
AcDbEntity
  8
rozmir
  6
ByBlock
 62
    0
370
   -2
100
AcDbLine
 10
-11.4142135623731
 20
89.41421356237309
 11
-8.585786437626908
 21
86.58578643762691
  0
LINE
  5
80
100
AcDbEntity
  8
rozmir
  6
ByBlock
 62
    0
370
   -2
100
AcDbLine
 10
-11.41421356237309
 20
131.4142135623731
 11
-8.585786437626906
 21
128.5857864376269
  0
MTEXT
  5
81
100
AcDbEntity
  8
rozmir
  6
CONTINUOUS
 62
    0
370
   -2
100
AcDbMText
 10
-14
 20
109
 30
0
 40
4
 41
5.333333333333333
 71
    5
 72
    1
  1
42
  7
standard
210
0
220
0
230
1
 50
90
 73
    2
 44
1
  0
LINE
  5
82
100
AcDbEntity
  8
rozmir
  6
ByBlock
 62
    0
370
   -2
100
AcDbLine
 10
-5.400000000000006
 20
88
 11
-12
 21
88
  0
LINE
  5
83
100
AcDbEntity
  8
rozmir
  6
ByBlock
 62
    0
370
   -2
100
AcDbLine
 10
-7
 20
130
 11
-12
 21
130
  0
ENDBLK
  5
5C
330
5A
100
AcDbEntity
  8
0
100
AcDbBlockEnd
  0
BLOCK
  5
5E
330
5D
100
AcDbEntity
  8
0
100
AcDbBlockBegin
  2
*D4
 70
    1
 10
0
 20
0
  3
*D4
  1

  0
LINE
  5
84
100
AcDbEntity
  8
rozmir
  6
ByBlock
 62
    0
370
   -2
100
AcDbLine
 10
84.00000000000003
 20
155
 11
148
 21
155
  0
LINE
  5
85
100
AcDbEntity
  8
rozmir
  6
ByBlock
 62
    0
370
   -2
100
AcDbLine
 10
85.41421356237312
 20
156.4142135623731
 11
82.58578643762694
 21
153.5857864376269
  0
LINE
  5
86
100
AcDbEntity
  8
rozmir
  6
ByBlock
 62
    0
370
   -2
100
AcDbLine
 10
149.4142135623731
 20
156.4142135623731
 11
146.5857864376269
 21
153.5857864376269
  0
MTEXT
  5
87
100
AcDbEntity
  8
rozmir
  6
CONTINUOUS
 62
    0
370
   -2
100
AcDbMText
 10
116
 20
159
 30
0
 40
4
 41
5.333333333333581
 71
    5
 72
    1
  1
64
  7
standard
210
0
220
0
230
1
 50
0
 73
    2
 44
1
  0
LINE
  5
88
100
AcDbEntity
  8
rozmir
  6
ByBlock
 62
    0
370
   -2
100
AcDbLine
 10
84.00000000000003
 20
131
 11
84.00000000000003
 21
157
  0
LINE
  5
89
100
AcDbEntity
  8
rozmir
  6
ByBlock
 62
    0
370
   -2
100
AcDbLine
 10
148
 20
131
 11
148
 21
157
  0
ENDBLK
  5
5F
330
5D
100
AcDbEntity
  8
0
100
AcDbBlockEnd
  0
BLOCK
  5
61
330
60
100
AcDbEntity
  8
0
100
AcDbBlockBegin
  2
*D1
 70
    1
 10
0
 20
0
  3
*D1
  1

  0
LINE
  5
8A
100
AcDbEntity
  8
rozmir
  6
ByBlock
 62
    0
370
   -2
100
AcDbLine
 10
-1.530808498934192e-15
 20
105
 11
0
 21
130
  0
LINE
  5
8B
100
AcDbEntity
  8
rozmir
  6
ByBlock
 62
    0
370
   -2
100
AcDbLine
 10
-1.414213562373096
 20
106.4142135623731
 11
1.414213562373093
 21
103.5857864376269
  0
LINE
  5
8C
100
AcDbEntity
  8
rozmir
  6
ByBlock
 62
    0
370
   -2
100
AcDbLine
 10
-1.414213562373095
 20
131.4142135623731
 11
1.414213562373095
 21
128.5857864376269
  0
MTEXT
  5
8D
100
AcDbEntity
  8
rozmir
  6
CONTINUOUS
 62
    0
370
   -2
100
AcDbMText
 10
-4.000000000000001
 20
117.5
 30
0
 40
4
 41
4.888888888889136
 71
    5
 72
    1
  1
25
  7
standard
210
0
220
0
230
1
 50
90
 73
    2
 44
1
  0
LINE
  5
8E
100
AcDbEntity
  8
rozmir
  6
ByBlock
 62
    0
370
   -2
100
AcDbLine
 10
-1
 20
105
 11
-2.000000000000001
 21
105
  0
LINE
  5
8F
100
AcDbEntity
  8
rozmir
  6
ByBlock
 62
    0
370
   -2
100
AcDbLine
 10
-1
 20
130
 11
-2
 21
130
  0
ENDBLK
  5
62
330
60
100
AcDbEntity
  8
0
100
AcDbBlockEnd
  0
BLOCK
  5
64
330
63
100
AcDbEntity
  8
0
100
AcDbBlockBegin
  2
*D7
 70
    1
 10
0
 20
0
  3
*D7
  1

  0
LINE
  5
90
100
AcDbEntity
  8
rozmir
  6
ByBlock
 62
    0
370
   -2
100
AcDbLine
 10
-6
 20
155
 11
71
 21
155
  0
LINE
  5
91
100
AcDbEntity
  8
rozmir
  6
ByBlock
 62
    0
370
   -2
100
AcDbLine
 10
-4.585786437626904
 20
156.4142135623731
 11
-7.414213562373096
 21
153.5857864376269
  0
LINE
  5
92
100
AcDbEntity
  8
rozmir
  6
ByBlock
 62
    0
370
   -2
100
AcDbLine
 10
72.41421356237309
 20
156.4142135623731
 11
69.58578643762691
 21
153.5857864376269
  0
MTEXT
  5
93
100
AcDbEntity
  8
rozmir
  6
CONTINUOUS
 62
    0
370
   -2
100
AcDbMText
 10
32.5
 20
159
 30
0
 40
4
 41
4.888888888888888
 71
    5
 72
    1
  1
77
  7
standard
210
0
220
0
230
1
 50
0
 73
    2
 44
1
  0
LINE
  5
94
100
AcDbEntity
  8
rozmir
  6
ByBlock
 62
    0
370
   -2
100
AcDbLine
 10
-6
 20
131
 11
-6
 21
157
  0
LINE
  5
95
100
AcDbEntity
  8
rozmir
  6
ByBlock
 62
    0
370
   -2
100
AcDbLine
 10
71
 20
131
 11
71
 21
157
  0
ENDBLK
  5
65
330
63
100
AcDbEntity
  8
0
100
AcDbBlockEnd
  0
BLOCK
  5
67
330
66
100
AcDbEntity
  8
0
100
AcDbBlockBegin
  2
*D6
 70
    1
 10
0
 20
0
  3
*D6
  1

  0
LINE
  5
96
100
AcDbEntity
  8
rozmir
  6
ByBlock
 62
    0
370
   -2
100
AcDbLine
 10
79
 20
93
 11
79
 21
88
  0
LINE
  5
97
100
AcDbEntity
  8
rozmir
  6
ByBlock
 62
    0
370
   -2
100
AcDbLine
 10
80.41421356237309
 20
91.58578643762691
 11
77.58578643762691
 21
94.41421356237309
  0
LINE
  5
98
100
AcDbEntity
  8
rozmir
  6
ByBlock
 62
    0
370
   -2
100
AcDbLine
 10
80.41421356237309
 20
86.58578643762691
 11
77.58578643762691
 21
89.41421356237309
  0
MTEXT
  5
99
100
AcDbEntity
  8
rozmir
  6
CONTINUOUS
 62
    0
370
   -2
100
AcDbMText
 10
75
 20
90.5
 30
0
 40
4
 41
1.777777777778026
 71
    5
 72
    1
  1
5
  7
standard
210
0
220
0
230
1
 50
90
 73
    2
 44
1
  0
LINE
  5
9A
100
AcDbEntity
  8
rozmir
  6
ByBlock
 62
    0
370
   -2
100
AcDbLine
 10
70.40000000000001
 20
93
 11
81
 21
93
  0
LINE
  5
9B
100
AcDbEntity
  8
rozmir
  6
ByBlock
 62
    0
370
   -2
100
AcDbLine
 10
70.40000000000001
 20
88
 11
81
 21
88
  0
ENDBLK
  5
68
330
66
100
AcDbEntity
  8
0
100
AcDbBlockEnd
  0
BLOCK
  5
6A
330
69
100
AcDbEntity
  8
0
100
AcDbBlockBegin
  2
*D5
 70
    1
 10
0
 20
0
  3
*D5
  1

  0
LINE
  5
9C
100
AcDbEntity
  8
rozmir
  6
ByBlock
 62
    0
370
   -2
100
AcDbLine
 10
90
 20
70
 11
142
 21
70
  0
LINE
  5
9D
100
AcDbEntity
  8
rozmir
  6
ByBlock
 62
    0
370
   -2
100
AcDbLine
 10
91.41421356237309
 20
71.41421356237309
 11
88.58578643762691
 21
68.58578643762691
  0
LINE
  5
9E
100
AcDbEntity
  8
rozmir
  6
ByBlock
 62
    0
370
   -2
100
AcDbLine
 10
143.4142135623731
 20
71.41421356237309
 11
140.5857864376269
 21
68.58578643762691
  0
MTEXT
  5
9F
100
AcDbEntity
  8
rozmir
  6
CONTINUOUS
 62
    0
370
   -2
100
AcDbMText
 10
116
 20
74
 30
0
 40
4
 41
4.888888888889136
 71
    5
 72
    1
  1
52
  7
standard
210
0
220
0
230
1
 50
0
 73
    2
 44
1
  0
LINE
  5
A0
100
AcDbEntity
  8
rozmir
  6
ByBlock
 62
    0
370
   -2
100
AcDbLine
 10
90
 20
79
 11
90
 21
68
  0
LINE
  5
A1
100
AcDbEntity
  8
rozmir
  6
ByBlock
 62
    0
370
   -2
100
AcDbLine
 10
142
 20
79
 11
142
 21
68
  0
ENDBLK
  5
6B
330
69
100
AcDbEntity
  8
0
100
AcDbBlockEnd
  0
BLOCK
  5
6D
330
6C
100
AcDbEntity
  8
0
100
AcDbBlockBegin
  2
*D8
 70
    1
 10
0
 20
0
  3
*D8
  1

  0
LINE
  5
A2
100
AcDbEntity
  8
rozmir
  6
ByBlock
 62
    0
370
   -2
100
AcDbLine
 10
0
 20
70
 11
65
 21
70
  0
LINE
  5
A3
100
AcDbEntity
  8
rozmir
  6
ByBlock
 62
    0
370
   -2
100
AcDbLine
 10
1.414213562373095
 20
71.41421356237309
 11
-1.414213562373095
 21
68.58578643762691
  0
LINE
  5
A4
100
AcDbEntity
  8
rozmir
  6
ByBlock
 62
    0
370
   -2
100
AcDbLine
 10
66.41421356237309
 20
71.41421356237309
 11
63.58578643762691
 21
68.58578643762691
  0
MTEXT
  5
A5
100
AcDbEntity
  8
rozmir
  6
CONTINUOUS
 62
    0
370
   -2
100
AcDbMText
 10
32.5
 20
74
 30
0
 40
4
 41
4.888888888889385
 71
    5
 72
    1
  1
65
  7
standard
210
0
220
0
230
1
 50
0
 73
    2
 44
1
  0
LINE
  5
A6
100
AcDbEntity
  8
rozmir
  6
ByBlock
 62
    0
370
   -2
100
AcDbLine
 10
-1.83697019872103e-16
 20
79
 11
-3.673940397442059e-16
 21
68
  0
LINE
  5
A7
100
AcDbEntity
  8
rozmir
  6
ByBlock
 62
    0
370
   -2
100
AcDbLine
 10
65
 20
79
 11
65
 21
68
  0
ENDBLK
  5
6E
330
6C
100
AcDbEntity
  8
0
100
AcDbBlockEnd
  0
BLOCK
  5
70
330
6F
100
AcDbEntity
  8
0
100
AcDbBlockBegin
  2
block10
 70
    0
 10
0
 20
0
  3
block10
  1

  0
LWPOLYLINE
  5
A8
100
AcDbEntity
  8
0
  6
CONTINUOUS
 62
    7
370
   70
100
AcDbPolyline
 90
   12
 70
    1
 43
0
 10
-0.6062178
 20
1
 10
0
 20
0
 10
0.6062178
 20
1
 10
1.8186533
 20
1
 10
1.2124356
 20
2
 10
1.8186533
 20
3
 10
0.6062178
 20
3
 10
0
 20
4
 10
-0.6062178
 20
3
 10
-1.8186533
 20
3
 10
-1.2124356
 20
2
 10
-1.8186533
 20
1
  0
ENDBLK
  5
71
330
6F
100
AcDbEntity
  8
0
100
AcDbBlockEnd
  0
ENDSEC
  0
SECTION
  2
ENTITIES
  0
HATCH
  5
A9
100
AcDbEntity
  8
opora
  6
ByLayer
 62
  256
370
   -1
100
AcDbHatch
 10
0
 20
0
 30
0
210
0
220
0
230
1
  2
gost_metal
 70
    0
 71
    0
 91
    1
 92
    0
 93
    4
 72
    1
 10
32.5
 20
-0.3999999999999986
 11
35.5
 21
-0.3999999999999986
 72
    1
 10
35.5
 20
-0.3999999999999986
 11
35.5
 21
-0.7999999999999901
 72
    1
 10
35.5
 20
-0.7999999999999901
 11
32.5
 21
-0.7999999999999901
 72
    1
 10
32.5
 20
-0.7999999999999901
 11
32.5
 21
-0.3999999999999986
 97
    0
 75
    0
 76
    1
 52
0
 41
0.1
 77
    0
 78
    0
 98
    0
  0
HATCH
  5
AA
100
AcDbEntity
  8
opora
  6
ByLayer
 62
  256
370
   -1
100
AcDbHatch
 10
0
 20
0
 30
0
210
0
220
0
230
1
  2
gost_metal
 70
    0
 71
    0
 91
    1
 92
    0
 93
    4
 72
    1
 10
13
 20
-0.7999999999999901
 11
10
 21
-0.7999999999999901
 72
    1
 10
10
 20
-0.7999999999999901
 11
10
 21
-0.3999999999999986
 72
    1
 10
10
 20
-0.3999999999999986
 11
13
 21
-0.3999999999999986
 72
    1
 10
13
 20
-0.3999999999999986
 11
13
 21
-0.7999999999999901
 97
    0
 75
    0
 76
    1
 52
0
 41
0.1
 77
    0
 78
    0
 98
    0
  0
HATCH
  5
AB
100
AcDbEntity
  8
opora
  6
ByLayer
 62
  256
370
   -1
100
AcDbHatch
 10
0
 20
0
 30
0
210
0
220
0
230
1
  2
gost_metal
 70
    0
 71
    0
 91
    1
 92
    0
 93
    4
 72
    1
 10
55
 20
-0.7999999999999972
 11
52
 21
-0.7999999999999972
 72
    1
 10
52
 20
-0.7999999999999972
 11
52
 21
-0.3999999999999986
 72
    1
 10
52
 20
-0.3999999999999986
 11
55
 21
-0.3999999999999986
 72
    1
 10
55
 20
-0.3999999999999986
 11
55
 21
-0.7999999999999972
 97
    0
 75
    0
 76
    1
 52
0
 41
0.1
 77
    0
 78
    0
 98
    0
  0
HATCH
  5
AC
100
AcDbEntity
  8
opora
  6
ByLayer
 62
  256
370
   -1
100
AcDbHatch
 10
0
 20
0
 30
0
210
0
220
0
230
1
  2
gost_metal
 70
    0
 71
    0
 91
    1
 92
    0
 93
    4
 72
    1
 10
52
 20
52.4
 11
55
 21
52.4
 72
    1
 10
55
 20
52.4
 11
55
 21
52.8
 72
    1
 10
55
 20
52.8
 11
52
 21
52.8
 72
    1
 10
52
 20
52.8
 11
52
 21
52.4
 97
    0
 75
    0
 76
    1
 52
0
 41
0.1
 77
    0
 78
    0
 98
    0
  0
HATCH
  5
AD
100
AcDbEntity
  8
opora
  6
ByLayer
 62
  256
370
   -1
100
AcDbHatch
 10
0
 20
0
 30
0
210
0
220
0
230
1
  2
gost_metal
 70
    0
 71
    0
 91
    1
 92
    0
 93
    4
 72
    1
 10
34
 20
52.8
 11
31
 21
52.8
 72
    1
 10
31
 20
52.8
 11
31
 21
52.4
 72
    1
 10
31
 20
52.4
 11
34
 21
52.4
 72
    1
 10
34
 20
52.4
 11
34
 21
52.8
 97
    0
 75
    0
 76
    1
 52
0
 41
0.1
 77
    0
 78
    0
 98
    0
  0
HATCH
  5
AE
100
AcDbEntity
  8
opora
  6
ByLayer
 62
  256
370
   -1
100
AcDbHatch
 10
0
 20
0
 30
0
210
0
220
0
230
1
  2
gost_metal
 70
    0
 71
    0
 91
    1
 92
    0
 93
    4
 72
    1
 10
10
 20
52.4
 11
13
 21
52.4
 72
    1
 10
13
 20
52.4
 11
13
 21
52.8
 72
    1
 10
13
 20
52.8
 11
10
 21
52.8
 72
    1
 10
10
 20
52.8
 11
10
 21
52.4
 97
    0
 75
    0
 76
    1
 52
0
 41
0.1
 77
    0
 78
    0
 98
    0
  0
MTEXT
  5
AF
100
AcDbEntity
  8
rozmir
  6
ByLayer
 62
  256
370
   -1
100
AcDbMText
 10
70
 20
170
 30
0
 40
5
 41
124.0277777777778
 71
    5
 72
    1
  1
Кришка димаря. Загальний вигляд.
  7
cyrillic_ii
210
0
220
0
230
1
 50
0
 73
    2
 44
1
  0
LINE
  5
B0
100
AcDbEntity
  8
rozmir
  6
ByLayer
 62
  256
370
   -1
100
AcDbLine
 10
7
 20
166
 11
132
 21
166
  0
LWPOLYLINE
  5
B1
100
AcDbEntity
  8
opora
  6
ByLayer
 62
  256
370
   -1
100
AcDbPolyline
 90
    4
 70
    1
 43
0
 10
-4.400000000000006
 20
93
 10
-0.4000000000000057
 20
93
 10
-0.4000000000000057
 20
88
 10
-4.400000000000006
 20
88
  0
LINE
  5
B2
100
AcDbEntity
  8
rozmir
  6
DASHDOT2
 62
  256
370
   -1
100
AcDbLine
 10
-2.400000000000006
 20
92
 11
-2.400000000000006
 21
89
  0
LINE
  5
B3
100
AcDbEntity
  8
rozmir
  6
DASHDOT2
 62
  256
370
   -1
100
AcDbLine
 10
-3.800000000000011
 20
90.5
 11
-1.000000000000014
 21
90.5
  0
LWPOLYLINE
  5
B4
100
AcDbEntity
  8
kriplennia
  6
ByLayer
 62
  256
370
   -1
100
AcDbPolyline
 90
    7
 70
    0
 43
0
 10
-2.399999999999991
 20
91.2
 10
-3.006217782648605
 20
90.84999999999971
 10
-3.006217782647852
 20
90.15000000000072
 10
-2.400000000000006
 20
89.8
 10
-1.793782217351406
 20
90.15000000000029
 10
-1.79378221735216
 20
90.84999999999926
 10
-2.399999999999991
 20
91.2
  0
CIRCLE
  5
B5
100
AcDbEntity
  8
kriplennia
  6
ByLayer
 62
  256
370
   -1
100
AcDbCircle
 10
-2.400000000000006
 20
90.5
 40
0.4000000000000057
  0
LWPOLYLINE
  5
B6
100
AcDbEntity
  8
kryshka
  6
ByLayer
 62
  256
370
   -1
100
AcDbPolyline
 90
    4
 70
    0
 43
0
 10
148
 20
130
 10
84
 20
130
 10
116
 20
148.5
 10
148
 20
130
  0
LWPOLYLINE
  5
B7
100
AcDbEntity
  8
opora
  6
ByLayer
 62
  256
370
   -1
100
AcDbPolyline
 90
    4
 70
    1
 43
0
 10
89.59999999999999
 20
93
 10
115
 20
93
 10
115
 20
88
 10
89.59999999999999
 20
88
  0
LWPOLYLINE
  5
B8
100
AcDbEntity
  8
opora
  6
ByLayer
 62
  256
370
   -1
100
AcDbPolyline
 90
    4
 70
    1
 43
0
 10
117
 20
93
 10
142.4
 20
93
 10
142.4
 20
88
 10
117
 20
88
  0
LINE
  5
B9
100
AcDbEntity
  8
opora
  6
ByLayer
 62
  256
370
   -1
100
AcDbLine
 10
114.6
 20
93
 11
114.6
 21
88
  0
LINE
  5
BA
100
AcDbEntity
  8
opora
  6
ByLayer
 62
  256
370
   -1
100
AcDbLine
 10
117.4
 20
93
 11
117.4
 21
88
  0
LWPOLYLINE
  5
BB
100
AcDbEntity
  8
kriplennia
  6
ByLayer
 62
  256
370
   -1
100
AcDbPolyline
 90
    4
 70
    1
 43
0
 10
117.4
 20
91.2
 10
118
 20
91.2
 10
118
 20
89.80000000000001
 10
117.4
 20
89.80000000000001
  0
LINE
  5
BC
100
AcDbEntity
  8
kriplennia
  6
ByLayer
 62
  256
370
   -1
100
AcDbLine
 10
117
 20
90.90000000000001
 11
115
 21
90.90000000000001
  0
LINE
  5
BD
100
AcDbEntity
  8
kriplennia
  6
ByLayer
 62
  256
370
   -1
100
AcDbLine
 10
117
 20
90.09999999999999
 11
115
 21
90.09999999999999
  0
LINE
  5
BE
100
AcDbEntity
  8
kriplennia
  6
ByLayer
 62
  256
370
   -1
100
AcDbLine
 10
117.4
 20
90.90000000000001
 11
118
 21
90.90000000000001
  0
LINE
  5
BF
100
AcDbEntity
  8
kriplennia
  6
ByLayer
 62
  256
370
   -1
100
AcDbLine
 10
117.4
 20
90.09999999999999
 11
118
 21
90.09999999999999
  0
LWPOLYLINE
  5
C0
100
AcDbEntity
  8
kriplennia
  6
ByLayer
 62
  256
370
   -1
100
AcDbPolyline
 90
    4
 70
    1
 43
0
 10
114
 20
91.2
 10
114.6
 20
91.2
 10
114.6
 20
89.80000000000001
 10
114
 20
89.80000000000001
  0
LINE
  5
C1
100
AcDbEntity
  8
kriplennia
  6
ByLayer
 62
  256
370
   -1
100
AcDbLine
 10
114
 20
90.90000000000001
 11
114.6
 21
90.90000000000001
  0
LINE
  5
C2
100
AcDbEntity
  8
kriplennia
  6
ByLayer
 62
  256
370
   -1
100
AcDbLine
 10
114
 20
90.09999999999999
 11
114.6
 21
90.09999999999999
  0
LWPOLYLINE
  5
C3
100
AcDbEntity
  8
kriplennia
  6
ByLayer
 62
  256
370
   -1
100
AcDbPolyline
 90
    6
 70
    0
 43
0
 10
114
 20
90.90000000000001
 10
113.5
 20
90.90000000000001
 10
113.4
 20
90.8
 10
113.4
 20
90.2
 10
113.5
 20
90.09999999999999
 10
114
 20
90.09999999999999
  0
LWPOLYLINE
  5
C4
100
AcDbEntity
  8
kriplennia
  6
ByLayer
 62
  256
370
   -1
100
AcDbPolyline
 90
    2
 70
    0
 43
0
 10
113.5
 20
90.90000000000001
 10
113.5
 20
90.09999999999999
  0
LWPOLYLINE
  5
C5
100
AcDbEntity
  8
opora
  6
ByLayer
 62
  256
370
   -1
100
AcDbPolyline
 90
    4
 70
    1
 43
0
 10
89.59999999999999
 20
88
 10
89.2
 20
88
 10
89.2
 20
130
 10
89.59999999999999
 20
130
  0
LWPOLYLINE
  5
C6
100
AcDbEntity
  8
opora
  6
ByLayer
 62
  256
370
   -1
100
AcDbPolyline
 90
    4
 70
    1
 43
0
 10
142.8
 20
88
 10
142.4
 20
88
 10
142.4
 20
130
 10
142.8
 20
130
  0
LWPOLYLINE
  5
C7
100
AcDbEntity
  8
brick
  6
ByLayer
 62
  256
370
   -1
100
AcDbPolyline
 90
    4
 70
    0
 43
0
 10
90
 20
93
 10
90
 20
105
 10
142
 20
105
 10
142
 20
93
  0
LWPOLYLINE
  5
C8
100
AcDbEntity
  8
brick
  6
ByLayer
 62
  256
370
   -1
100
AcDbPolyline
 90
   12
 70
    0
 43
0
 10
90
 20
88
 10
90
 20
80
 10
102
 20
80
 10
103
 20
82
 10
105
 20
78
 10
106
 20
80
 10
129
 20
80
 10
130
 20
82
 10
132
 20
78
 10
133
 20
80
 10
142
 20
80
 10
142
 20
88
  0
LINE
  5
C9
100
AcDbEntity
  8
rozmir
  6
DASHDOT2
 62
  256
370
   -1
100
AcDbLine
 10
116
 20
152
 11
116
 21
77
  0
LINE
  5
CA
100
AcDbEntity
  8
rozmir
  6
DASHDOT2
 62
  256
370
   -1
100
AcDbLine
 10
113
 20
90.5
 11
118.5
 21
90.5
  0
DIMENSION
  5
CB
100
AcDbEntity
  8
rozmir
  6
ByLayer
 62
  256
370
   -1
100
AcDbDimension
  2
*D1
 10
0
 20
130
 30
0
 11
-4.000000000000001
 21
117.5
 31
0
 70
   32
 71
    5
 72
    0
  3
Standard
 53
0
210
0
220
0
230
1
100
AcDbAlignedDimension
 13
0
 23
105
 33
0
 14
0
 24
130
 34
0
 50
90
100
AcDbRotatedDimension
  0
DIMENSION
  5
CC
100
AcDbEntity
  8
rozmir
  6
ByLayer
 62
  256
370
   -1
100
AcDbDimension
  2
*D2
 10
-10
 20
130
 30
0
 11
-14
 21
109
 31
0
 70
   32
 71
    5
 72
    0
  3
Standard
 53
0
210
0
220
0
230
1
100
AcDbAlignedDimension
 13
-4.400000000000006
 23
88
 33
0
 14
-6
 24
130
 34
0
 50
90
100
AcDbRotatedDimension
  0
DIMENSION
  5
CD
100
AcDbEntity
  8
rozmir
  6
ByLayer
 62
  256
370
   -1
100
AcDbDimension
  2
*D3
 10
-10
 20
148.5
 30
0
 11
-14
 21
139.25
 31
0
 70
   32
 71
    5
 72
    0
  3
Standard
 53
0
210
0
220
0
230
1
100
AcDbAlignedDimension
 13
-6
 23
130
 33
0
 14
26.00000000000003
 24
148.5
 34
0
 50
90
100
AcDbRotatedDimension
  0
DIMENSION
  5
CE
100
AcDbEntity
  8
rozmir
  6
ByLayer
 62
  256
370
   -1
100
AcDbDimension
  2
*D4
 10
148
 20
155
 30
0
 11
116
 21
159
 31
0
 70
   32
 71
    5
 72
    0
  3
Standard
 53
0
210
0
220
0
230
1
100
AcDbAlignedDimension
 13
84.00000000000003
 23
130
 33
0
 14
148
 24
130
 34
0
100
AcDbRotatedDimension
  0
DIMENSION
  5
CF
100
AcDbEntity
  8
rozmir
  6
ByLayer
 62
  256
370
   -1
100
AcDbDimension
  2
*D5
 10
142
 20
70
 30
0
 11
116
 21
74
 31
0
 70
   32
 71
    5
 72
    0
  3
Standard
 53
0
210
0
220
0
230
1
100
AcDbAlignedDimension
 13
90
 23
80
 33
0
 14
142
 24
80
 34
0
100
AcDbRotatedDimension
  0
MTEXT
  5
D0
100
AcDbEntity
  8
rozmir
  6
ByLayer
 62
  256
370
   -1
100
AcDbMText
 10
140
 20
-10
 30
0
 40
5
 41
24.30555555555579
 71
    6
 72
    1
  1
Стр. 20
  7
cyrillic_ii
210
0
220
0
230
1
 50
0
 73
    2
 44
1
  0
LWPOLYLINE
  5
D1
100
AcDbEntity
  8
kryshka
  6
CONTINUOUS
 62
    3
370
   35
100
AcDbPolyline
 90
    5
 70
    0
 43
0
 10
71
 20
130
 10
-6
 20
130
 10
26
 20
148.5
 10
39
 20
148.5
 10
70.99999999999997
 20
130
  0
LWPOLYLINE
  5
D2
100
AcDbEntity
  8
opora
  6
ByLayer
 62
  256
370
   -1
100
AcDbPolyline
 90
    4
 70
    1
 43
0
 10
65.40000000000001
 20
93
 10
69.40000000000001
 20
93
 10
69.40000000000001
 20
88
 10
65.40000000000001
 20
88
  0
LINE
  5
D3
100
AcDbEntity
  8
rozmir
  6
DASHDOT2
 62
  256
370
   -1
100
AcDbLine
 10
67.40000000000001
 20
92
 11
67.40000000000001
 21
89
  0
LINE
  5
D4
100
AcDbEntity
  8
rozmir
  6
DASHDOT2
 62
  256
370
   -1
100
AcDbLine
 10
66
 20
90.5
 11
68.8
 21
90.5
  0
LWPOLYLINE
  5
D5
100
AcDbEntity
  8
kriplennia
  6
ByLayer
 62
  256
370
   -1
100
AcDbPolyline
 90
    7
 70
    0
 43
0
 10
67.40000000000002
 20
91.2
 10
66.79378221735141
 20
90.84999999999971
 10
66.79378221735216
 20
90.15000000000072
 10
67.40000000000001
 20
89.8
 10
68.0062177826486
 20
90.15000000000029
 10
68.00621778264785
 20
90.84999999999926
 10
67.40000000000002
 20
91.2
  0
CIRCLE
  5
D6
100
AcDbEntity
  8
kriplennia
  6
ByLayer
 62
  256
370
   -1
100
AcDbCircle
 10
67.40000000000001
 20
90.5
 40
0.4000000000000057
  0
LWPOLYLINE
  5
D7
100
AcDbEntity
  8
brick
  6
ByLayer
 62
  256
370
   -1
100
AcDbPolyline
 90
   12
 70
    0
 43
0
 10
0
 20
88
 10
0
 20
80
 10
19
 20
80
 10
20
 20
82
 10
22
 20
78
 10
23
 20
80
 10
45
 20
80
 10
46
 20
82
 10
48
 20
78
 10
49
 20
80
 10
65
 20
80
 10
65
 20
88
  0
DIMENSION
  5
D8
100
AcDbEntity
  8
rozmir
  6
ByLayer
 62
  256
370
   -1
100
AcDbDimension
  2
*D6
 10
79
 20
88
 30
0
 11
75
 21
90.5
 31
0
 70
   32
 71
    5
 72
    0
  3
Standard
 53
0
210
0
220
0
230
1
100
AcDbAlignedDimension
 13
69.40000000000001
 23
93
 33
0
 14
69.40000000000001
 24
88
 34
0
 50
90
100
AcDbRotatedDimension
  0
DIMENSION
  5
D9
100
AcDbEntity
  8
rozmir
  6
ByLayer
 62
  256
370
   -1
100
AcDbDimension
  2
*D7
 10
72
 20
155
 30
0
 11
32.5
 21
159
 31
0
 70
   32
 71
    5
 72
    0
  3
Standard
 53
0
210
0
220
0
230
1
100
AcDbAlignedDimension
 13
-6
 23
130
 33
0
 14
71
 24
130
 34
0
100
AcDbRotatedDimension
  0
DIMENSION
  5
DA
100
AcDbEntity
  8
rozmir
  6
ByLayer
 62
  256
370
   -1
100
AcDbDimension
  2
*D8
 10
66
 20
70
 30
0
 11
32.5
 21
74
 31
0
 70
   32
 71
    5
 72
    0
  3
Standard
 53
0
210
0
220
0
230
1
100
AcDbAlignedDimension
 13
0
 23
80
 33
0
 14
65
 24
80
 34
0
100
AcDbRotatedDimension
  0
LINE
  5
DB
100
AcDbEntity
  8
rozmir
  6
DASHDOT2
 62
  256
370
   -1
100
AcDbLine
 10
32.5
 20
92
 11
32.5
 21
89
  0
LINE
  5
DC
100
AcDbEntity
  8
rozmir
  6
DASHDOT2
 62
  256
370
   -1
100
AcDbLine
 10
32.5
 20
152
 11
32.5
 21
77
  0
LWPOLYLINE
  5
DD
100
AcDbEntity
  8
kriplennia
  6
ByLayer
 62
  256
370
   -1
100
AcDbPolyline
 90
    4
 70
    1
 43
0
 10
-3.099999999999995
 20
27.39999999999999
 10
-3.099999999999995
 20
27.99999999999999
 10
-1.700000000000003
 20
27.99999999999999
 10
-1.700000000000003
 20
27.39999999999999
  0
LINE
  5
DE
100
AcDbEntity
  8
kriplennia
  6
ByLayer
 62
  256
370
   -1
100
AcDbLine
 10
-2.799999999999998
 20
26.99999999999999
 11
-2.799999999999998
 21
24.99999999999999
  0
LINE
  5
DF
100
AcDbEntity
  8
kriplennia
  6
ByLayer
 62
  256
370
   -1
100
AcDbLine
 10
-2
 20
26.99999999999999
 11
-2
 21
24.99999999999999
  0
LINE
  5
E0
100
AcDbEntity
  8
kriplennia
  6
ByLayer
 62
  256
370
   -1
100
AcDbLine
 10
-2.799999999999998
 20
27.39999999999999
 11
-2.799999999999998
 21
27.99999999999999
  0
LINE
  5
E1
100
AcDbEntity
  8
kriplennia
  6
ByLayer
 62
  256
370
   -1
100
AcDbLine
 10
-2
 20
27.39999999999999
 11
-2
 21
27.99999999999999
  0
LWPOLYLINE
  5
E2
100
AcDbEntity
  8
kriplennia
  6
ByLayer
 62
  256
370
   -1
100
AcDbPolyline
 90
    4
 70
    1
 43
0
 10
-3.100000000000009
 20
24
 10
-3.100000000000009
 20
24.6
 10
-1.700000000000003
 20
24.6
 10
-1.700000000000003
 20
24
  0
LINE
  5
E3
100
AcDbEntity
  8
kriplennia
  6
ByLayer
 62
  256
370
   -1
100
AcDbLine
 10
-2.799999999999998
 20
24
 11
-2.799999999999998
 21
24.6
  0
LINE
  5
E4
100
AcDbEntity
  8
kriplennia
  6
ByLayer
 62
  256
370
   -1
100
AcDbLine
 10
-2
 20
24
 11
-2
 21
24.6
  0
LWPOLYLINE
  5
E5
100
AcDbEntity
  8
kriplennia
  6
ByLayer
 62
  256
370
   -1
100
AcDbPolyline
 90
    6
 70
    0
 43
0
 10
-2.799999999999998
 20
24
 10
-2.799999999999998
 20
23.49999999999999
 10
-2.700000000000003
 20
23.39999999999999
 10
-2.100000000000009
 20
23.39999999999999
 10
-2
 20
23.49999999999999
 10
-2
 20
23.99999999999999
  0
LWPOLYLINE
  5
E6
100
AcDbEntity
  8
kriplennia
  6
ByLayer
 62
  256
370
   -1
100
AcDbPolyline
 90
    2
 70
    0
 43
0
 10
-2.799999999999998
 20
23.49999999999999
 10
-2
 20
23.50000000000002
  0
LINE
  5
E7
100
AcDbEntity
  8
rozmir
  6
DASHDOT2
 62
  256
370
   -1
100
AcDbLine
 10
-2.400000000000006
 20
22.99999999999999
 11
-2.400000000000006
 21
28.5
  0
LWPOLYLINE
  5
E8
100
AcDbEntity
  8
brick
  6
ByLayer
 62
  256
370
   -1
100
AcDbPolyline
 90
    4
 70
    1
 43
0
 10
-5.551115123125783e-17
 20
52
 10
65
 20
52
 10
65
 20
0
 10
-5.551115123125783e-17
 20
0
  0
LWPOLYLINE
  5
E9
100
AcDbEntity
  8
opora
  6
ByLayer
 62
  256
370
   -1
100
AcDbPolyline
 90
   13
 70
    0
 43
0
 10
-4.4
 20
27
 10
-4.4
 20
27.4
 10
-0.4000000000000006
 20
27.4
 10
-0.4000000000000002
 20
52.4
 10
65.40000000000001
 20
52.4
 10
65.40000000000001
 20
27.4
 10
69.40000000000001
 20
27.4
 10
69.40000000000001
 20
27
 10
65
 20
27
 10
65
 20
52
 10
-5.551115123125783e-17
 20
52
 10
2.775557561562891e-16
 20
27
 10
-4.4
 20
27
  0
LWPOLYLINE
  5
EA
100
AcDbEntity
  8
opora
  6
ByLayer
 62
  256
370
   -1
100
AcDbPolyline
 90
   13
 70
    0
 43
0
 10
-4.4
 20
25
 10
-4.4
 20
24.6
 10
-0.4000000000000002
 20
24.6
 10
-0.4000000000000006
 20
-0.3999999999999986
 10
65.40000000000001
 20
-0.3999999999999986
 10
65.40000000000001
 20
24.6
 10
69.40000000000001
 20
24.6
 10
69.40000000000001
 20
25
 10
65
 20
25
 10
65
 20
0
 10
-5.551115123125783e-17
 20
0
 10
-4.440892098500626e-16
 20
25
 10
-4.4
 20
25
  0
LWPOLYLINE
  5
EB
100
AcDbEntity
  8
kriplennia
  6
ByLayer
 62
  256
370
   -1
100
AcDbPolyline
 90
    4
 70
    1
 43
0
 10
66.70000000000002
 20
27.4
 10
66.70000000000002
 20
27.99999999999999
 10
68.10000000000001
 20
27.99999999999999
 10
68.10000000000001
 20
27.4
  0
LINE
  5
EC
100
AcDbEntity
  8
kriplennia
  6
ByLayer
 62
  256
370
   -1
100
AcDbLine
 10
67.00000000000001
 20
26.99999999999999
 11
67.00000000000001
 21
24.99999999999999
  0
LINE
  5
ED
100
AcDbEntity
  8
kriplennia
  6
ByLayer
 62
  256
370
   -1
100
AcDbLine
 10
67.80000000000001
 20
26.99999999999999
 11
67.80000000000001
 21
24.99999999999999
  0
LINE
  5
EE
100
AcDbEntity
  8
kriplennia
  6
ByLayer
 62
  256
370
   -1
100
AcDbLine
 10
67.00000000000001
 20
27.4
 11
67.00000000000001
 21
27.99999999999999
  0
LINE
  5
EF
100
AcDbEntity
  8
kriplennia
  6
ByLayer
 62
  256
370
   -1
100
AcDbLine
 10
67.80000000000001
 20
27.4
 11
67.80000000000001
 21
27.99999999999999
  0
LWPOLYLINE
  5
F0
100
AcDbEntity
  8
kriplennia
  6
ByLayer
 62
  256
370
   -1
100
AcDbPolyline
 90
    4
 70
    1
 43
0
 10
66.7
 20
24.00000000000001
 10
66.7
 20
24.6
 10
68.10000000000001
 20
24.6
 10
68.10000000000001
 20
24.00000000000001
  0
LINE
  5
F1
100
AcDbEntity
  8
kriplennia
  6
ByLayer
 62
  256
370
   -1
100
AcDbLine
 10
67.00000000000001
 20
24.00000000000001
 11
67.00000000000001
 21
24.6
  0
LINE
  5
F2
100
AcDbEntity
  8
kriplennia
  6
ByLayer
 62
  256
370
   -1
100
AcDbLine
 10
67.80000000000001
 20
24.00000000000001
 11
67.80000000000001
 21
24.6
  0
LWPOLYLINE
  5
F3
100
AcDbEntity
  8
kriplennia
  6
ByLayer
 62
  256
370
   -1
100
AcDbPolyline
 90
    6
 70
    0
 43
0
 10
67.00000000000001
 20
24.00000000000001
 10
67.00000000000001
 20
23.49999999999999
 10
67.10000000000001
 20
23.4
 10
67.7
 20
23.4
 10
67.80000000000001
 20
23.49999999999999
 10
67.80000000000001
 20
23.99999999999999
  0
LWPOLYLINE
  5
F4
100
AcDbEntity
  8
kriplennia
  6
ByLayer
 62
  256
370
   -1
100
AcDbPolyline
 90
    2
 70
    0
 43
0
 10
67.00000000000001
 20
23.49999999999999
 10
67.80000000000001
 20
23.50000000000002
  0
LINE
  5
F5
100
AcDbEntity
  8
rozmir
  6
DASHDOT2
 62
  256
370
   -1
100
AcDbLine
 10
67.40000000000001
 20
22.99999999999999
 11
67.40000000000001
 21
28.50000000000001
  0
LWPOLYLINE
  5
F6
100
AcDbEntity
  8
brick
  6
ByLayer
 62
  256
370
   -1
100
AcDbPolyline
 90
    4
 70
    1
 43
0
 10
12.5
 20
39.5
 10
26.5
 20
39.5
 10
26.5
 20
12.5
 10
12.5
 20
12.5
  0
LWPOLYLINE
  5
F7
100
AcDbEntity
  8
brick
  6
ByLayer
 62
  256
370
   -1
100
AcDbPolyline
 90
    4
 70
    1
 43
0
 10
38.5
 20
39.5
 10
52.5
 20
39.5
 10
52.5
 20
12.5
 10
38.5
 20
12.5
  0
LINE
  5
F8
100
AcDbEntity
  8
kryshka
  6
DASHED2
 62
  256
370
   -1
100
AcDbLine
 10
26
 20
26
 11
39
 21
26
  0
LWPOLYLINE
  5
F9
100
AcDbEntity
  8
kryshka
  6
DASHED2
 62
  256
370
   -1
100
AcDbPolyline
 90
    4
 70
    1
 43
0
 10
-6
 20
58
 10
71
 20
58
 10
71
 20
-6
 10
-6
 20
-6
  0
LWPOLYLINE
  5
FA
100
AcDbEntity
  8
kryshka
  6
DASHED2
 62
  256
370
   -1
100
AcDbPolyline
 90
    3
 70
    0
 43
0
 10
-6
 20
58
 10
26
 20
26
 10
-6
 20
-6
  0
LWPOLYLINE
  5
FB
100
AcDbEntity
  8
kryshka
  6
DASHED2
 62
  256
370
   -1
100
AcDbPolyline
 90
    3
 70
    0
 43
0
 10
71
 20
58
 10
39
 20
26
 10
71
 20
-6
  0
LWPOLYLINE
  5
FC
100
AcDbEntity
  8
opora
  6
ByLayer
 62
  256
370
   -1
100
AcDbPolyline
 90
    4
 70
    1
 43
0
 10
55
 20
88
 10
52
 20
88
 10
52
 20
130
 10
55
 20
130
  0
LWPOLYLINE
  5
FD
100
AcDbEntity
  8
opora
  6
ByLayer
 62
  256
370
   -1
100
AcDbPolyline
 90
    6
 70
    0
 43
0
 10
10
 20
93
 10
-0.3999999999999995
 20
93
 10
-0.4
 20
88
 10
65.40000000000001
 20
88
 10
65.40000000000001
 20
93
 10
55
 20
93
  0
LWPOLYLINE
  5
FE
100
AcDbEntity
  8
opora
  6
ByLayer
 62
  256
370
   -1
100
AcDbPolyline
 90
    4
 70
    1
 43
0
 10
31
 20
88
 10
34
 20
88
 10
34
 20
130
 10
31
 20
130
  0
LWPOLYLINE
  5
FF
100
AcDbEntity
  8
opora
  6
ByLayer
 62
  256
370
   -1
100
AcDbPolyline
 90
    4
 70
    1
 43
0
 10
10
 20
88
 10
13
 20
88
 10
13
 20
130
 10
10
 20
130
  0
LINE
  5
100
100
AcDbEntity
  8
opora
  6
ByLayer
 62
  256
370
   -1
100
AcDbLine
 10
52
 20
93
 11
34
 21
93
  0
LINE
  5
101
100
AcDbEntity
  8
opora
  6
ByLayer
 62
  256
370
   -1
100
AcDbLine
 10
31
 20
93
 11
13
 21
93
  0
LINE
  5
102
100
AcDbEntity
  8
rozmir
  6
DASHDOT2
 62
  256
370
   -1
100
AcDbLine
 10
14.5
 20
90.5
 11
17.5
 21
90.5
  0
CIRCLE
  5
103
100
AcDbEntity
  8
opora
  6
ByLayer
 62
  256
370
   -1
100
AcDbCircle
 10
16
 20
90.5
 40
0.3999999999999915
  0
LINE
  5
104
100
AcDbEntity
  8
rozmir
  6
DASHDOT2
 62
  256
370
   -1
100
AcDbLine
 10
47.5
 20
90.5
 11
50.5
 21
90.5
  0
CIRCLE
  5
105
100
AcDbEntity
  8
opora
  6
ByLayer
 62
  256
370
   -1
100
AcDbCircle
 10
49
 20
90.5
 40
0.3999999999999915
  0
LINE
  5
106
100
AcDbEntity
  8
rozmir
  6
DASHDOT2
 62
  256
370
   -1
100
AcDbLine
 10
16
 20
92
 11
16
 21
89
  0
LINE
  5
107
100
AcDbEntity
  8
rozmir
  6
DASHDOT2
 62
  256
370
   -1
100
AcDbLine
 10
49.00000000000001
 20
92.00000000000001
 11
49.00000000000001
 21
89.00000000000001
  0
DIMENSION
  5
108
100
AcDbEntity
  8
rozmir
  6
ByLayer
 62
  256
370
   -1
100
AcDbDimension
  2
*D9
 10
13
 20
110
 30
0
 11
11.5
 21
114
 31
0
 70
   32
 71
    5
 72
    0
  3
Standard
 53
0
210
0
220
0
230
1
100
AcDbAlignedDimension
 13
10
 23
110
 33
0
 14
13
 24
110
 34
0
100
AcDbRotatedDimension
  0
LWPOLYLINE
  5
109
100
AcDbEntity
  8
brick
  6
ByLayer
 62
  256
370
   -1
100
AcDbPolyline
 90
    3
 70
    0
 43
0
 10
0
 20
93
 10
0
 20
105
 10
10
 20
105
  0
LWPOLYLINE
  5
10A
100
AcDbEntity
  8
brick
  6
DASHED2
 62
  256
370
   -1
100
AcDbPolyline
 90
    2
 70
    0
 43
0
 10
10
 20
105
 10
13
 20
105
  0
LWPOLYLINE
  5
10B
100
AcDbEntity
  8
brick
  6
ByLayer
 62
  256
370
   -1
100
AcDbPolyline
 90
    3
 70
    0
 43
0
 10
55
 20
105
 10
65
 20
105
 10
65
 20
93
  0
LWPOLYLINE
  5
10C
100
AcDbEntity
  8
brick
  6
DASHED2
 62
  256
370
   -1
100
AcDbPolyline
 90
    2
 70
    0
 43
0
 10
52
 20
105
 10
55
 20
105
  0
LWPOLYLINE
  5
10D
100
AcDbEntity
  8
brick
  6
ByLayer
 62
  256
370
   -1
100
AcDbPolyline
 90
    4
 70
    0
 43
0
 10
13
 20
105
 10
26.5
 20
105
 10
26.5
 20
120
 10
31
 20
120
  0
LWPOLYLINE
  5
10E
100
AcDbEntity
  8
brick
  6
ByLayer
 62
  256
370
   -1
100
AcDbPolyline
 90
    4
 70
    0
 43
0
 10
52
 20
105
 10
38.5
 20
105
 10
38.5
 20
120
 10
34
 20
120
  0
LWPOLYLINE
  5
10F
100
AcDbEntity
  8
brick
  6
DASHED2
 62
  256
370
   -1
100
AcDbPolyline
 90
    2
 70
    0
 43
0
 10
31
 20
120
 10
34
 20
120
  0
LINE
  5
110
100
AcDbEntity
  8
rozmir
  6
DASHDOT2
 62
  256
370
   -1
100
AcDbLine
 10
-10
 20
26
 11
75
 21
26
  0
LINE
  5
111
100
AcDbEntity
  8
rozmir
  6
DASHDOT2
 62
  256
370
   -1
100
AcDbLine
 10
32.5
 20
62
 11
32.5
 21
-10
  0
LWPOLYLINE
  5
112
100
AcDbEntity
  8
opora
  6
ByLayer
 62
  256
370
   -1
100
AcDbPolyline
 90
    4
 70
    1
 43
0
 10
10
 20
52.4
 10
13
 20
52.4
 10
13
 20
52.8
 10
10
 20
52.8
  0
LWPOLYLINE
  5
113
100
AcDbEntity
  8
opora
  6
ByLayer
 62
  256
370
   -1
100
AcDbPolyline
 90
    4
 70
    1
 43
0
 10
31
 20
52.4
 10
34
 20
52.4
 10
34
 20
52.8
 10
31
 20
52.8
  0
LWPOLYLINE
  5
114
100
AcDbEntity
  8
opora
  6
ByLayer
 62
  256
370
   -1
100
AcDbPolyline
 90
    4
 70
    1
 43
0
 10
52
 20
52.4
 10
55
 20
52.4
 10
55
 20
52.8
 10
52
 20
52.8
  0
LWPOLYLINE
  5
115
100
AcDbEntity
  8
opora
  6
ByLayer
 62
  256
370
   -1
100
AcDbPolyline
 90
    4
 70
    1
 43
0
 10
52
 20
-0.3999999999999986
 10
55
 20
-0.3999999999999986
 10
55
 20
-0.7999999999999972
 10
52
 20
-0.7999999999999972
  0
LWPOLYLINE
  5
116
100
AcDbEntity
  8
opora
  6
ByLayer
 62
  256
370
   -1
100
AcDbPolyline
 90
    4
 70
    1
 43
0
 10
10
 20
-0.3999999999999986
 10
13
 20
-0.3999999999999986
 10
13
 20
-0.7999999999999901
 10
10
 20
-0.7999999999999901
  0
LWPOLYLINE
  5
117
100
AcDbEntity
  8
opora
  6
ByLayer
 62
  256
370
   -1
100
AcDbPolyline
 90
    4
 70
    1
 43
0
 10
32.5
 20
-0.3999999999999986
 10
35.5
 20
-0.3999999999999986
 10
35.5
 20
-0.7999999999999901
 10
32.5
 20
-0.7999999999999901
  0
ENDSEC
  0
SECTION
  2
OBJECTS
  0
DICTIONARY
  5
C
330
0
100
AcDbDictionary
281
    1
  3
ACAD_GROUP
350
D
  0
DICTIONARY
  5
D
330
C
100
AcDbDictionary
281
    1
  0
ENDSEC
  0
EOF
